<?xml version="1.0" encoding="UTF-8" standalone="no"?>
<!-- Created with Inkscape (http://www.inkscape.org/) -->

<svg
   xmlns:dc="http://purl.org/dc/elements/1.1/"
   xmlns:cc="http://creativecommons.org/ns#"
   xmlns:rdf="http://www.w3.org/1999/02/22-rdf-syntax-ns#"
   xmlns:svg="http://www.w3.org/2000/svg"
   xmlns="http://www.w3.org/2000/svg"
   xmlns:sodipodi="http://sodipodi.sourceforge.net/DTD/sodipodi-0.dtd"
   xmlns:inkscape="http://www.inkscape.org/namespaces/inkscape"
   width="744.09448819"
   height="1052.3622047"
   id="svg7815"
   version="1.1"
   inkscape:version="0.48.3.1 r9886"
   sodipodi:docname="matrika_R.svg">
  <defs
     id="defs7817">
    <marker
       inkscape:stockid="Arrow1Mendly"
       orient="auto"
       refY="0"
       refX="0"
       id="Arrow1Mendly"
       style="overflow:visible">
      <path
         inkscape:connector-curvature="0"
         id="path4342"
         d="M 0,0 5,-5 -12.5,0 5,5 0,0 z"
         style="fill:#800000;fill-rule:evenodd;stroke:#800000;stroke-width:1pt"
         transform="matrix(-0.4,0,0,-0.4,-4,0)" />
    </marker>
    <marker
       inkscape:stockid="Arrow1Mendly"
       orient="auto"
       refY="0"
       refX="0"
       id="marker7801"
       style="overflow:visible">
      <path
         inkscape:connector-curvature="0"
         id="path7803"
         d="M 0,0 5,-5 -12.5,0 5,5 0,0 z"
         style="fill:#800000;fill-rule:evenodd;stroke:#800000;stroke-width:1pt"
         transform="matrix(-0.4,0,0,-0.4,-4,0)" />
    </marker>
    <marker
       inkscape:stockid="Arrow1Mendly"
       orient="auto"
       refY="0"
       refX="0"
       id="Arrow1Mendly-9"
       style="overflow:visible">
      <path
         inkscape:connector-curvature="0"
         id="path4342-7"
         d="M 0,0 5,-5 -12.5,0 5,5 0,0 z"
         style="fill:#800000;fill-rule:evenodd;stroke:#800000;stroke-width:1pt"
         transform="matrix(-0.4,0,0,-0.4,-4,0)" />
    </marker>
    <marker
       inkscape:stockid="Arrow1Mendly"
       orient="auto"
       refY="0"
       refX="0"
       id="marker7906"
       style="overflow:visible">
      <path
         inkscape:connector-curvature="0"
         id="path7908"
         d="M 0,0 5,-5 -12.5,0 5,5 0,0 z"
         style="fill:#800000;fill-rule:evenodd;stroke:#800000;stroke-width:1pt"
         transform="matrix(-0.4,0,0,-0.4,-4,0)" />
    </marker>
    <marker
       inkscape:stockid="DotM"
       orient="auto"
       refY="0"
       refX="0"
       id="DotM"
       style="overflow:visible">
      <path
         inkscape:connector-curvature="0"
         id="path3902"
         d="m -2.5,-1 c 0,2.76 -2.24,5 -5,5 -2.76,0 -5,-2.24 -5,-5 0,-2.76 2.24,-5 5,-5 2.76,0 5,2.24 5,5 z"
         style="fill-rule:evenodd;stroke:#000000;stroke-width:1pt"
         transform="matrix(0.4,0,0,0.4,2.96,0.4)" />
    </marker>
    <marker
       inkscape:stockid="Arrow1Mendly"
       orient="auto"
       refY="0"
       refX="0"
       id="Arrow1Mendly-0"
       style="overflow:visible">
      <path
         inkscape:connector-curvature="0"
         id="path4342-9"
         d="M 0,0 5,-5 -12.5,0 5,5 0,0 z"
         style="fill:#800000;fill-rule:evenodd;stroke:#800000;stroke-width:1pt"
         transform="matrix(-0.4,0,0,-0.4,-4,0)" />
    </marker>
    <marker
       inkscape:stockid="Arrow1Mendly"
       orient="auto"
       refY="0"
       refX="0"
       id="marker8018"
       style="overflow:visible">
      <path
         inkscape:connector-curvature="0"
         id="path8020"
         d="M 0,0 5,-5 -12.5,0 5,5 0,0 z"
         style="fill:#800000;fill-rule:evenodd;stroke:#800000;stroke-width:1pt"
         transform="matrix(-0.4,0,0,-0.4,-4,0)" />
    </marker>
    <marker
       inkscape:stockid="Arrow1Mendly"
       orient="auto"
       refY="0"
       refX="0"
       id="Arrow1Mendly-5"
       style="overflow:visible">
      <path
         inkscape:connector-curvature="0"
         id="path4342-6"
         d="M 0,0 5,-5 -12.5,0 5,5 0,0 z"
         style="fill:#800000;fill-rule:evenodd;stroke:#800000;stroke-width:1pt"
         transform="matrix(-0.4,0,0,-0.4,-4,0)" />
    </marker>
    <marker
       inkscape:stockid="Arrow1Mend"
       orient="auto"
       refY="0"
       refX="0"
       id="Arrow1Mend-9"
       style="overflow:visible">
      <path
         inkscape:connector-curvature="0"
         id="path3847-21"
         d="M 0,0 5,-5 -12.5,0 5,5 0,0 z"
         style="fill-rule:evenodd;stroke:#000000;stroke-width:1pt"
         transform="matrix(-0.4,0,0,-0.4,-4,0)" />
    </marker>
    <marker
       inkscape:stockid="Arrow1Mendly"
       orient="auto"
       refY="0"
       refX="0"
       id="marker8147"
       style="overflow:visible">
      <path
         inkscape:connector-curvature="0"
         id="path8149"
         d="M 0,0 5,-5 -12.5,0 5,5 0,0 z"
         style="fill:#800000;fill-rule:evenodd;stroke:#800000;stroke-width:1pt"
         transform="matrix(-0.4,0,0,-0.4,-4,0)" />
    </marker>
    <marker
       inkscape:stockid="Arrow1Mstart"
       orient="auto"
       refY="0"
       refX="0"
       id="Arrow1Mstart-6"
       style="overflow:visible">
      <path
         inkscape:connector-curvature="0"
         id="path3844-2"
         d="M 0,0 5,-5 -12.5,0 5,5 0,0 z"
         style="fill-rule:evenodd;stroke:#000000;stroke-width:1pt"
         transform="matrix(0.4,0,0,0.4,4,0)" />
    </marker>
    <marker
       inkscape:stockid="Arrow1Mend"
       orient="auto"
       refY="0"
       refX="0"
       id="Arrow1Mend-9-6"
       style="overflow:visible">
      <path
         inkscape:connector-curvature="0"
         id="path3847-21-3"
         d="M 0,0 5,-5 -12.5,0 5,5 0,0 z"
         style="fill-rule:evenodd;stroke:#000000;stroke-width:1pt"
         transform="matrix(-0.4,0,0,-0.4,-4,0)" />
    </marker>
    <marker
       inkscape:stockid="Arrow1Mendly"
       orient="auto"
       refY="0"
       refX="0"
       id="Arrow1Mendly-4"
       style="overflow:visible">
      <path
         inkscape:connector-curvature="0"
         id="path4342-0"
         d="M 0,0 5,-5 -12.5,0 5,5 0,0 z"
         style="fill:#800000;fill-rule:evenodd;stroke:#800000;stroke-width:1pt"
         transform="matrix(-0.4,0,0,-0.4,-4,0)" />
    </marker>
    <marker
       inkscape:stockid="Arrow1Mendly"
       orient="auto"
       refY="0"
       refX="0"
       id="marker8293"
       style="overflow:visible">
      <path
         inkscape:connector-curvature="0"
         id="path8295"
         d="M 0,0 5,-5 -12.5,0 5,5 0,0 z"
         style="fill:#800000;fill-rule:evenodd;stroke:#800000;stroke-width:1pt"
         transform="matrix(-0.4,0,0,-0.4,-4,0)" />
    </marker>
    <marker
       inkscape:stockid="DotM"
       orient="auto"
       refY="0"
       refX="0"
       id="DotM-6"
       style="overflow:visible">
      <path
         inkscape:connector-curvature="0"
         id="path3902-9"
         d="m -2.5,-1 c 0,2.76 -2.24,5 -5,5 -2.76,0 -5,-2.24 -5,-5 0,-2.76 2.24,-5 5,-5 2.76,0 5,2.24 5,5 z"
         style="fill-rule:evenodd;stroke:#000000;stroke-width:1pt"
         transform="matrix(0.4,0,0,0.4,2.96,0.4)" />
    </marker>
    <marker
       inkscape:stockid="Arrow1Mstart"
       orient="auto"
       refY="0"
       refX="0"
       id="Arrow1Mstart-6-0"
       style="overflow:visible">
      <path
         inkscape:connector-curvature="0"
         id="path3844-2-9"
         d="M 0,0 5,-5 -12.5,0 5,5 0,0 z"
         style="fill-rule:evenodd;stroke:#000000;stroke-width:1pt"
         transform="matrix(0.4,0,0,0.4,4,0)" />
    </marker>
    <marker
       inkscape:stockid="Arrow1Mendly"
       orient="auto"
       refY="0"
       refX="0"
       id="Arrow1Mendly-44"
       style="overflow:visible">
      <path
         inkscape:connector-curvature="0"
         id="path4342-2"
         d="M 0,0 5,-5 -12.5,0 5,5 0,0 z"
         style="fill:#800000;fill-rule:evenodd;stroke:#800000;stroke-width:1pt"
         transform="matrix(-0.4,0,0,-0.4,-4,0)" />
    </marker>
    <marker
       inkscape:stockid="Arrow1Mendle"
       orient="auto"
       refY="0"
       refX="0"
       id="Arrow1Mendle"
       style="overflow:visible">
      <path
         inkscape:connector-curvature="0"
         id="path4339"
         d="M 0,0 5,-5 -12.5,0 5,5 0,0 z"
         style="fill:#800000;fill-rule:evenodd;stroke:#800000;stroke-width:1pt"
         transform="matrix(-0.4,0,0,-0.4,-4,0)" />
    </marker>
    <marker
       inkscape:stockid="Arrow1Mstart"
       orient="auto"
       refY="0"
       refX="0"
       id="Arrow1Mstart"
       style="overflow:visible">
      <path
         inkscape:connector-curvature="0"
         id="path3844"
         d="M 0,0 5,-5 -12.5,0 5,5 0,0 z"
         style="fill-rule:evenodd;stroke:#000000;stroke-width:1pt"
         transform="matrix(0.4,0,0,0.4,4,0)" />
    </marker>
    <marker
       inkscape:stockid="Arrow1Mend"
       orient="auto"
       refY="0"
       refX="0"
       id="Arrow1Mend"
       style="overflow:visible">
      <path
         inkscape:connector-curvature="0"
         id="path3847"
         d="M 0,0 5,-5 -12.5,0 5,5 0,0 z"
         style="fill-rule:evenodd;stroke:#000000;stroke-width:1pt"
         transform="matrix(-0.4,0,0,-0.4,-4,0)" />
    </marker>
  </defs>
  <sodipodi:namedview
     id="base"
     pagecolor="#ffffff"
     bordercolor="#666666"
     borderopacity="1.0"
     inkscape:pageopacity="0.0"
     inkscape:pageshadow="2"
     inkscape:zoom="0.35"
     inkscape:cx="375"
     inkscape:cy="520"
     inkscape:document-units="px"
     inkscape:current-layer="layer1"
     showgrid="false"
     inkscape:window-width="472"
     inkscape:window-height="415"
     inkscape:window-x="65"
     inkscape:window-y="24"
     inkscape:window-maximized="0" />
  <metadata
     id="metadata7820">
    <rdf:RDF>
      <cc:Work
         rdf:about="">
        <dc:format>image/svg+xml</dc:format>
        <dc:type
           rdf:resource="http://purl.org/dc/dcmitype/StillImage" />
        <dc:title></dc:title>
      </cc:Work>
    </rdf:RDF>
  </metadata>
  <g
     inkscape:label="Layer 1"
     inkscape:groupmode="layer"
     id="layer1">
    <g
       transform="translate(195.19168,266.57607)"
       id="g5137">
      <rect
         y="79.206474"
         x="144.70435"
         height="53.159286"
         width="85.922241"
         id="rect2985"
         style="fill:#c1d5e9;fill-opacity:1;stroke:none" />
      <path
         sodipodi:nodetypes="cc"
         inkscape:connector-curvature="0"
         id="path3755"
         d="m 164.39419,79.206473 0,53.159277"
         style="fill:none;stroke:#000000;stroke-width:1.25;stroke-linecap:butt;stroke-linejoin:miter;stroke-miterlimit:4;stroke-opacity:1;stroke-dasharray:none" />
      <path
         sodipodi:nodetypes="cc"
         inkscape:connector-curvature="0"
         id="path3757"
         d="m 211.2321,79.206473 0,53.159277"
         style="fill:none;stroke:#000000;stroke-width:1.25;stroke-linecap:butt;stroke-linejoin:miter;stroke-miterlimit:4;stroke-opacity:1;stroke-dasharray:none" />
      <path
         sodipodi:nodetypes="cc"
         inkscape:connector-curvature="0"
         id="path3062"
         d="M 164.30803,115.60341 211.5708,96.147979"
         style="fill:none;stroke:#000000;stroke-width:0.3125;stroke-linecap:butt;stroke-linejoin:miter;stroke-miterlimit:4;stroke-opacity:1;stroke-dasharray:none" />
      <path
         sodipodi:nodetypes="cc"
         style="fill:none;stroke:#800000;stroke-width:0.625;stroke-linecap:butt;stroke-linejoin:miter;stroke-miterlimit:4;stroke-opacity:1;stroke-dasharray:none;marker-end:url(#Arrow1Mendly)"
         d="m 150.67097,121.66433 13.42266,-5.81838"
         id="path3832"
         inkscape:connector-curvature="0" />
      <path
         sodipodi:nodetypes="cc"
         style="fill:none;stroke:#800000;stroke-width:0.625;stroke-linecap:butt;stroke-linejoin:miter;stroke-miterlimit:4;stroke-opacity:1;stroke-dasharray:none;marker-end:url(#Arrow1Mendle)"
         d="m 211.77833,96.177689 13.42266,-5.81838"
         id="path3832-0"
         inkscape:connector-curvature="0" />
      <path
         inkscape:connector-curvature="0"
         id="path4371"
         d="m 152.28072,115.4457 23.73859,0"
         style="fill:none;stroke:#000000;stroke-width:0.3125;stroke-linecap:butt;stroke-linejoin:miter;stroke-miterlimit:4;stroke-opacity:1;stroke-dasharray:none" />
      <path
         inkscape:connector-curvature="0"
         id="path4371-9"
         d="m 199.50534,96.252799 23.73859,0"
         style="fill:none;stroke:#000000;stroke-width:0.3125;stroke-linecap:butt;stroke-linejoin:miter;stroke-miterlimit:4;stroke-opacity:1;stroke-dasharray:none" />
      <path
         inkscape:connector-curvature="0"
         id="path4402"
         d="m 165.91777,127.31499 44.01064,0"
         style="fill:none;stroke:#000000;stroke-width:0.625;stroke-linecap:butt;stroke-linejoin:miter;stroke-miterlimit:4;stroke-opacity:1;stroke-dasharray:none;marker-start:url(#Arrow1Mstart);marker-end:url(#Arrow1Mend)" />
      <text
         sodipodi:linespacing="125%"
         id="text4794"
         y="124.28453"
         x="187.22711"
         style="font-size:12px;font-style:normal;font-weight:normal;line-height:125%;letter-spacing:0px;word-spacing:0px;fill:#000000;fill-opacity:1;stroke:none;font-family:Sans"
         xml:space="preserve"><tspan
           style="font-size:8px;text-align:center;text-anchor:middle"
           y="124.28453"
           x="187.22711"
           id="tspan4796"
           sodipodi:role="line">$d$</tspan></text>
    </g>
  </g>
</svg>
