<?xml version="1.0" encoding="UTF-8" standalone="no"?>
<!-- Created with Inkscape (http://www.inkscape.org/) -->

<svg
   xmlns:dc="http://purl.org/dc/elements/1.1/"
   xmlns:cc="http://creativecommons.org/ns#"
   xmlns:rdf="http://www.w3.org/1999/02/22-rdf-syntax-ns#"
   xmlns:svg="http://www.w3.org/2000/svg"
   xmlns="http://www.w3.org/2000/svg"
   xmlns:sodipodi="http://sodipodi.sourceforge.net/DTD/sodipodi-0.dtd"
   xmlns:inkscape="http://www.inkscape.org/namespaces/inkscape"
   width="744.09448819"
   height="1052.3622047"
   id="svg7815"
   version="1.1"
   inkscape:version="0.48.3.1 r9886"
   sodipodi:docname="matrika_I.svg">
  <defs
     id="defs7817">
    <marker
       inkscape:stockid="Arrow1Mendly"
       orient="auto"
       refY="0"
       refX="0"
       id="Arrow1Mendly"
       style="overflow:visible">
      <path
         inkscape:connector-curvature="0"
         id="path4342"
         d="M 0,0 5,-5 -12.5,0 5,5 0,0 z"
         style="fill:#800000;fill-rule:evenodd;stroke:#800000;stroke-width:1pt"
         transform="matrix(-0.4,0,0,-0.4,-4,0)" />
    </marker>
    <marker
       inkscape:stockid="Arrow1Mendly"
       orient="auto"
       refY="0"
       refX="0"
       id="marker7801"
       style="overflow:visible">
      <path
         inkscape:connector-curvature="0"
         id="path7803"
         d="M 0,0 5,-5 -12.5,0 5,5 0,0 z"
         style="fill:#800000;fill-rule:evenodd;stroke:#800000;stroke-width:1pt"
         transform="matrix(-0.4,0,0,-0.4,-4,0)" />
    </marker>
    <marker
       inkscape:stockid="Arrow1Mendly"
       orient="auto"
       refY="0"
       refX="0"
       id="Arrow1Mendly-9"
       style="overflow:visible">
      <path
         inkscape:connector-curvature="0"
         id="path4342-7"
         d="M 0,0 5,-5 -12.5,0 5,5 0,0 z"
         style="fill:#800000;fill-rule:evenodd;stroke:#800000;stroke-width:1pt"
         transform="matrix(-0.4,0,0,-0.4,-4,0)" />
    </marker>
    <marker
       inkscape:stockid="Arrow1Mendly"
       orient="auto"
       refY="0"
       refX="0"
       id="marker7906"
       style="overflow:visible">
      <path
         inkscape:connector-curvature="0"
         id="path7908"
         d="M 0,0 5,-5 -12.5,0 5,5 0,0 z"
         style="fill:#800000;fill-rule:evenodd;stroke:#800000;stroke-width:1pt"
         transform="matrix(-0.4,0,0,-0.4,-4,0)" />
    </marker>
    <marker
       inkscape:stockid="DotM"
       orient="auto"
       refY="0"
       refX="0"
       id="DotM"
       style="overflow:visible">
      <path
         inkscape:connector-curvature="0"
         id="path3902"
         d="m -2.5,-1 c 0,2.76 -2.24,5 -5,5 -2.76,0 -5,-2.24 -5,-5 0,-2.76 2.24,-5 5,-5 2.76,0 5,2.24 5,5 z"
         style="fill-rule:evenodd;stroke:#000000;stroke-width:1pt"
         transform="matrix(0.4,0,0,0.4,2.96,0.4)" />
    </marker>
    <marker
       inkscape:stockid="Arrow1Mendly"
       orient="auto"
       refY="0"
       refX="0"
       id="Arrow1Mendly-0"
       style="overflow:visible">
      <path
         inkscape:connector-curvature="0"
         id="path4342-9"
         d="M 0,0 5,-5 -12.5,0 5,5 0,0 z"
         style="fill:#800000;fill-rule:evenodd;stroke:#800000;stroke-width:1pt"
         transform="matrix(-0.4,0,0,-0.4,-4,0)" />
    </marker>
    <marker
       inkscape:stockid="Arrow1Mendly"
       orient="auto"
       refY="0"
       refX="0"
       id="marker8018"
       style="overflow:visible">
      <path
         inkscape:connector-curvature="0"
         id="path8020"
         d="M 0,0 5,-5 -12.5,0 5,5 0,0 z"
         style="fill:#800000;fill-rule:evenodd;stroke:#800000;stroke-width:1pt"
         transform="matrix(-0.4,0,0,-0.4,-4,0)" />
    </marker>
    <marker
       inkscape:stockid="Arrow1Mendly"
       orient="auto"
       refY="0"
       refX="0"
       id="Arrow1Mendly-5"
       style="overflow:visible">
      <path
         inkscape:connector-curvature="0"
         id="path4342-6"
         d="M 0,0 5,-5 -12.5,0 5,5 0,0 z"
         style="fill:#800000;fill-rule:evenodd;stroke:#800000;stroke-width:1pt"
         transform="matrix(-0.4,0,0,-0.4,-4,0)" />
    </marker>
    <marker
       inkscape:stockid="Arrow1Mend"
       orient="auto"
       refY="0"
       refX="0"
       id="Arrow1Mend-9"
       style="overflow:visible">
      <path
         inkscape:connector-curvature="0"
         id="path3847-21"
         d="M 0,0 5,-5 -12.5,0 5,5 0,0 z"
         style="fill-rule:evenodd;stroke:#000000;stroke-width:1pt"
         transform="matrix(-0.4,0,0,-0.4,-4,0)" />
    </marker>
    <marker
       inkscape:stockid="Arrow1Mendly"
       orient="auto"
       refY="0"
       refX="0"
       id="marker8147"
       style="overflow:visible">
      <path
         inkscape:connector-curvature="0"
         id="path8149"
         d="M 0,0 5,-5 -12.5,0 5,5 0,0 z"
         style="fill:#800000;fill-rule:evenodd;stroke:#800000;stroke-width:1pt"
         transform="matrix(-0.4,0,0,-0.4,-4,0)" />
    </marker>
    <marker
       inkscape:stockid="Arrow1Mstart"
       orient="auto"
       refY="0"
       refX="0"
       id="Arrow1Mstart-6"
       style="overflow:visible">
      <path
         inkscape:connector-curvature="0"
         id="path3844-2"
         d="M 0,0 5,-5 -12.5,0 5,5 0,0 z"
         style="fill-rule:evenodd;stroke:#000000;stroke-width:1pt"
         transform="matrix(0.4,0,0,0.4,4,0)" />
    </marker>
    <marker
       inkscape:stockid="Arrow1Mend"
       orient="auto"
       refY="0"
       refX="0"
       id="Arrow1Mend-9-6"
       style="overflow:visible">
      <path
         inkscape:connector-curvature="0"
         id="path3847-21-3"
         d="M 0,0 5,-5 -12.5,0 5,5 0,0 z"
         style="fill-rule:evenodd;stroke:#000000;stroke-width:1pt"
         transform="matrix(-0.4,0,0,-0.4,-4,0)" />
    </marker>
    <marker
       inkscape:stockid="Arrow1Mendly"
       orient="auto"
       refY="0"
       refX="0"
       id="Arrow1Mendly-4"
       style="overflow:visible">
      <path
         inkscape:connector-curvature="0"
         id="path4342-0"
         d="M 0,0 5,-5 -12.5,0 5,5 0,0 z"
         style="fill:#800000;fill-rule:evenodd;stroke:#800000;stroke-width:1pt"
         transform="matrix(-0.4,0,0,-0.4,-4,0)" />
    </marker>
    <marker
       inkscape:stockid="Arrow1Mendly"
       orient="auto"
       refY="0"
       refX="0"
       id="marker8293"
       style="overflow:visible">
      <path
         inkscape:connector-curvature="0"
         id="path8295"
         d="M 0,0 5,-5 -12.5,0 5,5 0,0 z"
         style="fill:#800000;fill-rule:evenodd;stroke:#800000;stroke-width:1pt"
         transform="matrix(-0.4,0,0,-0.4,-4,0)" />
    </marker>
    <marker
       inkscape:stockid="DotM"
       orient="auto"
       refY="0"
       refX="0"
       id="DotM-6"
       style="overflow:visible">
      <path
         inkscape:connector-curvature="0"
         id="path3902-9"
         d="m -2.5,-1 c 0,2.76 -2.24,5 -5,5 -2.76,0 -5,-2.24 -5,-5 0,-2.76 2.24,-5 5,-5 2.76,0 5,2.24 5,5 z"
         style="fill-rule:evenodd;stroke:#000000;stroke-width:1pt"
         transform="matrix(0.4,0,0,0.4,2.96,0.4)" />
    </marker>
    <marker
       inkscape:stockid="Arrow1Mstart"
       orient="auto"
       refY="0"
       refX="0"
       id="Arrow1Mstart-6-0"
       style="overflow:visible">
      <path
         inkscape:connector-curvature="0"
         id="path3844-2-9"
         d="M 0,0 5,-5 -12.5,0 5,5 0,0 z"
         style="fill-rule:evenodd;stroke:#000000;stroke-width:1pt"
         transform="matrix(0.4,0,0,0.4,4,0)" />
    </marker>
  </defs>
  <sodipodi:namedview
     id="base"
     pagecolor="#ffffff"
     bordercolor="#666666"
     borderopacity="1.0"
     inkscape:pageopacity="0.0"
     inkscape:pageshadow="2"
     inkscape:zoom="0.35"
     inkscape:cx="375"
     inkscape:cy="520"
     inkscape:document-units="px"
     inkscape:current-layer="layer1"
     showgrid="false"
     inkscape:window-width="472"
     inkscape:window-height="415"
     inkscape:window-x="65"
     inkscape:window-y="24"
     inkscape:window-maximized="0" />
  <metadata
     id="metadata7820">
    <rdf:RDF>
      <cc:Work
         rdf:about="">
        <dc:format>image/svg+xml</dc:format>
        <dc:type
           rdf:resource="http://purl.org/dc/dcmitype/StillImage" />
        <dc:title></dc:title>
      </cc:Work>
    </rdf:RDF>
  </metadata>
  <g
     inkscape:label="Layer 1"
     inkscape:groupmode="layer"
     id="layer1">
    <g
       transform="translate(135.28449,61.642755)"
       id="g7615">
      <path
         sodipodi:nodetypes="cc"
         inkscape:connector-curvature="0"
         id="path6211-6"
         d="m 144.70435,456.91583 78.66684,0"
         style="fill:none;stroke:#000000;stroke-width:0.625;stroke-linecap:butt;stroke-linejoin:miter;stroke-miterlimit:4;stroke-opacity:1;stroke-dasharray:none" />
      <rect
         transform="scale(-1,1)"
         y="429.89566"
         x="-230.75345"
         height="53.159286"
         width="85.922241"
         id="rect2985-3-1-0"
         style="fill:#ffffff;fill-opacity:1;stroke:none" />
      <path
         sodipodi:nodetypes="cc"
         inkscape:connector-curvature="0"
         id="path4371-6-8-0"
         d="m 144.70435,456.91583 82.87487,0"
         style="fill:none;stroke:#000000;stroke-width:0.625;stroke-linecap:butt;stroke-linejoin:miter;stroke-miterlimit:4;stroke-opacity:1;stroke-dasharray:none;marker-end:url(#Arrow1Mend-9)" />
      <path
         sodipodi:nodetypes="cczcczc"
         inkscape:connector-curvature="0"
         id="rect5040-4-5"
         d="m 197.95675,429.7171 -1.87555,0 c 0,0 6.51786,11.8628 6.51786,26.66302 0,14.80021 -6.51786,26.49627 -6.51786,26.49627 l 2.14341,0 c 0,0 6.17821,-11.49561 6.17821,-26.66894 0,-15.17334 -6.44607,-26.49035 -6.44607,-26.49035 z"
         style="fill:#c1d5e9;fill-opacity:1;stroke:none" />
      <path
         transform="matrix(-1,0,0,1,375.45779,219.55877)"
         sodipodi:open="true"
         sodipodi:end="3.6185576"
         sodipodi:start="2.6662532"
         d="m 179.37195,263.26686 c -8.52621,-16.56535 -8.51023,-36.23236 0.0429,-52.78384"
         sodipodi:ry="57.578693"
         sodipodi:rx="57.578693"
         sodipodi:cy="236.91653"
         sodipodi:cx="230.56732"
         id="path5187-3"
         style="fill:none;stroke:#000000;stroke-width:1.25;stroke-miterlimit:4;stroke-opacity:1;stroke-dasharray:none;stroke-dashoffset:0"
         sodipodi:type="arc" />
      <path
         sodipodi:nodetypes="cc"
         style="fill:none;stroke:#800000;stroke-width:0.625;stroke-linecap:butt;stroke-linejoin:miter;stroke-miterlimit:4;stroke-opacity:1;stroke-dasharray:none;marker-end:url(#Arrow1Mendly)"
         d="m 187.17823,450.46299 12.42422,-7.724"
         id="path3832-1-9-4"
         inkscape:connector-curvature="0" />
      <path
         sodipodi:nodetypes="cc"
         style="fill:none;stroke:#800000;stroke-width:0.625;stroke-linecap:butt;stroke-linejoin:miter;stroke-miterlimit:4;stroke-opacity:1;stroke-dasharray:none;marker-end:url(#Arrow1Mendly)"
         d="m 200.32305,441.94298 -14.62622,-0.30817"
         id="path3832-1-6-8-1"
         inkscape:connector-curvature="0" />
      <path
         sodipodi:nodetypes="cc"
         inkscape:connector-curvature="0"
         id="path5189-3"
         d="m 200.44887,442.08064 -55.05333,14.89975"
         style="fill:none;stroke:#000000;stroke-width:0.3125;stroke-linecap:butt;stroke-linejoin:miter;stroke-miterlimit:4;stroke-opacity:1;stroke-dasharray:none;marker-start:none;marker-end:url(#DotM)" />
      <text
         sodipodi:linespacing="125%"
         id="text7516"
         y="449.32654"
         x="162.23213"
         style="font-size:8px;font-style:normal;font-weight:normal;line-height:125%;letter-spacing:0px;word-spacing:0px;fill:#000000;fill-opacity:1;stroke:none;font-family:Sans"
         xml:space="preserve"><tspan
           y="449.32654"
           x="162.23213"
           id="tspan7518"
           sodipodi:role="line">$R$</tspan></text>
      <text
         sodipodi:linespacing="125%"
         id="text7319-0"
         y="465.09409"
         x="224.11668"
         style="font-size:8px;font-style:normal;font-weight:normal;line-height:125%;letter-spacing:0px;word-spacing:0px;fill:#000000;fill-opacity:1;stroke:none;font-family:Sans"
         xml:space="preserve"><tspan
           style="text-align:end;text-anchor:end"
           y="465.09409"
           x="224.11668"
           id="tspan7321-5"
           sodipodi:role="line">$z$</tspan></text>
      <path
         sodipodi:nodetypes="cc"
         inkscape:connector-curvature="0"
         id="path4371-6-8-9-4"
         d="m 167.17393,458.32967 34.33928,0"
         style="fill:none;stroke:#000000;stroke-width:0.31200001;stroke-linecap:butt;stroke-linejoin:miter;stroke-miterlimit:4;stroke-opacity:1;stroke-dasharray:0.62400001, 0.31200001;stroke-dashoffset:0;marker-start:url(#Arrow1Mstart-6)" />
      <text
         sodipodi:linespacing="125%"
         id="text7319-9-3"
         y="465.09409"
         x="168.71274"
         style="font-size:8px;font-style:normal;font-weight:normal;line-height:125%;letter-spacing:0px;word-spacing:0px;fill:#000000;fill-opacity:1;stroke:none;font-family:Sans"
         xml:space="preserve"><tspan
           style="text-align:start;text-anchor:start"
           y="465.09409"
           x="168.71274"
           id="tspan7321-2-0"
           sodipodi:role="line">$z$</tspan></text>
    </g>
  </g>
</svg>
