<?xml version="1.0" encoding="UTF-8" standalone="no"?>
<!-- Created with Inkscape (http://www.inkscape.org/) -->

<svg
   xmlns:dc="http://purl.org/dc/elements/1.1/"
   xmlns:cc="http://creativecommons.org/ns#"
   xmlns:rdf="http://www.w3.org/1999/02/22-rdf-syntax-ns#"
   xmlns:svg="http://www.w3.org/2000/svg"
   xmlns="http://www.w3.org/2000/svg"
   xmlns:sodipodi="http://sodipodi.sourceforge.net/DTD/sodipodi-0.dtd"
   xmlns:inkscape="http://www.inkscape.org/namespaces/inkscape"
   width="744.09448819"
   height="1052.3622047"
   id="svg7815"
   version="1.1"
   inkscape:version="0.48.3.1 r9886"
   sodipodi:docname="matrika_df.svg">
  <defs
     id="defs7817">
    <marker
       inkscape:stockid="Arrow1Mend"
       orient="auto"
       refY="0.0"
       refX="0.0"
       id="Arrow1Mend"
       style="overflow:visible;">
      <path
         id="path4578"
         d="M 0.0,0.0 L 5.0,-5.0 L -12.5,0.0 L 5.0,5.0 L 0.0,0.0 z "
         style="fill-rule:evenodd;stroke:#000000;stroke-width:1.0pt;"
         transform="scale(0.4) rotate(180) translate(10,0)" />
    </marker>
    <marker
       inkscape:stockid="Arrow1Mstart"
       orient="auto"
       refY="0.0"
       refX="0.0"
       id="Arrow1Mstart"
       style="overflow:visible">
      <path
         id="path4575"
         d="M 0.0,0.0 L 5.0,-5.0 L -12.5,0.0 L 5.0,5.0 L 0.0,0.0 z "
         style="fill-rule:evenodd;stroke:#000000;stroke-width:1.0pt"
         transform="scale(0.4) translate(10,0)" />
    </marker>
    <marker
       inkscape:stockid="Arrow1Mendly"
       orient="auto"
       refY="0"
       refX="0"
       id="Arrow1Mendly"
       style="overflow:visible">
      <path
         inkscape:connector-curvature="0"
         id="path4342"
         d="M 0,0 5,-5 -12.5,0 5,5 0,0 z"
         style="fill:#800000;fill-rule:evenodd;stroke:#800000;stroke-width:1pt"
         transform="matrix(-0.4,0,0,-0.4,-4,0)" />
    </marker>
    <marker
       inkscape:stockid="Arrow1Mendly"
       orient="auto"
       refY="0"
       refX="0"
       id="marker7801"
       style="overflow:visible">
      <path
         inkscape:connector-curvature="0"
         id="path7803"
         d="M 0,0 5,-5 -12.5,0 5,5 0,0 z"
         style="fill:#800000;fill-rule:evenodd;stroke:#800000;stroke-width:1pt"
         transform="matrix(-0.4,0,0,-0.4,-4,0)" />
    </marker>
    <marker
       inkscape:stockid="Arrow1Mendly"
       orient="auto"
       refY="0"
       refX="0"
       id="Arrow1Mendly-9"
       style="overflow:visible">
      <path
         inkscape:connector-curvature="0"
         id="path4342-7"
         d="M 0,0 5,-5 -12.5,0 5,5 0,0 z"
         style="fill:#800000;fill-rule:evenodd;stroke:#800000;stroke-width:1pt"
         transform="matrix(-0.4,0,0,-0.4,-4,0)" />
    </marker>
    <marker
       inkscape:stockid="Arrow1Mendly"
       orient="auto"
       refY="0"
       refX="0"
       id="marker7906"
       style="overflow:visible">
      <path
         inkscape:connector-curvature="0"
         id="path7908"
         d="M 0,0 5,-5 -12.5,0 5,5 0,0 z"
         style="fill:#800000;fill-rule:evenodd;stroke:#800000;stroke-width:1pt"
         transform="matrix(-0.4,0,0,-0.4,-4,0)" />
    </marker>
    <marker
       inkscape:stockid="DotM"
       orient="auto"
       refY="0"
       refX="0"
       id="DotM"
       style="overflow:visible">
      <path
         inkscape:connector-curvature="0"
         id="path3902"
         d="m -2.5,-1 c 0,2.76 -2.24,5 -5,5 -2.76,0 -5,-2.24 -5,-5 0,-2.76 2.24,-5 5,-5 2.76,0 5,2.24 5,5 z"
         style="fill-rule:evenodd;stroke:#000000;stroke-width:1pt"
         transform="matrix(0.4,0,0,0.4,2.96,0.4)" />
    </marker>
    <marker
       inkscape:stockid="Arrow1Mendly"
       orient="auto"
       refY="0"
       refX="0"
       id="Arrow1Mendly-0"
       style="overflow:visible">
      <path
         inkscape:connector-curvature="0"
         id="path4342-9"
         d="M 0,0 5,-5 -12.5,0 5,5 0,0 z"
         style="fill:#800000;fill-rule:evenodd;stroke:#800000;stroke-width:1pt"
         transform="matrix(-0.4,0,0,-0.4,-4,0)" />
    </marker>
    <marker
       inkscape:stockid="Arrow1Mendly"
       orient="auto"
       refY="0"
       refX="0"
       id="marker8018"
       style="overflow:visible">
      <path
         inkscape:connector-curvature="0"
         id="path8020"
         d="M 0,0 5,-5 -12.5,0 5,5 0,0 z"
         style="fill:#800000;fill-rule:evenodd;stroke:#800000;stroke-width:1pt"
         transform="matrix(-0.4,0,0,-0.4,-4,0)" />
    </marker>
    <marker
       inkscape:stockid="Arrow1Mendly"
       orient="auto"
       refY="0"
       refX="0"
       id="Arrow1Mendly-1"
       style="overflow:visible">
      <path
         inkscape:connector-curvature="0"
         id="path4342-8"
         d="M 0,0 5,-5 -12.5,0 5,5 0,0 z"
         style="fill:#800000;fill-rule:evenodd;stroke:#800000;stroke-width:1pt"
         transform="matrix(-0.4,0,0,-0.4,-4,0)" />
    </marker>
    <marker
       inkscape:stockid="Arrow1Mendly"
       orient="auto"
       refY="0"
       refX="0"
       id="Arrow1Mendly-96"
       style="overflow:visible">
      <path
         inkscape:connector-curvature="0"
         id="path4342-6"
         d="M 0,0 5,-5 -12.5,0 5,5 0,0 z"
         style="fill:#800000;fill-rule:evenodd;stroke:#800000;stroke-width:1pt"
         transform="matrix(-0.4,0,0,-0.4,-4,0)" />
    </marker>
  </defs>
  <sodipodi:namedview
     id="base"
     pagecolor="#ffffff"
     bordercolor="#666666"
     borderopacity="1.0"
     inkscape:pageopacity="0.0"
     inkscape:pageshadow="2"
     inkscape:zoom="2.8"
     inkscape:cx="381.24453"
     inkscape:cy="691.98877"
     inkscape:document-units="px"
     inkscape:current-layer="layer1"
     showgrid="false"
     inkscape:window-width="1615"
     inkscape:window-height="1026"
     inkscape:window-x="65"
     inkscape:window-y="24"
     inkscape:window-maximized="1" />
  <metadata
     id="metadata7820">
    <rdf:RDF>
      <cc:Work
         rdf:about="">
        <dc:format>image/svg+xml</dc:format>
        <dc:type
           rdf:resource="http://purl.org/dc/dcmitype/StillImage" />
        <dc:title></dc:title>
      </cc:Work>
    </rdf:RDF>
  </metadata>
  <g
     inkscape:label="Layer 1"
     inkscape:groupmode="layer"
     id="layer1">
    <rect
       style="fill:none;fill-opacity:1;stroke:none"
       id="rect2985-3-1-3"
       width="85.922241"
       height="53.159286"
       x="391.48083"
       y="328.63968" />
    <path
       id="path6206"
       style="fill:#c1d5e9;stroke:#000000;stroke-width:0.88611203;stroke-miterlimit:4;stroke-opacity:1;stroke-dashoffset:0"
       d="m 455.72464,329.99025 c 4.12472,16.6242 4.10885,34.02845 0,50.62493 -4.10885,-16.59648 -4.12472,-34.00073 0,-50.62493 z"
       inkscape:connector-curvature="0"
       sodipodi:nodetypes="ccc" />
    <text
       xml:space="preserve"
       style="font-size:8px;font-style:normal;font-weight:normal;line-height:125%;letter-spacing:0px;word-spacing:0px;fill:#000000;fill-opacity:1;stroke:none;font-family:Sans"
       x="463.52505"
       y="378.33276"
       id="text6241"
       sodipodi:linespacing="125%"><tspan
         sodipodi:role="line"
         id="tspan6243"
         x="463.52505"
         y="378.33276">$f$</tspan></text>
    <path
       style="fill:none;stroke:#000000;stroke-width:0.625;stroke-linecap:butt;stroke-linejoin:miter;stroke-miterlimit:4;stroke-opacity:1;stroke-dasharray:none;marker-start:url(#Arrow1Mstart);marker-end:url(#Arrow1Mend)"
       d="m 413.84691,355.48129 41.98404,0"
       id="path6211"
       inkscape:connector-curvature="0"
       sodipodi:nodetypes="cc" />
    <text
       xml:space="preserve"
       style="font-size:8px;font-style:normal;font-weight:normal;line-height:125%;letter-spacing:0px;word-spacing:0px;fill:#000000;fill-opacity:1;stroke:none;font-family:Sans"
       x="428.75"
       y="365.21933"
       id="text12245"
       sodipodi:linespacing="125%"><tspan
         sodipodi:role="line"
         id="tspan12247"
         x="428.75"
         y="365.21933">$d$</tspan></text>
    <path
       style="fill:none;stroke:#000000;stroke-width:0.625;stroke-linecap:butt;stroke-linejoin:miter;stroke-miterlimit:4;stroke-opacity:1;stroke-dasharray:none"
       d="m 412.37926,380.54946 0,-51.32125"
       id="path12538"
       inkscape:connector-curvature="0"
       sodipodi:nodetypes="cc" />
    <path
       inkscape:connector-curvature="0"
       id="path3832"
       d="m 398.43722,370.31754 13.42266,-5.81838"
       style="fill:none;stroke:#800000;stroke-width:0.625;stroke-linecap:butt;stroke-linejoin:miter;stroke-miterlimit:4;stroke-opacity:1;stroke-dasharray:none;marker-end:url(#Arrow1Mendly)"
       sodipodi:nodetypes="cc" />
    <path
       inkscape:connector-curvature="0"
       id="path3832-8"
       d="m 458.038,340.25874 14.24815,3.31834"
       style="fill:none;stroke:#800000;stroke-width:0.625;stroke-linecap:butt;stroke-linejoin:miter;stroke-miterlimit:4;stroke-opacity:1;stroke-dasharray:none;marker-end:url(#Arrow1Mendly)"
       sodipodi:nodetypes="cc" />
  </g>
</svg>
