<?xml version="1.0" encoding="UTF-8" standalone="no"?>
<!-- generated by Grace-5.1.23 -->

<svg
   xmlns:dc="http://purl.org/dc/elements/1.1/"
   xmlns:cc="http://creativecommons.org/ns#"
   xmlns:rdf="http://www.w3.org/1999/02/22-rdf-syntax-ns#"
   xmlns:svg="http://www.w3.org/2000/svg"
   xmlns="http://www.w3.org/2000/svg"
   xmlns:sodipodi="http://sodipodi.sourceforge.net/DTD/sodipodi-0.dtd"
   xmlns:inkscape="http://www.inkscape.org/namespaces/inkscape"
   xml:space="preserve"
   width="820.49469"
   height="581.89154"
   viewBox="0 0 656.39575 465.51323"
   id="svg3317"
   version="1.1"
   inkscape:version="0.48.4 r9939"
   sodipodi:docname="01_Brewster02.pdf"><metadata
     id="metadata3357"><rdf:RDF><cc:Work
         rdf:about=""><dc:format>image/svg+xml</dc:format><dc:type
           rdf:resource="http://purl.org/dc/dcmitype/StillImage" /><dc:title></dc:title></cc:Work></rdf:RDF></metadata><defs
     id="defs3355" /><sodipodi:namedview
     pagecolor="#ffffff"
     bordercolor="#666666"
     borderopacity="1"
     objecttolerance="10"
     gridtolerance="10"
     guidetolerance="10"
     inkscape:pageopacity="0"
     inkscape:pageshadow="2"
     inkscape:window-width="1602"
     inkscape:window-height="775"
     id="namedview3353"
     showgrid="false"
     fit-margin-top="0"
     fit-margin-left="0"
     fit-margin-right="0"
     fit-margin-bottom="0"
     inkscape:zoom="1.0740833"
     inkscape:cx="560.60812"
     inkscape:cy="290.94577"
     inkscape:window-x="188"
     inkscape:window-y="167"
     inkscape:window-maximized="0"
     inkscape:current-layer="svg3317" /><g
     id="g3327"
     style="fill:none;stroke:#ff0000;stroke-width:3.19999999;stroke-linecap:butt;stroke-linejoin:miter;stroke-dasharray:none;stroke-miterlimit:4"
     transform="matrix(1,0,0,-1,-70.790822,529.51322)"><path
       inkscape:connector-curvature="0"
       id="path3329"
       d="m 91.8,108.936 0.6123,-1e-4 0.6123,-1e-4 0.6123,-3e-4 0.6123,-4e-4 0.6123,-5e-4 0.6123,-6e-4 0.6123,-8e-4 0.6123,-8e-4 0.6123,-0.001 0.6123,-10e-4 0.6123,-0.001 0.6123,-0.001 0.6123,-10e-4 0.6123,-0.002 0.6123,-0.002 0.6123,-0.002 0.6123,-0.002 0.6123,-0.002 0.6123,-0.002 0.6124,-0.002 0.6123,-0.002 0.6123,-0.002 0.6123,-0.003 0.6123,-0.003 0.6123,-0.003 0.6123,-0.003 0.6123,-0.003 0.6123,-0.003 0.6123,-0.003 0.6123,-0.003 0.6123,-0.003 0.6123,-0.004 0.6123,-0.004 0.6123,-0.004 0.6123,-0.004 0.6123,-0.004 0.6123,-0.004 0.6123,-0.004 0.6123,-0.004 0.6123,-0.004 0.6123,-0.005 0.6123,-0.005 0.6123,-0.005 0.6123,-0.005 0.6123,-0.005 0.6123,-0.005 0.6123,-0.005 0.6123,-0.005 0.6123,-0.005 0.6123,-0.005 0.6123,-0.006 0.6123,-0.006 0.6123,-0.006 0.6123,-0.006 0.6123,-0.006 0.6123,-0.006 0.6123,-0.006 0.6123,-0.007 0.6124,-0.007 0.6123,-0.007 0.6123,-0.007 0.6123,-0.007 0.6123,-0.007 0.6123,-0.007 0.6123,-0.007 0.6123,-0.007 0.6123,-0.007 0.6123,-0.008 0.6123,-0.008 0.6123,-0.008 0.6123,-0.008 0.6123,-0.008 0.6123,-0.008 0.6123,-0.008 0.6123,-0.008 0.6123,-0.008 0.6123,-0.009 0.6123,-0.009 0.6123,-0.009 0.6123,-0.009 0.6123,-0.009 0.6123,-0.009 0.6123,-0.009 0.6123,-0.009 0.6123,-0.01 0.6123,-0.01 0.6123,-0.01 0.6123,-0.01 0.6123,-0.01 0.6123,-0.0101 0.6123,-0.0103 0.6123,-0.0103 0.6123,-0.0105 0.6123,-0.0106 0.6123,-0.0107 0.6123,-0.0108 0.6123,-0.0109 0.6124,-0.0111 0.6123,-0.0111 0.6123,-0.0113 0.6123,-0.0114 0.6123,-0.0115 0.6123,-0.0116 0.6123,-0.0117 0.6123,-0.0119 0.6123,-0.0119 0.6123,-0.0121 0.6123,-0.0122 0.6123,-0.0123 0.6123,-0.0124 0.6123,-0.0125 0.6123,-0.0127 0.6123,-0.0127 0.6123,-0.0129 0.6123,-0.013 0.6123,-0.0131 0.6123,-0.0132 0.6123,-0.0134 0.6123,-0.0134 0.6123,-0.0136 0.6123,-0.0136 0.6123,-0.0138 0.6123,-0.0139 0.6123,-0.014 0.6123,-0.0142 0.6123,-0.0142 0.6123,-0.0144 0.6123,-0.0144 0.6123,-0.0146 0.6123,-0.0147 0.6123,-0.0149 0.6123,-0.0149 0.6123,-0.015 0.6123,-0.0152 0.6123,-0.0153 0.6123,-0.0154 0.6124,-0.0155 0.6123,-0.0156 0.6123,-0.0157 0.6123,-0.0159 0.6123,-0.016 0.6123,-0.016 0.6123,-0.0162 0.6123,-0.0164 0.6123,-0.0164 0.6123,-0.0165 0.6123,-0.0167 0.6123,-0.0168 0.6123,-0.0169 0.6123,-0.017 0.6123,-0.0171 0.6123,-0.0172 0.6123,-0.0174 0.6123,-0.0174 0.6123,-0.0176 0.6123,-0.0177 0.6123,-0.0178 0.6123,-0.0179 0.6123,-0.0181 0.6123,-0.0181 0.6123,-0.0183 0.6123,-0.0184 0.6123,-0.0185 0.6123,-0.0186 0.6123,-0.0187 0.6123,-0.0189 0.6123,-0.0189 0.6123,-0.0191 0.6123,-0.0192 0.6123,-0.0193 0.6123,-0.0194 0.6123,-0.0196 0.6123,-0.0196 0.6123,-0.0198 0.6123,-0.0199 0.6124,-0.02 0.6123,-0.0201 0.6123,-0.0203 0.6123,-0.0203 0.6123,-0.0205 0.6123,-0.0205 0.6123,-0.0207 0.6123,-0.0209 0.6123,-0.0209 0.6123,-0.021 0.6123,-0.0212 0.6123,-0.0213 0.6123,-0.0213 0.6123,-0.0215 0.6123,-0.0217 0.6123,-0.0217 0.6123,-0.0219 0.6123,-0.0219 0.6123,-0.0221 0.6123,-0.0222 0.6123,-0.0223 0.6123,-0.0224 0.6123,-0.0226 0.6123,-0.0226 0.6123,-0.0228 0.6123,-0.0229 0.6123,-0.023 0.6123,-0.0231 0.6123,-0.0233 0.6123,-0.0233 0.6123,-0.0235 0.6123,-0.0236 0.6123,-0.0237 0.6123,-0.0238 0.6123,-0.0239 0.6123,-0.0241 0.6123,-0.0241 0.6123,-0.0243 0.6123,-0.0244 0.6124,-0.0245 0.6123,-0.0246 0.6123,-0.0248 0.6123,-0.0248 0.6123,-0.025 0.6123,-0.0251 0.6123,-0.0252 0.6123,-0.0253 0.6123,-0.0254 0.6123,-0.0256 0.6123,-0.0256 0.6123,-0.0258 0.6123,-0.0259 0.6123,-0.026 0.6123,-0.0261 0.6123,-0.0263 0.6123,-0.0263 0.6123,-0.0265 0.6123,-0.0266 0.6123,-0.0267 0.6123,-0.0268 0.6123,-0.0269 0.6123,-0.0271 0.6123,-0.0271 0.6123,-0.0273 0.6123,-0.0274 0.6123,-0.0275 0.6123,-0.0276 0.6123,-0.0277 0.6123,-0.0278 0.6123,-0.028 0.6123,-0.0281 0.6123,-0.0282 0.6123,-0.0283 0.6123,-0.0284 0.6123,-0.0285 0.6123,-0.0286 0.6123,-0.0288 0.6123,-0.0289 0.6124,-0.029 0.6123,-0.029 0.6123,-0.0293 0.6123,-0.0293 0.6123,-0.0294 0.6123,-0.0296 0.6123,-0.0296 0.6123,-0.0298 0.6123,-0.0299 0.6123,-0.03 0.6123,-0.0301 0.6123,-0.0303 0.6123,-0.0303 0.6123,-0.0305 0.6123,-0.0305 0.6123,-0.0307 0.6123,-0.0308 0.6123,-0.0309 0.6123,-0.031 0.6123,-0.0312 0.6123,-0.0312 0.6123,-0.0314 0.6123,-0.0314 0.6123,-0.0316 0.6123,-0.0317 0.6123,-0.0318 0.6123,-0.0319 0.6123,-0.032 0.6123,-0.0322 0.6123,-0.0322 0.6123,-0.0324 0.6123,-0.0324 0.6123,-0.0326 0.6123,-0.0327 0.6123,-0.0328 0.6123,-0.0329 0.6123,-0.033 0.6123,-0.0331 0.6123,-0.0333 0.6124,-0.0333 0.6123,-0.0335 0.6123,-0.0335 0.6123,-0.0337 0.6123,-0.0338 0.6123,-0.0339 0.6123,-0.034 0.6123,-0.0341 0.6123,-0.0342 0.6123,-0.0343 0.6123,-0.0345 0.6123,-0.0345 0.6123,-0.0347 0.6123,-0.0347 0.6123,-0.0349 0.6123,-0.035 0.6123,-0.035 0.6123,-0.0352 0.6123,-0.0353 0.6123,-0.0354 0.6123,-0.0355 0.6123,-0.0356 0.6123,-0.0357 0.6123,-0.0358 0.6123,-0.0359 0.6123,-0.0361 0.6123,-0.0361 0.6123,-0.0362 0.6123,-0.0364 0.6123,-0.0364 0.6123,-0.0366 0.6123,-0.0366 0.6123,-0.0367 0.6123,-0.0369 0.6123,-0.037 0.6123,-0.037 0.6123,-0.0372 0.6123,-0.0372 0.6123,-0.0374 0.6124,-0.0374 0.6123,-0.0376 0.6123,-0.0377 0.6123,-0.0377 0.6123,-0.0379 0.6123,-0.038 0.6123,-0.038 0.6123,-0.0382 0.6123,-0.0382 0.6123,-0.0384 0.6123,-0.0384 0.6123,-0.0386 0.6123,-0.0386 0.6123,-0.0388 0.6123,-0.0388 0.6123,-0.0389 0.6123,-0.0391 0.6123,-0.0391 0.6123,-0.0392 0.6123,-0.0393 0.6123,-0.0394 0.6123,-0.0395 0.6123,-0.0396 0.6123,-0.0397 0.6123,-0.0398 0.6123,-0.0399 0.6123,-0.0399 0.6123,-0.0401 0.6123,-0.0401 0.6123,-0.0402 0.6123,-0.0404 0.6123,-0.0404 0.6123,-0.0405 0.6123,-0.0406 0.6123,-0.0406 0.6123,-0.0408 0.6123,-0.0408 0.6123,-0.041 0.6123,-0.041 0.6124,-0.0411 0.6123,-0.0412 0.6123,-0.0413 0.6123,-0.0413 0.6123,-0.0415 0.6123,-0.0415 0.6123,-0.0416 0.6123,-0.0417 0.6123,-0.0417 0.6123,-0.0419 0.6123,-0.0419 0.6123,-0.042 0.6123,-0.0421 0.6123,-0.0422 0.6123,-0.0422 0.6123,-0.0423 0.6123,-0.0424 0.6123,-0.0424 0.6123,-0.0426 0.6123,-0.0426 0.6123,-0.0427 0.6123,-0.0427 0.6123,-0.0429 0.6123,-0.0429 0.6123,-0.0429 0.6123,-0.0431 0.6123,-0.0431 0.6123,-0.0432 0.6123,-0.0432 0.6123,-0.0433 0.6123,-0.0434 0.6123,-0.0434 0.6123,-0.0435 0.6123,-0.0436 0.6123,-0.0436 0.6123,-0.0437 0.6123,-0.0438 0.6123,-0.0438 0.6123,-0.0438 0.6124,-0.044 0.6123,-0.044 0.6123,-0.044 0.6123,-0.0441 0.6123,-0.0442 0.6123,-0.0442 0.6123,-0.0442 0.6123,-0.0443 0.6123,-0.0444 0.6123,-0.0444 0.6123,-0.0445 0.6123,-0.0445 0.6123,-0.0446 0.6123,-0.0446 0.6123,-0.0446 0.6123,-0.0447 0.6123,-0.0447 0.6123,-0.0448 0.6123,-0.0448 0.6123,-0.0449 0.6123,-0.0449 0.6123,-0.0449 0.6123,-0.045 0.6123,-0.045 0.6123,-0.0451 0.6123,-0.045 0.6123,-0.0451 0.6123,-0.0452 0.6123,-0.0451 0.6123,-0.0452 0.6123,-0.0453 0.6123,-0.0452 0.6123,-0.0453 0.6123,-0.0453 0.6123,-0.0453 0.6123,-0.0453 0.6123,-0.0454 0.6123,-0.0453 0.6123,-0.0454 0.6124,-0.0454 0.6123,-0.0455 0.6123,-0.0454 0.6123,-0.0454 0.6123,-0.0455 0.6123,-0.0454 0.6123,-0.0455 0.6123,-0.0455 0.6123,-0.0454 0.6123,-0.0455 0.6123,-0.0455 0.6123,-0.0455 0.6123,-0.0454 0.6123,-0.0455 0.6123,-0.0455 0.6123,-0.0454 0.6123,-0.0455 0.6123,-0.0454 0.6123,-0.0454 0.6123,-0.0454 0.6123,-0.0454 0.6123,-0.0454 0.6123,-0.0453 0.6123,-0.0453 0.6123,-0.0454 0.6123,-0.0452 0.6123,-0.0453 0.6123,-0.0452 0.6123,-0.0452 0.6123,-0.0452 0.6123,-0.0451 0.6123,-0.0451 0.6123,-0.045 0.6123,-0.045 0.6123,-0.045 0.6123,-0.0449 0.6123,-0.0449 0.6123,-0.0448 0.6123,-0.0448 0.6123,-0.0447 0.6124,-0.0446 0.6123,-0.0446 0.6123,-0.0446 0.6123,-0.0445 0.6123,-0.0444 0.6123,-0.0443 0.6123,-0.0443 0.6123,-0.0442 0.6123,-0.0442 0.6123,-0.044 0.6123,-0.044 0.6123,-0.0439 0.6123,-0.0438 0.6123,-0.0437 0.6123,-0.0437 0.6123,-0.0435 0.6123,-0.0435 0.6123,-0.0433 0.6123,-0.0433 0.6123,-0.0431 0.6123,-0.0431 0.6123,-0.0429 0.6123,-0.0428 0.6123,-0.0427 0.6123,-0.0426 0.6123,-0.0425 0.6123,-0.0423 0.6123,-0.0423 0.6123,-0.0421 0.6123,-0.0419 0.6123,-0.0419 0.6123,-0.0417 0.6123,-0.0415 0.6123,-0.0414 0.6123,-0.0413 0.6123,-0.0411 0.6123,-0.041 0.6123,-0.0408 0.6123,-0.0406 0.6124,-0.0405 0.6123,-0.0403 0.6123,-0.0401 0.6123,-0.04 0.6123,-0.0398 0.6123,-0.0396 0.6123,-0.0394 0.6123,-0.0393 0.6123,-0.039 0.6123,-0.0389 0.6123,-0.0386 0.6123,-0.0384 0.6123,-0.0383 0.6123,-0.038 0.6123,-0.0378 0.6123,-0.0376 0.6123,-0.0374 0.6123,-0.0371 0.6123,-0.0369 0.6123,-0.0367 0.6123,-0.0364 0.6123,-0.0362 0.6123,-0.0359 0.6123,-0.0357 0.6123,-0.0354 0.6123,-0.0352 0.6123,-0.0349 0.6123,-0.0346 0.6123,-0.0344 0.6123,-0.034 0.6123,-0.0338 0.6123,-0.0335 0.6123,-0.0332 0.6123,-0.0329 0.6123,-0.0326 0.6123,-0.0323 0.6123,-0.032 0.6123,-0.0316 0.6123,-0.0313 0.6124,-0.031 0.6123,-0.0307 0.6123,-0.0303 0.6123,-0.03 0.6123,-0.0296 0.6123,-0.0293 0.6123,-0.0289 0.6123,-0.0285 0.6123,-0.0282 0.6123,-0.0278 0.6123,-0.0274 0.6123,-0.027 0.6123,-0.0266 0.6123,-0.0262 0.6123,-0.0258 0.6123,-0.0254 0.6123,-0.0249 0.6123,-0.0246 0.6123,-0.0241 0.6123,-0.0236 0.6123,-0.0232 0.6123,-0.0228 0.6123,-0.0223 0.6123,-0.0218 0.6123,-0.0214 0.6123,-0.0208 0.6123,-0.0204 0.6123,-0.0199 0.6123,-0.0194 0.6123,-0.0189 0.6123,-0.0184 0.6123,-0.0178 0.6123,-0.0173 0.6123,-0.0168 0.6123,-0.0162 0.6123,-0.0157 0.6123,-0.0151 0.6123,-0.0146 0.6123,-0.0139 0.6124,-0.0134 0.6123,-0.0128 0.6123,-0.0122 0.6123,-0.0116 0.6123,-0.011 0.6123,-0.0103 0.6123,-0.0097 0.6123,-0.0091 0.6123,-0.0084 0.6123,-0.0078 0.6123,-0.0071 0.6123,-0.0064 0.6123,-0.0057 0.6123,-0.005 0.6123,-0.0044 0.6123,-0.0036 0.6123,-0.0028 0.6123,-0.0022 0.6123,-0.0014 0.6123,-7e-4 0.6123,2e-4 0.6123,8e-4 0.6123,0.0017 0.6123,0.0025 0.6123,0.0032 0.6123,0.0041 0.6123,0.0049 0.6123,0.0057 0.6123,0.0066 0.6123,0.0075 0.6123,0.0083 0.6123,0.0092 0.6123,0.01 0.6123,0.011 0.6123,0.0119 0.6123,0.0128 0.6123,0.0138 0.6123,0.0147 0.6123,0.0156 0.6124,0.0167 0.6123,0.0176 0.6123,0.0186 0.6123,0.0196 0.6123,0.0207 0.6123,0.0217 0.6123,0.0227 0.6123,0.0238 0.6123,0.0249 0.6123,0.0259 0.6123,0.0271 0.6123,0.0281 0.6123,0.0293 0.6123,0.0305 0.6123,0.0316 0.6123,0.0328 0.6123,0.0339 0.6123,0.0352 0.6123,0.0364 0.6123,0.0376 0.6123,0.0388 0.6123,0.0401 0.6123,0.0414 0.6123,0.0427 0.6123,0.044 0.6123,0.0453 0.6123,0.0466 0.6123,0.048 0.6123,0.0494 0.6123,0.0507 0.6123,0.0522 0.6123,0.0536 0.6123,0.055 0.6123,0.0565 0.6123,0.058 0.6123,0.0594 0.6123,0.061 0.6123,0.0625 0.6123,0.064 0.6124,0.0656 0.6123,0.0672 0.6123,0.0688 0.6123,0.0704 0.6123,0.0721 0.6123,0.0737 0.6123,0.0754 0.6123,0.0771 0.6123,0.0788 0.6123,0.0806 0.6123,0.0823 0.6123,0.0841 0.6123,0.0859 0.6123,0.0877 0.6123,0.0896 0.6123,0.0915 0.6123,0.0933 0.6123,0.0953 0.6123,0.0972 0.6123,0.0991 0.6123,0.1011 0.6123,0.1032 0.6123,0.1052 0.6123,0.1072 0.6123,0.1093 0.6123,0.1114 0.6123,0.1135 0.6123,0.1157 0.6123,0.1178 0.6123,0.1201 0.6123,0.1223 0.6123,0.1245 0.6123,0.1268 0.6123,0.1292 0.6123,0.1314 0.6123,0.1339 0.6123,0.1362 0.6123,0.1386 0.6123,0.1411 0.6124,0.1435 0.6123,0.1461 0.6123,0.1485 0.6123,0.1512 0.6123,0.1537 0.6123,0.1563 0.6123,0.159 0.6123,0.1617 0.6123,0.1644 0.6123,0.1672 0.6123,0.1699 0.6123,0.1727 0.6123,0.1755 0.6123,0.1785 0.6123,0.1813 0.6123,0.1843 0.6123,0.1873 0.6123,0.1902 0.6123,0.1933 0.6123,0.1964 0.6123,0.1995 0.6123,0.2027 0.6123,0.2058 0.6123,0.2091 0.6123,0.2123 0.6123,0.2156 0.6123,0.219 0.6123,0.2223 0.6123,0.2257 0.6123,0.2292 0.6123,0.2327 0.6123,0.2363 0.6123,0.2398 0.6123,0.2434 0.6123,0.247 0.6123,0.2508 0.6123,0.2545 0.6123,0.2583 0.6123,0.2621 0.6124,0.266 0.6123,0.2699 0.6123,0.2739 0.6123,0.2779 0.6123,0.2819 0.6123,0.286 0.6123,0.2902 0.6123,0.2943 0.6123,0.2987 0.6123,0.3029 0.6123,0.3072 0.6123,0.3116 0.6123,0.3161 0.6123,0.3206 0.6123,0.3251 0.6123,0.3297 0.6123,0.3343 0.6123,0.3391 0.6123,0.3438 0.6123,0.3486 0.6123,0.3535 0.6123,0.3584 0.6123,0.3634 0.6123,0.3684 0.6123,0.3735 0.6123,0.3786 0.6123,0.3839 0.6123,0.3892 0.6123,0.3944 0.6123,0.3999 0.6123,0.4053 0.6123,0.4108 0.6123,0.4165 0.6123,0.422 0.6123,0.4278 0.6123,0.4335 0.6123,0.4394 0.6123,0.4453 0.6123,0.4513 0.6124,0.4573 0.6123,0.4634 0.6123,0.4696 0.6123,0.4759 0.6123,0.4822 0.6123,0.4886 0.6123,0.495 0.6123,0.5017 0.6123,0.5082 0.6123,0.515 0.6123,0.5217 0.6123,0.5286 0.6123,0.5355 0.6123,0.5425 0.6123,0.5496 0.6123,0.5568 0.6123,0.5641 0.6123,0.5714 0.6123,0.5788 0.6123,0.5864 0.6123,0.594 0.6123,0.6016 0.6123,0.6094 0.6123,0.6173 0.6123,0.6253 0.6123,0.6333 0.6123,0.6414 0.6123,0.6497 0.6123,0.658 0.6123,0.6665 0.6123,0.675 0.6123,0.6836 0.6123,0.6923 0.6123,0.7012 0.6123,0.7101 0.6123,0.7191 0.6123,0.7283 0.6123,0.7375 0.6123,0.7469 0.6124,0.7563 0.6123,0.7659 0.6123,0.7756 0.6123,0.7854 0.6123,0.7953 0.6123,0.8053 0.6123,0.8155 0.6123,0.8257 0.6123,0.8362 0.6123,0.8466 0.6123,0.8572 0.6123,0.868 0.6123,0.8789 0.6123,0.8899 0.6123,0.901 0.6123,0.9122 0.6123,0.9237 0.6123,0.9352 0.6123,0.9468 0.6123,0.9587 0.6123,0.9706 0.6123,0.9826 0.6123,0.9949 0.6123,1.0073 0.6123,1.0197 0.6123,1.0324 0.6123,1.0453 0.6123,1.0581 0.6123,1.0713 0.6123,1.0846 0.6123,1.098 0.6123,1.1115 0.6123,1.1253 0.6123,1.1392 0.6123,1.1533 0.6123,1.1675 0.6123,1.1819 0.6123,1.1965 0.6123,1.2112 0.6124,1.2262 0.6123,1.2412 0.6123,1.2565 0.6123,1.272 0.6123,1.2877 0.6123,1.3034 0.6123,1.3195 0.6123,1.3357 0.6123,1.3522 0.6123,1.3687 0.6123,1.3855 0.6123,1.4025 0.6123,1.4197 0.6123,1.4372 0.6123,1.4547 0.6123,1.4726 0.6123,1.4907 0.6123,1.5089 0.6123,1.5274 0.6123,1.5461 0.6123,1.565 0.6123,1.5842 0.6123,1.6036 0.6123,1.6232 0.6123,1.6431 0.6123,1.6632 0.6123,1.6836 0.6123,1.7041 0.6123,1.725 0.6123,1.7461 0.6123,1.7674 0.6123,1.7891 0.6123,1.8109 0.6123,1.8331 0.6123,1.8556 0.6123,1.8782 0.6123,1.9011 0.6123,1.9245 0.6123,1.9479 0.6124,1.9718 0.6123,1.9959 0.6123,2.0203 0.6123,2.0451 0.6123,2.07 0.6123,2.0954 0.6123,2.121 0.6123,2.147 0.6123,2.1733 0.6123,2.1998 0.6123,2.2268 0.6123,2.2541 0.6123,2.2817 0.6123,2.3096 0.6123,2.3379 0.6123,2.3666 0.6123,2.3955 0.6123,2.425 0.6123,2.4546 0.6123,2.4848 0.6123,2.5153 0.6123,2.5461 0.6123,2.5774 0.6123,2.609 0.6123,2.6411 0.6123,2.6735 0.6123,2.7064 0.6123,2.7397 0.6123,2.7733 0.6123,2.8075 0.6123,2.842 0.6123,2.877 0.6123,2.9125 0.6123,2.9483 0.6123,2.9847 0.6123,3.0215 0.6123,3.0588 0.6123,3.0965 0.6123,3.1347 0.6124,3.1735 0.6123,3.2127 0.6123,3.2524 0.6123,3.2927 0.6123,3.3334 0.6123,3.3747 0.6123,3.4165 0.6123,3.4589 0.6123,3.5018 0.6123,3.5452 0.6123,3.5893 0.6123,3.6338 0.6123,3.679 0.6123,3.7248 0.6123,3.7712 0.6123,3.8181 0.6123,3.8657 0.6123,3.9139 0.6123,3.9627 0.6123,4.0122 0.6123,4.0624 0.6123,4.1132 0.6123,4.1646 0.6123,4.2167 0.6123,4.2696 0.6123,4.3231 0.6123,4.3774 0.6123,4.4323 0.6123,4.4881 0.6123,4.5444 0.6123,4.6017 0.6123,4.6597 0.6123,4.7183 0.6123,4.7779 0.6123,4.8383 0.6123,4.8993 0.6123,4.9613 0.6123,5.0242 0.6123,5.0878 0.6124,5.1522 0.6123,5.2177 0.6123,5.284 0.6123,5.3511"
       style="stroke-width:3.19999999;stroke-miterlimit:4;stroke-dasharray:none" /></g><g
     id="g3331"
     style="fill:none;stroke:#0000ff;stroke-width:3.19999999;stroke-linecap:butt;stroke-linejoin:miter;stroke-dasharray:none;stroke-miterlimit:4"
     transform="matrix(1,0,0,-1,-70.790822,529.51322)"><path
       inkscape:connector-curvature="0"
       id="path3333"
       d="m 91.8,108.936 0.6123,10e-5 0.6123,1e-4 0.6123,3e-4 0.6123,4e-4 0.6123,5e-4 0.6123,6e-4 0.6123,8e-4 0.6123,8e-4 0.6123,0.001 0.6123,10e-4 0.6123,0.001 0.6123,0.001 0.6123,10e-4 0.6123,0.002 0.6123,0.002 0.6123,0.002 0.6123,0.002 0.6123,0.002 0.6123,0.002 0.6124,0.002 0.6123,0.002 0.6123,0.002 0.6123,0.003 0.6123,0.003 0.6123,0.003 0.6123,0.003 0.6123,0.003 0.6123,0.003 0.6123,0.003 0.6123,0.003 0.6123,0.003 0.6123,0.004 0.6123,0.004 0.6123,0.004 0.6123,0.004 0.6123,0.004 0.6123,0.004 0.6123,0.004 0.6123,0.004 0.6123,0.004 0.6123,0.005 0.6123,0.005 0.6123,0.005 0.6123,0.005 0.6123,0.005 0.6123,0.005 0.6123,0.005 0.6123,0.005 0.6123,0.005 0.6123,0.006 0.6123,0.006 0.6123,0.006 0.6123,0.006 0.6123,0.006 0.6123,0.006 0.6123,0.006 0.6123,0.007 0.6123,0.007 0.6124,0.007 0.6123,0.007 0.6123,0.007 0.6123,0.007 0.6123,0.007 0.6123,0.007 0.6123,0.007 0.6123,0.008 0.6123,0.008 0.6123,0.008 0.6123,0.008 0.6123,0.008 0.6123,0.008 0.6123,0.008 0.6123,0.008 0.6123,0.008 0.6123,0.009 0.6123,0.009 0.6123,0.009 0.6123,0.009 0.6123,0.009 0.6123,0.009 0.6123,0.009 0.6123,0.01 0.6123,0.01 0.6123,0.01 0.6123,0.01 0.6123,0.01 0.6123,0.01 0.6123,0.0102 0.6123,0.0102 0.6123,0.0104 0.6123,0.0105 0.6123,0.0106 0.6123,0.0108 0.6123,0.0109 0.6123,0.011 0.6123,0.0111 0.6123,0.0112 0.6124,0.0114 0.6123,0.0115 0.6123,0.0116 0.6123,0.0117 0.6123,0.0119 0.6123,0.012 0.6123,0.0121 0.6123,0.0123 0.6123,0.0123 0.6123,0.0125 0.6123,0.0127 0.6123,0.0127 0.6123,0.0129 0.6123,0.013 0.6123,0.0131 0.6123,0.0133 0.6123,0.0134 0.6123,0.0135 0.6123,0.0136 0.6123,0.0138 0.6123,0.0139 0.6123,0.014 0.6123,0.0142 0.6123,0.0143 0.6123,0.0144 0.6123,0.0146 0.6123,0.0147 0.6123,0.0148 0.6123,0.0149 0.6123,0.0151 0.6123,0.0152 0.6123,0.0154 0.6123,0.0155 0.6123,0.0156 0.6123,0.0157 0.6123,0.0159 0.6123,0.016 0.6123,0.0162 0.6123,0.0163 0.6124,0.0164 0.6123,0.0166 0.6123,0.0166 0.6123,0.0169 0.6123,0.0169 0.6123,0.0172 0.6123,0.0172 0.6123,0.0174 0.6123,0.0175 0.6123,0.0177 0.6123,0.0178 0.6123,0.0179 0.6123,0.0181 0.6123,0.0182 0.6123,0.0183 0.6123,0.0185 0.6123,0.0187 0.6123,0.0188 0.6123,0.0189 0.6123,0.0191 0.6123,0.0192 0.6123,0.0193 0.6123,0.0195 0.6123,0.0197 0.6123,0.0198 0.6123,0.0199 0.6123,0.0201 0.6123,0.0202 0.6123,0.0204 0.6123,0.0205 0.6123,0.0207 0.6123,0.0208 0.6123,0.0209 0.6123,0.0211 0.6123,0.0213 0.6123,0.0214 0.6123,0.0216 0.6123,0.0217 0.6123,0.0219 0.6124,0.022 0.6123,0.0221 0.6123,0.0224 0.6123,0.0224 0.6123,0.0227 0.6123,0.0227 0.6123,0.023 0.6123,0.0231 0.6123,0.0232 0.6123,0.0234 0.6123,0.0236 0.6123,0.0237 0.6123,0.0239 0.6123,0.024 0.6123,0.0242 0.6123,0.0243 0.6123,0.0246 0.6123,0.0246 0.6123,0.0249 0.6123,0.025 0.6123,0.0251 0.6123,0.0253 0.6123,0.0255 0.6123,0.0257 0.6123,0.0258 0.6123,0.0259 0.6123,0.0262 0.6123,0.0263 0.6123,0.0265 0.6123,0.0266 0.6123,0.0268 0.6123,0.027 0.6123,0.0271 0.6123,0.0274 0.6123,0.0275 0.6123,0.0276 0.6123,0.0278 0.6123,0.028 0.6123,0.0282 0.6124,0.0284 0.6123,0.0285 0.6123,0.0287 0.6123,0.0289 0.6123,0.029 0.6123,0.0292 0.6123,0.0294 0.6123,0.0296 0.6123,0.0298 0.6123,0.0299 0.6123,0.0302 0.6123,0.0303 0.6123,0.0304 0.6123,0.0307 0.6123,0.0309 0.6123,0.031 0.6123,0.0312 0.6123,0.0314 0.6123,0.0316 0.6123,0.0318 0.6123,0.0319 0.6123,0.0322 0.6123,0.0323 0.6123,0.0326 0.6123,0.0327 0.6123,0.0329 0.6123,0.0331 0.6123,0.0333 0.6123,0.0335 0.6123,0.0337 0.6123,0.0338 0.6123,0.0341 0.6123,0.0343 0.6123,0.0344 0.6123,0.0347 0.6123,0.0349 0.6123,0.035 0.6123,0.0353 0.6123,0.0355 0.6124,0.0356 0.6123,0.0359 0.6123,0.0361 0.6123,0.0363 0.6123,0.0365 0.6123,0.0367 0.6123,0.0369 0.6123,0.0371 0.6123,0.0373 0.6123,0.0375 0.6123,0.0378 0.6123,0.0379 0.6123,0.0382 0.6123,0.0384 0.6123,0.0385 0.6123,0.0389 0.6123,0.039 0.6123,0.0392 0.6123,0.0395 0.6123,0.0397 0.6123,0.0399 0.6123,0.0401 0.6123,0.0403 0.6123,0.0406 0.6123,0.0408 0.6123,0.041 0.6123,0.0413 0.6123,0.0414 0.6123,0.0417 0.6123,0.0419 0.6123,0.0422 0.6123,0.0424 0.6123,0.0426 0.6123,0.0429 0.6123,0.0431 0.6123,0.0433 0.6123,0.0435 0.6123,0.0438 0.6123,0.0441 0.6124,0.0443 0.6123,0.0445 0.6123,0.0447 0.6123,0.045 0.6123,0.0453 0.6123,0.0455 0.6123,0.0457 0.6123,0.046 0.6123,0.0462 0.6123,0.0465 0.6123,0.0467 0.6123,0.047 0.6123,0.0473 0.6123,0.0475 0.6123,0.0477 0.6123,0.048 0.6123,0.0483 0.6123,0.0485 0.6123,0.0488 0.6123,0.049 0.6123,0.0493 0.6123,0.0496 0.6123,0.0499 0.6123,0.0501 0.6123,0.0503 0.6123,0.0507 0.6123,0.0509 0.6123,0.0512 0.6123,0.0514 0.6123,0.0517 0.6123,0.0521 0.6123,0.0522 0.6123,0.0526 0.6123,0.0528 0.6123,0.0532 0.6123,0.0534 0.6123,0.0536 0.6123,0.054 0.6123,0.0543 0.6124,0.0545 0.6123,0.0549 0.6123,0.0551 0.6123,0.0554 0.6123,0.0557 0.6123,0.056 0.6123,0.0563 0.6123,0.0566 0.6123,0.0569 0.6123,0.0572 0.6123,0.0575 0.6123,0.0578 0.6123,0.0581 0.6123,0.0585 0.6123,0.0587 0.6123,0.059 0.6123,0.0594 0.6123,0.0596 0.6123,0.06 0.6123,0.0603 0.6123,0.0606 0.6123,0.0609 0.6123,0.0613 0.6123,0.0616 0.6123,0.0618 0.6123,0.0623 0.6123,0.0625 0.6123,0.0629 0.6123,0.0632 0.6123,0.0635 0.6123,0.0639 0.6123,0.0642 0.6123,0.0646 0.6123,0.0648 0.6123,0.0653 0.6123,0.0655 0.6123,0.066 0.6123,0.0662 0.6123,0.0666 0.6124,0.067 0.6123,0.0673 0.6123,0.0676 0.6123,0.0681 0.6123,0.0683 0.6123,0.0688 0.6123,0.0691 0.6123,0.0694 0.6123,0.0698 0.6123,0.0702 0.6123,0.0706 0.6123,0.0709 0.6123,0.0713 0.6123,0.0716 0.6123,0.0721 0.6123,0.0724 0.6123,0.0728 0.6123,0.0732 0.6123,0.0736 0.6123,0.0739 0.6123,0.0744 0.6123,0.0747 0.6123,0.0751 0.6123,0.0755 0.6123,0.0759 0.6123,0.0764 0.6123,0.0767 0.6123,0.0771 0.6123,0.0775 0.6123,0.0779 0.6123,0.0784 0.6123,0.0787 0.6123,0.0792 0.6123,0.0795 0.6123,0.08 0.6123,0.0804 0.6123,0.0809 0.6123,0.0812 0.6123,0.0817 0.6124,0.0821 0.6123,0.0826 0.6123,0.0829 0.6123,0.0835 0.6123,0.0838 0.6123,0.0843 0.6123,0.0847 0.6123,0.0852 0.6123,0.0856 0.6123,0.0861 0.6123,0.0866 0.6123,0.0869 0.6123,0.0875 0.6123,0.0879 0.6123,0.0884 0.6123,0.0888 0.6123,0.0893 0.6123,0.0898 0.6123,0.0902 0.6123,0.0907 0.6123,0.0912 0.6123,0.0917 0.6123,0.0922 0.6123,0.0926 0.6123,0.0932 0.6123,0.0936 0.6123,0.0941 0.6123,0.0946 0.6123,0.0951 0.6123,0.0957 0.6123,0.0961 0.6123,0.0966 0.6123,0.0972 0.6123,0.0976 0.6123,0.0982 0.6123,0.0987 0.6123,0.0992 0.6123,0.0997 0.6123,0.1003 0.6124,0.1008 0.6123,0.1013 0.6123,0.1019 0.6123,0.1024 0.6123,0.103 0.6123,0.1035 0.6123,0.104 0.6123,0.1046 0.6123,0.1052 0.6123,0.1057 0.6123,0.1063 0.6123,0.1068 0.6123,0.1074 0.6123,0.108 0.6123,0.1085 0.6123,0.1092 0.6123,0.1097 0.6123,0.1103 0.6123,0.1109 0.6123,0.1114 0.6123,0.1121 0.6123,0.1127 0.6123,0.1132 0.6123,0.1139 0.6123,0.1145 0.6123,0.1151 0.6123,0.1157 0.6123,0.1163 0.6123,0.1169 0.6123,0.1176 0.6123,0.1182 0.6123,0.1188 0.6123,0.1195 0.6123,0.1201 0.6123,0.1208 0.6123,0.1214 0.6123,0.122 0.6123,0.1227 0.6123,0.1234 0.6123,0.124 0.6124,0.1247 0.6123,0.1253 0.6123,0.1261 0.6123,0.1267 0.6123,0.1274 0.6123,0.128 0.6123,0.1288 0.6123,0.1295 0.6123,0.1301 0.6123,0.1309 0.6123,0.1315 0.6123,0.1323 0.6123,0.133 0.6123,0.1337 0.6123,0.1344 0.6123,0.1352 0.6123,0.1359 0.6123,0.1366 0.6123,0.1373 0.6123,0.1381 0.6123,0.1389 0.6123,0.1396 0.6123,0.1403 0.6123,0.1412 0.6123,0.1418 0.6123,0.1427 0.6123,0.1434 0.6123,0.1442 0.6123,0.145 0.6123,0.1458 0.6123,0.1466 0.6123,0.1473 0.6123,0.1482 0.6123,0.149 0.6123,0.1498 0.6123,0.1506 0.6123,0.1514 0.6123,0.1522 0.6123,0.1531 0.6124,0.154 0.6123,0.1547 0.6123,0.1556 0.6123,0.1565 0.6123,0.1573 0.6123,0.1582 0.6123,0.159 0.6123,0.1599 0.6123,0.1608 0.6123,0.1617 0.6123,0.1625 0.6123,0.1635 0.6123,0.1643 0.6123,0.1653 0.6123,0.1661 0.6123,0.1671 0.6123,0.168 0.6123,0.1689 0.6123,0.1698 0.6123,0.1708 0.6123,0.1717 0.6123,0.1727 0.6123,0.1736 0.6123,0.1746 0.6123,0.1755 0.6123,0.1765 0.6123,0.1775 0.6123,0.1785 0.6123,0.1795 0.6123,0.1804 0.6123,0.1815 0.6123,0.1824 0.6123,0.1835 0.6123,0.1845 0.6123,0.1855 0.6123,0.1865 0.6123,0.1876 0.6123,0.1886 0.6123,0.1896 0.6124,0.1908 0.6123,0.1917 0.6123,0.1929 0.6123,0.1939 0.6123,0.195 0.6123,0.1961 0.6123,0.1972 0.6123,0.1983 0.6123,0.1994 0.6123,0.2005 0.6123,0.2016 0.6123,0.2027 0.6123,0.2039 0.6123,0.205 0.6123,0.2062 0.6123,0.2074 0.6123,0.2084 0.6123,0.2097 0.6123,0.2108 0.6123,0.2121 0.6123,0.2132 0.6123,0.2144 0.6123,0.2156 0.6123,0.2168 0.6123,0.2181 0.6123,0.2192 0.6123,0.2206 0.6123,0.2217 0.6123,0.223 0.6123,0.2243 0.6123,0.2255 0.6123,0.2268 0.6123,0.2281 0.6123,0.2293 0.6123,0.2307 0.6123,0.232 0.6123,0.2332 0.6123,0.2346 0.6123,0.236 0.6124,0.2372 0.6123,0.2387 0.6123,0.2399 0.6123,0.2414 0.6123,0.2427 0.6123,0.244 0.6123,0.2455 0.6123,0.2468 0.6123,0.2483 0.6123,0.2497 0.6123,0.2511 0.6123,0.2525 0.6123,0.254 0.6123,0.2554 0.6123,0.2569 0.6123,0.2583 0.6123,0.2598 0.6123,0.2613 0.6123,0.2628 0.6123,0.2643 0.6123,0.2658 0.6123,0.2673 0.6123,0.2689 0.6123,0.2704 0.6123,0.2719 0.6123,0.2735 0.6123,0.2751 0.6123,0.2766 0.6123,0.2783 0.6123,0.2798 0.6123,0.2814 0.6123,0.2831 0.6123,0.2847 0.6123,0.2863 0.6123,0.288 0.6123,0.2896 0.6123,0.2913 0.6123,0.293 0.6123,0.2947 0.6124,0.2964 0.6123,0.298 0.6123,0.2998 0.6123,0.3016 0.6123,0.3032 0.6123,0.3051 0.6123,0.3068 0.6123,0.3085 0.6123,0.3104 0.6123,0.3121 0.6123,0.314 0.6123,0.3158 0.6123,0.3176 0.6123,0.3194 0.6123,0.3213 0.6123,0.3232 0.6123,0.325 0.6123,0.327 0.6123,0.3288 0.6123,0.3308 0.6123,0.3326 0.6123,0.3347 0.6123,0.3365 0.6123,0.3385 0.6123,0.3405 0.6123,0.3425 0.6123,0.3445 0.6123,0.3464 0.6123,0.3485 0.6123,0.3506 0.6123,0.3526 0.6123,0.3546 0.6123,0.3567 0.6123,0.3588 0.6123,0.3609 0.6123,0.3631 0.6123,0.3651 0.6123,0.3673 0.6123,0.3694 0.6124,0.3716 0.6123,0.3738 0.6123,0.376 0.6123,0.3781 0.6123,0.3804 0.6123,0.3827 0.6123,0.3848 0.6123,0.3872 0.6123,0.3894 0.6123,0.3917 0.6123,0.394 0.6123,0.3963 0.6123,0.3987 0.6123,0.401 0.6123,0.4033 0.6123,0.4058 0.6123,0.4081 0.6123,0.4106 0.6123,0.4129 0.6123,0.4154 0.6123,0.4179 0.6123,0.4203 0.6123,0.4228 0.6123,0.4253 0.6123,0.4278 0.6123,0.4304 0.6123,0.4329 0.6123,0.4354 0.6123,0.4381 0.6123,0.4406 0.6123,0.4432 0.6123,0.4459 0.6123,0.4485 0.6123,0.4512 0.6123,0.4538 0.6123,0.4565 0.6123,0.4593 0.6123,0.4619 0.6123,0.4647 0.6124,0.4675 0.6123,0.4702 0.6123,0.4731 0.6123,0.4758 0.6123,0.4787 0.6123,0.4815 0.6123,0.4844 0.6123,0.4873 0.6123,0.4901 0.6123,0.4931 0.6123,0.4961 0.6123,0.4989 0.6123,0.502 0.6123,0.5049 0.6123,0.508 0.6123,0.511 0.6123,0.514 0.6123,0.5171 0.6123,0.5202 0.6123,0.5233 0.6123,0.5264 0.6123,0.5296 0.6123,0.5327 0.6123,0.5359 0.6123,0.5391 0.6123,0.5423 0.6123,0.5456 0.6123,0.5488 0.6123,0.5522 0.6123,0.5554 0.6123,0.5587 0.6123,0.5621 0.6123,0.5655 0.6123,0.5688 0.6123,0.5723 0.6123,0.5756 0.6123,0.5792 0.6123,0.5826 0.6123,0.5861 0.6124,0.5896 0.6123,0.5931 0.6123,0.5967 0.6123,0.6003 0.6123,0.6039 0.6123,0.6075 0.6123,0.6111 0.6123,0.6148 0.6123,0.6185 0.6123,0.6223 0.6123,0.6259 0.6123,0.6297 0.6123,0.6336 0.6123,0.6373 0.6123,0.6411 0.6123,0.645 0.6123,0.6489 0.6123,0.6527 0.6123,0.6567 0.6123,0.6607 0.6123,0.6646 0.6123,0.6686 0.6123,0.6727 0.6123,0.6767 0.6123,0.6807 0.6123,0.6849 0.6123,0.689 0.6123,0.6931 0.6123,0.6973 0.6123,0.7015 0.6123,0.7057 0.6123,0.71 0.6123,0.7143 0.6123,0.7185 0.6123,0.7229 0.6123,0.7272 0.6123,0.7317 0.6123,0.736 0.6123,0.7404 0.6124,0.745 0.6123,0.7494 0.6123,0.7539 0.6123,0.7585 0.6123,0.763 0.6123,0.7677 0.6123,0.7723 0.6123,0.7769 0.6123,0.7816 0.6123,0.7863 0.6123,0.7911 0.6123,0.7958 0.6123,0.8007 0.6123,0.8054 0.6123,0.8104 0.6123,0.8152 0.6123,0.8201 0.6123,0.8251 0.6123,0.83 0.6123,0.8351 0.6123,0.8401 0.6123,0.8451 0.6123,0.8503 0.6123,0.8553 0.6123,0.8606 0.6123,0.8657 0.6123,0.8709 0.6123,0.8762 0.6123,0.8815 0.6123,0.8868 0.6123,0.8922 0.6123,0.8975 0.6123,0.9029 0.6123,0.9084 0.6123,0.9138 0.6123,0.9194 0.6123,0.9249 0.6123,0.9305 0.6123,0.9361 0.6124,0.9417 0.6123,0.9474 0.6123,0.9531 0.6123,0.9589 0.6123,0.9646 0.6123,0.9704 0.6123,0.9763 0.6123,0.9822 0.6123,0.9881 0.6123,0.994 0.6123,1 0.6123,1.006 0.6123,1.0121 0.6123,1.0182 0.6123,1.0243 0.6123,1.0305 0.6123,1.0367 0.6123,1.0429 0.6123,1.0492 0.6123,1.0555 0.6123,1.0618 0.6123,1.0682 0.6123,1.0747 0.6123,1.0811 0.6123,1.0876 0.6123,1.0941 0.6123,1.1007 0.6123,1.1074 0.6123,1.1139 0.6123,1.1207 0.6123,1.1274 0.6123,1.1341 0.6123,1.141 0.6123,1.1478 0.6123,1.1547 0.6123,1.1616 0.6123,1.1686 0.6123,1.1756 0.6123,1.1826 0.6124,1.1897 0.6123,1.1969 0.6123,1.204 0.6123,1.2112 0.6123,1.2185 0.6123,1.2258 0.6123,1.2331 0.6123,1.2404 0.6123,1.2479 0.6123,1.2554 0.6123,1.2628 0.6123,1.2705 0.6123,1.278 0.6123,1.2856 0.6123,1.2933 0.6123,1.301 0.6123,1.3088 0.6123,1.3166 0.6123,1.3244 0.6123,1.3324 0.6123,1.3403 0.6123,1.3482 0.6123,1.3563 0.6123,1.3644 0.6123,1.3725 0.6123,1.3807 0.6123,1.3888 0.6123,1.3972 0.6123,1.4054 0.6123,1.4138 0.6123,1.4222 0.6123,1.4306 0.6123,1.4391 0.6123,1.4477 0.6123,1.4562 0.6123,1.4649 0.6123,1.4736 0.6123,1.4823 0.6123,1.4911 0.6124,1.4999 0.6123,1.5087 0.6123,1.5177 0.6123,1.5267 0.6123,1.5357 0.6123,1.5448 0.6123,1.5539 0.6123,1.563 0.6123,1.5723 0.6123,1.5816 0.6123,1.5909 0.6123,1.6002 0.6123,1.6097 0.6123,1.6192 0.6123,1.6287 0.6123,1.6382 0.6123,1.648 0.6123,1.6575 0.6123,1.6674 0.6123,1.6771 0.6123,1.6869 0.6123,1.6969 0.6123,1.7068 0.6123,1.7168 0.6123,1.7268 0.6123,1.737 0.6123,1.7471 0.6123,1.7573 0.6123,1.7676 0.6123,1.7779 0.6123,1.7883 0.6123,1.7988 0.6123,1.8092 0.6123,1.8198 0.6123,1.8304 0.6123,1.841 0.6123,1.8517 0.6123,1.8626 0.6123,1.8733 0.6124,1.8842 0.6123,1.8952 0.6123,1.9061 0.6123,1.9173 0.6123,1.9283 0.6123,1.9395 0.6123,1.9507 0.6123,1.962 0.6123,1.9733 0.6123,1.9848 0.6123,1.9962 0.6123,2.0077 0.6123,2.0193 0.6123,2.0309 0.6123,2.0427 0.6123,2.0544 0.6123,2.0662 0.6123,2.078 0.6123,2.0901 0.6123,2.102 0.6123,2.1141 0.6123,2.1262 0.6123,2.1383 0.6123,2.1507 0.6123,2.1629 0.6123,2.1753 0.6123,2.1877 0.6123,2.2002 0.6123,2.2127 0.6123,2.2254 0.6123,2.2381 0.6123,2.2507 0.6123,2.2636 0.6123,2.2765 0.6123,2.2894 0.6123,2.3023 0.6123,2.3155 0.6123,2.3285 0.6123,2.3418 0.6124,2.355 0.6123,2.3683 0.6123,2.3817 0.6123,2.3951"
       style="stroke-width:3.19999999;stroke-miterlimit:4;stroke-dasharray:none" /></g><g
     id="g3335"
     style="fill:none;stroke:#000000;stroke-width:1.83599997;stroke-linecap:butt;stroke-linejoin:miter;stroke-dasharray:none"
     transform="matrix(1,0,0,-1,-70.790822,529.51322)"><path
       inkscape:connector-curvature="0"
       id="path3337"
       d="m 91.8,91.8 0.6123,0 0.6123,0 0.6123,0 0.6123,0 0.6123,0 0.6123,0 0.6123,0 0.6123,0 0.6123,0 0.6123,0 0.6123,0 0.6123,0 0.6123,0 0.6123,0 0.6123,0 0.6123,0 0.6123,0 0.6123,0 0.6123,0 0.6124,0 0.6123,0 0.6123,0 0.6123,0 0.6123,0 0.6123,0 0.6123,0 0.6123,0 0.6123,0 0.6123,0 0.6123,0 0.6123,0 0.6123,0 0.6123,0 0.6123,0 0.6123,0 0.6123,0 0.6123,0 0.6123,0 0.6123,0 0.6123,0 0.6123,0 0.6123,0 0.6123,0 0.6123,0 0.6123,0 0.6123,0 0.6123,0 0.6123,0 0.6123,0 0.6123,0 0.6123,0 0.6123,0 0.6123,0 0.6123,0 0.6123,0 0.6123,0 0.6123,0 0.6123,0 0.6124,0 0.6123,0 0.6123,0 0.6123,0 0.6123,0 0.6123,0 0.6123,0 0.6123,0 0.6123,0 0.6123,0 0.6123,0 0.6123,0 0.6123,0 0.6123,0 0.6123,0 0.6123,0 0.6123,0 0.6123,0 0.6123,0 0.6123,0 0.6123,0 0.6123,0 0.6123,0 0.6123,0 0.6123,0 0.6123,0 0.6123,0 0.6123,0 0.6123,0 0.6123,0 0.6123,0 0.6123,0 0.6123,0 0.6123,0 0.6123,0 0.6123,0 0.6123,0 0.6123,0 0.6123,0 0.6124,0 0.6123,0 0.6123,0 0.6123,0 0.6123,0 0.6123,0 0.6123,0 0.6123,0 0.6123,0 0.6123,0 0.6123,0 0.6123,0 0.6123,0 0.6123,0 0.6123,0 0.6123,0 0.6123,0 0.6123,0 0.6123,0 0.6123,0 0.6123,0 0.6123,0 0.6123,0 0.6123,0 0.6123,0 0.6123,0 0.6123,0 0.6123,0 0.6123,0 0.6123,0 0.6123,0 0.6123,0 0.6123,0 0.6123,0 0.6123,0 0.6123,0 0.6123,0 0.6123,0 0.6123,0 0.6124,0 0.6123,0 0.6123,0 0.6123,0 0.6123,0 0.6123,0 0.6123,0 0.6123,0 0.6123,0 0.6123,0 0.6123,0 0.6123,0 0.6123,0 0.6123,0 0.6123,0 0.6123,0 0.6123,0 0.6123,0 0.6123,0 0.6123,0 0.6123,0 0.6123,0 0.6123,0 0.6123,0 0.6123,0 0.6123,0 0.6123,0 0.6123,0 0.6123,0 0.6123,0 0.6123,0 0.6123,0 0.6123,0 0.6123,0 0.6123,0 0.6123,0 0.6123,0 0.6123,0 0.6123,0 0.6124,0 0.6123,0 0.6123,0 0.6123,0 0.6123,0 0.6123,0 0.6123,0 0.6123,0 0.6123,0 0.6123,0 0.6123,0 0.6123,0 0.6123,0 0.6123,0 0.6123,0 0.6123,0 0.6123,0 0.6123,0 0.6123,0 0.6123,0 0.6123,0 0.6123,0 0.6123,0 0.6123,0 0.6123,0 0.6123,0 0.6123,0 0.6123,0 0.6123,0 0.6123,0 0.6123,0 0.6123,0 0.6123,0 0.6123,0 0.6123,0 0.6123,0 0.6123,0 0.6123,0 0.6123,0 0.6124,0 0.6123,0 0.6123,0 0.6123,0 0.6123,0 0.6123,0 0.6123,0 0.6123,0 0.6123,0 0.6123,0 0.6123,0 0.6123,0 0.6123,0 0.6123,0 0.6123,0 0.6123,0 0.6123,0 0.6123,0 0.6123,0 0.6123,0 0.6123,0 0.6123,0 0.6123,0 0.6123,0 0.6123,0 0.6123,0 0.6123,0 0.6123,0 0.6123,0 0.6123,0 0.6123,0 0.6123,0 0.6123,0 0.6123,0 0.6123,0 0.6123,0 0.6123,0 0.6123,0 0.6123,0 0.6124,0 0.6123,0 0.6123,0 0.6123,0 0.6123,0 0.6123,0 0.6123,0 0.6123,0 0.6123,0 0.6123,0 0.6123,0 0.6123,0 0.6123,0 0.6123,0 0.6123,0 0.6123,0 0.6123,0 0.6123,0 0.6123,0 0.6123,0 0.6123,0 0.6123,0 0.6123,0 0.6123,0 0.6123,0 0.6123,0 0.6123,0 0.6123,0 0.6123,0 0.6123,0 0.6123,0 0.6123,0 0.6123,0 0.6123,0 0.6123,0 0.6123,0 0.6123,0 0.6123,0 0.6123,0 0.6124,0 0.6123,0 0.6123,0 0.6123,0 0.6123,0 0.6123,0 0.6123,0 0.6123,0 0.6123,0 0.6123,0 0.6123,0 0.6123,0 0.6123,0 0.6123,0 0.6123,0 0.6123,0 0.6123,0 0.6123,0 0.6123,0 0.6123,0 0.6123,0 0.6123,0 0.6123,0 0.6123,0 0.6123,0 0.6123,0 0.6123,0 0.6123,0 0.6123,0 0.6123,0 0.6123,0 0.6123,0 0.6123,0 0.6123,0 0.6123,0 0.6123,0 0.6123,0 0.6123,0 0.6123,0 0.6124,0 0.6123,0 0.6123,0 0.6123,0 0.6123,0 0.6123,0 0.6123,0 0.6123,0 0.6123,0 0.6123,0 0.6123,0 0.6123,0 0.6123,0 0.6123,0 0.6123,0 0.6123,0 0.6123,0 0.6123,0 0.6123,0 0.6123,0 0.6123,0 0.6123,0 0.6123,0 0.6123,0 0.6123,0 0.6123,0 0.6123,0 0.6123,0 0.6123,0 0.6123,0 0.6123,0 0.6123,0 0.6123,0 0.6123,0 0.6123,0 0.6123,0 0.6123,0 0.6123,0 0.6123,0 0.6124,0 0.6123,0 0.6123,0 0.6123,0 0.6123,0 0.6123,0 0.6123,0 0.6123,0 0.6123,0 0.6123,0 0.6123,0 0.6123,0 0.6123,0 0.6123,0 0.6123,0 0.6123,0 0.6123,0 0.6123,0 0.6123,0 0.6123,0 0.6123,0 0.6123,0 0.6123,0 0.6123,0 0.6123,0 0.6123,0 0.6123,0 0.6123,0 0.6123,0 0.6123,0 0.6123,0 0.6123,0 0.6123,0 0.6123,0 0.6123,0 0.6123,0 0.6123,0 0.6123,0 0.6123,0 0.6124,0 0.6123,0 0.6123,0 0.6123,0 0.6123,0 0.6123,0 0.6123,0 0.6123,0 0.6123,0 0.6123,0 0.6123,0 0.6123,0 0.6123,0 0.6123,0 0.6123,0 0.6123,0 0.6123,0 0.6123,0 0.6123,0 0.6123,0 0.6123,0 0.6123,0 0.6123,0 0.6123,0 0.6123,0 0.6123,0 0.6123,0 0.6123,0 0.6123,0 0.6123,0 0.6123,0 0.6123,0 0.6123,0 0.6123,0 0.6123,0 0.6123,0 0.6123,0 0.6123,0 0.6123,0 0.6124,0 0.6123,0 0.6123,0 0.6123,0 0.6123,0 0.6123,0 0.6123,0 0.6123,0 0.6123,0 0.6123,0 0.6123,0 0.6123,0 0.6123,0 0.6123,0 0.6123,0 0.6123,0 0.6123,0 0.6123,0 0.6123,0 0.6123,0 0.6123,0 0.6123,0 0.6123,0 0.6123,0 0.6123,0 0.6123,0 0.6123,0 0.6123,0 0.6123,0 0.6123,0 0.6123,0 0.6123,0 0.6123,0 0.6123,0 0.6123,0 0.6123,0 0.6123,0 0.6123,0 0.6123,0 0.6123,0 0.6124,0 0.6123,0 0.6123,0 0.6123,0 0.6123,0 0.6123,0 0.6123,0 0.6123,0 0.6123,0 0.6123,0 0.6123,0 0.6123,0 0.6123,0 0.6123,0 0.6123,0 0.6123,0 0.6123,0 0.6123,0 0.6123,0 0.6123,0 0.6123,0 0.6123,0 0.6123,0 0.6123,0 0.6123,0 0.6123,0 0.6123,0 0.6123,0 0.6123,0 0.6123,0 0.6123,0 0.6123,0 0.6123,0 0.6123,0 0.6123,0 0.6123,0 0.6123,0 0.6123,0 0.6123,0 0.6124,0 0.6123,0 0.6123,0 0.6123,0 0.6123,0 0.6123,0 0.6123,0 0.6123,0 0.6123,0 0.6123,0 0.6123,0 0.6123,0 0.6123,0 0.6123,0 0.6123,0 0.6123,0 0.6123,0 0.6123,0 0.6123,0 0.6123,0 0.6123,0 0.6123,0 0.6123,0 0.6123,0 0.6123,0 0.6123,0 0.6123,0 0.6123,0 0.6123,0 0.6123,0 0.6123,0 0.6123,0 0.6123,0 0.6123,0 0.6123,0 0.6123,0 0.6123,0 0.6123,0 0.6123,0 0.6124,0 0.6123,0 0.6123,0 0.6123,0 0.6123,0 0.6123,0 0.6123,0 0.6123,0 0.6123,0 0.6123,0 0.6123,0 0.6123,0 0.6123,0 0.6123,0 0.6123,0 0.6123,0 0.6123,0 0.6123,0 0.6123,0 0.6123,0 0.6123,0 0.6123,0 0.6123,0 0.6123,0 0.6123,0 0.6123,0 0.6123,0 0.6123,0 0.6123,0 0.6123,0 0.6123,0 0.6123,0 0.6123,0 0.6123,0 0.6123,0 0.6123,0 0.6123,0 0.6123,0 0.6123,0 0.6124,0 0.6123,0 0.6123,0 0.6123,0 0.6123,0 0.6123,0 0.6123,0 0.6123,0 0.6123,0 0.6123,0 0.6123,0 0.6123,0 0.6123,0 0.6123,0 0.6123,0 0.6123,0 0.6123,0 0.6123,0 0.6123,0 0.6123,0 0.6123,0 0.6123,0 0.6123,0 0.6123,0 0.6123,0 0.6123,0 0.6123,0 0.6123,0 0.6123,0 0.6123,0 0.6123,0 0.6123,0 0.6123,0 0.6123,0 0.6123,0 0.6123,0 0.6123,0 0.6123,0 0.6123,0 0.6124,0 0.6123,0 0.6123,0 0.6123,0 0.6123,0 0.6123,0 0.6123,0 0.6123,0 0.6123,0 0.6123,0 0.6123,0 0.6123,0 0.6123,0 0.6123,0 0.6123,0 0.6123,0 0.6123,0 0.6123,0 0.6123,0 0.6123,0 0.6123,0 0.6123,0 0.6123,0 0.6123,0 0.6123,0 0.6123,0 0.6123,0 0.6123,0 0.6123,0 0.6123,0 0.6123,0 0.6123,0 0.6123,0 0.6123,0 0.6123,0 0.6123,0 0.6123,0 0.6123,0 0.6123,0 0.6124,0 0.6123,0 0.6123,0 0.6123,0 0.6123,0 0.6123,0 0.6123,0 0.6123,0 0.6123,0 0.6123,0 0.6123,0 0.6123,0 0.6123,0 0.6123,0 0.6123,0 0.6123,0 0.6123,0 0.6123,0 0.6123,0 0.6123,0 0.6123,0 0.6123,0 0.6123,0 0.6123,0 0.6123,0 0.6123,0 0.6123,0 0.6123,0 0.6123,0 0.6123,0 0.6123,0 0.6123,0 0.6123,0 0.6123,0 0.6123,0 0.6123,0 0.6123,0 0.6123,0 0.6123,0 0.6124,0 0.6123,0 0.6123,0 0.6123,0 0.6123,0 0.6123,0 0.6123,0 0.6123,0 0.6123,0 0.6123,0 0.6123,0 0.6123,0 0.6123,0 0.6123,0 0.6123,0 0.6123,0 0.6123,0 0.6123,0 0.6123,0 0.6123,0 0.6123,0 0.6123,0 0.6123,0 0.6123,0 0.6123,0 0.6123,0 0.6123,0 0.6123,0 0.6123,0 0.6123,0 0.6123,0 0.6123,0 0.6123,0 0.6123,0 0.6123,0 0.6123,0 0.6123,0 0.6123,0 0.6123,0 0.6124,0 0.6123,0 0.6123,0 0.6123,0 0.6123,0 0.6123,0 0.6123,0 0.6123,0 0.6123,0 0.6123,0 0.6123,0 0.6123,0 0.6123,0 0.6123,0 0.6123,0 0.6123,0 0.6123,0 0.6123,0 0.6123,0 0.6123,0 0.6123,0 0.6123,0 0.6123,0 0.6123,0 0.6123,0 0.6123,0 0.6123,0 0.6123,0 0.6123,0 0.6123,0 0.6123,0 0.6123,0 0.6123,0 0.6123,0 0.6123,0 0.6123,0 0.6123,0 0.6123,0 0.6123,0 0.6124,0 0.6123,0 0.6123,0 0.6123,0 0.6123,0 0.6123,0 0.6123,0 0.6123,0 0.6123,0 0.6123,0 0.6123,0 0.6123,0 0.6123,0 0.6123,0 0.6123,0 0.6123,0 0.6123,0 0.6123,0 0.6123,0 0.6123,0 0.6123,0 0.6123,0 0.6123,0 0.6123,0 0.6123,0 0.6123,0 0.6123,0 0.6123,0 0.6123,0 0.6123,0 0.6123,0 0.6123,0 0.6123,0 0.6123,0 0.6123,0 0.6123,0 0.6123,0 0.6123,0 0.6123,0 0.6124,0 0.6123,0 0.6123,0 0.6123,0 0.6123,0 0.6123,0 0.6123,0 0.6123,0 0.6123,0 0.6123,0 0.6123,0 0.6123,0 0.6123,0 0.6123,0 0.6123,0 0.6123,0 0.6123,0 0.6123,0 0.6123,0 0.6123,0 0.6123,0 0.6123,0 0.6123,0 0.6123,0 0.6123,0 0.6123,0 0.6123,0 0.6123,0 0.6123,0 0.6123,0 0.6123,0 0.6123,0 0.6123,0 0.6123,0 0.6123,0 0.6123,0 0.6123,0 0.6123,0 0.6123,0 0.6124,0 0.6123,0 0.6123,0 0.6123,0 0.6123,0 0.6123,0 0.6123,0 0.6123,0 0.6123,0 0.6123,0 0.6123,0 0.6123,0 0.6123,0 0.6123,0 0.6123,0 0.6123,0 0.6123,0 0.6123,0 0.6123,0 0.6123,0 0.6123,0 0.6123,0 0.6123,0 0.6123,0 0.6123,0 0.6123,0 0.6123,0 0.6123,0 0.6123,0 0.6123,0 0.6123,0 0.6123,0 0.6123,0 0.6123,0 0.6123,0 0.6123,0 0.6123,0 0.6123,0 0.6123,0 0.6124,0 0.6123,0 0.6123,0 0.6123,0 0.6123,0 0.6123,0 0.6123,0 0.6123,0 0.6123,0 0.6123,0 0.6123,0 0.6123,0 0.6123,0 0.6123,0 0.6123,0 0.6123,0 0.6123,0 0.6123,0 0.6123,0 0.6123,0 0.6123,0 0.6123,0 0.6123,0 0.6123,0 0.6123,0 0.6123,0 0.6123,0 0.6123,0 0.6123,0 0.6123,0 0.6123,0 0.6123,0 0.6123,0 0.6123,0 0.6123,0 0.6123,0 0.6123,0 0.6123,0 0.6123,0 0.6124,0 0.6123,0 0.6123,0 0.6123,0 0.6123,0 0.6123,0 0.6123,0 0.6123,0 0.6123,0 0.6123,0 0.6123,0 0.6123,0 0.6123,0 0.6123,0 0.6123,0 0.6123,0 0.6123,0 0.6123,0 0.6123,0 0.6123,0 0.6123,0 0.6123,0 0.6123,0 0.6123,0 0.6123,0 0.6123,0 0.6123,0 0.6123,0 0.6123,0 0.6123,0 0.6123,0 0.6123,0 0.6123,0 0.6123,0 0.6123,0 0.6123,0 0.6123,0 0.6123,0 0.6123,0 0.6124,0 0.6123,0 0.6123,0 0.6123,0" /></g><g
     id="g3339"
     style="fill:none;stroke:#000000;stroke-width:2.29500008;stroke-linecap:butt;stroke-linejoin:miter;stroke-dasharray:none"
     transform="matrix(1,0,0,-1,-70.790822,529.51322)"><path
       inkscape:connector-curvature="0"
       id="path3341"
       d="m 91.8,91.8 612,0" /><path
       inkscape:connector-curvature="0"
       id="path3343"
       d="m 91.8,520.2 612,0" /><path
       inkscape:connector-curvature="0"
       id="path3345"
       d="m 91.8,91.8 0,428.4" /><path
       inkscape:connector-curvature="0"
       id="path3347"
       d="m 703.8,91.8 0,428.4" /></g><g
     id="g3349"
     style="fill:none;stroke:#000000;stroke-width:0.91799998;stroke-linecap:butt;stroke-linejoin:miter;stroke-dasharray:none"
     transform="matrix(1,0,0,-1,-70.790822,529.51322)"><path
       inkscape:connector-curvature="0"
       id="path3351"
       d="m 91.8,91.8 0,428.4 612,0 0,-428.4 z" /></g><g
     id="g3043"><text
       sodipodi:linespacing="125%"
       id="text3085-6-3"
       y="13.552001"
       x="-2.1808"
       style="font-size:17.60000038px;font-style:normal;font-variant:normal;font-weight:normal;font-stretch:normal;line-height:125%;letter-spacing:0px;word-spacing:0px;fill:#000000;fill-opacity:1;stroke:none;font-family:Nimbus Sans L;-inkscape-font-specification:Sans"
       xml:space="preserve"><tspan
         y="13.552001"
         x="-2.1808"
         id="tspan3087-5-2"
         sodipodi:role="line">$1$</tspan></text>
<g
       id="g3027"><text
         xml:space="preserve"
         style="font-size:17.60000038px;font-style:normal;font-variant:normal;font-weight:normal;font-stretch:normal;line-height:125%;letter-spacing:0px;word-spacing:0px;fill:#000000;fill-opacity:1;stroke:none;font-family:Nimbus Sans L;-inkscape-font-specification:Sans"
         x="16.219189"
         y="464.89563"
         id="text3085"
         sodipodi:linespacing="125%"><tspan
           sodipodi:role="line"
           id="tspan3087"
           x="16.219189"
           y="464.89563">$0$</tspan></text>
<text
         xml:space="preserve"
         style="font-size:17.60000038px;font-style:normal;font-variant:normal;font-weight:normal;font-stretch:normal;line-height:125%;letter-spacing:0px;word-spacing:0px;fill:#000000;fill-opacity:1;stroke:none;font-family:Nimbus Sans L;-inkscape-font-specification:Sans"
         x="617.88831"
         y="464.89563"
         id="text3085-0"
         sodipodi:linespacing="125%"><tspan
           sodipodi:role="line"
           id="tspan3087-4"
           x="617.88831"
           y="464.89563">$90$</tspan></text>
<text
         xml:space="preserve"
         style="font-size:17.60000038px;font-style:normal;font-variant:normal;font-weight:normal;font-stretch:normal;line-height:125%;letter-spacing:0px;word-spacing:0px;fill:#000000;fill-opacity:1;stroke:none;font-family:Nimbus Sans L;-inkscape-font-specification:Sans"
         x="318.67395"
         y="464.01562"
         id="text3110"
         sodipodi:linespacing="125%"><tspan
           sodipodi:role="line"
           id="tspan3112"
           x="318.67395"
           y="464.01562">$\vartheta_1$</tspan></text>
<text
         xml:space="preserve"
         style="font-size:17.60000038px;font-style:normal;font-variant:normal;font-weight:normal;font-stretch:normal;line-height:125%;letter-spacing:0px;word-spacing:0px;fill:#000000;fill-opacity:1;stroke:none;font-family:Nimbus Sans L;-inkscape-font-specification:Sans"
         x="-2.1808"
         y="440.09564"
         id="text3085-6"
         sodipodi:linespacing="125%"><tspan
           sodipodi:role="line"
           id="tspan3087-5"
           x="-2.1808"
           y="440.09564">$0$</tspan></text>
<text
         xml:space="preserve"
         style="font-size:17.60000038px;font-style:normal;font-variant:normal;font-weight:normal;font-stretch:normal;line-height:125%;letter-spacing:0px;word-spacing:0px;fill:#000000;fill-opacity:1;stroke:none;font-family:Nimbus Sans L;-inkscape-font-specification:Sans"
         x="552.72369"
         y="390.44824"
         id="text3177"
         sodipodi:linespacing="125%"><tspan
           sodipodi:role="line"
           id="tspan3179"
           x="552.72369"
           y="390.44824">$\mathcal{R}_y$</tspan></text>
<text
         xml:space="preserve"
         style="font-size:17.60000038px;font-style:normal;font-variant:normal;font-weight:normal;font-stretch:normal;line-height:125%;letter-spacing:0px;word-spacing:0px;fill:#000000;fill-opacity:1;stroke:none;font-family:Nimbus Sans L;-inkscape-font-specification:Sans"
         x="420.82074"
         y="317.26114"
         id="text3177-0"
         sodipodi:linespacing="125%"><tspan
           sodipodi:role="line"
           id="tspan3179-3"
           x="420.82074"
           y="317.26114">$\mathcal{R}_x$</tspan></text>
<text
         xml:space="preserve"
         style="font-size:17.60000038px;font-style:normal;font-variant:normal;font-weight:normal;font-stretch:normal;line-height:125%;letter-spacing:0px;word-spacing:0px;fill:#000000;fill-opacity:1;stroke:none;font-family:Nimbus Sans L;-inkscape-font-specification:Sans"
         x="407.41919"
         y="464.01562"
         id="text3110-4"
         sodipodi:linespacing="125%"
         inkscape:transform-center-x="53.218"
         inkscape:transform-center-y="8.3248"><tspan
           sodipodi:role="line"
           id="tspan3112-5"
           x="407.41919"
           y="464.01562">$\vartheta_B$</tspan></text>
</g></g></svg>