<?xml version="1.0" encoding="UTF-8" standalone="no"?>
<!-- generated by Grace-5.1.23 -->

<svg
   xmlns:dc="http://purl.org/dc/elements/1.1/"
   xmlns:cc="http://creativecommons.org/ns#"
   xmlns:rdf="http://www.w3.org/1999/02/22-rdf-syntax-ns#"
   xmlns:svg="http://www.w3.org/2000/svg"
   xmlns="http://www.w3.org/2000/svg"
   xmlns:sodipodi="http://sodipodi.sourceforge.net/DTD/sodipodi-0.dtd"
   xmlns:inkscape="http://www.inkscape.org/namespaces/inkscape"
   xml:space="preserve"
   width="850.49475"
   height="582.34906"
   viewBox="0 0 680.39579 465.87925"
   id="svg2"
   version="1.1"
   inkscape:version="0.48.4 r9939"
   sodipodi:docname="01_Brewster01.svg"><metadata
     id="metadata42"><rdf:RDF><cc:Work
         rdf:about=""><dc:format>image/svg+xml</dc:format><dc:type
           rdf:resource="http://purl.org/dc/dcmitype/StillImage" /><dc:title /></cc:Work></rdf:RDF></metadata><defs
     id="defs40"><inkscape:path-effect
       effect="spiro"
       id="path-effect3433"
       is_visible="true" /></defs><sodipodi:namedview
     pagecolor="#ffffff"
     bordercolor="#666666"
     borderopacity="1"
     objecttolerance="10"
     gridtolerance="10"
     guidetolerance="10"
     inkscape:pageopacity="0"
     inkscape:pageshadow="2"
     inkscape:window-width="1387"
     inkscape:window-height="998"
     id="namedview38"
     showgrid="false"
     fit-margin-top="0"
     fit-margin-left="0"
     fit-margin-right="0"
     fit-margin-bottom="0"
     inkscape:zoom="0.75710423"
     inkscape:cx="352.38596"
     inkscape:cy="240.42889"
     inkscape:window-x="531"
     inkscape:window-y="15"
     inkscape:window-maximized="0"
     inkscape:current-layer="svg2" /><path
     style="fill:none;stroke:#0000ff;stroke-width:3.20000001;stroke-linecap:butt;stroke-linejoin:miter;stroke-miterlimit:4;stroke-dasharray:none"
     d="m 44.599993,261.91925 0.6123,1e-4 0.6123,2e-4 0.6123,3e-4 0.6123,5e-4 0.6123,7e-4 0.6123,7e-4 0.6123,0.001 0.6123,10e-4 0.6123,0.001 0.6123,10e-4 0.6123,0.001 0.6123,0.002 0.6123,0.002 0.6123,0.002 0.6123,0.002 0.6123,0.002 0.6123,0.002 0.6123,0.002 0.6123,0.003 0.6124,0.003 0.6123,0.003 0.6123,0.003 0.6123,0.003 0.6123,0.003 0.6123,0.003 0.6123,0.004 0.6123,0.004 0.6123,0.004 0.6123,0.004 0.6123,0.004 0.6123,0.004 0.6123,0.005 0.6123,0.005 0.6123,0.005 0.6123,0.005 0.6123,0.005 0.6123,0.005 0.6123,0.005 0.6123,0.005 0.6123,0.006 0.6123,0.006 0.6123,0.006 0.6123,0.006 0.6123,0.006 0.6123,0.006 0.6123,0.006 0.6123,0.007 0.6123,0.007 0.6123,0.007 0.6123,0.007 0.6123,0.007 0.6123,0.007 0.6123,0.007 0.6123,0.008 0.6123,0.008 0.6123,0.008 0.6123,0.008 0.6123,0.008 0.6124,0.008 0.6123,0.009 0.6123,0.008 0.6123,0.009 0.6123,0.009 0.6123,0.009 0.6123,0.009 0.6123,0.009 0.6123,0.009 0.6123,0.01 0.6123,0.01 0.6123,0.01 0.6123,0.01 0.6123,0.0102 0.6123,0.0103 0.6123,0.0105 0.6123,0.0106 0.6123,0.0107 0.6123,0.0109 0.6123,0.0111 0.6123,0.0112 0.6123,0.0113 0.6123,0.0115 0.6123,0.0117 0.6123,0.0117 0.6123,0.012 0.6123,0.012 0.6123,0.0123 0.6123,0.0123 0.6123,0.0125 0.6123,0.0127 0.6123,0.0128 0.612297,0.013 0.6123,0.0131 0.6123,0.0132 0.6123,0.0134 0.6123,0.0136 0.6123,0.0137 0.6123,0.0138 0.6124,0.014 0.6123,0.0141 0.6123,0.0143 0.6123,0.0144 0.6123,0.0146 0.6123,0.0148 0.6123,0.0149 0.6123,0.015 0.6123,0.0152 0.6123,0.0153 0.6123,0.0155 0.6123,0.0156 0.6123,0.0158 0.6123,0.0159 0.6123,0.0161 0.6123,0.0162 0.6123,0.0164 0.6123,0.0166 0.6123,0.0166 0.6123,0.0169 0.6123,0.017 0.6123,0.0171 0.6123,0.0173 0.6123,0.0175 0.6123,0.0176 0.6123,0.0177 0.6123,0.0179 0.6123,0.0181 0.6123,0.0182 0.6123,0.0183 0.6123,0.0185 0.6123,0.0187 0.6123,0.0188 0.6123,0.019 0.6123,0.0192 0.6123,0.0192 0.6123,0.0195 0.6123,0.0196 0.6123,0.0197 0.6124,0.0199 0.6123,0.0201 0.6123,0.0202 0.6123,0.0204 0.6123,0.0205 0.6123,0.0207 0.6123,0.0209 0.6123,0.021 0.6123,0.0211 0.6123,0.0213 0.6123,0.0215 0.6123,0.0216 0.6123,0.0218 0.6123,0.022 0.6123,0.0221 0.6123,0.0222 0.6123,0.0225 0.6123,0.0226 0.6123,0.0227 0.6123,0.0229 0.6123,0.0231 0.6123,0.0232 0.6123,0.0234 0.6123,0.0235 0.6123,0.0237 0.6123,0.0239 0.6123,0.024 0.6123,0.0242 0.6123,0.0244 0.6123,0.0245 0.6123,0.0247 0.6123,0.0248 0.6123,0.025 0.6123,0.0252 0.6123,0.0253 0.6123,0.0255 0.6123,0.0257 0.6123,0.0258 0.6123,0.026 0.6124,0.0261 0.6123,0.0264 0.6123,0.0264 0.6123,0.0267 0.6123,0.0268 0.6123,0.027 0.6123,0.0272 0.6123,0.0273 0.6123,0.0275 0.6123,0.0276 0.6123,0.0278 0.6123,0.028 0.6123,0.0282 0.6123,0.0283 0.6123,0.0285 0.6123,0.0287 0.6123,0.0288 0.6123,0.029 0.6123,0.0292 0.6123,0.0294 0.6123,0.0295 0.6123,0.0297 0.6123,0.0299 0.6123,0.03 0.6123,0.0302 0.6123,0.0304 0.6123,0.0306 0.6123,0.0307 0.6123,0.0309 0.6123,0.0311 0.6123,0.0312 0.6123,0.0315 0.6123,0.0316 0.6123,0.0317 0.6123,0.032 0.6123,0.0321 0.6123,0.0324 0.6123,0.0324 0.6123,0.0327 0.6124,0.0328 0.6123,0.0331 0.6123,0.0332 0.6123,0.0334 0.6123,0.0335 0.6123,0.0337 0.6123,0.034 0.6123,0.0341 0.6123,0.0342 0.6123,0.0345 0.6123,0.0347 0.6123,0.0348 0.6123,0.035 0.6123,0.0352 0.6123,0.0354 0.6123,0.0355 0.6123,0.0358 0.6123,0.0359 0.6123,0.0361 0.6123,0.0363 0.6123,0.0365 0.6123,0.0366 0.6123,0.0369 0.6123,0.037 0.6123,0.0373 0.6123,0.0374 0.6123,0.0376 0.6123,0.0378 0.6123,0.038 0.6123,0.0381 0.6123,0.0384 0.6123,0.0386 0.6123,0.0387 0.6123,0.0389 0.6123,0.0392 0.6123,0.0393 0.6123,0.0395 0.6123,0.0397 0.6123,0.0399 0.6124,0.0401 0.6123,0.0403 0.6123,0.0405 0.6123,0.0406 0.6123,0.0409 0.6123,0.0411 0.6123,0.0412 0.6123,0.0415 0.6123,0.0417 0.6123,0.0418 0.6123,0.0421 0.6123,0.0422 0.6123,0.0425 0.6123,0.0427 0.6123,0.0428 0.6123,0.0431 0.6123,0.0432 0.6123,0.0435 0.6123,0.0437 0.6123,0.0438 0.6123,0.0441 0.6123,0.0443 0.6123,0.0444 0.6123,0.0447 0.6123,0.0449 0.6123,0.0451 0.6123,0.0453 0.6123,0.0455 0.6123,0.0457 0.6123,0.046 0.6123,0.0461 0.6123,0.0463 0.6123,0.0466 0.6123,0.0468 0.6123,0.0469 0.6123,0.0472 0.6123,0.0474 0.6123,0.0476 0.6123,0.0478 0.6124,0.0481 0.6123,0.0482 0.6123,0.0485 0.6123,0.0487 0.6123,0.0489 0.6123,0.0491 0.6123,0.0493 0.6123,0.0496 0.6123,0.0497 0.6123,0.05 0.6123,0.0502 0.6123,0.0504 0.6123,0.0507 0.6123,0.0509 0.6123,0.051 0.6123,0.0513 0.6123,0.0516 0.6123,0.0517 0.6123,0.052 0.6123,0.0522 0.6123,0.0524 0.6123,0.0527 0.6123,0.0529 0.6123,0.0531 0.6123,0.0533 0.6123,0.0536 0.6123,0.0538 0.6123,0.054 0.6123,0.0543 0.6123,0.0544 0.6123,0.0548 0.6123,0.0549 0.6123,0.0552 0.6123,0.0554 0.6123,0.0556 0.6123,0.0559 0.6123,0.0561 0.6123,0.0564 0.6123,0.0566 0.6124,0.0568 0.6123,0.0571 0.6123,0.0573 0.6123,0.0575 0.6123,0.0578 0.6123,0.058 0.6123,0.0583 0.6123,0.0585 0.6123,0.0588 0.6123,0.059 0.6123,0.0592 0.6123,0.0595 0.6123,0.0597 0.6123,0.06 0.6123,0.0602 0.6123,0.0605 0.6123,0.0607 0.6123,0.061 0.6123,0.0612 0.6123,0.0614 0.6123,0.0618 0.6123,0.0619 0.6123,0.0623 0.6123,0.0624 0.6123,0.0628 0.6123,0.063 0.6123,0.0632 0.6123,0.0635 0.6123,0.0638 0.6123,0.064 0.6123,0.0643 0.6123,0.0645 0.6123,0.0648 0.6123,0.065 0.6123,0.0654 0.6123,0.0655 0.6123,0.0659 0.6123,0.0661 0.6123,0.0664 0.6124,0.0666 0.6123,0.0669 0.6123,0.0672 0.6123,0.0674 0.6123,0.0677 0.6123,0.068 0.6123,0.0683 0.6123,0.0685 0.6123,0.0688 0.6123,0.0691 0.6123,0.0693 0.6123,0.0696 0.6123,0.0699 0.6123,0.0702 0.6123,0.0704 0.6123,0.0708 0.6123,0.071 0.6123,0.0712 0.6123,0.0716 0.6123,0.0719 0.6123,0.0721 0.6123,0.0724 0.6123,0.0727 0.6123,0.073 0.6123,0.0733 0.6123,0.0735 0.6123,0.0739 0.6123,0.0741 0.6123,0.0744 0.6123,0.0747 0.6123,0.075 0.6123,0.0753 0.6123,0.0756 0.6123,0.0759 0.6123,0.0762 0.6123,0.0764 0.6123,0.0768 0.6123,0.0771 0.6123,0.0774 0.6124,0.0776 0.6123,0.078 0.6123,0.0783 0.6123,0.0785 0.6123,0.0789 0.6123,0.0792 0.6123,0.0795 0.6123,0.0798 0.6123,0.0801 0.6123,0.0804 0.6123,0.0807 0.6123,0.081 0.6123,0.0814 0.6123,0.0816 0.6123,0.082 0.6123,0.0823 0.6123,0.0826 0.6123,0.0829 0.6123,0.0832 0.6123,0.0836 0.6123,0.0839 0.6123,0.0841 0.6123,0.0846 0.6123,0.0848 0.6123,0.0852 0.6123,0.0854 0.6123,0.0858 0.6123,0.0862 0.6123,0.0864 0.6123,0.0868 0.6123,0.0872 0.6123,0.0874 0.6123,0.0878 0.6123,0.0881 0.6123,0.0885 0.6123,0.0888 0.6123,0.0891 0.6123,0.0894 0.6123,0.0899 0.6124,0.0901 0.6123,0.0905 0.6123,0.0908 0.6123,0.0912 0.6123,0.0915 0.6123,0.0918 0.6123,0.0922 0.6123,0.0926 0.6123,0.0929 0.6123,0.0932 0.6123,0.0937 0.6123,0.0939 0.6123,0.0943 0.6123,0.0947 0.6123,0.095 0.6123,0.0954 0.6123,0.0957 0.6123,0.0961 0.6123,0.0965 0.6123,0.0968 0.6123,0.0972 0.6123,0.0975 0.6123,0.0979 0.6123,0.0983 0.6123,0.0986 0.6123,0.099 0.6123,0.0994 0.6123,0.0998 0.6123,0.1001 0.6123,0.1005 0.6123,0.1009 0.6123,0.1012 0.6123,0.1017 0.6123,0.102 0.6123,0.1024 0.6123,0.1028 0.6123,0.1031 0.6123,0.1036 0.6123,0.1039 0.6123,0.1043 0.6124,0.1047 0.6123,0.1051 0.6123,0.1055 0.6123,0.1059 0.6123,0.1062 0.6123,0.1067 0.6123,0.107 0.6123,0.1075 0.6123,0.1079 0.6123,0.1082 0.6123,0.1087 0.6123,0.109 0.6123,0.1095 0.6123,0.1099 0.6123,0.1102 0.6123,0.1107 0.6123,0.1111 0.6123,0.1115 0.6123,0.112 0.6123,0.1123 0.6123,0.1127 0.6123,0.1132 0.6123,0.1136 0.6123,0.114 0.6123,0.1144 0.6123,0.1149 0.6123,0.1152 0.6123,0.1157 0.6123,0.1162 0.6123,0.1165 0.6123,0.117 0.6123,0.1174 0.6123,0.1179 0.6123,0.1182 0.6123,0.1188 0.6123,0.1191 0.6123,0.1196 0.6123,0.12 0.6123,0.1205 0.6124,0.1209 0.6123,0.1214 0.6123,0.1218 0.6123,0.1223 0.6123,0.1227 0.6123,0.1231 0.6123,0.1236 0.6123,0.1241 0.6123,0.1245 0.6123,0.125 0.6123,0.1254 0.6123,0.1259 0.6123,0.1264 0.6123,0.1268 0.6123,0.1273 0.6123,0.1278 0.6123,0.1282 0.6123,0.1287 0.6123,0.1292 0.6123,0.1296 0.6123,0.1301 0.6123,0.1306 0.6123,0.1311 0.6123,0.1315 0.6123,0.132 0.6123,0.1326 0.6123,0.133 0.6123,0.1334 0.6123,0.134 0.6123,0.1345 0.6123,0.1349 0.6123,0.1355 0.6123,0.1359 0.6123,0.1365 0.6123,0.1369 0.6123,0.1374 0.6123,0.138 0.6123,0.1384 0.6123,0.139 0.6124,0.1394 0.6123,0.14 0.6123,0.1405 0.6123,0.141 0.6123,0.1415 0.6123,0.142 0.6123,0.1425 0.6123,0.1431 0.6123,0.1436 0.6123,0.1441 0.6123,0.1446 0.6123,0.1451 0.6123,0.1457 0.6123,0.1462 0.6123,0.1468 0.6123,0.1473 0.6123,0.1478 0.6123,0.1483 0.6123,0.1489 0.6123,0.1495 0.6123,0.15 0.6123,0.1505 0.6123,0.151 0.6123,0.1517 0.6123,0.1521 0.6123,0.1528 0.6123,0.1533 0.6123,0.1538 0.6123,0.1544 0.6123,0.1549 0.6123,0.1556 0.6123,0.1561 0.6123,0.1566 0.6123,0.1572 0.6123,0.1578 0.6123,0.1584 0.6123,0.1589 0.6123,0.1595 0.6123,0.1601 0.6124,0.1607 0.6123,0.1613 0.6123,0.1618 0.6123,0.1624 0.6123,0.1631 0.6123,0.1636 0.6123,0.1642 0.6123,0.1648 0.6123,0.1654 0.6123,0.1659 0.6123,0.1666 0.6123,0.1672 0.6123,0.1678 0.6123,0.1684 0.6123,0.1691 0.6123,0.1696 0.6123,0.1702 0.6123,0.1709 0.6123,0.1715 0.6123,0.1721 0.6123,0.1727 0.6123,0.1733 0.6123,0.174 0.6123,0.1746 0.6123,0.1752 0.6123,0.1759 0.6123,0.1765 0.6123,0.1771 0.6123,0.1778 0.6123,0.1784 0.6123,0.1791 0.6123,0.1797 0.6123,0.1804 0.6123,0.181 0.6123,0.1816 0.6123,0.1823 0.6123,0.183 0.6123,0.1837 0.6123,0.1842 0.6124,0.185 0.6123,0.1856 0.6123,0.1863 0.6123,0.187 0.6123,0.1876 0.6123,0.1883 0.6123,0.189 0.6123,0.1897 0.6123,0.1904 0.6123,0.191 0.6123,0.1917 0.6123,0.1924 0.6123,0.1932 0.6123,0.1938 0.6123,0.1945 0.6123,0.1952 0.6123,0.1959 0.6123,0.1966 0.6123,0.1973 0.6123,0.198 0.6123,0.1987 0.6123,0.1995 0.6123,0.2001 0.6123,0.2009 0.6123,0.2016 0.6123,0.2024 0.6123,0.203 0.6123,0.2038 0.6123,0.2045 0.6123,0.2052 0.6123,0.206 0.6123,0.2067 0.6123,0.2075 0.6123,0.2082 0.6123,0.2089 0.6123,0.2097 0.6123,0.2105 0.6123,0.2112 0.6123,0.2119 0.6124,0.2127 0.6123,0.2135 0.6123,0.2143 0.6123,0.215 0.6123,0.2157 0.6123,0.2166 0.6123,0.2173 0.6123,0.2181 0.6123,0.2189 0.6123,0.2196 0.6123,0.2204 0.6123,0.2213 0.6123,0.222 0.6123,0.2228 0.6123,0.2236 0.6123,0.2244 0.6123,0.2252 0.6123,0.226 0.6123,0.2268 0.6123,0.2276 0.6123,0.2284 0.6123,0.2293 0.6123,0.23 0.6123,0.2309 0.6123,0.2317 0.6123,0.2325 0.6123,0.2334 0.6123,0.2341 0.6123,0.235 0.6123,0.2359 0.6123,0.2367 0.6123,0.2375 0.6123,0.2384 0.6123,0.2392 0.6123,0.24 0.6123,0.2409 0.6123,0.2418 0.6123,0.2426 0.6123,0.2435 0.6124,0.2444 0.6123,0.2452 0.6123,0.246 0.6123,0.247 0.6123,0.2478 0.6123,0.2487 0.6123,0.2496 0.6123,0.2505 0.6123,0.2513 0.6123,0.2523 0.6123,0.2531 0.6123,0.254 0.6123,0.2549 0.6123,0.2558 0.6123,0.2568 0.6123,0.2576 0.6123,0.2585 0.6123,0.2595 0.6123,0.2603 0.6123,0.2613 0.6123,0.2622 0.6123,0.2631 0.6123,0.2641 0.6123,0.265 0.6123,0.2659 0.6123,0.2668 0.6123,0.2678 0.6123,0.2687 0.6123,0.2697 0.6123,0.2706 0.6123,0.2716 0.6123,0.2725 0.6123,0.2735 0.6123,0.2744 0.6123,0.2754 0.6123,0.2763 0.6123,0.2774 0.6123,0.2783 0.6123,0.2792 0.6124,0.2803 0.6123,0.2812 0.6123,0.2822 0.6123,0.2832 0.6123,0.2842 0.6123,0.2852 0.6123,0.2861 0.6123,0.2872 0.6123,0.2882 0.6123,0.2891 0.6123,0.2902 0.6123,0.2912 0.6123,0.2922 0.6123,0.2932 0.6123,0.2943 0.6123,0.2952 0.6123,0.2963 0.6123,0.2973 0.6123,0.2984 0.6123,0.2994 0.6123,0.3004 0.6123,0.3015 0.6123,0.3025 0.6123,0.3035 0.6123,0.3046 0.6123,0.3057 0.6123,0.3067 0.6123,0.3078 0.6123,0.3089 0.6123,0.3099 0.6123,0.3109 0.6123,0.3121 0.6123,0.3131 0.6123,0.3142 0.6123,0.3153 0.6123,0.3164 0.6123,0.3175 0.6123,0.3185 0.6123,0.3197 0.6124,0.3207 0.6123,0.3219 0.6123,0.3229 0.6123,0.3241 0.6123,0.3252 0.6123,0.3263 0.6123,0.3274 0.6123,0.3285 0.6123,0.3296 0.6123,0.3308 0.6123,0.3319 0.6123,0.3331 0.6123,0.3342 0.6123,0.3353 0.6123,0.3364 0.6123,0.3376 0.6123,0.3388 0.6123,0.3399 0.6123,0.3411 0.6123,0.3422 0.6123,0.3434 0.6123,0.3446 0.6123,0.3457 0.6123,0.3469 0.6123,0.3481 0.6123,0.3492 0.6123,0.3505 0.6123,0.3516 0.6123,0.3528 0.6123,0.354 0.6123,0.3552 0.6123,0.3564 0.6123,0.3576 0.6123,0.3588 0.6123,0.36 0.6123,0.3613 0.6123,0.3624 0.6123,0.3637 0.6123,0.3649 0.6124,0.3661 0.6123,0.3673 0.6123,0.3686 0.6123,0.3698 0.6123,0.371 0.6123,0.3723 0.6123,0.3735 0.6123,0.3748 0.6123,0.376 0.6123,0.3773 0.6123,0.3785 0.6123,0.3798 0.6123,0.3811 0.6123,0.3823 0.6123,0.3836 0.6123,0.3849 0.6123,0.3862 0.6123,0.3874 0.6123,0.3887 0.6123,0.39 0.6123,0.3913 0.6123,0.3926 0.6123,0.3939 0.6123,0.3952 0.6123,0.3965 0.6123,0.3977 0.6123,0.3992 0.6123,0.4004 0.6123,0.4017 0.6123,0.4031 0.6123,0.4043 0.6123,0.4058 0.6123,0.407 0.6123,0.4084 0.6123,0.4097 0.6123,0.411 0.6123,0.4124 0.6123,0.4137 0.6123,0.4151 0.6124,0.4164 0.6123,0.4178 0.6123,0.4192 0.6123,0.4205 0.6123,0.4219 0.6123,0.4232 0.6123,0.4246 0.6123,0.426 0.6123,0.4274 0.6123,0.4287 0.6123,0.4302 0.6123,0.4315 0.6123,0.4329 0.6123,0.4343 0.6123,0.4357 0.6123,0.4371 0.6123,0.4385 0.6123,0.4399 0.6123,0.4414 0.6123,0.4427 0.6123,0.4442 0.6123,0.4455 0.6123,0.447 0.6123,0.4485 0.6123,0.4498 0.6123,0.4513 0.6123,0.4527 0.6123,0.4542 0.6123,0.4556 0.6123,0.457 0.6123,0.4585 0.6123,0.46 0.6123,0.4614 0.6123,0.4628 0.6123,0.4643 0.6123,0.4658 0.6123,0.4673 0.6123,0.4687 0.6123,0.4702 0.6124,0.4716 0.6123,0.4732 0.6123,0.4746 0.6123,0.4761 0.6123,0.4776 0.6123,0.4791 0.6123,0.4806 0.6123,0.482 0.6123,0.4836 0.6123,0.4851 0.6123,0.4866 0.6123,0.4881 0.6123,0.4896 0.6123,0.4911 0.6123,0.4926 0.6123,0.4942 0.6123,0.4957 0.6123,0.4972 0.6123,0.4987 0.6123,0.5003 0.6123,0.5018 0.6123,0.5033 0.6123,0.5049 0.6123,0.5064 0.6123,0.508 0.6123,0.5095 0.6123,0.5111 0.6123,0.5126 0.6123,0.5142 0.6123,0.5158 0.6123,0.5173 0.6123,0.5189 0.6123,0.5204 0.6123,0.522 0.6123,0.5236 0.6123,0.5252 0.6123,0.5267 0.6123,0.5284 0.6123,0.5299 0.6124,0.5315 0.6123,0.5331 0.6123,0.5347 0.6123,0.5363 0.6123,0.5379 0.6123,0.5394 0.6123,0.5411 0.6123,0.5427 0.6123,0.5443 0.6123,0.546 0.6123,0.5475 0.6123,0.5491 0.6123,0.5508 0.6123,0.5524 0.6123,0.554 0.6123,0.5557 0.6123,0.5572 0.6123,0.5589 0.6123,0.5606 0.6123,0.5622 0.6123,0.5638 0.6123,0.5654 0.6123,0.5672 0.6123,0.5687 0.6123,0.5704 0.6123,0.5721 0.6123,0.5737 0.6123,0.5753 0.6123,0.577 0.6123,0.5787 0.6123,0.5804 0.6123,0.582 0.6123,0.5837 0.6123,0.5853 0.6123,0.587 0.6123,0.5887 0.6123,0.5904 0.6123,0.5921 0.6123,0.5937 0.6124,0.5954 0.6123,0.5971 0.6123,0.5988 0.6123,0.6005"
     id="path14"
     inkscape:connector-curvature="0" /><path
     style="fill:none;stroke:#ff0000;stroke-width:3.20000001;stroke-linecap:butt;stroke-linejoin:miter;stroke-miterlimit:4;stroke-dasharray:none"
     d="m 44.599993,261.91925 0.6123,-10e-5 0.6123,-2e-4 0.6123,-3e-4 0.6123,-5e-4 0.6123,-7e-4 0.6123,-7e-4 0.6123,-10e-4 0.6123,-10e-4 0.6123,-0.001 0.6123,-10e-4 0.6123,-0.001 0.6123,-0.002 0.6123,-0.002 0.6123,-0.002 0.6123,-0.002 0.6123,-0.002 0.6123,-0.002 0.6123,-0.002 0.6123,-0.003 0.6124,-0.003 0.6123,-0.003 0.6123,-0.003 0.6123,-0.003 0.6123,-0.003 0.6123,-0.003 0.6123,-0.004 0.6123,-0.004 0.6123,-0.004 0.6123,-0.004 0.6123,-0.004 0.6123,-0.004 0.6123,-0.004 0.6123,-0.005 0.6123,-0.005 0.6123,-0.005 0.6123,-0.005 0.6123,-0.005 0.6123,-0.005 0.6123,-0.005 0.6123,-0.006 0.6123,-0.006 0.6123,-0.006 0.6123,-0.006 0.6123,-0.006 0.6123,-0.006 0.6123,-0.007 0.6123,-0.007 0.6123,-0.007 0.6123,-0.007 0.6123,-0.007 0.6123,-0.007 0.6123,-0.007 0.6123,-0.007 0.6123,-0.008 0.6123,-0.008 0.6123,-0.008 0.6123,-0.008 0.6123,-0.008 0.6124,-0.008 0.6123,-0.008 0.6123,-0.009 0.6123,-0.009 0.6123,-0.009 0.6123,-0.009 0.6123,-0.009 0.6123,-0.009 0.6123,-0.01 0.6123,-0.01 0.6123,-0.01 0.6123,-0.01 0.6123,-0.01 0.6123,-0.0102 0.6123,-0.0104 0.6123,-0.0105 0.6123,-0.0106 0.6123,-0.0108 0.6123,-0.0109 0.6123,-0.0111 0.6123,-0.0112 0.6123,-0.0113 0.6123,-0.0115 0.6123,-0.0117 0.6123,-0.0118 0.6123,-0.012 0.6123,-0.0121 0.6123,-0.0122 0.6123,-0.0124 0.6123,-0.0125 0.6123,-0.0127 0.6123,-0.0129 0.612297,-0.0129 0.6123,-0.0132 0.6123,-0.0133 0.6123,-0.0134 0.6123,-0.0136 0.6123,-0.0137 0.6123,-0.0139 0.6124,-0.014 0.6123,-0.0142 0.6123,-0.0143 0.6123,-0.0145 0.6123,-0.0146 0.6123,-0.0148 0.6123,-0.0149 0.6123,-0.0151 0.6123,-0.0152 0.6123,-0.0154 0.6123,-0.0155 0.6123,-0.0157 0.6123,-0.0158 0.6123,-0.016 0.6123,-0.0162 0.6123,-0.0163 0.6123,-0.0164 0.6123,-0.0166 0.6123,-0.0167 0.6123,-0.0169 0.6123,-0.0171 0.6123,-0.0172 0.6123,-0.0174 0.6123,-0.0175 0.6123,-0.0177 0.6123,-0.0178 0.6123,-0.018 0.6123,-0.0181 0.6123,-0.0183 0.6123,-0.0184 0.6123,-0.0186 0.6123,-0.0188 0.6123,-0.0189 0.6123,-0.0191 0.6123,-0.0192 0.6123,-0.0194 0.6123,-0.0195 0.6123,-0.0197 0.6123,-0.0199 0.6124,-0.02 0.6123,-0.0201 0.6123,-0.0204 0.6123,-0.0205 0.6123,-0.0206 0.6123,-0.0208 0.6123,-0.021 0.6123,-0.0211 0.6123,-0.0213 0.6123,-0.0214 0.6123,-0.0216 0.6123,-0.0218 0.6123,-0.0219 0.6123,-0.0221 0.6123,-0.0222 0.6123,-0.0225 0.6123,-0.0225 0.6123,-0.0228 0.6123,-0.0229 0.6123,-0.023 0.6123,-0.0232 0.6123,-0.0234 0.6123,-0.0236 0.6123,-0.0237 0.6123,-0.0239 0.6123,-0.024 0.6123,-0.0242 0.6123,-0.0244 0.6123,-0.0245 0.6123,-0.0247 0.6123,-0.0249 0.6123,-0.025 0.6123,-0.0253 0.6123,-0.0253 0.6123,-0.0256 0.6123,-0.0257 0.6123,-0.0259 0.6123,-0.026 0.6123,-0.0262 0.6124,-0.0264 0.6123,-0.0266 0.6123,-0.0267 0.6123,-0.0269 0.6123,-0.027 0.6123,-0.0273 0.6123,-0.0274 0.6123,-0.0276 0.6123,-0.0277 0.6123,-0.0279 0.6123,-0.0281 0.6123,-0.0283 0.6123,-0.0284 0.6123,-0.0287 0.6123,-0.0288 0.6123,-0.0289 0.6123,-0.0292 0.6123,-0.0293 0.6123,-0.0295 0.6123,-0.0296 0.6123,-0.0299 0.6123,-0.03 0.6123,-0.0302 0.6123,-0.0304 0.6123,-0.0305 0.6123,-0.0308 0.6123,-0.0309 0.6123,-0.0311 0.6123,-0.0313 0.6123,-0.0314 0.6123,-0.0317 0.6123,-0.0318 0.6123,-0.032 0.6123,-0.0321 0.6123,-0.0324 0.6123,-0.0326 0.6123,-0.0327 0.6123,-0.0329 0.6123,-0.0331 0.6124,-0.0333 0.6123,-0.0334 0.6123,-0.0337 0.6123,-0.0338 0.6123,-0.034 0.6123,-0.0343 0.6123,-0.0343 0.6123,-0.0346 0.6123,-0.0348 0.6123,-0.035 0.6123,-0.0351 0.6123,-0.0354 0.6123,-0.0355 0.6123,-0.0357 0.6123,-0.0359 0.6123,-0.0361 0.6123,-0.0363 0.6123,-0.0365 0.6123,-0.0367 0.6123,-0.0369 0.6123,-0.037 0.6123,-0.0373 0.6123,-0.0375 0.6123,-0.0376 0.6123,-0.0379 0.6123,-0.038 0.6123,-0.0382 0.6123,-0.0385 0.6123,-0.0386 0.6123,-0.0389 0.6123,-0.039 0.6123,-0.0392 0.6123,-0.0395 0.6123,-0.0396 0.6123,-0.0398 0.6123,-0.0401 0.6123,-0.0402 0.6123,-0.0405 0.6123,-0.0406 0.6124,-0.0409 0.6123,-0.041 0.6123,-0.0413 0.6123,-0.0414 0.6123,-0.0417 0.6123,-0.0419 0.6123,-0.0421 0.6123,-0.0423 0.6123,-0.0425 0.6123,-0.0427 0.6123,-0.0429 0.6123,-0.0432 0.6123,-0.0433 0.6123,-0.0436 0.6123,-0.0437 0.6123,-0.044 0.6123,-0.0442 0.6123,-0.0444 0.6123,-0.0446 0.6123,-0.0449 0.6123,-0.045 0.6123,-0.0453 0.6123,-0.0455 0.6123,-0.0457 0.6123,-0.0459 0.6123,-0.0462 0.6123,-0.0463 0.6123,-0.0466 0.6123,-0.0468 0.6123,-0.047 0.6123,-0.0473 0.6123,-0.0475 0.6123,-0.0476 0.6123,-0.048 0.6123,-0.0481 0.6123,-0.0484 0.6123,-0.0486 0.6123,-0.0488 0.6123,-0.049 0.6124,-0.0493 0.6123,-0.0495 0.6123,-0.0498 0.6123,-0.0499 0.6123,-0.0502 0.6123,-0.0505 0.6123,-0.0506 0.6123,-0.0509 0.6123,-0.0512 0.6123,-0.0513 0.6123,-0.0516 0.6123,-0.0519 0.6123,-0.052 0.6123,-0.0523 0.6123,-0.0526 0.6123,-0.0528 0.6123,-0.053 0.6123,-0.0533 0.6123,-0.0535 0.6123,-0.0537 0.6123,-0.054 0.6123,-0.0543 0.6123,-0.0545 0.6123,-0.0547 0.6123,-0.055 0.6123,-0.0552 0.6123,-0.0555 0.6123,-0.0557 0.6123,-0.056 0.6123,-0.0562 0.6123,-0.0565 0.6123,-0.0567 0.6123,-0.057 0.6123,-0.0572 0.6123,-0.0575 0.6123,-0.0577 0.6123,-0.058 0.6123,-0.0583 0.6123,-0.0585 0.6124,-0.0587 0.6123,-0.0591 0.6123,-0.0593 0.6123,-0.0595 0.6123,-0.0598 0.6123,-0.0601 0.6123,-0.0603 0.6123,-0.0606 0.6123,-0.0609 0.6123,-0.0611 0.6123,-0.0614 0.6123,-0.0617 0.6123,-0.062 0.6123,-0.0622 0.6123,-0.0624 0.6123,-0.0628 0.6123,-0.063 0.6123,-0.0633 0.6123,-0.0636 0.6123,-0.0639 0.6123,-0.0641 0.6123,-0.0644 0.6123,-0.0647 0.6123,-0.0649 0.6123,-0.0653 0.6123,-0.0655 0.6123,-0.0658 0.6123,-0.0661 0.6123,-0.0664 0.6123,-0.0667 0.6123,-0.0669 0.6123,-0.0672 0.6123,-0.0676 0.6123,-0.0678 0.6123,-0.0681 0.6123,-0.0684 0.6123,-0.0687 0.6123,-0.069 0.6123,-0.0692 0.6124,-0.0696 0.6123,-0.0699 0.6123,-0.0702 0.6123,-0.0704 0.6123,-0.0708 0.6123,-0.0711 0.6123,-0.0713 0.6123,-0.0717 0.6123,-0.072 0.6123,-0.0723 0.6123,-0.0726 0.6123,-0.0729 0.6123,-0.0732 0.6123,-0.0735 0.6123,-0.0739 0.6123,-0.0741 0.6123,-0.0745 0.6123,-0.0747 0.6123,-0.0751 0.6123,-0.0754 0.6123,-0.0758 0.6123,-0.076 0.6123,-0.0764 0.6123,-0.0766 0.6123,-0.0771 0.6123,-0.0773 0.6123,-0.0777 0.6123,-0.0779 0.6123,-0.0784 0.6123,-0.0786 0.6123,-0.079 0.6123,-0.0793 0.6123,-0.0796 0.6123,-0.08 0.6123,-0.0803 0.6123,-0.0806 0.6123,-0.081 0.6123,-0.0813 0.6123,-0.0817 0.6124,-0.082 0.6123,-0.0824 0.6123,-0.0827 0.6123,-0.083 0.6123,-0.0834 0.6123,-0.0837 0.6123,-0.0841 0.6123,-0.0844 0.6123,-0.0848 0.6123,-0.0852 0.6123,-0.0855 0.6123,-0.0858 0.6123,-0.0862 0.6123,-0.0866 0.6123,-0.0869 0.6123,-0.0873 0.6123,-0.0877 0.6123,-0.088 0.6123,-0.0884 0.6123,-0.0887 0.6123,-0.0892 0.6123,-0.0895 0.6123,-0.0898 0.6123,-0.0903 0.6123,-0.0906 0.6123,-0.091 0.6123,-0.0914 0.6123,-0.0917 0.6123,-0.0921 0.6123,-0.0926 0.6123,-0.0929 0.6123,-0.0932 0.6123,-0.0937 0.6123,-0.0941 0.6123,-0.0944 0.6123,-0.0949 0.6123,-0.0952 0.6123,-0.0956 0.6123,-0.0961 0.6124,-0.0964 0.6123,-0.0968 0.6123,-0.0973 0.6123,-0.0976 0.6123,-0.098 0.6123,-0.0985 0.6123,-0.0988 0.6123,-0.0993 0.6123,-0.0997 0.6123,-0.1001 0.6123,-0.1005 0.6123,-0.1009 0.6123,-0.1013 0.6123,-0.1018 0.6123,-0.1022 0.6123,-0.1026 0.6123,-0.103 0.6123,-0.1034 0.6123,-0.1039 0.6123,-0.1043 0.6123,-0.1048 0.6123,-0.1052 0.6123,-0.1056 0.6123,-0.106 0.6123,-0.1065 0.6123,-0.107 0.6123,-0.1073 0.6123,-0.1079 0.6123,-0.1082 0.6123,-0.1087 0.6123,-0.1092 0.6123,-0.1096 0.6123,-0.1101 0.6123,-0.1105 0.6123,-0.111 0.6123,-0.1115 0.6123,-0.1119 0.6123,-0.1124 0.6123,-0.1128 0.6123,-0.1133 0.6124,-0.1138 0.6123,-0.1142 0.6123,-0.1148 0.6123,-0.1152 0.6123,-0.1156 0.6123,-0.1162 0.6123,-0.1166 0.6123,-0.1172 0.6123,-0.1176 0.6123,-0.1181 0.6123,-0.1186 0.6123,-0.1191 0.6123,-0.1195 0.6123,-0.1201 0.6123,-0.1206 0.6123,-0.1211 0.6123,-0.1215 0.6123,-0.1221 0.6123,-0.1226 0.6123,-0.1231 0.6123,-0.1236 0.6123,-0.1241 0.6123,-0.1247 0.6123,-0.1251 0.6123,-0.1257 0.6123,-0.1262 0.6123,-0.1268 0.6123,-0.1272 0.6123,-0.1278 0.6123,-0.1283 0.6123,-0.1289 0.6123,-0.1294 0.6123,-0.1299 0.6123,-0.1305 0.6123,-0.131 0.6123,-0.1315 0.6123,-0.1322 0.6123,-0.1326 0.6123,-0.1332 0.6124,-0.1338 0.6123,-0.1343 0.6123,-0.1349 0.6123,-0.1355 0.6123,-0.136 0.6123,-0.1366 0.6123,-0.1372 0.6123,-0.1377 0.6123,-0.1383 0.6123,-0.1389 0.6123,-0.1395 0.6123,-0.1401 0.6123,-0.1406 0.6123,-0.1412 0.6123,-0.1419 0.6123,-0.1424 0.6123,-0.143 0.6123,-0.1436 0.6123,-0.1443 0.6123,-0.1448 0.6123,-0.1454 0.6123,-0.1461 0.6123,-0.1466 0.6123,-0.1473 0.6123,-0.1479 0.6123,-0.1485 0.6123,-0.1492 0.6123,-0.1497 0.6123,-0.1504 0.6123,-0.1511 0.6123,-0.1516 0.6123,-0.1524 0.6123,-0.1529 0.6123,-0.1536 0.6123,-0.1543 0.6123,-0.1549 0.6123,-0.1555 0.6123,-0.1562 0.6123,-0.1569 0.6124,-0.1575 0.6123,-0.1582 0.6123,-0.1589 0.6123,-0.1595 0.6123,-0.1603 0.6123,-0.1609 0.6123,-0.1615 0.6123,-0.1623 0.6123,-0.1629 0.6123,-0.1637 0.6123,-0.1643 0.6123,-0.1651 0.6123,-0.1657 0.6123,-0.1664 0.6123,-0.1672 0.6123,-0.1679 0.6123,-0.1685 0.6123,-0.1693 0.6123,-0.17 0.6123,-0.1708 0.6123,-0.1714 0.6123,-0.1722 0.6123,-0.173 0.6123,-0.1736 0.6123,-0.1744 0.6123,-0.1752 0.6123,-0.1759 0.6123,-0.1767 0.6123,-0.1774 0.6123,-0.1782 0.6123,-0.1789 0.6123,-0.1797 0.6123,-0.1805 0.6123,-0.1812 0.6123,-0.182 0.6123,-0.1828 0.6123,-0.1836 0.6123,-0.1844 0.6123,-0.1852 0.6124,-0.1859 0.6123,-0.1868 0.6123,-0.1876 0.6123,-0.1884 0.6123,-0.1892 0.6123,-0.19 0.6123,-0.1908 0.6123,-0.1917 0.6123,-0.1924 0.6123,-0.1933 0.6123,-0.1942 0.6123,-0.195 0.6123,-0.1958 0.6123,-0.1967 0.6123,-0.1975 0.6123,-0.1984 0.6123,-0.1992 0.6123,-0.2001 0.6123,-0.201 0.6123,-0.2019 0.6123,-0.2027 0.6123,-0.2036 0.6123,-0.2045 0.6123,-0.2054 0.6123,-0.2063 0.6123,-0.2071 0.6123,-0.2081 0.6123,-0.209 0.6123,-0.2099 0.6123,-0.2108 0.6123,-0.2118 0.6123,-0.2126 0.6123,-0.2136 0.6123,-0.2145 0.6123,-0.2155 0.6123,-0.2164 0.6123,-0.2174 0.6123,-0.2183 0.6123,-0.2193 0.6124,-0.2202 0.6123,-0.2212 0.6123,-0.2222 0.6123,-0.2231 0.6123,-0.2242 0.6123,-0.2251 0.6123,-0.2261 0.6123,-0.2271 0.6123,-0.2281 0.6123,-0.2291 0.6123,-0.2302 0.6123,-0.2311 0.6123,-0.2322 0.6123,-0.2332 0.6123,-0.2342 0.6123,-0.2353 0.6123,-0.2363 0.6123,-0.2373 0.6123,-0.2385 0.6123,-0.2394 0.6123,-0.2406 0.6123,-0.2416 0.6123,-0.2426 0.6123,-0.2438 0.6123,-0.2449 0.6123,-0.2459 0.6123,-0.247 0.6123,-0.2482 0.6123,-0.2492 0.6123,-0.2504 0.6123,-0.2514 0.6123,-0.2526 0.6123,-0.2538 0.6123,-0.2549 0.6123,-0.256 0.6123,-0.2571 0.6123,-0.2583 0.6123,-0.2595 0.6123,-0.2607 0.6124,-0.2618 0.6123,-0.263 0.6123,-0.2642 0.6123,-0.2653 0.6123,-0.2666 0.6123,-0.2678 0.6123,-0.2689 0.6123,-0.2702 0.6123,-0.2715 0.6123,-0.2726 0.6123,-0.2739 0.6123,-0.2751 0.6123,-0.2764 0.6123,-0.2776 0.6123,-0.2789 0.6123,-0.2801 0.6123,-0.2814 0.6123,-0.2827 0.6123,-0.284 0.6123,-0.2853 0.6123,-0.2866 0.6123,-0.2879 0.6123,-0.2892 0.6123,-0.2905 0.6123,-0.2919 0.6123,-0.2932 0.6123,-0.2945 0.6123,-0.2959 0.6123,-0.2972 0.6123,-0.2986 0.6123,-0.3 0.6123,-0.3014 0.6123,-0.3027 0.6123,-0.3041 0.6123,-0.3056 0.6123,-0.3069 0.6123,-0.3084 0.6123,-0.3097 0.6123,-0.3112 0.6124,-0.3127 0.6123,-0.3141 0.6123,-0.3155 0.6123,-0.317 0.6123,-0.3185 0.6123,-0.3199 0.6123,-0.3215 0.6123,-0.3229 0.6123,-0.3244 0.6123,-0.326 0.6123,-0.3274 0.6123,-0.329 0.6123,-0.3306 0.6123,-0.332 0.6123,-0.3336 0.6123,-0.3352 0.6123,-0.3367 0.6123,-0.3383 0.6123,-0.3399 0.6123,-0.3415 0.6123,-0.3431 0.6123,-0.3447 0.6123,-0.3464 0.6123,-0.3479 0.6123,-0.3496 0.6123,-0.3512 0.6123,-0.3529 0.6123,-0.3546 0.6123,-0.3562 0.6123,-0.3579 0.6123,-0.3596 0.6123,-0.3613 0.6123,-0.363 0.6123,-0.3648 0.6123,-0.3664 0.6123,-0.3682 0.6123,-0.37 0.6123,-0.3717 0.6123,-0.3735 0.6124,-0.3752 0.6123,-0.3771 0.6123,-0.3788 0.6123,-0.3807 0.6123,-0.3825 0.6123,-0.3843 0.6123,-0.3861 0.6123,-0.388 0.6123,-0.3898 0.6123,-0.3918 0.6123,-0.3936 0.6123,-0.3955 0.6123,-0.3973 0.6123,-0.3994 0.6123,-0.4012 0.6123,-0.4031 0.6123,-0.4052 0.6123,-0.407 0.6123,-0.4091 0.6123,-0.411 0.6123,-0.413 0.6123,-0.415 0.6123,-0.417 0.6123,-0.419 0.6123,-0.4211 0.6123,-0.4231 0.6123,-0.4252 0.6123,-0.4272 0.6123,-0.4294 0.6123,-0.4314 0.6123,-0.4335 0.6123,-0.4357 0.6123,-0.4378 0.6123,-0.4399 0.6123,-0.4421 0.6123,-0.4443 0.6123,-0.4464 0.6123,-0.4486 0.6123,-0.4509 0.6124,-0.453 0.6123,-0.4553 0.6123,-0.4575 0.6123,-0.4598 0.6123,-0.4621 0.6123,-0.4643 0.6123,-0.4667 0.6123,-0.4689 0.6123,-0.4713 0.6123,-0.4736 0.6123,-0.476 0.6123,-0.4783 0.6123,-0.4807 0.6123,-0.4832 0.6123,-0.4855 0.6123,-0.4879 0.6123,-0.4904 0.6123,-0.4928 0.6123,-0.4953 0.6123,-0.4978 0.6123,-0.5003 0.6123,-0.5028 0.6123,-0.5053 0.6123,-0.5078 0.6123,-0.5105 0.6123,-0.5129 0.6123,-0.5156 0.6123,-0.5182 0.6123,-0.5208 0.6123,-0.5234 0.6123,-0.5261 0.6123,-0.5287 0.6123,-0.5314 0.6123,-0.5341 0.6123,-0.5369 0.6123,-0.5395 0.6123,-0.5423 0.6123,-0.5451 0.6123,-0.5479 0.6124,-0.5506 0.6123,-0.5535 0.6123,-0.5563 0.6123,-0.5591 0.6123,-0.5621 0.6123,-0.5649 0.6123,-0.5678 0.6123,-0.5707 0.6123,-0.5737 0.6123,-0.5766 0.6123,-0.5796 0.6123,-0.5826 0.6123,-0.5856 0.6123,-0.5886 0.6123,-0.5917 0.6123,-0.5948 0.6123,-0.5978 0.6123,-0.601 0.6123,-0.604 0.6123,-0.6073 0.6123,-0.6104 0.6123,-0.6135 0.6123,-0.6168 0.6123,-0.62 0.6123,-0.6233 0.6123,-0.6265 0.6123,-0.6298 0.6123,-0.6331 0.6123,-0.6365 0.6123,-0.6398 0.6123,-0.6432 0.6123,-0.6465 0.6123,-0.65 0.6123,-0.6534 0.6123,-0.6569 0.6123,-0.6604 0.6123,-0.6638 0.6123,-0.6674 0.6123,-0.671 0.6124,-0.6745 0.6123,-0.6781 0.6123,-0.6817 0.6123,-0.6854 0.6123,-0.689 0.6123,-0.6928 0.6123,-0.6964 0.6123,-0.7002 0.6123,-0.7039 0.6123,-0.7077 0.6123,-0.7116 0.6123,-0.7154 0.6123,-0.7192 0.6123,-0.7231 0.6123,-0.7271 0.6123,-0.731 0.6123,-0.7349 0.6123,-0.7389 0.6123,-0.743 0.6123,-0.747 0.6123,-0.7511 0.6123,-0.7551 0.6123,-0.7593 0.6123,-0.7635 0.6123,-0.7676 0.6123,-0.7719 0.6123,-0.7761 0.6123,-0.7803 0.6123,-0.7847 0.6123,-0.7889 0.6123,-0.7934 0.6123,-0.7977 0.6123,-0.8021 0.6123,-0.8066 0.6123,-0.81101 0.6123,-0.8156 0.6123,-0.82 0.6123,-0.8247 0.6123,-0.8292 0.6124,-0.8339 0.6123,-0.8386 0.6123,-0.8432 0.6123,-0.848 0.6123,-0.8527 0.6123,-0.8575 0.6123,-0.8623 0.6123,-0.8672 0.6123,-0.8721 0.6123,-0.8771 0.6123,-0.8819 0.6123,-0.887 0.6123,-0.892 0.6123,-0.8971 0.6123,-0.9022 0.6123,-0.9073 0.6123,-0.9125 0.6123,-0.9177 0.6123,-0.923 0.6123,-0.9283 0.6123,-0.9335 0.6123,-0.939 0.6123,-0.9443 0.6123,-0.9498 0.6123,-0.9553 0.6123,-0.9607 0.6123,-0.9664 0.6123,-0.9719 0.6123,-0.9776 0.6123,-0.9833 0.6123,-0.989 0.6123,-0.9947 0.6123,-1.0006 0.6123,-1.0064 0.6123,-1.0123 0.6123,-1.0182 0.6123,-1.0242 0.6123,-1.0303 0.6123,-1.0363 0.6124,-1.0424 0.6123,-1.0486 0.6123,-1.0548 0.6123,-1.061 0.6123,-1.0674 0.6123,-1.0736 0.6123,-1.0801 0.6123,-1.0865 0.6123,-1.093 0.6123,-1.0996 0.6123,-1.1061 0.6123,-1.1128 0.6123,-1.1194 0.6123,-1.1262 0.6123,-1.133 0.6123,-1.1399 0.6123,-1.1467 0.6123,-1.1537 0.6123,-1.1607 0.6123,-1.1677 0.6123,-1.1749 0.6123,-1.182 0.6123,-1.1892 0.6123,-1.1965 0.6123,-1.2039 0.6123,-1.2112 0.6123,-1.2187 0.6123,-1.2262 0.6123,-1.2338 0.6123,-1.2414 0.6123,-1.2491 0.6123,-1.2569 0.6123,-1.2646 0.6123,-1.2726 0.6123,-1.2804 0.6123,-1.2885 0.6123,-1.2966 0.6123,-1.3046 0.6123,-1.3129 0.6124,-1.3210997 0.6123,-1.3295 0.6123,-1.3378 0.6123,-1.34639"
     id="path18"
     inkscape:connector-curvature="0" /><path
     style="fill:none;stroke:#000000;stroke-width:1.83599997;stroke-linecap:butt;stroke-linejoin:miter;stroke-dasharray:none"
     d="m 44.599993,219.07925 0.6123,0 0.6123,0 0.6123,0 0.6123,0 0.6123,0 0.6123,0 0.6123,0 0.6123,0 0.6123,0 0.6123,0 0.6123,0 0.6123,0 0.6123,0 0.6123,0 0.6123,0 0.6123,0 0.6123,0 0.6123,0 0.6123,0 0.6124,0 0.6123,0 0.6123,0 0.6123,0 0.6123,0 0.6123,0 0.6123,0 0.6123,0 0.6123,0 0.6123,0 0.6123,0 0.6123,0 0.6123,0 0.6123,0 0.6123,0 0.6123,0 0.6123,0 0.6123,0 0.6123,0 0.6123,0 0.6123,0 0.6123,0 0.6123,0 0.6123,0 0.6123,0 0.6123,0 0.6123,0 0.6123,0 0.6123,0 0.6123,0 0.6123,0 0.6123,0 0.6123,0 0.6123,0 0.6123,0 0.6123,0 0.6123,0 0.6123,0 0.6123,0 0.6124,0 0.6123,0 0.6123,0 0.6123,0 0.6123,0 0.6123,0 0.6123,0 0.6123,0 0.6123,0 0.6123,0 0.6123,0 0.6123,0 0.6123,0 0.6123,0 0.6123,0 0.6123,0 0.6123,0 0.6123,0 0.6123,0 0.6123,0 0.6123,0 0.6123,0 0.6123,0 0.6123,0 0.6123,0 0.6123,0 0.6123,0 0.6123,0 0.6123,0 0.6123,0 0.6123,0 0.6123,0 0.612297,0 0.6123,0 0.6123,0 0.6123,0 0.6123,0 0.6123,0 0.6123,0 0.6124,0 0.6123,0 0.6123,0 0.6123,0 0.6123,0 0.6123,0 0.6123,0 0.6123,0 0.6123,0 0.6123,0 0.6123,0 0.6123,0 0.6123,0 0.6123,0 0.6123,0 0.6123,0 0.6123,0 0.6123,0 0.6123,0 0.6123,0 0.6123,0 0.6123,0 0.6123,0 0.6123,0 0.6123,0 0.6123,0 0.6123,0 0.6123,0 0.6123,0 0.6123,0 0.6123,0 0.6123,0 0.6123,0 0.6123,0 0.6123,0 0.6123,0 0.6123,0 0.6123,0 0.6123,0 0.6124,0 0.6123,0 0.6123,0 0.6123,0 0.6123,0 0.6123,0 0.6123,0 0.6123,0 0.6123,0 0.6123,0 0.6123,0 0.6123,0 0.6123,0 0.6123,0 0.6123,0 0.6123,0 0.6123,0 0.6123,0 0.6123,0 0.6123,0 0.6123,0 0.6123,0 0.6123,0 0.6123,0 0.6123,0 0.6123,0 0.6123,0 0.6123,0 0.6123,0 0.6123,0 0.6123,0 0.6123,0 0.6123,0 0.6123,0 0.6123,0 0.6123,0 0.6123,0 0.6123,0 0.6123,0 0.6124,0 0.6123,0 0.6123,0 0.6123,0 0.6123,0 0.6123,0 0.6123,0 0.6123,0 0.6123,0 0.6123,0 0.6123,0 0.6123,0 0.6123,0 0.6123,0 0.6123,0 0.6123,0 0.6123,0 0.6123,0 0.6123,0 0.6123,0 0.6123,0 0.6123,0 0.6123,0 0.6123,0 0.6123,0 0.6123,0 0.6123,0 0.6123,0 0.6123,0 0.6123,0 0.6123,0 0.6123,0 0.6123,0 0.6123,0 0.6123,0 0.6123,0 0.6123,0 0.6123,0 0.6123,0 0.6124,0 0.6123,0 0.6123,0 0.6123,0 0.6123,0 0.6123,0 0.6123,0 0.6123,0 0.6123,0 0.6123,0 0.6123,0 0.6123,0 0.6123,0 0.6123,0 0.6123,0 0.6123,0 0.6123,0 0.6123,0 0.6123,0 0.6123,0 0.6123,0 0.6123,0 0.6123,0 0.6123,0 0.6123,0 0.6123,0 0.6123,0 0.6123,0 0.6123,0 0.6123,0 0.6123,0 0.6123,0 0.6123,0 0.6123,0 0.6123,0 0.6123,0 0.6123,0 0.6123,0 0.6123,0 0.6124,0 0.6123,0 0.6123,0 0.6123,0 0.6123,0 0.6123,0 0.6123,0 0.6123,0 0.6123,0 0.6123,0 0.6123,0 0.6123,0 0.6123,0 0.6123,0 0.6123,0 0.6123,0 0.6123,0 0.6123,0 0.6123,0 0.6123,0 0.6123,0 0.6123,0 0.6123,0 0.6123,0 0.6123,0 0.6123,0 0.6123,0 0.6123,0 0.6123,0 0.6123,0 0.6123,0 0.6123,0 0.6123,0 0.6123,0 0.6123,0 0.6123,0 0.6123,0 0.6123,0 0.6123,0 0.6124,0 0.6123,0 0.6123,0 0.6123,0 0.6123,0 0.6123,0 0.6123,0 0.6123,0 0.6123,0 0.6123,0 0.6123,0 0.6123,0 0.6123,0 0.6123,0 0.6123,0 0.6123,0 0.6123,0 0.6123,0 0.6123,0 0.6123,0 0.6123,0 0.6123,0 0.6123,0 0.6123,0 0.6123,0 0.6123,0 0.6123,0 0.6123,0 0.6123,0 0.6123,0 0.6123,0 0.6123,0 0.6123,0 0.6123,0 0.6123,0 0.6123,0 0.6123,0 0.6123,0 0.6123,0 0.6124,0 0.6123,0 0.6123,0 0.6123,0 0.6123,0 0.6123,0 0.6123,0 0.6123,0 0.6123,0 0.6123,0 0.6123,0 0.6123,0 0.6123,0 0.6123,0 0.6123,0 0.6123,0 0.6123,0 0.6123,0 0.6123,0 0.6123,0 0.6123,0 0.6123,0 0.6123,0 0.6123,0 0.6123,0 0.6123,0 0.6123,0 0.6123,0 0.6123,0 0.6123,0 0.6123,0 0.6123,0 0.6123,0 0.6123,0 0.6123,0 0.6123,0 0.6123,0 0.6123,0 0.6123,0 0.6124,0 0.6123,0 0.6123,0 0.6123,0 0.6123,0 0.6123,0 0.6123,0 0.6123,0 0.6123,0 0.6123,0 0.6123,0 0.6123,0 0.6123,0 0.6123,0 0.6123,0 0.6123,0 0.6123,0 0.6123,0 0.6123,0 0.6123,0 0.6123,0 0.6123,0 0.6123,0 0.6123,0 0.6123,0 0.6123,0 0.6123,0 0.6123,0 0.6123,0 0.6123,0 0.6123,0 0.6123,0 0.6123,0 0.6123,0 0.6123,0 0.6123,0 0.6123,0 0.6123,0 0.6123,0 0.6124,0 0.6123,0 0.6123,0 0.6123,0 0.6123,0 0.6123,0 0.6123,0 0.6123,0 0.6123,0 0.6123,0 0.6123,0 0.6123,0 0.6123,0 0.6123,0 0.6123,0 0.6123,0 0.6123,0 0.6123,0 0.6123,0 0.6123,0 0.6123,0 0.6123,0 0.6123,0 0.6123,0 0.6123,0 0.6123,0 0.6123,0 0.6123,0 0.6123,0 0.6123,0 0.6123,0 0.6123,0 0.6123,0 0.6123,0 0.6123,0 0.6123,0 0.6123,0 0.6123,0 0.6123,0 0.6124,0 0.6123,0 0.6123,0 0.6123,0 0.6123,0 0.6123,0 0.6123,0 0.6123,0 0.6123,0 0.6123,0 0.6123,0 0.6123,0 0.6123,0 0.6123,0 0.6123,0 0.6123,0 0.6123,0 0.6123,0 0.6123,0 0.6123,0 0.6123,0 0.6123,0 0.6123,0 0.6123,0 0.6123,0 0.6123,0 0.6123,0 0.6123,0 0.6123,0 0.6123,0 0.6123,0 0.6123,0 0.6123,0 0.6123,0 0.6123,0 0.6123,0 0.6123,0 0.6123,0 0.6123,0 0.6123,0 0.6124,0 0.6123,0 0.6123,0 0.6123,0 0.6123,0 0.6123,0 0.6123,0 0.6123,0 0.6123,0 0.6123,0 0.6123,0 0.6123,0 0.6123,0 0.6123,0 0.6123,0 0.6123,0 0.6123,0 0.6123,0 0.6123,0 0.6123,0 0.6123,0 0.6123,0 0.6123,0 0.6123,0 0.6123,0 0.6123,0 0.6123,0 0.6123,0 0.6123,0 0.6123,0 0.6123,0 0.6123,0 0.6123,0 0.6123,0 0.6123,0 0.6123,0 0.6123,0 0.6123,0 0.6123,0 0.6124,0 0.6123,0 0.6123,0 0.6123,0 0.6123,0 0.6123,0 0.6123,0 0.6123,0 0.6123,0 0.6123,0 0.6123,0 0.6123,0 0.6123,0 0.6123,0 0.6123,0 0.6123,0 0.6123,0 0.6123,0 0.6123,0 0.6123,0 0.6123,0 0.6123,0 0.6123,0 0.6123,0 0.6123,0 0.6123,0 0.6123,0 0.6123,0 0.6123,0 0.6123,0 0.6123,0 0.6123,0 0.6123,0 0.6123,0 0.6123,0 0.6123,0 0.6123,0 0.6123,0 0.6123,0 0.6124,0 0.6123,0 0.6123,0 0.6123,0 0.6123,0 0.6123,0 0.6123,0 0.6123,0 0.6123,0 0.6123,0 0.6123,0 0.6123,0 0.6123,0 0.6123,0 0.6123,0 0.6123,0 0.6123,0 0.6123,0 0.6123,0 0.6123,0 0.6123,0 0.6123,0 0.6123,0 0.6123,0 0.6123,0 0.6123,0 0.6123,0 0.6123,0 0.6123,0 0.6123,0 0.6123,0 0.6123,0 0.6123,0 0.6123,0 0.6123,0 0.6123,0 0.6123,0 0.6123,0 0.6123,0 0.6124,0 0.6123,0 0.6123,0 0.6123,0 0.6123,0 0.6123,0 0.6123,0 0.6123,0 0.6123,0 0.6123,0 0.6123,0 0.6123,0 0.6123,0 0.6123,0 0.6123,0 0.6123,0 0.6123,0 0.6123,0 0.6123,0 0.6123,0 0.6123,0 0.6123,0 0.6123,0 0.6123,0 0.6123,0 0.6123,0 0.6123,0 0.6123,0 0.6123,0 0.6123,0 0.6123,0 0.6123,0 0.6123,0 0.6123,0 0.6123,0 0.6123,0 0.6123,0 0.6123,0 0.6123,0 0.6124,0 0.6123,0 0.6123,0 0.6123,0 0.6123,0 0.6123,0 0.6123,0 0.6123,0 0.6123,0 0.6123,0 0.6123,0 0.6123,0 0.6123,0 0.6123,0 0.6123,0 0.6123,0 0.6123,0 0.6123,0 0.6123,0 0.6123,0 0.6123,0 0.6123,0 0.6123,0 0.6123,0 0.6123,0 0.6123,0 0.6123,0 0.6123,0 0.6123,0 0.6123,0 0.6123,0 0.6123,0 0.6123,0 0.6123,0 0.6123,0 0.6123,0 0.6123,0 0.6123,0 0.6123,0 0.6124,0 0.6123,0 0.6123,0 0.6123,0 0.6123,0 0.6123,0 0.6123,0 0.6123,0 0.6123,0 0.6123,0 0.6123,0 0.6123,0 0.6123,0 0.6123,0 0.6123,0 0.6123,0 0.6123,0 0.6123,0 0.6123,0 0.6123,0 0.6123,0 0.6123,0 0.6123,0 0.6123,0 0.6123,0 0.6123,0 0.6123,0 0.6123,0 0.6123,0 0.6123,0 0.6123,0 0.6123,0 0.6123,0 0.6123,0 0.6123,0 0.6123,0 0.6123,0 0.6123,0 0.6123,0 0.6124,0 0.6123,0 0.6123,0 0.6123,0 0.6123,0 0.6123,0 0.6123,0 0.6123,0 0.6123,0 0.6123,0 0.6123,0 0.6123,0 0.6123,0 0.6123,0 0.6123,0 0.6123,0 0.6123,0 0.6123,0 0.6123,0 0.6123,0 0.6123,0 0.6123,0 0.6123,0 0.6123,0 0.6123,0 0.6123,0 0.6123,0 0.6123,0 0.6123,0 0.6123,0 0.6123,0 0.6123,0 0.6123,0 0.6123,0 0.6123,0 0.6123,0 0.6123,0 0.6123,0 0.6123,0 0.6124,0 0.6123,0 0.6123,0 0.6123,0 0.6123,0 0.6123,0 0.6123,0 0.6123,0 0.6123,0 0.6123,0 0.6123,0 0.6123,0 0.6123,0 0.6123,0 0.6123,0 0.6123,0 0.6123,0 0.6123,0 0.6123,0 0.6123,0 0.6123,0 0.6123,0 0.6123,0 0.6123,0 0.6123,0 0.6123,0 0.6123,0 0.6123,0 0.6123,0 0.6123,0 0.6123,0 0.6123,0 0.6123,0 0.6123,0 0.6123,0 0.6123,0 0.6123,0 0.6123,0 0.6123,0 0.6124,0 0.6123,0 0.6123,0 0.6123,0 0.6123,0 0.6123,0 0.6123,0 0.6123,0 0.6123,0 0.6123,0 0.6123,0 0.6123,0 0.6123,0 0.6123,0 0.6123,0 0.6123,0 0.6123,0 0.6123,0 0.6123,0 0.6123,0 0.6123,0 0.6123,0 0.6123,0 0.6123,0 0.6123,0 0.6123,0 0.6123,0 0.6123,0 0.6123,0 0.6123,0 0.6123,0 0.6123,0 0.6123,0 0.6123,0 0.6123,0 0.6123,0 0.6123,0 0.6123,0 0.6123,0 0.6124,0 0.6123,0 0.6123,0 0.6123,0 0.6123,0 0.6123,0 0.6123,0 0.6123,0 0.6123,0 0.6123,0 0.6123,0 0.6123,0 0.6123,0 0.6123,0 0.6123,0 0.6123,0 0.6123,0 0.6123,0 0.6123,0 0.6123,0 0.6123,0 0.6123,0 0.6123,0 0.6123,0 0.6123,0 0.6123,0 0.6123,0 0.6123,0 0.6123,0 0.6123,0 0.6123,0 0.6123,0 0.6123,0 0.6123,0 0.6123,0 0.6123,0 0.6123,0 0.6123,0 0.6123,0 0.6124,0 0.6123,0 0.6123,0 0.6123,0 0.6123,0 0.6123,0 0.6123,0 0.6123,0 0.6123,0 0.6123,0 0.6123,0 0.6123,0 0.6123,0 0.6123,0 0.6123,0 0.6123,0 0.6123,0 0.6123,0 0.6123,0 0.6123,0 0.6123,0 0.6123,0 0.6123,0 0.6123,0 0.6123,0 0.6123,0 0.6123,0 0.6123,0 0.6123,0 0.6123,0 0.6123,0 0.6123,0 0.6123,0 0.6123,0 0.6123,0 0.6123,0 0.6123,0 0.6123,0 0.6123,0 0.6124,0 0.6123,0 0.6123,0 0.6123,0 0.6123,0 0.6123,0 0.6123,0 0.6123,0 0.6123,0 0.6123,0 0.6123,0 0.6123,0 0.6123,0 0.6123,0 0.6123,0 0.6123,0 0.6123,0 0.6123,0 0.6123,0 0.6123,0 0.6123,0 0.6123,0 0.6123,0 0.6123,0 0.6123,0 0.6123,0 0.6123,0 0.6123,0 0.6123,0 0.6123,0 0.6123,0 0.6123,0 0.6123,0 0.6123,0 0.6123,0 0.6123,0 0.6123,0 0.6123,0 0.6123,0 0.6124,0 0.6123,0 0.6123,0 0.6123,0 0.6123,0 0.6123,0 0.6123,0 0.6123,0 0.6123,0 0.6123,0 0.6123,0 0.6123,0 0.6123,0 0.6123,0 0.6123,0 0.6123,0 0.6123,0 0.6123,0 0.6123,0 0.6123,0 0.6123,0 0.6123,0 0.6123,0 0.6123,0 0.6123,0 0.6123,0 0.6123,0 0.6123,0 0.6123,0 0.6123,0 0.6123,0 0.6123,0 0.6123,0 0.6123,0 0.6123,0 0.6123,0 0.6123,0 0.6123,0 0.6123,0 0.6124,0 0.6123,0 0.6123,0 0.6123,0"
     id="path22"
     inkscape:connector-curvature="0" /><path
     style="fill:none;stroke:#000000;stroke-width:2.29500008;stroke-linecap:butt;stroke-linejoin:miter;stroke-dasharray:none"
     d="m 44.599993,433.27925 611.999997,0"
     id="path26"
     inkscape:connector-curvature="0" /><path
     style="fill:none;stroke:#000000;stroke-width:2.29500008;stroke-linecap:butt;stroke-linejoin:miter;stroke-dasharray:none"
     d="m 44.599993,4.8792503 611.999997,0"
     id="path28"
     inkscape:connector-curvature="0" /><path
     style="fill:none;stroke:#000000;stroke-width:2.29500008;stroke-linecap:butt;stroke-linejoin:miter;stroke-dasharray:none"
     d="m 44.599993,433.27925 0,-428.3999997"
     id="path30"
     inkscape:connector-curvature="0" /><path
     style="fill:none;stroke:#000000;stroke-width:2.29500008;stroke-linecap:butt;stroke-linejoin:miter;stroke-dasharray:none"
     d="m 656.59999,433.27925 0,-428.3999997"
     id="path32"
     inkscape:connector-curvature="0" /><path
     style="fill:#008000;stroke:#008c00;stroke-width:2.4000001;stroke-linecap:butt;stroke-linejoin:miter;stroke-miterlimit:4;stroke-opacity:1;stroke-dasharray:7.20000003, 2.40000001;stroke-dashoffset:0"
     d="M 427.51908,218.79515 427.455,432.79488"
     id="path3431"
     inkscape:path-effect="#path-effect3433"
     inkscape:original-d="M 427.51908,218.79515 427.455,432.79488"
     inkscape:connector-curvature="0"
     sodipodi:nodetypes="cc" /><path
     style="fill:none;stroke:#000000;stroke-width:0.91799998;stroke-linecap:butt;stroke-linejoin:miter;stroke-dasharray:none"
     d="m 44.599993,433.27925 0,-428.3999997 611.999997,0 0,428.3999997 z"
     id="path36"
     inkscape:connector-curvature="0" /><text
     xml:space="preserve"
     style="font-size:17.60000038px;font-style:normal;font-variant:normal;font-weight:normal;font-stretch:normal;line-height:125%;letter-spacing:0px;word-spacing:0px;fill:#000000;fill-opacity:1;stroke:none;font-family:Nimbus Sans L;-inkscape-font-specification:Sans"
     x="40.219193"
     y="463.66165"
     id="text3085"
     sodipodi:linespacing="125%"><tspan
       sodipodi:role="line"
       id="tspan3087"
       x="40.219193"
       y="463.66165">$0$</tspan></text>
<text
     xml:space="preserve"
     style="font-size:17.60000038px;font-style:normal;font-variant:normal;font-weight:normal;font-stretch:normal;line-height:125%;letter-spacing:0px;word-spacing:0px;fill:#000000;fill-opacity:1;stroke:none;font-family:Nimbus Sans L;-inkscape-font-specification:Sans"
     x="641.88837"
     y="463.66165"
     id="text3085-0"
     sodipodi:linespacing="125%"><tspan
       sodipodi:role="line"
       id="tspan3087-4"
       x="641.88837"
       y="463.66165">$90$</tspan></text>
<text
     xml:space="preserve"
     style="font-size:17.60000038px;font-style:normal;font-variant:normal;font-weight:normal;font-stretch:normal;line-height:125%;letter-spacing:0px;word-spacing:0px;fill:#000000;fill-opacity:1;stroke:none;font-family:Nimbus Sans L;-inkscape-font-specification:Sans"
     x="342.67398"
     y="462.78165"
     id="text3110"
     sodipodi:linespacing="125%"><tspan
       sodipodi:role="line"
       id="tspan3112"
       x="342.67398"
       y="462.78165">$\vartheta_1$</tspan></text>
<text
     xml:space="preserve"
     style="font-size:17.60000038px;font-style:normal;font-variant:normal;font-weight:normal;font-stretch:normal;line-height:125%;letter-spacing:0px;word-spacing:0px;fill:#000000;fill-opacity:1;stroke:none;font-family:Nimbus Sans L;-inkscape-font-specification:Sans"
     x="18.619196"
     y="225.91577"
     id="text3085-6"
     sodipodi:linespacing="125%"><tspan
       sodipodi:role="line"
       id="tspan3087-5"
       x="18.619196"
       y="225.91577">$0$</tspan></text>
<text
     xml:space="preserve"
     style="font-size:17.60000038px;font-style:normal;font-variant:normal;font-weight:normal;font-stretch:normal;line-height:125%;letter-spacing:0px;word-spacing:0px;fill:#000000;fill-opacity:1;stroke:none;font-family:Nimbus Sans L;-inkscape-font-specification:Sans"
     x="18.619196"
     y="13.552"
     id="text3085-6-3"
     sodipodi:linespacing="125%"><tspan
       sodipodi:role="line"
       id="tspan3087-5-2"
       x="18.619196"
       y="13.552">$1$</tspan></text>
<text
     xml:space="preserve"
     style="font-size:17.60000038px;font-style:normal;font-variant:normal;font-weight:normal;font-stretch:normal;line-height:125%;letter-spacing:0px;word-spacing:0px;fill:#000000;fill-opacity:1;stroke:none;font-family:Nimbus Sans L;-inkscape-font-specification:Sans"
     x="-0.58080035"
     y="432.47723"
     id="text3085-6-3-3"
     sodipodi:linespacing="125%"
     inkscape:transform-center-x="10.566577"
     inkscape:transform-center-y="42.266307"><tspan
       sodipodi:role="line"
       id="tspan3087-5-2-6"
       x="-0.58080035"
       y="432.47723">$-1$</tspan></text>
<text
     xml:space="preserve"
     style="font-size:17.60000038px;font-style:normal;font-variant:normal;font-weight:normal;font-stretch:normal;line-height:125%;letter-spacing:0px;word-spacing:0px;fill:#000000;fill-opacity:1;stroke:none;font-family:Nimbus Sans L;-inkscape-font-specification:Sans"
     x="527.62177"
     y="139.3992"
     id="text3177"
     sodipodi:linespacing="125%"><tspan
       sodipodi:role="line"
       id="tspan3179"
       x="527.62177"
       y="139.3992">$r_y$</tspan></text>
<text
     xml:space="preserve"
     style="font-size:17.60000038px;font-style:normal;font-variant:normal;font-weight:normal;font-stretch:normal;line-height:125%;letter-spacing:0px;word-spacing:0px;fill:#000000;fill-opacity:1;stroke:none;font-family:Nimbus Sans L;-inkscape-font-specification:Sans"
     x="482.39056"
     y="303.81207"
     id="text3177-0"
     sodipodi:linespacing="125%"><tspan
       sodipodi:role="line"
       id="tspan3179-3"
       x="482.39056"
       y="303.81207">$r_x$</tspan></text>
<text
     xml:space="preserve"
     style="font-size:17.60000038px;font-style:normal;font-variant:normal;font-weight:normal;font-stretch:normal;line-height:125%;letter-spacing:0px;word-spacing:0px;fill:#000000;fill-opacity:1;stroke:none;font-family:Nimbus Sans L;-inkscape-font-specification:Sans"
     x="420.76062"
     y="462.78165"
     id="text3110-4"
     sodipodi:linespacing="125%"
     inkscape:transform-center-x="66.522501"
     inkscape:transform-center-y="10.406"><tspan
       sodipodi:role="line"
       id="tspan3112-5"
       x="420.76062"
       y="462.78165">$\vartheta_B$</tspan></text>
</svg>