<?xml version="1.0" encoding="UTF-8" standalone="no"?>
<!-- Created with Inkscape (http://www.inkscape.org/) -->

<svg
   xmlns:dc="http://purl.org/dc/elements/1.1/"
   xmlns:cc="http://creativecommons.org/ns#"
   xmlns:rdf="http://www.w3.org/1999/02/22-rdf-syntax-ns#"
   xmlns:svg="http://www.w3.org/2000/svg"
   xmlns="http://www.w3.org/2000/svg"
   xmlns:sodipodi="http://sodipodi.sourceforge.net/DTD/sodipodi-0.dtd"
   xmlns:inkscape="http://www.inkscape.org/namespaces/inkscape"
   id="svg4570"
   version="1.1"
   inkscape:version="0.91 r13725"
   width="872.29962"
   height="378.50198"
   xml:space="preserve"
   sodipodi:docname="01_uklonFF.svg"
   inkscape:export-filename="/home/mojca/HomeMojca/MojcaNova/robni_pogoji.png"
   inkscape:export-xdpi="600"
   inkscape:export-ydpi="600"><sodipodi:namedview
     pagecolor="#ffffff"
     bordercolor="#666666"
     borderopacity="1"
     objecttolerance="10"
     gridtolerance="10"
     guidetolerance="10"
     inkscape:pageopacity="0"
     inkscape:pageshadow="2"
     inkscape:window-width="1589"
     inkscape:window-height="923"
     id="namedview4572"
     showgrid="false"
     inkscape:zoom="1"
     inkscape:cx="445.03758"
     inkscape:cy="156.48303"
     inkscape:window-x="371"
     inkscape:window-y="66"
     inkscape:window-maximized="0"
     inkscape:current-layer="g4578"
     fit-margin-top="0"
     fit-margin-left="0"
     fit-margin-right="0"
     fit-margin-bottom="0" /><metadata
     id="metadata4576"><rdf:RDF><cc:Work
         rdf:about=""><dc:format>image/svg+xml</dc:format><dc:type
           rdf:resource="http://purl.org/dc/dcmitype/StillImage" /><dc:title /></cc:Work></rdf:RDF></metadata><defs
     id="defs4574"><inkscape:path-effect
       effect="spiro"
       id="path-effect4363"
       is_visible="true" /><inkscape:path-effect
       effect="spiro"
       id="path-effect3397"
       is_visible="true" /><marker
       inkscape:stockid="Arrow1Mstart"
       orient="auto"
       refY="0"
       refX="0"
       id="Arrow1Mstart"
       style="overflow:visible"><path
         id="path5368"
         d="M 0,0 5,-5 -12.5,0 5,5 0,0 z"
         style="fill-rule:evenodd;stroke:#000000;stroke-width:1pt"
         transform="matrix(0.4,0,0,0.4,4,0)"
         inkscape:connector-curvature="0" /></marker><marker
       inkscape:stockid="Arrow2Mstart"
       orient="auto"
       refY="0"
       refX="0"
       id="Arrow2Mstart"
       style="overflow:visible"><path
         id="path5386"
         style="fill-rule:evenodd;stroke-width:0.625;stroke-linejoin:round"
         d="M 8.7185878,4.0337352 -2.2072895,0.01601326 8.7185884,-4.0017078 c -1.7454984,2.3720609 -1.7354408,5.6174519 -6e-7,8.035443 z"
         transform="scale(0.6,0.6)"
         inkscape:connector-curvature="0" /></marker><marker
       style="overflow:visible"
       id="Arrow1Sstart"
       refX="0"
       refY="0"
       orient="auto"
       inkscape:stockid="Arrow1Sstart"><path
         transform="matrix(0.2,0,0,0.2,1.2,0)"
         style="fill-rule:evenodd;stroke:#000000;stroke-width:1pt"
         d="M 0,0 5,-5 -12.5,0 5,5 0,0 z"
         id="path4118"
         inkscape:connector-curvature="0" /></marker><marker
       style="overflow:visible"
       id="Arrow1Mend"
       refX="0"
       refY="0"
       orient="auto"
       inkscape:stockid="Arrow1Mend"><path
         transform="matrix(-0.4,0,0,-0.4,-4,0)"
         style="fill-rule:evenodd;stroke:#000000;stroke-width:1pt"
         d="M 0,0 5,-5 -12.5,0 5,5 0,0 z"
         id="path4115"
         inkscape:connector-curvature="0" /></marker><marker
       style="overflow:visible"
       id="Arrow1Menda"
       refX="0"
       refY="0"
       orient="auto"
       inkscape:stockid="Arrow1Menda"><path
         transform="matrix(-0.4,0,0,-0.4,-4,0)"
         style="fill:#800000;fill-rule:evenodd;stroke:#800000;stroke-width:1pt"
         d="M 0,0 5,-5 -12.5,0 5,5 0,0 z"
         id="path5472"
         inkscape:connector-curvature="0" /></marker><marker
       style="overflow:visible"
       id="Arrow1Menda-1"
       refX="0"
       refY="0"
       orient="auto"
       inkscape:stockid="Arrow1Menda"><path
         inkscape:connector-curvature="0"
         transform="matrix(-0.4,0,0,-0.4,-4,0)"
         style="fill:#800000;fill-rule:evenodd;stroke:#800000;stroke-width:1pt"
         d="M 0,0 5,-5 -12.5,0 5,5 0,0 z"
         id="path5472-6" /></marker><marker
       style="overflow:visible"
       id="Arrow1Menda-6"
       refX="0"
       refY="0"
       orient="auto"
       inkscape:stockid="Arrow1Menda"><path
         inkscape:connector-curvature="0"
         transform="matrix(-0.4,0,0,-0.4,-4,0)"
         style="fill:#800000;fill-rule:evenodd;stroke:#800000;stroke-width:1pt"
         d="M 0,0 5,-5 -12.5,0 5,5 0,0 z"
         id="path5472-5" /></marker><marker
       style="overflow:visible"
       id="marker3227"
       refX="0"
       refY="0"
       orient="auto"
       inkscape:stockid="Arrow1Menda"><path
         inkscape:connector-curvature="0"
         transform="matrix(-0.4,0,0,-0.4,-4,0)"
         style="fill:#800000;fill-rule:evenodd;stroke:#800000;stroke-width:1pt"
         d="M 0,0 5,-5 -12.5,0 5,5 0,0 z"
         id="path3229" /></marker><marker
       style="overflow:visible"
       id="Arrow1Menda-8"
       refX="0"
       refY="0"
       orient="auto"
       inkscape:stockid="Arrow1Menda"><path
         inkscape:connector-curvature="0"
         transform="matrix(-0.4,0,0,-0.4,-4,0)"
         style="fill:#800000;fill-rule:evenodd;stroke:#800000;stroke-width:1pt"
         d="M 0,0 5,-5 -12.5,0 5,5 0,0 z"
         id="path5472-8" /></marker><marker
       style="overflow:visible"
       id="marker3262"
       refX="0"
       refY="0"
       orient="auto"
       inkscape:stockid="Arrow1Menda"><path
         inkscape:connector-curvature="0"
         transform="matrix(-0.4,0,0,-0.4,-4,0)"
         style="fill:#800000;fill-rule:evenodd;stroke:#800000;stroke-width:1pt"
         d="M 0,0 5,-5 -12.5,0 5,5 0,0 z"
         id="path3264" /></marker><marker
       style="overflow:visible"
       id="Arrow1Menda-19"
       refX="0"
       refY="0"
       orient="auto"
       inkscape:stockid="Arrow1Menda"><path
         inkscape:connector-curvature="0"
         transform="matrix(-0.4,0,0,-0.4,-4,0)"
         style="fill:#800000;fill-rule:evenodd;stroke:#800000;stroke-width:1pt"
         d="M 0,0 5,-5 -12.5,0 5,5 0,0 z"
         id="path5472-7" /></marker><marker
       style="overflow:visible"
       id="marker3297"
       refX="0"
       refY="0"
       orient="auto"
       inkscape:stockid="Arrow1Menda"><path
         inkscape:connector-curvature="0"
         transform="matrix(-0.4,0,0,-0.4,-4,0)"
         style="fill:#800000;fill-rule:evenodd;stroke:#800000;stroke-width:1pt"
         d="M 0,0 5,-5 -12.5,0 5,5 0,0 z"
         id="path3299" /></marker><marker
       style="overflow:visible"
       id="Arrow1Menda-2"
       refX="0"
       refY="0"
       orient="auto"
       inkscape:stockid="Arrow1Menda"><path
         inkscape:connector-curvature="0"
         transform="matrix(-0.4,0,0,-0.4,-4,0)"
         style="fill:#800000;fill-rule:evenodd;stroke:#800000;stroke-width:1pt"
         d="M 0,0 5,-5 -12.5,0 5,5 0,0 z"
         id="path5472-3" /></marker><marker
       style="overflow:visible"
       id="marker4295"
       refX="0"
       refY="0"
       orient="auto"
       inkscape:stockid="Arrow1Menda"><path
         inkscape:connector-curvature="0"
         transform="matrix(-0.4,0,0,-0.4,-4,0)"
         style="fill:#800000;fill-rule:evenodd;stroke:#800000;stroke-width:1pt"
         d="M 0,0 5,-5 -12.5,0 5,5 0,0 z"
         id="path4297" /></marker><marker
       style="overflow:visible"
       id="marker4299"
       refX="0"
       refY="0"
       orient="auto"
       inkscape:stockid="Arrow1Menda"><path
         inkscape:connector-curvature="0"
         transform="matrix(-0.4,0,0,-0.4,-4,0)"
         style="fill:#800000;fill-rule:evenodd;stroke:#800000;stroke-width:1pt"
         d="M 0,0 5,-5 -12.5,0 5,5 0,0 z"
         id="path4301" /></marker><marker
       style="overflow:visible"
       id="marker4303"
       refX="0"
       refY="0"
       orient="auto"
       inkscape:stockid="Arrow1Menda"><path
         inkscape:connector-curvature="0"
         transform="matrix(-0.4,0,0,-0.4,-4,0)"
         style="fill:#800000;fill-rule:evenodd;stroke:#800000;stroke-width:1pt"
         d="M 0,0 5,-5 -12.5,0 5,5 0,0 z"
         id="path4305" /></marker><marker
       style="overflow:visible"
       id="marker4307"
       refX="0"
       refY="0"
       orient="auto"
       inkscape:stockid="Arrow1Menda"><path
         inkscape:connector-curvature="0"
         transform="matrix(-0.4,0,0,-0.4,-4,0)"
         style="fill:#800000;fill-rule:evenodd;stroke:#800000;stroke-width:1pt"
         d="M 0,0 5,-5 -12.5,0 5,5 0,0 z"
         id="path4309" /></marker><marker
       style="overflow:visible"
       id="marker4311"
       refX="0"
       refY="0"
       orient="auto"
       inkscape:stockid="Arrow1Menda"><path
         inkscape:connector-curvature="0"
         transform="matrix(-0.4,0,0,-0.4,-4,0)"
         style="fill:#800000;fill-rule:evenodd;stroke:#800000;stroke-width:1pt"
         d="M 0,0 5,-5 -12.5,0 5,5 0,0 z"
         id="path4313" /></marker><marker
       style="overflow:visible"
       id="marker4315"
       refX="0"
       refY="0"
       orient="auto"
       inkscape:stockid="Arrow1Menda"><path
         inkscape:connector-curvature="0"
         transform="matrix(-0.4,0,0,-0.4,-4,0)"
         style="fill:#800000;fill-rule:evenodd;stroke:#800000;stroke-width:1pt"
         d="M 0,0 5,-5 -12.5,0 5,5 0,0 z"
         id="path4317" /></marker><marker
       style="overflow:visible"
       id="marker4319"
       refX="0"
       refY="0"
       orient="auto"
       inkscape:stockid="Arrow1Menda"><path
         inkscape:connector-curvature="0"
         transform="matrix(-0.4,0,0,-0.4,-4,0)"
         style="fill:#800000;fill-rule:evenodd;stroke:#800000;stroke-width:1pt"
         d="M 0,0 5,-5 -12.5,0 5,5 0,0 z"
         id="path4321" /></marker><marker
       inkscape:stockid="Arrow2Mstart"
       orient="auto"
       refY="0"
       refX="0"
       id="Arrow2Mstart-4"
       style="overflow:visible"><path
         inkscape:connector-curvature="0"
         id="path5386-3"
         style="fill-rule:evenodd;stroke-width:0.625;stroke-linejoin:round"
         d="M 8.7185878,4.0337352 -2.2072895,0.01601326 8.7185884,-4.0017078 c -1.7454984,2.3720609 -1.7354408,5.6174519 -6e-7,8.035443 z"
         transform="scale(0.6,0.6)" /></marker><marker
       inkscape:stockid="Arrow2Mstart"
       orient="auto"
       refY="0"
       refX="0"
       id="Arrow2Mstart-5"
       style="overflow:visible"><path
         inkscape:connector-curvature="0"
         id="path5386-8"
         style="fill-rule:evenodd;stroke-width:0.625;stroke-linejoin:round"
         d="M 8.7185878,4.0337352 -2.2072895,0.01601326 8.7185884,-4.0017078 c -1.7454984,2.3720609 -1.7354408,5.6174519 -6e-7,8.035443 z"
         transform="scale(0.6,0.6)" /></marker><marker
       style="overflow:visible"
       id="Arrow1Menda-9"
       refX="0"
       refY="0"
       orient="auto"
       inkscape:stockid="Arrow1Menda"><path
         inkscape:connector-curvature="0"
         transform="matrix(-0.4,0,0,-0.4,-4,0)"
         style="fill:#800000;fill-rule:evenodd;stroke:#800000;stroke-width:1pt"
         d="M 0,0 5,-5 -12.5,0 5,5 0,0 z"
         id="path5472-36" /></marker><marker
       style="overflow:visible"
       id="Arrow1Menda-3"
       refX="0"
       refY="0"
       orient="auto"
       inkscape:stockid="Arrow1Menda"><path
         inkscape:connector-curvature="0"
         transform="matrix(-0.4,0,0,-0.4,-4,0)"
         style="fill:#800000;fill-rule:evenodd;stroke:#800000;stroke-width:1pt"
         d="M 0,0 5,-5 -12.5,0 5,5 0,0 z"
         id="path5472-75" /></marker><marker
       inkscape:stockid="Arrow2Mstart"
       orient="auto"
       refY="0"
       refX="0"
       id="Arrow2Mstart-8"
       style="overflow:visible"><path
         inkscape:connector-curvature="0"
         id="path5386-36"
         style="fill-rule:evenodd;stroke-width:0.625;stroke-linejoin:round"
         d="M 8.7185878,4.0337352 -2.2072895,0.01601326 8.7185884,-4.0017078 c -1.7454984,2.3720609 -1.7354408,5.6174519 -6e-7,8.035443 z"
         transform="scale(0.6,0.6)" /></marker><marker
       style="overflow:visible"
       id="Arrow1Menda-16"
       refX="0"
       refY="0"
       orient="auto"
       inkscape:stockid="Arrow1Menda"><path
         inkscape:connector-curvature="0"
         transform="matrix(-0.4,0,0,-0.4,-4,0)"
         style="fill:#800000;fill-rule:evenodd;stroke:#800000;stroke-width:1pt"
         d="M 0,0 5,-5 -12.5,0 5,5 0,0 z"
         id="path5472-2" /></marker><marker
       style="overflow:visible"
       id="marker8345"
       refX="0"
       refY="0"
       orient="auto"
       inkscape:stockid="Arrow1Menda"><path
         inkscape:connector-curvature="0"
         transform="matrix(-0.4,0,0,-0.4,-4,0)"
         style="fill:#800000;fill-rule:evenodd;stroke:#800000;stroke-width:1pt"
         d="M 0,0 5,-5 -12.5,0 5,5 0,0 z"
         id="path8347" /></marker><marker
       inkscape:stockid="Arrow2Mstart"
       orient="auto"
       refY="0"
       refX="0"
       id="Arrow2Mstart-9"
       style="overflow:visible"><path
         inkscape:connector-curvature="0"
         id="path5386-32"
         style="fill-rule:evenodd;stroke-width:0.625;stroke-linejoin:round"
         d="M 8.7185878,4.0337352 -2.2072895,0.01601326 8.7185884,-4.0017078 c -1.7454984,2.3720609 -1.7354408,5.6174519 -6e-7,8.035443 z"
         transform="scale(0.6,0.6)" /></marker><marker
       inkscape:stockid="Arrow2Mstart"
       orient="auto"
       refY="0"
       refX="0"
       id="marker8351"
       style="overflow:visible"><path
         inkscape:connector-curvature="0"
         id="path8353"
         style="fill-rule:evenodd;stroke-width:0.625;stroke-linejoin:round"
         d="M 8.7185878,4.0337352 -2.2072895,0.01601326 8.7185884,-4.0017078 c -1.7454984,2.3720609 -1.7354408,5.6174519 -6e-7,8.035443 z"
         transform="scale(0.6,0.6)" /></marker><marker
       inkscape:stockid="Arrow2Mstart"
       orient="auto"
       refY="0"
       refX="0"
       id="Arrow2Mstart-5-4"
       style="overflow:visible"><path
         inkscape:connector-curvature="0"
         id="path5386-8-6"
         style="fill-rule:evenodd;stroke-width:0.625;stroke-linejoin:round"
         d="M 8.7185878,4.0337352 -2.2072895,0.01601326 8.7185884,-4.0017078 c -1.7454984,2.3720609 -1.7354408,5.6174519 -6e-7,8.035443 z"
         transform="scale(0.6,0.6)" /></marker><marker
       style="overflow:visible"
       id="marker8357"
       refX="0"
       refY="0"
       orient="auto"
       inkscape:stockid="Arrow1Menda"><path
         inkscape:connector-curvature="0"
         transform="matrix(-0.4,0,0,-0.4,-4,0)"
         style="fill:#800000;fill-rule:evenodd;stroke:#800000;stroke-width:1pt"
         d="M 0,0 5,-5 -12.5,0 5,5 0,0 z"
         id="path8359" /></marker><marker
       inkscape:stockid="Arrow2Mstart"
       orient="auto"
       refY="0"
       refX="0"
       id="Arrow2Mstart-5-9"
       style="overflow:visible"><path
         inkscape:connector-curvature="0"
         id="path5386-8-8"
         style="fill-rule:evenodd;stroke-width:0.625;stroke-linejoin:round"
         d="M 8.7185878,4.0337352 -2.2072895,0.01601326 8.7185884,-4.0017078 c -1.7454984,2.3720609 -1.7354408,5.6174519 -6e-7,8.035443 z"
         transform="scale(0.6,0.6)" /></marker><inkscape:path-effect
       effect="spiro"
       id="path-effect4363-4"
       is_visible="true" /><inkscape:path-effect
       effect="spiro"
       id="path-effect4363-4-4"
       is_visible="true" /><inkscape:path-effect
       effect="spiro"
       id="path-effect4363-4-4-6"
       is_visible="true" /><inkscape:path-effect
       effect="spiro"
       id="path-effect4363-4-4-6-8"
       is_visible="true" /><inkscape:path-effect
       effect="spiro"
       id="path-effect4363-4-4-6-8-3"
       is_visible="true" /><inkscape:path-effect
       effect="spiro"
       id="path-effect4363-4-4-6-5"
       is_visible="true" /><inkscape:path-effect
       effect="spiro"
       id="path-effect4363-4-4-5"
       is_visible="true" /><inkscape:path-effect
       effect="spiro"
       id="path-effect4363-4-7"
       is_visible="true" /><inkscape:path-effect
       effect="spiro"
       id="path-effect4363-5"
       is_visible="true" /><inkscape:path-effect
       effect="spiro"
       id="path-effect4363-4-4-6-0"
       is_visible="true" /><inkscape:path-effect
       effect="spiro"
       id="path-effect4363-4-4-6-8-9"
       is_visible="true" /><inkscape:path-effect
       effect="spiro"
       id="path-effect4363-1"
       is_visible="true" /><inkscape:path-effect
       effect="spiro"
       id="path-effect4363-4-5"
       is_visible="true" /><inkscape:path-effect
       effect="spiro"
       id="path-effect4363-4-4-7"
       is_visible="true" /><inkscape:path-effect
       effect="spiro"
       id="path-effect4363-5-3"
       is_visible="true" /><inkscape:path-effect
       effect="spiro"
       id="path-effect4363-4-7-9"
       is_visible="true" /><inkscape:path-effect
       effect="spiro"
       id="path-effect4363-4-4-5-3"
       is_visible="true" /><inkscape:path-effect
       effect="spiro"
       id="path-effect4363-4-4-6-5-9"
       is_visible="true" /><inkscape:path-effect
       effect="spiro"
       id="path-effect4363-4-4-6-8-3-0"
       is_visible="true" /><marker
       inkscape:stockid="Arrow2Mstart"
       orient="auto"
       refY="0"
       refX="0"
       id="Arrow2Mstart-99"
       style="overflow:visible"><path
         id="path5386-0"
         style="fill-rule:evenodd;stroke-width:0.625;stroke-linejoin:round"
         d="M 8.7185878,4.0337352 -2.2072895,0.01601326 8.7185884,-4.0017078 c -1.7454984,2.3720609 -1.7354408,5.6174519 -6e-7,8.035443 z"
         transform="scale(0.6,0.6)"
         inkscape:connector-curvature="0" /></marker><marker
       inkscape:stockid="Arrow2Mstart"
       orient="auto"
       refY="0"
       refX="0"
       id="Arrow2Mstart-93"
       style="overflow:visible"><path
         id="path5386-4"
         style="fill-rule:evenodd;stroke-width:0.625;stroke-linejoin:round"
         d="M 8.7185878,4.0337352 -2.2072895,0.01601326 8.7185884,-4.0017078 c -1.7454984,2.3720609 -1.7354408,5.6174519 -6e-7,8.035443 z"
         transform="scale(0.6,0.6)"
         inkscape:connector-curvature="0" /></marker><inkscape:path-effect
       effect="spiro"
       id="path-effect3397-0"
       is_visible="true" /><inkscape:path-effect
       effect="spiro"
       id="path-effect4363-4-4-6-9"
       is_visible="true" /><inkscape:path-effect
       effect="spiro"
       id="path-effect4363-4-4-6-8-33"
       is_visible="true" /><inkscape:path-effect
       effect="spiro"
       id="path-effect4363-8"
       is_visible="true" /><inkscape:path-effect
       effect="spiro"
       id="path-effect4363-4-74"
       is_visible="true" /><inkscape:path-effect
       effect="spiro"
       id="path-effect4363-4-4-8"
       is_visible="true" /><inkscape:path-effect
       effect="spiro"
       id="path-effect4363-5-9"
       is_visible="true" /><inkscape:path-effect
       effect="spiro"
       id="path-effect4363-4-7-0"
       is_visible="true" /><inkscape:path-effect
       effect="spiro"
       id="path-effect4363-4-4-5-8"
       is_visible="true" /><inkscape:path-effect
       effect="spiro"
       id="path-effect4363-4-4-6-5-6"
       is_visible="true" /><inkscape:path-effect
       effect="spiro"
       id="path-effect4363-4-4-6-8-3-4"
       is_visible="true" /><inkscape:path-effect
       effect="spiro"
       id="path-effect4363-4-4-6-0-1"
       is_visible="true" /><inkscape:path-effect
       effect="spiro"
       id="path-effect4363-4-4-6-8-9-5"
       is_visible="true" /><inkscape:path-effect
       effect="spiro"
       id="path-effect4363-1-7"
       is_visible="true" /><inkscape:path-effect
       effect="spiro"
       id="path-effect4363-4-5-0"
       is_visible="true" /><inkscape:path-effect
       effect="spiro"
       id="path-effect4363-4-4-7-3"
       is_visible="true" /><inkscape:path-effect
       effect="spiro"
       id="path-effect4363-5-3-8"
       is_visible="true" /><inkscape:path-effect
       effect="spiro"
       id="path-effect4363-4-7-9-3"
       is_visible="true" /><inkscape:path-effect
       effect="spiro"
       id="path-effect4363-4-4-5-3-7"
       is_visible="true" /><inkscape:path-effect
       effect="spiro"
       id="path-effect4363-4-4-6-5-9-9"
       is_visible="true" /><inkscape:path-effect
       effect="spiro"
       id="path-effect4363-4-4-6-8-3-0-2"
       is_visible="true" /><marker
       inkscape:stockid="Arrow2Mstart"
       orient="auto"
       refY="0"
       refX="0"
       id="marker4737"
       style="overflow:visible"><path
         id="path4739"
         style="fill-rule:evenodd;stroke-width:0.625;stroke-linejoin:round"
         d="M 8.7185878,4.0337352 -2.2072895,0.01601326 8.7185884,-4.0017078 c -1.7454984,2.3720609 -1.7354408,5.6174519 -6e-7,8.035443 z"
         transform="scale(0.6,0.6)"
         inkscape:connector-curvature="0" /></marker></defs><g
     transform="matrix(1.25,0,0,-1.25,-51.850916,666.86089)"
     inkscape:label="matrika_nN"
     inkscape:groupmode="layer"
     id="g4578"><flowRoot
       xml:space="preserve"
       id="flowRoot4054"
       style="font-size:40px;font-style:normal;font-weight:normal;line-height:125%;letter-spacing:0px;word-spacing:0px;fill:#000000;fill-opacity:1;stroke:none;font-family:Sans"><flowRegion
         id="flowRegion4056"><rect
           id="rect4058"
           width="216.75314"
           height="90.741325"
           x="-110.9417"
           y="-20.560381" /></flowRegion><flowPara
         id="flowPara4060" /></flowRoot><text
       xml:space="preserve"
       style="font-size:40px;font-style:normal;font-weight:normal;line-height:125%;letter-spacing:0px;word-spacing:0px;fill:#000000;fill-opacity:1;stroke:none;font-family:Sans"
       x="49.699314"
       y="97.114769"
       id="text4404"
       sodipodi:linespacing="125%"
       transform="matrix(0.8,0,0,-0.8,0,42.806103)"><tspan
         sodipodi:role="line"
         id="tspan4406"
         x="49.699314"
         y="97.114769" /></text>
<flowRoot
       xml:space="preserve"
       id="flowRoot8113"
       style="font-size:40px;font-style:normal;font-weight:normal;line-height:125%;letter-spacing:0px;word-spacing:0px;fill:#000000;fill-opacity:1;stroke:none;font-family:Sans"><flowRegion
         id="flowRegion8115"><rect
           id="rect8117"
           width="86.320786"
           height="78.647827"
           x="120.84911"
           y="-298.0098" /></flowRegion><flowPara
         id="flowPara8119" /></flowRoot><flowRoot
       xml:space="preserve"
       id="flowRoot8298"
       style="font-size:40px;font-style:normal;font-weight:normal;line-height:125%;letter-spacing:0px;word-spacing:0px;fill:#000000;fill-opacity:1;stroke:none;font-family:Sans"><flowRegion
         id="flowRegion8300"><rect
           id="rect8302"
           width="571.04456"
           height="165.48083"
           x="217.02405"
           y="-6.1739845" /></flowRegion><flowPara
         id="flowPara8304" /></flowRoot><text
       xml:space="preserve"
       style="font-size:22px;font-style:italic;font-variant:normal;font-weight:normal;font-stretch:normal;line-height:125%;letter-spacing:0px;word-spacing:0px;fill:#000000;fill-opacity:1;stroke:none;font-family:Nimbus Sans L;-inkscape-font-specification:Sans Italic"
       x="295.69528"
       y="-334.42285"
       id="text3187"
       sodipodi:linespacing="125%"
       transform="matrix(0.8,0,0,-0.8,0,42.806103)"><tspan
         sodipodi:role="line"
         id="tspan3189"
         x="295.69528"
         y="-334.42285"
         style="font-style:italic;font-variant:normal;font-weight:normal;font-stretch:normal;font-family:msbm10;-inkscape-font-specification:msbm10 Italic" /></text>
<path
       style="fill:none;stroke:#000000;stroke-width:2.31454062;stroke-linecap:butt;stroke-linejoin:miter;stroke-miterlimit:4;stroke-dasharray:none;stroke-opacity:1"
       d="m 140.89993,532.30622 0,-284.96787"
       id="path3395"
       inkscape:path-effect="#path-effect3397"
       inkscape:original-d="m 140.89993,532.30622 0,-284.96787"
       inkscape:connector-curvature="0" /><rect
       style="fill:#ffffff;fill-opacity:1;stroke:none"
       id="rect4359"
       width="21.6"
       height="84.800003"
       x="129.69962"
       y="-430.62228"
       transform="scale(1,-1)" /><g
       id="g4513"
       transform="matrix(0.99995274,0.00972138,-0.00972138,0.99995274,-149.66941,-12.677238)"
       style="fill:none;stroke:#d40000;stroke-width:2;stroke-miterlimit:4;stroke-dasharray:none;stroke-opacity:1"><path
         inkscape:connector-curvature="0"
         inkscape:original-d="m 227.29993,424.80271 0.22058,-75.78042"
         inkscape:path-effect="#path-effect4363-4-4-6"
         id="path4361-8-1-5"
         d="m 227.29993,424.80271 0.22058,-75.78042"
         style="fill:none;stroke:#d40000;stroke-width:2;stroke-linecap:butt;stroke-linejoin:miter;stroke-miterlimit:4;stroke-dasharray:none;stroke-opacity:1" /><path
         inkscape:connector-curvature="0"
         inkscape:original-d="m 235.29993,424.80271 0.22058,-75.78042"
         inkscape:path-effect="#path-effect4363-4-4-6-8"
         id="path4361-8-1-5-1"
         d="m 235.29993,424.80271 0.22058,-75.78042"
         style="fill:none;stroke:#d40000;stroke-width:2;stroke-linecap:butt;stroke-linejoin:miter;stroke-miterlimit:4;stroke-dasharray:none;stroke-opacity:1" /><g
         id="g4502"
         style="fill:none;stroke:#d40000;stroke-width:2;stroke-miterlimit:4;stroke-dasharray:none;stroke-opacity:1"><path
           style="fill:none;stroke:#d40000;stroke-width:2;stroke-linecap:butt;stroke-linejoin:miter;stroke-miterlimit:4;stroke-dasharray:none;stroke-opacity:1"
           d="m 203.29993,424.80271 0.22058,-75.78042"
           id="path4361"
           inkscape:path-effect="#path-effect4363"
           inkscape:original-d="m 203.29993,424.80271 0.22058,-75.78042"
           inkscape:connector-curvature="0" /><path
           style="fill:none;stroke:#d40000;stroke-width:2;stroke-linecap:butt;stroke-linejoin:miter;stroke-miterlimit:4;stroke-dasharray:none;stroke-opacity:1"
           d="m 211.29993,424.80271 0.22058,-75.78042"
           id="path4361-8"
           inkscape:path-effect="#path-effect4363-4"
           inkscape:original-d="m 211.29993,424.80271 0.22058,-75.78042"
           inkscape:connector-curvature="0" /><g
           id="g4494"
           style="fill:none;stroke:#d40000;stroke-width:2;stroke-miterlimit:4;stroke-dasharray:none;stroke-opacity:1"><path
             inkscape:connector-curvature="0"
             inkscape:original-d="m 219.29993,424.80271 0.22058,-75.78042"
             inkscape:path-effect="#path-effect4363-4-4"
             id="path4361-8-1"
             d="m 219.29993,424.80271 0.22058,-75.78042"
             style="fill:none;stroke:#d40000;stroke-width:2;stroke-linecap:butt;stroke-linejoin:miter;stroke-miterlimit:4;stroke-dasharray:none;stroke-opacity:1" /><path
             inkscape:connector-curvature="0"
             inkscape:original-d="m 243.29993,424.80271 0.22058,-75.78042"
             inkscape:path-effect="#path-effect4363-5"
             id="path4361-9"
             d="m 243.29993,424.80271 0.22058,-75.78042"
             style="fill:none;stroke:#d40000;stroke-width:2;stroke-linecap:butt;stroke-linejoin:miter;stroke-miterlimit:4;stroke-dasharray:none;stroke-opacity:1" /><path
             inkscape:connector-curvature="0"
             inkscape:original-d="m 251.29993,424.80271 0.22058,-75.78042"
             inkscape:path-effect="#path-effect4363-4-7"
             id="path4361-8-8"
             d="m 251.29993,424.80271 0.22058,-75.78042"
             style="fill:none;stroke:#d40000;stroke-width:2;stroke-linecap:butt;stroke-linejoin:miter;stroke-miterlimit:4;stroke-dasharray:none;stroke-opacity:1" /><path
             inkscape:connector-curvature="0"
             inkscape:original-d="m 259.29993,424.80271 0.22058,-75.78042"
             inkscape:path-effect="#path-effect4363-4-4-5"
             id="path4361-8-1-0"
             d="m 259.29993,424.80271 0.22058,-75.78042"
             style="fill:none;stroke:#d40000;stroke-width:2;stroke-linecap:butt;stroke-linejoin:miter;stroke-miterlimit:4;stroke-dasharray:none;stroke-opacity:1" /><path
             inkscape:connector-curvature="0"
             inkscape:original-d="m 267.29993,424.80271 0.22058,-75.78042"
             inkscape:path-effect="#path-effect4363-4-4-6-5"
             id="path4361-8-1-5-5"
             d="m 267.29993,424.80271 0.22058,-75.78042"
             style="fill:none;stroke:#d40000;stroke-width:2;stroke-linecap:butt;stroke-linejoin:miter;stroke-miterlimit:4;stroke-dasharray:none;stroke-opacity:1" /><path
             inkscape:connector-curvature="0"
             inkscape:original-d="m 275.29993,424.80271 0.22058,-75.78042"
             inkscape:path-effect="#path-effect4363-4-4-6-8-3"
             id="path4361-8-1-5-1-0"
             d="m 275.29993,424.80271 0.22058,-75.78042"
             style="fill:none;stroke:#d40000;stroke-width:2;stroke-linecap:butt;stroke-linejoin:miter;stroke-miterlimit:4;stroke-dasharray:none;stroke-opacity:1" /></g></g></g><text
       xml:space="preserve"
       style="font-style:normal;font-variant:normal;font-weight:normal;font-stretch:normal;font-size:17.60000038px;line-height:125%;font-family:'Nimbus Sans L';-inkscape-font-specification:Sans;letter-spacing:0px;word-spacing:0px;fill:#000000;fill-opacity:1;stroke:none"
       x="148.09962"
       y="-511.42227"
       id="text4611"
       sodipodi:linespacing="125%"
       transform="scale(1,-1)"><tspan
         sodipodi:role="line"
         id="tspan4613"
         x="148.09962"
         y="-511.42227">$\mathrm{zaslon}$</tspan></text>
<path
       style="fill:none;stroke:#000000;stroke-width:1.95437121;stroke-linecap:butt;stroke-linejoin:miter;stroke-miterlimit:4;stroke-dasharray:none;stroke-opacity:1;marker-start:url(#Arrow2Mstart);marker-end:none"
       d="m 106.24697,374.45111 -41.8893,0.21542"
       id="path6056-0-60-7"
       inkscape:connector-curvature="0"
       sodipodi:nodetypes="cc" /><path
       sodipodi:type="arc"
       style="fill:#ffffff;fill-opacity:1;stroke:#d40000;stroke-width:2;stroke-linecap:round;stroke-linejoin:miter;stroke-miterlimit:4;stroke-opacity:1;stroke-dasharray:none;stroke-dashoffset:0"
       id="path4945"
       sodipodi:cx="733.75"
       sodipodi:cy="246.03494"
       sodipodi:rx="35.25"
       sodipodi:ry="35.25"
       d="m 769,246.03494 a 35.25,35.25 0 0 1 -35.25,35.25 35.25,35.25 0 0 1 -35.25,-35.25 35.25,35.25 0 0 1 35.25,-35.25 35.25,35.25 0 0 1 35.25,35.25 z"
       transform="matrix(1.0108775,0,0,-1.0480231,-246.60506,611.30625)" /><path
       sodipodi:type="arc"
       style="fill:#ffffff;fill-opacity:1;stroke:#d40000;stroke-width:2.91666675000000009;stroke-linecap:round;stroke-linejoin:miter;stroke-miterlimit:4;stroke-opacity:1;stroke-dasharray:none;stroke-dashoffset:0"
       id="path4945-3"
       sodipodi:cx="733.75"
       sodipodi:cy="246.03494"
       sodipodi:rx="35.25"
       sodipodi:ry="35.25"
       d="m 769,246.03494 a 35.25,35.25 0 0 1 -35.25,35.25 35.25,35.25 0 0 1 -35.25,-35.25 35.25,35.25 0 0 1 35.25,-35.25 35.25,35.25 0 0 1 35.25,35.25 z"
       transform="matrix(0.71828994,0,0,-0.71828994,-31.918907,528.87098)" /><path
       sodipodi:type="arc"
       style="fill:#ffffff;fill-opacity:1;stroke:#d40000;stroke-width:4.89444446999999982;stroke-linecap:round;stroke-linejoin:miter;stroke-miterlimit:4;stroke-opacity:1;stroke-dasharray:none;stroke-dashoffset:0"
       id="path4945-3-5"
       sodipodi:cx="733.75"
       sodipodi:cy="246.03494"
       sodipodi:rx="35.25"
       sodipodi:ry="35.25"
       d="m 769,246.03494 a 35.25,35.25 0 0 1 -35.25,35.25 35.25,35.25 0 0 1 -35.25,-35.25 35.25,35.25 0 0 1 35.25,-35.25 35.25,35.25 0 0 1 35.25,35.25 z"
       transform="matrix(0.42803883,0,0,-0.42803884,181.05285,457.45907)" /><path
       sodipodi:type="arc"
       style="fill:none;stroke:#d40000;stroke-width:1.61111116000000010;stroke-linecap:round;stroke-linejoin:miter;stroke-miterlimit:4;stroke-opacity:1;stroke-dasharray:none;stroke-dashoffset:0"
       id="path4945-9"
       sodipodi:cx="733.75"
       sodipodi:cy="246.03494"
       sodipodi:rx="35.25"
       sodipodi:ry="35.25"
       d="m 769,246.03494 a 35.25,35.25 0 0 1 -35.25,35.25 35.25,35.25 0 0 1 -35.25,-35.25 35.25,35.25 0 0 1 35.25,-35.25 35.25,35.25 0 0 1 35.25,35.25 z"
       transform="matrix(1.3003525,0,0,-1.3003525,-459.00729,672.07882)" /><path
       sodipodi:type="arc"
       style="fill:none;stroke:#d40000;stroke-width:1.31111109000000003;stroke-linecap:round;stroke-linejoin:miter;stroke-miterlimit:4;stroke-opacity:1;stroke-dasharray:none;stroke-dashoffset:0"
       id="path4945-9-7"
       sodipodi:cx="733.75"
       sodipodi:cy="246.03494"
       sodipodi:rx="35.25"
       sodipodi:ry="35.25"
       d="m 769,246.03494 a 35.25,35.25 0 0 1 -35.25,35.25 35.25,35.25 0 0 1 -35.25,-35.25 35.25,35.25 0 0 1 35.25,-35.25 35.25,35.25 0 0 1 35.25,35.25 z"
       transform="matrix(1.5978906,0,0,-1.5978908,-677.32593,745.28352)" /><path
       sodipodi:type="arc"
       style="fill:none;stroke:#d40000;stroke-width:1.10478627999999990;stroke-linecap:round;stroke-linejoin:miter;stroke-miterlimit:4;stroke-opacity:1;stroke-dasharray:none;stroke-dashoffset:0"
       id="path4945-9-7-1"
       sodipodi:cx="733.75"
       sodipodi:cy="246.03494"
       sodipodi:rx="35.25"
       sodipodi:ry="35.25"
       d="m 769,246.03494 a 35.25,35.25 0 0 1 -35.25,35.25 35.25,35.25 0 0 1 -35.25,-35.25 35.25,35.25 0 0 1 35.25,-35.25 35.25,35.25 0 0 1 35.25,35.25 z"
       transform="matrix(1.8963054,0,0,-1.8963055,-896.28774,818.70397)" /><rect
       style="fill:#ffffff;fill-opacity:1;stroke:none"
       id="rect5045"
       width="188.02736"
       height="82.752991"
       x="410.84402"
       y="-350.85812"
       transform="scale(1,-1)" /><rect
       style="fill:#ffffff;fill-opacity:1;stroke:none"
       id="rect5047"
       width="100.56059"
       height="107.89314"
       x="206.01779"
       y="-599.64508"
       transform="matrix(0.91052465,-0.41345478,-0.41345478,-0.91052465,0,0)" /><text
       xml:space="preserve"
       style="font-size:17.60000038px;font-style:normal;font-variant:normal;font-weight:normal;font-stretch:normal;line-height:125%;letter-spacing:0px;word-spacing:0px;fill:#000000;fill-opacity:1;stroke:none;font-family:Nimbus Sans L;-inkscape-font-specification:Sans"
       x="579.96539"
       y="-511.44748"
       id="text4611-8"
       sodipodi:linespacing="125%"
       transform="scale(1,-1)"><tspan
         sodipodi:role="line"
         id="tspan4613-6"
         x="579.96539"
         y="-511.44748">$\mathrm{zaslon}$</tspan></text>
<text
       xml:space="preserve"
       style="font-size:17.60000038px;font-style:normal;font-variant:normal;font-weight:normal;font-stretch:normal;line-height:125%;letter-spacing:0px;word-spacing:0px;fill:#000000;fill-opacity:1;stroke:none;font-family:Nimbus Sans L;-inkscape-font-specification:Sans"
       x="475.16541"
       y="-311.64746"
       id="text4641-3"
       sodipodi:linespacing="125%"
       transform="scale(1,-1)"><tspan
         sodipodi:role="line"
         id="tspan4643-8"
         x="475.16541"
         y="-311.64746">$S$</tspan></text>
<path
       sodipodi:type="arc"
       style="fill:#000000;fill-opacity:1;stroke:none"
       id="path5071"
       sodipodi:cx="526"
       sodipodi:cy="130.78494"
       sodipodi:rx="4"
       sodipodi:ry="4"
       d="m 530,130.78494 a 4,4 0 0 1 -4,4 4,4 0 0 1 -4,-4 4,4 0 0 1 4,-4 4,4 0 0 1 4,4 z"
       transform="matrix(0.8,0,0,-0.8,74.49993,456.05024)" /><path
       sodipodi:type="arc"
       style="fill:#ffffff;fill-opacity:1;stroke:#d40000;stroke-width:2;stroke-linecap:round;stroke-linejoin:miter;stroke-miterlimit:4;stroke-opacity:1;stroke-dasharray:none;stroke-dashoffset:0"
       id="path4945-7"
       sodipodi:cx="733.75"
       sodipodi:cy="246.03494"
       sodipodi:rx="35.25"
       sodipodi:ry="35.25"
       d="m 769,246.03494 a 35.25,35.25 0 0 1 -35.25,35.25 35.25,35.25 0 0 1 -35.25,-35.25 35.25,35.25 0 0 1 35.25,-35.25 35.25,35.25 0 0 1 35.25,35.25 z"
       transform="matrix(-0.14221186,1.0130715,1.0502978,0.14743756,502.87079,-443.1952)" /><path
       sodipodi:type="arc"
       style="fill:#ffffff;fill-opacity:1;stroke:#d40000;stroke-width:2.91666675000000009;stroke-linecap:round;stroke-linejoin:miter;stroke-miterlimit:4;stroke-opacity:1;stroke-dasharray:none;stroke-dashoffset:0"
       id="path4945-3-0"
       sodipodi:cx="733.75"
       sodipodi:cy="246.03494"
       sodipodi:rx="35.25"
       sodipodi:ry="35.25"
       d="m 769,246.03494 a 35.25,35.25 0 0 1 -35.25,35.25 35.25,35.25 0 0 1 -35.25,-35.25 35.25,35.25 0 0 1 35.25,-35.25 35.25,35.25 0 0 1 35.25,35.25 z"
       transform="matrix(-0.10105017,0.71984893,0.71984893,0.10105017,552.737,-216.44597)" /><path
       sodipodi:type="arc"
       style="fill:#ffffff;fill-opacity:1;stroke:#d40000;stroke-width:4.89444446999999982;stroke-linecap:round;stroke-linejoin:miter;stroke-miterlimit:4;stroke-opacity:1;stroke-dasharray:none;stroke-dashoffset:0"
       id="path4945-3-5-3"
       sodipodi:cx="733.75"
       sodipodi:cy="246.03494"
       sodipodi:rx="35.25"
       sodipodi:ry="35.25"
       d="m 769,246.03494 a 35.25,35.25 0 0 1 -35.25,35.25 35.25,35.25 0 0 1 -35.25,-35.25 35.25,35.25 0 0 1 35.25,-35.25 35.25,35.25 0 0 1 35.25,35.25 z"
       transform="matrix(-0.06021718,0.42896785,0.42896786,0.06021718,594.3427,7.034363)" /><path
       sodipodi:type="arc"
       style="fill:none;stroke:#d40000;stroke-width:1.61111116000000010;stroke-linecap:round;stroke-linejoin:miter;stroke-miterlimit:4;stroke-opacity:1;stroke-dasharray:none;stroke-dashoffset:0"
       id="path4945-9-2"
       sodipodi:cx="733.75"
       sodipodi:cy="246.03494"
       sodipodi:rx="35.25"
       sodipodi:ry="35.25"
       d="m 769,246.03494 a 35.25,35.25 0 0 1 -35.25,35.25 35.25,35.25 0 0 1 -35.25,-35.25 35.25,35.25 0 0 1 35.25,-35.25 35.25,35.25 0 0 1 35.25,35.25 z"
       transform="matrix(-0.18293565,1.3031748,1.3031748,0.18293565,469.30181,-664.60802)" /><path
       sodipodi:type="arc"
       style="fill:none;stroke:#d40000;stroke-width:1.31111109000000003;stroke-linecap:round;stroke-linejoin:miter;stroke-miterlimit:4;stroke-opacity:1;stroke-dasharray:none;stroke-dashoffset:0"
       id="path4945-9-7-7"
       sodipodi:cx="733.75"
       sodipodi:cy="246.03494"
       sodipodi:rx="35.25"
       sodipodi:ry="35.25"
       d="m 769,246.03494 a 35.25,35.25 0 0 1 -35.25,35.25 35.25,35.25 0 0 1 -35.25,-35.25 35.25,35.25 0 0 1 35.25,-35.25 35.25,35.25 0 0 1 35.25,35.25 z"
       transform="matrix(-0.2247938,1.6013587,1.6013589,0.22479381,426.65165,-893.69905)" /><path
       sodipodi:type="arc"
       style="fill:none;stroke:#d40000;stroke-width:1.10478627999999990;stroke-linecap:round;stroke-linejoin:miter;stroke-miterlimit:4;stroke-opacity:1;stroke-dasharray:none;stroke-dashoffset:0"
       id="path4945-9-7-1-5"
       sodipodi:cx="733.75"
       sodipodi:cy="246.03494"
       sodipodi:rx="35.25"
       sodipodi:ry="35.25"
       d="m 769,246.03494 a 35.25,35.25 0 0 1 -35.25,35.25 35.25,35.25 0 0 1 -35.25,-35.25 35.25,35.25 0 0 1 35.25,-35.25 35.25,35.25 0 0 1 35.25,35.25 z"
       transform="matrix(-0.26677526,1.9004211,1.9004213,0.26677527,383.87574,-1123.465)" /><rect
       style="fill:#ffffff;fill-opacity:1;stroke:none"
       id="rect5045-7"
       width="189.13344"
       height="71.757843"
       x="-206.03258"
       y="734.17322"
       transform="matrix(-0.53470174,0.84504086,0.81569626,0.57848043,0,0)" /><rect
       style="fill:#ffffff;fill-opacity:1;stroke:none"
       id="rect5047-8"
       width="101.92979"
       height="124.87224"
       x="290.28467"
       y="535.71954"
       transform="matrix(0.11598312,0.99325118,0.99605751,-0.08870985,0,0)" /><text
       xml:space="preserve"
       style="font-size:17.60000038px;font-style:normal;font-variant:normal;font-weight:normal;font-stretch:normal;line-height:125%;letter-spacing:0px;word-spacing:0px;fill:#000000;fill-opacity:1;stroke:none;font-family:Nimbus Sans L;-inkscape-font-specification:Sans"
       x="660.94"
       y="-302.98029"
       id="text4641-1-4"
       sodipodi:linespacing="125%"
       transform="scale(1,-1)"><tspan
         sodipodi:role="line"
         id="tspan4643-5-7"
         x="660.94"
         y="-302.98029">$P$</tspan></text>
<path
       style="fill:none;stroke:#000000;stroke-width:2.31454062;stroke-linecap:butt;stroke-linejoin:miter;stroke-miterlimit:4;stroke-opacity:1;stroke-dasharray:none"
       d="m 572.76538,532.33144 0,-284.96787"
       id="path3395-2"
       inkscape:path-effect="#path-effect3397-0"
       inkscape:original-d="m 572.76538,532.33144 0,-284.96787"
       inkscape:connector-curvature="0" /><rect
       style="fill:#ffffff;fill-opacity:1;stroke:none"
       id="rect4359-9"
       width="21.6"
       height="84.800003"
       x="566.36536"
       y="-430.64749"
       transform="scale(1,-1)" /><path
       sodipodi:type="arc"
       style="fill:#000000;fill-opacity:1;stroke:none"
       id="path5071-5"
       sodipodi:cx="526"
       sodipodi:cy="130.78494"
       sodipodi:rx="4"
       sodipodi:ry="4"
       d="m 530,130.78494 a 4,4 0 0 1 -4,4 4,4 0 0 1 -4,-4 4,4 0 0 1 4,-4 4,4 0 0 1 4,4 z"
       transform="matrix(0.8,0,0,-0.8,234.21709,440.70466)" /></g></svg>