<?xml version="1.0" encoding="UTF-8" standalone="no"?>
<svg
   xmlns:dc="http://purl.org/dc/elements/1.1/"
   xmlns:cc="http://creativecommons.org/ns#"
   xmlns:rdf="http://www.w3.org/1999/02/22-rdf-syntax-ns#"
   xmlns:svg="http://www.w3.org/2000/svg"
   xmlns="http://www.w3.org/2000/svg"
   xmlns:sodipodi="http://sodipodi.sourceforge.net/DTD/sodipodi-0.dtd"
   xmlns:inkscape="http://www.inkscape.org/namespaces/inkscape"
   version="1.1"
   id="svg3045"
   inkscape:version="0.92.3 (2405546, 2018-03-11)"
   width="796.41443"
   height="122.64783"
   sodipodi:docname="02_fluktuacije04.svg"
   viewBox="0 0 746.63855 114.98234">
  <metadata
     id="metadata3136">
    <rdf:RDF>
      <cc:Work
         rdf:about="">
        <dc:format>image/svg+xml</dc:format>
        <dc:type
           rdf:resource="http://purl.org/dc/dcmitype/StillImage" />
        <dc:title />
      </cc:Work>
    </rdf:RDF>
  </metadata>
  <sodipodi:namedview
     pagecolor="#ffffff"
     bordercolor="#666666"
     borderopacity="1"
     objecttolerance="10"
     gridtolerance="10"
     guidetolerance="10"
     inkscape:pageopacity="0"
     inkscape:pageshadow="2"
     inkscape:window-width="1853"
     inkscape:window-height="713"
     id="namedview3134"
     showgrid="false"
     inkscape:zoom="1.2685914"
     inkscape:cx="281.61716"
     inkscape:cy="31.820291"
     inkscape:window-x="36"
     inkscape:window-y="259"
     inkscape:window-maximized="0"
     inkscape:current-layer="svg3045"
     fit-margin-top="0"
     fit-margin-left="0"
     fit-margin-right="0"
     fit-margin-bottom="0" />
  <defs
     id="defs3132">
    <clipPath
       id="cp11">
      <polygon
         points="14,15 14,-1 -1,-1 -1,15 "
         id="polygon3128" />
    </clipPath>
    <clipPath
       id="cp10">
      <polygon
         points="1074,167 1074,13 74,13 74,167 "
         id="polygon3121" />
    </clipPath>
    <clipPath
       id="cp9">
      <polygon
         points="1074,167 1074,13 74,13 74,167 "
         id="polygon3114" />
    </clipPath>
    <clipPath
       id="cp8">
      <polygon
         points="5,15 5,-1 -1,-1 -1,15 "
         id="polygon3107" />
    </clipPath>
    <clipPath
       id="cp7">
      <polygon
         points="1074,167 1074,13 74,13 74,167 "
         id="polygon3100" />
    </clipPath>
    <clipPath
       id="cp6">
      <polygon
         points="1074,167 1074,13 74,13 74,167 "
         id="polygon3093" />
    </clipPath>
    <clipPath
       id="cp5">
      <polygon
         points="1044,137 1044,42 104,42 104,137 "
         id="polygon3084" />
    </clipPath>
    <clipPath
       id="cp4">
      <polygon
         points="11,15 11,4.12 -1,4.12 -1,15 "
         id="polygon3077" />
    </clipPath>
    <clipPath
       id="cp3">
      <polygon
         points="1044,137 1044,42 104,42 104,137 "
         id="polygon3068" />
    </clipPath>
    <clipPath
       id="cp2">
      <polygon
         points="1044,137 1044,42 104,42 104,137 "
         id="polygon3059" />
    </clipPath>
    <clipPath
       id="cp1">
      <polygon
         points="4.49423e+307,4.49423e+307 4.49423e+307,-4.49423e+307 -4.49423e+307,-4.49423e+307 -4.49423e+307,4.49423e+307 "
         id="polygon3052" />
    </clipPath>
  </defs>
  <flowRoot
     xml:space="preserve"
     id="flowRoot4025"
     style="font-style:normal;font-variant:normal;font-weight:normal;font-stretch:normal;line-height:0.01%;font-family:'Nimbus Sans L';-inkscape-font-specification:Sans;letter-spacing:0px;word-spacing:0px;fill:#000000;fill-opacity:1;stroke:none"
     transform="translate(0,-39.017666)"><flowRegion
       id="flowRegion4027"><rect
         id="rect4029"
         width="0.83609283"
         height="65.493942"
         x="684.20264"
         y="187.28479" /></flowRegion><flowPara
       id="flowPara4031"
       style="font-size:22px;line-height:1.25"> </flowPara></flowRoot>  <rect
     x="0"
     y="-1.3696288e-07"
     width="746.63855"
     height="114.98234"
     id="rect3054"
     style="fill:#ffffff;stroke:none" />
  <polyline
     points="464.887,53.904 537.972,53.904 "
     id="polyline3063"
     style="fill:none;stroke:#000000;stroke-width:2.00900435;stroke-miterlimit:4;stroke-dasharray:none;stroke-opacity:1"
     transform="matrix(0.74663854,0,0,0.74663854,-55.251252,-9.706302)" />
  <polygon
     points="465.754,56.3777 465.754,56.3777 465.617,56.0964 465.315,55.4213 465.155,55.0155 465.016,54.6061 464.92,54.2251 464.887,53.904 464.92,53.6134 465.016,53.2374 465.155,52.8144 465.315,52.3825 465.617,51.6451 465.754,51.3314 456.354,53.904 "
     id="polygon3070"
     style="fill:#000000;fill-rule:evenodd;stroke:none"
     transform="matrix(0.74663854,0,0,0.74663854,-55.251252,-9.706302)" />
  <polygon
     points="537.104,51.4303 537.104,51.4303 537.242,51.7116 537.544,52.3867 537.704,52.7925 537.842,53.2019 537.939,53.5829 537.972,53.904 537.939,54.1946 537.842,54.5706 537.704,54.9936 537.544,55.4255 537.242,56.1629 537.104,56.4766 546.504,53.904 "
     id="polygon3072"
     style="fill:#000000;fill-rule:evenodd;stroke:none"
     transform="matrix(0.74663854,0,0,0.74663854,-55.251252,-9.706302)" />
  <polyline
     points="123.701,122.318 124.603,122.362 125.504,122.344 126.406,122.327 127.307,122.279 128.209,122.347 129.11,122.4 130.012,122.422 130.913,122.396 131.815,122.371 132.716,122.33 133.618,122.311 134.519,122.303 135.421,122.289 136.322,122.299 137.224,122.269 138.125,122.304 139.027,122.331 139.928,122.345 140.83,122.352 141.731,122.369 142.633,122.37 143.534,122.352 144.436,122.334 145.337,122.303 146.239,122.272 147.14,122.254 148.042,122.253 148.943,122.171 149.845,122.089 150.746,122.007 151.648,121.918 152.549,121.82 153.451,121.664 154.352,121.556 155.254,121.382 156.155,121.293 157.057,121.244 157.958,121.156 158.86,121.068 159.761,120.952 160.663,120.787 161.564,120.623 162.466,120.485 163.367,120.392 164.269,120.332 165.17,120.339 166.072,120.33 166.973,120.326 167.875,120.321 168.776,120.296 169.678,120.235 170.579,120.218 171.481,120.284 172.382,120.352 173.284,120.43 174.185,120.438 175.087,120.404 175.988,120.438 176.89,120.49 177.791,120.533 178.693,120.631 179.594,120.729 180.496,120.847 181.397,120.938 182.299,120.873 183.2,120.775 184.102,120.745 185.003,120.704 185.905,120.687 186.806,120.677 187.708,120.671 188.609,120.591 189.511,120.512 190.412,120.359 191.314,120.209 192.215,120.129 193.117,120.044 194.018,119.917 194.92,119.781 195.821,119.707 196.723,119.607 197.624,119.479 198.526,119.362 199.427,119.266 200.329,119.12 201.23,118.979 202.132,118.838 203.033,118.697 203.935,118.61 204.836,118.506 205.738,118.401 206.639,118.319 207.541,118.246 208.442,118.169 209.344,118.114 210.245,118.064 211.147,118.015 212.048,117.998 212.95,117.982 213.851,117.965 214.753,118.006 215.654,118.047 216.556,118.074 217.457,118.127 218.359,118.143 219.26,118.064 220.162,117.942 221.063,117.829 221.965,117.671 222.866,117.579 223.768,117.465 224.669,117.388 225.571,117.312 226.472,117.163 227.374,117.046 228.275,116.839 229.177,116.641 230.078,116.475 230.98,116.357 231.881,116.241 232.783,116.182 233.684,116.108 234.586,116.097 235.487,116.108 236.389,116.077 237.29,116.067 238.192,116.069 239.093,116.164 239.995,116.259 240.896,116.354 241.798,116.476 242.699,116.598 243.601,116.779 244.502,116.958 245.404,117.204 246.305,117.408 247.207,117.61 248.108,117.847 249.01,118.061 249.911,118.303 250.813,118.516 251.714,118.728 252.616,118.933 253.517,119.124 254.419,119.305 255.32,119.481 256.222,119.604 257.123,119.729 258.025,119.854 258.926,119.984 259.828,120.114 260.729,120.305 261.631,120.424 262.532,120.515 263.434,120.673 264.335,120.9 265.237,121.128 266.138,121.352 267.04,121.555 267.941,121.789 268.843,121.919 269.744,122.062 270.646,122.204 271.547,122.344 272.449,122.56 273.35,122.757 274.252,122.968 275.153,123.179 276.055,123.411 276.956,123.634 277.858,123.862 278.759,124.136 279.661,124.331 280.562,124.515 281.464,124.7 282.365,124.863 283.267,124.991 284.168,125.109 285.07,125.236 285.971,125.346 286.873,125.455 287.774,125.565 288.676,125.674 289.577,125.825 290.479,126.022 291.38,126.224 292.282,126.427 293.183,126.619 294.085,126.764 294.986,126.911 295.888,127.05 296.789,127.142 297.691,127.175 298.592,127.166 299.494,127.188 300.395,127.184 301.297,127.177 302.198,127.17 303.1,127.162 304.001,127.206 304.903,127.199 305.804,127.155 306.706,127.073 307.607,126.965 308.509,126.858 309.41,126.859 310.312,126.89 311.213,126.908 312.115,126.972 313.016,127.001 313.918,127.03 314.819,127.022 315.721,127.019 316.622,127.083 317.524,127.109 318.425,127.161 319.327,127.212 320.228,127.293 321.13,127.304 322.031,127.352 322.933,127.364 323.834,127.39 324.736,127.369 325.637,127.35 326.539,127.371 327.44,127.38 328.342,127.376 329.243,127.372 330.145,127.368 331.046,127.365 331.948,127.345 332.849,127.365 333.751,127.355 334.652,127.348 335.554,127.333 336.455,127.304 337.357,127.275 338.258,127.252 339.16,127.25 340.061,127.224 340.963,127.263 341.864,127.314 342.766,127.374 343.667,127.389 344.569,127.384 345.47,127.328 346.372,127.286 347.273,127.243 348.175,127.245 349.076,127.218 349.978,127.191 350.879,127.175 351.781,127.171 352.682,127.164 353.584,127.144 354.485,127.105 355.387,127.089 356.288,127.074 357.19,127.061 358.091,127.026 358.993,126.991 359.894,126.944 360.796,126.841 361.697,126.733 362.599,126.625 363.5,126.534 364.402,126.416 365.303,126.298 366.205,126.224 367.106,126.158 368.008,126.116 368.909,126.076 369.811,126.108 370.712,126.152 371.614,126.158 372.515,126.103 373.417,126.037 374.318,125.98 375.22,125.933 376.121,125.837 377.023,125.741 377.924,125.69 378.826,125.638 379.727,125.546 380.629,125.457 381.53,125.351 382.432,125.232 383.333,125.123 384.235,125.005 385.136,124.924 386.038,124.861 386.939,124.82 387.841,124.803 388.742,124.828 389.644,124.853 390.545,124.872 391.447,124.917 392.348,124.945 393.25,125.034 394.151,125.035 395.053,125.083 395.954,125.166 396.856,125.3 397.757,125.435 398.659,125.564 399.56,125.667 400.462,125.767 401.363,125.821 402.265,125.876 403.166,125.93 404.068,125.996 404.969,125.992 405.871,125.988 406.772,125.993 407.674,125.93 408.575,125.868 409.477,125.806 410.378,125.674 411.28,125.492 412.181,125.266 413.083,125.021 413.984,124.771 414.886,124.478 415.787,124.179 416.689,123.886 417.59,123.516 418.492,123.144 419.393,122.829 420.295,122.574 421.196,122.318 422.098,122.148 422.999,121.939 423.9,121.735 424.802,121.512 425.703,121.309 426.605,121.031 427.506,120.686 428.408,120.31 429.309,119.968 430.211,119.63 431.112,119.271 432.014,118.906 432.915,118.507 433.817,118.106 434.718,117.703 435.62,117.312 436.521,116.986 437.423,116.733 438.324,116.435 439.226,116.095 440.127,115.755 441.029,115.358 441.93,114.889 442.832,114.423 443.733,113.97 444.635,113.614 445.536,113.134 446.438,112.67 447.339,112.207 448.241,111.833 449.142,111.529 450.044,111.225 450.945,110.978 451.847,110.686 452.748,110.395 453.65,110.104 454.551,109.903 455.453,109.633 456.354,109.327 457.256,108.985 458.157,108.601 459.059,108.318 459.96,107.984 460.862,107.619 461.763,107.285 462.665,106.94 463.566,106.607 464.468,106.274 465.369,105.926 466.271,105.658 467.172,105.362 468.074,105.022 468.975,104.681 469.877,104.274 470.778,103.883 471.68,103.503 472.581,103.135 473.483,102.615 474.384,102.099 475.286,101.643 476.187,101.177 477.089,100.541 477.99,100.06 478.892,99.5668 479.793,99.023 480.695,98.5055 481.596,97.9658 482.498,97.442 483.399,96.8894 484.301,96.3932 485.202,95.8506 486.104,95.3168 487.005,94.7829 487.907,94.2759 488.808,93.8001 489.71,93.3024 490.611,92.9344 491.513,92.6001 492.414,92.372 493.316,92.1882 494.217,91.9976 495.119,91.9118 496.02,91.7861 496.922,91.6604 497.823,91.6035 498.725,91.5353 499.626,91.5355 500.528,91.576 501.429,91.6856 502.331,91.7361 503.232,91.8421 504.134,91.9527 505.035,92.1028 505.937,92.2477 506.838,92.4038 507.74,92.6688 508.641,92.9759 509.543,93.2266 510.444,93.4178 511.346,93.6295 512.247,93.7714 513.149,93.9133 514.05,94.0795 514.952,94.2638 515.853,94.4618 516.755,94.7334 517.656,95.1093 518.558,95.5169 519.459,95.8609 520.361,96.2256 521.262,96.5434 522.164,96.8125 523.065,97.0867 523.967,97.3695 524.868,97.6426 525.77,97.915 526.671,98.1431 527.573,98.2977 528.474,98.4523 529.376,98.659 530.277,98.8416 531.179,99.0488 532.08,99.3324 532.982,99.6159 533.883,99.9427 534.785,100.191 535.686,100.574 536.588,100.949 537.489,101.325 538.391,101.613 539.292,101.796 540.194,101.98 541.095,102.163 541.997,102.353 542.898,102.555 543.8,102.759 544.701,102.892 545.603,103.003 546.504,103.114 547.406,103.263 548.307,103.426 549.209,103.513 550.11,103.658 551.012,103.904 551.913,104.054 552.815,104.13 553.716,104.331 554.618,104.531 555.519,104.731 556.421,104.914 557.322,105.114 558.224,105.271 559.125,105.39 560.027,105.576 560.928,105.747 561.83,105.918 562.731,106.09 563.633,106.466 564.534,106.866 565.436,107.166 566.337,107.467 567.239,107.97 568.14,108.318 569.042,108.68 569.943,109.162 570.845,109.649 571.746,110.175 572.648,110.701 573.549,111.23 574.451,111.741 575.352,112.22 576.254,112.726 577.155,113.23 578.057,113.708 578.958,114.159 579.86,114.624 580.761,114.962 581.663,115.325 582.564,115.55 583.466,115.714 584.367,115.904 585.269,116.054 586.17,116.245 587.072,116.435 587.973,116.668 588.875,116.938 589.776,117.1 590.678,117.183 591.579,117.268 592.481,117.28 593.382,117.188 594.284,117.096 595.185,116.992 596.087,116.888 596.988,116.803 597.89,116.716 598.791,116.549 599.693,116.382 600.594,116.215 601.496,116.031 602.397,115.848 603.299,115.822 604.2,115.796 605.102,115.704 606.003,115.572 606.905,115.516 607.806,115.424 608.708,115.332 609.609,115.251 610.511,115.168 611.412,115.13 612.314,115.137 613.215,115.227 614.117,115.316 615.018,115.388 615.92,115.433 616.821,115.47 617.723,115.557 618.624,115.643 619.526,115.749 620.427,115.847 621.329,115.873 622.23,115.899 623.132,115.925 624.033,115.977 624.935,116.081 625.836,116.152 626.738,116.214 627.639,116.221 628.541,116.185 629.442,116.184 630.344,116.184 631.245,116.168 632.147,116.252 633.048,116.403 633.95,116.566 634.851,116.713 635.753,116.948 636.654,117.183 637.556,117.369 638.457,117.565 639.359,117.732 640.26,117.901 641.162,117.999 642.063,118.164 642.965,118.465 643.866,118.641 644.768,118.843 645.669,119.066 646.571,119.241 647.472,119.427 648.374,119.659 649.275,119.928 650.177,120.183 651.078,120.437 651.98,120.643 652.881,120.85 653.783,121.005 654.684,121.177 655.586,121.349 656.487,121.496 657.389,121.613 658.29,121.727 659.192,121.833 660.093,121.868 660.995,121.825 661.896,121.753 662.798,121.679 663.699,121.571 664.601,121.463 665.502,121.388 666.404,121.299 667.305,121.179 668.207,121.08 669.108,120.976 670.01,120.798 670.911,120.585 671.813,120.338 672.714,120.122 673.616,119.923 674.517,119.647 675.419,119.375 676.32,119.118 677.222,118.957 678.123,118.754 679.025,118.527 679.926,118.357 680.828,118.207 681.729,118.111 682.631,118.124 683.532,118.218 684.434,118.283 685.335,118.377 686.237,118.537 687.138,118.664 688.04,118.747 688.941,118.886 689.843,119.026 690.744,119.165 691.646,119.301 692.547,119.478 693.449,119.496 694.35,119.515 695.252,119.6 696.153,119.711 697.055,119.745 697.956,119.812 698.858,119.848 699.759,119.903 700.661,119.969 701.562,120.034 702.464,120.097 703.365,120.078 704.267,120.059 705.168,120.066 706.07,120.13 706.971,120.164 707.873,120.128 708.774,120.021 709.676,119.882 710.577,119.773 711.479,119.665 712.38,119.552 713.282,119.33 714.183,119.094 715.085,118.711 715.986,118.435 716.888,118.141 717.789,117.902 718.691,117.609 719.592,117.316 720.494,117.083 721.395,116.818 722.297,116.598 723.198,116.397 724.1,116.182 725.001,115.967 725.902,115.65 726.804,115.34 727.705,115.02 728.607,114.577 729.508,114.085 730.41,113.59 731.311,113.053 732.213,112.517 733.114,111.87 734.016,111.223 734.917,110.637 735.819,110.104 736.72,109.505 737.622,108.907 738.523,108.306 739.425,107.536 740.326,106.684 741.228,105.791 742.129,104.947 743.031,104.102 743.932,103.368 744.834,102.594 745.735,101.82 746.637,101.249 747.538,100.613 748.44,100.112 749.341,99.5627 750.243,99.0629 751.144,98.6346 752.046,98.1963 752.947,97.7679 753.849,97.3441 754.75,96.9945 755.652,96.6443 756.553,96.2522 757.455,95.9028 758.356,95.5326 759.258,95.1265 760.159,94.9312 761.061,94.7713 761.962,94.6449 762.864,94.5191 763.765,94.3115 764.667,94.0396 765.568,93.783 766.47,93.5675 767.371,93.2373 768.273,92.9072 769.174,92.577 770.076,92.2529 770.977,92.0199 771.879,91.8939 772.78,91.7929 773.682,91.7002 774.583,91.6358 775.485,91.57 776.386,91.4931 777.288,91.4221 778.189,91.3932 779.091,91.4039 779.992,91.3927 780.894,91.3102 781.795,91.2949 782.697,91.2342 783.598,91.1735 784.5,91.1128 785.401,91.0391 786.303,90.9654 787.204,90.8918 788.106,90.7798 789.007,90.7156 789.909,90.6514 790.81,90.5856 791.712,90.5679 792.613,90.5531 793.515,90.5349 794.416,90.4974 795.318,90.4599 796.219,90.393 797.121,90.3278 798.022,90.2837 798.924,90.3102 799.825,90.3726 800.727,90.4148 801.628,90.5519 802.53,90.6866 803.431,90.8254 804.333,90.9096 805.234,91.0888 806.136,91.1554 807.037,91.3172 807.939,91.3799 808.84,91.5582 809.742,91.7366 810.643,91.7668 811.545,91.9677 812.446,92.0668 813.348,92.0658 814.249,92.0648 815.151,92.0829 816.052,92.224 816.954,92.3585 817.855,92.5649 818.757,92.8864 819.658,93.2828 820.56,93.5453 821.461,93.9128 822.363,94.2952 823.264,94.7598 824.166,95.2075 825.067,95.6372 825.969,96.0211 826.87,96.3768 827.772,96.7325 828.673,97.0881 829.575,97.6138 830.476,98.1935 831.378,98.8151 832.279,99.3952 833.181,100.006 834.082,100.503 834.984,101.12 835.885,101.738 836.787,102.171 837.688,102.7 838.59,103.123 839.491,103.6 840.393,103.919 841.294,104.244 842.196,104.569 843.097,104.887 843.999,105.204 844.9,105.446 845.802,105.738 846.703,106.121 847.605,106.493 848.506,106.866 849.408,107.279 850.309,107.615 851.211,107.902 852.112,108.096 853.014,108.268 853.915,108.604 854.817,109.16 855.718,109.717 856.62,110.155 857.521,110.613 858.423,111.07 859.324,111.516 860.226,111.941 861.127,112.225 862.029,112.334 862.93,112.412 863.832,112.429 864.733,112.447 865.635,112.423 866.536,112.345 867.438,112.31 868.339,112.243 869.241,112.117 870.142,112.013 871.044,111.98 871.945,111.883 872.847,111.884 873.748,111.884 874.65,111.884 875.551,111.922 876.453,111.985 877.354,112.083 878.256,112.172 879.157,112.205 880.059,112.213 880.96,112.214 881.862,112.166 882.763,112.119 883.665,112.1 884.566,112.1 885.468,112.151 886.369,112.255 887.271,112.375 888.172,112.483 889.074,112.591 889.975,112.697 890.877,112.795 891.778,112.91 892.68,113.024 893.581,113.228 894.483,113.431 895.384,113.637 896.286,113.847 897.187,113.934 898.089,114.056 898.99,114.177 899.892,114.33 900.793,114.561 901.695,114.668 902.596,114.63 903.498,114.593 904.399,114.487 905.301,114.325 906.202,114.14 907.104,113.926 908.005,113.646 908.907,113.292 909.808,112.964 910.71,112.833 911.611,112.677 912.513,112.318 913.414,111.954 914.316,111.607 915.217,111.191 916.119,110.878 917.02,110.697 917.922,110.461 918.823,110.22 919.725,109.979 920.626,109.778 921.528,109.58 922.429,109.437 923.331,109.244 924.232,109.099 925.134,108.803 926.035,108.508 926.937,108.218 927.838,107.938 928.74,107.622 929.641,107.309 930.543,107.104 931.444,106.954 932.346,106.907 933.247,106.735 934.149,106.514 935.05,106.223 935.952,105.964 936.853,105.681 937.755,105.399 938.656,105.117 939.558,104.835 940.459,104.504 941.361,104.221 942.262,104.063 943.164,104 944.065,103.87 944.967,103.564 945.868,103.24 946.77,103.049 947.671,102.857 948.573,102.665 949.474,102.484 950.376,102.294 951.277,102.175 952.179,102.04 953.08,101.913 953.982,101.802 954.883,101.691 955.785,101.569 956.686,101.387 957.588,101.151 958.489,100.948 959.391,100.746 960.292,100.644 961.194,100.541 962.095,100.436 962.997,100.238 963.898,100.1 964.8,99.9616 965.701,99.798 966.603,99.6103 967.504,99.3074 968.406,99.0196 969.307,98.7697 970.209,98.5446 971.11,98.3212 972.012,98.1323 972.913,98.0197 973.815,97.9071 974.716,97.7832 975.618,97.6081 976.519,97.4096 977.421,97.2111 978.322,97.0237 979.224,96.8674 980.125,96.7125 981.027,96.6481 981.928,96.4867 982.83,96.3253 983.731,96.1136 984.633,95.982 985.534,95.8352 986.436,95.6884 987.337,95.5749 988.239,95.4634 989.14,95.4247 990.042,95.354 990.943,95.2954 991.845,95.2368 992.746,95.3418 993.648,95.4032 994.549,95.5323 995.451,95.6547 996.352,95.7828 997.254,96.0211 998.155,96.2844 999.057,96.6179 999.958,96.8365 1000.86,96.9917 1001.76,97.1197 1002.66,97.5112 1003.56,97.8814 1004.47,98.2017 1005.37,98.522 1006.27,98.7035 1007.17,98.8481 1008.07,99.1377 1008.97,99.3126 1009.87,99.5541 1010.78,99.7873 1011.68,100.008 1012.58,100.214 1013.48,100.44 1014.38,100.59 1015.28,100.817 1016.19,101.044 1017.09,101.223 1017.99,101.36 1018.89,101.508 1019.79,101.619 1020.69,101.707 1021.59,101.733 1022.5,101.656 1023.4,101.8 1024.3,101.991 1025.2,102.252 "
     id="polyline3086"
     style="fill:none;stroke:#0000d4;stroke-width:1.47326982;stroke-linecap:butt;stroke-miterlimit:4;stroke-dasharray:5.89307913, 1.47326978;stroke-dashoffset:0;stroke-opacity:1"
     transform="matrix(0.74646542,0,0,0.91739633,-55.151807,-30.877474)" />
  <polyline
     points="123.701,113.492 124.603,114.359 125.504,113.695 126.406,113.005 127.307,111.813 128.209,109.208 129.11,107.883 130.012,106.542 130.913,105.529 131.815,105.603 132.716,105.402 133.618,104.999 134.519,106.68 135.421,108.828 136.322,110.508 137.224,111.666 138.125,112.079 139.027,112.773 139.928,113.03 140.83,112.112 141.731,110.728 142.633,111.137 143.534,111.887 144.436,113.383 145.337,115.43 146.239,118.128 147.14,120.832 148.042,123.366 148.943,125.222 149.845,126.987 150.746,128.595 151.648,129.351 152.549,129.491 153.451,129.56 154.352,129.799 155.254,129.683 156.155,129.157 157.057,129.029 157.958,129.195 158.86,129.365 159.761,129.999 160.663,130.66 161.564,130.551 162.466,130.443 163.367,130.094 164.269,129.274 165.17,128.453 166.072,127.199 166.973,125.813 167.875,125.197 168.776,124.598 169.678,124 170.579,124.395 171.481,124.88 172.382,125.607 173.284,126.312 174.185,127.016 175.087,127.25 175.988,127.795 176.89,127.818 177.791,127.655 178.693,127.289 179.594,127.051 180.496,127.751 181.397,128.778 182.299,129.531 183.2,130.187 184.102,130.94 185.003,131.693 185.905,132.448 186.806,132.266 187.708,132.022 188.609,131.74 189.511,131.555 190.412,131.37 191.314,129.871 192.215,128.368 193.117,126.853 194.018,125.152 194.92,123.436 195.821,120.889 196.723,118.342 197.624,115.97 198.526,114.434 199.427,112.91 200.329,111.204 201.23,109.512 202.132,108.244 203.033,106.765 203.935,106.424 204.836,105.248 205.738,104.834 206.639,105.45 207.541,106.272 208.442,108.051 209.344,110.041 210.245,112.032 211.147,113.956 212.048,115.119 212.95,115.148 213.851,115.869 214.753,116.444 215.654,116.059 216.556,114.68 217.457,113.367 218.359,112.105 219.26,111.768 220.162,110.099 221.063,109.506 221.965,109.873 222.866,111.234 223.768,112.627 224.669,112.891 225.571,112.89 226.472,113.542 227.374,112.714 228.275,111.473 229.177,110.355 230.078,109.206 230.98,108.088 231.881,106.97 232.783,105.625 233.684,104.815 234.586,105.413 235.487,106.39 236.389,107.367 237.29,109.263 238.192,111.868 239.093,114.481 239.995,116.559 240.896,117.643 241.798,118.224 242.699,118.098 243.601,118.1 244.502,117.393 245.404,116.686 246.305,116.74 247.207,116.795 248.108,116.849 249.01,117.918 249.911,119.532 250.813,121.093 251.714,122.218 252.616,122.65 253.517,123.082 254.419,123.514 255.32,123.639 256.222,123.175 257.123,123.492 258.025,124.246 258.926,124.738 259.828,125.599 260.729,126.459 261.631,126.052 262.532,125.279 263.434,123.777 264.335,121.633 265.237,120.17 266.138,118.34 267.04,117.031 267.941,116.921 268.843,116.166 269.744,115.872 270.646,115.87 271.547,115.378 272.449,115.387 273.35,115.46 274.252,115.636 275.153,117.681 276.055,119.047 276.956,121.662 277.858,124.406 278.759,126.064 279.661,127.414 280.562,128.92 281.464,129.612 282.365,130.52 283.267,130.529 284.168,130.409 285.07,130.874 285.971,131.06 286.873,131.03 287.774,130.829 288.676,130.852 289.577,130.856 290.479,130.793 291.38,130.406 292.282,130.015 293.183,129.021 294.085,128.198 294.986,127.031 295.888,126.459 296.789,126.281 297.691,126.563 298.592,126.644 299.494,127.382 300.395,128.119 301.297,128.978 302.198,129.263 303.1,129.438 304.001,129.342 304.903,129.452 305.804,129.536 306.706,129.621 307.607,129.705 308.509,129.789 309.41,129.627 310.312,129.598 311.213,129.57 312.115,129.714 313.016,129.857 313.918,130 314.819,130.144 315.721,130.061 316.622,130.382 317.524,130.703 318.425,130.748 319.327,130.791 320.228,130.894 321.13,130.611 322.031,129.454 322.933,127.725 323.834,126.547 324.736,126.155 325.637,125.763 326.539,125.176 327.44,124.974 328.342,126.359 329.243,127.913 330.145,128.915 331.046,129.237 331.948,130.139 332.849,131.138 333.751,132.219 334.652,132.841 335.554,133.314 336.455,133.874 337.357,134.463 338.258,134.355 339.16,133.93 340.061,133.118 340.963,131.657 341.864,130.343 342.766,128.645 343.667,126.878 344.569,125.228 345.47,123.924 346.372,123.62 347.273,123.964 348.175,123.78 349.076,123.159 349.978,122.578 350.879,121.997 351.781,121.724 352.682,120.756 353.584,119.618 354.485,119.007 355.387,119.132 356.288,119.256 357.19,119.381 358.091,119.208 358.993,118.92 359.894,118.745 360.796,118.571 361.697,118.397 362.599,119.156 363.5,119.481 364.402,120.393 365.303,121.697 366.205,123.062 367.106,124.643 368.008,126.377 368.909,127.178 369.811,128.506 370.712,129.258 371.614,129.732 372.515,130.206 373.417,130.463 374.318,130.342 375.22,130.776 376.121,130.705 377.023,130.624 377.924,130.277 378.826,129.93 379.727,129.583 380.629,129.457 381.53,128.777 382.432,128.137 383.333,127.81 384.235,127.922 385.136,128.035 386.038,128.078 386.939,128.167 387.841,127.668 388.742,127.541 389.644,127.101 390.545,127.125 391.447,126.744 392.348,126.432 393.25,126.45 394.151,127.096 395.053,127.698 395.954,128.12 396.856,127.621 397.757,127.872 398.659,128.123 399.56,128.002 400.462,127.532 401.363,127.105 402.265,126.858 403.166,126.086 404.068,124.904 404.969,123.723 405.871,122.541 406.772,121.669 407.674,120.796 408.575,120.458 409.477,121.04 410.378,122.078 411.28,122.769 412.181,123.363 413.083,123.957 413.984,124.55 414.886,124.426 415.787,124.033 416.689,123.234 417.59,122.933 418.492,122.486 419.393,122.039 420.295,122.227 421.196,122.599 422.098,123.129 422.999,123.673 423.9,123.909 424.802,124.199 425.703,124.49 426.605,124.095 427.506,124.262 428.408,124.571 429.309,124.837 430.211,125.29 431.112,125.884 432.014,126.478 432.915,126.746 433.817,126.771 434.718,126.425 435.62,126.969 436.521,126.932 437.423,127.609 438.324,128.256 439.226,129.277 440.127,129.982 441.029,130.844 441.93,130.771 442.832,131.212 443.733,130.162 444.635,129.143 445.536,128.124 446.438,127.272 447.339,125.492 448.241,123.8 449.142,122.143 450.044,120.304 450.945,118.465 451.847,116.626 452.748,114.561 453.65,112.337 454.551,110.076 455.453,107.815 456.354,106.495 457.256,104.776 458.157,103.134 459.059,101.632 459.96,100.27 460.862,98.945 461.763,98.4247 462.665,98.8216 463.566,99.6164 464.468,101.332 465.369,102.965 466.271,105.268 467.172,107.313 468.074,108.554 468.975,107.892 469.877,106.269 470.778,103.196 471.68,100.608 472.581,98.0723 473.483,95.7942 474.384,93.5924 475.286,91.9777 476.187,91.2214 477.089,90.9189 477.99,89.7365 478.892,89.7611 479.793,90.8367 480.695,91.836 481.596,92.2866 482.498,92.8406 483.399,92.9594 484.301,92.4805 485.202,91.0897 486.104,88.6479 487.005,87.323 487.907,85.5692 488.808,84.0566 489.71,82.9792 490.611,83.8747 491.513,85.7613 492.414,87.648 493.316,88.4178 494.217,89.9297 495.119,91.2166 496.02,92.5036 496.922,94.0871 497.823,93.7117 498.725,93.3362 499.626,92.5702 500.528,92.2988 501.429,93.1063 502.331,93.0784 503.232,91.3403 504.134,90.999 505.035,90.3347 505.937,90.0609 506.838,89.9929 507.74,88.7518 508.641,89.2587 509.543,89.7938 510.444,89.8996 511.346,90.3286 512.247,89.8099 513.149,89.5079 514.05,89.2946 514.952,88.1501 515.853,85.2437 516.755,82.3373 517.656,80.8536 518.558,80.3176 519.459,77.1032 520.361,76.1003 521.262,74.913 522.164,75.1638 523.065,75.4146 523.967,74.2427 524.868,73.0707 525.77,74.796 526.671,74.5571 527.573,74.521 528.474,75.3096 529.376,76.0983 530.277,77.2697 531.179,78.8174 532.08,79.5289 532.982,81.8001 533.883,83.7262 534.785,87.0746 535.686,91.0565 536.588,94.724 537.489,98.5156 538.391,102.138 539.292,103.942 540.194,106.066 541.095,106.512 541.997,107.301 542.898,108.539 543.8,109.106 544.701,109.362 545.603,110.41 546.504,111.484 547.406,112.884 548.307,113.308 549.209,113.458 550.11,114.316 551.012,116.656 551.913,118.204 552.815,119.752 553.716,121.425 554.618,123.099 555.519,124.528 556.421,125.42 557.322,125.711 558.224,126.199 559.125,126.687 560.027,127.409 560.928,128.132 561.83,128.431 562.731,128.73 563.633,128.361 564.534,127.174 565.436,125.595 566.337,123.51 567.239,121.286 568.14,119.08 569.042,117.155 569.943,115.898 570.845,115.262 571.746,114.749 572.648,113.871 573.549,113.048 574.451,112.729 575.352,112.13 576.254,112.147 577.155,112.164 578.057,112.929 578.958,114.169 579.86,115.491 580.761,116.45 581.663,116.907 582.564,116.747 583.466,116.588 584.367,115.34 585.269,114.16 586.17,113.001 587.072,112.359 587.973,110.948 588.875,109.538 589.776,108.279 590.678,107.63 591.579,106.783 592.481,105.914 593.382,105.806 594.284,106.011 595.185,104.859 596.087,105.32 596.988,105.781 597.89,106.155 598.791,107.202 599.693,107.075 600.594,107.287 601.496,108.317 602.397,107.598 603.299,106.88 604.2,106.248 605.102,104.944 606.003,104.56 606.905,105.124 607.806,106.226 608.708,107.33 609.609,108.858 610.511,110.386 611.412,111.914 612.314,113.675 613.215,115.18 614.117,117.236 615.018,119.275 615.92,121.371 616.821,123.467 617.723,125.094 618.624,126.22 619.526,127.252 620.427,127.734 621.329,128.215 622.23,128.014 623.132,127.814 624.033,128.082 624.935,127.428 625.836,126.536 626.738,126.099 627.639,125.592 628.541,125.285 629.442,124.979 630.344,125.264 631.245,126.33 632.147,127.104 633.048,126.817 633.95,126.449 634.851,124.158 635.753,121.169 636.654,117.59 637.556,113.662 638.457,110.284 639.359,108.023 640.26,106.429 641.162,106.21 642.063,106.689 642.965,107.167 643.866,107.7 644.768,108.234 645.669,110.507 646.571,112.266 647.472,113.631 648.374,114.623 649.275,116.709 650.177,118.74 651.078,120.771 651.98,120.288 652.881,119.76 653.783,120.174 654.684,120.962 655.586,121.465 656.487,121.967 657.389,122.087 658.29,121.677 659.192,121.482 660.093,121.989 660.995,122.496 661.896,122.195 662.798,121.452 663.699,119.968 664.601,119.38 665.502,118.623 666.404,118.149 667.305,118.421 668.207,118.693 669.108,119.406 670.01,120.461 670.911,120.538 671.813,120.614 672.714,119.704 673.616,117.83 674.517,116.765 675.419,116.864 676.32,117.936 677.222,119.895 678.123,121.855 679.025,123.815 679.926,125.428 680.828,126.39 681.729,125.764 682.631,124.982 683.532,124.185 684.434,123.388 685.335,123.163 686.237,123.501 687.138,124.036 688.04,125.216 688.941,126.343 689.843,127.47 690.744,128.634 691.646,129.227 692.547,129.619 693.449,129.658 694.35,128.782 695.252,127.928 696.153,127.112 697.055,126.821 697.956,126.529 698.858,126.092 699.759,125.654 700.661,125.866 701.562,125.958 702.464,125.992 703.365,124.427 704.267,123.003 705.168,121.884 706.07,120.765 706.971,119.688 707.873,118.739 708.774,118.104 709.676,118.034 710.577,118.121 711.479,118.182 712.38,116.984 713.282,115.28 714.183,113.089 715.085,110.605 715.986,108.593 716.888,105.617 717.789,102.709 718.691,101.273 719.592,101.714 720.494,102.633 721.395,103.552 722.297,104.727 723.198,106.249 724.1,108.393 725.001,109.966 725.902,110.617 726.804,110.863 727.705,111.516 728.607,112.851 729.508,114.561 730.41,115.517 731.311,117.098 732.213,118.231 733.114,119.769 734.016,120.9 734.917,121.676 735.819,122.395 736.72,123.244 737.622,123.827 738.523,124.409 739.425,124.991 740.326,126.03 741.228,126.062 742.129,126.095 743.031,126.234 743.932,126.374 744.834,126.47 745.735,126.212 746.637,125.497 747.538,125.207 748.44,124.916 749.341,124.273 750.243,123.331 751.144,121.421 752.046,119.396 752.947,117.372 753.849,114.233 754.75,111.126 755.652,106.712 756.553,103.378 757.455,99.6977 758.356,98.0292 759.258,96.0951 760.159,95.2758 761.061,92.7841 761.962,91.8452 762.864,90.9704 763.765,90.7876 764.667,90.5161 765.568,91.9408 766.47,93.3656 767.371,96.4301 768.273,98.0495 769.174,98.9199 770.076,99.7481 770.977,97.523 771.879,92.7356 772.78,87.9482 773.682,82.5642 774.583,78.6252 775.485,73.5847 776.386,69.2516 777.288,67.7519 778.189,68.3466 779.091,67.9965 779.992,68.243 780.894,68.4895 781.795,67.3128 782.697,64.7895 783.598,60.4325 784.5,55.1126 785.401,50.7375 786.303,47.9752 787.204,45.2129 788.106,44.88 789.007,48.4466 789.909,51.6754 790.81,56.7989 791.712,61.1094 792.613,64.4962 793.515,67.8647 794.416,71.2333 795.318,72.1495 796.219,74.0678 797.121,75.1514 798.022,77.048 798.924,77.9503 799.825,79.0094 800.727,80.0685 801.628,80.4473 802.53,82.5138 803.431,83.5201 804.333,84.5265 805.234,85.8464 806.136,85.8587 807.037,84.289 807.939,83.515 808.84,81.7919 809.742,79.8001 810.643,77.8082 811.545,75.8081 812.446,75.3191 813.348,77.3955 814.249,81.4071 815.151,84.6151 816.052,88.6575 816.954,92.7 817.855,97.1304 818.757,101.996 819.658,106.02 820.56,108.365 821.461,111.541 822.363,113.839 823.264,115.118 824.166,116.97 825.067,117.977 825.969,118.844 826.87,119.238 827.772,118.615 828.673,118.305 829.575,119.014 830.476,118.672 831.378,118.654 832.279,118.637 833.181,118.703 834.082,119.642 834.984,120.58 835.885,121.113 836.787,121.462 837.688,121.554 838.59,121.224 839.491,120.59 840.393,119.271 841.294,117.951 842.196,117.078 843.097,116.192 843.999,115.546 844.9,115.321 845.802,113.82 846.703,112.32 847.605,110.819 848.506,109.213 849.408,108.985 850.309,107.104 851.211,105.235 852.112,104.861 853.014,103.216 853.915,103.344 854.817,103.536 855.718,102.636 856.62,103.15 857.521,103.926 858.423,105.013 859.324,107.373 860.226,108.279 861.127,109.232 862.029,110.121 862.93,109.099 863.832,108.705 864.733,108.214 865.635,107.89 866.536,107.004 867.438,107.048 868.339,107.465 869.241,108.446 870.142,108.524 871.044,108.388 871.945,108.085 872.847,107.446 873.748,105.831 874.65,103.314 875.551,102.577 876.453,101.835 877.354,102.816 878.256,103.797 879.157,105.266 880.059,107.181 880.96,110.053 881.862,112.455 882.763,113.304 883.665,112.491 884.566,111.678 885.468,110.954 886.369,109.826 887.271,108.334 888.172,107.599 889.074,109.4 889.975,111.139 890.877,112.879 891.778,114.618 892.68,116.964 893.581,118.61 894.483,118.214 895.384,116.53 896.286,116.01 897.187,117.056 898.089,118.342 898.99,118.083 899.892,118.524 900.793,120.287 901.695,122.202 902.596,122.987 903.498,121.187 904.399,118.797 905.301,116.855 906.202,114.611 907.104,112.367 908.005,110.087 908.907,107.776 909.808,107.242 910.71,107.058 911.611,107.322 912.513,107.887 913.414,108.453 914.316,109.259 915.217,111.383 916.119,112.747 917.02,114.112 917.922,115.839 918.823,117.909 919.725,120.484 920.626,122.795 921.528,123.247 922.429,123.345 923.331,123.417 924.232,123.127 925.134,122.494 926.035,121.356 926.937,120.435 927.838,120.786 928.74,121.824 929.641,122.888 930.543,123.794 931.444,124.7 932.346,125.613 933.247,126.124 934.149,126.384 935.05,126.309 935.952,126.003 936.853,125.856 937.755,125.752 938.656,125.641 939.558,125.247 940.459,123.474 941.361,121.701 942.262,120.616 943.164,119.367 944.065,118.075 944.967,114.721 945.868,112.05 946.77,109.314 947.671,106.034 948.573,102.297 949.474,98.3035 950.376,93.6824 951.277,90.1201 952.179,86.8561 953.08,85.4649 953.982,85.1744 954.883,82.186 955.785,79.715 956.686,77.8716 957.588,77.0323 958.489,77.6718 959.391,77.9324 960.292,76.8574 961.194,78.4087 962.095,79.863 962.997,81.3173 963.898,82.8053 964.8,82.7218 965.701,81.8215 966.603,82.3815 967.504,82.581 968.406,82.7805 969.307,82.9799 970.209,83.7352 971.11,84.1276 972.012,84.8097 972.913,84.8097 973.815,86.073 974.716,88.8073 975.618,89.767 976.519,89.4793 977.421,88.3458 978.322,88.3806 979.224,89.0713 980.125,88.931 981.027,87.3197 981.928,87.4828 982.83,88.246 983.731,90.0123 984.633,91.065 985.534,92.5133 986.436,94.1578 987.337,94.8659 988.239,95.5571 989.14,97.2946 990.042,99.0321 990.943,100.315 991.845,100.546 992.746,100.479 993.648,101.348 994.549,101.642 995.451,100.63 996.352,99.5404 997.254,98.4512 998.155,97.0168 999.057,94.8129 999.958,92.609 1000.86,91.4692 1001.76,90.6473 1002.66,91.3383 1003.56,92.0293 1004.47,93.0654 1005.37,94.9737 1006.27,97.7309 1007.17,100.016 1008.07,102.3 1008.97,103.149 1009.87,102.856 1010.78,102.562 1011.68,102.268 1012.58,101.125 1013.48,99.9828 1014.38,99.3311 1015.28,99.7707 1016.19,101.353 1017.09,102.772 1017.99,104.191 1018.89,105.61 1019.79,107.029 1020.69,107.958 1021.59,108.238 1022.5,108.546 1023.4,110.118 1024.3,112.188 1025.2,112.979 "
     id="polyline3088"
     style="fill:none;stroke:#0000d4;stroke-width:2.00900435;stroke-linecap:round;stroke-linejoin:round;stroke-miterlimit:4;stroke-dasharray:none;stroke-opacity:1"
     transform="matrix(0.74646542,0,0,0.91739633,-55.151807,-30.877474)" />
  <polyline
     points="104,135.12 1035.47,135.12 "
     id="polyline3095"
     style="fill:none;stroke:#000000;stroke-width:2.00900435;stroke-miterlimit:4;stroke-dasharray:none;stroke-opacity:1"
     transform="matrix(0.74663854,0,0,0.74663854,-55.251252,-9.706302)" />
  <polygon
     points="1034.6,132.646 1034.6,132.646 1034.74,132.928 1035.04,133.603 1035.2,134.009 1035.34,134.418 1035.43,134.799 1035.47,135.12 1035.43,135.411 1035.34,135.787 1035.2,136.21 1035.04,136.641 1034.74,137.379 1034.6,137.693 1044,135.12 "
     id="polygon3102"
     style="fill:#000000;fill-rule:evenodd;stroke:none"
     transform="matrix(0.74663854,0,0,0.74663854,-55.251252,-9.706302)" />
  <polyline
     points="122.8,137 122.8,51.5324 "
     id="polyline3116"
     style="fill:none;stroke:#000000;stroke-width:2.00900435;stroke-miterlimit:4;stroke-dasharray:none;stroke-opacity:1"
     transform="matrix(0.74663854,0,0,0.74663854,-55.251252,-9.706302)" />
  <polygon
     points="120.326,52.4 120.326,52.4 120.608,52.2622 121.283,51.9606 121.689,51.8005 122.098,51.6618 122.479,51.5655 122.8,51.5324 123.091,51.5655 123.467,51.6618 123.89,51.8005 124.321,51.9606 125.059,52.2622 125.373,52.4 122.8,43 "
     id="polygon3123"
     style="fill:#000000;fill-rule:evenodd;stroke:none"
     transform="matrix(0.74663854,0,0,0.74663854,-55.251252,-9.706302)" />
  <text
     xml:space="preserve"
     style="font-style:normal;font-variant:normal;font-weight:normal;font-stretch:normal;line-height:0%;font-family:'Nimbus Sans L';-inkscape-font-specification:Sans;letter-spacing:0px;word-spacing:0px;fill:#000000;fill-opacity:1;stroke:none"
     x="10.901355"
     y="25.802708"
     id="text3995"><tspan
       sodipodi:role="line"
       id="tspan3997"
       x="10.901355"
       y="25.802708"
       style="font-style:italic;font-variant:normal;font-weight:normal;font-stretch:normal;font-size:13.43949413px;line-height:1.25;font-family:'Nimbus Roman No9 L';-inkscape-font-specification:'Nimbus Roman No9 L Italic'">$|E|^2$<tspan
   style="font-size:8.73579407px;baseline-shift:super"
   id="tspan4037" /></tspan></text>
  <text
     xml:space="preserve"
     style="font-style:normal;font-variant:normal;font-weight:normal;font-stretch:normal;line-height:0%;font-family:'Nimbus Sans L';-inkscape-font-specification:Sans;letter-spacing:0px;word-spacing:0px;fill:#000000;fill-opacity:1;stroke:none"
     x="724.01404"
     y="101.63362"
     id="text3995-5"><tspan
       sodipodi:role="line"
       id="tspan3997-7"
       x="724.01404"
       y="101.63362"
       style="font-style:italic;font-variant:normal;font-weight:normal;font-stretch:normal;font-size:13.43949413px;line-height:1.25;font-family:'Nimbus Roman No9 L';-inkscape-font-specification:'Nimbus Roman No9 L Italic'">$t$</tspan></text>
  <text
     xml:space="preserve"
     style="font-style:normal;font-variant:normal;font-weight:normal;font-stretch:normal;line-height:0%;font-family:'Nimbus Sans L';-inkscape-font-specification:Sans;letter-spacing:0px;word-spacing:0px;fill:#000000;fill-opacity:1;stroke:none"
     x="317.04312"
     y="24.952389"
     id="text3995-8"><tspan
       sodipodi:role="line"
       id="tspan3997-6"
       x="317.04312"
       y="24.952389"
       style="font-style:italic;font-variant:normal;font-weight:normal;font-stretch:normal;font-size:16.42604828px;line-height:1.25;font-family:'Nimbus Roman No9 L';-inkscape-font-specification:'Nimbus Roman No9 L Italic'"><tspan
         style="font-size:13.43949413px"
         id="tspan4065">$t_c$</tspan><tspan
         style="font-style:italic;font-variant:normal;font-weight:normal;font-stretch:normal;font-size:10.67708111px;font-family:'Nimbus Roman No9 L';-inkscape-font-specification:'Nimbus Roman No9 L Italic';baseline-shift:sub"
         id="tspan4063" /></tspan></text>
  <flowRoot
     xml:space="preserve"
     id="flowRoot3912"
     style="font-style:normal;font-variant:normal;font-weight:normal;font-stretch:normal;line-height:0.01%;font-family:'Nimbus Sans L';-inkscape-font-specification:Sans;letter-spacing:0px;word-spacing:0px;fill:#000000;fill-opacity:1;stroke:none"
     transform="translate(0,-39.017666)"><flowRegion
       id="flowRegion3914"><rect
         id="rect3916"
         width="864.73865"
         height="141.88966"
         x="-100.11104"
         y="11.838024" /></flowRegion><flowPara
       id="flowPara3918"
       style="font-size:22px;line-height:1.25"> </flowPara></flowRoot></svg>
