<?xml version="1.0" encoding="UTF-8" standalone="no"?>
<svg
   xmlns:dc="http://purl.org/dc/elements/1.1/"
   xmlns:cc="http://creativecommons.org/ns#"
   xmlns:rdf="http://www.w3.org/1999/02/22-rdf-syntax-ns#"
   xmlns:svg="http://www.w3.org/2000/svg"
   xmlns="http://www.w3.org/2000/svg"
   xmlns:sodipodi="http://sodipodi.sourceforge.net/DTD/sodipodi-0.dtd"
   xmlns:inkscape="http://www.inkscape.org/namespaces/inkscape"
   version="1.1"
   id="svg2"
   inkscape:version="0.92.3 (2405546, 2018-03-11)"
   width="781.07452"
   height="88.971634"
   sodipodi:docname="02_fluktuacije01.svg"
   inkscape:export-filename="/home/mojca/Delo/FotonikaSkripta/MojcaNova/02_fluktuacije.png"
   inkscape:export-xdpi="299"
   inkscape:export-ydpi="299"
   viewBox="0 0 732.25739 83.410904">
  <metadata
     id="metadata68">
    <rdf:RDF>
      <cc:Work
         rdf:about="">
        <dc:format>image/svg+xml</dc:format>
        <dc:type
           rdf:resource="http://purl.org/dc/dcmitype/StillImage" />
        <dc:title></dc:title>
      </cc:Work>
    </rdf:RDF>
  </metadata>
  <sodipodi:namedview
     pagecolor="#ffffff"
     bordercolor="#666666"
     borderopacity="1"
     objecttolerance="10"
     gridtolerance="10"
     guidetolerance="10"
     inkscape:pageopacity="0"
     inkscape:pageshadow="2"
     inkscape:window-width="1460"
     inkscape:window-height="961"
     id="namedview66"
     showgrid="false"
     inkscape:zoom="1.1895642"
     inkscape:cx="404.30849"
     inkscape:cy="-8.8040323"
     inkscape:window-x="188"
     inkscape:window-y="54"
     inkscape:window-maximized="0"
     inkscape:current-layer="svg2"
     fit-margin-top="0"
     fit-margin-left="0"
     fit-margin-right="0"
     fit-margin-bottom="0" />
  <defs
     id="defs64">
    <clipPath
       id="cp8">
      <polygon
         points="-1,-1 -1,15 21,15 21,-1 "
         id="polygon60" />
    </clipPath>
    <clipPath
       id="cp7">
      <polygon
         points="74,13 74,167 1074,167 1074,13 "
         id="polygon53" />
    </clipPath>
    <clipPath
       id="cp6">
      <polygon
         points="74,13 74,167 1074,167 1074,13 "
         id="polygon46" />
    </clipPath>
    <clipPath
       id="cp5">
      <polygon
         points="-1,-1 -1,15 5,15 5,-1 "
         id="polygon39" />
    </clipPath>
    <clipPath
       id="cp4">
      <polygon
         points="74,13 74,167 1074,167 1074,13 "
         id="polygon32" />
    </clipPath>
    <clipPath
       id="cp3">
      <polygon
         points="74,13 74,167 1074,167 1074,13 "
         id="polygon25" />
    </clipPath>
    <clipPath
       id="cp2">
      <polygon
         points="103,43 103,137 1045,137 1045,43 "
         id="polygon16" />
    </clipPath>
    <clipPath
       id="cp1">
      <polygon
         points="-4.49423e+307,-4.49423e+307 -4.49423e+307,4.49423e+307 4.49423e+307,4.49423e+307 4.49423e+307,-4.49423e+307 "
         id="polygon9" />
    </clipPath>
  </defs>
  <g
     id="g48">
    <text
       id="text3995-5-4"
       y="56.546127"
       x="715.26025"
       style="font-style:normal;font-variant:normal;font-weight:normal;font-stretch:normal;line-height:0%;font-family:'Nimbus Sans L';-inkscape-font-specification:Sans;letter-spacing:0px;word-spacing:0px;fill:#000000;fill-opacity:1;stroke:none"
       xml:space="preserve"><tspan
         style="font-style:italic;font-variant:normal;font-weight:normal;font-stretch:normal;font-size:13.3379364px;line-height:1.25;font-family:'Nimbus Roman No9 L';-inkscape-font-specification:'Nimbus Roman No9 L Italic'"
         y="56.546127"
         x="715.26025"
         id="tspan3997-7-0"
         sodipodi:role="line">$t$</tspan></text>
    <text
       id="text3995-7"
       y="9.6966801"
       x="-0.58686918"
       style="font-style:normal;font-variant:normal;font-weight:normal;font-stretch:normal;line-height:0%;font-family:'Nimbus Sans L';-inkscape-font-specification:Sans;letter-spacing:0px;word-spacing:0px;fill:#000000;fill-opacity:1;stroke:none"
       xml:space="preserve"><tspan
         style="font-style:italic;font-variant:normal;font-weight:normal;font-stretch:normal;font-size:13.3379364px;line-height:1.25;font-family:'Nimbus Roman No9 L';-inkscape-font-specification:'Nimbus Roman No9 L Italic'"
         y="9.6966801"
         x="-0.58686918"
         id="tspan3997-5"
         sodipodi:role="line"><tspan
           id="tspan4684-0"
           style="font-style:normal;-inkscape-font-specification:'Nimbus Roman No9 L'">$\Re(E)$</tspan></tspan></text>
  </g>
  <g
     id="g55">
    <polyline
       transform="matrix(0.74099646,0,0,0.74099646,-60.499471,-18.956793)"
       style="fill:none;stroke:#000000;stroke-width:2.02430105;stroke-miterlimit:4;stroke-dasharray:none;stroke-opacity:1"
       id="polyline27-9"
       points="104,88.0483 1035.47,88.0483 " />
    <polygon
       transform="matrix(0.74099646,0,0,0.74099646,-60.499471,-18.956793)"
       style="fill:#000000;fill-rule:evenodd;stroke:none"
       id="polygon34-1"
       points="1034.74,90.3072 1034.6,90.6209 1044,88.0483 1034.6,85.5746 1034.6,85.5746 1034.74,85.856 1035.04,86.531 1035.2,86.9369 1035.34,87.3462 1035.43,87.7272 1035.47,88.0483 1035.43,88.3389 1035.34,88.7149 1035.2,89.138 1035.04,89.5698 " />
    <polyline
       transform="matrix(0.74099646,0,0,0.58172594,-60.499471,-10.910407)"
       style="fill:none;stroke:#000000;stroke-width:2.02430105;stroke-miterlimit:4;stroke-dasharray:none;stroke-opacity:1"
       id="polyline48-9"
       points="122.8,137 122.8,51.5324 " />
    <polygon
       transform="matrix(0.74099646,0,0,0.74099646,-60.499471,-18.956793)"
       style="fill:#000000;fill-rule:evenodd;stroke:none"
       id="polygon55-9"
       points="125.059,52.2622 125.373,52.4 122.8,43 120.326,52.4 120.326,52.4 120.608,52.2622 121.283,51.9606 121.689,51.8005 122.098,51.6618 122.479,51.5655 122.8,51.5324 123.091,51.5655 123.467,51.6618 123.89,51.8005 124.321,51.9606 " />
    <polyline
       transform="matrix(0.74809678,0,0,1.302334,-61.341621,-71.361395)"
       style="fill:none;stroke:#0000d4;stroke-width:2.00393534;stroke-linecap:round;stroke-linejoin:round;stroke-miterlimit:4;stroke-dasharray:none;stroke-opacity:1"
       id="polyline20"
       points="123.701,93.5633 124.603,83.3849 125.504,73.699 126.406,73.2359 127.307,82.3162 128.209,91.9043 129.11,100.906 130.012,103.68 130.913,102.735 131.815,94.1831 132.716,85.5132 133.618,76.7685 134.519,71.5595 135.421,71.7152 136.322,78.5863 137.224,88.1026 138.125,95.8049 139.027,101.4 139.928,102.284 140.83,100.244 141.731,91.8865 142.633,79.616 143.534,73.3729 144.436,72.3356 145.337,78.3399 146.239,87.7146 147.14,94.9983 148.042,97.9846 148.943,96.2607 149.845,93.8714 150.746,86.7273 151.648,82.9664 152.549,82.7983 153.451,82.3715 154.352,83.434 155.254,89.6276 156.155,93.7078 157.057,95.9785 157.958,95.2201 158.86,91.7223 159.761,90.2137 160.663,85.9415 161.564,82.474 162.466,83.5429 163.367,84.3597 164.269,85.3081 165.17,90.5558 166.072,94.8458 166.973,98.2212 167.875,95.5477 168.776,88.0182 169.678,80.677 170.579,77.5015 171.481,78.4992 172.382,83.1223 173.284,90.1208 174.185,93.7663 175.087,95.571 175.988,93.3442 176.89,88.7119 177.791,84.9962 178.693,80.6345 179.594,79.3653 180.496,79.2987 181.397,82.4127 182.299,87.6793 183.2,89.4817 184.102,91.3106 185.003,92.8758 185.905,92.9938 186.806,90.6592 187.708,87.3274 188.609,84.2729 189.511,82.6704 190.412,84.5746 191.314,88.5048 192.215,92.2607 193.117,94.4076 194.018,99.0511 194.92,92.4626 195.821,85.9032 196.723,79.4141 197.624,75.3712 198.526,74.7392 199.427,81.1597 200.329,87.2829 201.23,97.1547 202.132,102.827 203.033,102.604 203.935,94.9483 204.836,81.4795 205.738,72.7057 206.639,70.1061 207.541,74.3598 208.442,85.1984 209.344,93.9691 210.245,101.288 211.147,101.166 212.048,96.5456 212.95,88.6795 213.851,80.0872 214.753,75.003 215.654,73.0036 216.556,79.6966 217.457,87.2507 218.359,95.3943 219.26,103.556 220.162,104.347 221.063,98.3877 221.965,90.0308 222.866,81.9722 223.768,77.6687 224.669,74.442 225.571,76.4125 226.472,82.0366 227.374,90.3519 228.275,99.2797 229.177,103.565 230.078,101.657 230.98,95.219 231.881,84.743 232.783,76.019 233.684,69.7301 234.586,72.4532 235.487,81.099 236.389,95.0871 237.29,100.441 238.192,102.036 239.093,99.7522 239.995,92.3569 240.896,81.9404 241.798,76.7156 242.699,75.8194 243.601,79.5943 244.502,86.5983 245.404,93.2201 246.305,100.077 247.207,102.34 248.108,99.1436 249.01,90.9132 249.911,83.324 250.813,77.5394 251.714,76.7409 252.616,79.4492 253.517,83.3824 254.419,87.2496 255.32,93.1393 256.222,97.9162 257.123,98.9239 258.025,95.7776 258.926,89.9198 259.828,84.9011 260.729,80.8016 261.631,78.713 262.532,82.7126 263.434,87.1125 264.335,94.684 265.237,100.161 266.138,101.168 267.04,98.8464 267.941,90.0404 268.843,81.6588 269.744,78.1044 270.646,75.4937 271.547,75.7096 272.449,85.5049 273.35,93.6287 274.252,100.717 275.153,101.241 276.055,96.3441 276.956,87.7274 277.858,81.9087 278.759,78.5003 279.661,82.4807 280.562,88.798 281.464,92.0661 282.365,95.2893 283.267,93.4609 284.168,90.4755 285.07,86.5688 285.971,83.2123 286.873,81.703 287.774,82.6174 288.676,85.6062 289.577,91.607 290.479,94.2676 291.38,93.9989 292.282,92.6968 293.183,88.146 294.085,84.3518 294.986,80.6997 295.888,77.9503 296.789,81.7223 297.691,90.5996 298.592,95.035 299.494,95.5624 300.395,94.3662 301.297,92.0677 302.198,88.2625 303.1,83.6573 304.001,80.7294 304.903,80.5971 305.804,86.2612 306.706,90.1871 307.607,93.9306 308.509,95.4273 309.41,94.1054 310.312,90.47 311.213,85.9096 312.115,81.6764 313.016,80.5541 313.918,82.2943 314.819,84.7688 315.721,88.8081 316.622,92.5572 317.524,94.5841 318.425,95.037 319.327,89.7655 320.228,86.1596 321.13,83.0231 322.031,81.6173 322.933,84.4721 323.834,86.3321 324.736,96.8386 325.637,100.252 326.539,98.2615 327.44,92.9512 328.342,88.0841 329.243,82.6927 330.145,79.5758 331.046,81.3385 331.948,83.2789 332.849,87.041 333.751,91.1879 334.652,89.867 335.554,90.9632 336.455,89.5463 337.357,88.796 338.258,88.156 339.16,86.9056 340.061,86.131 340.963,84.4537 341.864,83.635 342.766,85.4276 343.667,91.9565 344.569,96.7732 345.47,99.1129 346.372,94.6476 347.273,87.9699 348.175,79.5537 349.076,79.0859 349.978,80.3899 350.879,82.1174 351.781,88.3713 352.682,95.9491 353.584,100.509 354.485,99.3567 355.387,94.5453 356.288,87.1752 357.19,79.9172 358.091,75.765 358.993,76.3046 359.894,81.3299 360.796,88.9214 361.697,96.2827 362.599,100.752 363.5,100.285 364.402,95.1436 365.303,84.4748 366.205,76.5361 367.106,79.514 368.008,86.4649 368.909,91.851 369.811,95.48 370.712,94.6802 371.614,91.8044 372.515,85.3367 373.417,82.2725 374.318,81.4352 375.22,83.1239 376.121,86.6936 377.023,88.6277 377.924,92.5532 378.826,92.2403 379.727,88.098 380.629,84.9104 381.53,81.0091 382.432,79.7966 383.333,80.5078 384.235,83.9666 385.136,88.0136 386.038,93.934 386.939,95.8337 387.841,94.3189 388.742,91.7728 389.644,87.1246 390.545,83.9159 391.447,79.2426 392.348,77.9328 393.25,82.9571 394.151,82.6842 395.053,88.2017 395.954,93.1628 396.856,94.2679 397.757,95.4253 398.659,96.6475 399.56,95.8725 400.462,89.0387 401.363,83.9779 402.265,80.4719 403.166,78.5885 404.068,81.1666 404.969,86.3733 405.871,94.1564 406.772,98.8897 407.674,100.275 408.575,96.9904 409.477,90.2901 410.378,82.7335 411.28,77.9736 412.181,78.3573 413.083,83.6339 413.984,91.2748 414.886,96.9045 415.787,98.5511 416.689,96.186 417.59,90.5596 418.492,85.4074 419.393,80.3674 420.295,77.3048 421.196,76.4872 422.098,80.38 422.999,87.0941 423.9,93.0538 424.802,97.1017 425.703,97.6914 426.605,96.6646 427.506,90.0161 428.408,83.2622 429.309,78.8509 430.211,78.9903 431.112,83.0563 432.014,88.0491 432.915,93.1362 433.817,96.7595 434.718,96.3121 435.62,91.1426 436.521,83.3391 437.423,79.0012 438.324,82.4304 439.226,85.0243 440.127,89.0775 441.029,93.9698 441.93,92.8629 442.832,89.9171 443.733,85.7285 444.635,81.3472 445.536,81.3039 446.438,80.7376 447.339,86.4015 448.241,92.6945 449.142,97.4503 450.044,100.496 450.945,96.3374 451.847,89.0121 452.748,80.3966 453.65,74.062 454.551,73.0698 455.453,77.7449 456.354,85.7703 457.256,96.7574 458.157,104.314 459.059,106.097 459.96,101.201 460.862,92.575 461.763,81.2588 462.665,71.5541 463.566,67.6933 464.468,72.4139 465.369,82.4061 466.271,93.0892 467.172,101.353 468.074,103.067 468.975,98.7265 469.877,89.0841 470.778,79.218 471.68,69.8858 472.581,69.5679 473.483,78.378 474.384,90.6788 475.286,101.461 476.187,108.206 477.089,104.674 477.99,94.8247 478.892,81.5312 479.793,70.695 480.695,66.0437 481.596,69.0444 482.498,78.403 483.399,89.7683 484.301,101.762 485.202,108.214 486.104,108.024 487.005,101.895 487.907,88.5059 488.808,74.9419 489.71,67.2559 490.611,67.2742 491.513,77.0524 492.414,91.0669 493.316,102.028 494.217,107.591 495.119,105.924 496.02,97.4281 496.922,84.679 497.823,74.5598 498.725,67.6571 499.626,70.9995 500.528,77.1106 501.429,89.3942 502.331,103.387 503.232,108.947 504.134,105.584 505.035,98.3488 505.937,86.265 506.838,74.4725 507.74,67.1047 508.641,67.9847 509.543,76.5283 510.444,89.7362 511.346,102.051 512.247,108.272 513.149,107.513 514.05,99.3197 514.952,84.8288 515.853,72.933 516.755,66.3915 517.656,67.9975 518.558,76.302 519.459,91.7108 520.361,102.884 521.262,110.57 522.164,112.284 523.065,102.512 523.967,87.1306 524.868,71.9188 525.77,63.8159 526.671,64.969 527.573,74.9376 528.474,88.9066 529.376,102.472 530.277,110.958 531.179,110.768 532.08,102.233 532.982,86.8826 533.883,73.0389 534.785,65.3865 535.686,69.967 536.588,77.9884 537.489,90.0472 538.391,101.063 539.292,104.859 540.194,99.3359 541.095,92.1864 541.997,81.6971 542.898,73.5878 543.8,70.6811 544.701,75.41 545.603,81.407 546.504,90.3856 547.406,98.6249 548.307,101.886 549.209,102.171 550.11,97.3093 551.012,89.13 551.913,79.5665 552.815,76.5211 553.716,78.2848 554.618,82.2658 555.519,88.4555 556.421,93.9736 557.322,97.1157 558.224,96.7944 559.125,93.1324 560.027,87.5284 560.928,81.3845 561.83,79.4456 562.731,83.3122 563.633,86.5012 564.534,92.2468 565.436,95.5799 566.337,97.4576 567.239,91.5845 568.14,82.3224 569.042,78.0459 569.943,74.5517 570.845,75.081 571.746,81.9209 572.648,90.6163 573.549,98.3308 574.451,102.185 575.352,102.836 576.254,98.2741 577.155,88.56 578.057,79.2999 578.958,75.3284 579.86,74.1126 580.761,79.6195 581.663,86.7273 582.564,94.3227 583.466,100.876 584.367,100.679 585.269,94.0353 586.17,85.1046 587.072,77.4501 587.973,72.9193 588.875,73.9637 589.776,80.1376 590.678,93.1933 591.579,102.104 592.481,105.183 593.382,100.517 594.284,91.0874 595.185,80.4975 596.087,74.1608 596.988,71.2344 597.89,75.2708 598.791,86.2752 599.693,96.163 600.594,102.81 601.496,102.392 602.397,96.2992 603.299,85.5766 604.2,78.0025 605.102,70.4782 606.003,72.1209 606.905,79.8474 607.806,90.7063 608.708,98.0231 609.609,103.102 610.511,102.483 611.412,95.5344 612.314,85.0193 613.215,77.2557 614.117,73.6146 615.018,78.483 615.92,84.2142 616.821,92.364 617.723,96.7733 618.624,96.0719 619.526,94.5445 620.427,89.561 621.329,85.3809 622.23,82.5486 623.132,80.1679 624.033,80.7973 624.935,81.6898 625.836,86.5242 626.738,91.9408 627.639,97.2931 628.541,98.6774 629.442,97.0041 630.344,91.8784 631.245,85.7259 632.147,80.4605 633.048,80.4429 633.95,83.9509 634.851,86.4971 635.753,91.0666 636.654,97.7048 637.556,103.996 638.457,104.218 639.359,97.1098 640.26,86.5401 641.162,76.5466 642.063,72.1362 642.965,75.0986 643.866,80.6984 644.768,90.8371 645.669,99.9106 646.571,104.497 647.472,101.768 648.374,93.7458 649.275,87.3524 650.177,77.912 651.078,73.7561 651.98,77.7435 652.881,82.5393 653.783,89.4394 654.684,94.6684 655.586,100.164 656.487,99.0148 657.389,93.6765 658.29,84.0801 659.192,79.6297 660.093,77.2207 660.995,79.8173 661.896,89.8797 662.798,96.5018 663.699,98.7798 664.601,96.9588 665.502,92.6481 666.404,83.7752 667.305,76.4022 668.207,73.3169 669.108,78.0611 670.01,88.664 670.911,94.3036 671.813,97.5538 672.714,99.8782 673.616,95.806 674.517,87.0845 675.419,78.7311 676.32,73.794 677.222,75.8414 678.123,83.4992 679.025,90.8114 679.926,95.1135 680.828,96.7183 681.729,95.0114 682.631,92.5834 683.532,86.6908 684.434,78.5142 685.335,76.7144 686.237,79.7742 687.138,85.9944 688.04,92.4727 688.941,96.5915 689.843,95.6991 690.744,92.7876 691.646,88.4631 692.547,84.1463 693.449,81.5141 694.35,81.2228 695.252,84.7207 696.153,89.6123 697.055,95.9953 697.956,98.5755 698.858,96.9989 699.759,89.9201 700.661,84.7736 701.562,78.7388 702.464,78.9214 703.365,82.2074 704.267,88.6877 705.168,93.8357 706.07,97.8619 706.971,100.818 707.873,98.5404 708.774,91.9074 709.676,83.8004 710.577,76.0116 711.479,76.2703 712.38,79.7745 713.282,87.3994 714.183,95.4822 715.085,103.293 715.986,103.946 716.888,95.5264 717.789,84.4679 718.691,74.777 719.592,69.1762 720.494,70.5326 721.395,82.097 722.297,92.5387 723.198,100.788 724.1,104.172 725.001,100.008 725.902,93.6076 726.804,82.3869 727.705,73.6097 728.607,73.5655 729.508,75.7443 730.41,82.3065 731.311,91.7547 732.213,97.2296 733.114,100.357 734.016,99.009 734.917,94.591 735.819,87.674 736.72,80.9 737.622,79.3312 738.523,78.4232 739.425,81.1916 740.326,86.5791 741.228,92.5277 742.129,96.7654 743.031,95.9867 743.932,95.1509 744.834,89.9647 745.735,83.6645 746.637,79.7194 747.538,79.5751 748.44,80.3272 749.341,86.1028 750.243,92.6215 751.144,97.3935 752.046,99.2979 752.947,95.1739 753.849,87.2042 754.75,79.3531 755.652,73.1541 756.553,71.2151 757.455,78.3172 758.356,90.1063 759.258,101.33 760.159,109.283 761.061,106.127 761.962,97.9629 762.864,86.0418 763.765,72.9292 764.667,66.0666 765.568,68.6833 766.47,75.1987 767.371,88.8674 768.273,97.4487 769.174,103.999 770.076,104.456 770.977,102.088 771.879,91.7558 772.78,77.3764 773.682,66.3646 774.583,63.6809 775.485,71.5638 776.386,85.1431 777.288,100.766 778.189,110.739 779.091,115.142 779.992,107.886 780.894,95.4816 781.795,80.8684 782.697,67.88 783.598,62.5952 784.5,65.0147 785.401,78.7029 786.303,98.1714 787.204,113.386 788.106,118.923 789.007,111.797 789.909,97.477 790.81,79.5555 791.712,67.0239 792.613,61.0769 793.515,69.1882 794.416,80.6836 795.318,94.3916 796.219,107.158 797.121,112.631 798.022,107.274 798.924,95.2597 799.825,80.8824 800.727,69.5188 801.628,64.778 802.53,69.1633 803.431,80.5577 804.333,96.1061 805.234,105.676 806.136,109.254 807.037,104.733 807.939,92.7048 808.84,77.6864 809.742,65.9025 810.643,63.7227 811.545,71.6867 812.446,84.065 813.348,98.9013 814.249,109.592 815.151,110.845 816.052,103.164 816.954,89.043 817.855,77.9235 818.757,71.358 819.658,71.3961 820.56,77.629 821.461,85.8732 822.363,95.1845 823.264,99.1456 824.166,99.1978 825.067,98.7227 825.969,94.1652 826.87,84.6212 827.772,78.3064 828.673,75.5854 829.575,77.6248 830.476,84.1335 831.378,92.1577 832.279,98.6123 833.181,101.212 834.082,97.4312 834.984,90.7622 835.885,81.929 836.787,79.2886 837.688,77.9415 838.59,78.0834 839.491,84.8768 840.393,92.4482 841.294,97.9531 842.196,102.019 843.097,99.2434 843.999,92.192 844.9,86.62 845.802,79.1926 846.703,74.651 847.605,74.8507 848.506,78.1965 849.408,88.4494 850.309,98.5491 851.211,104.843 852.112,102.694 853.014,98.818 853.915,88.2338 854.817,77.5865 855.718,68.4122 856.62,72.3456 857.521,79.2605 858.423,89.532 859.324,99.2368 860.226,103.406 861.127,102.962 862.029,97.0196 862.93,85.2577 863.832,76.2378 864.733,72.9222 865.635,73.4148 866.536,86.5938 867.438,96.7461 868.339,102.83 869.241,104.476 870.142,97.1729 871.044,90.6413 871.945,81.5599 872.847,73.4724 873.748,70.9524 874.65,74.9625 875.551,81.5028 876.453,92.7839 877.354,99.8842 878.256,105.965 879.157,106.031 880.059,96.3114 880.96,87.3645 881.862,78.6438 882.763,74.9349 883.665,74.9095 884.566,79.1789 885.468,90.0715 886.369,99.4949 887.271,104.535 888.172,103.277 889.074,97.7304 889.975,87.8773 890.877,83.4278 891.778,77.5881 892.68,75.3729 893.581,77.9994 894.483,84.4642 895.384,91.1838 896.286,98.8863 897.187,104.063 898.089,101.76 898.99,92.2319 899.892,86.5625 900.793,81.6215 901.695,76.5302 902.596,78.1739 903.498,83.5894 904.399,90.649 905.301,96.8351 906.202,102.055 907.104,98.7802 908.005,89.1275 908.907,79.0767 909.808,72.2798 910.71,70.6894 911.611,74.8954 912.513,82.4803 913.414,92.2551 914.316,100.423 915.217,103.864 916.119,101.264 917.02,92.8111 917.922,81.9645 918.823,76.7301 919.725,75.8188 920.626,80.2731 921.528,87.8728 922.429,91.4903 923.331,96.1946 924.232,99.1453 925.134,96.4488 926.035,90.2364 926.937,82.7257 927.838,77.2481 928.74,75.8958 929.641,79.1853 930.543,87.2218 931.444,92.1531 932.346,95.8957 933.247,97.3451 934.149,95.0524 935.05,90.4189 935.952,83.3437 936.853,79.386 937.755,79.561 938.656,82.9066 939.558,88.8427 940.459,91.6129 941.361,96.2474 942.262,99.9565 943.164,100.629 944.065,94.2055 944.967,83.537 945.868,76.9671 946.77,74.4624 947.671,74.8272 948.573,84.6401 949.474,94.7013 950.376,105.899 951.277,108.8 952.179,103.609 953.08,95.148 953.982,82.1606 954.883,71.0706 955.785,65.9243 956.686,71.2255 957.588,80.7356 958.489,98.5528 959.391,110.018 960.292,113.092 961.194,105.425 962.095,93.67 962.997,80.3246 963.898,68.2619 964.8,65.0203 965.701,70.5745 966.603,83.2822 967.504,98.4935 968.406,107.891 969.307,109.834 970.209,103.81 971.11,91.1097 972.012,77.2396 972.913,68.137 973.815,66.2136 974.716,72.5302 975.618,84.7742 976.519,97.8416 977.421,104.467 978.322,108.847 979.224,101.278 980.125,86.0723 981.027,74.8169 981.928,67.5556 982.83,68.7157 983.731,77.2603 984.633,89.9255 985.534,102.153 986.436,108.697 987.337,105.937 988.239,93.9399 989.14,83.6643 990.042,72.8845 990.943,68.2651 991.845,73.7996 992.746,83.0048 993.648,94.1365 994.549,102.943 995.451,105.979 996.352,100.662 997.254,89.3739 998.155,77.0176 999.057,68.783 999.958,69.2668 1000.86,75.6912 1001.76,86.2669 1002.66,99.5179 1003.56,108.371 1004.47,108.192 1005.37,98.919 1006.27,87.8452 1007.17,76.849 1008.07,70.1306 1008.97,72.2306 1009.87,79.109 1010.78,89.4019 1011.68,99.1778 1012.58,106.471 1013.48,106.36 1014.38,99.2543 1015.28,87.8686 1016.19,76.5515 1017.09,71.3891 1017.99,72.3082 1018.89,77.5794 1019.79,84.2747 1020.69,94.4684 1021.59,102.21 1022.5,104.542 1023.4,100.574 1024.3,93.0073 1025.2,82.7543 " />
  </g>
</svg>
