<?xml version="1.0" encoding="UTF-8" standalone="no"?>
<svg
   xmlns:dc="http://purl.org/dc/elements/1.1/"
   xmlns:cc="http://creativecommons.org/ns#"
   xmlns:rdf="http://www.w3.org/1999/02/22-rdf-syntax-ns#"
   xmlns:svg="http://www.w3.org/2000/svg"
   xmlns="http://www.w3.org/2000/svg"
   xmlns:sodipodi="http://sodipodi.sourceforge.net/DTD/sodipodi-0.dtd"
   xmlns:inkscape="http://www.inkscape.org/namespaces/inkscape"
   version="1.1"
   id="svg2"
   inkscape:version="0.48.4 r9939"
   width="100%"
   height="100%"
   sodipodi:docname="02_fluktuacije.svg"
   inkscape:export-filename="/home/mojca/Delo/FotonikaSkripta/MojcaNova/02_fluktuacije.png"
   inkscape:export-xdpi="299"
   inkscape:export-ydpi="299">
  <metadata
     id="metadata68">
    <rdf:RDF>
      <cc:Work
         rdf:about="">
        <dc:format>image/svg+xml</dc:format>
        <dc:type
           rdf:resource="http://purl.org/dc/dcmitype/StillImage" />
        <dc:title></dc:title>
      </cc:Work>
    </rdf:RDF>
  </metadata>
  <sodipodi:namedview
     pagecolor="#ffffff"
     bordercolor="#666666"
     borderopacity="1"
     objecttolerance="10"
     gridtolerance="10"
     guidetolerance="10"
     inkscape:pageopacity="0"
     inkscape:pageshadow="2"
     inkscape:window-width="1682"
     inkscape:window-height="889"
     id="namedview66"
     showgrid="false"
     inkscape:zoom="0.89702957"
     inkscape:cx="78.854696"
     inkscape:cy="993.9536"
     inkscape:window-x="0"
     inkscape:window-y="0"
     inkscape:window-maximized="0"
     inkscape:current-layer="svg2" />
  <rect
     x="0"
     y="0"
     width="1000"
     height="154"
     id="rect11"
     style="fill:#ffffff;stroke:none" />
  <polyline
     points="123.701,74.4356 124.603,77.0354 125.504,83.8418 126.406,92.2549 127.307,99.0613 128.209,101.661 129.11,99.0613 130.012,92.2549 130.913,83.8418 131.815,77.0354 132.716,74.4356 133.618,77.0354 134.519,83.8418 135.421,92.2549 136.322,99.0613 137.224,101.661 138.125,99.0613 139.027,92.2549 139.928,83.8418 140.83,77.0354 141.731,74.4356 142.633,77.0354 143.534,83.8418 144.436,92.2549 145.337,99.0613 146.239,101.661 147.14,99.0613 148.042,92.2549 148.943,83.8418 149.845,77.0354 150.746,74.4356 151.648,77.0354 152.549,83.8418 153.451,92.2549 154.352,99.0613 155.254,101.661 156.155,99.0613 157.057,92.2549 157.958,83.8418 158.86,77.0354 159.761,74.4356 160.663,77.0354 161.564,83.8418 162.466,92.2549 163.367,99.0613 164.269,101.661 165.17,99.0613 166.072,92.2549 166.973,83.8418 167.875,77.0354 168.776,74.4356 169.678,77.0354 170.579,83.8418 171.481,92.2549 172.382,99.0613 173.284,101.661 174.185,99.0613 175.087,92.2549 175.988,83.8418 176.89,77.0354 177.791,74.4356 178.693,77.0354 179.594,83.8418 180.496,92.2549 181.397,99.0613 182.299,101.661 183.2,99.0613 184.102,92.2549 185.003,83.8418 185.905,77.0354 186.806,74.4356 187.708,77.0354 188.609,83.8418 189.511,92.2549 190.412,99.0613 191.314,101.661 192.215,99.0613 193.117,92.2549 194.018,83.8418 194.92,77.0354 195.821,74.4356 196.723,77.0354 197.624,83.8418 198.526,92.2549 199.427,99.0613 200.329,101.661 201.23,99.0613 202.132,92.2549 203.033,83.8418 203.935,77.0354 204.836,74.4356 205.738,77.0354 206.639,83.8418 207.541,92.2549 208.442,99.0613 209.344,101.661 210.245,99.0613 211.147,92.2549 212.048,83.8418 212.95,77.0354 213.851,74.4356 214.753,77.0354 215.654,83.8418 216.556,92.2549 217.457,99.0613 218.359,101.661 219.26,99.0613 220.162,92.2549 221.063,83.8418 221.965,77.0354 222.866,74.4356 223.768,77.0354 224.669,83.8418 225.571,92.2549 226.472,99.0613 227.374,101.661 228.275,99.0613 229.177,92.2549 230.078,83.8418 230.98,77.0354 231.881,74.4356 232.783,77.0354 233.684,83.8418 234.586,92.2549 235.487,99.0613 236.389,101.661 237.29,99.0613 238.192,92.2549 239.093,83.8418 239.995,77.0354 240.896,74.4356 241.798,77.0354 242.699,83.8418 243.601,92.2549 244.502,99.0613 245.404,101.661 246.305,99.0613 247.207,92.2549 248.108,83.8418 249.01,77.0354 249.911,74.4356 250.813,77.0354 251.714,83.8418 252.616,92.2549 253.517,99.0613 254.419,101.661 255.32,99.0613 256.222,92.2549 257.123,83.8418 258.025,77.0354 258.926,74.4356 259.828,77.0354 260.729,83.8418 261.631,92.2549 262.532,99.0613 263.434,101.661 264.335,99.0613 265.237,92.2549 266.138,83.8418 267.04,77.0354 267.941,74.4356 268.843,77.0354 269.744,83.8418 270.646,92.2549 271.547,99.0613 272.449,101.661 273.35,99.0613 274.252,92.2549 275.153,83.8418 276.055,77.0354 276.956,74.4356 277.858,77.0354 278.759,83.8418 279.661,92.2549 280.562,99.0613 281.464,101.661 282.365,99.0613 283.267,92.2549 284.168,83.8418 285.07,77.0354 285.971,74.4356 286.873,77.0354 287.774,83.8418 288.676,92.2549 289.577,99.0613 290.479,101.661 291.38,99.0613 292.282,92.2549 293.183,83.8418 294.085,77.0354 294.986,74.4356 295.888,77.0354 296.789,83.8418 297.691,92.2549 298.592,99.0613 299.494,101.661 300.395,99.0613 301.297,92.2549 302.198,83.8418 303.1,77.0354 304.001,74.4356 304.903,77.0354 305.804,83.8418 306.706,92.2549 307.607,99.0613 308.509,101.661 309.41,99.0613 310.312,92.2549 311.213,83.8418 312.115,77.0354 313.016,74.4356 313.918,77.0354 314.819,83.8418 315.721,92.2549 316.622,99.0613 317.524,101.661 318.425,99.0613 319.327,92.2549 320.228,83.8418 321.13,77.0354 322.031,74.4356 322.933,77.0354 323.834,83.8418 324.736,92.2549 325.637,99.0613 326.539,101.661 327.44,99.0613 328.342,92.2549 329.243,83.8418 330.145,77.0354 331.046,74.4356 331.948,77.0354 332.849,83.8418 333.751,92.2549 334.652,99.0613 335.554,101.661 336.455,99.0613 337.357,92.2549 338.258,83.8418 339.16,77.0354 340.061,74.4356 340.963,77.0354 341.864,83.8418 342.766,92.2549 343.667,99.0613 344.569,101.661 345.47,99.0613 346.372,92.2549 347.273,83.8418 348.175,77.0354 349.076,74.4356 349.978,77.0354 350.879,83.8418 351.781,92.2549 352.682,99.0613 353.584,101.661 354.485,99.0613 355.387,92.2549 356.288,83.8418 357.19,77.0354 358.091,74.4356 358.993,77.0354 359.894,83.8418 360.796,92.2549 361.697,99.0613 362.599,101.661 363.5,99.0613 364.402,92.2549 365.303,83.8418 366.205,77.0354 367.106,74.4356 368.008,77.0354 368.909,83.8418 369.811,92.2549 370.712,99.0613 371.614,101.661 372.515,99.0613 373.417,92.2549 374.318,83.8418 375.22,77.0354 376.121,74.4356 377.023,77.0354 377.924,83.8418 378.826,92.2549 379.727,99.0613 380.629,101.661 381.53,99.0613 382.432,92.2549 383.333,83.8418 384.235,77.0354 385.136,74.4356 386.038,77.0354 386.939,83.8418 387.841,92.2549 388.742,99.0613 389.644,101.661 390.545,99.0613 391.447,92.2549 392.348,83.8418 393.25,77.0354 394.151,74.4356 395.053,77.0354 395.954,83.8418 396.856,92.2549 397.757,99.0613 398.659,101.661 399.56,99.0613 400.462,92.2549 401.363,83.8418 402.265,77.0354 403.166,74.4356 404.068,77.0354 404.969,83.8418 405.871,92.2549 406.772,99.0613 407.674,101.661 408.575,99.0613 409.477,92.2549 410.378,83.8418 411.28,77.0354 412.181,74.4356 413.083,77.0354 413.984,83.8418 414.886,92.2549 415.787,99.0613 416.689,101.661 417.59,99.0613 418.492,92.2549 419.393,83.8418 420.295,77.0354 421.196,74.4356 422.098,77.0354 422.999,83.8418 423.9,92.2549 424.802,99.0613 425.703,101.661 426.605,99.0613 427.506,92.2549 428.408,83.8418 429.309,77.0354 430.211,74.4356 431.112,77.0354 432.014,83.8418 432.915,92.2549 433.817,99.0613 434.718,101.661 435.62,99.0613 436.521,92.2549 437.423,83.8418 438.324,77.0354 439.226,74.4356 440.127,77.0354 441.029,83.8418 441.93,92.2549 442.832,99.0613 443.733,101.661 444.635,99.0613 445.536,92.2549 446.438,83.8418 447.339,77.0354 448.241,74.4356 449.142,77.0354 450.044,83.8418 450.945,92.2549 451.847,99.0613 452.748,101.661 453.65,99.0613 454.551,92.2549 455.453,83.8418 456.354,77.0354 457.256,74.4356 458.157,77.0354 459.059,83.8418 459.96,92.2549 460.862,99.0613 461.763,101.661 462.665,99.0613 463.566,92.2549 464.468,83.8418 465.369,77.0354 466.271,74.4356 467.172,77.0354 468.074,83.8418 468.975,92.2549 469.877,99.0613 470.778,101.661 471.68,99.0613 472.581,92.2549 473.483,83.8418 474.384,77.0354 475.286,74.4356 476.187,77.0354 477.089,83.8418 477.99,92.2549 478.892,99.0613 479.793,101.661 480.695,99.0613 481.596,92.2549 482.498,83.8418 483.399,77.0354 484.301,74.4356 485.202,77.0354 486.104,83.8418 487.005,92.2549 487.907,99.0613 488.808,101.661 489.71,99.0613 490.611,92.2549 491.513,83.8418 492.414,77.0354 493.316,74.4356 494.217,77.0354 495.119,83.8418 496.02,92.2549 496.922,99.0613 497.823,101.661 498.725,99.0613 499.626,92.2549 500.528,83.8418 501.429,77.0354 502.331,74.4356 503.232,77.0354 504.134,83.8418 505.035,92.2549 505.937,99.0613 506.838,101.661 507.74,99.0613 508.641,92.2549 509.543,83.8418 510.444,77.0354 511.346,74.4356 512.247,77.0354 513.149,83.8418 514.05,92.2549 514.952,99.0613 515.853,101.661 516.755,99.0613 517.656,92.2549 518.558,83.8418 519.459,77.0354 520.361,74.4356 521.262,77.0354 522.164,83.8418 523.065,92.2549 523.967,99.0613 524.868,101.661 525.77,99.0613 526.671,92.2549 527.573,83.8418 528.474,77.0354 529.376,74.4356 530.277,77.0354 531.179,83.8418 532.08,92.2549 532.982,99.0613 533.883,101.661 534.785,99.0613 535.686,92.2549 536.588,83.8418 537.489,77.0354 538.391,74.4356 539.292,77.0354 540.194,83.8418 541.095,92.2549 541.997,99.0613 542.898,101.661 543.8,99.0613 544.701,92.2549 545.603,83.8418 546.504,77.0354 547.406,74.4356 548.307,77.0354 549.209,83.8418 550.11,92.2549 551.012,99.0613 551.913,101.661 552.815,99.0613 553.716,92.2549 554.618,83.8418 555.519,77.0354 556.421,74.4356 557.322,77.0354 558.224,83.8418 559.125,92.2549 560.027,99.0613 560.928,101.661 561.83,99.0613 562.731,92.2549 563.633,83.8418 564.534,77.0354 565.436,74.4356 566.337,77.0354 567.239,83.8418 568.14,92.2549 569.042,99.0613 569.943,101.661 570.845,99.0613 571.746,92.2549 572.648,83.8418 573.549,77.0354 574.451,74.4356 575.352,77.0354 576.254,83.8418 577.155,92.2549 578.057,99.0613 578.958,101.661 579.86,99.0613 580.761,92.2549 581.663,83.8418 582.564,77.0354 583.466,74.4356 584.367,77.0354 585.269,83.8418 586.17,92.2549 587.072,99.0613 587.973,101.661 588.875,99.0613 589.776,92.2549 590.678,83.8418 591.579,77.0354 592.481,74.4356 593.382,77.0354 594.284,83.8418 595.185,92.2549 596.087,99.0613 596.988,101.661 597.89,99.0613 598.791,92.2549 599.693,83.8418 600.594,77.0354 601.496,74.4356 602.397,77.0354 603.299,83.8418 604.2,92.2549 605.102,99.0613 606.003,101.661 606.905,99.0613 607.806,92.2549 608.708,83.8418 609.609,77.0354 610.511,74.4356 611.412,77.0354 612.314,83.8418 613.215,92.2549 614.117,99.0613 615.018,101.661 615.92,99.0613 616.821,92.2549 617.723,83.8418 618.624,77.0354 619.526,74.4356 620.427,77.0354 621.329,83.8418 622.23,92.2549 623.132,99.0613 624.033,101.661 624.935,99.0613 625.836,92.2549 626.738,83.8418 627.639,77.0354 628.541,74.4356 629.442,77.0354 630.344,83.8418 631.245,92.2549 632.147,99.0613 633.048,101.661 633.95,99.0613 634.851,92.2549 635.753,83.8418 636.654,77.0354 637.556,74.4356 638.457,77.0354 639.359,83.8418 640.26,92.2549 641.162,99.0613 642.063,101.661 642.965,99.0613 643.866,92.2549 644.768,83.8418 645.669,77.0354 646.571,74.4356 647.472,77.0354 648.374,83.8418 649.275,92.2549 650.177,99.0613 651.078,101.661 651.98,99.0613 652.881,92.2549 653.783,83.8418 654.684,77.0354 655.586,74.4356 656.487,77.0354 657.389,83.8418 658.29,92.2549 659.192,99.0613 660.093,101.661 660.995,99.0613 661.896,92.2549 662.798,83.8418 663.699,77.0354 664.601,74.4356 665.502,77.0354 666.404,83.8418 667.305,92.2549 668.207,99.0613 669.108,101.661 670.01,99.0613 670.911,92.2549 671.813,83.8418 672.714,77.0354 673.616,74.4356 674.517,77.0354 675.419,83.8418 676.32,92.2549 677.222,99.0613 678.123,101.661 679.025,99.0613 679.926,92.2549 680.828,83.8418 681.729,77.0354 682.631,74.4356 683.532,77.0354 684.434,83.8418 685.335,92.2549 686.237,99.0613 687.138,101.661 688.04,99.0613 688.941,92.2549 689.843,83.8418 690.744,77.0354 691.646,74.4356 692.547,77.0354 693.449,83.8418 694.35,92.2549 695.252,99.0613 696.153,101.661 697.055,99.0613 697.956,92.2549 698.858,83.8418 699.759,77.0354 700.661,74.4356 701.562,77.0354 702.464,83.8418 703.365,92.2549 704.267,99.0613 705.168,101.661 706.07,99.0613 706.971,92.2549 707.873,83.8418 708.774,77.0354 709.676,74.4356 710.577,77.0354 711.479,83.8418 712.38,92.2549 713.282,99.0613 714.183,101.661 715.085,99.0613 715.986,92.2549 716.888,83.8418 717.789,77.0354 718.691,74.4356 719.592,77.0354 720.494,83.8418 721.395,92.2549 722.297,99.0613 723.198,101.661 724.1,99.0613 725.001,92.2549 725.902,83.8418 726.804,77.0354 727.705,74.4356 728.607,77.0354 729.508,83.8418 730.41,92.2549 731.311,99.0613 732.213,101.661 733.114,99.0613 734.016,92.2549 734.917,83.8418 735.819,77.0354 736.72,74.4356 737.622,77.0354 738.523,83.8418 739.425,92.2549 740.326,99.0613 741.228,101.661 742.129,99.0613 743.031,92.2549 743.932,83.8418 744.834,77.0354 745.735,74.4356 746.637,77.0354 747.538,83.8418 748.44,92.2549 749.341,99.0613 750.243,101.661 751.144,99.0613 752.046,92.2549 752.947,83.8418 753.849,77.0354 754.75,74.4356 755.652,77.0354 756.553,83.8418 757.455,92.2549 758.356,99.0613 759.258,101.661 760.159,99.0613 761.061,92.2549 761.962,83.8418 762.864,77.0354 763.765,74.4356 764.667,77.0354 765.568,83.8418 766.47,92.2549 767.371,99.0613 768.273,101.661 769.174,99.0613 770.076,92.2549 770.977,83.8418 771.879,77.0354 772.78,74.4356 773.682,77.0354 774.583,83.8418 775.485,92.2549 776.386,99.0613 777.288,101.661 778.189,99.0613 779.091,92.2549 779.992,83.8418 780.894,77.0354 781.795,74.4356 782.697,77.0354 783.598,83.8418 784.5,92.2549 785.401,99.0613 786.303,101.661 787.204,99.0613 788.106,92.2549 789.007,83.8418 789.909,77.0354 790.81,74.4356 791.712,77.0354 792.613,83.8418 793.515,92.2549 794.416,99.0613 795.318,101.661 796.219,99.0613 797.121,92.2549 798.022,83.8418 798.924,77.0354 799.825,74.4356 800.727,77.0354 801.628,83.8418 802.53,92.2549 803.431,99.0613 804.333,101.661 805.234,99.0613 806.136,92.2549 807.037,83.8418 807.939,77.0354 808.84,74.4356 809.742,77.0354 810.643,83.8418 811.545,92.2549 812.446,99.0613 813.348,101.661 814.249,99.0613 815.151,92.2549 816.052,83.8418 816.954,77.0354 817.855,74.4356 818.757,77.0354 819.658,83.8418 820.56,92.2549 821.461,99.0613 822.363,101.661 823.264,99.0613 824.166,92.2549 825.067,83.8418 825.969,77.0354 826.87,74.4356 827.772,77.0354 828.673,83.8418 829.575,92.2549 830.476,99.0613 831.378,101.661 832.279,99.0613 833.181,92.2549 834.082,83.8418 834.984,77.0354 835.885,74.4356 836.787,77.0354 837.688,83.8418 838.59,92.2549 839.491,99.0613 840.393,101.661 841.294,99.0613 842.196,92.2549 843.097,83.8418 843.999,77.0354 844.9,74.4356 845.802,77.0354 846.703,83.8418 847.605,92.2549 848.506,99.0613 849.408,101.661 850.309,99.0613 851.211,92.2549 852.112,83.8418 853.014,77.0354 853.915,74.4356 854.817,77.0354 855.718,83.8418 856.62,92.2549 857.521,99.0613 858.423,101.661 859.324,99.0613 860.226,92.2549 861.127,83.8418 862.029,77.0354 862.93,74.4356 863.832,77.0354 864.733,83.8418 865.635,92.2549 866.536,99.0613 867.438,101.661 868.339,99.0613 869.241,92.2549 870.142,83.8418 871.044,77.0354 871.945,74.4356 872.847,77.0354 873.748,83.8418 874.65,92.2549 875.551,99.0613 876.453,101.661 877.354,99.0613 878.256,92.2549 879.157,83.8418 880.059,77.0354 880.96,74.4356 881.862,77.0354 882.763,83.8418 883.665,92.2549 884.566,99.0613 885.468,101.661 886.369,99.0613 887.271,92.2549 888.172,83.8418 889.074,77.0354 889.975,74.4356 890.877,77.0354 891.778,83.8418 892.68,92.2549 893.581,99.0613 894.483,101.661 895.384,99.0613 896.286,92.2549 897.187,83.8418 898.089,77.0354 898.99,74.4356 899.892,77.0354 900.793,83.8418 901.695,92.2549 902.596,99.0613 903.498,101.661 904.399,99.0613 905.301,92.2549 906.202,83.8418 907.104,77.0354 908.005,74.4356 908.907,77.0354 909.808,83.8418 910.71,92.2549 911.611,99.0613 912.513,101.661 913.414,99.0613 914.316,92.2549 915.217,83.8418 916.119,77.0354 917.02,74.4356 917.922,77.0354 918.823,83.8418 919.725,92.2549 920.626,99.0613 921.528,101.661 922.429,99.0613 923.331,92.2549 924.232,83.8418 925.134,77.0354 926.035,74.4356 926.937,77.0354 927.838,83.8418 928.74,92.2549 929.641,99.0613 930.543,101.661 931.444,99.0613 932.346,92.2549 933.247,83.8418 934.149,77.0354 935.05,74.4356 935.952,77.0354 936.853,83.8418 937.755,92.2549 938.656,99.0613 939.558,101.661 940.459,99.0613 941.361,92.2549 942.262,83.8418 943.164,77.0354 944.065,74.4356 944.967,77.0354 945.868,83.8418 946.77,92.2549 947.671,99.0613 948.573,101.661 949.474,99.0613 950.376,92.2549 951.277,83.8418 952.179,77.0354 953.08,74.4356 953.982,77.0354 954.883,83.8418 955.785,92.2549 956.686,99.0613 957.588,101.661 958.489,99.0613 959.391,92.2549 960.292,83.8418 961.194,77.0354 962.095,74.4356 962.997,77.0354 963.898,83.8418 964.8,92.2549 965.701,99.0613 966.603,101.661 967.504,99.0613 968.406,92.2549 969.307,83.8418 970.209,77.0354 971.11,74.4356 972.012,77.0354 972.913,83.8418 973.815,92.2549 974.716,99.0613 975.618,101.661 976.519,99.0613 977.421,92.2549 978.322,83.8418 979.224,77.0354 980.125,74.4356 981.027,77.0354 981.928,83.8418 982.83,92.2549 983.731,99.0613 984.633,101.661 985.534,99.0613 986.436,92.2549 987.337,83.8418 988.239,77.0354 989.14,74.4356 990.042,77.0354 990.943,83.8418 991.845,92.2549 992.746,99.0613 993.648,101.661 994.549,99.0613 995.451,92.2549 996.352,83.8418 997.254,77.0354 998.155,74.4356 999.057,77.0354 999.958,83.8418 1000.86,92.2549 1001.76,99.0613 1002.66,101.661 1003.56,99.0613 1004.47,92.2549 1005.37,83.8418 1006.27,77.0354 1007.17,74.4356 1008.07,77.0354 1008.97,83.8418 1009.87,92.2549 1010.78,99.0613 1011.68,101.661 1012.58,99.0613 1013.48,92.2549 1014.38,83.8418 1015.28,77.0354 1016.19,74.4356 1017.09,77.0354 1017.99,83.8418 1018.89,92.2549 1019.79,99.0613 1020.69,101.661 1021.59,99.0613 1022.5,92.2549 1023.4,83.8418 1024.3,77.0354 1025.2,74.4356 "
     id="polyline18"
     style="fill:none;stroke:#ff0000;stroke-width:1;stroke-opacity:1;stroke-miterlimit:4;stroke-dasharray:none"
     transform="translate(-74,-13)" />
  <polyline
     points="123.701,93.5633 124.603,83.3849 125.504,73.699 126.406,73.2359 127.307,82.3162 128.209,91.9043 129.11,100.906 130.012,103.68 130.913,102.735 131.815,94.1831 132.716,85.5132 133.618,76.7685 134.519,71.5595 135.421,71.7152 136.322,78.5863 137.224,88.1026 138.125,95.8049 139.027,101.4 139.928,102.284 140.83,100.244 141.731,91.8865 142.633,79.616 143.534,73.3729 144.436,72.3356 145.337,78.3399 146.239,87.7146 147.14,94.9983 148.042,97.9846 148.943,96.2607 149.845,93.8714 150.746,86.7273 151.648,82.9664 152.549,82.7983 153.451,82.3715 154.352,83.434 155.254,89.6276 156.155,93.7078 157.057,95.9785 157.958,95.2201 158.86,91.7223 159.761,90.2137 160.663,85.9415 161.564,82.474 162.466,83.5429 163.367,84.3597 164.269,85.3081 165.17,90.5558 166.072,94.8458 166.973,98.2212 167.875,95.5477 168.776,88.0182 169.678,80.677 170.579,77.5015 171.481,78.4992 172.382,83.1223 173.284,90.1208 174.185,93.7663 175.087,95.571 175.988,93.3442 176.89,88.7119 177.791,84.9962 178.693,80.6345 179.594,79.3653 180.496,79.2987 181.397,82.4127 182.299,87.6793 183.2,89.4817 184.102,91.3106 185.003,92.8758 185.905,92.9938 186.806,90.6592 187.708,87.3274 188.609,84.2729 189.511,82.6704 190.412,84.5746 191.314,88.5048 192.215,92.2607 193.117,94.4076 194.018,99.0511 194.92,92.4626 195.821,85.9032 196.723,79.4141 197.624,75.3712 198.526,74.7392 199.427,81.1597 200.329,87.2829 201.23,97.1547 202.132,102.827 203.033,102.604 203.935,94.9483 204.836,81.4795 205.738,72.7057 206.639,70.1061 207.541,74.3598 208.442,85.1984 209.344,93.9691 210.245,101.288 211.147,101.166 212.048,96.5456 212.95,88.6795 213.851,80.0872 214.753,75.003 215.654,73.0036 216.556,79.6966 217.457,87.2507 218.359,95.3943 219.26,103.556 220.162,104.347 221.063,98.3877 221.965,90.0308 222.866,81.9722 223.768,77.6687 224.669,74.442 225.571,76.4125 226.472,82.0366 227.374,90.3519 228.275,99.2797 229.177,103.565 230.078,101.657 230.98,95.219 231.881,84.743 232.783,76.019 233.684,69.7301 234.586,72.4532 235.487,81.099 236.389,95.0871 237.29,100.441 238.192,102.036 239.093,99.7522 239.995,92.3569 240.896,81.9404 241.798,76.7156 242.699,75.8194 243.601,79.5943 244.502,86.5983 245.404,93.2201 246.305,100.077 247.207,102.34 248.108,99.1436 249.01,90.9132 249.911,83.324 250.813,77.5394 251.714,76.7409 252.616,79.4492 253.517,83.3824 254.419,87.2496 255.32,93.1393 256.222,97.9162 257.123,98.9239 258.025,95.7776 258.926,89.9198 259.828,84.9011 260.729,80.8016 261.631,78.713 262.532,82.7126 263.434,87.1125 264.335,94.684 265.237,100.161 266.138,101.168 267.04,98.8464 267.941,90.0404 268.843,81.6588 269.744,78.1044 270.646,75.4937 271.547,75.7096 272.449,85.5049 273.35,93.6287 274.252,100.717 275.153,101.241 276.055,96.3441 276.956,87.7274 277.858,81.9087 278.759,78.5003 279.661,82.4807 280.562,88.798 281.464,92.0661 282.365,95.2893 283.267,93.4609 284.168,90.4755 285.07,86.5688 285.971,83.2123 286.873,81.703 287.774,82.6174 288.676,85.6062 289.577,91.607 290.479,94.2676 291.38,93.9989 292.282,92.6968 293.183,88.146 294.085,84.3518 294.986,80.6997 295.888,77.9503 296.789,81.7223 297.691,90.5996 298.592,95.035 299.494,95.5624 300.395,94.3662 301.297,92.0677 302.198,88.2625 303.1,83.6573 304.001,80.7294 304.903,80.5971 305.804,86.2612 306.706,90.1871 307.607,93.9306 308.509,95.4273 309.41,94.1054 310.312,90.47 311.213,85.9096 312.115,81.6764 313.016,80.5541 313.918,82.2943 314.819,84.7688 315.721,88.8081 316.622,92.5572 317.524,94.5841 318.425,95.037 319.327,89.7655 320.228,86.1596 321.13,83.0231 322.031,81.6173 322.933,84.4721 323.834,86.3321 324.736,96.8386 325.637,100.252 326.539,98.2615 327.44,92.9512 328.342,88.0841 329.243,82.6927 330.145,79.5758 331.046,81.3385 331.948,83.2789 332.849,87.041 333.751,91.1879 334.652,89.867 335.554,90.9632 336.455,89.5463 337.357,88.796 338.258,88.156 339.16,86.9056 340.061,86.131 340.963,84.4537 341.864,83.635 342.766,85.4276 343.667,91.9565 344.569,96.7732 345.47,99.1129 346.372,94.6476 347.273,87.9699 348.175,79.5537 349.076,79.0859 349.978,80.3899 350.879,82.1174 351.781,88.3713 352.682,95.9491 353.584,100.509 354.485,99.3567 355.387,94.5453 356.288,87.1752 357.19,79.9172 358.091,75.765 358.993,76.3046 359.894,81.3299 360.796,88.9214 361.697,96.2827 362.599,100.752 363.5,100.285 364.402,95.1436 365.303,84.4748 366.205,76.5361 367.106,79.514 368.008,86.4649 368.909,91.851 369.811,95.48 370.712,94.6802 371.614,91.8044 372.515,85.3367 373.417,82.2725 374.318,81.4352 375.22,83.1239 376.121,86.6936 377.023,88.6277 377.924,92.5532 378.826,92.2403 379.727,88.098 380.629,84.9104 381.53,81.0091 382.432,79.7966 383.333,80.5078 384.235,83.9666 385.136,88.0136 386.038,93.934 386.939,95.8337 387.841,94.3189 388.742,91.7728 389.644,87.1246 390.545,83.9159 391.447,79.2426 392.348,77.9328 393.25,82.9571 394.151,82.6842 395.053,88.2017 395.954,93.1628 396.856,94.2679 397.757,95.4253 398.659,96.6475 399.56,95.8725 400.462,89.0387 401.363,83.9779 402.265,80.4719 403.166,78.5885 404.068,81.1666 404.969,86.3733 405.871,94.1564 406.772,98.8897 407.674,100.275 408.575,96.9904 409.477,90.2901 410.378,82.7335 411.28,77.9736 412.181,78.3573 413.083,83.6339 413.984,91.2748 414.886,96.9045 415.787,98.5511 416.689,96.186 417.59,90.5596 418.492,85.4074 419.393,80.3674 420.295,77.3048 421.196,76.4872 422.098,80.38 422.999,87.0941 423.9,93.0538 424.802,97.1017 425.703,97.6914 426.605,96.6646 427.506,90.0161 428.408,83.2622 429.309,78.8509 430.211,78.9903 431.112,83.0563 432.014,88.0491 432.915,93.1362 433.817,96.7595 434.718,96.3121 435.62,91.1426 436.521,83.3391 437.423,79.0012 438.324,82.4304 439.226,85.0243 440.127,89.0775 441.029,93.9698 441.93,92.8629 442.832,89.9171 443.733,85.7285 444.635,81.3472 445.536,81.3039 446.438,80.7376 447.339,86.4015 448.241,92.6945 449.142,97.4503 450.044,100.496 450.945,96.3374 451.847,89.0121 452.748,80.3966 453.65,74.062 454.551,73.0698 455.453,77.7449 456.354,85.7703 457.256,96.7574 458.157,104.314 459.059,106.097 459.96,101.201 460.862,92.575 461.763,81.2588 462.665,71.5541 463.566,67.6933 464.468,72.4139 465.369,82.4061 466.271,93.0892 467.172,101.353 468.074,103.067 468.975,98.7265 469.877,89.0841 470.778,79.218 471.68,69.8858 472.581,69.5679 473.483,78.378 474.384,90.6788 475.286,101.461 476.187,108.206 477.089,104.674 477.99,94.8247 478.892,81.5312 479.793,70.695 480.695,66.0437 481.596,69.0444 482.498,78.403 483.399,89.7683 484.301,101.762 485.202,108.214 486.104,108.024 487.005,101.895 487.907,88.5059 488.808,74.9419 489.71,67.2559 490.611,67.2742 491.513,77.0524 492.414,91.0669 493.316,102.028 494.217,107.591 495.119,105.924 496.02,97.4281 496.922,84.679 497.823,74.5598 498.725,67.6571 499.626,70.9995 500.528,77.1106 501.429,89.3942 502.331,103.387 503.232,108.947 504.134,105.584 505.035,98.3488 505.937,86.265 506.838,74.4725 507.74,67.1047 508.641,67.9847 509.543,76.5283 510.444,89.7362 511.346,102.051 512.247,108.272 513.149,107.513 514.05,99.3197 514.952,84.8288 515.853,72.933 516.755,66.3915 517.656,67.9975 518.558,76.302 519.459,91.7108 520.361,102.884 521.262,110.57 522.164,112.284 523.065,102.512 523.967,87.1306 524.868,71.9188 525.77,63.8159 526.671,64.969 527.573,74.9376 528.474,88.9066 529.376,102.472 530.277,110.958 531.179,110.768 532.08,102.233 532.982,86.8826 533.883,73.0389 534.785,65.3865 535.686,69.967 536.588,77.9884 537.489,90.0472 538.391,101.063 539.292,104.859 540.194,99.3359 541.095,92.1864 541.997,81.6971 542.898,73.5878 543.8,70.6811 544.701,75.41 545.603,81.407 546.504,90.3856 547.406,98.6249 548.307,101.886 549.209,102.171 550.11,97.3093 551.012,89.13 551.913,79.5665 552.815,76.5211 553.716,78.2848 554.618,82.2658 555.519,88.4555 556.421,93.9736 557.322,97.1157 558.224,96.7944 559.125,93.1324 560.027,87.5284 560.928,81.3845 561.83,79.4456 562.731,83.3122 563.633,86.5012 564.534,92.2468 565.436,95.5799 566.337,97.4576 567.239,91.5845 568.14,82.3224 569.042,78.0459 569.943,74.5517 570.845,75.081 571.746,81.9209 572.648,90.6163 573.549,98.3308 574.451,102.185 575.352,102.836 576.254,98.2741 577.155,88.56 578.057,79.2999 578.958,75.3284 579.86,74.1126 580.761,79.6195 581.663,86.7273 582.564,94.3227 583.466,100.876 584.367,100.679 585.269,94.0353 586.17,85.1046 587.072,77.4501 587.973,72.9193 588.875,73.9637 589.776,80.1376 590.678,93.1933 591.579,102.104 592.481,105.183 593.382,100.517 594.284,91.0874 595.185,80.4975 596.087,74.1608 596.988,71.2344 597.89,75.2708 598.791,86.2752 599.693,96.163 600.594,102.81 601.496,102.392 602.397,96.2992 603.299,85.5766 604.2,78.0025 605.102,70.4782 606.003,72.1209 606.905,79.8474 607.806,90.7063 608.708,98.0231 609.609,103.102 610.511,102.483 611.412,95.5344 612.314,85.0193 613.215,77.2557 614.117,73.6146 615.018,78.483 615.92,84.2142 616.821,92.364 617.723,96.7733 618.624,96.0719 619.526,94.5445 620.427,89.561 621.329,85.3809 622.23,82.5486 623.132,80.1679 624.033,80.7973 624.935,81.6898 625.836,86.5242 626.738,91.9408 627.639,97.2931 628.541,98.6774 629.442,97.0041 630.344,91.8784 631.245,85.7259 632.147,80.4605 633.048,80.4429 633.95,83.9509 634.851,86.4971 635.753,91.0666 636.654,97.7048 637.556,103.996 638.457,104.218 639.359,97.1098 640.26,86.5401 641.162,76.5466 642.063,72.1362 642.965,75.0986 643.866,80.6984 644.768,90.8371 645.669,99.9106 646.571,104.497 647.472,101.768 648.374,93.7458 649.275,87.3524 650.177,77.912 651.078,73.7561 651.98,77.7435 652.881,82.5393 653.783,89.4394 654.684,94.6684 655.586,100.164 656.487,99.0148 657.389,93.6765 658.29,84.0801 659.192,79.6297 660.093,77.2207 660.995,79.8173 661.896,89.8797 662.798,96.5018 663.699,98.7798 664.601,96.9588 665.502,92.6481 666.404,83.7752 667.305,76.4022 668.207,73.3169 669.108,78.0611 670.01,88.664 670.911,94.3036 671.813,97.5538 672.714,99.8782 673.616,95.806 674.517,87.0845 675.419,78.7311 676.32,73.794 677.222,75.8414 678.123,83.4992 679.025,90.8114 679.926,95.1135 680.828,96.7183 681.729,95.0114 682.631,92.5834 683.532,86.6908 684.434,78.5142 685.335,76.7144 686.237,79.7742 687.138,85.9944 688.04,92.4727 688.941,96.5915 689.843,95.6991 690.744,92.7876 691.646,88.4631 692.547,84.1463 693.449,81.5141 694.35,81.2228 695.252,84.7207 696.153,89.6123 697.055,95.9953 697.956,98.5755 698.858,96.9989 699.759,89.9201 700.661,84.7736 701.562,78.7388 702.464,78.9214 703.365,82.2074 704.267,88.6877 705.168,93.8357 706.07,97.8619 706.971,100.818 707.873,98.5404 708.774,91.9074 709.676,83.8004 710.577,76.0116 711.479,76.2703 712.38,79.7745 713.282,87.3994 714.183,95.4822 715.085,103.293 715.986,103.946 716.888,95.5264 717.789,84.4679 718.691,74.777 719.592,69.1762 720.494,70.5326 721.395,82.097 722.297,92.5387 723.198,100.788 724.1,104.172 725.001,100.008 725.902,93.6076 726.804,82.3869 727.705,73.6097 728.607,73.5655 729.508,75.7443 730.41,82.3065 731.311,91.7547 732.213,97.2296 733.114,100.357 734.016,99.009 734.917,94.591 735.819,87.674 736.72,80.9 737.622,79.3312 738.523,78.4232 739.425,81.1916 740.326,86.5791 741.228,92.5277 742.129,96.7654 743.031,95.9867 743.932,95.1509 744.834,89.9647 745.735,83.6645 746.637,79.7194 747.538,79.5751 748.44,80.3272 749.341,86.1028 750.243,92.6215 751.144,97.3935 752.046,99.2979 752.947,95.1739 753.849,87.2042 754.75,79.3531 755.652,73.1541 756.553,71.2151 757.455,78.3172 758.356,90.1063 759.258,101.33 760.159,109.283 761.061,106.127 761.962,97.9629 762.864,86.0418 763.765,72.9292 764.667,66.0666 765.568,68.6833 766.47,75.1987 767.371,88.8674 768.273,97.4487 769.174,103.999 770.076,104.456 770.977,102.088 771.879,91.7558 772.78,77.3764 773.682,66.3646 774.583,63.6809 775.485,71.5638 776.386,85.1431 777.288,100.766 778.189,110.739 779.091,115.142 779.992,107.886 780.894,95.4816 781.795,80.8684 782.697,67.88 783.598,62.5952 784.5,65.0147 785.401,78.7029 786.303,98.1714 787.204,113.386 788.106,118.923 789.007,111.797 789.909,97.477 790.81,79.5555 791.712,67.0239 792.613,61.0769 793.515,69.1882 794.416,80.6836 795.318,94.3916 796.219,107.158 797.121,112.631 798.022,107.274 798.924,95.2597 799.825,80.8824 800.727,69.5188 801.628,64.778 802.53,69.1633 803.431,80.5577 804.333,96.1061 805.234,105.676 806.136,109.254 807.037,104.733 807.939,92.7048 808.84,77.6864 809.742,65.9025 810.643,63.7227 811.545,71.6867 812.446,84.065 813.348,98.9013 814.249,109.592 815.151,110.845 816.052,103.164 816.954,89.043 817.855,77.9235 818.757,71.358 819.658,71.3961 820.56,77.629 821.461,85.8732 822.363,95.1845 823.264,99.1456 824.166,99.1978 825.067,98.7227 825.969,94.1652 826.87,84.6212 827.772,78.3064 828.673,75.5854 829.575,77.6248 830.476,84.1335 831.378,92.1577 832.279,98.6123 833.181,101.212 834.082,97.4312 834.984,90.7622 835.885,81.929 836.787,79.2886 837.688,77.9415 838.59,78.0834 839.491,84.8768 840.393,92.4482 841.294,97.9531 842.196,102.019 843.097,99.2434 843.999,92.192 844.9,86.62 845.802,79.1926 846.703,74.651 847.605,74.8507 848.506,78.1965 849.408,88.4494 850.309,98.5491 851.211,104.843 852.112,102.694 853.014,98.818 853.915,88.2338 854.817,77.5865 855.718,68.4122 856.62,72.3456 857.521,79.2605 858.423,89.532 859.324,99.2368 860.226,103.406 861.127,102.962 862.029,97.0196 862.93,85.2577 863.832,76.2378 864.733,72.9222 865.635,73.4148 866.536,86.5938 867.438,96.7461 868.339,102.83 869.241,104.476 870.142,97.1729 871.044,90.6413 871.945,81.5599 872.847,73.4724 873.748,70.9524 874.65,74.9625 875.551,81.5028 876.453,92.7839 877.354,99.8842 878.256,105.965 879.157,106.031 880.059,96.3114 880.96,87.3645 881.862,78.6438 882.763,74.9349 883.665,74.9095 884.566,79.1789 885.468,90.0715 886.369,99.4949 887.271,104.535 888.172,103.277 889.074,97.7304 889.975,87.8773 890.877,83.4278 891.778,77.5881 892.68,75.3729 893.581,77.9994 894.483,84.4642 895.384,91.1838 896.286,98.8863 897.187,104.063 898.089,101.76 898.99,92.2319 899.892,86.5625 900.793,81.6215 901.695,76.5302 902.596,78.1739 903.498,83.5894 904.399,90.649 905.301,96.8351 906.202,102.055 907.104,98.7802 908.005,89.1275 908.907,79.0767 909.808,72.2798 910.71,70.6894 911.611,74.8954 912.513,82.4803 913.414,92.2551 914.316,100.423 915.217,103.864 916.119,101.264 917.02,92.8111 917.922,81.9645 918.823,76.7301 919.725,75.8188 920.626,80.2731 921.528,87.8728 922.429,91.4903 923.331,96.1946 924.232,99.1453 925.134,96.4488 926.035,90.2364 926.937,82.7257 927.838,77.2481 928.74,75.8958 929.641,79.1853 930.543,87.2218 931.444,92.1531 932.346,95.8957 933.247,97.3451 934.149,95.0524 935.05,90.4189 935.952,83.3437 936.853,79.386 937.755,79.561 938.656,82.9066 939.558,88.8427 940.459,91.6129 941.361,96.2474 942.262,99.9565 943.164,100.629 944.065,94.2055 944.967,83.537 945.868,76.9671 946.77,74.4624 947.671,74.8272 948.573,84.6401 949.474,94.7013 950.376,105.899 951.277,108.8 952.179,103.609 953.08,95.148 953.982,82.1606 954.883,71.0706 955.785,65.9243 956.686,71.2255 957.588,80.7356 958.489,98.5528 959.391,110.018 960.292,113.092 961.194,105.425 962.095,93.67 962.997,80.3246 963.898,68.2619 964.8,65.0203 965.701,70.5745 966.603,83.2822 967.504,98.4935 968.406,107.891 969.307,109.834 970.209,103.81 971.11,91.1097 972.012,77.2396 972.913,68.137 973.815,66.2136 974.716,72.5302 975.618,84.7742 976.519,97.8416 977.421,104.467 978.322,108.847 979.224,101.278 980.125,86.0723 981.027,74.8169 981.928,67.5556 982.83,68.7157 983.731,77.2603 984.633,89.9255 985.534,102.153 986.436,108.697 987.337,105.937 988.239,93.9399 989.14,83.6643 990.042,72.8845 990.943,68.2651 991.845,73.7996 992.746,83.0048 993.648,94.1365 994.549,102.943 995.451,105.979 996.352,100.662 997.254,89.3739 998.155,77.0176 999.057,68.783 999.958,69.2668 1000.86,75.6912 1001.76,86.2669 1002.66,99.5179 1003.56,108.371 1004.47,108.192 1005.37,98.919 1006.27,87.8452 1007.17,76.849 1008.07,70.1306 1008.97,72.2306 1009.87,79.109 1010.78,89.4019 1011.68,99.1778 1012.58,106.471 1013.48,106.36 1014.38,99.2543 1015.28,87.8686 1016.19,76.5515 1017.09,71.3891 1017.99,72.3082 1018.89,77.5794 1019.79,84.2747 1020.69,94.4684 1021.59,102.21 1022.5,104.542 1023.4,100.574 1024.3,93.0073 1025.2,82.7543 "
     id="polyline20"
     style="fill:none;stroke:#3f3d99;stroke-width:2px;stroke-opacity:1"
     transform="translate(-74,-13)" />
  <polyline
     points="104,88.0483 1035.47,88.0483 "
     id="polyline27"
     style="fill:none;stroke:#000000;stroke-width:1;stroke-opacity:1;stroke-miterlimit:4;stroke-dasharray:none"
     transform="translate(-74,-13)" />
  <polygon
     points="1035.34,87.3462 1035.43,87.7272 1035.47,88.0483 1035.43,88.3389 1035.34,88.7149 1035.2,89.138 1035.04,89.5698 1034.74,90.3072 1034.6,90.6209 1044,88.0483 1034.6,85.5746 1034.6,85.5746 1034.74,85.856 1035.04,86.531 1035.2,86.9369 "
     id="polygon34"
     style="fill:#000000;fill-rule:evenodd;stroke:none"
     transform="translate(-74,-13)" />
  <polyline
     points="122.8,137 122.8,51.5324 "
     id="polyline48"
     style="fill:none;stroke:#000000;stroke-width:1;stroke-opacity:1;stroke-miterlimit:4;stroke-dasharray:none"
     transform="translate(-74,-13)" />
  <polygon
     points="122.098,51.6618 122.479,51.5655 122.8,51.5324 123.091,51.5655 123.467,51.6618 123.89,51.8005 124.321,51.9606 125.059,52.2622 125.373,52.4 122.8,43 120.326,52.4 120.326,52.4 120.608,52.2622 121.283,51.9606 121.689,51.8005 "
     id="polygon55"
     style="fill:#000000;fill-rule:evenodd;stroke:none"
     transform="translate(-74,-13)" />
  <defs
     id="defs64">
    <clipPath
       id="cp8">
      <polygon
         points="21,15 21,-1 -1,-1 -1,15 "
         id="polygon60" />
    </clipPath>
    <clipPath
       id="cp7">
      <polygon
         points="1074,167 1074,13 74,13 74,167 "
         id="polygon53" />
    </clipPath>
    <clipPath
       id="cp6">
      <polygon
         points="1074,167 1074,13 74,13 74,167 "
         id="polygon46" />
    </clipPath>
    <clipPath
       id="cp5">
      <polygon
         points="5,15 5,-1 -1,-1 -1,15 "
         id="polygon39" />
    </clipPath>
    <clipPath
       id="cp4">
      <polygon
         points="1074,167 1074,13 74,13 74,167 "
         id="polygon32" />
    </clipPath>
    <clipPath
       id="cp3">
      <polygon
         points="1074,167 1074,13 74,13 74,167 "
         id="polygon25" />
    </clipPath>
    <clipPath
       id="cp2">
      <polygon
         points="1045,137 1045,43 103,43 103,137 "
         id="polygon16" />
    </clipPath>
    <clipPath
       id="cp1">
      <polygon
         points="4.49423e+307,4.49423e+307 4.49423e+307,-4.49423e+307 -4.49423e+307,-4.49423e+307 -4.49423e+307,4.49423e+307 "
         id="polygon9" />
    </clipPath>
  </defs>
  <text
     xml:space="preserve"
     style="font-size:22px;font-style:normal;font-variant:normal;font-weight:normal;font-stretch:normal;line-height:125%;letter-spacing:0px;word-spacing:0px;fill:#000000;fill-opacity:1;stroke:none;font-family:Nimbus Sans L;-inkscape-font-specification:Sans"
     x="970.21509"
     y="86.194702"
     id="text3995-5"
     sodipodi:linespacing="125%"><tspan
       sodipodi:role="line"
       id="tspan3997-7"
       x="970.21509"
       y="86.194702"
       style="font-size:18px;font-style:italic;font-variant:normal;font-weight:normal;font-stretch:normal;font-family:Nimbus Roman No9 L;-inkscape-font-specification:Nimbus Roman No9 L Italic">t</tspan></text>
  <text
     xml:space="preserve"
     style="font-size:22px;font-style:normal;font-variant:normal;font-weight:normal;font-stretch:normal;line-height:125%;letter-spacing:0px;word-spacing:0px;fill:#000000;fill-opacity:1;stroke:none;font-family:Nimbus Sans L;-inkscape-font-specification:Sans"
     x="27.033669"
     y="15.885762"
     id="text4654"
     sodipodi:linespacing="125%"><tspan
       sodipodi:role="line"
       id="tspan4656"
       x="27.033669"
       y="15.885762" /></text>
  <text
     xml:space="preserve"
     style="font-size:22px;font-style:normal;font-variant:normal;font-weight:normal;font-stretch:normal;line-height:125%;letter-spacing:0px;word-spacing:0px;fill:#000000;fill-opacity:1;stroke:none;font-family:Nimbus Sans L;-inkscape-font-specification:Sans"
     x="6.8541002"
     y="39.164181"
     id="text3995"
     sodipodi:linespacing="125%"><tspan
       sodipodi:role="line"
       id="tspan3997"
       x="6.8541002"
       y="39.164181"
       style="font-size:18px;font-style:italic;font-variant:normal;font-weight:normal;font-stretch:normal;font-family:Nimbus Roman No9 L;-inkscape-font-specification:Nimbus Roman No9 L Italic"><tspan
   style="font-style:normal;-inkscape-font-specification:Nimbus Roman No9 L"
   id="tspan4684"><tspan
   style="font-style:normal;font-variant:normal;font-weight:normal;font-stretch:normal;font-family:eufm10;-inkscape-font-specification:eufm10"
   id="tspan4686">R</tspan>(</tspan>E<tspan
   style="font-style:normal;-inkscape-font-specification:Nimbus Roman No9 L"
   id="tspan4682">)</tspan></tspan></text>
</svg>
