<?xml version="1.0" encoding="UTF-8" standalone="no"?>
<svg
   xmlns:dc="http://purl.org/dc/elements/1.1/"
   xmlns:cc="http://creativecommons.org/ns#"
   xmlns:rdf="http://www.w3.org/1999/02/22-rdf-syntax-ns#"
   xmlns:svg="http://www.w3.org/2000/svg"
   xmlns="http://www.w3.org/2000/svg"
   xmlns:sodipodi="http://sodipodi.sourceforge.net/DTD/sodipodi-0.dtd"
   xmlns:inkscape="http://www.inkscape.org/namespaces/inkscape"
   version="1.1"
   id="svg2"
   inkscape:version="0.92.3 (2405546, 2018-03-11)"
   width="778.94122"
   height="82.218094"
   sodipodi:docname="02_fluktuacije02.svg"
   inkscape:export-filename="/home/mojca/Delo/FotonikaSkripta/MojcaNova/02_fluktuacije.png"
   inkscape:export-xdpi="299"
   inkscape:export-ydpi="299"
   viewBox="0 0 730.25739 77.07946">
  <metadata
     id="metadata68">
    <rdf:RDF>
      <cc:Work
         rdf:about="">
        <dc:format>image/svg+xml</dc:format>
        <dc:type
           rdf:resource="http://purl.org/dc/dcmitype/StillImage" />
        <dc:title></dc:title>
      </cc:Work>
    </rdf:RDF>
  </metadata>
  <sodipodi:namedview
     pagecolor="#ffffff"
     bordercolor="#666666"
     borderopacity="1"
     objecttolerance="10"
     gridtolerance="10"
     guidetolerance="10"
     inkscape:pageopacity="0"
     inkscape:pageshadow="2"
     inkscape:window-width="1707"
     inkscape:window-height="625"
     id="namedview66"
     showgrid="false"
     inkscape:zoom="2.0296782"
     inkscape:cx="389.47061"
     inkscape:cy="41.109047"
     inkscape:window-x="153"
     inkscape:window-y="176"
     inkscape:window-maximized="0"
     inkscape:current-layer="svg2"
     fit-margin-top="0"
     fit-margin-left="0"
     fit-margin-right="0"
     fit-margin-bottom="0" />
  <defs
     id="defs64">
    <clipPath
       id="cp8">
      <polygon
         points="21,15 21,-1 -1,-1 -1,15 "
         id="polygon60" />
    </clipPath>
    <clipPath
       id="cp7">
      <polygon
         points="1074,167 1074,13 74,13 74,167 "
         id="polygon53" />
    </clipPath>
    <clipPath
       id="cp6">
      <polygon
         points="1074,167 1074,13 74,13 74,167 "
         id="polygon46" />
    </clipPath>
    <clipPath
       id="cp5">
      <polygon
         points="5,15 5,-1 -1,-1 -1,15 "
         id="polygon39" />
    </clipPath>
    <clipPath
       id="cp4">
      <polygon
         points="1074,167 1074,13 74,13 74,167 "
         id="polygon32" />
    </clipPath>
    <clipPath
       id="cp3">
      <polygon
         points="1074,167 1074,13 74,13 74,167 "
         id="polygon25" />
    </clipPath>
    <clipPath
       id="cp2">
      <polygon
         points="1045,137 1045,43 103,43 103,137 "
         id="polygon16" />
    </clipPath>
    <clipPath
       id="cp1">
      <polygon
         points="4.49423e+307,4.49423e+307 4.49423e+307,-4.49423e+307 -4.49423e+307,-4.49423e+307 -4.49423e+307,4.49423e+307 "
         id="polygon9" />
    </clipPath>
  </defs>
  <text
     xml:space="preserve"
     style="font-style:normal;font-variant:normal;font-weight:normal;font-stretch:normal;line-height:0%;font-family:'Nimbus Sans L';-inkscape-font-specification:Sans;letter-spacing:0px;word-spacing:0px;fill:#000000;fill-opacity:1;stroke:none"
     x="21.234583"
     y="-91.419418"
     id="text4654"><tspan
       sodipodi:role="line"
       id="tspan4656"
       x="21.234583"
       y="-91.419418"
       style="font-size:22px;line-height:1.25"> </tspan></text>
  <rect
     x="16.83972"
     y="0"
     width="704.88739"
     height="77.07946"
     id="rect11-3"
     style="fill:#ffffff;stroke:none" />
  <polyline
     points="123.701,74.4356 124.603,77.0354 125.504,83.8418 126.406,92.2549 127.307,99.0613 128.209,101.661 129.11,99.0613 130.012,92.2549 130.913,83.8418 131.815,77.0354 132.716,74.4356 133.618,77.0354 134.519,83.8418 135.421,92.2549 136.322,99.0613 137.224,101.661 138.125,99.0613 139.027,92.2549 139.928,83.8418 140.83,77.0354 141.731,74.4356 142.633,77.0354 143.534,83.8418 144.436,92.2549 145.337,99.0613 146.239,101.661 147.14,99.0613 148.042,92.2549 148.943,83.8418 149.845,77.0354 150.746,74.4356 151.648,77.0354 152.549,83.8418 153.451,92.2549 154.352,99.0613 155.254,101.661 156.155,99.0613 157.057,92.2549 157.958,83.8418 158.86,77.0354 159.761,74.4356 160.663,77.0354 161.564,83.8418 162.466,92.2549 163.367,99.0613 164.269,101.661 165.17,99.0613 166.072,92.2549 166.973,83.8418 167.875,77.0354 168.776,74.4356 169.678,77.0354 170.579,83.8418 171.481,92.2549 172.382,99.0613 173.284,101.661 174.185,99.0613 175.087,92.2549 175.988,83.8418 176.89,77.0354 177.791,74.4356 178.693,77.0354 179.594,83.8418 180.496,92.2549 181.397,99.0613 182.299,101.661 183.2,99.0613 184.102,92.2549 185.003,83.8418 185.905,77.0354 186.806,74.4356 187.708,77.0354 188.609,83.8418 189.511,92.2549 190.412,99.0613 191.314,101.661 192.215,99.0613 193.117,92.2549 194.018,83.8418 194.92,77.0354 195.821,74.4356 196.723,77.0354 197.624,83.8418 198.526,92.2549 199.427,99.0613 200.329,101.661 201.23,99.0613 202.132,92.2549 203.033,83.8418 203.935,77.0354 204.836,74.4356 205.738,77.0354 206.639,83.8418 207.541,92.2549 208.442,99.0613 209.344,101.661 210.245,99.0613 211.147,92.2549 212.048,83.8418 212.95,77.0354 213.851,74.4356 214.753,77.0354 215.654,83.8418 216.556,92.2549 217.457,99.0613 218.359,101.661 219.26,99.0613 220.162,92.2549 221.063,83.8418 221.965,77.0354 222.866,74.4356 223.768,77.0354 224.669,83.8418 225.571,92.2549 226.472,99.0613 227.374,101.661 228.275,99.0613 229.177,92.2549 230.078,83.8418 230.98,77.0354 231.881,74.4356 232.783,77.0354 233.684,83.8418 234.586,92.2549 235.487,99.0613 236.389,101.661 237.29,99.0613 238.192,92.2549 239.093,83.8418 239.995,77.0354 240.896,74.4356 241.798,77.0354 242.699,83.8418 243.601,92.2549 244.502,99.0613 245.404,101.661 246.305,99.0613 247.207,92.2549 248.108,83.8418 249.01,77.0354 249.911,74.4356 250.813,77.0354 251.714,83.8418 252.616,92.2549 253.517,99.0613 254.419,101.661 255.32,99.0613 256.222,92.2549 257.123,83.8418 258.025,77.0354 258.926,74.4356 259.828,77.0354 260.729,83.8418 261.631,92.2549 262.532,99.0613 263.434,101.661 264.335,99.0613 265.237,92.2549 266.138,83.8418 267.04,77.0354 267.941,74.4356 268.843,77.0354 269.744,83.8418 270.646,92.2549 271.547,99.0613 272.449,101.661 273.35,99.0613 274.252,92.2549 275.153,83.8418 276.055,77.0354 276.956,74.4356 277.858,77.0354 278.759,83.8418 279.661,92.2549 280.562,99.0613 281.464,101.661 282.365,99.0613 283.267,92.2549 284.168,83.8418 285.07,77.0354 285.971,74.4356 286.873,77.0354 287.774,83.8418 288.676,92.2549 289.577,99.0613 290.479,101.661 291.38,99.0613 292.282,92.2549 293.183,83.8418 294.085,77.0354 294.986,74.4356 295.888,77.0354 296.789,83.8418 297.691,92.2549 298.592,99.0613 299.494,101.661 300.395,99.0613 301.297,92.2549 302.198,83.8418 303.1,77.0354 304.001,74.4356 304.903,77.0354 305.804,83.8418 306.706,92.2549 307.607,99.0613 308.509,101.661 309.41,99.0613 310.312,92.2549 311.213,83.8418 312.115,77.0354 313.016,74.4356 313.918,77.0354 314.819,83.8418 315.721,92.2549 316.622,99.0613 317.524,101.661 318.425,99.0613 319.327,92.2549 320.228,83.8418 321.13,77.0354 322.031,74.4356 322.933,77.0354 323.834,83.8418 324.736,92.2549 325.637,99.0613 326.539,101.661 327.44,99.0613 328.342,92.2549 329.243,83.8418 330.145,77.0354 331.046,74.4356 331.948,77.0354 332.849,83.8418 333.751,92.2549 334.652,99.0613 335.554,101.661 336.455,99.0613 337.357,92.2549 338.258,83.8418 339.16,77.0354 340.061,74.4356 340.963,77.0354 341.864,83.8418 342.766,92.2549 343.667,99.0613 344.569,101.661 345.47,99.0613 346.372,92.2549 347.273,83.8418 348.175,77.0354 349.076,74.4356 349.978,77.0354 350.879,83.8418 351.781,92.2549 352.682,99.0613 353.584,101.661 354.485,99.0613 355.387,92.2549 356.288,83.8418 357.19,77.0354 358.091,74.4356 358.993,77.0354 359.894,83.8418 360.796,92.2549 361.697,99.0613 362.599,101.661 363.5,99.0613 364.402,92.2549 365.303,83.8418 366.205,77.0354 367.106,74.4356 368.008,77.0354 368.909,83.8418 369.811,92.2549 370.712,99.0613 371.614,101.661 372.515,99.0613 373.417,92.2549 374.318,83.8418 375.22,77.0354 376.121,74.4356 377.023,77.0354 377.924,83.8418 378.826,92.2549 379.727,99.0613 380.629,101.661 381.53,99.0613 382.432,92.2549 383.333,83.8418 384.235,77.0354 385.136,74.4356 386.038,77.0354 386.939,83.8418 387.841,92.2549 388.742,99.0613 389.644,101.661 390.545,99.0613 391.447,92.2549 392.348,83.8418 393.25,77.0354 394.151,74.4356 395.053,77.0354 395.954,83.8418 396.856,92.2549 397.757,99.0613 398.659,101.661 399.56,99.0613 400.462,92.2549 401.363,83.8418 402.265,77.0354 403.166,74.4356 404.068,77.0354 404.969,83.8418 405.871,92.2549 406.772,99.0613 407.674,101.661 408.575,99.0613 409.477,92.2549 410.378,83.8418 411.28,77.0354 412.181,74.4356 413.083,77.0354 413.984,83.8418 414.886,92.2549 415.787,99.0613 416.689,101.661 417.59,99.0613 418.492,92.2549 419.393,83.8418 420.295,77.0354 421.196,74.4356 422.098,77.0354 422.999,83.8418 423.9,92.2549 424.802,99.0613 425.703,101.661 426.605,99.0613 427.506,92.2549 428.408,83.8418 429.309,77.0354 430.211,74.4356 431.112,77.0354 432.014,83.8418 432.915,92.2549 433.817,99.0613 434.718,101.661 435.62,99.0613 436.521,92.2549 437.423,83.8418 438.324,77.0354 439.226,74.4356 440.127,77.0354 441.029,83.8418 441.93,92.2549 442.832,99.0613 443.733,101.661 444.635,99.0613 445.536,92.2549 446.438,83.8418 447.339,77.0354 448.241,74.4356 449.142,77.0354 450.044,83.8418 450.945,92.2549 451.847,99.0613 452.748,101.661 453.65,99.0613 454.551,92.2549 455.453,83.8418 456.354,77.0354 457.256,74.4356 458.157,77.0354 459.059,83.8418 459.96,92.2549 460.862,99.0613 461.763,101.661 462.665,99.0613 463.566,92.2549 464.468,83.8418 465.369,77.0354 466.271,74.4356 467.172,77.0354 468.074,83.8418 468.975,92.2549 469.877,99.0613 470.778,101.661 471.68,99.0613 472.581,92.2549 473.483,83.8418 474.384,77.0354 475.286,74.4356 476.187,77.0354 477.089,83.8418 477.99,92.2549 478.892,99.0613 479.793,101.661 480.695,99.0613 481.596,92.2549 482.498,83.8418 483.399,77.0354 484.301,74.4356 485.202,77.0354 486.104,83.8418 487.005,92.2549 487.907,99.0613 488.808,101.661 489.71,99.0613 490.611,92.2549 491.513,83.8418 492.414,77.0354 493.316,74.4356 494.217,77.0354 495.119,83.8418 496.02,92.2549 496.922,99.0613 497.823,101.661 498.725,99.0613 499.626,92.2549 500.528,83.8418 501.429,77.0354 502.331,74.4356 503.232,77.0354 504.134,83.8418 505.035,92.2549 505.937,99.0613 506.838,101.661 507.74,99.0613 508.641,92.2549 509.543,83.8418 510.444,77.0354 511.346,74.4356 512.247,77.0354 513.149,83.8418 514.05,92.2549 514.952,99.0613 515.853,101.661 516.755,99.0613 517.656,92.2549 518.558,83.8418 519.459,77.0354 520.361,74.4356 521.262,77.0354 522.164,83.8418 523.065,92.2549 523.967,99.0613 524.868,101.661 525.77,99.0613 526.671,92.2549 527.573,83.8418 528.474,77.0354 529.376,74.4356 530.277,77.0354 531.179,83.8418 532.08,92.2549 532.982,99.0613 533.883,101.661 534.785,99.0613 535.686,92.2549 536.588,83.8418 537.489,77.0354 538.391,74.4356 539.292,77.0354 540.194,83.8418 541.095,92.2549 541.997,99.0613 542.898,101.661 543.8,99.0613 544.701,92.2549 545.603,83.8418 546.504,77.0354 547.406,74.4356 548.307,77.0354 549.209,83.8418 550.11,92.2549 551.012,99.0613 551.913,101.661 552.815,99.0613 553.716,92.2549 554.618,83.8418 555.519,77.0354 556.421,74.4356 557.322,77.0354 558.224,83.8418 559.125,92.2549 560.027,99.0613 560.928,101.661 561.83,99.0613 562.731,92.2549 563.633,83.8418 564.534,77.0354 565.436,74.4356 566.337,77.0354 567.239,83.8418 568.14,92.2549 569.042,99.0613 569.943,101.661 570.845,99.0613 571.746,92.2549 572.648,83.8418 573.549,77.0354 574.451,74.4356 575.352,77.0354 576.254,83.8418 577.155,92.2549 578.057,99.0613 578.958,101.661 579.86,99.0613 580.761,92.2549 581.663,83.8418 582.564,77.0354 583.466,74.4356 584.367,77.0354 585.269,83.8418 586.17,92.2549 587.072,99.0613 587.973,101.661 588.875,99.0613 589.776,92.2549 590.678,83.8418 591.579,77.0354 592.481,74.4356 593.382,77.0354 594.284,83.8418 595.185,92.2549 596.087,99.0613 596.988,101.661 597.89,99.0613 598.791,92.2549 599.693,83.8418 600.594,77.0354 601.496,74.4356 602.397,77.0354 603.299,83.8418 604.2,92.2549 605.102,99.0613 606.003,101.661 606.905,99.0613 607.806,92.2549 608.708,83.8418 609.609,77.0354 610.511,74.4356 611.412,77.0354 612.314,83.8418 613.215,92.2549 614.117,99.0613 615.018,101.661 615.92,99.0613 616.821,92.2549 617.723,83.8418 618.624,77.0354 619.526,74.4356 620.427,77.0354 621.329,83.8418 622.23,92.2549 623.132,99.0613 624.033,101.661 624.935,99.0613 625.836,92.2549 626.738,83.8418 627.639,77.0354 628.541,74.4356 629.442,77.0354 630.344,83.8418 631.245,92.2549 632.147,99.0613 633.048,101.661 633.95,99.0613 634.851,92.2549 635.753,83.8418 636.654,77.0354 637.556,74.4356 638.457,77.0354 639.359,83.8418 640.26,92.2549 641.162,99.0613 642.063,101.661 642.965,99.0613 643.866,92.2549 644.768,83.8418 645.669,77.0354 646.571,74.4356 647.472,77.0354 648.374,83.8418 649.275,92.2549 650.177,99.0613 651.078,101.661 651.98,99.0613 652.881,92.2549 653.783,83.8418 654.684,77.0354 655.586,74.4356 656.487,77.0354 657.389,83.8418 658.29,92.2549 659.192,99.0613 660.093,101.661 660.995,99.0613 661.896,92.2549 662.798,83.8418 663.699,77.0354 664.601,74.4356 665.502,77.0354 666.404,83.8418 667.305,92.2549 668.207,99.0613 669.108,101.661 670.01,99.0613 670.911,92.2549 671.813,83.8418 672.714,77.0354 673.616,74.4356 674.517,77.0354 675.419,83.8418 676.32,92.2549 677.222,99.0613 678.123,101.661 679.025,99.0613 679.926,92.2549 680.828,83.8418 681.729,77.0354 682.631,74.4356 683.532,77.0354 684.434,83.8418 685.335,92.2549 686.237,99.0613 687.138,101.661 688.04,99.0613 688.941,92.2549 689.843,83.8418 690.744,77.0354 691.646,74.4356 692.547,77.0354 693.449,83.8418 694.35,92.2549 695.252,99.0613 696.153,101.661 697.055,99.0613 697.956,92.2549 698.858,83.8418 699.759,77.0354 700.661,74.4356 701.562,77.0354 702.464,83.8418 703.365,92.2549 704.267,99.0613 705.168,101.661 706.07,99.0613 706.971,92.2549 707.873,83.8418 708.774,77.0354 709.676,74.4356 710.577,77.0354 711.479,83.8418 712.38,92.2549 713.282,99.0613 714.183,101.661 715.085,99.0613 715.986,92.2549 716.888,83.8418 717.789,77.0354 718.691,74.4356 719.592,77.0354 720.494,83.8418 721.395,92.2549 722.297,99.0613 723.198,101.661 724.1,99.0613 725.001,92.2549 725.902,83.8418 726.804,77.0354 727.705,74.4356 728.607,77.0354 729.508,83.8418 730.41,92.2549 731.311,99.0613 732.213,101.661 733.114,99.0613 734.016,92.2549 734.917,83.8418 735.819,77.0354 736.72,74.4356 737.622,77.0354 738.523,83.8418 739.425,92.2549 740.326,99.0613 741.228,101.661 742.129,99.0613 743.031,92.2549 743.932,83.8418 744.834,77.0354 745.735,74.4356 746.637,77.0354 747.538,83.8418 748.44,92.2549 749.341,99.0613 750.243,101.661 751.144,99.0613 752.046,92.2549 752.947,83.8418 753.849,77.0354 754.75,74.4356 755.652,77.0354 756.553,83.8418 757.455,92.2549 758.356,99.0613 759.258,101.661 760.159,99.0613 761.061,92.2549 761.962,83.8418 762.864,77.0354 763.765,74.4356 764.667,77.0354 765.568,83.8418 766.47,92.2549 767.371,99.0613 768.273,101.661 769.174,99.0613 770.076,92.2549 770.977,83.8418 771.879,77.0354 772.78,74.4356 773.682,77.0354 774.583,83.8418 775.485,92.2549 776.386,99.0613 777.288,101.661 778.189,99.0613 779.091,92.2549 779.992,83.8418 780.894,77.0354 781.795,74.4356 782.697,77.0354 783.598,83.8418 784.5,92.2549 785.401,99.0613 786.303,101.661 787.204,99.0613 788.106,92.2549 789.007,83.8418 789.909,77.0354 790.81,74.4356 791.712,77.0354 792.613,83.8418 793.515,92.2549 794.416,99.0613 795.318,101.661 796.219,99.0613 797.121,92.2549 798.022,83.8418 798.924,77.0354 799.825,74.4356 800.727,77.0354 801.628,83.8418 802.53,92.2549 803.431,99.0613 804.333,101.661 805.234,99.0613 806.136,92.2549 807.037,83.8418 807.939,77.0354 808.84,74.4356 809.742,77.0354 810.643,83.8418 811.545,92.2549 812.446,99.0613 813.348,101.661 814.249,99.0613 815.151,92.2549 816.052,83.8418 816.954,77.0354 817.855,74.4356 818.757,77.0354 819.658,83.8418 820.56,92.2549 821.461,99.0613 822.363,101.661 823.264,99.0613 824.166,92.2549 825.067,83.8418 825.969,77.0354 826.87,74.4356 827.772,77.0354 828.673,83.8418 829.575,92.2549 830.476,99.0613 831.378,101.661 832.279,99.0613 833.181,92.2549 834.082,83.8418 834.984,77.0354 835.885,74.4356 836.787,77.0354 837.688,83.8418 838.59,92.2549 839.491,99.0613 840.393,101.661 841.294,99.0613 842.196,92.2549 843.097,83.8418 843.999,77.0354 844.9,74.4356 845.802,77.0354 846.703,83.8418 847.605,92.2549 848.506,99.0613 849.408,101.661 850.309,99.0613 851.211,92.2549 852.112,83.8418 853.014,77.0354 853.915,74.4356 854.817,77.0354 855.718,83.8418 856.62,92.2549 857.521,99.0613 858.423,101.661 859.324,99.0613 860.226,92.2549 861.127,83.8418 862.029,77.0354 862.93,74.4356 863.832,77.0354 864.733,83.8418 865.635,92.2549 866.536,99.0613 867.438,101.661 868.339,99.0613 869.241,92.2549 870.142,83.8418 871.044,77.0354 871.945,74.4356 872.847,77.0354 873.748,83.8418 874.65,92.2549 875.551,99.0613 876.453,101.661 877.354,99.0613 878.256,92.2549 879.157,83.8418 880.059,77.0354 880.96,74.4356 881.862,77.0354 882.763,83.8418 883.665,92.2549 884.566,99.0613 885.468,101.661 886.369,99.0613 887.271,92.2549 888.172,83.8418 889.074,77.0354 889.975,74.4356 890.877,77.0354 891.778,83.8418 892.68,92.2549 893.581,99.0613 894.483,101.661 895.384,99.0613 896.286,92.2549 897.187,83.8418 898.089,77.0354 898.99,74.4356 899.892,77.0354 900.793,83.8418 901.695,92.2549 902.596,99.0613 903.498,101.661 904.399,99.0613 905.301,92.2549 906.202,83.8418 907.104,77.0354 908.005,74.4356 908.907,77.0354 909.808,83.8418 910.71,92.2549 911.611,99.0613 912.513,101.661 913.414,99.0613 914.316,92.2549 915.217,83.8418 916.119,77.0354 917.02,74.4356 917.922,77.0354 918.823,83.8418 919.725,92.2549 920.626,99.0613 921.528,101.661 922.429,99.0613 923.331,92.2549 924.232,83.8418 925.134,77.0354 926.035,74.4356 926.937,77.0354 927.838,83.8418 928.74,92.2549 929.641,99.0613 930.543,101.661 931.444,99.0613 932.346,92.2549 933.247,83.8418 934.149,77.0354 935.05,74.4356 935.952,77.0354 936.853,83.8418 937.755,92.2549 938.656,99.0613 939.558,101.661 940.459,99.0613 941.361,92.2549 942.262,83.8418 943.164,77.0354 944.065,74.4356 944.967,77.0354 945.868,83.8418 946.77,92.2549 947.671,99.0613 948.573,101.661 949.474,99.0613 950.376,92.2549 951.277,83.8418 952.179,77.0354 953.08,74.4356 953.982,77.0354 954.883,83.8418 955.785,92.2549 956.686,99.0613 957.588,101.661 958.489,99.0613 959.391,92.2549 960.292,83.8418 961.194,77.0354 962.095,74.4356 962.997,77.0354 963.898,83.8418 964.8,92.2549 965.701,99.0613 966.603,101.661 967.504,99.0613 968.406,92.2549 969.307,83.8418 970.209,77.0354 971.11,74.4356 972.012,77.0354 972.913,83.8418 973.815,92.2549 974.716,99.0613 975.618,101.661 976.519,99.0613 977.421,92.2549 978.322,83.8418 979.224,77.0354 980.125,74.4356 981.027,77.0354 981.928,83.8418 982.83,92.2549 983.731,99.0613 984.633,101.661 985.534,99.0613 986.436,92.2549 987.337,83.8418 988.239,77.0354 989.14,74.4356 990.042,77.0354 990.943,83.8418 991.845,92.2549 992.746,99.0613 993.648,101.661 994.549,99.0613 995.451,92.2549 996.352,83.8418 997.254,77.0354 998.155,74.4356 999.057,77.0354 999.958,83.8418 1000.86,92.2549 1001.76,99.0613 1002.66,101.661 1003.56,99.0613 1004.47,92.2549 1005.37,83.8418 1006.27,77.0354 1007.17,74.4356 1008.07,77.0354 1008.97,83.8418 1009.87,92.2549 1010.78,99.0613 1011.68,101.661 1012.58,99.0613 1013.48,92.2549 1014.38,83.8418 1015.28,77.0354 1016.19,74.4356 1017.09,77.0354 1017.99,83.8418 1018.89,92.2549 1019.79,99.0613 1020.69,101.661 1021.59,99.0613 1022.5,92.2549 1023.4,83.8418 1024.3,77.0354 1025.2,74.4356 "
     id="polyline18-9"
     style="fill:none;stroke:#d40000;stroke-width:2.02430105;stroke-linecap:round;stroke-linejoin:round;stroke-miterlimit:4;stroke-dasharray:none;stroke-opacity:1"
     transform="matrix(0.74099646,0,0,1.5979674,-60.499471,-101.15876)" />
  <polyline
     points="104,88.0483 1035.47,88.0483 "
     id="polyline27-9"
     style="fill:none;stroke:#000000;stroke-width:2.02430105;stroke-miterlimit:4;stroke-dasharray:none;stroke-opacity:1"
     transform="matrix(0.74099646,0,0,0.74099646,-60.499471,-25.288238)" />
  <polygon
     points="1035.34,88.7149 1035.2,89.138 1035.04,89.5698 1034.74,90.3072 1034.6,90.6209 1044,88.0483 1034.6,85.5746 1034.6,85.5746 1034.74,85.856 1035.04,86.531 1035.2,86.9369 1035.34,87.3462 1035.43,87.7272 1035.47,88.0483 1035.43,88.3389 "
     id="polygon34-1"
     style="fill:#000000;fill-rule:evenodd;stroke:none"
     transform="matrix(0.74099646,0,0,0.74099646,-60.499471,-25.288238)" />
  <polyline
     points="122.8,137 122.8,51.5324 "
     id="polyline48-9"
     style="fill:none;stroke:#000000;stroke-width:2.02430105;stroke-miterlimit:4;stroke-dasharray:none;stroke-opacity:1"
     transform="matrix(0.74099646,0,0,0.58172594,-60.499471,-17.241852)" />
  <polygon
     points="123.467,51.6618 123.89,51.8005 124.321,51.9606 125.059,52.2622 125.373,52.4 122.8,43 120.326,52.4 120.326,52.4 120.608,52.2622 121.283,51.9606 121.689,51.8005 122.098,51.6618 122.479,51.5655 122.8,51.5324 123.091,51.5655 "
     id="polygon55-9"
     style="fill:#000000;fill-rule:evenodd;stroke:none"
     transform="matrix(0.74099646,0,0,0.74099646,-60.499471,-25.288238)" />
  <text
     xml:space="preserve"
     style="font-style:normal;font-variant:normal;font-weight:normal;font-stretch:normal;line-height:0%;font-family:'Nimbus Sans L';-inkscape-font-specification:Sans;letter-spacing:0px;word-spacing:0px;fill:#000000;fill-opacity:1;stroke:none"
     x="715.26025"
     y="50.214684"
     id="text3995-5-4"><tspan
       sodipodi:role="line"
       id="tspan3997-7-0"
       x="715.26025"
       y="50.214684"
       style="font-style:italic;font-variant:normal;font-weight:normal;font-stretch:normal;font-size:13.3379364px;line-height:1.25;font-family:'Nimbus Roman No9 L';-inkscape-font-specification:'Nimbus Roman No9 L Italic'">$t$</tspan></text>
  <text
     xml:space="preserve"
     style="font-style:normal;font-variant:normal;font-weight:normal;font-stretch:normal;line-height:0%;font-family:'Nimbus Sans L';-inkscape-font-specification:Sans;letter-spacing:0px;word-spacing:0px;fill:#000000;fill-opacity:1;stroke:none"
     x="-0.58686918"
     y="3.3652344"
     id="text3995-7"><tspan
       sodipodi:role="line"
       id="tspan3997-5"
       x="-0.58686918"
       y="3.3652344"
       style="font-style:italic;font-variant:normal;font-weight:normal;font-stretch:normal;font-size:13.3379364px;line-height:1.25;font-family:'Nimbus Roman No9 L';-inkscape-font-specification:'Nimbus Roman No9 L Italic'"><tspan
         style="font-style:normal;-inkscape-font-specification:'Nimbus Roman No9 L'"
         id="tspan4684-0">$\Re(E)$</tspan></tspan></text>
  <flowRoot
     xml:space="preserve"
     id="flowRoot4005"
     style="font-style:normal;font-variant:normal;font-weight:normal;font-stretch:normal;line-height:0.01%;font-family:'Nimbus Sans L';-inkscape-font-specification:Sans;letter-spacing:0px;word-spacing:0px;fill:#000000;fill-opacity:1;stroke:none"
     transform="translate(-5.7990861,-107.30518)"><flowRegion
       id="flowRegion4007"><rect
         id="rect4009"
         width="766.97583"
         height="94.757187"
         x="-7.8035331"
         y="-2.2295856" /></flowRegion><flowPara
       id="flowPara4011"
       style="font-size:22px;line-height:1.25"> </flowPara></flowRoot>  <flowRoot
     xml:space="preserve"
     id="flowRoot4076"
     style="font-style:normal;font-variant:normal;font-weight:normal;font-stretch:normal;line-height:0.01%;font-family:'Nimbus Sans L';-inkscape-font-specification:Sans;letter-spacing:0px;word-spacing:0px;fill:#000000;fill-opacity:1;stroke:none"
     transform="translate(-5.7990861,-107.30518)"><flowRegion
       id="flowRegion4078"><rect
         id="rect4080"
         width="843.33899"
         height="138.79141"
         x="-60.756081"
         y="86.953651" /></flowRegion><flowPara
       id="flowPara4082"
       style="font-size:22px;line-height:1.25"> </flowPara></flowRoot></svg>
