<?xml version="1.0" encoding="UTF-8" standalone="no"?>
<svg
   xmlns:dc="http://purl.org/dc/elements/1.1/"
   xmlns:cc="http://creativecommons.org/ns#"
   xmlns:rdf="http://www.w3.org/1999/02/22-rdf-syntax-ns#"
   xmlns:svg="http://www.w3.org/2000/svg"
   xmlns="http://www.w3.org/2000/svg"
   xmlns:sodipodi="http://sodipodi.sourceforge.net/DTD/sodipodi-0.dtd"
   xmlns:inkscape="http://www.inkscape.org/namespaces/inkscape"
   version="1.1"
   id="svg3045"
   inkscape:version="0.92.3 (2405546, 2018-03-11)"
   width="796.41443"
   height="122.64783"
   sodipodi:docname="02_fluktuacije03.svg"
   viewBox="0 0 746.63855 114.98234">
  <metadata
     id="metadata3136">
    <rdf:RDF>
      <cc:Work
         rdf:about="">
        <dc:format>image/svg+xml</dc:format>
        <dc:type
           rdf:resource="http://purl.org/dc/dcmitype/StillImage" />
        <dc:title />
      </cc:Work>
    </rdf:RDF>
  </metadata>
  <sodipodi:namedview
     pagecolor="#ffffff"
     bordercolor="#666666"
     borderopacity="1"
     objecttolerance="10"
     gridtolerance="10"
     guidetolerance="10"
     inkscape:pageopacity="0"
     inkscape:pageshadow="2"
     inkscape:window-width="1853"
     inkscape:window-height="713"
     id="namedview3134"
     showgrid="false"
     inkscape:zoom="1.2685914"
     inkscape:cx="131.98521"
     inkscape:cy="68.358533"
     inkscape:window-x="36"
     inkscape:window-y="259"
     inkscape:window-maximized="0"
     inkscape:current-layer="svg3045"
     fit-margin-top="0"
     fit-margin-left="0"
     fit-margin-right="0"
     fit-margin-bottom="0" />
  <defs
     id="defs3132">
    <clipPath
       id="cp11">
      <polygon
         points="14,15 14,-1 -1,-1 -1,15 "
         id="polygon3128" />
    </clipPath>
    <clipPath
       id="cp10">
      <polygon
         points="1074,167 1074,13 74,13 74,167 "
         id="polygon3121" />
    </clipPath>
    <clipPath
       id="cp9">
      <polygon
         points="1074,167 1074,13 74,13 74,167 "
         id="polygon3114" />
    </clipPath>
    <clipPath
       id="cp8">
      <polygon
         points="5,15 5,-1 -1,-1 -1,15 "
         id="polygon3107" />
    </clipPath>
    <clipPath
       id="cp7">
      <polygon
         points="1074,167 1074,13 74,13 74,167 "
         id="polygon3100" />
    </clipPath>
    <clipPath
       id="cp6">
      <polygon
         points="1074,167 1074,13 74,13 74,167 "
         id="polygon3093" />
    </clipPath>
    <clipPath
       id="cp5">
      <polygon
         points="1044,137 1044,42 104,42 104,137 "
         id="polygon3084" />
    </clipPath>
    <clipPath
       id="cp4">
      <polygon
         points="11,15 11,4.12 -1,4.12 -1,15 "
         id="polygon3077" />
    </clipPath>
    <clipPath
       id="cp3">
      <polygon
         points="1044,137 1044,42 104,42 104,137 "
         id="polygon3068" />
    </clipPath>
    <clipPath
       id="cp2">
      <polygon
         points="1044,137 1044,42 104,42 104,137 "
         id="polygon3059" />
    </clipPath>
    <clipPath
       id="cp1">
      <polygon
         points="4.49423e+307,4.49423e+307 4.49423e+307,-4.49423e+307 -4.49423e+307,-4.49423e+307 -4.49423e+307,4.49423e+307 "
         id="polygon3052" />
    </clipPath>
  </defs>
  <flowRoot
     xml:space="preserve"
     id="flowRoot4025"
     style="font-style:normal;font-variant:normal;font-weight:normal;font-stretch:normal;line-height:0.01%;font-family:'Nimbus Sans L';-inkscape-font-specification:Sans;letter-spacing:0px;word-spacing:0px;fill:#000000;fill-opacity:1;stroke:none"
     transform="translate(0.14047241,-170.14902)"><flowRegion
       id="flowRegion4027"><rect
         id="rect4029"
         width="0.83609283"
         height="65.493942"
         x="684.20264"
         y="187.28479" /></flowRegion><flowPara
       id="flowPara4031"
       style="font-size:22px;line-height:1.25"> </flowPara></flowRoot>  <rect
     x="0"
     y="0"
     width="746.63855"
     height="114.98234"
     id="rect3054-7"
     style="fill:#ffffff;stroke:none" />
  <polyline
     points="122.8,116.528 131.648,116.528 140.495,116.528 159.679,116.528 177.591,116.528 195.152,116.528 214.202,116.528 231.98,116.528 251.246,116.528 270.161,116.528 287.805,116.528 306.938,116.528 324.799,116.528 342.309,116.528 361.307,116.528 379.034,116.528 398.249,116.528 417.113,116.528 434.705,116.528 453.787,116.528 471.596,116.528 490.895,116.528 509.841,116.528 527.517,116.528 546.681,116.528 564.574,116.528 582.115,116.528 601.145,116.528 618.904,116.528 638.151,116.528 657.046,116.528 674.671,116.528 693.783,116.528 711.625,116.528 729.115,116.528 748.094,116.528 765.801,116.528 784.997,116.528 802.921,116.528 820.494,116.528 839.556,116.528 857.346,116.528 876.624,116.528 895.552,116.528 913.208,116.528 932.352,116.528 950.225,116.528 967.747,116.528 986.757,116.528 1004.5,116.528 1014.4,116.528 1024.3,116.528 "
     id="polyline3061-8"
     style="fill:none;stroke:#d40000;stroke-width:2.00900435;stroke-miterlimit:4;stroke-dasharray:none;stroke-opacity:1"
     transform="matrix(0.74663854,0,0,0.74663854,-55.251258,-26.581297)" />
  <polyline
     points="104,135.12 1035.47,135.12 "
     id="polyline3095-9"
     style="fill:none;stroke:#000000;stroke-width:2.00900435;stroke-miterlimit:4;stroke-dasharray:none;stroke-opacity:1"
     transform="matrix(0.74663854,0,0,0.74663854,-55.251258,-9.7062973)" />
  <polygon
     points="1035.34,134.418 1035.43,134.799 1035.47,135.12 1035.43,135.411 1035.34,135.787 1035.2,136.21 1035.04,136.641 1034.74,137.379 1034.6,137.693 1044,135.12 1034.6,132.646 1034.6,132.646 1034.74,132.928 1035.04,133.603 1035.2,134.009 "
     id="polygon3102-4"
     style="fill:#000000;fill-rule:evenodd;stroke:none"
     transform="matrix(0.74663854,0,0,0.74663854,-55.251258,-9.7062973)" />
  <polyline
     points="122.8,137 122.8,51.5324 "
     id="polyline3116-6"
     style="fill:none;stroke:#000000;stroke-width:2.00900435;stroke-miterlimit:4;stroke-dasharray:none;stroke-opacity:1"
     transform="matrix(0.74663854,0,0,0.74663854,-55.251258,-9.7062973)" />
  <polygon
     points="122.098,51.6618 122.479,51.5655 122.8,51.5324 123.091,51.5655 123.467,51.6618 123.89,51.8005 124.321,51.9606 125.059,52.2622 125.373,52.4 122.8,43 120.326,52.4 120.326,52.4 120.608,52.2622 121.283,51.9606 121.689,51.8005 "
     id="polygon3123-3"
     style="fill:#000000;fill-rule:evenodd;stroke:none"
     transform="matrix(0.74663854,0,0,0.74663854,-55.251258,-9.7062973)" />
  <text
     xml:space="preserve"
     style="font-style:normal;font-variant:normal;font-weight:normal;font-stretch:normal;line-height:0%;font-family:'Nimbus Sans L';-inkscape-font-specification:Sans;letter-spacing:0px;word-spacing:0px;fill:#000000;fill-opacity:1;stroke:none"
     x="10.90136"
     y="25.802704"
     id="text3995-3"><tspan
       sodipodi:role="line"
       id="tspan3997-0"
       x="10.90136"
       y="25.802704"
       style="font-style:italic;font-variant:normal;font-weight:normal;font-stretch:normal;font-size:13.43949413px;line-height:1.25;font-family:'Nimbus Roman No9 L';-inkscape-font-specification:'Nimbus Roman No9 L Italic'">$|E|^2$<tspan
   style="font-size:8.73579407px;baseline-shift:super"
   id="tspan4037-6" /></tspan></text>
  <text
     xml:space="preserve"
     style="font-style:normal;font-variant:normal;font-weight:normal;font-stretch:normal;line-height:0%;font-family:'Nimbus Sans L';-inkscape-font-specification:Sans;letter-spacing:0px;word-spacing:0px;fill:#000000;fill-opacity:1;stroke:none"
     x="724.01404"
     y="101.63364"
     id="text3995-5-4"><tspan
       sodipodi:role="line"
       id="tspan3997-7-2"
       x="724.01404"
       y="101.63364"
       style="font-style:italic;font-variant:normal;font-weight:normal;font-stretch:normal;font-size:13.43949413px;line-height:1.25;font-family:'Nimbus Roman No9 L';-inkscape-font-specification:'Nimbus Roman No9 L Italic'">$t$</tspan></text>
  <flowRoot
     xml:space="preserve"
     id="flowRoot3912"
     style="font-style:normal;font-variant:normal;font-weight:normal;font-stretch:normal;line-height:0.01%;font-family:'Nimbus Sans L';-inkscape-font-specification:Sans;letter-spacing:0px;word-spacing:0px;fill:#000000;fill-opacity:1;stroke:none"
     transform="translate(0.14047241,-170.14902)"><flowRegion
       id="flowRegion3914"><rect
         id="rect3916"
         width="864.73865"
         height="141.88966"
         x="-100.11104"
         y="11.838024" /></flowRegion><flowPara
       id="flowPara3918"
       style="font-size:22px;line-height:1.25"> </flowPara></flowRoot></svg>
