<?xml version="1.0" encoding="UTF-8" standalone="no"?>
<!-- Created with Inkscape (http://www.inkscape.org/) -->

<svg
   xmlns:dc="http://purl.org/dc/elements/1.1/"
   xmlns:cc="http://creativecommons.org/ns#"
   xmlns:rdf="http://www.w3.org/1999/02/22-rdf-syntax-ns#"
   xmlns:svg="http://www.w3.org/2000/svg"
   xmlns="http://www.w3.org/2000/svg"
   xmlns:sodipodi="http://sodipodi.sourceforge.net/DTD/sodipodi-0.dtd"
   xmlns:inkscape="http://www.inkscape.org/namespaces/inkscape"
   width="213.45631"
   height="170.66667"
   id="svg7815"
   version="1.1"
   inkscape:version="0.92.3 (2405546, 2018-03-11)"
   sodipodi:docname="03_matrika_R.svg"
   inkscape:export-filename="/home/jetra/mojca/HomeMojca/MojcaNova/slike/matrika_R.png"
   inkscape:export-xdpi="300"
   inkscape:export-ydpi="300"
   viewBox="0 0 200.1153 160">
  <defs
     id="defs7817">
    <marker
       inkscape:stockid="Arrow1Mendly"
       orient="auto"
       refY="0"
       refX="0"
       id="Arrow1Mendly"
       style="overflow:visible">
      <path
         inkscape:connector-curvature="0"
         id="path4342"
         d="M 0,0 5,-5 -12.5,0 5,5 Z"
         style="fill:#800000;fill-rule:evenodd;stroke:#800000;stroke-width:1.00000003pt"
         transform="matrix(-0.4,0,0,-0.4,-4,0)" />
    </marker>
    <marker
       inkscape:stockid="Arrow1Mendly"
       orient="auto"
       refY="0"
       refX="0"
       id="marker7801"
       style="overflow:visible">
      <path
         inkscape:connector-curvature="0"
         id="path7803"
         d="M 0,0 5,-5 -12.5,0 5,5 Z"
         style="fill:#800000;fill-rule:evenodd;stroke:#800000;stroke-width:1.00000003pt"
         transform="matrix(-0.4,0,0,-0.4,-4,0)" />
    </marker>
    <marker
       inkscape:stockid="Arrow1Mendly"
       orient="auto"
       refY="0"
       refX="0"
       id="Arrow1Mendly-9"
       style="overflow:visible">
      <path
         inkscape:connector-curvature="0"
         id="path4342-7"
         d="M 0,0 5,-5 -12.5,0 5,5 Z"
         style="fill:#800000;fill-rule:evenodd;stroke:#800000;stroke-width:1.00000003pt"
         transform="matrix(-0.4,0,0,-0.4,-4,0)" />
    </marker>
    <marker
       inkscape:stockid="Arrow1Mendly"
       orient="auto"
       refY="0"
       refX="0"
       id="marker7906"
       style="overflow:visible">
      <path
         inkscape:connector-curvature="0"
         id="path7908"
         d="M 0,0 5,-5 -12.5,0 5,5 Z"
         style="fill:#800000;fill-rule:evenodd;stroke:#800000;stroke-width:1.00000003pt"
         transform="matrix(-0.4,0,0,-0.4,-4,0)" />
    </marker>
    <marker
       inkscape:stockid="DotM"
       orient="auto"
       refY="0"
       refX="0"
       id="DotM"
       style="overflow:visible">
      <path
         inkscape:connector-curvature="0"
         id="path3902"
         d="m -2.5,-1 c 0,2.76 -2.24,5 -5,5 -2.76,0 -5,-2.24 -5,-5 0,-2.76 2.24,-5 5,-5 2.76,0 5,2.24 5,5 z"
         style="fill-rule:evenodd;stroke:#000000;stroke-width:1.00000003pt"
         transform="matrix(0.4,0,0,0.4,2.96,0.4)" />
    </marker>
    <marker
       inkscape:stockid="Arrow1Mendly"
       orient="auto"
       refY="0"
       refX="0"
       id="Arrow1Mendly-0"
       style="overflow:visible">
      <path
         inkscape:connector-curvature="0"
         id="path4342-9"
         d="M 0,0 5,-5 -12.5,0 5,5 Z"
         style="fill:#800000;fill-rule:evenodd;stroke:#800000;stroke-width:1.00000003pt"
         transform="matrix(-0.4,0,0,-0.4,-4,0)" />
    </marker>
    <marker
       inkscape:stockid="Arrow1Mendly"
       orient="auto"
       refY="0"
       refX="0"
       id="marker8018"
       style="overflow:visible">
      <path
         inkscape:connector-curvature="0"
         id="path8020"
         d="M 0,0 5,-5 -12.5,0 5,5 Z"
         style="fill:#800000;fill-rule:evenodd;stroke:#800000;stroke-width:1.00000003pt"
         transform="matrix(-0.4,0,0,-0.4,-4,0)" />
    </marker>
    <marker
       inkscape:stockid="Arrow1Mendly"
       orient="auto"
       refY="0"
       refX="0"
       id="Arrow1Mendly-5"
       style="overflow:visible">
      <path
         inkscape:connector-curvature="0"
         id="path4342-6"
         d="M 0,0 5,-5 -12.5,0 5,5 Z"
         style="fill:#800000;fill-rule:evenodd;stroke:#800000;stroke-width:1.00000003pt"
         transform="matrix(-0.4,0,0,-0.4,-4,0)" />
    </marker>
    <marker
       inkscape:stockid="Arrow1Mend"
       orient="auto"
       refY="0"
       refX="0"
       id="Arrow1Mend-9"
       style="overflow:visible">
      <path
         inkscape:connector-curvature="0"
         id="path3847-21"
         d="M 0,0 5,-5 -12.5,0 5,5 Z"
         style="fill-rule:evenodd;stroke:#000000;stroke-width:1.00000003pt"
         transform="matrix(-0.4,0,0,-0.4,-4,0)" />
    </marker>
    <marker
       inkscape:stockid="Arrow1Mendly"
       orient="auto"
       refY="0"
       refX="0"
       id="marker8147"
       style="overflow:visible">
      <path
         inkscape:connector-curvature="0"
         id="path8149"
         d="M 0,0 5,-5 -12.5,0 5,5 Z"
         style="fill:#800000;fill-rule:evenodd;stroke:#800000;stroke-width:1.00000003pt"
         transform="matrix(-0.4,0,0,-0.4,-4,0)" />
    </marker>
    <marker
       inkscape:stockid="Arrow1Mstart"
       orient="auto"
       refY="0"
       refX="0"
       id="Arrow1Mstart-6"
       style="overflow:visible">
      <path
         inkscape:connector-curvature="0"
         id="path3844-2"
         d="M 0,0 5,-5 -12.5,0 5,5 Z"
         style="fill-rule:evenodd;stroke:#000000;stroke-width:1.00000003pt"
         transform="matrix(0.4,0,0,0.4,4,0)" />
    </marker>
    <marker
       inkscape:stockid="Arrow1Mend"
       orient="auto"
       refY="0"
       refX="0"
       id="Arrow1Mend-9-6"
       style="overflow:visible">
      <path
         inkscape:connector-curvature="0"
         id="path3847-21-3"
         d="M 0,0 5,-5 -12.5,0 5,5 Z"
         style="fill-rule:evenodd;stroke:#000000;stroke-width:1.00000003pt"
         transform="matrix(-0.4,0,0,-0.4,-4,0)" />
    </marker>
    <marker
       inkscape:stockid="Arrow1Mendly"
       orient="auto"
       refY="0"
       refX="0"
       id="Arrow1Mendly-4"
       style="overflow:visible">
      <path
         inkscape:connector-curvature="0"
         id="path4342-0"
         d="M 0,0 5,-5 -12.5,0 5,5 Z"
         style="fill:#800000;fill-rule:evenodd;stroke:#800000;stroke-width:1.00000003pt"
         transform="matrix(-0.4,0,0,-0.4,-4,0)" />
    </marker>
    <marker
       inkscape:stockid="Arrow1Mendly"
       orient="auto"
       refY="0"
       refX="0"
       id="marker8293"
       style="overflow:visible">
      <path
         inkscape:connector-curvature="0"
         id="path8295"
         d="M 0,0 5,-5 -12.5,0 5,5 Z"
         style="fill:#800000;fill-rule:evenodd;stroke:#800000;stroke-width:1.00000003pt"
         transform="matrix(-0.4,0,0,-0.4,-4,0)" />
    </marker>
    <marker
       inkscape:stockid="DotM"
       orient="auto"
       refY="0"
       refX="0"
       id="DotM-6"
       style="overflow:visible">
      <path
         inkscape:connector-curvature="0"
         id="path3902-9"
         d="m -2.5,-1 c 0,2.76 -2.24,5 -5,5 -2.76,0 -5,-2.24 -5,-5 0,-2.76 2.24,-5 5,-5 2.76,0 5,2.24 5,5 z"
         style="fill-rule:evenodd;stroke:#000000;stroke-width:1.00000003pt"
         transform="matrix(0.4,0,0,0.4,2.96,0.4)" />
    </marker>
    <marker
       inkscape:stockid="Arrow1Mstart"
       orient="auto"
       refY="0"
       refX="0"
       id="Arrow1Mstart-6-0"
       style="overflow:visible">
      <path
         inkscape:connector-curvature="0"
         id="path3844-2-9"
         d="M 0,0 5,-5 -12.5,0 5,5 Z"
         style="fill-rule:evenodd;stroke:#000000;stroke-width:1.00000003pt"
         transform="matrix(0.4,0,0,0.4,4,0)" />
    </marker>
  </defs>
  <sodipodi:namedview
     id="base"
     pagecolor="#ffffff"
     bordercolor="#666666"
     borderopacity="1.0"
     inkscape:pageopacity="0.0"
     inkscape:pageshadow="2"
     inkscape:zoom="1.979899"
     inkscape:cx="117.81378"
     inkscape:cy="90.664549"
     inkscape:document-units="px"
     inkscape:current-layer="layer1"
     showgrid="false"
     inkscape:window-width="1519"
     inkscape:window-height="1013"
     inkscape:window-x="268"
     inkscape:window-y="26"
     inkscape:window-maximized="0"
     fit-margin-top="0"
     fit-margin-left="0"
     fit-margin-right="0"
     fit-margin-bottom="0" />
  <metadata
     id="metadata7820">
    <rdf:RDF>
      <cc:Work
         rdf:about="">
        <dc:format>image/svg+xml</dc:format>
        <dc:type
           rdf:resource="http://purl.org/dc/dcmitype/StillImage" />
        <dc:title></dc:title>
      </cc:Work>
    </rdf:RDF>
  </metadata>
  <g
     inkscape:label="Layer 1"
     inkscape:groupmode="layer"
     id="layer1"
     transform="translate(-276.7869,-474.86206)">
    <rect
       style="opacity:1;fill:#ffffff;fill-opacity:1;stroke:none;stroke-width:2;stroke-linecap:round;stroke-linejoin:round;stroke-miterlimit:4;stroke-dasharray:none;stroke-dashoffset:0;stroke-opacity:1"
       id="rect3386"
       width="200"
       height="160"
       x="276.7869"
       y="474.86206" />
    <path
       style="fill:none;stroke:#000000;stroke-width:1.45225084;stroke-linecap:butt;stroke-linejoin:miter;stroke-miterlimit:4;stroke-dasharray:none;stroke-opacity:1"
       d="M 279.98884,554.55886 H 462.77921"
       id="path6211-6"
       inkscape:connector-curvature="0"
       sodipodi:nodetypes="cc" />
    <rect
       style="fill:#ffffff;fill-opacity:1;stroke:none"
       id="rect2985-3-1-0"
       width="199.64903"
       height="123.52099"
       x="-476.90219"
       y="491.77475"
       transform="scale(-1,1)" />
    <path
       style="fill:none;stroke:#000000;stroke-width:1.4521875;stroke-linecap:butt;stroke-linejoin:miter;stroke-miterlimit:4;stroke-dasharray:none;stroke-opacity:1;marker-end:"
       d="M 279.98884,554.55886 H 472.55699"
       id="path4371-6-8-0"
       inkscape:connector-curvature="0"
       sodipodi:nodetypes="cc" />
    <path
       style="fill:#c1d5e9;fill-opacity:1;stroke:none"
       d="m 403.72618,491.35985 h -4.35803 c 0,0 15.14491,27.56442 15.14491,61.95423 0,34.38979 -15.14491,61.56677 -15.14491,61.56677 h 4.98043 c 0,0 14.3557,-26.71122 14.3557,-61.96799 0,-35.25679 -14.9781,-61.55301 -14.9781,-61.55301 z"
       id="rect5040-4-5"
       inkscape:connector-curvature="0"
       sodipodi:nodetypes="cczcczc" />
    <path
       sodipodi:type="arc"
       style="fill:none;stroke:#000000;stroke-width:2.90450168;stroke-miterlimit:4;stroke-dasharray:none;stroke-dashoffset:0;stroke-opacity:1"
       id="path5187-3"
       sodipodi:cx="-280.4213"
       sodipodi:cy="553.53528"
       sodipodi:rx="133.78993"
       sodipodi:ry="133.78993"
       d="m -399.37893,614.76294 a 133.78993,133.78993 0 0 1 0.0997,-122.64861"
       sodipodi:start="2.6662532"
       sodipodi:end="3.6185576"
       sodipodi:open="true"
       transform="scale(-1,1)" />
    <path
       inkscape:connector-curvature="0"
       id="path3832-1-9-4"
       d="m 407.15625,521 -28.84375,17.9375 0.75,1.25 28.875,-17.96875 z"
       style="color:#000000;font-style:normal;font-variant:normal;font-weight:normal;font-stretch:normal;font-size:medium;line-height:normal;font-family:Sans;-inkscape-font-specification:Sans;text-indent:0;text-align:start;text-decoration:none;text-decoration-line:none;letter-spacing:normal;word-spacing:normal;text-transform:none;writing-mode:lr-tb;direction:ltr;baseline-shift:baseline;text-anchor:start;display:inline;overflow:visible;visibility:visible;fill:#d40000;fill-opacity:1;stroke:none;stroke-width:1.45225084;marker:none;enable-background:accumulate" />
    <path
       inkscape:connector-curvature="0"
       id="path3898"
       d="m 402.61679,524.68454 -0.93317,4.00018 7.09986,-7.83394 -10.16687,2.90059 z"
       style="fill:#d40000;fill-opacity:1;fill-rule:evenodd;stroke:#d40000;stroke-width:0.58090031pt;stroke-opacity:1" />
    <path
       inkscape:connector-curvature="0"
       id="path3832-1-6-8-1"
       d="m 375.25,518.3125 -0.0312,1.46875 34,0.71875 0.0312,-1.46875 z"
       style="color:#000000;font-style:normal;font-variant:normal;font-weight:normal;font-stretch:normal;font-size:medium;line-height:normal;font-family:Sans;-inkscape-font-specification:Sans;text-indent:0;text-align:start;text-decoration:none;text-decoration-line:none;letter-spacing:normal;word-spacing:normal;text-transform:none;writing-mode:lr-tb;direction:ltr;baseline-shift:baseline;text-anchor:start;display:inline;overflow:visible;visibility:visible;fill:#d40000;fill-opacity:1;stroke:none;stroke-width:1.45225084;marker:none;enable-background:accumulate" />
    <path
       inkscape:connector-curvature="0"
       id="path3907"
       d="m 381.04673,519.17423 2.96504,-2.84268 -10.22468,2.68972 10.10232,3.118 z"
       style="fill:#d40000;fill-opacity:1;fill-rule:evenodd;stroke:#d40000;stroke-width:0.58090031pt;stroke-opacity:1" />
    <path
       style="fill:none;stroke:#000000;stroke-width:0.72612542;stroke-linecap:butt;stroke-linejoin:miter;stroke-miterlimit:4;stroke-dasharray:none;stroke-opacity:1;marker-start:none;marker-end:url(#DotM)"
       d="M 409.51688,520.08779 281.59489,554.70887"
       id="path5189-3"
       inkscape:connector-curvature="0"
       sodipodi:nodetypes="cc" />
    <path
       style="fill:none;stroke:#000000;stroke-width:0.72496361;stroke-linecap:butt;stroke-linejoin:miter;stroke-miterlimit:4;stroke-dasharray:1.44992723, 0.72496363;stroke-dashoffset:0;stroke-opacity:1;marker-start:url(#Arrow1Mstart-6)"
       d="m 332.19918,557.84406 h 79.7908"
       id="path4371-6-8-9-4"
       inkscape:connector-curvature="0"
       sodipodi:nodetypes="cc" />
    <text
       xml:space="preserve"
       style="font-style:normal;font-weight:normal;line-height:0%;font-family:sans-serif;letter-spacing:0px;word-spacing:0px;fill:#000000;fill-opacity:1;stroke:none"
       x="338.74142"
       y="533.52173"
       id="text4794-6"
       transform="scale(0.99946769,1.0005326)"><tspan
         sodipodi:role="line"
         id="tspan4796-9"
         x="338.74142"
         y="533.52173"
         style="font-style:italic;font-variant:normal;font-weight:normal;font-stretch:normal;font-size:30.00000191px;line-height:1.25;font-family:'Nimbus Roman No9 L';-inkscape-font-specification:'Nimbus Roman No9 L Italic';text-align:center;text-anchor:middle">$R$</tspan></text>
  </g>
</svg>
