<?xml version="1.0" encoding="UTF-8" standalone="no"?>
<svg
   xmlns:dc="http://purl.org/dc/elements/1.1/"
   xmlns:cc="http://creativecommons.org/ns#"
   xmlns:rdf="http://www.w3.org/1999/02/22-rdf-syntax-ns#"
   xmlns:svg="http://www.w3.org/2000/svg"
   xmlns="http://www.w3.org/2000/svg"
   xmlns:sodipodi="http://sodipodi.sourceforge.net/DTD/sodipodi-0.dtd"
   xmlns:inkscape="http://www.inkscape.org/namespaces/inkscape"
   version="1.1"
   id="svg2"
   inkscape:version="0.48.4 r9939"
   sodipodi:docname="03_preslikava.pdf"
   width="740.71423"
   height="116.04523">
  <metadata
     id="metadata122">
    <rdf:RDF>
      <cc:Work
         rdf:about="">
        <dc:format>image/svg+xml</dc:format>
        <dc:type
           rdf:resource="http://purl.org/dc/dcmitype/StillImage" />
        <dc:title></dc:title>
      </cc:Work>
    </rdf:RDF>
  </metadata>
  <sodipodi:namedview
     pagecolor="#ffffff"
     bordercolor="#666666"
     borderopacity="1"
     objecttolerance="10"
     gridtolerance="10"
     guidetolerance="10"
     inkscape:pageopacity="0"
     inkscape:pageshadow="2"
     inkscape:window-width="1696"
     inkscape:window-height="857"
     id="namedview120"
     showgrid="false"
     showguides="false"
     inkscape:zoom="2.0000001"
     inkscape:cx="373.2255"
     inkscape:cy="43.114365"
     inkscape:window-x="72"
     inkscape:window-y="64"
     inkscape:window-maximized="0"
     inkscape:current-layer="svg2"
     fit-margin-top="0"
     fit-margin-left="0"
     fit-margin-right="0"
     fit-margin-bottom="0" />
  <defs
     id="defs118">
    <inkscape:path-effect
       effect="spiro"
       id="path-effect4358"
       is_visible="true" />
    <marker
       inkscape:stockid="Arrow2Mend"
       orient="auto"
       refY="0"
       refX="0"
       id="Arrow2Mend"
       style="overflow:visible"
       inkscape:isstock="true">
      <path
         id="path4462"
         style="fill-rule:evenodd;stroke-width:0.625;stroke-linejoin:round"
         d="M 8.7185878,4.0337352 -2.2072895,0.01601326 8.7185884,-4.0017078 c -1.7454984,2.3720609 -1.7354408,5.6174519 -6e-7,8.035443 z"
         transform="scale(-0.6,-0.6)"
         inkscape:connector-curvature="0" />
    </marker>
    <marker
       inkscape:stockid="Arrow2Mstart"
       orient="auto"
       refY="0"
       refX="0"
       id="Arrow2Mstart"
       style="overflow:visible"
       inkscape:isstock="true">
      <path
         id="path4459"
         style="fill-rule:evenodd;stroke-width:0.625;stroke-linejoin:round"
         d="M 8.7185878,4.0337352 -2.2072895,0.01601326 8.7185884,-4.0017078 c -1.7454984,2.3720609 -1.7354408,5.6174519 -6e-7,8.035443 z"
         transform="scale(0.6,0.6)"
         inkscape:connector-curvature="0" />
    </marker>
    <clipPath
       id="cp12">
      <polygon
         points="74,13 74,107 674,107 674,13 "
         id="polygon110" />
    </clipPath>
    <clipPath
       id="cp11">
      <polygon
         points="674,13 74,13 74,107 674,107 "
         id="polygon99" />
    </clipPath>
    <clipPath
       id="cp10">
      <polygon
         points="674,13 74,13 74,107 674,107 "
         id="polygon88" />
    </clipPath>
    <clipPath
       id="cp9">
      <polygon
         points="674,13 74,13 74,107 674,107 "
         id="polygon77" />
    </clipPath>
    <clipPath
       id="cp8">
      <polygon
         points="674,13 74,13 74,107 674,107 "
         id="polygon70" />
    </clipPath>
    <clipPath
       id="cp1">
      <polygon
         points="674,13 74,13 74,107 674,107 "
         id="polygon11" />
    </clipPath>
    <marker
       inkscape:stockid="Arrow2Mstart"
       orient="auto"
       refY="0"
       refX="0"
       id="Arrow2Mstart-3"
       style="overflow:visible"
       inkscape:isstock="true">
      <path
         inkscape:connector-curvature="0"
         id="path4459-5"
         style="fill-rule:evenodd;stroke-width:0.625;stroke-linejoin:round"
         d="M 8.7185878,4.0337352 -2.2072895,0.01601326 8.7185884,-4.0017078 c -1.7454984,2.3720609 -1.7354408,5.6174519 -6e-7,8.035443 z"
         transform="scale(0.6,0.6)" />
    </marker>
    <marker
       inkscape:stockid="Arrow2Mend"
       orient="auto"
       refY="0"
       refX="0"
       id="Arrow2Mend-5"
       style="overflow:visible"
       inkscape:isstock="true">
      <path
         inkscape:connector-curvature="0"
         id="path4462-5"
         style="fill-rule:evenodd;stroke-width:0.625;stroke-linejoin:round"
         d="M 8.7185878,4.0337352 -2.2072895,0.01601326 8.7185884,-4.0017078 c -1.7454984,2.3720609 -1.7354408,5.6174519 -6e-7,8.035443 z"
         transform="scale(-0.6,-0.6)" />
    </marker>
    <inkscape:path-effect
       effect="spiro"
       id="path-effect4358-5"
       is_visible="true" />
    <marker
       inkscape:stockid="Arrow2Mstart"
       orient="auto"
       refY="0"
       refX="0"
       id="Arrow2Mstart-4"
       style="overflow:visible"
       inkscape:isstock="true">
      <path
         inkscape:connector-curvature="0"
         id="path4459-8"
         style="fill-rule:evenodd;stroke-width:0.625;stroke-linejoin:round"
         d="M 8.7185878,4.0337352 -2.2072895,0.01601326 8.7185884,-4.0017078 c -1.7454984,2.3720609 -1.7354408,5.6174519 -6e-7,8.035443 z"
         transform="scale(0.6,0.6)" />
    </marker>
    <marker
       inkscape:stockid="Arrow2Mend"
       orient="auto"
       refY="0"
       refX="0"
       id="Arrow2Mend-4"
       style="overflow:visible"
       inkscape:isstock="true">
      <path
         inkscape:connector-curvature="0"
         id="path4462-0"
         style="fill-rule:evenodd;stroke-width:0.625;stroke-linejoin:round"
         d="M 8.7185878,4.0337352 -2.2072895,0.01601326 8.7185884,-4.0017078 c -1.7454984,2.3720609 -1.7354408,5.6174519 -6e-7,8.035443 z"
         transform="scale(-0.6,-0.6)" />
    </marker>
    <inkscape:path-effect
       effect="spiro"
       id="path-effect4358-5-0"
       is_visible="true" />
    <marker
       inkscape:stockid="Arrow2Mstart"
       orient="auto"
       refY="0"
       refX="0"
       id="Arrow2Mstart-1"
       style="overflow:visible"
       inkscape:isstock="true">
      <path
         inkscape:connector-curvature="0"
         id="path4459-6"
         style="fill-rule:evenodd;stroke-width:0.625;stroke-linejoin:round"
         d="M 8.7185878,4.0337352 -2.2072895,0.01601326 8.7185884,-4.0017078 c -1.7454984,2.3720609 -1.7354408,5.6174519 -6e-7,8.035443 z"
         transform="scale(0.6,0.6)" />
    </marker>
    <marker
       inkscape:stockid="Arrow2Mend"
       orient="auto"
       refY="0"
       refX="0"
       id="Arrow2Mend-0"
       style="overflow:visible"
       inkscape:isstock="true">
      <path
         inkscape:connector-curvature="0"
         id="path4462-6"
         style="fill-rule:evenodd;stroke-width:0.625;stroke-linejoin:round"
         d="M 8.7185878,4.0337352 -2.2072895,0.01601326 8.7185884,-4.0017078 c -1.7454984,2.3720609 -1.7354408,5.6174519 -6e-7,8.035443 z"
         transform="scale(-0.6,-0.6)" />
    </marker>
    <inkscape:path-effect
       effect="spiro"
       id="path-effect4358-5-0-8"
       is_visible="true" />
  </defs>
  <rect
     style="fill:#ffffff;stroke:none"
     id="rect6"
     height="116.04523"
     width="740.71423"
     y="0"
     x="0"
     inkscape:export-xdpi="600"
     inkscape:export-ydpi="600" />
  <polyline
     points="445.38,31.3838 445.446,31.3985 445.512,31.4131 445.645,31.4424 445.909,31.5009 446.438,31.618 447.496,31.8522 449.613,32.3204 454.201,33.3351 458.486,34.2816 462.687,35.2087 467.243,36.2133 471.496,37.1498 476.105,38.1632 480.629,39.1564 484.85,40.0812 489.426,41.0819 493.698,42.0138 497.887,42.9248 502.431,43.9099 506.672,44.8253 511.268,45.8126 515.78,46.7758 519.988,47.6674 524.553,48.6252 528.813,49.5084 533.429,50.4499 537.961,51.3537 542.189,52.1719 546.773,53.0214 551.053,53.7652 555.249,54.4285 555.32,54.439 555.391,54.4495 555.534,54.4704 555.818,54.512 556.387,54.5937 557.525,54.7515 557.596,54.7611 557.667,54.7707 557.809,54.7898 558.094,54.8275 558.663,54.9012 559.801,55.042 559.867,55.0499 559.934,55.0578 560.066,55.0735 560.332,55.1044 560.863,55.1646 561.925,55.2781 561.991,55.2848 562.058,55.2916 562.19,55.3049 562.456,55.3311 562.987,55.3816 564.049,55.4747 564.121,55.4806 564.193,55.4864 564.337,55.4979 564.624,55.5204 565.2,55.5627 565.272,55.5677 565.344,55.5727 565.488,55.5825 565.775,55.6015 566.351,55.6367 566.423,55.6408 566.495,55.6449 566.639,55.6529 566.926,55.6681 566.998,55.6718 567.07,55.6754 567.214,55.6824 567.502,55.6958 567.574,55.699 567.646,55.7021 567.79,55.7082 568.077,55.7196 568.149,55.7223 568.221,55.7249 568.365,55.73 568.653,55.7394 568.723,55.7416 568.794,55.7437 568.935,55.7477 569.006,55.7496 569.076,55.7515 569.218,55.755 569.288,55.7567 569.359,55.7583 569.5,55.7614 569.571,55.7628 569.641,55.7642 569.783,55.7667 569.853,55.7679 569.924,55.769 569.995,55.7701 570.065,55.7711 570.136,55.772 570.206,55.7729 570.348,55.7745 570.418,55.7751 570.489,55.7758 570.56,55.7763 570.63,55.7768 570.701,55.7773 570.771,55.7777 570.842,55.778 570.913,55.7782 570.983,55.7784 571.054,55.7786 571.125,55.7786 571.195,55.7787 571.266,55.7786 571.336,55.7785 571.407,55.7783 571.478,55.7781 571.548,55.7778 571.619,55.7774 571.69,55.777 571.76,55.7765 571.831,55.7759 571.901,55.7753 571.972,55.7747 572.043,55.7739 572.113,55.7731 572.184,55.7723 572.255,55.7713 572.325,55.7704 572.396,55.7693 572.466,55.7682 572.608,55.7658 572.678,55.7645 572.749,55.7632 572.89,55.7603 573.173,55.7538 573.238,55.7521 573.304,55.7504 573.436,55.7468 573.7,55.739 573.765,55.737 573.831,55.7348 573.963,55.7304 574.227,55.7209 574.292,55.7185 574.358,55.7159 574.49,55.7107 574.754,55.6995 575.281,55.6749 575.346,55.6716 575.412,55.6682 575.544,55.6613 575.807,55.647 576.334,55.616 576.4,55.6119 576.466,55.6078 576.598,55.5994 576.861,55.5819 577.388,55.5449 577.46,55.5396 577.531,55.5343 577.674,55.5236 577.96,55.5014 578.531,55.4546 579.674,55.3514 579.746,55.3445 579.817,55.3376 579.96,55.3237 580.246,55.2953 580.817,55.2362 581.96,55.1099 582.027,55.1022 582.094,55.0945 582.227,55.0789 582.494,55.0474 583.027,54.9828 584.094,54.8474 586.228,54.5544 590.412,53.9098 594.951,53.1318 599.187,52.3542 603.779,51.4715 608.066,50.6202 612.27,49.7667 616.829,48.8249 621.085,47.9343 625.696,46.9594 630.224,45.9943 634.447,45.0882 639.026,44.1007 643.302,43.1748 647.493,42.2639 652.04,41.2727 656.283,40.3454 656.357,40.3292 656.431,40.313 656.579,40.2806 656.875,40.2158 657.467,40.0862 658.652,39.8269 658.726,39.8107 658.8,39.7945 658.948,39.7621 659.244,39.6972 659.836,39.5675 659.91,39.5513 659.984,39.5351 660.132,39.5026 660.428,39.4377 660.502,39.4215 660.576,39.4053 660.724,39.3728 660.798,39.3566 660.872,39.3404 660.946,39.3242 661.02,39.3079 "
     id="polyline13"
     style="fill:none;stroke:#d40000;stroke-width:1.62005793999999992;stroke-miterlimit:4;stroke-opacity:1;stroke-dasharray:none"
     transform="matrix(1.2345237,0,0,1.2345237,-91.354754,-16.048808)" />
  <polyline
     points="445.38,88.2099 445.446,88.1953 445.512,88.1807 445.645,88.1514 445.909,88.0928 446.438,87.9757 447.496,87.7415 449.613,87.2733 454.201,86.2587 458.486,85.3121 462.687,84.385 467.243,83.3804 471.496,82.444 476.105,81.4306 480.629,80.4373 484.85,79.5125 489.426,78.5118 493.698,77.58 497.887,76.669 502.431,75.6839 506.672,74.7685 511.268,73.7811 515.78,72.8179 519.988,71.9264 524.553,70.9685 528.813,70.0854 533.429,69.1438 537.961,68.2401 542.189,67.4219 546.773,66.5723 551.053,65.8285 555.249,65.1653 555.32,65.1548 555.391,65.1443 555.534,65.1233 555.818,65.0818 556.387,65 557.525,64.8422 557.596,64.8326 557.667,64.823 557.809,64.804 558.094,64.7663 558.663,64.6925 559.801,64.5517 559.867,64.5438 559.934,64.5359 560.066,64.5203 560.332,64.4893 560.863,64.4291 561.925,64.3157 561.991,64.3089 562.058,64.3022 562.19,64.2888 562.456,64.2626 562.987,64.2121 564.049,64.1191 564.121,64.1132 564.193,64.1073 564.337,64.0958 564.624,64.0734 565.2,64.031 565.272,64.026 565.344,64.021 565.488,64.0112 565.775,63.9923 566.351,63.9571 566.423,63.9529 566.495,63.9489 566.639,63.9409 566.926,63.9256 566.998,63.9219 567.07,63.9183 567.214,63.9113 567.502,63.898 567.574,63.8948 567.646,63.8916 567.79,63.8856 568.077,63.8742 568.149,63.8715 568.221,63.8688 568.365,63.8637 568.653,63.8543 568.723,63.8522 568.794,63.8501 568.935,63.846 569.006,63.8441 569.076,63.8423 569.218,63.8387 569.288,63.8371 569.359,63.8354 569.5,63.8324 569.571,63.831 569.641,63.8296 569.783,63.827 569.853,63.8259 569.924,63.8247 569.995,63.8237 570.065,63.8227 570.136,63.8217 570.206,63.8209 570.348,63.8193 570.418,63.8186 570.489,63.818 570.56,63.8174 570.63,63.8169 570.701,63.8165 570.771,63.8161 570.842,63.8158 570.913,63.8155 570.983,63.8153 571.054,63.8152 571.125,63.8151 571.195,63.8151 571.266,63.8151 571.336,63.8153 571.407,63.8154 571.478,63.8157 571.548,63.816 571.619,63.8163 571.69,63.8168 571.76,63.8173 571.831,63.8178 571.901,63.8184 571.972,63.8191 572.043,63.8198 572.113,63.8206 572.184,63.8215 572.255,63.8224 572.325,63.8234 572.396,63.8244 572.466,63.8255 572.608,63.8279 572.678,63.8292 572.749,63.8306 572.89,63.8335 573.173,63.84 573.238,63.8416 573.304,63.8433 573.436,63.8469 573.7,63.8547 573.765,63.8568 573.831,63.8589 573.963,63.8633 574.227,63.8728 574.292,63.8753 574.358,63.8778 574.49,63.8831 574.754,63.8942 575.281,63.9189 575.346,63.9222 575.412,63.9255 575.544,63.9324 575.807,63.9467 576.334,63.9777 576.4,63.9818 576.466,63.986 576.598,63.9944 576.861,64.0118 577.388,64.0489 577.46,64.0541 577.531,64.0594 577.674,64.0702 577.96,64.0924 578.531,64.1392 579.674,64.2423 579.746,64.2492 579.817,64.2561 579.96,64.27 580.246,64.2985 580.817,64.3575 581.96,64.4838 582.027,64.4915 582.094,64.4992 582.227,64.5148 582.494,64.5463 583.027,64.611 584.094,64.7464 586.228,65.0393 590.412,65.684 594.951,66.462 599.187,67.2395 603.779,68.1223 608.066,68.9736 612.27,69.8271 616.829,70.7688 621.085,71.6594 625.696,72.6344 630.224,73.5995 634.447,74.5055 639.026,75.493 643.302,76.419 647.493,77.3298 652.04,78.321 656.283,79.2484 656.357,79.2645 656.431,79.2807 656.579,79.3131 656.875,79.3779 657.467,79.5075 658.652,79.7668 658.726,79.783 658.8,79.7992 658.948,79.8317 659.244,79.8965 659.836,80.0262 659.91,80.0425 659.984,80.0587 660.132,80.0911 660.428,80.156 660.502,80.1722 660.576,80.1885 660.724,80.2209 660.798,80.2371 660.872,80.2534 660.946,80.2696 661.02,80.2858 "
     id="polyline15"
     style="fill:none;stroke:#d40000;stroke-width:1.62005793999999992;stroke-miterlimit:4;stroke-opacity:1;stroke-dasharray:none"
     transform="matrix(1.2345237,0,0,1.2345237,-91.354754,-16.048808)" />
  <polyline
     points="85.98,47.0902 86.0902,47.098 86.2005,47.1057 86.4209,47.1213 86.8618,47.1524 87.7436,47.2143 89.5073,47.3371 93.0345,47.5788 100.682,48.0836 107.824,48.5284 114.825,48.9365 122.419,49.3442 129.507,49.688 137.188,50.0162 137.305,50.0208 137.423,50.0254 137.659,50.0347 138.13,50.053 139.073,50.0891 140.958,50.1589 144.729,50.2888 144.838,50.2924 144.948,50.296 145.168,50.3031 145.608,50.3172 146.487,50.3449 148.246,50.398 148.355,50.4012 148.465,50.4044 148.685,50.4108 149.125,50.4234 150.004,50.4481 151.763,50.4951 151.882,50.4982 152.001,50.5013 152.239,50.5073 152.716,50.5193 153.669,50.5426 155.576,50.5864 155.696,50.589 155.815,50.5916 156.053,50.5968 156.53,50.6069 157.483,50.6265 159.39,50.6627 159.501,50.6647 159.613,50.6667 159.835,50.6706 160.28,50.6783 161.17,50.6931 161.282,50.6949 161.393,50.6966 161.615,50.7001 162.06,50.707 162.95,50.72 163.062,50.7216 163.173,50.7232 163.395,50.7262 163.841,50.7322 164.731,50.7436 164.842,50.7449 164.953,50.7463 165.176,50.7489 165.621,50.7541 166.511,50.7637 166.62,50.7648 166.729,50.7659 166.947,50.7681 167.383,50.7723 167.492,50.7733 167.601,50.7743 167.82,50.7762 168.256,50.78 168.365,50.7809 168.474,50.7818 168.692,50.7836 169.128,50.7869 170.001,50.793 170.11,50.7937 170.219,50.7944 170.437,50.7957 170.874,50.7982 170.983,50.7988 171.092,50.7994 171.31,50.8005 171.746,50.8026 171.855,50.8031 171.964,50.8036 172.182,50.8045 172.292,50.8049 172.401,50.8053 172.619,50.8061 172.728,50.8065 172.837,50.8069 173.055,50.8076 173.164,50.8079 173.273,50.8082 173.491,50.8088 173.61,50.8091 173.728,50.8094 173.846,50.8097 173.965,50.8099 174.083,50.8102 174.201,50.8104 174.438,50.8108 174.556,50.811 174.675,50.8111 174.793,50.8113 174.911,50.8114 175.03,50.8115 175.148,50.8116 175.267,50.8117 175.385,50.8118 175.503,50.8118 175.622,50.8119 175.74,50.8119 175.858,50.8119 175.977,50.8119 176.095,50.8118 176.213,50.8118 176.332,50.8117 176.45,50.8117 176.568,50.8116 176.687,50.8115 176.805,50.8113 176.923,50.8112 177.042,50.8111 177.16,50.8109 177.278,50.8107 177.397,50.8105 177.515,50.8103 177.633,50.8101 177.752,50.8098 177.87,50.8096 177.988,50.8093 178.225,50.8087 178.343,50.8084 178.462,50.808 178.698,50.8073 179.172,50.8057 179.29,50.8052 179.409,50.8048 179.645,50.8038 180.119,50.8016 180.237,50.8011 180.355,50.8005 180.592,50.7993 181.065,50.7966 181.176,50.796 181.286,50.7953 181.507,50.794 181.949,50.7911 182.059,50.7903 182.17,50.7895 182.39,50.788 182.832,50.7846 182.943,50.7838 183.053,50.7829 183.274,50.7811 183.716,50.7773 184.599,50.7692 184.709,50.7681 184.82,50.767 185.041,50.7648 185.482,50.7602 186.366,50.7503 188.133,50.728 188.252,50.7264 188.372,50.7248 188.611,50.7214 189.09,50.7146 190.048,50.7001 191.963,50.6682 192.082,50.6661 192.202,50.6639 192.442,50.6596 192.92,50.6508 193.878,50.6324 195.793,50.5928 195.911,50.5902 196.028,50.5876 196.263,50.5825 196.733,50.5719 197.673,50.5502 199.553,50.504 203.314,50.4009 203.423,50.3977 203.533,50.3945 203.752,50.388 204.19,50.3749 205.067,50.3482 206.82,50.2924 210.327,50.1724 210.446,50.1681 210.565,50.1638 210.803,50.1552 211.278,50.1379 212.229,50.1026 214.131,50.0296 217.934,49.8743 225.034,49.5528 232.728,49.1618 240.282,48.7393 247.328,48.3143 254.968,47.8236 262.102,47.3406 269.095,46.8464 276.682,46.2898 283.761,45.7533 291.435,45.1553 298.968,44.5535 305.994,43.9805 313.614,43.3478 320.727,42.7475 327.699,42.1511 335.265,41.4959 342.325,40.8777 349.978,40.2009 357.124,39.5631 364.129,38.9331 371.729,38.2448 378.821,37.5981 386.507,36.8932 394.053,36.1973 401.092,35.5449 408.724,34.8344 415.849,34.1683 422.835,33.513 430.414,32.7995 437.486,32.1316 437.609,32.12 437.732,32.1083 437.979,32.0849 438.472,32.0383 439.459,31.9449 441.433,31.758 441.556,31.7463 441.679,31.7346 441.926,31.7113 442.42,31.6645 443.406,31.571 443.53,31.5593 443.653,31.5476 443.9,31.5242 444.393,31.4774 444.517,31.4657 444.64,31.454 444.887,31.4306 445.01,31.4189 445.133,31.4072 445.257,31.3955 445.38,31.3838 "
     id="polyline17"
     style="fill:none;stroke:#d40000;stroke-width:1.62005793999999992;stroke-miterlimit:4;stroke-opacity:1;stroke-dasharray:none"
     transform="matrix(1.2345237,0,0,1.2345237,-91.354754,-16.048808)" />
  <polyline
     points="85.98,72.5036 86.0902,72.4958 86.2005,72.488 86.4209,72.4724 86.8618,72.4414 87.7436,72.3795 89.5073,72.2567 93.0345,72.0149 100.682,71.5102 107.824,71.0654 114.825,70.6572 122.419,70.2495 129.507,69.9057 137.188,69.5776 137.305,69.573 137.423,69.5683 137.659,69.5591 138.13,69.5407 139.073,69.5047 140.958,69.4349 144.729,69.3049 144.838,69.3013 144.948,69.2978 145.168,69.2906 145.608,69.2765 146.487,69.2489 148.246,69.1958 148.355,69.1926 148.465,69.1893 148.685,69.183 149.125,69.1703 150.004,69.1457 151.763,69.0986 151.882,69.0956 152.001,69.0925 152.239,69.0864 152.716,69.0744 153.669,69.0511 155.576,69.0073 155.696,69.0047 155.815,69.0021 156.053,68.997 156.53,68.9868 157.483,68.9673 159.39,68.931 159.501,68.929 159.613,68.9271 159.835,68.9231 160.28,68.9154 161.17,68.9007 161.282,68.8989 161.393,68.8971 161.615,68.8936 162.06,68.8868 162.95,68.8737 163.062,68.8721 163.173,68.8706 163.395,68.8675 163.841,68.8615 164.731,68.8502 164.842,68.8488 164.953,68.8475 165.176,68.8448 165.621,68.8397 166.511,68.8301 166.62,68.829 166.729,68.8279 166.947,68.8257 167.383,68.8215 167.492,68.8205 167.601,68.8195 167.82,68.8175 168.256,68.8137 168.365,68.8128 168.474,68.8119 168.692,68.8102 169.128,68.8068 170.001,68.8008 170.11,68.8001 170.219,68.7994 170.437,68.798 170.874,68.7955 170.983,68.7949 171.092,68.7944 171.31,68.7932 171.746,68.7912 171.855,68.7907 171.964,68.7902 172.182,68.7893 172.292,68.7888 172.401,68.7884 172.619,68.7876 172.728,68.7872 172.837,68.7869 173.055,68.7862 173.164,68.7858 173.273,68.7855 173.491,68.7849 173.61,68.7846 173.728,68.7843 173.846,68.7841 173.965,68.7838 174.083,68.7836 174.201,68.7834 174.438,68.783 174.556,68.7828 174.675,68.7826 174.793,68.7825 174.911,68.7823 175.03,68.7822 175.148,68.7821 175.267,68.7821 175.385,68.782 175.503,68.7819 175.622,68.7819 175.74,68.7819 175.858,68.7819 175.977,68.7819 176.095,68.7819 176.213,68.782 176.332,68.782 176.45,68.7821 176.568,68.7822 176.687,68.7823 176.805,68.7824 176.923,68.7825 177.042,68.7827 177.16,68.7829 177.278,68.783 177.397,68.7832 177.515,68.7835 177.633,68.7837 177.752,68.7839 177.87,68.7842 177.988,68.7845 178.225,68.7851 178.343,68.7854 178.462,68.7857 178.698,68.7865 179.172,68.7881 179.29,68.7885 179.409,68.789 179.645,68.79 180.119,68.7921 180.237,68.7927 180.355,68.7933 180.592,68.7945 181.065,68.7971 181.176,68.7978 181.286,68.7984 181.507,68.7998 181.949,68.8027 182.059,68.8034 182.17,68.8042 182.39,68.8058 182.832,68.8091 182.943,68.81 183.053,68.8109 183.274,68.8127 183.716,68.8164 184.599,68.8246 184.709,68.8256 184.82,68.8267 185.041,68.829 185.482,68.8336 186.366,68.8434 188.133,68.8657 188.252,68.8673 188.372,68.869 188.611,68.8723 189.09,68.8792 190.048,68.8937 191.963,68.9256 192.082,68.9277 192.202,68.9298 192.442,68.9341 192.92,68.943 193.878,68.9613 195.793,69.001 195.911,69.0035 196.028,69.0061 196.263,69.0113 196.733,69.0218 197.673,69.0436 199.553,69.0898 203.314,69.1928 203.423,69.196 203.533,69.1992 203.752,69.2057 204.19,69.2188 205.067,69.2456 206.82,69.3013 210.327,69.4214 210.446,69.4256 210.565,69.4299 210.803,69.4385 211.278,69.4559 212.229,69.4912 214.131,69.5642 217.934,69.7195 225.034,70.0409 232.728,70.4319 240.282,70.8545 247.328,71.2795 254.968,71.7701 262.102,72.2531 269.095,72.7473 276.682,73.3039 283.761,73.8405 291.435,74.4384 298.968,75.0402 305.994,75.6132 313.614,76.246 320.727,76.8462 327.699,77.4426 335.265,78.0979 342.325,78.7161 349.978,79.3929 357.124,80.0306 364.129,80.6606 371.729,81.349 378.821,81.9956 386.507,82.7005 394.053,83.3965 401.092,84.0488 408.724,84.7594 415.849,85.4254 422.835,86.0808 430.414,86.7942 437.486,87.4621 437.609,87.4738 437.732,87.4855 437.979,87.5088 438.472,87.5555 439.459,87.6489 441.433,87.8357 441.556,87.8474 441.679,87.8591 441.926,87.8825 442.42,87.9292 443.406,88.0228 443.53,88.0345 443.653,88.0462 443.9,88.0696 444.393,88.1163 444.517,88.128 444.64,88.1397 444.887,88.1631 445.01,88.1748 445.133,88.1865 445.257,88.1982 445.38,88.2099 "
     id="polyline19"
     style="fill:none;stroke:#d40000;stroke-width:1.62005793999999992;stroke-miterlimit:4;stroke-opacity:1;stroke-dasharray:none"
     transform="matrix(1.2345237,0,0,1.2345237,-91.354754,-16.048808)" />
  <path
     d="m 458.47741,113.23298 c -7.3948,-36.974105 -7.3948,-73.94809 0,-110.922075"
     id="path21"
     inkscape:connector-curvature="0"
     style="fill:#c9e6ff;stroke:#000000;stroke-width:2;stroke-miterlimit:4;stroke-opacity:1;stroke-dasharray:none;fill-opacity:1" />
  <path
     d="m 458.47741,113.23298 c 7.3948,-36.974105 7.3948,-73.94809 0,-110.922075"
     id="path23"
     inkscape:connector-curvature="0"
     style="fill:#c9e6ff;stroke:#000000;stroke-width:2;stroke-miterlimit:4;stroke-opacity:1;stroke-dasharray:none;fill-opacity:1" />
  <circle
     sodipodi:ry="2.3535533"
     sodipodi:rx="2.3535533"
     sodipodi:cy="46.823223"
     sodipodi:cx="281.35355"
     d="m 283.7071,46.823223 c 0,1.299832 -1.05372,2.353553 -2.35355,2.353553 -1.29984,0 -2.35356,-1.053721 -2.35356,-2.353553 0,-1.299831 1.05372,-2.353553 2.35356,-2.353553 1.29983,0 2.35355,1.053722 2.35355,2.353553 z"
     style="fill:#000000;fill-opacity:1;stroke:none"
     id="path4713"
     cx="281.35355"
     cy="46.823223"
     r="2.3535533"
     transform="scale(1.2345237,1.2345237)" />
  <text
     xml:space="preserve"
     style="font-size:22px;font-style:normal;font-variant:normal;font-weight:normal;font-stretch:normal;line-height:125%;letter-spacing:0px;word-spacing:0px;fill:#000000;fill-opacity:1;stroke:none;font-family:Nimbus Sans L;-inkscape-font-specification:Sans"
     x="391.73715"
     y="52.755859"
     id="text3183"
     sodipodi:linespacing="125%"><tspan
       sodipodi:role="line"
       id="tspan3185"
       x="391.73715"
       y="52.755859">$f$</tspan></text>
  <text
     xml:space="preserve"
     style="font-size:22px;font-style:normal;font-variant:normal;font-weight:normal;font-stretch:normal;line-height:125%;letter-spacing:0px;word-spacing:0px;fill:#000000;fill-opacity:1;stroke:none;font-family:Nimbus Sans L;-inkscape-font-specification:Sans"
     x="490.05865"
     y="52.768791"
     id="text3183-9"
     sodipodi:linespacing="125%"><tspan
       sodipodi:role="line"
       id="tspan3185-0"
       x="490.05865"
       y="52.768791">$f$</tspan></text>
  <path
     style="fill:none;stroke:#000000;stroke-width:1.5;stroke-linecap:butt;stroke-linejoin:miter;stroke-miterlimit:4;stroke-opacity:1;stroke-dasharray:none;marker-start:url(#Arrow2Mstart);marker-end:url(#Arrow2Mend)"
     d="m 124,57.612209 218.99999,0"
     id="path4356"
     inkscape:path-effect="#path-effect4358"
     inkscape:original-d="m 124,57.612209 c 73.01132,0.07928 147.23025,8.611818 218.99999,0"
     inkscape:connector-curvature="0"
     sodipodi:nodetypes="cc" />
  <text
     xml:space="preserve"
     style="font-size:22px;font-style:normal;font-variant:normal;font-weight:normal;font-stretch:normal;line-height:125%;letter-spacing:0px;word-spacing:0px;fill:#000000;fill-opacity:1;stroke:none;font-family:Nimbus Sans L;-inkscape-font-specification:Sans"
     x="119.5"
     y="40.862209"
     id="text5096"
     sodipodi:linespacing="125%"><tspan
       sodipodi:role="line"
       id="tspan5098"
       x="119.5"
       y="40.862209"
       style="font-size:16px">$w_{01}$</tspan></text>
  <text
     xml:space="preserve"
     style="font-size:22px;font-style:normal;font-variant:normal;font-weight:normal;font-stretch:normal;line-height:125%;letter-spacing:0px;word-spacing:0px;fill:#000000;fill-opacity:1;stroke:none;font-family:Nimbus Sans L;-inkscape-font-specification:Sans"
     x="246.49998"
     y="53.112206"
     id="text5100"
     sodipodi:linespacing="125%"><tspan
       sodipodi:role="line"
       id="tspan5102"
       x="246.49998"
       y="53.112206"
       style="font-size:16px">$x_1$</tspan></text>
  <text
     xml:space="preserve"
     style="font-size:22px;font-style:normal;font-variant:normal;font-weight:normal;font-stretch:normal;line-height:125%;letter-spacing:0px;word-spacing:0px;fill:#000000;fill-opacity:1;stroke:none;font-family:Nimbus Sans L;-inkscape-font-specification:Sans"
     x="340.75"
     y="79.112206"
     id="text5104"
     sodipodi:linespacing="125%"><tspan
       sodipodi:role="line"
       id="tspan5106"
       x="340.75"
       y="79.112206">$F$</tspan></text>
  <text
     xml:space="preserve"
     style="font-size:22px;font-style:normal;font-variant:normal;font-weight:normal;font-stretch:normal;line-height:125%;letter-spacing:0px;word-spacing:0px;fill:#000000;fill-opacity:1;stroke:none;font-family:Nimbus Sans L;-inkscape-font-specification:Sans"
     x="562.59131"
     y="79.196205"
     id="text5104-8"
     sodipodi:linespacing="125%"><tspan
       sodipodi:role="line"
       id="tspan5106-5"
       x="562.59131"
       y="79.196205">$F$</tspan></text>
  <text
     xml:space="preserve"
     style="font-size:22px;font-style:normal;font-variant:normal;font-weight:normal;font-stretch:normal;line-height:125%;letter-spacing:0px;word-spacing:0px;fill:#000000;fill-opacity:1;stroke:none;font-family:Nimbus Sans L;-inkscape-font-specification:Sans"
     x="604.4826"
     y="45.739212"
     id="text5096-1"
     sodipodi:linespacing="125%"><tspan
       sodipodi:role="line"
       id="tspan5098-8"
       x="604.4826"
       y="45.739212"
       style="font-size:16px">$w_{02}$</tspan></text>
  <text
     xml:space="preserve"
     style="font-size:22px;font-style:normal;font-variant:normal;font-weight:normal;font-stretch:normal;line-height:125%;letter-spacing:0px;word-spacing:0px;fill:#000000;fill-opacity:1;stroke:none;font-family:Nimbus Sans L;-inkscape-font-specification:Sans"
     x="588.11218"
     y="79.72538"
     id="text5100-8"
     sodipodi:linespacing="125%"><tspan
       sodipodi:role="line"
       id="tspan5102-5"
       x="588.11218"
       y="79.72538"
       style="font-size:22px">$x_2$</tspan></text>
  <path
     style="fill:none;stroke:#000000;stroke-width:1.5;stroke-linecap:butt;stroke-linejoin:miter;stroke-miterlimit:4;stroke-opacity:1;stroke-dasharray:none;marker-start:url(#Arrow2Mstart);marker-end:url(#Arrow2Mend)"
     d="m 351.57062,57.788985 104.51516,0.707106"
     id="path4356-9"
     inkscape:path-effect="#path-effect4358-5"
     inkscape:original-d="m 351.57062,57.788985 c 73.01132,0.07928 32.74542,9.318925 104.51516,0.707106"
     inkscape:connector-curvature="0"
     sodipodi:nodetypes="cc" />
  <path
     style="fill:none;stroke:#000000;stroke-width:1.5;stroke-linecap:butt;stroke-linejoin:miter;stroke-miterlimit:4;stroke-opacity:1;stroke-dasharray:none;marker-start:url(#Arrow2Mstart);marker-end:url(#Arrow2Mend)"
     d="M 460.03107,58.478326 564.89978,58.21316"
     id="path4356-9-5"
     inkscape:path-effect="#path-effect4358-5-0"
     inkscape:original-d="m 460.03107,58.478326 c 73.01132,0.07928 33.09897,8.346653 104.86871,-0.265166"
     inkscape:connector-curvature="0"
     sodipodi:nodetypes="cc" />
  <path
     style="fill:none;stroke:#000000;stroke-width:1.5;stroke-linecap:butt;stroke-linejoin:miter;stroke-miterlimit:4;stroke-opacity:1;stroke-dasharray:none;marker-start:url(#Arrow2Mstart);marker-end:url(#Arrow2Mend)"
     d="M 573.15662,57.994792 612.52956,57.55285"
     id="path4356-9-5-5"
     inkscape:path-effect="#path-effect4358-5-0-8"
     inkscape:original-d="m 573.15662,57.994792 c 73.01132,0.07928 -32.3968,8.169877 39.37294,-0.441942"
     inkscape:connector-curvature="0"
     sodipodi:nodetypes="cc" />
  <circle
     sodipodi:ry="2.3535533"
     sodipodi:rx="2.3535533"
     sodipodi:cy="46.823223"
     sodipodi:cx="281.35355"
     d="m 283.7071,46.823223 c 0,1.299832 -1.05372,2.353553 -2.35355,2.353553 -1.29984,0 -2.35356,-1.053721 -2.35356,-2.353553 0,-1.299831 1.05372,-2.353553 2.35356,-2.353553 1.29983,0 2.35355,1.053722 2.35355,2.353553 z"
     style="fill:#000000;fill-opacity:1;stroke:none"
     id="path4713-3"
     cx="281.35355"
     cy="46.823223"
     r="2.3535533"
     transform="matrix(1.2345237,0,0,1.2345237,221.41236,0.74084985)" />
</svg>
