<?xml version="1.0" encoding="UTF-8" standalone="no"?>
<!-- Created with Inkscape (http://www.inkscape.org/) -->

<svg
   xmlns:dc="http://purl.org/dc/elements/1.1/"
   xmlns:cc="http://creativecommons.org/ns#"
   xmlns:rdf="http://www.w3.org/1999/02/22-rdf-syntax-ns#"
   xmlns:svg="http://www.w3.org/2000/svg"
   xmlns="http://www.w3.org/2000/svg"
   xmlns:sodipodi="http://sodipodi.sourceforge.net/DTD/sodipodi-0.dtd"
   xmlns:inkscape="http://www.inkscape.org/namespaces/inkscape"
   width="232.22652mm"
   height="42.563732mm"
   viewBox="0 0 822.84986 150.81637"
   id="svg3510"
   version="1.1"
   inkscape:version="0.92.3 (2405546, 2018-03-11)"
   sodipodi:docname="03_uklon_na_rezi.svg">
  <defs
     id="defs3512">
    <marker
       inkscape:stockid="Arrow1Lend"
       orient="auto"
       refY="0"
       refX="0"
       id="Arrow1Lend"
       style="overflow:visible">
      <path
         inkscape:connector-curvature="0"
         id="path4572"
         d="M 0,0 5,-5 -12.5,0 5,5 0,0 Z"
         style="fill-rule:evenodd;stroke:#000000;stroke-width:1pt"
         transform="matrix(-0.8,0,0,-0.8,-10,0)" />
    </marker>
    <marker
       inkscape:stockid="Arrow1Mstart"
       orient="auto"
       refY="0"
       refX="0"
       id="Arrow1Mstart-17"
       style="overflow:visible">
      <path
         inkscape:connector-curvature="0"
         id="path4575-70"
         d="M 0,0 5,-5 -12.5,0 5,5 0,0 Z"
         style="fill-rule:evenodd;stroke:#000000;stroke-width:1pt"
         transform="matrix(0.4,0,0,0.4,4,0)" />
    </marker>
    <marker
       inkscape:stockid="Arrow1Mend"
       orient="auto"
       refY="0"
       refX="0"
       id="Arrow1Mend-76"
       style="overflow:visible">
      <path
         inkscape:connector-curvature="0"
         id="path4578-4"
         d="M 0,0 5,-5 -12.5,0 5,5 0,0 Z"
         style="fill-rule:evenodd;stroke:#000000;stroke-width:1pt"
         transform="matrix(-0.4,0,0,-0.4,-4,0)" />
    </marker>
  </defs>
  <sodipodi:namedview
     id="base"
     pagecolor="#ffffff"
     bordercolor="#666666"
     borderopacity="1.0"
     inkscape:pageopacity="0.0"
     inkscape:pageshadow="2"
     inkscape:zoom="1.4"
     inkscape:cx="394.54558"
     inkscape:cy="-43.461152"
     inkscape:document-units="px"
     inkscape:current-layer="layer1"
     showgrid="false"
     fit-margin-top="0"
     fit-margin-left="0"
     fit-margin-right="0"
     fit-margin-bottom="0"
     inkscape:window-width="1614"
     inkscape:window-height="794"
     inkscape:window-x="308"
     inkscape:window-y="384"
     inkscape:window-maximized="0" />
  <metadata
     id="metadata3515">
    <rdf:RDF>
      <cc:Work
         rdf:about="">
        <dc:format>image/svg+xml</dc:format>
        <dc:type
           rdf:resource="http://purl.org/dc/dcmitype/StillImage" />
        <dc:title></dc:title>
      </cc:Work>
    </rdf:RDF>
  </metadata>
  <g
     inkscape:label="Layer 1"
     inkscape:groupmode="layer"
     id="layer1"
     transform="translate(-20.537477,-19.275014)">
    <rect
       style="fill:#000000;fill-opacity:1;stroke:#000000;stroke-width:0.8214649;stroke-miterlimit:4;stroke-opacity:1;stroke-dasharray:none;stroke-dashoffset:0"
       id="rect6372-5"
       width="3.6747866"
       height="59.605827"
       x="257.46524"
       y="110.07483" />
    <path
       style="fill:none;stroke:#000000;stroke-width:1.06794453;stroke-linecap:butt;stroke-linejoin:miter;stroke-miterlimit:4;stroke-opacity:1;stroke-dasharray:none;marker-start:url(#Arrow1Mstart-17);marker-end:url(#Arrow1Mend-76)"
       d="m 369.83545,57.214436 -1.5115,0.0045 -97.47494,0.324435"
       id="path6432-6"
       inkscape:connector-curvature="0"
       sodipodi:nodetypes="ccc" />
    <path
       style="fill:none;stroke:#000000;stroke-width:1.49875057;stroke-linecap:butt;stroke-linejoin:miter;stroke-miterlimit:4;stroke-opacity:1;stroke-dasharray:none"
       d="M 707.05432,34.733178 264.85546,94.683184 707.05432,147.13945"
       id="path6420"
       inkscape:connector-curvature="0"
       sodipodi:nodetypes="ccc" />
    <path
       style="fill:none;stroke:#000000;stroke-width:0.89652681;stroke-linecap:butt;stroke-linejoin:miter;stroke-miterlimit:4;stroke-opacity:1;stroke-dasharray:none"
       d="m 664.02632,94.087235 c 0,-11.074581 1.03564,-34.561006 -7.29189,-52.286565"
       id="path6426"
       inkscape:connector-curvature="0"
       sodipodi:nodetypes="cc" />
    <path
       style="fill:none;stroke:#000000;stroke-width:1.49875057;stroke-linecap:butt;stroke-linejoin:miter;stroke-miterlimit:4;stroke-opacity:1;stroke-dasharray:none;marker-end:url(#Arrow1Lend)"
       d="m 264.90172,94.683184 472.01024,0"
       id="path6878"
       inkscape:connector-curvature="0"
       sodipodi:nodetypes="cc" />
    <rect
       style="fill:#000000;fill-opacity:1;stroke:#000000;stroke-width:0.86381626;stroke-miterlimit:4;stroke-opacity:1;stroke-dasharray:none;stroke-dashoffset:0"
       id="rect6372"
       width="3.6324353"
       height="59.538658"
       x="257.39044"
       y="19.706923" />
    <g
       transform="matrix(2.5184735,0,0,1.4987505,-183.58238,29.378127)"
       id="g3471"
       style="stroke-width:1.28678695;stroke-miterlimit:4;stroke-dasharray:none;stroke:#d40000;stroke-opacity:1">
      <polyline
         transform="translate(-74,-13)"
         style="fill:none;stroke:#d40000;stroke-width:1.28678695;stroke-miterlimit:4;stroke-opacity:1;stroke-dasharray:none"
         id="polyline152"
         points="379.165,93.3604 379.171,93.3381 379.176,93.3158 379.188,93.2712 379.21,93.1819 379.255,93.0033 379.345,92.6459 379.521,91.9306 379.891,90.3766 380.222,88.9222 380.532,87.4932 380.853,85.9397 381.138,84.4869 381.43,82.9095 381.701,81.3579 381.939,79.908 382.181,78.3334 382.392,76.8611 382.584,75.4158 382.777,73.8457 382.943,72.3789 383.106,70.7871 383.25,69.2229 383.369,67.7628 383.482,66.178 383.484,66.1549 383.485,66.1317 383.488,66.0855 383.494,65.993 383.506,65.808 383.529,65.438 383.573,64.6977 383.574,64.6727 383.576,64.6476 383.579,64.5974 383.584,64.4972 383.595,64.2966 383.616,63.8954 383.617,63.8703 383.619,63.8452 383.621,63.7951 383.626,63.6948 383.636,63.4941 383.655,63.0928 383.656,63.0682 383.657,63.0436 383.659,62.9943 383.664,62.8958 383.672,62.6988 383.689,62.3047 383.69,62.2801 383.691,62.2554 383.693,62.2062 383.697,62.1076 383.704,61.9106 383.719,61.5164 383.719,61.4934 383.72,61.4704 383.722,61.4245 383.725,61.3325 383.731,61.1487 383.743,60.7809 383.743,60.7579 383.744,60.7349 383.745,60.6889 383.748,60.597 383.753,60.4131 383.763,60.0452 383.764,60.0203 383.764,59.9954 383.766,59.9455 383.768,59.8458 383.773,59.6464 383.773,59.6215 383.774,59.5965 383.775,59.5467 383.777,59.447 383.781,59.2475 383.782,59.2226 383.782,59.1977 383.783,59.1478 383.785,59.0481 383.789,58.8487 383.795,58.4498 383.796,58.4265 383.796,58.4032 383.797,58.3566 383.798,58.2635 383.8,58.0773 383.801,58.054 383.801,58.0307 383.802,57.9842 383.803,57.8911 383.805,57.7048 383.805,57.6816 383.805,57.6583 383.805,57.6117 383.806,57.5186 383.806,57.4953 383.807,57.472 383.807,57.4255 383.808,57.3324 383.808,57.3091 383.808,57.2858 383.808,57.2392 383.809,57.1461 383.809,57.1228 383.809,57.0996 383.81,57.053 383.81,56.9599 383.81,56.9371 383.81,56.9142 383.811,56.8686 383.811,56.8458 383.811,56.8229 383.811,56.7773 383.811,56.7545 383.811,56.7317 383.811,56.686 383.811,56.6632 383.811,56.6404 383.811,56.5947 383.811,56.5719 383.812,56.5491 383.812,56.5262 383.812,56.5034 383.812,56.4806 383.812,56.4578 383.812,56.435 383.812,56.4121 383.812,56.3893 383.812,56.3665 383.812,56.3437 383.812,56.3208 383.812,56.298 383.812,56.2752 383.812,56.2524 383.812,56.2295 383.812,56.2067 383.812,56.1839 383.812,56.1611 383.812,56.1383 383.812,56.1154 383.812,56.0926 383.812,56.0698 383.812,56.047 383.812,56.0241 383.812,56.0013 383.812,55.9785 383.812,55.9557 383.812,55.9328 383.812,55.91 383.812,55.8644 383.811,55.8416 383.811,55.8187 383.811,55.7731 383.811,55.7503 383.811,55.7274 383.811,55.6818 383.811,55.659 383.811,55.6361 383.811,55.5905 383.81,55.4992 383.81,55.4744 383.81,55.4497 383.81,55.4002 383.809,55.3011 383.809,55.2764 383.809,55.2516 383.809,55.2021 383.808,55.1031 383.808,55.0783 383.807,55.0535 383.807,55.004 383.806,54.905 383.804,54.7069 383.804,54.6822 383.804,54.6574 383.803,54.6079 383.802,54.5088 383.8,54.3108 383.8,54.286 383.799,54.2613 383.799,54.2118 383.797,54.1127 383.794,53.9147 383.794,53.8916 383.794,53.8685 383.793,53.8223 383.791,53.7298 383.788,53.545 383.788,53.5219 383.788,53.4988 383.787,53.4526 383.785,53.3602 383.781,53.1754 383.781,53.1523 383.78,53.1292 383.779,53.083 383.778,52.9906 383.773,52.8058 383.765,52.4362 383.764,52.4112 383.763,52.3861 383.762,52.3361 383.759,52.2359 383.754,52.0357 383.742,51.6352 383.742,51.6101 383.741,51.5851 383.739,51.535 383.736,51.4349 383.73,51.2347 383.716,50.8342 383.715,50.8097 383.714,50.7851 383.712,50.736 383.709,50.6377 383.701,50.4411 383.686,50.0481 383.652,49.2621 383.651,49.2392 383.65,49.2163 383.647,49.1705 383.643,49.0789 383.634,48.8956 383.616,48.5292 383.577,47.7964 383.576,47.7716 383.574,47.7468 383.571,47.6971 383.566,47.5978 383.554,47.3992 383.53,47.002 383.48,46.2079 383.374,44.726 383.256,43.2743 383.112,41.7005 382.963,40.2336 382.785,38.6451 382.604,37.1636 382.412,35.7129 382.188,34.1415 381.964,32.6771 381.705,31.0928 381.434,29.5401 381.167,28.0944 380.862,26.5298 380.562,25.072 380.253,23.6459 379.904,22.1021 379.562,20.6649 379.556,20.6398 379.55,20.6148 379.538,20.5647 379.514,20.4646 379.465,20.2644 379.366,19.8642 379.36,19.8392 379.353,19.8142 379.341,19.7642 379.316,19.6642 379.266,19.4642 379.26,19.4393 379.253,19.4143 379.241,19.3643 379.216,19.2644 379.209,19.2394 379.203,19.2144 379.19,19.1645 379.184,19.1395 379.178,19.1145 379.171,19.0895 379.165,19.0646 " />
      <polyline
         transform="translate(-74,-13)"
         style="fill:none;stroke:#d40000;stroke-width:1.28678695;stroke-miterlimit:4;stroke-opacity:1;stroke-dasharray:none"
         id="polyline154"
         points="387.913,95.5972 387.919,95.5736 387.925,95.5499 387.937,95.5026 387.961,95.408 388.009,95.2187 388.104,94.8399 388.292,94.0816 388.687,92.4344 389.039,90.8927 389.37,89.3778 389.712,87.731 390.016,86.1909 390.327,84.5186 390.616,82.8736 390.87,81.3365 391.128,79.6671 391.353,78.1062 391.558,76.5739 391.764,74.9091 391.94,73.3539 392.114,71.6662 392.267,70.0077 392.395,68.4596 392.515,66.7792 392.517,66.7546 392.519,66.7301 392.522,66.6811 392.528,66.583 392.541,66.3869 392.566,65.9945 392.612,65.2096 392.614,65.183 392.615,65.1565 392.618,65.1033 392.624,64.997 392.636,64.7843 392.658,64.3589 392.66,64.3323 392.661,64.3057 392.664,64.2525 392.669,64.1462 392.679,63.9334 392.7,63.5079 392.701,63.4818 392.702,63.4557 392.704,63.4035 392.709,63.299 392.718,63.0901 392.736,62.6723 392.737,62.6461 392.738,62.62 392.74,62.5678 392.744,62.4633 392.752,62.2544 392.767,61.8364 392.768,61.812 392.769,61.7877 392.771,61.7389 392.774,61.6414 392.781,61.4465 392.793,61.0565 392.794,61.0321 392.795,61.0078 392.796,60.959 392.799,60.8615 392.805,60.6665 392.815,60.2765 392.816,60.25 392.816,60.2236 392.818,60.1708 392.82,60.065 392.825,59.8536 392.826,59.8271 392.826,59.8007 392.828,59.7478 392.83,59.6421 392.834,59.4307 392.835,59.4042 392.835,59.3778 392.836,59.3249 392.839,59.2192 392.842,59.0077 392.849,58.5847 392.85,58.5601 392.85,58.5354 392.851,58.486 392.852,58.3873 392.855,58.1898 392.855,58.1651 392.855,58.1404 392.856,58.0911 392.857,57.9923 392.859,57.7949 392.859,57.7702 392.86,57.7455 392.86,57.6961 392.861,57.5974 392.861,57.5727 392.861,57.548 392.862,57.4987 392.863,57.3999 392.863,57.3752 392.863,57.3506 392.863,57.3012 392.864,57.2025 392.864,57.1778 392.864,57.1531 392.864,57.1037 392.865,57.005 392.865,56.9808 392.865,56.9566 392.865,56.9082 392.866,56.884 392.866,56.8598 392.866,56.8114 392.866,56.7872 392.866,56.763 392.866,56.7146 392.866,56.6904 392.866,56.6662 392.866,56.6178 392.866,56.5936 392.867,56.5694 392.867,56.5452 392.867,56.521 392.867,56.4968 392.867,56.4726 392.867,56.4484 392.867,56.4242 392.867,56.4 392.867,56.3758 392.867,56.3516 392.867,56.3274 392.867,56.3032 392.867,56.279 392.867,56.2548 392.867,56.2306 392.867,56.2064 392.867,56.1822 392.867,56.158 392.867,56.1338 392.867,56.1096 392.867,56.0854 392.867,56.0612 392.867,56.037 392.867,56.0128 392.867,55.9886 392.867,55.9644 392.867,55.9402 392.867,55.916 392.867,55.8918 392.867,55.8434 392.866,55.8192 392.866,55.795 392.866,55.7466 392.866,55.7224 392.866,55.6982 392.866,55.6498 392.866,55.6256 392.866,55.6014 392.866,55.553 392.865,55.4562 392.865,55.4299 392.865,55.4037 392.865,55.3512 392.864,55.2461 392.864,55.2199 392.864,55.1936 392.863,55.1411 392.863,55.0361 392.862,55.0099 392.862,54.9836 392.862,54.9311 392.861,54.8261 392.859,54.6161 392.859,54.5898 392.858,54.5636 392.858,54.5111 392.857,54.4061 392.854,54.196 392.854,54.1698 392.853,54.1435 392.853,54.091 392.851,53.986 392.848,53.776 392.848,53.7515 392.848,53.727 392.847,53.678 392.845,53.58 392.842,53.3841 392.841,53.3596 392.841,53.3351 392.84,53.2861 392.838,53.1881 392.834,52.9922 392.834,52.9677 392.833,52.9432 392.832,52.8942 392.83,52.7962 392.826,52.6002 392.817,52.2084 392.816,52.1818 392.815,52.1553 392.814,52.1022 392.811,51.996 392.805,51.7837 392.793,51.359 392.792,51.3324 392.791,51.3059 392.79,51.2528 392.786,51.1467 392.779,50.9343 392.765,50.5097 392.764,50.4837 392.763,50.4576 392.761,50.4055 392.757,50.3013 392.749,50.0929 392.733,49.6762 392.696,48.8428 392.695,48.8185 392.694,48.7942 392.692,48.7456 392.687,48.6485 392.678,48.4542 392.658,48.0656 392.616,47.2887 392.615,47.2624 392.613,47.236 392.61,47.1834 392.604,47.0781 392.592,46.8675 392.567,46.4464 392.513,45.6043 392.4,44.0331 392.274,42.4939 392.121,40.8252 391.962,39.2699 391.772,37.5856 391.579,36.0148 391.374,34.4768 391.136,32.8108 390.897,31.2583 390.621,29.5786 390.332,27.9325 390.047,26.3998 389.722,24.7411 389.402,23.1958 389.073,21.684 388.7,20.0475 388.336,18.5241 388.33,18.4975 388.323,18.471 388.31,18.4179 388.284,18.3118 388.232,18.0996 388.127,17.6753 388.12,17.6488 388.113,17.6223 388.1,17.5693 388.074,17.4633 388.02,17.2514 388.014,17.2249 388.007,17.1984 387.993,17.1455 387.967,17.0396 387.96,17.0131 387.953,16.9866 387.94,16.9337 387.933,16.9072 387.926,16.8807 387.919,16.8543 387.913,16.8278 " />
      <polyline
         transform="matrix(0.97612334,0,0,0.97612334,-64.466323,-11.657833)"
         style="fill:none;stroke:#d40000;stroke-width:1.31826266;stroke-miterlimit:4;stroke-opacity:1;stroke-dasharray:none"
         id="polyline156"
         points="396.658,97.8444 396.664,97.8194 396.67,97.7944 396.683,97.7445 396.709,97.6444 396.76,97.4444 396.861,97.0441 397.061,96.2427 397.48,94.5018 397.854,92.8723 398.205,91.2712 398.569,89.5306 398.891,87.9028 399.222,86.1351 399.529,84.3964 399.798,82.7716 400.072,81.0069 400.311,79.3569 400.529,77.7372 400.748,75.9774 400.935,74.3334 401.12,72.5493 401.283,70.7961 401.418,69.1595 401.546,67.3831 401.548,67.3572 401.549,67.3313 401.553,67.2794 401.56,67.1757 401.573,66.9684 401.599,66.5536 401.649,65.7239 401.65,65.6958 401.652,65.6677 401.655,65.6115 401.661,65.4991 401.674,65.2742 401.697,64.8245 401.699,64.7964 401.7,64.7683 401.703,64.7121 401.709,64.5996 401.72,64.3748 401.741,63.9249 401.743,63.8973 401.744,63.8697 401.746,63.8145 401.751,63.7041 401.761,63.4832 401.78,63.0415 401.781,63.0139 401.782,62.9863 401.784,62.9311 401.789,62.8206 401.797,62.5997 401.814,62.1579 401.814,62.1321 401.815,62.1063 401.817,62.0548 401.821,61.9518 401.828,61.7456 401.841,61.3334 401.842,61.3076 401.842,61.2818 401.844,61.2303 401.847,61.1272 401.853,60.9211 401.864,60.5088 401.865,60.4808 401.865,60.4529 401.867,60.397 401.87,60.2852 401.875,60.0617 401.876,60.0338 401.876,60.0058 401.877,59.9499 401.88,59.8382 401.885,59.6146 401.885,59.5867 401.886,59.5587 401.887,59.5028 401.889,59.391 401.893,59.1675 401.9,58.7203 401.901,58.6942 401.901,58.6682 401.902,58.616 401.903,58.5116 401.906,58.3028 401.906,58.2767 401.907,58.2507 401.907,58.1985 401.909,58.0941 401.911,57.8853 401.911,57.8592 401.911,57.8331 401.912,57.781 401.913,57.6766 401.913,57.6505 401.913,57.6244 401.914,57.5722 401.915,57.4678 401.915,57.4417 401.915,57.4156 401.915,57.3634 401.916,57.259 401.916,57.233 401.916,57.2069 401.917,57.1547 401.917,57.0503 401.917,57.0247 401.917,56.9991 401.918,56.9479 401.918,56.9224 401.918,56.8968 401.918,56.8456 401.918,56.82 401.918,56.7944 401.918,56.7433 401.918,56.7177 401.919,56.6921 401.919,56.6409 401.919,56.6154 401.919,56.5898 401.919,56.5642 401.919,56.5386 401.919,56.513 401.919,56.4874 401.919,56.4619 401.919,56.4363 401.919,56.4107 401.919,56.3851 401.919,56.3595 401.919,56.3339 401.919,56.3084 401.919,56.2828 401.919,56.2572 401.919,56.2316 401.919,56.206 401.919,56.1804 401.919,56.1549 401.919,56.1293 401.919,56.1037 401.919,56.0781 401.919,56.0525 401.919,56.0269 401.919,56.0014 401.919,55.9758 401.919,55.9502 401.919,55.9246 401.919,55.899 401.919,55.8734 401.919,55.8223 401.919,55.7967 401.919,55.7711 401.918,55.7199 401.918,55.6944 401.918,55.6688 401.918,55.6176 401.918,55.592 401.918,55.5664 401.918,55.5153 401.917,55.4129 401.917,55.3852 401.917,55.3574 401.917,55.3019 401.916,55.1909 401.916,55.1632 401.916,55.1354 401.915,55.0799 401.915,54.9689 401.914,54.9411 401.914,54.9134 401.914,54.8579 401.913,54.7468 401.911,54.5248 401.91,54.4971 401.91,54.4693 401.91,54.4138 401.908,54.3028 401.906,54.0808 401.905,54.053 401.905,54.0253 401.904,53.9698 401.903,53.8588 401.899,53.6368 401.899,53.6109 401.899,53.585 401.898,53.5332 401.896,53.4296 401.893,53.2224 401.892,53.1965 401.892,53.1706 401.891,53.1188 401.889,53.0152 401.885,52.8081 401.884,52.7822 401.884,52.7563 401.882,52.7045 401.88,52.6009 401.876,52.3938 401.866,51.9795 401.865,51.9514 401.864,51.9234 401.863,51.8672 401.86,51.755 401.854,51.5305 401.841,51.0816 401.84,51.0535 401.839,51.0254 401.837,50.9693 401.833,50.8571 401.826,50.6326 401.811,50.1838 401.81,50.1562 401.809,50.1287 401.807,50.0736 401.802,49.9635 401.794,49.7432 401.776,49.3026 401.738,48.4215 401.737,48.3959 401.735,48.3702 401.733,48.3188 401.728,48.2161 401.718,48.0107 401.697,47.6 401.653,46.7786 401.652,46.7508 401.65,46.723 401.647,46.6673 401.64,46.556 401.627,46.3334 401.6,45.8882 401.543,44.998 401.423,43.337 401.29,41.7099 401.127,39.9459 400.958,38.3017 400.757,36.5213 400.551,34.8608 400.334,33.235 400.08,31.4739 399.827,29.8328 399.534,28.0574 399.227,26.3175 398.925,24.6974 398.579,22.9442 398.239,21.3109 397.89,19.7131 397.494,17.9834 397.107,16.3733 397.101,16.3453 397.094,16.3172 397.08,16.2611 397.052,16.1489 396.997,15.9247 396.885,15.4763 396.878,15.4483 396.871,15.4203 396.857,15.3643 396.829,15.2523 396.772,15.0283 396.765,15.0003 396.758,14.9723 396.743,14.9163 396.715,14.8044 396.708,14.7764 396.701,14.7484 396.686,14.6925 396.679,14.6645 396.672,14.6365 396.665,14.6085 396.658,14.5806 " />
      <polyline
         transform="translate(-74,-13)"
         style="fill:none;stroke:#d40000;stroke-width:1.28678695;stroke-miterlimit:4;stroke-opacity:1;stroke-dasharray:none"
         id="polyline124"
         points="255.574,67.6021 255.575,67.5951 255.575,67.5881 255.576,67.5742 255.578,67.5463 255.581,67.4904 255.587,67.3788 255.598,67.1554 255.623,66.6711 255.646,66.2188 255.666,65.7753 255.688,65.2942 255.707,64.8452 255.727,64.3585 255.745,63.8806 255.761,63.4349 255.777,62.9515 255.791,62.5001 255.804,62.0577 255.817,61.5776 255.828,61.1295 255.839,60.6439 255.848,60.1671 255.856,59.7224 255.864,59.2401 255.864,59.2331 255.864,59.226 255.864,59.2119 255.865,59.1838 255.866,59.1275 255.867,59.015 255.87,58.7899 255.87,58.7823 255.87,58.7746 255.87,58.7594 255.871,58.7289 255.871,58.6679 255.873,58.546 255.873,58.5383 255.873,58.5307 255.873,58.5155 255.874,58.485 255.874,58.424 255.875,58.302 255.876,58.2946 255.876,58.2871 255.876,58.2721 255.876,58.2422 255.877,58.1823 255.878,58.0626 255.878,58.0551 255.878,58.0476 255.878,58.0326 255.878,58.0027 255.879,57.9428 255.88,57.8231 255.88,57.8161 255.88,57.8091 255.88,57.7951 255.88,57.7672 255.881,57.7114 255.881,57.5996 255.881,57.5927 255.881,57.5857 255.881,57.5717 255.882,57.5438 255.882,57.4879 255.883,57.3762 255.883,57.3687 255.883,57.3611 255.883,57.3459 255.883,57.3157 255.883,57.2551 255.883,57.2475 255.883,57.24 255.883,57.2248 255.884,57.1945 255.884,57.134 255.884,57.1264 255.884,57.1188 255.884,57.1037 255.884,57.0734 255.884,57.0129 255.885,56.8917 255.885,56.8847 255.885,56.8776 255.885,56.8635 255.885,56.8352 255.885,56.7787 255.885,56.7716 255.885,56.7645 255.885,56.7504 255.885,56.7221 255.885,56.6656 255.885,56.6585 255.885,56.6514 255.885,56.6373 255.886,56.609 255.886,56.602 255.886,56.5949 255.886,56.5808 255.886,56.5525 255.886,56.5454 255.886,56.5384 255.886,56.5242 255.886,56.4959 255.886,56.4889 255.886,56.4818 255.886,56.4677 255.886,56.4394 255.886,56.4325 255.886,56.4255 255.886,56.4117 255.886,56.4048 255.886,56.3978 255.886,56.384 255.886,56.377 255.886,56.3701 255.886,56.3563 255.886,56.3493 255.886,56.3424 255.886,56.3285 255.886,56.3216 255.886,56.3147 255.886,56.3078 255.886,56.3008 255.886,56.2939 255.886,56.287 255.886,56.28 255.886,56.2731 255.886,56.2662 255.886,56.2592 255.886,56.2523 255.886,56.2454 255.886,56.2385 255.886,56.2315 255.886,56.2246 255.886,56.2177 255.886,56.2107 255.886,56.2038 255.886,56.1969 255.886,56.19 255.886,56.183 255.886,56.1761 255.886,56.1692 255.886,56.1622 255.886,56.1553 255.886,56.1484 255.886,56.1415 255.886,56.1345 255.886,56.1276 255.886,56.1207 255.886,56.1068 255.886,56.0999 255.886,56.093 255.886,56.0791 255.886,56.0722 255.886,56.0652 255.886,56.0514 255.886,56.0444 255.886,56.0375 255.886,56.0237 255.886,55.9959 255.886,55.9884 255.886,55.9809 255.886,55.9659 255.886,55.9358 255.886,55.9283 255.886,55.9208 255.886,55.9057 255.886,55.8757 255.886,55.8682 255.886,55.8606 255.886,55.8456 255.886,55.8155 255.885,55.7554 255.885,55.7479 255.885,55.7404 255.885,55.7253 255.885,55.6953 255.885,55.6351 255.885,55.6276 255.885,55.6201 255.885,55.6051 255.885,55.575 255.885,55.5149 255.885,55.5078 255.885,55.5008 255.885,55.4868 255.885,55.4587 255.884,55.4026 255.884,55.3956 255.884,55.3886 255.884,55.3746 255.884,55.3465 255.884,55.2904 255.884,55.2834 255.884,55.2764 255.884,55.2623 255.884,55.2343 255.883,55.1781 255.883,55.0659 255.883,55.0583 255.883,55.0507 255.883,55.0355 255.882,55.0051 255.882,54.9443 255.881,54.8226 255.881,54.815 255.881,54.8074 255.881,54.7922 255.881,54.7618 255.88,54.701 255.88,54.5793 255.879,54.5719 255.879,54.5644 255.879,54.5495 255.879,54.5196 255.879,54.4599 255.878,54.3405 255.875,54.1017 255.875,54.0947 255.875,54.0877 255.875,54.0738 255.875,54.046 255.874,53.9903 255.873,53.8789 255.87,53.6561 255.87,53.6486 255.87,53.641 255.87,53.6259 255.869,53.5957 255.869,53.5354 255.867,53.4146 255.864,53.173 255.857,52.722 255.849,52.2799 255.839,51.8002 255.829,51.3527 255.817,50.8675 255.805,50.4146 255.792,49.9705 255.777,49.4888 255.762,49.0393 255.745,48.5523 255.727,48.0741 255.709,47.6281 255.689,47.1446 255.668,46.6932 255.648,46.2507 255.624,45.7707 255.601,45.3228 255.601,45.315 255.6,45.3072 255.6,45.2915 255.598,45.2603 255.595,45.1978 255.588,45.0728 255.588,45.065 255.587,45.0572 255.586,45.0416 255.585,45.0103 255.581,44.9479 255.581,44.9401 255.58,44.9322 255.58,44.9166 255.578,44.8854 255.577,44.8776 255.577,44.8698 255.576,44.8541 255.576,44.8463 255.575,44.8385 255.575,44.8307 255.574,44.8229 " />
      <polyline
         transform="translate(-74,-13)"
         style="fill:none;stroke:#d40000;stroke-width:1.28678695;stroke-miterlimit:4;stroke-opacity:1;stroke-dasharray:none"
         id="polyline126"
         points="264.572,68.3405 264.573,68.3331 264.574,68.3257 264.575,68.3109 264.578,68.2812 264.585,68.2219 264.597,68.1033 264.62,67.866 264.67,67.3513 264.715,66.8706 264.756,66.3991 264.799,65.8875 264.838,65.4098 264.877,64.892 264.913,64.3834 264.945,63.9089 264.977,63.3943 265.006,62.9137 265.031,62.4424 265.057,61.931 265.079,61.4537 265.101,60.9362 265.12,60.4282 265.136,59.9542 265.152,59.4402 265.152,59.4327 265.152,59.4252 265.152,59.4102 265.153,59.3802 265.155,59.3202 265.158,59.2002 265.164,58.9603 265.164,58.9521 265.164,58.944 265.164,58.9278 265.165,58.8953 265.167,58.8303 265.169,58.7003 265.17,58.6921 265.17,58.684 265.17,58.6677 265.171,58.6352 265.172,58.5702 265.175,58.4402 265.175,58.4322 265.175,58.4243 265.175,58.4083 265.176,58.3764 265.177,58.3126 265.179,58.1849 265.179,58.1769 265.179,58.169 265.18,58.153 265.18,58.1211 265.181,58.0573 265.183,57.9296 265.183,57.9222 265.183,57.9147 265.183,57.8998 265.184,57.8701 265.185,57.8105 265.186,57.6914 265.186,57.684 265.186,57.6765 265.187,57.6616 265.187,57.6319 265.188,57.5723 265.189,57.4532 265.189,57.4451 265.189,57.4371 265.189,57.4209 265.19,57.3887 265.19,57.3241 265.19,57.316 265.19,57.3079 265.191,57.2918 265.191,57.2595 265.191,57.195 265.192,57.1869 265.192,57.1788 265.192,57.1627 265.192,57.1304 265.192,57.0658 265.193,56.9367 265.193,56.9292 265.193,56.9216 265.193,56.9066 265.194,56.8764 265.194,56.8161 265.194,56.8086 265.194,56.8011 265.194,56.786 265.194,56.7558 265.195,56.6956 265.195,56.688 265.195,56.6805 265.195,56.6654 265.195,56.6353 265.195,56.6277 265.195,56.6202 265.195,56.6051 265.195,56.575 265.195,56.5675 265.195,56.5599 265.195,56.5448 265.195,56.5147 265.195,56.5072 265.195,56.4996 265.195,56.4846 265.195,56.4544 265.195,56.447 265.195,56.4396 265.195,56.4249 265.195,56.4175 265.195,56.4101 265.195,56.3953 265.195,56.3879 265.195,56.3805 265.195,56.3658 265.195,56.3584 265.195,56.351 265.195,56.3362 265.195,56.3288 265.195,56.3214 265.195,56.3141 265.195,56.3067 265.195,56.2993 265.196,56.2919 265.196,56.2845 265.196,56.2771 265.196,56.2697 265.196,56.2623 265.196,56.255 265.196,56.2476 265.196,56.2402 265.196,56.2328 265.196,56.2254 265.196,56.218 265.196,56.2106 265.196,56.2032 265.196,56.1959 265.196,56.1885 265.196,56.1811 265.196,56.1737 265.196,56.1663 265.196,56.1589 265.196,56.1515 265.196,56.1441 265.196,56.1368 265.196,56.1294 265.195,56.122 265.195,56.1146 265.195,56.0998 265.195,56.0924 265.195,56.085 265.195,56.0703 265.195,56.0629 265.195,56.0555 265.195,56.0407 265.195,56.0333 265.195,56.0259 265.195,56.0112 265.195,55.9816 265.195,55.9736 265.195,55.9656 265.195,55.9496 265.195,55.9175 265.195,55.9095 265.195,55.9015 265.195,55.8854 265.195,55.8534 265.195,55.8454 265.195,55.8374 265.195,55.8213 265.195,55.7893 265.195,55.7252 265.194,55.7171 265.194,55.7091 265.194,55.6931 265.194,55.661 265.194,55.5969 265.194,55.5889 265.194,55.5809 265.194,55.5649 265.194,55.5328 265.193,55.4687 265.193,55.4612 265.193,55.4537 265.193,55.4388 265.193,55.4089 265.192,55.349 265.192,55.3416 265.192,55.3341 265.192,55.3191 265.192,55.2892 265.191,55.2294 265.191,55.2219 265.191,55.2144 265.191,55.1995 265.191,55.1695 265.19,55.1097 265.189,54.9901 265.189,54.9819 265.189,54.9738 265.189,54.9576 265.189,54.9252 265.188,54.8604 265.186,54.7307 265.186,54.7226 265.186,54.7145 265.186,54.6983 265.185,54.6658 265.185,54.601 265.183,54.4713 265.183,54.4634 265.182,54.4554 265.182,54.4395 265.182,54.4077 265.181,54.344 265.179,54.2167 265.174,53.9621 265.174,53.9547 265.174,53.9472 265.174,53.9324 265.173,53.9027 265.172,53.8433 265.169,53.7246 265.164,53.4871 265.164,53.4791 265.164,53.471 265.163,53.455 265.163,53.4228 265.161,53.3584 265.158,53.2296 265.151,52.9721 265.137,52.4915 265.121,52.0203 265.102,51.5091 265.082,51.0323 265.058,50.5154 265.034,50.0329 265.008,49.5599 264.978,49.047 264.948,48.5684 264.914,48.05 264.877,47.5411 264.842,47.0666 264.801,46.5522 264.76,46.0721 264.719,45.6017 264.672,45.0914 264.626,44.6155 264.625,44.6072 264.624,44.5989 264.623,44.5823 264.619,44.5491 264.613,44.4827 264.599,44.3499 264.599,44.3416 264.598,44.3334 264.596,44.3168 264.593,44.2836 264.586,44.2172 264.585,44.2089 264.584,44.2006 264.583,44.184 264.579,44.1508 264.578,44.1425 264.577,44.1342 264.576,44.1176 264.575,44.1093 264.574,44.101 264.573,44.0927 264.572,44.0845 " />
      <polyline
         transform="translate(-74,-13)"
         style="fill:none;stroke:#d40000;stroke-width:1.28678695;stroke-miterlimit:4;stroke-opacity:1;stroke-dasharray:none"
         id="polyline128"
         points="273.529,69.4737 273.53,69.4656 273.531,69.4575 273.534,69.4414 273.538,69.409 273.547,69.3444 273.565,69.2151 273.601,68.9563 273.676,68.395 273.742,67.8705 273.805,67.3559 273.869,66.7974 273.927,66.2757 273.986,65.7101 274.04,65.1544 274.088,64.6358 274.137,64.0732 274.179,63.5477 274.218,63.0323 274.257,62.4728 274.29,61.9506 274.322,61.3844 274.351,60.8283 274.375,60.3096 274.398,59.7468 274.398,59.7386 274.399,59.7304 274.399,59.714 274.4,59.6811 274.403,59.6155 274.407,59.4841 274.416,59.2214 274.416,59.2125 274.417,59.2036 274.417,59.1858 274.418,59.1502 274.421,59.0791 274.425,58.9367 274.425,58.9278 274.425,58.9189 274.426,58.9011 274.427,58.8655 274.429,58.7944 274.433,58.652 274.433,58.6433 274.433,58.6345 274.434,58.6171 274.434,58.5821 274.436,58.5122 274.439,58.3725 274.44,58.3637 274.44,58.355 274.44,58.3375 274.441,58.3026 274.443,58.2327 274.445,58.0929 274.446,58.0847 274.446,58.0766 274.446,58.0603 274.447,58.0277 274.448,57.9625 274.45,57.8321 274.45,57.8239 274.451,57.8158 274.451,57.7995 274.451,57.7669 274.452,57.7016 274.454,57.5712 274.454,57.5624 274.455,57.5535 274.455,57.5359 274.455,57.5005 274.456,57.4298 274.456,57.421 274.457,57.4121 274.457,57.3945 274.457,57.3591 274.458,57.2884 274.458,57.2796 274.458,57.2707 274.458,57.2531 274.459,57.2177 274.46,57.147 274.461,57.0056 274.461,56.9973 274.461,56.9891 274.461,56.9726 274.461,56.9396 274.462,56.8735 274.462,56.8653 274.462,56.857 274.462,56.8405 274.462,56.8075 274.463,56.7415 274.463,56.7333 274.463,56.725 274.463,56.7085 274.463,56.6755 274.463,56.6672 274.463,56.659 274.463,56.6425 274.463,56.6095 274.463,56.6012 274.463,56.593 274.463,56.5765 274.464,56.5435 274.464,56.5352 274.464,56.5269 274.464,56.5104 274.464,56.4774 274.464,56.4693 274.464,56.4613 274.464,56.4451 274.464,56.437 274.464,56.4289 274.464,56.4127 274.464,56.4046 274.464,56.3965 274.464,56.3803 274.464,56.3723 274.464,56.3642 274.464,56.348 274.464,56.3399 274.464,56.3318 274.464,56.3237 274.464,56.3156 274.464,56.3075 274.464,56.2994 274.464,56.2914 274.464,56.2833 274.464,56.2752 274.464,56.2671 274.464,56.259 274.464,56.2509 274.464,56.2428 274.464,56.2347 274.464,56.2266 274.464,56.2185 274.464,56.2105 274.464,56.2024 274.464,56.1943 274.464,56.1862 274.464,56.1781 274.464,56.17 274.464,56.1619 274.464,56.1538 274.464,56.1457 274.464,56.1376 274.464,56.1295 274.464,56.1215 274.464,56.1134 274.464,56.1053 274.464,56.0891 274.464,56.081 274.464,56.0729 274.464,56.0567 274.464,56.0486 274.464,56.0406 274.464,56.0244 274.464,56.0163 274.464,56.0082 274.464,55.992 274.464,55.9597 274.464,55.9509 274.464,55.9421 274.464,55.9245 274.464,55.8894 274.464,55.8807 274.464,55.8719 274.463,55.8543 274.463,55.8192 274.463,55.8104 274.463,55.8017 274.463,55.7841 274.463,55.749 274.463,55.6788 274.463,55.67 274.463,55.6612 274.462,55.6437 274.462,55.6086 274.462,55.5384 274.462,55.5296 274.462,55.5208 274.461,55.5033 274.461,55.4682 274.461,55.3979 274.461,55.3898 274.46,55.3816 274.46,55.3652 274.46,55.3324 274.459,55.2669 274.459,55.2587 274.459,55.2505 274.459,55.2341 274.459,55.2014 274.458,55.1359 274.458,55.1277 274.458,55.1195 274.458,55.1031 274.457,55.0703 274.456,55.0048 274.455,54.8738 274.455,54.8649 274.454,54.856 274.454,54.8383 274.454,54.8028 274.453,54.7318 274.45,54.5898 274.45,54.5809 274.45,54.572 274.45,54.5543 274.449,54.5188 274.448,54.4477 274.445,54.3057 274.445,54.297 274.445,54.2883 274.444,54.2709 274.443,54.236 274.442,54.1663 274.439,54.0269 274.432,53.7481 274.432,53.74 274.432,53.7319 274.431,53.7156 274.43,53.6831 274.429,53.6181 274.425,53.4881 274.417,53.2281 274.417,53.2193 274.416,53.2105 274.416,53.1929 274.415,53.1576 274.412,53.0872 274.408,52.9462 274.397,52.6643 274.376,52.1381 274.353,51.6224 274.324,51.0629 274.294,50.5411 274.258,49.9756 274.222,49.4478 274.183,48.9305 274.138,48.3696 274.093,47.8464 274.041,47.2798 273.987,46.7237 273.933,46.2053 273.871,45.6436 273.811,45.1195 273.749,44.606 273.678,44.0494 273.609,43.5303 273.608,43.5212 273.607,43.5122 273.604,43.4941 273.599,43.4579 273.59,43.3855 273.57,43.2407 273.568,43.2317 273.567,43.2226 273.565,43.2046 273.56,43.1684 273.549,43.096 273.548,43.087 273.547,43.0779 273.544,43.0598 273.539,43.0237 273.538,43.0146 273.537,43.0056 273.534,42.9875 273.533,42.9784 273.532,42.9694 273.53,42.9604 273.529,42.9513 " />
      <polyline
         transform="translate(-74,-13)"
         style="fill:none;stroke:#d40000;stroke-width:1.28678695;stroke-miterlimit:4;stroke-opacity:1;stroke-dasharray:none"
         id="polyline130"
         points="282.443,70.905 282.444,70.8961 282.446,70.8872 282.449,70.8693 282.455,70.8336 282.467,70.7622 282.491,70.6193 282.539,70.3334 282.638,69.7131 282.727,69.1332 282.81,68.5641 282.897,67.9462 282.973,67.3689 283.052,66.7428 283.124,66.1276 283.188,65.5532 283.253,64.93 283.309,64.3477 283.361,63.7766 283.413,63.1565 283.457,62.5776 283.501,61.9498 283.539,61.3332 283.571,60.7579 283.602,60.1337 283.602,60.1245 283.602,60.1154 283.603,60.0972 283.605,60.0608 283.608,59.988 283.614,59.8423 283.626,59.5509 283.626,59.541 283.627,59.5311 283.627,59.5114 283.629,59.4719 283.632,59.3929 283.637,59.235 283.638,59.2252 283.638,59.2153 283.639,59.1956 283.64,59.1561 283.643,59.0771 283.648,58.9192 283.648,58.9095 283.648,58.8998 283.649,58.8804 283.65,58.8416 283.652,58.7641 283.657,58.609 283.657,58.5993 283.657,58.5896 283.658,58.5703 283.659,58.5315 283.661,58.454 283.665,58.2989 283.665,58.2898 283.665,58.2808 283.666,58.2627 283.667,58.2265 283.668,58.1542 283.671,58.0095 283.671,58.0004 283.672,57.9914 283.672,57.9733 283.673,57.9371 283.674,57.8648 283.677,57.7201 283.677,57.7103 283.677,57.7005 283.677,57.6809 283.678,57.6416 283.679,57.5632 283.679,57.5534 283.68,57.5436 283.68,57.524 283.68,57.4847 283.682,57.4063 283.682,57.3965 283.682,57.3867 283.682,57.3671 283.683,57.3278 283.684,57.2494 283.685,57.0925 283.685,57.0833 283.686,57.0742 283.686,57.0558 283.686,57.0192 283.687,56.946 283.687,56.9368 283.687,56.9277 283.687,56.9093 283.687,56.8727 283.688,56.7995 283.688,56.7903 283.688,56.7812 283.688,56.7628 283.688,56.7262 283.688,56.7171 283.688,56.7079 283.688,56.6896 283.689,56.653 283.689,56.6438 283.689,56.6347 283.689,56.6163 283.689,56.5797 283.689,56.5706 283.689,56.5614 283.689,56.5431 283.689,56.5065 283.689,56.4975 283.689,56.4885 283.689,56.4706 283.689,56.4616 283.689,56.4526 283.689,56.4346 283.69,56.4257 283.69,56.4167 283.69,56.3987 283.69,56.3898 283.69,56.3808 283.69,56.3628 283.69,56.3539 283.69,56.3449 283.69,56.3359 283.69,56.3269 283.69,56.318 283.69,56.309 283.69,56.3 283.69,56.291 283.69,56.282 283.69,56.2731 283.69,56.2641 283.69,56.2551 283.69,56.2461 283.69,56.2372 283.69,56.2282 283.69,56.2192 283.69,56.2102 283.69,56.2013 283.69,56.1923 283.69,56.1833 283.69,56.1743 283.69,56.1653 283.69,56.1564 283.69,56.1474 283.69,56.1384 283.69,56.1294 283.69,56.1205 283.69,56.1115 283.69,56.1025 283.69,56.0935 283.69,56.0756 283.69,56.0666 283.69,56.0576 283.69,56.0397 283.69,56.0307 283.69,56.0217 283.69,56.0038 283.689,55.9948 283.689,55.9858 283.689,55.9679 283.689,55.9319 283.689,55.9222 283.689,55.9125 283.689,55.893 283.689,55.854 283.689,55.8443 283.689,55.8346 283.689,55.8151 283.689,55.7761 283.689,55.7664 283.689,55.7567 283.688,55.7372 283.688,55.6982 283.688,55.6203 283.688,55.6106 283.688,55.6008 283.687,55.5814 283.687,55.5424 283.687,55.4645 283.686,55.4548 283.686,55.445 283.686,55.4256 283.686,55.3866 283.685,55.3087 283.685,55.2996 283.685,55.2905 283.685,55.2723 283.684,55.236 283.683,55.1633 283.683,55.1542 283.683,55.1451 283.683,55.1269 283.683,55.0906 283.682,55.0179 283.681,55.0088 283.681,54.9997 283.681,54.9816 283.681,54.9452 283.679,54.8725 283.677,54.7271 283.677,54.7173 283.677,54.7074 283.676,54.6877 283.676,54.6483 283.674,54.5696 283.671,54.412 283.671,54.4021 283.671,54.3923 283.67,54.3726 283.67,54.3332 283.668,54.2544 283.664,54.0969 283.664,54.0872 283.664,54.0775 283.663,54.0582 283.662,54.0195 283.66,53.9422 283.656,53.7876 283.647,53.4783 283.647,53.4692 283.646,53.4602 283.646,53.4422 283.645,53.4061 283.642,53.334 283.637,53.1898 283.627,52.9014 283.626,52.8916 283.626,52.8818 283.625,52.8623 283.624,52.8232 283.621,52.745 283.614,52.5886 283.601,52.2759 283.573,51.6923 283.541,51.1203 283.502,50.4999 283.462,49.9213 283.415,49.2944 283.366,48.7094 283.315,48.1361 283.255,47.5147 283.195,46.9352 283.125,46.3076 283.053,45.692 282.981,45.1181 282.899,44.4965 282.818,43.9167 282.736,43.3488 282.642,42.7334 282.55,42.1597 282.548,42.1497 282.547,42.1397 282.543,42.1197 282.537,42.0797 282.523,41.9997 282.497,41.8397 282.495,41.8297 282.494,41.8197 282.49,41.7997 282.484,41.7598 282.47,41.6798 282.468,41.6698 282.467,41.6598 282.463,41.6399 282.456,41.5999 282.455,41.5899 282.453,41.5799 282.45,41.5599 282.448,41.55 282.446,41.54 282.445,41.53 282.443,41.52 " />
      <polyline
         transform="translate(-74,-13)"
         style="fill:none;stroke:#d40000;stroke-width:1.28678695;stroke-miterlimit:4;stroke-opacity:1;stroke-dasharray:none"
         id="polyline132"
         points="291.319,72.5525 291.321,72.5426 291.323,72.5327 291.327,72.5129 291.335,72.4733 291.35,72.394 291.38,72.2355 291.439,71.9183 291.563,71.2298 291.674,70.5861 291.778,69.9542 291.886,69.2678 291.982,68.6265 292.08,67.9308 292.171,67.2469 292.25,66.6084 292.331,65.9154 292.402,65.2678 292.467,64.6325 292.531,63.9427 292.587,63.2986 292.641,62.5999 292.689,61.9136 292.729,61.2733 292.767,60.5784 292.768,60.5683 292.768,60.5581 292.769,60.5379 292.771,60.4973 292.775,60.4162 292.783,60.254 292.798,59.9296 292.798,59.9186 292.799,59.9076 292.8,59.8856 292.801,59.8417 292.805,59.7538 292.812,59.578 292.813,59.567 292.813,59.556 292.814,59.534 292.815,59.4901 292.819,59.4022 292.825,59.2263 292.825,59.2155 292.826,59.2047 292.827,59.1832 292.828,59.14 292.831,59.0537 292.836,58.881 292.837,58.8702 292.837,58.8594 292.838,58.8378 292.839,58.7947 292.842,58.7083 292.846,58.5357 292.847,58.5256 292.847,58.5155 292.847,58.4954 292.849,58.4551 292.851,58.3746 292.854,58.2134 292.855,58.2034 292.855,58.1933 292.855,58.1732 292.856,58.1329 292.858,58.0523 292.861,57.8912 292.862,57.8803 292.862,57.8694 292.862,57.8475 292.863,57.8038 292.865,57.7165 292.865,57.7056 292.865,57.6947 292.865,57.6728 292.866,57.6291 292.867,57.5418 292.868,57.5309 292.868,57.52 292.868,57.4981 292.869,57.4544 292.87,57.3671 292.872,57.1924 292.872,57.1822 292.872,57.172 292.873,57.1516 292.873,57.1108 292.874,57.0292 292.874,57.019 292.874,57.0088 292.874,56.9885 292.874,56.9477 292.875,56.8661 292.875,56.8559 292.875,56.8457 292.875,56.8253 292.876,56.7845 292.876,56.7743 292.876,56.7641 292.876,56.7438 292.876,56.703 292.876,56.6928 292.876,56.6826 292.876,56.6622 292.877,56.6214 292.877,56.6112 292.877,56.601 292.877,56.5806 292.877,56.5398 292.877,56.5298 292.877,56.5198 292.877,56.4999 292.877,56.4899 292.877,56.4799 292.877,56.4599 292.877,56.4499 292.877,56.4399 292.877,56.4199 292.877,56.4099 292.877,56.3999 292.877,56.3799 292.877,56.3699 292.877,56.3599 292.878,56.3499 292.878,56.3399 292.878,56.3299 292.878,56.3199 292.878,56.3099 292.878,56.2999 292.878,56.2899 292.878,56.2799 292.878,56.2699 292.878,56.2599 292.878,56.25 292.878,56.24 292.878,56.23 292.878,56.22 292.878,56.21 292.878,56.2 292.878,56.19 292.878,56.18 292.878,56.17 292.878,56.16 292.878,56.15 292.878,56.14 292.878,56.13 292.878,56.12 292.878,56.11 292.878,56.1 292.878,56.09 292.878,56.08 292.877,56.06 292.877,56.05 292.877,56.04 292.877,56.02 292.877,56.0101 292.877,56.0001 292.877,55.9801 292.877,55.9701 292.877,55.9601 292.877,55.9401 292.877,55.9001 292.877,55.8893 292.877,55.8784 292.877,55.8567 292.877,55.8133 292.877,55.8025 292.877,55.7917 292.876,55.77 292.876,55.7266 292.876,55.7158 292.876,55.7049 292.876,55.6832 292.876,55.6398 292.875,55.5531 292.875,55.5422 292.875,55.5314 292.875,55.5097 292.874,55.4663 292.874,55.3796 292.874,55.3688 292.873,55.3579 292.873,55.3362 292.873,55.2928 292.872,55.2061 292.872,55.196 292.872,55.1859 292.871,55.1656 292.871,55.1251 292.87,55.0442 292.87,55.0341 292.869,55.024 292.869,55.0037 292.869,54.9632 292.867,54.8823 292.867,54.8722 292.867,54.8621 292.867,54.8418 292.866,54.8014 292.865,54.7204 292.862,54.5585 292.862,54.5476 292.861,54.5366 292.861,54.5147 292.86,54.4708 292.858,54.3831 292.854,54.2076 292.854,54.1967 292.854,54.1857 292.853,54.1638 292.852,54.1199 292.85,54.0322 292.846,53.8568 292.845,53.846 292.845,53.8352 292.844,53.8137 292.843,53.7707 292.841,53.6846 292.835,53.5124 292.824,53.168 292.824,53.1579 292.823,53.1479 292.823,53.1278 292.821,53.0877 292.818,53.0074 292.812,52.8468 292.799,52.5257 292.799,52.5148 292.798,52.5039 292.797,52.4822 292.795,52.4387 292.791,52.3516 292.783,52.1775 292.766,51.8294 292.731,51.1797 292.692,50.5431 292.643,49.8526 292.593,49.2087 292.534,48.5112 292.473,47.8603 292.409,47.2227 292.334,46.5316 292.259,45.8871 292.172,45.1894 292.081,44.5051 291.992,43.8674 291.889,43.1768 291.788,42.5328 291.685,41.9022 291.567,41.2189 291.453,40.5822 291.451,40.5711 291.449,40.56 291.445,40.5378 291.436,40.4934 291.42,40.4047 291.387,40.2272 291.385,40.2161 291.383,40.205 291.378,40.1829 291.37,40.1385 291.353,40.0498 291.351,40.0387 291.349,40.0277 291.345,40.0055 291.336,39.9611 291.334,39.9501 291.332,39.939 291.328,39.9168 291.326,39.9057 291.324,39.8947 291.321,39.8836 291.319,39.8725 " />
      <polyline
         transform="translate(-74,-13)"
         style="fill:none;stroke:#d40000;stroke-width:1.28678695;stroke-miterlimit:4;stroke-opacity:1;stroke-dasharray:none"
         id="polyline134"
         points="300.166,74.355 300.168,74.344 300.17,74.3331 300.175,74.3111 300.184,74.2672 300.202,74.1794 300.238,74.0038 300.309,73.6522 300.458,72.8891 300.591,72.1753 300.716,71.4746 300.845,70.7133 300.96,70.0018 301.078,69.2298 301.186,68.4709 301.282,67.7621 301.379,66.9927 301.464,66.2738 301.542,65.5683 301.619,64.8021 301.686,64.0867 301.751,63.3106 301.809,62.5481 301.857,61.8366 301.902,61.0645 301.903,61.0533 301.904,61.042 301.905,61.0195 301.907,60.9744 301.912,60.8843 301.921,60.7041 301.939,60.3436 301.939,60.3314 301.94,60.3191 301.941,60.2947 301.943,60.2459 301.948,60.1482 301.956,59.9528 301.957,59.9406 301.957,59.9284 301.958,59.904 301.96,59.8551 301.964,59.7574 301.972,59.562 301.972,59.55 301.973,59.538 301.974,59.5141 301.975,59.4661 301.979,59.3702 301.985,59.1783 301.986,59.1663 301.986,59.1543 301.987,59.1303 301.989,59.0823 301.992,58.9864 301.997,58.7945 301.998,58.7833 301.998,58.7721 301.999,58.7497 302,58.7049 302.002,58.6154 302.007,58.4364 302.007,58.4252 302.008,58.414 302.008,58.3916 302.009,58.3468 302.011,58.2573 302.015,58.0782 302.016,58.0661 302.016,58.054 302.016,58.0297 302.017,57.9811 302.019,57.8841 302.019,57.8719 302.02,57.8598 302.02,57.8355 302.021,57.787 302.023,57.6899 302.023,57.6778 302.023,57.6656 302.023,57.6414 302.024,57.5928 302.026,57.4957 302.028,57.3015 302.028,57.2902 302.028,57.2789 302.029,57.2562 302.029,57.2109 302.03,57.1202 302.03,57.1089 302.03,57.0976 302.031,57.0749 302.031,57.0296 302.032,56.9389 302.032,56.9276 302.032,56.9163 302.032,56.8936 302.033,56.8483 302.033,56.8369 302.033,56.8256 302.033,56.8029 302.033,56.7576 302.033,56.7463 302.033,56.735 302.033,56.7123 302.034,56.667 302.034,56.6556 302.034,56.6443 302.034,56.6216 302.034,56.5763 302.034,56.5652 302.034,56.5541 302.034,56.5319 302.034,56.5208 302.034,56.5096 302.034,56.4874 302.034,56.4763 302.034,56.4652 302.035,56.443 302.035,56.4319 302.035,56.4208 302.035,56.3986 302.035,56.3874 302.035,56.3763 302.035,56.3652 302.035,56.3541 302.035,56.343 302.035,56.3319 302.035,56.3208 302.035,56.3097 302.035,56.2986 302.035,56.2875 302.035,56.2763 302.035,56.2652 302.035,56.2541 302.035,56.243 302.035,56.2319 302.035,56.2208 302.035,56.2097 302.035,56.1986 302.035,56.1875 302.035,56.1764 302.035,56.1652 302.035,56.1541 302.035,56.143 302.035,56.1319 302.035,56.1208 302.035,56.1097 302.035,56.0986 302.035,56.0875 302.035,56.0764 302.035,56.0653 302.035,56.043 302.035,56.0319 302.035,56.0208 302.035,55.9986 302.035,55.9875 302.035,55.9764 302.034,55.9542 302.034,55.9431 302.034,55.9319 302.034,55.9097 302.034,55.8653 302.034,55.8532 302.034,55.8412 302.034,55.8171 302.034,55.7689 302.034,55.7568 302.034,55.7448 302.033,55.7207 302.033,55.6725 302.033,55.6604 302.033,55.6483 302.033,55.6242 302.033,55.576 302.032,55.4796 302.032,55.4676 302.032,55.4555 302.031,55.4314 302.031,55.3832 302.03,55.2868 302.03,55.2747 302.03,55.2627 302.03,55.2386 302.029,55.1904 302.028,55.094 302.028,55.0827 302.028,55.0715 302.027,55.049 302.027,55.004 302.025,54.914 302.025,54.9028 302.025,54.8915 302.025,54.869 302.024,54.8241 302.023,54.7341 302.022,54.7228 302.022,54.7116 302.022,54.6891 302.021,54.6441 302.019,54.5542 302.016,54.3742 302.016,54.3621 302.015,54.3499 302.015,54.3255 302.014,54.2767 302.012,54.1793 302.007,53.9843 302.007,53.9721 302.006,53.9599 302.006,53.9355 302.004,53.8868 302.002,53.7893 301.996,53.5943 301.996,53.5824 301.996,53.5704 301.995,53.5465 301.993,53.4986 301.99,53.4029 301.984,53.2116 301.97,52.8289 301.97,52.8177 301.97,52.8066 301.969,52.7842 301.967,52.7396 301.964,52.6504 301.956,52.472 301.94,52.1151 301.94,52.103 301.939,52.0909 301.938,52.0667 301.936,52.0184 301.931,51.9216 301.922,51.7282 301.901,51.3414 301.859,50.6195 301.812,49.9121 301.754,49.145 301.694,48.4298 301.622,47.655 301.55,46.9321 301.472,46.224 301.382,45.4566 301.292,44.7411 301.188,43.9667 301.079,43.2072 300.972,42.4997 300.849,41.7335 300.728,41.0192 300.604,40.3199 300.463,39.5623 300.326,38.8565 300.323,38.8442 300.321,38.8319 300.316,38.8073 300.306,38.7581 300.286,38.6598 300.247,38.4631 300.244,38.4508 300.242,38.4385 300.237,38.4139 300.227,38.3648 300.206,38.2665 300.204,38.2542 300.201,38.2419 300.196,38.2174 300.186,38.1682 300.184,38.156 300.181,38.1437 300.176,38.1191 300.173,38.1068 300.171,38.0946 300.168,38.0823 300.166,38.07 " />
      <polyline
         transform="translate(-74,-13)"
         style="fill:none;stroke:#d40000;stroke-width:1.28678695;stroke-miterlimit:4;stroke-opacity:1;stroke-dasharray:none"
         id="polyline136"
         points="308.989,76.2694 308.991,76.2573 308.994,76.2452 308.999,76.2209 309.01,76.1725 309.031,76.0756 309.073,75.8817 309.156,75.4936 309.33,74.6511 309.485,73.8629 309.63,73.0889 309.781,72.248 309.915,71.462 310.052,70.6089 310.179,69.7702 310.29,68.9868 310.404,68.1364 310.503,67.3415 310.593,66.5615 310.683,65.7143 310.761,64.9231 310.837,64.0648 310.905,63.2215 310.961,62.4345 311.014,61.5804 311.014,61.568 311.015,61.5555 311.017,61.5306 311.019,61.4808 311.025,61.3811 311.036,61.1817 311.056,60.7829 311.057,60.7694 311.057,60.7559 311.059,60.7288 311.061,60.6748 311.066,60.5668 311.076,60.3506 311.077,60.3371 311.078,60.3236 311.079,60.2966 311.081,60.2425 311.086,60.1345 311.095,59.9183 311.095,59.905 311.096,59.8917 311.097,59.8652 311.099,59.8121 311.103,59.706 311.11,59.4937 311.111,59.4805 311.111,59.4672 311.112,59.4407 311.114,59.3876 311.118,59.2814 311.124,59.0691 311.125,59.0567 311.125,59.0443 311.126,59.0196 311.127,58.9701 311.13,58.871 311.136,58.6729 311.136,58.6605 311.136,58.6482 311.137,58.6234 311.138,58.5739 311.141,58.4748 311.145,58.2767 311.146,58.2633 311.146,58.2499 311.146,58.223 311.148,58.1693 311.15,58.0619 311.15,58.0485 311.15,58.035 311.151,58.0082 311.152,57.9545 311.154,57.8471 311.154,57.8336 311.154,57.8202 311.155,57.7934 311.156,57.7397 311.157,57.6322 311.16,57.4174 311.16,57.4049 311.161,57.3923 311.161,57.3673 311.162,57.3171 311.163,57.2168 311.163,57.2043 311.163,57.1917 311.163,57.1667 311.164,57.1165 311.165,57.0162 311.165,57.0037 311.165,56.9911 311.165,56.9661 311.165,56.9159 311.166,56.9034 311.166,56.8908 311.166,56.8658 311.166,56.8156 311.166,56.8031 311.166,56.7905 311.166,56.7655 311.167,56.7153 311.167,56.7028 311.167,56.6902 311.167,56.6652 311.167,56.615 311.167,56.6027 311.167,56.5904 311.167,56.5658 311.167,56.5536 311.167,56.5413 311.168,56.5167 311.168,56.5044 311.168,56.4921 311.168,56.4675 311.168,56.4552 311.168,56.4429 311.168,56.4183 311.168,56.4061 311.168,56.3938 311.168,56.3815 311.168,56.3692 311.168,56.3569 311.168,56.3446 311.168,56.3323 311.168,56.32 311.168,56.3077 311.168,56.2954 311.168,56.2831 311.168,56.2708 311.168,56.2586 311.168,56.2463 311.168,56.234 311.168,56.2217 311.168,56.2094 311.168,56.1971 311.168,56.1848 311.168,56.1725 311.168,56.1602 311.168,56.1479 311.168,56.1356 311.168,56.1233 311.168,56.1111 311.168,56.0988 311.168,56.0865 311.168,56.0742 311.168,56.0619 311.168,56.0496 311.168,56.025 311.168,56.0127 311.168,56.0004 311.168,55.9758 311.168,55.9636 311.168,55.9513 311.168,55.9267 311.168,55.9144 311.168,55.9021 311.167,55.8775 311.167,55.8283 311.167,55.815 311.167,55.8017 311.167,55.775 311.167,55.7217 311.167,55.7083 311.167,55.695 311.166,55.6683 311.166,55.615 311.166,55.6017 311.166,55.5883 311.166,55.5617 311.165,55.5083 311.165,55.4017 311.164,55.3883 311.164,55.375 311.164,55.3483 311.164,55.295 311.162,55.1883 311.162,55.175 311.162,55.1616 311.162,55.135 311.161,55.0816 311.16,54.975 311.16,54.9625 311.16,54.9501 311.159,54.9252 311.158,54.8754 311.157,54.7759 311.157,54.7634 311.157,54.751 311.156,54.7261 311.155,54.6764 311.154,54.5768 311.154,54.5644 311.153,54.5519 311.153,54.527 311.152,54.4773 311.15,54.3777 311.146,54.1787 311.146,54.1652 311.145,54.1517 311.145,54.1248 311.144,54.0708 311.141,53.963 311.136,53.7472 311.135,53.7338 311.135,53.7203 311.134,53.6933 311.133,53.6394 311.13,53.5315 311.123,53.3158 311.123,53.3026 311.122,53.2894 311.121,53.2629 311.12,53.21 311.116,53.1041 311.109,52.8924 311.093,52.469 311.093,52.4566 311.092,52.4443 311.091,52.4196 311.089,52.3703 311.085,52.2716 311.076,52.0741 311.058,51.6794 311.057,51.666 311.057,51.6526 311.055,51.6259 311.053,51.5724 311.047,51.4654 311.036,51.2514 311.012,50.8235 310.963,50.0249 310.908,49.2425 310.84,48.394 310.77,47.603 310.687,46.7462 310.602,45.9468 310.512,45.1639 310.407,44.3155 310.302,43.5247 310.181,42.6687 310.054,41.8294 309.928,41.0476 309.785,40.2011 309.644,39.412 309.5,38.6396 309.335,37.8031 309.175,37.0238 309.172,37.0102 309.17,36.9967 309.164,36.9695 309.152,36.9152 309.129,36.8066 309.083,36.5895 309.08,36.5759 309.077,36.5624 309.071,36.5352 309.06,36.481 309.036,36.3725 309.033,36.3589 309.03,36.3454 309.024,36.3183 309.012,36.264 309.01,36.2505 309.007,36.2369 309.001,36.2098 308.998,36.1963 308.995,36.1827 308.992,36.1692 308.989,36.1556 " />
      <polyline
         transform="translate(-74,-13)"
         style="fill:none;stroke:#d40000;stroke-width:1.28678695;stroke-miterlimit:4;stroke-opacity:1;stroke-dasharray:none"
         id="polyline138"
         points="317.794,78.2658 317.797,78.2525 317.8,78.2392 317.806,78.2126 317.818,78.1594 317.842,78.0529 317.89,77.84 317.984,77.4138 318.183,76.4883 318.36,75.6225 318.526,74.7721 318.698,73.8481 318.851,72.9842 319.007,72.0466 319.152,71.1247 319.28,70.2635 319.409,69.3285 319.522,68.4545 319.626,67.5967 319.729,66.6651 319.818,65.7949 319.905,64.8509 319.982,63.9233 320.046,63.0576 320.106,62.1181 320.107,62.1044 320.108,62.0907 320.11,62.0633 320.113,62.0085 320.119,61.8988 320.132,61.6795 320.155,61.2407 320.156,61.2259 320.156,61.211 320.158,61.1813 320.161,61.1218 320.167,61.003 320.178,60.7652 320.179,60.7503 320.179,60.7355 320.181,60.7057 320.183,60.6463 320.189,60.5274 320.199,60.2895 320.199,60.275 320.2,60.2604 320.201,60.2312 320.203,60.1728 320.208,60.056 320.217,59.8225 320.217,59.8079 320.218,59.7933 320.219,59.7641 320.221,59.7057 320.225,59.5889 320.233,59.3553 320.233,59.3417 320.234,59.3281 320.234,59.3009 320.236,59.2464 320.239,59.1374 320.246,58.9195 320.246,58.9058 320.246,58.8922 320.247,58.865 320.249,58.8105 320.251,58.7015 320.257,58.4835 320.257,58.4688 320.257,58.454 320.258,58.4245 320.259,58.3654 320.262,58.2472 320.262,58.2324 320.262,58.2177 320.263,58.1881 320.264,58.129 320.266,58.0109 320.267,57.9961 320.267,57.9813 320.267,57.9518 320.268,57.8927 320.27,57.7745 320.274,57.5381 320.274,57.5244 320.274,57.5106 320.275,57.483 320.275,57.4278 320.277,57.3175 320.277,57.3037 320.277,57.2899 320.277,57.2623 320.278,57.2071 320.279,57.0968 320.279,57.083 320.279,57.0692 320.279,57.0416 320.28,56.9864 320.28,56.9726 320.28,56.9588 320.28,56.9312 320.28,56.8761 320.281,56.8623 320.281,56.8485 320.281,56.8209 320.281,56.7657 320.281,56.7519 320.281,56.7381 320.281,56.7105 320.282,56.6553 320.282,56.6418 320.282,56.6283 320.282,56.6013 320.282,56.5877 320.282,56.5742 320.282,56.5472 320.282,56.5336 320.282,56.5201 320.282,56.4931 320.282,56.4795 320.282,56.466 320.282,56.439 320.282,56.4255 320.282,56.4119 320.283,56.3984 320.283,56.3849 320.283,56.3714 320.283,56.3578 320.283,56.3443 320.283,56.3308 320.283,56.3173 320.283,56.3037 320.283,56.2902 320.283,56.2767 320.283,56.2632 320.283,56.2496 320.283,56.2361 320.283,56.2226 320.283,56.2091 320.283,56.1956 320.283,56.182 320.283,56.1685 320.283,56.155 320.283,56.1415 320.283,56.1279 320.283,56.1144 320.283,56.1009 320.283,56.0874 320.283,56.0738 320.283,56.0603 320.283,56.0468 320.283,56.0333 320.282,56.0062 320.282,55.9927 320.282,55.9792 320.282,55.9521 320.282,55.9386 320.282,55.9251 320.282,55.898 320.282,55.8845 320.282,55.871 320.282,55.8439 320.282,55.7899 320.282,55.7752 320.282,55.7605 320.282,55.7312 320.281,55.6725 320.281,55.6578 320.281,55.6431 320.281,55.6138 320.281,55.5551 320.28,55.5405 320.28,55.5258 320.28,55.4964 320.28,55.4378 320.279,55.3204 320.279,55.3057 320.278,55.2911 320.278,55.2617 320.278,55.203 320.276,55.0857 320.276,55.071 320.276,55.0563 320.276,55.027 320.275,54.9683 320.273,54.851 320.273,54.8373 320.273,54.8236 320.273,54.7962 320.272,54.7414 320.27,54.6319 320.27,54.6182 320.27,54.6046 320.269,54.5772 320.268,54.5224 320.266,54.4129 320.266,54.3992 320.266,54.3855 320.265,54.3582 320.264,54.3034 320.262,54.1939 320.257,53.9749 320.257,53.9601 320.257,53.9452 320.256,53.9156 320.255,53.8562 320.252,53.7376 320.246,53.5002 320.245,53.4854 320.245,53.4706 320.244,53.4409 320.242,53.3816 320.239,53.2629 320.231,53.0256 320.231,53.011 320.23,52.9965 320.229,52.9674 320.228,52.9091 320.224,52.7927 320.215,52.5597 320.197,52.0939 320.196,52.0804 320.196,52.0668 320.195,52.0396 320.192,51.9853 320.188,51.8767 320.178,51.6596 320.157,51.2253 320.156,51.2105 320.155,51.1958 320.154,51.1664 320.151,51.1075 320.145,50.9898 320.132,50.7544 320.105,50.2837 320.048,49.4052 319.985,48.5445 319.908,47.6113 319.828,46.7413 319.733,45.799 319.636,44.9199 319.533,44.059 319.413,43.1261 319.293,42.2566 319.155,41.3156 319.01,40.393 318.867,39.5337 318.703,38.6034 318.542,37.7363 318.377,36.8877 318.19,35.9687 318.007,35.1128 318.003,35.0978 318,35.0829 317.994,35.0531 317.981,34.9935 317.954,34.8742 317.901,34.6357 317.898,34.6208 317.895,34.6059 317.888,34.5761 317.875,34.5166 317.848,34.3974 317.844,34.3825 317.841,34.3676 317.834,34.3379 317.821,34.2783 317.817,34.2634 317.814,34.2485 317.807,34.2188 317.804,34.2039 317.8,34.189 317.797,34.1741 317.794,34.1592 " />
      <polyline
         transform="translate(-74,-13)"
         style="fill:none;stroke:#d40000;stroke-width:1.28678695;stroke-miterlimit:4;stroke-opacity:1;stroke-dasharray:none"
         id="polyline140"
         points="326.585,80.3233 326.588,80.3088 326.591,80.2943 326.598,80.2652 326.612,80.2071 326.639,80.0908 326.693,79.8583 326.799,79.3927 327.022,78.3817 327.221,77.4357 327.408,76.5066 327.601,75.4968 327.773,74.5528 327.949,73.528 328.112,72.5203 328.255,71.5789 328.401,70.5567 328.528,69.6011 328.644,68.6633 328.76,67.6446 328.86,66.693 328.958,65.6607 329.044,64.6463 329.116,63.6995 329.185,62.672 329.185,62.657 329.186,62.642 329.188,62.612 329.192,62.5521 329.199,62.4321 329.213,62.1922 329.239,61.7124 329.24,61.6961 329.241,61.6798 329.242,61.6473 329.246,61.5823 329.252,61.4523 329.265,61.1922 329.266,61.176 329.267,61.1597 329.268,61.1272 329.271,61.0622 329.277,60.9321 329.288,60.672 329.289,60.656 329.29,60.6401 329.291,60.6082 329.294,60.5443 329.299,60.4166 329.309,60.1611 329.309,60.1452 329.31,60.1292 329.311,60.0973 329.314,60.0334 329.318,59.9057 329.327,59.6502 329.327,59.6353 329.328,59.6204 329.329,59.5906 329.331,59.531 329.334,59.4118 329.341,59.1734 329.342,59.1585 329.342,59.1436 329.343,59.1138 329.345,59.0542 329.348,58.935 329.354,58.6966 329.354,58.6805 329.354,58.6643 329.355,58.632 329.357,58.5674 329.359,58.4381 329.36,58.4219 329.36,58.4058 329.361,58.3735 329.362,58.3088 329.364,58.1796 329.365,58.1634 329.365,58.1473 329.366,58.115 329.367,58.0503 329.369,57.9211 329.373,57.6625 329.373,57.6474 329.373,57.6323 329.374,57.6022 329.374,57.5418 329.376,57.4211 329.376,57.406 329.376,57.3909 329.377,57.3608 329.377,57.3004 329.378,57.1797 329.379,57.1646 329.379,57.1495 329.379,57.1194 329.379,57.059 329.38,57.0439 329.38,57.0288 329.38,56.9987 329.38,56.9383 329.38,56.9232 329.381,56.9081 329.381,56.878 329.381,56.8176 329.381,56.8025 329.381,56.7874 329.381,56.7573 329.382,56.6969 329.382,56.6821 329.382,56.6673 329.382,56.6377 329.382,56.6229 329.382,56.6081 329.382,56.5786 329.382,56.5638 329.382,56.549 329.382,56.5194 329.382,56.5046 329.383,56.4898 329.383,56.4602 329.383,56.4454 329.383,56.4306 329.383,56.4158 329.383,56.4011 329.383,56.3863 329.383,56.3715 329.383,56.3567 329.383,56.3419 329.383,56.3271 329.383,56.3123 329.383,56.2975 329.383,56.2827 329.383,56.2679 329.383,56.2531 329.383,56.2383 329.383,56.2235 329.383,56.2088 329.383,56.194 329.383,56.1792 329.383,56.1644 329.383,56.1496 329.383,56.1348 329.383,56.12 329.383,56.1052 329.383,56.0904 329.383,56.0756 329.383,56.0608 329.383,56.046 329.383,56.0312 329.383,56.0165 329.383,55.9869 329.383,55.9721 329.383,55.9573 329.382,55.9277 329.382,55.9129 329.382,55.8981 329.382,55.8685 329.382,55.8537 329.382,55.839 329.382,55.8094 329.382,55.7502 329.382,55.7342 329.382,55.7181 329.382,55.686 329.381,55.6218 329.381,55.6058 329.381,55.5897 329.381,55.5576 329.38,55.4934 329.38,55.4774 329.38,55.4614 329.38,55.4293 329.379,55.3651 329.378,55.2367 329.378,55.2206 329.378,55.2046 329.378,55.1725 329.377,55.1083 329.376,54.98 329.375,54.9639 329.375,54.9479 329.375,54.9158 329.374,54.8516 329.372,54.7232 329.372,54.7082 329.372,54.6933 329.371,54.6633 329.371,54.6034 329.369,54.4836 329.368,54.4687 329.368,54.4537 329.368,54.4237 329.367,54.3639 329.364,54.2441 329.364,54.2291 329.364,54.2141 329.363,54.1842 329.362,54.1243 329.36,54.0045 329.354,53.765 329.354,53.7487 329.354,53.7325 329.353,53.7001 329.351,53.6352 329.348,53.5054 329.341,53.2458 329.341,53.2295 329.34,53.2133 329.339,53.1809 329.337,53.116 329.333,52.9862 329.325,52.7266 329.325,52.7107 329.324,52.6948 329.323,52.6629 329.321,52.5992 329.316,52.4718 329.307,52.2171 329.286,51.7076 329.286,51.6927 329.285,51.6779 329.284,51.6482 329.281,51.5888 329.276,51.47 329.265,51.2325 329.241,50.7575 329.241,50.7414 329.24,50.7253 329.238,50.6931 329.235,50.6287 329.228,50.5 329.213,50.2425 329.183,49.7276 329.119,48.7668 329.048,47.8256 328.962,46.805 328.872,45.8536 328.765,44.8231 328.656,43.8619 328.54,42.9206 328.405,41.9007 328.271,40.9501 328.115,39.9214 327.952,38.913 327.791,37.9738 327.607,36.9571 327.426,36.0096 327.24,35.0823 327.03,34.0782 326.824,33.1432 326.82,33.1269 326.817,33.1106 326.809,33.078 326.795,33.0129 326.765,32.8826 326.706,32.6221 326.702,32.6059 326.698,32.5896 326.691,32.5571 326.676,32.492 326.645,32.3618 326.642,32.3456 326.638,32.3293 326.63,32.2968 326.615,32.2317 326.611,32.2155 326.607,32.1992 326.6,32.1667 326.596,32.1505 326.592,32.1342 326.588,32.1179 326.585,32.1017 " />
      <polyline
         transform="translate(-74,-13)"
         style="fill:none;stroke:#d40000;stroke-width:1.28678695;stroke-miterlimit:4;stroke-opacity:1;stroke-dasharray:none"
         id="polyline142"
         points="335.365,82.4274 335.368,82.4116 335.372,82.3958 335.38,82.3642 335.395,82.3011 335.425,82.1748 335.485,81.9221 335.603,81.4163 335.85,80.3178 336.072,79.2898 336.279,78.2801 336.494,77.1826 336.684,76.1565 336.88,75.0426 337.061,73.9471 337.22,72.9236 337.381,71.8123 337.522,70.7733 337.651,69.7536 337.78,68.6459 337.891,67.6112 338,66.4885 338.096,65.3853 338.176,64.3557 338.251,63.2382 338.252,63.2219 338.253,63.2056 338.256,63.1729 338.26,63.1077 338.268,62.9773 338.283,62.7164 338.312,62.1945 338.313,62.1768 338.314,62.1591 338.316,62.1238 338.32,62.0531 338.327,61.9116 338.341,61.6288 338.342,61.6111 338.343,61.5934 338.344,61.5581 338.348,61.4873 338.354,61.3459 338.367,61.0629 338.368,61.0456 338.368,61.0282 338.37,60.9935 338.373,60.924 338.378,60.7851 338.389,60.5073 338.39,60.4899 338.391,60.4726 338.392,60.4378 338.395,60.3684 338.4,60.2294 338.409,59.9516 338.41,59.9354 338.41,59.9192 338.412,59.8867 338.414,59.8219 338.418,59.6923 338.425,59.433 338.426,59.4168 338.426,59.4006 338.427,59.3682 338.429,59.3034 338.433,59.1737 338.439,58.9144 338.44,58.8968 338.44,58.8793 338.441,58.8441 338.442,58.7738 338.446,58.6332 338.446,58.6157 338.446,58.5981 338.447,58.5629 338.449,58.4926 338.451,58.3521 338.452,58.3345 338.452,58.3169 338.453,58.2818 338.454,58.2115 338.456,58.0709 338.461,57.7897 338.461,57.7732 338.461,57.7568 338.462,57.724 338.462,57.6584 338.464,57.5271 338.464,57.5107 338.464,57.4943 338.465,57.4615 338.465,57.3958 338.467,57.2645 338.467,57.2481 338.467,57.2317 338.467,57.1989 338.468,57.1332 338.468,57.1168 338.468,57.1004 338.468,57.0676 338.469,57.0019 338.469,56.9855 338.469,56.9691 338.469,56.9363 338.47,56.8707 338.47,56.8542 338.47,56.8378 338.47,56.805 338.471,56.7394 338.471,56.7233 338.471,56.7072 338.471,56.675 338.471,56.6589 338.471,56.6428 338.471,56.6107 338.471,56.5946 338.471,56.5785 338.471,56.5463 338.471,56.5302 338.471,56.5141 338.471,56.4819 338.471,56.4659 338.471,56.4498 338.472,56.4337 338.472,56.4176 338.472,56.4015 338.472,56.3854 338.472,56.3693 338.472,56.3532 338.472,56.3371 338.472,56.3211 338.472,56.305 338.472,56.2889 338.472,56.2728 338.472,56.2567 338.472,56.2406 338.472,56.2245 338.472,56.2084 338.472,56.1923 338.472,56.1762 338.472,56.1602 338.472,56.1441 338.472,56.128 338.472,56.1119 338.472,56.0958 338.472,56.0797 338.472,56.0636 338.472,56.0475 338.472,56.0314 338.472,56.0154 338.472,55.9993 338.471,55.9671 338.471,55.951 338.471,55.9349 338.471,55.9027 338.471,55.8866 338.471,55.8706 338.471,55.8384 338.471,55.8223 338.471,55.8062 338.471,55.774 338.471,55.7097 338.471,55.6922 338.47,55.6748 338.47,55.6398 338.47,55.57 338.47,55.5526 338.47,55.5351 338.469,55.5002 338.469,55.4304 338.469,55.4129 338.469,55.3955 338.469,55.3606 338.468,55.2908 338.467,55.1511 338.467,55.1337 338.466,55.1162 338.466,55.0813 338.465,55.0115 338.464,54.8719 338.464,54.8544 338.463,54.837 338.463,54.8021 338.462,54.7323 338.46,54.5926 338.46,54.5764 338.46,54.5601 338.459,54.5275 338.458,54.4623 338.456,54.3321 338.456,54.3158 338.455,54.2995 338.455,54.2669 338.454,54.2018 338.451,54.0715 338.451,54.0552 338.451,54.0389 338.45,54.0063 338.449,53.9412 338.446,53.8109 338.44,53.5504 338.44,53.5327 338.439,53.5151 338.438,53.4798 338.437,53.4092 338.433,53.268 338.425,52.9857 338.425,52.968 338.424,52.9504 338.423,52.9151 338.421,52.8445 338.417,52.7033 338.408,52.421 338.407,52.4037 338.406,52.3864 338.405,52.3517 338.403,52.2825 338.398,52.1439 338.388,51.8668 338.365,51.3127 338.364,51.2965 338.363,51.2804 338.362,51.2481 338.359,51.1835 338.353,51.0543 338.341,50.7959 338.315,50.2793 338.314,50.2618 338.313,50.2443 338.311,50.2093 338.307,50.1392 338.299,49.9992 338.284,49.7192 338.25,49.1592 338.179,48.1143 338.1,47.0906 338.004,45.9807 337.904,44.9461 337.786,43.8255 337.664,42.7803 337.536,41.7568 337.386,40.6479 337.237,39.6144 337.063,38.496 336.882,37.3998 336.704,36.3789 336.5,35.2738 336.299,34.244 336.093,33.2363 335.859,32.1452 335.631,31.1292 335.626,31.1115 335.622,31.0938 335.614,31.0584 335.598,30.9876 335.565,30.8461 335.499,30.5631 335.495,30.5454 335.491,30.5277 335.482,30.4924 335.466,30.4217 335.432,30.2803 335.428,30.2626 335.424,30.2449 335.415,30.2096 335.399,30.1389 335.394,30.1213 335.39,30.1036 335.382,30.0683 335.377,30.0506 335.373,30.0329 335.369,30.0153 335.365,29.9976 " />
      <polyline
         transform="translate(-74,-13)"
         style="fill:none;stroke:#d40000;stroke-width:1.28678695;stroke-miterlimit:4;stroke-opacity:1;stroke-dasharray:none"
         id="polyline144"
         points="344.136,84.5674 344.14,84.5504 344.144,84.5333 344.153,84.4992 344.169,84.4309 344.202,84.2944 344.268,84.0212 344.398,83.4745 344.67,82.2868 344.913,81.1755 345.141,80.0837 345.377,78.897 345.586,77.7874 345.801,76.5828 346,75.398 346.175,74.2911 346.353,73.0891 346.508,71.9653 346.65,70.8623 346.792,69.664 346.913,68.5447 347.033,67.3302 347.139,66.1368 347.226,65.0229 347.309,63.8138 347.311,63.7962 347.312,63.7786 347.314,63.7433 347.318,63.6727 347.327,63.5316 347.344,63.2493 347.376,62.6847 347.377,62.6655 347.378,62.6464 347.38,62.6082 347.384,62.5317 347.392,62.3787 347.408,62.0726 347.409,62.0535 347.41,62.0344 347.412,61.9961 347.415,61.9196 347.422,61.7666 347.436,61.4605 347.437,61.4417 347.438,61.4229 347.44,61.3853 347.443,61.3102 347.449,61.1599 347.461,60.8593 347.462,60.8405 347.463,60.8217 347.464,60.7841 347.467,60.709 347.473,60.5587 347.483,60.258 347.484,60.2405 347.484,60.2229 347.485,60.1879 347.488,60.1177 347.492,59.9775 347.501,59.697 347.501,59.6794 347.502,59.6619 347.503,59.6268 347.505,59.5567 347.509,59.4164 347.516,59.1359 347.516,59.1168 347.517,59.0978 347.518,59.0598 347.52,58.9837 347.523,58.8316 347.523,58.8126 347.524,58.7936 347.525,58.7556 347.526,58.6795 347.529,58.5274 347.53,58.5084 347.53,58.4894 347.531,58.4514 347.532,58.3753 347.535,58.2232 347.539,57.9189 347.54,57.9012 347.54,57.8834 347.54,57.8479 347.541,57.7769 347.543,57.6348 347.543,57.6171 347.544,57.5993 347.544,57.5638 347.545,57.4928 347.546,57.3507 347.546,57.333 347.547,57.3152 347.547,57.2797 347.548,57.2087 347.548,57.1909 347.548,57.1732 347.548,57.1377 347.549,57.0667 347.549,57.0489 347.549,57.0311 347.549,56.9956 347.55,56.9246 347.55,56.9068 347.55,56.8891 347.55,56.8536 347.55,56.7826 347.55,56.7651 347.55,56.7477 347.551,56.7129 347.551,56.6955 347.551,56.6781 347.551,56.6433 347.551,56.6259 347.551,56.6085 347.551,56.5737 347.551,56.5563 347.551,56.5388 347.551,56.504 347.551,56.4866 347.551,56.4692 347.551,56.4518 347.551,56.4344 347.551,56.417 347.552,56.3996 347.552,56.3822 347.552,56.3648 347.552,56.3474 347.552,56.3299 347.552,56.3125 347.552,56.2951 347.552,56.2777 347.552,56.2603 347.552,56.2429 347.552,56.2255 347.552,56.2081 347.552,56.1907 347.552,56.1733 347.552,56.1559 347.552,56.1385 347.552,56.1211 347.552,56.1036 347.552,56.0862 347.552,56.0688 347.552,56.0514 347.552,56.034 347.552,56.0166 347.551,55.9992 347.551,55.9818 347.551,55.947 347.551,55.9296 347.551,55.9122 347.551,55.8773 347.551,55.8599 347.551,55.8425 347.551,55.8077 347.551,55.7903 347.551,55.7729 347.551,55.7381 347.55,55.6685 347.55,55.6496 347.55,55.6307 347.55,55.5929 347.55,55.5174 347.55,55.4985 347.549,55.4796 347.549,55.4418 347.549,55.3663 347.549,55.3474 347.548,55.3285 347.548,55.2908 347.547,55.2152 347.546,55.0641 347.546,55.0453 347.546,55.0264 347.545,54.9886 347.545,54.9131 347.543,54.762 347.543,54.7431 347.542,54.7242 347.542,54.6865 347.541,54.6109 347.539,54.4599 347.539,54.4423 347.538,54.4246 347.538,54.3894 347.537,54.3189 347.534,54.1779 347.534,54.1603 347.534,54.1427 347.533,54.1074 347.532,54.037 347.529,53.896 347.529,53.8784 347.529,53.8608 347.528,53.8255 347.526,53.755 347.523,53.6141 347.517,53.3322 347.516,53.3131 347.516,53.294 347.515,53.2558 347.513,53.1794 347.509,53.0267 347.501,52.7212 347.5,52.7021 347.499,52.683 347.498,52.6448 347.496,52.5685 347.491,52.4157 347.481,52.1103 347.481,52.0915 347.48,52.0728 347.479,52.0353 347.476,51.9604 347.47,51.8104 347.459,51.5106 347.434,50.9111 347.433,50.8936 347.432,50.8762 347.431,50.8412 347.428,50.7713 347.421,50.6316 347.408,50.352 347.379,49.7931 347.378,49.7741 347.377,49.7552 347.375,49.7173 347.371,49.6416 347.362,49.4901 347.345,49.1871 347.308,48.5813 347.23,47.4508 347.143,46.3433 347.037,45.1426 346.928,44.0233 346.797,42.8112 346.664,41.6805 346.523,40.5734 346.358,39.374 346.194,38.2561 346.003,37.0466 345.805,35.861 345.608,34.757 345.384,33.562 345.163,32.4484 344.936,31.3589 344.679,30.1792 344.428,29.0808 344.424,29.0617 344.419,29.0426 344.41,29.0043 344.392,28.9278 344.356,28.7747 344.284,28.4688 344.279,28.4497 344.275,28.4306 344.266,28.3924 344.247,28.3159 344.21,28.1631 344.206,28.144 344.201,28.1249 344.192,28.0867 344.173,28.0103 344.169,27.9912 344.164,27.9721 344.155,27.9339 344.15,27.9148 344.145,27.8958 344.141,27.8767 344.136,27.8576 " />
      <polyline
         transform="translate(-74,-13)"
         style="fill:none;stroke:#d40000;stroke-width:1.28678695;stroke-miterlimit:4;stroke-opacity:1;stroke-dasharray:none"
         id="polyline146"
         points="352.901,86.7358 352.905,86.7174 352.91,86.6991 352.919,86.6624 352.937,86.5889 352.973,86.442 353.045,86.1481 353.186,85.5598 353.483,84.2819 353.748,83.0859 353.996,81.911 354.253,80.6339 354.482,79.4398 354.716,78.1432 354.933,76.868 355.124,75.6765 355.317,74.3826 355.486,73.1729 355.641,71.9854 355.796,70.6955 355.928,69.4905 356.059,68.1829 356.174,66.898 356.27,65.6987 356.36,64.397 356.362,64.378 356.363,64.359 356.365,64.321 356.37,64.2451 356.38,64.0931 356.398,63.7892 356.433,63.1812 356.434,63.1606 356.435,63.14 356.438,63.0989 356.442,63.0165 356.451,62.8518 356.468,62.5223 356.469,62.5017 356.47,62.4811 356.472,62.4399 356.476,62.3575 356.484,62.1927 356.499,61.8631 356.5,61.8429 356.5,61.8227 356.502,61.7822 356.506,61.7013 356.513,61.5395 356.526,61.2158 356.527,61.1956 356.527,61.1754 356.529,61.1349 356.532,61.054 356.538,60.8921 356.55,60.5684 356.55,60.5495 356.551,60.5307 356.552,60.4929 356.555,60.4174 356.56,60.2664 356.569,59.9643 356.57,59.9455 356.57,59.9266 356.571,59.8888 356.573,59.8133 356.578,59.6623 356.585,59.3602 356.586,59.3397 356.586,59.3192 356.587,59.2783 356.589,59.1964 356.593,59.0326 356.594,59.0121 356.594,58.9917 356.595,58.9507 356.597,58.8688 356.6,58.705 356.6,58.6846 356.601,58.6641 356.602,58.6232 356.603,58.5413 356.606,58.3775 356.611,58.0499 356.611,58.0307 356.612,58.0116 356.612,57.9734 356.613,57.8969 356.615,57.744 356.615,57.7249 356.616,57.7057 356.616,57.6675 356.617,57.591 356.619,57.4381 356.619,57.419 356.619,57.3999 356.619,57.3616 356.62,57.2851 356.62,57.266 356.62,57.2469 356.621,57.2087 356.621,57.1322 356.621,57.1131 356.621,57.094 356.622,57.0557 356.622,56.9792 356.622,56.9601 356.622,56.941 356.623,56.9028 356.623,56.8263 356.623,56.8076 356.623,56.7888 356.623,56.7513 356.623,56.7326 356.623,56.7138 356.624,56.6763 356.624,56.6576 356.624,56.6389 356.624,56.6014 356.624,56.5826 356.624,56.5639 356.624,56.5264 356.624,56.5077 356.624,56.4889 356.624,56.4702 356.624,56.4514 356.624,56.4327 356.624,56.4139 356.624,56.3952 356.624,56.3764 356.624,56.3577 356.624,56.339 356.624,56.3202 356.624,56.3015 356.624,56.2827 356.624,56.264 356.624,56.2452 356.624,56.2265 356.624,56.2078 356.624,56.189 356.624,56.1703 356.624,56.1515 356.624,56.1328 356.624,56.114 356.624,56.0953 356.624,56.0766 356.624,56.0578 356.624,56.0391 356.624,56.0203 356.624,56.0016 356.624,55.9828 356.624,55.9641 356.624,55.9266 356.624,55.9079 356.624,55.8891 356.624,55.8516 356.624,55.8329 356.624,55.8141 356.624,55.7767 356.624,55.7579 356.624,55.7392 356.623,55.7017 356.623,55.6267 356.623,55.6064 356.623,55.586 356.623,55.5454 356.622,55.464 356.622,55.4437 356.622,55.4234 356.622,55.3827 356.621,55.3014 356.621,55.281 356.621,55.2607 356.621,55.22 356.62,55.1387 356.618,54.976 356.618,54.9557 356.618,54.9354 356.618,54.8947 356.617,54.8134 356.615,54.6507 356.615,54.6304 356.614,54.61 356.614,54.5694 356.613,54.488 356.61,54.3254 356.61,54.3064 356.61,54.2874 356.609,54.2495 356.608,54.1736 356.606,54.0218 356.605,54.0028 356.605,53.9839 356.604,53.9459 356.603,53.87 356.6,53.7183 356.6,53.6993 356.599,53.6803 356.598,53.6424 356.597,53.5665 356.594,53.4147 356.587,53.1112 356.586,53.0906 356.586,53.0701 356.585,53.0289 356.582,52.9467 356.578,52.7822 356.569,52.4533 356.568,52.4327 356.568,52.4122 356.566,52.3711 356.564,52.2888 356.559,52.1244 356.548,51.7955 356.547,51.7753 356.546,51.7552 356.545,51.7148 356.542,51.6341 356.536,51.4727 356.523,51.1499 356.496,50.5043 356.495,50.4855 356.494,50.4667 356.493,50.4291 356.489,50.3538 356.482,50.2033 356.468,49.9024 356.436,49.3006 356.435,49.2802 356.434,49.2598 356.432,49.219 356.427,49.1374 356.418,48.9743 356.399,48.6481 356.358,47.9958 356.273,46.7787 356.179,45.5863 356.064,44.2936 355.944,43.0885 355.802,41.7836 355.657,40.5664 355.503,39.3745 355.323,38.0834 355.144,36.8801 354.936,35.5781 354.72,34.3021 354.505,33.1137 354.261,31.8276 354.02,30.6292 353.773,29.4567 353.493,28.1873 353.219,27.0054 353.214,26.9848 353.209,26.9642 353.2,26.923 353.18,26.8407 353.141,26.676 353.062,26.3469 353.057,26.3263 353.052,26.3058 353.042,26.2646 353.022,26.1824 352.982,26.0179 352.977,25.9974 352.972,25.9768 352.961,25.9357 352.941,25.8535 352.936,25.833 352.931,25.8125 352.921,25.7714 352.916,25.7508 352.911,25.7303 352.906,25.7097 352.901,25.6892 " />
      <polyline
         transform="translate(-74,-13)"
         style="fill:none;stroke:#d40000;stroke-width:1.28678695;stroke-miterlimit:4;stroke-opacity:1;stroke-dasharray:none"
         id="polyline148"
         points="361.66,88.9268 361.665,88.9071 361.67,88.8875 361.679,88.8481 361.699,88.7695 361.738,88.6121 361.816,88.2972 361.969,87.6669 362.29,86.2977 362.577,85.0163 362.846,83.7573 363.124,82.3888 363.371,81.1092 363.625,79.7197 363.86,78.3531 364.066,77.0762 364.276,75.6894 364.459,74.3928 364.626,73.1201 364.794,71.7375 364.938,70.4459 365.079,69.0443 365.204,67.6671 365.307,66.3815 365.405,64.9861 365.407,64.9658 365.408,64.9454 365.411,64.9047 365.416,64.8233 365.426,64.6604 365.446,64.3346 365.484,63.6829 365.485,63.6608 365.487,63.6387 365.489,63.5946 365.494,63.5063 365.503,63.3297 365.522,62.9765 365.523,62.9544 365.524,62.9323 365.526,62.8882 365.53,62.7998 365.539,62.6232 365.555,62.2699 365.556,62.2482 365.557,62.2265 365.559,62.1832 365.563,62.0964 365.57,61.923 365.585,61.576 365.585,61.5543 365.586,61.5326 365.588,61.4893 365.591,61.4025 365.598,61.229 365.61,60.882 365.611,60.8618 365.612,60.8415 365.613,60.8011 365.616,60.7201 365.621,60.5582 365.631,60.2344 365.632,60.2142 365.633,60.194 365.634,60.1535 365.636,60.0725 365.641,59.9106 365.649,59.5868 365.65,59.5648 365.65,59.5429 365.651,59.499 365.653,59.4112 365.657,59.2356 365.658,59.2137 365.658,59.1918 365.659,59.1479 365.661,59.0601 365.665,58.8845 365.665,58.8625 365.666,58.8406 365.667,58.7967 365.668,58.7089 365.671,58.5333 365.677,58.1821 365.677,58.1616 365.678,58.1412 365.678,58.1002 365.679,58.0182 365.681,57.8542 365.682,57.8337 365.682,57.8133 365.682,57.7723 365.683,57.6903 365.685,57.5263 365.685,57.5058 365.685,57.4853 365.686,57.4444 365.686,57.3624 365.687,57.3419 365.687,57.3214 365.687,57.2804 365.688,57.1984 365.688,57.1779 365.688,57.1574 365.688,57.1164 365.689,57.0345 365.689,57.014 365.689,56.9935 365.689,56.9525 365.69,56.8705 365.69,56.8504 365.69,56.8303 365.69,56.7901 365.69,56.77 365.69,56.7499 365.69,56.7097 365.691,56.6897 365.691,56.6696 365.691,56.6294 365.691,56.6093 365.691,56.5892 365.691,56.549 365.691,56.5289 365.691,56.5088 365.691,56.4887 365.691,56.4686 365.691,56.4485 365.691,56.4284 365.691,56.4083 365.691,56.3883 365.691,56.3682 365.691,56.3481 365.691,56.328 365.691,56.3079 365.691,56.2878 365.691,56.2677 365.691,56.2476 365.691,56.2275 365.691,56.2074 365.691,56.1873 365.691,56.1672 365.691,56.1471 365.691,56.127 365.691,56.1069 365.691,56.0869 365.691,56.0668 365.691,56.0467 365.691,56.0266 365.691,56.0065 365.691,55.9864 365.691,55.9663 365.691,55.9462 365.691,55.906 365.691,55.8859 365.691,55.8658 365.691,55.8256 365.691,55.8056 365.691,55.7855 365.691,55.7453 365.691,55.7252 365.69,55.7051 365.69,55.6649 365.69,55.5845 365.69,55.5627 365.69,55.5409 365.69,55.4973 365.689,55.4101 365.689,55.3883 365.689,55.3666 365.688,55.323 365.688,55.2358 365.688,55.214 365.688,55.1922 365.687,55.1486 365.686,55.0614 365.685,54.887 365.685,54.8652 365.684,54.8434 365.684,54.7998 365.683,54.7126 365.681,54.5383 365.681,54.5165 365.68,54.4947 365.68,54.4511 365.679,54.3639 365.676,54.1895 365.676,54.1692 365.676,54.1488 365.675,54.1082 365.674,54.0268 365.671,53.8641 365.671,53.8438 365.67,53.8234 365.669,53.7827 365.668,53.7014 365.665,53.5387 365.664,53.5183 365.664,53.498 365.663,53.4573 365.662,53.376 365.658,53.2133 365.65,52.8879 365.65,52.8659 365.649,52.8438 365.648,52.7997 365.646,52.7116 365.641,52.5353 365.631,52.1827 365.63,52.1606 365.63,52.1386 365.628,52.0945 365.626,52.0064 365.62,51.8301 365.608,51.4775 365.607,51.4559 365.607,51.4343 365.605,51.391 365.602,51.3045 365.596,51.1315 365.582,50.7854 365.552,50.0934 365.551,50.0733 365.551,50.0531 365.549,50.0128 365.545,49.9321 365.537,49.7708 365.521,49.4481 365.488,48.803 365.486,48.7812 365.485,48.7593 365.483,48.7156 365.478,48.6281 365.468,48.4533 365.447,48.1036 365.403,47.4044 365.311,46.0997 365.209,44.8216 365.084,43.4358 364.955,42.1442 364.801,40.7454 364.644,39.4408 364.477,38.1633 364.283,36.7795 364.088,35.4899 363.864,34.0945 363.629,32.727 363.397,31.4536 363.132,30.0753 362.872,28.7912 362.604,27.5348 362.301,26.1747 362.005,24.9083 361.999,24.8863 361.994,24.8642 361.983,24.8201 361.962,24.7319 361.92,24.5555 361.834,24.2028 361.829,24.1808 361.823,24.1588 361.812,24.1147 361.791,24.0266 361.747,23.8504 361.742,23.8284 361.736,23.8064 361.726,23.7623 361.704,23.6743 361.698,23.6523 361.693,23.6303 361.682,23.5862 361.676,23.5642 361.671,23.5422 361.665,23.5202 361.66,23.4982 " />
      <polyline
         transform="translate(-74,-13)"
         style="fill:none;stroke:#d40000;stroke-width:1.28678695;stroke-miterlimit:4;stroke-opacity:1;stroke-dasharray:none"
         id="polyline150"
         points="370.414,91.1361 370.419,91.1151 370.425,91.0941 370.435,91.0521 370.456,90.9682 370.499,90.8002 370.582,90.4642 370.747,89.7915 371.092,88.3303 371.401,86.9626 371.691,85.619 371.991,84.1583 372.256,82.7924 372.529,81.3092 372.782,79.8504 373.004,78.4874 373.23,77.007 373.427,75.6228 373.607,74.2641 373.788,72.7881 373.942,71.4092 374.094,69.9128 374.229,68.4424 374.34,67.0699 374.446,65.5801 374.447,65.5583 374.449,65.5366 374.452,65.4931 374.457,65.4062 374.468,65.2323 374.49,64.8844 374.531,64.1886 374.532,64.165 374.533,64.1415 374.536,64.0943 374.541,64.0001 374.551,63.8115 374.571,63.4344 374.572,63.4108 374.573,63.3873 374.576,63.3401 374.58,63.2458 374.589,63.0572 374.607,62.68 374.608,62.6569 374.609,62.6337 374.611,62.5874 374.615,62.4948 374.623,62.3096 374.639,61.9392 374.64,61.916 374.641,61.8928 374.642,61.8465 374.646,61.7539 374.653,61.5687 374.667,61.1982 374.667,61.1765 374.668,61.1549 374.67,61.1117 374.672,61.0253 374.678,60.8525 374.689,60.5067 374.69,60.4851 374.69,60.4635 374.692,60.4203 374.694,60.3339 374.699,60.161 374.708,59.8152 374.709,59.7918 374.709,59.7684 374.71,59.7215 374.713,59.6278 374.717,59.4403 374.718,59.4169 374.718,59.3935 374.719,59.3466 374.721,59.2529 374.725,59.0654 374.726,59.042 374.726,59.0185 374.727,58.9717 374.729,58.8779 374.732,58.6905 374.738,58.3155 374.738,58.2936 374.739,58.2717 374.739,58.228 374.741,58.1405 374.743,57.9654 374.743,57.9435 374.743,57.9216 374.744,57.8779 374.745,57.7903 374.747,57.6153 374.747,57.5934 374.747,57.5715 374.748,57.5278 374.748,57.4402 374.749,57.4183 374.749,57.3965 374.749,57.3527 374.75,57.2652 374.75,57.2433 374.75,57.2214 374.75,57.1776 374.751,57.0901 374.751,57.0682 374.751,57.0463 374.751,57.0026 374.752,56.915 374.752,56.8936 374.752,56.8721 374.752,56.8292 374.752,56.8078 374.752,56.7863 374.753,56.7434 374.753,56.722 374.753,56.7005 374.753,56.6576 374.753,56.6361 374.753,56.6147 374.753,56.5718 374.753,56.5503 374.753,56.5289 374.753,56.5074 374.753,56.486 374.753,56.4645 374.753,56.4431 374.753,56.4216 374.754,56.4002 374.754,56.3787 374.754,56.3572 374.754,56.3358 374.754,56.3143 374.754,56.2929 374.754,56.2714 374.754,56.25 374.754,56.2285 374.754,56.2071 374.754,56.1856 374.754,56.1642 374.754,56.1427 374.754,56.1213 374.754,56.0998 374.754,56.0783 374.754,56.0569 374.754,56.0354 374.753,56.014 374.753,55.9925 374.753,55.9711 374.753,55.9496 374.753,55.9282 374.753,55.8853 374.753,55.8638 374.753,55.8424 374.753,55.7995 374.753,55.778 374.753,55.7565 374.753,55.7136 374.753,55.6922 374.753,55.6707 374.752,55.6278 374.752,55.542 374.752,55.5187 374.752,55.4955 374.752,55.4489 374.751,55.3558 374.751,55.3325 374.751,55.3093 374.75,55.2627 374.75,55.1696 374.75,55.1464 374.749,55.1231 374.749,55.0765 374.748,54.9834 374.747,54.7973 374.746,54.774 374.746,54.7507 374.746,54.7042 374.745,54.6111 374.742,54.4249 374.742,54.4016 374.742,54.3784 374.741,54.3318 374.74,54.2387 374.737,54.0525 374.737,54.0308 374.737,54.0091 374.736,53.9657 374.735,53.8788 374.732,53.7051 374.731,53.6834 374.731,53.6617 374.73,53.6182 374.728,53.5314 374.725,53.3576 374.725,53.3359 374.724,53.3142 374.723,53.2708 374.721,53.1839 374.718,53.0102 374.709,52.6628 374.709,52.6393 374.708,52.6157 374.707,52.5687 374.705,52.4745 374.7,52.2863 374.689,51.9098 374.688,51.8863 374.687,51.8628 374.686,51.8157 374.683,51.7216 374.677,51.5334 374.664,51.157 374.663,51.1339 374.662,51.1108 374.661,51.0646 374.657,50.9722 374.65,50.7874 374.636,50.418 374.604,49.6791 374.603,49.6576 374.602,49.6361 374.6,49.593 374.596,49.5069 374.588,49.3346 374.571,48.9902 374.534,48.3014 374.533,48.278 374.532,48.2547 374.529,48.208 374.524,48.1147 374.513,47.928 374.491,47.5546 374.443,46.8081 374.345,45.4151 374.234,44.0505 374.1,42.5711 373.961,41.1921 373.795,39.6988 373.626,38.306 373.447,36.9422 373.237,35.4649 373.028,34.0882 372.786,32.5987 372.534,31.1389 372.284,29.7796 371.999,28.3085 371.719,26.9379 371.431,25.5969 371.104,24.1452 370.785,22.7938 370.78,22.7702 370.774,22.7467 370.763,22.6996 370.74,22.6055 370.694,22.4172 370.602,22.0408 370.596,22.0173 370.59,21.9938 370.579,21.9468 370.555,21.8528 370.509,21.6648 370.503,21.6413 370.497,21.6178 370.485,21.5708 370.461,21.4768 370.456,21.4533 370.45,21.4298 370.438,21.3828 370.432,21.3594 370.426,21.3359 370.42,21.3124 370.414,21.2889 " />
    </g>
    <g
       transform="matrix(2.4139915,0,0,1.4987505,-111.04879,32.018175)"
       id="g4523"
       style="stroke-width:1.31433924;stroke-miterlimit:4;stroke-dasharray:none;stroke:#d40000;stroke-opacity:1">
      <polyline
         transform="translate(-74,-13)"
         style="fill:none;stroke:#d40000;stroke-width:1.31433924;stroke-miterlimit:4;stroke-opacity:1;stroke-dasharray:none"
         id="polyline4343"
         points="129.167,99.225 129.167,98.3788 129.167,97.5325 129.167,95.6977 129.167,93.9844 129.167,92.3048 129.167,90.4828 129.167,88.7824 129.167,86.9396 129.167,85.1304 129.167,83.4428 129.167,81.6129 129.167,79.9046 129.167,78.2298 129.167,76.4127 129.167,74.7172 129.167,72.8793 129.167,71.0751 129.167,69.3924 129.167,67.5674 129.167,65.8639 129.167,64.0181 129.167,62.2059 129.167,60.5153 129.167,58.6823 129.167,56.971 129.167,55.2932 129.167,53.4731 129.167,51.7745 129.167,49.9336 129.167,48.1263 129.167,46.4406 129.167,44.6126 129.167,42.9061 129.167,41.2332 129.167,39.418 129.167,37.7243 129.167,35.8884 129.167,34.1739 129.167,32.4931 129.167,30.67 129.167,28.9684 129.167,27.1245 129.167,25.3142 129.167,23.6254 129.167,21.7943 129.167,20.0848 129.167,18.4089 129.167,16.5907 129.167,14.894 129.167,13.947 129.167,13 " />
      <polyline
         transform="translate(-74,-13)"
         style="fill:none;stroke:#d40000;stroke-width:1.31433924;stroke-miterlimit:4;stroke-opacity:1;stroke-dasharray:none"
         id="polyline4345"
         points="138.196,99.225 138.196,98.3788 138.196,97.5325 138.196,95.6977 138.196,93.9844 138.196,92.3048 138.196,90.4828 138.196,88.7824 138.196,86.9396 138.196,85.1304 138.196,83.4428 138.196,81.6129 138.196,79.9046 138.196,78.2298 138.196,76.4127 138.196,74.7172 138.196,72.8793 138.196,71.0751 138.196,69.3924 138.196,67.5674 138.196,65.8639 138.196,64.0181 138.196,62.2059 138.196,60.5153 138.196,58.6823 138.196,56.971 138.196,55.2932 138.196,53.4731 138.196,51.7745 138.196,49.9336 138.196,48.1263 138.196,46.4406 138.196,44.6126 138.196,42.9061 138.196,41.2332 138.196,39.418 138.196,37.7243 138.196,35.8884 138.196,34.1739 138.196,32.4931 138.196,30.67 138.196,28.9684 138.196,27.1245 138.196,25.3142 138.196,23.6254 138.196,21.7943 138.196,20.0848 138.196,18.4089 138.196,16.5907 138.196,14.894 138.196,13.947 138.196,13 " />
      <polyline
         transform="translate(-74,-13)"
         style="fill:none;stroke:#d40000;stroke-width:1.31433924;stroke-miterlimit:4;stroke-opacity:1;stroke-dasharray:none"
         id="polyline4347"
         points="147.226,99.225 147.226,98.3788 147.226,97.5325 147.226,95.6977 147.226,93.9844 147.226,92.3048 147.226,90.4828 147.226,88.7824 147.226,86.9396 147.226,85.1304 147.226,83.4428 147.226,81.6129 147.226,79.9046 147.226,78.2298 147.226,76.4127 147.226,74.7172 147.226,72.8793 147.226,71.0751 147.226,69.3924 147.226,67.5674 147.226,65.8639 147.226,64.0181 147.226,62.2059 147.226,60.5153 147.226,58.6823 147.226,56.971 147.226,55.2932 147.226,53.4731 147.226,51.7745 147.226,49.9336 147.226,48.1263 147.226,46.4406 147.226,44.6126 147.226,42.9061 147.226,41.2332 147.226,39.418 147.226,37.7243 147.226,35.8884 147.226,34.1739 147.226,32.4931 147.226,30.67 147.226,28.9684 147.226,27.1245 147.226,25.3142 147.226,23.6254 147.226,21.7943 147.226,20.0848 147.226,18.4089 147.226,16.5907 147.226,14.894 147.226,13.947 147.226,13 " />
      <polyline
         transform="translate(-74,-13)"
         style="fill:none;stroke:#d40000;stroke-width:1.31433924;stroke-miterlimit:4;stroke-opacity:1;stroke-dasharray:none"
         id="polyline4349"
         points="156.255,99.225 156.255,98.3788 156.255,97.5325 156.255,95.6977 156.255,93.9844 156.255,92.3048 156.255,90.4828 156.255,88.7824 156.255,86.9396 156.255,85.1304 156.255,83.4428 156.255,81.6129 156.255,79.9046 156.255,78.2298 156.255,76.4127 156.255,74.7172 156.255,72.8793 156.255,71.0751 156.255,69.3924 156.255,67.5674 156.255,65.8639 156.255,64.0181 156.255,62.2059 156.255,60.5153 156.255,58.6823 156.255,56.971 156.255,55.2932 156.255,53.4731 156.255,51.7745 156.255,49.9336 156.255,48.1263 156.255,46.4406 156.255,44.6126 156.255,42.9061 156.255,41.2332 156.255,39.418 156.255,37.7243 156.255,35.8884 156.255,34.1739 156.255,32.4931 156.255,30.67 156.255,28.9684 156.255,27.1245 156.255,25.3142 156.255,23.6254 156.255,21.7943 156.255,20.0848 156.255,18.4089 156.255,16.5907 156.255,14.894 156.255,13.947 156.255,13 " />
      <polyline
         transform="translate(-74,-13)"
         style="fill:none;stroke:#d40000;stroke-width:1.31433924;stroke-miterlimit:4;stroke-opacity:1;stroke-dasharray:none"
         id="polyline4351"
         points="165.285,99.225 165.285,98.3788 165.285,97.5325 165.285,95.6977 165.285,93.9844 165.285,92.3048 165.285,90.4828 165.285,88.7824 165.285,86.9396 165.285,85.1304 165.285,83.4428 165.285,81.6129 165.285,79.9046 165.285,78.2298 165.285,76.4127 165.285,74.7172 165.285,72.8793 165.285,71.0751 165.285,69.3924 165.285,67.5674 165.285,65.8639 165.285,64.0181 165.285,62.2059 165.285,60.5153 165.285,58.6823 165.285,56.971 165.285,55.2932 165.285,53.4731 165.285,51.7745 165.285,49.9336 165.285,48.1263 165.285,46.4406 165.285,44.6126 165.285,42.9061 165.285,41.2332 165.285,39.418 165.285,37.7243 165.285,35.8884 165.285,34.1739 165.285,32.4931 165.285,30.67 165.285,28.9684 165.285,27.1245 165.285,25.3142 165.285,23.6254 165.285,21.7943 165.285,20.0848 165.285,18.4089 165.285,16.5907 165.285,14.894 165.285,13.947 165.285,13 " />
      <polyline
         transform="translate(-74,-13)"
         style="fill:none;stroke:#d40000;stroke-width:1.31433924;stroke-miterlimit:4;stroke-opacity:1;stroke-dasharray:none"
         id="polyline4353"
         points="174.314,99.225 174.314,98.3788 174.314,97.5325 174.314,95.6977 174.314,93.9844 174.314,92.3048 174.314,90.4828 174.314,88.7824 174.314,86.9396 174.314,85.1304 174.314,83.4428 174.314,81.6129 174.314,79.9046 174.314,78.2298 174.314,76.4127 174.314,74.7172 174.314,72.8793 174.314,71.0751 174.314,69.3924 174.314,67.5674 174.314,65.8639 174.314,64.0181 174.314,62.2059 174.314,60.5153 174.314,58.6823 174.314,56.971 174.314,55.2932 174.314,53.4731 174.314,51.7745 174.314,49.9336 174.314,48.1263 174.314,46.4406 174.314,44.6126 174.314,42.9061 174.314,41.2332 174.314,39.418 174.314,37.7243 174.314,35.8884 174.314,34.1739 174.314,32.4931 174.314,30.67 174.314,28.9684 174.314,27.1245 174.314,25.3142 174.314,23.6254 174.314,21.7943 174.314,20.0848 174.314,18.4089 174.314,16.5907 174.314,14.894 174.314,13.947 174.314,13 " />
      <polyline
         transform="translate(-74,-13)"
         style="fill:none;stroke:#d40000;stroke-width:1.31433924;stroke-miterlimit:4;stroke-opacity:1;stroke-dasharray:none"
         id="polyline4355"
         points="183.344,99.225 183.344,98.3788 183.344,97.5325 183.344,95.6977 183.344,93.9844 183.344,92.3048 183.344,90.4828 183.344,88.7824 183.344,86.9396 183.344,85.1304 183.344,83.4428 183.344,81.6129 183.344,79.9046 183.344,78.2298 183.344,76.4127 183.344,74.7172 183.344,72.8793 183.344,71.0751 183.344,69.3924 183.344,67.5674 183.344,65.8639 183.344,64.0181 183.344,62.2059 183.344,60.5153 183.344,58.6823 183.344,56.971 183.344,55.2932 183.344,53.4731 183.344,51.7745 183.344,49.9336 183.344,48.1263 183.344,46.4406 183.344,44.6126 183.344,42.9061 183.344,41.2332 183.344,39.418 183.344,37.7243 183.344,35.8884 183.344,34.1739 183.344,32.4931 183.344,30.67 183.344,28.9684 183.344,27.1245 183.344,25.3142 183.344,23.6254 183.344,21.7943 183.344,20.0848 183.344,18.4089 183.344,16.5907 183.344,14.894 183.344,13.947 183.344,13 " />
      <polyline
         transform="translate(-74,-13)"
         style="fill:none;stroke:#d40000;stroke-width:1.31433924;stroke-miterlimit:4;stroke-opacity:1;stroke-dasharray:none"
         id="polyline4357"
         points="192.373,99.225 192.373,98.3788 192.373,97.5325 192.373,95.6977 192.373,93.9844 192.373,92.3048 192.373,90.4828 192.373,88.7824 192.373,86.9396 192.373,85.1304 192.373,83.4428 192.373,81.6129 192.373,79.9046 192.373,78.2298 192.373,76.4127 192.373,74.7172 192.373,72.8793 192.373,71.0751 192.373,69.3924 192.373,67.5674 192.373,65.8639 192.373,64.0181 192.373,62.2059 192.373,60.5153 192.373,58.6823 192.373,56.971 192.373,55.2932 192.373,53.4731 192.373,51.7745 192.373,49.9336 192.373,48.1263 192.373,46.4406 192.373,44.6126 192.373,42.9061 192.373,41.2332 192.373,39.418 192.373,37.7243 192.373,35.8884 192.373,34.1739 192.373,32.4931 192.373,30.67 192.373,28.9684 192.373,27.1245 192.373,25.3142 192.373,23.6254 192.373,21.7943 192.373,20.0848 192.373,18.4089 192.373,16.5907 192.373,14.894 192.373,13.947 192.373,13 " />
      <polyline
         transform="translate(-74,-13)"
         style="fill:none;stroke:#d40000;stroke-width:1.31433924;stroke-miterlimit:4;stroke-opacity:1;stroke-dasharray:none"
         id="polyline4359"
         points="201.403,99.225 201.403,98.3788 201.403,97.5325 201.403,95.6977 201.403,93.9844 201.403,92.3048 201.403,90.4828 201.403,88.7824 201.403,86.9396 201.403,85.1304 201.403,83.4428 201.403,81.6129 201.403,79.9046 201.403,78.2298 201.403,76.4127 201.403,74.7172 201.403,72.8793 201.403,71.0751 201.403,69.3924 201.403,67.5674 201.403,65.8639 201.403,64.0181 201.403,62.2059 201.403,60.5153 201.403,58.6823 201.403,56.971 201.403,55.2932 201.403,53.4731 201.403,51.7745 201.403,49.9336 201.403,48.1263 201.403,46.4406 201.403,44.6126 201.403,42.9061 201.403,41.2332 201.403,39.418 201.403,37.7243 201.403,35.8884 201.403,34.1739 201.403,32.4931 201.403,30.67 201.403,28.9684 201.403,27.1245 201.403,25.3142 201.403,23.6254 201.403,21.7943 201.403,20.0848 201.403,18.4089 201.403,16.5907 201.403,14.894 201.403,13.947 201.403,13 " />
      <polyline
         transform="translate(-74,-13)"
         style="fill:none;stroke:#d40000;stroke-width:1.31433924;stroke-miterlimit:4;stroke-opacity:1;stroke-dasharray:none"
         id="polyline4361"
         points="210.432,99.225 210.432,98.3788 210.432,97.5325 210.432,95.6977 210.432,93.9844 210.432,92.3048 210.432,90.4828 210.432,88.7824 210.432,86.9396 210.432,85.1304 210.432,83.4428 210.432,81.6129 210.432,79.9046 210.432,78.2298 210.432,76.4127 210.432,74.7172 210.432,72.8793 210.432,71.0751 210.432,69.3924 210.432,67.5674 210.432,65.8639 210.432,64.0181 210.432,62.2059 210.432,60.5153 210.432,58.6823 210.432,56.971 210.432,55.2932 210.432,53.4731 210.432,51.7745 210.432,49.9336 210.432,48.1263 210.432,46.4406 210.432,44.6126 210.432,42.9061 210.432,41.2332 210.432,39.418 210.432,37.7243 210.432,35.8884 210.432,34.1739 210.432,32.4931 210.432,30.67 210.432,28.9684 210.432,27.1245 210.432,25.3142 210.432,23.6254 210.432,21.7943 210.432,20.0848 210.432,18.4089 210.432,16.5907 210.432,14.894 210.432,13.947 210.432,13 " />
      <polyline
         transform="translate(-74,-13)"
         style="fill:none;stroke:#d40000;stroke-width:1.31433924;stroke-miterlimit:4;stroke-opacity:1;stroke-dasharray:none"
         id="polyline4363"
         points="219.462,99.225 219.462,98.3788 219.462,97.5325 219.462,95.6977 219.462,93.9844 219.462,92.3048 219.462,90.4828 219.462,88.7824 219.462,86.9396 219.462,85.1304 219.462,83.4428 219.462,81.6129 219.462,79.9046 219.462,78.2298 219.462,76.4127 219.462,74.7172 219.462,72.8793 219.462,71.0751 219.462,69.3924 219.462,67.5674 219.462,65.8639 219.462,64.0181 219.462,62.2059 219.462,60.5153 219.462,58.6823 219.462,56.971 219.462,55.2932 219.462,53.4731 219.462,51.7745 219.462,49.9336 219.462,48.1263 219.462,46.4406 219.462,44.6126 219.462,42.9061 219.462,41.2332 219.462,39.418 219.462,37.7243 219.462,35.8884 219.462,34.1739 219.462,32.4931 219.462,30.67 219.462,28.9684 219.462,27.1245 219.462,25.3142 219.462,23.6254 219.462,21.7943 219.462,20.0848 219.462,18.4089 219.462,16.5907 219.462,14.894 219.462,13.947 219.462,13 " />
    </g>
    <text
       xml:space="preserve"
       style="font-style:normal;font-weight:normal;line-height:0%;font-family:sans-serif;letter-spacing:0px;word-spacing:0px;fill:#000000;fill-opacity:1;stroke:none"
       x="242.44168"
       y="101.96346"
       id="text4587"><tspan
         sodipodi:role="line"
         id="tspan4589"
         x="242.44168"
         y="101.96346"
         style="font-style:normal;font-variant:normal;font-weight:normal;font-stretch:normal;font-size:17.98500824px;line-height:1.25;font-family:'Nimbus Roman No9 L';-inkscape-font-specification:'Nimbus Roman No9 L'">$2a$</tspan></text>
    <text
       xml:space="preserve"
       style="font-style:italic;font-variant:normal;font-weight:normal;font-stretch:normal;line-height:0%;font-family:msam10;-inkscape-font-specification:'msam10 Italic';letter-spacing:0px;word-spacing:0px;fill:#000000;fill-opacity:1;stroke:none"
       x="666.45282"
       y="72.201935"
       id="text4587-2"><tspan
         sodipodi:role="line"
         id="tspan4589-7"
         x="666.45282"
         y="72.201935"
         style="font-style:italic;font-variant:normal;font-weight:normal;font-stretch:normal;font-size:17.98500824px;line-height:1.25;font-family:'Nimbus Roman No9 L';-inkscape-font-specification:'Nimbus Roman No9 L Italic'">$\vartheta = \lambda/a$ </tspan></text>
    <text
       xml:space="preserve"
       style="font-style:normal;font-weight:normal;line-height:0%;font-family:sans-serif;letter-spacing:0px;word-spacing:0px;fill:#000000;fill-opacity:1;stroke:none"
       x="313.66956"
       y="54.581261"
       id="text4587-3"><tspan
         sodipodi:role="line"
         id="tspan4589-3"
         x="313.66956"
         y="54.581261"
         style="font-style:italic;font-variant:normal;font-weight:normal;font-stretch:normal;font-size:17.98500824px;line-height:1.25;font-family:'Nimbus Roman No9 L';-inkscape-font-specification:'Nimbus Roman No9 L Italic'">$b$</tspan></text>
  </g>
</svg>
