<?xml version="1.0" encoding="UTF-8" standalone="no"?>
<!-- Created with Inkscape (http://www.inkscape.org/) -->

<svg
   xmlns:dc="http://purl.org/dc/elements/1.1/"
   xmlns:cc="http://creativecommons.org/ns#"
   xmlns:rdf="http://www.w3.org/1999/02/22-rdf-syntax-ns#"
   xmlns:svg="http://www.w3.org/2000/svg"
   xmlns="http://www.w3.org/2000/svg"
   xmlns:sodipodi="http://sodipodi.sourceforge.net/DTD/sodipodi-0.dtd"
   xmlns:inkscape="http://www.inkscape.org/namespaces/inkscape"
   width="731.86993"
   height="181.44536"
   id="svg7815"
   version="1.1"
   inkscape:version="0.92.3 (2405546, 2018-03-11)"
   sodipodi:docname="04_Odprt_resonator.svg"
   inkscape:export-filename="/home/jetra/mojca/HomeMojca/MojcaNova/slike/04_Odprt_resonator.png"
   inkscape:export-xdpi="300"
   inkscape:export-ydpi="300"
   viewBox="0 0 686.12805 170.10503">
  <sodipodi:namedview
     id="base"
     pagecolor="#ffffff"
     bordercolor="#666666"
     borderopacity="1.0"
     inkscape:pageopacity="0.0"
     inkscape:pageshadow="2"
     inkscape:zoom="0.79358365"
     inkscape:cx="680.57323"
     inkscape:cy="157.95272"
     inkscape:document-units="px"
     inkscape:current-layer="layer1"
     showgrid="false"
     inkscape:window-width="1554"
     inkscape:window-height="954"
     inkscape:window-x="232"
     inkscape:window-y="199"
     inkscape:window-maximized="0"
     showguides="false"
     inkscape:guide-bbox="true"
     fit-margin-top="0"
     fit-margin-left="0"
     fit-margin-right="0"
     fit-margin-bottom="0">
    <sodipodi:guide
       id="guide3248"
       position="232.81005,-275.99822"
       orientation="1,0"
       inkscape:locked="false" />
    <sodipodi:guide
       id="guide3256"
       position="326.38148,-289.56965"
       orientation="1,0"
       inkscape:locked="false" />
    <sodipodi:guide
       id="guide21735"
       position="294.23862,-266.53394"
       orientation="0,1"
       inkscape:locked="false" />
    <sodipodi:guide
       id="guide21737"
       position="289.59576,-309.92679"
       orientation="0,1"
       inkscape:locked="false" />
    <sodipodi:guide
       id="guide21739"
       position="278.34576,-292.06965"
       orientation="0,1"
       inkscape:locked="false" />
    <sodipodi:guide
       id="guide21741"
       position="310.13147,-276.35536"
       orientation="0,1"
       inkscape:locked="false" />
    <sodipodi:guide
       id="guide21743"
       position="230.66719,-400.28394"
       orientation="0,1"
       inkscape:locked="false" />
    <sodipodi:guide
       id="guide21745"
       position="264.86238,-289.10273"
       orientation="0,1"
       inkscape:locked="false" />
    <sodipodi:guide
       id="guide21747"
       position="278.37317,-290.55482"
       orientation="0,1"
       inkscape:locked="false" />
  </sodipodi:namedview>
  <defs
     id="defs7817">
    <marker
       style="overflow:visible"
       id="Arrow1Mendly"
       refX="0"
       refY="0"
       orient="auto"
       inkscape:stockid="Arrow1Mendly">
      <path
         transform="matrix(-0.4,0,0,-0.4,-4,0)"
         style="fill:#800000;fill-rule:evenodd;stroke:#800000;stroke-width:1.00000003pt"
         d="M 0,0 5,-5 -12.5,0 5,5 Z"
         id="path4342"
         inkscape:connector-curvature="0" />
    </marker>
    <marker
       style="overflow:visible"
       id="marker7801"
       refX="0"
       refY="0"
       orient="auto"
       inkscape:stockid="Arrow1Mendly">
      <path
         transform="matrix(-0.4,0,0,-0.4,-4,0)"
         style="fill:#800000;fill-rule:evenodd;stroke:#800000;stroke-width:1.00000003pt"
         d="M 0,0 5,-5 -12.5,0 5,5 Z"
         id="path7803"
         inkscape:connector-curvature="0" />
    </marker>
    <marker
       style="overflow:visible"
       id="Arrow1Mendly-9"
       refX="0"
       refY="0"
       orient="auto"
       inkscape:stockid="Arrow1Mendly">
      <path
         transform="matrix(-0.4,0,0,-0.4,-4,0)"
         style="fill:#800000;fill-rule:evenodd;stroke:#800000;stroke-width:1.00000003pt"
         d="M 0,0 5,-5 -12.5,0 5,5 Z"
         id="path4342-7"
         inkscape:connector-curvature="0" />
    </marker>
    <marker
       style="overflow:visible"
       id="marker7906"
       refX="0"
       refY="0"
       orient="auto"
       inkscape:stockid="Arrow1Mendly">
      <path
         transform="matrix(-0.4,0,0,-0.4,-4,0)"
         style="fill:#800000;fill-rule:evenodd;stroke:#800000;stroke-width:1.00000003pt"
         d="M 0,0 5,-5 -12.5,0 5,5 Z"
         id="path7908"
         inkscape:connector-curvature="0" />
    </marker>
    <marker
       style="overflow:visible"
       id="DotM"
       refX="0"
       refY="0"
       orient="auto"
       inkscape:stockid="DotM">
      <path
         transform="matrix(0.4,0,0,0.4,2.96,0.4)"
         style="fill-rule:evenodd;stroke:#000000;stroke-width:1.00000003pt"
         d="m -2.5,-1 c 0,2.76 -2.24,5 -5,5 -2.76,0 -5,-2.24 -5,-5 0,-2.76 2.24,-5 5,-5 2.76,0 5,2.24 5,5 z"
         id="path3902"
         inkscape:connector-curvature="0" />
    </marker>
    <marker
       style="overflow:visible"
       id="Arrow1Mendly-0"
       refX="0"
       refY="0"
       orient="auto"
       inkscape:stockid="Arrow1Mendly">
      <path
         transform="matrix(-0.4,0,0,-0.4,-4,0)"
         style="fill:#800000;fill-rule:evenodd;stroke:#800000;stroke-width:1.00000003pt"
         d="M 0,0 5,-5 -12.5,0 5,5 Z"
         id="path4342-9"
         inkscape:connector-curvature="0" />
    </marker>
    <marker
       style="overflow:visible"
       id="marker8018"
       refX="0"
       refY="0"
       orient="auto"
       inkscape:stockid="Arrow1Mendly">
      <path
         transform="matrix(-0.4,0,0,-0.4,-4,0)"
         style="fill:#800000;fill-rule:evenodd;stroke:#800000;stroke-width:1.00000003pt"
         d="M 0,0 5,-5 -12.5,0 5,5 Z"
         id="path8020"
         inkscape:connector-curvature="0" />
    </marker>
    <marker
       style="overflow:visible"
       id="Arrow1Mendly-5"
       refX="0"
       refY="0"
       orient="auto"
       inkscape:stockid="Arrow1Mendly">
      <path
         transform="matrix(-0.4,0,0,-0.4,-4,0)"
         style="fill:#800000;fill-rule:evenodd;stroke:#800000;stroke-width:1.00000003pt"
         d="M 0,0 5,-5 -12.5,0 5,5 Z"
         id="path4342-6"
         inkscape:connector-curvature="0" />
    </marker>
    <marker
       style="overflow:visible"
       id="Arrow1Mend-9"
       refX="0"
       refY="0"
       orient="auto"
       inkscape:stockid="Arrow1Mend">
      <path
         transform="matrix(-0.4,0,0,-0.4,-4,0)"
         style="fill-rule:evenodd;stroke:#000000;stroke-width:1.00000003pt"
         d="M 0,0 5,-5 -12.5,0 5,5 Z"
         id="path3847-21"
         inkscape:connector-curvature="0" />
    </marker>
    <marker
       style="overflow:visible"
       id="marker8147"
       refX="0"
       refY="0"
       orient="auto"
       inkscape:stockid="Arrow1Mendly">
      <path
         transform="matrix(-0.4,0,0,-0.4,-4,0)"
         style="fill:#800000;fill-rule:evenodd;stroke:#800000;stroke-width:1.00000003pt"
         d="M 0,0 5,-5 -12.5,0 5,5 Z"
         id="path8149"
         inkscape:connector-curvature="0" />
    </marker>
    <marker
       style="overflow:visible"
       id="Arrow1Mstart-6"
       refX="0"
       refY="0"
       orient="auto"
       inkscape:stockid="Arrow1Mstart">
      <path
         transform="matrix(0.4,0,0,0.4,4,0)"
         style="fill-rule:evenodd;stroke:#000000;stroke-width:1.00000003pt"
         d="M 0,0 5,-5 -12.5,0 5,5 Z"
         id="path3844-2"
         inkscape:connector-curvature="0" />
    </marker>
    <marker
       style="overflow:visible"
       id="Arrow1Mend-9-6"
       refX="0"
       refY="0"
       orient="auto"
       inkscape:stockid="Arrow1Mend">
      <path
         transform="matrix(-0.4,0,0,-0.4,-4,0)"
         style="fill-rule:evenodd;stroke:#000000;stroke-width:1.00000003pt"
         d="M 0,0 5,-5 -12.5,0 5,5 Z"
         id="path3847-21-3"
         inkscape:connector-curvature="0" />
    </marker>
    <marker
       style="overflow:visible"
       id="Arrow1Mendly-4"
       refX="0"
       refY="0"
       orient="auto"
       inkscape:stockid="Arrow1Mendly">
      <path
         transform="matrix(-0.4,0,0,-0.4,-4,0)"
         style="fill:#800000;fill-rule:evenodd;stroke:#800000;stroke-width:1.00000003pt"
         d="M 0,0 5,-5 -12.5,0 5,5 Z"
         id="path4342-0"
         inkscape:connector-curvature="0" />
    </marker>
    <marker
       style="overflow:visible"
       id="marker8293"
       refX="0"
       refY="0"
       orient="auto"
       inkscape:stockid="Arrow1Mendly">
      <path
         transform="matrix(-0.4,0,0,-0.4,-4,0)"
         style="fill:#800000;fill-rule:evenodd;stroke:#800000;stroke-width:1.00000003pt"
         d="M 0,0 5,-5 -12.5,0 5,5 Z"
         id="path8295"
         inkscape:connector-curvature="0" />
    </marker>
    <marker
       style="overflow:visible"
       id="DotM-6"
       refX="0"
       refY="0"
       orient="auto"
       inkscape:stockid="DotM">
      <path
         transform="matrix(0.4,0,0,0.4,2.96,0.4)"
         style="fill-rule:evenodd;stroke:#000000;stroke-width:1.00000003pt"
         d="m -2.5,-1 c 0,2.76 -2.24,5 -5,5 -2.76,0 -5,-2.24 -5,-5 0,-2.76 2.24,-5 5,-5 2.76,0 5,2.24 5,5 z"
         id="path3902-9"
         inkscape:connector-curvature="0" />
    </marker>
    <marker
       style="overflow:visible"
       id="Arrow1Mstart-6-0"
       refX="0"
       refY="0"
       orient="auto"
       inkscape:stockid="Arrow1Mstart">
      <path
         transform="matrix(0.4,0,0,0.4,4,0)"
         style="fill-rule:evenodd;stroke:#000000;stroke-width:1.00000003pt"
         d="M 0,0 5,-5 -12.5,0 5,5 Z"
         id="path3844-2-9"
         inkscape:connector-curvature="0" />
    </marker>
    <clipPath
       id="cp1">
      <polygon
         id="polygon22293"
         points="-4.49423e+307,-4.49423e+307 -4.49423e+307,4.49423e+307 4.49423e+307,4.49423e+307 4.49423e+307,-4.49423e+307 " />
    </clipPath>
    <clipPath
       id="cp2">
      <polygon
         id="polygon22300"
         points="74,13 74,235 434,235 434,13 " />
    </clipPath>
  </defs>
  <metadata
     id="metadata7820">
    <rdf:RDF>
      <cc:Work
         rdf:about="">
        <dc:format>image/svg+xml</dc:format>
        <dc:type
           rdf:resource="http://purl.org/dc/dcmitype/StillImage" />
        <dc:title></dc:title>
      </cc:Work>
    </rdf:RDF>
  </metadata>
  <g
     transform="translate(-46.832809,-32.330368)"
     id="layer1"
     inkscape:groupmode="layer"
     inkscape:label="Layer 1">
    <path
       sodipodi:nodetypes="cc"
       inkscape:connector-curvature="0"
       id="path4217-1"
       d="M 411.9578,184.00749 411.09377,46.823433"
       style="fill:none;stroke:#000000;stroke-width:5.31312275;stroke-miterlimit:4;stroke-dasharray:none" />
    <path
       sodipodi:nodetypes="cc"
       inkscape:connector-curvature="0"
       id="path4219-8"
       d="M 408.74235,183.89931 407.87831,46.715251"
       style="fill:none;stroke:#c1d5e9;stroke-width:5.31312275;stroke-miterlimit:4;stroke-dasharray:none" />
    <path
       style="fill:none;stroke:#000000;stroke-width:5.31312275;stroke-miterlimit:4;stroke-dasharray:none"
       d="m 651.33707,46.715298 0.86404,137.184052"
       id="path4350"
       inkscape:connector-curvature="0"
       sodipodi:nodetypes="cc" />
    <path
       style="fill:none;stroke:#c1d5e9;stroke-width:5.31312275;stroke-miterlimit:4;stroke-dasharray:none"
       d="M 654.55253,46.57093 655.41657,183.755"
       id="path4352"
       inkscape:connector-curvature="0"
       sodipodi:nodetypes="cc" />
    <path
       style="color:#000000;font-style:normal;font-variant:normal;font-weight:normal;font-stretch:normal;font-size:medium;line-height:normal;font-family:sans-serif;text-indent:0;text-align:start;text-decoration:none;text-decoration-line:none;letter-spacing:normal;word-spacing:normal;text-transform:none;writing-mode:lr-tb;direction:ltr;baseline-shift:baseline;text-anchor:start;display:inline;overflow:visible;visibility:visible;fill:#d40000;fill-opacity:1;fill-rule:nonzero;stroke:#d40000;stroke-width:0;stroke-miterlimit:4;stroke-dasharray:none;stroke-opacity:1;enable-background:accumulate"
       d="M 691.48507,40.125215 412.961,55.792953 l 0.006,3.019925 211.27472,11.229242 -211.28851,13.103407 0.0138,3.017958 211.27472,11.229242 -211.28851,13.103403 0.0138,3.01795 211.27472,11.22925 -211.28851,13.10341 0.0138,3.01796 211.27472,11.22923 -211.28851,13.10341 0.008,3.01796 108.46534,6.13435 0.17127,-3.01993 -82.99086,-4.69328 212.02281,-13.14869 -0.0138,-3.01993 -211.25897,-11.22924 211.27275,-13.10144 -0.0138,-3.01992 L 439.35715,111.88797 650.6299,98.786538 650.6161,95.766613 439.35713,84.537371 650.62988,71.435932 650.61608,68.416006 440.8336,57.265511 691.65438,43.143172 c -0.0564,-1.005986 -0.11287,-2.011971 -0.16931,-3.017957 z"
       id="path19331"
       inkscape:connector-curvature="0"
       sodipodi:nodetypes="cccccccccccccccccccccccccccccccc" />
    <path
       style="fill:#d40000;fill-opacity:1;fill-rule:evenodd;stroke:#d40000;stroke-width:0.86887604pt;stroke-opacity:1"
       d="m 504.80169,171.84399 4.52222,-4.15896 -15.37367,3.70489 15.01041,4.97628 z"
       id="path4335"
       inkscape:connector-curvature="0" />
    <path
       style="fill:#d40000;fill-opacity:1;fill-rule:evenodd;stroke:#d40000;stroke-width:1.13631296;stroke-miterlimit:4;stroke-dasharray:none;stroke-opacity:1"
       d="m 688.60535,41.784981 -4.3403,4.740951 15.69188,-5.241756 -16.09254,-3.839502 z"
       id="path4337"
       inkscape:connector-curvature="0" />
    <path
       inkscape:connector-curvature="0"
       id="path21794"
       d="M 57.62649,54.474949 H 288.22733"
       style="fill:none;stroke:#000000;stroke-width:1.30762339;stroke-linecap:butt;stroke-linejoin:miter;stroke-miterlimit:4;stroke-dasharray:none;stroke-opacity:1;marker-start:url(#Arrow1Mstart-6-0);marker-end:url(#Arrow1Mend-9-6)" />
    <path
       sodipodi:nodetypes="cc"
       inkscape:connector-curvature="0"
       id="path4217-1-4"
       d="M 53.568818,184.11209 52.704788,46.92803"
       style="fill:none;stroke:#000000;stroke-width:5.31312275;stroke-miterlimit:4;stroke-dasharray:none" />
    <path
       sodipodi:nodetypes="cc"
       inkscape:connector-curvature="0"
       id="path4219-8-2"
       d="M 50.353368,184.00392 49.489318,46.819856"
       style="fill:none;stroke:#c1d5e9;stroke-width:5.31312275;stroke-miterlimit:4;stroke-dasharray:none" />
    <path
       style="fill:none;stroke:#000000;stroke-width:5.31312275;stroke-miterlimit:4;stroke-dasharray:none"
       d="m 292.94809,46.819898 0.86403,137.184062"
       id="path4350-0"
       inkscape:connector-curvature="0"
       sodipodi:nodetypes="cc" />
    <path
       style="fill:none;stroke:#c1d5e9;stroke-width:5.31312275;stroke-miterlimit:4;stroke-dasharray:none"
       d="M 296.16354,46.675534 297.02759,183.8596"
       id="path4352-6"
       inkscape:connector-curvature="0"
       sodipodi:nodetypes="cc" />
    <rect
       y="70.99173"
       x="54.914028"
       height="72.73098"
       width="199.00005"
       id="rect4300"
       style="opacity:1;fill:none;fill-opacity:1;stroke:#000000;stroke-width:2;stroke-linecap:butt;stroke-linejoin:miter;stroke-miterlimit:4;stroke-dasharray:none;stroke-dashoffset:0;stroke-opacity:0" />
    <path
       id="path5284"
       title="sin(x)"
       d="m 54.549853,115.52167 c 1.339119,-2.17292 2.678237,-4.33494 4.017358,-5.93155 1.339119,-1.5966 2.67824,-2.61178 4.017359,-2.78514 1.33912,-0.17337 2.678239,0.4968 4.017359,1.83864 1.33912,1.34182 2.678239,3.34186 4.017359,5.48711 1.33912,2.14525 2.678239,4.41423 4.017359,6.22494 1.33912,1.81073 2.67824,3.14505 4.017359,3.66074 1.339119,0.5157 2.678239,0.20758 4.017359,-0.8453 1.33912,-1.0529 2.67824,-2.84 4.017359,-4.90297 1.33912,-2.06296 2.678239,-4.3811 4.017359,-6.35983 1.33912,-1.97874 2.678239,-3.59824 4.017359,-4.44312 1.339119,-0.84488 2.67824,-0.90668 4.017358,-0.16954 1.33913,0.73714 2.67824,2.26582 4.01736,4.19396 1.33912,1.92815 2.67824,4.23642 4.01737,6.33278 1.33911,2.09636 2.67823,3.9598 4.01734,5.11236 1.33913,1.15257 2.67824,1.5827 4.01736,1.18008 1.33913,-0.40262 2.67824,-1.63395 4.01737,-3.37818 1.33911,-1.74422 2.67824,-3.98386 4.01736,-6.14447 1.33911,-2.1606 2.67824,-4.22052 4.01735,-5.65142 1.33913,-1.43089 2.67824,-2.21841 4.01737,-2.16057 1.33912,0.0579 2.67823,0.96048 4.01735,2.47637 1.33911,1.5159 2.67824,3.62987 4.01736,5.79971 1.33912,2.16983 2.67824,4.37379 4.01736,6.04658 1.33912,1.67278 2.67824,2.79763 4.01736,3.08603 1.33912,0.28841 2.67824,-0.26254 4.01736,-1.5115 1.33912,-1.24896 2.67824,-3.18343 4.01737,-5.30726 1.3391,-2.12381 2.67823,-4.41569 4.01734,-6.28776 1.33912,-1.8721 2.67824,-3.30564 4.01736,-3.93294 1.33913,-0.6273 2.67824,-0.44208 4.01737,0.50815 1.33911,0.95023 2.67823,2.65596 4.01736,4.67968 1.33911,2.02371 2.67824,4.34514 4.01735,6.36885 1.33913,2.02372 2.67824,3.72944 4.01737,4.67967 1.33911,0.95024 2.67822,1.13546 4.01735,0.50816 1.33911,-0.62731 2.67824,-2.06084 4.01735,-3.93294 1.33913,-1.87208 2.67825,-4.16395 4.01737,-6.28777 1.33912,-2.12382 2.67823,-4.0583 4.01736,-5.30726 1.33912,-1.24896 2.67824,-1.79991 4.01736,-1.51149 1.33912,0.2884 2.67824,1.41324 4.01736,3.08603 1.33911,1.67279 2.67823,3.87674 4.01735,6.04658 1.33912,2.16983 2.67824,4.2838 4.01736,5.79971 1.33913,1.51589 2.67824,2.41851 4.01736,2.47636 1.33912,0.0579 2.67824,-0.72967 4.01736,-2.16056 1.33912,-1.4309 2.67825,-3.49082 4.01736,-5.65143 1.33913,-2.16061 2.67824,-4.40024 4.01736,-6.14446 1.33912,-1.74423 2.67823,-2.97557 4.01736,-3.37818 1.33911,-0.40262 2.67824,0.0275 4.01735,1.18008 1.33913,1.15255 2.67825,3.01599 4.01736,5.11236 1.33913,2.09636 2.67824,4.40462 4.01737,6.33277 1.33912,1.92814 2.67824,3.45682 4.01736,4.19397 1.33912,0.73714 2.67824,0.67534 4.01735,-0.16955 1.33912,-0.84487 2.67824,-2.46438 4.01736,-4.44311 1.33912,-1.97873 2.67824,-4.29688 4.01736,-6.35984 1.33912,-2.06296 2.67824,-3.85006 4.01736,-4.90296 1.33912,-1.05289 2.67824,-1.361 4.01736,-0.84531 1.33912,0.51569 2.67825,1.85002 4.01736,3.66074 1.33912,1.81072 2.67824,4.07969 4.01735,6.22495 1.33912,2.14524 2.67824,4.14529 4.01737,5.48711 1.33911,1.34183 2.67824,2.012 4.01735,1.83864 1.33912,-0.17337 2.67825,-1.18854 4.01736,-2.78515 1.33913,-1.5966 2.67824,-3.75862 4.01737,-5.93155"
       style="opacity:1;fill:none;fill-opacity:1;stroke:#d40000;stroke-width:2.51187468;stroke-linecap:butt;stroke-linejoin:miter;stroke-miterlimit:4;stroke-dasharray:none;stroke-dashoffset:0;stroke-opacity:1"
       inkscape:connector-curvature="0" />
    <path
       inkscape:connector-curvature="0"
       style="opacity:1;fill:none;fill-opacity:1;stroke:#d40000;stroke-width:2.50806189;stroke-linecap:butt;stroke-linejoin:miter;stroke-miterlimit:4;stroke-dasharray:none;stroke-dashoffset:0;stroke-opacity:1"
       d="m 54.548102,95.27167 c 1.338849,-1.82486 2.677697,-3.644752 4.016546,-5.109592 1.338849,-1.464829 2.677697,-2.56664 4.016546,-3.093461 1.338849,-0.52682 2.677698,-0.475791 4.016547,0.14327 1.338848,0.619062 2.677697,1.802789 4.016545,3.323475 1.338849,1.520687 2.677698,3.370037 4.016546,5.192308 1.338849,1.822281 2.677698,3.607547 4.016547,5.01239 1.338848,1.40485 2.677696,2.4216 4.016545,2.85469 1.338849,0.43309 2.677698,0.28015 4.016546,-0.42941 1.338848,-0.70954 2.677697,-1.97183 4.016546,-3.544052 1.338849,-1.572225 2.677697,-3.445795 4.016546,-5.260319 1.338849,-1.814524 2.677698,-3.560117 4.016547,-4.900978 1.338851,-1.340861 2.677691,-2.269685 4.016551,-2.607813 1.33885,-0.33813 2.6777,-0.08366 4.01655,0.714311 1.33884,0.798028 2.67769,2.135311 4.01653,3.754606 1.33885,1.619295 2.67772,3.511788 4.01656,5.313417 1.33885,1.80163 2.6777,3.502578 4.01654,4.775658 1.33885,1.27308 2.67769,2.11135 4.01655,2.35356 1.33885,0.24221 2.6777,-0.11297 4.01655,-0.99721 1.33884,-0.88423 2.67769,-2.29271 4.01654,-3.954505 1.33885,-1.661777 2.6777,-3.567814 4.01654,-5.351442 1.33886,-1.783626 2.67771,-3.435128 4.01655,-4.636817 1.33885,-1.2017 2.67769,-1.947029 4.01655,-2.092628 1.33885,-0.1456 2.67769,0.309331 4.01655,1.277277 1.33884,0.967947 2.67769,2.443632 4.01654,4.143195 1.33885,1.699561 2.6777,3.613734 4.01654,5.374301 1.33885,1.760566 2.67771,3.357949 4.01655,4.484839 1.33885,1.12689 2.6777,1.77719 4.01655,1.82577 1.33885,0.0486 2.67769,-0.50483 4.01654,-1.55373 1.33884,-1.04891 2.6777,-2.587623 4.01656,-4.320141 1.33884,-1.732518 2.67769,-3.64941 4.01654,-5.381929 1.33884,-1.732518 2.67769,-3.271226 4.01653,-4.320139 1.33887,-1.048904 2.67772,-1.602303 4.01656,-1.553723 1.33885,0.04858 2.67769,0.698869 4.01654,1.825759 1.33885,1.126901 2.6777,2.724275 4.01656,4.484841 1.33884,1.760568 2.67769,3.67474 4.01654,5.374301 1.33884,1.699561 2.67769,3.175241 4.01654,4.143191 1.33885,0.96795 2.6777,1.42288 4.01655,1.27728 1.33885,-0.1456 2.67769,-0.89093 4.01654,-2.09263 1.33886,-1.20168 2.6777,-2.853188 4.01655,-4.636814 1.33884,-1.783627 2.6777,-3.689665 4.01655,-5.351442 1.33884,-1.661787 2.6777,-3.07027 4.01654,-3.954502 1.33885,-0.884241 2.6777,-1.239423 4.01654,-0.997214 1.33886,0.242208 2.6777,1.08047 4.01656,2.353559 1.33885,1.27308 2.67769,2.97403 4.01654,4.77566 1.33884,1.80163 2.67769,3.694122 4.01655,5.313417 1.33885,1.619286 2.6777,2.956576 4.01655,3.754586 1.33884,0.79804 2.67769,1.05246 4.01653,0.71433 1.33885,-0.33813 2.67771,-1.26695 4.01656,-2.60781 1.33885,-1.340863 2.67769,-3.086456 4.01654,-4.900979 1.33885,-1.814524 2.67769,-3.688095 4.01654,-5.26032 1.33885,-1.572214 2.67771,-2.834508 4.01656,-3.544063 1.33884,-0.709544 2.67769,-0.86249 4.01653,-0.429401 1.33885,0.43309 2.67771,1.449846 4.01655,2.85469 1.33886,1.404845 2.6777,3.190111 4.01655,5.012383 1.33885,1.82228 2.67769,3.67163 4.01655,5.19232 1.33884,1.52068 2.67769,2.70441 4.01655,3.32347 1.33884,0.61906 2.67769,0.67009 4.01653,0.14328 1.33886,-0.52683 2.67771,-1.62864 4.01655,-3.09347 1.33885,-1.464839 2.67769,-3.284731 4.01655,-5.1096"
       title="sin(x)"
       id="path5430" />
    <path
       id="path5576"
       title="sin(x)"
       d="m 55.051743,139.02167 c 1.340611,-2.48337 2.68122,-4.94567 4.021831,-6.581 1.34061,-1.63533 2.68122,-2.41594 4.021831,-2.08633 1.340609,0.3296 2.68122,1.76383 4.021831,3.83326 1.340609,2.06943 2.68122,4.73895 4.021829,7.13483 1.340611,2.39587 2.681222,4.47746 4.021831,5.56345 1.340611,1.08601 2.68122,1.15798 4.021831,0.19239 1.340611,-0.9656 2.68122,-2.95238 4.021831,-5.31009 1.340611,-2.35771 2.68122,-5.04634 4.021831,-7.18589 1.340609,-2.13956 2.68122,-3.69375 4.021831,-4.15389 1.340609,-0.46014 2.68122,0.18158 4.021829,1.71512 1.340611,1.53354 2.68122,3.93289 4.021836,6.41274 1.340605,2.47985 2.681215,4.99813 4.021835,6.73061 1.3406,1.73248 2.68121,2.64977 4.02182,2.45163 1.34061,-0.19814 2.68122,-1.50834 4.02183,-3.50177 1.34061,-1.99343 2.68123,-4.63628 4.02183,-7.06353 1.34061,-2.42726 2.68123,-4.59775 4.02183,-5.80107 1.34061,-1.20332 2.68123,-1.41906 4.02183,-0.5766 1.34061,0.84245 2.68123,2.72881 4.02183,5.04167 1.34061,2.31285 2.68123,5.01296 4.02183,7.21659 1.34062,2.20362 2.68123,3.87338 4.02183,4.46274 1.34062,0.58938 2.68123,0.0884 4.02183,-1.33905 1.34062,-1.4274 2.68123,-3.757 4.02183,-6.2263 1.34062,-2.46931 2.68123,-5.03642 4.02184,-6.86115 1.34061,-1.82471 2.68122,-2.87606 4.02183,-2.80996 1.34061,0.0661 2.68122,1.24856 4.02183,3.16035 1.34061,1.91178 2.68122,4.52046 4.02183,6.97222 1.34061,2.45175 2.68123,4.70499 4.02183,6.02222 1.34061,1.31723 2.68123,1.67611 4.02183,0.95919 1.34061,-0.71694 2.68123,-2.49752 4.02183,-4.75896 1.34061,-2.26144 2.68123,-4.96539 4.02183,-7.22683 1.34062,-2.26145 2.68122,-4.04203 4.02183,-4.75896 1.34062,-0.71692 2.68122,-0.35804 4.02183,0.95919 1.34062,1.31723 2.68122,3.57047 4.02183,6.02222 1.34062,2.45176 2.68122,5.06044 4.02183,6.97222 1.34062,1.91178 2.68122,3.09423 4.02184,3.16034 1.34061,0.0662 2.68121,-0.98525 4.02183,-2.80996 1.34061,-1.82472 2.68121,-4.39184 4.02183,-6.86114 1.34061,-2.4693 2.68121,-4.7989 4.02183,-6.22631 1.34061,-1.42741 2.68122,-1.92843 4.02183,-1.33905 1.34061,0.58937 2.68122,2.25912 4.02183,4.46274 1.34061,2.20363 2.68122,4.90374 4.02183,7.2166 1.34061,2.31285 2.68122,4.19921 4.02183,5.04167 1.34062,0.84246 2.68122,0.62672 4.02183,-0.57661 1.34062,-1.20332 2.68122,-3.3738 4.02183,-5.80106 1.34062,-2.42725 2.68122,-5.0701 4.02183,-7.06353 1.34062,-1.99343 2.68122,-3.30363 4.02183,-3.50177 1.34062,-0.19814 2.68122,0.71915 4.02184,2.45163 1.34061,1.73247 2.68121,4.25075 4.02183,6.73061 1.34061,2.47985 2.68121,4.8792 4.02183,6.41274 1.3406,1.53354 2.68121,2.17526 4.02183,1.71512 1.3406,-0.46014 2.68122,-2.01434 4.02183,-4.15389 1.3406,-2.13956 2.68122,-4.82818 4.02183,-7.1859 1.3406,-2.3577 2.68122,-4.34449 4.02183,-5.31009 1.3406,-0.96559 2.68122,-0.89361 4.02183,0.19239 1.34061,1.086 2.68122,3.16759 4.02183,5.56346 1.34061,2.39587 2.68122,5.06539 4.02183,7.13482 1.34061,2.06944 2.68122,3.50366 4.02183,3.83327 1.34061,0.32961 2.68122,-0.451 4.02184,-2.08633 1.3406,-1.63533 2.68121,-4.09763 4.02183,-6.58101"
       style="opacity:1;fill:none;fill-opacity:1;stroke:#d40000;stroke-width:2.51137996;stroke-linecap:butt;stroke-linejoin:miter;stroke-miterlimit:4;stroke-dasharray:none;stroke-dashoffset:0;stroke-opacity:1"
       inkscape:connector-curvature="0" />
    <path
       inkscape:connector-curvature="0"
       style="opacity:1;fill:none;fill-opacity:1;stroke:#d40000;stroke-width:2.50593877;stroke-linecap:butt;stroke-linejoin:miter;stroke-miterlimit:4;stroke-dasharray:none;stroke-dashoffset:0;stroke-opacity:1"
       d="m 54.918493,162.70024 c 1.340495,-2.85163 2.681001,-5.66489 4.021506,-7.30397 1.340506,-1.63909 2.681001,-2.05988 4.021507,-1.0925 1.340505,0.9674 2.681001,3.29691 4.021506,6.04808 1.340506,2.75117 2.681002,5.84992 4.021507,8.04521 1.340506,2.19529 2.681001,3.42801 4.021507,3.20049 1.340505,-0.22753 2.681001,-1.90917 4.021506,-4.36601 1.340506,-2.45683 2.681011,-5.62273 4.021507,-8.21953 1.340505,-2.5968 2.681011,-4.5546 4.021506,-5.08297 1.340506,-0.52838 2.681012,0.38689 4.021507,2.37628 1.340506,1.9894 2.681011,4.99936 4.021517,7.81468 1.340495,2.81534 2.681001,5.36025 4.021509,6.60729 1.340492,1.24704 2.681002,1.16264 4.021502,-0.21912 1.34051,-1.38176 2.68101,-4.02369 4.02151,-6.85918 1.34051,-2.83548 2.681,-5.78818 4.02151,-7.66602 1.3405,-1.87784 2.681,-2.63025 4.0215,-1.95348 1.34051,0.67677 2.68101,2.76451 4.02151,5.42034 1.34051,2.65584 2.681,5.80827 4.02151,8.18458 1.3405,2.3763 2.68101,3.91252 4.0215,3.98843 1.34051,0.0759 2.68102,-1.31052 4.02151,-3.59956 1.34051,-2.28904 2.68101,-5.41907 4.02151,-8.12641 1.3405,-2.70734 2.68101,-4.9191 4.0215,-5.74235 1.34051,-0.82324 2.68102,-0.23581 4.02152,1.52515 1.3405,1.76095 2.681,4.64803 4.02151,7.49562 1.34049,2.84759 2.681,5.57907 4.0215,7.09163 1.3405,1.51256 2.68101,1.76552 4.02151,0.65673 1.3405,-1.10878 2.681,-3.54945 4.02151,-6.33665 1.34049,-2.78721 2.681,-5.84589 4.0215,-7.94121 1.34051,-2.09531 2.681,-3.17083 4.02151,-2.79235 1.34051,0.37849 2.681,2.20079 4.02151,4.7312 1.3405,2.53041 2.681,5.7008 4.0215,8.23121 1.34051,2.5304 2.681,4.35271 4.02151,4.73119 1.34051,0.37848 2.681,-0.69703 4.02151,-2.79234 1.3405,-2.09532 2.68101,-5.154 4.0215,-7.94121 1.34051,-2.7872 2.68101,-5.22787 4.02151,-6.33666 1.34051,-1.10878 2.68101,-0.85583 4.02151,0.65674 1.3405,1.51256 2.68101,4.24403 4.0215,7.09163 1.34051,2.84759 2.68101,5.73466 4.02152,7.49561 1.3405,1.76096 2.681,2.3484 4.02151,1.52515 1.34049,-0.82324 2.681,-3.035 4.0215,-5.74234 1.3405,-2.70734 2.681,-5.83737 4.02151,-8.12641 1.3405,-2.28905 2.681,-3.67548 4.02151,-3.59956 1.34049,0.0759 2.681,1.61212 4.0215,3.98843 1.34051,2.37631 2.681,5.52874 4.02151,8.18458 1.3405,2.65583 2.681,4.74357 4.02151,5.42033 1.3405,0.67677 2.681,-0.0757 4.0215,-1.95348 1.34051,-1.87783 2.681,-4.83053 4.02151,-7.66602 1.3405,-2.83548 2.68101,-5.47741 4.02151,-6.85917 1.3405,-1.38177 2.68101,-1.46616 4.0215,-0.21913 1.34051,1.24705 2.68101,3.79196 4.02151,6.60729 1.3405,2.81533 2.68101,5.82529 4.02151,7.81469 1.3405,1.98938 2.68101,2.90466 4.0215,2.37628 1.34051,-0.52838 2.68101,-2.48617 4.02152,-5.08297 1.34049,-2.5968 2.681,-5.7627 4.02151,-8.21954 1.34049,-2.45684 2.681,-4.13848 4.0215,-4.366 1.3405,-0.22753 2.681,1.0052 4.02151,3.20049 1.34049,2.19528 2.681,5.29404 4.02151,8.0452 1.34049,2.75118 2.681,5.08069 4.0215,6.04808 1.34051,0.96738 2.681,0.5466 4.02151,-1.09249 1.3405,-1.63908 2.681,-4.45234 4.0215,-7.30398"
       title="sin(x)"
       id="path5724" />
    <path
       id="path5874"
       title="sin(x)"
       d="m 54.68995,72.807387 c 1.337773,-1.616437 2.675545,-3.230737 4.013318,-4.623385 1.337772,-1.392647 2.675544,-2.559961 4.013317,-3.343207 1.337772,-0.783246 2.675544,-1.180353 4.013317,-1.137323 1.337772,0.04303 2.675545,0.526085 4.013317,1.383477 1.337772,0.857392 2.675545,2.086855 4.013317,3.521203 1.337772,1.434349 2.675545,3.069791 4.013317,4.683937 1.337773,1.614146 2.675545,3.202728 4.013317,4.549727 1.337773,1.346999 2.675545,2.448855 4.013317,3.155735 1.337773,0.70688 2.675545,1.016914 4.013317,0.887945 1.337773,-0.128969 2.675545,-0.696601 4.013318,-1.625709 1.337772,-0.929107 2.675544,-2.217234 4.013317,-3.689218 1.337771,-1.471983 2.675541,-3.123932 4.013321,-4.731212 1.33777,-1.607279 2.67554,-3.16564 4.01331,-4.463172 1.33778,-1.297533 2.67555,-2.330808 4.01332,-2.959317 1.33777,-0.62851 2.67554,-0.850593 4.01332,-0.636051 1.33777,0.214543 2.67554,0.865144 4.01331,1.863333 1.33778,0.99819 2.67555,2.341329 4.01332,3.846775 1.33777,1.505446 2.67555,3.169219 4.01332,4.765076 1.33777,1.595857 2.67554,3.119579 4.01332,4.363967 1.33777,1.244388 2.67554,2.206152 4.01331,2.754511 1.33778,0.548358 2.67555,0.68186 4.01332,0.382353 1.33777,-0.299508 2.67554,-1.031233 4.01332,-2.095676 1.33777,-1.064442 2.67554,-2.458786 4.01331,-3.993427 1.33778,-1.534642 2.67555,-3.205523 4.01332,-4.785433 1.33777,-1.579911 2.67555,-3.064675 4.01332,-4.252391 1.33777,-1.187716 2.67554,-2.075244 4.01332,-2.541897 1.33777,-0.466652 2.67554,-0.511195 4.01331,-0.127571 1.33777,0.383623 2.67555,1.194399 4.01332,2.322077 1.33777,1.127677 2.67554,2.569274 4.01332,4.128761 1.33777,1.559486 2.67554,3.232738 4.01331,4.792225 1.33778,1.559486 2.67555,3.001084 4.01332,4.128761 1.33777,1.127677 2.67555,1.938453 4.01332,2.322077 1.33777,0.383623 2.67554,0.33908 4.01332,-0.127572 1.33777,-0.466652 2.67554,-1.35418 4.01331,-2.541896 1.33777,-1.187716 2.67555,-2.67248 4.01332,-4.252391 1.33777,-1.579911 2.67554,-3.250792 4.01332,-4.785433 1.33777,-1.534641 2.67554,-2.928986 4.01331,-3.993428 1.33778,-1.064442 2.67555,-1.796168 4.01332,-2.095675 1.33777,-0.299508 2.67555,-0.166005 4.01332,0.382353 1.33777,0.548358 2.67554,1.510122 4.01332,2.75451 1.33777,1.244388 2.67554,2.76811 4.01331,4.363967 1.33777,1.595857 2.67555,3.25963 4.01332,4.765076 1.33777,1.505447 2.67554,2.848586 4.01332,3.846775 1.33777,0.99819 2.67554,1.648791 4.01331,1.863333 1.33778,0.214543 2.67555,-0.0075 4.01332,-0.63605 1.33777,-0.62851 2.67555,-1.661785 4.01332,-2.959317 1.33777,-1.297533 2.67554,-2.855893 4.01331,-4.463173 1.33778,-1.607279 2.67555,-3.259228 4.01332,-4.731212 1.33777,-1.471984 2.67555,-2.76011 4.01332,-3.689218 1.33777,-0.929107 2.67554,-1.49674 4.01332,-1.625709 1.33777,-0.128969 2.67554,0.181066 4.01331,0.887945 1.33778,0.70688 2.67555,1.808736 4.01332,3.155735 1.33777,1.347 2.67555,2.935581 4.01332,4.549727 1.33777,1.614146 2.67554,3.249589 4.01331,4.683937 1.33778,1.434349 2.67555,2.663812 4.01332,3.521203 1.33777,0.857392 2.67555,1.340447 4.01332,1.383477 1.33777,0.04303 2.67554,-0.354077 4.01332,-1.137323 1.33777,-0.783246 2.67554,-1.950559 4.01331,-3.343207 1.33778,-1.392648 2.67555,-3.006948 4.01332,-4.623385"
       style="opacity:1;fill:none;fill-opacity:1;stroke:#d40000;stroke-width:2.5;stroke-linecap:butt;stroke-linejoin:miter;stroke-miterlimit:4;stroke-dasharray:none;stroke-dashoffset:0;stroke-opacity:1"
       inkscape:connector-curvature="0" />
    <g
       id="g4296">
      <text
         xml:space="preserve"
         style="font-style:normal;font-variant:normal;font-weight:normal;font-stretch:normal;line-height:0%;font-family:msbm10;-inkscape-font-specification:msbm10;letter-spacing:0px;word-spacing:0px;fill:#000000;fill-opacity:1;stroke:none;stroke-width:1px;stroke-linecap:butt;stroke-linejoin:miter;stroke-opacity:1"
         x="161.78571"
         y="51.005047"
         id="text4301"><tspan
           sodipodi:role="line"
           id="tspan4303"
           x="161.78571"
           y="51.005047"
           style="font-style:italic;font-variant:normal;font-weight:normal;font-stretch:normal;font-size:25px;line-height:1.25;font-family:'Nimbus Roman No9 L';-inkscape-font-specification:'Nimbus Roman No9 L Italic'">$L$</tspan></text>
      <text
         xml:space="preserve"
         style="font-style:normal;font-variant:normal;font-weight:normal;font-stretch:normal;line-height:0%;font-family:msbm10;-inkscape-font-specification:msbm10;letter-spacing:0px;word-spacing:0px;fill:#000000;fill-opacity:1;stroke:none;stroke-width:1px;stroke-linecap:butt;stroke-linejoin:miter;stroke-opacity:1"
         x="127.89822"
         y="197.31039"
         id="text4301-6"><tspan
           sodipodi:role="line"
           id="tspan4303-0"
           x="127.89822"
           y="197.31039"
           style="font-style:italic;font-variant:normal;font-weight:normal;font-stretch:normal;font-size:25px;line-height:1.25;font-family:'Nimbus Roman No9 L';-inkscape-font-specification:'Nimbus Roman No9 L Italic'">$k_n=n\pi/L$</tspan></text>
    </g>
  </g>
</svg>
