<?xml version="1.0" encoding="UTF-8" standalone="no"?>
<!-- Created with Inkscape (http://www.inkscape.org/) -->

<svg
   xmlns:dc="http://purl.org/dc/elements/1.1/"
   xmlns:cc="http://creativecommons.org/ns#"
   xmlns:rdf="http://www.w3.org/1999/02/22-rdf-syntax-ns#"
   xmlns:svg="http://www.w3.org/2000/svg"
   xmlns="http://www.w3.org/2000/svg"
   xmlns:sodipodi="http://sodipodi.sourceforge.net/DTD/sodipodi-0.dtd"
   xmlns:inkscape="http://www.inkscape.org/namespaces/inkscape"
   width="744.09448819"
   height="1052.3622047"
   id="svg7815"
   version="1.1"
   inkscape:version="0.91 r13725"
   sodipodi:docname="04_Odprt_resonator.svg"
   inkscape:export-filename="/home/jetra/mojca/HomeMojca/MojcaNova/slike/04_Odprt_resonator.png"
   inkscape:export-xdpi="300"
   inkscape:export-ydpi="300">
  <defs
     id="defs7817">
    <marker
       inkscape:stockid="Arrow1Mendly"
       orient="auto"
       refY="0"
       refX="0"
       id="Arrow1Mendly"
       style="overflow:visible">
      <path
         inkscape:connector-curvature="0"
         id="path4342"
         d="M 0,0 5,-5 -12.5,0 5,5 0,0 z"
         style="fill:#800000;fill-rule:evenodd;stroke:#800000;stroke-width:1pt"
         transform="matrix(-0.4,0,0,-0.4,-4,0)" />
    </marker>
    <marker
       inkscape:stockid="Arrow1Mendly"
       orient="auto"
       refY="0"
       refX="0"
       id="marker7801"
       style="overflow:visible">
      <path
         inkscape:connector-curvature="0"
         id="path7803"
         d="M 0,0 5,-5 -12.5,0 5,5 0,0 z"
         style="fill:#800000;fill-rule:evenodd;stroke:#800000;stroke-width:1pt"
         transform="matrix(-0.4,0,0,-0.4,-4,0)" />
    </marker>
    <marker
       inkscape:stockid="Arrow1Mendly"
       orient="auto"
       refY="0"
       refX="0"
       id="Arrow1Mendly-9"
       style="overflow:visible">
      <path
         inkscape:connector-curvature="0"
         id="path4342-7"
         d="M 0,0 5,-5 -12.5,0 5,5 0,0 z"
         style="fill:#800000;fill-rule:evenodd;stroke:#800000;stroke-width:1pt"
         transform="matrix(-0.4,0,0,-0.4,-4,0)" />
    </marker>
    <marker
       inkscape:stockid="Arrow1Mendly"
       orient="auto"
       refY="0"
       refX="0"
       id="marker7906"
       style="overflow:visible">
      <path
         inkscape:connector-curvature="0"
         id="path7908"
         d="M 0,0 5,-5 -12.5,0 5,5 0,0 z"
         style="fill:#800000;fill-rule:evenodd;stroke:#800000;stroke-width:1pt"
         transform="matrix(-0.4,0,0,-0.4,-4,0)" />
    </marker>
    <marker
       inkscape:stockid="DotM"
       orient="auto"
       refY="0"
       refX="0"
       id="DotM"
       style="overflow:visible">
      <path
         inkscape:connector-curvature="0"
         id="path3902"
         d="m -2.5,-1 c 0,2.76 -2.24,5 -5,5 -2.76,0 -5,-2.24 -5,-5 0,-2.76 2.24,-5 5,-5 2.76,0 5,2.24 5,5 z"
         style="fill-rule:evenodd;stroke:#000000;stroke-width:1pt"
         transform="matrix(0.4,0,0,0.4,2.96,0.4)" />
    </marker>
    <marker
       inkscape:stockid="Arrow1Mendly"
       orient="auto"
       refY="0"
       refX="0"
       id="Arrow1Mendly-0"
       style="overflow:visible">
      <path
         inkscape:connector-curvature="0"
         id="path4342-9"
         d="M 0,0 5,-5 -12.5,0 5,5 0,0 z"
         style="fill:#800000;fill-rule:evenodd;stroke:#800000;stroke-width:1pt"
         transform="matrix(-0.4,0,0,-0.4,-4,0)" />
    </marker>
    <marker
       inkscape:stockid="Arrow1Mendly"
       orient="auto"
       refY="0"
       refX="0"
       id="marker8018"
       style="overflow:visible">
      <path
         inkscape:connector-curvature="0"
         id="path8020"
         d="M 0,0 5,-5 -12.5,0 5,5 0,0 z"
         style="fill:#800000;fill-rule:evenodd;stroke:#800000;stroke-width:1pt"
         transform="matrix(-0.4,0,0,-0.4,-4,0)" />
    </marker>
    <marker
       inkscape:stockid="Arrow1Mendly"
       orient="auto"
       refY="0"
       refX="0"
       id="Arrow1Mendly-5"
       style="overflow:visible">
      <path
         inkscape:connector-curvature="0"
         id="path4342-6"
         d="M 0,0 5,-5 -12.5,0 5,5 0,0 z"
         style="fill:#800000;fill-rule:evenodd;stroke:#800000;stroke-width:1pt"
         transform="matrix(-0.4,0,0,-0.4,-4,0)" />
    </marker>
    <marker
       inkscape:stockid="Arrow1Mend"
       orient="auto"
       refY="0"
       refX="0"
       id="Arrow1Mend-9"
       style="overflow:visible">
      <path
         inkscape:connector-curvature="0"
         id="path3847-21"
         d="M 0,0 5,-5 -12.5,0 5,5 0,0 z"
         style="fill-rule:evenodd;stroke:#000000;stroke-width:1pt"
         transform="matrix(-0.4,0,0,-0.4,-4,0)" />
    </marker>
    <marker
       inkscape:stockid="Arrow1Mendly"
       orient="auto"
       refY="0"
       refX="0"
       id="marker8147"
       style="overflow:visible">
      <path
         inkscape:connector-curvature="0"
         id="path8149"
         d="M 0,0 5,-5 -12.5,0 5,5 0,0 z"
         style="fill:#800000;fill-rule:evenodd;stroke:#800000;stroke-width:1pt"
         transform="matrix(-0.4,0,0,-0.4,-4,0)" />
    </marker>
    <marker
       inkscape:stockid="Arrow1Mstart"
       orient="auto"
       refY="0"
       refX="0"
       id="Arrow1Mstart-6"
       style="overflow:visible">
      <path
         inkscape:connector-curvature="0"
         id="path3844-2"
         d="M 0,0 5,-5 -12.5,0 5,5 0,0 z"
         style="fill-rule:evenodd;stroke:#000000;stroke-width:1pt"
         transform="matrix(0.4,0,0,0.4,4,0)" />
    </marker>
    <marker
       inkscape:stockid="Arrow1Mend"
       orient="auto"
       refY="0"
       refX="0"
       id="Arrow1Mend-9-6"
       style="overflow:visible">
      <path
         inkscape:connector-curvature="0"
         id="path3847-21-3"
         d="M 0,0 5,-5 -12.5,0 5,5 0,0 z"
         style="fill-rule:evenodd;stroke:#000000;stroke-width:1pt"
         transform="matrix(-0.4,0,0,-0.4,-4,0)" />
    </marker>
    <marker
       inkscape:stockid="Arrow1Mendly"
       orient="auto"
       refY="0"
       refX="0"
       id="Arrow1Mendly-4"
       style="overflow:visible">
      <path
         inkscape:connector-curvature="0"
         id="path4342-0"
         d="M 0,0 5,-5 -12.5,0 5,5 0,0 z"
         style="fill:#800000;fill-rule:evenodd;stroke:#800000;stroke-width:1pt"
         transform="matrix(-0.4,0,0,-0.4,-4,0)" />
    </marker>
    <marker
       inkscape:stockid="Arrow1Mendly"
       orient="auto"
       refY="0"
       refX="0"
       id="marker8293"
       style="overflow:visible">
      <path
         inkscape:connector-curvature="0"
         id="path8295"
         d="M 0,0 5,-5 -12.5,0 5,5 0,0 z"
         style="fill:#800000;fill-rule:evenodd;stroke:#800000;stroke-width:1pt"
         transform="matrix(-0.4,0,0,-0.4,-4,0)" />
    </marker>
    <marker
       inkscape:stockid="DotM"
       orient="auto"
       refY="0"
       refX="0"
       id="DotM-6"
       style="overflow:visible">
      <path
         inkscape:connector-curvature="0"
         id="path3902-9"
         d="m -2.5,-1 c 0,2.76 -2.24,5 -5,5 -2.76,0 -5,-2.24 -5,-5 0,-2.76 2.24,-5 5,-5 2.76,0 5,2.24 5,5 z"
         style="fill-rule:evenodd;stroke:#000000;stroke-width:1pt"
         transform="matrix(0.4,0,0,0.4,2.96,0.4)" />
    </marker>
    <marker
       inkscape:stockid="Arrow1Mstart"
       orient="auto"
       refY="0"
       refX="0"
       id="Arrow1Mstart-6-0"
       style="overflow:visible">
      <path
         inkscape:connector-curvature="0"
         id="path3844-2-9"
         d="M 0,0 5,-5 -12.5,0 5,5 0,0 z"
         style="fill-rule:evenodd;stroke:#000000;stroke-width:1pt"
         transform="matrix(0.4,0,0,0.4,4,0)" />
    </marker>
    <clipPath
       id="cp1">
      <polygon
         points="4.49423e+307,4.49423e+307 4.49423e+307,-4.49423e+307 -4.49423e+307,-4.49423e+307 -4.49423e+307,4.49423e+307 "
         id="polygon22293" />
    </clipPath>
    <clipPath
       id="cp2">
      <polygon
         points="434,235 434,13 74,13 74,235 "
         id="polygon22300" />
    </clipPath>
  </defs>
  <sodipodi:namedview
     id="base"
     pagecolor="#ffffff"
     bordercolor="#666666"
     borderopacity="1.0"
     inkscape:pageopacity="0.0"
     inkscape:pageshadow="2"
     inkscape:zoom="1.4"
     inkscape:cx="455.57828"
     inkscape:cy="945.89649"
     inkscape:document-units="px"
     inkscape:current-layer="layer1"
     showgrid="false"
     inkscape:window-width="1649"
     inkscape:window-height="769"
     inkscape:window-x="147"
     inkscape:window-y="65"
     inkscape:window-maximized="0"
     showguides="true"
     inkscape:guide-bbox="true">
    <sodipodi:guide
       orientation="1,0"
       position="279.64286,573.92857"
       id="guide3248" />
    <sodipodi:guide
       orientation="1,0"
       position="373.21429,560.35714"
       id="guide3256" />
    <sodipodi:guide
       orientation="0,1"
       position="341.07143,583.39285"
       id="guide21735" />
    <sodipodi:guide
       orientation="0,1"
       position="336.42857,540"
       id="guide21737" />
    <sodipodi:guide
       orientation="0,1"
       position="325.17857,557.85714"
       id="guide21739" />
    <sodipodi:guide
       orientation="0,1"
       position="356.96428,573.57143"
       id="guide21741" />
    <sodipodi:guide
       orientation="0,1"
       position="277.5,449.64285"
       id="guide21743" />
    <sodipodi:guide
       orientation="0,1"
       position="311.69519,560.82406"
       id="guide21745" />
    <sodipodi:guide
       orientation="0,1"
       position="325.20598,559.37197"
       id="guide21747" />
  </sodipodi:namedview>
  <metadata
     id="metadata7820">
    <rdf:RDF>
      <cc:Work
         rdf:about="">
        <dc:format>image/svg+xml</dc:format>
        <dc:type
           rdf:resource="http://purl.org/dc/dcmitype/StillImage" />
        <dc:title />
      </cc:Work>
    </rdf:RDF>
  </metadata>
  <g
     inkscape:label="Layer 1"
     inkscape:groupmode="layer"
     id="layer1">
    <path
       style="fill:none;stroke:#000000;stroke-width:5.31312275;stroke-miterlimit:4;stroke-dasharray:none"
       d="M 411.9578,184.00749 411.09377,46.823433"
       id="path4217-1"
       inkscape:connector-curvature="0"
       sodipodi:nodetypes="cc" />
    <path
       style="fill:none;stroke:#c1d5e9;stroke-width:5.31312275;stroke-miterlimit:4;stroke-dasharray:none"
       d="M 408.74235,183.89931 407.87831,46.715251"
       id="path4219-8"
       inkscape:connector-curvature="0"
       sodipodi:nodetypes="cc" />
    <path
       sodipodi:nodetypes="cc"
       inkscape:connector-curvature="0"
       id="path4350"
       d="m 651.33707,46.715298 0.86404,137.184052"
       style="fill:none;stroke:#000000;stroke-width:5.31312275;stroke-miterlimit:4;stroke-dasharray:none" />
    <path
       sodipodi:nodetypes="cc"
       inkscape:connector-curvature="0"
       id="path4352"
       d="m 654.55253,46.823468 0.86404,137.184072"
       style="fill:none;stroke:#c1d5e9;stroke-width:5.31312275;stroke-miterlimit:4;stroke-dasharray:none" />
    <g
       id="g4329">
      <path
         style="color:#000000;font-style:normal;font-variant:normal;font-weight:normal;font-stretch:normal;font-size:medium;line-height:normal;font-family:sans-serif;text-indent:0;text-align:start;text-decoration:none;text-decoration-line:none;text-decoration-style:solid;text-decoration-color:#000000;letter-spacing:normal;word-spacing:normal;text-transform:none;direction:ltr;block-progression:tb;writing-mode:lr-tb;baseline-shift:baseline;text-anchor:start;white-space:normal;clip-rule:nonzero;display:inline;overflow:visible;visibility:visible;opacity:1;isolation:auto;mix-blend-mode:normal;color-interpolation:sRGB;color-interpolation-filters:linearRGB;solid-color:#000000;solid-opacity:1;fill:#ca0000;fill-opacity:1;fill-rule:nonzero;stroke:none;stroke-width:3;stroke-linecap:butt;stroke-linejoin:miter;stroke-miterlimit:4;stroke-dasharray:none;stroke-dashoffset:0;stroke-opacity:1;color-rendering:auto;image-rendering:auto;shape-rendering:auto;text-rendering:auto;enable-background:accumulate"
         d="m 724.63086,37.775391 -311.66992,17.404297 0.006,2.996093 209.60742,11.140625 -209.6211,13 0.0137,2.994141 209.60742,11.140625 -209.6211,12.999998 0.0137,2.99414 209.60742,11.14063 -209.6211,13 0.0137,2.99414 209.60742,11.14062 -209.6211,13 0.008,2.99414 107.60937,6.08594 0.16992,-2.99609 -82.33593,-4.65625 210.34961,-13.04492 -0.0137,-2.9961 -209.59179,-11.14062 209.60547,-12.99805 -0.0137,-2.99609 -209.59179,-11.14063 209.60547,-12.998046 -0.0137,-2.996093 -209.59179,-11.140625 209.60547,-12.998047 -0.0137,-2.996094 -208.12695,-11.0625 284.18555,-15.871094 -0.16797,-2.99414 z"
         id="path19331"
         inkscape:connector-curvature="0" />
      <path
         style="fill:#ca0000;fill-rule:evenodd;stroke:#cb0000;stroke-width:1.2pt;fill-opacity:1;stroke-opacity:1"
         d="m 532.63598,171.97978 6.32917,-5.65169 -21.30525,4.80484 20.62777,7.17602 -5.65169,-6.32917 z"
         id="path4335"
         inkscape:connector-curvature="0" />
      <path
         style="fill:#ca0000;fill-rule:evenodd;stroke:#ca0000;stroke-width:1.2pt;stroke-opacity:1;fill-opacity:1;marker-end:"
         d="m 712.73303,39.941577 -5.65612,6.325217 20.63278,-7.161595 -21.30188,-4.819736 6.32522,5.656114 z"
         id="path4337"
         inkscape:connector-curvature="0" />
    </g>
    <path
       style="fill:none;stroke:#ca0000;stroke-width:3;stroke-linecap:butt;stroke-linejoin:miter;stroke-miterlimit:4;stroke-dasharray:none;stroke-opacity:1"
       d="m 593.64719,174.52086 -73.2604,-3.21856"
       id="path21749"
       inkscape:connector-curvature="0"
       sodipodi:nodetypes="cc" />
    <path
       style="fill:none;stroke:#000000;stroke-width:1.30762339;stroke-linecap:butt;stroke-linejoin:miter;stroke-miterlimit:4;stroke-dasharray:none;stroke-opacity:1;marker-start:url(#Arrow1Mstart-6-0);marker-end:url(#Arrow1Mend-9-6)"
       d="m 57.62649,60.474949 230.60084,0"
       id="path21794"
       inkscape:connector-curvature="0" />
    <g
       transform="matrix(0.6811884,0,0,0.26130265,-0.02328187,81.235629)"
       id="g22288"
       style="stroke:#ca0000;stroke-width:4.74050345;stroke-miterlimit:4;stroke-dasharray:none;stroke-opacity:1">
      <g
         clip-path="url(#cp1)"
         id="g22290"
         style="stroke:#ca0000;stroke-width:4.74050345;stroke-miterlimit:4;stroke-dasharray:none;stroke-opacity:1">
        <clipPath
           id="clipPath22326">
          <polygon
             points="4.49423e+307,4.49423e+307 4.49423e+307,-4.49423e+307 -4.49423e+307,-4.49423e+307 -4.49423e+307,4.49423e+307 "
             id="polygon22328" />
        </clipPath>
        <rect
           style="fill:#ffffff;stroke:#ca0000;stroke-width:4.74050345;stroke-miterlimit:4;stroke-dasharray:none;stroke-opacity:1"
           x="74"
           y="13"
           width="360"
           height="222"
           id="rect22295" />
      </g>
      <g
         clip-path="url(#cp2)"
         id="g22297"
         style="stroke:#ca0000;stroke-width:4.74050345;stroke-miterlimit:4;stroke-dasharray:none;stroke-opacity:1">
        <clipPath
           id="clipPath22332">
          <polygon
             points="434,235 434,13 74,13 74,235 "
             id="polygon22334" />
        </clipPath>
        <polyline
           style="fill:none;stroke:#ca0000;stroke-width:4.74050345;stroke-miterlimit:4;stroke-dasharray:none;stroke-opacity:1"
           points="81.2,124.246 81.306,123.217 81.412,122.188 81.624,120.131 82.048,116.022 82.8959,107.847 84.5918,91.8372 84.6978,90.8582 84.8038,89.8824 85.0158,87.9403 85.4398,84.0974 86.2878,76.596 87.9837,62.485 88.0986,61.5783 88.2135,60.6784 88.4433,58.8996 88.9029,55.4282 89.8222,48.8518 89.9371,48.0658 90.0521,47.2882 90.2819,45.7581 90.7415,42.8015 91.6608,37.3196 91.7757,36.6763 91.8906,36.0426 92.1204,34.804 92.5801,32.4444 92.695,31.8794 92.8099,31.3245 93.0397,30.2451 93.4994,28.2099 93.6143,27.7272 93.7292,27.255 93.959,26.3423 94.4186,24.6456 94.5336,24.2485 94.6485,23.8623 94.8783,23.1228 95.3379,21.7765 95.4452,21.4879 95.5525,21.2091 95.7671,20.6808 95.8744,20.4315 95.9817,20.192 96.1963,19.7428 96.3036,19.5331 96.4109,19.3333 96.5182,19.1435 96.6255,18.9638 96.7328,18.794 96.8401,18.6343 97.0547,18.345 97.162,18.2154 97.2692,18.096 97.3765,17.9866 97.4838,17.8874 97.5911,17.7982 97.6984,17.7192 97.8057,17.6503 97.913,17.5916 98.0203,17.543 98.1276,17.5046 98.2349,17.4763 98.3422,17.4582 98.4495,17.4502 98.5568,17.4524 98.6641,17.4647 98.7714,17.4873 98.8787,17.5199 98.986,17.5627 99.0933,17.6157 99.2006,17.6788 99.3079,17.7521 99.4152,17.8354 99.5225,17.9289 99.6297,18.0325 99.737,18.1463 99.8443,18.2701 99.9516,18.404 100.059,18.5479 100.166,18.7019 100.274,18.866 100.488,19.2242 100.595,19.4183 100.703,19.6223 100.917,20.0602 101.025,20.2941 101.132,20.5378 101.346,21.0549 101.454,21.3281 101.561,21.6112 101.776,22.2066 102.205,23.5135 102.31,23.8573 102.415,24.2103 102.626,24.9437 103.046,26.5191 103.152,26.9354 103.257,27.3606 103.467,28.2375 103.888,30.0963 103.993,30.5826 104.098,31.0775 104.309,32.0928 104.729,34.2241 105.571,38.8785 105.676,39.496 105.781,40.1213 105.992,41.3948 106.412,44.0322 107.254,49.6551 108.937,62.1742 109.051,63.079 109.165,63.9903 109.393,65.8323 109.85,69.591 110.763,77.3838 112.588,93.8813 116.24,128.903 116.346,129.936 116.453,130.968 116.666,133.03 117.092,137.144 117.944,145.307 119.648,161.206 119.754,162.175 119.861,163.139 120.074,165.057 120.5,168.847 121.351,176.221 123.055,189.991 123.171,190.87 123.286,191.742 123.517,193.464 123.979,196.815 124.902,203.128 125.017,203.879 125.133,204.621 125.363,206.078 125.825,208.885 126.748,214.047 126.864,214.648 126.979,215.24 127.21,216.393 127.672,218.576 127.787,219.096 127.902,219.606 128.133,220.594 128.595,222.442 128.71,222.877 128.826,223.301 129.056,224.117 129.172,224.508 129.287,224.888 129.518,225.616 129.634,225.963 129.749,226.299 129.98,226.937 130.441,228.077 130.555,228.328 130.668,228.569 130.895,229.018 131.008,229.225 131.121,229.422 131.348,229.781 131.461,229.944 131.574,230.096 131.688,230.236 131.801,230.366 131.914,230.484 132.028,230.59 132.141,230.686 132.254,230.77 132.368,230.843 132.481,230.904 132.594,230.955 132.707,230.994 132.821,231.021 132.934,231.037 133.047,231.042 133.161,231.036 133.274,231.018 133.387,230.989 133.501,230.949 133.614,230.897 133.727,230.834 133.84,230.76 133.954,230.674 134.067,230.577 134.18,230.469 134.294,230.35 134.407,230.219 134.52,230.077 134.634,229.924 134.747,229.759 134.973,229.397 135.087,229.199 135.2,228.99 135.427,228.539 135.54,228.296 135.653,228.043 135.88,227.503 135.993,227.217 136.106,226.92 136.333,226.293 136.786,224.909 136.9,224.536 137.013,224.153 137.24,223.355 137.693,221.632 137.798,221.206 137.904,220.772 138.115,219.876 138.538,217.979 139.384,213.772 139.489,213.209 139.595,212.637 139.806,211.469 140.229,209.037 141.075,203.801 141.18,203.113 141.286,202.417 141.497,201.005 141.92,198.095 142.766,191.954 144.457,178.51 144.571,177.549 144.686,176.582 144.915,174.631 145.374,170.665 146.29,162.497 148.124,145.423 151.791,110.005 151.898,108.976 152.005,107.949 152.219,105.899 152.647,101.821 153.503,93.7732 155.215,78.2781 155.322,77.3427 155.429,76.4119 155.643,74.5637 156.071,70.9246 156.927,63.8938 158.639,50.9679 158.743,50.2305 158.848,49.4999 159.058,48.059 159.478,45.261 160.317,40.0133 160.422,39.3912 160.527,38.7768 160.736,37.5714 161.156,35.2555 161.995,31.0152 162.1,30.5228 162.205,30.0389 162.414,29.0969 162.834,27.3169 162.939,26.8939 163.044,26.4797 163.253,25.678 163.673,24.1823 163.778,23.8311 163.883,23.489 164.093,22.8322 164.197,22.5177 164.302,22.2124 164.512,21.6296 164.617,21.3522 164.722,21.0841 164.932,20.5762 165.037,20.3363 165.141,20.1059 165.351,19.6735 165.465,19.4549 165.579,19.2474 165.693,19.0512 165.806,18.8662 165.92,18.6925 166.034,18.5301 166.262,18.2393 166.375,18.1109 166.489,17.9938 166.603,17.8881 166.717,17.7938 166.831,17.7109 166.944,17.6394 167.058,17.5793 167.172,17.5306 167.286,17.4934 167.4,17.4675 167.513,17.4531 167.627,17.4501 167.741,17.4586 167.855,17.4784 167.969,17.5097 168.082,17.5524 168.196,17.6066 168.31,17.6721 168.424,17.7491 168.538,17.8374 168.651,17.9371 168.765,18.0482 168.879,18.1707 168.993,18.3045 169.107,18.4497 169.22,18.6062 169.334,18.774 169.448,18.953 169.562,19.1434 169.676,19.345 169.903,19.7818 170.017,20.017 170.131,20.2633 170.358,20.7894 170.814,21.9741 170.927,22.2977 171.041,22.6323 171.269,23.3339 171.724,24.8664 171.838,25.2763 171.952,25.6967 172.179,26.5691 172.634,28.439 172.741,28.8989 172.847,29.3677 173.059,30.3318 173.484,32.3645 174.333,36.8376 174.439,37.434 174.546,38.0384 174.758,39.2713 175.183,41.8317 176.032,47.3169 176.138,48.0355 176.245,48.7612 176.457,50.2336 176.882,53.2607 177.731,59.6274 179.43,73.4761 179.545,74.462 179.66,75.4532 179.891,77.4517 180.351,81.5092 181.272,89.8415 183.113,107.169 186.797,142.758 186.91,143.837 187.023,144.915 187.249,147.063 187.7,151.329 188.604,159.717 190.412,175.719 190.525,176.678 190.638,177.631 190.864,179.519 191.316,183.226 192.22,190.335 194.028,203.17 194.134,203.855 194.239,204.533 194.45,205.868 194.871,208.446 194.977,209.072 195.082,209.689 195.293,210.901 195.714,213.229 195.82,213.79 195.925,214.344 196.136,215.426 196.557,217.489 197.4,221.202 197.506,221.626 197.611,222.042 197.822,222.846 198.243,224.345 198.349,224.697 198.454,225.04 198.665,225.698 199.087,226.901 199.192,227.179 199.297,227.447 199.508,227.954 199.613,228.194 199.719,228.424 199.93,228.855 200.035,229.056 200.14,229.248 200.246,229.429 200.351,229.602 200.456,229.764 200.562,229.917 200.773,230.194 200.887,230.328 201.001,230.45 201.115,230.561 201.23,230.661 201.344,230.749 201.458,230.825 201.573,230.89 201.687,230.944 201.801,230.986 201.916,231.016 202.03,231.035 202.144,231.042 202.258,231.038 202.373,231.022 202.487,230.995 202.601,230.956 202.716,230.906 202.83,230.844 202.944,230.771 203.059,230.686 203.173,230.59 203.287,230.482 203.401,230.363 203.516,230.232 203.63,230.09 203.744,229.937 203.859,229.772 203.973,229.595 204.087,229.408 204.201,229.209 204.43,228.777 204.544,228.544 204.659,228.299 204.887,227.777 205.002,227.499 205.116,227.21 205.344,226.599 205.459,226.277 205.573,225.944 205.802,225.244 206.259,223.715 206.373,223.305 206.487,222.885 206.716,222.014 207.173,220.144 208.088,215.91 208.194,215.375 208.301,214.83 208.514,213.716 208.941,211.387 209.794,206.34 209.901,205.674 210.008,205 210.221,203.63 210.648,200.799 211.501,194.798 211.608,194.017 211.715,193.23 211.928,191.636 212.355,188.372 213.208,181.56 214.915,166.945 215.031,165.914 215.146,164.879 215.378,162.794 215.84,158.575 216.765,149.963 218.614,132.255 218.73,131.135 218.845,130.015 219.077,127.773 219.539,123.285 220.464,114.321 222.313,96.6674 222.427,95.6045 222.54,94.5446 222.767,92.4345 223.221,88.2556 224.129,80.0889 224.243,79.088 224.356,78.092 224.583,76.1148 225.037,72.2227 225.945,64.7107 226.059,63.7992 226.172,62.8941 226.399,61.1036 226.853,57.604 227.761,50.951 227.874,50.1536 227.988,49.3641 228.215,47.809 228.669,44.7971 229.577,39.184 229.683,38.5664 229.789,37.9568 230,36.7616 230.424,34.4689 230.53,33.9164 230.636,33.3722 230.847,32.3092 231.271,30.2858 231.377,29.8016 231.483,29.3261 231.694,28.4016 232.118,26.6594 232.224,26.2464 232.33,25.8424 232.541,25.0619 232.965,23.6114 233.071,23.2719 233.177,22.9419 233.388,22.3099 233.494,22.0081 233.6,21.7158 233.812,21.1596 233.918,20.8958 234.024,20.6416 234.235,20.162 234.341,19.9366 234.447,19.7209 234.659,19.3186 234.765,19.132 234.871,18.9552 234.977,18.7881 235.082,18.6308 235.188,18.4832 235.294,18.3455 235.506,18.0994 235.612,17.9912 235.718,17.8927 235.824,17.8041 235.93,17.7254 236.035,17.6565 236.141,17.5975 236.247,17.5484 236.353,17.5092 236.468,17.4779 236.583,17.4581 236.697,17.45 236.812,17.4535 236.927,17.4687 237.042,17.4955 237.157,17.5339 237.271,17.5839 237.386,17.6455 237.501,17.7188 237.616,17.8036 237.731,17.9001 237.845,18.0081 237.96,18.1277 238.075,18.2588 238.19,18.4015 238.304,18.5557 238.419,18.7214 238.649,19.0873 238.764,19.2874 238.878,19.4989 239.108,19.9562 239.223,20.2019 239.338,20.459 239.567,21.0069 240.026,22.2374 240.141,22.5729 240.256,22.9194 240.486,23.6456 240.945,25.229 241.06,25.6519 241.174,26.0856 241.404,26.9849 241.863,28.9102 241.978,29.4176 242.093,29.9354 242.322,31.0016 242.781,33.2555 243.7,38.2344 243.807,38.8553 243.914,39.4842 244.128,40.7662 244.557,43.4247 245.415,49.1056 247.129,61.799 247.237,62.646 247.344,63.4989 247.558,65.2219 247.987,68.7343 248.844,76.0068 250.559,91.3844 250.664,92.3564 250.769,93.3314 250.979,95.2897 251.4,99.2372 252.24,107.236 253.922,123.484 254.027,124.504 254.132,125.524 254.342,127.564 254.762,131.639 255.603,139.75 257.284,155.655 257.398,156.711 257.512,157.763 257.74,159.857 258.196,163.999 259.108,172.069 259.222,173.056 259.336,174.038 259.564,175.985 260.02,179.812 260.932,187.173 261.046,188.063 261.16,188.947 261.387,190.694 261.843,194.101 262.755,200.55 262.869,201.32 262.983,202.082 263.211,203.581 263.667,206.475 264.579,211.835 264.686,212.422 264.792,213 265.005,214.132 265.43,216.295 265.537,216.815 265.643,217.325 265.856,218.32 266.281,220.205 266.388,220.654 266.494,221.093 266.707,221.946 267.132,223.54 267.239,223.916 267.345,224.282 267.558,224.987 267.983,226.282 268.09,226.582 268.196,226.873 268.409,227.425 268.515,227.687 268.621,227.939 268.834,228.414 268.941,228.636 269.047,228.85 269.26,229.246 269.366,229.43 269.472,229.604 269.685,229.922 269.792,230.066 269.898,230.201 270.004,230.325 270.111,230.44 270.217,230.544 270.323,230.639 270.43,230.724 270.536,230.798 270.643,230.863 270.749,230.918 270.855,230.963 270.962,230.998 271.068,231.023 271.174,231.037 271.281,231.042 271.387,231.037 271.502,231.021 271.618,230.992 271.733,230.952 271.848,230.9 271.964,230.836 272.079,230.761 272.194,230.674 272.309,230.575 272.425,230.465 272.54,230.343 272.655,230.209 272.771,230.063 272.886,229.906 273.001,229.738 273.232,229.366 273.347,229.163 273.462,228.948 273.693,228.484 273.808,228.234 273.924,227.974 274.154,227.418 274.269,227.123 274.385,226.817 274.615,226.172 275.076,224.746 275.192,224.362 275.307,223.966 275.538,223.143 275.999,221.367 276.114,220.896 276.229,220.415 276.46,219.42 276.921,217.306 277.036,216.752 277.152,216.188 277.382,215.029 277.843,212.592 278.766,207.257 278.879,206.561 278.992,205.856 279.218,204.422 279.671,201.451 280.577,195.123 282.388,181.073 282.501,180.14 282.614,179.2 282.84,177.305 283.293,173.446 284.199,165.487 286.01,148.785 286.115,147.786 286.221,146.786 286.432,144.778 286.854,140.741 287.699,132.599 289.388,116.217 289.493,115.196 289.599,114.175 289.81,112.136 290.232,108.073 291.077,100.024 292.766,84.4012 292.881,83.3722 292.995,82.3476 293.224,80.3122 293.682,76.2993 294.598,68.5295 294.712,67.5844 294.827,66.6453 295.056,64.7861 295.514,61.1457 296.43,54.1991 296.544,53.3639 296.659,52.5364 296.888,50.9048 297.345,47.7377 298.261,41.8063 298.376,41.1043 298.49,40.4112 298.719,39.0524 299.177,36.4461 300.093,31.6941 300.2,31.1808 300.307,30.6762 300.521,29.6937 300.948,27.8362 301.055,27.3944 301.162,26.9618 301.376,26.1241 301.803,24.5603 301.91,24.1928 302.017,23.8347 302.231,23.1469 302.337,22.8174 302.444,22.4974 302.658,21.8862 302.765,21.5951 302.872,21.3137 303.086,20.7801 303.192,20.5279 303.299,20.2855 303.513,19.8302 303.62,19.6173 303.727,19.4142 303.941,19.0379 304.047,18.8646 304.154,18.7013 304.368,18.4045 304.475,18.271 304.582,18.1476 304.689,18.0342 304.795,17.9308 304.902,17.8375 305.009,17.7542 305.116,17.6809 305.223,17.6178 305.33,17.5646 305.437,17.5216 305.544,17.4886 305.65,17.4656 305.757,17.4528 305.864,17.4501 305.971,17.4574 306.078,17.4748 306.185,17.5022 306.292,17.5398 306.399,17.5874 306.505,17.6451 306.612,17.7128 306.719,17.7906 306.826,17.8785 306.933,17.9764 307.038,18.0821 307.142,18.1974 307.247,18.3223 307.352,18.4569 307.457,18.601 307.561,18.7548 307.771,19.0909 307.876,19.2733 307.981,19.4652 308.19,19.8775 308.295,20.0978 308.4,20.3277 308.609,20.8155 308.714,21.0735 308.819,21.3409 309.028,21.9036 309.447,23.1402 309.552,23.4724 309.657,23.8136 309.866,24.5235 310.285,26.0515 310.39,26.4559 310.495,26.8691 310.704,27.722 311.124,29.5325 311.962,33.563 312.066,34.1044 312.171,34.6539 312.381,35.7772 312.8,38.1197 313.638,43.176 313.752,43.8988 313.865,44.6301 314.093,46.1182 314.547,49.1938 315.457,55.7242 317.276,70.1413 317.389,71.0957 317.503,72.0558 317.73,73.9925 318.185,77.9296 319.095,86.0342 320.914,102.969 321.02,103.98 321.126,104.991 321.338,107.021 321.762,111.097 322.611,119.303 324.308,135.754 324.414,136.778 324.52,137.799 324.732,139.84 325.156,143.902 326.005,151.932 327.702,167.452 327.817,168.471 327.932,169.484 328.162,171.497 328.622,175.459 329.542,183.107 329.657,184.035 329.772,184.957 330.002,186.78 330.461,190.344 331.381,197.119 331.496,197.931 331.611,198.735 331.841,200.318 332.301,203.385 333.221,209.098 333.336,209.771 333.451,210.435 333.681,211.734 334.141,214.218 335.061,218.709 335.168,219.191 335.276,219.663 335.49,220.581 335.92,222.307 336.027,222.715 336.134,223.114 336.349,223.883 336.779,225.308 336.886,225.64 336.993,225.963 337.208,226.578 337.316,226.872 337.423,227.155 337.638,227.693 337.745,227.947 337.852,228.191 338.067,228.65 338.174,228.864 338.282,229.069 338.497,229.448 338.604,229.622 338.711,229.787 338.819,229.941 338.926,230.085 339.033,230.219 339.141,230.343 339.248,230.457 339.356,230.561 339.463,230.655 339.57,230.739 339.678,230.812 339.785,230.876 339.892,230.929 340,230.972 340.107,231.005 340.214,231.027 340.322,231.04 340.429,231.042 340.537,231.034 340.644,231.016 340.751,230.988 340.859,230.95 340.966,230.901 341.073,230.842 341.181,230.774 341.288,230.695 341.395,230.605 341.503,230.506 341.61,230.397 341.718,230.277 341.932,230.008 342.038,229.861 342.143,229.705 342.353,229.363 342.459,229.178 342.564,228.983 342.774,228.564 342.88,228.341 342.985,228.108 343.195,227.613 343.617,226.51 343.722,226.21 343.827,225.902 344.038,225.257 344.459,223.856 344.564,223.483 344.669,223.101 344.88,222.309 345.301,220.619 345.406,220.174 345.511,219.721 345.722,218.787 346.143,216.817 346.985,212.474 347.09,211.894 347.195,211.306 347.406,210.106 347.827,207.613 348.669,202.265 348.783,201.503 348.898,200.734 349.126,199.171 349.583,195.947 350.496,189.136 352.323,174.222 352.437,173.239 352.551,172.252 352.78,170.261 353.236,166.222 354.15,157.933 355.977,140.716 356.083,139.694 356.19,138.669 356.403,136.617 356.829,132.498 357.682,124.23 359.387,107.744 359.493,106.723 359.6,105.703 359.813,103.669 360.239,99.6248 361.092,91.6534 362.797,76.3444 362.912,75.345 363.028,74.3511 363.259,72.3798 363.721,68.5067 364.644,61.0619 364.76,60.1616 364.875,59.2683 365.106,57.5034 365.568,54.0625 366.492,47.5577 366.608,46.7817 366.723,46.0143 366.954,44.5053 367.416,41.5935 367.531,40.8881 367.647,40.1919 367.878,38.8274 368.34,36.2118 368.455,35.582 368.571,34.962 368.802,33.7515 369.264,31.4506 369.379,30.9008 369.495,30.3613 369.726,29.3134 370.187,27.3435 370.301,26.886 370.414,26.4388 370.641,25.5757 371.094,23.9756 371.208,23.602 371.321,23.2392 371.548,22.5458 372.001,21.2888 372.115,21.0018 372.228,20.7258 372.455,20.2068 372.568,19.9639 372.682,19.732 372.908,19.3016 373.022,19.1031 373.135,18.9158 373.249,18.7396 373.362,18.5747 373.475,18.421 373.589,18.2785 373.702,18.1473 373.815,18.0273 373.929,17.9186 374.042,17.8213 374.156,17.7352 374.269,17.6605 374.382,17.597 374.496,17.5449 374.609,17.5041 374.722,17.4747 374.836,17.4566 374.949,17.4498 375.063,17.4544 375.176,17.4704 375.289,17.4976 375.403,17.5363 375.516,17.5862 375.629,17.6475 375.743,17.7201 375.856,17.804 375.97,17.8992 376.083,18.0057 376.196,18.1235 376.31,18.2526 376.536,18.5445 376.65,18.7073 376.763,18.8813 376.99,19.2628 377.103,19.4704 377.217,19.689 377.443,20.1596 377.549,20.3942 377.655,20.6384 377.866,21.1556 377.972,21.4285 378.078,21.7109 378.29,22.304 378.395,22.6148 378.501,22.9349 378.713,23.6032 379.136,25.0512 379.241,25.4362 379.347,25.8303 379.559,26.6459 379.982,28.3848 380.828,32.2853 380.934,32.8115 381.039,33.3463 381.251,34.4409 381.674,36.7294 382.52,41.6909 382.626,42.3461 382.731,43.0088 382.943,44.3567 383.366,47.1406 384.212,53.0461 384.327,53.8797 384.441,54.721 384.671,56.4261 385.129,59.924 386.047,67.2489 387.882,83.0337 391.551,117.565 391.658,118.602 391.765,119.641 391.98,121.718 392.408,125.875 393.264,134.176 394.977,150.546 395.084,151.552 395.191,152.556 395.406,154.555 395.834,158.517 396.69,166.281 398.403,180.998 398.508,181.858 398.613,182.714 398.823,184.408 399.243,187.731 400.083,194.095 400.187,194.862 400.292,195.623 400.502,197.126 400.922,200.051 401.762,205.567 401.867,206.224 401.972,206.873 402.182,208.149 402.601,210.609 402.706,211.204 402.811,211.792 403.021,212.943 403.441,215.148 403.546,215.679 403.651,216.201 403.861,217.22 404.281,219.158 404.386,219.62 404.491,220.075 404.701,220.957 405.12,222.615 405.234,223.04 405.348,223.454 405.576,224.252 405.69,224.634 405.804,225.006 406.031,225.717 406.145,226.056 406.259,226.385 406.487,227.009 406.942,228.124 407.056,228.375 407.17,228.615 407.398,229.061 407.512,229.268 407.626,229.463 407.853,229.819 407.967,229.98 408.081,230.13 408.195,230.269 408.309,230.396 408.423,230.512 408.537,230.616 408.65,230.709 408.764,230.791 408.878,230.861 408.992,230.919 409.106,230.967 409.22,231.003 409.334,231.027 409.448,231.04 409.561,231.042 409.675,231.032 409.789,231.01 409.903,230.978 410.017,230.933 410.131,230.878 410.245,230.811 410.359,230.732 410.472,230.642 410.586,230.541 410.7,230.428 410.814,230.304 410.928,230.169 411.042,230.022 411.156,229.864 411.269,229.695 411.497,229.322 411.611,229.119 411.725,228.904 411.953,228.442 412.067,228.194 412.18,227.934 412.408,227.383 412.514,227.11 412.621,226.828 412.833,226.235 413.258,224.935 413.365,224.587 413.471,224.229 413.683,223.485 414.108,221.887 414.215,221.464 414.321,221.033 414.533,220.143 414.958,218.256 415.808,214.064 415.915,213.501 416.021,212.931 416.233,211.765 416.658,209.335 417.509,204.099 417.615,203.411 417.721,202.715 417.934,201.301 418.359,198.387 419.209,192.232 419.327,191.34 419.446,190.44 419.683,188.618 420.158,184.884 421.106,177.084 423.004,160.368 423.123,159.282 423.242,158.192 423.479,156.001 423.953,151.575 424.902,142.579 425.021,141.444 425.139,140.306 425.377,138.026 425.851,133.447 425.97,132.299 426.088,131.15 426.326,128.851 426.444,127.7 426.563,126.549 426.681,125.398 426.8,124.246 "
           id="polyline22302" />
      </g>
    </g>
    <path
       style="fill:none;stroke:#000000;stroke-width:5.31312275;stroke-miterlimit:4;stroke-dasharray:none"
       d="M 53.568818,184.11209 52.704788,46.92803"
       id="path4217-1-4"
       inkscape:connector-curvature="0"
       sodipodi:nodetypes="cc" />
    <path
       style="fill:none;stroke:#c1d5e9;stroke-width:5.31312275;stroke-miterlimit:4;stroke-dasharray:none"
       d="M 50.353368,184.00392 49.489318,46.819856"
       id="path4219-8-2"
       inkscape:connector-curvature="0"
       sodipodi:nodetypes="cc" />
    <path
       sodipodi:nodetypes="cc"
       inkscape:connector-curvature="0"
       id="path4350-0"
       d="m 292.94809,46.819898 0.86403,137.184062"
       style="fill:none;stroke:#000000;stroke-width:5.31312275;stroke-miterlimit:4;stroke-dasharray:none" />
    <path
       sodipodi:nodetypes="cc"
       inkscape:connector-curvature="0"
       id="path4352-6"
       d="m 296.16354,46.928072 0.86405,137.184068"
       style="fill:none;stroke:#c1d5e9;stroke-width:5.31312275;stroke-miterlimit:4;stroke-dasharray:none" />
    <text
       xml:space="preserve"
       style="font-style:normal;font-variant:normal;font-weight:normal;font-stretch:normal;font-size:40px;line-height:125%;font-family:msbm10;-inkscape-font-specification:msbm10;letter-spacing:0px;word-spacing:0px;fill:#000000;fill-opacity:1;stroke:none;stroke-width:1px;stroke-linecap:butt;stroke-linejoin:miter;stroke-opacity:1"
       x="161.78571"
       y="57.005047"
       id="text4301"
       sodipodi:linespacing="125%"><tspan
         sodipodi:role="line"
         id="tspan4303"
         x="161.78571"
         y="57.005047"
         style="font-style:italic;font-variant:normal;font-weight:normal;font-stretch:normal;font-size:25px;font-family:'Nimbus Roman No9 L';-inkscape-font-specification:'Nimbus Roman No9 L Italic'">L</tspan></text>
    <text
       xml:space="preserve"
       style="font-style:normal;font-variant:normal;font-weight:normal;font-stretch:normal;font-size:40px;line-height:125%;font-family:msbm10;-inkscape-font-specification:msbm10;letter-spacing:0px;word-spacing:0px;fill:#000000;fill-opacity:1;stroke:none;stroke-width:1px;stroke-linecap:butt;stroke-linejoin:miter;stroke-opacity:1"
       x="129.89822"
       y="177.31039"
       id="text4301-6"
       sodipodi:linespacing="125%"><tspan
         sodipodi:role="line"
         id="tspan4303-0"
         x="129.89822"
         y="177.31039"
         style="font-style:italic;font-variant:normal;font-weight:normal;font-stretch:normal;font-size:25px;font-family:'Nimbus Roman No9 L';-inkscape-font-specification:'Nimbus Roman No9 L Italic'">k<tspan
   style="font-size:64.99999762%;baseline-shift:sub"
   id="tspan4323">n</tspan>=π/L</tspan></text>
  </g>
</svg>
