<?xml version="1.0" encoding="UTF-8" standalone="no"?>
<!-- generated by Grace-5.1.25 -->

<svg
   xmlns:dc="http://purl.org/dc/elements/1.1/"
   xmlns:cc="http://creativecommons.org/ns#"
   xmlns:rdf="http://www.w3.org/1999/02/22-rdf-syntax-ns#"
   xmlns:svg="http://www.w3.org/2000/svg"
   xmlns="http://www.w3.org/2000/svg"
   xmlns:sodipodi="http://sodipodi.sourceforge.net/DTD/sodipodi-0.dtd"
   xmlns:inkscape="http://www.inkscape.org/namespaces/inkscape"
   xml:space="preserve"
   width="10.212186in"
   height="6.6467276in"
   viewBox="0 0 735.27946 478.56632"
   id="svg2"
   version="1.1"
   inkscape:version="0.91 r13725"
   sodipodi:docname="05_Hole.svg"><sodipodi:namedview
     pagecolor="#ffffff"
     bordercolor="#666666"
     borderopacity="1"
     objecttolerance="10"
     gridtolerance="10"
     guidetolerance="10"
     inkscape:pageopacity="0"
     inkscape:pageshadow="2"
     inkscape:window-width="1333"
     inkscape:window-height="841"
     id="namedview224"
     showgrid="false"
     inkscape:zoom="0.93183111"
     inkscape:cx="309.39042"
     inkscape:cy="322.75414"
     inkscape:window-x="412"
     inkscape:window-y="135"
     inkscape:window-maximized="0"
     inkscape:current-layer="svg2"
     fit-margin-top="0"
     fit-margin-left="0"
     fit-margin-right="0"
     fit-margin-bottom="0" /><metadata
     id="metadata228"><rdf:RDF><cc:Work
         rdf:about=""><dc:format>image/svg+xml</dc:format><dc:type
           rdf:resource="http://purl.org/dc/dcmitype/StillImage" /><dc:title /></cc:Work></rdf:RDF></metadata><defs
     id="defs226" /><path
     id="path3539"
     title="exp(-x*x)"
     d="m 47.999753,422.5661 c 2.007218,-0.37115 4.014438,-0.7685 6.021654,-1.19517 2.007219,-0.42668 4.014437,-0.88282 6.021654,-1.37159 2.007218,-0.48879 4.014437,-1.01042 6.021655,-1.56826 2.007217,-0.55785 4.014435,-1.15215 6.021654,-1.78646 2.007217,-0.63433 4.014436,-1.30889 6.021654,-2.02745 2.007218,-0.71856 4.014435,-1.48137 6.021653,-2.29231 2.007219,-0.81092 4.014436,-1.67026 6.021655,-2.58197 2.007219,-0.9117 4.014433,-1.8761 6.021657,-2.89721 2.007214,-1.0211 4.014431,-2.09925 6.021661,-3.23849 2.00721,-1.13924 4.01443,-2.33992 6.02165,-3.60604 2.00721,-1.26612 4.01444,-2.59808 6.02165,-3.99973 2.00721,-1.40164 4.01444,-2.87342 6.02165,-4.41901 2.00723,-1.54559 4.01444,-3.16544 6.02167,-4.86298 2.0072,-1.69755 4.01443,-3.47325 6.02164,-5.33022 2.00722,-1.85696 4.01444,-3.79567 6.02166,-5.8188 2.00721,-2.02313 4.01444,-4.13119 6.02165,-6.32633 2.00723,-2.19514 4.01444,-4.47788 6.02165,-6.84976 2.00722,-2.37188 4.01443,-4.83346 6.02166,-7.38554 2.00721,-2.5521 4.01444,-5.19526 6.02165,-7.92953 2.00722,-2.73429 4.01444,-5.56024 6.02166,-8.47703 2.00722,-2.91679 4.01444,-5.92496 6.02165,-9.02274 2.00723,-3.09777 4.01443,-6.28569 6.02166,-9.56091 2.00721,-3.27523 4.01443,-6.63829 6.02165,-10.08529 2.00721,-3.44699 4.01444,-6.97842 6.02165,-10.58922 2.00723,-3.61079 4.01443,-7.30142 6.02167,-11.06568 2.0072,-3.76425 4.01442,-7.60255 6.02164,-11.50748 2.00722,-3.90492 4.01444,-7.87687 6.02166,-11.9072 2.00721,-4.03035 4.01444,-8.11942 6.02165,-12.25746 2.00721,-4.13802 4.01444,-8.3253 6.02165,-12.55088 2.00722,-4.22559 4.01443,-8.48972 6.02166,-12.78044 2.00721,-4.2907 4.01444,-8.60813 6.02165,-12.93932 2.00722,-4.3312 4.01444,-8.67625 6.02166,-13.02134 2.00721,-4.34511 4.01444,-8.69023 6.02165,-13.02087 2.00722,-4.33064 4.01443,-8.64669 6.02165,-12.93305 2.00722,-4.28636 4.01444,-8.54283 6.02166,-12.75394 2.00721,-4.21111 4.01444,-8.37655 6.02164,-12.48061 2.00724,-4.10408 4.01444,-8.1464 6.02167,-12.11124 2.00721,-3.96486 4.01443,-7.85175 6.02165,-11.64519 2.00722,-3.79343 4.01444,-7.49282 6.02166,-11.08306 2.00721,-3.59024 4.01444,-7.07067 6.02165,-10.42681 2.00721,-3.35614 4.01443,-6.587248 6.02165,-9.679689 2.00722,-3.092441 4.01443,-6.045364 6.02166,-8.846225 2.00721,-2.80085 4.01444,-5.448711 6.02165,-7.932271 2.00722,-2.483559 4.01443,-4.801808 6.02166,-6.944884 2.00721,-2.143076 4.01443,-4.109924 6.02165,-5.892247 2.00722,-1.782323 4.01443,-3.37902 6.02165,-4.783546 2.00722,-1.404515 4.01444,-2.615711 6.02166,-3.628878 2.0072,-1.013166 4.01444,-1.827108 6.02164,-2.439076 2.00723,-0.611956 4.01444,-1.020731 6.02167,-1.225524 2.00721,-0.204783 4.01443,-0.204376 6.02165,0 2.00722,0.204387 4.01444,0.613963 6.02166,1.225524 2.00721,0.611562 4.01442,1.426304 6.02164,2.439076 2.00722,1.012772 4.01444,2.224746 6.02166,3.628878 2.00722,1.404143 4.01443,3.001594 6.02166,4.783546 2.00721,1.781952 4.01444,3.749519 6.02164,5.892247 2.00723,2.142728 4.01444,4.461661 6.02166,6.944884 2.00722,2.483223 4.01444,5.131722 6.02166,7.932271 2.00721,2.80056 4.01443,5.754062 6.02165,8.846225 2.00722,3.092162 4.01443,6.323789 6.02166,9.679689 2.0072,3.35589 4.01443,6.83678 6.02164,10.42681 2.00723,3.59002 4.01444,7.28982 6.02167,11.08306 2.00721,3.79325 4.01443,7.68049 6.02165,11.64519 2.00722,3.96468 4.01444,8.00729 6.02166,12.11124 2.0072,4.10395 4.01442,8.2696 6.02164,12.48061 2.00722,4.21102 4.01444,8.46764 6.02166,12.75394 2.00722,4.28631 4.01443,8.60244 6.02166,12.93305 2.00721,4.33061 4.01444,8.67576 6.02164,13.02087 2.00723,4.34509 4.01444,8.69011 6.02166,13.02134 2.00722,4.33123 4.01444,8.64857 6.02166,12.93932 2.00721,4.29076 4.01443,8.55477 6.02164,12.78044 2.00723,4.22566 4.01444,8.41276 6.02166,12.55088 2.00721,4.13813 4.01444,8.227 6.02165,12.25746 2.00723,4.03046 4.01444,8.00215 6.02167,11.9072 2.00721,3.90506 4.01443,7.74308 6.02165,11.50748 2.00722,3.7644 4.01443,7.45473 6.02164,11.06568 2.00722,3.61097 4.01444,7.14206 6.02166,10.58922 2.00722,3.44716 4.01444,6.80989 6.02166,10.08529 2.00722,3.2754 4.01443,6.46296 6.02166,9.56091 2.0072,3.09795 4.01444,6.10578 6.02164,9.02274 2.00722,2.91697 4.01444,5.74255 6.02166,8.47703 2.00722,2.73446 4.01443,5.37726 6.02166,7.92953 2.0072,2.55227 4.01443,5.01348 6.02164,7.38554 2.00722,2.37206 4.01444,4.65445 6.02166,6.84976 2.00721,2.19531 4.01444,4.30302 6.02165,6.32633 2.00723,2.02329 4.01444,3.96168 6.02167,5.8188 2.00721,1.85713 4.01443,3.63252 6.02164,5.33022 2.00723,1.6977 4.01444,3.31724 6.02165,4.86298 2.00722,1.54574 4.01444,3.01723 6.02166,4.41901 2.00722,1.40179 4.01444,2.73348 6.02166,3.99973 2.00722,1.26625 4.01442,2.46669 6.02166,3.60604 2.0072,1.13936 4.01443,2.21728 6.02164,3.23849 2.00722,1.02122 4.01444,1.9854 6.02166,2.89721 2.00722,0.91181 4.01442,1.77095 6.02166,2.58197 2.0072,0.81103 4.01442,1.57366 6.02164,2.29231 2.00722,0.71864 4.01444,1.39305 6.02166,2.02745 2.00721,0.63439 4.01444,1.22854 6.02165,1.78646 2.00723,0.55792 4.01444,1.0794 6.02167,1.56826 2.0072,0.48884 4.01443,0.94485 6.02164,1.37159 2.00721,0.42673 4.01444,0.82402 6.02165,1.19517"
     style="opacity:1;fill:none;fill-opacity:0.98809521;fill-rule:nonzero;stroke:#d40000;stroke-width:2.40000963;stroke-linecap:butt;stroke-linejoin:round;stroke-miterlimit:4;stroke-dasharray:none;stroke-dashoffset:0;stroke-opacity:1"
     inkscape:connector-curvature="0" /><path
     id="path3539-3"
     title="exp(-x*x)"
     d="m 47.999753,422.5661 c 2.007218,-0.37115 4.014438,-0.7685 6.021654,-1.19517 2.007219,-0.42668 4.014438,-0.88282 6.021655,-1.37159 2.007218,-0.48879 4.014437,-1.01042 6.021655,-1.56826 2.007217,-0.55785 4.014435,-1.15215 6.021654,-1.78646 2.007217,-0.63433 4.014436,-1.30889 6.021654,-2.02745 2.007218,-0.71856 4.014435,-1.48137 6.021653,-2.29231 2.007219,-0.81092 4.014436,-1.67026 6.021655,-2.58197 2.007219,-0.9117 4.014433,-1.8761 6.021657,-2.89721 2.007214,-1.0211 4.01443,-2.09925 6.02166,-3.23849 2.00721,-1.13924 4.01443,-2.33992 6.02165,-3.60604 2.00721,-1.26612 4.01444,-2.59808 6.02165,-3.99973 2.00721,-1.40164 4.01444,-2.87342 6.02165,-4.41901 2.00723,-1.54559 4.01444,-3.16544 6.02167,-4.86298 2.0072,-1.69755 4.01443,-3.47325 6.02164,-5.33022 2.00721,-1.85696 4.01444,-3.79567 6.02165,-5.8188 2.00722,-2.02313 4.01444,-4.13119 6.02166,-6.32633 2.00722,-2.19514 4.01444,-4.47788 6.02165,-6.84976 2.00721,-2.37188 4.01442,-4.83346 6.02165,-7.38554 2.00721,-2.5521 4.01444,-5.19526 6.02165,-7.92953 2.00723,-2.73429 4.01444,-5.56024 6.02167,-8.47703 2.00721,-2.91679 4.01444,-5.92496 6.02164,-9.02274 2.00724,-3.09777 4.01444,-6.28569 6.02167,-9.56091 2.00721,-3.27523 4.01442,-6.63829 6.02165,-10.08529 2.0072,-3.44699 4.01444,-6.97842 6.02164,-10.58922 2.00724,-3.61079 4.01444,-7.30142 6.02168,-11.06568 2.0072,-3.76425 4.01441,-7.60255 6.02164,-11.50748 2.00721,-3.90492 4.01444,-7.87687 6.02165,-11.9072 2.00722,-4.03035 4.01444,-8.11942 6.02166,-12.25746 2.00721,-4.13802 4.01444,-8.3253 6.02165,-12.55088 2.00721,-4.22559 4.01443,-8.48972 6.02165,-12.78044 2.00722,-4.2907 4.01444,-8.60813 6.02166,-12.93932 2.00722,-4.3312 4.01444,-8.67625 6.02166,-13.02134 6.48193,-23.5374 4.89288,64.09252 12.90183,63.333 8.00895,-0.75952 6.60124,-117.46871 17.20644,-126.63271 2.00721,-3.96486 4.01443,-7.85175 6.02165,-11.64519 2.00722,-3.79343 4.01444,-7.49282 6.02166,-11.08306 2.00721,-3.59024 4.01444,-7.07067 6.02165,-10.42681 2.00721,-3.35614 4.01442,-6.587253 6.02165,-9.679691 2.00721,-3.09244 4.01443,-6.04536 6.02165,-8.84622 2.00722,-2.80085 4.01444,-5.44871 6.02166,-7.93227 2.00721,-2.48356 4.01442,-4.80181 6.02165,-6.94489 2.00721,-2.143076 4.01444,-4.109923 6.02165,-5.892247 2.00723,-1.782322 4.01443,-3.37902 6.02166,-4.783545 2.00721,-1.404515 4.01444,-2.615711 6.02166,-3.628878 2.0072,-1.013166 4.01444,-1.827108 6.02164,-2.439076 2.00723,-0.611956 4.01444,-1.020731 6.02167,-1.225524 2.00721,-0.204783 4.01443,-0.204376 6.02165,0 2.00722,0.204387 4.01444,0.613963 6.02166,1.225524 2.00721,0.611562 4.01442,1.426304 6.02164,2.439076 2.00722,1.012772 4.01444,2.224746 6.02166,3.628878 2.00722,1.404143 4.01443,3.001593 6.02166,4.783545 2.00721,1.781952 4.01444,3.749519 6.02164,5.892247 2.00722,2.14273 4.01444,4.46166 6.02166,6.94489 2.00722,2.48322 4.01444,5.13172 6.02166,7.93227 2.00721,2.80056 4.01442,5.75406 6.02165,8.84622 2.00721,3.092158 4.01443,6.323791 6.02165,9.679691 2.0072,3.35589 4.01444,6.83678 6.02164,10.42681 2.00724,3.59002 4.01444,7.28982 6.02168,11.08306 2.0072,3.79325 4.01443,7.68049 6.02164,11.64519 2.00723,3.96468 4.01444,8.00729 6.02167,12.11124 2.0072,4.10395 4.01442,8.2696 6.02164,12.48061 2.00722,4.21102 4.01444,8.46764 6.02166,12.75394 2.00722,4.28631 4.01443,8.60244 6.02166,12.93305 2.00721,4.33061 4.01444,8.67576 6.02164,13.02087 2.00722,4.34509 4.01444,8.69011 6.02166,13.02134 2.00722,4.33123 4.01444,8.64857 6.02166,12.93932 2.00721,4.29076 4.01442,8.55477 6.02164,12.78044 2.00722,4.22566 4.01444,8.41276 6.02166,12.55088 2.0072,4.13813 4.01444,8.227 6.02164,12.25746 2.00724,4.03046 4.01444,8.00215 6.02168,11.9072 2.0072,3.90506 4.01443,7.74308 6.02164,11.50748 2.00723,3.7644 4.01444,7.45473 6.02164,11.06568 2.00723,3.61097 4.01444,7.14206 6.02167,10.58922 2.00721,3.44716 4.01444,6.80989 6.02165,10.08529 2.00723,3.2754 4.01444,6.46296 6.02167,9.56091 2.0072,3.09795 4.01444,6.10578 6.02164,9.02274 2.00721,2.91697 4.01444,5.74255 6.02165,8.47703 2.00723,2.73446 4.01444,5.37726 6.02167,7.92953 2.0072,2.55227 4.01443,5.01348 6.02164,7.38554 2.00722,2.37206 4.01444,4.65445 6.02166,6.84976 2.00721,2.19531 4.01444,4.30302 6.02165,6.32633 2.00723,2.02329 4.01444,3.96168 6.02167,5.8188 2.00721,1.85713 4.01443,3.63252 6.02164,5.33022 2.00723,1.6977 4.01444,3.31724 6.02164,4.86298 2.00723,1.54574 4.01444,3.01723 6.02167,4.41901 2.00721,1.40179 4.01444,2.73348 6.02165,3.99973 2.00723,1.26625 4.01443,2.46669 6.02167,3.60604 2.0072,1.13936 4.01443,2.21728 6.02164,3.23849 2.00721,1.02122 4.01444,1.9854 6.02165,2.89721 2.00723,0.91181 4.01443,1.77095 6.02167,2.58197 2.0072,0.81103 4.01441,1.57366 6.02164,2.29231 2.00721,0.71864 4.01444,1.39305 6.02165,2.02745 2.00722,0.63439 4.01444,1.22854 6.02166,1.78646 2.00722,0.55792 4.01444,1.0794 6.02166,1.56826 2.00721,0.48884 4.01444,0.94485 6.02165,1.37159 2.00721,0.42673 4.01444,0.82402 6.02165,1.19517"
     style="opacity:1;fill:none;fill-opacity:0.98809521;fill-rule:nonzero;stroke:#d40000;stroke-width:2.40000963;stroke-linecap:butt;stroke-linejoin:round;stroke-miterlimit:4;stroke-dasharray:none;stroke-dashoffset:0;stroke-opacity:1"
     inkscape:connector-curvature="0"
     sodipodi:nodetypes="csssssssssssssssssssssssssssssssczcsssssssssssssssssssssssssssssssssssssssssssssssssssscsscsssssc" /><path
     style="fill:none;fill-rule:evenodd;stroke:#000000;stroke-width:1.60000641;stroke-linecap:butt;stroke-linejoin:miter;stroke-opacity:1;stroke-miterlimit:4;stroke-dasharray:none"
     d="M 48.077134,423.62052 642.17859,422.762"
     id="path4447"
     inkscape:connector-curvature="0" /></svg>