<?xml version="1.0" encoding="UTF-8" standalone="no"?>
<!-- generated by Grace-5.1.25 -->

<svg
   xmlns:dc="http://purl.org/dc/elements/1.1/"
   xmlns:cc="http://creativecommons.org/ns#"
   xmlns:rdf="http://www.w3.org/1999/02/22-rdf-syntax-ns#"
   xmlns:svg="http://www.w3.org/2000/svg"
   xmlns="http://www.w3.org/2000/svg"
   xmlns:sodipodi="http://sodipodi.sourceforge.net/DTD/sodipodi-0.dtd"
   xmlns:inkscape="http://www.inkscape.org/namespaces/inkscape"
   xml:space="preserve"
   width="8.5740137in"
   height="3.9387865in"
   viewBox="0 0 617.33073 283.59378"
   id="svg2"
   version="1.1"
   inkscape:version="0.92.3 (2405546, 2018-03-11)"
   sodipodi:docname="05_Hole.svg"><sodipodi:namedview
     pagecolor="#ffffff"
     bordercolor="#666666"
     borderopacity="1"
     objecttolerance="10"
     gridtolerance="10"
     guidetolerance="10"
     inkscape:pageopacity="0"
     inkscape:pageshadow="2"
     inkscape:window-width="1037"
     inkscape:window-height="841"
     id="namedview224"
     showgrid="false"
     inkscape:zoom="2.5764946"
     inkscape:cx="460.44339"
     inkscape:cy="1.8811406"
     inkscape:window-x="744"
     inkscape:window-y="155"
     inkscape:window-maximized="0"
     inkscape:current-layer="svg2"
     fit-margin-top="0"
     fit-margin-left="0"
     fit-margin-right="0"
     fit-margin-bottom="0" /><metadata
     id="metadata228"><rdf:RDF><cc:Work
         rdf:about=""><dc:format>image/svg+xml</dc:format><dc:type
           rdf:resource="http://purl.org/dc/dcmitype/StillImage" /><dc:title /></cc:Work></rdf:RDF></metadata><defs
     id="defs226"><marker
       inkscape:stockid="Arrow1Mstart"
       orient="auto"
       refY="0.0"
       refX="0.0"
       id="Arrow1Mstart"
       style="overflow:visible"
       inkscape:isstock="true"><path
         id="path881"
         d="M 0.0,0.0 L 5.0,-5.0 L -12.5,0.0 L 5.0,5.0 L 0.0,0.0 z "
         style="fill-rule:evenodd;stroke:#000000;stroke-width:1pt;stroke-opacity:1;fill:#000000;fill-opacity:1"
         transform="scale(0.4) translate(10,0)" /></marker><marker
       inkscape:isstock="true"
       style="overflow:visible;"
       id="marker843"
       refX="0.0"
       refY="0.0"
       orient="auto"
       inkscape:stockid="Arrow1Mend"><path
         transform="scale(0.4) rotate(180) translate(10,0)"
         style="fill-rule:evenodd;stroke:#000000;stroke-width:1pt;stroke-opacity:1;fill:#000000;fill-opacity:1"
         d="M 0.0,0.0 L 5.0,-5.0 L -12.5,0.0 L 5.0,5.0 L 0.0,0.0 z "
         id="path841" /></marker><marker
       inkscape:stockid="Arrow1Mend"
       orient="auto"
       refY="0.0"
       refX="0.0"
       id="Arrow1Mend"
       style="overflow:visible;"
       inkscape:isstock="true"
       inkscape:collect="always"><path
         id="path833"
         d="M 0.0,0.0 L 5.0,-5.0 L -12.5,0.0 L 5.0,5.0 L 0.0,0.0 z "
         style="fill-rule:evenodd;stroke:#000000;stroke-width:1pt;stroke-opacity:1;fill:#000000;fill-opacity:1"
         transform="scale(0.4) rotate(180) translate(10,0)" /></marker></defs><path
     style="fill:none;fill-rule:evenodd;stroke:#000000;stroke-width:1.5997565;stroke-linecap:butt;stroke-linejoin:miter;stroke-miterlimit:4;stroke-dasharray:none;stroke-opacity:1;marker-end:url(#Arrow1Mend)"
     d="M 0.18369376,254.65206 594.28515,253.79354"
     id="path4447"
     inkscape:connector-curvature="0" /><path
     style="fill:none;fill-rule:evenodd;stroke:#000000;stroke-width:1.5997565;stroke-linecap:butt;stroke-linejoin:miter;stroke-miterlimit:4;stroke-dasharray:none;stroke-dashoffset:0;stroke-opacity:1;marker-start:url(#Arrow1Mstart)"
     d="m 297.54749,3.1014622 0,256.2743278"
     id="path3838"
     inkscape:connector-curvature="0"
     sodipodi:nodetypes="cc" /><path
     style="fill:none;fill-rule:evenodd;stroke:#575757;stroke-width:1.60000646;stroke-linecap:butt;stroke-linejoin:miter;stroke-miterlimit:4;stroke-dasharray:9.6000385, 3.20001283;stroke-dashoffset:0;stroke-opacity:1"
     d="m 224.37544,87.569862 0,172.138738"
     id="path3838-3"
     inkscape:connector-curvature="0"
     sodipodi:nodetypes="cc" /><path
     id="path5232"
     title="exp(-(x)*(x))*(1-0.003/((x+0.5)*(x+0.5)+0.005))"
     d=" M 6.0093064 249.493777272 C 7.97206939663 249.275594767 9.93483239326 249.042023777 11.8975953899 248.791226495 C 13.8603583865 248.540429213 15.8231213832 248.27233252 17.7858843798 247.985070111 C 19.7486473764 247.697807702 21.7114103731 247.391263579 23.6741733697 247.063456902 C 25.6369363663 246.735650225 27.599699363 246.386452161 29.5624623596 246.013776982 C 31.5252253562 245.641101802 33.4879883529 245.244807112 35.4507513495 244.822715494 C 37.4135143461 244.400623875 39.3762773428 243.952578724 41.3390403394 243.476328009 C 43.301803336 243.000077294 45.2645663327 242.495449652 47.2273293293 241.960139692 C 49.1900923259 241.424829732 51.1528553226 240.858650912 53.1156183192 240.259270136 C 55.0783813158 239.65988936 57.0411443125 239.027104644 59.0039073091 238.358585454 C 60.9666703057 237.690066264 62.9294333024 236.985595093 64.892196299 236.242878956 C 66.8549592956 235.500162819 68.8177222923 234.718968824 70.7804852889 233.897081316 C 72.7432482855 233.075193808 74.7060112822 232.212364889 76.6687742788 231.306500802 C 78.6315372754 230.400636715 80.5943002721 229.45147521 82.5570632687 228.457093731 C 84.5198262653 227.462712252 86.482589262 226.422835152 88.4453522586 225.335765044 C 90.4081152552 224.248694936 92.3708782519 223.114144055 94.3336412485 221.930698758 C 96.2964042451 220.747253461 98.2591672417 219.514615496 100.221930238 218.231718195 C 102.184693235 216.948820893 104.147456232 215.615357516 106.110219228 214.230676543 C 108.072982225 212.84599557 110.035745222 211.409784158 111.998508218 209.921879782 C 113.961271215 208.433975406 115.924034211 206.894061893 117.886797208 205.30254677 C 119.849560205 203.711031646 121.812323201 202.067598571 123.775086198 200.373316309 C 125.737849195 198.679034047 127.700612191 196.933589618 129.663375188 195.138819672 C 131.626138185 193.344049726 133.588901181 191.499648483 135.551664178 189.608352079 C 137.514427174 187.717055676 139.477190171 185.778569556 141.439953168 183.796702788 C 143.402716164 181.814836019 145.365479161 179.789309204 147.328242158 177.725249924 C 149.291005154 175.661190644 151.253768151 173.558337886 153.216531147 171.423510955 C 155.179294144 169.288684024 157.142057141 167.121641395 159.104820137 164.931499457 C 161.067583134 162.741357519 163.030346131 160.527889878 164.993109127 158.303551876 C 166.955872124 156.079213874 168.918635121 153.843776209 170.881398117 151.614929256 C 172.844161114 149.386082303 174.80692411 147.163541031 176.769687107 144.973880327 C 178.732450104 142.784219624 180.6952131 140.626954317 182.657976097 138.544999051 C 184.620739094 136.463043785 186.58350209 134.45531746 188.546265087 132.597323512 C 190.509028084 130.739329564 192.47179108 129.028286899 194.434554077 127.610185809 C 196.397317073 126.19208472 198.36008007 125.059467061 200.322843067 124.522259631 C 202.285606063 123.985052201 204.24836906 124.025928089 206.211132057 125.343118233 C 208.173895053 126.660308377 210.13665805 129.261080327 212.099421046 134.503302121 C 214.062184043 139.745523916 216.02494704 148.177250746 217.987710036 158.886352525 C 219.950473033 169.595454305 221.91323603 182.526992967 223.875999026 184.37015079 C 225.838762023 186.213308613 227.80152502 174.946783088 229.764288016 160.732721224 C 231.727051013 146.51865936 233.689814009 131.56065595 235.652577006 120.213564139 C 237.615340003 108.866472328 239.578102999 100.301992751 241.540865996 93.3980999639 C 243.503628993 86.4942071768 245.466391989 81.1953819398 247.429154986 76.6991311727 C 249.391917982 72.2028804057 251.354680979 68.5335437029 253.317443976 65.3199754667 C 255.280206972 62.1064072306 257.242969969 59.3625605715 259.205732966 56.917551639 C 261.168495962 54.4725427066 263.131258959 52.3329396176 265.094021956 50.4157647499 C 267.056784952 48.4985898821 269.019547949 46.8072273349 270.982310945 45.2989902272 C 272.945073942 43.7907531195 274.907836939 42.467672984 276.870599935 41.3065061496 C 278.833362932 40.1453393153 280.796125929 39.1475103739 282.758888925 38.2995055005 C 284.721651922 37.451500627 286.684414919 36.7544525753 288.647177915 36.1997565709 C 290.609940912 35.6450605664 292.572703908 35.2336977639 294.535466905 34.9594420774 C 296.498229902 34.6851863908 298.460992898 34.5489323178 300.423755895 34.5454430809 C 302.386518892 34.5419538441 304.349281888 34.6720676905 306.312044885 34.9307507983 C 308.274807881 35.1894339062 310.237570878 35.5774818992 312.200333875 36.0896148286 C 314.163096871 36.6017477579 316.125859868 37.2387237148 318.088622865 37.9947667523 C 320.051385861 38.7508097898 322.014148858 39.6266410941 323.976911855 40.6158628085 C 325.939674851 41.6050845228 327.902437848 42.7083792301 329.865200844 43.9186821653 C 331.827963841 45.1289851005 333.790726838 46.4469374095 335.753489834 47.8648174201 C 337.716252831 49.2826974307 339.679015828 50.8011015807 341.641778824 52.4116997899 C 343.604541821 54.022297999 345.567304818 55.72563872 347.530067814 57.5128592843 C 349.492830811 59.3000798487 351.455593807 61.171677717 353.418356804 63.1183527044 C 355.381119801 65.0650276917 357.343882797 67.0872237092 359.306645794 69.1753111863 C 361.269408791 71.2633986634 363.232171787 73.4177659702 365.194934784 75.6285703375 C 367.15769778 77.8393747049 369.120460777 80.1069476077 371.083223774 82.4213531232 C 373.04598677 84.7357586386 375.008749767 87.0972706673 376.971512764 89.4959804299 C 378.93427576 91.8946901925 380.897038757 94.3308140232 382.859801754 96.7945877121 C 384.82256475 99.258361401 386.785327747 101.7499444 388.748090743 104.259828925 C 390.71085374 106.769713451 392.673616737 109.298003405 394.636379733 111.835551421 C 396.59914273 114.373099437 398.561905727 116.919955805 400.524668723 119.467427795 C 402.48743172 122.014899785 404.450194716 124.562986565 406.412957713 127.103532969 C 408.37572071 129.644079373 410.338483706 132.177036425 412.301246703 134.69485703 C 414.2640097 137.212677636 416.226772696 139.715268065 418.189535693 142.195746624 C 420.15229869 144.676225183 422.115061686 147.134457124 424.077824683 149.564269901 C 426.040587679 151.994082678 428.003350676 154.395304525 429.966113673 156.762502174 C 431.928876669 159.129699824 433.891639666 161.462668673 435.854402663 163.756731505 C 437.817165659 166.050794337 439.779928656 168.305718005 441.742691653 170.517585317 C 443.705454649 172.729452628 445.668217646 174.898006219 447.630980642 177.020080899 C 449.593743639 179.142155578 451.556506636 181.21747406 453.519269632 183.243604155 C 455.482032629 185.269734249 457.444795626 187.246382944 459.407558622 189.171822256 C 461.370321619 191.097261568 463.333084615 192.971186803 465.295847612 194.792536901 C 467.258610609 196.613886999 469.221373605 198.382349423 471.184136602 200.097485658 C 473.146899599 201.812621892 475.109662595 203.474115154 477.072425592 205.082099414 C 479.035188589 206.690083674 480.997951585 208.244241227 482.960714582 209.745224226 C 484.923477578 211.246207225 486.886240575 212.69370006 488.849003572 214.088815911 C 490.811766568 215.483931762 492.774529565 216.826359813 494.737292562 218.117615575 C 496.700055558 219.408871337 498.662818555 220.64865116 500.625581552 221.838813886 C 502.588344548 223.028976612 504.551107545 224.169227798 506.513870541 225.261711423 C 508.476633538 226.354195048 510.439396535 227.398627588 512.402159531 228.397381756 C 514.364922528 229.396135924 516.327685525 230.348940507 518.290448521 231.25834318 C 520.253211518 232.167745852 522.215974514 233.033488802 524.178737511 233.858244213 C 526.141500508 234.682999624 528.104263504 235.466523889 530.067026501 236.21156712 C 532.029789498 236.95661035 533.992552494 237.662943681 535.955315491 238.333352841 C 537.918078488 239.003762001 539.880841484 239.638033162 541.843604481 240.238949893 C 543.806367477 240.839866625 545.769130474 241.407230212 547.731893471 241.943788959 C 549.694656467 242.480347707 551.657419464 242.985917899 553.620182461 243.463184156 C 555.582945457 243.940450412 557.545708454 244.38924374 559.508471451 244.812161262 C 561.471234447 245.235078784 563.433997444 245.631965808 565.39676044 246.005312592 C 567.359523437 246.378659375 569.322286434 246.728324994 571.28504943 247.056677664 C 573.247812427 247.385030334 575.210575424 247.691942273 577.17333842 247.979648386 C 579.136101417 248.267354499 581.098864413 248.535739449 583.06162741 248.786897128 C 585.024390407 249.038054806 586.987153403 249.271881576 588.9499164 249.490325805"
     style="opacity:1;fill:none;fill-opacity:0.98809521;fill-rule:nonzero;stroke:#d40000;stroke-width:3.20001316;stroke-linecap:butt;stroke-linejoin:round;stroke-miterlimit:4;stroke-dasharray:none;stroke-dashoffset:0;stroke-opacity:1" /><g
     id="g3344"><text
   id="text3749"
   y="276.90976"
   x="583.12427"
   style="font-style:normal;font-variant:normal;font-weight:normal;font-stretch:normal;line-height:0%;font-family:'Nimbus Sans L';-inkscape-font-specification:Sans;letter-spacing:0px;word-spacing:0px;fill:#000000;fill-opacity:1;stroke:none;stroke-width:1px;stroke-linecap:butt;stroke-linejoin:miter;stroke-opacity:1"
   xml:space="preserve"><tspan
     style="font-size:13.00005245px;line-height:1.25"
     y="276.90976"
     x="583.12427"
     id="tspan3751"
     sodipodi:role="line">$v_x$</tspan></text>


<text
   id="text3749-6"
   y="10.01004"
   x="307.3923"
   style="font-style:normal;font-variant:normal;font-weight:normal;font-stretch:normal;line-height:0%;font-family:'Nimbus Sans L';-inkscape-font-specification:Sans;letter-spacing:0px;word-spacing:0px;fill:#000000;fill-opacity:1;stroke:none;stroke-width:1px;stroke-linecap:butt;stroke-linejoin:miter;stroke-opacity:1"
   xml:space="preserve"><tspan
     style="font-size:13.00005245px;line-height:1.25"
     y="10.01004"
     x="307.3923"
     id="tspan3751-7"
     sodipodi:role="line">${\cal N}_1$</tspan></text>


<text
   id="text3749-5"
   y="281.70978"
   x="293.42276"
   style="font-style:normal;font-variant:normal;font-weight:normal;font-stretch:normal;line-height:0%;font-family:'Nimbus Sans L';-inkscape-font-specification:Sans;letter-spacing:0px;word-spacing:0px;fill:#000000;fill-opacity:1;stroke:none;stroke-width:1px;stroke-linecap:butt;stroke-linejoin:miter;stroke-opacity:1"
   xml:space="preserve"><tspan
     style="font-size:13.00005245px;line-height:1.25"
     y="281.70978"
     x="293.42276"
     id="tspan3751-3"
     sodipodi:role="line">$0$</tspan></text>


<text
   id="text3749-5-5"
   y="283.95978"
   x="193.93155"
   style="font-style:normal;font-variant:normal;font-weight:normal;font-stretch:normal;line-height:0%;font-family:'Nimbus Sans L';-inkscape-font-specification:Sans;letter-spacing:0px;word-spacing:0px;fill:#000000;fill-opacity:1;stroke:none;stroke-width:1px;stroke-linecap:butt;stroke-linejoin:miter;stroke-opacity:1"
   xml:space="preserve"><tspan
     style="font-size:13.00005245px;line-height:1.25"
     y="283.95978"
     x="193.93155"
     id="tspan3751-3-6"
     sodipodi:role="line">$\frac{\omega_0-\omega_S}{k}$</tspan></text>


</g></svg>