<?xml version="1.0" encoding="UTF-8" standalone="no"?>
<!-- Created with matplotlib (http://matplotlib.org/) -->

<svg
   xmlns:dc="http://purl.org/dc/elements/1.1/"
   xmlns:cc="http://creativecommons.org/ns#"
   xmlns:rdf="http://www.w3.org/1999/02/22-rdf-syntax-ns#"
   xmlns:svg="http://www.w3.org/2000/svg"
   xmlns="http://www.w3.org/2000/svg"
   xmlns:xlink="http://www.w3.org/1999/xlink"
   xmlns:sodipodi="http://sodipodi.sourceforge.net/DTD/sodipodi-0.dtd"
   xmlns:inkscape="http://www.inkscape.org/namespaces/inkscape"
   height="258.12982pt"
   version="1.1"
   viewBox="0 0 383.21911 258.12982"
   width="383.21912pt"
   id="svg2"
   inkscape:version="0.92.3 (2405546, 2018-03-11)"
   sodipodi:docname="05_joja.svg"
   inkscape:export-filename="/home/jetra/mojca/HomeMojca/MojcaNova/slike/05_joja.png"
   inkscape:export-xdpi="599"
   inkscape:export-ydpi="599">
  <metadata
     id="metadata355">
    <rdf:RDF>
      <cc:Work
         rdf:about="">
        <dc:format>image/svg+xml</dc:format>
        <dc:type
           rdf:resource="http://purl.org/dc/dcmitype/StillImage" />
        <dc:title></dc:title>
      </cc:Work>
    </rdf:RDF>
  </metadata>
  <sodipodi:namedview
     pagecolor="#ffffff"
     bordercolor="#666666"
     borderopacity="1"
     objecttolerance="10"
     gridtolerance="10"
     guidetolerance="10"
     inkscape:pageopacity="0"
     inkscape:pageshadow="2"
     inkscape:window-width="1284"
     inkscape:window-height="901"
     id="namedview353"
     showgrid="false"
     showguides="false"
     inkscape:zoom="0.96924738"
     inkscape:cx="176.55624"
     inkscape:cy="138.76433"
     inkscape:window-x="234"
     inkscape:window-y="61"
     inkscape:window-maximized="0"
     inkscape:current-layer="svg2"
     fit-margin-top="0"
     fit-margin-left="0"
     fit-margin-right="0"
     fit-margin-bottom="0" />
  <defs
     id="defs4"
     style="stroke-linecap:butt;stroke-linejoin:round">
    <style
       type="text/css"
       id="style6">
*{stroke-linecap:butt;stroke-linejoin:round;}
  </style>
    <defs
       id="defs256">
      <path
         d="M 0,0 H -4"
         id="md9a1c1a7cd"
         style="stroke:#000000;stroke-width:0.5;stroke-linecap:butt;stroke-linejoin:round"
         inkscape:connector-curvature="0" />
    </defs>
    <defs
       id="defs248">
      <path
         d="M 0,0 H 4"
         id="md7965d1ba0"
         style="stroke:#000000;stroke-width:0.5;stroke-linecap:butt;stroke-linejoin:round"
         inkscape:connector-curvature="0" />
    </defs>
    <defs
       id="defs191">
      <path
         style="stroke-linecap:butt;stroke-linejoin:round"
         inkscape:connector-curvature="0"
         id="DejaVuSans-69"
         d="M 9.42188,54.6875 H 18.4062 V 0 H 9.42188 Z m 0,21.2969 H 18.4062 V 64.5938 H 9.42188 Z" />
      <path
         style="stroke-linecap:butt;stroke-linejoin:round"
         inkscape:connector-curvature="0"
         d=""
         id="DejaVuSans-20" />
      <path
         style="stroke-linecap:butt;stroke-linejoin:round"
         inkscape:connector-curvature="0"
         id="DejaVuSans-72"
         d="m 41.1094,46.2969 q -1.5156,0.875 -3.2969,1.2812 Q 36.0312,48 33.8906,48 26.2656,48 22.1875,43.0469 18.1094,38.0938 18.1094,28.8125 V 0 H 9.07812 v 54.6875 h 9.03128 v -8.5 q 2.8437,4.9844 7.375,7.3906 Q 30.0312,56 36.5312,56 q 0.9219,0 2.0469,-0.125 1.125,-0.1094 2.4844,-0.3594 z" />
      <path
         style="stroke-linecap:butt;stroke-linejoin:round"
         inkscape:connector-curvature="0"
         id="DejaVuSans-64"
         d="m 45.4062,46.3906 v 29.5938 h 8.9844 V 0 H 45.4062 V 8.20312 Q 42.5781,3.32812 38.25,0.953125 33.9375,-1.42188 27.875,-1.42188 q -9.9062,0 -16.1406,7.90626 -6.21878,7.92182 -6.21878,20.81252 0,12.8906 6.21878,20.7969 Q 17.9688,56 27.875,56 q 6.0625,0 10.375,-2.375 4.3281,-2.3594 7.1562,-7.2344 M 14.7969,27.2969 q 0,-9.9063 4.0781,-15.5469 4.0781,-5.64062 11.2031,-5.64062 7.125,0 11.2188,5.64062 4.1093,5.6406 4.1093,15.5469 0,9.9062 -4.1093,15.5469 -4.0938,5.6406 -11.2188,5.6406 -7.125,0 -11.2031,-5.6406 -4.0781,-5.6407 -4.0781,-15.5469" />
      <path
         style="stroke-linecap:butt;stroke-linejoin:round"
         inkscape:connector-curvature="0"
         id="Cmmi10-7a"
         d="m 4.89062,-1.125 q -0.78124,0 -0.78124,0.921875 0,0.5 0.1875,0.6875 2.6875,4.640625 6.46872,8.859375 3.7813,4.23435 8.5938,8.54685 4.8125,4.3282 9.6718,8.6719 4.8594,4.3437 7.8907,7.7187 h -0.3907 q -2.2031,0 -6.4531,1.4063 -4.25,1.4219 -6.6875,1.4219 -2.6406,0 -5.1406,-1.1563 -2.4844,-1.1406 -3.1562,-3.5312 -0.1563,-0.7344 -0.7813,-0.7344 h -1.2187 q -0.7813,0 -0.7813,1.0313 v 0.2968 q 0.7813,2.9219 2.5625,5.4532 1.7812,2.5468 4.3906,4.125 2.6094,1.5937 5.4375,1.5937 2,0 3.3125,-0.9063 1.3282,-0.8906 3.0782,-2.7968 1.7656,-1.9063 2.8593,-2.7344 1.1094,-0.8281 2.7657,-0.8281 2.2031,0 3.9374,2 1.7344,2 3.4376,4.9687 0.2968,0.2969 0.7343,0.2969 H 46 q 0.3438,0 0.5625,-0.25 0.2187,-0.2344 0.2187,-0.625 0,-0.3437 -0.2031,-0.6406 Q 43.8906,38.0312 40.2969,34 36.7188,29.9844 30.9219,24.7812 25.1406,19.5781 21.1562,15.9844 17.1875,12.4062 13.7188,8.59375 14.5,8.79688 15.8281,8.79688 q 2.4375,0 6.6563,-1.40626 Q 26.7031,6 29,6 q 2.5,0 5.0312,1.07812 2.5469,1.07813 4.3907,3.03128 1.8593,1.9531 2.5,4.4844 0.2343,0.6874 0.7812,0.6874 h 1.2188 q 0.3906,0 0.625,-0.3124 0.25,-0.3126 0.25,-0.6563 0,-0.1094 -0.0938,-0.2969 Q 42.7812,10.2031 40.4844,6.76562 38.1875,3.32812 34.8438,1.09375 31.5,-1.125 27.6875,-1.125 q -1.9063,0 -3.2344,0.890625 -1.3125,0.875 -3.0937,2.796875 -1.7813,1.9375 -2.9063,2.78125 -1.125,0.85937 -2.7343,0.85937 -4.9688,0 -8.93755,-6.98437 Q 6.45312,-1.125 6.10938,-1.125 Z" />
      <path
         style="stroke-linecap:butt;stroke-linejoin:round"
         inkscape:connector-curvature="0"
         id="DejaVuSans-2e"
         d="M 10.6875,12.4062 H 21 V 0 H 10.6875 Z" />
      <path
         style="stroke-linecap:butt;stroke-linejoin:round"
         inkscape:connector-curvature="0"
         id="DejaVuSans-74"
         d="M 18.3125,70.2188 V 54.6875 h 18.5 v -6.9844 h -18.5 V 18.0156 q 0,-6.6875 1.8281,-8.59372 1.8282,-1.90626 7.4532,-1.90626 h 9.2187 V 0 H 27.5938 Q 17.1875,0 13.2344,3.875 9.28125,7.76562 9.28125,18.0156 V 47.7031 H 2.6875 v 6.9844 h 6.59375 v 15.5313 z" />
      <path
         style="stroke-linecap:butt;stroke-linejoin:round"
         inkscape:connector-curvature="0"
         id="DejaVuSans-6e"
         d="M 54.8906,33.0156 V 0 h -8.9844 v 32.7188 q 0,7.7656 -3.0312,11.6093 -3.0312,3.8594 -9.0781,3.8594 -7.2813,0 -11.4844,-4.6406 -4.2031,-4.625 -4.2031,-12.6407 V 0 H 9.07812 v 54.6875 h 9.03128 v -8.5 q 3.2344,4.9375 7.5937,7.375 Q 30.0781,56 35.7969,56 q 9.4219,0 14.25,-5.8281 4.8437,-5.8281 4.8437,-17.1563" />
      <path
         style="stroke-linecap:butt;stroke-linejoin:round"
         inkscape:connector-curvature="0"
         id="DejaVuSans-4b"
         d="m 9.8125,72.9062 h 9.8594 V 42.0938 L 52.3906,72.9062 H 65.0938 L 28.9062,38.9219 67.6719,0 H 54.6875 L 19.6719,35.1094 V 0 H 9.8125 Z" />
      <path
         style="stroke-linecap:butt;stroke-linejoin:round"
         inkscape:connector-curvature="0"
         id="DejaVuSans-6f"
         d="m 30.6094,48.3906 q -7.2188,0 -11.4219,-5.6406 -4.2031,-5.6406 -4.2031,-15.4531 0,-9.8125 4.1718,-15.4531 4.1876,-5.64068 11.4532,-5.64068 7.1875,0 11.375,5.65628 4.2031,5.6718 4.2031,15.4375 0,9.7187 -4.2031,15.4062 -4.1875,5.6875 -11.375,5.6875 m 0,7.6094 q 11.7187,0 18.4062,-7.625 6.7032,-7.6094 6.7032,-21.0781 0,-13.4219 -6.7032,-21.07815 -6.6875,-7.64063 -18.4062,-7.64063 -11.7656,0 -18.4375,7.64063 -6.65628,7.65625 -6.65628,21.07815 0,13.4687 6.65628,21.0781 Q 18.8438,56 30.6094,56" />
      <path
         style="stroke-linecap:butt;stroke-linejoin:round"
         inkscape:connector-curvature="0"
         id="DejaVuSans-29"
         d="M 8.01562,75.875 H 15.8281 Q 23.1406,64.3594 26.7812,53.3125 30.4219,42.2812 30.4219,31.3906 30.4219,20.4531 26.7812,9.375 23.1406,-1.70312 15.8281,-13.1875 H 8.01562 Q 14.5,-2 17.7031,9.0625 q 3.2031,11.0625 3.2031,22.3281 0,11.2813 -3.2031,22.2656 -3.2031,11 -9.68748,22.2188" />
      <path
         style="stroke-linecap:butt;stroke-linejoin:round"
         inkscape:connector-curvature="0"
         id="DejaVuSans-61"
         d="m 34.2812,27.4844 q -10.8906,0 -15.0937,-2.4844 -4.2031,-2.4844 -4.2031,-8.5 0,-4.7812 3.1562,-7.59375 3.1563,-2.79687 8.5625,-2.79687 7.4844,0 12,5.29682 4.5157,5.2969 4.5157,14.0782 v 2 z m 17.9219,3.7187 V 0 H 43.2188 V 8.29688 Q 40.1406,3.32812 35.5469,0.953125 30.9531,-1.42188 24.3125,-1.42188 q -8.3906,0 -13.3594,4.71876 Q 6,8.01562 6,15.9219 q 0,9.2187 6.1719,13.9062 6.1875,4.6875 18.4375,4.6875 h 12.6094 v 0.8906 q 0,6.2032 -4.0782,9.5938 -4.0781,3.3906 -11.4531,3.3906 -4.6875,0 -9.1406,-1.125 -4.4375,-1.125 -8.5313,-3.375 v 8.3125 q 4.9219,1.9063 9.5625,2.8438 Q 24.2188,56 28.6094,56 q 11.875,0 17.7344,-6.1562 5.8593,-6.1407 5.8593,-18.6407" />
      <path
         style="stroke-linecap:butt;stroke-linejoin:round"
         inkscape:connector-curvature="0"
         id="DejaVuSans-28"
         d="M 31,75.875 Q 24.4688,64.6562 21.2812,53.6562 18.1094,42.6719 18.1094,31.3906 18.1094,20.125 21.3125,9.0625 24.5156,-2 31,-13.1875 H 23.1875 Q 15.875,-1.70312 12.2344,9.375 8.59375,20.4531 8.59375,31.3906 q 0,10.8906 3.60935,21.9219 3.625,11.0469 10.9844,22.5625 z" />
      <path
         style="stroke-linecap:butt;stroke-linejoin:round"
         inkscape:connector-curvature="0"
         id="DejaVuSans-75"
         d="m 8.5,21.5781 v 33.1094 h 8.9844 V 21.9219 q 0,-7.7657 3.0156,-11.6563 3.0312,-3.87498 9.0938,-3.87498 7.2656,0 11.4843,4.64058 4.2344,4.6407 4.2344,12.6563 v 31 h 8.9844 V 0 H 45.3125 V 8.40625 Q 42.0469,3.42188 37.7188,1 33.4062,-1.42188 27.6875,-1.42188 18.2656,-1.42188 13.375,4.4375 8.5,10.2969 8.5,21.5781 M 31.1094,56 Z" />
    </defs>
    <defs
       id="defs50">
      <path
         d="m 31.7812,66.4062 q -7.6093,0 -11.4531,-7.5 Q 16.5,51.4219 16.5,36.375 q 0,-14.9844 3.8281,-22.4844 3.8438,-7.49998 11.4531,-7.49998 7.6719,0 11.5,7.49998 3.8438,7.5 3.8438,22.4844 0,15.0469 -3.8438,22.5312 -3.8281,7.5 -11.5,7.5 m 0,7.8126 q 12.2657,0 18.7344,-9.7032 6.4688,-9.6875 6.4688,-28.1406 0,-18.4062 -6.4688,-28.10938 -6.4687,-9.6875 -18.7344,-9.6875 -12.25,0 -18.7187,9.6875 -6.46875,9.70318 -6.46875,28.10938 0,18.4531 6.46875,28.1406 6.4687,9.7032 18.7187,9.7032"
         id="DejaVuSans-30"
         inkscape:connector-curvature="0"
         style="stroke-linecap:butt;stroke-linejoin:round" />
    </defs>
    <defs
       id="defs42">
      <path
         d="M 0,0 V 4"
         id="m5a7d422ac3"
         style="stroke:#000000;stroke-width:0.5;stroke-linecap:butt;stroke-linejoin:round"
         inkscape:connector-curvature="0" />
    </defs>
    <defs
       id="defs34">
      <path
         d="M 0,0 V -4"
         id="mc7db9fdffb"
         style="stroke:#000000;stroke-width:0.5;stroke-linecap:butt;stroke-linejoin:round"
         inkscape:connector-curvature="0" />
    </defs>
    <defs
       id="defs69">
      <path
         d="M 12.4062,8.29688 H 28.5156 V 63.9219 L 10.9844,60.4062 v 8.9844 l 17.4375,3.5156 h 9.8593 V 8.29688 H 54.3906 V 0 H 12.4062 Z"
         id="DejaVuSans-31"
         inkscape:connector-curvature="0"
         style="stroke-linecap:butt;stroke-linejoin:round" />
    </defs>
    <defs
       id="defs88">
      <path
         d="M 19.1875,8.29688 H 53.6094 V 0 H 7.32812 V 8.29688 Q 12.9375,14.1094 22.625,23.8906 q 9.7031,9.7969 12.1875,12.6406 4.7344,5.3126 6.6094,9 1.8906,3.6876 1.8906,7.25 0,5.8126 -4.0781,9.4688 -4.0782,3.6719 -10.625,3.6719 -4.6406,0 -9.7969,-1.6094 -5.1406,-1.6094 -11,-4.8906 v 9.9687 q 5.9531,2.3906 11.125,3.6094 5.1875,1.2188 9.4844,1.2188 11.3281,0 18.0625,-5.6719 6.7344,-5.6563 6.7344,-15.125 0,-4.5 -1.6876,-8.5313 Q 49.8594,40.875 45.4062,35.4062 44.1875,33.9844 37.6406,27.2188 31.1094,20.4531 19.1875,8.29688"
         id="DejaVuSans-32"
         inkscape:connector-curvature="0"
         style="stroke-linecap:butt;stroke-linejoin:round" />
    </defs>
    <defs
       id="defs107">
      <path
         d="M 40.5781,39.3125 Q 47.6562,37.7969 51.625,33 q 3.9844,-4.7812 3.9844,-11.8125 0,-10.7813 -7.4219,-16.70312 -7.4219,-5.90626 -21.0937,-5.90626 -4.5782,0 -9.4376,0.906255 Q 12.7969,0.390625 7.625,2.20312 v 9.51568 q 4.0938,-2.39068 8.9688,-3.60942 4.8906,-1.21876 10.2187,-1.21876 9.2656,0 14.125,3.65628 4.8594,3.6562 4.8594,10.6406 0,6.4531 -4.5157,10.0781 -4.5156,3.6406 -12.5624,3.6406 h -8.5 v 8.1094 h 8.8906 q 7.2656,0 11.125,2.9063 3.8594,2.9062 3.8594,8.375 0,5.6093 -3.9844,8.6093 -3.9688,3.0157 -11.3906,3.0157 -4.0626,0 -8.7032,-0.8907 -4.6406,-0.875 -10.2031,-2.7187 v 8.7813 q 5.625,1.5624 10.5313,2.3437 4.9062,0.7813 9.25,0.7813 11.2343,0 17.7656,-5.1094 6.5468,-5.0938 6.5468,-13.7813 0,-6.0625 -3.4687,-10.2343 -3.4687,-4.1719 -9.8594,-5.7813"
         id="DejaVuSans-33"
         inkscape:connector-curvature="0"
         style="stroke-linecap:butt;stroke-linejoin:round" />
    </defs>
    <defs
       id="defs126">
      <path
         d="M 37.7969,64.3125 12.8906,25.3906 h 24.9063 z m -2.5938,8.5937 H 47.6094 V 25.3906 H 58.0156 V 17.1875 H 47.6094 V 0 H 37.7969 V 17.1875 H 4.89062 v 9.5156 z"
         id="DejaVuSans-34"
         inkscape:connector-curvature="0"
         style="stroke-linecap:butt;stroke-linejoin:round" />
    </defs>
    <defs
       id="defs145">
      <path
         d="M 10.7969,72.9062 H 49.5156 V 64.5938 H 19.8281 V 46.7344 q 2.1407,0.7344 4.2813,1.0937 2.1562,0.3594 4.3125,0.3594 12.2031,0 19.3281,-6.6875 7.1406,-6.6875 7.1406,-18.1094 0,-11.7656 -7.3281,-18.29685 -7.3281,-6.51563 -20.6563,-6.51563 -4.5937,0 -9.3593,0.781255 -4.75,0.78125 -9.82815,2.343745 V 11.625 q 4.39065,-2.39062 9.07815,-3.5625 4.6875,-1.17188 9.9062,-1.17188 8.4531,0 13.375,4.43748 4.9375,4.4375 4.9375,12.0625 0,7.6094 -4.9375,12.0469 -4.9219,4.4531 -13.375,4.4531 -3.9531,0 -7.8906,-0.875 -3.9219,-0.875 -8.0156,-2.7344 z"
         id="DejaVuSans-35"
         inkscape:connector-curvature="0"
         style="stroke-linecap:butt;stroke-linejoin:round" />
    </defs>
    <defs
       id="defs164">
      <path
         d="m 33.0156,40.375 q -6.6406,0 -10.5312,-4.5469 -3.875,-4.5312 -3.875,-12.4375 0,-7.8594 3.875,-12.4375 3.8906,-4.56248 10.5312,-4.56248 6.6406,0 10.5156,4.56248 3.875,4.5781 3.875,12.4375 0,7.9063 -3.875,12.4375 -3.875,4.5469 -10.5156,4.5469 m 19.5782,30.9219 v -8.9844 q -3.7188,1.75 -7.5,2.6719 -3.7813,0.9375 -7.5,0.9375 -9.7657,0 -14.9219,-6.5938 -5.1407,-6.5937 -5.875,-19.9219 2.875,4.25 7.2187,6.5157 4.3594,2.2656 9.5782,2.2656 10.9843,0 17.3593,-6.6719 6.375,-6.6562 6.375,-18.125 0,-11.2344 -6.6406,-18.03122 -6.6406,-6.78126 -17.6719,-6.78126 -12.6562,0 -19.3437,9.6875 -6.68752,9.70318 -6.68752,28.10938 0,17.2812 8.20312,27.5625 8.2031,10.2813 22.0156,10.2813 3.7188,0 7.5,-0.7344 3.7813,-0.7344 7.8907,-2.1875"
         id="DejaVuSans-36"
         inkscape:connector-curvature="0"
         style="stroke-linecap:butt;stroke-linejoin:round" />
    </defs>
    <defs
       id="defs183">
      <path
         d="M 8.20312,72.9062 H 55.0781 V 68.7031 L 28.6094,0 H 18.3125 L 43.2188,64.5938 H 8.20312 Z"
         id="DejaVuSans-37"
         inkscape:connector-curvature="0"
         style="stroke-linecap:butt;stroke-linejoin:round" />
    </defs>
    <clipPath
       id="p5873ec822d"
       style="stroke-linecap:butt;stroke-linejoin:round">
      <rect
         height="352.79999"
         width="453.375"
         x="73.125"
         y="44.099998"
         id="rect364"
         style="stroke-linecap:butt;stroke-linejoin:round" />
    </clipPath>
  </defs>
  <path
     inkscape:connector-curvature="0"
     id="path20"
     style="fill:none;stroke:#000000;stroke-width:1.60000002;stroke-linecap:square;stroke-linejoin:miter;stroke-miterlimit:4;stroke-dasharray:none"
     d="M 47.619124,6.1223896 H 382.41912" />
  <path
     inkscape:connector-curvature="0"
     id="path23"
     style="fill:none;stroke:#000000;stroke-width:1.60000002;stroke-linecap:square;stroke-linejoin:miter;stroke-miterlimit:4;stroke-dasharray:none"
     d="M 382.41912,240.84239 V 6.1223896" />
  <path
     inkscape:connector-curvature="0"
     id="path26"
     style="fill:none;stroke:#000000;stroke-width:1.60000002;stroke-linecap:square;stroke-linejoin:miter;stroke-miterlimit:4;stroke-dasharray:none"
     d="M 47.619124,240.84239 V 6.1223896" />
  <path
     inkscape:connector-curvature="0"
     id="path29"
     style="fill:none;stroke:#000000;stroke-width:1.60000002;stroke-linecap:square;stroke-linejoin:miter;stroke-miterlimit:4;stroke-dasharray:none"
     d="M 47.619124,240.84239 H 382.41912" />
  <use
     style="stroke:#000000;stroke-width:0.5;stroke-linecap:butt;stroke-linejoin:round"
     x="54"
     xlink:href="#mc7db9fdffb"
     y="264.06"
     id="use39"
     width="100%"
     height="100%"
     transform="translate(-6.3808762,-23.21761)" />
  <use
     style="stroke:#000000;stroke-width:0.5;stroke-linecap:butt;stroke-linejoin:round"
     x="54"
     xlink:href="#m5a7d422ac3"
     y="29.34"
     id="use47"
     width="100%"
     height="100%"
     transform="translate(-6.3808762,-23.21761)" />
  <use
     style="stroke:#000000;stroke-width:0.5;stroke-linecap:butt;stroke-linejoin:round"
     x="388.79999"
     xlink:href="#mc7db9fdffb"
     y="264.06"
     id="use175"
     width="100%"
     height="100%"
     transform="translate(-6.3808762,-23.21761)" />
  <use
     style="stroke:#000000;stroke-width:0.5;stroke-linecap:butt;stroke-linejoin:round"
     x="388.79999"
     xlink:href="#m5a7d422ac3"
     y="29.34"
     id="use180"
     width="100%"
     height="100%"
     transform="translate(-6.3808762,-23.21761)" />
  <use
     height="100%"
     width="100%"
     y="0"
     x="0"
     style="stroke-linecap:butt;stroke-linejoin:round"
     id="use229"
     xlink:href="#DejaVuSans-20"
     transform="matrix(0.12,0,0,-0.12,227.0742,272.50802)" />
  <use
     height="100%"
     width="100%"
     y="0"
     x="0"
     style="stroke-linecap:butt;stroke-linejoin:round"
     id="use233"
     xlink:href="#DejaVuSans-20"
     transform="matrix(0.12,0,0,-0.12,236.46678,272.50802)" />
  <use
     style="stroke:#000000;stroke-width:0.5;stroke-linecap:butt;stroke-linejoin:round"
     x="54"
     xlink:href="#md7965d1ba0"
     y="264.06"
     id="use253"
     width="100%"
     height="100%"
     transform="translate(-6.3808762,-23.21761)" />
  <use
     style="stroke:#000000;stroke-width:0.5;stroke-linecap:butt;stroke-linejoin:round"
     x="388.79999"
     xlink:href="#md9a1c1a7cd"
     y="264.06"
     id="use261"
     width="100%"
     height="100%"
     transform="translate(-6.3808762,-23.21761)" />
  <use
     style="stroke:#000000;stroke-width:0.5;stroke-linecap:butt;stroke-linejoin:round"
     x="54"
     xlink:href="#md7965d1ba0"
     y="29.34"
     id="use336"
     width="100%"
     height="100%"
     transform="translate(-6.3808762,-23.21761)" />
  <use
     style="stroke:#000000;stroke-width:0.5;stroke-linecap:butt;stroke-linejoin:round"
     x="388.79999"
     xlink:href="#md9a1c1a7cd"
     y="29.34"
     id="use341"
     width="100%"
     height="100%"
     transform="translate(-6.3808762,-23.21761)" />
  <defs
     id="defs348">
    <clipPath
       id="p569a414ba0"
       style="stroke-linecap:butt;stroke-linejoin:round">
      <rect
         height="234.72"
         width="334.79999"
         x="54"
         y="29.34"
         id="rect351"
         style="stroke-linecap:butt;stroke-linejoin:round" />
    </clipPath>
  </defs>
  <path
     style="fill:none;fill-rule:evenodd;stroke:#575757;stroke-width:1.60000002;stroke-linecap:butt;stroke-linejoin:miter;stroke-miterlimit:4;stroke-dasharray:9.6, 3.2;stroke-dashoffset:0;stroke-opacity:1"
     d="M 54.456517,159.48318 H 322.3199"
     id="path3838"
     inkscape:connector-curvature="0"
     sodipodi:nodetypes="cc" />
  <path
     transform="matrix(0.9640321,0,0,1.0000652,-24.041135,-154.10516)"
     inkscape:connector-curvature="0"
     id="path20-8"
     style="fill:none;stroke:#d40000;stroke-width:2.44428205;stroke-linecap:square;stroke-linejoin:round;stroke-miterlimit:4;stroke-dasharray:none;stroke-opacity:1"
     d="m 73.125,391.86 53.797,-7.097 30.083,-7.097 21.789,-7.097 17.515,-7.098 14.901,-7.097 13.136,-7.097 11.863,-7.097 10.901,-7.097 10.149,-7.097 9.545,-7.097 9.049,-7.098 8.635,-7.097 8.282,-7.097 7.98,-7.097 7.717,-7.097 7.488,-7.097 7.284,-7.097 7.103,-7.098 6.941,-7.097 6.794,-7.097 6.663,-7.097 6.542,-7.097 6.432,-7.097 6.332,-7.097 6.238,-7.098 6.153,-7.097 6.073,-7.097 5.999,-7.097 5.931,-7.097 5.866,-7.097 5.806,-7.097 5.75,-7.098"
     clip-path="url(#p5873ec822d)"
     sodipodi:nodetypes="ccccccccccccccccccccccccccccccccc" />
  <g
     id="g1964"
     transform="translate(22.38644,16.061749)"
     style="stroke-linecap:butt;stroke-linejoin:round">
    <path
       inkscape:connector-curvature="0"
       id="path64"
       d="m 73.496459,225.38611 v -6.21704"
       style="fill:none;stroke:#000000;stroke-width:1.78489316;stroke-linecap:butt;stroke-linejoin:miter;stroke-dasharray:none" />
    <path
       inkscape:connector-curvature="0"
       id="path68"
       d="m 120.51461,225.38611 v -6.21704"
       style="fill:none;stroke:#000000;stroke-width:1.78489316;stroke-linecap:butt;stroke-linejoin:miter;stroke-dasharray:none" />
    <path
       inkscape:connector-curvature="0"
       id="path72"
       d="m 167.53278,225.38611 v -6.21704"
       style="fill:none;stroke:#000000;stroke-width:1.78489316;stroke-linecap:butt;stroke-linejoin:miter;stroke-dasharray:none" />
    <path
       inkscape:connector-curvature="0"
       id="path64-3"
       d="m 216.30675,224.8179 v -6.21704"
       style="fill:none;stroke:#000000;stroke-width:1.78489327;stroke-linecap:butt;stroke-linejoin:miter;stroke-dasharray:none" />
    <path
       inkscape:connector-curvature="0"
       id="path68-6"
       d="m 263.89311,224.8179 v -6.21704"
       style="fill:none;stroke:#000000;stroke-width:1.78489327;stroke-linecap:butt;stroke-linejoin:miter;stroke-dasharray:none" />
    <path
       inkscape:connector-curvature="0"
       id="path72-7"
       d="m 311.4795,224.8179 v -6.21704"
       style="fill:none;stroke:#000000;stroke-width:1.78489327;stroke-linecap:butt;stroke-linejoin:miter;stroke-dasharray:none" />
  </g>
  <path
     style="fill:none;stroke:#000000;stroke-width:1.78489292;stroke-linecap:butt;stroke-linejoin:miter;stroke-dasharray:none"
     d="m 48.021078,198.20691 h 6.435439"
     id="path112"
     inkscape:connector-curvature="0" />
  <path
     style="fill:none;stroke:#000000;stroke-width:1.78489292;stroke-linecap:butt;stroke-linejoin:miter;stroke-dasharray:none"
     d="m 48.021078,159.48318 h 6.435439"
     id="path116"
     inkscape:connector-curvature="0" />
  <path
     style="fill:none;stroke:#000000;stroke-width:1.78489292;stroke-linecap:butt;stroke-linejoin:miter;stroke-dasharray:none"
     d="m 48.021078,120.75946 h 6.435439"
     id="path120"
     inkscape:connector-curvature="0" />
  <path
     style="fill:none;stroke:#000000;stroke-width:1.78489304;stroke-linecap:butt;stroke-linejoin:miter;stroke-dasharray:none"
     d="m 47.625655,80.825181 h 6.435431"
     id="path116-5"
     inkscape:connector-curvature="0" />
  <path
     style="fill:none;stroke:#000000;stroke-width:1.78489304;stroke-linecap:butt;stroke-linejoin:miter;stroke-dasharray:none"
     d="m 47.823369,44.000567 h 6.435432"
     id="path116-5-3"
     inkscape:connector-curvature="0" />
  <g
     id="g1607">
    <text
       inkscape:transform-center-y="-1.473774"
       inkscape:transform-center-x="6.877612"
       id="text5330-93-1-6-5-8-1-1-7"
       y="242.25975"
       x="30.091581"
       style="font-style:normal;font-variant:normal;font-weight:normal;font-stretch:normal;line-height:0%;font-family:msbm10;-inkscape-font-specification:msbm10;letter-spacing:0px;word-spacing:0px;fill:#000000;fill-opacity:1;stroke:none;stroke-width:1px;stroke-linecap:butt;stroke-linejoin:miter;stroke-opacity:1"
       xml:space="preserve"><tspan
         y="242.25975"
         x="30.091581"
         style="font-style:normal;font-variant:normal;font-weight:normal;font-stretch:normal;font-size:16px;line-height:1.25;font-family:'Nimbus Roman No9 L';-inkscape-font-specification:'Nimbus Roman No9 L';stroke-linecap:butt;stroke-linejoin:round"
         id="tspan5332-4-8-7-3-3-4-4-1"
         sodipodi:role="line">$1$</tspan></text>
    <text
       id="text5330"
       y="256.73779"
       x="90.48085"
       style="font-style:normal;font-variant:normal;font-weight:normal;font-stretch:normal;line-height:0%;font-family:msbm10;-inkscape-font-specification:msbm10;letter-spacing:0px;word-spacing:0px;fill:#000000;fill-opacity:1;stroke:none;stroke-width:1px;stroke-linecap:butt;stroke-linejoin:miter;stroke-opacity:1"
       xml:space="preserve"><tspan
         y="256.73779"
         x="90.48085"
         style="font-style:normal;font-variant:normal;font-weight:normal;font-stretch:normal;font-size:16px;line-height:1.25;font-family:'Nimbus Roman No9 L';-inkscape-font-specification:'Nimbus Roman No9 L';stroke-linecap:butt;stroke-linejoin:round"
         id="tspan5332"
         sodipodi:role="line">$1$</tspan></text>
    <text
       id="text5330-4"
       y="256.73779"
       x="138.43774"
       style="font-style:normal;font-variant:normal;font-weight:normal;font-stretch:normal;line-height:0%;font-family:msbm10;-inkscape-font-specification:msbm10;letter-spacing:0px;word-spacing:0px;fill:#000000;fill-opacity:1;stroke:none;stroke-width:1px;stroke-linecap:butt;stroke-linejoin:miter;stroke-opacity:1"
       xml:space="preserve"><tspan
         y="256.73779"
         x="138.43774"
         style="font-style:normal;font-variant:normal;font-weight:normal;font-stretch:normal;font-size:16px;line-height:1.25;font-family:'Nimbus Roman No9 L';-inkscape-font-specification:'Nimbus Roman No9 L';stroke-linecap:butt;stroke-linejoin:round"
         id="tspan5332-0"
         sodipodi:role="line">$2$</tspan></text>
    <text
       id="text5330-9"
       y="256.51379"
       x="185.17244"
       style="font-style:normal;font-variant:normal;font-weight:normal;font-stretch:normal;line-height:0%;font-family:msbm10;-inkscape-font-specification:msbm10;letter-spacing:0px;word-spacing:0px;fill:#000000;fill-opacity:1;stroke:none;stroke-width:1px;stroke-linecap:butt;stroke-linejoin:miter;stroke-opacity:1"
       xml:space="preserve"><tspan
         y="256.51379"
         x="185.17244"
         style="font-style:normal;font-variant:normal;font-weight:normal;font-stretch:normal;font-size:16px;line-height:1.25;font-family:'Nimbus Roman No9 L';-inkscape-font-specification:'Nimbus Roman No9 L';stroke-linecap:butt;stroke-linejoin:round"
         id="tspan5332-04"
         sodipodi:role="line">$3$</tspan></text>
    <text
       id="text5330-5"
       y="256.73779"
       x="233.61287"
       style="font-style:normal;font-variant:normal;font-weight:normal;font-stretch:normal;line-height:0%;font-family:msbm10;-inkscape-font-specification:msbm10;letter-spacing:0px;word-spacing:0px;fill:#000000;fill-opacity:1;stroke:none;stroke-width:1px;stroke-linecap:butt;stroke-linejoin:miter;stroke-opacity:1"
       xml:space="preserve"><tspan
         y="256.73779"
         x="233.61287"
         style="font-style:normal;font-variant:normal;font-weight:normal;font-stretch:normal;font-size:16px;line-height:1.25;font-family:'Nimbus Roman No9 L';-inkscape-font-specification:'Nimbus Roman No9 L';stroke-linecap:butt;stroke-linejoin:round"
         id="tspan5332-8"
         sodipodi:role="line">$4$</tspan></text>
    <text
       id="text5330-93"
       y="256.51379"
       x="282.41495"
       style="font-style:normal;font-variant:normal;font-weight:normal;font-stretch:normal;line-height:0%;font-family:msbm10;-inkscape-font-specification:msbm10;letter-spacing:0px;word-spacing:0px;fill:#000000;fill-opacity:1;stroke:none;stroke-width:1px;stroke-linecap:butt;stroke-linejoin:miter;stroke-opacity:1"
       xml:space="preserve"><tspan
         y="256.51379"
         x="282.41495"
         style="font-style:normal;font-variant:normal;font-weight:normal;font-stretch:normal;font-size:16px;line-height:1.25;font-family:'Nimbus Roman No9 L';-inkscape-font-specification:'Nimbus Roman No9 L';stroke-linecap:butt;stroke-linejoin:round"
         id="tspan5332-4"
         sodipodi:role="line">$5$</tspan></text>
    <text
       id="text5330-2"
       y="256.51379"
       x="329.45325"
       style="font-style:normal;font-variant:normal;font-weight:normal;font-stretch:normal;line-height:0%;font-family:msbm10;-inkscape-font-specification:msbm10;letter-spacing:0px;word-spacing:0px;fill:#000000;fill-opacity:1;stroke:none;stroke-width:1px;stroke-linecap:butt;stroke-linejoin:miter;stroke-opacity:1"
       xml:space="preserve"><tspan
         y="256.51379"
         x="329.45325"
         style="font-style:normal;font-variant:normal;font-weight:normal;font-stretch:normal;font-size:16px;line-height:1.25;font-family:'Nimbus Roman No9 L';-inkscape-font-specification:'Nimbus Roman No9 L';stroke-linecap:butt;stroke-linejoin:round"
         id="tspan5332-81"
         sodipodi:role="line">$6$</tspan></text>
    <text
       id="text5330-0"
       y="256.51379"
       x="42.327885"
       style="font-style:normal;font-variant:normal;font-weight:normal;font-stretch:normal;line-height:0%;font-family:msbm10;-inkscape-font-specification:msbm10;letter-spacing:0px;word-spacing:0px;fill:#000000;fill-opacity:1;stroke:none;stroke-width:1px;stroke-linecap:butt;stroke-linejoin:miter;stroke-opacity:1"
       xml:space="preserve"><tspan
         y="256.51379"
         x="42.327885"
         style="font-style:normal;font-variant:normal;font-weight:normal;font-stretch:normal;font-size:16px;line-height:1.25;font-family:'Nimbus Roman No9 L';-inkscape-font-specification:'Nimbus Roman No9 L';stroke-linecap:butt;stroke-linejoin:round"
         id="tspan5332-45"
         sodipodi:role="line">$0$</tspan></text>
    <text
       id="text5330-7"
       y="203.0629"
       x="23.346296"
       style="font-style:normal;font-variant:normal;font-weight:normal;font-stretch:normal;line-height:0%;font-family:msbm10;-inkscape-font-specification:msbm10;letter-spacing:0px;word-spacing:0px;fill:#000000;fill-opacity:1;stroke:none;stroke-width:1px;stroke-linecap:butt;stroke-linejoin:miter;stroke-opacity:1"
       xml:space="preserve"><tspan
         y="203.0629"
         x="23.346296"
         style="font-style:normal;font-variant:normal;font-weight:normal;font-stretch:normal;font-size:16px;line-height:1.25;font-family:'Nimbus Roman No9 L';-inkscape-font-specification:'Nimbus Roman No9 L';stroke-linecap:butt;stroke-linejoin:round"
         id="tspan5332-2"
         sodipodi:role="line">$10$</tspan></text>
    <text
       id="text5330-4-2"
       y="163.39351"
       x="23.042299"
       style="font-style:normal;font-variant:normal;font-weight:normal;font-stretch:normal;line-height:0%;font-family:msbm10;-inkscape-font-specification:msbm10;letter-spacing:0px;word-spacing:0px;fill:#000000;fill-opacity:1;stroke:none;stroke-width:1px;stroke-linecap:butt;stroke-linejoin:miter;stroke-opacity:1"
       xml:space="preserve"><tspan
         y="163.39351"
         x="23.042299"
         style="font-style:normal;font-variant:normal;font-weight:normal;font-stretch:normal;font-size:16px;line-height:1.25;font-family:'Nimbus Roman No9 L';-inkscape-font-specification:'Nimbus Roman No9 L';stroke-linecap:butt;stroke-linejoin:round"
         id="tspan5332-0-1"
         sodipodi:role="line">$20$</tspan></text>
    <text
       id="text5330-9-6"
       y="124.74467"
       x="22.834299"
       style="font-style:normal;font-variant:normal;font-weight:normal;font-stretch:normal;line-height:0%;font-family:msbm10;-inkscape-font-specification:msbm10;letter-spacing:0px;word-spacing:0px;fill:#000000;fill-opacity:1;stroke:none;stroke-width:1px;stroke-linecap:butt;stroke-linejoin:miter;stroke-opacity:1"
       xml:space="preserve"><tspan
         y="124.74467"
         x="22.834299"
         style="font-style:normal;font-variant:normal;font-weight:normal;font-stretch:normal;font-size:16px;line-height:1.25;font-family:'Nimbus Roman No9 L';-inkscape-font-specification:'Nimbus Roman No9 L';stroke-linecap:butt;stroke-linejoin:round"
         id="tspan5332-04-2"
         sodipodi:role="line">$30$</tspan></text>
    <text
       id="text5330-5-7"
       y="86.56546"
       x="23.330297"
       style="font-style:normal;font-variant:normal;font-weight:normal;font-stretch:normal;line-height:0%;font-family:msbm10;-inkscape-font-specification:msbm10;letter-spacing:0px;word-spacing:0px;fill:#000000;fill-opacity:1;stroke:none;stroke-width:1px;stroke-linecap:butt;stroke-linejoin:miter;stroke-opacity:1"
       xml:space="preserve"><tspan
         y="86.56546"
         x="23.330297"
         style="font-style:normal;font-variant:normal;font-weight:normal;font-stretch:normal;font-size:16px;line-height:1.25;font-family:'Nimbus Roman No9 L';-inkscape-font-specification:'Nimbus Roman No9 L';stroke-linecap:butt;stroke-linejoin:round"
         id="tspan5332-8-8"
         sodipodi:role="line">$40$</tspan></text>
    <text
       id="text5330-93-1-3"
       y="49.005421"
       x="23.010298"
       style="font-style:normal;font-variant:normal;font-weight:normal;font-stretch:normal;line-height:0%;font-family:msbm10;-inkscape-font-specification:msbm10;letter-spacing:0px;word-spacing:0px;fill:#000000;fill-opacity:1;stroke:none;stroke-width:1px;stroke-linecap:butt;stroke-linejoin:miter;stroke-opacity:1"
       xml:space="preserve"><tspan
         y="49.005421"
         x="23.010298"
         style="font-style:normal;font-variant:normal;font-weight:normal;font-stretch:normal;font-size:16px;line-height:1.25;font-family:'Nimbus Roman No9 L';-inkscape-font-specification:'Nimbus Roman No9 L';stroke-linecap:butt;stroke-linejoin:round"
         id="tspan5332-4-8-6"
         sodipodi:role="line">$50$</tspan></text>
    <text
       id="text3454"
       y="256.12091"
       x="374.19846"
       style="font-style:normal;font-variant:normal;font-weight:normal;font-stretch:normal;line-height:0%;font-family:'Nimbus Sans L';-inkscape-font-specification:Sans;letter-spacing:0px;word-spacing:0px;fill:#000000;fill-opacity:1;stroke:none;stroke-width:1px;stroke-linecap:butt;stroke-linejoin:miter;stroke-opacity:1"
       xml:space="preserve"><tspan
         y="256.12091"
         x="374.19846"
         style="font-size:12px;line-height:1.25;stroke-linecap:butt;stroke-linejoin:round"
         id="tspan3456"
         sodipodi:role="line">$G\,z$</tspan></text>
    <text
       id="text4258"
       y="29.970957"
       x="-0.39067045"
       style="font-style:normal;font-variant:normal;font-weight:normal;font-stretch:normal;line-height:0%;font-family:'Nimbus Sans L';-inkscape-font-specification:Sans;letter-spacing:0px;word-spacing:0px;fill:#000000;fill-opacity:1;stroke:none;stroke-width:1px;stroke-linecap:butt;stroke-linejoin:miter;stroke-opacity:1"
       xml:space="preserve"><tspan
         y="29.970957"
         x="-0.39067045"
         style="font-size:12px;line-height:1.25;stroke-linecap:butt;stroke-linejoin:round"
         id="tspan4260"
         sodipodi:role="line">$j/j_0$</tspan></text>
    <text
       id="text4258-3"
       y="163.26508"
       x="321.5463"
       style="font-style:normal;font-variant:normal;font-weight:normal;font-stretch:normal;line-height:0%;font-family:'Nimbus Sans L';-inkscape-font-specification:Sans;letter-spacing:0px;word-spacing:0px;fill:#000000;fill-opacity:1;stroke:none;stroke-width:1px;stroke-linecap:butt;stroke-linejoin:miter;stroke-opacity:1"
       xml:space="preserve"><tspan
         y="163.26508"
         x="321.5463"
         style="font-size:12px;line-height:1.25;stroke-linecap:butt;stroke-linejoin:round"
         id="tspan4260-6"
         sodipodi:role="line">$j_s/j_0$</tspan></text>
    <text
       id="text5330-93-1-3-7"
       y="11.632"
       x="22.43635"
       style="font-style:normal;font-variant:normal;font-weight:normal;font-stretch:normal;line-height:0%;font-family:msbm10;-inkscape-font-specification:msbm10;letter-spacing:0px;word-spacing:0px;fill:#000000;fill-opacity:1;stroke:none;stroke-width:1px;stroke-linecap:butt;stroke-linejoin:miter;stroke-opacity:1"
       xml:space="preserve"><tspan
         y="11.632"
         x="22.43635"
         style="font-style:normal;font-variant:normal;font-weight:normal;font-stretch:normal;font-size:16px;line-height:1.25;font-family:'Nimbus Roman No9 L';-inkscape-font-specification:'Nimbus Roman No9 L';stroke-linecap:butt;stroke-linejoin:round"
         id="tspan5332-4-8-6-5"
         sodipodi:role="line">$60$</tspan></text>
  </g>
</svg>
