<?xml version="1.0" encoding="UTF-8" standalone="no"?>
<!-- generated by Grace-5.1.25 -->

<svg
   xmlns:dc="http://purl.org/dc/elements/1.1/"
   xmlns:cc="http://creativecommons.org/ns#"
   xmlns:rdf="http://www.w3.org/1999/02/22-rdf-syntax-ns#"
   xmlns:svg="http://www.w3.org/2000/svg"
   xmlns="http://www.w3.org/2000/svg"
   xmlns:sodipodi="http://sodipodi.sourceforge.net/DTD/sodipodi-0.dtd"
   xmlns:inkscape="http://www.inkscape.org/namespaces/inkscape"
   xml:space="preserve"
   width="17.680677in"
   height="3.9530921in"
   viewBox="0 0 1273.0124 284.62379"
   id="svg2"
   version="1.1"
   inkscape:version="0.92.3 (2405546, 2018-03-11)"
   sodipodi:docname="05_Lamb.svg"><sodipodi:namedview
   pagecolor="#ffffff"
   bordercolor="#666666"
   borderopacity="1"
   objecttolerance="10"
   gridtolerance="10"
   guidetolerance="10"
   inkscape:pageopacity="0"
   inkscape:pageshadow="2"
   inkscape:window-width="1691"
   inkscape:window-height="841"
   id="namedview224"
   showgrid="false"
   inkscape:zoom="0.64412367"
   inkscape:cx="743.60459"
   inkscape:cy="192.72475"
   inkscape:window-x="227"
   inkscape:window-y="58"
   inkscape:window-maximized="0"
   inkscape:current-layer="svg2"
   fit-margin-top="0"
   fit-margin-left="0"
   fit-margin-right="0"
   fit-margin-bottom="0" /><metadata
   id="metadata228"><rdf:RDF><cc:Work
       rdf:about=""><dc:format>image/svg+xml</dc:format><dc:type
         rdf:resource="http://purl.org/dc/dcmitype/StillImage" /><dc:title /></cc:Work></rdf:RDF></metadata><defs
   id="defs226"><marker
     inkscape:isstock="true"
     style="overflow:visible"
     id="marker1158"
     refX="0.0"
     refY="0.0"
     orient="auto"
     inkscape:stockid="Arrow1Mstart"><path
       transform="scale(0.4) translate(10,0)"
       style="fill-rule:evenodd;stroke:#000000;stroke-width:1pt;stroke-opacity:1;fill:#000000;fill-opacity:1"
       d="M 0.0,0.0 L 5.0,-5.0 L -12.5,0.0 L 5.0,5.0 L 0.0,0.0 z "
       id="path1156" /></marker><marker
     inkscape:stockid="Arrow1Mstart"
     orient="auto"
     refY="0.0"
     refX="0.0"
     id="Arrow1Mstart"
     style="overflow:visible"
     inkscape:isstock="true"
     inkscape:collect="always"><path
       id="path862"
       d="M 0.0,0.0 L 5.0,-5.0 L -12.5,0.0 L 5.0,5.0 L 0.0,0.0 z "
       style="fill-rule:evenodd;stroke:#575757;stroke-width:1pt;stroke-opacity:1;fill:#575757;fill-opacity:1"
       transform="scale(0.4) translate(10,0)" /></marker><marker
     inkscape:stockid="Arrow1Mend"
     orient="auto"
     refY="0.0"
     refX="0.0"
     id="marker1127"
     style="overflow:visible;"
     inkscape:isstock="true"><path
       id="path1125"
       d="M 0.0,0.0 L 5.0,-5.0 L -12.5,0.0 L 5.0,5.0 L 0.0,0.0 z "
       style="fill-rule:evenodd;stroke:#000000;stroke-width:1pt;stroke-opacity:1;fill:#000000;fill-opacity:1"
       transform="scale(0.4) rotate(180) translate(10,0)" /></marker><marker
     inkscape:stockid="Arrow1Mend"
     orient="auto"
     refY="0.0"
     refX="0.0"
     id="Arrow1Mend"
     style="overflow:visible;"
     inkscape:isstock="true"><path
       id="path852"
       d="M 0.0,0.0 L 5.0,-5.0 L -12.5,0.0 L 5.0,5.0 L 0.0,0.0 z "
       style="fill-rule:evenodd;stroke:#000000;stroke-width:1pt;stroke-opacity:1;fill:#000000;fill-opacity:1"
       transform="scale(0.4) rotate(180) translate(10,0)" /></marker></defs><path
   style="fill:none;fill-rule:evenodd;stroke:#000000;stroke-width:1.59975658;stroke-linecap:butt;stroke-linejoin:miter;stroke-miterlimit:4;stroke-dasharray:none;stroke-opacity:1;marker-end:url(#Arrow1Mend)"
   d="M 0.21287373,254.65206 594.31433,253.79354"
   id="path4447"
   inkscape:connector-curvature="0" /><path
   style="fill:none;fill-rule:evenodd;stroke:#000001;stroke-width:1.59975668;stroke-linecap:butt;stroke-linejoin:miter;stroke-miterlimit:4;stroke-dasharray:none;stroke-dashoffset:0;stroke-opacity:1;marker-start:url(#Arrow1Mstart)"
   d="m 299.17668,3.1014623 0,256.2743277"
   id="path3838"
   inkscape:connector-curvature="0"
   sodipodi:nodetypes="cc" /><path
   style="fill:none;fill-rule:evenodd;stroke:#575757;stroke-width:1.60000646;stroke-linecap:butt;stroke-linejoin:miter;stroke-miterlimit:4;stroke-dasharray:9.6000385, 3.20001283;stroke-dashoffset:0;stroke-opacity:1"
   d="m 224.40462,87.569862 0,172.138738"
   id="path3838-3"
   inkscape:connector-curvature="0"
   sodipodi:nodetypes="cc" /><path
   style="fill:none;fill-rule:evenodd;stroke:#000000;stroke-width:1.60000646;stroke-linecap:butt;stroke-linejoin:miter;stroke-miterlimit:4;stroke-dasharray:none;stroke-opacity:1;marker-end:url(#marker1127)"
   d="m 632.7086,254.73207 594.1019,-0.85852"
   id="path4447-7"
   inkscape:connector-curvature="0"
   sodipodi:nodetypes="cc" /><path
   style="fill:none;fill-rule:evenodd;stroke:#000000;stroke-width:1.60000649;stroke-linecap:butt;stroke-linejoin:miter;stroke-miterlimit:4;stroke-dasharray:none;stroke-dashoffset:0;stroke-opacity:1;marker-start:url(#marker1158)"
   d="m 930.0724,3.181477 0,256.274323"
   id="path3838-5"
   inkscape:connector-curvature="0"
   sodipodi:nodetypes="cc" /><path
   style="fill:none;fill-rule:evenodd;stroke:#575757;stroke-width:1.60000646;stroke-linecap:butt;stroke-linejoin:miter;stroke-miterlimit:4;stroke-dasharray:9.6000387, 3.2000129;stroke-dashoffset:0;stroke-opacity:1"
   d="m 372.52179,87.646288 0,172.138712"
   id="path3838-3-6"
   inkscape:connector-curvature="0"
   sodipodi:nodetypes="cc" /><rect
   style="opacity:1;fill:none;fill-opacity:0.98809521;fill-rule:nonzero;stroke:#d40000;stroke-width:0;stroke-linecap:butt;stroke-linejoin:round;stroke-miterlimit:4;stroke-dasharray:none;stroke-dashoffset:0;stroke-opacity:1"
   id="rect4161"
   width="397.49857"
   height="130.49628"
   x="2.5748031"
   y="121.50343" /><path
   id="path4273"
   title="exp(-(x)*(x))*(1-0.001/((x+0.5)*(x+0.5)+0.002)-0.001/((x-0.5)*(x-0.5)+0.002))"
   d=" M 3.4333317 248.740907669 C 5.42211089192 248.519122979 7.41089008384 248.28168805 9.39966927576 248.026731312 C 11.3884484677 247.771774573 13.3772276596 247.499221662 15.3660068515 247.207171069 C 17.3547860434 246.915120475 19.3435652354 246.603454211 21.3323444273 246.270153063 C 23.3211236192 245.936851915 25.3099028111 245.581784818 27.298682003 245.202824334 C 29.287461195 244.82386385 31.2762403869 244.420865091 33.2650195788 243.991605408 C 35.2537987707 243.562345726 37.2425779626 243.106665736 39.2313571545 242.622264436 C 41.2201363465 242.137863135 43.2089155384 241.624566074 45.1976947303 241.080014859 C 47.1864739222 240.535463644 49.1752531141 239.959468315 51.1640323061 239.349638371 C 53.152811498 238.739808426 55.1415906899 238.095938109 57.1303698818 237.415634557 C 59.1191490737 236.735331005 61.1079282657 236.018372557 63.0967074576 235.262398261 C 65.0854866495 234.506423964 67.0742658414 233.711196362 69.0630450333 232.874425181 C 71.0518242253 232.037654 73.0406034172 231.159086332 75.0293826091 230.236545725 C 77.018161801 229.314005118 79.0069409929 228.347223828 80.9957201848 227.334186508 C 82.9844993768 226.321149188 84.9732785687 225.261574168 86.9620577606 224.15365831 C 88.9508369525 223.045742453 90.9396161444 221.889191387 92.9283953364 220.682468705 C 94.9171745283 219.475746023 96.9059537202 218.218546217 98.8947329121 216.909657071 C 100.883512104 215.600767925 102.872291296 214.239874714 104.861070488 212.826149355 C 106.84984968 211.412423997 108.838628872 209.945544827 110.827408064 208.425129922 C 112.816187256 206.904715016 114.804966447 205.330438419 116.793745639 203.702428283 C 118.782524831 202.074418147 120.771304023 200.392347231 122.760083215 198.656919835 C 124.748862407 196.921492439 126.737641599 195.132383388 128.726420791 193.290942441 C 130.715199983 191.449501495 132.703979175 189.555409201 134.692758367 187.610735929 C 136.681537559 185.666062657 138.670316751 183.670498569 140.659095942 181.626921009 C 142.647875134 179.583343449 144.636654326 177.49145618 146.625433518 175.355051594 C 148.61421271 173.218647008 150.602991902 171.037446259 152.591771094 168.816306927 C 154.580550286 166.595167594 156.569329478 164.333831157 158.55810867 162.038452558 C 160.546887862 159.743073958 162.535667054 157.41341554 164.524446245 155.05732493 C 166.513225437 152.701234321 168.502004629 150.318488945 170.490783821 147.919360138 C 172.479563013 145.52023133 174.468342205 143.104488805 176.457121397 140.686284396 C 178.445900589 138.268079988 180.434679781 135.847104421 182.423458973 133.44452377 C 184.412238165 131.041943119 186.401017357 128.657147305 188.389796548 126.325671638 C 190.37857574 123.994195972 192.367354932 121.714386549 194.356134124 119.555343283 C 196.344913316 117.396300017 198.333692508 115.352523523 200.3224717 113.58386065 C 202.311250892 111.815197777 204.300030084 110.300194749 206.288809276 109.489180461 C 208.277588468 108.678166173 210.26636766 108.480855357 212.255146852 110.436511666 C 214.243926043 112.392167975 216.232705235 116.524965754 218.221484427 127.044880588 C 220.210263619 137.564795423 222.199042811 160.179437104 224.187822003 164.786940426 C 226.176601195 169.394443748 228.165380387 145.479557867 230.154159579 127.569626403 C 232.142938771 109.659694939 234.131717963 97.7352450434 236.120497155 89.4701914424 C 238.109276346 81.2051378414 240.098055538 75.9139026599 242.08683473 71.5151646739 C 244.075613922 67.1164266879 246.064393114 63.7375664574 248.053172306 60.7696980543 C 250.041951498 57.8018296512 252.03073069 55.2810415172 254.019509882 53.0059967634 C 256.008289074 50.7309520096 257.997068266 48.7121841729 259.985847458 46.8731874927 C 261.974626649 45.0341908126 263.963405841 43.3788985402 265.952185033 41.8754015681 C 267.940964225 40.371904596 269.929743417 39.0221560078 271.918522609 37.8121807393 C 273.907301801 36.6022054709 275.896080993 35.5332716018 277.884860185 34.5991584988 C 279.873639377 33.6650453958 281.862418569 32.8667561269 283.851197761 32.2014862346 C 285.839976953 31.5362163422 287.828756144 31.0048567457 289.817535336 30.6060230593 C 291.806314528 30.2071893729 293.79509372 29.9417200635 295.783872912 29.8087137875 C 297.772652104 29.6757075114 299.761431296 29.6759732659 301.750210488 29.8087137875 C 303.73898968 29.941454309 305.727768872 30.207455347 307.716548064 30.6060230593 C 309.705327256 31.0045907716 311.694106447 31.5364835153 313.682885639 32.2014862346 C 315.671664831 32.8664889539 317.660444023 33.6653166252 319.649223215 34.5991584988 C 321.638002407 35.5330003724 323.626781599 36.602487616 325.615560791 37.8121807393 C 327.604339983 39.0218738626 329.593119175 40.3722132295 331.581898367 41.8754015681 C 333.570677559 43.3785899068 335.559456751 45.0345620199 337.548235942 46.8731874927 C 339.537015134 48.7118129656 341.525794326 50.7314758657 343.514573518 53.0059967634 C 345.50335271 55.2805176612 347.492131902 57.8027597405 349.480911094 60.7696980543 C 351.469690286 63.7366363681 353.458469478 67.1185962738 355.44724867 71.5151646739 C 357.436027862 75.9117330741 359.424807054 81.211526873 361.413586245 89.4701914424 C 363.402365437 97.7288560118 365.391144629 109.668601552 367.379923821 127.569626403 C 369.368703013 145.470651254 371.357482205 169.35105764 373.346261397 164.786940426 C 375.335040589 160.222823212 377.323819781 137.577296013 379.312598973 127.044880588 C 381.301378165 116.512465164 383.290157357 112.396859564 385.278936548 110.436511666 C 387.26771574 108.476163768 389.256494932 108.679675005 391.245274124 109.489180461 C 393.234053316 110.298685917 395.222832508 111.815777296 397.2116117 113.58386065 C 399.200390892 115.351944004 401.189170084 117.39655169 403.177949276 119.555343283 C 405.166728468 121.714134876 407.15550766 123.994306676 409.144286852 126.325671638 C 411.133066043 128.657036601 413.121845235 131.041981722 415.110624427 133.44452377 C 417.099403619 135.847065818 419.088182811 138.268075927 421.076962003 140.686284396 C 423.065741195 143.104492866 425.054520387 145.520198976 427.043299579 147.919360138 C 429.032078771 150.318521299 431.020857963 152.701181633 433.009637155 155.05732493 C 434.998416346 157.413468228 436.987195538 159.743005913 438.97597473 162.038452558 C 440.964753922 164.333899202 442.953533114 166.59508767 444.942312306 168.816306927 C 446.931091498 171.037526183 448.91987069 173.218557869 450.908649882 175.355051594 C 452.897429074 177.491545319 454.886208266 179.583247275 456.874987458 181.626921009 C 458.863766649 183.670594743 460.852545841 185.665961317 462.841325033 187.610735929 C 464.830104225 189.55551054 466.818883417 191.449396631 468.807662609 193.290942441 C 470.796441801 195.132488252 472.785220993 196.921385507 474.774000185 198.656919835 C 476.762779377 200.392454162 478.751558569 202.074310449 480.740337761 203.702428283 C 482.729116953 205.330546118 484.717896144 206.904607704 486.706675336 208.425129922 C 488.695454528 209.945652139 490.68423372 211.412318086 492.673012912 212.826149355 C 494.661792104 214.239980624 496.650571296 215.600664297 498.639350488 216.909657071 C 500.62812968 218.218649845 502.616908872 219.47564543 504.605688064 220.682468705 C 506.594467256 221.88929198 508.583246447 223.045645523 510.572025639 224.15365831 C 512.560804831 225.261671097 514.549584023 226.321056432 516.538363215 227.334186508 C 518.527142407 228.347316584 520.515921599 229.313916933 522.504700791 230.236545725 C 524.493479983 231.159174516 526.482259175 232.037570681 528.471038367 232.874425181 C 530.459817559 233.71127968 532.448596751 234.50634571 534.437375942 235.262398261 C 536.426155134 236.018450812 538.414934326 236.735257925 540.403713518 237.415634557 C 542.39249271 238.09601119 544.381271902 238.739740554 546.370051094 239.349638371 C 548.358830286 239.959536188 550.347609478 240.535400943 552.33638867 241.080014859 C 554.325167862 241.624628775 556.313947054 242.137805511 558.302726245 242.622264436 C 560.291505437 243.10672336 562.280284629 243.562293034 564.269063821 243.991605408 C 566.257843013 244.420917783 568.246622205 244.823815905 570.235401397 245.202824334 C 572.224180589 245.581832763 574.212959781 245.936808498 576.201738973 246.270153063 C 578.190518165 246.603497628 580.179297357 246.915081344 582.168076548 247.207171069 C 584.15685574 247.499260793 586.145634932 247.771739468 588.134414124 248.026731312 C 590.123193316 248.281723156 592.111972508 248.519122979 594.1007517 248.740907669"
   style="opacity:1;fill:none;fill-opacity:0.98809521;fill-rule:nonzero;stroke:#d40000;stroke-width:3.20001292;stroke-linecap:butt;stroke-linejoin:round;stroke-miterlimit:4;stroke-dasharray:none;stroke-dashoffset:0;stroke-opacity:1" /><path
   id="path4411"
   title="exp(-(x)*(x))*(1-0.000/((x+0.0)*(x+0.0)+0.002)-0.001/((x-0.0)*(x-0.0)+0.002))"
   d="m 638.89542,248.74091 c 1.95988,-0.22781 3.91976,-0.47171 5.87964,-0.73361 1.95987,-0.2619 3.91975,-0.54188 5.87963,-0.8419 1.95988,-0.30001 3.91976,-0.62019 5.87963,-0.96259 1.95988,-0.34241 3.91976,-0.70718 5.87964,-1.09651 1.95987,-0.38933 3.91975,-0.80336 5.87963,-1.24439 1.95988,-0.44103 3.91975,-0.90921 5.87964,-1.40692 1.95987,-0.49771 3.91975,-1.02512 5.87962,-1.58467 1.95989,-0.55955 3.91976,-1.15142 5.87964,-1.77809 1.95987,-0.62667 3.91976,-1.28835 5.87963,-1.9875 1.95988,-0.69915 3.91975,-1.436 5.87964,-2.21299 1.95988,-0.77699 3.91975,-1.59437 5.87962,-2.4545 1.95989,-0.86014 3.91977,-1.76328 5.87964,-2.7117 1.95987,-0.94843 3.91976,-1.9424 5.87964,-2.98401 1.95987,-1.04162 3.91975,-2.13118 5.87963,-3.27056 1.95988,-1.13938 3.91975,-2.32889 5.87964,-3.57016 1.95987,-1.24126 3.91975,-2.5346 5.87962,-3.88131 1.95989,-1.34671 3.91976,-2.74711 5.87963,-4.20215 1.95987,-1.45504 3.91975,-2.96504 5.87962,-4.5305 1.95987,-1.56546 3.91974,-3.18672 5.87962,-4.86378 1.95987,-1.67706 3.91974,-3.41026 5.87961,-5.19906 1.95988,-1.78881 3.91975,-3.63357 5.87962,-5.53313 1.95987,-1.89957 3.91975,-3.85429 5.87962,-5.86238 1.95987,-2.0081 3.91974,-4.0699 5.87962,-6.18296 1.95987,-2.11305 3.91974,-4.27768 5.87961,-6.49072 1.95988,-2.21303 3.91975,-4.47477 5.87962,-6.78133 1.95987,-2.30655 3.91975,-4.65819 5.87962,-7.05028 1.95987,-2.3921 3.91974,-4.82488 5.87962,-7.29297 1.95987,-2.4681 3.91974,-4.97171 5.87961,-7.50473 1.95988,-2.53302 3.91975,-5.09561 5.87962,-7.68093 1.95988,-2.58533 3.91975,-5.19352 5.87962,-7.81705 1.95987,-2.62353 3.91975,-5.2625 5.87962,-7.90872 1.95987,-2.64622 3.91974,-5.29974 5.87962,-7.95179 1.95987,-2.65205 3.91974,-5.30262 5.87961,-7.9424 1.95988,-2.63978 3.91975,-5.268706 5.87962,-7.876977 1.95987,-2.608278 3.91975,-5.195782 5.87962,-7.752281 1.95987,-2.556499 3.91974,-5.081806 5.87962,-7.56527 1.95987,-2.483463 3.91974,-4.924835 5.87961,-7.313011 1.95988,-2.388176 3.91975,-4.722849 5.87962,-6.992334 1.95987,-2.269485 3.91975,-4.473419 5.87962,-6.599215 1.95987,-2.125797 3.91974,-4.17305 5.87962,-6.127584 1.95987,-1.954534 3.91974,-3.815926 5.87961,-5.566953 1.95988,-1.751026 3.91975,-3.39132 5.87962,-4.897464 1.95987,-1.506143 3.91975,-2.878026 5.87962,-4.078832 1.95987,-1.200806 3.91975,-2.231316 5.87962,-3.023361 1.95987,-0.792045 3.91974,-1.349526 5.87962,-1.522643 1.95987,-0.173116 3.91974,0.02208 5.87961,0.980099 1.95988,0.958014 3.91975,2.610624 5.87962,6.214258 1.95987,3.603633 3.91975,8.973173 5.87962,20.328763 1.95987,11.355591 3.91974,32.955614 5.87962,54.551135 1.95987,21.59552 3.91974,21.58178 5.87961,0 1.95988,-21.581784 3.91975,-43.182855 5.87962,-54.551135 1.95987,-11.368279 3.91975,-16.720921 5.87962,-20.328763 1.95987,-3.607842 3.91974,-5.254635 5.87962,-6.214258 1.95987,-0.959623 3.91974,-1.15242 5.87961,-0.980099 1.95988,0.172322 3.91975,0.731085 5.87962,1.522643 1.95987,0.791558 3.91975,1.822902 5.87962,3.023361 1.95987,1.20046 3.91975,2.572959 5.87962,4.078832 1.95987,1.505873 3.91974,3.14666 5.87962,4.897464 1.95987,1.750805 3.91974,3.612605 5.87961,5.566953 1.95988,1.954347 3.91975,4.001944 5.87962,6.127584 1.95987,2.12564 3.91975,4.329861 5.87962,6.599215 1.95985,2.269354 3.91964,4.604265 5.87954,6.992334 1.9599,2.38807 3.9198,4.829632 5.8796,7.313011 1.9599,2.48338 3.9198,5.008833 5.8796,7.56527 1.9598,2.556437 3.9197,5.144044 5.8796,7.752281 1.9598,2.608231 3.9197,5.237217 5.8796,7.876977 1.9599,2.63976 3.9196,5.29036 5.8795,7.9424 1.9599,2.65205 3.9197,5.30556 5.8796,7.95179 1.9599,2.64624 3.9198,5.28515 5.8795,7.90872 1.9599,2.62356 3.9198,5.23168 5.8797,7.81705 1.9598,2.58537 3.9197,5.14785 5.8796,7.68093 1.9598,2.53307 3.9196,5.03656 5.8795,7.50473 1.9599,2.46816 3.9197,4.90079 5.8796,7.29297 1.9599,2.39217 3.9198,4.74364 5.8796,7.05028 1.9598,2.30665 3.9197,4.5682 5.8795,6.78133 1.9599,2.21314 3.9198,4.37756 5.8797,6.49072 1.9598,2.11316 3.9196,4.17475 5.8795,6.18296 1.9599,2.0082 3.9197,3.9627 5.8796,5.86238 1.9599,1.89967 3.9197,3.74421 5.8796,5.53313 1.9598,1.78891 3.9197,3.52189 5.8795,5.19906 1.9599,1.67717 3.9198,3.29821 5.8797,4.86378 1.9598,1.56557 3.9197,3.07535 5.8795,4.5305 1.9598,1.45515 3.9197,2.85534 5.8796,4.20215 1.9599,1.34682 3.9197,2.63994 5.8796,3.88131 1.9598,1.24137 3.9196,2.43068 5.8795,3.57016 1.9599,1.13948 3.9198,2.22884 5.8796,3.27056 1.9599,1.04171 3.9198,2.03549 5.8796,2.98401 1.9598,0.94851 3.9197,1.85148 5.8796,2.7117 1.9598,0.86022 3.9197,1.67743 5.8796,2.4545 1.9599,0.77707 3.9196,1.51377 5.8795,2.21299 1.9599,0.69923 3.9198,1.36076 5.8796,1.9875 1.9599,0.62674 3.9198,1.21848 5.8795,1.77809 1.9599,0.55961 3.9198,1.0869 5.8797,1.58467 1.9598,0.49777 3.9197,0.96584 5.8796,1.40692 1.9599,0.44108 3.9196,0.85501 5.8795,1.24439 1.9599,0.38938 3.9197,0.75406 5.8796,1.09651 1.9599,0.34245 3.9198,0.66254 5.8796,0.96259 1.9598,0.30006 3.9197,0.57996 5.8796,0.8419 1.9598,0.26194 3.9197,0.5058 5.8796,0.73361"
   style="opacity:1;fill:none;fill-opacity:0.98809521;fill-rule:nonzero;stroke:#d40000;stroke-width:3.20001292;stroke-linecap:butt;stroke-linejoin:round;stroke-miterlimit:4;stroke-dasharray:none;stroke-dashoffset:0;stroke-opacity:1"
   inkscape:connector-curvature="0" /><text
   xml:space="preserve"
   style="font-style:normal;font-variant:normal;font-weight:normal;font-stretch:normal;line-height:0%;font-family:'Nimbus Sans L';-inkscape-font-specification:Sans;letter-spacing:0px;word-spacing:0px;fill:#000000;fill-opacity:1;stroke:none;stroke-width:1px;stroke-linecap:butt;stroke-linejoin:miter;stroke-opacity:1"
   x="583.15344"
   y="276.90976"
   id="text3749"><tspan
     sodipodi:role="line"
     id="tspan3751"
     x="583.15344"
     y="276.90976"
     style="font-size:13.00005245px;line-height:1.25">$v_x$</tspan></text>


<text
   xml:space="preserve"
   style="font-style:normal;font-variant:normal;font-weight:normal;font-stretch:normal;line-height:0%;font-family:'Nimbus Sans L';-inkscape-font-specification:Sans;letter-spacing:0px;word-spacing:0px;fill:#000000;fill-opacity:1;stroke:none;stroke-width:1px;stroke-linecap:butt;stroke-linejoin:miter;stroke-opacity:1"
   x="307.42148"
   y="10.01004"
   id="text3749-6"><tspan
     sodipodi:role="line"
     id="tspan3751-7"
     x="307.42148"
     y="10.01004"
     style="font-size:13.00005245px;line-height:1.25">${\cal N}_1$</tspan></text>


<text
   xml:space="preserve"
   style="font-style:normal;font-variant:normal;font-weight:normal;font-stretch:normal;line-height:0%;font-family:'Nimbus Sans L';-inkscape-font-specification:Sans;letter-spacing:0px;word-spacing:0px;fill:#000000;fill-opacity:1;stroke:none;stroke-width:1px;stroke-linecap:butt;stroke-linejoin:miter;stroke-opacity:1"
   x="290.25192"
   y="281.70978"
   id="text3749-5"><tspan
     sodipodi:role="line"
     id="tspan3751-3"
     x="290.25192"
     y="281.70978"
     style="font-size:13.00005245px;line-height:1.25">$0$</tspan></text>


<text
   xml:space="preserve"
   style="font-style:normal;font-variant:normal;font-weight:normal;font-stretch:normal;line-height:0%;font-family:'Nimbus Sans L';-inkscape-font-specification:Sans;letter-spacing:0px;word-spacing:0px;fill:#000000;fill-opacity:1;stroke:none;stroke-width:1px;stroke-linecap:butt;stroke-linejoin:miter;stroke-opacity:1"
   x="177.96066"
   y="288.7598"
   id="text3749-5-5"><tspan
     sodipodi:role="line"
     id="tspan3751-3-6"
     x="177.96066"
     y="288.7598"
     style="font-size:13.00005245px;line-height:1.25">$\frac{\omega_0-\omega_S}{k}$</tspan></text>


<text
   xml:space="preserve"
   style="font-style:normal;font-variant:normal;font-weight:normal;font-stretch:normal;line-height:0%;font-family:'Nimbus Sans L';-inkscape-font-specification:Sans;letter-spacing:0px;word-spacing:0px;fill:#000000;fill-opacity:1;stroke:none;stroke-width:1px;stroke-linecap:butt;stroke-linejoin:miter;stroke-opacity:1"
   x="1215.6505"
   y="276.98978"
   id="text3749-56"><tspan
     sodipodi:role="line"
     id="tspan3751-2"
     x="1215.6505"
     y="276.98978"
     style="font-size:13.00005245px;line-height:1.25">$\omega_S$</tspan></text>


<text
   xml:space="preserve"
   style="font-style:normal;font-variant:normal;font-weight:normal;font-stretch:normal;line-height:0%;font-family:'Nimbus Sans L';-inkscape-font-specification:Sans;letter-spacing:0px;word-spacing:0px;fill:#000000;fill-opacity:1;stroke:none;stroke-width:1px;stroke-linecap:butt;stroke-linejoin:miter;stroke-opacity:1"
   x="939.9162"
   y="10.090055"
   id="text3749-6-9"><tspan
     sodipodi:role="line"
     id="tspan3751-7-1"
     x="939.9162"
     y="10.090055"
     style="font-size:13.00005245px;line-height:1.25">$\mu$</tspan></text>


<text
   xml:space="preserve"
   style="font-style:normal;font-variant:normal;font-weight:normal;font-stretch:normal;line-height:0%;font-family:'Nimbus Sans L';-inkscape-font-specification:Sans;letter-spacing:0px;word-spacing:0px;fill:#000000;fill-opacity:1;stroke:none;stroke-width:1px;stroke-linecap:butt;stroke-linejoin:miter;stroke-opacity:1"
   x="917.94647"
   y="281.78979"
   id="text3749-5-2"><tspan
     sodipodi:role="line"
     id="tspan3751-3-7"
     x="917.94647"
     y="281.78979"
     style="font-size:13.00005245px;line-height:1.25">$\omega_0$</tspan></text>


<text
   xml:space="preserve"
   style="font-style:normal;font-variant:normal;font-weight:normal;font-stretch:normal;line-height:0%;font-family:'Nimbus Sans L';-inkscape-font-specification:Sans;letter-spacing:0px;word-spacing:0px;fill:#000000;fill-opacity:1;stroke:none;stroke-width:1px;stroke-linecap:butt;stroke-linejoin:miter;stroke-opacity:1"
   x="330.61395"
   y="287.89697"
   id="text3749-5-5-6"><tspan
     sodipodi:role="line"
     id="tspan3751-3-6-0"
     x="330.61395"
     y="287.89697"
     style="font-size:13.00005341px;line-height:1.25">$\frac{\omega_S-\omega_0}{k}$</tspan></text>


<text
   xml:space="preserve"
   style="font-style:normal;font-variant:normal;font-weight:normal;font-stretch:normal;line-height:0%;font-family:'Nimbus Sans L';-inkscape-font-specification:Sans;letter-spacing:0px;word-spacing:0px;fill:#000000;fill-opacity:1;stroke:none;stroke-width:1px;stroke-linecap:butt;stroke-linejoin:miter;stroke-opacity:1"
   x="-0.82973921"
   y="34.095169"
   id="text3500"><tspan
     sodipodi:role="line"
     id="tspan3502"
     x="-0.82973921"
     y="34.095169"
     style="font-size:44.80018234px;line-height:1.25">a)</tspan></text>


<text
   xml:space="preserve"
   style="font-style:normal;font-variant:normal;font-weight:normal;font-stretch:normal;line-height:0%;font-family:'Nimbus Sans L';-inkscape-font-specification:Sans;letter-spacing:0px;word-spacing:0px;fill:#000000;fill-opacity:1;stroke:none;stroke-width:1px;stroke-linecap:butt;stroke-linejoin:miter;stroke-opacity:1"
   x="634.22473"
   y="34.095169"
   id="text3500-2"><tspan
     sodipodi:role="line"
     id="tspan3502-6"
     x="634.22473"
     y="34.095169"
     style="font-size:44.80018234px;line-height:1.25">b)</tspan></text>


</svg>