<?xml version="1.0" encoding="UTF-8" standalone="no"?>
<!-- generated by Grace-5.1.25 -->

<svg
   xmlns:dc="http://purl.org/dc/elements/1.1/"
   xmlns:cc="http://creativecommons.org/ns#"
   xmlns:rdf="http://www.w3.org/1999/02/22-rdf-syntax-ns#"
   xmlns:svg="http://www.w3.org/2000/svg"
   xmlns="http://www.w3.org/2000/svg"
   xmlns:sodipodi="http://sodipodi.sourceforge.net/DTD/sodipodi-0.dtd"
   xmlns:inkscape="http://www.inkscape.org/namespaces/inkscape"
   xml:space="preserve"
   width="17.680677in"
   height="3.9530921in"
   viewBox="0 0 1273.0124 284.62379"
   id="svg2"
   version="1.1"
   inkscape:version="0.91 r13725"
   sodipodi:docname="05_Lamb.svg"><sodipodi:namedview
     pagecolor="#ffffff"
     bordercolor="#666666"
     borderopacity="1"
     objecttolerance="10"
     gridtolerance="10"
     guidetolerance="10"
     inkscape:pageopacity="0"
     inkscape:pageshadow="2"
     inkscape:window-width="1691"
     inkscape:window-height="841"
     id="namedview224"
     showgrid="false"
     inkscape:zoom="1.2777955"
     inkscape:cx="774.91647"
     inkscape:cy="195.92347"
     inkscape:window-x="952"
     inkscape:window-y="58"
     inkscape:window-maximized="0"
     inkscape:current-layer="svg2"
     fit-margin-top="0"
     fit-margin-left="0"
     fit-margin-right="0"
     fit-margin-bottom="0" /><metadata
     id="metadata228"><rdf:RDF><cc:Work
         rdf:about=""><dc:format>image/svg+xml</dc:format><dc:type
           rdf:resource="http://purl.org/dc/dcmitype/StillImage" /><dc:title /></cc:Work></rdf:RDF></metadata><defs
     id="defs226" /><path
     style="fill:none;fill-rule:evenodd;stroke:#000000;stroke-width:1.60000646;stroke-linecap:butt;stroke-linejoin:miter;stroke-miterlimit:4;stroke-dasharray:none;stroke-opacity:1"
     d="M 0.21287373,254.65206 594.31433,253.79354"
     id="path4447"
     inkscape:connector-curvature="0" /><path
     style="fill:none;fill-rule:evenodd;stroke:#575757;stroke-width:1.60000646;stroke-linecap:butt;stroke-linejoin:miter;stroke-miterlimit:4;stroke-dasharray:9.60003845, 3.20001282;stroke-dashoffset:0;stroke-opacity:1"
     d="m 299.17668,3.1014623 0,256.2743277"
     id="path3838"
     inkscape:connector-curvature="0"
     sodipodi:nodetypes="cc" /><path
     style="fill:none;fill-rule:evenodd;stroke:#575757;stroke-width:1.60000646;stroke-linecap:butt;stroke-linejoin:miter;stroke-miterlimit:4;stroke-dasharray:9.6000385, 3.20001283;stroke-dashoffset:0;stroke-opacity:1"
     d="m 224.40462,87.569862 0,172.138738"
     id="path3838-3"
     inkscape:connector-curvature="0"
     sodipodi:nodetypes="cc" /><path
     style="fill:none;fill-rule:evenodd;stroke:#000000;stroke-width:1.60000646;stroke-linecap:butt;stroke-linejoin:miter;stroke-miterlimit:4;stroke-dasharray:none;stroke-opacity:1"
     d="m 632.7086,254.73207 594.1019,-0.85852"
     id="path4447-7"
     inkscape:connector-curvature="0"
     sodipodi:nodetypes="cc" /><path
     style="fill:none;fill-rule:evenodd;stroke:#575757;stroke-width:1.60000646;stroke-linecap:butt;stroke-linejoin:miter;stroke-miterlimit:4;stroke-dasharray:9.60003845, 3.20001282;stroke-dashoffset:0;stroke-opacity:1"
     d="m 930.0724,3.181477 0,256.274323"
     id="path3838-5"
     inkscape:connector-curvature="0"
     sodipodi:nodetypes="cc" /><path
     style="fill:none;fill-rule:evenodd;stroke:#575757;stroke-width:1.60000646;stroke-linecap:butt;stroke-linejoin:miter;stroke-miterlimit:4;stroke-dasharray:9.6000387, 3.2000129;stroke-dashoffset:0;stroke-opacity:1"
     d="m 372.52179,87.646288 0,172.138712"
     id="path3838-3-6"
     inkscape:connector-curvature="0"
     sodipodi:nodetypes="cc" /><rect
     style="opacity:1;fill:none;fill-opacity:0.98809521;fill-rule:nonzero;stroke:#d40000;stroke-width:0;stroke-linecap:butt;stroke-linejoin:round;stroke-miterlimit:4;stroke-dasharray:none;stroke-dashoffset:0;stroke-opacity:1"
     id="rect4161"
     width="397.49857"
     height="130.49628"
     x="2.5748031"
     y="121.50343" /><path
     id="path4273"
     title="exp(-(x)*(x))*(1-0.001/((x+0.5)*(x+0.5)+0.002)-0.001/((x-0.5)*(x-0.5)+0.002))"
     d=" M 3.4333317 248.740907669 C 5.42211089192 248.519122979 7.41089008384 248.28168805 9.39966927576 248.026731312 C 11.3884484677 247.771774573 13.3772276596 247.499221662 15.3660068515 247.207171069 C 17.3547860434 246.915120475 19.3435652354 246.603454211 21.3323444273 246.270153063 C 23.3211236192 245.936851915 25.3099028111 245.581784818 27.298682003 245.202824334 C 29.287461195 244.82386385 31.2762403869 244.420865091 33.2650195788 243.991605408 C 35.2537987707 243.562345726 37.2425779626 243.106665736 39.2313571545 242.622264436 C 41.2201363465 242.137863135 43.2089155384 241.624566074 45.1976947303 241.080014859 C 47.1864739222 240.535463644 49.1752531141 239.959468315 51.1640323061 239.349638371 C 53.152811498 238.739808426 55.1415906899 238.095938109 57.1303698818 237.415634557 C 59.1191490737 236.735331005 61.1079282657 236.018372557 63.0967074576 235.262398261 C 65.0854866495 234.506423964 67.0742658414 233.711196362 69.0630450333 232.874425181 C 71.0518242253 232.037654 73.0406034172 231.159086332 75.0293826091 230.236545725 C 77.018161801 229.314005118 79.0069409929 228.347223828 80.9957201848 227.334186508 C 82.9844993768 226.321149188 84.9732785687 225.261574168 86.9620577606 224.15365831 C 88.9508369525 223.045742453 90.9396161444 221.889191387 92.9283953364 220.682468705 C 94.9171745283 219.475746023 96.9059537202 218.218546217 98.8947329121 216.909657071 C 100.883512104 215.600767925 102.872291296 214.239874714 104.861070488 212.826149355 C 106.84984968 211.412423997 108.838628872 209.945544827 110.827408064 208.425129922 C 112.816187256 206.904715016 114.804966447 205.330438419 116.793745639 203.702428283 C 118.782524831 202.074418147 120.771304023 200.392347231 122.760083215 198.656919835 C 124.748862407 196.921492439 126.737641599 195.132383388 128.726420791 193.290942441 C 130.715199983 191.449501495 132.703979175 189.555409201 134.692758367 187.610735929 C 136.681537559 185.666062657 138.670316751 183.670498569 140.659095942 181.626921009 C 142.647875134 179.583343449 144.636654326 177.49145618 146.625433518 175.355051594 C 148.61421271 173.218647008 150.602991902 171.037446259 152.591771094 168.816306927 C 154.580550286 166.595167594 156.569329478 164.333831157 158.55810867 162.038452558 C 160.546887862 159.743073958 162.535667054 157.41341554 164.524446245 155.05732493 C 166.513225437 152.701234321 168.502004629 150.318488945 170.490783821 147.919360138 C 172.479563013 145.52023133 174.468342205 143.104488805 176.457121397 140.686284396 C 178.445900589 138.268079988 180.434679781 135.847104421 182.423458973 133.44452377 C 184.412238165 131.041943119 186.401017357 128.657147305 188.389796548 126.325671638 C 190.37857574 123.994195972 192.367354932 121.714386549 194.356134124 119.555343283 C 196.344913316 117.396300017 198.333692508 115.352523523 200.3224717 113.58386065 C 202.311250892 111.815197777 204.300030084 110.300194749 206.288809276 109.489180461 C 208.277588468 108.678166173 210.26636766 108.480855357 212.255146852 110.436511666 C 214.243926043 112.392167975 216.232705235 116.524965754 218.221484427 127.044880588 C 220.210263619 137.564795423 222.199042811 160.179437104 224.187822003 164.786940426 C 226.176601195 169.394443748 228.165380387 145.479557867 230.154159579 127.569626403 C 232.142938771 109.659694939 234.131717963 97.7352450434 236.120497155 89.4701914424 C 238.109276346 81.2051378414 240.098055538 75.9139026599 242.08683473 71.5151646739 C 244.075613922 67.1164266879 246.064393114 63.7375664574 248.053172306 60.7696980543 C 250.041951498 57.8018296512 252.03073069 55.2810415172 254.019509882 53.0059967634 C 256.008289074 50.7309520096 257.997068266 48.7121841729 259.985847458 46.8731874927 C 261.974626649 45.0341908126 263.963405841 43.3788985402 265.952185033 41.8754015681 C 267.940964225 40.371904596 269.929743417 39.0221560078 271.918522609 37.8121807393 C 273.907301801 36.6022054709 275.896080993 35.5332716018 277.884860185 34.5991584988 C 279.873639377 33.6650453958 281.862418569 32.8667561269 283.851197761 32.2014862346 C 285.839976953 31.5362163422 287.828756144 31.0048567457 289.817535336 30.6060230593 C 291.806314528 30.2071893729 293.79509372 29.9417200635 295.783872912 29.8087137875 C 297.772652104 29.6757075114 299.761431296 29.6759732659 301.750210488 29.8087137875 C 303.73898968 29.941454309 305.727768872 30.207455347 307.716548064 30.6060230593 C 309.705327256 31.0045907716 311.694106447 31.5364835153 313.682885639 32.2014862346 C 315.671664831 32.8664889539 317.660444023 33.6653166252 319.649223215 34.5991584988 C 321.638002407 35.5330003724 323.626781599 36.602487616 325.615560791 37.8121807393 C 327.604339983 39.0218738626 329.593119175 40.3722132295 331.581898367 41.8754015681 C 333.570677559 43.3785899068 335.559456751 45.0345620199 337.548235942 46.8731874927 C 339.537015134 48.7118129656 341.525794326 50.7314758657 343.514573518 53.0059967634 C 345.50335271 55.2805176612 347.492131902 57.8027597405 349.480911094 60.7696980543 C 351.469690286 63.7366363681 353.458469478 67.1185962738 355.44724867 71.5151646739 C 357.436027862 75.9117330741 359.424807054 81.211526873 361.413586245 89.4701914424 C 363.402365437 97.7288560118 365.391144629 109.668601552 367.379923821 127.569626403 C 369.368703013 145.470651254 371.357482205 169.35105764 373.346261397 164.786940426 C 375.335040589 160.222823212 377.323819781 137.577296013 379.312598973 127.044880588 C 381.301378165 116.512465164 383.290157357 112.396859564 385.278936548 110.436511666 C 387.26771574 108.476163768 389.256494932 108.679675005 391.245274124 109.489180461 C 393.234053316 110.298685917 395.222832508 111.815777296 397.2116117 113.58386065 C 399.200390892 115.351944004 401.189170084 117.39655169 403.177949276 119.555343283 C 405.166728468 121.714134876 407.15550766 123.994306676 409.144286852 126.325671638 C 411.133066043 128.657036601 413.121845235 131.041981722 415.110624427 133.44452377 C 417.099403619 135.847065818 419.088182811 138.268075927 421.076962003 140.686284396 C 423.065741195 143.104492866 425.054520387 145.520198976 427.043299579 147.919360138 C 429.032078771 150.318521299 431.020857963 152.701181633 433.009637155 155.05732493 C 434.998416346 157.413468228 436.987195538 159.743005913 438.97597473 162.038452558 C 440.964753922 164.333899202 442.953533114 166.59508767 444.942312306 168.816306927 C 446.931091498 171.037526183 448.91987069 173.218557869 450.908649882 175.355051594 C 452.897429074 177.491545319 454.886208266 179.583247275 456.874987458 181.626921009 C 458.863766649 183.670594743 460.852545841 185.665961317 462.841325033 187.610735929 C 464.830104225 189.55551054 466.818883417 191.449396631 468.807662609 193.290942441 C 470.796441801 195.132488252 472.785220993 196.921385507 474.774000185 198.656919835 C 476.762779377 200.392454162 478.751558569 202.074310449 480.740337761 203.702428283 C 482.729116953 205.330546118 484.717896144 206.904607704 486.706675336 208.425129922 C 488.695454528 209.945652139 490.68423372 211.412318086 492.673012912 212.826149355 C 494.661792104 214.239980624 496.650571296 215.600664297 498.639350488 216.909657071 C 500.62812968 218.218649845 502.616908872 219.47564543 504.605688064 220.682468705 C 506.594467256 221.88929198 508.583246447 223.045645523 510.572025639 224.15365831 C 512.560804831 225.261671097 514.549584023 226.321056432 516.538363215 227.334186508 C 518.527142407 228.347316584 520.515921599 229.313916933 522.504700791 230.236545725 C 524.493479983 231.159174516 526.482259175 232.037570681 528.471038367 232.874425181 C 530.459817559 233.71127968 532.448596751 234.50634571 534.437375942 235.262398261 C 536.426155134 236.018450812 538.414934326 236.735257925 540.403713518 237.415634557 C 542.39249271 238.09601119 544.381271902 238.739740554 546.370051094 239.349638371 C 548.358830286 239.959536188 550.347609478 240.535400943 552.33638867 241.080014859 C 554.325167862 241.624628775 556.313947054 242.137805511 558.302726245 242.622264436 C 560.291505437 243.10672336 562.280284629 243.562293034 564.269063821 243.991605408 C 566.257843013 244.420917783 568.246622205 244.823815905 570.235401397 245.202824334 C 572.224180589 245.581832763 574.212959781 245.936808498 576.201738973 246.270153063 C 578.190518165 246.603497628 580.179297357 246.915081344 582.168076548 247.207171069 C 584.15685574 247.499260793 586.145634932 247.771739468 588.134414124 248.026731312 C 590.123193316 248.281723156 592.111972508 248.519122979 594.1007517 248.740907669"
     style="opacity:1;fill:none;fill-opacity:0.98809521;fill-rule:nonzero;stroke:#d40000;stroke-width:3.20001292;stroke-linecap:butt;stroke-linejoin:round;stroke-miterlimit:4;stroke-dasharray:none;stroke-dashoffset:0;stroke-opacity:1" /><path
     id="path4411"
     title="exp(-(x)*(x))*(1-0.000/((x+0.0)*(x+0.0)+0.002)-0.001/((x-0.0)*(x-0.0)+0.002))"
     d=" M 639.60272 252.063510937 C 641.562592559 251.835693244 643.522465118 251.591796089 645.482337677 251.329895436 C 647.442210236 251.067994783 649.402082795 250.78801423 651.361955354 250.487998546 C 653.321827912 250.187982862 655.281700471 249.867810817 657.24157303 249.525405693 C 659.201445589 249.183000569 661.161318148 248.818227689 663.121190707 248.428898439 C 665.081063266 248.039569189 667.040935825 247.625534674 669.000808384 247.184507563 C 670.960680943 246.743480452 672.920553502 246.275296938 674.880426061 245.777588056 C 676.84029862 245.279879173 678.800171178 244.75246561 680.760043737 244.192918003 C 682.719916296 243.633370396 684.679788855 243.041493467 686.639661414 242.414823054 C 688.599533973 241.788152642 690.559406532 241.126477192 692.519279091 240.427327824 C 694.47915165 239.728178456 696.439024209 238.991327222 698.398896768 238.214335111 C 700.358769327 237.437342999 702.318641886 236.619965763 704.278514444 235.759833287 C 706.238387003 234.899700811 708.198259562 233.996552888 710.158132121 233.04813157 C 712.11800468 232.099710252 714.077877239 231.105739982 716.037749798 230.06412217 C 717.997622357 229.022504359 719.957494916 227.932949006 721.917367475 226.793567536 C 723.877240034 225.654186066 725.837112593 224.464675258 727.796985152 223.223410064 C 729.75685771 221.982144869 731.716730269 220.68881041 733.676602828 219.342100779 C 735.636475387 217.995391148 737.596347946 216.594981727 739.556220505 215.139942586 C 741.516093064 213.684903446 743.475965623 212.174902504 745.435838182 210.609442836 C 747.395710741 209.043983169 749.3555833 207.422727871 751.315455859 205.745669106 C 753.275328418 204.068610341 755.235200976 202.335409376 757.195073535 200.546601354 C 759.154946094 198.757793332 761.114818653 196.913041036 763.074691212 195.013472968 C 765.034563771 193.1139049 766.99443633 191.159189026 768.954308889 189.151092727 C 770.914181448 187.142996427 772.874054007 185.08119681 774.833926566 182.968139417 C 776.793799125 180.855082025 778.753671684 178.690457322 780.713544242 176.477420744 C 782.673416801 174.264384166 784.63328936 172.002643956 786.593161919 169.69608838 C 788.553034478 167.389532804 790.512907037 165.037892455 792.472779596 162.645801487 C 794.432652155 160.253710519 796.392524714 157.820926537 798.352397273 155.352831879 C 800.312269832 152.884737222 802.272142391 150.381121187 804.232014949 147.848105255 C 806.191887508 145.315089323 808.151760067 142.752499107 810.111632626 140.167174644 C 812.071505185 137.581850182 814.031377744 134.973657892 815.991250303 132.350124567 C 817.951122862 129.726591243 819.910995421 127.087628377 821.87086798 124.441407511 C 823.830740539 121.795186645 825.790613098 119.141668317 827.750485657 116.489618582 C 829.710358215 113.837568847 831.670230774 111.187000869 833.630103333 108.547220147 C 835.589975892 105.907439425 837.549848451 103.278514848 839.50972101 100.670236997 C 841.469593569 98.0619591452 843.429466128 95.4744551331 845.389338687 92.9179560379 C 847.349211246 90.3614569427 849.309083805 87.836149835 851.268956364 85.3526865862 C 853.228828923 82.8692233374 855.188701481 80.4278516449 857.14857404 78.0396754783 C 859.108446599 75.6514993116 861.068319158 73.3168259727 863.028191717 71.0473411283 C 864.988064276 68.7778562838 866.947936835 66.5739226645 868.907809394 64.4481257881 C 870.867681953 62.3223289118 872.827554512 60.2750759576 874.787427071 58.3205418532 C 876.74729963 56.3660077487 878.707172189 54.5046166049 880.667044747 52.7535896418 C 882.626917306 51.0025626787 884.586789865 49.3622690622 886.546662424 47.8561254372 C 888.506534983 46.3499818122 890.466407542 44.9780995681 892.426280101 43.7772932808 C 894.38615266 42.5764869934 896.346025219 41.5459775997 898.305897778 40.7539322639 C 900.265770337 39.9618869281 902.225642896 39.4044063881 904.185515455 39.2312895495 C 906.145388013 39.058172711 908.105260572 39.2533734893 910.065133131 40.2113880346 C 912.02500569 41.1694025798 913.984878249 42.8220125407 915.944750808 46.4256458535 C 917.904623367 50.0292791664 919.864495926 55.398819301 921.824368485 66.7544096466 C 923.784241044 78.1099999922 925.744113603 99.7100230174 927.703986162 121.30554223 C 929.663858721 142.901061443 931.623731279 142.887324576 933.583603838 121.30554223 C 935.543476397 99.7237598846 937.503348956 78.122689423 939.463221515 66.7544096466 C 941.423094074 55.3861298702 943.382966633 50.0334879207 945.342839192 46.4256458535 C 947.302711751 42.8178037863 949.26258431 41.1710112587 951.222456869 40.2113880346 C 953.182329428 39.2517648104 955.142201987 39.0589678911 957.102074545 39.2312895495 C 959.061947104 39.403611208 961.021819663 39.9623739619 962.981692222 40.7539322639 C 964.941564781 41.545490566 966.90143734 42.5768336909 968.861309899 43.7772932808 C 970.821182458 44.9777528706 972.781055017 46.3502524782 974.740927576 47.8561254372 C 976.700800135 49.3619983962 978.660672694 51.0027848082 980.620545253 52.7535896418 C 982.580417811 54.5043944754 984.54029037 56.3661941106 986.500162929 58.3205418532 C 988.460035488 60.2748895957 990.419908047 62.3224858475 992.379780606 64.4481257881 C 994.339653165 66.5737657288 996.299525724 68.7779871629 998.259398283 71.0473411283 C 1000.21927084 73.3166950936 1002.1791434 75.6516060962 1004.13901596 78.0396754783 C 1006.09888852 80.4277448603 1008.05876108 82.8693073375 1010.01863364 85.3526865862 C 1011.9785062 87.8360658349 1013.93837875 90.3615191993 1015.89825131 92.9179560379 C 1017.85812387 95.4743928764 1019.81799643 98.0620006292 1021.77786899 100.670236997 C 1023.73774155 103.278473364 1025.69761411 105.90746114 1027.65748667 108.547220147 C 1029.61735923 111.186979155 1031.57723178 113.837571878 1033.53710434 116.489618582 C 1035.4969769 119.141665286 1037.45684946 121.79517218 1039.41672202 124.441407511 C 1041.37659458 127.087642842 1043.33646714 129.726560572 1045.2963397 132.350124567 C 1047.25621226 134.973688563 1049.21608481 137.581804688 1051.17595737 140.167174644 C 1053.13582993 142.752544601 1055.09570249 145.315030462 1057.05557505 147.848105255 C 1059.01544761 150.381180048 1060.97532017 152.884666508 1062.93519273 155.352831879 C 1064.89506529 157.820997251 1066.85493785 160.253629495 1068.8148104 162.645801487 C 1070.77468296 165.037973479 1072.73455552 167.389443024 1074.69442808 169.69608838 C 1076.65430064 172.002733736 1078.6141732 174.264287169 1080.57404576 176.477420744 C 1082.53391832 178.690554319 1084.49379088 180.854979315 1086.45366343 182.968139417 C 1088.41353599 185.081299519 1090.37340855 187.142889454 1092.33328111 189.151092727 C 1094.29315367 191.159295999 1096.25302623 193.113795041 1098.21289879 195.013472968 C 1100.17277135 196.913150894 1102.13264391 198.757681879 1104.09251646 200.546601354 C 1106.05238902 202.335520829 1108.01226158 204.068498486 1109.97213414 205.745669106 C 1111.9320067 207.422839726 1113.89187926 209.043871997 1115.85175182 210.609442836 C 1117.81162438 212.175013676 1119.77149694 213.684793927 1121.73136949 215.139942586 C 1123.69124205 216.595091245 1125.65111461 217.995284137 1127.61098717 219.342100779 C 1129.57085973 220.688917421 1131.53073229 221.9820411 1133.49060485 223.223410064 C 1135.45047741 224.464779027 1137.41034997 225.654086156 1139.37022253 226.793567536 C 1141.33009508 227.933048915 1143.28996764 229.022408811 1145.2498402 230.06412217 C 1147.20971276 231.105835529 1149.16958532 232.099619459 1151.12945788 233.04813157 C 1153.08933044 233.996643682 1155.049203 234.899615061 1157.00907556 235.759833287 C 1158.96894811 236.620051513 1160.92882067 237.437262487 1162.88869323 238.214335111 C 1164.84856579 238.991407734 1166.80843835 239.728103288 1168.76831091 240.427327824 C 1170.72818347 241.12655236 1172.68805603 241.788082845 1174.64792859 242.414823054 C 1176.60780114 243.041563264 1178.5676737 243.63330593 1180.52754626 244.192918003 C 1182.48741882 244.752530076 1184.44729138 245.279819936 1186.40716394 245.777588056 C 1188.3670365 246.275356176 1190.32690906 246.743426292 1192.28678162 247.184507563 C 1194.24665418 247.625588834 1196.20652673 248.039519914 1198.16639929 248.428898439 C 1200.12627185 248.818276965 1202.08614441 249.182955952 1204.04601697 249.525405693 C 1206.00588953 249.867855434 1207.96576209 250.187942653 1209.92563465 250.487998546 C 1211.88550721 250.788054439 1213.84537976 251.067958713 1215.80525232 251.329895436 C 1217.76512488 251.59183216 1219.72499744 251.835693244 1221.68487 252.063510937"
     style="opacity:1;fill:none;fill-opacity:0.98809521;fill-rule:nonzero;stroke:#d40000;stroke-width:3.20001292;stroke-linecap:butt;stroke-linejoin:round;stroke-miterlimit:4;stroke-dasharray:none;stroke-dashoffset:0;stroke-opacity:1" /><text
     xml:space="preserve"
     style="font-style:normal;font-variant:normal;font-weight:normal;font-stretch:normal;font-size:44.80017853px;line-height:125%;font-family:'Nimbus Sans L';-inkscape-font-specification:Sans;letter-spacing:0px;word-spacing:0px;fill:#000000;fill-opacity:1;stroke:none;stroke-width:1px;stroke-linecap:butt;stroke-linejoin:miter;stroke-opacity:1"
     x="583.15344"
     y="276.90976"
     id="text3749"
     sodipodi:linespacing="125%"><tspan
       sodipodi:role="line"
       id="tspan3751"
       x="583.15344"
       y="276.90976"
       style="font-size:13.00005245px">$v_x$</tspan></text>
<text
     xml:space="preserve"
     style="font-style:normal;font-variant:normal;font-weight:normal;font-stretch:normal;font-size:44.80017853px;line-height:125%;font-family:'Nimbus Sans L';-inkscape-font-specification:Sans;letter-spacing:0px;word-spacing:0px;fill:#000000;fill-opacity:1;stroke:none;stroke-width:1px;stroke-linecap:butt;stroke-linejoin:miter;stroke-opacity:1"
     x="307.42148"
     y="10.01004"
     id="text3749-6"
     sodipodi:linespacing="125%"><tspan
       sodipodi:role="line"
       id="tspan3751-7"
       x="307.42148"
       y="10.01004"
       style="font-size:13.00005245px">${\cal N}_1$</tspan></text>
<text
     xml:space="preserve"
     style="font-style:normal;font-variant:normal;font-weight:normal;font-stretch:normal;font-size:44.80017853px;line-height:125%;font-family:'Nimbus Sans L';-inkscape-font-specification:Sans;letter-spacing:0px;word-spacing:0px;fill:#000000;fill-opacity:1;stroke:none;stroke-width:1px;stroke-linecap:butt;stroke-linejoin:miter;stroke-opacity:1"
     x="290.25192"
     y="281.70978"
     id="text3749-5"
     sodipodi:linespacing="125%"><tspan
       sodipodi:role="line"
       id="tspan3751-3"
       x="290.25192"
       y="281.70978"
       style="font-size:13.00005245px">$0$</tspan></text>
<text
     xml:space="preserve"
     style="font-style:normal;font-variant:normal;font-weight:normal;font-stretch:normal;font-size:44.80017853px;line-height:125%;font-family:'Nimbus Sans L';-inkscape-font-specification:Sans;letter-spacing:0px;word-spacing:0px;fill:#000000;fill-opacity:1;stroke:none;stroke-width:1px;stroke-linecap:butt;stroke-linejoin:miter;stroke-opacity:1"
     x="177.96066"
     y="288.7598"
     id="text3749-5-5"
     sodipodi:linespacing="125%"><tspan
       sodipodi:role="line"
       id="tspan3751-3-6"
       x="177.96066"
       y="288.7598"
       style="font-size:13.00005245px">$\frac{\omega_0-\omega_S}{k}$</tspan></text>
<text
     xml:space="preserve"
     style="font-style:normal;font-variant:normal;font-weight:normal;font-stretch:normal;font-size:44.80017853px;line-height:125%;font-family:'Nimbus Sans L';-inkscape-font-specification:Sans;letter-spacing:0px;word-spacing:0px;fill:#000000;fill-opacity:1;stroke:none;stroke-width:1px;stroke-linecap:butt;stroke-linejoin:miter;stroke-opacity:1"
     x="1215.6505"
     y="276.98978"
     id="text3749-56"
     sodipodi:linespacing="125%"><tspan
       sodipodi:role="line"
       id="tspan3751-2"
       x="1215.6505"
       y="276.98978"
       style="font-size:13.00005245px">$\omega_S$</tspan></text>
<text
     xml:space="preserve"
     style="font-style:normal;font-variant:normal;font-weight:normal;font-stretch:normal;font-size:44.80017853px;line-height:125%;font-family:'Nimbus Sans L';-inkscape-font-specification:Sans;letter-spacing:0px;word-spacing:0px;fill:#000000;fill-opacity:1;stroke:none;stroke-width:1px;stroke-linecap:butt;stroke-linejoin:miter;stroke-opacity:1"
     x="939.9162"
     y="10.090055"
     id="text3749-6-9"
     sodipodi:linespacing="125%"><tspan
       sodipodi:role="line"
       id="tspan3751-7-1"
       x="939.9162"
       y="10.090055"
       style="font-size:13.00005245px">$\mu$</tspan></text>
<text
     xml:space="preserve"
     style="font-style:normal;font-variant:normal;font-weight:normal;font-stretch:normal;font-size:44.80017853px;line-height:125%;font-family:'Nimbus Sans L';-inkscape-font-specification:Sans;letter-spacing:0px;word-spacing:0px;fill:#000000;fill-opacity:1;stroke:none;stroke-width:1px;stroke-linecap:butt;stroke-linejoin:miter;stroke-opacity:1"
     x="917.94647"
     y="281.78979"
     id="text3749-5-2"
     sodipodi:linespacing="125%"><tspan
       sodipodi:role="line"
       id="tspan3751-3-7"
       x="917.94647"
       y="281.78979"
       style="font-size:13.00005245px">$\omega_0$</tspan></text>
<text
     xml:space="preserve"
     style="font-style:normal;font-variant:normal;font-weight:normal;font-stretch:normal;font-size:44.80018234px;line-height:125%;font-family:'Nimbus Sans L';-inkscape-font-specification:Sans;letter-spacing:0px;word-spacing:0px;fill:#000000;fill-opacity:1;stroke:none;stroke-width:1px;stroke-linecap:butt;stroke-linejoin:miter;stroke-opacity:1"
     x="330.61395"
     y="287.89697"
     id="text3749-5-5-6"
     sodipodi:linespacing="125%"><tspan
       sodipodi:role="line"
       id="tspan3751-3-6-0"
       x="330.61395"
       y="287.89697"
       style="font-size:13.00005341px">$\frac{\omega_S-\omega_0}{k}$</tspan></text>
<text
     xml:space="preserve"
     style="font-style:normal;font-variant:normal;font-weight:normal;font-stretch:normal;font-size:44.80018234px;line-height:125%;font-family:'Nimbus Sans L';-inkscape-font-specification:Sans;letter-spacing:0px;word-spacing:0px;fill:#000000;fill-opacity:1;stroke:none;stroke-width:1px;stroke-linecap:butt;stroke-linejoin:miter;stroke-opacity:1"
     x="-0.82973921"
     y="34.095169"
     id="text3500"
     sodipodi:linespacing="125%"><tspan
       sodipodi:role="line"
       id="tspan3502"
       x="-0.82973921"
       y="34.095169">a)</tspan></text>
<text
     xml:space="preserve"
     style="font-style:normal;font-variant:normal;font-weight:normal;font-stretch:normal;font-size:44.80018234px;line-height:125%;font-family:'Nimbus Sans L';-inkscape-font-specification:Sans;letter-spacing:0px;word-spacing:0px;fill:#000000;fill-opacity:1;stroke:none;stroke-width:1px;stroke-linecap:butt;stroke-linejoin:miter;stroke-opacity:1"
     x="634.22473"
     y="34.095169"
     id="text3500-2"
     sodipodi:linespacing="125%"><tspan
       sodipodi:role="line"
       id="tspan3502-6"
       x="634.22473"
       y="34.095169">b)</tspan></text>
</svg>