<?xml version="1.0" encoding="UTF-8" standalone="no"?>
<!-- Created with Inkscape (http://www.inkscape.org/) -->

<svg
   xmlns:dc="http://purl.org/dc/elements/1.1/"
   xmlns:cc="http://creativecommons.org/ns#"
   xmlns:rdf="http://www.w3.org/1999/02/22-rdf-syntax-ns#"
   xmlns:svg="http://www.w3.org/2000/svg"
   xmlns="http://www.w3.org/2000/svg"
   xmlns:xlink="http://www.w3.org/1999/xlink"
   xmlns:sodipodi="http://sodipodi.sourceforge.net/DTD/sodipodi-0.dtd"
   xmlns:inkscape="http://www.inkscape.org/namespaces/inkscape"
   width="155.0083mm"
   height="92.471436mm"
   viewBox="0 0 549.24201 327.65469"
   id="svg5463"
   version="1.1"
   inkscape:version="0.92.3 (2405546, 2018-03-11)"
   sodipodi:docname="05_rabi.svg">
  <defs
     id="defs5465" />
  <sodipodi:namedview
     id="base"
     pagecolor="#ffffff"
     bordercolor="#666666"
     borderopacity="1.0"
     inkscape:pageopacity="0.0"
     inkscape:pageshadow="2"
     inkscape:zoom="0.98994949"
     inkscape:cx="271.32378"
     inkscape:cy="74.933913"
     inkscape:document-units="px"
     inkscape:current-layer="layer1"
     showgrid="false"
     fit-margin-top="0"
     fit-margin-left="0"
     fit-margin-right="0"
     fit-margin-bottom="0"
     inkscape:window-width="1451"
     inkscape:window-height="833"
     inkscape:window-x="785"
     inkscape:window-y="254"
     inkscape:window-maximized="0" />
  <metadata
     id="metadata5468">
    <rdf:RDF>
      <cc:Work
         rdf:about="">
        <dc:format>image/svg+xml</dc:format>
        <dc:type
           rdf:resource="http://purl.org/dc/dcmitype/StillImage" />
        <dc:title></dc:title>
      </cc:Work>
    </rdf:RDF>
  </metadata>
  <g
     inkscape:label="Layer 1"
     inkscape:groupmode="layer"
     id="layer1"
     transform="translate(-65.862045,-25.637407)">
    <path
       d="m 104.971,34.233633 418.50001,0"
       style="fill:none;stroke:#000000;stroke-width:2;stroke-linecap:square;stroke-linejoin:miter;stroke-miterlimit:4;stroke-dasharray:none"
       id="path20"
       inkscape:connector-curvature="0" />
    <path
       d="m 523.47101,327.63363 0,-293.399997"
       style="fill:none;stroke:#000000;stroke-width:2;stroke-linecap:square;stroke-linejoin:miter;stroke-miterlimit:4;stroke-dasharray:none"
       id="path23"
       inkscape:connector-curvature="0" />
    <path
       d="m 104.971,327.63363 0,-293.399997"
       style="fill:none;stroke:#000000;stroke-width:2;stroke-linecap:square;stroke-linejoin:miter;stroke-miterlimit:4;stroke-dasharray:none"
       id="path26"
       inkscape:connector-curvature="0" />
    <path
       d="m 104.971,327.63363 418.50001,0"
       style="fill:none;stroke:#000000;stroke-width:2;stroke-linecap:square;stroke-linejoin:miter;stroke-miterlimit:4;stroke-dasharray:none"
       id="path29"
       inkscape:connector-curvature="0" />
    <use
       transform="matrix(1.25,0,0,1.25,-19.671853,134.70149)"
       height="100%"
       width="100%"
       id="use39"
       y="264.06"
       xlink:href="#mc7db9fdffb"
       x="54"
       style="stroke:#000000;stroke-width:0.5;stroke-linecap:butt;stroke-linejoin:round" />
    <use
       transform="matrix(1.25,0,0,1.25,-19.671853,134.70149)"
       height="100%"
       width="100%"
       id="use47"
       y="29.34"
       xlink:href="#m5a7d422ac3"
       x="54"
       style="stroke:#000000;stroke-width:0.5;stroke-linecap:butt;stroke-linejoin:round" />
    <use
       transform="matrix(1.25,0,0,1.25,-19.671853,134.70149)"
       height="100%"
       width="100%"
       id="use175"
       y="264.06"
       xlink:href="#mc7db9fdffb"
       x="388.79999"
       style="stroke:#000000;stroke-width:0.5;stroke-linecap:butt;stroke-linejoin:round" />
    <use
       transform="matrix(1.25,0,0,1.25,-19.671853,134.70149)"
       height="100%"
       width="100%"
       id="use180"
       y="29.34"
       xlink:href="#m5a7d422ac3"
       x="388.79999"
       style="stroke:#000000;stroke-width:0.5;stroke-linecap:butt;stroke-linejoin:round" />
    <use
       transform="matrix(1.25,0,0,1.25,-19.671853,134.70149)"
       height="100%"
       width="100%"
       id="use253"
       y="264.06"
       xlink:href="#md7965d1ba0"
       x="54"
       style="stroke:#000000;stroke-width:0.5;stroke-linecap:butt;stroke-linejoin:round" />
    <use
       transform="matrix(1.25,0,0,1.25,-19.671853,134.70149)"
       height="100%"
       width="100%"
       id="use261"
       y="264.06"
       xlink:href="#md9a1c1a7cd"
       x="388.79999"
       style="stroke:#000000;stroke-width:0.5;stroke-linecap:butt;stroke-linejoin:round" />
    <use
       transform="matrix(1.25,0,0,1.25,-19.671853,134.70149)"
       height="100%"
       width="100%"
       id="use336"
       y="29.34"
       xlink:href="#md7965d1ba0"
       x="54"
       style="stroke:#000000;stroke-width:0.5;stroke-linecap:butt;stroke-linejoin:round" />
    <use
       transform="matrix(1.25,0,0,1.25,-19.671853,134.70149)"
       height="100%"
       width="100%"
       id="use341"
       y="29.34"
       xlink:href="#md9a1c1a7cd"
       x="388.79999"
       style="stroke:#000000;stroke-width:0.5;stroke-linecap:butt;stroke-linejoin:round" />
    <path
       id="path3881"
       title="sin(x)*sin(x)"
       d="m 105.01213,326.21193 c 0.55911,-6e-5 1.11821,-0.0614 1.67732,-0.18376 0.5591,-0.12238 1.11821,-0.3062 1.67731,-0.55076 0.55911,-0.24458 1.11821,-0.5503 1.67732,-0.91642 0.55911,-0.36612 1.11821,-0.79298 1.67732,-1.27972 0.5591,-0.48674 1.11821,-1.03368 1.67731,-1.63978 0.55911,-0.60612 1.11821,-1.27175 1.67732,-1.9957 0.5591,-0.72395 1.11821,-1.50657 1.67731,-2.34653 0.55911,-0.83995 1.11822,-1.73759 1.67732,-2.69142 0.55911,-0.95383 1.11821,-1.96421 1.67732,-3.0295 0.5591,-1.06528 1.11821,-2.18582 1.67731,-3.35987 0.55911,-1.17404 1.11821,-2.40191 1.67732,-3.68174 0.55911,-1.27981 1.11821,-2.6119 1.67732,-3.99425 0.5591,-1.38235 1.11821,-2.81527 1.67731,-4.29666 0.55911,-1.48136 1.11821,-3.01149 1.67732,-4.58814 0.5591,-1.57664 1.11821,-3.20009 1.67731,-4.868 0.55911,-1.66791 1.11822,-3.38057 1.67732,-5.13552 0.55911,-1.75495 1.11821,-3.55247 1.67732,-5.39 0.5591,-1.83755 1.11821,-3.71537 1.67731,-5.63083 0.55911,-1.91547 1.11821,-3.86882 1.67732,-5.85736 0.55911,-1.98854 1.11821,-4.01248 1.67732,-6.06905 0.5591,-2.05656 1.11821,-4.14595 1.67731,-6.26533 0.55911,-2.11937 1.11821,-4.26892 1.67732,-6.44573 0.5591,-2.1768 1.11821,-4.38105 1.67731,-6.60978 0.55911,-2.22872 1.11822,-4.48207 1.67732,-6.75706 0.55911,-2.27499 1.11821,-4.57174 1.67732,-6.88723 0.5591,-2.31547 1.11821,-4.6498 1.67731,-6.99988 0.55911,-2.3501 1.11821,-4.71608 1.67732,-7.09484 0.55911,-2.37876 1.11821,-4.77038 1.67732,-7.17176 0.5591,-2.40139 1.11821,-4.81259 1.67731,-7.2305 0.55911,-2.41793 1.11821,-4.8426 1.67732,-7.27093 0.5591,-2.42832 1.11821,-4.86031 1.67731,-7.29287 0.55911,-2.43258 1.11822,-4.86573 1.67733,-7.29637 0.5591,-2.43063 1.11821,-4.85876 1.67732,-7.28131 0.55909,-2.42256 1.11821,-4.83951 1.6773,-7.24782 0.55911,-2.40832 1.11822,-4.80797 1.67732,-7.19593 0.55911,-2.38798 1.11821,-4.76422 1.67732,-7.1258 0.55911,-2.36157 1.11821,-4.7084 1.67732,-7.03759 0.55911,-2.32919 1.11821,-4.64064 1.67732,-6.93154 0.55909,-2.29089 1.1182,-4.56111 1.67731,-6.8079 0.5591,-2.24679 1.11821,-4.47001 1.67731,-6.667 0.55911,-2.19698 1.11821,-4.36757 1.67732,-6.50918 0.5591,-2.14161 1.11822,-4.25407 1.67732,-6.33487 0.55911,-2.0808 1.11821,-4.12977 1.67732,-6.14448 0.5591,-2.014717 1.1182,-3.994987 1.67731,-5.938517 0.5591,-1.94352 1.11822,-3.85008 1.67732,-5.71748 0.55911,-1.8674 1.11821,-3.69541 1.67731,-5.48195 0.55911,-1.78654 1.11821,-3.53136 1.67732,-5.23251 0.5591,-1.70115 1.1182,-3.35836 1.67732,-4.96981 0.5591,-1.61144 1.11821,-3.17684 1.67731,-4.69449 0.55911,-1.51765 1.11821,-2.98727 1.67732,-4.40728 0.5591,-1.42001 1.11822,-2.79012 1.67732,-4.10888 0.55911,-1.31877 1.11821,-2.58589 1.67731,-3.80007 0.55911,-1.21418 1.11821,-2.3751 1.67731,-3.48162 0.55911,-1.10651 1.11821,-2.15829 1.67733,-3.15433 0.5591,-0.99604 1.11821,-1.936 1.67731,-2.81904 0.55911,-0.88304 1.11821,-1.70881 1.67732,-2.47661 0.5591,-0.7678 1.11822,-1.47729 1.6773,-2.1279 0.55912,-0.65062 1.11822,-1.24201 1.67733,-1.77379 0.5591,-0.53177 1.11821,-1.00358 1.67731,-1.41517 0.55912,-0.41159 1.11822,-0.76261 1.67733,-1.05298 0.5591,-0.29036 1.11821,-0.5197 1.67731,-0.6881 0.5591,-0.1684 1.11821,-0.27549 1.67731,-0.32149 0.5591,-0.046 1.11822,-0.0306 1.67732,0.0459 0.55911,0.0765 1.11821,0.21444 1.67732,0.41326 0.5591,0.19882 1.11821,0.45889 1.67731,0.77952 0.55912,0.32063 1.11822,0.70218 1.67733,1.14381 0.55909,0.44163 1.11821,0.94369 1.6773,1.5052 0.55911,0.56151 1.11821,1.18281 1.67732,1.86277 0.5591,0.67996 1.11822,1.41893 1.67732,2.21562 0.55911,0.79669 1.11821,1.65144 1.67732,2.56284 0.5591,0.9114 1.11821,1.87978 1.67731,2.90357 0.5591,1.0238 1.1182,2.10334 1.67732,3.23694 0.5591,1.13359 1.11821,2.32156 1.67731,3.56208 0.55911,1.24052 1.11821,2.53391 1.67732,3.87821 0.5591,1.3443 1.11822,2.73982 1.67732,4.18449 0.55911,1.44467 1.1182,2.93878 1.67732,4.48016 0.55909,1.54137 1.1182,3.13029 1.6773,4.76447 0.55911,1.63417 1.11821,3.31386 1.67733,5.03669 0.55911,1.72282 1.1182,3.48903 1.67731,5.29614 0.55912,1.8071 1.11821,3.65535 1.67732,5.54216 0.5591,1.8868 1.1182,3.8124 1.67732,5.77412 0.5591,1.96172 1.11821,3.95978 1.67732,5.991437 0.55909,2.03165 1.11821,4.09711 1.6773,6.19356 0.55911,2.09644 1.11823,4.22406 1.67731,6.37997 0.55912,2.15591 1.11824,4.34029 1.67733,6.5502 0.55911,2.20992 1.1182,4.44552 1.67731,6.70383 0.55911,2.25831 1.11821,4.53946 1.67733,6.84044 0.55911,2.30098 1.11821,4.6219 1.67732,6.95971 0.55909,2.33781 1.1182,4.69261 1.67731,7.06133 0.55909,2.36871 1.1182,4.75142 1.67733,7.14502 0.55909,2.39362 1.1182,4.79819 1.67729,7.21062 0.55911,2.41245 1.11822,4.83278 1.67731,7.25792 0.55912,2.42515 1.11824,4.85513 1.67734,7.28681 0.5591,2.4317 1.1182,4.86514 1.67731,7.29723 0.55911,2.43209 1.1182,4.86281 1.67731,7.28912 0.55913,2.42632 1.11821,4.84818 1.67733,7.26254 0.55908,2.41438 1.1182,4.82121 1.67731,7.21754 0.55909,2.39632 1.11821,4.78205 1.67732,7.15424 0.55909,2.37217 1.1182,4.73073 1.6773,7.07276 0.55912,2.34202 1.11823,4.66744 1.67732,6.97339 0.55912,2.30593 1.11822,4.5923 1.67732,6.8563 0.55911,2.26401 1.1182,4.50552 1.67731,6.72183 0.55912,2.21634 1.1182,4.4073 1.67733,6.57034 0.55911,2.16301 1.1182,4.2979 1.67731,6.40214 0.5591,2.10422 1.1182,4.17762 1.67733,6.21774 0.55908,2.0401 1.1182,4.04672 1.67731,6.01753 0.5591,1.97082 1.11821,3.90559 1.6773,5.8021 0.55911,1.89652 1.11822,3.75453 1.67731,5.57194 0.55913,1.8174 1.11824,3.59395 1.67733,5.32764 0.55911,1.73369 1.1182,3.42425 1.67731,5.06984 0.55912,1.64556 1.1182,3.24587 1.67732,4.79916 0.55912,1.55329 1.11822,3.05927 1.67732,4.51635 0.5591,1.45705 1.11821,2.8649 1.67733,4.22204 0.55908,1.35713 1.1182,2.66326 1.67732,3.91705 0.55908,1.25377 1.1182,2.45487 1.67728,3.60211 0.55912,1.14722 1.11824,2.24026 1.67733,3.27804 0.55911,1.03778 1.11822,2.01996 1.67731,2.94566 0.55911,0.92569 1.11821,1.79455 1.67733,2.6058 0.55911,0.81126 1.1182,1.56459 1.67732,2.25935 0.55911,0.69476 1.1182,1.33064 1.67731,1.90715 0.55909,0.57652 1.1182,1.09332 1.67733,1.55012 0.55909,0.4568 1.1182,0.85324 1.67731,1.18917 0.55909,0.33593 1.1182,0.61098 1.6773,0.82518 0.55911,0.21422 1.11823,0.36718 1.67731,0.45912 0.55913,0.0919 1.11823,0.12237 1.67733,0.0919 0.55911,-0.0305 1.1182,-0.1225 1.67731,-0.27559 0.55913,-0.15298 1.11821,-0.36732 1.67733,-0.64236 0.55911,-0.27502 1.1182,-0.61111 1.67731,-1.00749 0.55909,-0.39636 1.11821,-0.85337 1.67732,-1.37007 0.55909,-0.51671 1.1182,-1.09346 1.67732,-1.72919 0.5591,-0.63572 1.1182,-1.33077 1.6773,-2.0839 0.55911,-0.75314 1.11823,-1.56472 1.67732,-2.43335 0.55911,-0.86864 1.11823,-1.79469 1.67731,-2.77662 0.55912,-0.98193 1.1182,-2.0201 1.67733,-3.11284 0.55911,-1.09274 1.1182,-2.2404 1.67731,-3.44116 0.55911,-1.20079 1.1182,-2.455 1.67733,-3.76078 0.55908,-1.30577 1.1182,-2.6634 1.67731,-4.07084 0.5591,-1.40745 1.11821,-2.86501 1.67732,-4.37057 0.55909,-1.50555 1.1182,-3.05939 1.67729,-4.65924 0.55913,-1.59984 1.11824,-3.24599 1.67733,-4.93606 0.55911,-1.69008 1.11822,-3.42436 1.67731,-5.20039 0.55912,-1.77602 1.11821,-3.59405 1.67732,-5.45151 0.55912,-1.85748 1.11822,-3.75463 1.67733,-5.68883 0.5591,-1.9342 1.1182,-3.90567 1.67731,-5.9117 0.55909,-2.00602 1.11821,-4.04681 1.67733,-6.11957 0.55908,-2.07276 1.1182,-4.17769 1.67731,-6.31194 0.55909,-2.13425 1.11821,-4.29797 1.67729,-6.4883 0.55912,-2.1903 1.11823,-4.40736 1.67733,-6.64819 0.5591,-2.24082 1.11823,-4.50556 1.67732,-6.79121 0.55911,-2.28566 1.1182,-4.59235 1.67732,-6.91705 0.55911,-2.32467 1.1182,-4.66747 1.67731,-7.0253 0.55912,-2.35784 1.1182,-4.73077 1.67733,-7.11576 0.55909,-2.38499 1.1182,-4.78206 1.67731,-7.18815 0.55909,-2.4061 1.1182,-4.82124 1.67733,-7.24234 0.55907,-2.4211 1.1182,-4.84819 1.67728,-7.27815 0.55913,-2.42995 1.11823,-4.86281 1.67733,-7.29547 0.55911,-2.43267 1.11822,-4.86514 1.67731,-7.29434 0.55913,-2.4292 1.11821,-4.8551 1.67733,-7.27468 0.55911,-2.41956 1.1182,-4.83275 1.67731,-7.23656 0.55912,-2.4038 1.1182,-4.79815 1.67732,-7.1801 0.55909,-2.38194 1.1182,-4.75139 1.67732,-7.10543 0.5591,-2.35404 1.11821,-4.69257 1.67732,-7.01274 0.55909,-2.32017 1.11821,-4.62185 1.6773,-6.90226 0.55911,-2.28041 1.11823,-4.53942 1.67731,-6.77428 0.55912,-2.23487 1.11824,-4.44546 1.67733,-6.62912 0.55911,-2.18366 1.1182,-4.34023 1.67731,-6.46714 0.55911,-2.12691 1.11821,-4.22399 1.67731,-6.28876 0.55913,-2.06477 1.11822,-4.09704 1.67734,-6.094427 0.55909,-1.99739 1.1182,-3.9597 1.67731,-5.88465 0.55909,-1.92495 1.1182,-3.81231 1.67733,-5.65993 0.55909,-1.84762 1.1182,-3.65526 1.67729,-5.42087 0.55911,-1.76561 1.11822,-3.48894 1.67731,-5.16806 0.55911,-1.67912 1.11824,-3.31376 1.67732,-4.90213 0.55912,-1.58837 1.11822,-3.13019 1.67733,-4.62378 0.5591,-1.49359 1.1182,-2.93867 1.67731,-4.3337 0.55913,-1.39503 1.11821,-2.7397 1.67733,-4.03263 0.55908,-1.29292 1.1182,-2.53378 1.67731,-3.72132 0.55909,-1.18754 1.11821,-2.32144 1.67732,-3.40059 0.55909,-1.07915 1.1182,-2.10321 1.6773,-3.07123 0.5591,-0.96801 1.11822,-1.87964 1.67732,-2.73407 0.55911,-0.85443 1.11822,-1.65131 1.67732,-2.38999 0.55911,-0.73867 1.1182,-1.41879 1.67731,-2.03984 0.55912,-0.62105 1.1182,-1.18267 1.67733,-1.68452 0.55911,-0.50184 1.1182,-0.94355 1.67731,-1.32492 0.55909,-0.38137 1.1182,-0.70205 1.67733,-0.96198 0.55908,-0.25993 1.1182,-0.45875 1.67731,-0.59657 0.5591,-0.13783 1.11821,-0.2143 1.6773,-0.22968 0.55911,-0.0154 1.11822,0.0307 1.67731,0.13782 0.55913,0.10712 1.11824,0.27563 1.67733,0.50496 0.55911,0.22933 1.1182,0.51985 1.67731,0.87082 0.55912,0.35096 1.1182,0.76275 1.67732,1.23446 0.55912,0.47172 1.11822,1.00372 1.67732,1.59499 0.5591,0.59126 1.11821,1.24214 1.67732,1.95146 0.55909,0.70931 1.11821,1.47742 1.67733,2.30298 0.55908,0.82557 1.1182,1.70895 1.67728,2.64867 0.55912,0.93973 1.11824,1.93614 1.67732,2.98764 0.55912,1.0515 1.11823,2.15841 1.67732,3.31902 0.55911,1.16061 1.11821,2.37522 1.67733,3.642 0.55911,1.26677 1.1182,2.586 1.67732,3.95573 0.5591,1.36972 1.1182,2.79023 1.67731,4.25943 0.55909,1.4692 1.1182,2.98738 1.67733,4.55233 0.55909,1.56495 1.1182,3.17695 1.67731,4.83368 0.55909,1.65674 1.1182,3.35847 1.6773,5.10278 0.5591,1.74431 1.11823,3.53146 1.67731,5.35893 0.55912,1.82747 1.11823,3.6955 1.67733,5.60149 0.55911,1.90599 1.1182,3.85017 1.67731,5.82985 0.55913,1.97968 1.11821,3.995067 1.67733,6.043407 0.55911,2.04834 1.1182,4.12984 1.67731,6.24165 0.55909,2.11182 1.1182,4.25414 1.67732,6.42407 0.55909,2.16993 1.1182,4.36764 1.67732,6.59018 0.5591,2.22255 1.1182,4.47007 1.6773,6.73959 0.55911,2.26952 1.11823,4.56116 1.67732,6.8719 0.55911,2.31074 1.11823,4.64068 1.67731,6.98678 0.55912,2.34609 1.1182,4.70844 1.67733,7.08394 0.55911,2.3755 1.1182,4.76425 1.67731,7.16312 0.55911,2.3989 1.1182,4.80799 1.67731,7.22418 0.5591,2.41619 1.11822,4.83951 1.67733,7.26686 0.5591,2.42738 1.11821,4.85878 1.67732,7.29116 0.55909,2.43237 1.1182,4.8657 1.67729,7.29693 0.55913,2.43122 1.11824,4.86031 1.67733,7.28421 0.55911,2.42389 1.11822,4.84258 1.67731,7.25301 0.55911,2.41043 1.11821,4.81257 1.67732,7.20342 0.55912,2.39085 1.11822,4.77035 1.67733,7.13556 0.5591,2.36521 1.1182,4.71604 1.67731,7.0496 0.55909,2.33356 1.11821,4.64975 1.67733,6.94575 0.55908,2.29601 1.1182,4.5717 1.67731,6.82431 0.55909,2.25263 1.11821,4.48203 1.67729,6.68555 0.55912,2.20351 1.11823,4.38099 1.67733,6.52981 0.5591,2.14885 1.11822,4.26887 1.67732,6.35757 0.55911,2.08868 1.1182,4.14587 1.67732,6.16913 0.55911,2.02327 1.1182,4.0124 1.67731,5.9651 0.55912,1.95269 1.1182,3.86874 1.67733,5.74592 0.55907,1.87717 1.1182,3.71526 1.67731,5.51215 0.55909,1.7969 1.1182,3.55237 1.67731,5.26443 0.55909,1.71208 1.11822,3.38047 1.67733,5.00337 0.5591,1.62287 1.1182,3.19997 1.6773,4.72956 0.55911,1.5296 1.11822,3.0114 1.67731,4.44381 0.55913,1.43241 1.11824,2.81515 1.67733,4.14676 0.55911,1.33162 1.1182,2.6118 1.67731,3.83922 0.55912,1.22743 1.1182,2.40178 1.67732,3.52192 0.55912,1.12013 1.1182,2.1857 1.67732,3.19569 0.5591,1.01 1.11821,1.96407 1.67732,2.86136 0.55909,0.8973 1.11821,1.73748 1.67733,2.51979 0.55908,0.78231 1.1182,1.50644 1.67728,2.1718 0.55912,0.66536 1.11824,1.2716 1.67732,1.81831 0.55912,0.54671 1.11823,1.03354 1.67732,1.46023 0.55911,0.42666 1.11821,0.79283 1.67731,1.0984 0.55913,0.30557 1.11822,0.55016 1.67734,0.73383 0.5591,0.18367 1.1182,0.30607 1.67731,0.36738 0.55909,0.0614 1.1182,0.0612 1.67733,0"
       style="opacity:1;fill:none;fill-opacity:1;fill-rule:nonzero;stroke:#d40000;stroke-width:3;stroke-linecap:butt;stroke-linejoin:miter;stroke-miterlimit:4;stroke-dasharray:none;stroke-dashoffset:0;stroke-opacity:1"
       inkscape:connector-curvature="0"
       sodipodi:nodetypes="ccscssssssssssssssssssssssssssssssssssssssssssssssssssssscssssssssccsssssssscsssssccccsssscscssssssscsssscscccssscccccsscccscscsscssccsscsccccssscccssssccccscsscsssscscccccccsscccsssssccssccssscccccsccccscsssccssssssssscssssscccsssscccssccsscccsccsccc" />
    <path
       style="opacity:1;fill:none;fill-opacity:1;fill-rule:nonzero;stroke:#0000d4;stroke-width:3;stroke-linecap:butt;stroke-linejoin:miter;stroke-miterlimit:4;stroke-dasharray:none;stroke-dashoffset:0;stroke-opacity:1"
       d="m 105.01213,327.02767 c 0.27935,-10e-6 0.5587,-0.0156 0.83805,-0.0467 0.27934,-0.0312 0.55869,-0.078 0.83804,-0.14038 0.27935,-0.0624 0.55869,-0.14031 0.83804,-0.23375 0.27935,-0.0935 0.5587,-0.20245 0.83804,-0.32685 0.27935,-0.12437 0.5587,-0.2643 0.83805,-0.41951 0.27934,-0.15521 0.55869,-0.32582 0.83804,-0.51165 0.27935,-0.18581 0.5587,-0.38694 0.83804,-0.60312 0.27935,-0.21619 0.5587,-0.44755 0.83805,-0.69384 0.27934,-0.24629 0.55869,-0.5076 0.83804,-0.78366 0.27935,-0.27608 0.55869,-0.567 0.83804,-0.8725 0.27935,-0.3055 0.5587,-0.62567 0.83804,-0.9602 0.27935,-0.33454 0.5587,-0.68354 0.83805,-1.04669 0.27934,-0.36315 0.55869,-0.74055 0.83804,-1.13185 0.27935,-0.3913 0.55869,-0.7966 0.83804,-1.21555 0.27935,-0.41895 0.5587,-0.85164 0.83805,-1.29771 0.27934,-0.44607 0.55869,-0.9056 0.83804,-1.37822 0.27935,-0.47261 0.55869,-0.9584 0.83804,-1.45696 0.27935,-0.49855 0.5587,-1.00996 0.83804,-1.53384 0.27935,-0.52386 0.5587,-1.06026 0.83805,-1.60876 0.27934,-0.54851 0.55869,-1.1092 0.83804,-1.68165 0.27935,-0.57245 0.55869,-1.15672 0.83804,-1.75237 0.27935,-0.59565 0.5587,-1.20277 0.83804,-1.82087 0.27935,-0.61811 0.5587,-1.24727 0.83805,-1.88705 0.27935,-0.63976 0.55869,-1.29018 0.83804,-1.9508 0.27935,-0.66061 0.5587,-1.33146 0.83804,-2.01207 0.27935,-0.68061 0.5587,-1.37104 0.83805,-2.07079 0.27934,-0.69975 0.55869,-1.40886 0.83804,-2.12685 0.27935,-0.71799 0.55869,-1.4449 0.83804,-2.1802 0.27935,-0.73531 0.5587,-1.47909 0.83804,-2.23077 0.27935,-0.7517 0.5587,-1.51138 0.83805,-2.2785 0.27935,-0.76713 0.55869,-1.54174 0.83804,-2.32332 0.27935,-0.78157 0.5587,-1.57015 0.83804,-2.36517 0.27935,-0.79503 0.5587,-1.59654 0.83805,-2.404 0.27934,-0.80746 0.55869,-1.6209 0.83804,-2.43978 0.27935,-0.81886 0.55869,-1.6432 0.83804,-2.47242 0.27935,-0.82924 0.5587,-1.6634 0.83804,-2.50194 0.27935,-0.83852 0.5587,-1.68146 0.83805,-2.52824 0.27934,-0.84676 0.55869,-1.6974 0.83804,-2.55132 0.27935,-0.85391 0.5587,-1.71116 0.83804,-2.57115 0.27935,-0.85999 0.5587,-1.72274 0.83805,-2.5877 0.27934,-0.86495 0.55869,-1.73213 0.83804,-2.60094 0.27935,-0.86882 0.55869,-1.7393 0.83804,-2.61087 0.27935,-0.87158 0.5587,-1.74427 0.83804,-2.61748 0.27935,-0.87322 0.5587,-1.74699 0.83805,-2.62072 0.27934,-0.87375 0.55869,-1.74749 0.83804,-2.62065 0.27935,-0.87317 0.55869,-1.74575 0.83804,-2.61722 0.27935,-0.87146 0.5587,-1.7418 0.83805,-2.61045 0.27934,-0.86865 0.55869,-1.73561 0.83804,-2.60035 0.27935,-0.86472 0.55869,-1.72722 0.83804,-2.58692 0.27935,-0.85971 0.5587,-1.71663 0.83804,-2.57023 0.27935,-0.85358 0.5587,-1.70382 0.83805,-2.55021 0.27934,-0.84639 0.55869,-1.68887 0.83804,-2.52697 0.27935,-0.83809 0.55869,-1.67175 0.83804,-2.50049 0.27935,-0.82874 0.5587,-1.65251 0.83804,-2.47084 0.27935,-0.81831 0.5587,-1.63115 0.83805,-2.43801 0.27935,-0.80686 0.55869,-1.60771 0.83804,-2.40209 0.27935,-0.79437 0.5587,-1.58222 0.83804,-2.3631 0.27935,-0.78086 0.5587,-1.55471 0.83805,-2.32109 0.27934,-0.76637 0.55869,-1.52522 0.83804,-2.27612 0.27935,-0.75089 0.55869,-1.49379 0.83804,-2.22825 0.27935,-0.73446 0.5587,-1.46044 0.83804,-2.17753 0.27935,-0.7171 0.5587,-1.42523 0.83805,-2.12405 0.27935,-0.6988 0.5587,-1.38821 0.83804,-2.06783 0.27935,-0.67963 0.5587,-1.34942 0.83805,-2.009 0.27934,-0.65959 0.55869,-1.3089 0.83804,-1.9476 0.27935,-0.63869 0.55869,-1.26672 0.83804,-1.8837 0.27935,-0.617 0.5587,-1.22292 0.83805,-1.81742 0.27934,-0.59451 0.55869,-1.17755 0.83804,-1.74881 0.27935,-0.57126 0.55869,-1.13067 0.83804,-1.67796 0.27935,-0.54728 0.5587,-1.08236 0.83804,-1.60498 0.27935,-0.52261 0.5587,-1.03267 0.83805,-1.52995 0.27934,-0.49726 0.55869,-0.98166 0.83804,-1.45296 0.27935,-0.4713 0.55869,-0.92941 0.83804,-1.37412 0.27935,-0.44473 0.5587,-0.87597 0.83804,-1.29354 0.27935,-0.41758 0.5587,-0.8214 0.83805,-1.2113 0.27935,-0.3899 0.55869,-0.7658 0.83804,-1.12753 0.27935,-0.36172 0.5587,-0.7092 0.83804,-1.04228 0.27935,-0.33309 0.5587,-0.65172 0.83805,-0.95574 0.27935,-0.30403 0.55869,-0.59339 0.83804,-0.86796 0.27935,-0.27459 0.5587,-0.5343 0.83805,-0.77909 0.27933,-0.24478 0.55868,-0.47454 0.83803,-0.68921 0.27935,-0.21467 0.5587,-0.41417 0.83805,-0.59845 0.27934,-0.18429 0.55869,-0.35328 0.83804,-0.50694 0.27935,-0.15368 0.5587,-0.29193 0.83804,-0.41478 0.27935,-0.12287 0.5587,-0.23021 0.83805,-0.32208 0.27935,-0.0919 0.55869,-0.16819 0.83804,-0.22898 0.27935,-0.0607 0.5587,-0.106 0.83805,-0.13559 0.27933,-0.0296 0.55868,-0.0436 0.83803,-0.042 0.27935,0.001 0.5587,0.0189 0.83805,0.0516 0.27934,0.0327 0.55869,0.0813 0.83804,0.14516 0.27935,0.064 0.5587,0.14351 0.83804,0.23854 0.27935,0.095 0.5587,0.20561 0.83805,0.3316 0.27935,0.12599 0.55869,0.26746 0.83804,0.42425 0.27935,0.15679 0.5587,0.32897 0.83805,0.51635 0.27933,0.18739 0.55868,0.39006 0.83803,0.6078 0.27935,0.21774 0.5587,0.45064 0.83804,0.69846 0.27935,0.24783 0.5587,0.51066 0.83805,0.78825 0.27935,0.27759 0.5587,0.57001 0.83804,0.87701 0.27935,0.307 0.5587,0.62865 0.83805,0.96467 0.27935,0.33601 0.55869,0.68648 0.83804,1.05108 0.27935,0.36462 0.5587,0.74344 0.83805,1.13618 0.27933,0.39272 0.55868,0.79945 0.83803,1.2198 0.27935,0.42036 0.5587,0.85444 0.83804,1.30187 0.27935,0.44745 0.5587,0.90834 0.83805,1.3823 0.27935,0.47397 0.5587,0.96107 0.83804,1.46094 0.27935,0.49988 0.5587,1.01259 0.83805,1.53774 0.27935,0.52514 0.55869,1.0628 0.83804,1.61255 0.27935,0.54975 0.5587,1.11167 0.83805,1.68532 0.27933,0.57365 0.55868,1.15912 0.83803,1.75594 0.27935,0.59683 0.5587,1.20509 0.83804,1.82431 0.27935,0.61924 0.5587,1.24952 0.83805,1.89038 0.27935,0.64085 0.55869,1.29235 0.83804,1.954 0.27935,0.66166 0.5587,1.33354 0.83805,2.01515 0.27935,0.68161 0.55869,1.37302 0.83804,2.07372 0.27935,0.7007 0.5587,1.41077 0.83805,2.12965 0.27933,0.7189 0.55868,1.44669 0.83803,2.18287 0.27935,0.73617 0.5587,1.48078 0.83804,2.23328 0.27935,0.75252 0.5587,1.51299 0.83805,2.28088 0.27935,0.76789 0.55869,1.54324 0.83804,2.32552 0.27935,0.78229 0.5587,1.57155 0.83805,2.36724 0.27934,0.79569 0.55869,1.59784 0.83804,2.40591 0.27935,0.80808 0.5587,1.6221 0.83805,2.44153 0.27934,0.81942 0.55869,1.64427 0.83804,2.47401 0.27935,0.82974 0.5587,1.66438 0.83803,2.50336 0.27935,0.83898 0.5587,1.68234 0.83805,2.5295 0.27935,0.84717 0.55869,1.69815 0.83804,2.55242 0.27935,0.85426 0.5587,1.71181 0.83805,2.57207 0.27934,0.86028 0.55869,1.72329 0.83804,2.58846 0.27935,0.86519 0.5587,1.73255 0.83805,2.60154 0.27934,0.86899 0.55869,1.73961 0.83804,2.6113 0.27935,0.87168 0.5587,1.74444 0.83803,2.61771 0.27935,0.87328 0.5587,1.74707 0.83805,2.62082 0.27935,0.87373 0.55869,1.74743 0.83804,2.62055 0.27935,0.8731 0.5587,1.7456 0.83805,2.61695 0.27934,0.87133 0.55869,1.74152 0.83804,2.61 0.27935,0.86848 0.5587,1.73525 0.83804,2.59975 0.27935,0.8645 0.5587,1.72672 0.83805,2.58615 0.27935,0.85942 0.5587,1.71602 0.83803,2.56927 0.27935,0.85325 0.5587,1.70313 0.83805,2.5491 0.27935,0.84599 0.55869,1.68805 0.83804,2.52569 0.27935,0.83765 0.5587,1.67082 0.83805,2.49906 0.27934,0.82823 0.55869,1.65146 0.83804,2.46923 0.27935,0.81775 0.5587,1.63 0.83804,2.43625 0.27935,0.80623 0.5587,1.60645 0.83805,2.40016 0.27935,0.7937 0.55868,1.58086 0.83803,2.36101 0.27935,0.78015 0.5587,1.55325 0.83805,2.31885 0.27935,0.76561 0.55869,1.52366 0.83804,2.27375 0.27935,0.75008 0.5587,1.49213 0.83805,2.22571 0.27934,0.7336 0.55869,1.45869 0.83804,2.17487 0.27935,0.71617 0.5587,1.42338 0.83804,2.12122 0.27935,0.69785 0.5587,1.38628 0.83805,2.06489 0.27935,0.67862 0.55868,1.34739 0.83803,2.00592 0.27935,0.65853 0.5587,1.30678 0.83805,1.94438 0.27935,0.6376 0.55869,1.2645 0.83804,1.88036 0.27935,0.61586 0.5587,1.22063 0.83805,1.81396 0.27934,0.59333 0.55869,1.17518 0.83804,1.74523 0.27935,0.57005 0.5587,1.12824 0.83804,1.67426 0.27935,0.54604 0.5587,1.07986 0.83805,1.60119 0.27935,0.52132 0.55868,1.0301 0.83803,1.52605 0.27935,0.49595 0.5587,0.97902 0.83805,1.44897 0.27934,0.46994 0.55869,0.92669 0.83804,1.37004 0.27935,0.44334 0.5587,0.87319 0.83805,1.28936 0.27934,0.41618 0.55869,0.81858 0.83804,1.20704 0.27935,0.38848 0.5587,0.76291 0.83804,1.12319 0.27935,0.36026 0.5587,0.70627 0.83805,1.03789 0.27935,0.33161 0.55868,0.64873 0.83803,0.95126 0.27935,0.30254 0.5587,0.59037 0.83805,0.86344 0.27934,0.27306 0.55869,0.53125 0.83804,0.7745 0.27935,0.24325 0.5587,0.47146 0.83804,0.68458 0.27935,0.21312 0.5587,0.41105 0.83805,0.59378 0.27935,0.18272 0.5587,0.35014 0.83804,0.50224 0.27935,0.15208 0.5587,0.28876 0.83805,0.41003 0.27935,0.12125 0.55868,0.22703 0.83803,0.31732 0.27935,0.0902 0.5587,0.16501 0.83805,0.2242 0.27934,0.0593 0.55869,0.10275 0.83804,0.13078 0.27935,0.028 0.5587,0.0404 0.83804,0.0372 0.27935,-0.004 0.5587,-0.022 0.83805,-0.0564 0.27935,-0.0344 0.5587,-0.0844 0.83804,-0.14995 0.27935,-0.0655 0.5587,-0.1467 0.83805,-0.24333 0.27935,-0.0966 0.55868,-0.20878 0.83803,-0.33636 0.27935,-0.12756 0.5587,-0.27062 0.83805,-0.42897 0.27934,-0.15837 0.55869,-0.33212 0.83804,-0.52107 0.27935,-0.18893 0.5587,-0.39317 0.83804,-0.61246 0.27935,-0.21929 0.5587,-0.45372 0.83805,-0.70309 0.27935,-0.24935 0.55869,-0.51371 0.83804,-0.79281 0.27935,-0.27911 0.5587,-0.57304 0.83805,-0.88154 0.27935,-0.3085 0.55868,-0.63163 0.83803,-0.96912 0.27935,-0.3375 0.5587,-0.68943 0.83805,-1.05549 0.27934,-0.36606 0.55869,-0.74634 0.83804,-1.14049 0.27935,-0.39416 0.5587,-0.8023 0.83804,-1.22405 0.27935,-0.42176 0.5587,-0.85722 0.83805,-1.30603 0.27935,-0.44883 0.55869,-0.91107 0.83804,-1.38638 0.27935,-0.4753 0.5587,-0.96374 0.83805,-1.46492 0.27935,-0.50118 0.55868,-1.01519 0.83803,-1.54162 0.27935,-0.52642 0.5587,-1.06533 0.83805,-1.61633 0.27934,-0.55099 0.55869,-1.11413 0.83804,-1.68899 0.27935,-0.57486 0.5587,-1.16151 0.83804,-1.7595 0.27935,-0.598 0.5587,-1.2074 0.83805,-1.82776 0.27935,-0.62037 0.55869,-1.25175 0.83804,-1.89369 0.27935,-0.64194 0.5587,-1.2945 0.83805,-1.9572 0.27933,-0.6627 0.55868,-1.3356 0.83803,-2.01821 0.27935,-0.68262 0.5587,-1.375 0.83805,-2.07667 0.27934,-0.70165 0.55869,-1.41263 0.83804,-2.13243 0.27935,-0.71982 0.5587,-1.44849 0.83804,-2.18552 0.27935,-0.73703 0.5587,-1.48247 0.83805,-2.2358 0.27935,-0.75332 0.55869,-1.51457 0.83804,-2.28322 0.27935,-0.76865 0.5587,-1.54475 0.83805,-2.32775 0.27933,-0.783 0.55868,-1.57294 0.83803,-2.36929 0.27935,-0.79635 0.5587,-1.59914 0.83804,-2.40781 0.27935,-0.80868 0.5587,-1.62329 0.83805,-2.44326 0.27935,-0.81998 0.5587,-1.64537 0.83804,-2.4756 0.27935,-0.83023 0.5587,-1.66534 0.83805,-2.50478 0.27935,-0.83942 0.55869,-1.6832 0.83804,-2.53075 0.27935,-0.84755 0.5587,-1.69891 0.83805,-2.5535 0.27933,-0.8546 0.55868,-1.71245 0.83803,-2.573 0.27935,-0.86055 0.5587,-1.72381 0.83804,-2.58921 0.27935,-0.8654 0.5587,-1.73296 0.83805,-2.60211 0.27935,-0.86917 0.5587,-1.73992 0.83804,-2.61172 0.27935,-0.87178 0.5587,-1.74463 0.83805,-2.61796 0.27935,-0.87332 0.55869,-1.74712 0.83804,-2.62087 0.27935,-0.87374 0.5587,-1.7474 0.83805,-2.62044 0.27933,-0.87305 0.55868,-1.74545 0.83803,-2.61668 0.27935,-0.87122 0.5587,-1.74126 0.83804,-2.60957 0.27935,-0.8683 0.5587,-1.73485 0.83805,-2.59913 0.27935,-0.86426 0.55869,-1.72622 0.83804,-2.58536 0.27935,-0.85914 0.5587,-1.71541 0.83805,-2.56831 0.27935,-0.8529 0.55869,-1.70241 0.83804,-2.54799 0.27935,-0.84559 0.5587,-1.68722 0.83805,-2.5244 0.27933,-0.83719 0.55868,-1.66989 0.83803,-2.4976 0.27935,-0.82772 0.5587,-1.65042 0.83804,-2.46761 0.27935,-0.8172 0.5587,-1.62885 0.83805,-2.43448 0.27935,-0.80563 0.55869,-1.6052 0.83804,-2.39823 0.27935,-0.79304 0.5587,-1.5795 0.83805,-2.35893 0.27934,-0.77944 0.55869,-1.55179 0.83804,-2.31661 0.27935,-0.76484 0.5587,-1.5221 0.83805,-2.27135 0.27933,-0.74926 0.55868,-1.49046 0.83803,-2.22319 0.27935,-0.73272 0.5587,-1.45691 0.83804,-2.17217 0.27935,-0.71527 0.5587,-1.42153 0.83805,-2.11842 0.27935,-0.69687 0.55869,-1.38431 0.83804,-2.06192 0.27935,-0.67761 0.5587,-1.34534 0.83805,-2.00283 0.27934,-0.65747 0.55869,-1.30465 0.83804,-1.94115 0.27935,-0.63651 0.5587,-1.2623 0.83805,-1.87702 0.27933,-0.61473 0.55868,-1.21833 0.83803,-1.81049 0.27935,-0.59216 0.5587,-1.17281 0.83804,-1.74165 0.27935,-0.56882 0.5587,-1.12579 0.83805,-1.67057 0.27935,-0.54479 0.55869,-1.07734 0.83804,-1.59738 0.27935,-0.52005 0.5587,-1.02751 0.83805,-1.52215 0.27934,-0.49464 0.55869,-0.97636 0.83804,-1.44496 0.27935,-0.4686 0.5587,-0.92399 0.83803,-1.36595 0.27935,-0.44196 0.5587,-0.87043 0.83805,-1.28519 0.27935,-0.41476 0.5587,-0.81575 0.83804,-1.20277 0.27935,-0.38704 0.5587,-0.76004 0.83805,-1.11885 0.27935,-0.35882 0.55869,-0.70335 0.83804,-1.03348 0.27935,-0.33014 0.5587,-0.64576 0.83805,-0.9468 0.27934,-0.30102 0.55869,-0.58736 0.83804,-0.8589 0.27935,-0.27154 0.5587,-0.52821 0.83803,-0.76991 0.27935,-0.24171 0.5587,-0.46839 0.83805,-0.67995 0.27935,-0.21158 0.5587,-0.40795 0.83804,-0.58911 0.27935,-0.18117 0.5587,-0.347 0.83805,-0.49752 0.27935,-0.15052 0.55869,-0.28562 0.83804,-0.4053 0.27935,-0.11962 0.5587,-0.22386 0.83805,-0.31256 0.27934,-0.0886 0.55869,-0.16181 0.83804,-0.21941 0.27935,-0.0576 0.5587,-0.0996 0.83803,-0.126 0.27935,-0.0264 0.5587,-0.0373 0.83805,-0.0324 0.27935,0.005 0.55869,0.0252 0.83804,0.0612 0.27935,0.036 0.5587,0.0876 0.83805,0.15475 0.27935,0.0671 0.55869,0.14988 0.83804,0.24809 0.27935,0.0982 0.5587,0.21198 0.83805,0.34113 0.27934,0.12915 0.55869,0.27378 0.83804,0.43371 0.27935,0.15994 0.5587,0.33525 0.83803,0.52576 0.27935,0.1905 0.5587,0.39629 0.83805,0.61713 0.27935,0.22083 0.55869,0.45682 0.83804,0.70771 0.27935,0.25089 0.5587,0.51676 0.83805,0.79739 0.27934,0.28061 0.55869,0.57606 0.83804,0.88605 0.27935,0.30998 0.5587,0.63461 0.83805,0.97358 0.27934,0.33897 0.55869,0.69237 0.83804,1.05988 0.27935,0.36751 0.5587,0.74922 0.83803,1.14481 0.27935,0.39559 0.5587,0.80513 0.83805,1.22829 0.27935,0.42315 0.55869,0.86001 0.83804,1.3102 0.27935,0.45019 0.5587,0.91379 0.83805,1.39044 0.27934,0.47663 0.55869,0.9664 0.83804,1.4689 0.27935,0.50248 0.5587,1.01778 0.83805,1.54548 0.27934,0.5277 0.55869,1.06788 0.83804,1.62012 0.27935,0.55222 0.5587,1.1166 0.83803,1.69266 0.27935,0.57606 0.5587,1.16389 0.83805,1.76305 0.27935,0.59916 0.55869,1.20971 0.83804,1.8312 0.27935,0.62149 0.5587,1.25397 0.83805,1.897 0.27934,0.64302 0.55869,1.29665 0.83804,1.96039 0.27935,0.66373 0.5587,1.33766 0.83804,2.02127 0.27935,0.68361 0.5587,1.37696 0.83805,2.07958 0.27935,0.70261 0.5587,1.41452 0.83803,2.13523 0.27935,0.7207 0.5587,1.45027 0.83805,2.18817 0.27935,0.73788 0.55869,1.48416 0.83804,2.23828 0.27935,0.75414 0.5587,1.51618 0.83805,2.28559 0.27934,0.7694 0.55869,1.54624 0.83804,2.32994 0.27935,0.78371 0.5587,1.57434 0.83804,2.37134 0.27935,0.797 0.5587,1.60042 0.83805,2.40971 0.27935,0.80927 0.55868,1.62446 0.83803,2.44499 0.27935,0.82053 0.5587,1.64643 0.83805,2.47717 0.27935,0.83073 0.55869,1.66631 0.83804,2.50619 0.27935,0.83986 0.5587,1.68405 0.83805,2.53199 0.27934,0.84795 0.55869,1.69966 0.83804,2.55458 0.27935,0.85493 0.5587,1.71309 0.83804,2.57392 0.27935,0.86082 0.5587,1.72432 0.83805,2.58995 0.27935,0.86562 0.55868,1.73337 0.83803,2.60268 0.27935,0.86932 0.5587,1.74022 0.83805,2.61212 0.27935,0.8719 0.55869,1.74481 0.83804,2.61818 0.27935,0.87338 0.5587,1.7472 0.83805,2.62094 0.27934,0.87373 0.55869,1.74736 0.83804,2.62033 0.27935,0.87297 0.5587,1.7453 0.83804,2.6164 0.27935,0.8711 0.5587,1.74098 0.83805,2.60911 0.27935,0.86811 0.55868,1.73446 0.83803,2.5985 0.27935,0.86402 0.5587,1.72574 0.83805,2.58457 0.27934,0.85884 0.55869,1.7148 0.83804,2.56735 0.27935,0.85255 0.5587,1.70168 0.83805,2.54685 0.27934,0.84519 0.55869,1.68639 0.83804,2.52312 0.27935,0.83672 0.5587,1.66893 0.83804,2.49613 0.27935,0.8272 0.5587,1.64937 0.83805,2.46599 0.27935,0.81664 0.55868,1.62769 0.83803,2.4327 0.27935,0.805 0.5587,1.60393 0.83805,2.39629 0.27934,0.79236 0.55869,1.57812 0.83804,2.35684 0.27935,0.7787 0.5587,1.55031 0.83805,2.31436 0.27934,0.76406 0.55869,1.52052 0.83804,2.26895 0.27935,0.74844 0.5587,1.48879 0.83804,2.22064 0.27935,0.73185 0.5587,1.45515 0.83805,2.16948 0.27935,0.71434 0.55868,1.41967 0.83803,2.11558 0.27935,0.69591 0.5587,1.38236 0.83805,2.05896 0.27934,0.67661 0.55869,1.3433 0.83804,1.99973 0.27935,0.65642 0.5587,1.30252 0.83804,1.93793 0.27935,0.63542 0.5587,1.26008 0.83805,1.87367 0.27935,0.61358 0.5587,1.21603 0.83804,1.80701 0.27935,0.59099 0.5587,1.17044 0.83805,1.73806 0.27935,0.56761 0.55868,1.12334 0.83803,1.66688 0.27935,0.54353 0.5587,1.07481 0.83805,1.59357 0.27934,0.51875 0.55869,1.02491 0.83804,1.51824 0.27935,0.49331 0.5587,0.97371 0.83804,1.44096 0.27935,0.46725 0.5587,0.92126 0.83805,1.36185 0.27935,0.44058 0.55869,0.86764 0.83804,1.281 0.27935,0.41335 0.5587,0.81291 0.83805,1.19851 0.27935,0.3856 0.55868,0.75715 0.83803,1.1145 0.27935,0.35735 0.5587,0.70043 0.83805,1.02908 0.27934,0.32865 0.55869,0.64279 0.83804,0.94231 0.27935,0.29953 0.5587,0.58435 0.83804,0.85438 0.27935,0.27001 0.5587,0.52515 0.83805,0.76532 0.27935,0.24018 0.55869,0.46529 0.83804,0.67531 0.27935,0.21002 0.5587,0.40484 0.83805,0.58443 0.27935,0.1796 0.55868,0.34387 0.83803,0.49281 0.27935,0.14894 0.5587,0.28246 0.83805,0.40056 0.27934,0.11813 0.55869,0.22068 0.83804,0.30779 0.27935,0.0871 0.5587,0.15864 0.83804,0.21464 0.27935,0.056 0.5587,0.0964 0.83805,0.12125 0.27935,0.0249 0.55869,0.034 0.83804,0.0276 0.27935,-0.006 0.5587,-0.0284 0.83805,-0.066 0.27933,-0.0376 0.55868,-0.0909 0.83803,-0.15953 0.27935,-0.0687 0.5587,-0.15308 0.83805,-0.25288 0.27934,-0.0997 0.55869,-0.21515 0.83804,-0.34587 0.27935,-0.13074 0.5587,-0.27695 0.83804,-0.43845 0.27935,-0.1615 0.5587,-0.33839 0.83805,-0.53047 0.27935,-0.19206 0.55869,-0.3994 0.83804,-0.62178 0.27935,-0.22239 0.5587,-0.4599 0.83805,-0.71233 0.27933,-0.25242 0.55868,-0.51982 0.83803,-0.80196 0.27935,-0.28213 0.5587,-0.57908 0.83804,-0.89056 0.27935,-0.31149 0.5587,-0.6376 0.83805,-0.97804 0.27935,-0.34044 0.5587,-0.6953 0.83804,-1.06426 0.27935,-0.36897 0.5587,-0.75212 0.83805,-1.14913 0.27935,-0.39701 0.55869,-0.80797 0.83804,-1.23252 0.27935,-0.42457 0.5587,-0.8628 0.83805,-1.31435 0.27933,-0.45157 0.55868,-0.91653 0.83803,-1.39452 0.27935,-0.47797 0.5587,-0.96906 0.83804,-1.47286 0.27935,-0.5038 0.5587,-1.0204 0.83805,-1.54936 0.27935,-0.52898 0.5587,-1.07041 0.83804,-1.62389 0.27935,-0.55347 0.5587,-1.11905 0.83805,-1.69632 0.27935,-0.57727 0.55869,-1.16628 0.83804,-1.7666 0.27935,-0.60032 0.5587,-1.21202 0.83805,-1.83463 0.27933,-0.62261 0.55868,-1.2562 0.83803,-1.90031 0.27935,-0.6441 0.5587,-1.29879 0.83804,-1.96356 0.27935,-0.66479 0.5587,-1.33973 0.83805,-2.02433 0.27935,-0.68461 0.55869,-1.37894 0.83804,-2.0825 0.27935,-0.70356 0.5587,-1.4164 0.83805,-2.13801 0.27935,-0.72161 0.55869,-1.45205 0.83804,-2.1908 0.27935,-0.73875 0.5587,-1.48585 0.83805,-2.24079 0.27933,-0.75494 0.55868,-1.51776 0.83803,-2.28792 0.27935,-0.77017 0.5587,-1.54773 0.83804,-2.33214 0.27935,-0.78441 0.5587,-1.57573 0.83805,-2.37338 0.27935,-0.79766 0.55869,-1.60171 0.83804,-2.41158 0.27935,-0.80989 0.5587,-1.62565 0.83805,-2.44673 0.27935,-0.82107 0.55869,-1.64751 0.83804,-2.47874 0.27935,-0.83122 0.5587,-1.66727 0.83805,-2.50758 0.27933,-0.8403 0.55868,-1.6849 0.83803,-2.53323 0.27935,-0.84832 0.5587,-1.7004 0.83804,-2.55566 0.27935,-0.85525 0.5587,-1.71371 0.83805,-2.57481 0.27935,-0.86109 0.55869,-1.72484 0.83804,-2.59068 0.27935,-0.86584 0.5587,-1.73379 0.83805,-2.60326 0.27934,-0.86948 0.55869,-1.74049 0.83804,-2.6125 0.27935,-0.872 0.5587,-1.74499 0.83805,-2.61841 0.27933,-0.87342 0.55868,-1.74727 0.83803,-2.62098 0.27935,-0.87372 0.5587,-1.74731 0.83804,-2.62021 0.27935,-0.87291 0.5587,-1.74513 0.83805,-2.6161 0.27935,-0.87099 0.55869,-1.74071 0.83804,-2.60865 0.27935,-0.86794 0.5587,-1.73408 0.83805,-2.59788 0.27934,-0.86378 0.55869,-1.72522 0.83804,-2.58376 0.27935,-0.85855 0.5587,-1.71419 0.83803,-2.56639 0.27935,-0.8522 0.5587,-1.70095 0.83805,-2.54571 0.27935,-0.84477 0.5587,-1.68555 0.83804,-2.52181 0.27935,-0.83626 0.5587,-1.66799 0.83805,-2.49466 0.27935,-0.82669 0.55869,-1.64832 0.83804,-2.46437 0.27935,-0.81606 0.5587,-1.62652 0.83805,-2.4309 0.27934,-0.80438 0.55869,-1.60266 0.83804,-2.39435 0.27935,-0.79168 0.5587,-1.57675 0.83803,-2.35472 0.27935,-0.77798 0.5587,-1.54884 0.83805,-2.31211 0.27935,-0.76328 0.5587,-1.51894 0.83804,-2.26654 0.27935,-0.74761 0.5587,-1.48711 0.83805,-2.21809 0.27935,-0.73097 0.55869,-1.45337 0.83804,-2.1668 0.27935,-0.71341 0.5587,-1.41779 0.83805,-2.11274 0.27934,-0.69493 0.55869,-1.3804 0.83804,-2.05598 0.27935,-0.67559 0.5587,-1.34125 0.83803,-1.99663 0.27935,-0.65536 0.5587,-1.30037 0.83805,-1.93469 0.27935,-0.63431 0.55869,-1.25786 0.83804,-1.87031 0.27935,-0.61245 0.5587,-1.21374 0.83805,-1.80354 0.27935,-0.5898 0.55869,-1.16805 0.83804,-1.73446 0.27935,-0.5664 0.5587,-1.12089 0.83805,-1.66316 0.27934,-0.54229 0.55869,-1.0723 0.83804,-1.58976 0.27935,-0.51748 0.5587,-1.02233 0.83803,-1.51433 0.27935,-0.492 0.5587,-0.97106 0.83805,-1.43695 0.27935,-0.4659 0.55869,-0.91855 0.83804,-1.35775 0.27935,-0.4392 0.5587,-0.86486 0.83805,-1.27681 0.27934,-0.41195 0.55869,-0.81009 0.83804,-1.19425 0.27935,-0.38416 0.5587,-0.75426 0.83805,-1.11015 0.27934,-0.3559 0.55869,-0.69749 0.83804,-1.02466 0.27935,-0.32717 0.5587,-0.63982 0.83803,-0.93784 0.27935,-0.29803 0.5587,-0.58133 0.83805,-0.84983 0.27935,-0.2685 0.55869,-0.5221 0.83804,-0.76073 0.27935,-0.23864 0.5587,-0.46222 0.83805,-0.67068 0.27934,-0.20846 0.55869,-0.40172 0.83804,-0.57975 0.27935,-0.17804 0.5587,-0.34074 0.83805,-0.4881 0.27934,-0.14736 0.55869,-0.2793 0.83804,-0.39581 0.27935,-0.1165 0.5587,-0.21751 0.83803,-0.30303 0.27935,-0.0855 0.5587,-0.15545 0.83805,-0.20985 0.27935,-0.0544 0.55869,-0.0932 0.83804,-0.11637 0.27935,-0.0232 0.5587,-0.0307 0.83805,-0.0229 0.27934,0.007 0.55869,0.0316 0.83804,0.0707 0.27935,0.0391 0.5587,0.094 0.83804,0.16433 0.27935,0.0704 0.5587,0.15626 0.83805,0.25764 0.27935,0.10137 0.5587,0.21832 0.83803,0.35063 0.27935,0.13232 0.5587,0.28012 0.83805,0.44319 0.27935,0.16308 0.55869,0.34153 0.83804,0.53515 0.27935,0.19363 0.5587,0.40251 0.83805,0.62645 0.27934,0.22394 0.55869,0.463 0.83804,0.71695 0.27935,0.25395 0.5587,0.52288 0.83804,0.80653 0.27935,0.28363 0.5587,0.5821 0.83805,0.89507 0.27935,0.31298 0.55868,0.64058 0.83803,0.98249 0.27935,0.34191 0.5587,0.69824 0.83805,1.06865 0.27935,0.3704 0.55869,0.755 0.83804,1.15342 0.27935,0.39844 0.5587,0.81082 0.83805,1.23677 0.27934,0.42595 0.55869,0.86557 0.83804,1.3185 0.27935,0.45292 0.5587,0.91923 0.83804,1.39856 0.27935,0.47932 0.5587,0.97174 0.83805,1.47684 0.27935,0.50511 0.55868,1.02298 0.83803,1.55323 0.27935,0.53025 0.5587,1.07294 0.83805,1.62764 0.27935,0.55471 0.55869,1.12151 0.83804,1.69999 0.27935,0.57846 0.5587,1.16866 0.83805,1.77014 0.27934,0.60148 0.55869,1.21432 0.83804,1.83805 0.27935,0.62373 0.5587,1.25842 0.83804,1.90361 0.27935,0.64519 0.5587,1.30092 0.83805,1.96675 0.27935,0.66581 0.55868,1.34176 0.83803,2.02736 0.27935,0.6856 0.5587,1.3809 0.83805,2.08541 0.27934,0.7045 0.55869,1.41827 0.83804,2.14079 0.27935,0.72251 0.5587,1.45383 0.83805,2.19343 0.27934,0.7396 0.55869,1.48753 0.83804,2.24327 0.27935,0.75574 0.5587,1.51934 0.83804,2.29026 0.27935,0.77093 0.5587,1.54922 0.83805,2.33433 0.27935,0.78511 0.55868,1.5771 0.83803,2.37541 0.27935,0.7983 0.5587,1.60298 0.83805,2.41346 0.27934,0.81049 0.55869,1.62682 0.83804,2.44844 0.27935,0.82163 0.5587,1.64858 0.83805,2.48029 0.27934,0.83171 0.55869,1.66822 0.83804,2.50897 0.27935,0.84075 0.5587,1.68577 0.83804,2.53447 0.27935,0.84871 0.5587,1.70113 0.83805,2.55672 0.27935,0.85558 0.55868,1.71434 0.83803,2.5757 0.27935,0.86136 0.5587,1.72536 0.83805,2.59141 0.27934,0.86605 0.55869,1.73418 0.83804,2.6038 0.27935,0.86964 0.5587,1.74079 0.83804,2.61289 0.27935,0.8721 0.5587,1.74516 0.83805,2.61863 0.27935,0.87346 0.5587,1.74732 0.83804,2.62102 0.27935,0.87371 0.5587,1.74725 0.83805,2.62009 0.27935,0.87284 0.55868,1.74495 0.83803,2.6158 0.27935,0.87085 0.5587,1.74042 0.83805,2.60817 0.27934,0.86775 0.55869,1.73368 0.83804,2.59723 0.27935,0.86355 0.5587,1.72471 0.83804,2.58296 0.27935,0.85825 0.5587,1.71355 0.83805,2.5654 0.27935,0.85185 0.55869,1.70021 0.83804,2.54458 0.27935,0.84435 0.5587,1.68468 0.83805,2.52048 0.27935,0.8358 0.55868,1.66703 0.83803,2.4932 0.27935,0.82617 0.5587,1.64724 0.83805,2.46272 0.27934,0.81548 0.55869,1.62535 0.83804,2.42911 0.27935,0.80375 0.5587,1.60137 0.83804,2.39237 0.27935,0.79102 0.5587,1.57538 0.83805,2.35263 0.27935,0.77725 0.55869,1.54735 0.83804,2.30985 0.27935,0.7625 0.5587,1.51735 0.83805,2.26412"
       title="0.5*sin(x/1.41)*sin(x/1.41)"
       id="path4913"
       inkscape:connector-curvature="0" />
    <path
       id="path5081"
       title="0.1*sin(x*1.58)*sin(x*1.58)"
       d="m 105.01213,326.41362 c 0.27935,-10e-6 0.5587,-0.0155 0.83804,-0.0464 0.27935,-0.0309 0.5587,-0.0772 0.83805,-0.13875 0.27935,-0.0616 0.55869,-0.13842 0.83804,-0.23028 0.27935,-0.0919 0.5587,-0.19878 0.83804,-0.32035 0.27935,-0.12163 0.5587,-0.25788 0.83805,-0.40839 0.27934,-0.15051 0.55869,-0.31534 0.83804,-0.49385 0.27935,-0.17851 0.55869,-0.3708 0.83804,-0.57618 0.27935,-0.20537 0.5587,-0.42392 0.83804,-0.65486 0.27935,-0.23094 0.5587,-0.47436 0.83805,-0.7294 0.27934,-0.25505 0.55869,-0.52179 0.83804,-0.79932 0.27935,-0.27754 0.5587,-0.56593 0.83804,-0.86419 0.27935,-0.29828 0.5587,-0.60648 0.83805,-0.92359 0.27934,-0.31711 0.55869,-0.64317 0.83804,-0.97712 0.27935,-0.33395 0.55869,-0.67583 0.83804,-1.02449 0.27935,-0.34868 0.5587,-0.70419 0.83804,-1.06538 0.27935,-0.36118 0.5587,-0.72808 0.83805,-1.0995 0.27934,-0.37142 0.55869,-0.74738 0.83804,-1.12668 0.27935,-0.3793 0.55869,-0.76195 0.83804,-1.14673 0.27935,-0.38477 0.5587,-0.77169 0.83805,-1.15951 0.27934,-0.38783 0.55869,-0.77655 0.83804,-1.16496 0.27935,-0.38842 0.55869,-0.77649 0.83804,-1.16304 0.27935,-0.38654 0.5587,-0.77153 0.83804,-1.15375 0.27935,-0.38221 0.5587,-0.76166 0.83805,-1.13715 0.27934,-0.37549 0.55869,-0.747 0.83804,-1.11338 0.27935,-0.36637 0.55869,-0.72758 0.83804,-1.08253 0.27935,-0.35494 0.5587,-0.70358 0.83804,-1.04485 0.27935,-0.34127 0.5587,-0.67513 0.83805,-1.00055 0.27935,-0.32543 0.55869,-0.64239 0.83804,-0.94993 0.27935,-0.30752 0.5587,-0.60557 0.83804,-0.89327 0.27935,-0.28769 0.5587,-0.56495 0.83805,-0.83098 0.27934,-0.26602 0.55869,-0.52074 0.83804,-0.76341 0.27935,-0.24268 0.55869,-0.47324 0.83804,-0.69103 0.27935,-0.2178 0.5587,-0.42273 0.83804,-0.61427 0.27935,-0.19153 0.5587,-0.36955 0.83805,-0.5336 0.27935,-0.16406 0.55869,-0.31405 0.83804,-0.44959 0.27935,-0.13554 0.5587,-0.25654 0.83804,-0.36271 0.27935,-0.10613 0.5587,-0.19741 0.83805,-0.27354 0.27934,-0.0761 0.55869,-0.13704 0.83804,-0.18264 0.27935,-0.0456 0.55869,-0.0758 0.83804,-0.0906 0.27935,-0.0147 0.5587,-0.0141 0.83804,0.002 0.27935,0.0161 0.5587,0.0478 0.83805,0.0946 0.27934,0.0469 0.55869,0.10925 0.83804,0.1867 0.27935,0.0774 0.5587,0.17008 0.83804,0.27753 0.27935,0.1075 0.5587,0.22981 0.83805,0.36661 0.27934,0.13679 0.55869,0.2881 0.83804,0.45336 0.27935,0.16528 0.55869,0.34458 0.83804,0.53727 0.27935,0.1927 0.5587,0.39885 0.83804,0.61775 0.27935,0.2189 0.5587,0.45061 0.83805,0.69433 0.27934,0.24372 0.55869,0.49952 0.83804,0.76652 0.27935,0.267 0.55869,0.54526 0.83804,0.83385 0.27935,0.28858 0.5587,0.58756 0.83805,0.89591 0.27934,0.30835 0.55869,0.62612 0.83804,0.95229 0.27935,0.32616 0.55869,0.66075 0.83804,1.00265 0.27935,0.34191 0.5587,0.69117 0.83804,1.04666 0.27935,0.35549 0.5587,0.71724 0.83805,1.08405 0.27934,0.36682 0.55869,0.73875 0.83804,1.11457 0.27935,0.37584 0.55869,0.75559 0.83804,1.13805 0.27935,0.38247 0.5587,0.76764 0.83804,1.15432 0.27935,0.38667 0.5587,0.77483 0.83805,1.16327 0.27935,0.38844 0.55869,0.77714 0.83804,1.16488 0.27935,0.38773 0.5587,0.77451 0.83804,1.1591 0.27935,0.3846 0.5587,0.76698 0.83805,1.146 0.27935,0.379 0.5587,0.7546 0.83804,1.12562 0.27935,0.37103 0.5587,0.73745 0.83805,1.09814 0.27934,0.36069 0.55869,0.71562 0.83804,1.0637 0.27935,0.34807 0.55869,0.68926 0.83804,1.02252 0.27935,0.33327 0.5587,0.65855 0.83804,0.97489 0.27935,0.31634 0.5587,0.62366 0.83805,0.92108 0.27934,0.2974 0.55869,0.58482 0.83804,0.86142 0.27935,0.27659 0.55869,0.5423 0.83804,0.79633 0.27935,0.25403 0.5587,0.49633 0.83805,0.7262 0.27934,0.22986 0.55869,0.44721 0.83804,0.65146 0.27935,0.20424 0.55869,0.39527 0.83804,0.5726 0.27935,0.17732 0.5587,0.34084 0.83804,0.49012 0.27935,0.14929 0.5587,0.28424 0.83805,0.40454 0.27934,0.12025 0.55869,0.22585 0.83804,0.3164 0.27935,0.0905 0.55869,0.16603 0.83804,0.22625 0.27935,0.0602 0.5587,0.10513 0.83804,0.13468 0.27936,0.0295 0.5587,0.0436 0.83805,0.0422 0.27935,-0.001 0.5587,-0.0182 0.83805,-0.0505 0.27933,-0.0322 0.55868,-0.0799 0.83803,-0.14284 0.27935,-0.0629 0.5587,-0.14113 0.83804,-0.23431 0.27935,-0.0931 0.5587,-0.20143 0.83805,-0.32429 0.27935,-0.12288 0.55869,-0.26046 0.83804,-0.41224 0.27935,-0.15179 0.5587,-0.31784 0.83805,-0.49756 0.27935,-0.17974 0.55869,-0.37321 0.83804,-0.57975 0.27935,-0.20654 0.5587,-0.42621 0.83805,-0.65826 0.27933,-0.23204 0.55868,-0.47653 0.83803,-0.7326 0.27935,-0.25608 0.5587,-0.52382 0.83804,-0.8023 0.27935,-0.2785 0.5587,-0.5678 0.83805,-0.86694 0.27935,-0.29915 0.55869,-0.60819 0.83804,-0.92609 0.27935,-0.3179 0.5587,-0.64471 0.83805,-0.97936 0.27934,-0.33464 0.55869,-0.67716 0.83804,-1.02644 0.27935,-0.34927 0.5587,-0.70534 0.83805,-1.06702 0.27933,-0.36169 0.55868,-0.72904 0.83803,-1.10087 0.27935,-0.37181 0.5587,-0.74812 0.83804,-1.12771 0.27935,-0.3796 0.5587,-0.76249 0.83805,-1.14745 0.27935,-0.38496 0.55869,-0.77201 0.83804,-1.15991 0.27935,-0.3879 0.5587,-0.77665 0.83805,-1.16504 0.27934,-0.38837 0.55869,-0.77637 0.83804,-1.16277 0.27935,-0.3864 0.5587,-0.77119 0.83805,-1.15317 0.27933,-0.38197 0.55868,-0.76112 0.83803,-1.13626 0.27935,-0.37514 0.5587,-0.74624 0.83804,-1.11215 0.27935,-0.36592 0.5587,-0.72662 0.83805,-1.08101 0.27935,-0.35439 0.55869,-0.70241 0.83804,-1.04303 0.27935,-0.34061 0.5587,-0.67376 0.83805,-0.99843 0.27934,-0.32469 0.55869,-0.64084 0.83804,-0.94754 0.27935,-0.3067 0.5587,-0.60386 0.83803,-0.89064 0.27935,-0.28676 0.5587,-0.56306 0.83805,-0.82809 0.27935,-0.26502 0.5587,-0.5187 0.83804,-0.76031 0.27935,-0.2416 0.5587,-0.47106 0.83805,-0.68771 0.27935,-0.21665 0.55869,-0.42044 0.83804,-0.61078 0.27935,-0.19032 0.5587,-0.36713 0.83805,-0.52995 0.27934,-0.16281 0.55869,-0.31153 0.83804,-0.44578 0.27935,-0.13427 0.5587,-0.25395 0.83803,-0.3588 0.27935,-0.10488 0.5587,-0.19477 0.83805,-0.26955 0.27935,-0.0747 0.55869,-0.13434 0.83804,-0.17858 0.27935,-0.0442 0.5587,-0.073 0.83805,-0.0865 0.27935,-0.0134 0.55869,-0.0112 0.83804,0.006 0.27935,0.0175 0.5587,0.0505 0.83805,0.0987 0.27934,0.0482 0.55869,0.112 0.83804,0.19074 0.27935,0.0788 0.5587,0.17275 0.83804,0.28152 0.27935,0.10875 0.5587,0.23243 0.83805,0.3705 0.27935,0.13808 0.55868,0.29065 0.83803,0.45715 0.27935,0.16652 0.5587,0.34703 0.83805,0.54092 0.27935,0.19387 0.55869,0.4012 0.83804,0.62122 0.27935,0.22003 0.5587,0.45284 0.83805,0.69763 0.27934,0.24478 0.55869,0.50161 0.83804,0.7696 0.27935,0.268 0.5587,0.54721 0.83804,0.83672 0.27935,0.2895 0.5587,0.58934 0.83805,0.89853 0.27935,0.30917 0.55868,0.62775 0.83803,0.95465 0.27935,0.3269 0.5587,0.66218 0.83805,1.00473 0.27934,0.34255 0.55869,0.69243 0.83804,1.04847 0.27935,0.35603 0.5587,0.71827 0.83805,1.08555 0.27934,0.36726 0.55869,0.73958 0.83804,1.11576 0.27935,0.37617 0.5587,0.75622 0.83804,1.13892 0.27935,0.3827 0.5587,0.76807 0.83805,1.15487 0.27935,0.3868 0.55868,0.77505 0.83803,1.16351 0.27935,0.38845 0.5587,0.77711 0.83805,1.16477 0.27934,0.38765 0.55869,0.77428 0.83804,1.15868 0.27935,0.38439 0.5587,0.76654 0.83805,1.14524 0.27934,0.3787 0.55869,0.75393 0.83804,1.12456 0.27935,0.37061 0.5587,0.73657 0.83804,1.09675 0.27935,0.36019 0.5587,0.71455 0.83805,1.06202 0.27935,0.34747 0.55868,0.68799 0.83803,1.02055 0.27935,0.33255 0.5587,0.65709 0.83805,0.97263 0.27934,0.31554 0.55869,0.62202 0.83804,0.91855 0.27935,0.29652 0.5587,0.58302 0.83804,0.85866 0.27935,0.27563 0.5587,0.54033 0.83805,0.79333 0.27935,0.25298 0.5587,0.49421 0.83804,0.72297 0.27935,0.22876 0.5587,0.44498 0.83805,0.64805 0.27935,0.20308 0.55868,0.39293 0.83803,0.56903 0.27935,0.1761 0.5587,0.33837 0.83805,0.48638 0.27934,0.14803 0.55869,0.2817 0.83804,0.40069 0.27935,0.119 0.5587,0.22323 0.83804,0.31245 0.27935,0.0892 0.5587,0.16334 0.83805,0.22221 0.27935,0.0589 0.55869,0.10238 0.83804,0.1306 0.27935,0.0281 0.5587,0.0409 0.83805,0.0381 0.27935,-0.002 0.55868,-0.021 0.83803,-0.0546 0.27935,-0.0336 0.5587,-0.0826 0.83805,-0.1469 0.27934,-0.0643 0.55869,-0.14382 0.83804,-0.23833 0.27935,-0.0945 0.5587,-0.20407 0.83804,-0.32824 0.27935,-0.12413 0.5587,-0.26304 0.83805,-0.41608 0.27935,-0.15303 0.55869,-0.32033 0.83804,-0.50127 0.27935,-0.18094 0.5587,-0.37561 0.83805,-0.58331 0.27935,-0.20769 0.55868,-0.4285 0.83803,-0.66164 0.27935,-0.23314 0.5587,-0.47869 0.83805,-0.73579 0.27934,-0.25711 0.55869,-0.52584 0.83804,-0.80529 0.27935,-0.27943 0.5587,-0.56966 0.83804,-0.86967 0.27935,-0.30001 0.5587,-0.60988 0.83805,-0.92856 0.27935,-0.31869 0.55869,-0.64624 0.83804,-0.98159 0.27935,-0.33534 0.5587,-0.6785 0.83805,-1.02838 0.27933,-0.34987 0.55868,-0.70648 0.83803,-1.06867 0.27935,-0.36219 0.5587,-0.72998 0.83805,-1.10219 0.27934,-0.37221 0.55869,-0.74887 0.83804,-1.12875 0.27935,-0.37989 0.5587,-0.76301 0.83804,-1.14816 0.27935,-0.38514 0.5587,-0.77231 0.83805,-1.16029 0.27935,-0.38797 0.55869,-0.77675 0.83804,-1.16509 0.27935,-0.38833 0.5587,-0.77625 0.83805,-1.16251 0.27933,-0.38625 0.55868,-0.77085 0.83803,-1.15256 0.27935,-0.38173 0.5587,-0.76058 0.83804,-1.13535 0.27935,-0.37478 0.5587,-0.74546 0.83805,-1.11091 0.27935,-0.36547 0.5587,-0.72565 0.83804,-1.07948 0.27935,-0.35382 0.5587,-0.70124 0.83805,-1.04119 0.27935,-0.33995 0.55869,-0.67238 0.83804,-0.99631 0.27935,-0.32394 0.5587,-0.63929 0.83805,-0.94514 0.27933,-0.30586 0.55868,-0.60213 0.83803,-0.88798 0.27935,-0.28584 0.5587,-0.56118 0.83804,-0.82519 0.27935,-0.26403 0.5587,-0.51666 0.83805,-0.7572 0.27935,-0.24053 0.5587,-0.46888 0.83804,-0.68439 0.27935,-0.21552 0.5587,-0.41814 0.83805,-0.60727 0.27935,-0.18914 0.55869,-0.36473 0.83804,-0.52629 0.27935,-0.16158 0.5587,-0.30903 0.83805,-0.442 0.27933,-0.13296 0.55868,-0.25136 0.83803,-0.35489 0.27935,-0.1035 0.5587,-0.19211 0.83804,-0.26555 0.27935,-0.0735 0.5587,-0.13164 0.83805,-0.17451 0.27935,-0.0429 0.55869,-0.0704 0.83804,-0.0824 0.27935,-0.0125 0.5587,-0.009 0.83805,0.01 0.27935,0.0189 0.55869,0.0532 0.83804,0.10288 0.27935,0.0496 0.5587,0.11462 0.83805,0.19479 0.27933,0.0801 0.55868,0.17542 0.83803,0.2855 0.27935,0.11012 0.5587,0.23505 0.83804,0.3744 0.27935,0.13936 0.5587,0.29318 0.83805,0.46092 0.27935,0.16775 0.55869,0.34948 0.83804,0.54454 0.27935,0.19507 0.5587,0.40355 0.83805,0.62471 0.27935,0.22115 0.55869,0.45506 0.83804,0.70091 0.27935,0.24584 0.5587,0.5037 0.83805,0.77268 0.27933,0.26899 0.55868,0.54916 0.83803,0.83957 0.27935,0.29042 0.5587,0.59113 0.83804,0.90114 0.27935,0.31 0.5587,0.62936 0.83805,0.957 0.27935,0.32764 0.55869,0.66361 0.83804,1.00681 0.27935,0.3432 0.5587,0.69367 0.83805,1.05025 0.27934,0.35658 0.55869,0.71932 0.83804,1.08703 0.27935,0.36771 0.5587,0.74044 0.83805,1.11695 0.27933,0.37651 0.55868,0.75685 0.83803,1.13977 0.27935,0.38294 0.5587,0.76849 0.83804,1.15542 0.27935,0.38692 0.5587,0.77523 0.83805,1.16371 0.27935,0.38847 0.55869,0.7771 0.83804,1.16466 0.27935,0.38756 0.5587,0.77404 0.83805,1.15824 0.27934,0.38419 0.55869,0.76607 0.83804,1.14447 0.27935,0.3784 0.5587,0.75328 0.83803,1.12348 0.27935,0.3702 0.5587,0.7357 0.83805,1.09536 0.27935,0.35968 0.5587,0.71348 0.83804,1.06033 0.27935,0.34685 0.5587,0.68671 0.83805,1.01856 0.27935,0.33185 0.55869,0.65562 0.83804,0.97036 0.27935,0.31474 0.5587,0.62038 0.83805,0.91601 0.27934,0.29564 0.55869,0.58122 0.83804,0.85588 0.27935,0.27466 0.5587,0.53836 0.83803,0.79031 0.27935,0.25196 0.5587,0.4921 0.83805,0.71975 0.27935,0.22765 0.5587,0.44274 0.83804,0.64464 0.27935,0.2019 0.5587,0.39055 0.83805,0.56544 0.27935,0.17487 0.55869,0.3359 0.83804,0.48265 0.27935,0.14675 0.5587,0.27913 0.83805,0.39682 0.27934,0.11775 0.55869,0.2206 0.83804,0.30849 0.27935,0.0879 0.5587,0.16066 0.83803,0.21819 0.27935,0.0575 0.5587,0.0998 0.83805,0.12651 0.27935,0.0267 0.55869,0.0381 0.83804,0.034 0.27935,-0.004 0.5587,-0.0238 0.83805,-0.0586 0.27935,-0.035 0.55869,-0.0854 0.83804,-0.15098 0.27935,-0.0656 0.5587,-0.1465 0.83805,-0.24235 0.27934,-0.0959 0.55869,-0.20672 0.83804,-0.33218 0.27935,-0.12547 0.5587,-0.26561 0.83803,-0.41991 0.27935,-0.1543 0.5587,-0.32283 0.83805,-0.50499 0.27935,-0.18215 0.55869,-0.378 0.83804,-0.58685 0.27935,-0.20886 0.5587,-0.43079 0.83805,-0.66502 0.27934,-0.23423 0.55869,-0.48084 0.83804,-0.73898 0.27935,-0.25812 0.5587,-0.52785 0.83805,-0.80824 0.27934,-0.2804 0.55869,-0.57152 0.83804,-0.87241 0.27935,-0.30087 0.5587,-0.61157 0.83803,-0.93104 0.27935,-0.31946 0.5587,-0.64776 0.83805,-0.98378 0.27935,-0.33603 0.55869,-0.67984 0.83804,-1.0303 0.27935,-0.35047 0.5587,-0.70763 0.83805,-1.0703 0.27934,-0.36269 0.55869,-0.73093 0.83804,-1.10353 0.27935,-0.3726 0.5587,-0.7496 0.83805,-1.12976 0.27934,-0.38016 0.55869,-0.76353 0.83804,-1.14885 0.27935,-0.38533 0.5587,-0.77261 0.83803,-1.16066 0.27935,-0.38804 0.5587,-0.77683 0.83805,-1.16513 0.27935,-0.3883 0.55869,-0.77611 0.83804,-1.16222 0.27935,-0.3861 0.5587,-0.7705 0.83805,-1.15197 0.27934,-0.38146 0.55869,-0.76 0.83804,-1.13441 0.27935,-0.37441 0.5587,-0.74467 0.83804,-1.10967 0.27935,-0.36499 0.5587,-0.72467 0.83805,-1.07792 0.27935,-0.35326 0.5587,-0.70005 0.83803,-1.03933 0.27935,-0.33929 0.5587,-0.67102 0.83805,-0.99419 0.27935,-0.32316 0.55869,-0.63773 0.83804,-0.94273 0.27935,-0.305 0.5587,-0.6004 0.83805,-0.88531 0.27934,-0.28491 0.55869,-0.55927 0.83804,-0.82229 0.27935,-0.26301 0.5587,-0.51461 0.83804,-0.75406 0.27935,-0.23946 0.5587,-0.4667 0.83805,-0.68107 0.27935,-0.21438 0.5587,-0.41582 0.83803,-0.60375 0.27935,-0.18795 0.5587,-0.36232 0.83805,-0.52264 0.27935,-0.16031 0.55869,-0.3065 0.83804,-0.43819 0.27935,-0.13167 0.5587,-0.24876 0.83805,-0.35097 0.27934,-0.10225 0.55869,-0.18945 0.83804,-0.26154 0.27935,-0.0721 0.5587,-0.12894 0.83804,-0.17045 0.27935,-0.0415 0.5587,-0.0676 0.83805,-0.0782 0.27935,-0.0113 0.55868,-0.006 0.83803,0.0144 0.27935,0.0202 0.5587,0.056 0.83805,0.107 0.27935,0.051 0.55869,0.11738 0.83804,0.19884 0.27935,0.0815 0.5587,0.17809 0.83805,0.28949 0.27934,0.11137 0.55869,0.23765 0.83804,0.37829 0.27935,0.14062 0.5587,0.29572 0.83804,0.4647 0.27935,0.16897 0.5587,0.35191 0.83805,0.54816 0.27935,0.19625 0.55868,0.40589 0.83803,0.62816 0.27935,0.22229 0.5587,0.45729 0.83805,0.70419 0.27934,0.24691 0.55869,0.50579 0.83804,0.77576 0.27935,0.26996 0.5587,0.55109 0.83805,0.84241 0.27934,0.29132 0.55869,0.5929 0.83804,0.90374 0.27935,0.31083 0.5587,0.63096 0.83804,0.95934 0.27935,0.32837 0.5587,0.66504 0.83805,1.00887 0.27935,0.34384 0.55868,0.69489 0.83803,1.05202 0.27935,0.35712 0.5587,0.72036 0.83805,1.08851 0.27934,0.36815 0.55869,0.74125 0.83804,1.1181 0.27935,0.37685 0.5587,0.75746 0.83805,1.14062 0.27934,0.38317 0.55869,0.76889 0.83804,1.15594 0.27935,0.38704 0.5587,0.77543 0.83804,1.16391 0.27935,0.38848 0.5587,0.77707 0.83805,1.16453 0.27935,0.38746 0.55868,0.7738 0.83803,1.15779 0.27935,0.38398 0.5587,0.76561 0.83805,1.1437 0.27934,0.37807 0.55869,0.75258 0.83804,1.12237 0.27935,0.36979 0.5587,0.73481 0.83804,1.09396 0.27935,0.35915 0.5587,0.71238 0.83805,1.05862 0.27935,0.34622 0.5587,0.68542 0.83804,1.01656 0.27935,0.33112 0.5587,0.65415 0.83805,0.96807 0.27935,0.31394 0.55868,0.61873 0.83803,0.91348 0.27935,0.29475 0.5587,0.57939 0.83805,0.85307 0.27934,0.2737 0.55869,0.53639 0.83804,0.78729 0.27935,0.25091 0.5587,0.48999 0.83804,0.71653 0.27935,0.22653 0.5587,0.44047 0.83805,0.6412 0.27935,0.20073 0.55869,0.38818 0.83804,0.56185 0.27935,0.17365 0.5587,0.33342 0.83805,0.47891 0.27935,0.14547 0.55868,0.27657 0.83803,0.39296 0.27935,0.11638 0.5587,0.21796 0.83805,0.30451 0.27934,0.0865 0.55869,0.15799 0.83804,0.21415 0.27935,0.0561 0.5587,0.097 0.83804,0.12238 0.27935,0.0255 0.5587,0.0354 0.83805,0.0299 0.27935,-0.005 0.55869,-0.0264 0.83804,-0.0627 0.27935,-0.0364 0.5587,-0.0881 0.83805,-0.15506 0.27935,-0.067 0.55868,-0.1492 0.83803,-0.24636 0.27935,-0.0971 0.5587,-0.20935 0.83805,-0.33611 0.27934,-0.12677 0.55869,-0.26819 0.83804,-0.42375 0.27935,-0.15555 0.5587,-0.32532 0.83804,-0.50868 0.27935,-0.18336 0.5587,-0.3804 0.83805,-0.5904 0.27935,-0.21001 0.55869,-0.43306 0.83804,-0.66839 0.27935,-0.23532 0.5587,-0.483 0.83805,-0.74215 0.27933,-0.25915 0.55868,-0.52986 0.83803,-0.8112 0.27935,-0.28133 0.5587,-0.57337 0.83805,-0.87512 0.27934,-0.30174 0.55869,-0.61326 0.83804,-0.9335 0.27935,-0.32025 0.5587,-0.64928 0.83804,-0.98599 0.27935,-0.33671 0.5587,-0.68116 0.83805,-1.03221 0.27935,-0.35105 0.55869,-0.70875 0.83804,-1.07191 0.27935,-0.36318 0.5587,-0.73185 0.83805,-1.10484 0.27933,-0.37299 0.55868,-0.75031 0.83803,-1.13076 0.27935,-0.38044 0.5587,-0.76403 0.83804,-1.14953 0.27935,-0.38549 0.5587,-0.77291 0.83805,-1.16101 0.27935,-0.3881 0.5587,-0.7769 0.83804,-1.16516 0.27935,-0.38825 0.5587,-0.77597 0.83805,-1.16193 0.27935,-0.38595 0.55869,-0.77012 0.83804,-1.15134 0.27935,-0.3812 0.5587,-0.75941 0.83805,-1.13346 0.27933,-0.37404 0.55868,-0.7439 0.83803,-1.10841 0.27935,-0.36451 0.5587,-0.72366 0.83804,-1.07635 0.27935,-0.35269 0.5587,-0.69886 0.83805,-1.03748 0.27935,-0.33861 0.5587,-0.66962 0.83804,-0.99203 0.27935,-0.3224 0.5587,-0.63615 0.83805,-0.9403 0.27935,-0.30417 0.55869,-0.59867 0.83804,-0.88264 0.27935,-0.28399 0.5587,-0.55738 0.83805,-0.81938 0.27933,-0.26201 0.55868,-0.51256 0.83803,-0.75093 0.27935,-0.23838 0.5587,-0.46449 0.83804,-0.67773 0.27935,-0.21324 0.5587,-0.4135 0.83805,-0.60024 0.27935,-0.18675 0.55869,-0.35988 0.83804,-0.51895 0.27935,-0.15907 0.5587,-0.30398 0.83805,-0.43438 0.27935,-0.13039 0.55869,-0.24617 0.83804,-0.34705 0.27935,-0.10088 0.5587,-0.1868 0.83805,-0.25754 0.27933,-0.0707 0.55868,-0.12624 0.83803,-0.1664 0.27935,-0.0401 0.5587,-0.0649 0.83804,-0.0741 0.27935,-0.009 0.5587,-0.002 0.83805,0.0185 0.27935,0.0216 0.55869,0.0586 0.83804,0.111 0.27935,0.0524 0.5587,0.12013 0.83805,0.20289 0.27935,0.0828 0.55869,0.18075 0.83804,0.29346 0.27935,0.11275 0.5587,0.24027 0.83805,0.38217 0.27933,0.14191 0.55868,0.29826 0.83803,0.46846 0.27935,0.17021 0.5587,0.35436 0.83804,0.55179 0.27935,0.19743 0.5587,0.40822 0.83805,0.63162 0.27935,0.2234 0.55869,0.4595 0.83804,0.70745 0.27935,0.24796 0.5587,0.50788 0.83805,0.77883 0.27934,0.27095 0.55869,0.55301 0.83804,0.84523 0.27935,0.29223 0.5587,0.59468 0.83805,0.90633 0.27933,0.31165 0.55868,0.63256 0.83803,0.96166 0.27935,0.32911 0.5587,0.66645 0.83804,1.01093 0.27935,0.34447 0.5587,0.69611 0.83805,1.05377 0.27935,0.35766 0.55869,0.72139 0.83804,1.08998 0.27935,0.36858 0.5587,0.74207 0.83805,1.11925 0.27934,0.37717 0.55869,0.75807 0.83804,1.14146 0.27935,0.38337 0.5587,0.76927 0.83803,1.15644 0.27935,0.38716 0.5587,0.7756 0.83805,1.16408 0.27935,0.3885 0.5587,0.77704 0.83804,1.1644 0.27935,0.38735 0.5587,0.77353 0.83805,1.15732 0.27935,0.38377 0.55869,0.76513 0.83804,1.1429 0.27935,0.37776 0.5587,0.75191 0.83805,1.12127 0.27934,0.36936 0.55869,0.73391 0.83804,1.09254 0.27935,0.35862 0.5587,0.71127 0.83803,1.05689 0.27935,0.34561 0.5587,0.68413 0.83805,1.01455 0.27935,0.33041 0.5587,0.65266 0.83804,0.96578 0.27935,0.31313 0.5587,0.61707 0.83805,0.91092 0.27935,0.29385 0.55869,0.57756 0.83804,0.85027 0.27935,0.27273 0.5587,0.5344 0.83805,0.78426 0.27934,0.24987 0.55869,0.48784 0.83804,0.71327 0.27935,0.22542 0.5587,0.43822 0.83803,0.63777 0.27935,0.19956 0.5587,0.38581 0.83805,0.55824 0.27935,0.17244 0.55869,0.33096 0.83804,0.47517 0.27935,0.14422 0.5587,0.27402 0.83805,0.38909 0.27935,0.11513 0.55869,0.21534 0.83804,0.30055 0.27935,0.0853 0.5587,0.1553 0.83805,0.21011 0.27934,0.0547 0.55869,0.0942 0.83804,0.11838 0.27935,0.0241 0.5587,0.0326 0.83803,0.0259 0.27935,-0.006 0.5587,-0.0291 0.83805,-0.0669 0.27935,-0.0376 0.55869,-0.0909 0.83804,-0.15913 0.27935,-0.0684 0.5587,-0.15188 0.83805,-0.25037 0.27934,-0.0985 0.55869,-0.212 0.83804,-0.34005 0.27935,-0.12806 0.5587,-0.27076 0.83805,-0.42756 0.27934,-0.15682 0.55869,-0.32782 0.83804,-0.51238 0.27935,-0.18457 0.5587,-0.38279 0.83803,-0.59395 0.27935,-0.21115 0.5587,-0.43532 0.83805,-0.67174 0.27935,-0.23641 0.55869,-0.48513 0.83804,-0.74531 0.27935,-0.26017 0.5587,-0.53186 0.83805,-0.81414 0.27934,-0.28228 0.55869,-0.57522 0.83804,-0.87783 0.27935,-0.3026 0.5587,-0.61494 0.83805,-0.93595 0.27934,-0.32103 0.55869,-0.65078 0.83804,-0.98818 0.27935,-0.33739 0.5587,-0.68247 0.83803,-1.03411 0.27935,-0.35164 0.5587,-0.70986 0.83805,-1.07353 0.27935,-0.36365 0.55869,-0.73276 0.83804,-1.10612 0.27935,-0.37338 0.5587,-0.75103 0.83805,-1.13175 0.27934,-0.38071 0.55869,-0.76453 0.83804,-1.15019 0.27935,-0.38566 0.5587,-0.77319 0.83804,-1.16135 0.27935,-0.38816 0.5587,-0.77696 0.83805,-1.16517 0.27935,-0.3882 0.5587,-0.77582 0.83803,-1.16162 0.27935,-0.38578 0.5587,-0.76975 0.83805,-1.15068 0.27935,-0.38095 0.55869,-0.75884 0.83804,-1.13252 0.27935,-0.37367 0.5587,-0.7431 0.83805,-1.10713 0.27934,-0.36405 0.55869,-0.72268 0.83804,-1.07478 0.27935,-0.35211 0.5587,-0.69766 0.83804,-1.0356 0.27935,-0.33794 0.5587,-0.66822 0.83805,-0.98987 0.27935,-0.32164 0.5587,-0.63458 0.83803,-0.93788 0.27935,-0.3033 0.5587,-0.5969 0.83805,-0.87995 0.27935,-0.28304 0.55869,-0.55545 0.83804,-0.81645 0.27935,-0.26099 0.5587,-0.51049 0.83805,-0.74777 0.27934,-0.2373 0.55869,-0.4623 0.83804,-0.67439 0.27935,-0.21209 0.5587,-0.41118 0.83804,-0.59671 0.27935,-0.18555 0.5587,-0.35745 0.83805,-0.51528 0.27935,-0.15782 0.55868,-0.30146 0.83803,-0.43056 0.27935,-0.1291 0.5587,-0.24358 0.83805,-0.34314 0.27935,-0.0996 0.55869,-0.18414 0.83804,-0.25352 0.27935,-0.0694 0.5587,-0.1235 0.83805,-0.16233 0.27934,-0.0387 0.55869,-0.0621 0.83804,-0.0701 0.27935,-0.008 0.5587,-3.8e-4 0.83804,0.0226 0.27935,0.023 0.5587,0.0614 0.83805,0.11513 0.27935,0.0537 0.55868,0.12275 0.83803,0.20693 0.27935,0.0841 0.5587,0.18342 0.83805,0.29743 0.27934,0.114 0.55869,0.24287 0.83804,0.38605 0.27935,0.14319 0.5587,0.30079 0.83805,0.47222 0.27934,0.17144 0.55869,0.35679 0.83804,0.5554 0.27935,0.1986 0.5587,0.41055 0.83804,0.63507 0.27935,0.22452 0.5587,0.46171 0.83805,0.71072 0.27935,0.24901 0.55868,0.50994 0.83803,0.78186 0.27935,0.27194 0.5587,0.55494 0.83805,0.84807 0.27934,0.29313 0.55869,0.59643 0.83804,0.9089 0.27935,0.31247 0.5587,0.63415 0.83805,0.96398 0.27934,0.32983 0.55869,0.66785 0.83804,1.01295 0.27935,0.34512 0.5587,0.69734 0.83804,1.05553 0.27935,0.3582 0.5587,0.7224 0.83805,1.09141 0.27935,0.36903 0.55868,0.74289 0.83803,1.12039 0.27935,0.37751 0.5587,0.75867 0.83805,1.14227 0.27934,0.38362 0.55869,0.76967 0.83804,1.15694 0.27935,0.38728 0.5587,0.77578 0.83804,1.16426 0.27935,0.3885 0.5587,0.77699 0.83805,1.16424 0.27935,0.38725 0.5587,0.77326 0.83804,1.15683 0.27935,0.38356 0.5587,0.76466 0.83805,1.1421 0.27935,0.37745 0.55868,0.75121 0.83803,1.12015 0.27935,0.36893 0.5587,0.73301 0.83805,1.0911 0.27934,0.3581 0.55869,0.71017 0.83804,1.05515 0.27935,0.34498 0.5587,0.68283 0.83804,1.01252 0.27935,0.32969 0.5587,0.65118 0.83805,0.96349 0.27935,0.31231 0.55869,0.61539 0.83804,0.90835 0.27935,0.29295 0.5587,0.57571 0.83805,0.84746 0.27935,0.27174 0.55868,0.5324 0.83803,0.78121 0.27935,0.24882 0.5587,0.48572 0.83805,0.71002 0.27934,0.22431 0.55869,0.43595 0.83804,0.63433 0.27935,0.19838 0.5587,0.38343 0.83804,0.55463 0.27935,0.1712 0.5587,0.32847 0.83805,0.47141 0.27935,0.14294 0.55869,0.27145 0.83804,0.38523 0.27935,0.11375 0.5587,0.2127 0.83805,0.29657 0.27935,0.0839 0.55868,0.15261 0.83803,0.20608 0.27935,0.0535 0.5587,0.0915 0.83805,0.11425 0.27934,0.0227 0.55869,0.0299 0.83804,0.0217 0.27935,-0.009 0.5587,-0.0319 0.83804,-0.071 0.27935,-0.039 0.5587,-0.0935 0.83805,-0.1632 0.27935,-0.0696 0.55869,-0.15457 0.83804,-0.25439 0.27935,-0.0999 0.5587,-0.21463 0.83805,-0.34398 0.27933,-0.12935 0.55868,-0.27332 0.83803,-0.43137 0.27935,-0.15806 0.5587,-0.3303 0.83805,-0.51606 0.27934,-0.18578 0.55869,-0.38517 0.83804,-0.59748 0.27935,-0.21231 0.5587,-0.4376 0.83804,-0.6751 0.27935,-0.2375 0.5587,-0.48727 0.83805,-0.74846 0.27935,-0.26119 0.55869,-0.53385 0.83804,-0.81708 0.27935,-0.28322 0.5587,-0.57706 0.83805,-0.88052 0.27933,-0.30346 0.55868,-0.61661 0.83803,-0.9384 0.27935,-0.32179 0.5587,-0.65226 0.83805,-0.99034 0.27934,-0.33807 0.55869,-0.68379 0.83804,-1.036 0.27935,-0.35221 0.5587,-0.71097 0.83804,-1.07511 0.27935,-0.36414 0.5587,-0.73368 0.83805,-1.10741 0.27935,-0.37375 0.55869,-0.75173 0.83804,-1.13272 0.27935,-0.38098 0.5587,-0.76501 0.83805,-1.15083 0.27933,-0.38583 0.55868,-0.77347 0.83803,-1.16169 0.27935,-0.38821 0.5587,-0.77701 0.83804,-1.16516 0.27935,-0.38815 0.5587,-0.77565 0.83805,-1.16129 0.27935,-0.38563 0.5587,-0.76938 0.83804,-1.15005 0.27935,-0.38066 0.5587,-0.75823 0.83805,-1.13153 0.27935,-0.3733 0.55869,-0.7423 0.83804,-1.10585 0.27935,-0.36356 0.5587,-0.72166 0.83805,-1.07318"
       style="opacity:1;fill:none;fill-opacity:1;fill-rule:nonzero;stroke:#00d400;stroke-width:3;stroke-linecap:butt;stroke-linejoin:miter;stroke-miterlimit:4;stroke-dasharray:none;stroke-dashoffset:0;stroke-opacity:1"
       inkscape:connector-curvature="0" />
    <g
       id="g5894"
       transform="translate(-262.63966,-88.893424)">
      <text
         xml:space="preserve"
         style="font-style:normal;font-variant:normal;font-weight:normal;font-stretch:normal;line-height:0%;font-family:msbm10;-inkscape-font-specification:msbm10;letter-spacing:0px;word-spacing:0px;fill:#000000;fill-opacity:1;stroke:none;stroke-width:1px;stroke-linecap:butt;stroke-linejoin:miter;stroke-opacity:1"
         x="348.93173"
         y="417.3555"
         id="text5330-93-1-6-5-8-1-1-7"
         inkscape:transform-center-x="6.877612"
         inkscape:transform-center-y="-1.473774"><tspan
           sodipodi:role="line"
           id="tspan5332-4-8-7-3-3-4-4-1"
           style="font-style:normal;font-variant:normal;font-weight:normal;font-stretch:normal;font-size:20px;line-height:1.25;font-family:'Nimbus Roman No9 L';-inkscape-font-specification:'Nimbus Roman No9 L';stroke-linecap:butt;stroke-linejoin:round"
           x="348.93173"
           y="417.3555">$0$</tspan></text>
      <text
         xml:space="preserve"
         style="font-style:normal;font-variant:normal;font-weight:normal;font-stretch:normal;line-height:0%;font-family:msbm10;-inkscape-font-specification:msbm10;letter-spacing:0px;word-spacing:0px;fill:#000000;fill-opacity:1;stroke:none;stroke-width:1px;stroke-linecap:butt;stroke-linejoin:miter;stroke-opacity:1"
         x="572.78326"
         y="435.24551"
         id="text5330-9"><tspan
           sodipodi:role="line"
           id="tspan5332-04"
           style="font-style:normal;font-variant:normal;font-weight:normal;font-stretch:normal;font-size:20px;line-height:1.25;font-family:'Nimbus Roman No9 L';-inkscape-font-specification:'Nimbus Roman No9 L';stroke-linecap:butt;stroke-linejoin:round"
           x="572.78326"
           y="435.24551">$2\pi$</tspan></text>
      <text
         xml:space="preserve"
         style="font-style:normal;font-variant:normal;font-weight:normal;font-stretch:normal;line-height:0%;font-family:msbm10;-inkscape-font-specification:msbm10;letter-spacing:0px;word-spacing:0px;fill:#000000;fill-opacity:1;stroke:none;stroke-width:1px;stroke-linecap:butt;stroke-linejoin:miter;stroke-opacity:1"
         x="360.22711"
         y="437.84552"
         id="text5330-0"><tspan
           sodipodi:role="line"
           id="tspan5332-45"
           style="font-style:normal;font-variant:normal;font-weight:normal;font-stretch:normal;font-size:20px;line-height:1.25;font-family:'Nimbus Roman No9 L';-inkscape-font-specification:'Nimbus Roman No9 L';stroke-linecap:butt;stroke-linejoin:round"
           x="360.22711"
           y="437.84552">$0$</tspan></text>
      <text
         xml:space="preserve"
         style="font-style:normal;font-variant:normal;font-weight:normal;font-stretch:normal;line-height:0%;font-family:'Nimbus Sans L';-inkscape-font-specification:Sans;letter-spacing:0px;word-spacing:0px;fill:#000000;fill-opacity:1;stroke:none;stroke-width:1px;stroke-linecap:butt;stroke-linejoin:miter;stroke-opacity:1"
         x="809.06549"
         y="436.68198"
         id="text3454"><tspan
           sodipodi:role="line"
           id="tspan3456"
           style="font-size:15px;line-height:1.25;stroke-linecap:butt;stroke-linejoin:round"
           x="809.06549"
           y="436.68198">$\mathcal{V}t/\hbar$</tspan></text>
      <text
         inkscape:transform-center-y="-6.9474372"
         inkscape:transform-center-x="-6.9474372"
         xml:space="preserve"
         style="font-style:normal;font-variant:normal;font-weight:normal;font-stretch:normal;line-height:0%;font-family:'Nimbus Sans L';-inkscape-font-specification:Sans;letter-spacing:0px;word-spacing:0px;fill:#000000;fill-opacity:1;stroke:none;stroke-width:1px;stroke-linecap:butt;stroke-linejoin:miter;stroke-opacity:1"
         x="328.01337"
         y="158.50775"
         id="text4258"><tspan
           sodipodi:role="line"
           id="tspan4260"
           style="font-size:15px;line-height:1.25;stroke-linecap:butt;stroke-linejoin:round"
           x="328.01337"
           y="158.50775">$|c_2|^2$</tspan></text>
      <text
         xml:space="preserve"
         style="font-style:normal;font-variant:normal;font-weight:normal;font-stretch:normal;line-height:0%;font-family:msbm10;-inkscape-font-specification:msbm10;letter-spacing:0px;word-spacing:0px;fill:#000000;fill-opacity:1;stroke:none;stroke-width:1px;stroke-linecap:butt;stroke-linejoin:miter;stroke-opacity:1"
         x="349.3627"
         y="129.07083"
         id="text5330-93-1-3-7"><tspan
           sodipodi:role="line"
           id="tspan5332-4-8-6-5"
           style="font-style:normal;font-variant:normal;font-weight:normal;font-stretch:normal;font-size:20px;line-height:1.25;font-family:'Nimbus Roman No9 L';-inkscape-font-specification:'Nimbus Roman No9 L';stroke-linecap:butt;stroke-linejoin:round"
           x="349.3627"
           y="129.07083">$1$</tspan></text>
      <text
         xml:space="preserve"
         style="font-style:normal;font-variant:normal;font-weight:normal;font-stretch:normal;line-height:0%;font-family:msbm10;-inkscape-font-specification:msbm10;letter-spacing:0px;word-spacing:0px;fill:#000000;fill-opacity:1;stroke:none;stroke-width:1px;stroke-linecap:butt;stroke-linejoin:miter;stroke-opacity:1"
         x="770.62787"
         y="437.84552"
         id="text5330-0-3"><tspan
           sodipodi:role="line"
           id="tspan5332-45-6"
           style="font-style:normal;font-variant:normal;font-weight:normal;font-stretch:normal;font-size:20px;line-height:1.25;font-family:'Nimbus Roman No9 L';-inkscape-font-specification:'Nimbus Roman No9 L';stroke-linecap:butt;stroke-linejoin:round"
           x="770.62787"
           y="437.84552">$4\pi$</tspan></text>
      <text
         id="text5165"
         y="142.81931"
         x="498.3718"
         style="font-style:normal;font-variant:normal;font-weight:normal;font-stretch:normal;line-height:0%;font-family:'Nimbus Sans L';-inkscape-font-specification:Sans;letter-spacing:0px;word-spacing:0px;fill:#000000;fill-opacity:1;stroke:none;stroke-width:1px;stroke-linecap:butt;stroke-linejoin:miter;stroke-opacity:1"
         xml:space="preserve"><tspan
           y="142.81931"
           x="498.3718"
           style="font-size:15px;line-height:1.25;stroke-linecap:butt;stroke-linejoin:round"
           id="tspan5167"
           sodipodi:role="line">$\Delta=0$</tspan></text>
      <text
         id="text5165-7"
         y="260.54517"
         x="434.12375"
         style="font-style:normal;font-variant:normal;font-weight:normal;font-stretch:normal;line-height:0%;font-family:'Nimbus Sans L';-inkscape-font-specification:Sans;letter-spacing:0px;word-spacing:0px;fill:#000000;fill-opacity:1;stroke:none;stroke-width:1px;stroke-linecap:butt;stroke-linejoin:miter;stroke-opacity:1"
         xml:space="preserve"><tspan
           y="260.54517"
           x="434.12375"
           style="font-size:15px;line-height:1.25;stroke-linecap:butt;stroke-linejoin:round"
           id="tspan5167-5"
           sodipodi:role="line">$\Delta=\mathcal{V}/\hbar$</tspan></text>
      <text
         id="text5165-7-3"
         y="381.39502"
         x="396.85577"
         style="font-style:normal;font-variant:normal;font-weight:normal;font-stretch:normal;line-height:0%;font-family:'Nimbus Sans L';-inkscape-font-specification:Sans;letter-spacing:0px;word-spacing:0px;fill:#000000;fill-opacity:1;stroke:none;stroke-width:1px;stroke-linecap:butt;stroke-linejoin:miter;stroke-opacity:1"
         xml:space="preserve"><tspan
           y="381.39502"
           x="396.85577"
           style="font-size:15px;line-height:1.25;stroke-linecap:butt;stroke-linejoin:round"
           id="tspan5167-5-5"
           sodipodi:role="line">$\Delta=3\mathcal{V}/\hbar$</tspan></text>
    </g>
  </g>
</svg>
