<?xml version="1.0" encoding="UTF-8" standalone="no"?>
<!-- Created with Inkscape (http://www.inkscape.org/) -->

<svg
   xmlns:dc="http://purl.org/dc/elements/1.1/"
   xmlns:cc="http://creativecommons.org/ns#"
   xmlns:rdf="http://www.w3.org/1999/02/22-rdf-syntax-ns#"
   xmlns:svg="http://www.w3.org/2000/svg"
   xmlns="http://www.w3.org/2000/svg"
   xmlns:sodipodi="http://sodipodi.sourceforge.net/DTD/sodipodi-0.dtd"
   xmlns:inkscape="http://www.inkscape.org/namespaces/inkscape"
   width="177.40764mm"
   height="42.246174mm"
   viewBox="0 0 628.60975 149.69117"
   id="svg3710"
   version="1.1"
   inkscape:version="0.91 r13725"
   sodipodi:docname="05_Trinivojski.svg">
  <sodipodi:namedview
     id="base"
     pagecolor="#ffffff"
     bordercolor="#666666"
     borderopacity="1.0"
     inkscape:pageopacity="0.0"
     inkscape:pageshadow="2"
     inkscape:zoom="3.0197629"
     inkscape:cx="288.76439"
     inkscape:cy="73.293264"
     inkscape:document-units="px"
     inkscape:current-layer="layer1"
     showgrid="false"
     fit-margin-top="0"
     fit-margin-left="0"
     fit-margin-right="0"
     fit-margin-bottom="0"
     inkscape:window-width="1912"
     inkscape:window-height="709"
     inkscape:window-x="0"
     inkscape:window-y="243"
     inkscape:window-maximized="0" />
  <defs
     id="defs3712">
    <marker
       style="overflow:visible"
       id="Arrow1Mstart-17-6"
       refX="0"
       refY="0"
       orient="auto"
       inkscape:stockid="Arrow1Mstart">
      <path
         transform="matrix(0.4,0,0,0.4,4,0)"
         style="fill-rule:evenodd;stroke:#000000;stroke-width:1pt"
         d="M 0,0 5,-5 -12.5,0 5,5 0,0 Z"
         id="path4575-70-8"
         inkscape:connector-curvature="0" />
    </marker>
    <marker
       style="overflow:visible"
       id="Arrow1Mend-76-9"
       refX="0"
       refY="0"
       orient="auto"
       inkscape:stockid="Arrow1Mend">
      <path
         transform="matrix(-0.4,0,0,-0.4,-4,0)"
         style="fill-rule:evenodd;stroke:#000000;stroke-width:1pt"
         d="M 0,0 5,-5 -12.5,0 5,5 0,0 Z"
         id="path4578-4-5"
         inkscape:connector-curvature="0" />
    </marker>
    <inkscape:path-effect
       is_visible="true"
       id="path-effect4091"
       effect="spiro" />
    <clipPath
       id="cp6-9">
      <polygon
         points="74,13 74,100 434,100 434,13 "
         id="polygon192-2" />
    </clipPath>
    <marker
       style="overflow:visible"
       id="Arrow1Mstart-17-6-5"
       refX="0"
       refY="0"
       orient="auto"
       inkscape:stockid="Arrow1Mstart">
      <path
         transform="matrix(0.4,0,0,0.4,4,0)"
         style="fill-rule:evenodd;stroke:#000000;stroke-width:1pt"
         d="M 0,0 5,-5 -12.5,0 5,5 0,0 Z"
         id="path4575-70-8-66"
         inkscape:connector-curvature="0" />
    </marker>
    <inkscape:path-effect
       is_visible="true"
       id="path-effect4091-59"
       effect="spiro" />
    <clipPath
       id="cp6">
      <polygon
         id="polygon192"
         points="74,13 74,100 434,100 434,13 " />
    </clipPath>
    <clipPath
       id="cp6-8">
      <polygon
         points="74,13 74,100 434,100 434,13 "
         id="polygon192-5" />
    </clipPath>
    <marker
       style="overflow:visible"
       id="marker3933"
       refX="0"
       refY="0"
       orient="auto"
       inkscape:stockid="Arrow1Mend">
      <path
         transform="matrix(-0.4,0,0,-0.4,-4,0)"
         style="fill-rule:evenodd;stroke:#000000;stroke-width:1pt"
         d="M 0,0 5,-5 -12.5,0 5,5 0,0 Z"
         id="path3935"
         inkscape:connector-curvature="0" />
    </marker>
    <inkscape:path-effect
       is_visible="true"
       id="path-effect4091-3"
       effect="spiro" />
    <marker
       style="overflow:visible"
       id="marker3938"
       refX="0"
       refY="0"
       orient="auto"
       inkscape:stockid="Arrow1Mstart">
      <path
         transform="matrix(0.4,0,0,0.4,4,0)"
         style="fill-rule:evenodd;stroke:#000000;stroke-width:1pt"
         d="M 0,0 5,-5 -12.5,0 5,5 0,0 Z"
         id="path3940"
         inkscape:connector-curvature="0" />
    </marker>
    <inkscape:path-effect
       is_visible="true"
       id="path-effect4091-3-5"
       effect="spiro" />
    <clipPath
       id="cp6-9-0">
      <polygon
         points="434,100 434,13 74,13 74,100 "
         id="polygon192-2-5" />
    </clipPath>
    <marker
       style="overflow:visible"
       id="marker3945"
       refX="0"
       refY="0"
       orient="auto"
       inkscape:stockid="Arrow1Mstart">
      <path
         transform="matrix(0.4,0,0,0.4,4,0)"
         style="fill-rule:evenodd;stroke:#000000;stroke-width:1pt"
         d="M 0,0 5,-5 -12.5,0 5,5 0,0 Z"
         id="path3947"
         inkscape:connector-curvature="0" />
    </marker>
    <inkscape:path-effect
       is_visible="true"
       id="path-effect4091-59-3"
       effect="spiro" />
    <clipPath
       id="cp6-80">
      <polygon
         id="polygon192-6"
         points="74,13 74,100 434,100 434,13 " />
    </clipPath>
    <clipPath
       id="cp6-8-4">
      <polygon
         points="434,100 434,13 74,13 74,100 "
         id="polygon192-5-2" />
    </clipPath>
    <marker
       style="overflow:visible"
       id="marker3954"
       refX="0"
       refY="0"
       orient="auto"
       inkscape:stockid="Arrow1Mend">
      <path
         transform="matrix(-0.4,0,0,-0.4,-4,0)"
         style="fill-rule:evenodd;stroke:#000000;stroke-width:1pt"
         d="M 0,0 5,-5 -12.5,0 5,5 0,0 Z"
         id="path3956"
         inkscape:connector-curvature="0" />
    </marker>
    <inkscape:path-effect
       is_visible="true"
       id="path-effect4091-3-7"
       effect="spiro" />
    <marker
       style="overflow:visible"
       id="marker3959"
       refX="0"
       refY="0"
       orient="auto"
       inkscape:stockid="Arrow1Mstart">
      <path
         transform="matrix(0.4,0,0,0.4,4,0)"
         style="fill-rule:evenodd;stroke:#000000;stroke-width:1pt"
         d="M 0,0 5,-5 -12.5,0 5,5 0,0 Z"
         id="path3961"
         inkscape:connector-curvature="0" />
    </marker>
    <inkscape:path-effect
       is_visible="true"
       id="path-effect4091-59-3-0"
       effect="spiro" />
    <clipPath
       id="cp6-80-9">
      <polygon
         id="polygon192-6-8"
         points="434,100 434,13 74,13 74,100 " />
    </clipPath>
    <marker
       style="overflow:visible"
       id="marker3966"
       refX="0"
       refY="0"
       orient="auto"
       inkscape:stockid="Arrow1Mend">
      <path
         transform="matrix(-0.4,0,0,-0.4,-4,0)"
         style="fill-rule:evenodd;stroke:#000000;stroke-width:1pt"
         d="M 0,0 5,-5 -12.5,0 5,5 0,0 Z"
         id="path3968"
         inkscape:connector-curvature="0" />
    </marker>
    <inkscape:path-effect
       is_visible="true"
       id="path-effect4091-3-7-3"
       effect="spiro" />
    <clipPath
       id="cp6-9-0-8">
      <polygon
         points="74,13 74,100 434,100 434,13 "
         id="polygon192-2-5-5" />
    </clipPath>
    <clipPath
       id="cp6-8-4-7">
      <polygon
         points="74,13 74,100 434,100 434,13 "
         id="polygon192-5-2-2" />
    </clipPath>
    <clipPath
       id="clipPath4185-7-8">
      <polygon
         id="polygon4187-6-3"
         points="74,100 434,100 434,13 74,13 " />
    </clipPath>
    <clipPath
       id="clipPath3907-0-0">
      <polygon
         id="polygon3909-7-6"
         points="74,100 434,100 434,13 74,13 " />
    </clipPath>
    <clipPath
       id="clipPath7348-2">
      <polygon
         id="polygon7350-7"
         points="74,13 74,100 434,100 434,13 " />
    </clipPath>
    <clipPath
       id="clipPath4185">
      <polygon
         id="polygon4187"
         points="74,13 74,100 434,100 434,13 " />
    </clipPath>
    <clipPath
       id="clipPath4020">
      <polygon
         id="polygon4022"
         points="434,13 74,13 74,100 434,100 " />
    </clipPath>
    <clipPath
       id="clipPath3907">
      <polygon
         id="polygon3909"
         points="74,13 74,100 434,100 434,13 " />
    </clipPath>
    <clipPath
       id="clipPath4185-7">
      <polygon
         id="polygon4187-6"
         points="74,100 434,100 434,13 74,13 " />
    </clipPath>
    <clipPath
       id="clipPath7348">
      <polygon
         id="polygon7350"
         points="74,13 74,100 434,100 434,13 " />
    </clipPath>
    <clipPath
       id="clipPath3907-0">
      <polygon
         id="polygon3909-7"
         points="74,100 434,100 434,13 74,13 " />
    </clipPath>
    <marker
       style="overflow:visible"
       id="Arrow1Mstart-17-6-6"
       refX="0"
       refY="0"
       orient="auto"
       inkscape:stockid="Arrow1Mstart">
      <path
         transform="matrix(0.4,0,0,0.4,4,0)"
         style="fill-rule:evenodd;stroke:#000000;stroke-width:1pt"
         d="M 0,0 5,-5 -12.5,0 5,5 0,0 Z"
         id="path4575-70-8-0"
         inkscape:connector-curvature="0" />
    </marker>
    <marker
       style="overflow:visible"
       id="Arrow1Mend-76-9-6"
       refX="0"
       refY="0"
       orient="auto"
       inkscape:stockid="Arrow1Mend">
      <path
         transform="matrix(-0.4,0,0,-0.4,-4,0)"
         style="fill-rule:evenodd;stroke:#000000;stroke-width:1pt"
         d="M 0,0 5,-5 -12.5,0 5,5 0,0 Z"
         id="path4578-4-5-2"
         inkscape:connector-curvature="0" />
    </marker>
    <inkscape:path-effect
       is_visible="true"
       id="path-effect4091-6"
       effect="spiro" />
    <marker
       style="overflow:visible"
       id="Arrow1Mstart-17-6-5-1"
       refX="0"
       refY="0"
       orient="auto"
       inkscape:stockid="Arrow1Mstart">
      <path
         transform="matrix(0.4,0,0,0.4,4,0)"
         style="fill-rule:evenodd;stroke:#000000;stroke-width:1pt"
         d="M 0,0 5,-5 -12.5,0 5,5 0,0 Z"
         id="path4575-70-8-66-8"
         inkscape:connector-curvature="0" />
    </marker>
    <inkscape:path-effect
       is_visible="true"
       id="path-effect4091-59-7"
       effect="spiro" />
    <marker
       style="overflow:visible"
       id="marker7014"
       refX="0"
       refY="0"
       orient="auto"
       inkscape:stockid="Arrow1Mend">
      <path
         transform="matrix(-0.4,0,0,-0.4,-4,0)"
         style="fill-rule:evenodd;stroke:#000000;stroke-width:1pt"
         d="M 0,0 5,-5 -12.5,0 5,5 0,0 Z"
         id="path7016"
         inkscape:connector-curvature="0" />
    </marker>
    <inkscape:path-effect
       is_visible="true"
       id="path-effect4091-3-9"
       effect="spiro" />
    <marker
       style="overflow:visible"
       id="marker7019"
       refX="0"
       refY="0"
       orient="auto"
       inkscape:stockid="Arrow1Mstart">
      <path
         transform="matrix(0.4,0,0,0.4,4,0)"
         style="fill-rule:evenodd;stroke:#000000;stroke-width:1pt"
         d="M 0,0 5,-5 -12.5,0 5,5 0,0 Z"
         id="path7021"
         inkscape:connector-curvature="0" />
    </marker>
    <inkscape:path-effect
       is_visible="true"
       id="path-effect4091-3-5-2"
       effect="spiro" />
    <marker
       style="overflow:visible"
       id="Arrow1Mstart-17-6-5-1-1"
       refX="0"
       refY="0"
       orient="auto"
       inkscape:stockid="Arrow1Mstart">
      <path
         transform="matrix(0.4,0,0,0.4,4,0)"
         style="fill-rule:evenodd;stroke:#000000;stroke-width:1pt"
         d="M 0,0 5,-5 -12.5,0 5,5 0,0 Z"
         id="path4575-70-8-66-8-5"
         inkscape:connector-curvature="0" />
    </marker>
    <inkscape:path-effect
       is_visible="true"
       id="path-effect4091-59-7-5"
       effect="spiro" />
    <marker
       style="overflow:visible"
       id="Arrow1Mend-76-9-6-4"
       refX="0"
       refY="0"
       orient="auto"
       inkscape:stockid="Arrow1Mend">
      <path
         transform="matrix(-0.4,0,0,-0.4,-4,0)"
         style="fill-rule:evenodd;stroke:#000000;stroke-width:1pt"
         d="M 0,0 5,-5 -12.5,0 5,5 0,0 Z"
         id="path4578-4-5-2-7"
         inkscape:connector-curvature="0" />
    </marker>
    <inkscape:path-effect
       is_visible="true"
       id="path-effect4091-3-9-6"
       effect="spiro" />
    <marker
       style="overflow:visible"
       id="Arrow1Mend-76-9-2"
       refX="0"
       refY="0"
       orient="auto"
       inkscape:stockid="Arrow1Mend">
      <path
         transform="matrix(-0.4,0,0,-0.4,-4,0)"
         style="fill-rule:evenodd;stroke:#000000;stroke-width:1pt"
         d="M 0,0 5,-5 -12.5,0 5,5 0,0 Z"
         id="path4578-4-5-0"
         inkscape:connector-curvature="0" />
    </marker>
    <inkscape:path-effect
       is_visible="true"
       id="path-effect4091-3-6"
       effect="spiro" />
  </defs>
  <metadata
     id="metadata3715">
    <rdf:RDF>
      <cc:Work
         rdf:about="">
        <dc:format>image/svg+xml</dc:format>
        <dc:type
           rdf:resource="http://purl.org/dc/dcmitype/StillImage" />
        <dc:title />
      </cc:Work>
    </rdf:RDF>
  </metadata>
  <g
     transform="translate(-94.092748,-47.392881)"
     id="layer1"
     inkscape:groupmode="layer"
     inkscape:label="Layer 1">
    <text
       sodipodi:linespacing="125%"
       id="text6935"
       y="58.500866"
       x="93.500748"
       style="font-style:normal;font-variant:normal;font-weight:normal;font-stretch:normal;font-size:22px;line-height:125%;font-family:'Nimbus Sans L';-inkscape-font-specification:Sans;letter-spacing:0px;word-spacing:0px;fill:#000000;fill-opacity:1;stroke:none"
       xml:space="preserve"><tspan
         style="font-style:normal;font-variant:normal;font-weight:normal;font-stretch:normal;font-size:16px;font-family:'Nimbus Roman No9 L';-inkscape-font-specification:'Nimbus Roman No9 L'"
         y="58.500866"
         x="93.500748"
         id="tspan6937"
         sodipodi:role="line">a)</tspan></text>
    <text
       sodipodi:linespacing="125%"
       id="text6935-8"
       y="58.320873"
       x="314.82422"
       style="font-style:normal;font-variant:normal;font-weight:normal;font-stretch:normal;font-size:22px;line-height:125%;font-family:'Nimbus Sans L';-inkscape-font-specification:Sans;letter-spacing:0px;word-spacing:0px;fill:#000000;fill-opacity:1;stroke:none"
       xml:space="preserve"><tspan
         style="font-style:normal;font-variant:normal;font-weight:normal;font-stretch:normal;font-size:16px;font-family:'Nimbus Roman No9 L';-inkscape-font-specification:'Nimbus Roman No9 L'"
         y="58.320873"
         x="314.82422"
         id="tspan6937-3"
         sodipodi:role="line">b)</tspan></text>
    <text
       inkscape:transform-center-y="-2.029445"
       inkscape:transform-center-x="1.7395243"
       sodipodi:linespacing="125%"
       id="text6935-8-7"
       y="58.397869"
       x="508.21231"
       style="font-style:normal;font-variant:normal;font-weight:normal;font-stretch:normal;font-size:22px;line-height:125%;font-family:'Nimbus Sans L';-inkscape-font-specification:Sans;letter-spacing:0px;word-spacing:0px;fill:#000000;fill-opacity:1;stroke:none"
       xml:space="preserve"><tspan
         style="font-style:normal;font-variant:normal;font-weight:normal;font-stretch:normal;font-size:16px;font-family:'Nimbus Roman No9 L';-inkscape-font-specification:'Nimbus Roman No9 L'"
         y="58.397869"
         x="508.21231"
         id="tspan6937-3-7"
         sodipodi:role="line">c)</tspan></text>
    <rect
       inkscape:transform-center-y="-103.93682"
       inkscape:transform-center-x="-8.2001963"
       y="123.3527"
       x="187.75931"
       height="67.875587"
       width="38.269535"
       id="rect5779-1"
       style="fill:#ffffff;fill-opacity:1;stroke:none" />
    <path
       sodipodi:nodetypes="cc"
       inkscape:connector-curvature="0"
       inkscape:original-d="m 252.95516,73.8029 0,46.80803"
       inkscape:path-effect="#path-effect4091"
       id="path4089"
       d="m 252.95516,73.8029 0,46.80803"
       style="fill:none;stroke:#000000;stroke-width:1.62500024;stroke-linecap:butt;stroke-linejoin:miter;stroke-miterlimit:4;stroke-dasharray:none;stroke-opacity:1;marker-start:url(#Arrow1Mstart-17-6);marker-end:url(#Arrow1Mend-76-9)" />
    <polyline
       transform="matrix(0.20317096,0,0,-0.21205816,174.47469,134.4975)"
       style="fill:none;stroke:#000000;stroke-width:7.82879829;stroke-miterlimit:4;stroke-dasharray:none;stroke-opacity:1"
       id="polyline194-4"
       points="74.1,56.2125 409.608,56.2125 " />
    <path
       sodipodi:nodetypes="cc"
       inkscape:connector-curvature="0"
       inkscape:original-d="m 145.94358,74.7984 0.17857,113.84384"
       inkscape:path-effect="#path-effect4091-59"
       id="path4089-22"
       d="m 145.94358,74.7984 0.17857,113.84384"
       style="fill:none;stroke:#000000;stroke-width:1.62500024;stroke-linecap:butt;stroke-linejoin:miter;stroke-miterlimit:4;stroke-dasharray:none;stroke-opacity:1;marker-start:url(#Arrow1Mstart-17-6-5);marker-end:none" />
    <path
       sodipodi:nodetypes="cc"
       inkscape:connector-curvature="0"
       inkscape:original-d="m 194.49831,74.33492 0,46.80803"
       inkscape:path-effect="#path-effect4091-3"
       id="path4089-3"
       d="m 194.49831,74.33492 0,46.80803"
       style="fill:none;stroke:#000000;stroke-width:1.62500024;stroke-linecap:butt;stroke-linejoin:miter;stroke-miterlimit:4;stroke-dasharray:none;stroke-opacity:1;marker-start:none;marker-end:url(#Arrow1Mend-76-9)" />
    <path
       sodipodi:nodetypes="cc"
       inkscape:connector-curvature="0"
       inkscape:original-d="m 204.49831,74.33492 0,46.80803"
       inkscape:path-effect="#path-effect4091-3-5"
       id="path4089-3-6"
       d="m 204.49831,74.33492 0,46.80803"
       style="fill:none;stroke:#000000;stroke-width:1.62500024;stroke-linecap:butt;stroke-linejoin:miter;stroke-miterlimit:4;stroke-dasharray:none;stroke-opacity:1;marker-start:url(#Arrow1Mstart-17-6);marker-end:none" />
    <text
       sodipodi:linespacing="125%"
       id="text4450"
       y="77.919189"
       x="113.60442"
       style="font-style:normal;font-variant:normal;font-weight:normal;font-stretch:normal;font-size:56px;line-height:125%;font-family:'Nimbus Sans L';-inkscape-font-specification:Sans;letter-spacing:0px;word-spacing:0px;fill:#000000;fill-opacity:1;stroke:none;stroke-width:1px;stroke-linecap:butt;stroke-linejoin:miter;stroke-opacity:1"
       xml:space="preserve"><tspan
         style="font-size:15.00000191px"
         y="77.919189"
         x="113.60442"
         id="tspan4452"
         sodipodi:role="line">$E_2$</tspan></text>
    <path
       sodipodi:nodetypes="cc"
       inkscape:connector-curvature="0"
       id="path4638"
       d="m 134.09275,188.57192 123.49115,0"
       style="fill:none;fill-rule:evenodd;stroke:#000000;stroke-width:1.62500024;stroke-linecap:butt;stroke-linejoin:miter;stroke-miterlimit:4;stroke-dasharray:none;stroke-opacity:1" />
    <path
       sodipodi:nodetypes="cc"
       inkscape:connector-curvature="0"
       id="path4638-3"
       d="m 134.09275,72.151851 123.49116,0"
       style="fill:none;fill-rule:evenodd;stroke:#000000;stroke-width:1.62500024;stroke-linecap:butt;stroke-linejoin:miter;stroke-miterlimit:4;stroke-dasharray:none;stroke-opacity:1" />
    <text
       sodipodi:linespacing="125%"
       id="text4450-6"
       y="192.21513"
       x="113.60442"
       style="font-style:normal;font-variant:normal;font-weight:normal;font-stretch:normal;font-size:56px;line-height:125%;font-family:'Nimbus Sans L';-inkscape-font-specification:Sans;letter-spacing:0px;word-spacing:0px;fill:#000000;fill-opacity:1;stroke:none;stroke-width:1px;stroke-linecap:butt;stroke-linejoin:miter;stroke-opacity:1"
       xml:space="preserve"><tspan
         style="font-size:15.00000191px"
         y="192.21513"
         x="113.60442"
         id="tspan4452-7"
         sodipodi:role="line">$E_0$</tspan></text>
    <text
       sodipodi:linespacing="125%"
       id="text4450-5"
       y="76.786545"
       x="262.60443"
       style="font-style:normal;font-variant:normal;font-weight:normal;font-stretch:normal;font-size:56px;line-height:125%;font-family:'Nimbus Sans L';-inkscape-font-specification:Sans;letter-spacing:0px;word-spacing:0px;fill:#000000;fill-opacity:1;stroke:none;stroke-width:1px;stroke-linecap:butt;stroke-linejoin:miter;stroke-opacity:1"
       xml:space="preserve"><tspan
         style="font-size:15.00000191px"
         y="76.786545"
         x="262.60443"
         id="tspan4452-3"
         sodipodi:role="line">$|2\rangle$</tspan></text>
    <text
       sodipodi:linespacing="125%"
       id="text4450-5-5"
       y="127.54298"
       x="262.60443"
       style="font-style:normal;font-variant:normal;font-weight:normal;font-stretch:normal;font-size:56px;line-height:125%;font-family:'Nimbus Sans L';-inkscape-font-specification:Sans;letter-spacing:0px;word-spacing:0px;fill:#000000;fill-opacity:1;stroke:none;stroke-width:1px;stroke-linecap:butt;stroke-linejoin:miter;stroke-opacity:1"
       xml:space="preserve"><tspan
         style="font-size:15.00000191px"
         y="127.54298"
         x="262.60443"
         id="tspan4452-3-6"
         sodipodi:role="line">$|1\rangle$</tspan></text>
    <text
       sodipodi:linespacing="125%"
       id="text4450-5-5-2"
       y="193.61441"
       x="262.60443"
       style="font-style:normal;font-variant:normal;font-weight:normal;font-stretch:normal;font-size:56px;line-height:125%;font-family:'Nimbus Sans L';-inkscape-font-specification:Sans;letter-spacing:0px;word-spacing:0px;fill:#000000;fill-opacity:1;stroke:none;stroke-width:1px;stroke-linecap:butt;stroke-linejoin:miter;stroke-opacity:1"
       xml:space="preserve"><tspan
         style="font-size:15.00000191px"
         y="193.61441"
         x="262.60443"
         id="tspan4452-3-6-9"
         sodipodi:role="line">$|0\rangle$</tspan></text>
    <text
       sodipodi:linespacing="125%"
       id="text4450-1"
       y="127.85798"
       x="174.14369"
       style="font-style:normal;font-variant:normal;font-weight:normal;font-stretch:normal;font-size:56px;line-height:125%;font-family:'Nimbus Sans L';-inkscape-font-specification:Sans;letter-spacing:0px;word-spacing:0px;fill:#000000;fill-opacity:1;stroke:none;stroke-width:1px;stroke-linecap:butt;stroke-linejoin:miter;stroke-opacity:1"
       xml:space="preserve"><tspan
         style="font-size:15.00000191px"
         y="127.85798"
         x="174.14369"
         id="tspan4452-2"
         sodipodi:role="line">$E_1$</tspan></text>
    <path
       inkscape:connector-curvature="0"
       style="opacity:1;fill:none;fill-opacity:0.98809521;fill-rule:nonzero;stroke:#d40000;stroke-width:1.62500024;stroke-linecap:butt;stroke-linejoin:round;stroke-miterlimit:4;stroke-dasharray:none;stroke-dashoffset:0;stroke-opacity:1"
       d="m 218.94987,71.974407 c 0.47599,0.169553 0.95198,0.339106 1.41937,0.508658 0.46739,0.169553 0.92618,0.339105 1.36808,0.508659 0.4419,0.169552 0.86689,0.339105 1.26733,0.508657 0.40043,0.169553 0.77628,0.339106 1.12078,0.508659 0.3445,0.169552 0.65762,0.339105 0.93373,0.508657 0.2761,0.169553 0.51517,0.339107 0.7129,0.508658 0.19775,0.169554 0.35413,0.339105 0.46635,0.50866 0.11222,0.169552 0.18027,0.339105 0.20292,0.508657 0.0226,0.169554 -1.1e-4,0.339106 -0.0679,0.508659 -0.0678,0.169552 -0.18046,0.339105 -0.33615,0.508658 -0.15567,0.169552 -0.35431,0.339105 -0.59231,0.508657 -0.238,0.169553 -0.51535,0.339106 -0.82706,0.508659 -0.31172,0.169552 -0.65777,0.339105 -1.03193,0.508657 -0.37416,0.169554 -0.7764,0.339106 -1.19948,0.508659 -0.42308,0.169552 -0.86698,0.339105 -1.3237,0.508658 -0.45672,0.169552 -0.92623,0.339105 -1.40006,0.508657 -0.47385,0.169553 -0.95199,0.339106 -1.42584,0.508659 -0.47384,0.169552 -0.94335,0.339105 -1.40007,0.508657 -0.45671,0.169554 -0.90061,0.339106 -1.32369,0.508659 -0.42309,0.169552 -0.82533,0.339105 -1.19949,0.508658 -0.37415,0.169553 -0.72021,0.339105 -1.03193,0.508658 -0.3117,0.169552 -0.58906,0.339105 -0.82706,0.508658 -0.23799,0.169552 -0.43662,0.339105 -0.59231,0.508657 -0.15568,0.169554 -0.26841,0.339106 -0.33615,0.508659 -0.0678,0.169552 -0.0905,0.339105 -0.0679,0.508658 0.0226,0.169553 0.0907,0.339105 0.20292,0.508658 0.11221,0.169552 0.26861,0.339105 0.46634,0.508658 0.19774,0.169552 0.43682,0.339105 0.71292,0.508657 0.27611,0.169554 0.58922,0.339106 0.93372,0.508659 0.34449,0.169552 0.72035,0.339105 1.12078,0.508658 0.40043,0.169553 0.82543,0.339105 1.26733,0.508658 0.4419,0.169552 0.90068,0.339105 1.36808,0.508658 0.46739,0.169552 0.94338,0.339105 1.41937,0.508658 0.476,0.169553 0.95198,0.339105 1.41938,0.508658 0.46739,0.169552 0.92618,0.339106 1.36808,0.508658 0.44189,0.169553 0.86689,0.339105 1.26732,0.508658 0.40044,0.169553 0.77629,0.339106 1.12079,0.508658 0.34449,0.169553 0.65762,0.339105 0.93372,0.508658 0.27611,0.169553 0.51518,0.339105 0.71292,0.508658 0.19773,0.169552 0.35412,0.339106 0.46634,0.508658 0.11222,0.169553 0.18027,0.339105 0.20291,0.508658 0.0226,0.169553 -9e-5,0.339106 -0.0679,0.508658 -0.0678,0.169553 -0.18046,0.339105 -0.33615,0.508658 -0.15567,0.169553 -0.35431,0.339105 -0.59231,0.508658 -0.23799,0.169552 -0.51534,0.339106 -0.82706,0.508658 -0.31171,0.169553 -0.65776,0.339105 -1.03192,0.508658 -0.37416,0.169555 -0.77641,0.339107 -1.19949,0.50866 -0.42308,0.169552 -0.86698,0.339105 -1.3237,0.508657 -0.45672,0.169553 -0.92623,0.339105 -1.40006,0.508658 -0.47384,0.169552 -0.95199,0.339105 -1.42583,0.508657 -0.47385,0.169553 -0.94336,0.339105 -1.40008,0.508658 -0.45671,0.169552 -0.9006,0.339105 -1.32369,0.508657 -0.42309,0.169553 -0.82533,0.339105 -1.19949,0.508658 -0.37415,0.169552 -0.72021,0.339105 -1.03192,0.508657 -0.31171,0.16955 -0.58907,0.33911 -0.82707,0.50866 -0.23799,0.169551 -0.43662,0.339101 -0.59231,0.508661 -0.15568,0.16955 -0.2684,0.3391 -0.33615,0.50865 -0.0678,0.16956 -0.0905,0.33911 -0.0679,0.50866 0.0226,0.16955 0.0907,0.33911 0.20292,0.50866 0.11222,0.16955 0.26861,0.33911 0.46634,0.50866 0.19774,0.16956 0.43682,0.33911 0.71292,0.50866 0.27611,0.16955 0.58923,0.33911 0.93372,0.50866 0.34449,0.16955 0.72035,0.3391 1.12078,0.50866 0.40043,0.16955 0.82543,0.3391 1.26734,0.50865 0.44189,0.16956 0.90067,0.33911 1.36807,0.50866 0.46739,0.16955 0.94338,0.33911 1.41937,0.50866 0.476,0.16955 0.95199,0.3391 1.41939,0.50866 0.46739,0.16955 0.92617,0.3391 1.36807,0.50865 0.4419,0.16956 0.8669,0.33911 1.26733,0.50866 0.40043,0.16955 0.77628,0.33911 1.12078,0.50866 0.34449,0.16955 0.65762,0.3391 0.93372,0.50866 0.27611,0.16955 0.51518,0.3391 0.71292,0.50865 0.19773,0.16956 0.35412,0.33911 0.46634,0.50866 0.11222,0.16955 0.18027,0.33911 0.20291,0.50866 0.0226,0.16955 -9e-5,0.3391 -0.0679,0.50866 -0.0678,0.16955 -0.18047,0.3391 -0.33615,0.50866 -0.15568,0.16955 -0.35432,0.33911 -0.59232,0.50866 -0.23799,0.16955 -0.51534,0.3391 -0.82706,0.50866 -0.31171,0.16955 -0.65776,0.3391 -1.03192,0.50865 -0.37416,0.16956 -0.77641,0.33911 -1.19949,0.50866 -0.42308,0.16955 -0.86698,0.33911 -1.3237,0.50866 -0.45671,0.16955 -0.92622,0.3391 -1.40006,0.50866 -0.47384,0.16955 -0.95199,0.3391 -1.42583,0.50865 -0.47385,0.16956 -0.94336,0.33911 -1.40007,0.50866 -0.45671,0.16955 -0.90061,0.33911 -1.32369,0.50866 -0.42309,0.16955 -0.82534,0.3391 -1.1995,0.50866 -0.37415,0.16955 -0.72021,0.3391 -1.03192,0.50865 -0.31171,0.16956 -0.58907,0.33911 -0.82706,0.50866 -0.238,0.16955 -0.43663,0.33911 -0.59231,0.50866 -0.15569,0.16955 -0.26841,0.3391 -0.33616,0.50866 -0.0678,0.16955 -0.0905,0.3391 -0.0679,0.50865 0.0226,0.16956 0.0907,0.33911 0.20291,0.50866 0.11222,0.16955 0.26861,0.33912 0.46634,0.50867 0.19775,0.16955 0.43682,0.3391 0.71292,0.50866 0.27611,0.16955 0.58923,0.3391 0.93372,0.50865 0.3445,0.16956 0.72036,0.33911 1.12079,0.50866 0.40042,0.16955 0.82542,0.33911 1.26733,0.50866 0.44189,0.16955 0.90067,0.3391 1.36807,0.50866 0.46739,0.16955 0.94339,0.3391 1.41938,0.50865"
       title="sin(x)"
       id="path5906" />
    <path
       id="path6129"
       title="sin(x)"
       d="m 158.73566,188.04582 c -1.58668,-0.3872 -3.16914,-0.77441 -4.44683,-1.16162 -1.2777,-0.3872 -2.24386,-0.7744 -2.71496,-1.16161 -0.47112,-0.38721 -0.4447,-0.77441 0.0742,-1.16161 0.51896,-0.38721 1.52768,-0.77442 2.83458,-1.16162 1.3069,-0.38721 2.90506,-0.77441 4.49093,-1.16162 1.58587,-0.38721 3.15104,-0.77441 4.39824,-1.16161 1.24721,-0.38721 2.16983,-0.77442 2.59265,-1.16162 0.4228,-0.3872 0.34353,-0.77442 -0.22272,-1.16162 -0.56625,-0.3872 -1.61652,-0.77441 -2.95131,-1.16161 -1.33479,-0.38721 -2.94704,-0.77441 -4.53051,-1.16162 -1.58347,-0.3872 -3.12978,-0.77441 -4.34524,-1.16162 -1.21546,-0.3872 -2.09362,-0.7744 -2.46769,-1.16162 -0.37408,-0.3872 -0.24207,-0.7744 0.37093,-1.1616 0.61301,-0.38722 1.70375,-0.77442 3.0651,-1.16162 1.36133,-0.38721 2.98602,-0.77442 4.5655,-1.16162 1.5795,-0.38721 3.10538,-0.77441 4.28787,-1.16162 1.1825,-0.3872 2.01531,-0.77441 2.34026,-1.16161 0.32496,-0.38721 0.14035,-0.77442 -0.51878,-1.16162 -0.65913,-0.3872 -1.78927,-0.77441 -3.17578,-1.16162 -1.3865,-0.3872 -3.02203,-0.7744 -4.59593,-1.16161 -1.5739,-0.38721 -3.07784,-0.77441 -4.22616,-1.16162 -1.14834,-0.3872 -1.93497,-0.77441 -2.21049,-1.16162 -0.27551,-0.3872 -0.0385,-0.7744 0.66611,-1.16161 0.70459,-0.38721 1.87299,-0.77441 3.28327,-1.16161 1.41029,-0.38721 3.05499,-0.77442 4.62173,-1.16162 1.56674,-0.38721 3.04721,-0.77441 4.16021,-1.16162 1.11301,-0.3872 1.85266,-0.77441 2.07846,-1.16161 0.22581,-0.38721 -0.0635,-0.77442 -0.81276,-1.16162 -0.74933,-0.3872 -1.95481,-0.77442 -3.38745,-1.16162 -1.43265,-0.3872 -3.08487,-0.7744 -4.64286,-1.16162 -1.558,-0.3872 -3.01351,-0.7744 -4.09007,-1.16161 -1.07658,-0.38721 -1.76851,-0.77441 -1.94436,-1.16162 -0.17587,-0.3872 0.16526,-0.77441 0.9586,-1.16161 0.79333,-0.38721 2.03467,-0.77441 3.48823,-1.16162 1.45356,-0.38721 3.11164,-0.77441 4.65931,-1.16161 1.54769,-0.38721 2.97678,-0.77442 4.01582,-1.16162 1.03905,-0.3872 1.68255,-0.77441 1.8083,-1.16162 0.12573,-0.3872 -0.26695,-0.77441 -1.10348,-1.16161 -0.83653,-0.38721 -2.11248,-0.77442 -3.58548,-1.16162 -1.47302,-0.3872 -3.13529,-0.77441 -4.6711,-1.16162 -1.53582,-0.3872 -2.93702,-0.7744 -3.9375,-1.16161 -1.00048,-0.38721 -1.59492,-0.77441 -1.67042,-1.16162 -0.0755,-0.3872 0.36835,-0.77441 1.24724,-1.16161 0.87888,-0.38721 2.18815,-0.77441 3.67913,-1.16162 1.49098,-0.38721 3.15577,-0.77441 4.67817,-1.16161 1.52239,-0.38722 2.89433,-0.77442 3.85524,-1.16162 0.96089,-0.3872 1.50566,-0.77442 1.53084,-1.16162 0.0252,-0.3872 -0.46938,-0.77441 -1.38975,-1.16162 -0.92036,-0.3872 -2.26163,-0.77441 -3.76908,-1.16161 -1.50744,-0.38721 -3.17306,-0.77441 -4.68052,-1.16162 -1.50744,-0.3872 -2.84872,-0.77441 -3.76908,-1.16162 -0.92036,-0.3872 -1.41492,-0.7744 -1.38974,-1.16161 0.0252,-0.38721 0.56994,-0.77441 1.53085,-1.16161 0.9609,-0.38721 2.33283,-0.77442 3.85523,-1.16162 1.52239,-0.38721 3.18718,-0.77441 4.67817,-1.16162 1.49097,-0.3872 2.80025,-0.77441 3.67913,-1.16161 0.8789,-0.38721 1.32274,-0.77442 1.24724,-1.16162 -0.0755,-0.3872 -0.66994,-0.77441 -1.67042,-1.16162 -1.00047,-0.3872 -2.40169,-0.7744 -3.9375,-1.16161 -1.53582,-0.38721 -3.19808,-0.77441 -4.6711,-1.16162 -1.47301,-0.3872 -2.74895,-0.77441 -3.58548,-1.16162 -0.83653,-0.3872 -1.22921,-0.7744 -1.10347,-1.16161 0.12573,-0.38721 0.76925,-0.77441 1.80829,-1.16161 1.03904,-0.38721 2.46813,-0.77442 4.01581,-1.16162 1.54769,-0.38721 3.20576,-0.77441 4.65933,-1.16162 1.45356,-0.3872 2.69488,-0.77441 3.48822,-1.16161 0.79333,-0.38721 1.13447,-0.77442 0.9586,-1.16162 -0.17586,-0.3872 -0.86778,-0.77441 -1.94435,-1.16162 -1.07657,-0.3872 -2.53209,-0.7744 -4.09008,-1.16161 -1.55799,-0.38721 -3.21022,-0.77441 -4.64286,-1.16162 -1.43265,-0.3872 -2.63812,-0.77441 -3.38745,-1.16162 -0.74934,-0.3872 -1.03858,-0.7744 -0.81276,-1.16161 0.2258,-0.38721 0.96544,-0.77441 2.07845,-1.16161 1.11302,-0.38721 2.59348,-0.77442 4.16022,-1.16162 1.56674,-0.38721 3.21144,-0.77441 4.62173,-1.16162 1.41028,-0.3872 2.57868,-0.77441 3.28326,-1.161615 0.7046,-0.387202 0.94164,-0.774414 0.66612,-1.161617 -0.27553,-0.387202 -1.06216,-0.774414 -2.21048,-1.161617 -1.14833,-0.387202 -2.65227,-0.774405 -4.22617,-1.161617 -1.57391,-0.387203 -3.20943,-0.774405 -4.59594,-1.161614 -1.38651,-0.387206 -2.51664,-0.774411 -3.17577,-1.161616 -0.65912,-0.387206 -0.84374,-0.774411 -0.51879,-1.161617 0.32497,-0.387205 1.15778,-0.77441 2.34027,-1.161616 1.18249,-0.387205 2.70837,-0.774411 4.28786,-1.161616 1.57948,-0.387205 3.20418,-0.774411 4.56552,-1.161616 1.36134,-0.387206 2.45209,-0.774411 3.06509,-1.161616 0.613,-0.387206 0.74501,-0.774411 0.37093,-1.161617 -0.37407,-0.387205 -1.25223,-0.77441 -2.4677,-1.161616 -1.21545,-0.387205 -2.76176,-0.774411 -4.34523,-1.161616 -1.58348,-0.387205 -3.19572,-0.774411 -4.53051,-1.161616 -1.33479,-0.387206 -2.38506,-0.774411 -2.95131,-1.161616 -0.56626,-0.387206 -0.64551,-0.774411 -0.22271,-1.161617 0.42281,-0.387205 1.34543,-0.77441 2.59263,-1.161616 1.24721,-0.387205 2.81239,-0.774411 4.39825,-1.161616 1.58587,-0.387205 3.18403,-0.774411 4.49093,-1.161616 1.30691,-0.387206 2.31562,-0.774411 2.83457,-1.161616 0.51895,-0.387206 0.54537,-0.774411 0.0742,-1.161617 -0.47112,-0.387205 -1.43727,-0.77441 -2.71498,-1.161616 -1.27769,-0.387205 -2.86015,-0.77441 -4.44681,-1.161615"
       style="opacity:1;fill:none;fill-opacity:0.98809521;fill-rule:nonzero;stroke:#3054a8;stroke-width:1.62500024;stroke-linecap:butt;stroke-linejoin:round;stroke-miterlimit:4;stroke-dasharray:none;stroke-dashoffset:0;stroke-opacity:1"
       inkscape:connector-curvature="0" />
    <path
       id="path6539"
       title="sin(x)"
       d="m 233.16421,188.26013 c -0.63467,-0.21765 -1.26929,-0.4353 -1.88361,-0.65295 -0.61433,-0.21766 -1.20827,-0.43531 -1.76287,-0.65296 -0.5546,-0.21765 -1.06979,-0.43531 -1.52912,-0.65297 -0.45933,-0.21764 -0.86274,-0.4353 -1.19735,-0.65295 -0.33461,-0.21766 -0.60038,-0.4353 -0.78882,-0.65296 -0.18845,-0.21765 -0.29954,-0.43531 -0.32974,-0.65295 -0.0302,-0.21766 0.0205,-0.43531 0.15048,-0.65297 0.12999,-0.21764 0.33924,-0.4353 0.62107,-0.65295 0.28183,-0.21766 0.63621,-0.43531 1.05183,-0.65296 0.41562,-0.21766 0.89242,-0.43531 1.41518,-0.65296 0.52275,-0.21765 1.0914,-0.43531 1.68779,-0.65296 0.5964,-0.21765 1.22045,-0.4353 1.85224,-0.65296 0.63179,-0.21765 1.27124,-0.4353 1.89793,-0.65295 0.62669,-0.21766 1.24055,-0.43531 1.82197,-0.65296 0.58142,-0.21765 1.13033,-0.43531 1.62921,-0.65296 0.49888,-0.21765 0.94767,-0.43531 1.33203,-0.65296 0.38435,-0.21765 0.70424,-0.4353 0.94944,-0.65296 0.2452,-0.21765 0.41568,-0.4353 0.506,-0.65295 0.0903,-0.21766 0.10048,-0.43531 0.0301,-0.65296 -0.0703,-0.21765 -0.22117,-0.43531 -0.44768,-0.65296 -0.2265,-0.21765 -0.52864,-0.43531 -0.89679,-0.65296 -0.36814,-0.21766 -0.80223,-0.4353 -1.28841,-0.65296 -0.48618,-0.21765 -1.02439,-0.43531 -1.59745,-0.65295 -0.57305,-0.21766 -1.18088,-0.43531 -1.80407,-0.65297 -0.6232,-0.21764 -1.26168,-0.4353 -1.89507,-0.65295 -0.63339,-0.21766 -1.26159,-0.4353 -1.86457,-0.65296 -0.60298,-0.21765 -1.18064,-0.43531 -1.71456,-0.65296 -0.53391,-0.21765 -1.02401,-0.43531 -1.45463,-0.65296 -0.43063,-0.21765 -0.80173,-0.4353 -1.10146,-0.65296 -0.29974,-0.21765 -0.52806,-0.4353 -0.67769,-0.65295 -0.14963,-0.21766 -0.22054,-0.43531 -0.21047,-0.65296 0.0101,-0.21765 0.10112,-0.43531 0.27024,-0.65296 0.16912,-0.21765 0.41629,-0.43531 0.73362,-0.65296 0.31734,-0.21765 0.70479,-0.4353 1.14999,-0.65296 0.4452,-0.21765 0.94809,-0.4353 1.49263,-0.65295 0.54453,-0.21766 1.13063,-0.43531 1.73958,-0.65296 0.60896,-0.21765 1.24069,-0.43531 1.87504,-0.65296 0.63435,-0.21765 1.27122,-0.4353 1.89029,-0.65296 0.61907,-0.21765 1.22026,-0.4353 1.78437,-0.65296 0.56411,-0.21765 1.09108,-0.43531 1.56407,-0.65295 0.47299,-0.21766 0.89195,-0.43531 1.24351,-0.65297 0.35155,-0.21764 0.63565,-0.4353 0.84323,-0.65295 0.20758,-0.21766 0.33861,-0.4353 0.38891,-0.65296 0.0503,-0.21765 0.0198,-0.43531 -0.0904,-0.65295 -0.11021,-0.21766 -0.30017,-0.43531 -0.56382,-0.65297 -0.26365,-0.21765 -0.60095,-0.4353 -1.00114,-0.65296 -0.40019,-0.21765 -0.86322,-0.4353 -1.37429,-0.65295 -0.51108,-0.21766 -1.07014,-0.43531 -1.65935,-0.65296 -0.5892,-0.21765 -1.20846,-0.43531 -1.83802,-0.65295 -0.62956,-0.21766 -1.26933,-0.43531 -1.89889,-0.65297 -0.62956,-0.21764 -1.24882,-0.4353 -1.83803,-0.65296 -0.5892,-0.21765 -1.14826,-0.4353 -1.65934,-0.65295 -0.51108,-0.21766 -0.9741,-0.43531 -1.37429,-0.65296 -0.40019,-0.21765 -0.73749,-0.43531 -1.00114,-0.65296 -0.26365,-0.21765 -0.45361,-0.4353 -0.56382,-0.65296 -0.11021,-0.21765 -0.14065,-0.4353 -0.0904,-0.65295 0.0503,-0.21766 0.18133,-0.43531 0.38891,-0.65296 0.20757,-0.21766 0.49167,-0.43531 0.84323,-0.65296 0.35155,-0.21765 0.77051,-0.43531 1.2435,-0.65296 0.473,-0.21765 0.99996,-0.4353 1.56407,-0.65296 0.56412,-0.21765 1.1653,-0.4353 1.78438,-0.65295 0.61907,-0.21766 1.25594,-0.43531 1.89029,-0.65296 0.63434,-0.21765 1.26607,-0.43531 1.87503,-0.65297 0.60896,-0.21764 1.19506,-0.4353 1.73959,-0.65295 0.54453,-0.21766 1.04742,-0.4353 1.49263,-0.65296 0.4452,-0.21765 0.83265,-0.43531 1.14998,-0.65295 0.31733,-0.21766 0.56451,-0.43531 0.73363,-0.65297 0.16912,-0.21764 0.26017,-0.4353 0.27024,-0.65295 0.0101,-0.21766 -0.0608,-0.4353 -0.21047,-0.65296 -0.14963,-0.21766 -0.37795,-0.43531 -0.67769,-0.65296 -0.29973,-0.21765 -0.67084,-0.43531 -1.10146,-0.65296 -0.43063,-0.21765 -0.92072,-0.4353 -1.45463,-0.65296 -0.53392,-0.21765 -1.11158,-0.4353 -1.71456,-0.65295 -0.60298,-0.21766 -1.23119,-0.43531 -1.86457,-0.65296 -0.63339,-0.21765 -1.27187,-0.43531 -1.89507,-0.65296 -0.6232,-0.21765 -1.23102,-0.43531 -1.80408,-0.65296 -0.57305,-0.21765 -1.11126,-0.4353 -1.59744,-0.65296 -0.48619,-0.21765 -0.92028,-0.4353 -1.28842,-0.65295 -0.36814,-0.21766 -0.67028,-0.43531 -0.89679,-0.65296 -0.2265,-0.21765 -0.37733,-0.43531 -0.44768,-0.65296 -0.0703,-0.21765 -0.0602,-0.4353 0.0301,-0.65296 0.0903,-0.21766 0.26081,-0.4353 0.50601,-0.65296 0.2452,-0.21765 0.56508,-0.43531 0.94944,-0.65295 0.38436,-0.21766 0.83314,-0.43531 1.33202,-0.65297 0.49888,-0.21764 1.04779,-0.4353 1.62922,-0.65295 0.58142,-0.21766 1.19527,-0.4353 1.82197,-0.65296 0.62669,-0.21765 1.26614,-0.43531 1.89793,-0.65296 0.63179,-0.21765 1.25584,-0.43531 1.85223,-0.65296 0.59639,-0.21765 1.16504,-0.4353 1.6878,-0.65296 0.52276,-0.21765 0.99956,-0.4353 1.41517,-0.65295 0.41562,-0.21766 0.77,-0.43531 1.05184,-0.65296 0.28183,-0.21765 0.49108,-0.43531 0.62106,-0.65296 0.12999,-0.21765 0.18069,-0.43531 0.15049,-0.65296 -0.0302,-0.21765 -0.14129,-0.4353 -0.32974,-0.65296 -0.18844,-0.21765 -0.45421,-0.4353 -0.78883,-0.65295 -0.33461,-0.21766 -0.73802,-0.43531 -1.19735,-0.65296 -0.45932,-0.21765 -0.97451,-0.43531 -1.52911,-0.65296 -0.55461,-0.21765 -1.14855,-0.4353 -1.76287,-0.65296 -0.61432,-0.21765 -1.24895,-0.4353 -1.88361,-0.65296"
       style="opacity:1;fill:none;fill-opacity:0.98809521;fill-rule:nonzero;stroke:#00d400;stroke-width:1.62500024;stroke-linecap:butt;stroke-linejoin:round;stroke-miterlimit:4;stroke-dasharray:none;stroke-dashoffset:0;stroke-opacity:1"
       inkscape:connector-curvature="0" />
    <text
       sodipodi:linespacing="125%"
       id="text4450-1-9"
       y="101.2151"
       x="257.92941"
       style="font-style:normal;font-variant:normal;font-weight:normal;font-stretch:normal;font-size:56px;line-height:125%;font-family:'Nimbus Sans L';-inkscape-font-specification:Sans;letter-spacing:0px;word-spacing:0px;fill:#000000;fill-opacity:1;stroke:none;stroke-width:1px;stroke-linecap:butt;stroke-linejoin:miter;stroke-opacity:1"
       xml:space="preserve"><tspan
         style="font-size:15.00000191px"
         y="101.2151"
         x="257.92941"
         id="tspan4452-2-3"
         sodipodi:role="line">$\hbar\omega_0$</tspan></text>
    <rect
       inkscape:transform-center-y="-103.93682"
       inkscape:transform-center-x="-8.2001963"
       y="123.1952"
       x="380.22366"
       height="67.875587"
       width="38.269535"
       id="rect5779-1-2"
       style="fill:#ffffff;fill-opacity:1;stroke:none" />
    <polyline
       transform="matrix(0.20317096,0,0,-0.21205816,366.93904,134.34)"
       style="fill:none;stroke:#000000;stroke-width:7.82879829;stroke-miterlimit:4;stroke-dasharray:none;stroke-opacity:1"
       id="polyline194-4-5"
       points="74.1,56.2125 409.608,56.2125 " />
    <path
       sodipodi:nodetypes="cc"
       inkscape:connector-curvature="0"
       inkscape:original-d="M 338.40793,74.640902 338.5865,188.48474"
       inkscape:path-effect="#path-effect4091-59-7"
       id="path4089-22-9"
       d="M 338.40793,74.640902 338.5865,188.48474"
       style="fill:none;stroke:#000000;stroke-width:1.62500024;stroke-linecap:butt;stroke-linejoin:miter;stroke-miterlimit:4;stroke-dasharray:none;stroke-opacity:1;marker-start:url(#Arrow1Mstart-17-6-5-1);marker-end:none" />
    <path
       sodipodi:nodetypes="cc"
       inkscape:connector-curvature="0"
       inkscape:original-d="m 410.53409,123.46314 0,63.2366"
       inkscape:path-effect="#path-effect4091-3-9"
       id="path4089-3-2"
       d="m 410.53409,123.46314 0,63.2366"
       style="fill:none;stroke:#000000;stroke-width:1.62500024;stroke-linecap:butt;stroke-linejoin:miter;stroke-miterlimit:4;stroke-dasharray:none;stroke-opacity:1;marker-start:none;marker-end:url(#Arrow1Mend-76-9-6)" />
    <path
       sodipodi:nodetypes="cc"
       inkscape:connector-curvature="0"
       id="path4638-7"
       d="m 326.5571,188.41442 123.49115,0"
       style="fill:none;fill-rule:evenodd;stroke:#000000;stroke-width:1.62500024;stroke-linecap:butt;stroke-linejoin:miter;stroke-miterlimit:4;stroke-dasharray:none;stroke-opacity:1" />
    <path
       sodipodi:nodetypes="cc"
       inkscape:connector-curvature="0"
       id="path4638-3-3"
       d="m 326.5571,71.994353 123.49116,0"
       style="fill:none;fill-rule:evenodd;stroke:#000000;stroke-width:1.62500024;stroke-linecap:butt;stroke-linejoin:miter;stroke-miterlimit:4;stroke-dasharray:none;stroke-opacity:1" />
    <text
       sodipodi:linespacing="125%"
       id="text4450-5-2"
       y="76.629044"
       x="455.06879"
       style="font-style:normal;font-variant:normal;font-weight:normal;font-stretch:normal;font-size:56px;line-height:125%;font-family:'Nimbus Sans L';-inkscape-font-specification:Sans;letter-spacing:0px;word-spacing:0px;fill:#000000;fill-opacity:1;stroke:none;stroke-width:1px;stroke-linecap:butt;stroke-linejoin:miter;stroke-opacity:1"
       xml:space="preserve"><tspan
         style="font-size:15.00000191px"
         y="76.629044"
         x="455.06879"
         id="tspan4452-3-9"
         sodipodi:role="line">$|2\rangle$</tspan></text>
    <text
       sodipodi:linespacing="125%"
       id="text4450-5-5-3"
       y="127.38548"
       x="455.06879"
       style="font-style:normal;font-variant:normal;font-weight:normal;font-stretch:normal;font-size:56px;line-height:125%;font-family:'Nimbus Sans L';-inkscape-font-specification:Sans;letter-spacing:0px;word-spacing:0px;fill:#000000;fill-opacity:1;stroke:none;stroke-width:1px;stroke-linecap:butt;stroke-linejoin:miter;stroke-opacity:1"
       xml:space="preserve"><tspan
         style="font-size:15.00000191px"
         y="127.38548"
         x="455.06879"
         id="tspan4452-3-6-1"
         sodipodi:role="line">$|1\rangle$</tspan></text>
    <text
       sodipodi:linespacing="125%"
       id="text4450-5-5-2-9"
       y="193.45691"
       x="455.06879"
       style="font-style:normal;font-variant:normal;font-weight:normal;font-stretch:normal;font-size:56px;line-height:125%;font-family:'Nimbus Sans L';-inkscape-font-specification:Sans;letter-spacing:0px;word-spacing:0px;fill:#000000;fill-opacity:1;stroke:none;stroke-width:1px;stroke-linecap:butt;stroke-linejoin:miter;stroke-opacity:1"
       xml:space="preserve"><tspan
         style="font-size:15.00000191px"
         y="193.45691"
         x="455.06879"
         id="tspan4452-3-6-9-4"
         sodipodi:role="line">$|0\rangle$</tspan></text>
    <path
       inkscape:connector-curvature="0"
       style="opacity:1;fill:none;fill-opacity:0.98809521;fill-rule:nonzero;stroke:#d40000;stroke-width:1.62500024;stroke-linecap:butt;stroke-linejoin:round;stroke-miterlimit:4;stroke-dasharray:none;stroke-dashoffset:0;stroke-opacity:1"
       d="m 411.41422,71.816909 c 0.47599,0.169553 0.95198,0.339106 1.41937,0.508658 0.46739,0.169553 0.92618,0.339105 1.36808,0.508659 0.4419,0.169552 0.86689,0.339105 1.26733,0.508657 0.40043,0.169553 0.77628,0.339106 1.12078,0.508659 0.3445,0.169552 0.65762,0.339105 0.93373,0.508657 0.2761,0.169553 0.51517,0.339107 0.7129,0.508658 0.19775,0.169554 0.35413,0.339105 0.46635,0.50866 0.11222,0.169552 0.18027,0.339105 0.20292,0.508657 0.0226,0.169554 -1.1e-4,0.339106 -0.0679,0.508659 -0.0678,0.169552 -0.18046,0.339105 -0.33615,0.508658 -0.15567,0.169552 -0.35431,0.339105 -0.59231,0.508657 -0.238,0.169553 -0.51535,0.339106 -0.82706,0.508659 -0.31172,0.169552 -0.65777,0.339105 -1.03193,0.508657 -0.37416,0.169554 -0.7764,0.339106 -1.19948,0.508659 -0.42308,0.169552 -0.86698,0.339105 -1.3237,0.508658 -0.45672,0.169552 -0.92623,0.339105 -1.40006,0.508657 -0.47385,0.169553 -0.95199,0.339106 -1.42584,0.508659 -0.47384,0.169552 -0.94335,0.339105 -1.40007,0.508657 -0.45671,0.169554 -0.90061,0.339106 -1.32369,0.508659 -0.42309,0.169552 -0.82533,0.339105 -1.19949,0.508658 -0.37415,0.169553 -0.72021,0.339105 -1.03193,0.508658 -0.3117,0.169552 -0.58906,0.339105 -0.82706,0.508658 -0.23799,0.169552 -0.43662,0.339105 -0.59231,0.508657 -0.15568,0.169554 -0.26841,0.339106 -0.33615,0.508659 -0.0678,0.169552 -0.0905,0.339105 -0.0679,0.508658 0.0226,0.169553 0.0907,0.339105 0.20292,0.508658 0.11221,0.169552 0.26861,0.339105 0.46634,0.508658 0.19774,0.169552 0.43682,0.339105 0.71292,0.508657 0.27611,0.169554 0.58922,0.339106 0.93372,0.508659 0.34449,0.169552 0.72035,0.339105 1.12078,0.508658 0.40043,0.169553 0.82543,0.339105 1.26733,0.508658 0.4419,0.169552 0.90068,0.339105 1.36808,0.508658 0.46739,0.169552 0.94338,0.339105 1.41937,0.508658 0.476,0.169553 0.95198,0.339105 1.41938,0.508658 0.46739,0.169552 0.92618,0.339106 1.36808,0.508658 0.44189,0.169553 0.86689,0.339105 1.26732,0.508658 0.40044,0.169553 0.77629,0.339106 1.12079,0.508658 0.34449,0.169553 0.65762,0.339105 0.93372,0.508658 0.27611,0.169553 0.51518,0.339105 0.71292,0.508658 0.19773,0.169552 0.35412,0.339106 0.46634,0.508658 0.11222,0.169553 0.18027,0.339105 0.20291,0.508658 0.0226,0.169553 -9e-5,0.339106 -0.0679,0.508658 -0.0678,0.169553 -0.18046,0.339105 -0.33615,0.508658 -0.15567,0.169553 -0.35431,0.339105 -0.59231,0.508658 -0.23799,0.169552 -0.51534,0.339106 -0.82706,0.508658 -0.31171,0.169553 -0.65776,0.339105 -1.03192,0.508658 -0.37416,0.169555 -0.77641,0.339107 -1.19949,0.50866 -0.42308,0.169552 -0.86698,0.339105 -1.3237,0.508657 -0.45672,0.169553 -0.92623,0.339105 -1.40006,0.508658 -0.47384,0.169552 -0.95199,0.339105 -1.42583,0.508657 -0.47385,0.169553 -0.94336,0.339105 -1.40008,0.508658 -0.45671,0.169552 -0.9006,0.339105 -1.32369,0.508657 -0.42309,0.169553 -0.82533,0.339105 -1.19949,0.508658 -0.37415,0.169552 -0.72021,0.339105 -1.03192,0.508657 -0.31171,0.16955 -0.58907,0.33911 -0.82707,0.50866 -0.23799,0.169551 -0.43662,0.339099 -0.59231,0.508659 -0.15568,0.16955 -0.2684,0.3391 -0.33615,0.50865 -0.0678,0.16956 -0.0905,0.33911 -0.0679,0.50866 0.0226,0.16955 0.0907,0.33911 0.20292,0.50866 0.11222,0.16955 0.26861,0.33911 0.46634,0.50866 0.19774,0.16956 0.43682,0.33911 0.71292,0.50866 0.27611,0.16955 0.58923,0.33911 0.93372,0.50866 0.34449,0.16955 0.72035,0.3391 1.12078,0.50866 0.40043,0.16955 0.82543,0.3391 1.26734,0.50865 0.44189,0.16956 0.90067,0.33911 1.36807,0.50866 0.46739,0.16955 0.94338,0.33911 1.41937,0.50866 0.476,0.16955 0.95199,0.3391 1.41939,0.50866 0.46739,0.16955 0.92617,0.3391 1.36807,0.50865 0.4419,0.16956 0.8669,0.33911 1.26733,0.50866 0.40043,0.16955 0.77628,0.33911 1.12078,0.50866 0.34449,0.16955 0.65762,0.3391 0.93372,0.50866 0.27611,0.16955 0.51518,0.3391 0.71292,0.50865 0.19773,0.16956 0.35412,0.33911 0.46634,0.50866 0.11222,0.16955 0.18027,0.33911 0.20291,0.50866 0.0226,0.16955 -9e-5,0.3391 -0.0679,0.50866 -0.0678,0.16955 -0.18047,0.3391 -0.33615,0.50866 -0.15568,0.16955 -0.35432,0.33911 -0.59232,0.50866 -0.23799,0.16955 -0.51534,0.3391 -0.82706,0.50866 -0.31171,0.16955 -0.65776,0.3391 -1.03192,0.50865 -0.37416,0.16956 -0.77641,0.33911 -1.19949,0.50866 -0.42308,0.16955 -0.86698,0.33911 -1.3237,0.50866 -0.45671,0.16955 -0.92622,0.3391 -1.40006,0.50866 -0.47384,0.16955 -0.95199,0.3391 -1.42583,0.50865 -0.47385,0.16956 -0.94336,0.33911 -1.40007,0.50866 -0.45671,0.16955 -0.90061,0.33911 -1.32369,0.50866 -0.42309,0.16955 -0.82534,0.3391 -1.1995,0.50866 -0.37415,0.16955 -0.72021,0.3391 -1.03192,0.50865 -0.31171,0.16956 -0.58907,0.33911 -0.82706,0.50866 -0.238,0.16955 -0.43663,0.33911 -0.59231,0.50866 -0.15569,0.16955 -0.26841,0.3391 -0.33616,0.50866 -0.0678,0.16955 -0.0905,0.3391 -0.0679,0.50865 0.0226,0.16956 0.0907,0.33911 0.20291,0.50866 0.11222,0.16955 0.26861,0.33912 0.46634,0.50867 0.19775,0.16955 0.43682,0.3391 0.71292,0.50866 0.27611,0.16955 0.58923,0.3391 0.93372,0.50865 0.3445,0.16956 0.72036,0.33911 1.12079,0.50866 0.40042,0.16955 0.82542,0.33911 1.26733,0.50866 0.44189,0.16955 0.90067,0.3391 1.36807,0.50866 0.46739,0.16955 0.94339,0.3391 1.41938,0.50865"
       title="sin(x)"
       id="path5906-4" />
    <rect
       inkscape:transform-center-y="-103.93682"
       inkscape:transform-center-x="-8.2001963"
       y="123.55235"
       x="573.58356"
       height="67.875587"
       width="38.269535"
       id="rect5779-1-2-6"
       style="fill:#ffffff;fill-opacity:1;stroke:none" />
    <polyline
       transform="matrix(0.20317096,0,0,-0.21205816,560.29892,134.69715)"
       style="fill:none;stroke:#000000;stroke-width:7.82879829;stroke-miterlimit:4;stroke-dasharray:none;stroke-opacity:1"
       id="polyline194-4-5-9"
       points="74.1,56.2125 409.608,56.2125 " />
    <path
       sodipodi:nodetypes="cc"
       inkscape:connector-curvature="0"
       inkscape:original-d="m 531.76781,74.998049 0.17857,113.843841"
       inkscape:path-effect="#path-effect4091-59-7-5"
       id="path4089-22-9-3"
       d="m 531.76781,74.998049 0.17857,113.843841"
       style="fill:none;stroke:#000000;stroke-width:1.62500024;stroke-linecap:butt;stroke-linejoin:miter;stroke-miterlimit:4;stroke-dasharray:none;stroke-opacity:1;marker-start:url(#Arrow1Mstart-17-6-5-1-1);marker-end:none" />
    <path
       sodipodi:nodetypes="cc"
       inkscape:connector-curvature="0"
       id="path4638-7-4"
       d="m 519.91698,188.77157 123.49115,0"
       style="fill:none;fill-rule:evenodd;stroke:#000000;stroke-width:1.62500024;stroke-linecap:butt;stroke-linejoin:miter;stroke-miterlimit:4;stroke-dasharray:none;stroke-opacity:1" />
    <path
       sodipodi:nodetypes="cc"
       inkscape:connector-curvature="0"
       id="path4638-3-3-5"
       d="m 519.91698,72.3515 123.49116,0"
       style="fill:none;fill-rule:evenodd;stroke:#000000;stroke-width:1.62500024;stroke-linecap:butt;stroke-linejoin:miter;stroke-miterlimit:4;stroke-dasharray:none;stroke-opacity:1" />
    <text
       sodipodi:linespacing="125%"
       id="text4450-5-2-2"
       y="76.986191"
       x="648.42865"
       style="font-style:normal;font-variant:normal;font-weight:normal;font-stretch:normal;font-size:56px;line-height:125%;font-family:'Nimbus Sans L';-inkscape-font-specification:Sans;letter-spacing:0px;word-spacing:0px;fill:#000000;fill-opacity:1;stroke:none;stroke-width:1px;stroke-linecap:butt;stroke-linejoin:miter;stroke-opacity:1"
       xml:space="preserve"><tspan
         style="font-size:15.00000191px"
         y="76.986191"
         x="648.42865"
         id="tspan4452-3-9-5"
         sodipodi:role="line">$|2\rangle$</tspan></text>
    <text
       sodipodi:linespacing="125%"
       id="text4450-5-5-3-4"
       y="127.74263"
       x="648.42865"
       style="font-style:normal;font-variant:normal;font-weight:normal;font-stretch:normal;font-size:56px;line-height:125%;font-family:'Nimbus Sans L';-inkscape-font-specification:Sans;letter-spacing:0px;word-spacing:0px;fill:#000000;fill-opacity:1;stroke:none;stroke-width:1px;stroke-linecap:butt;stroke-linejoin:miter;stroke-opacity:1"
       xml:space="preserve"><tspan
         style="font-size:15.00000191px"
         y="127.74263"
         x="648.42865"
         id="tspan4452-3-6-1-7"
         sodipodi:role="line">$|1\rangle$</tspan></text>
    <text
       sodipodi:linespacing="125%"
       id="text4450-5-5-2-9-4"
       y="193.81406"
       x="648.42865"
       style="font-style:normal;font-variant:normal;font-weight:normal;font-stretch:normal;font-size:56px;line-height:125%;font-family:'Nimbus Sans L';-inkscape-font-specification:Sans;letter-spacing:0px;word-spacing:0px;fill:#000000;fill-opacity:1;stroke:none;stroke-width:1px;stroke-linecap:butt;stroke-linejoin:miter;stroke-opacity:1"
       xml:space="preserve"><tspan
         style="font-size:15.00000191px"
         y="193.81406"
         x="648.42865"
         id="tspan4452-3-6-9-4-4"
         sodipodi:role="line">$|0\rangle$</tspan></text>
    <path
       sodipodi:nodetypes="cc"
       inkscape:connector-curvature="0"
       inkscape:original-d="m 602.99653,73.556086 0,46.808034"
       inkscape:path-effect="#path-effect4091-3-6"
       id="path4089-3-8"
       d="m 602.99653,73.556086 0,46.808034"
       style="fill:none;stroke:#000000;stroke-width:1.62500024;stroke-linecap:butt;stroke-linejoin:miter;stroke-miterlimit:4;stroke-dasharray:none;stroke-opacity:1;marker-start:none;marker-end:url(#Arrow1Mend-76-9-2)" />
    <path
       id="path6539-9"
       title="sin(x)"
       d="m 602.94814,188.40988 c -0.63467,-0.21765 -1.26929,-0.4353 -1.88361,-0.65295 -0.61433,-0.21766 -1.20827,-0.43531 -1.76287,-0.65296 -0.5546,-0.21765 -1.06979,-0.43531 -1.52912,-0.65297 -0.45933,-0.21764 -0.86274,-0.4353 -1.19735,-0.65295 -0.33461,-0.21766 -0.60038,-0.4353 -0.78882,-0.65296 -0.18845,-0.21765 -0.29954,-0.43531 -0.32974,-0.65295 -0.0302,-0.21766 0.0205,-0.43531 0.15048,-0.65297 0.12999,-0.21764 0.33924,-0.4353 0.62107,-0.65295 0.28183,-0.21766 0.63621,-0.43531 1.05183,-0.65296 0.41562,-0.21766 0.89242,-0.43531 1.41518,-0.65296 0.52275,-0.21765 1.0914,-0.43531 1.68779,-0.65296 0.5964,-0.21765 1.22045,-0.4353 1.85224,-0.65296 0.63179,-0.21765 1.27124,-0.4353 1.89793,-0.65295 0.62669,-0.21766 1.24055,-0.43531 1.82197,-0.65296 0.58142,-0.21765 1.13033,-0.43531 1.62921,-0.65296 0.49888,-0.21765 0.94767,-0.43531 1.33203,-0.65296 0.38435,-0.21765 0.70424,-0.4353 0.94944,-0.65296 0.2452,-0.21765 0.41568,-0.4353 0.506,-0.65295 0.0903,-0.21766 0.10048,-0.43531 0.0301,-0.65296 -0.0703,-0.21765 -0.22117,-0.43531 -0.44768,-0.65296 -0.2265,-0.21765 -0.52864,-0.43531 -0.89679,-0.65296 -0.36814,-0.21766 -0.80223,-0.4353 -1.28841,-0.65296 -0.48618,-0.21765 -1.02439,-0.43531 -1.59745,-0.65295 -0.57305,-0.21766 -1.18088,-0.43531 -1.80407,-0.65297 -0.6232,-0.21764 -1.26168,-0.4353 -1.89507,-0.65295 -0.63339,-0.21766 -1.26159,-0.4353 -1.86457,-0.65296 -0.60298,-0.21765 -1.18064,-0.43531 -1.71456,-0.65296 -0.53391,-0.21765 -1.02401,-0.43531 -1.45463,-0.65296 -0.43063,-0.21765 -0.80173,-0.4353 -1.10146,-0.65296 -0.29974,-0.21765 -0.52806,-0.4353 -0.67769,-0.65295 -0.14963,-0.21766 -0.22054,-0.43531 -0.21047,-0.65296 0.0101,-0.21765 0.10112,-0.43531 0.27024,-0.65296 0.16912,-0.21765 0.41629,-0.43531 0.73362,-0.65296 0.31734,-0.21765 0.70479,-0.4353 1.14999,-0.65296 0.4452,-0.21765 0.94809,-0.4353 1.49263,-0.65295 0.54453,-0.21766 1.13063,-0.43531 1.73958,-0.65296 0.60896,-0.21765 1.24069,-0.43531 1.87504,-0.65296 0.63435,-0.21765 1.27122,-0.4353 1.89029,-0.65296 0.61907,-0.21765 1.22026,-0.4353 1.78437,-0.65296 0.56411,-0.21765 1.09108,-0.43531 1.56407,-0.65295 0.47299,-0.21766 0.89195,-0.43531 1.24351,-0.65297 0.35155,-0.21764 0.63565,-0.4353 0.84323,-0.65295 0.20758,-0.21766 0.33861,-0.4353 0.38891,-0.65296 0.0503,-0.21765 0.0198,-0.43531 -0.0904,-0.65295 -0.11021,-0.21766 -0.30017,-0.43531 -0.56382,-0.65297 -0.26365,-0.21765 -0.60095,-0.4353 -1.00114,-0.65296 -0.40019,-0.21765 -0.86322,-0.4353 -1.37429,-0.65295 -0.51108,-0.21766 -1.07014,-0.43531 -1.65935,-0.65296 -0.5892,-0.21765 -1.20846,-0.43531 -1.83802,-0.65295 -0.62956,-0.21766 -1.26933,-0.43531 -1.89889,-0.65297 -0.62956,-0.21764 -1.24882,-0.4353 -1.83803,-0.65297 -0.5892,-0.21765 -1.14826,-0.4353 -1.65934,-0.65295 -0.51108,-0.21766 -0.9741,-0.43531 -1.37429,-0.65296 -0.40019,-0.21765 -0.73749,-0.43531 -1.00114,-0.65296 -0.26365,-0.21765 -0.45361,-0.4353 -0.56382,-0.65296 -0.11021,-0.21765 -0.14065,-0.4353 -0.0904,-0.65295 0.0503,-0.21766 0.18133,-0.43531 0.38891,-0.65296 0.20757,-0.21766 0.49167,-0.43531 0.84323,-0.65296 0.35155,-0.21765 0.77051,-0.43531 1.2435,-0.65296 0.473,-0.21765 0.99996,-0.4353 1.56407,-0.65296 0.56412,-0.21765 1.1653,-0.4353 1.78438,-0.65295 0.61907,-0.21766 1.25594,-0.43531 1.89029,-0.65296 0.63434,-0.21765 1.26607,-0.43531 1.87503,-0.65297 0.60896,-0.21764 1.19506,-0.4353 1.73959,-0.65295 0.54453,-0.21766 1.04742,-0.4353 1.49263,-0.65296 0.4452,-0.21765 0.83265,-0.43531 1.14998,-0.65295 0.31733,-0.21766 0.56451,-0.43531 0.73363,-0.65297 0.16912,-0.21764 0.26017,-0.4353 0.27024,-0.65295 0.0101,-0.21766 -0.0608,-0.4353 -0.21047,-0.65296 -0.14963,-0.21766 -0.37795,-0.43531 -0.67769,-0.65296 -0.29973,-0.21765 -0.67084,-0.43531 -1.10146,-0.65296 -0.43063,-0.21765 -0.92072,-0.4353 -1.45463,-0.65296 -0.53392,-0.21765 -1.11158,-0.4353 -1.71456,-0.65295 -0.60298,-0.21766 -1.23119,-0.43531 -1.86457,-0.65296 -0.63339,-0.21765 -1.27187,-0.43531 -1.89507,-0.65296 -0.6232,-0.21765 -1.23102,-0.43531 -1.80408,-0.65296 -0.57305,-0.21765 -1.11126,-0.4353 -1.59744,-0.65296 -0.48619,-0.21765 -0.92028,-0.4353 -1.28842,-0.65295 -0.36814,-0.21766 -0.67028,-0.43531 -0.89679,-0.65296 -0.2265,-0.21765 -0.37733,-0.43531 -0.44768,-0.65296 -0.0703,-0.21765 -0.0602,-0.4353 0.0301,-0.65296 0.0903,-0.21766 0.26081,-0.4353 0.50601,-0.65296 0.2452,-0.21765 0.56508,-0.43531 0.94944,-0.65295 0.38436,-0.21766 0.83314,-0.43531 1.33202,-0.65297 0.49888,-0.21764 1.04779,-0.4353 1.62922,-0.65295 0.58142,-0.21766 1.19527,-0.4353 1.82197,-0.65296 0.62669,-0.21765 1.26614,-0.43531 1.89793,-0.65296 0.63179,-0.21765 1.25584,-0.43531 1.85223,-0.65296 0.59639,-0.21765 1.16504,-0.4353 1.6878,-0.65296 0.52276,-0.21765 0.99956,-0.4353 1.41517,-0.65295 0.41562,-0.21766 0.77,-0.43531 1.05184,-0.65296 0.28183,-0.21765 0.49108,-0.43531 0.62106,-0.65296 0.12999,-0.21765 0.18069,-0.43531 0.15049,-0.65296 -0.0302,-0.21765 -0.14129,-0.4353 -0.32974,-0.65296 -0.18844,-0.21765 -0.45421,-0.4353 -0.78883,-0.65295 -0.33461,-0.21766 -0.73802,-0.43531 -1.19735,-0.65296 -0.45932,-0.21765 -0.97451,-0.43531 -1.52911,-0.65296 -0.55461,-0.21765 -1.14855,-0.4353 -1.76287,-0.65296 -0.61432,-0.21765 -1.24895,-0.4353 -1.88361,-0.65296"
       style="opacity:1;fill:none;fill-opacity:0.98809521;fill-rule:nonzero;stroke:#00d400;stroke-width:1.62500024;stroke-linecap:butt;stroke-linejoin:round;stroke-miterlimit:4;stroke-dasharray:none;stroke-dashoffset:0;stroke-opacity:1"
       inkscape:connector-curvature="0" />
    <text
       xml:space="preserve"
       style="font-style:normal;font-variant:normal;font-weight:normal;font-stretch:normal;font-size:15.00000191px;line-height:125%;font-family:'Nimbus Sans L';-inkscape-font-specification:Sans;letter-spacing:0px;word-spacing:0px;fill:#000000;fill-opacity:1;stroke:none;stroke-width:1px;stroke-linecap:butt;stroke-linejoin:miter;stroke-opacity:1"
       x="118.7356"
       y="212.33154"
       id="text5351"
       sodipodi:linespacing="125%"><tspan
         sodipodi:role="line"
         id="tspan5353"
         x="118.7356"
         y="212.33154"
         style="font-size:15.00000191px" /><tspan
         sodipodi:role="line"
         x="118.7356"
         y="231.08154"
         style="font-size:15.00000191px"
         id="tspan5355" /></text>
    <text
       xml:space="preserve"
       style="font-style:normal;font-variant:normal;font-weight:normal;font-stretch:normal;font-size:15px;line-height:125%;font-family:'Nimbus Sans L';-inkscape-font-specification:Sans;letter-spacing:0px;word-spacing:0px;fill:#000000;fill-opacity:1;stroke:none;stroke-width:1px;stroke-linecap:butt;stroke-linejoin:miter;stroke-opacity:1"
       x="-155.6537"
       y="140.49193"
       id="text5357"
       sodipodi:linespacing="125%"
       transform="matrix(0,-1,1,0,0,0)"><tspan
         sodipodi:role="line"
         id="tspan5359"
         x="-155.6537"
         y="140.49193">rpanje</tspan></text>
    <text
       xml:space="preserve"
       style="font-style:normal;font-variant:normal;font-weight:normal;font-stretch:normal;font-size:15px;line-height:125%;font-family:'Nimbus Sans L';-inkscape-font-specification:Sans;letter-spacing:0px;word-spacing:0px;fill:#000000;fill-opacity:1;stroke:none;stroke-width:1px;stroke-linecap:butt;stroke-linejoin:miter;stroke-opacity:1"
       x="-155.6537"
       y="333.4642"
       id="text5357-7"
       sodipodi:linespacing="125%"
       transform="matrix(0,-1,1,0,0,0)"><tspan
         sodipodi:role="line"
         id="tspan5359-5"
         x="-155.6537"
         y="333.4642">rpanje</tspan></text>
    <text
       xml:space="preserve"
       style="font-style:normal;font-variant:normal;font-weight:normal;font-stretch:normal;font-size:15px;line-height:125%;font-family:'Nimbus Sans L';-inkscape-font-specification:Sans;letter-spacing:0px;word-spacing:0px;fill:#000000;fill-opacity:1;stroke:none;stroke-width:1px;stroke-linecap:butt;stroke-linejoin:miter;stroke-opacity:1"
       x="-155.6537"
       y="524.87"
       id="text5357-7-3"
       sodipodi:linespacing="125%"
       transform="matrix(0,-1,1,0,0,0)"><tspan
         sodipodi:role="line"
         id="tspan5359-5-5"
         x="-155.6537"
         y="524.87">rpanje</tspan></text>
    <text
       xml:space="preserve"
       style="font-style:normal;font-variant:normal;font-weight:normal;font-stretch:normal;font-size:15px;line-height:125%;font-family:'Nimbus Sans L';-inkscape-font-specification:Sans;letter-spacing:0px;word-spacing:0px;fill:#000000;fill-opacity:1;stroke:none;stroke-width:1px;stroke-linecap:butt;stroke-linejoin:miter;stroke-opacity:1"
       x="421.60193"
       y="102.16773"
       id="text5397"
       sodipodi:linespacing="125%"><tspan
         sodipodi:role="line"
         id="tspan5399"
         x="421.60193"
         y="102.16773">laser</tspan></text>
    <text
       xml:space="preserve"
       style="font-style:normal;font-variant:normal;font-weight:normal;font-stretch:normal;font-size:15px;line-height:125%;font-family:'Nimbus Sans L';-inkscape-font-specification:Sans;letter-spacing:0px;word-spacing:0px;fill:#000000;fill-opacity:1;stroke:none;stroke-width:1px;stroke-linecap:butt;stroke-linejoin:miter;stroke-opacity:1"
       x="612.93457"
       y="157.33282"
       id="text5397-6"
       sodipodi:linespacing="125%"><tspan
         sodipodi:role="line"
         id="tspan5399-2"
         x="612.93457"
         y="157.33282">laser</tspan></text>
    <text
       xml:space="preserve"
       style="font-style:normal;font-variant:normal;font-weight:normal;font-stretch:normal;font-size:15px;line-height:125%;font-family:'Nimbus Sans L';-inkscape-font-specification:Sans;letter-spacing:0px;word-spacing:0px;fill:#000000;fill-opacity:1;stroke:none;stroke-width:1px;stroke-linecap:butt;stroke-linejoin:miter;stroke-opacity:1"
       x="414.32968"
       y="158.79471"
       id="text5419"
       sodipodi:linespacing="125%"><tspan
         sodipodi:role="line"
         id="tspan5421"
         x="414.32968"
         y="158.79471">hiter prehod</tspan></text>
    <text
       xml:space="preserve"
       style="font-style:normal;font-variant:normal;font-weight:normal;font-stretch:normal;font-size:15px;line-height:125%;font-family:'Nimbus Sans L';-inkscape-font-specification:Sans;letter-spacing:0px;word-spacing:0px;fill:#000000;fill-opacity:1;stroke:none;stroke-width:1px;stroke-linecap:butt;stroke-linejoin:miter;stroke-opacity:1"
       x="606.00983"
       y="99.377205"
       id="text5419-9"
       sodipodi:linespacing="125%"><tspan
         sodipodi:role="line"
         id="tspan5421-1"
         x="606.00983"
         y="99.377205">hiter prehod</tspan></text>
  </g>
</svg>
