<?xml version="1.0" encoding="UTF-8" standalone="no"?>
<!-- Created with Inkscape (http://www.inkscape.org/) -->

<svg
   xmlns:dc="http://purl.org/dc/elements/1.1/"
   xmlns:cc="http://creativecommons.org/ns#"
   xmlns:rdf="http://www.w3.org/1999/02/22-rdf-syntax-ns#"
   xmlns:svg="http://www.w3.org/2000/svg"
   xmlns="http://www.w3.org/2000/svg"
   xmlns:sodipodi="http://sodipodi.sourceforge.net/DTD/sodipodi-0.dtd"
   xmlns:inkscape="http://www.inkscape.org/namespaces/inkscape"
   width="148.62024mm"
   height="43.299374mm"
   viewBox="0 0 526.60712 153.42298"
   id="svg6673"
   version="1.1"
   inkscape:version="0.92.3 (2405546, 2018-03-11)"
   sodipodi:docname="05_Trinivojski.svg">
  <defs
     id="defs6675">
    <marker
       style="overflow:visible"
       id="Arrow1Mstart-17-6-5"
       refX="0"
       refY="0"
       orient="auto"
       inkscape:stockid="Arrow1Mstart">
      <path
         transform="matrix(0.4,0,0,0.4,4,0)"
         style="fill-rule:evenodd;stroke:#000000;stroke-width:1.00000003pt"
         d="M 0,0 5,-5 -12.5,0 5,5 Z"
         id="path4575-70-8-66"
         inkscape:connector-curvature="0" />
    </marker>
    <inkscape:path-effect
       is_visible="true"
       id="path-effect4091-59"
       effect="spiro" />
    <marker
       style="overflow:visible"
       id="Arrow1Mend-76-9"
       refX="0"
       refY="0"
       orient="auto"
       inkscape:stockid="Arrow1Mend">
      <path
         transform="matrix(-0.4,0,0,-0.4,-4,0)"
         style="fill-rule:evenodd;stroke:#000000;stroke-width:1.00000003pt"
         d="M 0,0 5,-5 -12.5,0 5,5 Z"
         id="path4578-4-5"
         inkscape:connector-curvature="0" />
    </marker>
    <inkscape:path-effect
       is_visible="true"
       id="path-effect4091-3"
       effect="spiro" />
    <marker
       style="overflow:visible"
       id="Arrow1Mstart-17-6"
       refX="0"
       refY="0"
       orient="auto"
       inkscape:stockid="Arrow1Mstart">
      <path
         transform="matrix(0.4,0,0,0.4,4,0)"
         style="fill-rule:evenodd;stroke:#000000;stroke-width:1.00000003pt"
         d="M 0,0 5,-5 -12.5,0 5,5 Z"
         id="path4575-70-8"
         inkscape:connector-curvature="0" />
    </marker>
    <inkscape:path-effect
       is_visible="true"
       id="path-effect4091-3-5"
       effect="spiro" />
    <marker
       style="overflow:visible"
       id="Arrow1Mend-76-9-6"
       refX="0"
       refY="0"
       orient="auto"
       inkscape:stockid="Arrow1Mend">
      <path
         transform="matrix(-0.4,0,0,-0.4,-4,0)"
         style="fill-rule:evenodd;stroke:#000000;stroke-width:1.00000003pt"
         d="M 0,0 5,-5 -12.5,0 5,5 Z"
         id="path4578-4-5-2"
         inkscape:connector-curvature="0" />
    </marker>
    <inkscape:path-effect
       is_visible="true"
       id="path-effect4091-3-9"
       effect="spiro" />
    <marker
       style="overflow:visible"
       id="Arrow1Mend-76-9-2"
       refX="0"
       refY="0"
       orient="auto"
       inkscape:stockid="Arrow1Mend">
      <path
         transform="matrix(-0.4,0,0,-0.4,-4,0)"
         style="fill-rule:evenodd;stroke:#000000;stroke-width:1.00000003pt"
         d="M 0,0 5,-5 -12.5,0 5,5 Z"
         id="path4578-4-5-0"
         inkscape:connector-curvature="0" />
    </marker>
    <inkscape:path-effect
       is_visible="true"
       id="path-effect4091-3-6"
       effect="spiro" />
    <marker
       style="overflow:visible"
       id="Arrow1Mstart-17-6-5-1"
       refX="0"
       refY="0"
       orient="auto"
       inkscape:stockid="Arrow1Mstart">
      <path
         transform="matrix(0.4,0,0,0.4,4,0)"
         style="fill-rule:evenodd;stroke:#000000;stroke-width:1.00000003pt"
         d="M 0,0 5,-5 -12.5,0 5,5 Z"
         id="path4575-70-8-66-8"
         inkscape:connector-curvature="0" />
    </marker>
    <inkscape:path-effect
       is_visible="true"
       id="path-effect4091-59-7"
       effect="spiro" />
    <marker
       style="overflow:visible"
       id="Arrow1Mstart-17-6-5-1-3"
       refX="0"
       refY="0"
       orient="auto"
       inkscape:stockid="Arrow1Mstart">
      <path
         transform="matrix(0.4,0,0,0.4,4,0)"
         style="fill-rule:evenodd;stroke:#000000;stroke-width:1.00000003pt"
         d="M 0,0 5,-5 -12.5,0 5,5 Z"
         id="path4575-70-8-66-8-7"
         inkscape:connector-curvature="0" />
    </marker>
    <inkscape:path-effect
       is_visible="true"
       id="path-effect4091-59-7-59"
       effect="spiro" />
    <marker
       style="overflow:visible"
       id="Arrow1Mstart-17-6-5-1-5"
       refX="0"
       refY="0"
       orient="auto"
       inkscape:stockid="Arrow1Mstart">
      <path
         transform="matrix(0.4,0,0,0.4,4,0)"
         style="fill-rule:evenodd;stroke:#000000;stroke-width:1.00000003pt"
         d="M 0,0 5,-5 -12.5,0 5,5 Z"
         id="path4575-70-8-66-8-0"
         inkscape:connector-curvature="0" />
    </marker>
    <inkscape:path-effect
       is_visible="true"
       id="path-effect4091-59-7-3"
       effect="spiro" />
    <marker
       style="overflow:visible"
       id="Arrow1Mend-76-9-6-6"
       refX="0"
       refY="0"
       orient="auto"
       inkscape:stockid="Arrow1Mend">
      <path
         transform="matrix(-0.4,0,0,-0.4,-4,0)"
         style="fill-rule:evenodd;stroke:#000000;stroke-width:1.00000003pt"
         d="M 0,0 5,-5 -12.5,0 5,5 Z"
         id="path4578-4-5-2-1"
         inkscape:connector-curvature="0" />
    </marker>
    <inkscape:path-effect
       is_visible="true"
       id="path-effect4091-3-9-0"
       effect="spiro" />
    <marker
       style="overflow:visible"
       id="Arrow1Mend-76-9-6-6-6"
       refX="0"
       refY="0"
       orient="auto"
       inkscape:stockid="Arrow1Mend">
      <path
         transform="matrix(-0.4,0,0,-0.4,-4,0)"
         style="fill-rule:evenodd;stroke:#000000;stroke-width:1.00000003pt"
         d="M 0,0 5,-5 -12.5,0 5,5 Z"
         id="path4578-4-5-2-1-8"
         inkscape:connector-curvature="0" />
    </marker>
    <inkscape:path-effect
       is_visible="true"
       id="path-effect4091-3-9-0-8"
       effect="spiro" />
    <marker
       style="overflow:visible"
       id="Arrow1Mstart-17-6-5-9"
       refX="0"
       refY="0"
       orient="auto"
       inkscape:stockid="Arrow1Mstart">
      <path
         transform="matrix(0.4,0,0,0.4,4,0)"
         style="fill-rule:evenodd;stroke:#000000;stroke-width:1.00000003pt"
         d="M 0,0 5,-5 -12.5,0 5,5 Z"
         id="path4575-70-8-66-2"
         inkscape:connector-curvature="0" />
    </marker>
    <inkscape:path-effect
       is_visible="true"
       id="path-effect4091-59-6"
       effect="spiro" />
    <marker
       style="overflow:visible"
       id="Arrow1Mstart-17-6-50"
       refX="0"
       refY="0"
       orient="auto"
       inkscape:stockid="Arrow1Mstart">
      <path
         transform="matrix(0.4,0,0,0.4,4,0)"
         style="fill-rule:evenodd;stroke:#000000;stroke-width:1.00000003pt"
         d="M 0,0 5,-5 -12.5,0 5,5 Z"
         id="path4575-70-8-4"
         inkscape:connector-curvature="0" />
    </marker>
    <inkscape:path-effect
       is_visible="true"
       id="path-effect4091-3-5-8"
       effect="spiro" />
    <marker
       style="overflow:visible"
       id="Arrow1Mstart-17-6-50-1"
       refX="0"
       refY="0"
       orient="auto"
       inkscape:stockid="Arrow1Mstart">
      <path
         transform="matrix(0.4,0,0,0.4,4,0)"
         style="fill-rule:evenodd;stroke:#000000;stroke-width:1.00000003pt"
         d="M 0,0 5,-5 -12.5,0 5,5 Z"
         id="path4575-70-8-4-0"
         inkscape:connector-curvature="0" />
    </marker>
    <inkscape:path-effect
       is_visible="true"
       id="path-effect4091-3-5-8-6"
       effect="spiro" />
  </defs>
  <sodipodi:namedview
     id="base"
     pagecolor="#ffffff"
     bordercolor="#666666"
     borderopacity="1.0"
     inkscape:pageopacity="0.0"
     inkscape:pageshadow="2"
     inkscape:zoom="1.2392701"
     inkscape:cx="267.78582"
     inkscape:cy="56.442262"
     inkscape:document-units="px"
     inkscape:current-layer="layer1"
     showgrid="false"
     fit-margin-top="0"
     fit-margin-left="0"
     fit-margin-right="0"
     fit-margin-bottom="0"
     inkscape:window-width="1920"
     inkscape:window-height="1016"
     inkscape:window-x="0"
     inkscape:window-y="0"
     inkscape:window-maximized="1" />
  <metadata
     id="metadata6678">
    <rdf:RDF>
      <cc:Work
         rdf:about="">
        <dc:format>image/svg+xml</dc:format>
        <dc:type
           rdf:resource="http://purl.org/dc/dcmitype/StillImage" />
        <dc:title></dc:title>
      </cc:Work>
    </rdf:RDF>
  </metadata>
  <g
     inkscape:label="Layer 1"
     inkscape:groupmode="layer"
     id="layer1"
     transform="translate(139.425,-503.76194)">
    <path
       sodipodi:nodetypes="cc"
       inkscape:connector-curvature="0"
       inkscape:original-d="m -105.19917,515.25639 0.17857,133.71295"
       inkscape:path-effect="#path-effect4091-59"
       id="path4089-22"
       d="m -105.19917,515.25639 0.17857,133.71295"
       style="fill:none;stroke:#000000;stroke-width:1.40625;stroke-linecap:butt;stroke-linejoin:miter;stroke-miterlimit:4;stroke-dasharray:none;stroke-opacity:1;marker-start:url(#Arrow1Mstart-17-6-5);marker-end:none" />
    <path
       sodipodi:nodetypes="cc"
       inkscape:connector-curvature="0"
       inkscape:original-d="m -56.644441,513.558 v 46.80803"
       inkscape:path-effect="#path-effect4091-3"
       id="path4089-3"
       d="m -56.644441,513.558 v 46.80803"
       style="fill:none;stroke:#000000;stroke-width:1.40625;stroke-linecap:butt;stroke-linejoin:miter;stroke-miterlimit:4;stroke-dasharray:none;stroke-opacity:1;marker-start:none;marker-end:url(#Arrow1Mend-76-9)" />
    <path
       sodipodi:nodetypes="cc"
       inkscape:connector-curvature="0"
       inkscape:original-d="m -50.644441,515.793 v 46.80803"
       inkscape:path-effect="#path-effect4091-3-5"
       id="path4089-3-6"
       d="m -50.644441,515.793 v 46.80803"
       style="fill:none;stroke:#000000;stroke-width:1.40625;stroke-linecap:butt;stroke-linejoin:miter;stroke-miterlimit:4;stroke-dasharray:none;stroke-opacity:1;marker-start:url(#Arrow1Mstart-17-6);marker-end:none" />
    <path
       sodipodi:nodetypes="cc"
       inkscape:connector-curvature="0"
       id="path4638"
       d="M -115.05,649.02991 H 8.4411493"
       style="fill:none;fill-rule:evenodd;stroke:#000000;stroke-width:2.5;stroke-linecap:butt;stroke-linejoin:miter;stroke-miterlimit:4;stroke-dasharray:none;stroke-opacity:1" />
    <path
       sodipodi:nodetypes="cc"
       inkscape:connector-curvature="0"
       id="path4638-3"
       d="M -115.05,512.60984 H 8.4411593"
       style="fill:none;fill-rule:evenodd;stroke:#000000;stroke-width:2.5;stroke-linecap:butt;stroke-linejoin:miter;stroke-miterlimit:4;stroke-dasharray:none;stroke-opacity:1" />
    <path
       sodipodi:nodetypes="cc"
       inkscape:connector-curvature="0"
       inkscape:original-d="m 132.30198,563.92113 v 81.1188"
       inkscape:path-effect="#path-effect4091-3-9"
       id="path4089-3-2"
       d="m 132.30198,563.92113 v 81.1188"
       style="fill:none;stroke:#000000;stroke-width:1.40625;stroke-linecap:butt;stroke-linejoin:miter;stroke-miterlimit:4;stroke-dasharray:none;stroke-opacity:1;marker-start:none;marker-end:url(#Arrow1Mend-76-9-6)" />
    <path
       inkscape:connector-curvature="0"
       style="opacity:1;fill:none;fill-opacity:0.98809521;fill-rule:nonzero;stroke:#d40000;stroke-width:1.62500024;stroke-linecap:butt;stroke-linejoin:round;stroke-miterlimit:4;stroke-dasharray:none;stroke-dashoffset:0;stroke-opacity:1"
       d="m 133.18211,512.2749 c 0.47599,0.16955 0.95198,0.33911 1.41937,0.50866 0.46739,0.16955 0.92618,0.3391 1.36808,0.50866 0.4419,0.16955 0.86689,0.3391 1.26733,0.50865 0.40043,0.16956 0.77628,0.33911 1.12078,0.50866 0.3445,0.16955 0.65762,0.33911 0.93373,0.50866 0.2761,0.16955 0.51517,0.33911 0.7129,0.50866 0.19775,0.16955 0.35413,0.3391 0.46635,0.50866 0.11222,0.16955 0.18027,0.3391 0.20292,0.50865 0.0226,0.16956 -1.1e-4,0.33911 -0.0679,0.50866 -0.0678,0.16955 -0.18046,0.33911 -0.33615,0.50866 -0.15567,0.16955 -0.35431,0.33911 -0.59231,0.50866 -0.238,0.16955 -0.51535,0.3391 -0.82706,0.50866 -0.31172,0.16955 -0.65777,0.3391 -1.03193,0.50865 -0.37416,0.16956 -0.7764,0.33911 -1.19948,0.50866 -0.42308,0.16955 -0.86698,0.33911 -1.3237,0.50866 -0.45672,0.16955 -0.92623,0.33911 -1.40006,0.50866 -0.47385,0.16955 -0.95199,0.3391 -1.42584,0.50866 -0.47384,0.16955 -0.94335,0.3391 -1.40007,0.50865 -0.45671,0.16956 -0.90061,0.33911 -1.32369,0.50866 -0.42309,0.16955 -0.82533,0.33911 -1.19949,0.50866 -0.37415,0.16955 -0.72021,0.33911 -1.03193,0.50866 -0.3117,0.16955 -0.58906,0.3391 -0.82706,0.50866 -0.23799,0.16955 -0.43662,0.3391 -0.59231,0.50865 -0.15568,0.16956 -0.26841,0.33911 -0.33615,0.50866 -0.0678,0.16955 -0.0905,0.33911 -0.0679,0.50866 0.0226,0.16955 0.0907,0.33911 0.20292,0.50866 0.11221,0.16955 0.26861,0.3391 0.46634,0.50866 0.19774,0.16955 0.43682,0.3391 0.71292,0.50865 0.27611,0.16956 0.58922,0.33911 0.93372,0.50866 0.34449,0.16955 0.72035,0.33911 1.12078,0.50866 0.40043,0.16955 0.82543,0.33911 1.26733,0.50866 0.4419,0.16955 0.90068,0.3391 1.36808,0.50866 0.46739,0.16955 0.94338,0.3391 1.41937,0.50865 0.476,0.16956 0.95198,0.33911 1.41938,0.50866 0.46739,0.16955 0.92618,0.33911 1.36808,0.50866 0.44189,0.16955 0.86689,0.33911 1.26732,0.50866 0.40044,0.16955 0.77629,0.3391 1.12079,0.50866 0.34449,0.16955 0.65762,0.3391 0.93372,0.50865 0.27611,0.16956 0.51518,0.33911 0.71292,0.50866 0.19773,0.16955 0.35412,0.33911 0.46634,0.50866 0.11222,0.16955 0.18027,0.33911 0.20291,0.50866 0.0226,0.16955 -9e-5,0.3391 -0.0679,0.50866 -0.0678,0.16955 -0.18046,0.3391 -0.33615,0.50865 -0.15567,0.16956 -0.35431,0.33911 -0.59231,0.50866 -0.23799,0.16955 -0.51534,0.33911 -0.82706,0.50866 -0.31171,0.16955 -0.65776,0.33911 -1.03192,0.50866 -0.37416,0.16955 -0.77641,0.33911 -1.19949,0.50866 -0.42308,0.16955 -0.86698,0.3391 -1.3237,0.50866 -0.45672,0.16955 -0.92623,0.3391 -1.40006,0.50865 -0.47384,0.16956 -0.95199,0.33911 -1.42583,0.50866 -0.47385,0.16955 -0.94336,0.33911 -1.40008,0.50866 -0.45671,0.16955 -0.9006,0.3391 -1.32369,0.50866 -0.42309,0.16955 -0.82533,0.3391 -1.19949,0.50865 -0.37415,0.16956 -0.72021,0.33911 -1.03192,0.50866 -0.31171,0.16955 -0.58907,0.33911 -0.82707,0.50866 -0.23799,0.16955 -0.43662,0.3391 -0.59231,0.50866 -0.15568,0.16955 -0.2684,0.3391 -0.33615,0.50865 -0.0678,0.16956 -0.0905,0.33911 -0.0679,0.50866 0.0226,0.16955 0.0907,0.33911 0.20292,0.50866 0.11222,0.16955 0.26861,0.33911 0.46634,0.50866 0.19774,0.16956 0.43682,0.33911 0.71292,0.50866 0.27611,0.16955 0.58923,0.33911 0.93372,0.50866 0.34449,0.16955 0.72035,0.3391 1.12078,0.50866 0.40043,0.16955 0.82543,0.3391 1.26734,0.50865 0.44189,0.16956 0.90067,0.33911 1.36807,0.50866 0.46739,0.16955 0.94338,0.33911 1.41937,0.50866 0.476,0.16955 0.95199,0.3391 1.41939,0.50866 0.46739,0.16955 0.92617,0.3391 1.36807,0.50865 0.4419,0.16956 0.8669,0.33911 1.26733,0.50866 0.40043,0.16955 0.77628,0.33911 1.12078,0.50866 0.34449,0.16955 0.65762,0.3391 0.93372,0.50866 0.27611,0.16955 0.51518,0.3391 0.71292,0.50865 0.19773,0.16956 0.35412,0.33911 0.46634,0.50866 0.11222,0.16955 0.18027,0.33911 0.20291,0.50866 0.0226,0.16955 -9e-5,0.3391 -0.0679,0.50866 -0.0678,0.16955 -0.18047,0.3391 -0.33615,0.50866 -0.15568,0.16955 -0.35432,0.33911 -0.59232,0.50866 -0.23799,0.16955 -0.51534,0.3391 -0.82706,0.50866 -0.31171,0.16955 -0.65776,0.3391 -1.03192,0.50865 -0.37416,0.16956 -0.77641,0.33911 -1.19949,0.50866 -0.42308,0.16955 -0.86698,0.33911 -1.3237,0.50866 -0.45671,0.16955 -0.92622,0.3391 -1.40006,0.50866 -0.47384,0.16955 -0.95199,0.3391 -1.42583,0.50865 -0.47385,0.16956 -0.94336,0.33911 -1.40007,0.50866 -0.45671,0.16955 -0.90061,0.33911 -1.32369,0.50866 -0.42309,0.16955 -0.82534,0.3391 -1.1995,0.50866 -0.37415,0.16955 -0.72021,0.3391 -1.03192,0.50865 -0.31171,0.16956 -0.58907,0.33911 -0.82706,0.50866 -0.238,0.16955 -0.43663,0.33911 -0.59231,0.50866 -0.15569,0.16955 -0.26841,0.3391 -0.33616,0.50866 -0.0678,0.16955 -0.0905,0.3391 -0.0679,0.50865 0.0226,0.16956 0.0907,0.33911 0.20291,0.50866 0.11222,0.16955 0.26861,0.33912 0.46634,0.50867 0.19775,0.16955 0.43682,0.3391 0.71292,0.50866 0.27611,0.16955 0.58923,0.3391 0.93372,0.50865 0.3445,0.16956 0.72036,0.33911 1.12079,0.50866 0.40042,0.16955 0.82542,0.33911 1.26733,0.50866 0.44189,0.16955 0.90067,0.3391 1.36807,0.50866 0.46739,0.16955 0.94339,0.3391 1.41938,0.50865"
       title="sin(x)"
       id="path5906-4" />
    <polyline
       transform="matrix(0.16437461,0,0,-0.21205816,106.99583,574.79799)"
       style="fill:none;stroke:#000000;stroke-width:13.39044857;stroke-miterlimit:4;stroke-dasharray:none;stroke-opacity:1"
       id="polyline194-4-5"
       points="74.1,56.2125 409.608,56.2125 " />
    <path
       sodipodi:nodetypes="cc"
       inkscape:connector-curvature="0"
       inkscape:original-d="m 94.175823,515.09889 0.17857,133.05065"
       inkscape:path-effect="#path-effect4091-59-7"
       id="path4089-22-9"
       d="m 94.175823,515.09889 0.17857,133.05065"
       style="fill:none;stroke:#000000;stroke-width:1.40625;stroke-linecap:butt;stroke-linejoin:miter;stroke-miterlimit:4;stroke-dasharray:none;stroke-opacity:1;marker-start:url(#Arrow1Mstart-17-6-5-1);marker-end:none" />
    <path
       sodipodi:nodetypes="cc"
       inkscape:connector-curvature="0"
       id="path4638-7"
       d="M 74.324993,648.87241 H 174.23498"
       style="fill:none;fill-rule:evenodd;stroke:#000000;stroke-width:2.5;stroke-linecap:butt;stroke-linejoin:miter;stroke-miterlimit:4;stroke-dasharray:none;stroke-opacity:1" />
    <path
       sodipodi:nodetypes="cc"
       inkscape:connector-curvature="0"
       id="path4638-3-3"
       d="M 74.324993,512.45234 H 174.23499"
       style="fill:none;fill-rule:evenodd;stroke:#000000;stroke-width:2.5;stroke-linecap:butt;stroke-linejoin:miter;stroke-miterlimit:4;stroke-dasharray:none;stroke-opacity:1" />
    <path
       sodipodi:nodetypes="cc"
       inkscape:connector-curvature="0"
       inkscape:original-d="m -96.320151,646.22021 0.17857,-133.71297"
       inkscape:path-effect="#path-effect4091-59-6"
       id="path4089-22-6"
       d="m -96.320151,646.22021 0.17857,-133.71297"
       style="fill:none;stroke:#000000;stroke-width:1.40625;stroke-linecap:butt;stroke-linejoin:miter;stroke-miterlimit:4;stroke-dasharray:none;stroke-opacity:1;marker-start:url(#Arrow1Mstart-17-6-5-9);marker-end:none" />
    <path
       sodipodi:nodetypes="cc"
       inkscape:connector-curvature="0"
       inkscape:original-d="M -11.2385,560.40642 V 513.59838"
       inkscape:path-effect="#path-effect4091-3-5-8"
       id="path4089-3-6-7"
       d="M -11.2385,560.40642 V 513.59838"
       style="fill:none;stroke:#000000;stroke-width:1.40625;stroke-linecap:butt;stroke-linejoin:miter;stroke-miterlimit:4;stroke-dasharray:none;stroke-opacity:1;marker-start:url(#Arrow1Mstart-17-6-50);marker-end:none" />
    <path
       sodipodi:nodetypes="cc"
       inkscape:connector-curvature="0"
       inkscape:original-d="m -32.432231,647.14157 c 0,28.1479 0,-83.23476 0,-83.23476"
       inkscape:path-effect="#path-effect4091-3-5-8-6"
       id="path4089-3-6-7-1"
       d="M -32.432231,647.14157 V 563.90681"
       style="fill:none;stroke:#000000;stroke-width:1.40625;stroke-linecap:butt;stroke-linejoin:miter;stroke-miterlimit:4;stroke-dasharray:none;stroke-opacity:1;marker-start:url(#Arrow1Mstart-17-6-50-1);marker-end:none" />
    <path
       style="fill:none;fill-rule:evenodd;stroke:#000000;stroke-width:2.5;stroke-linecap:butt;stroke-linejoin:miter;stroke-miterlimit:4;stroke-dasharray:none;stroke-opacity:1"
       d="M -67.091692,563.35335 H 10.626185"
       id="path7651"
       inkscape:connector-curvature="0" />
    <path
       inkscape:connector-curvature="0"
       style="opacity:1;fill:none;fill-opacity:0.98809521;fill-rule:nonzero;stroke:#d40000;stroke-width:1.62500024;stroke-linecap:butt;stroke-linejoin:round;stroke-miterlimit:4;stroke-dasharray:none;stroke-dashoffset:0;stroke-opacity:1"
       d="m 332.40831,558.87389 c 0.47599,0.16956 0.95198,0.33911 1.41937,0.50866 0.46739,0.16956 0.92618,0.33911 1.36808,0.50866 0.4419,0.16955 0.86689,0.33911 1.26733,0.50866 0.40043,0.16955 0.77628,0.3391 1.12078,0.50866 0.3445,0.16955 0.65762,0.3391 0.93373,0.50865 0.2761,0.16956 0.51517,0.33911 0.7129,0.50866 0.19775,0.16956 0.35413,0.33911 0.46635,0.50866 0.11222,0.16955 0.18027,0.33911 0.20292,0.50866 0.0226,0.16955 -1.1e-4,0.33911 -0.0679,0.50866 -0.0678,0.16955 -0.18046,0.3391 -0.33615,0.50866 -0.15567,0.16955 -0.35431,0.3391 -0.59231,0.50865 -0.238,0.16956 -0.51535,0.33911 -0.82706,0.50866 -0.31172,0.16955 -0.65777,0.33911 -1.03193,0.50866 -0.37416,0.16955 -0.7764,0.33911 -1.19948,0.50866 -0.42308,0.16955 -0.86698,0.3391 -1.3237,0.50866 -0.45672,0.16955 -0.92623,0.3391 -1.40006,0.50865 -0.47385,0.16956 -0.95199,0.33911 -1.42584,0.50866 -0.47384,0.16955 -0.94335,0.33911 -1.40007,0.50866 -0.45671,0.16955 -0.90061,0.33911 -1.32369,0.50866 -0.42309,0.16955 -0.82533,0.3391 -1.19949,0.50866 -0.37415,0.16955 -0.72021,0.3391 -1.03193,0.50865 -0.3117,0.16956 -0.58906,0.33911 -0.82706,0.50866 -0.23799,0.16955 -0.43662,0.33911 -0.59231,0.50866 -0.15568,0.16955 -0.26841,0.33911 -0.33615,0.50866 -0.0678,0.16955 -0.0905,0.3391 -0.0679,0.50866 0.0226,0.16955 0.0907,0.3391 0.20292,0.50865 0.11221,0.16956 0.26861,0.33911 0.46634,0.50866 0.19774,0.16955 0.43682,0.33911 0.71292,0.50866 0.27611,0.16955 0.58922,0.33911 0.93372,0.50866 0.34449,0.16955 0.72035,0.3391 1.12078,0.50866 0.40043,0.16955 0.82543,0.3391 1.26733,0.50865 0.4419,0.16956 0.90068,0.33911 1.36808,0.50866 0.46739,0.16955 0.94338,0.33911 1.41937,0.50866 0.476,0.16955 0.95198,0.33911 1.41938,0.50866 0.46739,0.16955 0.92618,0.3391 1.36808,0.50866 0.44189,0.16955 0.86689,0.3391 1.26732,0.50865 0.40044,0.16956 0.77629,0.33911 1.12079,0.50866 0.34449,0.16956 0.65762,0.33911 0.93372,0.50866 0.27611,0.16955 0.51518,0.33911 0.71292,0.50866 0.19773,0.16955 0.35412,0.3391 0.46634,0.50866 0.11222,0.16955 0.18027,0.3391 0.20291,0.50865 0.0226,0.16956 -9e-5,0.33911 -0.0679,0.50866 -0.0678,0.16956 -0.18046,0.33911 -0.33615,0.50866 -0.15567,0.16955 -0.35431,0.33911 -0.59231,0.50866 -0.23799,0.16955 -0.51534,0.3391 -0.82706,0.50866 -0.31171,0.16955 -0.65776,0.3391 -1.03192,0.50865 -0.37416,0.16956 -0.77641,0.33911 -1.19949,0.50866 -0.42308,0.16956 -0.86698,0.33911 -1.3237,0.50866 -0.45672,0.16955 -0.92623,0.33911 -1.40006,0.50866 -0.47384,0.16955 -0.95199,0.3391 -1.42583,0.50866 -0.47385,0.16955 -0.94336,0.3391 -1.40008,0.50865 -0.45671,0.16956 -0.9006,0.33911 -1.32369,0.50866 -0.42309,0.16955 -0.82533,0.33911 -1.19949,0.50866 -0.37415,0.16955 -0.72021,0.3391 -1.03192,0.50866 -0.31171,0.16955 -0.58907,0.33911 -0.82707,0.50866 -0.23799,0.16955 -0.43662,0.3391 -0.59231,0.50866 -0.15568,0.16955 -0.2684,0.3391 -0.33615,0.50865 -0.0678,0.16956 -0.0905,0.33911 -0.0679,0.50866 0.0226,0.16955 0.0907,0.33911 0.20292,0.50866 0.11222,0.16955 0.26861,0.33911 0.46634,0.50866 0.19774,0.16956 0.43682,0.33911 0.71292,0.50866 0.27611,0.16955 0.58923,0.33911 0.93372,0.50866 0.34449,0.16955 0.72035,0.3391 1.12078,0.50866 0.40043,0.16955 0.82543,0.3391 1.26734,0.50865 0.44189,0.16956 0.90067,0.33911 1.36807,0.50866 0.46739,0.16955 0.94338,0.33911 1.41937,0.50866 0.476,0.16955 0.95199,0.3391 1.41939,0.50866 0.46739,0.16955 0.92617,0.3391 1.36807,0.50865 0.4419,0.16956 0.8669,0.33911 1.26733,0.50866 0.40043,0.16955 0.77628,0.33911 1.12078,0.50866 0.34449,0.16955 0.65762,0.3391 0.93372,0.50866 0.27611,0.16955 0.51518,0.3391 0.71292,0.50865 0.19773,0.16956 0.35412,0.33911 0.46634,0.50866 0.11222,0.16955 0.18027,0.33911 0.20291,0.50866 0.0226,0.16955 -9e-5,0.3391 -0.0679,0.50866 -0.0678,0.16955 -0.18047,0.3391 -0.33615,0.50866 -0.15568,0.16955 -0.35432,0.33911 -0.59232,0.50866 -0.23799,0.16955 -0.51534,0.3391 -0.82706,0.50866 -0.31171,0.16955 -0.65776,0.3391 -1.03192,0.50865 -0.37416,0.16956 -0.77641,0.33911 -1.19949,0.50866 -0.42308,0.16955 -0.86698,0.33911 -1.3237,0.50866 -0.45671,0.16955 -0.92622,0.3391 -1.40006,0.50866 -0.47384,0.16955 -0.95199,0.3391 -1.42583,0.50865 -0.47385,0.16956 -0.94336,0.33911 -1.40007,0.50866 -0.45671,0.16955 -0.90061,0.33911 -1.32369,0.50866 -0.42309,0.16955 -0.82534,0.3391 -1.1995,0.50866 -0.37415,0.16955 -0.72021,0.3391 -1.03192,0.50865 -0.31171,0.16956 -0.58907,0.33911 -0.82706,0.50866 -0.238,0.16955 -0.43663,0.33911 -0.59231,0.50866 -0.15569,0.16955 -0.26841,0.3391 -0.33616,0.50866 -0.0678,0.16955 -0.0905,0.3391 -0.0679,0.50865 0.0226,0.16956 0.0907,0.33911 0.20291,0.50866 0.11222,0.16955 0.26861,0.33912 0.46634,0.50867 0.19775,0.16955 0.43682,0.3391 0.71292,0.50866 0.27611,0.16955 0.58923,0.3391 0.93372,0.50865 0.3445,0.16956 0.72036,0.33911 1.12079,0.50866 0.40042,0.16955 0.82542,0.33911 1.26733,0.50866 0.44189,0.16955 0.90067,0.3391 1.36807,0.50866 0.46739,0.16955 0.94339,0.3391 1.41938,0.50865"
       title="sin(x)"
       id="path5906-4-2" />
    <polyline
       transform="matrix(0.23844442,0,0,0.30761493,280.13838,591.24141)"
       style="fill:none;stroke:#000000;stroke-width:9.2308712;stroke-miterlimit:4;stroke-dasharray:none;stroke-opacity:1"
       id="polyline194-4-5-6"
       points="74.1,56.2125 409.608,56.2125 " />
    <path
       sodipodi:nodetypes="cc"
       inkscape:connector-curvature="0"
       inkscape:original-d="m 269.60588,514.44721 0.17857,132.38834"
       inkscape:path-effect="#path-effect4091-59-7-3"
       id="path4089-22-9-1"
       d="m 269.60588,514.44721 0.17857,132.38834"
       style="fill:none;stroke:#000000;stroke-width:1.40625;stroke-linecap:butt;stroke-linejoin:miter;stroke-miterlimit:4;stroke-dasharray:none;stroke-opacity:1;marker-start:url(#Arrow1Mstart-17-6-5-1-5);marker-end:none" />
    <path
       sodipodi:nodetypes="cc"
       inkscape:connector-curvature="0"
       id="path4638-7-5"
       d="M 249.75505,648.22073 H 377.4818"
       style="fill:none;fill-rule:evenodd;stroke:#000000;stroke-width:2.5;stroke-linecap:butt;stroke-linejoin:miter;stroke-miterlimit:4;stroke-dasharray:none;stroke-opacity:1" />
    <path
       sodipodi:nodetypes="cc"
       inkscape:connector-curvature="0"
       id="path4638-3-3-5"
       d="M 249.75505,511.80066 H 376.55659"
       style="fill:none;fill-rule:evenodd;stroke:#000000;stroke-width:2.5;stroke-linecap:butt;stroke-linejoin:miter;stroke-miterlimit:4;stroke-dasharray:none;stroke-opacity:1" />
    <path
       sodipodi:nodetypes="cc"
       inkscape:connector-curvature="0"
       inkscape:original-d="m 303.80711,607.77929 v 38.59587"
       inkscape:path-effect="#path-effect4091-3-9-0"
       id="path4089-3-2-3"
       d="m 303.80711,607.77929 v 38.59587"
       style="fill:none;stroke:#000000;stroke-width:1.40625;stroke-linecap:butt;stroke-linejoin:miter;stroke-miterlimit:4;stroke-dasharray:none;stroke-opacity:1;marker-start:none;marker-end:url(#Arrow1Mend-76-9-6-6)" />
    <polyline
       transform="matrix(0.23844442,0,0,0.30761493,280.13838,541.24141)"
       style="fill:none;stroke:#000000;stroke-width:9.2308712;stroke-miterlimit:4;stroke-dasharray:none;stroke-opacity:1"
       id="polyline194-4-5-6-4"
       points="74.1,56.2125 409.608,56.2125 " />
    <path
       sodipodi:nodetypes="cc"
       inkscape:connector-curvature="0"
       inkscape:original-d="m 303.80711,512.2749 v 42.56969"
       inkscape:path-effect="#path-effect4091-3-9-0-8"
       id="path4089-3-2-3-3"
       d="m 303.80711,512.2749 v 42.56969"
       style="fill:none;stroke:#000000;stroke-width:1.40625;stroke-linecap:butt;stroke-linejoin:miter;stroke-miterlimit:4;stroke-dasharray:none;stroke-opacity:1;marker-start:none;marker-end:url(#Arrow1Mend-76-9-6-6-6)" />
    <g
       id="g561">
      <g
         id="g1330">
        <text
           id="text6935"
           y="517.70886"
           x="-140.017"
           style="font-style:normal;font-variant:normal;font-weight:normal;font-stretch:normal;line-height:0%;font-family:'Nimbus Sans L';-inkscape-font-specification:Sans;letter-spacing:0px;word-spacing:0px;fill:#000000;fill-opacity:1;stroke:none"
           xml:space="preserve"><tspan
             style="font-style:normal;font-variant:normal;font-weight:normal;font-stretch:normal;font-size:16px;line-height:1.25;font-family:'Nimbus Roman No9 L';-inkscape-font-specification:'Nimbus Roman No9 L'"
             y="517.70886"
             x="-140.017"
             id="tspan6937"
             sodipodi:role="line">a)</tspan></text>
        <text
           id="text4450"
           y="518.3772"
           x="10.461691"
           style="font-style:normal;font-variant:normal;font-weight:normal;font-stretch:normal;line-height:0%;font-family:'Nimbus Sans L';-inkscape-font-specification:Sans;letter-spacing:0px;word-spacing:0px;fill:#000000;fill-opacity:1;stroke:none;stroke-width:1px;stroke-linecap:butt;stroke-linejoin:miter;stroke-opacity:1"
           xml:space="preserve"><tspan
             style="font-size:15.00000191px;line-height:1.25"
             y="518.3772"
             x="10.461691"
             id="tspan4452"
             sodipodi:role="line">$E_2$</tspan></text>
        <text
           id="text4450-6"
           y="652.6731"
           x="10.086657"
           style="font-style:normal;font-variant:normal;font-weight:normal;font-stretch:normal;line-height:0%;font-family:'Nimbus Sans L';-inkscape-font-specification:Sans;letter-spacing:0px;word-spacing:0px;fill:#000000;fill-opacity:1;stroke:none;stroke-width:1px;stroke-linecap:butt;stroke-linejoin:miter;stroke-opacity:1"
           xml:space="preserve"><tspan
             style="font-size:15.00000191px;line-height:1.25"
             y="652.6731"
             x="10.086657"
             id="tspan4452-7"
             sodipodi:role="line">$E_0$</tspan></text>
        <text
           id="text4450-1"
           y="568.31598"
           x="10.086657"
           style="font-style:normal;font-variant:normal;font-weight:normal;font-stretch:normal;line-height:0%;font-family:'Nimbus Sans L';-inkscape-font-specification:Sans;letter-spacing:0px;word-spacing:0px;fill:#000000;fill-opacity:1;stroke:none;stroke-width:1px;stroke-linecap:butt;stroke-linejoin:miter;stroke-opacity:1"
           xml:space="preserve"><tspan
             style="font-size:15.00000191px;line-height:1.25"
             y="568.31598"
             x="10.086657"
             id="tspan4452-2"
             sodipodi:role="line">$E_1$</tspan></text>
        <text
           xml:space="preserve"
           style="font-style:normal;font-variant:normal;font-weight:normal;font-stretch:normal;line-height:0%;font-family:'Nimbus Sans L';-inkscape-font-specification:Sans;letter-spacing:0px;word-spacing:0px;fill:#000000;fill-opacity:1;stroke:none;stroke-width:1px;stroke-linecap:butt;stroke-linejoin:miter;stroke-opacity:1"
           x="-119.51664"
           y="586.74249"
           id="text4940"><tspan
             sodipodi:role="line"
             id="tspan4942"
             x="-119.51664"
             y="586.74249"
             style="font-size:15.00000191px;line-height:1.25">$r$</tspan></text>
        <text
           xml:space="preserve"
           style="font-style:normal;font-variant:normal;font-weight:normal;font-stretch:normal;line-height:0%;font-family:'Nimbus Sans L';-inkscape-font-specification:Sans;letter-spacing:0px;word-spacing:0px;fill:#000000;fill-opacity:1;stroke:none;stroke-width:1px;stroke-linecap:butt;stroke-linejoin:miter;stroke-opacity:1"
           x="-4.3078246"
           y="543.68878"
           id="text4940-4"><tspan
             sodipodi:role="line"
             id="tspan4942-9"
             x="-4.3078246"
             y="543.68878"
             style="font-size:15.00000191px;line-height:1.25">$A_{21}$</tspan></text>
        <text
           xml:space="preserve"
           style="font-style:normal;font-variant:normal;font-weight:normal;font-stretch:normal;line-height:0%;font-family:'Nimbus Sans L';-inkscape-font-specification:Sans;letter-spacing:0px;word-spacing:0px;fill:#000000;fill-opacity:1;stroke:none;stroke-width:1px;stroke-linecap:butt;stroke-linejoin:miter;stroke-opacity:1"
           x="-46.308933"
           y="543.70612"
           id="text4940-4-2"><tspan
             sodipodi:role="line"
             id="tspan4942-9-72"
             x="-46.308933"
             y="543.70612"
             style="font-size:15.00000191px;line-height:1.25">$B_{12}$</tspan></text>
        <text
           xml:space="preserve"
           style="font-style:normal;font-variant:normal;font-weight:normal;font-stretch:normal;line-height:0%;font-family:'Nimbus Sans L';-inkscape-font-specification:Sans;letter-spacing:0px;word-spacing:0px;fill:#000000;fill-opacity:1;stroke:none;stroke-width:1px;stroke-linecap:butt;stroke-linejoin:miter;stroke-opacity:1"
           x="-80.16954"
           y="543.70612"
           id="text4940-4-2-2"><tspan
             sodipodi:role="line"
             id="tspan4942-9-72-6"
             x="-80.16954"
             y="543.70612"
             style="font-size:15.00000191px;line-height:1.25">$B_{21}$</tspan></text>
        <text
           xml:space="preserve"
           style="font-style:normal;font-variant:normal;font-weight:normal;font-stretch:normal;line-height:0%;font-family:'Nimbus Sans L';-inkscape-font-specification:Sans;letter-spacing:0px;word-spacing:0px;fill:#000000;fill-opacity:1;stroke:none;stroke-width:1px;stroke-linecap:butt;stroke-linejoin:miter;stroke-opacity:1"
           x="-27.296499"
           y="607.28723"
           id="text4940-4-1-5"><tspan
             sodipodi:role="line"
             id="tspan4942-9-7-9"
             x="-27.296499"
             y="607.28723"
             style="font-size:15.00000191px;line-height:1.25">$A_{10}$</tspan></text>
        <text
           xml:space="preserve"
           style="font-style:normal;font-variant:normal;font-weight:normal;font-stretch:normal;line-height:0%;font-family:'Nimbus Sans L';-inkscape-font-specification:Sans;letter-spacing:0px;word-spacing:0px;fill:#000000;fill-opacity:1;stroke:none;stroke-width:1px;stroke-linecap:butt;stroke-linejoin:miter;stroke-opacity:1"
           x="-92.857437"
           y="587.32745"
           id="text4940-49"><tspan
             sodipodi:role="line"
             id="tspan4942-0"
             x="-92.857437"
             y="587.32745"
             style="font-size:15.00000191px;line-height:1.25">$A_{20}$</tspan></text>
      </g>
      <text
         xml:space="preserve"
         style="font-style:normal;font-variant:normal;font-weight:normal;font-stretch:normal;line-height:0%;font-family:'Nimbus Sans L';-inkscape-font-specification:Sans;letter-spacing:0px;word-spacing:0px;fill:#000000;fill-opacity:1;stroke:none"
         x="49.901993"
         y="517.52887"
         id="text6935-8"><tspan
           sodipodi:role="line"
           id="tspan6937-3"
           x="49.901993"
           y="517.52887"
           style="font-style:normal;font-variant:normal;font-weight:normal;font-stretch:normal;font-size:16px;line-height:1.25;font-family:'Nimbus Roman No9 L';-inkscape-font-specification:'Nimbus Roman No9 L'">b)</tspan></text>
      <text
         xml:space="preserve"
         style="font-style:normal;font-variant:normal;font-weight:normal;font-stretch:normal;line-height:0%;font-family:'Nimbus Sans L';-inkscape-font-specification:Sans;letter-spacing:0px;word-spacing:0px;fill:#000000;fill-opacity:1;stroke:none;stroke-width:1px;stroke-linecap:butt;stroke-linejoin:miter;stroke-opacity:1"
         x="176.83667"
         y="517.08704"
         id="text4450-5-2"><tspan
           sodipodi:role="line"
           id="tspan4452-3-9"
           x="176.83667"
           y="517.08704"
           style="font-size:15.00000191px;line-height:1.25">$|2\rangle$</tspan></text>
      <text
         xml:space="preserve"
         style="font-style:normal;font-variant:normal;font-weight:normal;font-stretch:normal;line-height:0%;font-family:'Nimbus Sans L';-inkscape-font-specification:Sans;letter-spacing:0px;word-spacing:0px;fill:#000000;fill-opacity:1;stroke:none;stroke-width:1px;stroke-linecap:butt;stroke-linejoin:miter;stroke-opacity:1"
         x="176.83667"
         y="567.84344"
         id="text4450-5-5-3"><tspan
           sodipodi:role="line"
           id="tspan4452-3-6-1"
           x="176.83667"
           y="567.84344"
           style="font-size:15.00000191px;line-height:1.25">$|1\rangle$</tspan></text>
      <text
         xml:space="preserve"
         style="font-style:normal;font-variant:normal;font-weight:normal;font-stretch:normal;line-height:0%;font-family:'Nimbus Sans L';-inkscape-font-specification:Sans;letter-spacing:0px;word-spacing:0px;fill:#000000;fill-opacity:1;stroke:none;stroke-width:1px;stroke-linecap:butt;stroke-linejoin:miter;stroke-opacity:1"
         x="176.83667"
         y="653.91492"
         id="text4450-5-5-2-9"><tspan
           sodipodi:role="line"
           id="tspan4452-3-6-9-4"
           x="176.83667"
           y="653.91492"
           style="font-size:15.00000191px;line-height:1.25">$|0\rangle$</tspan></text>
      <text
         transform="rotate(-90)"
         id="text5357-7"
         y="87.232094"
         x="-606.11169"
         style="font-style:normal;font-variant:normal;font-weight:normal;font-stretch:normal;line-height:0%;font-family:'Nimbus Sans L';-inkscape-font-specification:Sans;letter-spacing:0px;word-spacing:0px;fill:#000000;fill-opacity:1;stroke:none;stroke-width:1px;stroke-linecap:butt;stroke-linejoin:miter;stroke-opacity:1"
         xml:space="preserve"><tspan
           y="87.232094"
           x="-606.11169"
           id="tspan5359-5"
           sodipodi:role="line"
           style="font-size:15px;line-height:1.25">črpanje</tspan></text>
      <text
         id="text5397"
         y="542.62573"
         x="143.36983"
         style="font-style:normal;font-variant:normal;font-weight:normal;font-stretch:normal;line-height:0%;font-family:'Nimbus Sans L';-inkscape-font-specification:Sans;letter-spacing:0px;word-spacing:0px;fill:#000000;fill-opacity:1;stroke:none;stroke-width:1px;stroke-linecap:butt;stroke-linejoin:miter;stroke-opacity:1"
         xml:space="preserve"><tspan
           y="542.62573"
           x="143.36983"
           id="tspan5399"
           sodipodi:role="line"
           style="font-size:15px;line-height:1.25">laser</tspan></text>
      <text
         id="text5419-4-9"
         y="601.784"
         x="140.35338"
         style="font-style:normal;font-variant:normal;font-weight:normal;font-stretch:normal;line-height:0%;font-family:'Nimbus Sans L';-inkscape-font-specification:Sans;letter-spacing:0px;word-spacing:0px;fill:#000000;fill-opacity:1;stroke:none;stroke-width:1px;stroke-linecap:butt;stroke-linejoin:miter;stroke-opacity:1"
         xml:space="preserve"><tspan
           y="601.784"
           x="140.35338"
           id="tspan5421-7-1"
           sodipodi:role="line"
           style="font-size:15px;line-height:1.25">hiter</tspan></text>
      <text
         inkscape:transform-center-y="-5.6198329"
         inkscape:transform-center-x="6.0881523"
         id="text5419-0-8-7"
         y="617.93341"
         x="140.35936"
         style="font-style:normal;font-variant:normal;font-weight:normal;font-stretch:normal;line-height:0%;font-family:'Nimbus Sans L';-inkscape-font-specification:Sans;letter-spacing:0px;word-spacing:0px;fill:#000000;fill-opacity:1;stroke:none;stroke-width:1px;stroke-linecap:butt;stroke-linejoin:miter;stroke-opacity:1"
         xml:space="preserve"><tspan
           y="617.93341"
           x="140.35936"
           id="tspan5421-2-4-7"
           sodipodi:role="line"
           style="font-size:15px;line-height:1.25">prehod</tspan></text>
      <g
         transform="translate(175.43006,-177.72426)"
         id="g1370">
        <text
           xml:space="preserve"
           style="font-style:normal;font-variant:normal;font-weight:normal;font-stretch:normal;line-height:0%;font-family:'Nimbus Sans L';-inkscape-font-specification:Sans;letter-spacing:0px;word-spacing:0px;fill:#000000;fill-opacity:1;stroke:none;stroke-width:1px;stroke-linecap:butt;stroke-linejoin:miter;stroke-opacity:1"
           x="-783.18427"
           y="87.232086"
           id="text5357-7-3"
           transform="rotate(-90)"><tspan
             style="font-size:15px;line-height:1.25"
             sodipodi:role="line"
             id="tspan5359-5-7"
             x="-783.18427"
             y="87.232086">črpanje</tspan></text>
        <text
           id="text4450-5-2-4"
           y="694.15961"
           x="204.83667"
           style="font-style:normal;font-variant:normal;font-weight:normal;font-stretch:normal;line-height:0%;font-family:'Nimbus Sans L';-inkscape-font-specification:Sans;letter-spacing:0px;word-spacing:0px;fill:#000000;fill-opacity:1;stroke:none;stroke-width:1px;stroke-linecap:butt;stroke-linejoin:miter;stroke-opacity:1"
           xml:space="preserve"><tspan
             style="font-size:10px;line-height:1.25"
             y="694.15961"
             x="204.83667"
             id="tspan4452-3-9-7"
             sodipodi:role="line">$|3\rangle$</tspan></text>
        <text
           id="text4450-5-5-3-6"
           y="788.91608"
           x="204.83667"
           style="font-style:normal;font-variant:normal;font-weight:normal;font-stretch:normal;line-height:0%;font-family:'Nimbus Sans L';-inkscape-font-specification:Sans;letter-spacing:0px;word-spacing:0px;fill:#000000;fill-opacity:1;stroke:none;stroke-width:1px;stroke-linecap:butt;stroke-linejoin:miter;stroke-opacity:1"
           xml:space="preserve"><tspan
             style="font-size:10px;line-height:1.25"
             y="788.91608"
             x="204.83667"
             id="tspan4452-3-6-1-5"
             sodipodi:role="line">$|1\rangle$</tspan></text>
        <text
           id="text4450-5-5-2-9-6"
           y="830.98749"
           x="204.83667"
           style="font-style:normal;font-variant:normal;font-weight:normal;font-stretch:normal;line-height:0%;font-family:'Nimbus Sans L';-inkscape-font-specification:Sans;letter-spacing:0px;word-spacing:0px;fill:#000000;fill-opacity:1;stroke:none;stroke-width:1px;stroke-linecap:butt;stroke-linejoin:miter;stroke-opacity:1"
           xml:space="preserve"><tspan
             style="font-size:10px;line-height:1.25"
             y="830.98749"
             x="204.83667"
             id="tspan4452-3-6-9-4-9"
             sodipodi:role="line">$|0\rangle$</tspan></text>
        <text
           xml:space="preserve"
           style="font-style:normal;font-variant:normal;font-weight:normal;font-stretch:normal;line-height:0%;font-family:'Nimbus Sans L';-inkscape-font-specification:Sans;letter-spacing:0px;word-spacing:0px;fill:#000000;fill-opacity:1;stroke:none;stroke-width:1px;stroke-linecap:butt;stroke-linejoin:miter;stroke-opacity:1"
           x="169.54611"
           y="765.15283"
           id="text5397-4"><tspan
             style="font-size:15px;line-height:1.25"
             sodipodi:role="line"
             id="tspan5399-5"
             x="169.54611"
             y="765.15283">laser</tspan></text>
        <text
           xml:space="preserve"
           style="font-style:normal;font-variant:normal;font-weight:normal;font-stretch:normal;line-height:0%;font-family:'Nimbus Sans L';-inkscape-font-specification:Sans;letter-spacing:0px;word-spacing:0px;fill:#000000;fill-opacity:1;stroke:none;stroke-width:1px;stroke-linecap:butt;stroke-linejoin:miter;stroke-opacity:1"
           x="136.64096"
           y="802.24817"
           id="text5419-2"><tspan
             style="font-size:15px;line-height:1.25"
             sodipodi:role="line"
             id="tspan5421-5"
             x="136.64096"
             y="802.24817">hiter</tspan></text>
        <text
           xml:space="preserve"
           style="font-style:normal;font-variant:normal;font-weight:normal;font-stretch:normal;line-height:0%;font-family:'Nimbus Sans L';-inkscape-font-specification:Sans;letter-spacing:0px;word-spacing:0px;fill:#000000;fill-opacity:1;stroke:none;stroke-width:1px;stroke-linecap:butt;stroke-linejoin:miter;stroke-opacity:1"
           x="136.64694"
           y="818.39752"
           id="text5419-0-4"
           inkscape:transform-center-x="6.0881523"
           inkscape:transform-center-y="-5.6198329"><tspan
             style="font-size:15px;line-height:1.25"
             sodipodi:role="line"
             id="tspan5421-2-7"
             x="136.64694"
             y="818.39752">prehod</tspan></text>
        <text
           xml:space="preserve"
           style="font-style:normal;font-variant:normal;font-weight:normal;font-stretch:normal;line-height:0%;font-family:'Nimbus Sans L';-inkscape-font-specification:Sans;letter-spacing:0px;word-spacing:0px;fill:#000000;fill-opacity:1;stroke:none;stroke-width:1px;stroke-linecap:butt;stroke-linejoin:miter;stroke-opacity:1"
           x="136.64096"
           y="710.00293"
           id="text5419-2-4"><tspan
             style="font-size:15px;line-height:1.25"
             sodipodi:role="line"
             id="tspan5421-5-9"
             x="136.64096"
             y="710.00293">hiter</tspan></text>
        <text
           xml:space="preserve"
           style="font-style:normal;font-variant:normal;font-weight:normal;font-stretch:normal;line-height:0%;font-family:'Nimbus Sans L';-inkscape-font-specification:Sans;letter-spacing:0px;word-spacing:0px;fill:#000000;fill-opacity:1;stroke:none;stroke-width:1px;stroke-linecap:butt;stroke-linejoin:miter;stroke-opacity:1"
           x="136.64694"
           y="726.15228"
           id="text5419-0-4-2"
           inkscape:transform-center-x="6.0881523"
           inkscape:transform-center-y="-5.6198329"><tspan
             style="font-size:15px;line-height:1.25"
             sodipodi:role="line"
             id="tspan5421-2-7-0"
             x="136.64694"
             y="726.15228">prehod</tspan></text>
        <text
           id="text4450-5-2-4-6"
           y="738.38098"
           x="205.06183"
           style="font-style:normal;font-variant:normal;font-weight:normal;font-stretch:normal;line-height:0%;font-family:'Nimbus Sans L';-inkscape-font-specification:Sans;letter-spacing:0px;word-spacing:0px;fill:#000000;fill-opacity:1;stroke:none;stroke-width:1px;stroke-linecap:butt;stroke-linejoin:miter;stroke-opacity:1"
           xml:space="preserve"><tspan
             style="font-size:10px;line-height:1.25"
             y="738.38098"
             x="205.06183"
             id="tspan4452-3-9-7-8"
             sodipodi:role="line">$|2\rangle$</tspan></text>
      </g>
      <text
         xml:space="preserve"
         style="font-style:normal;font-variant:normal;font-weight:normal;font-stretch:normal;font-size:12px;line-height:0%;font-family:'Nimbus Sans L';-inkscape-font-specification:Sans;letter-spacing:0px;word-spacing:0px;fill:#000000;fill-opacity:1;stroke:none;stroke-width:1"
         x="225.73654"
         y="514.57794"
         id="text6935-8-3"><tspan
           sodipodi:role="line"
           id="tspan6937-3-6"
           x="225.73654"
           y="514.57794"
           style="font-style:normal;font-variant:normal;font-weight:normal;font-stretch:normal;font-size:16px;line-height:1.25;font-family:'Nimbus Roman No9 L';-inkscape-font-specification:'Nimbus Roman No9 L';stroke-width:1">c)</tspan></text>
    </g>
  </g>
</svg>
