<?xml version="1.0" encoding="UTF-8" standalone="no"?>
<!-- generated by Grace-5.1.25 -->

<svg
   xmlns:osb="http://www.openswatchbook.org/uri/2009/osb"
   xmlns:dc="http://purl.org/dc/elements/1.1/"
   xmlns:cc="http://creativecommons.org/ns#"
   xmlns:rdf="http://www.w3.org/1999/02/22-rdf-syntax-ns#"
   xmlns:svg="http://www.w3.org/2000/svg"
   xmlns="http://www.w3.org/2000/svg"
   xmlns:xlink="http://www.w3.org/1999/xlink"
   xmlns:sodipodi="http://sodipodi.sourceforge.net/DTD/sodipodi-0.dtd"
   xmlns:inkscape="http://www.inkscape.org/namespaces/inkscape"
   xml:space="preserve"
   width="18.605909in"
   height="3.8225565in"
   viewBox="0 0 1339.6293 275.22519"
   id="svg2"
   version="1.1"
   inkscape:version="0.92.3 (2405546, 2018-03-11)"
   sodipodi:docname="06_comb.svg"><sodipodi:namedview
   pagecolor="#ffffff"
   bordercolor="#666666"
   borderopacity="1"
   objecttolerance="10"
   gridtolerance="10"
   guidetolerance="10"
   inkscape:pageopacity="0"
   inkscape:pageshadow="2"
   inkscape:window-width="1074"
   inkscape:window-height="970"
   id="namedview224"
   showgrid="false"
   inkscape:zoom="0.38496334"
   inkscape:cx="662.54985"
   inkscape:cy="-57.517245"
   inkscape:window-x="828"
   inkscape:window-y="145"
   inkscape:window-maximized="0"
   inkscape:current-layer="svg2"
   fit-margin-top="0"
   fit-margin-left="0"
   fit-margin-right="0"
   fit-margin-bottom="0"
   showguides="false"
   inkscape:snap-midpoints="true"
   inkscape:snap-global="true" /><metadata
   id="metadata228"><rdf:RDF><cc:Work
       rdf:about=""><dc:format>image/svg+xml</dc:format><dc:type
         rdf:resource="http://purl.org/dc/dcmitype/StillImage" /><dc:title></dc:title></cc:Work></rdf:RDF></metadata><defs
   id="defs226"><pattern
   inkscape:collect="always"
   xlink:href="#Strips4_1white"
   id="pattern4312"
   patternTransform="matrix(22.695005,0,0,10,-807.03943,701.09963)" /><pattern
   inkscape:isstock="true"
   inkscape:stockid="Stripes 4:1 white"
   id="Strips4_1white"
   patternTransform="translate(0,0) scale(10,10)"
   height="1"
   width="1.25"
   patternUnits="userSpaceOnUse"
   inkscape:collect="always"><rect
     id="rect2086"
     height="2"
     width="1"
     y="-0.5"
     x="0"
     style="fill:white;stroke:none" /></pattern><linearGradient
   id="linearGradient1204"
   osb:paint="solid"><stop
     style="stop-color:#000000;stop-opacity:1;"
     offset="0"
     id="stop1202" /></linearGradient><marker
   inkscape:isstock="true"
   style="overflow:visible"
   id="Arrow1Mend"
   refX="0"
   refY="0"
   orient="auto"
   inkscape:stockid="Arrow1Mend"><path
     inkscape:connector-curvature="0"
     transform="matrix(-0.4,0,0,-0.4,-4,0)"
     style="fill:#000000;fill-opacity:1;fill-rule:evenodd;stroke:#000000;stroke-width:1.00000003pt;stroke-opacity:1"
     d="M 0,0 5,-5 -12.5,0 5,5 Z"
     id="path916" /></marker>







<marker
   inkscape:isstock="true"
   style="overflow:visible"
   id="Arrow1Mend-3"
   refX="0"
   refY="0"
   orient="auto"
   inkscape:stockid="Arrow1Mend"><path
     transform="matrix(-0.4,0,0,-0.4,-4,0)"
     style="fill:#000000;fill-opacity:1;fill-rule:evenodd;stroke:#000000;stroke-width:1.00000003pt;stroke-opacity:1"
     d="M 0,0 5,-5 -12.5,0 5,5 Z"
     id="path916-6"
     inkscape:connector-curvature="0" /></marker><marker
   inkscape:isstock="true"
   style="overflow:visible"
   id="Arrow1Mend-5"
   refX="0"
   refY="0"
   orient="auto"
   inkscape:stockid="Arrow1Mend"><path
     transform="matrix(-0.4,0,0,-0.4,-4,0)"
     style="fill:#000000;fill-opacity:1;fill-rule:evenodd;stroke:#0000d4;stroke-width:1.00000003pt;stroke-opacity:1"
     d="M 0,0 5,-5 -12.5,0 5,5 Z"
     id="path916-3"
     inkscape:connector-curvature="0" /></marker><marker
   inkscape:isstock="true"
   style="overflow:visible"
   id="Arrow1Mend-9"
   refX="0"
   refY="0"
   orient="auto"
   inkscape:stockid="Arrow1Mend"><path
     transform="matrix(-0.4,0,0,-0.4,-4,0)"
     style="fill:#000000;fill-opacity:1;fill-rule:evenodd;stroke:#000000;stroke-width:1.00000003pt;stroke-opacity:1"
     d="M 0,0 5,-5 -12.5,0 5,5 Z"
     id="path916-1"
     inkscape:connector-curvature="0" /></marker><marker
   inkscape:isstock="true"
   style="overflow:visible"
   id="Arrow1Mend-2"
   refX="0"
   refY="0"
   orient="auto"
   inkscape:stockid="Arrow1Mend"><path
     transform="matrix(-0.4,0,0,-0.4,-4,0)"
     style="fill:#000000;fill-opacity:1;fill-rule:evenodd;stroke:#000000;stroke-width:1.00000003pt;stroke-opacity:1"
     d="M 0,0 5,-5 -12.5,0 5,5 Z"
     id="path916-8"
     inkscape:connector-curvature="0" /></marker><marker
   inkscape:isstock="true"
   style="overflow:visible"
   id="Arrow1Mend-3-9"
   refX="0"
   refY="0"
   orient="auto"
   inkscape:stockid="Arrow1Mend"><path
     transform="matrix(-0.4,0,0,-0.4,-4,0)"
     style="fill:#000000;fill-opacity:1;fill-rule:evenodd;stroke:#000000;stroke-width:1.00000003pt;stroke-opacity:1"
     d="M 0,0 5,-5 -12.5,0 5,5 Z"
     id="path916-6-7"
     inkscape:connector-curvature="0" /></marker><marker
   inkscape:isstock="true"
   style="overflow:visible"
   id="Arrow1Mend-5-3"
   refX="0"
   refY="0"
   orient="auto"
   inkscape:stockid="Arrow1Mend"><path
     transform="matrix(-0.4,0,0,-0.4,-4,0)"
     style="fill:#000000;fill-opacity:1;fill-rule:evenodd;stroke:#000000;stroke-width:1.00000003pt;stroke-opacity:1"
     d="M 0,0 5,-5 -12.5,0 5,5 Z"
     id="path916-3-6"
     inkscape:connector-curvature="0" /></marker><marker
   inkscape:isstock="true"
   style="overflow:visible"
   id="Arrow1Mend-2-6"
   refX="0"
   refY="0"
   orient="auto"
   inkscape:stockid="Arrow1Mend"><path
     transform="matrix(-0.4,0,0,-0.4,-4,0)"
     style="fill:#000000;fill-opacity:1;fill-rule:evenodd;stroke:#000000;stroke-width:1.00000003pt;stroke-opacity:1"
     d="M 0,0 5,-5 -12.5,0 5,5 Z"
     id="path916-8-1"
     inkscape:connector-curvature="0" /></marker><marker
   inkscape:isstock="true"
   style="overflow:visible"
   id="Arrow1Mend-3-4"
   refX="0"
   refY="0"
   orient="auto"
   inkscape:stockid="Arrow1Mend"><path
     transform="matrix(-0.4,0,0,-0.4,-4,0)"
     style="fill:#000000;fill-opacity:1;fill-rule:evenodd;stroke:#000000;stroke-width:1.00000003pt;stroke-opacity:1"
     d="M 0,0 5,-5 -12.5,0 5,5 Z"
     id="path916-6-5"
     inkscape:connector-curvature="0" /></marker><marker
   inkscape:isstock="true"
   style="overflow:visible"
   id="Arrow1Mend-5-7"
   refX="0"
   refY="0"
   orient="auto"
   inkscape:stockid="Arrow1Mend"><path
     transform="matrix(-0.4,0,0,-0.4,-4,0)"
     style="fill:#000000;fill-opacity:1;fill-rule:evenodd;stroke:#000000;stroke-width:1.00000003pt;stroke-opacity:1"
     d="M 0,0 5,-5 -12.5,0 5,5 Z"
     id="path916-3-4"
     inkscape:connector-curvature="0" /></marker><marker
   inkscape:isstock="true"
   style="overflow:visible"
   id="Arrow1Mend-3-43"
   refX="0"
   refY="0"
   orient="auto"
   inkscape:stockid="Arrow1Mend"><path
     transform="matrix(-0.4,0,0,-0.4,-4,0)"
     style="fill:#000000;fill-opacity:1;fill-rule:evenodd;stroke:#000000;stroke-width:1.00000003pt;stroke-opacity:1"
     d="M 0,0 5,-5 -12.5,0 5,5 Z"
     id="path916-6-0"
     inkscape:connector-curvature="0" /></marker><marker
   inkscape:isstock="true"
   style="overflow:visible"
   id="Arrow1Mend-7"
   refX="0"
   refY="0"
   orient="auto"
   inkscape:stockid="Arrow1Mend"><path
     inkscape:connector-curvature="0"
     transform="matrix(-0.4,0,0,-0.4,-4,0)"
     style="fill:#000000;fill-opacity:1;fill-rule:evenodd;stroke:#000000;stroke-width:1.00000003pt;stroke-opacity:1"
     d="M 0,0 5,-5 -12.5,0 5,5 Z"
     id="path916-86" /></marker><marker
   inkscape:isstock="true"
   style="overflow:visible"
   id="Arrow1Mend-9-7"
   refX="0"
   refY="0"
   orient="auto"
   inkscape:stockid="Arrow1Mend"><path
     transform="matrix(-0.4,0,0,-0.4,-4,0)"
     style="fill:#000000;fill-opacity:1;fill-rule:evenodd;stroke:#000000;stroke-width:1.00000003pt;stroke-opacity:1"
     d="M 0,0 5,-5 -12.5,0 5,5 Z"
     id="path916-1-6"
     inkscape:connector-curvature="0" /></marker><marker
   inkscape:isstock="true"
   style="overflow:visible"
   id="Arrow1Mend-3-4-7"
   refX="0"
   refY="0"
   orient="auto"
   inkscape:stockid="Arrow1Mend"><path
     transform="matrix(-0.4,0,0,-0.4,-4,0)"
     style="fill:#000000;fill-opacity:1;fill-rule:evenodd;stroke:#000000;stroke-width:1.00000003pt;stroke-opacity:1"
     d="M 0,0 5,-5 -12.5,0 5,5 Z"
     id="path916-6-5-3"
     inkscape:connector-curvature="0" /></marker><marker
   inkscape:isstock="true"
   style="overflow:visible"
   id="Arrow1Mend-9-7-7"
   refX="0"
   refY="0"
   orient="auto"
   inkscape:stockid="Arrow1Mend"><path
     transform="matrix(-0.4,0,0,-0.4,-4,0)"
     style="fill:#000000;fill-opacity:1;fill-rule:evenodd;stroke:#000000;stroke-width:1.00000003pt;stroke-opacity:1"
     d="M 0,0 5,-5 -12.5,0 5,5 Z"
     id="path916-1-6-8"
     inkscape:connector-curvature="0" /></marker>





















<linearGradient
   gradientUnits="userSpaceOnUse"
   y2="0"
   y1="0"
   x1="0"
   id="rainbow"
   x2="9"
   gradientTransform="matrix(132.90419,0,0,18.239896,79.813168,70.211723)"><stop
     offset="0"
     stop-color="red"
     id="stop2905" /><stop
     offset="0.333"
     stop-color="#ff0"
     id="stop2907" /><stop
     offset="0.5"
     stop-color="#0f0"
     id="stop2909" /><stop
     offset="0.666"
     stop-color="cyan"
     id="stop2911" /><stop
     offset="0.833"
     stop-color="blue"
     id="stop2913" /><stop
     offset="1"
     stop-color="#f0f"
     id="stop2915" /></linearGradient>





















</defs><g
   transform="translate(482.34297,752.53284)"
   id="g4579" /><flowRoot
   transform="matrix(0.75000305,0,0,0.75000305,445.93427,774.3734)"
   style="font-style:italic;font-variant:normal;font-weight:normal;font-stretch:normal;font-size:25px;line-height:125%;font-family:msbm10;-inkscape-font-specification:'msbm10 Italic';letter-spacing:0px;word-spacing:0px;fill:#000000;fill-opacity:1;stroke:none;stroke-width:1px;stroke-linecap:butt;stroke-linejoin:miter;stroke-opacity:1"
   id="flowRoot8032"
   xml:space="preserve"><flowRegion
     id="flowRegion8034"><rect
       y="653.85565"
       x="39.84338"
       height="190.36281"
       width="885.40845"
       id="rect8036" /></flowRegion><flowPara
     id="flowPara8038" /></flowRoot>









































<text
   xml:space="preserve"
   style="font-style:normal;font-variant:normal;font-weight:normal;font-stretch:normal;font-size:12px;line-height:0%;font-family:'Nimbus Sans L';-inkscape-font-specification:Sans;letter-spacing:0px;word-spacing:0px;fill:#000000;fill-opacity:1;stroke:none;stroke-width:1px;stroke-linecap:butt;stroke-linejoin:miter;stroke-opacity:1"
   x="1284.7977"
   y="273.58719"
   id="text3749-5-6-7"><tspan
     sodipodi:role="line"
     id="tspan3751-9-3-6"
     x="1284.7977"
     y="273.58719"
     style="font-size:13.00005245px;line-height:1.25;stroke-width:1px">$\nu$</tspan></text>
<rect
   y="70.212303"
   x="79.813057"
   style="fill:url(#rainbow);stroke-width:49.23574448"
   width="1196.1377"
   height="164.15907"
   id="rect2920" /><rect
   style="opacity:1;fill:url(#pattern4312);fill-opacity:1;fill-rule:nonzero;stroke:none;stroke-width:1.77670932;stroke-linecap:round;stroke-linejoin:round;stroke-miterlimit:4;stroke-dasharray:none;stroke-dashoffset:0;stroke-opacity:1"
   id="rect3062"
   width="3813.7761"
   height="167.38425"
   x="-2229.4919"
   y="66.987083" /><path
   sodipodi:nodetypes="ccccsccccccsccccccsccccccccccccscccccccccccssscccccssccccccscscccscccccsccccccsccccccccccccccccccccsscccsscccccsscccccsssccccscccccsccccccssccccsscccccccccccccsccccssccccccccc"
   inkscape:connector-curvature="0"
   style="opacity:1;fill:none;fill-opacity:1;stroke:#fffffd;stroke-width:73.08247375;stroke-linecap:round;stroke-linejoin:round;stroke-miterlimit:4;stroke-dasharray:none;stroke-dashoffset:0;stroke-opacity:1"
   d="m 65.230168,108.49121 c 2.3263,-0.31243 4.6526,-0.62582 6.9789,-0.94008 2.3262,-0.31431 4.6525,-0.62949 6.9788,-0.94556 2.3262,-0.31606 4.6525,-0.63296 6.9788,-0.95071 2.3262,-0.31774 4.6526,-0.63629 6.9788,-0.95561 2.3262,-0.31931 4.6525,-0.63938 6.978802,-0.96018 2.3262,-0.32077 4.6525,-0.64228 6.9787,-0.96444 2.3263,-0.32216 4.6526,-0.64497 6.9788,-0.96839 2.3263,-0.32341 4.6526,-0.64744 6.9788,-0.97202 2.3263,-0.32458 4.6526,-0.6497 6.9789,-0.975307 2.3262,-0.32559 4.6524,-0.65171 6.9788,-0.97822 2.3262,-0.32654 4.6525,-0.6535 6.9787,-0.98084 2.3262,-0.32734 4.6526,-0.65506 6.9788,-0.98308 2.3263,-0.32803 4.6526,-0.65636 6.9788,-0.98495 2.3262,-0.32858 4.6525,-0.65743 6.9788,-0.98645 2.3263,-0.32903 4.6525,-0.65824 6.9788,-0.98758 2.3263,-0.32936 4.6525,-0.65881 6.9788,-0.98833 2.3262,-0.32951 4.6525,-0.65909 6.9788,-0.9887 2.3263,-0.32956 4.6525,-0.65913 6.9788,-0.98863 2.3263,-0.32949 4.6525,-0.65893 6.9788,-0.98823 2.3263,-0.32926 4.6525,-0.65841 6.9788,-0.98734 2.3262,-0.32894 4.6525,-0.65767 6.9787,-0.98613 2.3264,-0.32844 4.6526,-0.65661 6.9788,-0.98443 2.3264,-0.32784 4.6526,-0.65532 6.9789,-0.98237 2.3263,-0.32705 4.6525,-0.65367 6.9788,-0.97985 2.3262,-0.32613 4.6525,-0.65179 6.9787,-0.9769 2.3263,-0.32507 4.6526,-0.6496 6.9788,-0.97352 2.3263,-0.32391 4.6526,-0.64715 6.9788,-0.96971 2.3263,-0.32257 4.6526,-0.64439 6.9788,-0.96547 2.3264,-0.32107 4.6526,-0.64136 6.9788,-0.9608 2.3263,-0.31942 4.6525,-0.63799 6.9788,-0.95565 2.3263,-0.31764 4.6525,-0.63437 6.9788,-0.95008 2.3263,-0.31571 4.6525,-0.63041 6.9788,-0.94403 2.3263,-0.31365 4.6525,-0.62618 6.9788,-0.93759 2.3263,-0.31141 4.6526,-0.62164 6.9788,-0.93066 2.3263,-0.309 4.6525,-0.61678 6.9788,-0.92328 2.3262,-0.30647 4.6525,-0.61164 6.9788,-0.91543 2.3263,-0.3038 4.6525,-0.60621 6.9788,-0.90718 2.3263,-0.30097 4.6525,-0.60046 6.9788,-0.89845 2.3263,-0.29797 4.6525,-0.59441 6.9788,-0.88925 2.3262,-0.29485 4.6525,-0.58807 6.9788,-0.87965 2.3262,-0.29155 4.6525,-0.58143 6.9788,-0.86953 2.3262,-0.28814 4.6525,-0.57452 6.9788,-0.85906 2.3262,-0.28455 4.6525,-0.56726 6.9788,-0.84805 2.3263,-0.28083 4.6525,-0.55973 6.9788,-0.83666 2.3262,-0.27694 4.6525,-0.55192 6.9787,-0.82482 2.3263,-0.2729 4.6525,-0.54379 6.9789,-0.81255 2.3262,-0.26872 4.6524,-0.53535 6.9788,-0.7998 2.3262,-0.26444 4.6524,-0.52668 6.9788,-0.78668 2.3262,-0.25998 4.6525,-0.51771 6.9787,-0.77312 2.3263,-0.25539 4.6525,-0.50845 6.9788,-0.75913 2.3263,-0.25068 4.6525,-0.49891 6.9788,-0.74474 2.3263,-0.2458 4.6525,-0.48912 6.9788,-0.72994 2.3263,-0.24078 4.6525,-0.47905 6.9788,-0.71473 2.3263,-0.23565 4.6525,-0.46872 6.9788,-0.69913 2.3263,-0.23041 4.6525,-0.45814 6.9788,-0.68316 2.3262,-0.225 4.6525,-0.44727 6.9788,-0.66678 2.3262,-0.21949 4.6525,-0.43619 6.9788,-0.65004 2.3262,-0.21386 4.6525,-0.42486 6.9788,-0.63293 2.3263,-0.20809 4.6525,-0.41328 6.9788,-0.61548 2.3262,-0.20221 4.6525,-0.40143 6.9787,-0.59765 2.3263,-0.1962 4.6526,-0.3894 6.9789,-0.5795 2.3262,-0.19011 4.6525,-0.37713 6.9788,-0.56101 2.3262,-0.18389 4.6525,-0.36463 6.9788,-0.54219 2.3262,-0.17758 4.6525,-0.35195 6.9788,-0.52309 2.3262,-0.17115 4.6525,-0.33903 6.9788,-0.50366 2.3262,-0.16463 4.6525,-0.32595 6.9787,-0.48394 2.3263,-0.15799 4.6526,-0.31264 6.9788,-0.46394 2.3263,-0.15127 4.6526,-0.29916 6.9788,-0.44365 2.3263,-0.14454 4.6525,-0.28554 6.9788,-0.42314 2.3262,-0.13759 4.6525,-0.27172 6.9788,-0.40236 2.3262,-0.13064 4.6526,-0.25774 6.9788,-0.38134 2.3262,-0.12355 4.6526,-0.24363 6.9788,-0.36009 2.3262,-0.11659 4.6526,-0.22937 6.9788,-0.33865 2.3263,-0.10934 4.6526,-0.21494 6.9788,-0.31699 2.3262,-0.10195 4.6525,-0.20042 6.9787,-0.29513 2.3263,-0.0947 4.6526,-0.18577 6.9789,-0.27312 2.3262,-0.0874 4.6525,-0.17103 6.9788,-0.25097 2.3262,-0.08 4.6525,-0.15613 6.9788,-0.22859 2.3263,-0.0725 4.6526,-0.14122 6.9788,-0.20616 2.3262,-0.0649 4.6525,-0.12611 6.9787,-0.18354 2.3263,-0.0574 4.6526,-0.11101 6.9788,-0.16085 2.3263,-0.0498 4.6526,-0.0957 6.9788,-0.13804 2.3263,-0.0421 4.6526,-0.0806 6.9789,-0.11524 2.3263,-0.0346 4.6525,-0.0654 6.9788,-0.0923 2.3262,-0.0269 4.6524,-0.0498 6.9787,-0.0692 2.3263,-0.0193 4.6526,-0.0347 6.9788,-0.0462 2.3263,-0.0121 4.6526,-0.0193 6.9788,-0.0231 2.3263,-0.005 4.6526,-0.005 6.9788,0 2.3263,0.005 4.6526,0.0121 6.9788,0.0231 2.3263,0.0121 4.6525,0.0269 6.9787,0.0462 2.3264,0.0193 4.6526,0.0424 6.9789,0.0692 2.3263,0.027 4.6525,0.0577 6.9788,0.0923 2.3263,0.0346 4.6525,0.0729 6.9788,0.11524 2.3263,0.042 4.6526,0.0882 6.9788,0.13804 2.3263,0.0498 4.6525,0.10346 6.9787,0.16085 2.3263,0.0574 4.6526,0.11855 6.9788,0.18354 2.3264,0.0649 4.6526,0.13366 6.9788,0.20616 2.3264,0.0725 4.6526,0.14861 6.9789,0.22859 2.3263,0.0801 4.6525,0.1636 6.9788,0.25097 2.3263,0.0873 4.6525,0.17839 6.9787,0.27312 2.3263,0.0947 4.6526,0.19311 6.9788,0.29513 2.3263,0.10194 4.6526,0.20771 6.9789,0.31699 2.3262,0.10935 4.6525,0.22219 6.9788,0.33865 2.3263,0.11645 4.6525,0.23651 6.9788,0.36009 2.3262,0.12354 4.6525,0.25072 6.9787,0.38134 2.3263,0.13064 4.6525,0.26476 6.9788,0.40236 2.3263,0.13759 4.6525,0.27866 6.9788,0.42314 2.3263,0.14453 4.6525,0.29238 6.9788,0.44365 2.3262,0.1513 4.6525,0.30595 6.9788,0.46394 2.3262,0.15799 4.6526,0.31932 6.9788,0.48394 2.3262,0.16463 4.6525,0.33253 6.9788,0.50366 2.3263,0.17113 4.6525,0.34551 6.9788,0.52309 2.3263,0.17754 4.6525,0.3583 6.9788,0.54219 2.3262,0.18388 4.6525,0.37091 6.9788,0.56101 2.3263,0.1901 4.6525,0.3833 6.9788,0.5795 2.3262,0.1962 4.6525,0.39545 6.9788,0.59765 2.3262,0.2022 4.6525,0.40739 6.9788,0.61548 2.3262,0.20807 4.6525,0.41909 6.9788,0.63293 2.3262,0.21384 4.6525,0.43057 6.9788,0.65004 2.3262,0.21951 4.6525,0.44178 6.9788,0.66678 2.3262,0.22502 4.6524,0.45275 6.9788,0.68316 2.3262,0.2304 4.6525,0.46348 6.9788,0.69913 2.3262,0.23568 4.6525,0.47395 6.9787,0.71473 2.3263,0.2408 4.6525,0.48416 6.9788,0.72994 2.3263,0.24582 4.6525,0.49408 6.9788,0.74474 2.3263,0.25066 4.6526,0.50374 6.9788,0.75913 2.3263,0.25541 4.6526,0.51314 6.9788,0.77312 2.3263,0.26 4.6525,0.52224 6.9788,0.78668 2.3263,0.26444 4.6525,0.53108 6.9788,0.7998 2.3262,0.26876 4.6525,0.53965 6.9788,0.81255 2.3262,0.2729 4.6526,0.54788 6.9788,0.82482 2.3262,0.27691 4.6526,0.55585 6.9788,0.83666 2.3262,0.28079 4.6525,0.56351 6.9788,0.84805 2.3262,0.28454 4.6525,0.57092 6.97873,0.85906 2.3263,0.2881 4.6526,0.57798 6.9788,0.86953 2.3263,0.29156 4.6526,0.5848 6.9789,0.87965 2.3262,0.29484 4.6525,0.59128 6.9788,0.88925 2.3262,0.29798 4.6525,0.5975 6.9787,0.89845 2.3262,0.30097 4.6526,0.60338 6.9788,0.90718 2.3262,0.30377 4.6525,0.60896 6.9788,0.91543 2.3263,0.3065 4.6525,0.61428 6.9787,0.92328 2.3263,0.30902 4.6526,0.61925 6.9788,0.93066 2.3263,0.31141 4.6526,0.62394 6.9789,0.93759 2.3262,0.31362 4.6525,0.62832 6.9788,0.94403 2.3262,0.31571 4.6525,0.63244 6.9788,0.95008 2.3262,0.31765 4.6525,0.63623 6.9787,0.95565 2.3263,0.31944 4.6526,0.63973 6.9788,0.9608 2.3263,0.32106 4.6526,0.6429 6.9788,0.96547 2.3263,0.32256 4.6526,0.6458 6.9788,0.96971 2.3263,0.3239 4.6526,0.64845 6.9788,0.97352 2.3263,0.32511 4.6525,0.65077 6.9788,0.9769 2.3263,0.32618 4.6525,0.6528 6.9788,0.97985 2.3263,0.32705 4.6525,0.65453 6.9788,0.98237 2.3263,0.32782 4.6525,0.65599 6.9787,0.98443 2.3263,0.32846 4.6526,0.65719 6.9788,0.98613 2.3264,0.32893 4.6526,0.65808 6.9788,0.98734 2.3264,0.3293 4.6526,0.65874 6.9788,0.98823 2.3264,0.3295 4.6526,0.65907 6.9789,0.98863 2.3263,0.32961 4.6525,0.65919 6.9788,0.9887 2.3263,0.32952 4.6525,0.65897 6.9788,0.98833 2.3263,0.32934 4.6525,0.65855 6.9788,0.98758 2.3262,0.32904 4.6525,0.65787 6.9787,0.98645 2.3263,0.32859 4.6526,0.65692 6.9788,0.98495 2.3264,0.32802 4.6526,0.65574 6.9788,0.98308 2.3263,0.32734 4.6525,0.6543 6.9788,0.98084 2.3263,0.32651 4.6525,0.65263 6.9788,0.97822 2.3263,0.325607 4.6525,0.650727 6.9788,0.975307 2.3263,0.32458 4.6525,0.6486 6.9789,0.97202 2.3262,0.32342 4.6525,0.64623 6.9787,0.96839 2.3263,0.32217 4.6525,0.64365 6.9788,0.96444 2.3263,0.3208 4.6525,0.64086 6.9788,0.96018 2.3263,0.31932 4.6525,0.63787 6.9788,0.95561 2.3263,0.31775 4.6525,0.63465 6.9789,0.95071 2.3262,0.31607 4.6524,0.63125 6.9787,0.94556"
   title="exp(-x*x)"
   id="path880-3" /><path
   style="fill:none;fill-rule:evenodd;stroke:#000000;stroke-width:3.79501534;stroke-linecap:butt;stroke-linejoin:miter;stroke-miterlimit:4;stroke-dasharray:none;stroke-opacity:1;marker-end:url(#Arrow1Mend-9-7-7)"
   d="M 10.318068,236.15135 1332.1499,234.43431"
   id="path4447-2-5-4"
   inkscape:connector-curvature="0"
   sodipodi:nodetypes="cc" /><path
   sodipodi:nodetypes="cc"
   style="fill:none;fill-rule:evenodd;stroke:#000000;stroke-width:3.79501534;stroke-linecap:butt;stroke-linejoin:miter;stroke-miterlimit:4;stroke-dasharray:none;stroke-opacity:1;marker-end:url(#Arrow1Mend-3)"
   d="M 10.318068,236.15135 9.5448677,7.4787232"
   id="path4447-7"
   inkscape:connector-curvature="0" /></svg>