<?xml version="1.0" encoding="UTF-8" standalone="no"?>
<!-- generated by Grace-5.1.25 -->

<svg
   xmlns:dc="http://purl.org/dc/elements/1.1/"
   xmlns:cc="http://creativecommons.org/ns#"
   xmlns:rdf="http://www.w3.org/1999/02/22-rdf-syntax-ns#"
   xmlns:svg="http://www.w3.org/2000/svg"
   xmlns="http://www.w3.org/2000/svg"
   xmlns:sodipodi="http://sodipodi.sourceforge.net/DTD/sodipodi-0.dtd"
   xmlns:inkscape="http://www.inkscape.org/namespaces/inkscape"
   xml:space="preserve"
   width="9.3233194in"
   height="8.3460217in"
   viewBox="0 0 671.28089 600.916"
   id="svg2"
   version="1.1"
   inkscape:version="0.92.3 (2405546, 2018-03-11)"
   sodipodi:docname="06_FPmodes.svg"><sodipodi:namedview
   pagecolor="#ffffff"
   bordercolor="#666666"
   borderopacity="1"
   objecttolerance="10"
   gridtolerance="10"
   guidetolerance="10"
   inkscape:pageopacity="0"
   inkscape:pageshadow="2"
   inkscape:window-width="988"
   inkscape:window-height="970"
   id="namedview224"
   showgrid="false"
   inkscape:zoom="0.54442037"
   inkscape:cx="281.12065"
   inkscape:cy="349.66486"
   inkscape:window-x="710"
   inkscape:window-y="24"
   inkscape:window-maximized="0"
   inkscape:current-layer="svg2"
   fit-margin-top="0"
   fit-margin-left="0"
   fit-margin-right="0"
   fit-margin-bottom="0"
   showguides="false"
   inkscape:snap-midpoints="true" /><metadata
   id="metadata228"><rdf:RDF><cc:Work
       rdf:about=""><dc:format>image/svg+xml</dc:format><dc:type
         rdf:resource="http://purl.org/dc/dcmitype/StillImage" /><dc:title></dc:title></cc:Work></rdf:RDF></metadata><defs
   id="defs226"><marker
   inkscape:stockid="Arrow1Mend"
   orient="auto"
   refY="0"
   refX="0"
   id="Arrow1Mend"
   style="overflow:visible"
   inkscape:isstock="true"><path
     id="path916"
     d="M 0,0 5,-5 -12.5,0 5,5 Z"
     style="fill:#000000;fill-opacity:1;fill-rule:evenodd;stroke:#000000;stroke-width:1.00000003pt;stroke-opacity:1"
     transform="matrix(-0.4,0,0,-0.4,-4,0)"
     inkscape:connector-curvature="0" /></marker>







<marker
   inkscape:stockid="Arrow1Mend"
   orient="auto"
   refY="0"
   refX="0"
   id="Arrow1Mend-3"
   style="overflow:visible"
   inkscape:isstock="true"><path
     inkscape:connector-curvature="0"
     id="path916-6"
     d="M 0,0 5,-5 -12.5,0 5,5 Z"
     style="fill:#000000;fill-opacity:1;fill-rule:evenodd;stroke:#000000;stroke-width:1.00000003pt;stroke-opacity:1"
     transform="matrix(-0.4,0,0,-0.4,-4,0)" /></marker><marker
   inkscape:stockid="Arrow1Mend"
   orient="auto"
   refY="0"
   refX="0"
   id="Arrow1Mend-5"
   style="overflow:visible"
   inkscape:isstock="true"><path
     inkscape:connector-curvature="0"
     id="path916-3"
     d="M 0,0 5,-5 -12.5,0 5,5 Z"
     style="fill:#000000;fill-opacity:1;fill-rule:evenodd;stroke:#0000d4;stroke-width:1.00000003pt;stroke-opacity:1"
     transform="matrix(-0.4,0,0,-0.4,-4,0)" /></marker><marker
   inkscape:stockid="Arrow1Mend"
   orient="auto"
   refY="0"
   refX="0"
   id="Arrow1Mend-9"
   style="overflow:visible"
   inkscape:isstock="true"><path
     inkscape:connector-curvature="0"
     id="path916-1"
     d="M 0,0 5,-5 -12.5,0 5,5 Z"
     style="fill:#000000;fill-opacity:1;fill-rule:evenodd;stroke:#000000;stroke-width:1.00000003pt;stroke-opacity:1"
     transform="matrix(-0.4,0,0,-0.4,-4,0)" /></marker><marker
   inkscape:stockid="Arrow1Mend"
   orient="auto"
   refY="0"
   refX="0"
   id="Arrow1Mend-2"
   style="overflow:visible"
   inkscape:isstock="true"><path
     inkscape:connector-curvature="0"
     id="path916-8"
     d="M 0,0 5,-5 -12.5,0 5,5 Z"
     style="fill:#000000;fill-opacity:1;fill-rule:evenodd;stroke:#000000;stroke-width:1.00000003pt;stroke-opacity:1"
     transform="matrix(-0.4,0,0,-0.4,-4,0)" /></marker><marker
   inkscape:stockid="Arrow1Mend"
   orient="auto"
   refY="0"
   refX="0"
   id="Arrow1Mend-3-9"
   style="overflow:visible"
   inkscape:isstock="true"><path
     inkscape:connector-curvature="0"
     id="path916-6-7"
     d="M 0,0 5,-5 -12.5,0 5,5 Z"
     style="fill:#000000;fill-opacity:1;fill-rule:evenodd;stroke:#000000;stroke-width:1.00000003pt;stroke-opacity:1"
     transform="matrix(-0.4,0,0,-0.4,-4,0)" /></marker><marker
   inkscape:stockid="Arrow1Mend"
   orient="auto"
   refY="0"
   refX="0"
   id="Arrow1Mend-5-3"
   style="overflow:visible"
   inkscape:isstock="true"><path
     inkscape:connector-curvature="0"
     id="path916-3-6"
     d="M 0,0 5,-5 -12.5,0 5,5 Z"
     style="fill:#000000;fill-opacity:1;fill-rule:evenodd;stroke:#000000;stroke-width:1.00000003pt;stroke-opacity:1"
     transform="matrix(-0.4,0,0,-0.4,-4,0)" /></marker><marker
   inkscape:stockid="Arrow1Mend"
   orient="auto"
   refY="0"
   refX="0"
   id="Arrow1Mend-2-6"
   style="overflow:visible"
   inkscape:isstock="true"><path
     inkscape:connector-curvature="0"
     id="path916-8-1"
     d="M 0,0 5,-5 -12.5,0 5,5 Z"
     style="fill:#000000;fill-opacity:1;fill-rule:evenodd;stroke:#000000;stroke-width:1.00000003pt;stroke-opacity:1"
     transform="matrix(-0.4,0,0,-0.4,-4,0)" /></marker><marker
   inkscape:stockid="Arrow1Mend"
   orient="auto"
   refY="0"
   refX="0"
   id="Arrow1Mend-3-4"
   style="overflow:visible"
   inkscape:isstock="true"><path
     inkscape:connector-curvature="0"
     id="path916-6-5"
     d="M 0,0 5,-5 -12.5,0 5,5 Z"
     style="fill:#000000;fill-opacity:1;fill-rule:evenodd;stroke:#000000;stroke-width:1.00000003pt;stroke-opacity:1"
     transform="matrix(-0.4,0,0,-0.4,-4,0)" /></marker><marker
   inkscape:stockid="Arrow1Mend"
   orient="auto"
   refY="0"
   refX="0"
   id="Arrow1Mend-5-7"
   style="overflow:visible"
   inkscape:isstock="true"><path
     inkscape:connector-curvature="0"
     id="path916-3-4"
     d="M 0,0 5,-5 -12.5,0 5,5 Z"
     style="fill:#000000;fill-opacity:1;fill-rule:evenodd;stroke:#000000;stroke-width:1.00000003pt;stroke-opacity:1"
     transform="matrix(-0.4,0,0,-0.4,-4,0)" /></marker><marker
   inkscape:stockid="Arrow1Mend"
   orient="auto"
   refY="0"
   refX="0"
   id="Arrow1Mend-3-43"
   style="overflow:visible"
   inkscape:isstock="true"><path
     inkscape:connector-curvature="0"
     id="path916-6-0"
     d="M 0,0 5,-5 -12.5,0 5,5 Z"
     style="fill:#000000;fill-opacity:1;fill-rule:evenodd;stroke:#000000;stroke-width:1.00000003pt;stroke-opacity:1"
     transform="matrix(-0.4,0,0,-0.4,-4,0)" /></marker><marker
   inkscape:stockid="Arrow1Mend"
   orient="auto"
   refY="0"
   refX="0"
   id="Arrow1Mend-7"
   style="overflow:visible"
   inkscape:isstock="true"><path
     id="path916-86"
     d="M 0,0 5,-5 -12.5,0 5,5 Z"
     style="fill:#000000;fill-opacity:1;fill-rule:evenodd;stroke:#000000;stroke-width:1.00000003pt;stroke-opacity:1"
     transform="matrix(-0.4,0,0,-0.4,-4,0)"
     inkscape:connector-curvature="0" /></marker><marker
   inkscape:stockid="Arrow1Mend"
   orient="auto"
   refY="0"
   refX="0"
   id="Arrow1Mend-9-7"
   style="overflow:visible"
   inkscape:isstock="true"><path
     inkscape:connector-curvature="0"
     id="path916-1-6"
     d="M 0,0 5,-5 -12.5,0 5,5 Z"
     style="fill:#000000;fill-opacity:1;fill-rule:evenodd;stroke:#000000;stroke-width:1.00000003pt;stroke-opacity:1"
     transform="matrix(-0.4,0,0,-0.4,-4,0)" /></marker><marker
   inkscape:stockid="Arrow1Mend"
   orient="auto"
   refY="0"
   refX="0"
   id="Arrow1Mend-3-4-7"
   style="overflow:visible"
   inkscape:isstock="true"><path
     inkscape:connector-curvature="0"
     id="path916-6-5-3"
     d="M 0,0 5,-5 -12.5,0 5,5 Z"
     style="fill:#000000;fill-opacity:1;fill-rule:evenodd;stroke:#000000;stroke-width:1.00000003pt;stroke-opacity:1"
     transform="matrix(-0.4,0,0,-0.4,-4,0)" /></marker><marker
   inkscape:stockid="Arrow1Mend"
   orient="auto"
   refY="0"
   refX="0"
   id="Arrow1Mend-9-7-7"
   style="overflow:visible"
   inkscape:isstock="true"><path
     inkscape:connector-curvature="0"
     id="path916-1-6-8"
     d="M 0,0 5,-5 -12.5,0 5,5 Z"
     style="fill:#000000;fill-opacity:1;fill-rule:evenodd;stroke:#000000;stroke-width:1.00000003pt;stroke-opacity:1"
     transform="matrix(-0.4,0,0,-0.4,-4,0)" /></marker>





















</defs><g
   id="g4579"
   transform="translate(39.408258,51.433211)" /><flowRoot
   xml:space="preserve"
   id="flowRoot8032"
   style="font-style:italic;font-variant:normal;font-weight:normal;font-stretch:normal;font-size:25px;line-height:125%;font-family:msbm10;-inkscape-font-specification:'msbm10 Italic';letter-spacing:0px;word-spacing:0px;fill:#000000;fill-opacity:1;stroke:none;stroke-width:1px;stroke-linecap:butt;stroke-linejoin:miter;stroke-opacity:1"
   transform="matrix(0.75000305,0,0,0.75000305,2.9995744,73.273763)"><flowRegion
     id="flowRegion8034"><rect
       id="rect8036"
       width="885.40845"
       height="190.36281"
       x="39.84338"
       y="653.85565" /></flowRegion><flowPara
     id="flowPara8038" /></flowRoot>









































<g
   id="g1266"><path
     style="fill:none;fill-rule:evenodd;stroke:#000000;stroke-width:1.89750771;stroke-linecap:butt;stroke-linejoin:miter;stroke-miterlimit:4;stroke-dasharray:none;stroke-opacity:1;marker-end:url(#Arrow1Mend-9-7)"
     d="M 39.409021,573.30869 633.51046,572.45017"
     id="path4447-2-5"
     inkscape:connector-curvature="0" /><path
     style="fill:none;fill-rule:evenodd;stroke:#000000;stroke-width:1.89750771;stroke-linecap:butt;stroke-linejoin:miter;stroke-miterlimit:4;stroke-dasharray:none;stroke-opacity:1;marker-end:url(#Arrow1Mend)"
     d="M 39.409021,306.08527 633.51048,305.22675"
     id="path4447"
     inkscape:connector-curvature="0" /><path
     sodipodi:nodetypes="cc"
     style="fill:none;fill-rule:evenodd;stroke:#000000;stroke-width:1.89750771;stroke-linecap:butt;stroke-linejoin:miter;stroke-miterlimit:4;stroke-dasharray:none;stroke-opacity:1;marker-end:url(#Arrow1Mend-3)"
     d="M 39.591952,306.08527 39.205361,110.46952"
     id="path4447-7"
     inkscape:connector-curvature="0" /><path
     style="fill:#000000;fill-opacity:1;fill-rule:evenodd;stroke:#00d400;stroke-width:1.5997565;stroke-linecap:butt;stroke-linejoin:miter;stroke-miterlimit:4;stroke-dasharray:none;stroke-dashoffset:0;stroke-opacity:1"
     d="M 38.777894,219.65919 632.87935,218.80067"
     id="path4447-5"
     inkscape:connector-curvature="0" /><path
     inkscape:connector-curvature="0"
     id="path4514"
     d="M 332.95945,120.42406 V 306.52685"
     style="fill:none;fill-rule:evenodd;stroke:#00d400;stroke-width:2.50001025;stroke-linecap:butt;stroke-linejoin:miter;stroke-miterlimit:4;stroke-dasharray:none;stroke-dashoffset:0;stroke-opacity:1"
     sodipodi:nodetypes="cc" /><path
     inkscape:connector-curvature="0"
     id="path4514-7"
     d="M 365.02342,140.76086 V 306.52685"
     style="fill:none;fill-rule:evenodd;stroke:#00d400;stroke-width:2.50001025;stroke-linecap:butt;stroke-linejoin:miter;stroke-miterlimit:4;stroke-dasharray:none;stroke-dashoffset:0;stroke-opacity:1"
     sodipodi:nodetypes="cc" /><path
     inkscape:connector-curvature="0"
     id="path4514-7-0"
     d="M 397.25496,188.49016 V 306.52685"
     style="fill:none;fill-rule:evenodd;stroke:#00d400;stroke-width:2.50001025;stroke-linecap:butt;stroke-linejoin:miter;stroke-miterlimit:4;stroke-dasharray:none;stroke-dashoffset:0;stroke-opacity:1"
     sodipodi:nodetypes="cc" /><path
     inkscape:connector-curvature="0"
     id="path4514-7-6-6"
     d="M 268.16121,184.33975 V 306.52687"
     style="fill:none;fill-rule:evenodd;stroke:#00d400;stroke-width:2.50001025;stroke-linecap:butt;stroke-linejoin:miter;stroke-miterlimit:4;stroke-dasharray:none;stroke-dashoffset:0;stroke-opacity:1"
     sodipodi:nodetypes="cc" /><path
     inkscape:connector-curvature="0"
     id="path4514-7-0-0-1"
     d="M 300.39275,137.85569 V 306.52687"
     style="fill:none;fill-rule:evenodd;stroke:#00d400;stroke-width:2.50001025;stroke-linecap:butt;stroke-linejoin:miter;stroke-miterlimit:4;stroke-dasharray:none;stroke-dashoffset:0;stroke-opacity:1"
     sodipodi:nodetypes="cc" /><path
     sodipodi:nodetypes="cccccccccccccccccccssscsssccsccssscsscscscscccccccscccccccccccsccsccccccscccccccsccccssccccccccccccccccsccccscccccccsccccccccccccccccccssccccccssccccccccccsssccccscsccccccccccsssccccscsccccsccccccccccccccssccccsccccccccccccscccccccccccccccccccccccccscccccccccccccssscccscscccccccccccssscccccccccccsccccccccccccscccccccccccccccccccscccccscscccccsscccccssccccccccccsccsccccccccsccccccccscccscccsssscccscssscssccccccccccccccccccc"
     inkscape:connector-curvature="0"
     style="opacity:1;fill:none;fill-opacity:1;stroke:#d40000;stroke-width:2.50001015;stroke-linecap:round;stroke-linejoin:round;stroke-miterlimit:4;stroke-dasharray:none;stroke-dashoffset:0;stroke-opacity:1"
     d="m 41.671884,304.67619 c 0.322864,-4.5e-4 0.645736,-8.2e-4 0.9686,-0.002 0.322873,-4.9e-4 0.645737,-8.3e-4 0.968601,-0.002 0.322872,-5.1e-4 0.645736,-8.3e-4 0.968608,-0.002 0.322864,-5.4e-4 0.645728,-8.2e-4 0.968601,-0.002 0.322864,-5.7e-4 0.645728,-8.2e-4 0.9686,-0.002 0.322864,-6.1e-4 0.645736,-8.3e-4 0.968601,-0.002 0.322864,-6.4e-4 0.645736,-0.002 0.9686,-0.002 0.322864,-6.8e-4 0.645736,-0.002 0.9686,-0.002 0.322873,-7.2e-4 0.645737,-0.002 0.968601,-0.002 0.322872,-7.5e-4 0.645736,-0.002 0.9686,-0.002 0.322872,-8e-4 0.645736,-0.002 0.968609,-0.002 0.322864,-8.3e-4 0.645728,-0.002 0.9686,-0.002 0.322864,-8.2e-4 0.645728,-0.002 0.968601,-0.002 0.322864,-8.2e-4 0.645736,-0.002 0.9686,-0.003 0.322864,-8.3e-4 0.645736,-0.002 0.9686,-0.003 0.322864,-8.2e-4 0.645737,-0.002 0.968601,-0.003 0.322872,-8.3e-4 0.645736,-0.002 0.9686,-0.003 0.322872,-8.2e-4 0.645736,-0.002 0.968609,-0.003 0.322864,-8.3e-4 0.645728,-0.002 0.968598,-0.004 0.322866,-0.002 0.645734,-0.002 0.968601,-0.004 0.322867,-0.002 0.645734,-0.002 0.968601,-0.004 0.322867,-0.002 0.645735,-0.003 0.968602,-0.004 0.322867,-0.002 0.645734,-0.003 0.968601,-0.005 0.322868,-0.002 0.645734,-0.003 0.968602,-0.005 0.322867,-0.002 0.645734,-0.003 0.968602,-0.005 0.322866,-0.002 0.645733,-0.003 0.968601,-0.006 l 0.968601,-0.006 0.968602,-0.006 c 0.322867,-0.002 0.645734,-0.004 0.968601,-0.007 0.322868,-0.002 0.645734,-0.004 0.968602,-0.007 0.322867,-0.002 0.645734,-0.005 0.968602,-0.007 0.322866,-0.002 0.645733,-0.005 0.968601,-0.007 0.322867,-0.002 0.645734,-0.005 0.968601,-0.007 0.322867,-0.002 0.645735,-0.005 0.968602,-0.008 0.322867,-0.002 0.645734,-0.006 0.968601,-0.009 l 0.968601,-0.009 c 0.322868,-0.003 0.645735,-0.007 0.968602,-0.009 0.322867,-0.003 0.645734,-0.007 0.968602,-0.01 0.322867,-0.003 0.645734,-0.007 0.968601,-0.0104 0.322867,-0.003 0.645735,-0.007 0.968602,-0.011 0.322866,-0.004 0.645734,-0.007 0.968601,-0.0115 l 0.968601,-0.012 c 0.322868,-0.004 0.645735,-0.008 0.968602,-0.0126 0.322867,-0.004 0.645734,-0.009 0.968602,-0.0133 0.322867,-0.004 0.645734,-0.009 0.968601,-0.0138 0.322867,-0.005 0.645735,-0.01 0.968602,-0.0146 0.322866,-0.005 0.645734,-0.0101 0.968601,-0.0152 0.322867,-0.005 0.645734,-0.0105 0.968601,-0.016 0.322868,-0.006 0.645735,-0.011 0.968602,-0.0167 0.322867,-0.006 0.645734,-0.0115 0.968602,-0.0175 0.322867,-0.006 0.645733,-0.0121 0.968601,-0.0184 0.322867,-0.007 0.645734,-0.0127 0.968602,-0.0192 0.322866,-0.007 0.645734,-0.0133 0.968601,-0.0201 0.322867,-0.007 0.645734,-0.0138 0.968601,-0.021 0.322868,-0.007 0.645735,-0.0145 0.968602,-0.022 0.322867,-0.007 0.645734,-0.0151 0.968602,-0.023 0.322867,-0.008 0.645733,-0.0159 0.968601,-0.024 0.322867,-0.008 0.645734,-0.0166 0.968602,-0.0252 0.322866,-0.009 0.645734,-0.0174 0.968601,-0.0263 0.322867,-0.009 0.645735,-0.0181 0.968601,-0.0275 0.322866,-0.009 0.645736,-0.0189 0.968606,-0.0288 0.32286,-0.01 0.64573,-0.0198 0.9686,-0.03 0.32286,-0.0102 0.64573,-0.0207 0.9686,-0.0313 0.32286,-0.0107 0.64573,-0.0216 0.9686,-0.0327 0.32286,-0.0111 0.64573,-0.0226 0.9686,-0.0342 0.32287,-0.0116 0.64573,-0.0235 0.9686,-0.0357 0.32287,-0.0121 0.64573,-0.0246 0.9686,-0.0372 0.32287,-0.0127 0.64574,-0.0256 0.9686,-0.0388 0.32287,-0.0132 0.64574,-0.0267 0.9686,-0.0405 0.32287,-0.0138 0.64574,-0.0278 0.96861,-0.0423 0.32286,-0.0143 0.64573,-0.0291 0.9686,-0.044 0.32286,-0.015 0.64573,-0.0303 0.9686,-0.0459 0.32287,-0.0156 0.64573,-0.0315 0.9686,-0.0478 0.32287,-0.0162 0.64574,-0.0329 0.9686,-0.0498 0.32287,-0.017 0.64574,-0.0343 0.9686,-0.0519 0.32287,-0.0176 0.64574,-0.0357 0.96861,-0.054 0.32286,-0.0184 0.64573,-0.0371 0.9686,-0.0563 0.32286,-0.0191 0.64573,-0.0386 0.9686,-0.0586 0.32287,-0.0199 0.64573,-0.0403 0.9686,-0.061 0.32287,-0.0208 0.64573,-0.0418 0.9686,-0.0634 0.32287,-0.0216 0.64574,-0.0436 0.9686,-0.066 0.32287,-0.0224 0.64574,-0.0453 0.96861,-0.0686 0.32286,-0.0233 0.64573,-0.0471 0.9686,-0.0714 0.32286,-0.0242 0.64573,-0.049 0.9686,-0.0742 0.32286,-0.0252 0.64573,-0.0509 0.9686,-0.0771 0.32287,-0.0262 0.64573,-0.0529 0.9686,-0.0802 0.32287,-0.0273 0.64574,-0.055 0.9686,-0.0833 0.32287,-0.0282 0.64574,-0.0571 0.9686,-0.0865 0.32287,-0.0293 0.64574,-0.0593 0.96861,-0.0898 0.32286,-0.0305 0.64573,-0.0615 0.9686,-0.0932 0.32286,-0.0316 0.64573,-0.0639 0.9686,-0.0968 0.32286,-0.0329 0.64573,-0.0663 0.9686,-0.10041 0.32287,-0.0341 0.64573,-0.0688 0.9686,-0.10419 0.32287,-0.0353 0.64574,-0.0714 0.9686,-0.10806 0.32287,-0.0367 0.64574,-0.0741 0.9686,-0.11207 0.32287,-0.0381 0.64574,-0.0768 0.96861,-0.1162 0.32286,-0.0395 0.64573,-0.0796 0.9686,-0.12044 0.32286,-0.0409 0.64573,-0.0825 0.9686,-0.12482 0.32287,-0.0423 0.64573,-0.0855 0.9686,-0.12933 0.32287,-0.0439 0.64573,-0.0885 0.9686,-0.13397 0.32287,-0.0455 0.64574,-0.0917 0.96861,-0.13874 0.32286,-0.047 0.64573,-0.0949 0.9686,-0.14365 0.32287,-0.0487 0.64573,-0.0983 0.9686,-0.1487 0.32287,-0.0504 0.64573,-0.10173 0.9686,-0.15391 0.32287,-0.0522 0.64574,-0.10526 0.9686,-0.15925 0.32287,-0.0539 0.64574,-0.10889 0.96861,-0.16473 0.32286,-0.0558 0.64573,-0.11262 0.9686,-0.17037 0.32286,-0.0577 0.64573,-0.11646 0.9686,-0.17616 0.32287,-0.0597 0.64573,-0.1204 0.9686,-0.18211 0.32287,-0.0617 0.64573,-0.12445 0.9686,-0.18822 0.32287,-0.0638 0.64574,-0.1286 0.9686,-0.19449 0.32287,-0.0659 0.64574,-0.13285 0.9686,-0.20091 0.32287,-0.068 0.64574,-0.13722 0.96861,-0.20751 0.32286,-0.0703 0.64573,-0.1417 0.9686,-0.21426 0.32286,-0.0726 0.64573,-0.14629 0.9686,-0.2212 0.32287,-0.0749 0.64573,-0.151 0.9686,-0.2283 0.32287,-0.0773 0.64573,-0.15581 0.9686,-0.23557 0.32287,-0.0797 0.64574,-0.16076 0.9686,-0.24303 0.32287,-0.0823 0.64574,-0.16581 0.9686,-0.25065 0.32287,-0.0848 0.64574,-0.17099 0.96861,-0.25846 0.32286,-0.0875 0.64573,-0.17629 0.9686,-0.26646 0.32287,-0.0902 0.64573,-0.18171 0.9686,-0.27463 0.32287,-0.0929 0.64573,-0.18725 0.9686,-0.28299 0.32287,-0.0957 0.64573,-0.19291 0.9686,-0.29154 0.32287,-0.0986 0.64574,-0.1987 0.9686,-0.30027 0.32287,-0.10156 0.64574,-0.20462 0.9686,-0.30919 0.32287,-0.10457 0.64574,-0.21067 0.96861,-0.31831 0.32286,-0.10763 0.64573,-0.21684 0.9686,-0.32761 0.32287,-0.11078 0.64573,-0.22314 0.96859,-0.33711 0.32288,-0.11398 0.64574,-0.22957 0.96861,-0.34681 0.32286,-0.11723 0.64572,-0.23612 0.9686,-0.35669 0.32287,-0.12057 0.64574,-0.24282 0.9686,-0.36678 0.32287,-0.12396 0.64574,-0.24964 0.96861,-0.37706 0.32286,-0.12742 0.64573,-0.25659 0.9686,-0.38754 0.32286,-0.13094 0.64573,-0.26367 0.9686,-0.3982 0.32287,-0.13453 0.64573,-0.27088 0.9686,-0.40907 0.32287,-0.13819 0.64573,-0.27823 0.9686,-0.42014 0.32287,-0.14192 0.64574,-0.28571 0.9686,-0.43141 0.32287,-0.1457 0.64574,-0.29331 0.9686,-0.44286 0.32287,-0.14956 0.64574,-0.30105 0.96861,-0.45452 0.32286,-0.15347 0.64573,-0.30892 0.9686,-0.46637 0.32286,-0.15745 0.64573,-0.31692 0.9686,-0.47841 0.32287,-0.1615 0.64573,-0.32504 0.9686,-0.49065 0.32287,-0.16561 0.64573,-0.33329 0.9686,-0.50307 0.32287,-0.16978 0.64574,-0.34168 0.9686,-0.5157 0.32287,-0.17402 0.64574,-0.35018 0.9686,-0.5285 0.32287,-0.17832 0.64574,-0.35881 0.96861,-0.54149 0.32286,-0.18268 0.64573,-0.36757 0.9686,-0.55467 0.32287,-0.18711 0.64573,-0.37644 0.9686,-0.56804 0.32287,-0.19158 0.64573,-0.38543 0.9686,-0.58156 0.32287,-0.19614 0.64574,-0.39456 0.9686,-0.59529 0.32287,-0.20073 0.64574,-0.40378 0.9686,-0.60917 0.32287,-0.2054 0.64574,-0.41313 0.9686,-0.62324 0.32287,-0.21011 0.64574,-0.42259 0.96861,-0.63746 0.32286,-0.21487 0.64573,-0.43216 0.9686,-0.65186 0.32287,-0.2197 0.64573,-0.44183 0.9686,-0.6664 0.32287,-0.22457 0.64573,-0.45161 0.9686,-0.68111 0.32287,-0.2295 0.64574,-0.46148 0.9686,-0.69596 0.32287,-0.23448 0.64574,-0.47147 0.9686,-0.71097 0.32287,-0.2395 0.64574,-0.48154 0.96861,-0.72611 0.32286,-0.24457 0.64573,-0.4917 0.9686,-0.74139 0.32286,-0.24969 0.64573,-0.50196 0.9686,-0.7568 0.32287,-0.25484 0.64573,-0.51229 0.9686,-0.77233 0.32287,-0.26005 0.64573,-0.52271 0.9686,-0.78799 0.32287,-0.26528 0.64574,-0.5332 0.9686,-0.80376 0.32287,-0.27054 0.64574,-0.54375 0.9686,-0.81961 0.32287,-0.27587 0.64574,-0.5544 0.96861,-0.8356 0.32286,-0.2812 0.64573,-0.56509 0.9686,-0.85166 0.32286,-0.28657 0.64573,-0.57584 0.9686,-0.86781 0.32287,-0.29196 0.64573,-0.58664 0.9686,-0.88402 0.32287,-0.29739 0.64574,-0.5975 0.9686,-0.90033 0.32287,-0.30283 0.64574,-0.60839 0.9686,-0.91668 0.32287,-0.30829 0.64574,-0.61932 0.9686,-0.93309 0.32287,-0.31377 0.64574,-0.63028 0.96861,-0.94954 0.32286,-0.31927 0.64573,-0.64127 0.9686,-0.96603 0.32287,-0.32476 0.64573,-0.65228 0.9686,-0.98255 0.32287,-0.33027 0.64573,-0.6633 0.9686,-0.99908 0.32287,-0.33578 0.64574,-0.67432 0.9686,-1.01561 0.32287,-0.34129 0.64574,-0.68535 0.9686,-1.03215 0.32287,-0.3468 0.64574,-0.69636 0.96861,-1.04867 0.32286,-0.35231 0.64573,-0.70737 0.9686,-1.06517 0.32286,-0.3578 0.64573,-0.71836 0.9686,-1.08164 0.32287,-0.36328 0.64573,-0.72931 0.9686,-1.09805 0.32287,-0.36876 0.64573,-0.74024 0.9686,-1.11443 0.32287,-0.37419 0.64574,-0.75111 0.9686,-1.13072 0.32287,-0.37961 0.64574,-0.76194 0.9686,-1.14694 0.32287,-0.38501 0.64574,-0.77271 0.96861,-1.16308 0.32286,-0.39036 0.64573,-0.78341 0.9686,-1.1791 0.32286,-0.39568 0.64573,-0.79403 0.9686,-1.195 0.32287,-0.40097 0.64573,-0.80459 0.9686,-1.2108 0.32287,-0.40622 0.64573,-0.81504 0.96861,-1.22644 0.32286,-0.4114 0.64572,-0.8254 0.9686,-1.24195 0.32286,-0.41653 0.64573,-0.83564 0.9686,-1.25727 0.32286,-0.42162 0.64573,-0.84578 0.9686,-1.27242 0.32286,-0.42664 0.64573,-0.85579 0.9686,-1.28738 0.32287,-0.43161 0.64573,-0.86567 0.9686,-1.30216 0.32287,-0.43648 0.64573,-0.87539 0.9686,-1.31669 0.32287,-0.44129 0.64573,-0.88498 0.96861,-1.331 0.32286,-0.44603 0.64572,-0.89441 0.9686,-1.34508 0.32286,-0.45067 0.64572,-0.90365 0.9686,-1.35889 0.32286,-0.45523 0.64573,-0.91273 0.9686,-1.37243 0.32286,-0.45969 0.64573,-0.92161 0.9686,-1.38568 0.32286,-0.46407 0.64573,-0.93031 0.9686,-1.39864 0.32287,-0.46835 0.64573,-0.9388 0.9686,-1.4113 0.32287,-0.4725 0.64573,-0.94706 0.9686,-1.42361 0.32287,-0.47655 0.64574,-0.9551 0.96861,-1.43559 0.32286,-0.48049 0.64573,-0.96292 0.9686,-1.44722 0.32286,-0.4843 0.64573,-0.97049 0.9686,-1.45848 0.32286,-0.488 0.64573,-0.97781 0.9686,-1.46937 0.32286,-0.49155 0.64573,-0.98486 0.9686,-1.47984 0.32287,-0.49498 0.64574,-0.99165 0.9686,-1.48992 0.32287,-0.49827 0.64574,-0.99816 0.9686,-1.49958 m 169.50526,0 c 0.32286,0.50142 0.64573,1.00131 0.9686,1.49958 0.32286,0.49828 0.64573,0.99493 0.9686,1.48992 0.32286,0.49499 0.64573,0.98828 0.9686,1.47984 0.32287,0.49157 0.64573,0.98137 0.9686,1.46937 0.32287,0.48799 0.64573,0.97417 0.9686,1.45848 0.32287,0.4843 0.64573,0.96673 0.96861,1.44722 0.32286,0.48049 0.64572,0.95904 0.9686,1.43559 0.32286,0.47655 0.64573,0.95111 0.9686,1.42361 0.32286,0.47251 0.64573,0.94295 0.9686,1.4113 0.32286,0.46833 0.64573,0.93457 0.9686,1.39864 0.32287,0.46407 0.64573,0.92598 0.9686,1.38568 0.32287,0.45971 0.64574,0.9172 0.9686,1.37243 0.32287,0.45524 0.64574,0.90821 0.96861,1.35889 0.32286,0.45068 0.64573,0.89905 0.9686,1.34508 0.32286,0.44603 0.64573,0.8897 0.9686,1.331 0.32286,0.4413 0.64573,0.88021 0.9686,1.31669 0.32286,0.43649 0.64574,0.87055 0.9686,1.30216 0.32286,0.43159 0.64574,0.86073 0.9686,1.28738 0.32287,0.42665 0.64574,0.8508 0.9686,1.27242 0.32287,0.42163 0.64574,0.84073 0.9686,1.25727 0.32287,0.41655 0.64574,0.83054 0.96861,1.24195 0.32286,0.4114 0.64573,0.82022 0.9686,1.22644 0.32286,0.40622 0.64573,0.80982 0.9686,1.2108 0.32286,0.40098 0.64574,0.79931 0.9686,1.195 0.32286,0.3957 0.64574,0.78873 0.9686,1.1791 0.32287,0.39037 0.64574,0.77806 0.9686,1.16308 0.32287,0.38501 0.64574,0.76732 0.9686,1.14694 0.32287,0.37962 0.64574,0.75652 0.96861,1.13072 0.32286,0.3742 0.64573,0.74567 0.9686,1.11443 0.32286,0.36874 0.64573,0.73476 0.9686,1.09805 0.32286,0.36329 0.64574,0.72383 0.9686,1.08164 0.32287,0.3578 0.64574,0.71286 0.9686,1.06517 0.32287,0.35231 0.64574,0.70186 0.9686,1.04867 0.32287,0.34681 0.64574,0.69085 0.9686,1.03215 0.32287,0.3413 0.64574,0.67983 0.9686,1.01561 0.32288,0.33579 0.64574,0.66881 0.96861,0.99908 0.32287,0.33027 0.64573,0.65778 0.9686,0.98255 0.32287,0.32476 0.64573,0.64676 0.9686,0.96603 0.32287,0.31926 0.64574,0.63577 0.9686,0.94954 0.32287,0.31377 0.64574,0.6248 0.9686,0.93309 0.32288,0.30829 0.64574,0.61385 0.9686,0.91668 0.32288,0.30283 0.64574,0.60293 0.9686,0.90033 0.32288,0.29738 0.64574,0.59205 0.96861,0.88402 0.32287,0.29198 0.64573,0.58123 0.9686,0.86781 0.32287,0.28657 0.64573,0.57045 0.9686,0.85166 0.32287,0.2812 0.64574,0.55973 0.9686,0.8356 0.32287,0.27586 0.64574,0.54906 0.9686,0.81961 0.32287,0.27057 0.64574,0.53847 0.9686,0.80376 0.32288,0.26528 0.64574,0.52794 0.9686,0.78799 0.32288,0.26004 0.64574,0.51748 0.96861,0.77233 0.32287,0.25485 0.64573,0.5071 0.9686,0.7568 0.32287,0.2497 0.64573,0.49681 0.9686,0.74139 0.32287,0.24458 0.64574,0.4866 0.9686,0.72611 0.32287,0.23951 0.64574,0.47648 0.9686,0.71097 0.32287,0.23448 0.64574,0.46646 0.96861,0.69596 0.32287,0.22951 0.64573,0.45653 0.9686,0.68111 0.32287,0.22458 0.64573,0.4467 0.9686,0.6664 0.32287,0.21971 0.64573,0.43698 0.9686,0.65186 0.32287,0.21488 0.64573,0.42735 0.96861,0.63746 0.32286,0.21011 0.64572,0.41784 0.9686,0.62324 0.32286,0.20539 0.64573,0.40844 0.9686,0.60917 0.32286,0.20073 0.64573,0.39915 0.9686,0.59529 0.32286,0.19613 0.64573,0.38997 0.9686,0.58156 0.32287,0.1916 0.64573,0.38092 0.9686,0.56804 0.32287,0.18711 0.64573,0.37198 0.9686,0.55467 0.32287,0.18268 0.64573,0.36317 0.96861,0.54149 0.32286,0.17832 0.64572,0.35448 0.9686,0.5285 0.32286,0.17403 0.64573,0.34591 0.9686,0.5157 0.32286,0.16978 0.64573,0.33746 0.9686,0.50307 0.32286,0.16561 0.64573,0.32915 0.9686,0.49065 0.32287,0.1615 0.64573,0.32095 0.9686,0.47841 0.32287,0.15746 0.64573,0.3129 0.9686,0.46637 0.32287,0.15347 0.64573,0.30496 0.96861,0.45452 0.32286,0.14955 0.64573,0.29716 0.9686,0.44286 0.32286,0.1457 0.64573,0.28949 0.9686,0.43141 0.32286,0.14191 0.64573,0.28195 0.9686,0.42014 0.32286,0.13819 0.64573,0.27453 0.9686,0.40907 0.32286,0.13454 0.64574,0.26726 0.9686,0.3982 0.32287,0.13095 0.64574,0.26012 0.9686,0.38754 0.32287,0.12742 0.64574,0.25309 0.9686,0.37706 0.32287,0.12396 0.64574,0.24621 0.96861,0.36678 0.32286,0.12057 0.64573,0.23945 0.9686,0.35669 0.32286,0.11724 0.64574,0.23283 0.9686,0.34681 0.32286,0.11397 0.64574,0.22633 0.9686,0.33711 0.32286,0.11078 0.64574,0.21997 0.9686,0.32761 0.32287,0.10765 0.64574,0.21374 0.9686,0.31831 0.32287,0.10458 0.64574,0.20763 0.9686,0.30919 0.32287,0.10157 0.64574,0.20165 0.96861,0.30027 0.32286,0.0986 0.64573,0.1958 0.9686,0.29154 0.32286,0.0957 0.64573,0.19006 0.9686,0.28299 0.32286,0.0929 0.64574,0.18446 0.9686,0.27463 0.32286,0.0902 0.64574,0.17897 0.9686,0.26646 0.32287,0.0875 0.64574,0.17361 0.9686,0.25846 0.32287,0.0848 0.64574,0.16838 0.9686,0.25065 0.32287,0.0823 0.64574,0.16327 0.9686,0.24303 0.32287,0.0797 0.64574,0.15827 0.96861,0.23557 0.32286,0.0773 0.64573,0.1534 0.9686,0.2283 0.32287,0.0749 0.64574,0.14863 0.9686,0.2212 0.32287,0.0726 0.64574,0.14398 0.9686,0.21426 0.32287,0.0703 0.64574,0.13945 0.9686,0.20751 0.32287,0.068 0.64574,0.13502 0.9686,0.20091 0.32288,0.0659 0.64574,0.13071 0.9686,0.19449 0.32288,0.0637 0.64574,0.12651 0.96861,0.18822 0.32287,0.0617 0.64573,0.1224 0.9686,0.18211 0.32287,0.0597 0.64573,0.11841 0.9686,0.17616 0.32287,0.0577 0.64574,0.11453 0.9686,0.17037 0.32287,0.0558 0.64574,0.11075 0.9686,0.16473 0.32287,0.054 0.64574,0.10706 0.9686,0.15925 0.32288,0.0521 0.64574,0.10348 0.9686,0.15391 0.32288,0.0504 0.64574,0.1 0.9686,0.1487 0.32288,0.0487 0.64574,0.0966 0.96861,0.14365 0.32287,0.047 0.64573,0.0933 0.9686,0.13874 0.32287,0.0455 0.64574,0.0901 0.9686,0.13397 0.32287,0.0439 0.64574,0.087 0.9686,0.12933 0.32287,0.0423 0.64574,0.0839 0.9686,0.12482 0.32288,0.0409 0.64574,0.081 0.96861,0.12044 0.32287,0.0395 0.64573,0.0782 0.9686,0.1162 0.32287,0.038 0.64573,0.0754 0.9686,0.11207 0.32287,0.0366 0.64573,0.0726 0.9686,0.10806 0.32287,0.0353 0.64573,0.0701 0.9686,0.10419 0.32287,0.0341 0.64574,0.0675 0.96861,0.10041 0.32286,0.0329 0.64573,0.0651 0.9686,0.0968 0.32286,0.0316 0.64573,0.0627 0.9686,0.0932 0.32287,0.0305 0.64573,0.0605 0.9686,0.0898 0.32287,0.0294 0.64573,0.0582 0.9686,0.0865 0.32287,0.0283 0.64573,0.056 0.96861,0.0833 0.32286,0.0273 0.64572,0.0539 0.9686,0.0802 0.32286,0.0262 0.64573,0.0519 0.9686,0.0771 0.32286,0.0252 0.64573,0.0499 0.9686,0.0742 0.32286,0.0243 0.64573,0.048 0.9686,0.0714 0.32287,0.0233 0.64573,0.0462 0.9686,0.0686 0.32287,0.0224 0.64573,0.0444 0.9686,0.066 0.32287,0.0216 0.64573,0.0427 0.96861,0.0634 0.32286,0.0208 0.64572,0.041 0.9686,0.061 0.32286,0.0199 0.64573,0.0394 0.9686,0.0586 0.32286,0.0191 0.64573,0.0379 0.9686,0.0563 0.32286,0.0184 0.64573,0.0364 0.9686,0.054 0.32286,0.0176 0.64573,0.0349 0.9686,0.0519 0.32287,0.017 0.64573,0.0335 0.9686,0.0498 0.32287,0.0163 0.64574,0.0322 0.9686,0.0478 0.32287,0.0156 0.64574,0.0309 0.96861,0.0459 0.32286,0.015 0.64573,0.0297 0.9686,0.044 0.32286,0.0143 0.64573,0.0284 0.9686,0.0423 0.32286,0.0138 0.64574,0.0273 0.9686,0.0405 0.32286,0.0133 0.64574,0.0262 0.9686,0.0388 0.32287,0.0127 0.64574,0.025 0.9686,0.0372 0.32287,0.0121 0.64574,0.024 0.9686,0.0357 0.32287,0.0116 0.64574,0.0231 0.96861,0.0342 0.32286,0.0111 0.64573,0.0221 0.9686,0.0327 0.32286,0.0107 0.64573,0.0211 0.9686,0.0313 0.32286,0.0102 0.64574,0.0203 0.9686,0.03 0.32286,0.01 0.64574,0.0194 0.9686,0.0288 0.32286,0.009 0.64574,0.0185 0.9686,0.0275 0.32287,0.009 0.64574,0.0177 0.9686,0.0263 0.32287,0.009 0.64574,0.017 0.96861,0.0252 0.32286,0.008 0.64573,0.0162 0.9686,0.024 0.32286,0.008 0.64573,0.0155 0.9686,0.023 0.32286,0.007 0.64574,0.0148 0.9686,0.022 0.32287,0.007 0.64574,0.0142 0.9686,0.021 0.32287,0.007 0.64574,0.0135 0.9686,0.0201 0.32287,0.007 0.64574,0.0129 0.9686,0.0192 0.32287,0.007 0.64574,0.0124 0.9686,0.0184 0.32287,0.006 0.64574,0.0118 0.96861,0.0175 0.32287,0.006 0.64573,0.0113 0.9686,0.0167 0.32287,0.006 0.64573,0.0108 0.9686,0.016 0.32287,0.005 0.64574,0.0103 0.9686,0.0152 0.32287,0.005 0.64574,0.01 0.9686,0.0146 0.32287,0.005 0.64574,0.009 0.9686,0.0138 0.32288,0.004 0.64574,0.009 0.9686,0.0133 0.32288,0.004 0.64574,0.008 0.96861,0.0126 l 0.9686,0.012 c 0.32287,0.004 0.64573,0.007 0.9686,0.0115 0.32287,0.004 0.64574,0.007 0.9686,0.011 0.32287,0.003 0.64574,0.007 0.9686,0.0104 0.32287,0.003 0.64574,0.007 0.9686,0.01 0.32288,0.003 0.64574,0.007 0.9686,0.009 l 0.96861,0.009 0.9686,0.009 c 0.32287,0.002 0.64573,0.006 0.9686,0.008 0.32287,0.002 0.64573,0.005 0.9686,0.007 0.32287,0.002 0.64574,0.005 0.9686,0.007 0.32287,0.002 0.64574,0.005 0.96861,0.007 0.32286,0.002 0.64573,0.004 0.9686,0.007 0.32287,0.002 0.64573,0.004 0.9686,0.007 l 0.9686,0.006 0.96861,0.006 c 0.32286,0.002 0.64572,0.003 0.9686,0.006 0.32286,0.002 0.64573,0.003 0.9686,0.005 0.32286,0.002 0.64573,0.003 0.9686,0.005 0.32286,0.002 0.64573,0.003 0.9686,0.005 0.32287,0.002 0.64573,0.003 0.9686,0.004 0.32287,0.002 0.64573,0.002 0.9686,0.004 0.32287,0.002 0.64573,0.002 0.96861,0.004 0.32286,0.002 0.64572,0.002 0.9686,0.004 0.32286,8.2e-4 0.64572,0.002 0.9686,0.003 0.32286,8.3e-4 0.64573,0.002 0.9686,0.003 0.32286,8.2e-4 0.64573,0.002 0.9686,0.003 0.32286,8.3e-4 0.64573,0.002 0.9686,0.003 0.32287,8.2e-4 0.64573,0.002 0.9686,0.003 0.32287,8.3e-4 0.64573,0.002 0.96861,0.002 0.32286,8.3e-4 0.64573,0.002 0.9686,0.002 0.32286,8.2e-4 0.64573,0.002 0.9686,0.002 0.32286,7.9e-4 0.64573,0.002 0.9686,0.002 0.32286,7.6e-4 0.64573,0.002 0.9686,0.002 0.32286,7.1e-4 0.64573,0.002 0.9686,0.002 0.32287,6.8e-4 0.64574,0.002 0.9686,0.002 0.32287,6.4e-4 0.64574,0.002 0.9686,0.002 0.32287,6e-4 0.64574,8.2e-4 0.96861,0.002 0.32286,5.7e-4 0.64573,8.3e-4 0.9686,0.002 0.32286,5.4e-4 0.64573,8.2e-4 0.9686,0.002 0.32286,5.1e-4 0.64574,8.2e-4 0.9686,0.002 0.32286,4.8e-4 0.64574,8.2e-4 0.9686,0.002"
     title="exp(-x*x)"
     id="path880" /><path
     style="fill:none;fill-rule:evenodd;stroke:#000000;stroke-width:1.89750767;stroke-linecap:butt;stroke-linejoin:miter;stroke-miterlimit:4;stroke-dasharray:none;stroke-opacity:1;marker-end:url(#Arrow1Mend-9-7-7)"
     d="M 39.840266,69.844028 633.94171,68.985508"
     id="path4447-2-5-4"
     inkscape:connector-curvature="0" /><path
     inkscape:connector-curvature="0"
     id="path4514-3-1-3-5"
     d="M 429.91777,6.0576262 V 68.563448"
     style="fill:none;fill-rule:evenodd;stroke:#000000;stroke-width:2.50001015;stroke-linecap:butt;stroke-linejoin:miter;stroke-miterlimit:4;stroke-dasharray:none;stroke-dashoffset:0;stroke-opacity:1" /><path
     inkscape:connector-curvature="0"
     id="path4514-7-6-5-9-0"
     d="M 461.98175,6.0576262 V 68.563448"
     style="fill:none;fill-rule:evenodd;stroke:#000000;stroke-width:2.50001015;stroke-linecap:butt;stroke-linejoin:miter;stroke-miterlimit:4;stroke-dasharray:none;stroke-dashoffset:0;stroke-opacity:1" /><path
     inkscape:connector-curvature="0"
     id="path4514-7-0-0-9-0-3"
     d="M 494.21329,6.0576462 V 68.563448"
     style="fill:none;fill-rule:evenodd;stroke:#000000;stroke-width:2.50001015;stroke-linecap:butt;stroke-linejoin:miter;stroke-miterlimit:4;stroke-dasharray:none;stroke-dashoffset:0;stroke-opacity:1" /><path
     inkscape:connector-curvature="0"
     id="path4514-3-2-4-8-6"
     d="M 236.52849,6.0576262 V 68.563448"
     style="fill:none;fill-rule:evenodd;stroke:#000000;stroke-width:2.50001015;stroke-linecap:butt;stroke-linejoin:miter;stroke-miterlimit:4;stroke-dasharray:none;stroke-dashoffset:0;stroke-opacity:1" /><path
     inkscape:connector-curvature="0"
     id="path4514-7-9-5-0"
     d="M 365.45467,6.0576162 V 68.563448"
     style="fill:none;fill-rule:evenodd;stroke:#000000;stroke-width:2.50001015;stroke-linecap:butt;stroke-linejoin:miter;stroke-miterlimit:4;stroke-dasharray:none;stroke-dashoffset:0;stroke-opacity:1" /><path
     inkscape:connector-curvature="0"
     id="path4514-7-0-1-0-6"
     d="M 397.68622,6.0576362 V 68.563448"
     style="fill:none;fill-rule:evenodd;stroke:#000000;stroke-width:2.50001015;stroke-linecap:butt;stroke-linejoin:miter;stroke-miterlimit:4;stroke-dasharray:none;stroke-dashoffset:0;stroke-opacity:1" /><path
     inkscape:connector-curvature="0"
     id="path4514-7-6-6-7-9-3"
     d="M 268.59247,6.0576262 V 68.563448"
     style="fill:none;fill-rule:evenodd;stroke:#000000;stroke-width:2.50001015;stroke-linecap:butt;stroke-linejoin:miter;stroke-miterlimit:4;stroke-dasharray:none;stroke-dashoffset:0;stroke-opacity:1" /><path
     inkscape:connector-curvature="0"
     id="path4514-7-0-0-1-7-6-2"
     d="M 300.82401,6.0576462 V 68.563448"
     style="fill:none;fill-rule:evenodd;stroke:#000000;stroke-width:2.50001015;stroke-linecap:butt;stroke-linejoin:miter;stroke-miterlimit:4;stroke-dasharray:none;stroke-dashoffset:0;stroke-opacity:1" /><path
     inkscape:connector-curvature="0"
     id="path4514-3-2-7-1-3-0"
     d="M 139.83385,6.0576262 V 68.563448"
     style="fill:none;fill-rule:evenodd;stroke:#000000;stroke-width:2.50001015;stroke-linecap:butt;stroke-linejoin:miter;stroke-miterlimit:4;stroke-dasharray:none;stroke-dashoffset:0;stroke-opacity:1" /><path
     inkscape:connector-curvature="0"
     id="path4514-7-6-6-9-1-8-6"
     d="M 171.89783,6.0576262 V 68.563448"
     style="fill:none;fill-rule:evenodd;stroke:#000000;stroke-width:2.50001015;stroke-linecap:butt;stroke-linejoin:miter;stroke-miterlimit:4;stroke-dasharray:none;stroke-dashoffset:0;stroke-opacity:1" /><path
     inkscape:connector-curvature="0"
     id="path4514-7-0-0-1-2-5-5-1"
     d="M 204.12937,6.0576462 V 68.563448"
     style="fill:none;fill-rule:evenodd;stroke:#000000;stroke-width:2.50001015;stroke-linecap:butt;stroke-linejoin:miter;stroke-miterlimit:4;stroke-dasharray:none;stroke-dashoffset:0;stroke-opacity:1" /><path
     inkscape:connector-curvature="0"
     id="path4514-3-2-7-2-9-6-55"
     d="M 526.61241,6.0576262 V 68.563448"
     style="fill:none;fill-rule:evenodd;stroke:#000000;stroke-width:2.50001015;stroke-linecap:butt;stroke-linejoin:miter;stroke-miterlimit:4;stroke-dasharray:none;stroke-dashoffset:0;stroke-opacity:1" /><path
     inkscape:connector-curvature="0"
     id="path4514-7-6-6-9-3-7-1-4"
     d="M 558.67638,6.0576262 V 68.563448"
     style="fill:none;fill-rule:evenodd;stroke:#000000;stroke-width:2.50001015;stroke-linecap:butt;stroke-linejoin:miter;stroke-miterlimit:4;stroke-dasharray:none;stroke-dashoffset:0;stroke-opacity:1" /><path
     inkscape:connector-curvature="0"
     id="path4514-7-9-5-0-9"
     d="M 334.03985,6.9076352 V 69.413468"
     style="fill:none;fill-rule:evenodd;stroke:#000000;stroke-width:2.50001015;stroke-linecap:butt;stroke-linejoin:miter;stroke-miterlimit:4;stroke-dasharray:none;stroke-dashoffset:0;stroke-opacity:1" /><path
     style="fill:none;fill-rule:evenodd;stroke:#000000;stroke-width:1.89750771;stroke-linecap:butt;stroke-linejoin:miter;stroke-miterlimit:4;stroke-dasharray:none;stroke-opacity:1;marker-end:url(#Arrow1Mend-9)"
     d="M 39.409021,462.30822 633.51046,461.4497"
     id="path4447-2"
     inkscape:connector-curvature="0" /><path
     sodipodi:nodetypes="cc"
     style="fill:none;fill-rule:evenodd;stroke:#000000;stroke-width:1.89750771;stroke-linecap:butt;stroke-linejoin:miter;stroke-miterlimit:4;stroke-dasharray:none;stroke-opacity:1;marker-end:url(#Arrow1Mend-3-4)"
     d="M 39.409021,462.30822 39.02243,331.4281"
     id="path4447-7-2"
     inkscape:connector-curvature="0" /><path
     sodipodi:nodetypes="ccccsccccccsccccccsccccccccccccscccccccccccssscccccssccccccscscccscccccsccccccsccccccccccccccccccccsscccsscccccsscccccsssccccscccccsccccccssccccsscccccccccccccsccccssccccccccc"
     inkscape:connector-curvature="0"
     style="opacity:1;fill:none;fill-opacity:1;stroke:#d40000;stroke-width:2.50001015;stroke-linecap:round;stroke-linejoin:round;stroke-miterlimit:4;stroke-dasharray:none;stroke-dashoffset:0;stroke-opacity:1"
     d="m 247.01539,219.0281 c 0.32287,-0.50143 0.64574,-1.00439 0.96861,-1.5088 0.32286,-0.50442 0.64573,-1.0103 0.9686,-1.51757 0.32286,-0.50727 0.64573,-1.01591 0.9686,-1.52588 0.32286,-0.50995 0.64574,-1.02121 0.9686,-1.5337 0.32286,-0.51249 0.64574,-1.02622 0.9686,-1.54108 0.32286,-0.51484 0.64574,-1.03085 0.9686,-1.5479 0.32287,-0.51706 0.64574,-1.03517 0.9686,-1.55424 0.32287,-0.51907 0.64574,-1.03912 0.9686,-1.56006 0.32287,-0.52092 0.64574,-1.04273 0.96861,-1.56533 0.32286,-0.52258 0.64573,-1.04597 0.9686,-1.57004 0.32286,-0.52407 0.64574,-1.04885 0.9686,-1.57422 0.32286,-0.52537 0.64574,-1.05132 0.9686,-1.57779 0.32287,-0.52648 0.64574,-1.05345 0.9686,-1.58082 0.32287,-0.52737 0.64574,-1.05515 0.9686,-1.58322 0.32287,-0.52809 0.64574,-1.05647 0.9686,-1.58504 0.32287,-0.5286 0.64574,-1.05737 0.96861,-1.58624 0.32286,-0.52887 0.64573,-1.05784 0.9686,-1.58681 0.32287,-0.52896 0.64573,-1.05792 0.9686,-1.58675 0.32287,-0.52883 0.64574,-1.05755 0.9686,-1.58605 0.32287,-0.52849 0.64574,-1.05675 0.9686,-1.58469 0.32287,-0.52793 0.64574,-1.05553 0.9686,-1.58268 0.32288,-0.52716 0.64574,-1.05386 0.9686,-1.58 0.32288,-0.52616 0.64574,-1.05174 0.96861,-1.57666 0.32287,-0.52491 0.64573,-1.04915 0.9686,-1.57261 0.32287,-0.52347 0.64573,-1.04614 0.9686,-1.56791 0.32287,-0.52176 0.64574,-1.04263 0.9686,-1.56248 0.32287,-0.51985 0.64574,-1.03868 0.9686,-1.55637 0.32287,-0.5177 0.64574,-1.03425 0.9686,-1.54956 0.32288,-0.5153 0.64574,-1.02935 0.9686,-1.54203 0.32288,-0.51268 0.64574,-1.02398 0.9686,-1.5338 0.32288,-0.50981 0.64574,-1.01813 0.96861,-1.52484 0.32287,-0.50671 0.64573,-1.01181 0.9686,-1.51517 0.32287,-0.50337 0.64573,-1.005 0.9686,-1.50479 0.32287,-0.49978 0.64574,-0.99771 0.9686,-1.49367 0.32287,-0.49596 0.64574,-0.98994 0.9686,-1.48183 0.32287,-0.49189 0.64574,-0.98168 0.96861,-1.46927 0.32287,-0.48758 0.64573,-0.97295 0.9686,-1.45598 0.32287,-0.48304 0.64573,-0.96373 0.9686,-1.44198 0.32287,-0.47824 0.64573,-0.95402 0.9686,-1.42724 0.32287,-0.47321 0.64573,-0.94384 0.9686,-1.41178 0.32287,-0.46795 0.64574,-0.93319 0.96861,-1.39562 0.32286,-0.46243 0.64573,-0.92204 0.9686,-1.37872 0.32286,-0.45669 0.64573,-0.91043 0.9686,-1.36113 0.32287,-0.4507 0.64573,-0.89833 0.9686,-1.34281 0.32287,-0.44448 0.64573,-0.88578 0.9686,-1.3238 0.32287,-0.43802 0.64573,-0.87275 0.96861,-1.30409 0.32286,-0.43133 0.64572,-0.85926 0.9686,-1.28368 0.32286,-0.42442 0.64572,-0.84532 0.9686,-1.2626 0.32286,-0.41727 0.64573,-0.83091 0.9686,-1.24082 0.32286,-0.40991 0.64573,-0.81607 0.9686,-1.21839 0.32286,-0.40232 0.64573,-0.80077 0.9686,-1.19528 0.32287,-0.39451 0.64573,-0.78505 0.9686,-1.17153 0.32287,-0.38648 0.64573,-0.76889 0.96861,-1.14713 0.32286,-0.37824 0.64572,-0.7523 0.9686,-1.12209 0.32286,-0.3698 0.64572,-0.7353 0.9686,-1.09644 0.32286,-0.36114 0.64573,-0.71789 0.9686,-1.07017 0.32286,-0.35228 0.64573,-0.70007 0.9686,-1.0433 0.32286,-0.34323 0.64573,-0.68187 0.9686,-1.01584 0.32287,-0.33398 0.64573,-0.66328 0.9686,-0.98782 0.32287,-0.32454 0.64574,-0.6443 0.9686,-0.95922 0.32287,-0.31491 0.64574,-0.62496 0.96861,-0.93008 0.32286,-0.30511 0.64573,-0.60527 0.9686,-0.9004 0.32286,-0.29514 0.64573,-0.58523 0.9686,-0.87022 0.32286,-0.28499 0.64573,-0.56485 0.9686,-0.83953 0.32286,-0.27468 0.64574,-0.54414 0.9686,-0.80835 0.32286,-0.26421 0.64574,-0.52312 0.9686,-0.7767 0.32287,-0.25358 0.64574,-0.5018 0.9686,-0.74461 0.32287,-0.2428 0.64574,-0.48017 0.96861,-0.71207 0.32286,-0.23189 0.64573,-0.45827 0.9686,-0.67912 0.32286,-0.22084 0.64573,-0.4361 0.9686,-0.64576 0.32286,-0.20966 0.64574,-0.41368 0.9686,-0.61204 0.32286,-0.19836 0.64574,-0.39101 0.9686,-0.57795 0.32286,-0.18693 0.64574,-0.36811 0.9686,-0.54351 0.32287,-0.1754 0.64574,-0.34499 0.9686,-0.50875 0.32287,-0.16377 0.64574,-0.32167 0.9686,-0.4737 0.32287,-0.15203 0.64574,-0.29815 0.96861,-0.43836 0.32286,-0.14021 0.64573,-0.27446 0.9686,-0.40276 0.32286,-0.12829 0.64573,-0.2506 0.9686,-0.36691 0.32287,-0.11631 0.64574,-0.2266 0.9686,-0.33085 0.32287,-0.10426 0.64574,-0.20246 0.9686,-0.2946 0.32287,-0.0921 0.64574,-0.17819 0.9686,-0.25815 0.32287,-0.08 0.64574,-0.15382 0.9686,-0.22157 0.32287,-0.0677 0.64574,-0.12936 0.96861,-0.18484 0.32287,-0.0555 0.64573,-0.10482 0.9686,-0.14801 0.32287,-0.0432 0.64573,-0.0802 0.9686,-0.11109 0.32287,-0.0309 0.64574,-0.0556 0.9686,-0.0741 0.32287,-0.0185 0.64574,-0.0309 0.9686,-0.0371 0.32287,-0.006 0.64574,-0.006 0.9686,0 0.32288,0.006 0.64574,0.0185 0.9686,0.0371 0.32288,0.0185 0.64574,0.0432 0.9686,0.0741 0.32288,0.0309 0.64574,0.0679 0.96861,0.11109 0.32287,0.0432 0.64573,0.0925 0.9686,0.14801 0.32287,0.0555 0.64573,0.1171 0.9686,0.18484 0.32287,0.0677 0.64574,0.14161 0.9686,0.22157 0.32287,0.08 0.64574,0.16602 0.9686,0.25815 0.32287,0.0921 0.64574,0.19035 0.9686,0.2946 0.32288,0.10424 0.64574,0.21455 0.9686,0.33085 0.32288,0.1163 0.64574,0.23863 0.96861,0.36691 0.32287,0.12829 0.64573,0.26257 0.9686,0.40276 0.32287,0.14019 0.64573,0.28634 0.9686,0.43836 0.32287,0.15202 0.64574,0.30994 0.9686,0.4737 0.32287,0.16375 0.64574,0.33336 0.96861,0.50875 0.32286,0.17539 0.64573,0.35659 0.9686,0.54351 0.32287,0.18693 0.64573,0.37961 0.9686,0.57795 0.32287,0.19834 0.64573,0.40239 0.9686,0.61204 0.32287,0.20965 0.64573,0.42493 0.9686,0.64576 0.32287,0.22084 0.64573,0.44724 0.96861,0.67912 0.32286,0.23189 0.64572,0.46928 0.9686,0.71207 0.32286,0.2428 0.64573,0.49104 0.9686,0.74461 0.32286,0.25357 0.64573,0.5125 0.9686,0.7767 0.32286,0.2642 0.64573,0.53368 0.9686,0.80835 0.32287,0.27467 0.64573,0.55455 0.9686,0.83953 0.32287,0.28498 0.64573,0.57509 0.96861,0.87022 0.32286,0.29512 0.64572,0.5953 0.9686,0.9004 0.32286,0.30511 0.64572,0.61518 0.9686,0.93008 0.32286,0.31491 0.64573,0.63469 0.9686,0.95922 0.32286,0.32454 0.64573,0.65385 0.9686,0.98782 0.32286,0.33397 0.64573,0.67262 0.9686,1.01584 0.32287,0.34322 0.64573,0.69103 0.9686,1.0433 0.32287,0.35227 0.64573,0.70904 0.9686,1.07017 0.32287,0.36113 0.64573,0.72665 0.96861,1.09644 0.32286,0.36978 0.64573,0.74386 0.9686,1.12209 0.32286,0.37824 0.64573,0.76066 0.9686,1.14713 0.32286,0.38647 0.64573,0.77703 0.9686,1.17153 0.32286,0.3945 0.64573,0.79297 0.9686,1.19528 0.32287,0.40231 0.64574,0.80849 0.9686,1.21839 0.32287,0.4099 0.64574,0.82355 0.9686,1.24082 0.32287,0.41727 0.64574,0.83818 0.96861,1.2626 0.32286,0.42441 0.64573,0.85235 0.9686,1.28368 0.32286,0.43133 0.64573,0.86607 0.9686,1.30409 0.32286,0.43802 0.64574,0.87933 0.9686,1.3238 0.32286,0.44447 0.64574,0.89212 0.9686,1.34281 0.32286,0.4507 0.64574,0.90445 0.9686,1.36113 0.32287,0.45667 0.64574,0.91629 0.9686,1.37872 0.32287,0.46243 0.64574,0.92768 0.9686,1.39562 0.32287,0.46793 0.64574,0.93857 0.96861,1.41178 0.32286,0.47321 0.64573,0.949 0.9686,1.42724 0.32286,0.47824 0.64573,0.95895 0.96859,1.44198 0.32286,0.48303 0.64575,0.9684 0.96861,1.45598 0.32286,0.48758 0.64573,0.97738 0.96859,1.46927 0.32288,0.49189 0.64574,0.98588 0.9686,1.48183 0.32287,0.49596 0.64574,0.99389 0.9686,1.49367 0.32287,0.49978 0.64574,1.00142 0.96861,1.50479 0.32286,0.50336 0.64573,1.00846 0.9686,1.51517 0.32287,0.50671 0.64573,1.01503 0.9686,1.52484 0.32287,0.50981 0.64574,1.02112 0.9686,1.5338 0.32287,0.51268 0.64574,1.02673 0.9686,1.54203 0.32287,0.5153 0.64574,1.03186 0.9686,1.54956 0.32287,0.51769 0.64574,1.03652 0.9686,1.55637 0.32288,0.51984 0.64574,1.04072 0.9686,1.56248 0.32288,0.52177 0.64574,1.04444 0.96861,1.56791 0.32287,0.52345 0.64573,1.0477 0.9686,1.57261 0.32287,0.52492 0.64573,1.0505 0.9686,1.57666 0.32287,0.52614 0.64574,1.05285 0.9686,1.58 0.32287,0.52715 0.64574,1.05475 0.9686,1.58268 0.32288,0.52794 0.64574,1.0562 0.9686,1.58469 0.32288,0.5285 0.64574,1.05722 0.9686,1.58605 0.32288,0.52883 0.64574,1.05779 0.96861,1.58675 0.32287,0.52897 0.64573,1.05794 0.9686,1.58681 0.32287,0.52887 0.64573,1.05764 0.9686,1.58624 0.32287,0.52857 0.64574,1.05695 0.9686,1.58504 0.32287,0.52808 0.64574,1.05585 0.9686,1.58322 0.32287,0.52737 0.64574,1.05434 0.9686,1.58082 0.32288,0.52647 0.64574,1.05242 0.96861,1.57779 0.32287,0.52537 0.64573,1.05015 0.9686,1.57422 0.32287,0.52407 0.64573,1.04745 0.9686,1.57004 0.32287,0.5226 0.64573,1.04441 0.9686,1.56533 0.32287,0.52094 0.64573,1.04098 0.96861,1.56006 0.32286,0.51907 0.64573,1.03718 0.9686,1.55424 0.32286,0.51706 0.64573,1.03305 0.9686,1.5479 0.32287,0.51487 0.64573,1.02857 0.9686,1.54108 0.32287,0.51249 0.64573,1.02375 0.9686,1.5337 0.32287,0.50997 0.64573,1.01861 0.96861,1.52588 0.32286,0.50728 0.64572,1.01315 0.9686,1.51757"
     title="exp(-x*x)"
     id="path880-3" /><polyline
     transform="matrix(1.2248088,0,0,0.57531628,29.817281,324.32593)"
     style="fill:none;stroke:#0000d4;stroke-width:2.97820296;stroke-miterlimit:4;stroke-dasharray:none;stroke-dashoffset:0;stroke-opacity:1"
     id="polyline18"
     points="83,237.754 83.101,237.754 83.2019,237.753 83.3028,237.753 83.4038,237.753 83.5047,237.753 83.6057,237.753 83.7066,237.753 83.8076,237.753 83.9085,237.753 84.0095,237.753 84.1104,237.753 84.2114,237.753 84.3123,237.753 84.4133,237.753 84.6152,237.752 84.7161,237.752 84.8171,237.752 85.019,237.752 85.1199,237.751 85.2208,237.751 85.4227,237.751 85.5237,237.751 85.6246,237.75 85.8265,237.75 86.2303,237.749 86.3313,237.748 86.4322,237.748 86.6341,237.748 87.0379,237.746 87.1388,237.746 87.2398,237.745 87.4417,237.745 87.8455,237.743 87.9464,237.742 88.0474,237.742 88.2493,237.741 88.6531,237.739 89.4606,237.734 89.5701,237.734 89.6795,237.733 89.8984,237.732 90.3361,237.729 90.4456,237.728 90.555,237.727 90.7739,237.725 91.2116,237.722 91.3211,237.721 91.4305,237.72 91.6494,237.718 92.0872,237.715 92.9627,237.706 93.0721,237.705 93.1815,237.704 93.4004,237.702 93.8382,237.697 94.7137,237.687 94.8231,237.685 94.9326,237.684 95.1514,237.681 95.5892,237.676 96.4647,237.663 96.5669,237.662 96.6691,237.66 96.8734,237.657 97.2822,237.65 98.0997,237.637 98.2019,237.635 98.304,237.633 98.5084,237.629 98.9172,237.622 99.7347,237.605 99.8368,237.603 99.939,237.601 100.143,237.597 100.552,237.588 101.37,237.569 103.005,237.525 103.105,237.523 103.205,237.52 103.405,237.514 103.806,237.502 104.608,237.476 104.708,237.472 104.808,237.469 105.008,237.462 105.409,237.448 106.21,237.417 106.311,237.413 106.411,237.409 106.611,237.401 107.012,237.384 107.813,237.348 107.914,237.343 108.014,237.338 108.214,237.329 108.615,237.309 109.416,237.266 109.525,237.26 109.634,237.254 109.851,237.241 110.286,237.215 111.155,237.159 111.264,237.151 111.372,237.144 111.59,237.128 112.024,237.097 112.894,237.027 113.002,237.018 113.111,237.009 113.328,236.99 113.763,236.951 114.633,236.865 114.741,236.853 114.85,236.842 115.067,236.818 115.502,236.769 116.371,236.661 116.473,236.647 116.574,236.633 116.777,236.605 117.183,236.547 117.284,236.532 117.385,236.516 117.588,236.485 117.994,236.419 118.095,236.402 118.197,236.385 118.4,236.349 118.805,236.275 119.617,236.111 119.718,236.089 119.82,236.066 120.022,236.02 120.428,235.923 120.53,235.898 120.631,235.872 120.834,235.819 121.239,235.708 121.341,235.679 121.442,235.649 121.645,235.588 122.051,235.459 122.862,235.169 122.972,235.126 123.082,235.082 123.302,234.992 123.741,234.798 123.851,234.747 123.961,234.694 124.181,234.586 124.621,234.352 124.731,234.29 124.841,234.227 125.06,234.095 125.5,233.81 125.61,233.735 125.72,233.657 125.94,233.495 126.379,233.143 126.489,233.049 126.599,232.953 126.819,232.751 126.929,232.645 127.039,232.537 127.259,232.31 127.369,232.191 127.478,232.069 127.698,231.813 128.138,231.25 128.248,231.098 128.358,230.94 128.578,230.609 128.688,230.435 128.797,230.255 129.017,229.876 129.127,229.676 129.237,229.469 129.457,229.031 129.897,228.053 130.004,227.789 130.112,227.514 130.328,226.932 130.436,226.624 130.544,226.302 130.76,225.619 130.868,225.255 130.976,224.876 131.191,224.066 131.299,223.634 131.407,223.182 131.623,222.214 131.731,221.696 131.839,221.152 132.055,219.984 132.163,219.356 132.271,218.696 132.486,217.271 132.594,216.501 132.702,215.69 132.918,213.931 133.026,212.977 133.134,211.968 133.35,209.771 133.457,208.572 133.565,207.301 133.673,205.952 133.781,204.519 133.889,202.994 133.997,201.371 134.213,197.8 134.321,195.834 134.429,193.735 134.537,191.492 134.644,189.094 134.752,186.528 134.86,183.781 135.076,177.687 135.184,174.309 135.292,170.689 135.4,166.811 135.508,162.658 135.616,158.212 135.724,153.459 135.939,142.978 136.047,137.232 136.155,131.145 136.371,117.986 136.803,88.689 136.903,81.6549 137.004,74.7348 137.105,68.051 137.205,61.7402 137.306,55.9492 137.407,50.8288 137.507,46.5256 137.608,43.1728 137.708,40.8807 137.809,39.7281 137.91,39.7557 138.01,40.9624 138.111,43.3057 138.212,46.7053 138.312,51.0495 138.413,56.2044 138.514,62.0228 138.614,68.3542 138.816,81.9798 138.916,89.0165 139.017,96.0575 139.218,109.823 139.319,116.425 139.42,122.784 139.621,134.674 139.722,140.18 139.822,145.39 140.024,154.937 140.124,159.292 140.225,163.382 140.326,167.221 140.426,170.821 140.527,174.197 140.627,177.362 140.829,183.111 140.929,185.721 141.03,188.169 141.131,190.468 141.231,192.627 141.332,194.655 141.433,196.563 141.634,200.048 141.735,201.64 141.835,203.142 142.037,205.896 142.137,207.16 142.238,208.356 142.439,210.559 142.54,211.574 142.641,212.537 142.842,214.319 142.943,215.144 143.043,215.928 143.245,217.385 143.354,218.119 143.463,218.815 143.681,220.106 143.79,220.705 143.899,221.275 144.118,222.338 144.227,222.833 144.336,223.305 144.554,224.188 144.663,224.601 144.773,224.997 144.991,225.738 145.1,226.086 145.209,226.42 145.427,227.047 145.537,227.343 145.646,227.627 145.864,228.163 145.973,228.416 146.082,228.659 146.301,229.12 146.737,229.947 146.846,230.136 146.955,230.319 147.174,230.667 147.283,230.832 147.392,230.992 147.61,231.296 147.72,231.441 147.829,231.582 148.047,231.85 148.484,232.339 148.593,232.453 148.702,232.563 148.92,232.774 149.357,233.162 149.466,233.252 149.575,233.34 149.793,233.509 150.23,233.821 150.332,233.889 150.434,233.956 150.637,234.085 151.045,234.325 151.147,234.382 151.249,234.437 151.453,234.545 151.86,234.746 151.962,234.793 152.064,234.84 152.268,234.93 152.675,235.1 153.49,235.401 153.592,235.435 153.694,235.469 153.898,235.535 154.306,235.659 154.407,235.689 154.509,235.718 154.713,235.774 155.121,235.882 155.223,235.907 155.325,235.933 155.528,235.982 155.936,236.075 156.751,236.244 156.851,236.264 156.951,236.283 157.151,236.32 157.55,236.39 158.349,236.52 158.449,236.535 158.549,236.55 158.749,236.579 159.148,236.635 159.948,236.737 160.047,236.749 160.147,236.761 160.347,236.784 160.747,236.829 161.546,236.912 161.646,236.922 161.746,236.931 161.945,236.95 162.345,236.986 163.144,237.054 163.252,237.063 163.361,237.071 163.577,237.088 164.011,237.12 164.878,237.18 164.986,237.187 165.095,237.194 165.312,237.208 165.745,237.234 166.612,237.283 166.721,237.289 166.829,237.295 167.046,237.306 167.479,237.328 168.346,237.368 168.455,237.373 168.563,237.378 168.78,237.387 169.213,237.405 170.08,237.439 170.181,237.443 170.283,237.447 170.485,237.454 170.889,237.468 171.698,237.495 171.799,237.498 171.901,237.501 172.103,237.508 172.507,237.52 173.316,237.542 173.418,237.545 173.519,237.548 173.721,237.553 174.125,237.563 174.934,237.583 176.552,237.617 176.662,237.619 176.772,237.621 176.991,237.625 177.429,237.633 178.306,237.648 178.416,237.65 178.526,237.652 178.745,237.655 179.183,237.662 180.06,237.675 180.17,237.676 180.28,237.678 180.499,237.68 180.937,237.686 181.814,237.696 181.924,237.698 182.033,237.699 182.253,237.701 182.691,237.706 183.568,237.714 183.676,237.715 183.783,237.716 183.999,237.718 184.429,237.721 184.537,237.722 184.644,237.723 184.86,237.725 185.29,237.728 185.398,237.729 185.505,237.729 185.72,237.731 186.151,237.734 187.012,237.739 187.119,237.739 187.227,237.74 187.442,237.741 187.873,237.743 187.98,237.743 188.088,237.744 188.303,237.745 188.734,237.746 188.841,237.747 188.949,237.747 189.164,237.748 189.272,237.748 189.379,237.748 189.595,237.749 189.702,237.749 189.81,237.75 190.025,237.75 190.133,237.751 190.24,237.751 190.455,237.751 190.556,237.751 190.656,237.752 190.857,237.752 190.957,237.752 191.058,237.752 191.258,237.753 191.359,237.753 191.459,237.753 191.559,237.753 191.66,237.753 191.76,237.753 191.861,237.753 191.961,237.753 192.061,237.753 192.162,237.753 192.262,237.753 192.362,237.753 192.463,237.753 192.563,237.754 192.663,237.754 192.764,237.754 192.864,237.754 192.965,237.753 193.065,237.753 193.165,237.753 193.266,237.753 193.366,237.753 193.466,237.753 193.567,237.753 193.667,237.753 193.767,237.753 193.868,237.753 193.968,237.753 194.069,237.753 194.169,237.753 194.269,237.752 194.47,237.752 194.57,237.752 194.671,237.752 194.871,237.751 194.972,237.751 195.072,237.751 195.273,237.751 195.373,237.75 195.474,237.75 195.674,237.75 195.775,237.749 195.875,237.749 196.076,237.748 196.176,237.748 196.276,237.748 196.477,237.747 196.879,237.746 196.988,237.745 197.096,237.745 197.314,237.744 197.749,237.742 197.858,237.741 197.967,237.741 198.185,237.74 198.62,237.738 198.729,237.737 198.838,237.736 199.056,237.735 199.491,237.732 200.362,237.726 200.471,237.726 200.58,237.725 200.797,237.723 201.233,237.72 202.104,237.712 202.212,237.711 202.321,237.71 202.539,237.708 202.974,237.703 203.845,237.694 203.947,237.693 204.048,237.691 204.252,237.689 204.658,237.684 205.471,237.673 205.573,237.672 205.674,237.67 205.877,237.668 206.284,237.662 207.097,237.649 207.198,237.647 207.3,237.645 207.503,237.642 207.909,237.635 208.722,237.62 210.348,237.586 210.458,237.583 210.568,237.581 210.788,237.576 211.229,237.565 212.109,237.542 212.219,237.539 212.329,237.536 212.55,237.53 212.99,237.518 213.871,237.49 213.981,237.487 214.091,237.483 214.311,237.476 214.751,237.461 215.632,237.429 215.742,237.424 215.852,237.42 216.073,237.411 216.513,237.393 217.394,237.354 217.502,237.349 217.61,237.344 217.826,237.334 218.258,237.312 219.123,237.266 219.231,237.26 219.339,237.254 219.555,237.242 219.988,237.216 220.852,237.16 220.961,237.153 221.069,237.145 221.285,237.13 221.717,237.098 222.582,237.03 222.69,237.021 222.798,237.011 223.014,236.993 223.447,236.954 224.311,236.869 224.412,236.858 224.513,236.847 224.715,236.826 225.118,236.78 225.925,236.682 226.026,236.668 226.126,236.655 226.328,236.628 226.731,236.571 227.538,236.447 227.639,236.431 227.74,236.414 227.941,236.38 228.345,236.307 228.446,236.289 228.546,236.27 228.748,236.231 229.151,236.149 229.252,236.127 229.353,236.106 229.555,236.061 229.958,235.968 230.765,235.761 230.874,235.73 230.983,235.699 231.202,235.636 231.639,235.5 231.749,235.464 231.858,235.428 232.077,235.353 232.514,235.193 232.623,235.151 232.733,235.108 232.951,235.019 233.389,234.829 233.498,234.779 233.607,234.727 233.826,234.621 234.263,234.392 234.373,234.331 234.482,234.269 234.701,234.14 235.138,233.862 235.247,233.788 235.357,233.712 235.575,233.554 236.012,233.211 236.122,233.12 236.231,233.025 236.45,232.829 236.559,232.726 236.668,232.621 236.887,232.4 236.996,232.285 237.106,232.166 237.324,231.917 237.762,231.372 237.864,231.234 237.966,231.093 238.17,230.796 238.272,230.64 238.374,230.48 238.578,230.143 238.68,229.967 238.782,229.784 238.987,229.401 239.395,228.552 239.497,228.32 239.599,228.081 239.803,227.575 239.905,227.308 240.007,227.03 240.211,226.443 240.314,226.133 240.416,225.81 240.62,225.124 241.028,223.575 241.13,223.145 241.232,222.697 241.436,221.739 241.538,221.228 241.641,220.693 241.845,219.547 241.947,218.933 242.049,218.288 242.253,216.903 242.355,216.157 242.457,215.373 242.661,213.68 242.763,212.765 242.865,211.801 243.07,209.709 243.172,208.574 243.274,207.374 243.478,204.759 243.58,203.334 243.682,201.822 243.784,200.218 243.886,198.514 243.988,196.702 244.09,194.776 244.294,190.542 244.395,188.262 244.495,185.834 244.595,183.248 244.695,180.491 244.795,177.553 244.895,174.419 245.095,167.517 245.195,163.72 245.295,159.677 245.495,150.797 245.595,145.939 245.695,140.793 245.896,129.621 245.996,123.604 246.096,117.318 246.296,104.045 246.396,97.1461 246.496,90.1536 246.696,76.2363 246.796,69.5278 246.896,63.1564 246.996,57.2648 247.096,52.0008 247.196,47.5102 247.297,43.9281 247.397,41.3694 247.497,39.9202 247.597,39.6308 247.697,40.5113 247.797,42.5309 247.897,45.6204 247.997,49.6783 248.097,54.5782 248.197,60.1786 248.297,66.3314 248.397,72.8907 248.497,79.7189 248.698,93.7008 249.098,120.533 249.198,126.686 249.298,132.559 249.498,143.435 249.598,148.434 249.698,153.148 249.898,161.756 249.998,165.673 250.099,169.348 250.199,172.797 250.299,176.031 250.399,179.064 250.499,181.909 250.699,187.083 250.807,189.627 250.916,192.005 251.025,194.228 251.133,196.307 251.242,198.255 251.35,200.08 251.567,203.398 251.676,204.907 251.785,206.326 252.002,208.919 252.11,210.104 252.219,211.223 252.436,213.276 252.544,214.22 252.653,215.113 252.87,216.761 252.979,217.522 253.087,218.244 253.304,219.583 253.413,220.204 253.522,220.796 253.739,221.896 253.847,222.408 253.956,222.897 254.173,223.811 254.281,224.238 254.39,224.647 254.607,225.413 254.716,225.772 254.824,226.117 255.041,226.765 255.15,227.07 255.258,227.363 255.476,227.916 255.91,228.902 256.018,229.127 256.127,229.344 256.344,229.755 256.453,229.949 256.561,230.137 256.778,230.495 256.887,230.665 256.995,230.829 257.213,231.142 257.647,231.711 257.748,231.834 257.849,231.954 258.052,232.182 258.457,232.604 258.559,232.702 258.66,232.798 258.863,232.982 259.268,233.323 259.369,233.403 259.47,233.481 259.673,233.631 260.078,233.911 260.18,233.977 260.281,234.041 260.483,234.165 260.889,234.397 260.99,234.452 261.091,234.505 261.294,234.609 261.699,234.804 261.801,234.85 261.902,234.895 262.104,234.982 262.51,235.147 262.611,235.186 262.712,235.225 262.915,235.299 263.32,235.44 264.131,235.691 264.24,235.722 264.35,235.753 264.57,235.813 265.009,235.925 265.119,235.952 265.229,235.978 265.448,236.03 265.887,236.127 265.997,236.15 266.107,236.173 266.327,236.217 266.766,236.301 267.644,236.454 267.754,236.471 267.864,236.489 268.083,236.523 268.523,236.587 268.632,236.603 268.742,236.618 268.962,236.648 269.401,236.705 269.511,236.719 269.621,236.732 269.84,236.759 270.279,236.809 271.158,236.902 271.266,236.912 271.373,236.923 271.589,236.943 272.02,236.983 272.883,237.056 272.99,237.065 273.098,237.073 273.314,237.09 273.745,237.122 274.607,237.181 274.715,237.188 274.823,237.195 275.038,237.209 275.47,237.235 276.332,237.283 276.44,237.289 276.548,237.295 276.763,237.306 277.194,237.328 278.057,237.368 278.157,237.373 278.258,237.377 278.459,237.386 278.861,237.403 279.665,237.434 279.766,237.438 279.866,237.442 280.068,237.449 280.47,237.464 281.274,237.491 281.375,237.494 281.475,237.497 281.676,237.503 282.078,237.515 282.883,237.538 284.491,237.579 284.601,237.582 284.71,237.584 284.928,237.589 285.364,237.598 286.236,237.616 286.345,237.618 286.454,237.621 286.672,237.625 287.108,237.633 287.981,237.648 288.09,237.65 288.199,237.651 288.417,237.655 288.853,237.661 289.725,237.674 289.834,237.675 289.943,237.677 290.161,237.68 290.597,237.685 291.47,237.696 291.571,237.697 291.673,237.698 291.877,237.7 292.284,237.704 293.098,237.712 293.2,237.713 293.302,237.714 293.505,237.716 293.912,237.72 294.727,237.726 294.828,237.727 294.93,237.727 295.134,237.729 295.541,237.732 295.643,237.732 295.745,237.733 295.948,237.734 296.355,237.737 296.457,237.737 296.559,237.738 296.762,237.739 297.169,237.741 297.271,237.741 297.373,237.742 297.577,237.743 297.984,237.745 298.083,237.745 298.183,237.745 298.383,237.746 298.782,237.747 298.882,237.748 298.981,237.748 299.181,237.749 299.58,237.75 299.68,237.75 299.78,237.75 299.979,237.751 300.079,237.751 300.179,237.751 300.378,237.752 300.478,237.752 300.578,237.752 300.678,237.752 300.777,237.752 300.877,237.752 300.977,237.753 301.177,237.753 301.276,237.753 301.376,237.753 301.476,237.753 301.576,237.753 301.675,237.753 301.775,237.753 301.875,237.753 301.975,237.753 302.075,237.753 302.174,237.753 302.274,237.754 302.374,237.754 302.474,237.754 302.573,237.754 302.673,237.753 302.773,237.753 302.873,237.753 302.973,237.753 303.072,237.753 303.172,237.753 303.272,237.753 303.372,237.753 303.471,237.753 303.571,237.753 303.671,237.753 303.771,237.753 303.871,237.753 303.97,237.752 304.07,237.752 304.17,237.752 304.369,237.752 304.478,237.752 304.586,237.751 304.803,237.751 304.911,237.751 305.019,237.75 305.236,237.75 305.344,237.75 305.452,237.749 305.669,237.749 306.102,237.747 306.21,237.747 306.318,237.747 306.535,237.746 306.968,237.744 307.076,237.744 307.184,237.743 307.401,237.742 307.834,237.74 307.942,237.74 308.051,237.739 308.267,237.738 308.7,237.735 308.808,237.735 308.917,237.734 309.133,237.733 309.566,237.73 309.675,237.729 309.783,237.728 309.999,237.727 310.433,237.724 311.299,237.717 311.4,237.716 311.501,237.715 311.703,237.713 312.107,237.709 312.915,237.701 313.016,237.7 313.117,237.699 313.319,237.696 313.723,237.692 314.531,237.682 314.632,237.681 314.733,237.679 314.935,237.677 315.339,237.671 316.147,237.659 317.764,237.632 317.873,237.631 317.983,237.629 318.202,237.624 318.64,237.616 319.516,237.598 319.625,237.596 319.735,237.593 319.954,237.588 320.392,237.578 321.268,237.557 321.377,237.554 321.487,237.551 321.706,237.546 322.144,237.534 323.02,237.508 323.13,237.505 323.239,237.501 323.458,237.495 323.896,237.48 324.772,237.45 324.874,237.446 324.977,237.442 325.181,237.435 325.59,237.419 326.408,237.385 326.511,237.381 326.613,237.376 326.817,237.367 327.226,237.349 328.044,237.309 328.147,237.303 328.249,237.298 328.453,237.287 328.862,237.265 329.68,237.217 329.783,237.211 329.885,237.204 330.089,237.191 330.498,237.165 331.317,237.107 331.417,237.099 331.517,237.092 331.718,237.076 332.119,237.044 332.921,236.976 333.021,236.966 333.121,236.957 333.322,236.938 333.723,236.899 334.525,236.815 334.625,236.804 334.725,236.792 334.926,236.769 335.327,236.721 336.129,236.616 336.229,236.602 336.329,236.588 336.53,236.559 336.931,236.499 337.733,236.366 337.841,236.347 337.95,236.327 338.168,236.287 338.602,236.203 338.711,236.181 338.82,236.158 339.037,236.112 339.472,236.015 339.581,235.99 339.69,235.964 339.907,235.911 340.342,235.798 341.212,235.545 341.321,235.511 341.43,235.475 341.647,235.403 342.082,235.248 342.191,235.207 342.3,235.166 342.517,235.08 342.952,234.896 343.061,234.848 343.17,234.798 343.387,234.696 343.822,234.476 343.931,234.417 344.04,234.358 344.257,234.234 344.692,233.967 344.794,233.901 344.895,233.833 345.098,233.693 345.504,233.39 345.605,233.31 345.707,233.228 345.91,233.056 346.316,232.685 346.417,232.586 346.519,232.485 346.722,232.273 347.128,231.812 347.229,231.688 347.331,231.561 347.534,231.295 347.94,230.712 348.041,230.555 348.143,230.392 348.346,230.052 348.447,229.874 348.549,229.689 348.752,229.302 348.853,229.098 348.955,228.887 349.158,228.443 349.564,227.455 349.665,227.185 349.767,226.905 349.969,226.312 350.071,225.998 350.172,225.671 350.375,224.978 350.477,224.611 350.578,224.228 350.781,223.412 350.883,222.978 350.984,222.525 351.187,221.558 351.297,220.997 351.407,220.408 351.627,219.139 351.737,218.454 351.847,217.733 352.067,216.173 352.177,215.327 352.287,214.434 352.507,212.492 352.617,211.434 352.727,210.313 352.947,207.863 353.057,206.523 353.167,205.097 353.277,203.58 353.387,201.964 353.497,200.24 353.607,198.402 353.827,194.339 353.937,192.094 354.047,189.69 354.157,187.116 354.267,184.357 354.377,181.398 354.487,178.224 354.707,171.164 354.817,167.243 354.927,163.038 355.037,158.531 355.147,153.706 355.257,148.548 355.367,143.044 355.587,130.98 355.697,124.424 355.807,117.539 356.027,102.926 356.136,95.3153 356.246,87.6168 356.466,72.4474 356.576,65.2836 356.686,58.6394 356.796,52.7099 356.906,47.6899 357.016,43.7599 357.126,41.0723 357.236,39.7363 357.346,39.8081 357.456,41.2846 357.566,44.1041 357.676,48.1521 357.786,53.273 357.896,59.2839 358.006,65.9895 358.226,80.7195 358.334,88.2579 358.442,95.8134 358.658,110.565 358.766,117.611 358.874,124.37 359.09,136.921 359.198,142.688 359.306,148.116 359.414,153.21 359.522,157.982 359.63,162.445 359.738,166.615 359.954,174.143 360.062,177.534 360.17,180.698 360.278,183.651 360.386,186.408 360.494,188.984 360.602,191.391 360.818,195.748 360.926,197.721 361.034,199.57 361.141,201.304 361.249,202.931 361.357,204.461 361.465,205.899 361.681,208.526 361.789,209.728 361.897,210.861 362.113,212.943 362.221,213.9 362.329,214.805 362.545,216.476 362.653,217.247 362.761,217.98 362.977,219.337 363.085,219.967 363.193,220.566 363.409,221.682 363.517,222.201 363.625,222.697 363.841,223.623 363.949,224.056 364.057,224.47 364.273,225.247 364.381,225.611 364.489,225.961 364.705,226.618 365.137,227.784 365.237,228.031 365.338,228.269 365.54,228.722 365.64,228.936 365.741,229.144 365.942,229.539 366.043,229.727 366.144,229.908 366.345,230.255 366.748,230.886 366.849,231.032 366.95,231.174 367.151,231.445 367.554,231.942 367.655,232.058 367.755,232.17 367.957,232.386 368.36,232.784 368.46,232.878 368.561,232.968 368.763,233.143 369.166,233.466 369.266,233.542 369.367,233.616 369.568,233.759 369.971,234.026 370.072,234.089 370.173,234.15 370.374,234.269 370.777,234.49 370.878,234.543 370.979,234.594 371.18,234.694 371.583,234.88 371.692,234.928 371.801,234.975 372.02,235.066 372.457,235.236 372.566,235.276 372.675,235.316 372.894,235.392 373.33,235.536 373.44,235.57 373.549,235.604 373.767,235.669 374.204,235.791 375.078,236.01 375.187,236.035 375.296,236.06 375.515,236.108 375.952,236.199 376.061,236.221 376.17,236.243 376.388,236.284 376.825,236.364 376.934,236.383 377.044,236.401 377.262,236.438 377.699,236.508 378.573,236.634 378.675,236.648 378.777,236.661 378.981,236.688 379.388,236.739 380.204,236.832 380.306,236.843 380.408,236.854 380.612,236.875 381.02,236.916 381.836,236.992 381.937,237.001 382.039,237.01 382.243,237.027 382.651,237.06 383.467,237.122 383.569,237.13 383.671,237.137 383.875,237.151 384.283,237.178 385.098,237.23 385.198,237.236 385.298,237.241 385.498,237.253 385.898,237.275 386.698,237.317 386.798,237.322 386.898,237.327 387.097,237.337 387.497,237.356 388.297,237.391 388.397,237.395 388.497,237.399 388.697,237.408 389.097,237.424 389.896,237.453 391.496,237.506 391.604,237.51 391.713,237.513 391.929,237.519 392.363,237.532 393.231,237.555 393.339,237.558 393.448,237.561 393.665,237.566 394.098,237.576 394.966,237.596 395.074,237.598 395.183,237.601 395.4,237.605 395.834,237.614 396.701,237.631 396.81,237.633 396.918,237.634 397.135,237.638 397.569,237.646 398.436,237.659 398.538,237.661 398.639,237.663 398.841,237.666 399.246,237.671 400.056,237.682 400.157,237.683 400.258,237.685 400.46,237.687 400.865,237.692 401.675,237.701 401.776,237.702 401.877,237.703 402.079,237.705 402.484,237.709 403.294,237.717 403.395,237.718 403.496,237.718 403.699,237.72 404.103,237.723 404.913,237.729 405.026,237.73 405.139,237.731 405.365,237.732 405.817,237.735 405.93,237.736 406.043,237.736 406.269,237.738 406.72,237.74 406.833,237.741 406.946,237.741 407.172,237.742 407.624,237.744 407.737,237.745 407.85,237.745 408.076,237.746 408.528,237.748 408.641,237.748 408.754,237.748 408.98,237.749 409.093,237.749 409.206,237.75 409.432,237.75 409.545,237.75 409.658,237.751 409.884,237.751 409.996,237.751 410.109,237.752 410.335,237.752 410.448,237.752 410.561,237.752 410.674,237.753 410.787,237.753 410.9,237.753 411.013,237.753 411.126,237.753 411.239,237.753 411.352,237.753 411.465,237.753 411.578,237.753 411.691,237.753 411.804,237.753 411.917,237.753 412.03,237.754 412.143,237.754 " /><path
     inkscape:connector-curvature="0"
     id="path4514-6"
     d="M 332.95945,360.42528 V 546.52807"
     style="fill:none;fill-rule:evenodd;stroke:#00d400;stroke-width:2.50001025;stroke-linecap:butt;stroke-linejoin:miter;stroke-miterlimit:4;stroke-dasharray:none;stroke-dashoffset:0;stroke-opacity:1"
     sodipodi:nodetypes="cc" /><path
     inkscape:connector-curvature="0"
     id="path4514-7-06"
     d="M 365.02342,380.76209 V 546.52807"
     style="fill:none;fill-rule:evenodd;stroke:#00d400;stroke-width:2.50001025;stroke-linecap:butt;stroke-linejoin:miter;stroke-miterlimit:4;stroke-dasharray:none;stroke-dashoffset:0;stroke-opacity:1"
     sodipodi:nodetypes="cc" /><path
     inkscape:connector-curvature="0"
     id="path4514-7-0-2"
     d="M 397.25496,428.49138 V 546.52807"
     style="fill:none;fill-rule:evenodd;stroke:#00d400;stroke-width:2.50001025;stroke-linecap:butt;stroke-linejoin:miter;stroke-miterlimit:4;stroke-dasharray:none;stroke-dashoffset:0;stroke-opacity:1"
     sodipodi:nodetypes="cc" /><path
     inkscape:connector-curvature="0"
     id="path4514-7-6-6-61"
     d="M 268.16121,424.34097 V 546.52809"
     style="fill:none;fill-rule:evenodd;stroke:#00d400;stroke-width:2.50001025;stroke-linecap:butt;stroke-linejoin:miter;stroke-miterlimit:4;stroke-dasharray:none;stroke-dashoffset:0;stroke-opacity:1"
     sodipodi:nodetypes="cc" /><path
     inkscape:connector-curvature="0"
     id="path4514-7-0-0-1-8"
     d="M 300.39275,377.85691 V 546.52809"
     style="fill:none;fill-rule:evenodd;stroke:#00d400;stroke-width:2.50001025;stroke-linecap:butt;stroke-linejoin:miter;stroke-miterlimit:4;stroke-dasharray:none;stroke-dashoffset:0;stroke-opacity:1"
     sodipodi:nodetypes="cc" /><rect
     y="464.48508"
     x="251.64622"
     height="93.109749"
     width="160.43526"
     id="rect1197"
     style="opacity:1;fill:#ffffff;fill-opacity:1;fill-rule:nonzero;stroke:#ffffff;stroke-width:3.00001216;stroke-linecap:butt;stroke-linejoin:bevel;stroke-miterlimit:4;stroke-dasharray:none;stroke-dashoffset:0;stroke-opacity:1" /><path
     inkscape:connector-curvature="0"
     id="path4514-75-1"
     d="m 332.95945,504.10343 v 67.92504"
     style="fill:none;fill-rule:evenodd;stroke:#00d400;stroke-width:3.33001353;stroke-linecap:butt;stroke-linejoin:miter;stroke-miterlimit:4;stroke-dasharray:none;stroke-dashoffset:0;stroke-opacity:1"
     sodipodi:nodetypes="cc" /></g><g
   id="g1308"><g
     id="g1228"><text
       xml:space="preserve"
       style="font-style:italic;font-variant:normal;font-weight:normal;font-stretch:normal;font-size:18.75007629px;line-height:125%;font-family:msbm10;-inkscape-font-specification:'msbm10 Italic';letter-spacing:0px;word-spacing:0px;fill:#000000;fill-opacity:1;stroke:none;stroke-width:0.75000304px;stroke-linecap:butt;stroke-linejoin:miter;stroke-opacity:1"
       x="2.2120969"
       y="123.33393"
       id="text9405"><tspan
         sodipodi:role="line"
         id="tspan9403"
         x="2.2120969"
         y="123.33393"
         style="font-style:normal;font-variant:normal;font-weight:normal;font-stretch:normal;font-family:'Nimbus Sans L';-inkscape-font-specification:'Nimbus Sans L';stroke-width:0.75000304px">b)</tspan></text>
<text
       xml:space="preserve"
       style="font-style:italic;font-variant:normal;font-weight:normal;font-stretch:normal;font-size:18.75007629px;line-height:125%;font-family:msbm10;-inkscape-font-specification:'msbm10 Italic';letter-spacing:0px;word-spacing:0px;fill:#000000;fill-opacity:1;stroke:none;stroke-width:0.75000304px;stroke-linecap:butt;stroke-linejoin:miter;stroke-opacity:1"
       x="2.2120969"
       y="344.70016"
       id="text9405-1"><tspan
         sodipodi:role="line"
         id="tspan9403-1"
         x="2.2120969"
         y="344.70016"
         style="font-style:normal;font-variant:normal;font-weight:normal;font-stretch:normal;font-family:'Nimbus Sans L';-inkscape-font-specification:'Nimbus Sans L';stroke-width:0.75000304px">c)</tspan></text>
<text
       xml:space="preserve"
       style="font-style:italic;font-variant:normal;font-weight:normal;font-stretch:normal;font-size:18.75007629px;line-height:125%;font-family:msbm10;-inkscape-font-specification:'msbm10 Italic';letter-spacing:0px;word-spacing:0px;fill:#000000;fill-opacity:1;stroke:none;stroke-width:0.75000304px;stroke-linecap:butt;stroke-linejoin:miter;stroke-opacity:1"
       x="1.987096"
       y="517.13348"
       id="text9405-1-4"><tspan
         sodipodi:role="line"
         id="tspan9403-1-0"
         x="1.987096"
         y="517.13348"
         style="font-style:normal;font-variant:normal;font-weight:normal;font-stretch:normal;font-family:'Nimbus Sans L';-inkscape-font-specification:'Nimbus Sans L';stroke-width:0.75000304px">d)</tspan></text>
<text
       xml:space="preserve"
       style="font-style:italic;font-variant:normal;font-weight:normal;font-stretch:normal;font-size:18.75007629px;line-height:125%;font-family:msbm10;-inkscape-font-specification:'msbm10 Italic';letter-spacing:0px;word-spacing:0px;fill:#000000;fill-opacity:1;stroke:none;stroke-width:0.75000304px;stroke-linecap:butt;stroke-linejoin:miter;stroke-opacity:1"
       x="2.4183478"
       y="13.668806"
       id="text9405-1-4-5"><tspan
         sodipodi:role="line"
         id="tspan9403-1-0-6"
         x="2.4183478"
         y="13.668806"
         style="font-style:normal;font-variant:normal;font-weight:normal;font-stretch:normal;font-family:'Nimbus Sans L';-inkscape-font-specification:'Nimbus Sans L';stroke-width:0.75000304px">a)</tspan></text>
</g><g
     id="g1282"><text
       id="text3749"
       y="329.84299"
       x="613.487"
       style="font-style:normal;font-variant:normal;font-weight:normal;font-stretch:normal;line-height:0%;font-family:'Nimbus Sans L';-inkscape-font-specification:Sans;letter-spacing:0px;word-spacing:0px;fill:#000000;fill-opacity:1;stroke:none;stroke-width:1px;stroke-linecap:butt;stroke-linejoin:miter;stroke-opacity:1"
       xml:space="preserve"><tspan
         style="font-size:13.00005245px;line-height:1.25"
         y="329.84299"
         x="613.487"
         id="tspan3751"
         sodipodi:role="line">$\nu$</tspan></text>
<text
       id="text3749-6"
       y="143.16052"
       x="48.043182"
       style="font-style:normal;font-variant:normal;font-weight:normal;font-stretch:normal;line-height:0%;font-family:'Nimbus Sans L';-inkscape-font-specification:Sans;letter-spacing:0px;word-spacing:0px;fill:#000000;fill-opacity:1;stroke:none;stroke-width:1px;stroke-linecap:butt;stroke-linejoin:miter;stroke-opacity:1"
       xml:space="preserve"><tspan
         style="font-size:13.00005245px;line-height:1.25"
         y="143.16052"
         x="48.043182"
         id="tspan3751-7"
         sodipodi:role="line">$G$</tspan></text>
<text
       id="text3749-6-6"
       y="223.3416"
       x="-0.42364085"
       style="font-style:normal;font-variant:normal;font-weight:normal;font-stretch:normal;font-size:12px;line-height:0%;font-family:'Nimbus Sans L';-inkscape-font-specification:Sans;letter-spacing:0px;word-spacing:0px;fill:#000000;fill-opacity:1;stroke:none;stroke-width:1px;stroke-linecap:butt;stroke-linejoin:miter;stroke-opacity:1"
       xml:space="preserve"><tspan
         style="font-size:13.0000515px;line-height:1.25;stroke-width:1px"
         y="223.3416"
         x="-0.42364085"
         id="tspan3751-7-2"
         sodipodi:role="line">$G_{\rm pr}$</tspan></text>
<text
       id="text3749-5"
       y="485.58151"
       x="613.487"
       style="font-style:normal;font-variant:normal;font-weight:normal;font-stretch:normal;font-size:12px;line-height:0%;font-family:'Nimbus Sans L';-inkscape-font-specification:Sans;letter-spacing:0px;word-spacing:0px;fill:#000000;fill-opacity:1;stroke:none;stroke-width:1px;stroke-linecap:butt;stroke-linejoin:miter;stroke-opacity:1"
       xml:space="preserve"><tspan
         style="font-size:13.0000515px;line-height:1.25;stroke-width:1px"
         y="485.58151"
         x="613.487"
         id="tspan3751-9"
         sodipodi:role="line">$\nu$</tspan></text>
<text
       id="text3749-6-5"
       y="359.18472"
       x="48.026539"
       style="font-style:normal;font-variant:normal;font-weight:normal;font-stretch:normal;font-size:12px;line-height:0%;font-family:'Nimbus Sans L';-inkscape-font-specification:Sans;letter-spacing:0px;word-spacing:0px;fill:#000000;fill-opacity:1;stroke:none;stroke-width:1px;stroke-linecap:butt;stroke-linejoin:miter;stroke-opacity:1"
       xml:space="preserve"><tspan
         style="font-size:13.0000515px;line-height:1.25;stroke-width:1px"
         y="359.18472"
         x="48.026539"
         id="tspan3751-7-4"
         sodipodi:role="line">$T$</tspan></text>
<text
       id="text3749-5-6"
       y="598.08197"
       x="613.487"
       style="font-style:normal;font-variant:normal;font-weight:normal;font-stretch:normal;font-size:12px;line-height:0%;font-family:'Nimbus Sans L';-inkscape-font-specification:Sans;letter-spacing:0px;word-spacing:0px;fill:#000000;fill-opacity:1;stroke:none;stroke-width:1px;stroke-linecap:butt;stroke-linejoin:miter;stroke-opacity:1"
       xml:space="preserve"><tspan
         style="font-size:13.0000515px;line-height:1.25;stroke-width:1px"
         y="598.08197"
         x="613.487"
         id="tspan3751-9-3"
         sodipodi:role="line">$\nu$</tspan></text>
<text
       id="text3749-5-6-7"
       y="94.617317"
       x="613.91821"
       style="font-style:normal;font-variant:normal;font-weight:normal;font-stretch:normal;font-size:12px;line-height:0%;font-family:'Nimbus Sans L';-inkscape-font-specification:Sans;letter-spacing:0px;word-spacing:0px;fill:#000000;fill-opacity:1;stroke:none;stroke-width:1px;stroke-linecap:butt;stroke-linejoin:miter;stroke-opacity:1"
       xml:space="preserve"><tspan
         style="font-size:13.00005245px;line-height:1.25;stroke-width:1px"
         y="94.617317"
         x="613.91821"
         id="tspan3751-9-3-6"
         sodipodi:role="line">$\nu$</tspan></text>
</g></g></svg>