<?xml version="1.0" encoding="UTF-8" standalone="no"?>
<!-- Created with Inkscape (http://www.inkscape.org/) -->

<svg
   xmlns:dc="http://purl.org/dc/elements/1.1/"
   xmlns:cc="http://creativecommons.org/ns#"
   xmlns:rdf="http://www.w3.org/1999/02/22-rdf-syntax-ns#"
   xmlns:svg="http://www.w3.org/2000/svg"
   xmlns="http://www.w3.org/2000/svg"
   xmlns:sodipodi="http://sodipodi.sourceforge.net/DTD/sodipodi-0.dtd"
   xmlns:inkscape="http://www.inkscape.org/namespaces/inkscape"
   width="186.32266mm"
   height="47.565544mm"
   viewBox="0 0 660.19841 168.53932"
   id="svg2"
   version="1.1"
   inkscape:version="0.92.3 (2405546, 2018-03-11)"
   sodipodi:docname="06_MLvsota.svg">
  <sodipodi:namedview
     id="base"
     pagecolor="#ffffff"
     bordercolor="#666666"
     borderopacity="1.0"
     inkscape:pageopacity="0.0"
     inkscape:pageshadow="2"
     inkscape:zoom="0.90505985"
     inkscape:cx="380.22317"
     inkscape:cy="105.79837"
     inkscape:document-units="px"
     inkscape:current-layer="layer1"
     showgrid="false"
     inkscape:window-width="1587"
     inkscape:window-height="973"
     inkscape:window-x="105"
     inkscape:window-y="92"
     inkscape:window-maximized="0"
     fit-margin-top="0"
     fit-margin-left="0"
     fit-margin-right="0"
     fit-margin-bottom="0"
     showguides="false"
     inkscape:snap-global="false" />
  <defs
     id="defs4">
    <marker
       inkscape:isstock="true"
       style="overflow:visible"
       id="marker1265"
       refX="0"
       refY="0"
       orient="auto"
       inkscape:stockid="Arrow1Send">
      <path
         transform="matrix(-0.2,0,0,-0.2,-1.2,0)"
         style="fill:#000000;fill-opacity:1;fill-rule:evenodd;stroke:#000000;stroke-width:1.00000003pt;stroke-opacity:1"
         d="M 0,0 5,-5 -12.5,0 5,5 Z"
         id="path1017"
         inkscape:connector-curvature="0" />
    </marker>
    <marker
       inkscape:isstock="true"
       style="overflow:visible"
       id="marker1265-3"
       refX="0"
       refY="0"
       orient="auto"
       inkscape:stockid="Arrow1Send">
      <path
         inkscape:connector-curvature="0"
         transform="matrix(-0.2,0,0,-0.2,-1.2,0)"
         style="fill:#000000;fill-opacity:1;fill-rule:evenodd;stroke:#000000;stroke-width:1.00000003pt;stroke-opacity:1"
         d="M 0,0 5,-5 -12.5,0 5,5 Z"
         id="path1017-6" />
    </marker>
  </defs>
  <metadata
     id="metadata7">
    <rdf:RDF>
      <cc:Work
         rdf:about="">
        <dc:format>image/svg+xml</dc:format>
        <dc:type
           rdf:resource="http://purl.org/dc/dcmitype/StillImage" />
        <dc:title></dc:title>
      </cc:Work>
    </rdf:RDF>
  </metadata>
  <g
     transform="translate(-66.111626,-526.73804)"
     id="layer1"
     inkscape:groupmode="layer"
     inkscape:label="Layer 1">
    <text
       id="text1234"
       y="345.69266"
       x="0.8884899"
       style="font-style:italic;font-variant:normal;font-weight:normal;font-stretch:normal;font-size:23.43749809px;line-height:125%;font-family:msbm10;-inkscape-font-specification:'msbm10 Italic';letter-spacing:0px;word-spacing:0px;fill:#000000;fill-opacity:1;stroke:none;stroke-width:0.93749994px;stroke-linecap:butt;stroke-linejoin:miter;stroke-opacity:1"
       xml:space="preserve"><tspan
         style="stroke-width:0.93749994px"
         y="366.42935"
         x="0.8884899"
         id="tspan1232"
         sodipodi:role="line" /></text>
    <path
       id="path5703"
       title="cos(2x)"
       d=""
       style="opacity:1;fill:none;fill-opacity:1;fill-rule:nonzero;stroke:#737373;stroke-width:1.87499988;stroke-linecap:round;stroke-linejoin:round;stroke-miterlimit:4;stroke-dasharray:none;stroke-dashoffset:0;stroke-opacity:1"
       inkscape:connector-curvature="0" />
    <path
       d="M 75.051347,695.04323 A 206.02664,308.59888 0 0 1 75.13418,527.7856"
       sodipodi:open="true"
       sodipodi:end="3.4167613"
       sodipodi:start="2.8679076"
       sodipodi:ry="308.59888"
       sodipodi:rx="206.02664"
       sodipodi:cy="611.63477"
       sodipodi:cx="273.40997"
       sodipodi:type="arc"
       id="path4464-0"
       style="opacity:1;fill:none;fill-opacity:0.98809521;fill-rule:nonzero;stroke:#000000;stroke-width:2.54206395;stroke-linecap:butt;stroke-linejoin:round;stroke-miterlimit:4;stroke-dasharray:none;stroke-dashoffset:0;stroke-opacity:1" />
    <path
       transform="scale(-1,1)"
       d="m -400.74101,695.04323 a 206.02664,308.59888 0 0 1 0.0828,-167.25763"
       sodipodi:open="true"
       sodipodi:end="3.4167613"
       sodipodi:start="2.8679076"
       sodipodi:ry="308.59888"
       sodipodi:rx="206.02664"
       sodipodi:cy="611.63477"
       sodipodi:cx="-202.38239"
       sodipodi:type="arc"
       id="path4464-3-9"
       style="opacity:1;fill:none;fill-opacity:0.98809521;fill-rule:nonzero;stroke:#000000;stroke-width:2.54206395;stroke-linecap:butt;stroke-linejoin:round;stroke-miterlimit:4;stroke-dasharray:none;stroke-dashoffset:0;stroke-opacity:1" />
    <path
       id="path8338"
       title="(cos(10*x)+cos(9*x)+cos(8*x)+cos(7*x)+cos(6*x)+cos(5*x)+cos(4*x)+cos(3*x)+cos(2*x)+cos(x))**2"
       d="m 74.75129,683.08932 c 0.251849,0 0.503701,10e-6 0.755554,-2e-5 0.251853,-2e-5 0.503699,-5e-5 0.755554,-2.1e-4 0.251852,-1.5e-4 0.503705,-4e-4 0.755552,-8e-4 0.251853,-5e-4 0.503707,-8.1e-4 0.75556,-0.002 0.251846,-8.1e-4 0.5037,-0.002 0.755552,-0.005 0.251847,-0.002 0.503701,-0.006 0.755553,-0.009 0.251854,-0.003 0.503701,-0.008 0.755554,-0.0138 0.251853,-0.007 0.503706,-0.0122 0.755553,-0.0202 0.251853,-0.008 0.503706,-0.0172 0.75556,-0.0279 0.251847,-0.0107 0.503697,-0.0231 0.755552,-0.0368 0.251847,-0.0139 0.5037,-0.0294 0.755553,-0.0468 0.251852,-0.0173 0.5037,-0.0362 0.755553,-0.0571 0.251853,-0.0207 0.503706,-0.0433 0.755553,-0.0677 0.251853,-0.0242 0.503707,-0.0504 0.755554,-0.078 0.251851,-0.0277 0.503705,-0.057 0.755559,-0.0878 0.251847,-0.0307 0.503699,-0.0629 0.755552,-0.0964 0.251853,-0.0334 0.503701,-0.068 0.755554,-0.10346 0.251853,-0.0354 0.503705,-0.0717 0.755552,-0.10853 0.251855,-0.0368 0.503706,-0.074 0.755553,-0.11135 0.251854,-0.0373 0.503707,-0.0746 0.755561,-0.11156 0.251845,-0.0369 0.503699,-0.0734 0.755553,-0.10903 0.251852,-0.0357 0.503699,-0.0702 0.755553,-0.10367 0.251852,-0.0334 0.503699,-0.0653 0.755551,-0.0955 0.251855,-0.0301 0.503708,-0.0585 0.755554,-0.0846 0.251854,-0.0261 0.503706,-0.0501 0.75556,-0.0713 0.251847,-0.0214 0.503701,-0.0401 0.755552,-0.0559 0.251854,-0.0159 0.503701,-0.029 0.755554,-0.0388 0.251854,-0.01 0.503699,-0.0168 0.755554,-0.0207 0.251855,-0.003 0.503708,-0.005 0.755554,-0.002 0.251852,0.002 0.503706,0.008 0.755561,0.0173 0.251846,0.009 0.503698,0.0209 0.755552,0.0358 0.251847,0.015 0.503701,0.0328 0.755552,0.0532 0.251854,0.0205 0.503701,0.0437 0.755554,0.0693 0.251854,0.0255 0.503708,0.0533 0.755558,0.083 0.25185,0.0298 0.5037,0.0614 0.75556,0.0946 0.25184,0.0331 0.5037,0.0678 0.75554,0.10341 0.25186,0.0357 0.50371,0.0723 0.75556,0.10946 0.25185,0.0372 0.5037,0.0748 0.75555,0.11259 0.25186,0.0376 0.50371,0.0755 0.75556,0.11292 0.25185,0.0374 0.50371,0.0743 0.75555,0.11054 0.25185,0.0362 0.50371,0.0716 0.75556,0.10572 0.25185,0.0342 0.5037,0.0672 0.75555,0.0988 0.25186,0.0315 0.50371,0.0618 0.75555,0.0902 0.25187,0.0285 0.50371,0.0553 0.75556,0.0802 0.25186,0.0251 0.5037,0.0482 0.75555,0.0697 0.25186,0.0213 0.5037,0.041 0.75556,0.0587 0.25185,0.0178 0.50371,0.0337 0.75555,0.0479 0.25185,0.0142 0.50371,0.0267 0.75555,0.0376 0.25185,0.011 0.50371,0.0202 0.75555,0.0282 0.25186,0.008 0.50371,0.0146 0.75556,0.02 0.25186,0.006 0.50371,0.01 0.75556,0.0132 0.25185,0.003 0.5037,0.007 0.75556,0.008 0.25185,0.002 0.50369,0.002 0.75556,0.005 0.25185,5.9e-4 0.50368,8.1e-4 0.75555,8.1e-4 0.25185,1.5e-4 0.5037,10e-5 0.75555,0 0.25185,-1.3e-4 0.5037,-3.2e-4 0.75555,-4.5e-4 0.25186,-1.6e-4 0.50371,-2.6e-4 0.75555,-2.9e-4 0.25187,-3e-5 0.50371,2e-5 0.75555,1.4e-4 0.25187,1.1e-4 0.50371,2.8e-4 0.75556,4.4e-4 0.25186,1.6e-4 0.5037,2.8e-4 0.75556,2.5e-4 0.25185,-3e-5 0.50369,-2.2e-4 0.75556,-5.9e-4 0.25184,-5.5e-4 0.50369,-8e-4 0.75555,-0.002 0.25185,-0.002 0.50369,-0.003 0.75555,-0.007 0.25186,-0.002 0.5037,-0.007 0.75555,-0.0115 0.25187,-0.005 0.5037,-0.0109 0.75555,-0.0182 0.25187,-0.007 0.5037,-0.0161 0.75556,-0.0264 0.25186,-0.0103 0.50371,-0.0222 0.75557,-0.0359 0.25185,-0.0137 0.50369,-0.0292 0.75555,-0.0467 0.25185,-0.0175 0.50369,-0.0368 0.75555,-0.0583 0.25185,-0.0214 0.50371,-0.0448 0.75556,-0.0702 0.25184,-0.0255 0.5037,-0.053 0.75556,-0.0823 0.25183,-0.0294 0.50369,-0.0607 0.75555,-0.0938 0.25184,-0.033 0.50369,-0.0679 0.75555,-0.10413 0.25186,-0.0362 0.50369,-0.074 0.75556,-0.11293 0.25185,-0.0389 0.50369,-0.0789 0.75555,-0.11967 0.25185,-0.0407 0.50369,-0.0822 0.75555,-0.12389 0.25185,-0.0417 0.50371,-0.0837 0.75555,-0.12526 0.25185,-0.0416 0.50371,-0.083 0.75555,-0.12352 0.25185,-0.0405 0.50371,-0.0802 0.75555,-0.11852 0.25186,-0.0383 0.50372,-0.0753 0.75556,-0.11026 0.25185,-0.035 0.50371,-0.0681 0.75555,-0.0988 0.25185,-0.0306 0.50371,-0.059 0.75557,-0.0844 0.25183,-0.0255 0.50369,-0.0481 0.75556,-0.0674 0.25184,-0.0195 0.50369,-0.0357 0.75555,-0.0484 0.25185,-0.0127 0.5037,-0.0221 0.75555,-0.0278 0.25185,-0.006 0.5037,-0.008 0.75555,-0.007 0.25185,0.002 0.5037,0.007 0.75556,0.0159 0.25185,0.009 0.5037,0.0214 0.75555,0.0374 0.25185,0.0159 0.5037,0.0352 0.75556,0.0578 0.25184,0.0226 0.50369,0.0482 0.75555,0.0767 0.25185,0.0284 0.5037,0.0596 0.75556,0.0932 0.25184,0.0336 0.5037,0.0694 0.75556,0.10707 0.25183,0.0376 0.50369,0.0771 0.75555,0.11781 0.25183,0.0407 0.50369,0.0826 0.75555,0.12526 0.25185,0.0426 0.50369,0.0859 0.75555,0.12922 0.25185,0.0434 0.5037,0.0868 0.75555,0.12977 0.25185,0.0429 0.5037,0.0854 0.75556,0.12701 0.25184,0.0415 0.5037,0.0821 0.75555,0.12125 0.25184,0.0391 0.5037,0.077 0.75555,0.11289 0.25185,0.036 0.50372,0.0702 0.75556,0.10237 0.25185,0.0321 0.50372,0.0623 0.75557,0.0903 0.25183,0.0279 0.5037,0.0537 0.75555,0.0771 0.25184,0.0234 0.5037,0.0446 0.75555,0.0636 0.25184,0.019 0.5037,0.0357 0.75555,0.0502 0.25186,0.0146 0.5037,0.0271 0.75556,0.0376 0.25185,0.0105 0.50369,0.0193 0.75555,0.0261 0.25185,0.007 0.5037,0.0122 0.75555,0.0163 0.25185,0.005 0.50371,0.007 0.75555,0.008 0.25185,0.002 0.50371,0.002 0.75555,0.002 0.25187,-1.1e-4 0.50371,-8e-4 0.75555,-0.002 0.25187,-8.1e-4 0.50372,-0.002 0.75556,-0.005 0.25186,-0.002 0.50371,-0.003 0.75556,-0.005 0.25185,-0.002 0.5037,-0.002 0.75556,-0.005 0.25184,-8.1e-4 0.50369,-0.002 0.75555,-0.002 0.25185,-3e-4 0.5037,-2.1e-4 0.75555,2.8e-4 0.25185,4.6e-4 0.50371,8e-4 0.75556,0.002 0.25185,8.1e-4 0.50371,0.002 0.75555,0.005 0.25186,0.002 0.50372,0.003 0.75556,0.005 0.25185,0.002 0.50371,0.002 0.75555,0.005 0.25186,8.1e-4 0.50371,8.1e-4 0.75556,8.1e-4 0.25185,-3.3e-4 0.5037,-8.1e-4 0.75556,-0.003 0.25184,-0.002 0.50371,-0.007 0.75555,-0.0111 0.25184,-0.006 0.50371,-0.012 0.75555,-0.0207 0.25184,-0.009 0.50371,-0.0194 0.75555,-0.0326 0.25187,-0.0129 0.50371,-0.0284 0.75555,-0.0464 0.25187,-0.018 0.50371,-0.0384 0.75555,-0.0617 0.25187,-0.0233 0.50371,-0.0492 0.75556,-0.0781 0.25186,-0.0288 0.50372,-0.0605 0.75556,-0.0949 0.25185,-0.0344 0.50371,-0.0716 0.75555,-0.11141 0.25185,-0.0398 0.50372,-0.0822 0.75555,-0.12691 0.25186,-0.0448 0.50372,-0.0917 0.75555,-0.14061 0.25186,-0.0488 0.50372,-0.0997 0.75556,-0.15181 0.25187,-0.0521 0.50372,-0.10564 0.75557,-0.15985 0.25185,-0.0543 0.5037,-0.10919 0.75555,-0.16415 0.25185,-0.055 0.5037,-0.11 0.75556,-0.16429 0.25185,-0.0543 0.50369,-0.10783 0.75555,-0.1599 0.25185,-0.052 0.50369,-0.10264 0.75555,-0.15095 0.25185,-0.0483 0.5037,-0.0944 0.75555,-0.13743 0.25186,-0.043 0.50371,-0.0831 0.75556,-0.11957 0.25186,-0.0365 0.5037,-0.0693 0.75555,-0.0978 0.25186,-0.0286 0.5037,-0.0529 0.75555,-0.0727 0.25186,-0.0197 0.50371,-0.0349 0.75557,-0.045 0.25184,-0.0102 0.50369,-0.0156 0.75555,-0.0157 0.25184,-2.3e-4 0.50369,0.005 0.75555,0.0145 0.25184,0.01 0.5037,0.0248 0.75555,0.0446 0.25186,0.0197 0.5037,0.0444 0.75555,0.0734 0.25186,0.0291 0.5037,0.0626 0.75555,0.10009 0.25187,0.0376 0.50371,0.079 0.75555,0.12378 0.25187,0.0448 0.50372,0.093 0.75557,0.1437 0.25186,0.0507 0.50371,0.10406 0.75556,0.15919 0.25186,0.0552 0.5037,0.11204 0.75555,0.16987 0.25186,0.0578 0.5037,0.11662 0.75556,0.17545 0.25185,0.0589 0.5037,0.11774 0.75555,0.17587 0.25185,0.0582 0.5037,0.1155 0.75556,0.17133 0.25185,0.0558 0.50369,0.11011 0.75555,0.16217 0.25187,0.0521 0.50369,0.10189 0.75555,0.14895 0.25187,0.0471 0.50369,0.0913 0.75556,0.13238 0.25186,0.041 0.50369,0.079 0.75555,0.11333 0.25186,0.0343 0.5037,0.0653 0.75556,0.0927 0.25185,0.0273 0.5037,0.0511 0.75555,0.0713 0.25185,0.0203 0.5037,0.037 0.75555,0.0504 0.25185,0.0134 0.5037,0.0236 0.75556,0.0307 0.25185,0.007 0.5037,0.0114 0.75555,0.0132 0.25185,0.002 0.5037,8.1e-4 0.75555,-0.002 0.25185,-0.002 0.5037,-0.007 0.75557,-0.0133 0.25185,-0.007 0.50369,-0.0132 0.75556,-0.0212 0.25184,-0.008 0.50368,-0.0166 0.75555,-0.0255 0.25184,-0.009 0.5037,-0.0177 0.75555,-0.0261 0.25184,-0.008 0.50371,-0.0164 0.75555,-0.0234 0.25184,-0.007 0.50371,-0.0132 0.75555,-0.018 0.25185,-0.005 0.50371,-0.008 0.75555,-0.0105 0.25186,-0.002 0.50371,-0.002 0.75557,-0.002 0.25184,8.1e-4 0.50369,0.003 0.75555,0.007 0.25184,0.005 0.50369,0.009 0.75555,0.0157 0.25184,0.007 0.5037,0.014 0.75556,0.0224 0.25184,0.008 0.5037,0.0174 0.75555,0.0264 0.25185,0.009 0.5037,0.0185 0.75555,0.0271 0.25186,0.009 0.5037,0.0169 0.75555,0.0237 0.25186,0.007 0.50371,0.0123 0.75555,0.0157 0.25186,0.003 0.50371,0.005 0.75557,0.002 0.25184,-0.002 0.50369,-0.007 0.75555,-0.0147 0.25185,-0.008 0.5037,-0.0203 0.75556,-0.0366 0.25184,-0.0163 0.5037,-0.037 0.75556,-0.0625 0.25183,-0.0255 0.5037,-0.0559 0.75555,-0.0915 0.25183,-0.0357 0.5037,-0.0764 0.75556,-0.12263 0.25183,-0.0463 0.50369,-0.0977 0.75555,-0.15451 0.25185,-0.0568 0.50369,-0.11886 0.75556,-0.18584 0.25184,-0.067 0.50368,-0.13891 0.75555,-0.21518 0.25184,-0.0763 0.50369,-0.15689 0.75555,-0.24105 0.25184,-0.0841 0.50371,-0.17187 0.75555,-0.26206 0.25184,-0.0902 0.50371,-0.18292 0.75555,-0.27692 0.25184,-0.094 0.50371,-0.18927 0.75555,-0.2845 0.25186,-0.0952 0.50371,-0.19038 0.75556,-0.28399 0.25185,-0.0937 0.50371,-0.18573 0.75555,-0.27482 0.25185,-0.0891 0.50371,-0.17518 0.75557,-0.25678 0.25183,-0.0816 0.50369,-0.15874 0.75555,-0.23 0.25184,-0.0712 0.50369,-0.1367 0.75554,-0.19503 0.25186,-0.0583 0.50372,-0.10956 0.75556,-0.1527 0.25186,-0.0432 0.50371,-0.0781 0.75555,-0.10429 0.25186,-0.0262 0.50372,-0.0434 0.75555,-0.0512 0.25187,-0.008 0.50372,-0.007 0.75556,0.005 0.25186,0.0109 0.50371,0.0314 0.75555,0.0613 0.25186,0.0298 0.50371,0.0688 0.75557,0.1167 0.25185,0.0479 0.5037,0.10446 0.75555,0.16897 0.25185,0.0645 0.50371,0.13691 0.75555,0.216 0.25185,0.0791 0.50371,0.16493 0.75556,0.25601 0.25185,0.091 0.5037,0.18743 0.75555,0.2874 0.25186,0.1 0.5037,0.20355 0.75555,0.30896 0.25186,0.1054 0.50371,0.21264 0.75555,0.31981 0.25186,0.1072 0.50372,0.21434 0.75556,0.31957 0.25185,0.10523 0.50371,0.20856 0.75555,0.30823 0.25185,0.0997 0.50371,0.19565 0.75555,0.28637 0.25186,0.0908 0.50372,0.17617 0.75556,0.25499 0.25185,0.0788 0.50371,0.15096 0.75556,0.21544 0.25185,0.0645 0.50372,0.12123 0.75556,0.16959 0.25185,0.0483 0.50371,0.0883 0.75555,0.11952 0.25186,0.0312 0.50371,0.0537 0.75555,0.0674 0.25187,0.0138 0.50371,0.019 0.75556,0.016 0.25186,-0.002 0.5037,-0.0141 0.75555,-0.0325 0.25186,-0.0184 0.50372,-0.0441 0.75555,-0.0759 0.25186,-0.0317 0.50372,-0.0696 0.75556,-0.11185 0.25185,-0.0423 0.50371,-0.0892 0.75555,-0.13886 0.25186,-0.0497 0.50371,-0.1021 0.75556,-0.15547 0.25186,-0.0534 0.5037,-0.1077 0.75555,-0.16103 0.25186,-0.0533 0.50371,-0.10569 0.75556,-0.15525 0.25185,-0.0496 0.5037,-0.0962 0.75556,-0.1385 0.25185,-0.0422 0.50368,-0.08 0.75555,-0.11187 0.25185,-0.0319 0.50369,-0.0578 0.75555,-0.077 0.25185,-0.019 0.50369,-0.0312 0.75555,-0.0358 0.25185,-0.005 0.5037,-0.002 0.75555,0.009 0.25186,0.0105 0.50372,0.0287 0.75556,0.0543 0.25186,0.0255 0.50371,0.058 0.75556,0.0969 0.25185,0.0388 0.5037,0.0839 0.75556,0.13374 0.25185,0.0497 0.50369,0.10433 0.75556,0.16152 0.25184,0.0571 0.50369,0.11713 0.75555,0.1773 0.25184,0.0601 0.5037,0.12054 0.75555,0.17843 0.25184,0.0579 0.5037,0.11319 0.75555,0.16295 0.25186,0.0498 0.5037,0.094 0.75555,0.12949 0.25187,0.0356 0.5037,0.0623 0.75555,0.0775 0.25187,0.0152 0.5037,0.0185 0.75556,0.007 0.25186,-0.0112 0.50371,-0.037 0.75555,-0.08 0.25186,-0.0428 0.50371,-0.10286 0.75556,-0.18183 0.25185,-0.079 0.50371,-0.1771 0.75555,-0.29549 0.25186,-0.11839 0.50371,-0.2572 0.75556,-0.41686 0.25185,-0.15965 0.5037,-0.34026 0.75555,-0.54137 0.25186,-0.20109 0.5037,-0.42281 0.75555,-0.66375 0.25186,-0.24095 0.5037,-0.50121 0.75557,-0.77849 0.25186,-0.27727 0.50369,-0.57163 0.75556,-0.87982 0.25185,-0.30816 0.50368,-0.63024 0.75555,-0.96204 0.25185,-0.33182 0.50368,-0.67344 0.75555,-1.01995 0.25185,-0.34652 0.50371,-0.69794 0.75555,-1.04876 0.25186,-0.35083 0.50371,-0.70101 0.75556,-1.04463 0.25186,-0.34362 0.5037,-0.6806 0.75555,-1.0048 0.25186,-0.32419 0.5037,-0.63548 0.75556,-0.92776 0.25185,-0.29228 0.50369,-0.56539 0.75556,-0.81352 0.25184,-0.24813 0.50369,-0.47109 0.75555,-0.66362 0.25184,-0.19254 0.50369,-0.35447 0.75555,-0.48133 0.25184,-0.12688 0.5037,-0.21847 0.75555,-0.27149 0.25184,-0.053 0.5037,-0.0672 0.75555,-0.0407 0.25185,0.0266 0.5037,0.0942 0.75555,0.20316 0.25186,0.10901 0.50372,0.25968 0.75555,0.45067 0.25186,0.19096 0.50372,0.4225 0.75556,0.69133 0.25185,0.26885 0.50371,0.57527 0.75556,0.91409 0.25185,0.33881 0.50371,0.71022 0.75557,1.10717 0.25184,0.39695 0.50369,0.81956 0.75555,1.25893 0.25184,0.43936 0.5037,0.89556 0.75555,1.35797 0.25184,0.4624 0.5037,0.93101 0.75555,1.3937 0.25185,0.46268 0.5037,0.91936 0.75556,1.35669 0.25185,0.43733 0.50369,0.85513 0.75555,1.23911 0.25186,0.38401 0.50369,0.73397 0.75556,1.03507 0.25185,0.30112 0.5037,0.55306 0.75555,0.74093 0.25185,0.18787 0.5037,0.31125 0.75555,0.35562 0.25185,0.0444 0.50371,0.009 0.75556,-0.11919 0.25184,-0.12838 0.5037,-0.3506 0.75556,-0.679 0.25183,-0.32841 0.50369,-0.76368 0.75555,-1.31643 0.25184,-0.55275 0.50369,-1.22369 0.75555,-2.02122 0.25184,-0.79756 0.5037,-1.72251 0.75555,-2.7806 0.25184,-1.05812 0.5037,-2.25024 0.75557,-3.57921 0.25183,-1.32897 0.50368,-2.79563 0.75555,-4.39966 0.25184,-1.60404 0.50369,-3.34628 0.75556,-5.22298 0.25184,-1.87671 0.50369,-3.88873 0.75555,-6.02887 0.25184,-2.14014 0.50371,-4.40915 0.75555,-6.79644 0.25184,-2.38727 0.50371,-4.89349 0.75555,-7.50469 0.25185,-2.61119 0.50371,-5.32795 0.75555,-8.13315 0.25185,-2.80519 0.50371,-5.69934 0.75556,-8.66243 0.25185,-2.96307 0.5037,-5.9955 0.75555,-9.07477 0.25185,-3.07928 0.5037,-6.2057 0.75555,-9.35477 0.25185,-3.14908 0.50371,-6.32093 0.75556,-9.48964 0.25185,-3.16873 0.50371,-6.33426 0.75555,-9.46984 0.25185,-3.13558 0.50371,-6.24099 0.75555,-9.28925 0.25187,-3.04828 0.50371,-6.039 0.75555,-8.94564 0.25187,-2.90665 0.50372,-5.72865 0.75555,-8.44056 0.25187,-2.71191 0.50372,-5.31302 0.75557,-7.7796 0.25185,-2.46658 0.5037,-4.79778 0.75555,-6.9722 0.25185,-2.1744 0.5037,-4.19105 0.75556,-6.03142 0.25184,-1.84038 0.5037,-3.5034 0.75555,-4.97389 0.25185,-1.4705 0.50372,-2.7473 0.75556,-3.81904 0.25184,-1.07171 0.50371,-1.9371 0.75555,-2.58887 0.25186,-0.65176 0.50371,-1.08858 0.75556,-1.30743 0.25186,-0.21884 0.5037,-0.21841 0.75555,0 0.25186,0.21842 0.5037,0.6561 0.75556,1.30743 0.25185,0.65134 0.50371,1.51757 0.75555,2.58887 0.25185,1.07133 0.50372,2.34891 0.75555,3.81904 0.25185,1.47011 0.50372,3.13386 0.75555,4.97389 0.25185,1.84001 0.50372,3.85734 0.75556,6.03142 0.25186,2.17412 0.50371,4.50589 0.75555,6.9722 0.25186,2.46631 0.50371,5.06791 0.75555,7.7796 0.25186,2.71169 0.50372,5.53408 0.75556,8.44056 0.25186,2.90647 0.50371,5.89748 0.75556,8.94564 0.25185,3.04814 0.5037,6.15374 0.75555,9.28925 0.25186,3.13553 0.50371,6.30112 0.75555,9.46984 0.25186,3.1687 0.50372,6.34052 0.75555,9.48964 0.25186,3.14911 0.50373,6.27538 0.75556,9.35477 0.25187,3.07936 0.50372,6.11156 0.75556,9.07477 0.25186,2.96322 0.5037,5.85705 0.75556,8.66243 0.25185,2.80537 0.50369,5.52175 0.75556,8.13315 0.25185,2.61141 0.50368,5.11718 0.75555,7.50469 0.25185,2.38753 0.5037,4.65605 0.75555,6.79644 0.25186,2.1404 0.5037,4.15189 0.75556,6.02887 0.25185,1.87698 0.50369,3.61866 0.75555,5.22298 0.25186,1.6043 0.50369,3.07042 0.75555,4.39966 0.25186,1.32925 0.5037,2.52082 0.75555,3.57921 0.25186,1.05838 0.50371,1.98278 0.75556,2.7806 0.25185,0.79779 0.5037,1.46824 0.75555,2.02122 0.25185,0.55299 0.5037,0.98781 0.75555,1.31643 0.25185,0.32862 0.50371,0.55043 0.75557,0.679 0.25184,0.12859 0.50369,0.1634 0.75555,0.11919 0.25184,-0.0442 0.5037,-0.16787 0.75555,-0.35562 0.25185,-0.18774 0.5037,-0.4399 0.75556,-0.74093 0.25186,-0.301 0.5037,-0.65113 0.75555,-1.03507 0.25186,-0.38392 0.5037,-0.80182 0.75556,-1.23911 0.25186,-0.43728 0.50369,-0.89402 0.75555,-1.35669 0.25186,-0.46267 0.5037,-0.93129 0.75555,-1.3937 0.25186,-0.46242 0.50371,-0.91857 0.75555,-1.35797 0.25186,-0.4394 0.50371,-0.86194 0.75556,-1.25893 0.25186,-0.39701 0.5037,-0.7683 0.75556,-1.10717 0.25186,-0.33888 0.5037,-0.64515 0.75555,-0.91409 0.25186,-0.26892 0.5037,-0.50028 0.75556,-0.69133 0.25185,-0.19106 0.50369,-0.34158 0.75555,-0.45067 0.25186,-0.10908 0.50369,-0.17651 0.75556,-0.20316 0.25185,-0.0267 0.5037,-0.0123 0.75555,0.0407 0.25185,0.0529 0.5037,0.14469 0.75555,0.27149 0.25185,0.12681 0.50371,0.28884 0.75556,0.48133 0.25185,0.19246 0.5037,0.41554 0.75555,0.66362 0.25186,0.24808 0.5037,0.52128 0.75555,0.81352 0.25186,0.29224 0.50371,0.60361 0.75558,0.92776 0.25183,0.32417 0.50369,0.66119 0.75555,1.0048 0.25183,0.3436 0.50369,0.6938 0.75555,1.04463 0.25183,0.35082 0.5037,0.70224 0.75555,1.04876 0.25185,0.34653 0.5037,0.68811 0.75555,1.01995 0.25186,0.33184 0.5037,0.65386 0.75555,0.96204 0.25186,0.30823 0.5037,0.60252 0.75555,0.87982 0.25186,0.2773 0.50371,0.53752 0.75557,0.77849 0.25184,0.24098 0.5037,0.46263 0.75555,0.66375 0.25184,0.20115 0.5037,0.38167 0.75555,0.54137 0.25185,0.1597 0.50371,0.29844 0.75556,0.41686 0.25184,0.11843 0.5037,0.21646 0.75555,0.29549 0.25184,0.0791 0.5037,0.13894 0.75556,0.18183 0.25184,0.0429 0.50369,0.0687 0.75555,0.08 0.25185,0.0112 0.50369,0.008 0.75555,-0.007 0.25185,-0.0152 0.50369,-0.042 0.75556,-0.0775 0.25184,-0.0356 0.5037,-0.0798 0.75556,-0.12949 0.25184,-0.0498 0.5037,-0.10509 0.75556,-0.16295 0.25183,-0.0578 0.5037,-0.11828 0.75555,-0.17843 0.25184,-0.0601 0.5037,-0.12008 0.75555,-0.1773 0.25184,-0.0572 0.5037,-0.11171 0.75556,-0.16152 0.25184,-0.0498 0.5037,-0.0948 0.75555,-0.13374 0.25184,-0.0388 0.5037,-0.0715 0.75556,-0.0969 0.25183,-0.0254 0.50369,-0.0436 0.75555,-0.0543 0.25184,-0.0105 0.50369,-0.0134 0.75555,-0.009 0.25185,0.005 0.5037,0.0167 0.75555,0.0358 0.25185,0.019 0.50371,0.045 0.75555,0.077 0.25185,0.0319 0.50371,0.0697 0.75555,0.11187 0.25186,0.0422 0.50372,0.0889 0.75556,0.1385 0.25185,0.0495 0.50371,0.10191 0.75554,0.15525 0.25187,0.0533 0.50372,0.10763 0.75556,0.16103 0.25186,0.0534 0.50371,0.10582 0.75556,0.15547 0.25185,0.0497 0.5037,0.0965 0.75556,0.13886 0.25185,0.0422 0.50371,0.0801 0.75556,0.11185 0.25184,0.0318 0.5037,0.0575 0.75555,0.0759 0.25186,0.0185 0.5037,0.0297 0.75555,0.0325 0.25187,0.002 0.5037,-0.002 0.75555,-0.016 0.25187,-0.0139 0.50371,-0.0364 0.75556,-0.0674 0.25186,-0.0312 0.50371,-0.0711 0.75556,-0.11952 0.25185,-0.0483 0.5037,-0.10514 0.75555,-0.16959 0.25185,-0.0645 0.50371,-0.13664 0.75555,-0.21544 0.25185,-0.0788 0.50371,-0.16426 0.75556,-0.25499 0.25184,-0.0907 0.50371,-0.1867 0.75555,-0.28637 0.25185,-0.0997 0.50371,-0.203 0.75555,-0.30823 0.25185,-0.10523 0.50371,-0.21237 0.75555,-0.31957 0.25186,-0.10717 0.50371,-0.2144 0.75557,-0.31981 0.25185,-0.10541 0.50369,-0.20899 0.75555,-0.30896 0.25185,-0.1 0.5037,-0.19631 0.75555,-0.2874 0.25185,-0.0911 0.50372,-0.17691 0.75555,-0.25601 0.25186,-0.0791 0.50373,-0.15149 0.75556,-0.216 0.25185,-0.0645 0.50372,-0.12111 0.75555,-0.16897 0.25187,-0.0479 0.50372,-0.087 0.75556,-0.1167 0.25186,-0.0298 0.50371,-0.0502 0.75555,-0.0613 0.25186,-0.011 0.50371,-0.0124 0.75556,-0.005 0.25185,0.008 0.5037,0.0252 0.75556,0.0512 0.25185,0.0261 0.5037,0.0612 0.75555,0.10429 0.25186,0.0432 0.50371,0.0944 0.75555,0.1527 0.25186,0.0583 0.50371,0.12375 0.75555,0.19503 0.25187,0.0712 0.50371,0.14839 0.75555,0.23 0.25187,0.0816 0.50371,0.16768 0.75556,0.25678 0.25186,0.0891 0.5037,0.18118 0.75556,0.27482 0.25185,0.0936 0.50369,0.18878 0.75556,0.28399 0.25184,0.0952 0.50368,0.1905 0.75555,0.2845 0.25184,0.094 0.5037,0.18671 0.75555,0.27692 0.25184,0.0902 0.5037,0.1779 0.75556,0.26206 0.25184,0.0841 0.50369,0.16478 0.75556,0.24105 0.25186,0.0763 0.50369,0.14819 0.75555,0.21518 0.25186,0.067 0.50369,0.12904 0.75555,0.18584 0.25186,0.0568 0.50371,0.10832 0.75556,0.15451 0.25185,0.0462 0.5037,0.087 0.75555,0.12263 0.25185,0.0357 0.50371,0.0661 0.75555,0.0915 0.25186,0.0255 0.50371,0.0462 0.75556,0.0625 0.25185,0.0163 0.5037,0.0283 0.75555,0.0366 0.25186,0.008 0.50371,0.0129 0.75555,0.0147 0.25186,0.002 0.50371,4.4e-4 0.75556,-0.002 0.25186,-0.003 0.5037,-0.009 0.75556,-0.0157 0.25185,-0.007 0.50369,-0.015 0.75555,-0.0237 0.25186,-0.009 0.50369,-0.018 0.75555,-0.0271 0.25186,-0.009 0.5037,-0.0182 0.75555,-0.0264 0.25186,-0.008 0.50371,-0.016 0.75555,-0.0224 0.25186,-0.007 0.50371,-0.0119 0.75556,-0.0157 0.25186,-0.005 0.5037,-0.007 0.75555,-0.007 0.25187,-8e-4 0.50371,-3.8e-4 0.75557,0.002 0.25186,0.002 0.5037,0.006 0.75556,0.0105 0.25185,0.005 0.50369,0.011 0.75555,0.018 0.25185,0.007 0.50369,0.015 0.75556,0.0234 0.25185,0.008 0.50369,0.0173 0.75555,0.0261 0.25185,0.009 0.50369,0.0175 0.75555,0.0255 0.25185,0.008 0.5037,0.0152 0.75555,0.0212"
       style="opacity:1;fill:none;fill-opacity:1;fill-rule:nonzero;stroke:#d40000;stroke-width:2.7740407;stroke-linecap:round;stroke-linejoin:round;stroke-miterlimit:4;stroke-dasharray:none;stroke-dashoffset:0;stroke-opacity:1"
       inkscape:connector-curvature="0"
       sodipodi:nodetypes="ccccccscsccccccccccccccccccccccccccccccccccccccccccccccccscsscccccscccccccccccccccccccccccccccccccccccccccccccccscccccsccccccccccccccccccccccccccccccccccccccccccscccccccsccccccsccccccccccccccsccccccccccccccccccccccccccccccccccccccccccccccccccccccsccccccccccccccccccccccccsccccccccccsccssssccccscccccccccccccccscccccccccccccccsccccccsccccccccccccccccccccccscccccccccccccccccccccccccccccccccccccccccccccccccccccccccscccsccccccccccccccccc" />
    <path
       style="fill:none;fill-rule:evenodd;stroke:#000000;stroke-width:2.81249976;stroke-linecap:butt;stroke-linejoin:miter;stroke-miterlimit:4;stroke-dasharray:none;stroke-opacity:1;marker-end:url(#marker1265)"
       d="m 532.53136,647.90685 h 57.07363"
       id="path11414"
       inkscape:connector-curvature="0"
       sodipodi:nodetypes="cc" />
    <path
       style="fill:none;fill-rule:evenodd;stroke:#000000;stroke-width:2.81249952;stroke-linecap:butt;stroke-linejoin:miter;stroke-miterlimit:4;stroke-dasharray:none;stroke-opacity:1;marker-end:url(#marker1265-3)"
       d="M 275.84683,604.40144 H 217.3083"
       id="path11414-0"
       inkscape:connector-curvature="0"
       sodipodi:nodetypes="cc" />
    <path
       id="path8338-8"
       title="(cos(10*x)+cos(9*x)+cos(8*x)+cos(7*x)+cos(6*x)+cos(5*x)+cos(4*x)+cos(3*x)+cos(2*x)+cos(x))**2"
       d="m 402.7515,683.28821 c 0.25229,0.003 0.50459,0.006 0.7569,0.01 0.25229,0.004 0.5046,0.009 0.75691,0.0141 0.25229,0.005 0.5046,0.0109 0.7569,0.0166 0.2523,0.006 0.5046,0.0117 0.7569,0.0171 0.25231,0.006 0.5046,0.0106 0.7569,0.0149 0.25232,0.004 0.50462,0.008 0.75691,0.01 0.25231,0.002 0.50461,0.003 0.75692,10e-4 0.25229,-10e-4 0.50459,-0.004 0.7569,-0.009 0.2523,-0.005 0.50461,-0.0128 0.75691,-0.023 0.25229,-0.0103 0.5046,-0.0233 0.75691,-0.0394 0.25228,-0.0161 0.5046,-0.0352 0.7569,-0.0576 0.25229,-0.0225 0.5046,-0.0481 0.75691,-0.0772 0.25228,-0.0291 0.50459,-0.0615 0.7569,-0.0972 0.2523,-0.0358 0.50459,-0.0748 0.75691,-0.11696 0.25229,-0.0422 0.50458,-0.0874 0.7569,-0.13542 0.25229,-0.048 0.50459,-0.0987 0.7569,-0.15171 0.25229,-0.0529 0.50461,-0.10816 0.7569,-0.16492 0.25229,-0.0568 0.50461,-0.11511 0.7569,-0.17427 0.25229,-0.0592 0.50462,-0.11912 0.75691,-0.17905 0.25231,-0.0599 0.50461,-0.11981 0.75691,-0.17873 0.2523,-0.059 0.50461,-0.11688 0.7569,-0.17296 0.2523,-0.0561 0.50461,-0.11024 0.75692,-0.16159 0.25228,-0.0514 0.50459,-0.0999 0.7569,-0.14476 0.25229,-0.0448 0.50459,-0.086 0.75689,-0.12273 0.25231,-0.0367 0.50462,-0.069 0.75691,-0.0961 0.25231,-0.0272 0.50461,-0.0492 0.7569,-0.0656 0.25232,-0.0165 0.50462,-0.0273 0.7569,-0.0322 0.25232,-0.005 0.50462,-0.004 0.75691,0.003 0.25231,0.007 0.50461,0.0198 0.75691,0.0386 0.2523,0.0188 0.5046,0.0433 0.75691,0.0734 0.2523,0.0301 0.5046,0.0657 0.7569,0.10634 0.2523,0.0406 0.50461,0.0862 0.75691,0.13593 0.2523,0.0498 0.50461,0.1038 0.75691,0.16112 0.2523,0.0573 0.5046,0.11796 0.7569,0.18088 0.25231,0.0629 0.5046,0.1281 0.7569,0.19444 0.25231,0.0663 0.50461,0.13382 0.7569,0.20127 0.25231,0.0675 0.50462,0.13489 0.75691,0.20112 0.2523,0.0662 0.50461,0.13125 0.7569,0.19398 0.2523,0.0627 0.50461,0.12312 0.7569,0.18022 0.25231,0.0571 0.50462,0.11087 0.75691,0.16047 0.2523,0.0496 0.50461,0.095 0.75691,0.13559 0.25231,0.0406 0.50462,0.0763 0.75691,0.10673 0.2523,0.0305 0.50461,0.0556 0.7569,0.0752 0.25231,0.0196 0.50461,0.0338 0.75691,0.0424 0.25231,0.009 0.5046,0.012 0.7569,0.01 0.25231,-10e-4 0.50461,-0.009 0.75691,-0.0205 0.25231,-0.0116 0.50462,-0.0277 0.7569,-0.0478 0.25231,-0.0199 0.50462,-0.0438 0.75691,-0.0704 0.2523,-0.0266 0.50461,-0.0561 0.7569,-0.0874 0.25231,-0.0313 0.50461,-0.0643 0.75691,-0.0978 0.25231,-0.0336 0.5046,-0.0678 0.7569,-0.10134 0.25231,-0.0336 0.50461,-0.0665 0.75691,-0.0977 0.2523,-0.0312 0.5046,-0.0605 0.75691,-0.0872 0.2523,-0.0266 0.50458,-0.0503 0.7569,-0.0704 0.2523,-0.0201 0.50459,-0.0364 0.7569,-0.0484 0.2523,-0.012 0.50459,-0.0196 0.7569,-0.0225 0.2523,-0.003 0.5046,-10e-4 0.7569,0.006 0.25231,0.007 0.50462,0.0181 0.75691,0.0342 0.25231,0.016 0.50461,0.0365 0.75693,0.061 0.25229,0.0244 0.50459,0.0528 0.7569,0.0842 0.2523,0.0313 0.50459,0.0656 0.75691,0.10165 0.25229,0.0359 0.5046,0.0737 0.7569,0.11157 0.25229,0.0378 0.5046,0.0759 0.7569,0.1123 0.25229,0.0364 0.5046,0.0712 0.7569,0.10255 0.25231,0.0313 0.5046,0.0592 0.7569,0.0815 0.25232,0.0224 0.5046,0.0392 0.7569,0.0488 0.25232,0.01 0.5046,0.0116 0.75691,0.004 0.25231,-0.007 0.50461,-0.0233 0.7569,-0.0503 0.25231,-0.0269 0.50461,-0.0647 0.75691,-0.11444 0.2523,-0.0497 0.50461,-0.11145 0.7569,-0.18596 0.25231,-0.0745 0.50461,-0.16186 0.75691,-0.26235 0.2523,-0.10047 0.5046,-0.21413 0.7569,-0.3407 0.25232,-0.12656 0.50461,-0.26609 0.75691,-0.41773 0.25231,-0.15164 0.5046,-0.31543 0.75693,-0.48993 0.2523,-0.17451 0.50458,-0.35975 0.7569,-0.55371 0.2523,-0.19394 0.50458,-0.39664 0.7569,-0.60545 0.2523,-0.20883 0.50459,-0.42383 0.7569,-0.6419 0.2523,-0.21808 0.50461,-0.43924 0.7569,-0.66003 0.25231,-0.22079 0.50461,-0.44117 0.75691,-0.65743 0.25231,-0.21625 0.5046,-0.42833 0.7569,-0.63236 0.25231,-0.20402 0.5046,-0.39994 0.75691,-0.58388 0.2523,-0.18394 0.50459,-0.35582 0.75691,-0.51198 0.25229,-0.15616 0.50459,-0.29647 0.7569,-0.41764 0.25229,-0.12118 0.50459,-0.22309 0.7569,-0.30292 0.25229,-0.0798 0.5046,-0.1375 0.7569,-0.17086 0.25229,-0.0334 0.50461,-0.0423 0.75691,-0.0256 0.2523,0.0168 0.5046,0.0593 0.7569,0.12786 0.25231,0.0686 0.50462,0.16343 0.7569,0.28362 0.25231,0.12018 0.50462,0.2659 0.75691,0.43509 0.2523,0.1692 0.50461,0.36204 0.75691,0.57527 0.2523,0.21323 0.50461,0.44697 0.75692,0.69678 0.25229,0.24983 0.5046,0.51579 0.7569,0.7923 0.25229,0.27652 0.5046,0.56362 0.7569,0.85463 0.25229,0.29101 0.5046,0.58593 0.7569,0.87711 0.25231,0.29119 0.5046,0.5786 0.75691,0.85383 0.2523,0.27522 0.50459,0.53816 0.7569,0.77982 0.25231,0.24168 0.50459,0.46192 0.75691,0.65141 0.2523,0.18951 0.5046,0.34807 0.7569,0.4663 0.2523,0.11824 0.5046,0.19589 0.7569,0.22381 0.25231,0.0279 0.50462,0.006 0.75692,-0.075 0.25229,-0.0808 0.5046,-0.22065 0.75691,-0.42732 0.25228,-0.20669 0.50459,-0.48062 0.7569,-0.82849 0.25229,-0.34787 0.50459,-0.77012 0.7569,-1.27204 0.25229,-0.50193 0.5046,-1.08404 0.7569,-1.74995 0.25229,-0.66591 0.5046,-1.41616 0.75692,-2.25254 0.25228,-0.83637 0.50458,-1.7594 0.7569,-2.76889 0.25229,-1.00949 0.5046,-2.10595 0.75691,-3.28704 0.25229,-1.18109 0.50459,-2.44733 0.7569,-3.79421 0.25229,-1.34688 0.50461,-2.77486 0.7569,-4.27729 0.2523,-1.5024 0.50461,-3.07967 0.7569,-4.72301 0.2523,-1.64333 0.50461,-3.3531 0.7569,-5.11853 0.2523,-1.76542 0.50461,-3.58683 0.75691,-5.45162 0.2523,-1.86479 0.50461,-3.77322 0.75691,-5.71113 0.2523,-1.93792 0.5046,-3.90551 0.7569,-5.88735 0.2523,-1.98185 0.50461,-3.97802 0.75691,-5.97222 0.2523,-1.99422 0.50461,-3.98642 0.7569,-5.95977 0.2523,-1.97335 0.50461,-3.92771 0.7569,-5.84611 0.25232,-1.91841 0.50461,-3.80059 0.7569,-5.62986 0.25232,-1.82928 0.50462,-3.60528 0.7569,-5.31199 0.25232,-1.70672 0.50462,-3.34371 0.75692,-4.89603 0.2523,-1.55232 0.5046,-3.01944 0.7569,-4.38789 0.2523,-1.36844 0.5046,-2.6376 0.75691,-3.79583 0.25229,-1.15823 0.5046,-2.20483 0.7569,-3.13027 0.2523,-0.92545 0.50462,-1.72899 0.75691,-2.40348 0.2523,-0.67448 0.50461,-1.2191 0.7569,-1.62929 0.25231,-0.41018 0.50461,-0.68509 0.75692,-0.82282 0.25231,-0.13772 0.5046,-0.13745 0.75691,0 0.2523,0.13746 0.50459,0.41292 0.7569,0.82282 0.2523,0.40992 0.50461,0.95507 0.7569,1.62929 0.2523,0.67423 0.50462,1.47826 0.7569,2.40348 0.2523,0.9252 0.50462,1.97226 0.7569,3.13027 0.2523,1.158 0.50462,2.42759 0.75691,3.79583 0.25231,1.36826 0.50461,2.83574 0.7569,4.38789 0.25231,1.55215 0.50461,3.18945 0.7569,4.89603 0.25231,1.70657 0.50462,3.48282 0.75691,5.31199 0.25231,1.82916 0.50461,3.71153 0.75691,5.62986 0.2523,1.91832 0.5046,3.87281 0.7569,5.84611 0.25231,1.97332 0.50461,3.96556 0.7569,5.95977 0.25231,1.99419 0.50462,3.99035 0.7569,5.97222 0.25233,1.98187 0.50464,3.94936 0.75692,5.88735 0.25232,1.93797 0.50462,3.84625 0.75691,5.71113 0.25231,1.86487 0.5046,3.68608 0.75692,5.45162 0.25229,1.76553 0.50458,3.47507 0.7569,5.11853 0.2523,1.64347 0.50458,3.22046 0.7569,4.72301 0.2523,1.50257 0.5046,2.93025 0.7569,4.27729 0.25231,1.34704 0.5046,2.61295 0.75691,3.79421 0.2523,1.18127 0.50459,2.27738 0.7569,3.28704 0.25231,1.00966 0.50459,1.93234 0.7569,2.76889 0.25231,0.83655 0.5046,1.58645 0.7569,2.25254 0.25231,0.66608 0.50461,1.24785 0.75691,1.74995 0.2523,0.50208 0.5046,0.92403 0.7569,1.27204 0.2523,0.34802 0.5046,0.62167 0.7569,0.82849 0.2523,0.2068 0.50461,0.3464 0.75693,0.42732 0.25229,0.0809 0.50459,0.10283 0.7569,0.075 0.25229,-0.0278 0.5046,-0.10565 0.7569,-0.22381 0.2523,-0.11815 0.5046,-0.27685 0.75691,-0.4663 0.25231,-0.18943 0.5046,-0.40978 0.75691,-0.65141 0.2523,-0.24161 0.50459,-0.50462 0.7569,-0.77982 0.25231,-0.2752 0.50459,-0.56264 0.7569,-0.85383 0.25231,-0.29117 0.50461,-0.58609 0.7569,-0.87711 0.25231,-0.29102 0.50461,-0.57809 0.7569,-0.85463 0.25231,-0.27652 0.50461,-0.54245 0.75691,-0.7923 0.25231,-0.24984 0.5046,-0.48351 0.75691,-0.69678 0.25231,-0.21327 0.5046,-0.40602 0.7569,-0.57527 0.25231,-0.16924 0.5046,-0.31485 0.75691,-0.43509 0.2523,-0.12024 0.50459,-0.21496 0.7569,-0.28362 0.25232,-0.0686 0.5046,-0.11108 0.75692,-0.12786 0.2523,-0.0168 0.5046,-0.008 0.7569,0.0256 0.2523,0.0333 0.5046,0.0911 0.7569,0.17086 0.2523,0.0798 0.50461,0.18178 0.75691,0.30292 0.2523,0.12112 0.5046,0.26151 0.7569,0.41764 0.25231,0.15613 0.5046,0.32806 0.75691,0.51198 0.2523,0.18392 0.5046,0.37987 0.75692,0.58388 0.25228,0.20402 0.50459,0.41612 0.7569,0.63236 0.25228,0.21625 0.5046,0.43664 0.7569,0.65743 0.25228,0.22079 0.5046,0.44195 0.7569,0.66003 0.2523,0.21809 0.5046,0.43306 0.7569,0.6419 0.25231,0.20884 0.5046,0.41149 0.7569,0.60545 0.25231,0.19398 0.5046,0.37918 0.7569,0.55371 0.25231,0.17451 0.50462,0.33828 0.75693,0.48993 0.25229,0.15166 0.5046,0.29115 0.7569,0.41773 0.25229,0.12659 0.5046,0.2402 0.7569,0.3407 0.2523,0.1005 0.50461,0.18782 0.75691,0.26235 0.25229,0.0745 0.5046,0.13622 0.7569,0.18596 0.25229,0.0498 0.5046,0.0875 0.75691,0.11444 0.25229,0.027 0.50459,0.0432 0.7569,0.0503 0.2523,0.007 0.50459,0.005 0.7569,-0.004 0.2523,-0.01 0.50459,-0.0264 0.75691,-0.0488 0.25229,-0.0224 0.5046,-0.0502 0.75691,-0.0815 0.25229,-0.0313 0.50461,-0.0661 0.75691,-0.10255 0.25228,-0.0364 0.5046,-0.0744 0.7569,-0.1123 0.25229,-0.0378 0.5046,-0.0756 0.7569,-0.11157 0.2523,-0.036 0.5046,-0.0703 0.75692,-0.10165 0.25229,-0.0314 0.5046,-0.0597 0.7569,-0.0842 0.25229,-0.0244 0.5046,-0.045 0.75691,-0.061 0.25228,-0.016 0.50459,-0.0274 0.7569,-0.0342 0.25229,-0.007 0.50459,-0.008 0.7569,-0.006 0.2523,0.003 0.5046,0.0105 0.7569,0.0225 0.2523,0.012 0.50461,0.0283 0.7569,0.0484 0.2523,0.0201 0.50461,0.0439 0.7569,0.0704 0.25231,0.0266 0.50462,0.0559 0.75691,0.0872 0.2523,0.0311 0.50461,0.0641 0.75689,0.0977 0.25232,0.0335 0.50462,0.0677 0.75691,0.10134 0.25231,0.0336 0.50461,0.0666 0.75691,0.0978 0.2523,0.0313 0.50461,0.0607 0.75691,0.0874 0.2523,0.0266 0.50461,0.0504 0.75691,0.0704 0.2523,0.02 0.50461,0.0362 0.75691,0.0478 0.25232,0.0117 0.5046,0.0187 0.7569,0.0205 0.25232,10e-4 0.5046,-10e-4 0.7569,-0.01 0.25232,-0.009 0.50461,-0.0229 0.75691,-0.0424 0.25231,-0.0196 0.50461,-0.0447 0.75691,-0.0752 0.2523,-0.0305 0.5046,-0.0662 0.7569,-0.10673 0.2523,-0.0406 0.50461,-0.086 0.7569,-0.13559 0.2523,-0.0496 0.50461,-0.10337 0.75691,-0.16047 0.25229,-0.0571 0.50461,-0.1175 0.7569,-0.18022 0.2523,-0.0628 0.50461,-0.12776 0.7569,-0.19398 0.2523,-0.0662 0.50461,-0.13366 0.7569,-0.20112 0.25231,-0.0674 0.50461,-0.13493 0.75692,-0.20127 0.2523,-0.0663 0.50459,-0.13153 0.7569,-0.19444 0.2523,-0.0629 0.5046,-0.12356 0.75691,-0.18088 0.2523,-0.0573 0.50462,-0.11133 0.7569,-0.16112 0.25231,-0.0498 0.50463,-0.0953 0.75691,-0.13593 0.25231,-0.0406 0.50462,-0.0762 0.7569,-0.10634 0.25232,-0.0302 0.50462,-0.0548 0.75691,-0.0734 0.25231,-0.0188 0.50461,-0.0316 0.75691,-0.0386 0.2523,-0.007 0.5046,-0.008 0.7569,-0.003 0.2523,0.005 0.5046,0.0159 0.75691,0.0322 0.2523,0.0164 0.5046,0.0385 0.7569,0.0656 0.25231,0.0272 0.50461,0.0594 0.7569,0.0961 0.25231,0.0367 0.50461,0.0779 0.7569,0.12273 0.25232,0.0448 0.50461,0.0934 0.7569,0.14476 0.25232,0.0514 0.50461,0.10552 0.75691,0.16159 0.25231,0.0561 0.5046,0.11403 0.75691,0.17296 0.25231,0.0589 0.5046,0.1188 0.75692,0.17873 0.25229,0.0599 0.50458,0.11989 0.7569,0.17905 0.25229,0.0592 0.5046,0.1175 0.7569,0.17427 0.25229,0.0568 0.5046,0.11196 0.75691,0.16492 0.2523,0.053 0.50459,0.10371 0.75691,0.15171 0.25231,0.048 0.50459,0.0933 0.7569,0.13542 0.25231,0.0422 0.50459,0.0812 0.75691,0.11696 0.2523,0.0358 0.5046,0.0682 0.7569,0.0972 0.2523,0.0291 0.5046,0.0548 0.7569,0.0772 0.2523,0.0225 0.50461,0.0416 0.7569,0.0576 0.25231,0.016 0.50461,0.0291 0.75691,0.0394 0.2523,0.0103 0.5046,0.0178 0.7569,0.023 0.25231,0.005 0.50461,0.008 0.7569,0.009 0.25231,0.001 0.50462,2.8e-4 0.75692,-10e-4 0.25231,-0.002 0.5046,-0.006 0.75691,-0.01 0.2523,-0.004 0.50459,-0.009 0.7569,-0.0149 0.25231,-0.006 0.50459,-0.0113 0.7569,-0.0171 0.25231,-0.006 0.5046,-0.0114 0.7569,-0.0166 0.25231,-0.005 0.50461,-0.0101 0.7569,-0.0141 0.25231,-0.004 0.50461,-0.007 0.75691,-0.01 0.25231,-0.003 0.5046,-0.004 0.7569,-0.004 0.25232,-5.1e-4 0.50461,-2.4e-4 0.75693,10e-4 0.2523,10e-4 0.50459,0.004 0.7569,0.007 0.2523,0.003 0.50459,0.007 0.7569,0.0113 0.2523,0.004 0.5046,0.009 0.75691,0.0147 0.2523,0.005 0.50459,0.0109 0.7569,0.0164 0.2523,0.006 0.50459,0.011 0.75691,0.016 0.2523,0.005 0.5046,0.01 0.7569,0.0133 0.2523,0.004 0.50461,0.007 0.7569,0.008 0.2523,0.001 0.50461,0.002 0.75691,0.001 0.25229,-0.001 0.5046,-0.004 0.7569,-0.008 0.2523,-0.004 0.5046,-0.0109 0.75691,-0.0193 0.25229,-0.008 0.5046,-0.0189 0.75691,-0.0317 0.25228,-0.0127 0.5046,-0.0278 0.7569,-0.0449 0.25228,-0.0172 0.5046,-0.0367 0.7569,-0.0583 0.2523,-0.0216 0.5046,-0.0455 0.7569,-0.0713 0.25231,-0.0258 0.5046,-0.0537 0.75691,-0.0833 0.2523,-0.0296 0.5046,-0.061 0.75691,-0.0937 0.2523,-0.0328 0.5046,-0.0669 0.7569,-0.10206 0.2523,-0.0351 0.50461,-0.0712 0.75691,-0.10783 0.25229,-0.0366 0.50461,-0.0737 0.75691,-0.11068 0.2523,-0.0371 0.5046,-0.074 0.75691,-0.11042 0.2523,-0.0364 0.50459,-0.0722 0.7569,-0.1069 0.2523,-0.0347 0.5046,-0.0683 0.7569,-0.1002 0.2523,-0.032 0.5046,-0.0622 0.75692,-0.0904 0.25229,-0.0281 0.50458,-0.0543 0.7569,-0.0779 0.25229,-0.0237 0.50458,-0.0447 0.7569,-0.063 0.25229,-0.0183 0.50459,-0.0337 0.7569,-0.0462 0.25229,-0.0125 0.50461,-0.0218 0.7569,-0.028 0.25229,-0.006 0.50461,-0.009 0.75691,-0.009 0.25229,1.2e-4 0.5046,0.004 0.7569,0.01 0.25229,0.006 0.5046,0.016 0.75691,0.0283 0.25229,0.0124 0.50459,0.0277 0.75691,0.0457 0.25228,0.018 0.50459,0.0386 0.75691,0.0615 0.25229,0.023 0.50461,0.0482 0.75691,0.0753 0.25229,0.0271 0.5046,0.0561 0.7569,0.0865 0.25229,0.0305 0.5046,0.0622 0.75689,0.095 0.25232,0.0328 0.50461,0.0665 0.7569,0.10063 0.25232,0.0342 0.50462,0.0688 0.7569,0.10339 0.25232,0.0346 0.50463,0.0692 0.75691,0.10331 0.25231,0.0341 0.50462,0.0678 0.75691,0.1006 0.2523,0.0328 0.50461,0.0648 0.75691,0.0955 0.2523,0.0307 0.50461,0.0604 0.7569,0.0885 0.2523,0.0282 0.50461,0.0549 0.7569,0.0799 0.2523,0.025 0.50461,0.0485 0.7569,0.0701 0.25231,0.0216 0.50461,0.0416 0.75691,0.0597 0.25231,0.0182 0.5046,0.0345 0.7569,0.0491 0.25232,0.0146 0.50461,0.0276 0.75692,0.0388 0.2523,0.0113 0.50459,0.021 0.7569,0.0292 0.2523,0.008 0.50462,0.015 0.7569,0.0205 0.25231,0.006 0.50463,0.01 0.75692,0.013 0.2523,0.004 0.50461,0.006 0.7569,0.007 0.25231,10e-4 0.50461,0.002 0.75691,0.002 0.2523,2e-4 0.5046,-1.3e-4 0.7569,-5.1e-4 0.2523,-5.1e-4 0.50461,-10e-4 0.75691,-0.003 0.25229,-10e-4 0.5046,-0.002 0.7569,-0.003 0.2523,-10e-4 0.5046,-10e-4 0.7569,-0.003 0.2523,-5e-4 0.50461,-10e-4 0.7569,-10e-4 0.25231,-3.1e-4 0.50461,-3.6e-4 0.7569,-1.7e-4 0.25231,1.9e-4 0.50463,5.1e-4 0.7569,10e-4 0.25232,5.1e-4 0.50464,0.001 0.75692,0.003 0.25231,10e-4 0.50462,10e-4 0.7569,0.003 0.25231,10e-4 0.50462,10e-4 0.75692,0.003 0.2523,5.1e-4 0.5046,10e-4 0.7569,10e-4 0.2523,9e-5 0.5046,-2.6e-4 0.7569,-10e-4 0.2523,-10e-4 0.50461,-0.003 0.7569,-0.005 0.25231,-0.003 0.50461,-0.006 0.75692,-0.0103 0.25231,-0.004 0.50459,-0.01 0.7569,-0.0164 0.25232,-0.007 0.50459,-0.0145 0.7569,-0.0236 0.25232,-0.009 0.50461,-0.0197 0.75691,-0.0316 0.25231,-0.0119 0.5046,-0.0253 0.7569,-0.04 0.25231,-0.0148 0.5046,-0.031 0.75691,-0.0485 0.2523,-0.0175 0.5046,-0.0366 0.75691,-0.0568 0.25229,-0.0202 0.50459,-0.0418 0.75691,-0.0644 0.25229,-0.0226 0.5046,-0.0463 0.7569,-0.071 0.2523,-0.0246 0.5046,-0.0502 0.7569,-0.0763 0.25231,-0.0261 0.5046,-0.0529 0.7569,-0.0799 0.25231,-0.0271 0.5046,-0.0544 0.75692,-0.0817 0.2523,-0.0272 0.50458,-0.0545 0.7569,-0.0813 0.2523,-0.0269 0.50459,-0.0532 0.7569,-0.0788 0.2523,-0.0256 0.50461,-0.0505 0.7569,-0.0742 0.2523,-0.0236 0.50461,-0.0462 0.7569,-0.0674 0.25231,-0.0211 0.50461,-0.0408 0.75691,-0.0587 0.25232,-0.0179 0.50461,-0.034 0.75691,-0.0483 0.2523,-0.0142 0.5046,-0.0264 0.75691,-0.0364 0.25229,-0.0101 0.50459,-0.0179 0.7569,-0.0235 0.25231,-0.006 0.50459,-0.009 0.7569,-0.01 0.25231,-0.001 0.50461,2.9e-4 0.75691,0.004 0.25231,0.004 0.50461,0.01 0.7569,0.0175 0.25231,0.008 0.50462,0.0182 0.75691,0.0305 0.25231,0.0122 0.50461,0.0264 0.7569,0.0424 0.25232,0.016 0.50461,0.0339 0.7569,0.0531 0.25232,0.0193 0.50461,0.0401 0.75691,0.0622 0.25231,0.022 0.5046,0.0453 0.75691,0.0694 0.2523,0.0241 0.50459,0.0491 0.75691,0.0746 0.25229,0.0255 0.50459,0.0515 0.7569,0.0777 0.25229,0.0262 0.50459,0.0526 0.7569,0.0788 0.25229,0.0262 0.5046,0.0524 0.7569,0.078 0.25231,0.0256 0.5046,0.0508 0.7569,0.0753 0.25231,0.0245 0.50461,0.0483 0.75693,0.0711 0.25229,0.0228 0.50459,0.0447 0.75691,0.0655 0.25229,0.0208 0.50459,0.0405 0.7569,0.059 0.25229,0.0185 0.5046,0.0357 0.7569,0.0518 0.25229,0.016 0.50461,0.0307 0.75691,0.0442 0.25228,0.0135 0.5046,0.0257 0.7569,0.0367 0.25229,0.011 0.5046,0.0208 0.7569,0.0294 0.2523,0.009 0.5046,0.0161 0.7569,0.0226 0.25231,0.006 0.5046,0.0119 0.75691,0.0166 0.2523,0.004 0.5046,0.008 0.75691,0.0115 0.25229,0.003 0.50459,0.005 0.7569,0.007 0.25229,10e-4 0.50461,0.003 0.7569,0.004 0.25229,10e-4 0.50461,10e-4 0.7569,10e-4 0.2523,3.4e-4 0.50461,3.7e-4 0.7569,3.7e-4 0.25231,2e-5 0.50461,-6e-5 0.75691,-1.6e-4 0.25231,-10e-5 0.50461,-2.1e-4 0.75693,-2.8e-4 0.25228,-8e-5 0.50458,-1.1e-4 0.75691,-9e-5 0.25228,2e-5 0.50458,9e-5 0.7569,1.9e-4 0.2523,8e-5 0.50459,2e-4 0.7569,2.8e-4 0.2523,6e-5 0.5046,10e-5 0.7569,0 0.2523,-1.1e-4 0.5046,-3.6e-4 0.7569,-5.1e-4 0.25231,-3.7e-4 0.50461,-10e-4 0.75691,-0.003 0.2523,-10e-4 0.5046,-0.003 0.7569,-0.005 0.2523,-0.002 0.5046,-0.005 0.75691,-0.008 0.25229,-0.004 0.5046,-0.008 0.75691,-0.0126 0.25228,-0.005 0.50459,-0.0109 0.7569,-0.0178 0.25228,-0.007 0.5046,-0.0147 0.7569,-0.0236 0.25228,-0.009 0.5046,-0.019 0.7569,-0.0301 0.2523,-0.0112 0.50461,-0.0235 0.75691,-0.0369 0.25231,-0.0135 0.50461,-0.0281 0.7569,-0.0439 0.25231,-0.0158 0.50461,-0.0326 0.7569,-0.0505 0.25231,-0.0179 0.50462,-0.0369 0.75691,-0.0568 0.2523,-0.0198 0.50461,-0.0407 0.7569,-0.0622 0.25232,-0.0215 0.50463,-0.0438 0.75691,-0.0665 0.25231,-0.0227 0.50462,-0.046 0.75691,-0.0696 0.2523,-0.0235 0.50461,-0.0473 0.7569,-0.0711 0.25231,-0.0237 0.50461,-0.0475 0.75691,-0.0709 0.2523,-0.0234 0.50461,-0.0464 0.7569,-0.0689 0.25232,-0.0225 0.50461,-0.0442 0.75691,-0.0651 0.25231,-0.0208 0.5046,-0.0408 0.7569,-0.0595 0.25231,-0.0188 0.5046,-0.0362 0.7569,-0.0522 0.25231,-0.0161 0.50461,-0.0307 0.75691,-0.0436 0.25231,-0.013 0.50462,-0.0241 0.75691,-0.0335 0.2523,-0.009 0.50461,-0.0169 0.7569,-0.0225 0.25231,-0.006 0.50461,-0.009 0.7569,-0.0109 0.25231,-10e-4 0.50462,-10e-4 0.75691,10e-4 0.2523,0.002 0.50461,0.007 0.75692,0.013 0.25228,0.006 0.50459,0.0145 0.7569,0.0244 0.25229,0.01 0.5046,0.0218 0.7569,0.0352 0.2523,0.0135 0.50461,0.0284 0.75691,0.0449 0.2523,0.0164 0.50461,0.0343 0.7569,0.0532 0.25231,0.019 0.50461,0.0391 0.7569,0.0601 0.25231,0.021 0.50462,0.0428 0.7569,0.0652 0.25231,0.0225 0.50462,0.0453 0.75691,0.0686 0.25231,0.0232 0.50461,0.0467 0.7569,0.0702 0.25231,0.0235 0.50462,0.047 0.75692,0.0701 0.2523,0.0232 0.50461,0.046 0.7569,0.0683 0.2523,0.0223 0.50461,0.0441 0.75691,0.0651 0.25229,0.021 0.5046,0.0413 0.7569,0.0607 0.25232,0.0193 0.5046,0.0378 0.7569,0.0553 0.25232,0.0174 0.5046,0.0339 0.7569,0.0491 0.25232,0.0153 0.5046,0.0295 0.75691,0.0426 0.25231,0.0131 0.5046,0.025 0.75691,0.0359 0.2523,0.0109 0.50459,0.0207 0.7569,0.0295 0.25231,0.009 0.5046,0.0164 0.7569,0.0232 0.25231,0.007 0.5046,0.0126 0.75691,0.0175 0.25232,0.005 0.50461,0.009 0.75691,0.0127 0.25231,0.004 0.5046,0.006 0.75691,0.009 0.2523,0.002 0.50459,0.004 0.75692,0.006 0.2523,10e-4 0.50458,0.002 0.7569,0.003 0.2523,5.1e-4 0.50458,0.001 0.7569,0.001 0.2523,3.2e-4 0.5046,3.7e-4 0.7569,5.1e-4 0.2523,10e-5 0.50461,1.2e-4 0.7569,1.3e-4 0.2523,2e-5 0.50461,2e-5 0.7569,2e-5"
       style="opacity:1;fill:none;fill-opacity:1;fill-rule:nonzero;stroke:#d40000;stroke-width:2.20264173;stroke-linecap:round;stroke-linejoin:round;stroke-miterlimit:4;stroke-dasharray:none;stroke-dashoffset:0;stroke-opacity:1"
       inkscape:connector-curvature="0"
       sodipodi:nodetypes="cccscccccccccccccssccccccccccccccccccccccccccccccccccccccccccccccccccccccsccccccccccccccccccccccccscccccccccccccssssccccscccccccccccccccsccccccccccssccccccsccscccccccsccsccccccsccccccccccccccccccccccccccccccccccccccccccccccccccccccccccccccscccccccccccccccccccccccccccccccccccccccccccscccccccccccccccccccccccccscccccccccccccccccccccccccccscscccccccccccccccccccsccccsccccscccccsccccccccccccccccccscccccccccccccccccccsccccccscccsc" />
  </g>
</svg>
