<?xml version="1.0" encoding="UTF-8" standalone="no"?>
<!-- Created with Inkscape (http://www.inkscape.org/) -->

<svg
   xmlns:dc="http://purl.org/dc/elements/1.1/"
   xmlns:cc="http://creativecommons.org/ns#"
   xmlns:rdf="http://www.w3.org/1999/02/22-rdf-syntax-ns#"
   xmlns:svg="http://www.w3.org/2000/svg"
   xmlns="http://www.w3.org/2000/svg"
   xmlns:sodipodi="http://sodipodi.sourceforge.net/DTD/sodipodi-0.dtd"
   xmlns:inkscape="http://www.inkscape.org/namespaces/inkscape"
   width="252.45186mm"
   height="40.440254mm"
   viewBox="0 0 894.51446 143.29223"
   id="svg2"
   version="1.1"
   inkscape:version="0.92.3 (2405546, 2018-03-11)"
   sodipodi:docname="06_MLvsota.svg">
  <sodipodi:namedview
     id="base"
     pagecolor="#ffffff"
     bordercolor="#666666"
     borderopacity="1.0"
     inkscape:pageopacity="0.0"
     inkscape:pageshadow="2"
     inkscape:zoom="1.0090663"
     inkscape:cx="541.56589"
     inkscape:cy="78.441212"
     inkscape:document-units="px"
     inkscape:current-layer="layer1"
     showgrid="false"
     inkscape:window-width="1587"
     inkscape:window-height="973"
     inkscape:window-x="111"
     inkscape:window-y="9"
     inkscape:window-maximized="0"
     fit-margin-top="0"
     fit-margin-left="0"
     fit-margin-right="0"
     fit-margin-bottom="0"
     showguides="false"
     inkscape:snap-global="true" />
  <defs
     id="defs4">
    <marker
       inkscape:stockid="Arrow1Mend"
       orient="auto"
       refY="0"
       refX="0"
       id="Arrow1Mend"
       style="overflow:visible"
       inkscape:isstock="true">
      <path
         id="path913"
         d="M 0,0 5,-5 -12.5,0 5,5 Z"
         style="fill:#000000;fill-opacity:1;fill-rule:evenodd;stroke:#000000;stroke-width:1.00000003pt;stroke-opacity:1"
         transform="matrix(-0.4,0,0,-0.4,-4,0)"
         inkscape:connector-curvature="0" />
    </marker>
    <marker
       inkscape:stockid="Arrow1Mstart"
       orient="auto"
       refY="0"
       refX="0"
       id="Arrow1Mstart"
       style="overflow:visible"
       inkscape:isstock="true">
      <path
         id="path910"
         d="M 0,0 5,-5 -12.5,0 5,5 Z"
         style="fill:#000000;fill-opacity:1;fill-rule:evenodd;stroke:#000000;stroke-width:1.00000003pt;stroke-opacity:1"
         transform="matrix(0.4,0,0,0.4,4,0)"
         inkscape:connector-curvature="0" />
    </marker>
    <marker
       inkscape:isstock="true"
       style="overflow:visible"
       id="marker1265"
       refX="0"
       refY="0"
       orient="auto"
       inkscape:stockid="Arrow1Send">
      <path
         transform="matrix(-0.2,0,0,-0.2,-1.2,0)"
         style="fill:#d40000;fill-opacity:1;fill-rule:evenodd;stroke:#d40000;stroke-width:1.00000003pt;stroke-opacity:1"
         d="M 0,0 5,-5 -12.5,0 5,5 Z"
         id="path1017"
         inkscape:connector-curvature="0" />
    </marker>
    <marker
       inkscape:isstock="true"
       style="overflow:visible"
       id="marker1265-3"
       refX="0"
       refY="0"
       orient="auto"
       inkscape:stockid="Arrow1Send">
      <path
         inkscape:connector-curvature="0"
         transform="matrix(-0.2,0,0,-0.2,-1.2,0)"
         style="fill:#d40000;fill-opacity:1;fill-rule:evenodd;stroke:#d40000;stroke-width:1.00000003pt;stroke-opacity:1"
         d="M 0,0 5,-5 -12.5,0 5,5 Z"
         id="path1017-6" />
    </marker>
    <marker
       inkscape:isstock="true"
       style="overflow:visible"
       id="marker1265-3-6"
       refX="0"
       refY="0"
       orient="auto"
       inkscape:stockid="Arrow1Send">
      <path
         inkscape:connector-curvature="0"
         transform="matrix(-0.2,0,0,-0.2,-1.2,0)"
         style="fill:#000000;fill-opacity:1;fill-rule:evenodd;stroke:#000000;stroke-width:1.00000003pt;stroke-opacity:1"
         d="M 0,0 5,-5 -12.5,0 5,5 Z"
         id="path1017-6-7" />
    </marker>
    <marker
       inkscape:stockid="Arrow1Mstart"
       orient="auto"
       refY="0"
       refX="0"
       id="Arrow1Mstart-3"
       style="overflow:visible"
       inkscape:isstock="true">
      <path
         inkscape:connector-curvature="0"
         id="path910-5"
         d="M 0,0 5,-5 -12.5,0 5,5 Z"
         style="fill:#000000;fill-opacity:1;fill-rule:evenodd;stroke:#000000;stroke-width:1.00000003pt;stroke-opacity:1"
         transform="matrix(0.4,0,0,0.4,4,0)" />
    </marker>
    <marker
       inkscape:stockid="Arrow1Mend"
       orient="auto"
       refY="0"
       refX="0"
       id="Arrow1Mend-6"
       style="overflow:visible"
       inkscape:isstock="true">
      <path
         inkscape:connector-curvature="0"
         id="path913-2"
         d="M 0,0 5,-5 -12.5,0 5,5 Z"
         style="fill:#000000;fill-opacity:1;fill-rule:evenodd;stroke:#000000;stroke-width:1.00000003pt;stroke-opacity:1"
         transform="matrix(-0.4,0,0,-0.4,-4,0)" />
    </marker>
  </defs>
  <metadata
     id="metadata7">
    <rdf:RDF>
      <cc:Work
         rdf:about="">
        <dc:format>image/svg+xml</dc:format>
        <dc:type
           rdf:resource="http://purl.org/dc/dcmitype/StillImage" />
        <dc:title></dc:title>
      </cc:Work>
    </rdf:RDF>
  </metadata>
  <g
     transform="translate(-171.11214,-552.08252)"
     id="layer1"
     inkscape:groupmode="layer"
     inkscape:label="Layer 1">
    <text
       id="text1234"
       y="345.69266"
       x="0.8884899"
       style="font-style:italic;font-variant:normal;font-weight:normal;font-stretch:normal;font-size:23.43749809px;line-height:125%;font-family:msbm10;-inkscape-font-specification:'msbm10 Italic';letter-spacing:0px;word-spacing:0px;fill:#000000;fill-opacity:1;stroke:none;stroke-width:0.93749994px;stroke-linecap:butt;stroke-linejoin:miter;stroke-opacity:1"
       xml:space="preserve"><tspan
         style="stroke-width:0.93749994px"
         y="363.30386"
         x="0.8884899"
         id="tspan1232"
         sodipodi:role="line" /></text>
    <path
       id="path5703"
       title="cos(2x)"
       d=""
       style="opacity:1;fill:none;fill-opacity:1;fill-rule:nonzero;stroke:#737373;stroke-width:1.87499988;stroke-linecap:round;stroke-linejoin:round;stroke-miterlimit:4;stroke-dasharray:none;stroke-dashoffset:0;stroke-opacity:1"
       inkscape:connector-curvature="0" />
    <g
       id="g2491">
      <path
         style="opacity:1;fill:none;fill-opacity:0.98809521;fill-rule:nonzero;stroke:#000000;stroke-width:2.54206395;stroke-linecap:butt;stroke-linejoin:round;stroke-miterlimit:4;stroke-dasharray:none;stroke-dashoffset:0;stroke-opacity:1"
         id="path4464-0"
         sodipodi:type="arc"
         sodipodi:cx="378.40997"
         sodipodi:cy="637.18854"
         sodipodi:rx="206.02664"
         sodipodi:ry="214.05365"
         sodipodi:start="2.8679076"
         sodipodi:end="3.4167613"
         sodipodi:open="true"
         d="m 180.05135,695.04321 a 206.02664,214.05365 0 0 1 0.0828,-116.01503" />
      <path
         style="opacity:1;fill:none;fill-opacity:0.98809521;fill-rule:nonzero;stroke:#000000;stroke-width:2.54206395;stroke-linecap:butt;stroke-linejoin:round;stroke-miterlimit:4;stroke-dasharray:none;stroke-dashoffset:0;stroke-opacity:1"
         id="path4464-3-9"
         sodipodi:type="arc"
         sodipodi:cx="-202.38239"
         sodipodi:cy="637.18854"
         sodipodi:rx="206.02664"
         sodipodi:ry="214.05365"
         sodipodi:start="2.8679076"
         sodipodi:end="3.4167613"
         sodipodi:open="true"
         d="m -400.74101,695.04321 a 206.02664,214.05365 0 0 1 0.0828,-116.01503"
         transform="scale(-1,1)" />
      <path
         sodipodi:nodetypes="ccccccccccscccccsccccccccccccccccccccccccccccccccccccccccccscccccccsccccccsccccccccccccccsccccccccccccccccccccccccccccccccccccccccccccccccccccccsccccccccccccccccccccccccsccccccccccsccssssccccscccccccccccccccscccccccccccccccsccccccsccccccccccccccccccccccsccccccccccccccccccccccccccccc"
         inkscape:connector-curvature="0"
         style="opacity:1;fill:none;fill-opacity:1;fill-rule:nonzero;stroke:#d40000;stroke-width:2.7740407;stroke-linecap:round;stroke-linejoin:round;stroke-miterlimit:4;stroke-dasharray:none;stroke-dashoffset:0;stroke-opacity:1"
         d="m 178.06784,682.95368 c 0.25184,0.0157 0.5037,0.03 0.75555,0.0429 0.25184,0.0128 0.5037,0.024 0.75555,0.0338 0.25186,0.01 0.5037,0.0182 0.75556,0.0253 0.25185,0.007 0.50369,0.013 0.75555,0.0176 0.25185,0.005 0.5037,0.008 0.75555,0.011 0.25185,0.003 0.50371,0.005 0.75555,0.006 0.25185,0.002 0.50371,0.002 0.75555,0.002 0.25187,-8e-5 0.50371,-5.4e-4 0.75555,-0.002 0.25187,-5.5e-4 0.50372,-0.002 0.75556,-0.003 0.25186,-0.002 0.50371,-0.002 0.75556,-0.003 0.25185,-0.002 0.5037,-0.002 0.75556,-0.003 0.25184,-5.4e-4 0.50369,-0.002 0.75555,-0.002 0.25185,-2e-4 0.5037,-1.4e-4 0.75555,2e-4 0.25185,3e-4 0.50371,5.3e-4 0.75556,0.002 0.25185,5.5e-4 0.50371,0.002 0.75555,0.003 0.25186,0.002 0.50372,0.002 0.75556,0.003 0.25185,0.002 0.50371,0.002 0.75555,0.003 0.25186,5.5e-4 0.50371,5.5e-4 0.75556,5.5e-4 0.25185,-2.2e-4 0.5037,-5.5e-4 0.75556,-0.002 0.25184,-0.002 0.50371,-0.005 0.75555,-0.007 0.25184,-0.004 0.50371,-0.008 0.75555,-0.014 0.25184,-0.006 0.50371,-0.0131 0.75555,-0.022 0.25187,-0.009 0.50371,-0.0191 0.75555,-0.0312 0.25187,-0.0121 0.50371,-0.0258 0.75555,-0.0416 0.25187,-0.0157 0.50371,-0.0332 0.75556,-0.0526 0.25186,-0.0194 0.50372,-0.0408 0.75556,-0.0639 0.25185,-0.0232 0.50371,-0.0482 0.75555,-0.075 0.25185,-0.0268 0.50372,-0.0554 0.75555,-0.0854 0.25186,-0.0302 0.50372,-0.0617 0.75555,-0.0947 0.25186,-0.0328 0.50372,-0.0671 0.75556,-0.10221 0.25187,-0.0351 0.50372,-0.0711 0.75557,-0.10762 0.25185,-0.0366 0.5037,-0.0735 0.75555,-0.11052 0.25185,-0.037 0.5037,-0.0741 0.75556,-0.11061 0.25185,-0.0366 0.50369,-0.0726 0.75555,-0.10766 0.25185,-0.035 0.50369,-0.0691 0.75555,-0.10163 0.25185,-0.0325 0.5037,-0.0636 0.75555,-0.0925 0.25186,-0.029 0.50371,-0.0559 0.75556,-0.0805 0.25186,-0.0246 0.5037,-0.0466 0.75555,-0.0659 0.25186,-0.0193 0.5037,-0.0356 0.75555,-0.049 0.25186,-0.0132 0.50371,-0.0235 0.75557,-0.0303 0.25184,-0.007 0.50369,-0.0105 0.75555,-0.0106 0.25184,-1.5e-4 0.50369,0.003 0.75555,0.01 0.25184,0.006 0.5037,0.0167 0.75555,0.03 0.25186,0.0132 0.5037,0.0299 0.75555,0.0494 0.25186,0.0196 0.5037,0.0421 0.75555,0.0674 0.25187,0.0253 0.50371,0.0532 0.75555,0.0833 0.25187,0.0302 0.50372,0.0626 0.75557,0.0967 0.25186,0.0341 0.50371,0.07 0.75556,0.10718 0.25186,0.0372 0.5037,0.0755 0.75555,0.11437 0.25186,0.0389 0.5037,0.0785 0.75556,0.11813 0.25185,0.0396 0.5037,0.0792 0.75555,0.1184 0.25185,0.0392 0.5037,0.0778 0.75556,0.11536 0.25185,0.0376 0.50369,0.0742 0.75555,0.10918 0.25187,0.0351 0.50369,0.0686 0.75555,0.10028 0.25187,0.0317 0.50369,0.0615 0.75556,0.0891 0.25186,0.0276 0.50369,0.0532 0.75555,0.0763 0.25186,0.0231 0.5037,0.044 0.75556,0.0624 0.25185,0.0184 0.5037,0.0344 0.75555,0.048 0.25185,0.0136 0.5037,0.0249 0.75555,0.034 0.25185,0.009 0.5037,0.0159 0.75556,0.0207 0.25185,0.005 0.5037,0.008 0.75555,0.009 0.25185,0.002 0.5037,5.5e-4 0.75555,-0.002 0.25185,-0.002 0.5037,-0.005 0.75557,-0.009 0.25185,-0.005 0.50369,-0.009 0.75556,-0.0143 0.25184,-0.006 0.50368,-0.0111 0.75555,-0.0172 0.25184,-0.006 0.5037,-0.0119 0.75555,-0.0176 0.25184,-0.006 0.50371,-0.0111 0.75555,-0.0157 0.25184,-0.005 0.50371,-0.009 0.75555,-0.0121 0.25185,-0.003 0.50371,-0.006 0.75555,-0.007 0.25186,-0.002 0.50371,-0.002 0.75557,-0.002 0.25184,5.5e-4 0.50369,0.002 0.75555,0.005 0.25184,0.003 0.50369,0.006 0.75555,0.0106 0.25184,0.005 0.5037,0.009 0.75556,0.0151 0.25184,0.006 0.5037,0.0117 0.75555,0.0177 0.25185,0.006 0.5037,0.0124 0.75555,0.0182 0.25186,0.006 0.5037,0.0114 0.75555,0.016 0.25186,0.005 0.50371,0.008 0.75555,0.0106 0.25186,0.002 0.50371,0.003 0.75557,0.002 0.25184,-0.002 0.50369,-0.005 0.75555,-0.01 0.25185,-0.006 0.5037,-0.0136 0.75556,-0.0246 0.25184,-0.011 0.5037,-0.0249 0.75556,-0.042 0.25183,-0.0172 0.5037,-0.0376 0.75555,-0.0616 0.25183,-0.024 0.5037,-0.0515 0.75556,-0.0826 0.25183,-0.0312 0.50369,-0.0658 0.75555,-0.10403 0.25185,-0.0383 0.50369,-0.0801 0.75556,-0.12512 0.25184,-0.0451 0.50368,-0.0935 0.75555,-0.14488 0.25184,-0.0514 0.50369,-0.10563 0.75555,-0.16229 0.25184,-0.0566 0.50371,-0.11572 0.75555,-0.17644 0.25184,-0.0608 0.50371,-0.12315 0.75555,-0.18644 0.25184,-0.0633 0.50371,-0.12743 0.75555,-0.19155 0.25186,-0.0641 0.50371,-0.12817 0.75556,-0.1912 0.25185,-0.0631 0.50371,-0.12504 0.75555,-0.18503 0.25185,-0.06 0.50371,-0.11794 0.75557,-0.17288 0.25183,-0.0549 0.50369,-0.10688 0.75555,-0.15486 0.25184,-0.0479 0.50369,-0.092 0.75554,-0.1313 0.25186,-0.0392 0.50372,-0.0738 0.75556,-0.10281 0.25186,-0.029 0.50371,-0.0526 0.75555,-0.0702 0.25186,-0.0177 0.50372,-0.0292 0.75555,-0.0345 0.25187,-0.006 0.50372,-0.005 0.75556,0.003 0.25186,0.007 0.50371,0.0211 0.75555,0.0412 0.25186,0.0201 0.50371,0.0463 0.75557,0.0786 0.25185,0.0323 0.5037,0.0704 0.75555,0.11377 0.25185,0.0434 0.50371,0.0922 0.75555,0.14542 0.25185,0.0533 0.50371,0.11104 0.75556,0.17236 0.25185,0.0612 0.5037,0.1262 0.75555,0.1935 0.25186,0.0673 0.5037,0.13704 0.75555,0.20801 0.25186,0.0709 0.50371,0.14317 0.75555,0.21533 0.25186,0.0721 0.50372,0.14431 0.75556,0.21516 0.25185,0.0708 0.50371,0.14041 0.75555,0.20751 0.25185,0.0671 0.50371,0.13174 0.75555,0.19281 0.25186,0.0612 0.50372,0.11861 0.75556,0.17168 0.25185,0.053 0.50371,0.10164 0.75556,0.14505 0.25185,0.0434 0.50372,0.0816 0.75556,0.11418 0.25185,0.0325 0.50371,0.0595 0.75555,0.0805 0.25186,0.021 0.50371,0.0362 0.75555,0.0453 0.25187,0.009 0.50371,0.0128 0.75556,0.0107 0.25186,-0.002 0.5037,-0.01 0.75555,-0.0219 0.25186,-0.0124 0.50372,-0.0297 0.75555,-0.0511 0.25186,-0.0214 0.50372,-0.0469 0.75556,-0.0753 0.25185,-0.0285 0.50371,-0.06 0.75555,-0.0935 0.25186,-0.0335 0.50371,-0.0688 0.75556,-0.10467 0.25186,-0.0359 0.5037,-0.0726 0.75555,-0.10842 0.25186,-0.0359 0.50371,-0.0712 0.75556,-0.10453 0.25185,-0.0334 0.5037,-0.0648 0.75556,-0.0932 0.25185,-0.0284 0.50368,-0.0538 0.75555,-0.0753 0.25185,-0.0215 0.50369,-0.0389 0.75555,-0.0519 0.25185,-0.0128 0.50369,-0.021 0.75555,-0.0241 0.25185,-0.003 0.5037,-0.002 0.75555,0.006 0.25186,0.007 0.50372,0.0194 0.75556,0.0366 0.25186,0.0172 0.50371,0.039 0.75556,0.0653 0.25185,0.0261 0.5037,0.0565 0.75556,0.09 0.25185,0.0335 0.50369,0.0702 0.75556,0.10874 0.25184,0.0384 0.50369,0.0788 0.75555,0.11937 0.25184,0.0405 0.5037,0.0812 0.75555,0.12014 0.25184,0.039 0.5037,0.0762 0.75555,0.10971 0.25186,0.0336 0.5037,0.0633 0.75555,0.0872 0.25187,0.024 0.5037,0.042 0.75555,0.0522 0.25187,0.0103 0.5037,0.0124 0.75556,0.005 0.25186,-0.007 0.50371,-0.0249 0.75555,-0.0539 0.25186,-0.0288 0.50371,-0.0692 0.75556,-0.12242 0.25185,-0.0532 0.50371,-0.11923 0.75555,-0.19894 0.25186,-0.0797 0.50371,-0.17317 0.75556,-0.28066 0.25185,-0.10749 0.5037,-0.22909 0.75555,-0.36449 0.25186,-0.1354 0.5037,-0.28467 0.75555,-0.44689 0.25186,-0.16223 0.5037,-0.33745 0.75557,-0.52413 0.25186,-0.18669 0.50369,-0.38487 0.75556,-0.59236 0.25185,-0.20748 0.50368,-0.42433 0.75555,-0.64772 0.25185,-0.22341 0.50368,-0.45341 0.75555,-0.68671 0.25185,-0.2333 0.50371,-0.4699 0.75555,-0.70609 0.25186,-0.23621 0.50371,-0.47198 0.75556,-0.70332 0.25186,-0.23136 0.5037,-0.45824 0.75555,-0.67651 0.25186,-0.21827 0.5037,-0.42785 0.75556,-0.62464 0.25185,-0.19678 0.50369,-0.38066 0.75556,-0.54772 0.25184,-0.16706 0.50369,-0.31717 0.75555,-0.4468 0.25184,-0.12963 0.50369,-0.23865 0.75555,-0.32406 0.25184,-0.0854 0.5037,-0.14709 0.75555,-0.18279 0.25184,-0.0357 0.5037,-0.0453 0.75555,-0.0274 0.25185,0.0179 0.5037,0.0634 0.75555,0.13678 0.25186,0.0734 0.50372,0.17484 0.75555,0.30342 0.25186,0.12857 0.50372,0.28446 0.75556,0.46546 0.25185,0.18101 0.50371,0.38731 0.75556,0.61543 0.25185,0.22811 0.50371,0.47817 0.75557,0.74542 0.25184,0.26726 0.50369,0.55179 0.75555,0.84761 0.25184,0.29581 0.5037,0.60296 0.75555,0.91428 0.25184,0.31132 0.5037,0.62682 0.75555,0.93834 0.25185,0.31152 0.5037,0.61898 0.75556,0.91342 0.25185,0.29445 0.50369,0.57574 0.75555,0.83426 0.25186,0.25854 0.50369,0.49417 0.75556,0.69689 0.25185,0.20274 0.5037,0.37236 0.75555,0.49885 0.25185,0.12649 0.5037,0.20955 0.75555,0.23942 0.25185,0.0299 0.50371,0.006 0.75556,-0.0802 0.25184,-0.0864 0.5037,-0.23605 0.75556,-0.45715 0.25183,-0.22111 0.50369,-0.51416 0.75555,-0.88632 0.25184,-0.37215 0.50369,-0.82388 0.75555,-1.36083 0.25184,-0.53698 0.5037,-1.15972 0.75555,-1.8721 0.25184,-0.71241 0.5037,-1.51503 0.75557,-2.40979 0.25183,-0.89476 0.50368,-1.88221 0.75555,-2.96217 0.25184,-1.07996 0.50369,-2.25295 0.75556,-3.51648 0.25184,-1.26355 0.50369,-2.61818 0.75555,-4.05908 0.25184,-1.44089 0.50371,-2.96856 0.75555,-4.57585 0.25184,-1.60729 0.50371,-3.29466 0.75555,-5.05271 0.25185,-1.75804 0.50371,-3.58716 0.75555,-5.47583 0.25185,-1.88865 0.50371,-3.8372 0.75556,-5.83217 0.25185,-1.99496 0.5037,-4.03661 0.75555,-6.1098 0.25185,-2.07319 0.5037,-4.17812 0.75555,-6.29831 0.25185,-2.12019 0.50371,-4.25571 0.75556,-6.38911 0.25185,-2.13342 0.50371,-4.26469 0.75555,-6.37579 0.25185,-2.1111 0.50371,-4.20188 0.75555,-6.25419 0.25187,-2.05233 0.50371,-4.0659 0.75555,-6.02286 0.25187,-1.95697 0.50372,-3.85694 0.75555,-5.6828 0.25187,-1.82585 0.50372,-3.57711 0.75557,-5.23779 0.25185,-1.66068 0.5037,-3.23021 0.75555,-4.69419 0.25185,-1.46396 0.5037,-2.82172 0.75556,-4.06079 0.25184,-1.23908 0.5037,-2.35875 0.75555,-3.34879 0.25185,-0.99004 0.50372,-1.84968 0.75556,-2.57125 0.25184,-0.72155 0.50371,-1.30419 0.75555,-1.74302 0.25186,-0.43881 0.50371,-0.73291 0.75556,-0.88026 0.25186,-0.14733 0.5037,-0.14704 0.75555,0 0.25186,0.14707 0.5037,0.44174 0.75556,0.88026 0.25185,0.43854 0.50371,1.02174 0.75555,1.74302 0.25185,0.7213 0.50372,1.58146 0.75555,2.57125 0.25185,0.98979 0.50372,2.10994 0.75555,3.34879 0.25185,1.23883 0.50372,2.59704 0.75556,4.06079 0.25186,1.46378 0.50371,3.03369 0.75555,4.69419 0.25186,1.6605 0.50371,3.41208 0.75555,5.23779 0.25186,1.82571 0.50372,3.72595 0.75556,5.6828 0.25186,1.95684 0.50371,3.97061 0.75556,6.02286 0.25185,2.05223 0.5037,4.14314 0.75555,6.25419 0.25186,2.11107 0.50371,4.24238 0.75555,6.37579 0.25186,2.1334 0.50372,4.2689 0.75555,6.38911 0.25186,2.12021 0.50373,4.22504 0.75556,6.29831 0.25187,2.07325 0.50372,4.11475 0.75556,6.1098 0.25186,1.99506 0.5037,3.94339 0.75556,5.83217 0.25185,1.88878 0.50369,3.71765 0.75556,5.47583 0.25185,1.75819 0.50368,3.44526 0.75555,5.05271 0.25185,1.60745 0.5037,3.13479 0.75555,4.57585 0.25186,1.44108 0.5037,2.79536 0.75556,4.05908 0.25185,1.26371 0.50369,2.43634 0.75555,3.51648 0.25186,1.08013 0.50369,2.06724 0.75555,2.96217 0.25186,0.89495 0.5037,1.6972 0.75555,2.40979 0.25186,0.71258 0.50371,1.33495 0.75556,1.8721 0.25185,0.53713 0.5037,0.98853 0.75555,1.36083 0.25185,0.37232 0.5037,0.66507 0.75555,0.88632 0.25185,0.22125 0.50371,0.37059 0.75557,0.45715 0.25184,0.0866 0.50369,0.11001 0.75555,0.0802 0.25184,-0.0298 0.5037,-0.11302 0.75555,-0.23942 0.25185,-0.12641 0.5037,-0.29618 0.75556,-0.49885 0.25186,-0.20266 0.5037,-0.43839 0.75555,-0.69689 0.25186,-0.25848 0.5037,-0.53984 0.75556,-0.83426 0.25186,-0.29441 0.50369,-0.60191 0.75555,-0.91342 0.25186,-0.3115 0.5037,-0.62701 0.75555,-0.93834 0.25186,-0.31133 0.50371,-0.61845 0.75555,-0.91428 0.25186,-0.29583 0.50371,-0.58032 0.75556,-0.84761 0.25186,-0.26729 0.5037,-0.51727 0.75556,-0.74542 0.25186,-0.22816 0.5037,-0.43437 0.75555,-0.61543 0.25186,-0.18106 0.5037,-0.33682 0.75556,-0.46546 0.25185,-0.12863 0.50369,-0.22997 0.75555,-0.30342 0.25186,-0.0734 0.50369,-0.11884 0.75556,-0.13678 0.25185,-0.018 0.5037,-0.008 0.75555,0.0274 0.25185,0.0356 0.5037,0.0974 0.75555,0.18279 0.25185,0.0854 0.50371,0.19447 0.75556,0.32406 0.25185,0.12958 0.5037,0.27977 0.75555,0.4468 0.25186,0.16703 0.5037,0.35097 0.75555,0.54772 0.25186,0.19676 0.50371,0.4064 0.75558,0.62464 0.25183,0.21825 0.50369,0.44516 0.75555,0.67651 0.25183,0.23133 0.50369,0.46711 0.75555,0.70332 0.25183,0.23619 0.5037,0.47279 0.75555,0.70609 0.25185,0.23331 0.5037,0.46329 0.75555,0.68671 0.25186,0.22342 0.5037,0.44022 0.75555,0.64772 0.25186,0.20751 0.5037,0.40566 0.75555,0.59236 0.25186,0.18669 0.50371,0.36189 0.75557,0.52413 0.25184,0.16224 0.5037,0.31148 0.75555,0.44689 0.25184,0.13542 0.5037,0.25696 0.75555,0.36449 0.25185,0.10751 0.50371,0.20092 0.75556,0.28066 0.25184,0.0797 0.5037,0.14573 0.75555,0.19894 0.25184,0.0533 0.5037,0.0935 0.75556,0.12242 0.25184,0.0289 0.50369,0.0462 0.75555,0.0539 0.25185,0.007 0.50369,0.006 0.75555,-0.005 0.25185,-0.0102 0.50369,-0.0282 0.75556,-0.0522 0.25184,-0.024 0.5037,-0.0537 0.75556,-0.0872 0.25184,-0.0336 0.5037,-0.0708 0.75556,-0.10971 0.25183,-0.0389 0.5037,-0.0797 0.75555,-0.12014 0.25184,-0.0404 0.5037,-0.0808 0.75555,-0.11937 0.25184,-0.0385 0.5037,-0.0752 0.75556,-0.10874 0.25184,-0.0336 0.5037,-0.0638 0.75555,-0.09 0.25184,-0.0262 0.5037,-0.0482 0.75556,-0.0653 0.25183,-0.0171 0.50369,-0.0294 0.75555,-0.0366 0.25184,-0.007 0.50369,-0.009 0.75555,-0.006 0.25185,0.003 0.5037,0.0112 0.75555,0.0241 0.25185,0.0128 0.50371,0.0303 0.75555,0.0519 0.25185,0.0215 0.50371,0.0469 0.75555,0.0753 0.25186,0.0284 0.50372,0.0599 0.75556,0.0932 0.25185,0.0333 0.50371,0.0686 0.75554,0.10453 0.25187,0.0359 0.50372,0.0725 0.75556,0.10842 0.25186,0.036 0.50371,0.0712 0.75556,0.10467 0.25185,0.0335 0.5037,0.065 0.75556,0.0935 0.25185,0.0284 0.50371,0.0539 0.75556,0.0753 0.25184,0.0214 0.5037,0.0387 0.75555,0.0511 0.25186,0.0124 0.5037,0.02 0.75555,0.0219 0.25187,0.002 0.5037,-0.002 0.75555,-0.0107 0.25187,-0.009 0.50371,-0.0245 0.75556,-0.0453 0.25186,-0.021 29.4208,0.20039 0.75556,-0.0805"
         title="(cos(10*x)+cos(9*x)+cos(8*x)+cos(7*x)+cos(6*x)+cos(5*x)+cos(4*x)+cos(3*x)+cos(2*x)+cos(x))**2"
         id="path8338" />
      <path
         sodipodi:nodetypes="cc"
         inkscape:connector-curvature="0"
         id="path11414"
         d="m 524.64788,641.33729 h 57.07363"
         style="fill:none;fill-rule:evenodd;stroke:#d40000;stroke-width:2.81249976;stroke-linecap:butt;stroke-linejoin:miter;stroke-miterlimit:4;stroke-dasharray:none;stroke-opacity:1;marker-end:url(#marker1265)" />
      <path
         sodipodi:nodetypes="cc"
         inkscape:connector-curvature="0"
         id="path11414-0"
         d="M 306.06683,637.24926 H 247.5283"
         style="fill:none;fill-rule:evenodd;stroke:#d40000;stroke-width:2.81249952;stroke-linecap:butt;stroke-linejoin:miter;stroke-miterlimit:4;stroke-dasharray:none;stroke-opacity:1;marker-end:url(#marker1265-3)" />
      <path
         sodipodi:nodetypes="cccscccccccccccccssccccccccccccccccccccccccccccccccccccccccccccccccccccccsccccccccccccccccccccccccscccccccccccccssssccccscccccccccccccccsccccccccccssccccccsccscccccccsccsccccccsccccccccccccccccccccccccccccccccccccccccccccccccccccccccccccccscccccccccccccccccccccccccccccccccccccccccccscccccccccccccccccccccccccscccccccccccccccccccccccccccscscccccccccccccccccccsccccsccccscccccsccccccccccccccccccscccccccccccccccccccsccccccscccsc"
         inkscape:connector-curvature="0"
         style="opacity:1;fill:none;fill-opacity:1;fill-rule:nonzero;stroke:#d40000;stroke-width:2.20264173;stroke-linecap:round;stroke-linejoin:round;stroke-miterlimit:4;stroke-dasharray:none;stroke-dashoffset:0;stroke-opacity:1"
         d="m 402.7515,683.30795 c 0.25229,0.002 -0.25231,-0.003 0,0 0.25229,0.003 1.2615,0.0146 1.51381,0.0185 0.25229,0.004 0.5046,0.008 0.7569,0.0127 0.2523,0.005 0.5046,0.009 0.7569,0.0131 0.25231,0.005 0.5046,0.008 0.7569,0.0114 0.25232,0.003 0.50462,0.006 0.75691,0.008 0.25231,0.002 0.50461,0.002 0.75692,7.7e-4 0.25229,-7.7e-4 0.50459,-0.003 0.7569,-0.007 0.2523,-0.004 0.50461,-0.01 0.75691,-0.0177 0.25229,-0.008 0.5046,-0.0179 0.75691,-0.0303 0.25228,-0.0124 0.5046,-0.0271 0.7569,-0.0443 0.25229,-0.0173 0.5046,-0.037 0.75691,-0.0594 0.25228,-0.0224 0.50459,-0.0473 0.7569,-0.0748 0.2523,-0.0275 0.50459,-0.0575 0.75691,-0.0899 0.25229,-0.0324 0.50458,-0.0672 0.7569,-0.10414 0.25229,-0.0369 0.50459,-0.0759 0.7569,-0.11667 0.25229,-0.0407 0.50461,-0.0832 0.7569,-0.12683 0.25229,-0.0437 0.50461,-0.0885 0.7569,-0.13402 0.25229,-0.0455 0.50462,-0.0916 0.75691,-0.13769 0.25231,-0.0461 0.50461,-0.0921 0.75691,-0.13745 0.2523,-0.0454 0.50461,-0.0899 0.7569,-0.13301 0.2523,-0.0431 0.50461,-0.0848 0.75692,-0.12426 0.25228,-0.0396 0.50459,-0.0768 0.7569,-0.11133 0.25229,-0.0344 0.50459,-0.0661 0.75689,-0.0944 0.25231,-0.0282 0.50462,-0.0531 0.75691,-0.0739 0.25231,-0.0209 0.50461,-0.0379 0.7569,-0.0505 0.25232,-0.0127 0.50462,-0.021 0.7569,-0.0247 0.25232,-0.004 0.50462,-0.003 0.75691,0.002 0.25231,0.005 0.50461,0.0152 0.75691,0.0297 0.2523,0.0144 0.5046,0.0333 0.75691,0.0565 0.2523,0.0231 0.5046,0.0506 0.7569,0.0818 0.2523,0.0312 0.50461,0.0663 0.75691,0.10453 0.2523,0.0383 0.50461,0.0798 0.75691,0.1239 0.2523,0.0441 0.5046,0.0907 0.7569,0.13911 0.25231,0.0484 0.5046,0.0985 0.7569,0.14952 0.25231,0.051 0.50461,0.10292 0.7569,0.15479 0.25231,0.0519 0.50462,0.10374 0.75691,0.15466 0.2523,0.0509 0.50461,0.10094 0.7569,0.14918 0.2523,0.0483 0.50461,0.0947 0.7569,0.1386 0.25231,0.0439 0.50462,0.0853 0.75691,0.1234 0.2523,0.0381 0.50461,0.0731 0.75691,0.10427 0.25231,0.0312 0.50462,0.0587 0.75691,0.0821 0.2523,0.0234 0.50461,0.0428 0.7569,0.0579 0.25231,0.0151 0.50461,0.026 0.75691,0.0326 0.25231,0.007 0.5046,0.009 0.7569,0.008 0.25231,-7.7e-4 0.50461,-0.007 0.75691,-0.0158 0.25231,-0.009 0.50462,-0.0213 0.7569,-0.0367 0.25231,-0.0153 0.50462,-0.0337 0.75691,-0.0542 0.2523,-0.0204 0.50461,-0.0432 0.7569,-0.0672 0.25231,-0.024 0.50461,-0.0495 0.75691,-0.0752 0.25231,-0.0258 0.5046,-0.0522 0.7569,-0.0779 0.25231,-0.0258 0.50461,-0.0512 0.75691,-0.0751 0.2523,-0.024 0.5046,-0.0466 0.75691,-0.0671 0.2523,-0.0204 0.50458,-0.0386 0.7569,-0.0542 0.2523,-0.0154 0.50459,-0.028 0.7569,-0.0372 0.2523,-0.009 0.50459,-0.0151 0.7569,-0.0173 0.2523,-0.002 0.5046,-7.6e-4 0.7569,0.005 0.25231,0.005 0.50462,0.0139 0.75691,0.0263 0.25231,0.0123 0.50461,0.028 0.75693,0.0469 0.25229,0.0188 0.50459,0.0406 0.7569,0.0648 0.2523,0.024 0.50459,0.0505 0.75691,0.0782 0.25229,0.0276 0.5046,0.0567 0.7569,0.0858 0.25229,0.029 0.5046,0.0584 0.7569,0.0864 0.25229,0.028 0.5046,0.0548 0.7569,0.0789 0.25231,0.024 0.5046,0.0456 0.7569,0.0627 0.25232,0.0172 0.5046,0.0301 0.7569,0.0375 0.25232,0.008 0.5046,0.009 0.75691,0.003 0.25231,-0.005 0.50461,-0.0179 0.7569,-0.0386 0.25231,-0.0207 0.50461,-0.0498 0.75691,-0.088 0.2523,-0.0382 0.50461,-0.0857 0.7569,-0.14301 0.25231,-0.0573 0.50461,-0.12448 0.75691,-0.20175 0.2523,-0.0773 0.5046,-0.16468 0.7569,-0.26201 0.25232,-0.0973 0.50461,-0.20464 0.75691,-0.32125 0.25231,-0.11662 0.5046,-0.24258 0.75693,-0.37677 0.2523,-0.1342 0.50458,-0.27666 0.7569,-0.42582 0.2523,-0.14914 0.50458,-0.30503 0.7569,-0.46561 0.2523,-0.1606 0.50459,-0.32594 0.7569,-0.49364 0.2523,-0.16771 0.50461,-0.33779 0.7569,-0.50758 0.25231,-0.16979 0.50461,-0.33927 0.75691,-0.50558 0.25231,-0.16631 0.5046,-0.3294 0.7569,-0.48631 0.25231,-0.1569 0.5046,-0.30756 0.75691,-0.44902 0.2523,-0.14145 0.50459,-0.27363 0.75691,-0.39372 0.25229,-0.12009 0.50459,-0.228 0.7569,-0.32119 0.25229,-0.0932 0.50459,-0.17155 0.7569,-0.23295 0.25229,-0.0614 0.5046,-0.10574 0.7569,-0.13139 0.25229,-0.0257 0.50461,-0.0325 0.75691,-0.0197 0.2523,0.0129 0.5046,0.0456 0.7569,0.0983 0.25231,0.0528 0.50462,0.12568 0.7569,0.21811 0.25231,0.0924 0.50462,0.20449 0.75691,0.3346 0.2523,0.13012 0.50461,0.27842 0.75691,0.4424 0.2523,0.16398 0.50461,0.34373 0.75692,0.53584 0.25229,0.19213 0.5046,0.39666 0.7569,0.6093 0.25229,0.21266 0.5046,0.43344 0.7569,0.65724 0.25229,0.22379 0.5046,0.4506 0.7569,0.67452 0.25231,0.22394 0.5046,0.44496 0.75691,0.65662 0.2523,0.21165 0.50459,0.41387 0.7569,0.59971 0.25231,0.18586 0.50459,0.35522 0.75691,0.50095 0.2523,0.14574 0.5046,0.26768 0.7569,0.3586 0.2523,0.0909 0.5046,0.15064 0.7569,0.17212 0.25231,0.0214 0.50462,0.005 0.75692,-0.0577 0.25229,-0.0622 0.5046,-0.16969 0.75691,-0.32862 0.25228,-0.15895 0.50459,-0.36962 0.7569,-0.63714 0.25229,-0.26753 0.50459,-0.59224 0.7569,-0.97823 0.25229,-0.38601 0.5046,-0.83367 0.7569,-1.34577 0.25229,-0.5121 0.5046,-1.08907 0.75692,-1.73226 0.25228,-0.6432 0.50458,-1.35303 0.7569,-2.12936 0.25229,-0.77633 0.5046,-1.61954 0.75691,-2.52783 0.25229,-0.90829 0.50459,-1.88207 0.7569,-2.91786 0.25229,-1.03579 0.50461,-2.13394 0.7569,-3.28935 0.2523,-1.1554 0.50461,-2.36836 0.7569,-3.63213 0.2523,-1.26377 0.50461,-2.57864 0.7569,-3.9363 0.2523,-1.35766 0.50461,-2.75838 0.75691,-4.19245 0.2523,-1.43409 0.50461,-2.90172 0.75691,-4.39203 0.2523,-1.49032 0.5046,-3.00345 0.7569,-4.52754 0.2523,-1.5241 0.50461,-3.05921 0.75691,-4.59281 0.2523,-1.53361 0.50461,-3.06567 0.7569,-4.58323 0.2523,-1.51757 0.50461,-3.02053 0.7569,-4.49583 0.25232,-1.47532 0.50461,-2.92277 0.7569,-4.32953 0.25232,-1.40676 0.50462,-2.77256 0.7569,-4.08507 0.25232,-1.31251 0.50462,-2.57141 0.75692,-3.76519 0.2523,-1.19377 0.5046,-2.32203 0.7569,-3.37441 0.2523,-1.05237 0.5046,-2.02839 0.75691,-2.91911 0.25229,-0.89071 0.5046,-1.69557 0.7569,-2.40726 0.2523,-0.71169 0.50462,-1.32965 0.75691,-1.84835 0.2523,-0.51869 0.50461,-0.93752 0.7569,-1.25297 0.25231,-0.31544 0.50461,-0.52685 0.75692,-0.63277 0.25231,-0.10591 0.5046,-0.1057 0.75691,0 0.2523,0.10571 0.50459,0.31754 0.7569,0.63277 0.2523,0.31524 0.50461,0.73448 0.7569,1.25297 0.2523,0.5185 0.50462,1.13683 0.7569,1.84835 0.2523,0.7115 0.50462,1.51672 0.7569,2.40726 0.2523,0.89054 0.50462,1.8669 0.75691,2.91911 0.25231,1.05223 0.50461,2.18077 0.7569,3.37441 0.25231,1.19365 0.50461,2.45278 0.7569,3.76519 0.25231,1.3124 0.50462,2.67839 0.75691,4.08507 0.25231,1.40668 0.50461,2.85428 0.75691,4.32953 0.2523,1.47524 0.5046,2.9783 0.7569,4.49583 0.25231,1.51753 0.50461,3.04963 0.7569,4.58323 0.25231,1.53359 0.50462,3.06869 0.7569,4.59281 0.25233,1.52411 0.50464,3.03717 0.75692,4.52754 0.25232,1.49036 0.50462,2.95788 0.75691,4.39203 0.25231,1.43413 0.5046,2.8347 0.75692,4.19245 0.25229,1.35774 0.50458,2.67243 0.7569,3.9363 0.2523,1.26387 0.50458,2.47662 0.7569,3.63213 0.2523,1.15551 0.5046,2.25344 0.7569,3.28935 0.25231,1.03591 0.5046,2.00944 0.75691,2.91786 0.2523,0.90843 0.50459,1.75137 0.7569,2.52783 0.25231,0.77646 0.50459,1.48602 0.7569,2.12936 0.25231,0.64332 0.5046,1.22002 0.7569,1.73226 0.25231,0.51223 0.50461,0.95963 0.75691,1.34577 0.2523,0.38611 0.5046,0.7106 0.7569,0.97823 0.2523,0.26764 0.5046,0.47809 0.7569,0.63714 0.2523,0.15902 0.50461,0.26639 0.75693,0.32862 0.25229,0.0622 0.50459,0.0791 0.7569,0.0577 0.25229,-0.0214 0.5046,-0.0813 0.7569,-0.17212 0.2523,-0.0909 0.5046,-0.21291 0.75691,-0.3586 0.25231,-0.14568 0.5046,-0.31513 0.75691,-0.50095 0.2523,-0.18581 0.50459,-0.38807 0.7569,-0.59971 0.25231,-0.21164 0.50459,-0.43268 0.7569,-0.65662 0.25231,-0.22391 0.50461,-0.45072 0.7569,-0.67452 0.25231,-0.22381 0.50461,-0.44457 0.7569,-0.65724 0.25231,-0.21264 0.50461,-0.41716 0.75691,-0.6093 0.25231,-0.19213 0.5046,-0.37183 0.75691,-0.53584 0.25231,-0.16401 0.5046,-0.31224 0.7569,-0.4424 0.25231,-0.13015 0.5046,-0.24213 0.75691,-0.3346 0.2523,-0.0925 0.50459,-0.16531 0.7569,-0.21811 0.25232,-0.0528 0.5046,-0.0854 0.75692,-0.0983 0.2523,-0.0129 0.5046,-0.006 0.7569,0.0197 0.2523,0.0256 0.5046,0.0701 0.7569,0.13139 0.2523,0.0614 0.50461,0.1398 0.75691,0.23295 0.2523,0.0932 0.5046,0.20112 0.7569,0.32119 0.25231,0.12007 0.5046,0.25228 0.75691,0.39372 0.2523,0.14145 0.5046,0.29213 0.75692,0.44902 0.25228,0.1569 0.50459,0.32001 0.7569,0.48631 0.25228,0.1663 0.5046,0.33579 0.7569,0.50558 0.25228,0.16979 0.5046,0.33987 0.7569,0.50758 0.2523,0.16772 0.5046,0.33304 0.7569,0.49364 0.25231,0.1606 0.5046,0.31645 0.7569,0.46561 0.25231,0.14918 0.5046,0.2916 0.7569,0.42582 0.25231,0.1342 0.50462,0.26014 0.75693,0.37677 0.25229,0.11663 0.5046,0.2239 0.7569,0.32125 0.25229,0.0974 0.5046,0.18472 0.7569,0.26201 0.2523,0.0773 0.50461,0.14443 0.75691,0.20175 0.25229,0.0573 0.5046,0.10476 0.7569,0.14301 0.25229,0.0383 0.5046,0.0673 0.75691,0.088 0.25229,0.0207 0.50459,0.0332 0.7569,0.0386 0.2523,0.005 0.50459,0.004 0.7569,-0.003 0.2523,-0.008 0.50459,-0.0203 0.75691,-0.0375 0.25229,-0.0172 0.5046,-0.0386 0.75691,-0.0627 0.25229,-0.024 0.50461,-0.0509 0.75691,-0.0789 0.25228,-0.028 0.5046,-0.0572 0.7569,-0.0864 0.25229,-0.029 0.5046,-0.0581 0.7569,-0.0858 0.2523,-0.0277 0.5046,-0.0541 0.75692,-0.0782 0.25229,-0.0241 0.5046,-0.046 0.7569,-0.0648 0.25229,-0.0187 0.5046,-0.0346 0.75691,-0.0469 0.25228,-0.0123 0.50459,-0.0211 0.7569,-0.0263 0.25229,-0.005 0.50459,-0.006 0.7569,-0.005 0.2523,0.002 0.5046,0.008 0.7569,0.0173 0.2523,0.009 0.50461,0.0217 0.7569,0.0372 0.2523,0.0154 0.50461,0.0337 0.7569,0.0542 0.25231,0.0204 0.50462,0.043 0.75691,0.0671 0.2523,0.0239 0.50461,0.0493 0.75689,0.0751 0.25232,0.0257 0.50462,0.0521 0.75691,0.0779 0.25231,0.0258 0.50461,0.0512 0.75691,0.0752 0.2523,0.024 0.50461,0.0467 0.75691,0.0672 0.2523,0.0204 0.50461,0.0387 0.75691,0.0542 0.2523,0.0154 0.50461,0.0278 0.75691,0.0367 0.25232,0.009 0.5046,0.0144 0.7569,0.0158 0.25232,7.6e-4 0.5046,-7.7e-4 0.7569,-0.008 0.25232,-0.007 0.50461,-0.0176 0.75691,-0.0326 0.25231,-0.0151 0.50461,-0.0344 0.75691,-0.0579 0.2523,-0.0234 0.5046,-0.0509 0.7569,-0.0821 0.2523,-0.0312 0.50461,-0.0661 0.7569,-0.10427 0.2523,-0.0381 0.50461,-0.0795 0.75691,-0.1234 0.25229,-0.0439 0.50461,-0.0904 0.7569,-0.1386 0.2523,-0.0483 0.50461,-0.0983 0.7569,-0.14918 0.2523,-0.0509 0.50461,-0.10278 0.7569,-0.15466 0.25231,-0.0519 0.50461,-0.10376 0.75692,-0.15479 0.2523,-0.051 0.50459,-0.10114 0.7569,-0.14952 0.2523,-0.0484 0.5046,-0.095 0.75691,-0.13911 0.2523,-0.0441 0.50462,-0.0856 0.7569,-0.1239 0.25231,-0.0383 0.50463,-0.0733 0.75691,-0.10453 0.25231,-0.0312 0.50462,-0.0586 0.7569,-0.0818 0.25232,-0.0232 0.50462,-0.0421 0.75691,-0.0565 0.25231,-0.0144 0.50461,-0.0243 0.75691,-0.0297 0.2523,-0.005 0.5046,-0.006 0.7569,-0.002 0.2523,0.004 0.5046,0.0122 0.75691,0.0247 0.2523,0.0126 0.5046,0.0296 0.7569,0.0505 0.25231,0.0209 0.50461,0.0456 0.7569,0.0739 0.25231,0.0282 0.50461,0.0599 0.7569,0.0944 0.25232,0.0344 0.50461,0.0718 0.7569,0.11133 0.25232,0.0395 0.50461,0.0811 0.75691,0.12426 0.25231,0.0432 0.5046,0.0877 0.75691,0.13301 0.25231,0.0453 0.5046,0.0914 0.75692,0.13745 0.25229,0.0461 0.50458,0.0922 0.7569,0.13769 0.25229,0.0456 0.5046,0.0904 0.7569,0.13402 0.25229,0.0437 0.5046,0.0861 0.75691,0.12683 0.2523,0.0407 0.50459,0.0798 0.75691,0.11667 0.25231,0.0369 0.50459,0.0718 0.7569,0.10414 0.25231,0.0324 0.50459,0.0625 0.75691,0.0899 0.2523,0.0275 0.5046,0.0525 0.7569,0.0748 0.2523,0.0224 0.5046,0.0421 0.7569,0.0594 0.2523,0.0173 0.50461,0.032 0.7569,0.0443 0.25231,0.0123 0.50461,0.0223 0.75691,0.0303 0.2523,0.008 0.5046,0.0137 0.7569,0.0177 0.25231,0.004 0.50461,0.006 0.7569,0.007 0.25231,7.7e-4 0.50462,2.2e-4 0.75692,-7.7e-4 0.25231,-0.002 0.5046,-0.005 0.75691,-0.008 0.2523,-0.003 0.50459,-0.007 0.7569,-0.0114 0.25231,-0.005 0.50459,-0.009 0.7569,-0.0131 0.25231,-0.005 0.5046,-0.009 0.7569,-0.0127 0.25231,-0.004 0.50461,-0.008 0.7569,-0.0108 0.25231,-0.003 0.50461,-0.005 0.75691,-0.008 0.25231,-0.002 0.5046,-0.003 0.7569,-0.003 0.25232,-3.9e-4 0.50461,-1.8e-4 0.75693,7.7e-4 0.2523,7.7e-4 0.50459,0.003 0.7569,0.005 0.2523,0.002 0.50459,0.005 0.7569,0.009 0.2523,0.003 0.5046,0.007 0.75691,0.0113 0.2523,0.004 0.50459,0.008 0.7569,0.0126 0.2523,0.005 0.50459,0.008 0.75691,0.0123 0.2523,0.004 0.5046,0.008 0.7569,0.0102 0.2523,0.003 0.50461,0.005 0.7569,0.006 0.2523,7.7e-4 0.50461,0.002 0.75691,7.7e-4 0.25229,-7.7e-4 0.5046,-0.003 0.7569,-0.006 0.2523,-0.003 0.5046,-0.008 0.75691,-0.0148 0.25229,-0.006 0.5046,-0.0145 0.75691,-0.0244 0.25228,-0.01 0.5046,-0.0214 0.7569,-0.0345 0.25228,-0.0132 0.5046,-0.0282 0.7569,-0.0449 0.2523,-0.0166 0.5046,-0.035 0.7569,-0.0549 0.25231,-0.0198 0.5046,-0.0413 0.75691,-0.0641 0.2523,-0.0227 0.5046,-0.0469 0.75691,-0.0721 0.2523,-0.0252 0.5046,-0.0515 0.7569,-0.0785 0.2523,-0.027 0.50461,-0.0548 0.75691,-0.0829 0.25229,-0.0281 0.50461,-0.0567 0.75691,-0.0851 0.2523,-0.0285 0.5046,-0.0569 0.75691,-0.0849 0.2523,-0.028 0.50459,-0.0556 0.7569,-0.0822 0.2523,-0.0267 0.5046,-0.0525 0.7569,-0.0771 0.2523,-0.0246 0.5046,-0.0479 0.75692,-0.0695 0.25229,-0.0216 0.50458,-0.0417 0.7569,-0.0599 0.25229,-0.0182 0.50458,-0.0344 0.7569,-0.0485 0.25229,-0.0141 0.50459,-0.0259 0.7569,-0.0355 0.25229,-0.01 0.50461,-0.0168 0.7569,-0.0215 0.25229,-0.005 0.50461,-0.007 0.75691,-0.007 0.25229,10e-5 0.5046,0.003 0.7569,0.008 0.25229,0.005 0.5046,0.0123 0.75691,0.0217 0.25229,0.01 0.50459,0.0213 0.75691,0.0351 0.25228,0.0138 0.50459,0.0297 0.75691,0.0473 0.25229,0.0177 0.50461,0.037 0.75691,0.0579 0.25229,0.0208 0.5046,0.0432 0.7569,0.0665 0.25229,0.0234 0.5046,0.0479 0.75689,0.0731 0.25232,0.0252 0.50461,0.0512 0.7569,0.0774 0.25232,0.0263 0.50462,0.0529 0.7569,0.0795 0.25232,0.0266 0.50463,0.0532 0.75691,0.0794 0.25231,0.0262 0.50462,0.0522 0.75691,0.0774 0.2523,0.0252 0.50461,0.0499 0.75691,0.0734 0.2523,0.0236 0.50461,0.0465 0.7569,0.0681 0.2523,0.0217 0.50461,0.0423 0.7569,0.0615 0.2523,0.0192 0.50461,0.0373 0.7569,0.0539 0.25231,0.0166 0.50461,0.032 0.75691,0.0459 0.25231,0.014 0.5046,0.0265 0.7569,0.0377 0.25232,0.0112 0.50461,0.0212 0.75692,0.0298 0.2523,0.009 0.50459,0.0161 0.7569,0.0224 0.2523,0.006 0.50462,0.0115 0.7569,0.0158 0.25231,0.005 0.50463,0.008 0.75692,0.01 0.2523,0.003 0.50461,0.005 0.7569,0.005 0.25231,7.6e-4 0.50461,0.002 0.75691,0.002 0.2523,1.6e-4 0.5046,-1e-4 0.7569,-3.9e-4 0.2523,-3.9e-4 0.50461,-7.7e-4 0.75691,-0.002 l 0.7569,-0.002 c 0.2523,-7.7e-4 0.5046,-7.7e-4 0.7569,-0.002 0.2523,-3.9e-4 0.50461,-7.7e-4 0.7569,-7.7e-4 0.25231,-2.4e-4 0.50461,-2.8e-4 0.7569,-1.3e-4 0.25231,1.4e-4 0.50463,3.9e-4 0.7569,7.7e-4 0.25232,3.9e-4 0.50464,7.6e-4 0.75692,0.002 0.25231,7.7e-4 0.50462,7.7e-4 0.7569,0.002 0.25231,7.7e-4 0.50462,7.7e-4 0.75692,0.002 0.2523,3.9e-4 0.5046,7.7e-4 0.7569,7.7e-4 0.2523,7e-5 0.5046,-2e-4 0.7569,-7.7e-4 0.2523,-7.7e-4 0.50461,-0.002 0.7569,-0.004 0.25231,-0.002 0.50461,-0.005 0.75692,-0.008 0.25231,-0.003 0.50459,-0.008 0.7569,-0.0126 0.25232,-0.005 0.50459,-0.0112 0.7569,-0.0181 0.25232,-0.007 0.50461,-0.0151 0.75691,-0.0243 0.25231,-0.009 0.5046,-0.0194 0.7569,-0.0307 0.25231,-0.0114 0.5046,-0.0238 0.75691,-0.0373 0.2523,-0.0134 0.5046,-0.0281 0.75691,-0.0436 0.25229,-0.0155 0.50459,-0.0321 0.75691,-0.0496 0.25229,-0.0174 0.5046,-0.0356 0.7569,-0.0546 0.2523,-0.0189 0.5046,-0.0386 0.7569,-0.0587 0.25231,-0.02 0.5046,-0.0407 0.7569,-0.0615 0.25231,-0.0208 0.5046,-0.0419 0.75692,-0.0629 0.2523,-0.0209 0.50458,-0.0419 0.7569,-0.0625 0.2523,-0.0207 0.50459,-0.0409 0.7569,-0.0606 0.2523,-0.0197 0.50461,-0.0389 0.7569,-0.0571 0.2523,-0.0181 0.50461,-0.0355 0.7569,-0.0519 0.25231,-0.0162 0.50461,-0.0313 0.75691,-0.0452 0.25232,-0.0137 0.50461,-0.0261 0.75691,-0.0372 0.2523,-0.0109 0.5046,-0.0203 0.75691,-0.028 0.25229,-0.008 0.50459,-0.0138 0.7569,-0.0181 0.25231,-0.005 0.50459,-0.007 0.7569,-0.008 0.25231,-7.6e-4 0.50461,2.3e-4 0.75691,0.003 0.25231,0.003 0.50461,0.008 0.7569,0.0134 0.25231,0.006 0.50462,0.014 0.75691,0.0234 0.25231,0.009 0.50461,0.0203 0.7569,0.0326 0.25232,0.0123 0.50461,0.026 0.7569,0.0408 0.25232,0.0148 0.50461,0.0308 0.75691,0.0479 0.25231,0.0169 0.5046,0.0348 0.75691,0.0534 0.2523,0.0185 0.50459,0.0377 0.75691,0.0574 0.25229,0.0196 0.50459,0.0396 0.7569,0.0598 0.25229,0.0201 0.50459,0.0405 0.7569,0.0606 0.25229,0.0201 0.5046,0.0403 0.7569,0.06 0.25231,0.0197 0.5046,0.039 0.7569,0.0579 0.25231,0.0188 0.50461,0.0371 0.75693,0.0547 0.25229,0.0175 0.50459,0.0344 0.75691,0.0504 0.25229,0.016 0.50459,0.0311 0.7569,0.0454 0.25229,0.0142 0.5046,0.0274 0.7569,0.0398 0.25229,0.0123 0.50461,0.0236 0.75691,0.034 0.25228,0.0104 0.5046,0.0197 0.7569,0.0282 0.25229,0.008 0.5046,0.016 0.7569,0.0226 0.2523,0.007 0.5046,0.0124 0.7569,0.0174 0.25231,0.005 0.5046,0.009 0.75691,0.0128 0.2523,0.003 0.5046,0.006 0.75691,0.009 0.25229,0.002 0.50459,0.004 0.7569,0.005 0.25229,7.7e-4 0.50461,0.002 0.7569,0.003 0.25229,7.7e-4 0.50461,7.7e-4 0.7569,7.7e-4 0.2523,2.6e-4 0.50461,2.9e-4 0.7569,2.9e-4 0.25231,10e-6 0.50461,-5e-5 0.75691,-1.3e-4 0.25231,-7e-5 0.50461,-1.6e-4 0.75693,-2.1e-4 0.25228,-6e-5 0.50458,-9e-5 0.75691,-7e-5 0.25228,10e-6 0.50458,7e-5 0.7569,1.5e-4 0.2523,6e-5 0.50459,1.5e-4 0.7569,2.1e-4 0.2523,5e-5 0.5046,8e-5 0.7569,0 0.2523,-8e-5 0.5046,-2.8e-4 0.7569,-3.9e-4 0.25231,-2.9e-4 0.50461,-7.7e-4 0.75691,-0.002 0.2523,-7.6e-4 0.5046,-0.002 0.7569,-0.004 0.2523,-0.002 0.5046,-0.004 0.75691,-0.006 0.25229,-0.003 0.5046,-0.006 0.75691,-0.01 0.25228,-0.004 0.50459,-0.008 0.7569,-0.0137 0.25228,-0.005 0.5046,-0.0113 0.7569,-0.0181 0.25228,-0.007 0.5046,-0.0146 0.7569,-0.0231 0.2523,-0.009 0.50461,-0.0181 0.75691,-0.0283 0.25231,-0.0104 0.50461,-0.0216 0.7569,-0.0337 0.25231,-0.0121 0.50461,-0.025 0.7569,-0.0388 0.25231,-0.0138 0.50462,-0.0283 0.75691,-0.0437 0.2523,-0.0152 0.50461,-0.0313 0.7569,-0.0479 0.25232,-0.0165 0.50463,-0.0336 0.75691,-0.0512 0.25231,-0.0174 0.50462,-0.0353 0.75691,-0.0535 0.2523,-0.0181 0.50461,-0.0363 0.7569,-0.0547 0.25231,-0.0182 0.50461,-0.0365 0.75691,-0.0545 0.2523,-0.018 0.50461,-0.0357 0.7569,-0.053 0.25232,-0.0173 0.50461,-0.034 0.75691,-0.0501 0.25231,-0.016 0.5046,-0.0313 0.7569,-0.0458 0.25231,-0.0144 0.5046,-0.0278 0.7569,-0.0401 0.25231,-0.0124 0.50461,-0.0236 0.75691,-0.0335 0.25231,-0.01 0.50462,-0.0185 0.75691,-0.0257 0.2523,-0.007 0.50461,-0.013 0.7569,-0.0173 0.25231,-0.005 0.50461,-0.007 0.7569,-0.008 0.25231,-7.7e-4 0.50462,-7.7e-4 0.75691,7.7e-4 0.2523,0.002 0.50461,0.005 0.75692,0.01 0.25228,0.005 0.50459,0.0111 0.7569,0.0187 0.25229,0.008 0.5046,0.0168 0.7569,0.0271 0.2523,0.0104 0.50461,0.0218 0.75691,0.0346 0.2523,0.0126 0.50461,0.0264 0.7569,0.0409 0.25231,0.0146 0.50461,0.03 0.7569,0.0463 0.25231,0.0161 0.50462,0.033 0.7569,0.0502 0.25231,0.0173 0.50462,0.0348 0.75691,0.0528 0.25231,0.0178 0.50461,0.0359 0.7569,0.054 0.25231,0.0181 0.50462,0.0362 0.75692,0.0539 0.2523,0.0178 0.50461,0.0353 0.7569,0.0525 0.2523,0.0171 0.50461,0.034 0.75691,0.0501 0.25229,0.0161 0.5046,0.0317 0.7569,0.0466 0.25232,0.0148 0.5046,0.029 0.7569,0.0426 0.25232,0.0134 0.5046,0.0261 0.7569,0.0378 0.25232,0.0118 0.5046,0.0227 0.75691,0.0327 0.25231,0.0101 0.5046,0.0192 0.75691,0.0276 0.2523,0.008 0.50459,0.0159 0.7569,0.0227 0.25231,0.007 0.5046,0.0126 0.7569,0.0178 0.25231,0.005 0.5046,0.01 0.75691,0.0135 0.25232,0.004 0.50461,0.007 0.75691,0.01 0.25231,0.003 0.5046,0.005 0.75691,0.007 l 0.75692,0.005 0.7569,0.002 c 0.2523,4e-4 0.50458,7.7e-4 0.7569,7.7e-4 0.2523,2.5e-4 0.5046,2.9e-4 0.7569,3.9e-4 0.2523,8e-5 0.50461,10e-5 0.7569,10e-5 0.2523,2e-5 11.63181,-0.0315 11.8841,-0.0315"
         title="(cos(10*x)+cos(9*x)+cos(8*x)+cos(7*x)+cos(6*x)+cos(5*x)+cos(4*x)+cos(3*x)+cos(2*x)+cos(x))**2"
         id="path8338-8" />
      <path
         sodipodi:nodetypes="cccscccccccccccccssccccccccccccccccccccccccccccccccccccccccccccccccccccccsccccccccccccccccccccccccscccccccccccccssssccccscccccccccccccccsccccccccccssccccccsccscccccccsccsccccccsccccccccccccccccccccccccccccccccccccccccccccccccccccccccccccccscccccccccccccccccccccccccccccccccccccccccccscccccccccccccccccccccccccscccccccccccccccccccccccccccscscccccccccccccccccccsccccsccccscccccsccccccccccccccccccscccccccccccccccccccsccccccscccsc"
         inkscape:connector-curvature="0"
         style="opacity:1;fill:none;fill-opacity:1;fill-rule:nonzero;stroke:#d40000;stroke-width:2.20264196;stroke-linecap:round;stroke-linejoin:round;stroke-miterlimit:4;stroke-dasharray:none;stroke-dashoffset:0;stroke-opacity:1"
         d="m 1064.5096,683.30828 c -0.2523,0.002 -0.5046,0.005 -0.7569,0.008 -0.2523,0.003 -0.5046,0.007 -0.7569,0.0108 -0.2523,0.004 -0.5046,0.008 -0.7569,0.0128 -0.2523,0.005 -0.5046,0.009 -0.7569,0.0131 -0.2523,0.005 -0.5046,0.008 -0.7569,0.0115 -0.2523,0.003 -0.5046,0.006 -0.7569,0.008 -0.2523,0.002 -0.5046,0.002 -0.757,7.2e-4 -0.2522,-7.2e-4 -0.5045,-0.003 -0.7569,-0.007 -0.2523,-0.004 -0.5046,-0.01 -0.7569,-0.0177 -0.2523,-0.008 -0.5046,-0.0179 -0.7569,-0.0303 -0.2523,-0.0124 -0.5046,-0.0271 -0.7569,-0.0443 -0.2523,-0.0173 -0.5046,-0.037 -0.7569,-0.0595 -0.2523,-0.0224 -0.5046,-0.0473 -0.7569,-0.0747 -0.2523,-0.0275 -0.5046,-0.0575 -0.7569,-0.0899 -0.2523,-0.0325 -0.5046,-0.0672 -0.7569,-0.10415 -0.2523,-0.0369 -0.5046,-0.0759 -0.7569,-0.11667 -0.2523,-0.0407 -0.5046,-0.0832 -0.7569,-0.12682 -0.2523,-0.0437 -0.5046,-0.0885 -0.7569,-0.13402 -0.2523,-0.0456 -0.5046,-0.0916 -0.7569,-0.1377 -0.2523,-0.0461 -0.5046,-0.0921 -0.7569,-0.13744 -0.2523,-0.0454 -0.5046,-0.0899 -0.7569,-0.13301 -0.2523,-0.0431 -0.5046,-0.0848 -0.7569,-0.12427 -0.2523,-0.0395 -0.5046,-0.0768 -0.7569,-0.11133 -0.2523,-0.0344 -0.5046,-0.0661 -0.7569,-0.0944 -0.2523,-0.0282 -0.5046,-0.0531 -0.7569,-0.0739 -0.2523,-0.0209 -0.5046,-0.0378 -0.7569,-0.0504 -0.2524,-0.0127 -0.5047,-0.021 -0.7569,-0.0248 -0.2524,-0.004 -0.5047,-0.003 -0.7569,0.002 -0.2524,0.005 -0.5047,0.0152 -0.757,0.0297 -0.2523,0.0145 -0.5046,0.0333 -0.7569,0.0565 -0.2523,0.0231 -0.5046,0.0505 -0.7569,0.0818 -0.2523,0.0312 -0.5046,0.0663 -0.7569,0.10454 -0.2523,0.0383 -0.5046,0.0798 -0.7569,0.1239 -0.2523,0.0441 -0.5046,0.0907 -0.7569,0.13911 -0.2523,0.0484 -0.5046,0.0985 -0.7569,0.14953 -0.2523,0.051 -0.5046,0.10291 -0.7569,0.15478 -0.2523,0.0519 -0.5046,0.10373 -0.7569,0.15466 -0.2523,0.0509 -0.5046,0.10094 -0.7569,0.14918 -0.2523,0.0482 -0.5046,0.0947 -0.7569,0.1386 -0.2523,0.0439 -0.5046,0.0853 -0.7569,0.1234 -0.2523,0.0381 -0.5046,0.0731 -0.7569,0.10427 -0.2523,0.0312 -0.5046,0.0587 -0.7569,0.0821 -0.2523,0.0235 -0.5046,0.0428 -0.7569,0.0578 -0.2523,0.0151 -0.5046,0.026 -0.7569,0.0326 -0.2523,0.007 -0.5046,0.009 -0.7569,0.008 -0.2523,-7.2e-4 -0.5046,-0.007 -0.7569,-0.0158 -0.2524,-0.009 -0.5047,-0.0214 -0.7569,-0.0367 -0.2524,-0.0153 -0.5047,-0.0337 -0.757,-0.0541 -0.2523,-0.0205 -0.5046,-0.0432 -0.7569,-0.0672 -0.2523,-0.0241 -0.5046,-0.0494 -0.7569,-0.0752 -0.2523,-0.0258 -0.5046,-0.0521 -0.7569,-0.0779 -0.2523,-0.0258 -0.5046,-0.0511 -0.7569,-0.0751 -0.2523,-0.024 -0.5046,-0.0465 -0.7569,-0.067 -0.2523,-0.0205 -0.5046,-0.0387 -0.7569,-0.0541 -0.2523,-0.0155 -0.5046,-0.028 -0.7569,-0.0372 -0.2523,-0.009 -0.5046,-0.0151 -0.7569,-0.0173 -0.2523,-0.002 -0.5046,-7.2e-4 -0.7569,0.005 -0.2523,0.005 -0.5046,0.0139 -0.7569,0.0263 -0.2523,0.0123 -0.5046,0.0281 -0.7569,0.0469 -0.2523,0.0188 -0.5046,0.0406 -0.7569,0.0648 -0.2523,0.0241 -0.5046,0.0505 -0.7569,0.0782 -0.2523,0.0276 -0.5046,0.0567 -0.7569,0.0858 -0.2523,0.0291 -0.5046,0.0584 -0.7569,0.0864 -0.2523,0.028 -0.5046,0.0548 -0.7569,0.0789 -0.2523,0.0241 -0.5046,0.0455 -0.7569,0.0627 -0.2523,0.0172 -0.5046,0.0301 -0.7569,0.0376 -0.2523,0.008 -0.5046,0.009 -0.7569,0.003 -0.2523,-0.005 -0.5046,-0.018 -0.7569,-0.0387 -0.2523,-0.0207 -0.5046,-0.0498 -0.7569,-0.088 -0.2523,-0.0382 -0.5047,-0.0857 -0.7569,-0.14301 -0.2524,-0.0573 -0.5047,-0.12448 -0.757,-0.20176 -0.2523,-0.0773 -0.5046,-0.16467 -0.7569,-0.262 -0.2523,-0.0973 -0.5046,-0.20463 -0.7569,-0.32125 -0.2523,-0.11661 -0.5046,-0.24257 -0.7569,-0.37677 -0.2523,-0.1342 -0.5046,-0.27666 -0.7569,-0.42582 -0.2523,-0.14914 -0.5046,-0.30503 -0.7569,-0.46561 -0.2523,-0.16059 -0.5046,-0.32593 -0.7569,-0.49364 -0.2523,-0.16771 -0.5046,-0.33778 -0.7569,-0.50758 -0.2523,-0.16978 -0.5046,-0.33927 -0.7569,-0.50558 -0.2523,-0.1663 -0.5046,-0.3294 -0.7569,-0.4863 -0.2523,-0.1569 -0.5046,-0.30757 -0.7569,-0.44902 -0.2523,-0.14146 -0.5046,-0.27364 -0.7569,-0.39373 -0.2523,-0.12009 -0.5046,-0.22799 -0.7569,-0.32118 -0.2523,-0.0932 -0.5046,-0.17156 -0.7569,-0.23295 -0.2523,-0.0614 -0.5046,-0.10574 -0.7569,-0.1314 -0.2523,-0.0257 -0.5046,-0.0325 -0.7569,-0.0197 -0.2523,0.0129 -0.5046,0.0456 -0.7569,0.0983 -0.2523,0.0528 -0.5047,0.12569 -0.75691,0.21812 -0.2523,0.0924 -0.5047,0.20448 -0.7569,0.33459 -0.2523,0.13012 -0.5047,0.27842 -0.757,0.4424 -0.2523,0.16398 -0.5046,0.34373 -0.7569,0.53584 -0.2523,0.19213 -0.5046,0.39666 -0.7569,0.60931 -0.2523,0.21265 -0.5046,0.43344 -0.7569,0.65723 -0.2523,0.2238 -0.5046,0.4506 -0.7569,0.67452 -0.2523,0.22394 -0.5046,0.44496 -0.7569,0.65662 -0.2523,0.21165 -0.5046,0.41386 -0.7569,0.59971 -0.2523,0.18585 -0.5046,0.35523 -0.7569,0.50095 -0.2523,0.14574 -0.5046,0.26767 -0.7569,0.3586 -0.2523,0.0909 -0.5046,0.15064 -0.7569,0.17211 -0.2523,0.0215 -0.5046,0.005 -0.7569,-0.0577 -0.2523,-0.0621 -0.5046,-0.16969 -0.7569,-0.32863 -0.2523,-0.15895 -0.5046,-0.36961 -0.7569,-0.63713 -0.2523,-0.26752 -0.5046,-0.59224 -0.7569,-0.97823 -0.2523,-0.386 -0.5046,-0.83366 -0.7569,-1.34576 -0.2523,-0.51211 -0.5046,-1.08907 -0.7569,-1.73227 -0.2523,-0.64319 -0.5046,-1.35303 -0.7569,-2.12936 -0.2523,-0.77632 -0.5046,-1.61953 -0.757,-2.52782 -0.2522,-0.9083 -0.5045,-1.88207 -0.7569,-2.91786 -0.2522,-1.03579 -0.5046,-2.13395 -0.7569,-3.28936 -0.2523,-1.15538 -0.5046,-2.36835 -0.7569,-3.63213 -0.2523,-1.26376 -0.5046,-2.57862 -0.7569,-3.93629 -0.2523,-1.35766 -0.5046,-2.75837 -0.7569,-4.19245 -0.2523,-1.43408 -0.5046,-2.90171 -0.7569,-4.39202 -0.2523,-1.49032 -0.5046,-3.00345 -0.7569,-4.52754 -0.2523,-1.5241 -0.5046,-3.05921 -0.7569,-4.59281 -0.2523,-1.53361 -0.5046,-3.06567 -0.7569,-4.58323 -0.2523,-1.51756 -0.5046,-3.02052 -0.7569,-4.49583 -0.2523,-1.47531 -0.5046,-2.92276 -0.7569,-4.32952 -0.2523,-1.40677 -0.5046,-2.77256 -0.7569,-4.08507 -0.2523,-1.31252 -0.5046,-2.57141 -0.7569,-3.76519 -0.2523,-1.19377 -0.5046,-2.32203 -0.7569,-3.37441 -0.2523,-1.05237 -0.5046,-2.02839 -0.7569,-2.9191 -0.2523,-0.89071 -0.5046,-1.69558 -0.7569,-2.40727 -0.2523,-0.71169 -0.5046,-1.32964 -0.7569,-1.84834 -0.2523,-0.5187 -0.5046,-0.93752 -0.7569,-1.25297 -0.2523,-0.31544 -0.5046,-0.52685 -0.757,-0.63277 -0.2523,-0.10591 -0.5046,-0.10571 -0.7569,0 -0.2523,0.10571 -0.5046,0.31754 -0.7569,0.63277 -0.2523,0.31524 -0.5046,0.73447 -0.7569,1.25297 -0.2523,0.5185 -0.5046,1.13682 -0.7569,1.84834 -0.2523,0.71151 -0.5046,1.51673 -0.7569,2.40727 -0.2523,0.89054 -0.5046,1.86689 -0.7569,2.9191 -0.2523,1.05223 -0.5046,2.18077 -0.7569,3.37441 -0.2523,1.19365 -0.5046,2.45278 -0.7569,3.76519 -0.2523,1.3124 -0.5046,2.67839 -0.7569,4.08507 -0.2523,1.40668 -0.5046,2.85427 -0.7569,4.32952 -0.2523,1.47525 -0.5046,2.9783 -0.7569,4.49583 -0.2523,1.51754 -0.5046,3.04963 -0.7569,4.58323 -0.2523,1.53359 -0.5046,3.06869 -0.7569,4.59281 -0.2523,1.52411 -0.5046,3.03717 -0.7569,4.52754 -0.2523,1.49035 -0.5046,2.95787 -0.7569,4.39202 -0.2523,1.43414 -0.5046,2.8347 -0.7569,4.19245 -0.2523,1.35774 -0.5046,2.67243 -0.7569,3.93629 -0.2523,1.26388 -0.5046,2.47663 -0.7569,3.63213 -0.2523,1.15552 -0.5046,2.25345 -0.7569,3.28936 -0.2524,1.03591 -0.5046,2.00943 -0.757,2.91786 -0.2523,0.90843 -0.5045,1.75137 -0.7569,2.52782 -0.2523,0.77646 -0.5045,1.48603 -0.7569,2.12936 -0.2523,0.64333 -0.5046,1.22002 -0.7569,1.73227 -0.2523,0.51223 -0.5046,0.95964 -0.7569,1.34576 -0.2523,0.38611 -0.5046,0.7106 -0.7569,0.97823 -0.2523,0.26764 -0.5046,0.47808 -0.7569,0.63713 -0.2523,0.15904 -0.5046,0.2664 -0.7569,0.32863 -0.2523,0.0622 -0.5046,0.0791 -0.7569,0.0577 -0.2523,-0.0214 -0.5046,-0.0812 -0.7569,-0.17211 -0.2523,-0.0909 -0.5046,-0.21291 -0.7569,-0.3586 -0.2523,-0.14568 -0.5046,-0.31513 -0.7569,-0.50095 -0.2523,-0.18581 -0.5046,-0.38807 -0.7569,-0.59971 -0.2523,-0.21163 -0.5046,-0.43268 -0.7569,-0.65662 -0.2523,-0.22392 -0.5046,-0.45072 -0.7569,-0.67452 -0.2523,-0.2238 -0.5046,-0.44457 -0.7569,-0.65723 -0.2523,-0.21266 -0.5046,-0.41716 -0.7569,-0.60931 -0.2523,-0.19213 -0.5046,-0.37183 -0.7569,-0.53584 -0.2523,-0.16401 -0.5046,-0.31224 -0.7569,-0.4424 -0.2523,-0.13015 -0.5046,-0.24213 -0.7569,-0.33459 -0.2523,-0.0925 -0.5046,-0.16532 -0.7569,-0.21812 -0.2524,-0.0527 -0.5046,-0.0854 -0.757,-0.0983 -0.2523,-0.0129 -0.5046,-0.006 -0.7569,0.0197 -0.2523,0.0256 -0.5046,0.0701 -0.7569,0.1314 -0.2523,0.0614 -0.5046,0.13979 -0.7569,0.23295 -0.2523,0.0932 -0.5046,0.20111 -0.7569,0.32118 -0.2523,0.12007 -0.5046,0.25229 -0.7569,0.39373 -0.2523,0.14144 -0.5046,0.29213 -0.7569,0.44902 -0.2523,0.15689 -0.5046,0.32001 -0.7569,0.4863 -0.2523,0.1663 -0.5046,0.3358 -0.7569,0.50558 -0.2523,0.1698 -0.5046,0.33987 -0.7569,0.50758 -0.2523,0.16772 -0.5046,0.33304 -0.7569,0.49364 -0.2523,0.16061 -0.5046,0.31645 -0.7569,0.46561 -0.2523,0.14919 -0.5046,0.2916 -0.7569,0.42582 -0.2523,0.1342 -0.5046,0.26015 -0.7569,0.37677 -0.2523,0.11663 -0.5046,0.2239 -0.7569,0.32125 -0.2523,0.0974 -0.5046,0.18472 -0.7569,0.262 -0.2523,0.0773 -0.5046,0.14444 -0.7569,0.20176 -0.2523,0.0573 -0.5046,0.10476 -0.7569,0.14301 -0.2523,0.0383 -0.5046,0.0673 -0.757,0.088 -0.2522,0.0208 -0.5045,0.0332 -0.7569,0.0387 -0.2523,0.005 -0.5045,0.004 -0.7569,-0.003 -0.2523,-0.008 -0.5045,-0.0203 -0.7569,-0.0376 -0.2523,-0.0172 -0.5046,-0.0387 -0.7569,-0.0627 -0.2523,-0.0241 -0.5046,-0.0508 -0.7569,-0.0789 -0.2523,-0.028 -0.5046,-0.0572 -0.7569,-0.0864 -0.2523,-0.0291 -0.5046,-0.0581 -0.7569,-0.0858 -0.2523,-0.0277 -0.5046,-0.0541 -0.7569,-0.0782 -0.2523,-0.0241 -0.5046,-0.0459 -0.7569,-0.0648 -0.2523,-0.0188 -0.5046,-0.0346 -0.7569,-0.0469 -0.2523,-0.0123 -0.5046,-0.0211 -0.7569,-0.0263 -0.2523,-0.005 -0.5046,-0.006 -0.7569,-0.005 -0.2523,0.002 -0.5046,0.008 -0.7569,0.0173 -0.2523,0.009 -0.5046,0.0218 -0.7569,0.0372 -0.2523,0.0154 -0.5046,0.0338 -0.7569,0.0541 -0.2523,0.0204 -0.5046,0.043 -0.7569,0.067 -0.2523,0.0239 -0.5046,0.0493 -0.7569,0.0751 -0.2523,0.0258 -0.5046,0.0521 -0.7569,0.0779 -0.2523,0.0258 -0.5046,0.0512 -0.7569,0.0752 -0.2523,0.0241 -0.5046,0.0467 -0.7569,0.0672 -0.2523,0.0204 -0.5047,0.0387 -0.757,0.0541 -0.2523,0.0154 -0.5046,0.0278 -0.7569,0.0367 -0.2523,0.009 -0.5046,0.0144 -0.7569,0.0158 -0.2523,7.2e-4 -0.5046,-7.2e-4 -0.7569,-0.008 -0.2523,-0.007 -0.5046,-0.0176 -0.7569,-0.0326 -0.2523,-0.0151 -0.5046,-0.0344 -0.7569,-0.0578 -0.2523,-0.0235 -0.5046,-0.0509 -0.7569,-0.0821 -0.2523,-0.0312 -0.5046,-0.0661 -0.7569,-0.10427 -0.2523,-0.0381 -0.5046,-0.0795 -0.7569,-0.1234 -0.2523,-0.0439 -0.5046,-0.0904 -0.7569,-0.1386 -0.2523,-0.0483 -0.5046,-0.0983 -0.7569,-0.14918 -0.2523,-0.0509 -0.5046,-0.10278 -0.7569,-0.15466 -0.2523,-0.0518 -0.5046,-0.10377 -0.7569,-0.15478 -0.2523,-0.051 -0.5046,-0.10116 -0.7569,-0.14953 -0.2523,-0.0484 -0.5046,-0.095 -0.7569,-0.13911 -0.2523,-0.0441 -0.5046,-0.0856 -0.7569,-0.1239 -0.2523,-0.0383 -0.5046,-0.0733 -0.7569,-0.10454 -0.2523,-0.0312 -0.5046,-0.0586 -0.7569,-0.0818 -0.2523,-0.0232 -0.5046,-0.0421 -0.7569,-0.0565 -0.2523,-0.0145 -0.5046,-0.0243 -0.7569,-0.0297 -0.25234,-0.005 -0.50464,-0.006 -0.75694,-0.002 -0.2523,0.004 -0.5046,0.0122 -0.75691,0.0248 -0.2523,0.0126 -0.5046,0.0296 -0.7569,0.0504 -0.25232,0.0209 -0.50462,0.0457 -0.7569,0.0739 -0.25232,0.0282 -0.50462,0.0599 -0.7569,0.0944 -0.25233,0.0344 -0.50462,0.0718 -0.7569,0.11133 -0.25233,0.0395 -0.50462,0.0811 -0.75692,0.12427 -0.25231,0.0431 -0.5046,0.0877 -0.75691,0.13301 -0.25231,0.0453 -0.5046,0.0914 -0.75692,0.13744 -0.25229,0.0461 -0.50458,0.0922 -0.7569,0.1377 -0.25229,0.0455 -0.5046,0.0904 -0.7569,0.13402 -0.25229,0.0437 -0.5046,0.0861 -0.75691,0.12682 -0.2523,0.0408 -0.50459,0.0798 -0.75691,0.11667 -0.25231,0.0369 -0.50459,0.0717 -0.7569,0.10415 -0.25231,0.0325 -0.50459,0.0624 -0.75691,0.0899 -0.2523,0.0275 -0.5046,0.0525 -0.7569,0.0747 -0.2523,0.0224 -0.5046,0.0421 -0.7569,0.0595 -0.2523,0.0173 -0.50461,0.032 -0.7569,0.0443 -0.25231,0.0123 -0.50461,0.0224 -0.75691,0.0303 -0.2523,0.008 -0.5046,0.0137 -0.7569,0.0177 -0.25231,0.004 -0.50461,0.006 -0.7569,0.007 -0.25231,7.2e-4 -0.50461,2.2e-4 -0.75691,-7.2e-4 -0.25231,-0.002 -0.5046,-0.005 -0.75691,-0.008 -0.2523,-0.003 -0.50459,-0.007 -0.7569,-0.0115 -0.25231,-0.005 -0.50459,-0.009 -0.7569,-0.0131 -0.25231,-0.005 -0.5046,-0.009 -0.7569,-0.0128 -0.25231,-0.004 -0.50461,-0.008 -0.7569,-0.0108 -0.25231,-0.003 -0.50461,-0.005 -0.75691,-0.008 -0.25231,-0.002 -0.5046,-0.003 -0.7569,-0.003 -0.25232,-3.9e-4 -0.50461,-1.8e-4 -0.75694,7.3e-4 -0.2523,7.2e-4 -0.50458,0.003 -0.7569,0.005 -0.2523,0.002 -0.50458,0.005 -0.7569,0.009 -0.2523,0.003 -0.5046,0.007 -0.75691,0.0113 -0.2523,0.004 -0.50459,0.008 -0.7569,0.0126 -0.2523,0.005 -0.50459,0.008 -0.75691,0.0123 -0.2523,0.004 -0.5046,0.008 -0.7569,0.0102 -0.2523,0.003 -0.50461,0.005 -0.7569,0.006 -0.2523,7.2e-4 -0.50461,0.002 -0.75691,7.2e-4 -0.25229,-7.2e-4 -0.5046,-0.003 -0.7569,-0.006 -0.2523,-0.003 -0.5046,-0.008 -0.75691,-0.0148 -0.25229,-0.006 -0.5046,-0.0145 -0.75691,-0.0244 -0.25228,-0.01 -0.5046,-0.0213 -0.7569,-0.0345 -0.25228,-0.0132 -0.5046,-0.0282 -0.7569,-0.0448 -0.2523,-0.0166 -0.5046,-0.035 -0.7569,-0.0548 -0.25231,-0.0199 -0.5046,-0.0413 -0.75691,-0.0641 -0.2523,-0.0228 -0.5046,-0.0469 -0.75691,-0.0721 -0.2523,-0.0252 -0.5046,-0.0515 -0.7569,-0.0785 -0.2523,-0.027 -0.50461,-0.0548 -0.75691,-0.0829 -0.25229,-0.0281 -0.5046,-0.0567 -0.7569,-0.0851 -0.2523,-0.0285 -0.5046,-0.0569 -0.75691,-0.0849 -0.2523,-0.028 -0.50459,-0.0555 -0.7569,-0.0822 -0.2523,-0.0267 -0.5046,-0.0525 -0.7569,-0.0771 -0.2523,-0.0246 -0.5046,-0.0478 -0.75692,-0.0695 -0.25229,-0.0216 -0.50458,-0.0418 -0.7569,-0.0599 -0.25229,-0.0182 -0.50458,-0.0344 -0.7569,-0.0485 -0.25229,-0.0141 -0.50459,-0.0259 -0.7569,-0.0355 -0.25229,-0.01 -0.50461,-0.0168 -0.7569,-0.0215 -0.25229,-0.005 -0.50461,-0.007 -0.75691,-0.007 -0.25229,10e-5 -0.5046,0.003 -0.7569,0.008 -0.25229,0.005 -0.5046,0.0123 -0.75692,0.0218 -0.25228,0.01 -0.50458,0.0213 -0.75691,0.0352 -0.25227,0.0138 -0.50459,0.0297 -0.75691,0.0473 -0.25229,0.0177 -0.50461,0.0371 -0.75691,0.0579 -0.25229,0.0208 -0.5046,0.0431 -0.7569,0.0665 -0.25229,0.0235 -0.5046,0.0478 -0.75689,0.0731 -0.25232,0.0252 -0.50461,0.0511 -0.7569,0.0774 -0.25232,0.0263 -0.50462,0.0529 -0.7569,0.0795 -0.25232,0.0266 -0.50463,0.0532 -0.75691,0.0795 -0.25231,0.0262 -0.50462,0.0521 -0.75691,0.0774 -0.2523,0.0252 -0.50461,0.0498 -0.75691,0.0734 -0.2523,0.0237 -0.50461,0.0464 -0.7569,0.0681 -0.2523,0.0217 -0.50461,0.0422 -0.7569,0.0614 -0.2523,0.0192 -0.50461,0.0373 -0.7569,0.0539 -0.25231,0.0166 -0.50461,0.032 -0.75691,0.0459 -0.25231,0.014 -0.5046,0.0265 -0.7569,0.0378 -0.25232,0.0112 -0.50461,0.0212 -0.75692,0.0298 -0.2523,0.009 -0.50459,0.0162 -0.7569,0.0224 -0.2523,0.006 -0.50461,0.0115 -0.7569,0.0158 -0.25231,0.005 -0.50462,0.008 -0.75691,0.01 -0.2523,0.003 -0.50461,0.005 -0.7569,0.005 -0.25231,7.3e-4 -0.50461,0.002 -0.75691,0.002 -0.2523,1.6e-4 -0.5046,-1e-4 -0.7569,-3.8e-4 -0.2523,-4e-4 -0.50461,-7.2e-4 -0.75691,-0.002 -0.25229,-7.2e-4 -0.5046,-0.002 -0.7569,-0.002 -0.2523,-7.1e-4 -0.5046,-7.1e-4 -0.7569,-0.002 -0.2523,-3.9e-4 -0.50461,-7.3e-4 -0.7569,-7.3e-4 -0.25231,-2.3e-4 -0.50461,-2.6e-4 -0.7569,-1.3e-4 -0.25231,1.5e-4 -0.50464,4e-4 -0.7569,7.3e-4 -0.25233,3.9e-4 -0.50465,7.2e-4 -0.75693,0.002 -0.25231,7.3e-4 -0.50462,7.3e-4 -0.7569,0.002 -0.25231,7.2e-4 -0.50462,7.2e-4 -0.75692,0.002 -0.2523,3.9e-4 -0.5046,7.2e-4 -0.7569,7.2e-4 -0.2523,7e-5 -0.5046,-2e-4 -0.7569,-7.2e-4 -0.2523,-7.3e-4 -0.50461,-0.002 -0.7569,-0.004 -0.25231,-0.002 -0.50461,-0.005 -0.75692,-0.008 -0.25231,-0.003 -0.50459,-0.008 -0.7569,-0.0126 -0.25232,-0.005 -0.50459,-0.0112 -0.7569,-0.0181 -0.25232,-0.007 -0.50461,-0.0152 -0.75691,-0.0243 -0.25231,-0.009 -0.5046,-0.0195 -0.7569,-0.0308 -0.25231,-0.0114 -0.5046,-0.0238 -0.75691,-0.0373 -0.2523,-0.0135 -0.5046,-0.0281 -0.75691,-0.0437 -0.25229,-0.0156 -0.50459,-0.0322 -0.75691,-0.0495 -0.25229,-0.0174 -0.5046,-0.0356 -0.7569,-0.0546 -0.2523,-0.0189 -0.5046,-0.0387 -0.7569,-0.0587 -0.25231,-0.0201 -0.5046,-0.0407 -0.7569,-0.0614 -0.25231,-0.0208 -0.5046,-0.0418 -0.75692,-0.0628 -0.2523,-0.0209 -0.50458,-0.0419 -0.7569,-0.0625 -0.2523,-0.0207 -0.50459,-0.041 -0.7569,-0.0606 -0.2523,-0.0197 -0.5046,-0.0388 -0.7569,-0.0571 -0.2523,-0.0181 -0.5046,-0.0355 -0.7569,-0.0518 -0.2523,-0.0162 -0.5046,-0.0314 -0.7569,-0.0452 -0.25232,-0.0138 -0.50461,-0.0261 -0.75691,-0.0371 -0.2523,-0.0109 -0.5046,-0.0203 -0.75691,-0.028 -0.25229,-0.008 -0.50459,-0.0138 -0.7569,-0.0181 -0.25232,-0.005 -0.50459,-0.007 -0.7569,-0.008 -0.25232,-7.2e-4 -0.50462,2.3e-4 -0.75692,0.003 -0.25231,0.003 -0.50461,0.008 -0.7569,0.0135 -0.25231,0.006 -0.50462,0.014 -0.75691,0.0234 -0.25231,0.009 -0.50461,0.0203 -0.7569,0.0326 -0.25232,0.0123 -0.50461,0.0261 -0.7569,0.0408 -0.25232,0.0148 -0.50461,0.0308 -0.75691,0.0477 -0.25231,0.0169 -0.5046,0.0348 -0.75691,0.0534 -0.2523,0.0185 -0.50459,0.0378 -0.75691,0.0574 -0.25229,0.0196 -0.50459,0.0396 -0.7569,0.0598 -0.25229,0.0202 -0.50459,0.0404 -0.7569,0.0606 -0.25229,0.0201 -0.5046,0.0403 -0.7569,0.06 -0.25231,0.0197 -0.5046,0.0391 -0.7569,0.0579 -0.25231,0.0188 -0.50461,0.0371 -0.75693,0.0547 -0.25229,0.0175 -0.50459,0.0344 -0.75691,0.0504 -0.25229,0.016 -0.50459,0.0311 -0.7569,0.0454 -0.25229,0.0142 -0.5046,0.0275 -0.7569,0.0398 -0.25229,0.0123 -0.50461,0.0236 -0.75691,0.034 -0.25228,0.0104 -0.5046,0.0198 -0.7569,0.0282 -0.25229,0.008 -0.5046,0.016 -0.7569,0.0226 -0.2523,0.007 -0.5046,0.0124 -0.7569,0.0174 -0.25231,0.005 -0.5046,0.009 -0.75691,0.0128 -0.2523,0.003 -0.5046,0.006 -0.75691,0.009 -0.25229,0.002 -0.50459,0.004 -0.7569,0.005 -0.25229,7.2e-4 -0.5046,0.002 -0.7569,0.003 -0.25229,7.2e-4 -0.5046,7.2e-4 -0.7569,7.2e-4 -0.2523,2.6e-4 -0.5046,2.9e-4 -0.7569,2.9e-4 -0.2523,10e-6 -0.5046,-5e-5 -0.7569,-1.3e-4 -0.25231,-7e-5 -0.50461,-1.6e-4 -0.75694,-2.1e-4 -0.25227,-6e-5 -0.50458,-9e-5 -0.75691,-7e-5 -0.25228,10e-6 -0.50458,7e-5 -0.7569,1.4e-4 -0.2523,7e-5 -0.50459,1.6e-4 -0.7569,2.2e-4 -0.2523,5e-5 -0.5046,8e-5 -0.7569,0 -0.2523,-9e-5 -0.5046,-2.8e-4 -0.7569,-3.9e-4 -0.25231,-2.9e-4 -0.50461,-7.3e-4 -0.75691,-0.002 -0.2523,-7.2e-4 -0.5046,-0.002 -0.7569,-0.004 -0.2523,-0.002 -0.5046,-0.004 -0.75691,-0.006 -0.25229,-0.003 -0.5046,-0.006 -0.75691,-0.01 -0.25228,-0.004 -0.50459,-0.008 -0.7569,-0.0137 -0.25228,-0.005 -0.5046,-0.0113 -0.7569,-0.0181 -0.25228,-0.007 -0.5046,-0.0146 -0.7569,-0.0231 -0.2523,-0.009 -0.50461,-0.0181 -0.75691,-0.0284 -0.25231,-0.0104 -0.50461,-0.0216 -0.7569,-0.0338 -0.25231,-0.0122 -0.50461,-0.0251 -0.7569,-0.0388 -0.25231,-0.0138 -0.50462,-0.0284 -0.75691,-0.0437 -0.2523,-0.0152 -0.50461,-0.0313 -0.7569,-0.0478 -0.25232,-0.0165 -0.50463,-0.0337 -0.75691,-0.0511 -0.25231,-0.0175 -0.50462,-0.0354 -0.75691,-0.0535 -0.2523,-0.0181 -0.50461,-0.0364 -0.7569,-0.0547 -0.25231,-0.0182 -0.50461,-0.0365 -0.75691,-0.0545 -0.2523,-0.018 -0.50461,-0.0357 -0.7569,-0.053 -0.25232,-0.0173 -0.50461,-0.0341 -0.75691,-0.0501 -0.25231,-0.016 -0.5046,-0.0314 -0.7569,-0.0458 -0.25231,-0.0144 -0.5046,-0.0278 -0.7569,-0.0401 -0.25231,-0.0124 -0.50461,-0.0237 -0.75691,-0.0335 -0.2523,-0.01 -0.50462,-0.0185 -0.75691,-0.0258 -0.2523,-0.007 -0.50461,-0.013 -0.7569,-0.0173 -0.25231,-0.005 -0.50461,-0.007 -0.7569,-0.008 -0.25231,-7.2e-4 -0.50462,-7.2e-4 -0.75691,7.2e-4 -0.2523,0.002 -0.50461,0.005 -0.75692,0.01 -0.25228,0.005 -0.50459,0.0112 -0.7569,0.0188 -0.25229,0.008 -0.5046,0.0168 -0.7569,0.0271 -0.2523,0.0104 -0.50461,0.0218 -0.75691,0.0345 -0.2523,0.0126 -0.50461,0.0264 -0.7569,0.0409 -0.25231,0.0146 -0.50461,0.0301 -0.7569,0.0462 -0.25231,0.0162 -0.50462,0.0328 -0.7569,0.0501 -0.25231,0.0173 -0.50462,0.0348 -0.75691,0.0527 -0.25231,0.0178 -0.50461,0.0359 -0.7569,0.054 -0.25231,0.0181 -0.50462,0.0361 -0.75692,0.0539 -0.2523,0.0179 -0.50461,0.0354 -0.7569,0.0525 -0.2523,0.0172 -0.50461,0.0339 -0.75691,0.0501 -0.25229,0.0161 -0.5046,0.0318 -0.7569,0.0467 -0.25232,0.0148 -0.5046,0.0291 -0.7569,0.0425 -0.25232,0.0134 -0.5046,0.0261 -0.7569,0.0378 -0.25232,0.0118 -0.5046,0.0227 -0.75691,0.0328 -0.25231,0.0101 -0.5046,0.0192 -0.75691,0.0276 -0.2523,0.008 -0.50459,0.0159 -0.7569,0.0227 -0.25231,0.007 -0.5046,0.0126 -0.7569,0.0178 -0.25231,0.005 -0.5046,0.01 -0.75691,0.0135 -0.25232,0.004 -0.50461,0.007 -0.75691,0.01 -0.25231,0.003 -0.5046,0.005 -0.75691,0.007 l -0.75692,0.005 c -0.2523,7.2e-4 -0.50458,0.002 -0.7569,0.002 -0.2523,3.8e-4 -0.50458,7.1e-4 -0.7569,7.1e-4 -0.2523,2.5e-4 -0.5046,2.9e-4 -0.7569,3.9e-4 -0.2523,8e-5 -0.50461,10e-5 -0.7569,10e-5 -0.2523,2e-5 -6.25241,-0.0315 -6.5047,-0.0315"
         title="(cos(10*x)+cos(9*x)+cos(8*x)+cos(7*x)+cos(6*x)+cos(5*x)+cos(4*x)+cos(3*x)+cos(2*x)+cos(x))**2"
         id="path8338-8-3" />
      <path
         sodipodi:nodetypes="cc"
         inkscape:connector-curvature="0"
         id="path11414-0-5"
         d="M 400.7966,567.77818 H 180.13418"
         style="fill:none;fill-rule:evenodd;stroke:#000000;stroke-width:1.875;stroke-linecap:butt;stroke-linejoin:miter;stroke-miterlimit:4;stroke-dasharray:none;stroke-opacity:1;marker-start:url(#Arrow1Mstart);marker-end:url(#Arrow1Mend)" />
      <path
         sodipodi:nodetypes="cc"
         inkscape:connector-curvature="0"
         id="path11414-0-5-9"
         d="M 965.22898,606.90802 H 502.07753"
         style="fill:none;fill-rule:evenodd;stroke:#000000;stroke-width:1.875;stroke-linecap:butt;stroke-linejoin:miter;stroke-miterlimit:4;stroke-dasharray:none;stroke-opacity:1;marker-start:url(#Arrow1Mstart-3);marker-end:url(#Arrow1Mend-6)" />
    </g>
    <g
       id="g2498">
      <g
         id="g2468">
        <text
           xml:space="preserve"
           style="font-style:normal;font-variant:normal;font-weight:normal;font-stretch:normal;font-size:15.234375px;line-height:125%;font-family:'Nimbus Sans L';-inkscape-font-specification:Sans;letter-spacing:0px;word-spacing:0px;fill:#000000;fill-opacity:1;stroke:none;stroke-width:0.9375px;stroke-linecap:butt;stroke-linejoin:miter;stroke-opacity:1"
           x="284.90921"
           y="563.81299"
           id="text1334"><tspan
             sodipodi:role="line"
             id="tspan1332"
             x="284.90921"
             y="563.81299"
             style="stroke-width:0.9375px">$L$</tspan></text>
        <text
           xml:space="preserve"
           style="font-style:normal;font-variant:normal;font-weight:normal;font-stretch:normal;font-size:15.234375px;line-height:125%;font-family:'Nimbus Sans L';-inkscape-font-specification:Sans;letter-spacing:0px;word-spacing:0px;fill:#000000;fill-opacity:1;stroke:none;stroke-width:0.9375px;stroke-linecap:butt;stroke-linejoin:miter;stroke-opacity:1"
           x="732.74243"
           y="602.01373"
           id="text1334-1"><tspan
             sodipodi:role="line"
             id="tspan1332-2"
             x="732.74243"
             y="602.01373"
             style="stroke-width:0.9375px">$2L$</tspan></text>
      </g>
    </g>
  </g>
</svg>
