<?xml version="1.0" encoding="UTF-8" standalone="no"?>
<!-- Created with Inkscape (http://www.inkscape.org/) -->

<svg
   xmlns:dc="http://purl.org/dc/elements/1.1/"
   xmlns:cc="http://creativecommons.org/ns#"
   xmlns:rdf="http://www.w3.org/1999/02/22-rdf-syntax-ns#"
   xmlns:svg="http://www.w3.org/2000/svg"
   xmlns="http://www.w3.org/2000/svg"
   xmlns:sodipodi="http://sodipodi.sourceforge.net/DTD/sodipodi-0.dtd"
   xmlns:inkscape="http://www.inkscape.org/namespaces/inkscape"
   sodipodi:docname="06_pulseML.svg"
   inkscape:version="0.92.3 (2405546, 2018-03-11)"
   version="1.1"
   id="svg2"
   viewBox="0 0 941.18446 319.16713"
   height="90.076065mm"
   width="265.62317mm">
  <sodipodi:namedview
     showguides="true"
     fit-margin-bottom="0"
     fit-margin-right="0"
     fit-margin-left="0"
     fit-margin-top="0"
     inkscape:window-maximized="0"
     inkscape:window-y="0"
     inkscape:window-x="517"
     inkscape:window-height="1015"
     inkscape:window-width="1295"
     showgrid="false"
     inkscape:current-layer="layer1"
     inkscape:document-units="px"
     inkscape:cy="115.81394"
     inkscape:cx="438.53646"
     inkscape:zoom="0.62424271"
     inkscape:pageshadow="2"
     inkscape:pageopacity="0.0"
     borderopacity="1.0"
     bordercolor="#666666"
     pagecolor="#ffffff"
     id="base" />
  <defs
     id="defs4">
    <marker
       inkscape:isstock="true"
       style="overflow:visible"
       id="marker2319"
       refX="0"
       refY="0"
       orient="auto"
       inkscape:stockid="Arrow1Sstart">
      <path
         transform="matrix(0.2,0,0,0.2,1.2,0)"
         style="fill:#000000;fill-opacity:1;fill-rule:evenodd;stroke:#000000;stroke-width:1.00000003pt;stroke-opacity:1"
         d="M 0,0 5,-5 -12.5,0 5,5 Z"
         id="path2317"
         inkscape:connector-curvature="0" />
    </marker>
    <marker
       inkscape:stockid="Arrow1Sstart"
       orient="auto"
       refY="0"
       refX="0"
       id="Arrow1Sstart"
       style="overflow:visible"
       inkscape:isstock="true"
       inkscape:collect="always">
      <path
         id="path1014"
         d="M 0,0 5,-5 -12.5,0 5,5 Z"
         style="fill:#000000;fill-opacity:1;fill-rule:evenodd;stroke:#000000;stroke-width:1.00000003pt;stroke-opacity:1"
         transform="matrix(0.2,0,0,0.2,1.2,0)"
         inkscape:connector-curvature="0" />
    </marker>
    <marker
       inkscape:stockid="Arrow1Send"
       orient="auto"
       refY="0"
       refX="0"
       id="marker1945"
       style="overflow:visible"
       inkscape:isstock="true">
      <path
         id="path1943"
         d="M 0,0 5,-5 -12.5,0 5,5 Z"
         style="fill:#000000;fill-opacity:1;fill-rule:evenodd;stroke:#000000;stroke-width:1.00000003pt;stroke-opacity:1"
         transform="matrix(-0.2,0,0,-0.2,-1.2,0)"
         inkscape:connector-curvature="0" />
    </marker>
    <marker
       inkscape:stockid="Arrow1Mstart"
       orient="auto"
       refY="0"
       refX="0"
       id="Arrow1Mstart"
       style="overflow:visible"
       inkscape:isstock="true">
      <path
         id="path1008"
         d="M 0,0 5,-5 -12.5,0 5,5 Z"
         style="fill:#000000;fill-opacity:1;fill-rule:evenodd;stroke:#000000;stroke-width:1.00000003pt;stroke-opacity:1"
         transform="matrix(0.4,0,0,0.4,4,0)"
         inkscape:connector-curvature="0" />
    </marker>
    <marker
       inkscape:stockid="Arrow1Send"
       orient="auto"
       refY="0"
       refX="0"
       id="marker1265"
       style="overflow:visible"
       inkscape:isstock="true">
      <path
         id="path1017"
         d="M 0,0 5,-5 -12.5,0 5,5 Z"
         style="fill:#000000;fill-opacity:1;fill-rule:evenodd;stroke:#000000;stroke-width:1.00000003pt;stroke-opacity:1"
         transform="matrix(-0.2,0,0,-0.2,-1.2,0)"
         inkscape:connector-curvature="0" />
    </marker>
    <marker
       inkscape:stockid="Arrow1Mend"
       orient="auto"
       refY="0"
       refX="0"
       id="marker5248"
       style="overflow:visible"
       inkscape:isstock="true">
      <path
         id="path5250"
         d="M 0,0 5,-5 -12.5,0 5,5 Z"
         style="fill:#000000;fill-opacity:1;fill-rule:evenodd;stroke:#000000;stroke-width:1.00000003pt;stroke-opacity:1"
         transform="matrix(-0.4,0,0,-0.4,-4,0)"
         inkscape:connector-curvature="0" />
    </marker>
    <marker
       inkscape:stockid="Arrow1Mend"
       orient="auto"
       refY="0"
       refX="0"
       id="Arrow1Mend"
       style="overflow:visible"
       inkscape:isstock="true">
      <path
         id="path4255"
         d="M 0,0 5,-5 -12.5,0 5,5 Z"
         style="fill:#d99238;fill-opacity:1;fill-rule:evenodd;stroke:#d99238;stroke-width:1.00000003pt;stroke-opacity:1"
         transform="matrix(-0.4,0,0,-0.4,-4,0)"
         inkscape:connector-curvature="0" />
    </marker>
    <marker
       inkscape:stockid="Arrow1Send"
       orient="auto"
       refY="0"
       refX="0"
       id="Arrow1Send"
       style="overflow:visible"
       inkscape:isstock="true">
      <path
         id="path4178"
         d="M 0,0 5,-5 -12.5,0 5,5 Z"
         style="fill:#d40000;fill-opacity:1;fill-rule:evenodd;stroke:#d40000;stroke-width:1.00000003pt;stroke-opacity:1"
         transform="matrix(-0.2,0,0,-0.2,-1.2,0)"
         inkscape:connector-curvature="0" />
    </marker>
    <marker
       inkscape:stockid="Arrow1Mend"
       orient="auto"
       refY="0"
       refX="0"
       id="Arrow1Mend-5"
       style="overflow:visible"
       inkscape:isstock="true">
      <path
         inkscape:connector-curvature="0"
         id="path4255-6"
         d="M 0,0 5,-5 -12.5,0 5,5 Z"
         style="fill:#d99238;fill-opacity:1;fill-rule:evenodd;stroke:#d99238;stroke-width:1.00000003pt;stroke-opacity:1"
         transform="matrix(-0.4,0,0,-0.4,-4,0)" />
    </marker>
    <marker
       inkscape:stockid="Arrow1Mend"
       orient="auto"
       refY="0"
       refX="0"
       id="Arrow1Mend-9"
       style="overflow:visible"
       inkscape:isstock="true">
      <path
         inkscape:connector-curvature="0"
         id="path4255-1"
         d="M 0,0 5,-5 -12.5,0 5,5 Z"
         style="fill:#d99238;fill-opacity:1;fill-rule:evenodd;stroke:#d99238;stroke-width:1.00000003pt;stroke-opacity:1"
         transform="matrix(-0.4,0,0,-0.4,-4,0)" />
    </marker>
    <marker
       inkscape:stockid="Arrow1Mend"
       orient="auto"
       refY="0"
       refX="0"
       id="Arrow1Mend-5-2"
       style="overflow:visible"
       inkscape:isstock="true">
      <path
         inkscape:connector-curvature="0"
         id="path4255-6-7"
         d="M 0,0 5,-5 -12.5,0 5,5 Z"
         style="fill:#d99238;fill-opacity:1;fill-rule:evenodd;stroke:#d99238;stroke-width:1.00000003pt;stroke-opacity:1"
         transform="matrix(-0.4,0,0,-0.4,-4,0)" />
    </marker>
    <marker
       inkscape:stockid="Arrow1Mend"
       orient="auto"
       refY="0"
       refX="0"
       id="Arrow1Mend-9-3"
       style="overflow:visible"
       inkscape:isstock="true">
      <path
         inkscape:connector-curvature="0"
         id="path4255-1-6"
         d="M 0,0 5,-5 -12.5,0 5,5 Z"
         style="fill:#d99238;fill-opacity:1;fill-rule:evenodd;stroke:#d99238;stroke-width:1.00000003pt;stroke-opacity:1"
         transform="matrix(-0.4,0,0,-0.4,-4,0)" />
    </marker>
    <marker
       inkscape:stockid="Arrow1Mend"
       orient="auto"
       refY="0"
       refX="0"
       id="Arrow1Mend-5-2-0"
       style="overflow:visible"
       inkscape:isstock="true">
      <path
         inkscape:connector-curvature="0"
         id="path4255-6-7-6"
         d="M 0,0 5,-5 -12.5,0 5,5 Z"
         style="fill:#d99238;fill-opacity:1;fill-rule:evenodd;stroke:#d99238;stroke-width:1.00000003pt;stroke-opacity:1"
         transform="matrix(-0.4,0,0,-0.4,-4,0)" />
    </marker>
    <marker
       inkscape:stockid="Arrow1Mend"
       orient="auto"
       refY="0"
       refX="0"
       id="Arrow1Mend-1"
       style="overflow:visible"
       inkscape:isstock="true">
      <path
         inkscape:connector-curvature="0"
         id="path4255-8"
         d="M 0,0 5,-5 -12.5,0 5,5 Z"
         style="fill:#d99238;fill-opacity:1;fill-rule:evenodd;stroke:#d99238;stroke-width:1.00000003pt;stroke-opacity:1"
         transform="matrix(-0.4,0,0,-0.4,-4,0)" />
    </marker>
    <marker
       inkscape:stockid="Arrow1Mend"
       orient="auto"
       refY="0"
       refX="0"
       id="Arrow1Mend-5-7"
       style="overflow:visible"
       inkscape:isstock="true">
      <path
         inkscape:connector-curvature="0"
         id="path4255-6-9"
         d="M 0,0 5,-5 -12.5,0 5,5 Z"
         style="fill:#d99238;fill-opacity:1;fill-rule:evenodd;stroke:#d99238;stroke-width:1.00000003pt;stroke-opacity:1"
         transform="matrix(-0.4,0,0,-0.4,-4,0)" />
    </marker>
    <marker
       inkscape:stockid="Arrow1Mend"
       orient="auto"
       refY="0"
       refX="0"
       id="Arrow1Mend-9-2"
       style="overflow:visible"
       inkscape:isstock="true">
      <path
         inkscape:connector-curvature="0"
         id="path4255-1-0"
         d="M 0,0 5,-5 -12.5,0 5,5 Z"
         style="fill:#d99238;fill-opacity:1;fill-rule:evenodd;stroke:#d99238;stroke-width:1.00000003pt;stroke-opacity:1"
         transform="matrix(-0.4,0,0,-0.4,-4,0)" />
    </marker>
    <marker
       inkscape:stockid="Arrow1Mend"
       orient="auto"
       refY="0"
       refX="0"
       id="Arrow1Mend-5-2-2"
       style="overflow:visible"
       inkscape:isstock="true">
      <path
         inkscape:connector-curvature="0"
         id="path4255-6-7-3"
         d="M 0,0 5,-5 -12.5,0 5,5 Z"
         style="fill:#d99238;fill-opacity:1;fill-rule:evenodd;stroke:#d99238;stroke-width:1.00000003pt;stroke-opacity:1"
         transform="matrix(-0.4,0,0,-0.4,-4,0)" />
    </marker>
    <marker
       inkscape:stockid="Arrow1Mend"
       orient="auto"
       refY="0"
       refX="0"
       id="Arrow1Mend-9-3-7"
       style="overflow:visible"
       inkscape:isstock="true">
      <path
         inkscape:connector-curvature="0"
         id="path4255-1-6-5"
         d="M 0,0 5,-5 -12.5,0 5,5 Z"
         style="fill:#d99238;fill-opacity:1;fill-rule:evenodd;stroke:#d99238;stroke-width:1.00000003pt;stroke-opacity:1"
         transform="matrix(-0.4,0,0,-0.4,-4,0)" />
    </marker>
    <marker
       inkscape:stockid="Arrow1Mend"
       orient="auto"
       refY="0"
       refX="0"
       id="Arrow1Mend-5-2-0-9"
       style="overflow:visible"
       inkscape:isstock="true">
      <path
         inkscape:connector-curvature="0"
         id="path4255-6-7-6-2"
         d="M 0,0 5,-5 -12.5,0 5,5 Z"
         style="fill:#d99238;fill-opacity:1;fill-rule:evenodd;stroke:#d99238;stroke-width:1.00000003pt;stroke-opacity:1"
         transform="matrix(-0.4,0,0,-0.4,-4,0)" />
    </marker>
    <marker
       inkscape:stockid="Arrow1Mend"
       orient="auto"
       refY="0"
       refX="0"
       id="marker5248-3"
       style="overflow:visible"
       inkscape:isstock="true">
      <path
         inkscape:connector-curvature="0"
         id="path5250-1"
         d="M 0,0 5,-5 -12.5,0 5,5 Z"
         style="fill:#000000;fill-opacity:1;fill-rule:evenodd;stroke:#000000;stroke-width:1.00000003pt;stroke-opacity:1"
         transform="matrix(-0.4,0,0,-0.4,-4,0)" />
    </marker>
    <marker
       inkscape:stockid="Arrow1Mend"
       orient="auto"
       refY="0"
       refX="0"
       id="marker5248-36"
       style="overflow:visible"
       inkscape:isstock="true">
      <path
         id="path5250-7"
         d="M 0,0 5,-5 -12.5,0 5,5 Z"
         style="fill:#000000;fill-opacity:1;fill-rule:evenodd;stroke:#000000;stroke-width:1.00000003pt;stroke-opacity:1"
         transform="matrix(-0.4,0,0,-0.4,-4,0)"
         inkscape:connector-curvature="0" />
    </marker>
    <marker
       inkscape:stockid="Arrow1Mend"
       orient="auto"
       refY="0"
       refX="0"
       id="marker5248-3-5"
       style="overflow:visible"
       inkscape:isstock="true">
      <path
         inkscape:connector-curvature="0"
         id="path5250-1-3"
         d="M 0,0 5,-5 -12.5,0 5,5 Z"
         style="fill:#000000;fill-opacity:1;fill-rule:evenodd;stroke:#000000;stroke-width:1.00000003pt;stroke-opacity:1"
         transform="matrix(-0.4,0,0,-0.4,-4,0)" />
    </marker>
    <marker
       inkscape:stockid="Arrow1Mend"
       orient="auto"
       refY="0"
       refX="0"
       id="marker5248-36-9"
       style="overflow:visible"
       inkscape:isstock="true">
      <path
         id="path5250-7-3"
         d="M 0,0 5,-5 -12.5,0 5,5 Z"
         style="fill:#000000;fill-opacity:1;fill-rule:evenodd;stroke:#000000;stroke-width:1.00000003pt;stroke-opacity:1"
         transform="matrix(-0.4,0,0,-0.4,-4,0)"
         inkscape:connector-curvature="0" />
    </marker>
    <marker
       inkscape:stockid="Arrow1Mend"
       orient="auto"
       refY="0"
       refX="0"
       id="marker5248-3-5-6"
       style="overflow:visible"
       inkscape:isstock="true">
      <path
         inkscape:connector-curvature="0"
         id="path5250-1-3-0"
         d="M 0,0 5,-5 -12.5,0 5,5 Z"
         style="fill:#000000;fill-opacity:1;fill-rule:evenodd;stroke:#000000;stroke-width:1.00000003pt;stroke-opacity:1"
         transform="matrix(-0.4,0,0,-0.4,-4,0)" />
    </marker>
    <marker
       inkscape:stockid="Arrow1Mend"
       orient="auto"
       refY="0"
       refX="0"
       id="marker5248-1"
       style="overflow:visible"
       inkscape:isstock="true">
      <path
         id="path5250-2"
         d="M 0,0 5,-5 -12.5,0 5,5 Z"
         style="fill:#000000;fill-opacity:1;fill-rule:evenodd;stroke:#000000;stroke-width:1.00000003pt;stroke-opacity:1"
         transform="matrix(-0.4,0,0,-0.4,-4,0)"
         inkscape:connector-curvature="0" />
    </marker>
    <marker
       inkscape:stockid="Arrow1Mend"
       orient="auto"
       refY="0"
       refX="0"
       id="marker5248-3-9"
       style="overflow:visible"
       inkscape:isstock="true">
      <path
         inkscape:connector-curvature="0"
         id="path5250-1-31"
         d="M 0,0 5,-5 -12.5,0 5,5 Z"
         style="fill:#000000;fill-opacity:1;fill-rule:evenodd;stroke:#000000;stroke-width:1.00000003pt;stroke-opacity:1"
         transform="matrix(-0.4,0,0,-0.4,-4,0)" />
    </marker>
    <clipPath
       id="clipPath">
      <rect
         y="322.63251"
         x="61.276173"
         height="289.02988"
         width="477.29706"
         id="rect1407"
         style="opacity:1;fill:#ffffff;fill-opacity:1;stroke:#d40000;stroke-width:1.87499988;stroke-linecap:round;stroke-linejoin:round;stroke-miterlimit:4;stroke-dasharray:none;stroke-dashoffset:0;stroke-opacity:1" />
    </clipPath>
    <clipPath
       id="clipPathD">
      <rect
         style="opacity:1;fill:#ffffff;fill-opacity:1;stroke:#d40000;stroke-width:1.87499988;stroke-linecap:round;stroke-linejoin:round;stroke-miterlimit:4;stroke-dasharray:none;stroke-dashoffset:0;stroke-opacity:1"
         id="rect2466"
         width="457.56409"
         height="285.00021"
         x="73.054169"
         y="325.28415" />
    </clipPath>
    <clipPath
       id="clipPathf">
      <rect
         y="506.92221"
         x="24.15307"
         height="403.05084"
         width="596.62134"
         id="rect2598"
         style="opacity:1;fill:#ffffff;fill-opacity:1;stroke:#d40000;stroke-width:1.87499988;stroke-linecap:round;stroke-linejoin:round;stroke-miterlimit:4;stroke-dasharray:none;stroke-dashoffset:0;stroke-opacity:1" />
    </clipPath>
    <clipPath
       id="clipPathz">
      <rect
         style="opacity:1;fill:#ffffff;fill-opacity:1;stroke:#d40000;stroke-width:1.87499988;stroke-linecap:round;stroke-linejoin:round;stroke-miterlimit:4;stroke-dasharray:none;stroke-dashoffset:0;stroke-opacity:1"
         id="rect2738"
         width="620.48615"
         height="462.71295"
         x="-215.82129"
         y="292.13852" />
    </clipPath>
    <clipPath
       id="clipPathM">
      <rect
         y="406.15945"
         x="-292.71915"
         height="551.54327"
         width="820.68573"
         id="rect2886"
         style="opacity:1;fill:#ffffff;fill-opacity:1;stroke:#d40000;stroke-width:1.87499988;stroke-linecap:round;stroke-linejoin:round;stroke-miterlimit:4;stroke-dasharray:none;stroke-dashoffset:0;stroke-opacity:1" />
    </clipPath>
    <marker
       inkscape:isstock="true"
       style="overflow:visible"
       id="marker2319-7"
       refX="0"
       refY="0"
       orient="auto"
       inkscape:stockid="Arrow1Sstart">
      <path
         inkscape:connector-curvature="0"
         transform="matrix(0.2,0,0,0.2,1.2,0)"
         style="fill:#000000;fill-opacity:1;fill-rule:evenodd;stroke:#000000;stroke-width:1.00000003pt;stroke-opacity:1"
         d="M 0,0 5,-5 -12.5,0 5,5 Z"
         id="path2317-5" />
    </marker>
  </defs>
  <metadata
     id="metadata7">
    <rdf:RDF>
      <cc:Work
         rdf:about="">
        <dc:format>image/svg+xml</dc:format>
        <dc:type
           rdf:resource="http://purl.org/dc/dcmitype/StillImage" />
        <dc:title></dc:title>
      </cc:Work>
    </rdf:RDF>
  </metadata>
  <g
     inkscape:label="Layer 1"
     inkscape:groupmode="layer"
     id="layer1"
     transform="translate(361.19832,-311.05674)">
    <text
       xml:space="preserve"
       style="font-style:italic;font-variant:normal;font-weight:normal;font-stretch:normal;font-size:23.43749809px;line-height:125%;font-family:msbm10;-inkscape-font-specification:'msbm10 Italic';letter-spacing:0px;word-spacing:0px;fill:#000000;fill-opacity:1;stroke:none;stroke-width:0.93749994px;stroke-linecap:butt;stroke-linejoin:miter;stroke-opacity:1"
       x="0.8884899"
       y="345.69266"
       id="text1234"><tspan
         sodipodi:role="line"
         id="tspan1232"
         x="0.8884899"
         y="366.42935"
         style="stroke-width:0.93749994px" /></text>
    <g
       id="g3748">
      <text
         id="text6089-1-8"
         y="351.70938"
         x="49.578201"
         style="font-style:normal;font-variant:normal;font-weight:normal;font-stretch:normal;line-height:0%;font-family:'Nimbus Sans L';-inkscape-font-specification:Sans;letter-spacing:0px;word-spacing:0px;fill:#000000;fill-opacity:1;stroke:none;stroke-width:1px;stroke-linecap:butt;stroke-linejoin:miter;stroke-opacity:1"
         xml:space="preserve"><tspan
           style="font-size:16.25px;line-height:1.25"
           y="351.70938"
           x="49.578201"
           id="tspan6091-2-7"
           sodipodi:role="line">$P$</tspan></text>
      <text
         id="text6089-4-7-9"
         y="628.17639"
         x="542.70319"
         style="font-style:normal;font-variant:normal;font-weight:normal;font-stretch:normal;line-height:0%;font-family:'Nimbus Sans L';-inkscape-font-specification:Sans;letter-spacing:0px;word-spacing:0px;fill:#000000;fill-opacity:1;stroke:none;stroke-width:1px;stroke-linecap:butt;stroke-linejoin:miter;stroke-opacity:1"
         xml:space="preserve"><tspan
           style="font-size:16.25px;line-height:1.25"
           y="628.17639"
           x="542.70319"
           id="tspan6091-7-0-2"
           sodipodi:role="line">$t$</tspan></text>
      <text
         id="text6089-1-8-3"
         y="333.34705"
         x="216.15276"
         style="font-style:normal;font-variant:normal;font-weight:normal;font-stretch:normal;font-size:12px;line-height:0%;font-family:'Nimbus Sans L';-inkscape-font-specification:Sans;letter-spacing:0px;word-spacing:0px;fill:#000000;fill-opacity:1;stroke:none;stroke-width:1px;stroke-linecap:butt;stroke-linejoin:miter;stroke-opacity:1"
         xml:space="preserve"><tspan
           style="font-size:16.25px;line-height:1.25;stroke-width:1px"
           y="333.34705"
           x="216.15276"
           id="tspan6091-2-7-6"
           sodipodi:role="line">$T$</tspan></text>
      <text
         id="text6089-1-8-3-5"
         y="583.42517"
         x="201.14055"
         style="font-style:normal;font-variant:normal;font-weight:normal;font-stretch:normal;font-size:12px;line-height:0%;font-family:'Nimbus Sans L';-inkscape-font-specification:Sans;letter-spacing:0px;word-spacing:0px;fill:#000000;fill-opacity:1;stroke:none;stroke-width:1px;stroke-linecap:butt;stroke-linejoin:miter;stroke-opacity:1"
         xml:space="preserve"><tspan
           style="font-size:16.25px;line-height:1.25;stroke-width:1px"
           y="583.42517"
           x="201.14055"
           id="tspan6091-2-7-6-6"
           sodipodi:role="line">$\tau$</tspan></text>
    </g>
    <g
       id="g167">
      <g
         id="g146">
        <path
           style="fill:none;fill-rule:evenodd;stroke:#000000;stroke-width:2;stroke-linecap:butt;stroke-linejoin:miter;stroke-miterlimit:4;stroke-dasharray:none;stroke-opacity:1;marker-end:url(#marker5248-36-9)"
           d="m 73.05417,610.28435 502.99054,-10e-6"
           id="path5246-6-2"
           inkscape:connector-curvature="0"
           sodipodi:nodetypes="cc" />
        <path
           style="fill:none;fill-rule:evenodd;stroke:#000000;stroke-width:2;stroke-linecap:butt;stroke-linejoin:miter;stroke-miterlimit:4;stroke-dasharray:none;stroke-opacity:1;marker-end:url(#marker5248-3-5-6)"
           d="m 73.05417,610.28435 1e-5,-291.54479"
           id="path5246-9-2-6"
           inkscape:connector-curvature="0"
           sodipodi:nodetypes="cc" />
      </g>
      <g
         id="g123">
        <g
           id="g3766">
          <path
             sodipodi:nodetypes="csssssssccscccscsccsscccccsccscccscccccsccscccccccscccccsccsscsscsscsssssscssssssssscsscccccscssccccccsccsscssccscccccsccssccccccsccsccsccsscsssssssssssssssssscssscscssccsscccsccsscssscsccccccccssccssccccscccsssssssssssssssssssssssssscssssssssccsscccsccscssscccscscccscccccccsscccccsssccscscccsssssssssssssscccscccccscccccsscssccsscscccscccccsscsscccccssccccssccscccsssssssscssssssssccscccscssccscccsccsccsccscccccscccsccsscsccsscccccscsssccssssssssccsssssssscssccsccsccscccsccssccscccccsccsscsscccccccccsccscccscsscssssssssccsssssscsccsscssccccccsccccccccscccccscccscc"
             transform="matrix(0.58577343,0,0,0.49598977,244.52127,135.27372)"
             inkscape:connector-curvature="0"
             style="opacity:1;fill:#ffffff;fill-opacity:1;stroke:#d40000;stroke-width:3.4785645;stroke-linecap:round;stroke-linejoin:round;stroke-miterlimit:4;stroke-dasharray:none;stroke-dashoffset:0;stroke-opacity:1"
             d="m -292.71915,406.15945 c 0.4567,0.007 0.9134,6.9004 1.37009,20.09354 0.4567,13.19314 0.9134,32.69088 1.3701,56.82777 0.45669,24.1369 0.91339,52.90923 1.37009,83.98653 0.4567,31.07729 0.91339,64.4374 1.37009,97.59271 0.4567,33.15531 0.9134,66.07315 1.3701,96.62344 0.45669,30.55028 0.91339,58.69932 1.37009,83.07009 0.4567,24.37077 0.91339,44.937 1.37009,61.26228 0.4567,16.32529 0.9134,28.396 1.37009,36.66642 0.4567,8.27042 0.9134,12.74049 1.3701,14.50253 0.4567,1.76203 0.91339,0.82643 1.37009,-1.44643 0.4567,-2.27286 0.9134,-5.86785 1.37009,-9.53479 0.4567,-3.66695 0.9134,-7.39231 1.3701,-10.32247 0.45669,-2.93016 0.91339,-5.05804 1.37009,-6.05683 0.4567,-0.99878 0.91339,-0.86996 1.37009,0.22535 0.4567,1.09531 0.9134,3.14808 1.3701,5.68034 0.45669,2.53227 0.91339,5.53094 1.37009,8.43375 0.4567,2.90282 0.91339,5.69716 1.37009,7.95049 0.4567,2.25334 0.9134,3.95752 1.37009,4.94154 0.4567,0.98403 0.9134,1.24632 1.3701,0.89739 0.4567,-0.34893 0.91339,-1.30441 1.37009,-2.55616 0.4567,-1.25175 0.9134,-2.79123 1.37009,-4.24978 0.4567,-1.45855 0.9134,-2.82724 1.3701,-3.82286 0.45669,-0.99562 0.91339,-1.61217 1.37009,-1.74707 0.4567,-0.13491 0.9134,0.21296 1.37009,0.94772 0.4567,0.73476 0.9134,1.85264 1.3701,3.11725 0.45669,1.26461 0.91339,2.66905 1.37009,3.94154 0.4567,1.27249 0.91339,2.40582 1.37009,3.20193 0.4567,0.79612 0.9134,1.25024 1.3701,1.31009 0.45669,0.0599 0.91339,-0.27527 1.37009,-0.90138 0.4567,-0.62611 0.91339,-1.53976 1.37009,-2.53159 0.4567,-0.99184 0.9134,-2.0558 1.37009,-2.96624 0.4567,-0.91044 0.9134,-1.66117 1.3701,-2.10119 0.45669,-0.44002 0.91339,-0.56546 1.37009,-0.35745 0.4567,0.20801 0.9134,0.74956 1.37009,1.50837 0.4567,0.75882 0.9134,1.73126 1.3701,2.71686 0.45669,0.98561 0.91339,1.97847 1.37009,2.77735 0.4567,0.79889 0.91339,1.39801 1.37009,1.67765 0.4567,0.27965 0.9134,0.23644 1.3701,-0.11918 0.45669,-0.35561 0.91339,-1.02324 1.37009,-1.86655 0.4567,-0.84331 0.91339,-1.85823 1.37009,-2.83798 0.4567,-0.97974 0.9134,-1.91814 1.37009,-2.62268 0.4567,-0.70454 0.9134,-1.16941 1.3701,-1.29676 0.4567,-0.12735 0.91339,0.0859 1.37009,0.59922 0.4567,0.51335 0.9134,1.32578 1.37009,2.27035 0.4567,0.94457 0.9134,2.01635 1.3701,2.98628 0.45669,0.96992 0.91339,1.83096 1.37009,2.38496 0.4567,0.55399 0.9134,0.79457 1.37009,0.63972 0.4567,-0.15484 0.9134,-0.70816 1.3701,-1.58335 0.45669,-0.87519 0.91339,-2.07048 1.37009,-3.37114 0.4567,-1.30065 0.91339,-2.7004 1.37009,-3.926 0.4567,-1.2256 0.9134,-2.26844 1.37009,-2.90791 0.4567,-0.63947 0.9134,-0.86793 1.3701,-0.61766 0.4567,0.25028 0.91339,0.98268 1.37009,2.06458 0.4567,1.08191 0.9134,2.51049 1.37009,3.98303 0.4567,1.47255 0.9134,2.98028 1.3701,4.15522 0.45669,1.17494 0.91339,2.00505 1.37009,2.20368 0.4567,0.19863 0.9134,-0.2452 1.37009,-1.40164 0.4567,-1.15644 0.9134,-3.03078 1.3701,-5.40886 0.45669,-2.37808 0.91339,-5.25631 1.37009,-8.17355 0.4567,-2.91725 0.91339,-5.86068 1.37009,-8.26884 0.4567,-2.40815 0.9134,-4.26201 1.3701,-5.12006 0.45669,-0.85804 0.91339,-0.70099 1.37009,0.56619 0.4567,1.26718 0.91339,3.65682 1.37009,6.76458 0.4567,3.10775 0.9134,6.93262 1.37009,10.55814 0.4567,3.62552 0.9134,7.03406 1.3701,8.9538 0.4567,1.91974 0.91339,2.31758 1.37009,-0.12887 0.4567,-2.44645 0.9134,-7.77996 1.37009,-16.99184 0.4567,-9.21188 0.9134,-22.34523 1.3701,-39.70525 0.45669,-17.36001 0.91339,-38.97956 1.37009,-64.25605 0.4567,-25.27649 0.9134,-54.22359 1.37009,-85.321 0.4567,-31.0974 0.9134,-64.33472 1.3701,-97.50015 0.45669,-33.16543 0.91339,-66.22523 1.37009,-96.69833 0.4567,-30.47311 0.91339,-58.30868 1.37009,-81.27775 0.4567,-22.96908 0.9134,-41.01408 1.37009,-52.64998 0.4567,-11.6359 0.9134,-16.81016 1.3701,-15.11853 0.4567,1.69163 0.91339,10.28641 1.37009,25.01355 0.4567,14.72714 0.9134,35.60245 1.37009,60.8531 0.4567,25.25065 0.9134,54.8703 1.3701,86.47962 0.45669,31.60932 0.91339,65.18435 1.37009,98.25536 0.4567,33.07101 0.9134,65.60466 1.37009,95.54701 0.4567,29.94234 0.9134,57.2602 1.3701,80.68872 0.45669,23.42852 0.91339,42.94283 1.37009,58.2253 0.4567,15.28247 0.91339,26.32123 1.37009,33.66752 0.4567,7.34628 0.9134,11.00157 1.3701,12.11317 0.45669,1.11161 0.91339,-0.30914 1.37009,-2.89598 0.4567,-2.58683 0.91339,-6.32448 1.37009,-9.99947 0.4567,-3.67499 0.9134,-7.27437 1.37009,-10.0068 0.4567,-2.73244 0.9134,-4.59188 1.3701,-5.31786 0.4567,-0.72599 0.91339,-0.32107 1.37009,1.00263 0.4567,1.32371 0.9134,3.55645 1.37009,6.19662 0.4567,2.64018 0.9134,5.67451 1.3701,8.54644 0.45669,2.87192 0.91339,5.56919 1.37009,7.68693 0.4567,2.11774 0.91339,3.64855 1.37009,4.45788 0.4567,0.80932 0.9134,0.89642 1.3701,0.40298 0.45669,-0.49343 0.91339,-1.56208 1.37009,-2.88003 0.4567,-1.31795 0.91339,-2.87641 1.37009,-4.3101 0.4567,-1.43368 0.9134,-2.73388 1.37009,-3.63618 0.4567,-0.90229 0.9134,-1.40122 1.3701,-1.41975 0.4567,-0.0185 0.91339,0.44384 1.37009,1.26914 0.4567,0.82529 0.9134,2.00924 1.37009,3.30475 0.4567,1.29551 0.9134,2.69549 1.3701,3.9318 0.45669,1.23631 0.91339,2.30191 1.37009,3.01416 0.4567,0.71225 0.9134,1.06681 1.37009,1.03173 0.4567,-0.0351 0.9134,-0.45994 1.3701,-1.15356 0.45669,-0.69363 0.91339,-1.65214 1.37009,-2.65885 0.4567,-1.00671 0.91339,-2.05541 1.37009,-2.92518 0.4567,-0.86977 0.9134,-1.5546 1.3701,-1.91785 0.45669,-0.36325 0.91339,-0.40147 1.37009,-0.11374 0.4567,0.28773 0.91339,0.90101 1.37009,1.70932 0.4567,0.80831 0.9134,1.8076 1.37009,2.79245 0.4567,0.98484 0.9134,1.9492 1.3701,2.69795 0.45669,0.74875 0.91339,1.27628 1.37009,1.47747 0.4567,0.20119 0.9134,0.0731 1.37009,-0.35673 0.4567,-0.42983 0.9134,-1.16047 1.3701,-2.04291 0.45669,-0.88243 0.91339,-1.91219 1.37009,-2.8794 0.4567,-0.9672 0.91339,-1.86558 1.37009,-2.51053 0.4567,-0.64494 0.9134,-1.03088 1.3701,-1.07589 0.45669,-0.045 0.91339,0.25349 1.37009,0.8374 0.4567,0.58391 0.91339,1.45164 1.37009,2.42408 0.4567,0.97245 0.9134,2.04429 1.37009,2.98501 0.4567,0.94072 0.9134,1.74323 1.3701,2.21979 0.4567,0.47656 0.91339,0.62108 1.37009,0.37026 0.4567,-0.25082 0.9134,-0.89949 1.37009,-1.84967 0.4567,-0.95017 0.9134,-2.19945 1.3701,-3.52045 0.45669,-1.321 0.91339,-2.70699 1.37009,-3.88503 0.4567,-1.17803 0.9134,-2.13942 1.37009,-2.6779 0.4567,-0.53849 0.9134,-0.64679 1.3701,-0.28109 0.45669,0.3657 0.91339,1.20808 1.37009,2.36993 0.4567,1.16184 0.91339,2.63951 1.37009,4.11511 0.4567,1.4756 0.9134,2.93975 1.37009,4.02632 0.4567,1.08657 0.9134,1.78336 1.3701,1.8243 0.4567,0.0409 0.91339,-0.58449 1.37009,-1.91271 0.4567,-1.32822 0.9134,-3.36354 1.37009,-5.8565 0.4567,-2.49297 0.9134,-5.4388 1.3701,-8.35378 0.45669,-2.91498 0.91339,-5.78528 1.37009,-8.05151 0.4567,-2.26623 0.9134,-3.90897 1.37009,-4.51835 0.4567,-0.60939 0.9134,-0.16663 1.3701,1.36693 0.45669,1.53356 0.91339,4.16887 1.37009,7.43488 0.4567,3.26601 0.91339,7.15975 1.37009,10.70829 0.4567,3.54854 0.9134,6.73216 1.3701,8.25361 0.45669,1.52145 0.913391,1.34601 1.370088,-1.82871 0.456698,-3.17472 0.913396,-9.3921 1.370093,-19.57534 0.456698,-10.18324 0.913396,-24.37474 1.370093,-42.77455 0.456698,-18.39982 0.913396,-41.03886 1.370094,-67.19549 0.456697,-26.15663 0.913395,-55.84167 1.370093,-87.43134 0.456697,-31.58968 0.913395,-65.07051 1.370093,-98.1708 0.456697,-33.10029 0.913395,-65.7837 1.370093,-95.57149 0.456697,-29.78779 0.913395,-56.62765 1.370093,-78.35877 0.456697,-21.73112 0.913395,-38.29593 1.370093,-48.33041 0.456697,-10.03448 0.913395,-13.48752 1.370093,-10.10211 0.456697,3.38541 0.913395,13.64407 1.370093,29.8652 0.456697,16.22114 0.913395,38.41771 1.370093,64.71582 0.456698,26.29811 0.913395,56.68886 1.370093,88.75232 0.456698,32.06345 0.913395,65.77397 1.370093,98.68776 0.456698,32.91378 0.913395,64.99702 1.370093,94.27781 0.456698,29.28078 0.913395,55.7266 1.370093,78.18726 0.456698,22.46067 0.913395,40.91275 1.370093,55.15616 0.456698,14.24342 0.913395,24.26803 1.370093,30.71764 0.456698,6.4496 0.913395,9.32719 1.370093,9.829 0.456698,0.50182 0.913395,-1.35996 1.370093,-4.21912 0.456698,-2.85915 0.913396,-6.70038 1.370093,-10.35118 0.456698,-3.6508 0.913396,-7.09888 1.370093,-9.6169 0.456698,-2.51803 0.913396,-4.10099 1.370093,-4.55384 0.456698,-0.45284 0.913396,0.22084 1.370093,1.76092 0.456698,1.54008 0.913396,3.9361 1.370093,6.66664 0.456698,2.73053 0.913396,5.78217 1.370093,8.60736 0.456698,2.82519 0.913396,5.41211 1.370093,7.38543 0.456698,1.97332 0.913396,3.32641 1.370093,3.96125 0.456698,0.63484 0.913396,0.5515 1.370093,-0.0786 0.456698,-0.63014 0.913396,-1.80115 1.370094,-3.17383 0.456697,-1.37268 0.913395,-2.93805 1.370093,-4.33645 0.456697,-1.3984 0.913395,-2.62138 1.370093,-3.42472 0.456697,-0.80333 0.913395,-1.18213 1.370093,-1.08498 0.456697,0.0972 0.913395,0.67008 1.370093,1.57983 0.456697,0.90976 0.913395,2.15158 1.370093,3.46942 0.456697,1.31784 0.913395,2.70445 1.370093,3.89708 0.456697,1.19262 0.913395,2.18444 1.370093,2.80924 0.456697,0.6248 0.913395,0.87873 1.370093,0.75019 0.456698,-0.12854 0.913395,-0.63915 1.370093,-1.39469 0.456698,-0.75554 0.913395,-1.75172 1.370093,-2.76603 0.456698,-1.0143 0.913395,-2.0404 1.370093,-2.86353 0.456698,-0.82313 0.913395,-1.4375 1.370093,-1.72166 0.456698,-0.28416 0.913395,-0.2351 1.370093,0.13024 0.456698,0.36534 0.913395,1.04605 1.370093,1.89828 0.456698,0.85222 0.913395,1.87156 1.370093,2.84897 0.456698,0.97741 0.913395,1.90676 1.370093,2.60034 0.456698,0.69357 0.913396,1.14597 1.370093,1.26736 0.456698,0.12138 0.913396,-0.0907 1.370093,-0.59189 0.456698,-0.50115 0.913396,-1.28991 1.370093,-2.20552 0.456698,-0.9156 0.913396,-1.95324 1.370093,-2.90132 0.456698,-0.94807 0.913396,-1.80026 1.370093,-2.38111 0.456698,-0.58085 0.913396,-0.88506 1.370093,-0.84725 0.456698,0.0378 0.913396,0.41974 1.370093,1.07033 0.456698,0.65058 0.913396,1.56772 1.370093,2.56125 0.456698,0.99353 0.913396,2.05776 1.370093,2.96228 0.456698,0.90452 0.913396,1.6422 1.370094,2.03704 0.456697,0.39485 0.913395,0.44111 1.370093,0.0947 0.456697,-0.34638 0.913395,-1.08732 1.370093,-2.10719 0.456697,-1.01987 0.913395,-2.31567 1.370093,-3.64871 0.456697,-1.33304 0.913395,-2.69619 1.370093,-3.81861 0.456697,-1.12241 0.913395,-1.99538 1.370093,-2.42855 0.456697,-0.43317 0.913395,-0.41968 1.370093,0.0598 0.456697,0.47944 0.913395,1.42677 1.370093,2.66082 0.456697,1.23404 0.913395,2.75034 1.370093,4.21766 0.456698,1.46732 0.913395,2.87571 1.370093,3.86325 0.456698,0.98755 0.913395,1.542 1.370093,1.41992 0.456698,-0.12207 0.9133953,-0.93064 1.3700929,-2.42747 0.4566977,-1.49682 0.9133954,-3.68518 1.3700931,-6.28115 0.4566977,-2.59597 0.9133953,-5.59356 1.370093,-8.48903 0.4566977,-2.89547 0.9133954,-5.67403 1.3700931,-7.78196 0.4566976,-2.10793 0.9133953,-3.52553 1.370093,-3.87816 0.4566977,-0.35263 0.9133954,0.37792 1.370093,2.17164 0.4566977,1.79372 0.9133954,4.6601 1.37009308,8.06148 0.45669768,3.40138 0.91339536,7.33277 1.37009304,10.76759 0.45669768,3.43481 0.91339538,6.35126 1.37009308,7.43177 0.4566976,1.08051 0.9133953,0.28883 1.370093,-3.65129 0.4566977,-3.94013 0.9133954,-11.07251 1.370093,-22.24675 0.4566977,-11.17423 0.9133954,-26.43182 1.3700931,-45.86453 0.4566977,-19.4327 0.9133953,-43.0693 1.370093,-70.06942 0.4566977,-27.00011 0.9133954,-57.37165 1.370093,-89.39138 0.4566977,-32.01973 0.9133954,-65.67113 1.3700926,-98.62961 0.456698,-32.95849 0.913396,-65.18526 1.370094,-94.21225 0.456697,-29.02698 0.913395,-54.80059 1.370093,-75.23581 0.456697,-20.43522 0.913395,-35.47464 1.370093,-43.88026 0.456697,-8.40562 0.913395,-10.12787 1.370093,-5.05799 0.456697,5.06987 0.913395,16.96417 1.370093,34.63536 0.456697,17.6712 0.913395,41.12943 1.370093,68.40637 0.456697,27.27694 0.913395,58.36123 1.370093,90.80065 0.456697,32.43941 0.913395,66.20678 1.370093,98.89215 0.456697,32.68537 0.913395,64.25459 1.370093,92.82337 0.456698,28.56878 0.913395,54.10539 1.370093,75.57633 0.456698,21.47094 0.913395,38.85431 1.370093,52.06582 0.456698,13.21151 0.913395,22.24276 1.370093,27.82545 0.456698,5.58268 0.913395,7.72121 1.370093,7.65467 0.456698,-0.0666 0.913395,-2.32525 1.370093,-5.41576 0.456698,-3.0905 0.913395,-6.99755 1.370093,-10.59364 0.456698,-3.59608 0.913395,-6.86963 1.370093,-9.15867 0.456698,-2.28903 0.913395,-3.58962 1.370093,-3.77083 0.456698,-0.18121 0.913395,0.75237 1.370093,2.49569 0.456698,1.74332 0.913396,4.28532 1.370093,7.0885 0.456698,2.80318 0.913396,5.85408 1.370093,8.61733 0.456698,2.76325 0.913396,5.22752 1.370093,7.04869 0.456698,1.82117 0.913396,2.99342 1.370093,3.45506 0.456698,0.46165 0.913396,0.21362 1.370093,-0.54471 0.456698,-0.75834 0.913396,-2.02049 1.370093,-3.43631 0.456698,-1.41582 0.913396,-2.9762 1.370093,-4.32932 0.456698,-1.35312 0.913396,-2.49083 1.370093,-3.19033 0.456698,-0.6995 0.913396,-0.95649 1.370094,-0.74515 0.456697,0.21135 0.913395,0.89022 1.370093,1.87786 0.456697,0.98763 0.913395,2.27883 1.370093,3.61037 0.456697,1.33154 0.913395,2.69607 1.370093,3.83787 0.456697,1.14181 0.913395,2.05431 1.370093,2.58869 0.456697,0.53438 0.913395,0.68728 1.370093,0.46735 0.456697,-0.21993 0.913395,-0.81175 1.370093,-1.62323 0.456697,-0.81149 0.913395,-1.83797 1.370093,-2.85259 0.456697,-1.01462 0.913395,-2.01097 1.370093,-2.78185 0.456698,-0.77088 0.913395,-1.31072 1.370093,-1.51401 0.456698,-0.20329 0.913395,-0.0675 1.370093,0.37282 0.456698,0.4403 0.913395,1.1837 1.370093,2.07398 0.456698,0.89029 0.913395,1.92273 1.370093,2.88608 0.456698,0.96336 0.913395,1.85146 1.370093,2.48519 0.456698,0.63373 0.913395,1.00797 1.370093,1.04874 0.456698,0.0408 0.913395,-0.25398 1.370093,-0.82308 0.456698,-0.5691 0.913395,-1.41068 1.370093,-2.35327 0.456698,-0.9426 0.913395,-1.98109 1.370093,-2.90357 0.456698,-0.92247 0.913396,-1.72259 1.370093,-2.23528 0.456698,-0.51268 0.913396,-0.73291 1.370093,-0.61236 0.456698,0.12055 0.913396,0.58347 1.370093,1.29639 0.456698,0.71292 0.913396,1.67319 1.370093,2.68082 0.456698,1.00762 0.913396,2.05659 1.370093,2.9181 0.456698,0.8615 0.913396,1.52842 1.370093,1.83778 0.456698,0.30937 0.913396,0.25578 1.370093,-0.18508 0.456698,-0.44087 0.913396,-1.27035 1.370093,-2.35411 0.456698,-1.08377 0.913396,-2.41821 1.370094,-3.75483 0.456697,-1.33661 0.913395,-2.6679 1.370093,-3.72694 0.456697,-1.05904 0.913395,-1.83715 1.370093,-2.16134 0.456697,-0.32419 0.913395,-0.18808 1.370093,0.40262 0.456697,0.59069 0.913395,1.63714 1.370093,2.935 0.456697,1.29787 0.913395,2.84191 1.370093,4.28943 0.456697,1.44753 0.913395,2.78809 1.370093,3.66639 0.456697,0.87829 0.913395,1.2821 1.370093,0.99263 0.456697,-0.28948 0.913395,-1.28158 1.370093,-2.94269 0.456698,-1.66111 0.913395,-3.99342 1.370093,-6.67959 0.456698,-2.68617 0.913395,-5.719 1.370093,-8.57743 0.456698,-2.85843 0.913395,-5.52677 1.370093,-7.46067 0.456698,-1.93391 0.913395,-3.11346 1.370093,-3.20274 0.456698,-0.0893 0.913391,0.92921 1.370091,2.97482 0.4567,2.04561 0.9134,5.12628 1.3701,8.63815 0.45669,3.51187 0.91339,7.44788 1.37009,10.73096 0.4567,3.28307 0.91339,5.88939 1.37009,6.48631 0.4567,0.59693 0.9134,-0.85317 1.37009,-5.59426 0.4567,-4.74109 0.9134,-12.81728 1.3701,-24.99921 0.45669,-12.18194 0.91339,-28.51009 1.37009,-48.96508 0.4567,-20.45499 0.9134,-45.06336 1.37009,-72.86673 0.4567,-27.80337 0.9134,-58.80667 1.3701,-91.19171 0.45669,-32.38505 0.91339,-66.13228 1.37009,-98.87154 0.4567,-32.73927 0.91339,-64.4294 1.37009,-92.62142 0.4567,-28.19203 0.9134,-52.83122 1.3701,-71.9158 0.45669,-19.08458 0.91339,-32.55749 1.37009,-39.31122 0.4567,-6.75372 0.91339,-6.74043 1.37009,0 0.4567,6.74043 0.9134,20.23766 1.37009,39.31122 0.4567,19.07356 0.9134,43.73075 1.3701,71.9158 0.4567,28.18505 0.91339,59.88422 1.37009,92.62142 0.4567,32.73719 0.9134,66.48384 1.37009,98.87154 0.4567,32.3877 0.9134,63.38209 1.3701,91.19171 0.45669,27.80963 0.91339,52.40362 1.37009,72.86673 0.4567,20.46311 0.9134,36.77502 1.37009,48.96508 0.4567,12.19005 0.9134,20.25158 1.3701,24.99921 0.45669,4.74764 0.91339,6.18715 1.37009,5.59426 0.4567,-0.59288 0.91339,-3.20461 1.37009,-6.48631 0.4567,-3.2817 0.9134,-7.21831 1.37009,-10.73096 0.4567,-3.51265 0.9134,-6.59056 1.3701,-8.63815 0.4567,-2.04758 0.91339,-3.06198 1.37009,-2.97482 0.4567,0.0872 0.9134,1.27029 1.37009,3.20274 0.4567,1.93245 0.9134,4.60261 1.3701,7.46067 0.45669,2.85806 0.91339,5.89059 1.37009,8.57743 0.4567,2.68684 0.9134,5.01719 1.37009,6.67959 0.4567,1.6624 0.9134,2.65186 1.3701,2.94269 0.45669,0.29083 0.91339,-0.11525 1.37009,-0.99263 0.4567,-0.87739 0.91339,-2.21907 1.37009,-3.66639 0.4567,-1.44731 0.9134,-2.99109 1.3701,-4.28943 0.45669,-1.29833 0.91339,-2.34343 1.37009,-2.935 0.4567,-0.59157 0.91339,-0.72593 1.37009,-0.40262 0.4567,0.32331 0.9134,1.10284 1.37009,2.16134 0.4567,1.0585 0.9134,2.39033 1.3701,3.72694 0.4567,1.33661 0.91339,2.67058 1.37009,3.75483 0.4567,1.08425 0.9134,1.91249 1.37009,2.35411 0.4567,0.44161 0.9134,0.49375 1.3701,0.18508 0.45669,-0.30866 0.91339,-0.97665 1.37009,-1.83778 0.4567,-0.86113 0.91339,-1.91039 1.37009,-2.9181 0.4567,-1.00771 0.9134,-1.96742 1.3701,-2.68082 0.45669,-0.7134 0.91339,-1.17518 1.37009,-1.29639 0.4567,-0.12121 0.91339,0.10024 1.37009,0.61236 0.4567,0.51213 0.9134,1.31304 1.37009,2.23528 0.4567,0.92225 0.9134,1.96078 1.3701,2.90357 0.4567,0.94278 0.91339,1.78364 1.37009,2.35327 0.4567,0.56963 0.9134,0.8632 1.37009,0.82308 0.4567,-0.0401 0.9134,-0.4155 1.3701,-1.04874 0.45669,-0.63324 0.91339,-1.52197 1.37009,-2.48519 0.4567,-0.96321 0.9134,-1.99551 1.37009,-2.88608 0.4567,-0.89056 0.9134,-1.63309 1.3701,-2.07398 0.45669,-0.44089 0.91339,-0.57546 1.37009,-0.37282 0.4567,0.20264 0.91339,0.74357 1.37009,1.51401 0.4567,0.77044 0.9134,1.76726 1.3701,2.78185 0.45669,1.01459 0.91339,2.04068 1.37009,2.85259 0.4567,0.81191 0.91339,1.40258 1.37009,1.62323 0.4567,0.22065 0.9134,0.0663 1.37009,-0.46735 0.4567,-0.53365 0.9134,-1.44731 1.3701,-2.58869 0.4567,-1.14137 0.91339,-2.50626 1.37009,-3.83787 0.4567,-1.33162 0.9134,-2.62214 1.37009,-3.61037 0.4567,-0.98824 0.9134,-1.6656 1.3701,-1.87786 0.45669,-0.21225 0.91339,0.0465 1.37009,0.74515 0.4567,0.69865 0.91339,1.83761 1.37009,3.19033 0.4567,1.35272 0.9134,2.91321 1.3701,4.32932 0.45669,1.41612 0.91339,2.67698 1.37009,3.43631 0.4567,0.75932 0.91339,1.00499 1.37009,0.54471 0.4567,-0.46027 0.9134,-1.63514 1.37009,-3.45506 0.4567,-1.81992 0.9134,-4.28599 1.3701,-7.04869 0.4567,-2.76269 0.91339,-5.81364 1.37009,-8.61733 0.4567,-2.80369 0.9134,-5.34361 1.37009,-7.0885 0.4567,-1.74489 0.9134,-2.67473 1.3701,-2.49569 0.45669,0.17905 0.91339,1.48368 1.37009,3.77083 0.4567,2.28716 0.9134,5.56314 1.37009,9.15867 0.4567,3.59553 0.9134,7.50146 1.3701,10.59364 0.45669,3.09219 0.91339,5.34483 1.37009,5.41576 0.4567,0.0709 0.91339,-2.0788 1.37009,-7.65467 0.4567,-5.57588 0.9134,-14.62215 1.3701,-27.82545 0.45669,-13.20329 0.91339,-30.60288 1.37009,-52.06582 0.4567,-21.46295 0.91339,-47.01344 1.37009,-75.57633 0.4567,-28.56289 0.9134,-60.14011 1.37009,-92.82337 0.4567,-32.68326 0.9134,-66.45005 1.3701,-98.89215 0.45669,-32.44211 0.91339,-63.51616 1.37009,-90.80065 0.4567,-27.28449 0.9134,-50.72376 1.37009,-68.40637 0.4567,-17.68261 0.9134,-29.55206 1.3701,-34.63536 0.45669,-5.08331 0.91339,-3.3345 1.37009,5.05799 0.4567,8.39249 0.91339,23.45563 1.37009,43.88026 0.4567,20.42463 0.9134,46.21521 1.3701,75.23581 0.45669,29.0206 0.91339,61.2552 1.37009,94.21225 0.4567,32.95704 0.91339,66.6067 1.37009,98.62961 0.4567,32.02292 0.9134,62.38468 1.37009,89.39138 0.4567,27.00671 0.9134,50.62849 1.3701,70.06942 0.4567,19.44093 0.91339,34.6823 1.37009,45.86453 0.4567,11.18224 0.9134,18.30035 1.37009,22.24675 0.4567,3.94639 0.9134,4.7281 1.3701,3.65129 0.45669,-1.07681 0.91339,-3.99802 1.37009,-7.43177 0.4567,-3.43376 0.9134,-7.36522 1.37009,-10.76759 0.4567,-3.40237 0.9134,-6.26571 1.3701,-8.06148 0.45669,-1.79577 0.91339,-2.52218 1.37009,-2.17164 0.4567,0.35055 0.91339,1.77156 1.37009,3.87816 0.4567,2.1066 0.9134,4.88672 1.37009,7.78196 0.4567,2.89524 0.9134,5.89229 1.3701,8.48903 0.4567,2.59674 0.91339,4.78299 1.37009,6.28115 0.4567,1.49816 0.9134,2.30407 1.37009,2.42747 0.4567,0.1234 0.9134,-0.43321 1.3701,-1.41992 0.45669,-0.98671 0.91339,-2.39604 1.37009,-3.86325 0.4567,-1.46721 0.9134,-2.98308 1.37009,-4.21766 0.4567,-1.23459 0.9134,-2.18048 1.3701,-2.66082 0.45669,-0.48034 0.91339,-0.49207 1.37009,-0.0598 0.4567,0.43231 0.91339,1.30661 1.37009,2.42855 0.4567,1.12194 0.9134,2.48551 1.3701,3.81861 0.45669,1.33311 0.91339,2.62831 1.37009,3.64871 0.4567,1.02041 0.91339,1.76005 1.37009,2.10719 0.4567,0.34714 0.9134,0.29945 1.37009,-0.0947 0.4567,-0.39417 0.9134,-1.13283 1.3701,-2.03704 0.4567,-0.9042 0.91339,-1.96861 1.37009,-2.96228 0.4567,-0.99367 0.9134,-1.91015 1.37009,-2.56125 0.4567,-0.65111 0.9134,-1.03186 1.3701,-1.07033 0.45669,-0.0385 0.91339,0.26693 1.37009,0.84725 0.4567,0.58032 0.9134,1.43322 1.37009,2.38111 0.4567,0.9479 0.9134,1.98548 1.3701,2.90132 0.45669,0.91585 0.91339,1.70381 1.37009,2.20552 0.4567,0.5017 0.91339,0.71263 1.37009,0.59189 0.4567,-0.12075 0.9134,-0.57425 1.37009,-1.26736 0.4567,-0.69311 0.9134,-1.62302 1.3701,-2.60034 0.4567,-0.97732 0.91339,-1.99642 1.37009,-2.84897 0.4567,-0.85256 0.9134,-1.53233 1.37009,-1.89828 0.4567,-0.36595 0.9134,-0.41376 1.3701,-0.13024 0.45669,0.28352 0.91339,0.89892 1.37009,1.72166 0.4567,0.82274 0.9134,1.8492 1.37009,2.86353 0.4567,1.01434 0.9134,2.01002 1.3701,2.76603 0.45669,0.75602 0.91339,1.26541 1.37009,1.39469 0.4567,0.12928 0.91339,-0.1261 1.37009,-0.75019 0.4567,-0.62409 0.9134,-1.61699 1.3701,-2.80924 0.45669,-1.19225 0.91339,-2.5791 1.37009,-3.89708 0.4567,-1.31798 0.91339,-2.55901 1.37009,-3.46942 0.4567,-0.9104 0.9134,-1.48176 1.37009,-1.57983 0.4567,-0.0981 0.9134,0.28246 1.3701,1.08498 0.4567,0.80252 0.91339,2.02664 1.37009,3.42472 0.4567,1.39808 0.9134,2.96337 1.37009,4.33645 0.4567,1.37307 0.9134,2.54263 1.3701,3.17383 0.45669,0.6312 0.91339,0.71208 1.37009,0.0786 0.4567,-0.63344 0.91339,-1.98912 1.37009,-3.96125 0.4567,-1.97214 0.9134,-4.56068 1.3701,-7.38543 0.45669,-2.82475 0.91339,-5.87618 1.37009,-8.60736 0.4567,-2.73119 0.91339,-5.12488 1.37009,-6.66664 0.4567,-1.54175 0.9134,-2.21158 1.37009,-1.76092 0.4567,0.45067 0.9134,2.03759 1.3701,4.55384 0.4567,2.51625 0.91339,5.96642 1.37009,9.6169 0.4567,3.65048 0.9134,7.49001 1.37009,10.35118 0.4567,2.86117 0.9134,4.71622 1.3701,4.21912 0.45669,-0.4971 0.91339,-3.38645 1.37009,-9.829 0.4567,-6.44256 0.9134,-16.48251 1.37009,-30.71764 0.4567,-14.23512 0.9134,-32.70333 1.3701,-55.15616 0.45669,-22.45282 0.91339,-48.91198 1.37009,-78.18726 0.4567,-29.27529 0.91339,-61.36557 1.37009,-94.27781 0.4567,-32.91224 0.9134,-66.62099 1.3701,-98.68776 0.45669,-32.06677 0.91339,-62.4461 1.37009,-88.75232 0.4567,-26.30621 0.91339,-48.4829 1.37009,-64.71582 0.4567,-16.23291 0.9134,-26.46627 1.37009,-29.8652 0.4567,-3.39893 0.9134,0.0806 1.3701,10.10211 0.45669,10.02156 0.91339,26.60943 1.37009,48.33041 0.4567,21.72098 0.9134,48.57677 1.37009,78.35877 0.4567,29.782 0.9134,62.47203 1.3701,95.57149 0.45669,33.09946 0.91339,66.57743 1.37009,98.1708 0.4567,31.59336 0.91339,61.26781 1.37009,87.43134 0.4567,26.16353 0.9134,48.78737 1.3701,67.19549 0.45669,18.40811 0.91339,32.58345 1.37009,42.77455 0.4567,10.19109 0.91339,16.39464 1.37009,19.57534 0.4567,3.1807 0.9134,3.3468 1.37009,1.82871 0.4567,-1.51809 0.9134,-4.70583 1.3701,-8.25361 0.4567,-3.54778 0.91339,-7.44111 1.37009,-10.70829 0.4567,-3.26719 0.9134,-5.89921 1.37009,-7.43488 0.4567,-1.53567 0.9134,-1.9743 1.3701,-1.36693 0.45669,0.60736 0.91339,2.25332 1.37009,4.51835 0.4567,2.26502 0.9134,5.13662 1.37009,8.05151 0.4567,2.9149 0.9134,5.85994 1.3701,8.35378 0.45669,2.49384 0.91339,4.52692 1.37009,5.8565 0.4567,1.32958 0.91339,1.95236 1.37009,1.91271 0.4567,-0.0397 0.9134,-0.73848 1.3701,-1.8243 0.45669,-1.08582 0.91339,-2.55074 1.37009,-4.02632 0.4567,-1.47558 0.91339,-2.95266 1.37009,-4.11511 0.4567,-1.16246 0.9134,-2.00331 1.37009,-2.36993 0.4567,-0.36662 0.9134,-0.25657 1.3701,0.28109 0.45669,0.53766 0.91339,1.50028 1.37009,2.6779 0.4567,1.17762 0.9134,2.5639 1.37009,3.88503 0.4567,1.32113 0.9134,2.5697 1.3701,3.52045 0.45669,0.95076 0.91339,1.59808 1.37009,1.84967 0.4567,0.25159 0.91339,0.10566 1.37009,-0.37026 0.4567,-0.47592 0.9134,-1.27933 1.3701,-2.21979 0.45669,-0.94046 0.91339,-2.01236 1.37009,-2.98501 0.4567,-0.97264 0.91339,-1.83962 1.37009,-2.42408 0.4567,-0.58446 0.9134,-0.88175 1.37009,-0.8374 0.4567,0.0444 0.9134,0.43145 1.3701,1.07589 0.4567,0.64445 0.91339,1.54346 1.37009,2.51053 0.4567,0.96708 0.9134,1.99668 1.37009,2.8794 0.4567,0.88273 0.9134,1.6125 1.3701,2.04291 0.45669,0.43041 0.91339,0.55729 1.37009,0.35673 0.4567,-0.20056 0.9134,-0.72914 1.37009,-1.47747 0.4567,-0.74832 0.9134,-1.71314 1.3701,-2.69795 0.45669,-0.98481 0.91339,-1.98377 1.37009,-2.79245 0.4567,-0.80868 0.91339,-1.42096 1.37009,-1.70932 0.4567,-0.28836 0.9134,-0.24889 1.37009,0.11374 0.4567,0.36263 0.9134,1.04843 1.3701,1.91785 0.4567,0.86942 0.91339,1.91838 1.37009,2.92518 0.4567,1.0068 0.9134,1.9647 1.37009,2.65885 0.4567,0.69414 0.9134,1.11773 1.3701,1.15356 0.45669,0.0358 0.91339,-0.32017 1.37009,-1.03173 0.4567,-0.71157 0.9134,-1.77817 1.37009,-3.01416 0.4567,-1.23599 0.9134,-2.63608 1.3701,-3.9318 0.45669,-1.29572 0.91339,-2.47876 1.37009,-3.30475 0.4567,-0.826 0.91339,-1.28673 1.37009,-1.26914 0.4567,0.0176 0.9134,0.51823 1.3701,1.41975 0.45669,0.90153 0.91339,2.20274 1.37009,3.63618 0.4567,1.43345 0.91339,2.99167 1.37009,4.3101 0.4567,1.31843 0.9134,2.38547 1.37009,2.88003 0.4567,0.49456 0.9134,0.40494 1.3701,-0.40298 0.4567,-0.80793 0.91339,-2.34126 1.37009,-4.45788 0.4567,-2.11662 0.9134,-4.81532 1.37009,-7.68693 0.4567,-2.87162 0.9134,-5.90547 1.3701,-8.54644 0.45669,-2.64097 0.91339,-4.87113 1.37009,-6.19662 0.4567,-1.32548 0.91339,-1.72643 1.37009,-1.00263 0.4567,0.7238 0.9134,2.58707 1.3701,5.31786 0.45669,2.73078 0.91339,6.33187 1.37009,10.0068 0.4567,3.67492 0.91339,7.4103 1.37009,9.99947 0.4567,2.58918 0.9134,4.00255 1.37009,2.89598 0.4567,-1.10656 0.9134,-4.77418 1.3701,-12.11317 0.4567,-7.339 0.91339,-18.39338 1.37009,-33.66752 0.4567,-15.27414 0.9134,-34.80442 1.37009,-58.2253 0.4567,-23.42087 0.9134,-50.75146 1.3701,-80.68872 0.45669,-29.93726 0.91339,-62.47697 1.37009,-95.54701 0.4567,-33.07004 0.9134,-66.64209 1.37009,-98.25536 0.4567,-31.61326 0.9134,-61.22032 1.3701,-86.47962 0.45669,-25.2593 0.91339,-46.11385 1.37009,-60.8531 0.4567,-14.73925 0.91339,-23.30835 1.37009,-25.01355 0.4567,-1.70521 0.9134,3.49532 1.3701,15.11853 0.45669,11.62321 0.91339,29.69057 1.37009,52.64998 0.4567,22.95941 0.91339,50.80982 1.37009,81.27775 0.4567,30.46792 0.9134,63.53312 1.37009,96.69833 0.4567,33.16521 0.9134,66.39857 1.3701,97.50015 0.45669,31.10159 0.91339,60.03733 1.37009,85.321 0.4567,25.28366 0.9134,46.8877 1.37009,64.25605 0.4567,17.36836 0.9134,30.48569 1.3701,39.70525 0.45669,9.21957 0.91339,14.53971 1.37009,16.99184 0.4567,2.45213 0.91339,2.0456 1.37009,0.12887 0.4567,-1.91672 0.9134,-5.32875 1.3701,-8.9538 0.45669,-3.62504 0.91339,-7.44904 1.37009,-10.55814 0.4567,-3.10911 0.91339,-5.49525 1.37009,-6.76458 0.4567,-1.26933 0.9134,-1.42228 1.37009,-0.56619 0.4567,0.85609 0.9134,2.71298 1.3701,5.12006 0.4567,2.40709 0.91339,5.35154 1.37009,8.26884 0.4567,2.91729 0.9134,5.7945 1.37009,8.17355 0.4567,2.37904 0.9134,4.25104 1.3701,5.40886 0.45669,1.15783 0.91339,1.59903 1.37009,1.40164 0.4567,-0.1974 0.9134,-1.0294 1.37009,-2.20368 0.4567,-1.17428 0.9134,-2.6826 1.3701,-4.15522 0.45669,-1.47261 0.91339,-2.90045 1.37009,-3.98303 0.4567,-1.08257 0.91339,-1.81338 1.37009,-2.06458 0.4567,-0.2512 0.9134,-0.021 1.3701,0.61766 0.45669,0.63868 0.91339,1.68265 1.37009,2.90791 0.4567,1.22525 0.91339,2.62515 1.37009,3.926 0.4567,1.30086 0.9134,2.49533 1.37009,3.37114 0.4567,0.87581 0.9134,1.42774 1.3701,1.58335 0.45669,0.15561 0.91339,-0.0863 1.37009,-0.63972 0.4567,-0.55339 0.9134,-1.41525 1.37009,-2.38496 0.4567,-0.96972 0.9134,-2.04146 1.3701,-2.98628 0.45669,-0.94482 0.91339,-1.75642 1.37009,-2.27035 0.4567,-0.51393 0.91339,-0.72591 1.37009,-0.59922 0.4567,0.1267 0.9134,0.59268 1.3701,1.29676 0.45669,0.70408 0.91339,1.64301 1.37009,2.62268 0.4567,0.97968 0.91339,1.99434 1.37009,2.83798 0.4567,0.84365 0.9134,1.51033 1.37009,1.86655 0.4567,0.35623 0.9134,0.3982 1.3701,0.11918 0.4567,-0.27902 0.91339,-0.87914 1.37009,-1.67765 0.4567,-0.7985 0.9134,-1.79172 1.37009,-2.77735 0.4567,-0.98562 0.9134,-1.95762 1.3701,-2.71686 0.45669,-0.75923 0.91339,-1.29972 1.37009,-1.50837 0.4567,-0.20865 0.9134,-0.082 1.37009,0.35745 0.4567,0.43942 0.9134,1.19105 1.3701,2.10119"
             title="sin(8*x)*sin(8*x)/sin(x)/sin(x)"
             clip-path="url(#clipPathM)"
             id="path2963" />
          <g
             id="g3759">
            <path
               style="fill:none;fill-rule:evenodd;stroke:#000000;stroke-width:1.87499988;stroke-linecap:butt;stroke-linejoin:miter;stroke-miterlimit:4;stroke-dasharray:none;stroke-opacity:1;marker-start:url(#Arrow1Sstart);marker-end:url(#marker1945)"
               d="m 194.62218,337.72392 h 57.09334"
               id="path69"
               inkscape:connector-curvature="0"
               sodipodi:nodetypes="cc" />
            <path
               style="fill:none;fill-rule:evenodd;stroke:#000000;stroke-width:1.87499988;stroke-linecap:butt;stroke-linejoin:miter;stroke-miterlimit:4;stroke-dasharray:none;stroke-opacity:1;marker-start:url(#marker2319)"
               d="m 204.32568,590.34348 h 22.03124"
               id="path2297"
               inkscape:connector-curvature="0" />
            <path
               style="fill:none;fill-rule:evenodd;stroke:#000000;stroke-width:1.87499976;stroke-linecap:butt;stroke-linejoin:miter;stroke-miterlimit:4;stroke-dasharray:none;stroke-opacity:1;marker-start:url(#marker2319-7)"
               d="M 182.02722,590.34348 H 159.99598"
               id="path2297-3"
               inkscape:connector-curvature="0" />
          </g>
        </g>
        <g
           id="g106">
          <path
             sodipodi:nodetypes="cc"
             inkscape:connector-curvature="0"
             id="path457"
             d="M -170.20525,612.82862 V 311.05674"
             style="fill:none;fill-rule:evenodd;stroke:#737373;stroke-width:0.93749982;stroke-linecap:butt;stroke-linejoin:miter;stroke-miterlimit:4;stroke-dasharray:5.62499953, 1.87499985;stroke-dashoffset:0;stroke-opacity:1" />
          <path
             style="opacity:1;fill:none;fill-opacity:1;fill-rule:nonzero;stroke:#aa0000;stroke-width:1.87499988;stroke-linecap:round;stroke-linejoin:round;stroke-miterlimit:4;stroke-dasharray:none;stroke-dashoffset:0;stroke-opacity:1"
             d="m -359.08634,313.91503 c 1.26626,3e-5 2.53252,0.0261 3.79878,0.0781 1.26628,0.0519 2.53252,0.1299 3.79879,0.23304 1.26625,0.10312 2.53253,0.23158 3.79878,0.3842 1.26627,0.15263 2.53253,0.32957 3.7988,0.52923 1.26625,0.19967 2.53252,0.42221 3.79879,0.6657 1.26625,0.2435 2.53251,0.50809 3.79877,0.7915 1.26627,0.28341 2.53254,0.58575 3.79879,0.90452 1.26627,0.31877 2.53254,0.65403 3.7988,1.00303 1.26626,0.34898 2.53253,0.71175 3.79878,1.08535 1.26626,0.37359 2.53252,0.75807 3.79879,1.15025 1.26627,0.39219 2.53252,0.79215 3.79879,1.19663 1.26626,0.40447 2.53253,0.81348 3.79878,1.22374 1.26628,0.41025 2.53252,0.82174 3.79879,1.23118 1.26625,0.40943 2.53253,0.81678 3.79879,1.2188 1.26626,0.40202 2.53252,0.79868 3.79879,1.18681 1.26626,0.38814 2.53252,0.76771 3.79879,1.13571 1.26625,0.36803 2.53251,0.72441 3.79878,1.06638 1.26626,0.34197 2.53253,0.66944 3.79878,0.97985 1.26627,0.31042 2.53253,0.60369 3.7988,0.87757 1.26625,0.27387 2.53253,0.52823 3.79877,0.76116 1.26627,0.23291 2.53254,0.44428 3.7988,0.63251 1.26626,0.18822 2.53252,0.35317 3.79878,0.49367 1.26626,0.1405 2.53253,0.2564 3.79879,0.34691 1.26627,0.0905 2.53252,0.15548 3.79878,0.19456 1.26628,0.0391 2.53253,0.0521 3.7988,0.0391 1.26625,-0.0129 2.53252,-0.0522 3.79877,-0.11702 1.26628,-0.0649 2.53253,-0.15559 3.79881,-0.27127 1.26625,-0.1157 2.53251,-0.2565 3.79878,-0.42114 1.26626,-0.16465 2.53252,-0.35327 3.79878,-0.56423 1.26626,-0.21097 2.53253,-0.44438 3.79879,-0.69824 1.26626,-0.25387 2.53253,-0.52832 3.79879,-0.82102 1.26625,-0.2927 2.53253,-0.60376 3.79878,-0.93058 1.26627,-0.32682 2.53252,-0.66949 3.79879,-1.02518 1.26626,-0.35567 2.53253,-0.72445 3.79878,-1.10326 1.26628,-0.37882 2.53253,-0.76774 3.79879,-1.16361 1.26627,-0.39586 2.53253,-0.79869 3.79879,-1.20524 1.26626,-0.40653 2.53252,-0.81679 3.79879,-1.22746 1.26626,-0.41066 2.53253,-0.82174 3.79879,-1.22993 1.26626,-0.4082 2.53251,-0.81348 3.79879,-1.21263 1.26625,-0.39916 2.53252,-0.79213 3.79877,-1.1758 1.26627,-0.38368 2.53253,-0.75803 3.7988,-1.12006 1.26626,-0.36205 2.53252,-0.71173 3.79878,-1.04631 1.26627,-0.33457 2.53253,-0.65396 3.79879,-0.95568 1.26626,-0.30173 2.53252,-0.5857 3.79878,-0.84973 1.26627,-0.26402 2.53253,-0.508 3.7988,-0.73006 1.26625,-0.22207 2.53252,-0.42212 3.79878,-0.59867 1.26627,-0.17655 2.53252,-0.32946 3.79879,-0.45764 1.26625,-0.1282 2.53252,-0.2315 3.79879,-0.30925 1.26626,-0.0779 2.53252,-0.12981 3.79878,-0.15588 1.26626,-0.0261 2.53253,-0.026 3.79879,0 1.26626,0.026 2.53252,0.0782 3.79878,0.15588 1.26627,0.0777 2.53254,0.18111 3.79879,0.30925 1.26627,0.12813 2.53252,0.28115 3.79879,0.45764 1.26626,0.1765 2.53253,0.37663 3.79878,0.59867 1.26627,0.22203 2.53253,0.46608 3.7988,0.73006 1.26626,0.26399 2.53252,0.54802 3.79878,0.84973 1.26626,0.30168 2.53252,0.62114 3.79879,0.95568 1.26626,0.33456 2.53252,0.68428 3.79878,1.04631 1.26627,0.36202 2.53253,0.7364 3.7988,1.12006 1.26625,0.38365 2.53252,0.77667 3.79877,1.1758 1.26628,0.39914 2.53253,0.80444 3.79879,1.21263 1.26626,0.40818 2.53253,0.81926 3.79879,1.22993 1.26627,0.41067 2.53253,0.82092 3.79879,1.22746 1.26626,0.40655 2.53252,0.80936 3.79879,1.20524 1.26626,0.39588 2.53251,0.78477 3.79879,1.16361 1.26625,0.37883 2.53252,0.74756 3.79878,1.10326 1.26627,0.35572 2.53252,0.69834 3.79879,1.02518 1.26626,0.32685 2.53252,0.63784 3.79879,0.93058 1.266258,0.29274 2.532519,0.5671 3.798782,0.82102 1.266262,0.2539 2.532525,0.48723 3.798787,0.69824 1.266262,0.21099 2.532524,0.39953 3.798787,0.56423 1.266262,0.16469 2.532525,0.30539 3.798787,0.42114 1.266262,0.11569 2.532524,0.20635 3.798787,0.27127 1.266262,0.0649 2.532524,0.10396 3.798787,0.11702 1.266263,0.013 2.532523,-5e-5 3.798787,-0.0391 1.266262,-0.039 2.532525,-0.10408 3.798787,-0.19456 1.266262,-0.0906 2.532524,-0.20646 3.798787,-0.34691 1.266261,-0.14045 2.532525,-0.30551 3.798787,-0.49367 1.266262,-0.18818 2.532525,-0.39963 3.798786,-0.63251 1.266263,-0.23289 2.532526,-0.48733 3.798787,-0.76116 1.266263,-0.27384 2.532526,-0.56719 3.798786,-0.87757 1.266264,-0.31039 2.532525,-0.63791 3.798788,-0.97985 1.266263,-0.34194 2.532525,-0.69837 3.798788,-1.06638 1.266261,-0.36797 2.532524,-0.74759 3.798788,-1.13571 1.266261,-0.38812 2.532524,-0.78481 3.798787,-1.18681 1.266261,-0.40201 2.532523,-0.80937 3.798786,-1.2188 1.266262,-0.40944 2.532526,-0.82092 3.798787,-1.23118 1.266263,-0.41026 2.532525,-0.81926 3.798787,-1.22374 1.266262,-0.40448 2.532525,-0.80444 3.798787,-1.19663 1.266263,-0.3922 2.532524,-0.77664 3.798787,-1.15025 1.266263,-0.37361 2.532525,-0.73636 3.798787,-1.08535 1.266262,-0.34902 2.532525,-0.68423 3.7987871,-1.00303 1.2662624,-0.31878 2.5325247,-0.62108 3.7987871,-0.90452 1.2662623,-0.28346 2.5325246,-0.54795 3.7987871,-0.7915 1.26626214,-0.24353 2.53252462,-0.466 3.7987869,-0.6657 1.2662623,-0.19971 2.5325247,-0.37655 3.7987871,-0.52923 1.2662617,-0.15267 2.5325236,-0.28102 3.7987866,-0.3842 1.2662621,-0.10312 2.5325251,-0.18102 3.7987871,-0.23304 1.266261,-0.052 2.532524,-0.0781 3.798787,-0.0781"
             title="cos(x*2)"
             id="path2175"
             inkscape:connector-curvature="0" />
          <path
             id="path2373"
             title="cos(x*3)"
             d="m -359.08634,361.45434 c 1.26626,-6e-5 2.53252,-0.0589 3.79878,-0.17543 1.26628,-0.11653 2.53252,-0.291 3.79879,-0.51991 1.26625,-0.22891 2.53253,-0.51261 3.79878,-0.84564 1.26627,-0.33302 2.53253,-0.71567 3.7988,-1.14078 1.26625,-0.4251 2.53252,-0.89289 3.79879,-1.3947 1.26625,-0.50181 2.53251,-1.03783 3.79877,-1.59821 1.26627,-0.56038 2.53254,-1.14525 3.79879,-1.74394 1.26627,-0.59871 2.53254,-1.2113 3.7988,-1.82667 1.26626,-0.61538 2.53253,-1.23354 3.79878,-1.84337 1.26626,-0.60981 2.53252,-1.21121 3.79879,-1.79343 1.26627,-0.58222 2.53252,-1.14512 3.79879,-1.67868 1.26626,-0.53357 2.53253,-1.03762 3.79878,-1.50325 1.26628,-0.46565 2.53252,-0.89263 3.79879,-1.27352 1.26625,-0.38087 2.53253,-0.71538 3.79879,-0.99772 1.26626,-0.28235 2.53252,-0.51227 3.79879,-0.68589 1.26626,-0.17362 2.53252,-0.29062 3.79879,-0.34925 1.26625,-0.0586 2.53251,-0.0585 3.79878,0 1.26626,0.0586 2.53253,0.17575 3.79878,0.34925 1.26627,0.17351 2.53253,0.40364 3.7988,0.68589 1.26625,0.28225 2.53253,0.61693 3.79877,0.99772 1.26627,0.3808 2.53254,0.80796 3.7988,1.27352 1.26626,0.46556 2.53252,0.96973 3.79878,1.50325 1.26626,0.5335 2.53253,1.0965 3.79879,1.67868 1.26627,0.58218 2.53252,1.18363 3.79878,1.79343 1.26628,0.6098 2.53253,1.22797 3.7988,1.84337 1.26625,0.61538 2.53252,1.22793 3.79877,1.82667 1.26628,0.59872 2.53253,1.18351 3.79881,1.74394 1.26625,0.56043 2.53251,1.09634 3.79878,1.59821 1.26626,0.50188 2.53252,0.96951 3.79878,1.3947 1.26626,0.42518 2.53253,0.80766 3.79879,1.14078 1.26626,0.33311 2.53253,0.61661 3.79879,0.84564 1.26625,0.22902 2.53253,0.40327 3.79878,0.51991 1.26627,0.11666 2.53252,0.17537 3.79879,0.17543 1.26626,6e-5 2.53253,-0.0589 3.79878,-0.17543 1.26628,-0.11653 2.53253,-0.291 3.79879,-0.51991 1.26627,-0.22891 2.53253,-0.51261 3.79879,-0.84564 1.26626,-0.33302 2.53252,-0.71567 3.79879,-1.14078 1.26626,-0.4251 2.53253,-0.89289 3.79879,-1.3947 1.26626,-0.50181 2.53251,-1.03783 3.79879,-1.59821 1.26625,-0.56038 2.53252,-1.14525 3.79877,-1.74394 1.26627,-0.59871 2.53253,-1.2113 3.7988,-1.82667 1.26626,-0.61538 2.53252,-1.23354 3.79878,-1.84337 1.26627,-0.60981 2.53253,-1.21121 3.79879,-1.79343 1.26626,-0.58222 2.53252,-1.14512 3.79878,-1.67868 1.26627,-0.53357 2.53253,-1.03762 3.7988,-1.50325 1.26625,-0.46565 2.53252,-0.89263 3.79878,-1.27352 1.26627,-0.38087 2.53252,-0.71538 3.79879,-0.99772 1.26625,-0.28235 2.53252,-0.51227 3.79879,-0.68589 1.26626,-0.17362 2.53252,-0.29062 3.79878,-0.34925 1.26626,-0.0586 2.53253,-0.0585 3.79879,0 1.26626,0.0586 2.53252,0.17575 3.79878,0.34925 1.26627,0.17351 2.53254,0.40364 3.79879,0.68589 1.26627,0.28225 2.53252,0.61693 3.79879,0.99772 1.26626,0.3808 2.53253,0.80796 3.79878,1.27352 1.26627,0.46556 2.53253,0.96973 3.7988,1.50325 1.26626,0.5335 2.53252,1.0965 3.79878,1.67868 1.26626,0.58218 2.53252,1.18363 3.79879,1.79343 1.26626,0.6098 2.53252,1.22797 3.79878,1.84337 1.26627,0.61538 2.53253,1.22793 3.7988,1.82667 1.26625,0.59872 2.53252,1.18351 3.79877,1.74394 1.26628,0.56043 2.53253,1.09634 3.79879,1.59821 1.26626,0.50188 2.53253,0.96951 3.79879,1.3947 1.26627,0.42518 2.53253,0.80766 3.79879,1.14078 1.26626,0.33311 2.53252,0.61661 3.79879,0.84564 1.26626,0.22902 2.53251,0.40327 3.79879,0.51991 1.26625,0.11666 2.53252,0.17537 3.79878,0.17543 1.26627,6e-5 2.53252,-0.0589 3.79879,-0.17543 1.26626,-0.11653 2.53252,-0.291 3.79879,-0.51991 1.266258,-0.22891 2.532519,-0.51261 3.798782,-0.84564 1.266262,-0.33302 2.532525,-0.71567 3.798787,-1.14078 1.266262,-0.4251 2.532524,-0.89289 3.798787,-1.3947 1.266262,-0.50181 2.532525,-1.03783 3.798787,-1.59821 1.266262,-0.56038 2.532524,-1.14525 3.798787,-1.74394 1.266262,-0.59871 2.532524,-1.2113 3.798787,-1.82667 1.266263,-0.61538 2.532523,-1.23354 3.798787,-1.84337 1.266262,-0.60981 2.532525,-1.21121 3.798787,-1.79343 1.266262,-0.58222 2.532524,-1.14512 3.798787,-1.67868 1.266261,-0.53357 2.532525,-1.03762 3.798787,-1.50325 1.266262,-0.46565 2.532525,-0.89263 3.798786,-1.27352 1.266263,-0.38087 2.532526,-0.71538 3.798787,-0.99772 1.266263,-0.28235 2.532526,-0.51227 3.798786,-0.68589 1.266264,-0.17362 2.532525,-0.29062 3.798788,-0.34925 1.266263,-0.0586 2.532525,-0.0585 3.798788,0 1.266261,0.0586 2.532524,0.17575 3.798788,0.34925 1.266261,0.17351 2.532524,0.40364 3.798787,0.68589 1.266261,0.28225 2.532523,0.61693 3.798786,0.99772 1.266262,0.3808 2.532526,0.80796 3.798787,1.27352 1.266263,0.46556 2.532525,0.96973 3.798787,1.50325 1.266262,0.5335 2.532525,1.0965 3.798787,1.67868 1.266263,0.58218 2.532524,1.18363 3.798787,1.79343 1.266263,0.6098 2.532525,1.22797 3.798787,1.84337 1.266262,0.61538 2.532525,1.22793 3.7987871,1.82667 1.2662624,0.59872 2.5325247,1.18351 3.7987871,1.74394 1.2662623,0.56043 2.5325246,1.09634 3.7987871,1.59821 1.26626214,0.50188 2.53252462,0.96951 3.7987869,1.3947 1.2662623,0.42518 2.5325247,0.80766 3.7987871,1.14078 1.2662617,0.33311 2.5325236,0.61661 3.7987866,0.84564 1.2662621,0.22902 2.5325251,0.40327 3.7987871,0.51991 1.266261,0.11666 2.532524,0.17537 3.798787,0.17543"
             style="opacity:1;fill:none;fill-opacity:1;fill-rule:nonzero;stroke:#ec0000;stroke-width:1.87499988;stroke-linecap:round;stroke-linejoin:round;stroke-miterlimit:4;stroke-dasharray:none;stroke-dashoffset:0;stroke-opacity:1"
             inkscape:connector-curvature="0" />
          <path
             style="opacity:1;fill:none;fill-opacity:1;fill-rule:nonzero;stroke:#ec3800;stroke-width:1.87499988;stroke-linecap:round;stroke-linejoin:round;stroke-miterlimit:4;stroke-dasharray:none;stroke-dashoffset:0;stroke-opacity:1"
             d="m -359.08634,370.16506 c 1.26626,1.1e-4 2.53252,0.10492 3.79878,0.31114 1.26628,0.20619 2.53252,0.51415 3.79879,0.91343 1.26625,0.39929 2.53253,0.89042 3.79878,1.4572 1.26627,0.56678 2.53253,1.20959 3.7988,1.90755 1.26625,0.69794 2.53252,1.45123 3.79879,2.2356 1.26625,0.78437 2.53251,1.59986 3.79877,2.42038 1.26627,0.82049 2.53254,1.64592 3.79879,2.44997 1.26627,0.80406 2.53254,1.58649 3.7988,2.32252 1.26626,0.73608 2.53253,1.42537 3.79878,2.04623 1.26626,0.62088 2.53252,1.17283 3.79879,1.63873 1.26627,0.46589 2.53252,0.84515 3.79879,1.12618 1.26626,0.28106 2.53253,0.46328 3.79878,0.54147 1.26628,0.0782 2.53252,0.0517 3.79879,-0.078 1.26625,-0.12968 2.53253,-0.36317 3.79879,-0.69241 1.26626,-0.32926 2.53252,-0.75478 3.79879,-1.26247 1.26626,-0.50771 2.53252,-1.09798 3.79879,-1.75159 1.26625,-0.65362 2.53251,-1.37082 3.79878,-2.12845 1.26626,-0.75761 2.53253,-1.55578 3.79878,-2.36885 1.26627,-0.81305 2.53253,-1.641 3.7988,-2.45739 1.26625,-0.81639 2.53253,-1.62105 3.79877,-2.38843 1.26627,-0.76738 2.53254,-1.49716 3.7988,-2.16637 1.26626,-0.66918 2.53252,-1.27732 3.79878,-1.80541 1.26626,-0.52808 2.53253,-0.97558 3.79879,-1.32873 1.26627,-0.35314 2.53252,-0.61133 3.79878,-0.76689 1.26628,-0.15557 2.53253,-0.20787 3.7988,-0.15588 1.26625,0.052 2.53252,0.20891 3.79877,0.46513 1.26628,0.25621 2.53253,0.61229 3.79881,1.05631 1.26625,0.44401 2.53251,0.97644 3.79878,1.57979 1.26626,0.60335 2.53252,1.27796 3.79878,2.00199 1.26626,0.72401 2.53253,1.4976 3.79879,2.29586 1.26626,0.79827 2.53253,1.62123 3.79879,2.44256 1.26625,0.82135 2.53253,1.64094 3.79878,2.4327 1.26627,0.79177 2.53252,1.55544 3.79879,2.26688 1.26626,0.71144 2.53253,1.37024 3.79878,1.95575 1.26628,0.58551 2.53253,1.09721 3.79879,1.51925 1.26627,0.42205 2.53253,0.75386 3.79879,0.98538 1.26626,0.23152 2.53252,0.36215 3.79879,0.38831 1.26626,0.0262 2.53253,-0.0527 3.79879,-0.23362 1.26626,-0.18087 2.53251,-0.46427 3.79879,-0.84058 1.26625,-0.37631 2.53252,-0.84603 3.79877,-1.39366 1.26627,-0.54765 2.53253,-1.17357 3.7988,-1.85741 1.26626,-0.68387 2.53252,-1.42588 3.79878,-2.20211 1.26627,-0.77622 2.53253,-1.58676 3.79879,-2.4056 1.26626,-0.81886 2.53252,-1.64595 3.79878,-2.45493 1.26627,-0.80898 2.53253,-1.59962 3.7988,-2.34688 1.26625,-0.74724 2.53252,-1.45074 3.79878,-2.08837 1.26627,-0.63762 2.53252,-1.2089 3.79879,-1.69602 1.26625,-0.48712 2.53252,-0.88953 3.79879,-1.19492 1.26626,-0.3054 2.53252,-0.51316 3.79878,-0.61725 1.26626,-0.10408 2.53253,-0.10384 3.79879,0 1.26626,0.10384 2.53252,0.31205 3.79878,0.61725 1.26627,0.30519 2.53254,0.70797 3.79879,1.19492 1.26627,0.48697 2.53252,1.05853 3.79879,1.69602 1.26626,0.63749 2.53253,1.34121 3.79878,2.08837 1.26627,0.74718 2.53253,1.53793 3.7988,2.34688 1.26626,0.80894 2.53252,1.63606 3.79878,2.45493 1.26626,0.81885 2.53252,1.62931 3.79879,2.4056 1.26626,0.7763 2.53252,1.51814 3.79878,2.20211 1.26627,0.68396 2.53253,1.30962 3.7988,1.85741 1.26625,0.54779 2.53252,1.01717 3.79877,1.39366 1.26628,0.3765 2.53253,0.65952 3.79879,0.84058 1.26626,0.18108 2.53253,0.25959 3.79879,0.23362 1.26627,-0.026 2.53253,-0.15699 3.79879,-0.38831 1.26626,-0.23133 2.53252,-0.56351 3.79879,-0.98538 1.26626,-0.42186 2.53251,-0.93389 3.79879,-1.51925 1.26625,-0.58537 2.53252,-1.24441 3.79878,-1.95575 1.26627,-0.71133 2.53252,-1.47517 3.79879,-2.26688 1.26626,-0.79172 2.53252,-1.61136 3.79879,-2.4327 1.266258,-0.82133 2.532519,-1.64425 3.798782,-2.44256 1.266262,-0.7983 2.532525,-1.57176 3.798787,-2.29586 1.266262,-0.72412 2.532524,-1.39851 3.798787,-2.00199 1.266262,-0.6035 2.532525,-1.1356 3.798787,-1.57979 1.266262,-0.44419 2.532524,-0.79989 3.798787,-1.05631 1.266262,-0.25641 2.532524,-0.41292 3.798787,-0.46513 1.266263,-0.0522 2.532523,3.6e-4 3.798787,0.15588 1.266262,0.15536 2.532525,0.41393 3.798787,0.76689 1.266262,0.35295 2.532524,0.8008 3.798787,1.32873 1.266261,0.52794 2.532525,1.13635 3.798787,1.80541 1.266262,0.66907 2.532525,1.39906 3.798786,2.16637 1.266263,0.7673 2.532526,1.57206 3.798787,2.38843 1.266263,0.81636 2.532526,1.6443 3.798786,2.45739 1.266264,0.81311 2.532525,1.61116 3.798788,2.36885 1.266263,0.7577 2.532525,1.4747 3.798788,2.12845 1.266261,0.65373 2.532524,1.24373 3.798788,1.75159 1.266261,0.50787 2.532524,0.93302 3.798787,1.26247 1.266261,0.32943 2.532523,0.56253 3.798786,0.69241 1.266262,0.12989 2.532526,0.15597 3.798787,0.078 1.266263,-0.078 2.532525,-0.2606 3.798787,-0.54147 1.266262,-0.28084 2.532525,-0.66046 3.798787,-1.12618 1.266263,-0.46573 2.532524,-1.01799 3.798787,-1.63873 1.266263,-0.62073 2.532525,-1.31025 3.798787,-2.04623 1.266262,-0.73595 2.532525,-1.51851 3.7987871,-2.32252 1.2662624,-0.804 2.5325247,-1.62947 3.7987871,-2.44997 1.2662623,-0.82052 2.5325246,-1.63594 3.7987871,-2.42038 1.26626214,-0.78443 2.53252462,-1.53756 3.7987869,-2.2356 1.2662623,-0.69807 2.5325247,-1.34063 3.7987871,-1.90755 1.2662617,-0.56695 2.5325236,-1.05773 3.7987866,-1.4572 1.2662621,-0.39947 2.5325251,-0.70704 3.7987871,-0.91343 1.266261,-0.20642 2.532524,-0.31103 3.798787,-0.31114"
             title="cos(x*4)"
             id="path2573"
             inkscape:connector-curvature="0" />
          <path
             id="path2775"
             title="cos(x*5)"
             d="m -359.08634,417.70433 c 1.26626,-1.6e-4 2.53252,-0.16442 3.79878,-0.48467 1.26628,-0.32024 2.53252,-0.79694 3.79879,-1.4056 1.26625,-0.60867 2.53253,-1.34987 3.79878,-2.18619 1.26627,-0.83632 2.53253,-1.76802 3.7988,-2.74845 1.26625,-0.98045 2.53252,-2.0096 3.79879,-3.03628 1.26625,-1.02668 2.53251,-2.0505 3.79877,-3.02089 1.26627,-0.97037 2.53254,-1.88666 3.79879,-2.70385 1.26627,-0.81719 2.53254,-1.53442 3.7988,-2.11682 1.26626,-0.58239 2.53253,-1.02894 3.79878,-1.31839 1.26626,-0.28944 2.53252,-0.42073 3.79879,-0.38832 1.26627,0.0325 2.53252,0.2295 3.79879,0.58053 1.26626,0.35104 2.53253,0.8568 3.79878,1.4914 1.26628,0.6346 2.53252,1.39857 3.79879,2.25337 1.26625,0.85478 2.53253,1.80065 3.79879,2.79029 1.26626,0.98962 2.53252,2.02294 3.79879,3.04859 1.26626,1.02564 2.53252,2.04322 3.79879,3.00247 1.26625,0.95923 2.53251,1.85947 3.79878,2.65653 1.26626,0.79704 2.53253,1.49003 3.79878,2.0453 1.26627,0.55527 2.53253,0.97181 3.7988,1.22985 1.26625,0.25803 2.53253,0.35654 3.79877,0.29158 1.26627,-0.065 2.53254,-0.29432 3.7988,-0.67579 1.26626,-0.38148 2.53252,-0.91582 3.79878,-1.57571 1.26626,-0.6599 2.53253,-1.44584 3.79879,-2.31826 1.26627,-0.8724 2.53252,-1.8315 3.79878,-2.8293 1.26628,-0.99782 2.53253,-2.03428 3.7988,-3.05785 1.26625,-1.02359 2.53252,-2.0339 3.79877,-2.98102 1.26628,-0.94715 2.53253,-1.83043 3.79881,-2.60653 1.26625,-0.77612 2.53251,-1.44418 3.79878,-1.97176 1.26626,-0.52758 2.53252,-0.9137 3.79878,-1.14007 1.26626,-0.22637 2.53253,-0.29199 3.79879,-0.19455 1.26626,0.0974 2.53253,0.35886 3.79879,0.77038 1.26625,0.41154 2.53253,0.9739 3.79878,1.65843 1.26627,0.68452 2.53252,1.49167 3.79879,2.38082 1.26626,0.88916 2.53253,1.86049 3.79878,2.8655 1.26628,1.005 2.53253,2.04352 3.79879,3.06402 1.26627,1.02048 2.53253,2.02249 3.79879,2.95657 1.26626,0.93407 2.53252,1.79952 3.79879,2.5539 1.26626,0.75439 2.53253,1.39684 3.79879,1.8962 1.26626,0.49937 2.53251,0.85466 3.79879,1.04914 1.26625,0.19449 2.53252,0.22715 3.79877,0.0974 1.26627,-0.12982 2.53253,-0.42304 3.7988,-0.86421 1.26626,-0.44118 2.53252,-1.031 3.79878,-1.73945 1.26627,-0.70845 2.53253,-1.536 3.79879,-2.44099 1.26626,-0.905 2.53252,-1.88761 3.79878,-2.89879 1.26627,-1.01117 2.53253,-2.05073 3.7988,-3.06711 1.26625,-1.01637 2.53252,-2.00908 3.79878,-2.92915 1.26627,-0.92008 2.53252,-1.76681 3.79879,-2.49871 1.26625,-0.73192 2.53252,-1.34809 3.79879,-1.81874 1.26626,-0.47065 2.53252,-0.79477 3.79878,-0.95716 1.26626,-0.1624 2.53253,-0.16207 3.79879,0 1.26626,0.16208 2.53252,0.48679 3.79878,0.95716 1.26627,0.47036 2.53254,1.08705 3.79879,1.81874 1.26627,0.73169 2.53252,1.57877 3.79879,2.49871 1.26626,0.91993 2.53253,1.91282 3.79878,2.92915 1.26627,1.01633 2.53253,2.05588 3.7988,3.06711 1.26626,1.01122 2.53252,1.99362 3.79878,2.89879 1.26626,0.90515 2.53252,1.7323 3.79879,2.44099 1.26626,0.70868 2.53252,1.29799 3.79878,1.73945 1.26627,0.44147 2.53253,0.73406 3.7988,0.86421 1.26625,0.13016 2.53252,0.0968 3.79877,-0.0974 1.26628,-0.19415 2.53253,-0.55006 3.79879,-1.04914 1.26626,-0.49909 2.53253,-1.14203 3.79879,-1.8962 1.26627,-0.75415 2.53253,-1.61996 3.79879,-2.5539 1.26626,-0.93395 2.53252,-1.93612 3.79879,-2.95657 1.26626,-1.02046 2.53251,-2.05896 3.79879,-3.06402 1.26625,-1.00507 2.53252,-1.97618 3.79878,-2.8655 1.26627,-0.88932 2.53252,-1.69607 3.79879,-2.38082 1.26626,-0.68477 2.53252,-1.24659 3.79879,-1.65843 1.266258,-0.41182 2.532519,-0.67261 3.798782,-0.77038 1.266262,-0.0979 2.532525,-0.0315 3.798787,0.19455 1.266262,0.22606 2.532524,0.61277 3.798787,1.14007 1.266262,0.52731 2.532525,1.19585 3.798787,1.97176 1.266262,0.77589 2.532524,1.65951 3.798787,2.60653 1.266262,0.947 2.532524,1.95745 3.798787,2.98102 1.266263,1.02355 2.532523,2.05995 3.798787,3.05785 1.266262,0.99788 2.532525,1.95672 3.798787,2.8293 1.266262,0.87259 2.532524,1.65812 3.798787,2.31826 1.266261,0.66014 2.532525,1.19394 3.798787,1.57571 1.266262,0.38177 2.532525,0.6105 3.798786,0.67579 1.266263,0.0653 2.532526,-0.0338 3.798787,-0.29158 1.266263,-0.25772 2.532526,-0.67485 3.798786,-1.22985 1.266264,-0.55499 2.532525,-1.24846 3.798788,-2.0453 1.266263,-0.79686 2.532525,-1.69741 3.798788,-2.65653 1.266261,-0.95913 2.532524,-1.97685 3.798788,-3.00247 1.266261,-1.02564 2.532524,-2.05888 3.798787,-3.04859 1.266261,-0.98972 2.532523,-1.93533 3.798786,-2.79029 1.266262,-0.85498 2.532526,-1.61851 3.798787,-2.25337 1.266263,-0.63484 2.532525,-1.14006 3.798787,-1.4914 1.266262,-0.35134 2.532525,-0.54779 3.798787,-0.58053 1.266263,-0.0327 2.532524,0.0992 3.798787,0.38832 1.266263,0.28914 2.532525,0.73627 3.798787,1.31839 1.266262,0.58213 2.532525,1.29983 3.7987871,2.11682 1.2662624,0.817 2.5325247,1.73357 3.7987871,2.70385 1.2662623,0.97028 2.5325246,1.99422 3.7987871,3.02089 1.26626214,1.02668 2.53252462,2.05574 3.7987869,3.03628 1.2662623,0.98054 2.5325247,1.91194 3.7987871,2.74845 1.2662617,0.8365 2.5325236,1.57725 3.7987866,2.18619 1.2662621,0.60891 2.5325251,1.08505 3.7987871,1.4056 1.266261,0.32056 2.532524,0.48451 3.798787,0.48467"
             style="opacity:1;fill:none;fill-opacity:1;fill-rule:nonzero;stroke:#ec5900;stroke-width:1.87499988;stroke-linecap:round;stroke-linejoin:round;stroke-miterlimit:4;stroke-dasharray:none;stroke-dashoffset:0;stroke-opacity:1"
             inkscape:connector-curvature="0" />
          <path
             style="opacity:1;fill:none;fill-opacity:1;fill-rule:nonzero;stroke:#ec7a00;stroke-width:1.87499988;stroke-linecap:round;stroke-linejoin:round;stroke-miterlimit:4;stroke-dasharray:none;stroke-dashoffset:0;stroke-opacity:1"
             d="m -359.08634,426.41534 c 1.26626,2.4e-4 2.53252,0.23762 3.79878,0.69534 1.26628,0.45774 2.53252,1.1363 3.79879,1.98643 1.26625,0.85011 2.53253,1.87218 3.79878,2.9929 1.26627,1.12072 2.53253,2.33986 3.7988,3.57063 1.26625,1.23075 2.53252,2.47231 3.79879,3.63678 1.26625,1.16447 2.53251,2.25059 3.79877,3.18194 1.26627,0.93136 2.53254,1.70641 3.79879,2.27124 1.26627,0.56481 2.53254,0.91778 3.7988,1.03514 1.26626,0.11738 2.53253,-0.002 3.79878,-0.34925 1.26626,-0.34691 2.53252,-0.92213 3.79879,-1.68362 1.26627,-0.76149 2.53252,-1.7098 3.79879,-2.77677 1.26626,-1.06696 2.53253,-2.25252 3.79878,-3.47211 1.26628,-1.21958 2.53252,-2.47253 3.79879,-3.67002 1.26625,-1.19749 2.53253,-2.33833 3.79879,-3.34217 1.26626,-1.00381 2.53252,-1.86913 3.79879,-2.53548 1.26626,-0.66636 2.53252,-1.13214 3.79879,-1.36556 1.26625,-0.23341 2.53251,-0.23295 3.79878,0 1.26626,0.23297 2.53253,0.69961 3.79878,1.36556 1.26627,0.66596 2.53253,1.53193 3.7988,2.53548 1.26625,1.00356 2.53253,2.1448 3.79877,3.34217 1.26627,1.19737 2.53254,2.45037 3.7988,3.67002 1.26626,1.21965 2.53252,2.40492 3.79878,3.47211 1.26626,1.0672 2.53253,2.01491 3.79879,2.77677 1.26627,0.76186 2.53252,1.33624 3.79878,1.68362 1.26628,0.34736 2.53253,0.46612 3.7988,0.34925 1.26625,-0.11689 2.53252,-0.47075 3.79877,-1.03514 1.26628,-0.56441 2.53253,-1.34018 3.79881,-2.27124 1.26625,-0.93104 2.53251,-2.01762 3.79878,-3.18194 1.26626,-1.16431 2.53252,-2.40601 3.79878,-3.63678 1.26626,-1.23078 2.53253,-2.44972 3.79879,-3.57063 1.26626,-1.12091 2.53253,-2.14244 3.79879,-2.9929 1.26625,-0.85046 2.53253,-1.52827 3.79878,-1.98643 1.26627,-0.45816 2.53252,-0.6951 3.79879,-0.69534 1.26626,-2.2e-4 2.53253,0.23762 3.79878,0.69534 1.26628,0.45774 2.53253,1.1363 3.79879,1.98643 1.26627,0.85011 2.53253,1.87218 3.79879,2.9929 1.26626,1.12072 2.53252,2.33986 3.79879,3.57063 1.26626,1.23075 2.53253,2.47231 3.79879,3.63678 1.26626,1.16447 2.53251,2.25059 3.79879,3.18194 1.26625,0.93136 2.53252,1.70641 3.79877,2.27124 1.26627,0.56481 2.53253,0.91778 3.7988,1.03514 1.26626,0.11738 2.53252,-0.002 3.79878,-0.34925 1.26627,-0.34691 2.53253,-0.92213 3.79879,-1.68362 1.26626,-0.76149 2.53252,-1.7098 3.79878,-2.77677 1.26627,-1.06696 2.53253,-2.25252 3.7988,-3.47211 1.26625,-1.21958 2.53252,-2.47253 3.79878,-3.67002 1.26627,-1.19749 2.53252,-2.33833 3.79879,-3.34217 1.26625,-1.00381 2.53252,-1.86913 3.79879,-2.53548 1.26626,-0.66636 2.53252,-1.13214 3.79878,-1.36556 1.26626,-0.23341 2.53253,-0.23295 3.79879,0 1.26626,0.23297 2.53252,0.69961 3.79878,1.36556 1.26627,0.66596 2.53254,1.53193 3.79879,2.53548 1.26627,1.00356 2.53252,2.1448 3.79879,3.34217 1.26626,1.19737 2.53253,2.45037 3.79878,3.67002 1.26627,1.21965 2.53253,2.40492 3.7988,3.47211 1.26626,1.0672 2.53252,2.01491 3.79878,2.77677 1.26626,0.76186 2.53252,1.33624 3.79879,1.68362 1.26626,0.34736 2.53252,0.46612 3.79878,0.34925 1.26627,-0.11689 2.53253,-0.47075 3.7988,-1.03514 1.26625,-0.56441 2.53252,-1.34018 3.79877,-2.27124 1.26628,-0.93104 2.53253,-2.01762 3.79879,-3.18194 1.26626,-1.16431 2.53253,-2.40601 3.79879,-3.63678 1.26627,-1.23078 2.53253,-2.44972 3.79879,-3.57063 1.26626,-1.12091 2.53252,-2.14244 3.79879,-2.9929 1.26626,-0.85046 2.53251,-1.52827 3.79879,-1.98643 1.26625,-0.45816 2.53252,-0.6951 3.79878,-0.69534 1.26627,-2.2e-4 2.53252,0.23762 3.79879,0.69534 1.26626,0.45774 2.53252,1.1363 3.79879,1.98643 1.266258,0.85011 2.532519,1.87218 3.798782,2.9929 1.266262,1.12072 2.532525,2.33986 3.798787,3.57063 1.266262,1.23075 2.532524,2.47231 3.798787,3.63678 1.266262,1.16447 2.532525,2.25059 3.798787,3.18194 1.266262,0.93136 2.532524,1.70641 3.798787,2.27124 1.266262,0.56481 2.532524,0.91778 3.798787,1.03514 1.266263,0.11738 2.532523,-0.002 3.798787,-0.34925 1.266262,-0.34691 2.532525,-0.92213 3.798787,-1.68362 1.266262,-0.76149 2.532524,-1.7098 3.798787,-2.77677 1.266261,-1.06696 2.532525,-2.25252 3.798787,-3.47211 1.266262,-1.21958 2.532525,-2.47253 3.798786,-3.67002 1.266263,-1.19749 2.532526,-2.33833 3.798787,-3.34217 1.266263,-1.00381 2.532526,-1.86913 3.798786,-2.53548 1.266264,-0.66636 2.532525,-1.13214 3.798788,-1.36556 1.266263,-0.23341 2.532525,-0.23295 3.798788,0 1.266261,0.23297 2.532524,0.69961 3.798788,1.36556 1.266261,0.66596 2.532524,1.53193 3.798787,2.53548 1.266261,1.00356 2.532523,2.1448 3.798786,3.34217 1.266262,1.19737 2.532526,2.45037 3.798787,3.67002 1.266263,1.21965 2.532525,2.40492 3.798787,3.47211 1.266262,1.0672 2.532525,2.01491 3.798787,2.77677 1.266263,0.76186 2.532524,1.33624 3.798787,1.68362 1.266263,0.34736 2.532525,0.46612 3.798787,0.34925 1.266262,-0.11689 2.532525,-0.47075 3.7987871,-1.03514 1.2662624,-0.56441 2.5325247,-1.34018 3.7987871,-2.27124 1.2662623,-0.93104 2.5325246,-2.01762 3.7987871,-3.18194 1.26626214,-1.16431 2.53252462,-2.40601 3.7987869,-3.63678 1.2662623,-1.23078 2.5325247,-2.44972 3.7987871,-3.57063 1.2662617,-1.12091 2.5325236,-2.14244 3.7987866,-2.9929 1.2662621,-0.85046 2.5325251,-1.52827 3.7987871,-1.98643 1.266261,-0.45816 2.532524,-0.6951 3.798787,-0.69534"
             title="cos(x*6)"
             id="path2979"
             inkscape:connector-curvature="0" />
          <path
             id="path3975"
             title="(cos(x*6)+cos(5*x)+cos(4*x)+cos(3*x)+cos(2*x)+cos(7*x))**2"
             d="m -358.55771,612.4252 c 1.26784,0 2.53567,0.003 3.8035,-0.01 1.26785,-0.013 2.53568,-0.0445 3.80351,-0.13131 1.26783,-0.0867 2.53568,-0.23176 3.8035,-0.44559 1.26784,-0.21385 2.53568,-0.49733 3.80351,-0.80805 1.26783,-0.31073 2.53568,-0.64616 3.80351,-0.92758 1.26783,-0.2814 2.53567,-0.50458 3.80351,-0.60623 1.26782,-0.10166 2.53567,-0.079 3.8035,0.0678 1.26783,0.14688 2.53566,0.41715 3.80351,0.7422 1.26783,0.32504 2.53566,0.70101 3.8035,1.03511 1.26784,0.33409 2.53566,0.62239 3.80351,0.80997 1.26783,0.18759 2.53566,0.27345 3.8035,0.27354 1.26784,8e-5 2.53567,-0.083 3.80351,-0.18323 1.26784,-0.10019 2.53567,-0.21349 3.8035,-0.28034 1.26784,-0.0668 2.53568,-0.0852 3.8035,-0.0488 1.26785,0.0364 2.53568,0.12599 3.80352,0.22282 1.26783,0.0968 2.53567,0.19704 3.8035,0.24919 1.26784,0.0521 2.53567,0.0535 3.80351,-10e-4 1.26783,-0.055 2.53567,-0.16534 3.8035,-0.28137 1.26784,-0.11602 2.53567,-0.23344 3.80351,-0.29247 1.26783,-0.059 2.53567,-0.0557 3.8035,0.0158 1.26784,0.0715 2.53567,0.21101 3.80351,0.34439 1.26783,0.13337 2.53568,0.25544 3.8035,0.25556 1.26784,1.3e-4 2.53568,-0.12851 3.80351,-0.44453 1.26783,-0.31602 2.53567,-0.8226 3.8035,-1.45987 1.26784,-0.63726 2.53567,-1.40168 3.80352,-2.12956 1.26782,-0.7279 2.53566,-1.41084 3.8035,-1.87851 1.26783,-0.46767 2.53567,-0.71258 3.80351,-0.67217 1.26783,0.0404 2.53566,0.3671 3.80351,0.8893 1.26783,0.52222 2.53566,1.23359 3.80349,1.95313 1.26785,0.71953 2.53567,1.43863 3.80351,2.01392 1.26784,0.57529 2.53567,1.00323 3.8035,1.26994 1.26785,0.2667 2.53568,0.37732 3.80351,0.42273 1.26784,0.0454 2.53568,0.0356 3.8035,0.0356 1.26785,0 2.53568,0.0153 3.80351,-0.0444 1.26783,-0.0597 2.53568,-0.20126 3.80351,-0.66879 1.26783,-0.46753 2.53567,-1.2795 3.80351,-2.65654 1.26782,-1.37706 2.53567,-3.33795 3.8035,-5.82553 1.26783,-2.48758 2.53567,-5.50539 3.80351,-8.58356 1.26783,-3.07817 2.53567,-6.19641 3.8035,-8.61819 1.26784,-2.42178 2.53566,-4.10957 3.80351,-4.47758 1.26783,-0.368 2.53566,0.61772 3.8035,2.92033 1.26784,2.30262 2.53568,5.92863 3.80351,10.00772 1.26784,4.0791 2.53567,8.57896 3.80351,12.06033 1.26783,3.48135 2.53567,5.88385 3.8035,5.8862 1.26784,0.002 2.53567,-2.45415 3.80351,-7.79677 1.26783,-5.34263 2.53567,-13.59545 3.8035,-23.87151 1.26784,-10.27607 2.53567,-22.54785 3.80351,-34.84427 1.26783,-12.29643 2.53567,-24.54867 3.8035,-34.53066 1.26785,-9.98199 2.53567,-17.61676 3.80351,-21.45386 1.26783,-3.83711 2.53567,-3.82971 3.8035,0 1.26784,3.8297 2.53567,11.47636 3.80351,21.45386 1.26783,9.9775 2.53568,22.23429 3.8035,34.53066 1.26784,12.29637 2.53568,24.56437 3.80351,34.84427 1.26783,10.2799 2.53568,18.5233 3.8035,23.87151 1.26784,5.3482 2.53567,7.79442 3.80352,7.79677 1.26782,0.002 2.53566,-2.40692 3.8035,-5.8862 1.26783,-3.47929 2.53567,-7.98045 3.80351,-12.06033 1.26783,-4.07988 2.53566,-7.70259 3.80351,-10.00772 1.26783,-2.30511 2.53566,-3.28576 3.8035,-2.92033 1.26784,0.36544 2.53566,2.0572 3.8035,4.47758 1.26784,2.42037 2.53567,5.53996 3.8035,8.61819 1.26785,3.07822 2.53568,6.095 3.80351,8.58356 1.26784,2.48857 2.53568,4.44737 3.8035,5.82553 1.26785,1.37815 2.53568,2.18834 3.80351,2.65654 1.26784,0.46819 2.53568,0.60891 3.80351,0.66879 1.26783,0.0598 2.53567,0.0444 3.80351,0.0444 1.26782,0 2.53567,0.01 3.8035,-0.0356 1.26783,-0.0453 2.53567,-0.15634 3.80351,-0.42273 1.26783,-0.26641 2.535665,-0.69492 3.803501,-1.26994 1.267835,-0.57502 2.53567,-1.29437 3.803505,-2.01392 1.267836,-0.71956 2.535671,-1.43054 3.803506,-1.95313 1.267835,-0.52257 2.535671,-0.84835 3.803506,-0.8893 1.267835,-0.041 2.53567,0.20492 3.803506,0.67217 1.267835,0.46724 2.53567,1.1507 3.803505,1.87851 1.267835,0.7278 2.535671,1.49206 3.803506,2.12956 1.267835,0.6375 2.535671,1.14349 3.803506,1.45987 1.267835,0.31638 2.53567,0.44441 3.803505,0.44453 1.267835,1.3e-4 2.535671,-0.12222 3.803506,-0.25556 1.267835,-0.13336 2.535671,-0.27277 3.803506,-0.34439 1.267835,-0.0716 2.53567,-0.0747 3.803505,-0.0158 1.267835,0.0589 2.535671,0.17645 3.803506,0.29247 1.267836,0.11603 2.535671,0.22625 3.803506,0.28137 1.267835,0.0551 2.53567,0.0536 3.803505,10e-4 1.267836,-0.052 2.535671,-0.15235 3.803507,-0.24919 1.267835,-0.0968 2.53567,-0.18631 3.803505,-0.22282 1.267835,-0.0365 2.53567,-0.018 3.803505,0.0488 1.267836,0.0668 2.535672,0.18012 3.803507,0.28034 1.267835,0.10023 2.53567,0.18314 3.803505,0.18323 1.267835,8e-5 2.53567,-0.0861 3.803505,-0.27354 1.267836,-0.18739 2.535672,-0.47596 3.803507,-0.80997 1.267835,-0.33402 2.53567,-0.70997 3.803505,-1.03511 1.267835,-0.32515 2.5356709,-0.59508 3.8035059,-0.7422 1.2678352,-0.1471 2.5356704,-0.16928 3.8035056,-0.0678 1.2678352,0.10141 2.5356706,0.32494 3.8035058,0.60623 1.26783527,0.28132 2.5356705,0.61681 3.8035057,0.92758 1.2678355,0.31076 2.5356706,0.59407 3.8035058,0.80805 1.2678351,0.21396 2.5356702,0.35875 3.8035052,0.44559 1.267835,0.0868 2.535671,0.11832 3.803507,0.13131 1.267835,0.0129 2.53567,0.01 3.803505,0.01"
             style="opacity:1;fill:none;fill-opacity:1;fill-rule:nonzero;stroke:#d40000;stroke-width:2.75994778;stroke-linecap:round;stroke-linejoin:round;stroke-miterlimit:4;stroke-dasharray:none;stroke-dashoffset:0;stroke-opacity:1"
             inkscape:connector-curvature="0" />
          <path
             inkscape:connector-curvature="0"
             style="opacity:1;fill:none;fill-opacity:1;fill-rule:nonzero;stroke:#ec9b00;stroke-width:1.87499988;stroke-linecap:round;stroke-linejoin:round;stroke-miterlimit:4;stroke-dasharray:none;stroke-dashoffset:0;stroke-opacity:1"
             d="m -359.08633,473.75035 c 1.26961,-3.4e-4 2.53922,-0.34173 3.80883,-0.99155 1.26961,-0.64982 2.53922,-1.60832 3.80883,-2.78213 1.26961,-1.17381 2.53921,-2.56266 3.80882,-4.03257 1.26961,-1.46992 2.53922,-3.01947 3.80883,-4.5001 1.26961,-1.48064 2.53922,-2.89006 3.80883,-4.09396 1.26961,-1.2039 2.53922,-2.19955 3.80883,-2.89297 1.26961,-0.69343 2.53922,-1.08201 3.80883,-1.13034 1.26961,-0.0483 2.53921,0.24561 3.80882,0.85176 1.26961,0.60615 2.53922,1.52553 3.80883,2.66848 1.26961,1.14295 2.53922,2.50928 3.80883,3.96713 1.26961,1.45785 2.53922,3.00587 3.80883,4.49558 1.26961,1.48971 2.53922,2.91886 3.80883,4.15121 1.26961,1.23235 2.53921,2.26518 3.80882,3.00091 1.26961,0.73573 2.53922,1.17171 3.80883,1.26798 1.26961,0.0963 2.53922,-0.14923 3.80883,-0.71111 1.26961,-0.56188 2.53922,-1.44121 3.80883,-2.55215 1.26961,-1.11094 2.53922,-2.45338 3.80883,-3.89769 1.2696,-1.44432 2.53921,-2.98924 3.80882,-4.48652 1.26961,-1.49728 2.53922,-2.94473 3.80883,-4.20429 1.26961,-1.25956 2.53922,-2.32853 3.80883,-3.10582 1.26961,-0.77729 2.53922,-1.26024 3.80883,-1.40436 1.26961,-0.14412 2.53922,0.0527 3.80883,0.56975 1.2696,0.51704 2.53921,1.35544 3.80882,2.43325 1.26961,1.07781 2.53922,2.395 3.80883,3.82433 1.26961,1.42933 2.53922,2.96959 3.80883,4.47294 1.26961,1.50335 2.53922,2.96764 3.80883,4.25314 1.26961,1.2855 2.53922,2.38953 3.80883,3.2076 1.2696,0.81807 2.53921,1.3475 3.80882,1.53932 1.26961,0.19182 2.53922,0.0439 3.80883,-0.42782 1.26961,-0.47167 2.53922,-1.2683 3.80883,-2.31189 1.26961,-1.04359 2.53922,-2.33422 3.80883,-3.74712 1.26961,-1.4129 2.53922,-2.94696 3.80883,-4.45486 1.2696,-1.5079 2.53921,-2.98755 3.80882,-4.2977 1.26961,-1.31015 2.53922,-2.44813 3.80883,-3.30616 1.26961,-0.85803 2.53922,-1.4334 3.80883,-1.67273 1.26961,-0.23933 2.53922,-0.14038 3.80883,0.28545 1.26961,0.42584 2.53922,1.17989 3.80883,2.18822 1.2696,1.00832 2.53921,2.27108 3.80882,3.66613 1.26961,1.39506 2.53922,2.92136 3.80883,4.4323 1.26961,1.51093 2.53922,3.00446 3.80883,4.33793 1.26961,1.33348 2.53922,2.50426 3.80883,3.40138 1.26961,0.89713 2.53922,1.51786 3.80883,1.80446 1.2696,0.2866 2.53921,0.23677 3.80882,-0.1428 1.26961,-0.37957 2.53922,-1.09028 3.80883,-2.06232 1.26961,-0.97205 2.53922,-2.20567 3.80883,-3.58147 1.26961,-1.37579 2.53922,-2.89282 3.80883,-4.40526 1.26961,-1.51245 2.53922,-3.01835 3.80883,-4.37381 1.2696,-1.35545 2.53921,-2.55786 3.80882,-3.49318 1.26961,-0.93531 2.53922,-1.60078 3.80883,-1.93436 1.26961,-0.33358 2.53922,-0.33292 3.80883,0 1.26961,0.33292 2.53922,0.99958 3.80883,1.93436 1.26961,0.93479 2.53922,2.13802 3.80882,3.49318 1.26961,1.35516 2.53922,2.86137 3.80883,4.37381 1.26961,1.51243 2.53922,3.02919 3.80883,4.40526 1.26961,1.37608 2.53922,2.60891 3.80883,3.58147 1.26961,0.97256 2.53922,1.6821 3.80883,2.06232 1.26961,0.38022 2.53922,0.42874 3.80882,0.1428 1.26961,-0.28594 2.53922,-0.90788 3.80883,-1.80446 1.26961,-0.89658 2.53922,-2.06822 3.80883,-3.40138 1.26961,-1.33315 2.53922,-2.82703 3.80883,-4.33793 1.26961,-1.51091 2.53922,-3.03698 3.80883,-4.4323 1.26961,-1.39531 2.53922,-2.65731 3.80882,-3.66613 1.26961,-1.00883 2.53922,-1.76174 3.80883,-2.18822 1.26961,-0.42648 2.53922,-0.52411 3.80883,-0.28545 1.26961,0.23867 2.53922,0.81526 3.80883,1.67273 1.26961,0.85748 2.53922,1.99635 3.80883,3.30616 1.26961,1.30981 2.53922,2.78985 3.80882,4.2977 1.26961,1.50785 2.53922,3.04172 3.80883,4.45486 1.269612,1.41314 2.539221,2.70304 3.808831,3.74712 1.269609,1.04408 2.539218,1.83958 3.808828,2.31189 1.269609,0.47232 2.539218,0.61897 3.808828,0.42782 1.269609,-0.19115 2.539218,-0.72181 3.808828,-1.53932 1.269609,-0.81751 2.539218,-1.92246 3.808828,-3.2076 1.269609,-1.28515 2.539218,-2.74986 3.808828,-4.25314 1.269609,-1.50327 2.539218,-3.04339 3.808827,-4.47294 1.26961,-1.42955 2.539219,-2.74605 3.808828,-3.82433 1.26961,-1.07828 2.539219,-1.91558 3.808828,-2.43325 1.26961,-0.51766 2.539219,-0.7132 3.808828,-0.56975 1.26961,0.14345 2.539219,0.62764 3.808828,1.40436 1.26961,0.77672 2.539219,1.84663 3.808828,3.10582 1.26961,1.25919 2.539219,2.7071 3.808828,4.20429 1.26961,1.49719 2.539219,3.042 3.808828,4.48652 1.26961,1.44451 2.539219,2.7863 3.808828,3.89769 1.26961,1.1114 2.539219,1.98965 3.808828,2.55215 1.26961,0.5625 2.539219,0.80671 3.808828,0.71111 1.26961,-0.0956 2.539219,-0.53284 3.808828,-1.26798 1.26961,-0.73515 2.539219,-1.76895 3.808828,-3.00091 1.26961,-1.23196 2.539219,-2.66162 3.808828,-4.15121 1.26961,-1.4896 2.539219,-3.03755 3.808828,-4.49558 1.26961,-1.45802 2.539219,-2.82374 3.808828,-3.96713 1.26961,-1.14339 2.539219,-2.06171 3.808828,-2.66848 1.269609,-0.60677 2.5392188,-0.89941 3.8088281,-0.85176 1.2696094,0.0477 2.5392187,0.43751 3.808828,1.13034 1.2696093,0.69283 2.5392187,1.68948 3.808828,2.89297 1.26960933,1.20349 2.5392187,2.61346 3.808828,4.09396 1.2696093,1.48049 2.5392186,3.03003 3.808828,4.5001 1.2696093,1.47007 2.5392186,2.85834 3.8088279,4.03257 1.269609,1.17424 2.539219,2.13171 3.808828,2.78213 1.269609,0.65043 2.539219,0.99121 3.808828,0.99155"
             title="cos(7*x)"
             id="path4174" />
        </g>
      </g>
    </g>
  </g>
</svg>
