<?xml version="1.0" encoding="UTF-8" standalone="no"?>
<!-- Created with Inkscape (http://www.inkscape.org/) -->

<svg
   xmlns:dc="http://purl.org/dc/elements/1.1/"
   xmlns:cc="http://creativecommons.org/ns#"
   xmlns:rdf="http://www.w3.org/1999/02/22-rdf-syntax-ns#"
   xmlns:svg="http://www.w3.org/2000/svg"
   xmlns="http://www.w3.org/2000/svg"
   xmlns:sodipodi="http://sodipodi.sourceforge.net/DTD/sodipodi-0.dtd"
   xmlns:inkscape="http://www.inkscape.org/namespaces/inkscape"
   width="154.24919mm"
   height="135.94809mm"
   viewBox="0 0 546.55226 481.70579"
   id="svg2"
   version="1.1"
   inkscape:version="0.92.3 (2405546, 2018-03-11)"
   sodipodi:docname="06_pulseG.svg">
  <defs
     id="defs4">
    <marker
       inkscape:stockid="Arrow1Mend"
       orient="auto"
       refY="0"
       refX="0"
       id="marker5248"
       style="overflow:visible"
       inkscape:isstock="true">
      <path
         id="path5250"
         d="M 0,0 5,-5 -12.5,0 5,5 Z"
         style="fill:#000000;fill-opacity:1;fill-rule:evenodd;stroke:#000000;stroke-width:1.00000003pt;stroke-opacity:1"
         transform="matrix(-0.4,0,0,-0.4,-4,0)"
         inkscape:connector-curvature="0" />
    </marker>
    <marker
       inkscape:stockid="Arrow1Mend"
       orient="auto"
       refY="0"
       refX="0"
       id="Arrow1Mend"
       style="overflow:visible"
       inkscape:isstock="true">
      <path
         id="path4255"
         d="M 0,0 5,-5 -12.5,0 5,5 Z"
         style="fill:#d99238;fill-opacity:1;fill-rule:evenodd;stroke:#d99238;stroke-width:1.00000003pt;stroke-opacity:1"
         transform="matrix(-0.4,0,0,-0.4,-4,0)"
         inkscape:connector-curvature="0" />
    </marker>
    <marker
       inkscape:stockid="Arrow1Send"
       orient="auto"
       refY="0"
       refX="0"
       id="Arrow1Send"
       style="overflow:visible"
       inkscape:isstock="true">
      <path
         id="path4178"
         d="M 0,0 5,-5 -12.5,0 5,5 Z"
         style="fill:#d40000;fill-opacity:1;fill-rule:evenodd;stroke:#d40000;stroke-width:1.00000003pt;stroke-opacity:1"
         transform="matrix(-0.2,0,0,-0.2,-1.2,0)"
         inkscape:connector-curvature="0" />
    </marker>
    <marker
       inkscape:stockid="Arrow1Mend"
       orient="auto"
       refY="0"
       refX="0"
       id="Arrow1Mend-5"
       style="overflow:visible"
       inkscape:isstock="true">
      <path
         inkscape:connector-curvature="0"
         id="path4255-6"
         d="M 0,0 5,-5 -12.5,0 5,5 Z"
         style="fill:#d99238;fill-opacity:1;fill-rule:evenodd;stroke:#d99238;stroke-width:1.00000003pt;stroke-opacity:1"
         transform="matrix(-0.4,0,0,-0.4,-4,0)" />
    </marker>
    <marker
       inkscape:stockid="Arrow1Mend"
       orient="auto"
       refY="0"
       refX="0"
       id="Arrow1Mend-9"
       style="overflow:visible"
       inkscape:isstock="true">
      <path
         inkscape:connector-curvature="0"
         id="path4255-1"
         d="M 0,0 5,-5 -12.5,0 5,5 Z"
         style="fill:#d99238;fill-opacity:1;fill-rule:evenodd;stroke:#d99238;stroke-width:1.00000003pt;stroke-opacity:1"
         transform="matrix(-0.4,0,0,-0.4,-4,0)" />
    </marker>
    <marker
       inkscape:stockid="Arrow1Mend"
       orient="auto"
       refY="0"
       refX="0"
       id="Arrow1Mend-5-2"
       style="overflow:visible"
       inkscape:isstock="true">
      <path
         inkscape:connector-curvature="0"
         id="path4255-6-7"
         d="M 0,0 5,-5 -12.5,0 5,5 Z"
         style="fill:#d99238;fill-opacity:1;fill-rule:evenodd;stroke:#d99238;stroke-width:1.00000003pt;stroke-opacity:1"
         transform="matrix(-0.4,0,0,-0.4,-4,0)" />
    </marker>
    <marker
       inkscape:stockid="Arrow1Mend"
       orient="auto"
       refY="0"
       refX="0"
       id="Arrow1Mend-9-3"
       style="overflow:visible"
       inkscape:isstock="true">
      <path
         inkscape:connector-curvature="0"
         id="path4255-1-6"
         d="M 0,0 5,-5 -12.5,0 5,5 Z"
         style="fill:#d99238;fill-opacity:1;fill-rule:evenodd;stroke:#d99238;stroke-width:1.00000003pt;stroke-opacity:1"
         transform="matrix(-0.4,0,0,-0.4,-4,0)" />
    </marker>
    <marker
       inkscape:stockid="Arrow1Mend"
       orient="auto"
       refY="0"
       refX="0"
       id="Arrow1Mend-5-2-0"
       style="overflow:visible"
       inkscape:isstock="true">
      <path
         inkscape:connector-curvature="0"
         id="path4255-6-7-6"
         d="M 0,0 5,-5 -12.5,0 5,5 Z"
         style="fill:#d99238;fill-opacity:1;fill-rule:evenodd;stroke:#d99238;stroke-width:1.00000003pt;stroke-opacity:1"
         transform="matrix(-0.4,0,0,-0.4,-4,0)" />
    </marker>
    <marker
       inkscape:stockid="Arrow1Mend"
       orient="auto"
       refY="0"
       refX="0"
       id="Arrow1Mend-1"
       style="overflow:visible"
       inkscape:isstock="true">
      <path
         inkscape:connector-curvature="0"
         id="path4255-8"
         d="M 0,0 5,-5 -12.5,0 5,5 Z"
         style="fill:#d99238;fill-opacity:1;fill-rule:evenodd;stroke:#d99238;stroke-width:1.00000003pt;stroke-opacity:1"
         transform="matrix(-0.4,0,0,-0.4,-4,0)" />
    </marker>
    <marker
       inkscape:stockid="Arrow1Mend"
       orient="auto"
       refY="0"
       refX="0"
       id="Arrow1Mend-5-7"
       style="overflow:visible"
       inkscape:isstock="true">
      <path
         inkscape:connector-curvature="0"
         id="path4255-6-9"
         d="M 0,0 5,-5 -12.5,0 5,5 Z"
         style="fill:#d99238;fill-opacity:1;fill-rule:evenodd;stroke:#d99238;stroke-width:1.00000003pt;stroke-opacity:1"
         transform="matrix(-0.4,0,0,-0.4,-4,0)" />
    </marker>
    <marker
       inkscape:stockid="Arrow1Mend"
       orient="auto"
       refY="0"
       refX="0"
       id="Arrow1Mend-9-2"
       style="overflow:visible"
       inkscape:isstock="true">
      <path
         inkscape:connector-curvature="0"
         id="path4255-1-0"
         d="M 0,0 5,-5 -12.5,0 5,5 Z"
         style="fill:#d99238;fill-opacity:1;fill-rule:evenodd;stroke:#d99238;stroke-width:1.00000003pt;stroke-opacity:1"
         transform="matrix(-0.4,0,0,-0.4,-4,0)" />
    </marker>
    <marker
       inkscape:stockid="Arrow1Mend"
       orient="auto"
       refY="0"
       refX="0"
       id="Arrow1Mend-5-2-2"
       style="overflow:visible"
       inkscape:isstock="true">
      <path
         inkscape:connector-curvature="0"
         id="path4255-6-7-3"
         d="M 0,0 5,-5 -12.5,0 5,5 Z"
         style="fill:#d99238;fill-opacity:1;fill-rule:evenodd;stroke:#d99238;stroke-width:1.00000003pt;stroke-opacity:1"
         transform="matrix(-0.4,0,0,-0.4,-4,0)" />
    </marker>
    <marker
       inkscape:stockid="Arrow1Mend"
       orient="auto"
       refY="0"
       refX="0"
       id="Arrow1Mend-9-3-7"
       style="overflow:visible"
       inkscape:isstock="true">
      <path
         inkscape:connector-curvature="0"
         id="path4255-1-6-5"
         d="M 0,0 5,-5 -12.5,0 5,5 Z"
         style="fill:#d99238;fill-opacity:1;fill-rule:evenodd;stroke:#d99238;stroke-width:1.00000003pt;stroke-opacity:1"
         transform="matrix(-0.4,0,0,-0.4,-4,0)" />
    </marker>
    <marker
       inkscape:stockid="Arrow1Mend"
       orient="auto"
       refY="0"
       refX="0"
       id="Arrow1Mend-5-2-0-9"
       style="overflow:visible"
       inkscape:isstock="true">
      <path
         inkscape:connector-curvature="0"
         id="path4255-6-7-6-2"
         d="M 0,0 5,-5 -12.5,0 5,5 Z"
         style="fill:#d99238;fill-opacity:1;fill-rule:evenodd;stroke:#d99238;stroke-width:1.00000003pt;stroke-opacity:1"
         transform="matrix(-0.4,0,0,-0.4,-4,0)" />
    </marker>
    <marker
       inkscape:stockid="Arrow1Mend"
       orient="auto"
       refY="0"
       refX="0"
       id="marker5248-3"
       style="overflow:visible"
       inkscape:isstock="true">
      <path
         inkscape:connector-curvature="0"
         id="path5250-1"
         d="M 0,0 5,-5 -12.5,0 5,5 Z"
         style="fill:#000000;fill-opacity:1;fill-rule:evenodd;stroke:#000000;stroke-width:1.00000003pt;stroke-opacity:1"
         transform="matrix(-0.4,0,0,-0.4,-4,0)" />
    </marker>
    <marker
       inkscape:stockid="Arrow1Mend"
       orient="auto"
       refY="0"
       refX="0"
       id="marker5248-36"
       style="overflow:visible"
       inkscape:isstock="true">
      <path
         id="path5250-7"
         d="M 0,0 5,-5 -12.5,0 5,5 Z"
         style="fill:#000000;fill-opacity:1;fill-rule:evenodd;stroke:#000000;stroke-width:1.00000003pt;stroke-opacity:1"
         transform="matrix(-0.4,0,0,-0.4,-4,0)"
         inkscape:connector-curvature="0" />
    </marker>
    <marker
       inkscape:stockid="Arrow1Mend"
       orient="auto"
       refY="0"
       refX="0"
       id="marker5248-3-5"
       style="overflow:visible"
       inkscape:isstock="true">
      <path
         inkscape:connector-curvature="0"
         id="path5250-1-3"
         d="M 0,0 5,-5 -12.5,0 5,5 Z"
         style="fill:#000000;fill-opacity:1;fill-rule:evenodd;stroke:#000000;stroke-width:1.00000003pt;stroke-opacity:1"
         transform="matrix(-0.4,0,0,-0.4,-4,0)" />
    </marker>
    <marker
       inkscape:stockid="Arrow1Mend"
       orient="auto"
       refY="0"
       refX="0"
       id="marker5248-36-9"
       style="overflow:visible"
       inkscape:isstock="true">
      <path
         id="path5250-7-3"
         d="M 0,0 5,-5 -12.5,0 5,5 Z"
         style="fill:#000000;fill-opacity:1;fill-rule:evenodd;stroke:#000000;stroke-width:1.00000003pt;stroke-opacity:1"
         transform="matrix(-0.4,0,0,-0.4,-4,0)"
         inkscape:connector-curvature="0" />
    </marker>
    <marker
       inkscape:stockid="Arrow1Mend"
       orient="auto"
       refY="0"
       refX="0"
       id="marker5248-3-5-6"
       style="overflow:visible"
       inkscape:isstock="true">
      <path
         inkscape:connector-curvature="0"
         id="path5250-1-3-0"
         d="M 0,0 5,-5 -12.5,0 5,5 Z"
         style="fill:#000000;fill-opacity:1;fill-rule:evenodd;stroke:#000000;stroke-width:1.00000003pt;stroke-opacity:1"
         transform="matrix(-0.4,0,0,-0.4,-4,0)" />
    </marker>
  </defs>
  <sodipodi:namedview
     id="base"
     pagecolor="#ffffff"
     bordercolor="#666666"
     borderopacity="1.0"
     inkscape:pageopacity="0.0"
     inkscape:pageshadow="2"
     inkscape:zoom="1"
     inkscape:cx="256.31086"
     inkscape:cy="219.99569"
     inkscape:document-units="px"
     inkscape:current-layer="layer1"
     showgrid="false"
     inkscape:window-width="930"
     inkscape:window-height="912"
     inkscape:window-x="837"
     inkscape:window-y="261"
     inkscape:window-maximized="0"
     fit-margin-top="0"
     fit-margin-left="0"
     fit-margin-right="0"
     fit-margin-bottom="0"
     showguides="false" />
  <metadata
     id="metadata7">
    <rdf:RDF>
      <cc:Work
         rdf:about="">
        <dc:format>image/svg+xml</dc:format>
        <dc:type
           rdf:resource="http://purl.org/dc/dcmitype/StillImage" />
        <dc:title></dc:title>
      </cc:Work>
    </rdf:RDF>
  </metadata>
  <g
     inkscape:label="Layer 1"
     inkscape:groupmode="layer"
     id="layer1"
     transform="translate(-33.433846,-148.5181)">
    <text
       xml:space="preserve"
       style="font-style:normal;font-variant:normal;font-weight:normal;font-stretch:normal;line-height:0%;font-family:'Nimbus Sans L';-inkscape-font-specification:Sans;letter-spacing:0px;word-spacing:0px;fill:#000000;fill-opacity:1;stroke:none;stroke-width:1px;stroke-linecap:butt;stroke-linejoin:miter;stroke-opacity:1"
       x="33.433846"
       y="161.93689"
       id="text5411"><tspan
         sodipodi:role="line"
         id="tspan5413"
         x="33.433846"
         y="161.93689"
         style="font-size:37.5px;line-height:1.25"> </tspan></text>
    <path
       style="fill:none;fill-rule:evenodd;stroke:#000000;stroke-width:2;stroke-linecap:butt;stroke-linejoin:miter;stroke-miterlimit:4;stroke-dasharray:none;stroke-opacity:1;marker-end:url(#marker5248)"
       d="m 73.05417,291.53436 502.99054,-10e-6"
       id="path5246"
       inkscape:connector-curvature="0"
       sodipodi:nodetypes="cc" />
    <path
       style="fill:none;fill-rule:evenodd;stroke:#000000;stroke-width:2;stroke-linecap:butt;stroke-linejoin:miter;stroke-miterlimit:4;stroke-dasharray:none;stroke-opacity:1;marker-end:url(#marker5248-3)"
       d="m 73.05417,291.53436 1e-5,-139.0749"
       id="path5246-9"
       inkscape:connector-curvature="0"
       sodipodi:nodetypes="cc" />
    <path
       style="fill:none;fill-rule:evenodd;stroke:#000000;stroke-width:2;stroke-linecap:butt;stroke-linejoin:miter;stroke-miterlimit:4;stroke-dasharray:none;stroke-opacity:1;marker-end:url(#marker5248-36)"
       d="m 73.05417,451.1906 502.99054,-1e-5"
       id="path5246-6"
       inkscape:connector-curvature="0"
       sodipodi:nodetypes="cc" />
    <path
       style="fill:none;fill-rule:evenodd;stroke:#000000;stroke-width:2;stroke-linecap:butt;stroke-linejoin:miter;stroke-miterlimit:4;stroke-dasharray:none;stroke-opacity:1;marker-end:url(#marker5248-3-5)"
       d="m 73.05417,451.1906 1e-5,-139.0749"
       id="path5246-9-2"
       inkscape:connector-curvature="0"
       sodipodi:nodetypes="cc" />
    <path
       style="fill:none;fill-rule:evenodd;stroke:#d40000;stroke-width:1.87499988;stroke-linecap:butt;stroke-linejoin:miter;stroke-miterlimit:4;stroke-dasharray:none;stroke-opacity:1"
       d="m 88.448877,451.16143 c 7.832109,-0.0337 13.172173,0.15733 14.991363,-0.93235 4.16476,-20.49905 1.77413,-112.26399 4.18796,-112.3291 2.41384,-0.065 -1.40698,85.49048 6.95342,88.17326 8.36039,2.68279 4.43983,-61.68061 8.45105,-57.40027 2.10697,2.24834 2.70899,53.79757 7.1289,53.06333 4.41992,-0.73425 4.78214,-32.17125 8.28571,-30.37978 2.32995,61.83378 30.4136,60.84434 90.73108,59.80491"
       id="path142-9"
       inkscape:connector-curvature="0"
       sodipodi:nodetypes="cczzszcc" />
    <path
       style="fill:none;fill-rule:evenodd;stroke:#000000;stroke-width:2;stroke-linecap:butt;stroke-linejoin:miter;stroke-miterlimit:4;stroke-dasharray:none;stroke-opacity:1;marker-end:url(#marker5248-36-9)"
       d="m 73.05417,610.28435 502.99054,-10e-6"
       id="path5246-6-2"
       inkscape:connector-curvature="0"
       sodipodi:nodetypes="cc" />
    <path
       style="fill:none;fill-rule:evenodd;stroke:#000000;stroke-width:2;stroke-linecap:butt;stroke-linejoin:miter;stroke-miterlimit:4;stroke-dasharray:none;stroke-opacity:1;marker-end:url(#marker5248-3-5-6)"
       d="m 73.05417,610.28435 1e-5,-139.0749"
       id="path5246-9-2-6"
       inkscape:connector-curvature="0"
       sodipodi:nodetypes="cc" />
    <path
       style="fill:none;fill-rule:evenodd;stroke:#d40000;stroke-width:1.87500012;stroke-linecap:butt;stroke-linejoin:miter;stroke-miterlimit:4;stroke-dasharray:none;stroke-opacity:1"
       d="m 76.8042,610.53589 c 13.91577,-0.0337 23.40379,0.15725 26.63604,-0.93181 7.39978,-20.48744 3.1522,-112.20038 7.441,-112.26544 4.2888,-0.065 -3.00886,111.65228 6.86245,112.13678 7.17427,0.35212 3.99978,-47.8241 8.66581,-47.99931 4.36313,-0.16384 2.00999,48.96754 6.93344,49.17121 4.92344,0.20367 4.1721,-25.21904 7.70179,-24.36607 5.67057,28.48885 15.13942,23.77499 44.89105,23.99241 29.75163,0.21742 21.4686,0.096 31.87694,-0.0847"
       id="path142-9-1"
       inkscape:connector-curvature="0"
       sodipodi:nodetypes="cczsszczc" />
    <rect
       style="opacity:1;fill:none;fill-opacity:1;stroke:#000000;stroke-width:1.87499988;stroke-linecap:round;stroke-linejoin:round;stroke-miterlimit:4;stroke-dasharray:none;stroke-dashoffset:0;stroke-opacity:1"
       id="rect181"
       width="43.089317"
       height="95.459404"
       x="103.54473"
       y="196.32703" />
    <rect
       style="opacity:1;fill:none;fill-opacity:1;stroke:#000000;stroke-width:1.87499976;stroke-linecap:round;stroke-linejoin:round;stroke-miterlimit:4;stroke-dasharray:none;stroke-dashoffset:0;stroke-opacity:1"
       id="rect181-0"
       width="43.089317"
       height="95.459396"
       x="244.16972"
       y="196.32703" />
    <rect
       style="opacity:1;fill:none;fill-opacity:1;stroke:#000000;stroke-width:1.87499976;stroke-linecap:round;stroke-linejoin:round;stroke-miterlimit:4;stroke-dasharray:none;stroke-dashoffset:0;stroke-opacity:1"
       id="rect181-0-2"
       width="43.089317"
       height="95.459396"
       x="384.79471"
       y="196.24377" />
    <path
       style="fill:none;fill-rule:evenodd;stroke:#d40000;stroke-width:1.87499976;stroke-linecap:butt;stroke-linejoin:miter;stroke-miterlimit:4;stroke-dasharray:none;stroke-opacity:1"
       d="m 229.17836,451.16143 c 7.83211,-0.0337 13.17217,0.15733 14.99136,-0.93235 4.16476,-20.49905 1.77413,-112.26399 4.18796,-112.3291 2.41384,-0.065 -1.40698,85.49048 6.95342,88.17326 8.36039,2.68279 4.43983,-61.68061 8.45105,-57.40027 2.10697,2.24834 2.70899,53.79757 7.1289,53.06333 4.41992,-0.73425 4.78214,-32.17125 8.28571,-30.37978 2.32995,60.89628 31.37986,61.18414 90.62659,59.80491"
       id="path142-9-3"
       inkscape:connector-curvature="0"
       sodipodi:nodetypes="cczzszcc" />
    <path
       style="fill:none;fill-rule:evenodd;stroke:#d40000;stroke-width:1.87499976;stroke-linecap:butt;stroke-linejoin:miter;stroke-miterlimit:4;stroke-dasharray:none;stroke-opacity:1"
       d="m 369.80335,451.16143 c 7.83211,-0.0337 13.17217,0.15733 14.99136,-0.93235 4.16476,-20.49905 1.77413,-112.26399 4.18796,-112.3291 2.41384,-0.065 -1.40698,85.49048 6.95342,88.17326 8.36039,2.68279 4.43983,-61.68061 8.45105,-57.40027 2.10697,2.24834 2.70899,53.79757 7.1289,53.06333 4.41992,-0.73425 4.78214,-32.17125 8.28571,-30.37978 6.07995,59.95878 25.08381,61.30636 72.14304,59.10681"
       id="path142-9-3-7"
       inkscape:connector-curvature="0"
       sodipodi:nodetypes="cczzszcc" />
    <path
       style="fill:none;fill-rule:evenodd;stroke:#d40000;stroke-width:1.87500012;stroke-linecap:butt;stroke-linejoin:miter;stroke-miterlimit:4;stroke-dasharray:none;stroke-opacity:1"
       d="m 217.81272,610.18896 c 13.91577,-0.0337 23.40379,0.15725 26.63604,-0.93181 7.39978,-20.48744 3.1522,-112.20038 7.441,-112.26544 4.2888,-0.065 -3.00886,111.65228 6.86245,112.13678 7.17427,0.35212 3.99977,-47.8241 8.66581,-47.99931 4.36313,-0.16384 2.00999,48.96754 6.93344,49.17121 4.92343,0.20367 4.1721,-25.21904 7.70179,-24.36607 5.67057,28.48885 15.13942,23.77499 44.89105,23.99241 29.75164,0.21742 6.05588,0.5932 31.54549,0.24679"
       id="path142-9-1-5"
       inkscape:connector-curvature="0"
       sodipodi:nodetypes="cczsszczc" />
    <path
       style="fill:none;fill-rule:evenodd;stroke:#d40000;stroke-width:1.87500012;stroke-linecap:butt;stroke-linejoin:miter;stroke-miterlimit:4;stroke-dasharray:none;stroke-opacity:1"
       d="m 358.48979,610.17352 c 13.91577,-0.0337 23.40379,0.15725 26.63604,-0.93181 7.39978,-20.48744 3.1522,-112.20038 7.441,-112.26544 4.2888,-0.065 -3.00886,111.65228 6.86245,112.13678 7.17427,0.35212 3.99978,-47.8241 8.66581,-47.99931 4.36313,-0.16384 2.00999,48.96754 6.93344,49.17121 4.92344,0.20367 4.1721,-25.21904 7.70179,-24.36607 5.67057,28.48885 15.13942,23.77499 44.89105,23.99241 29.75164,0.21742 21.4686,0.096 31.87694,-0.0847"
       id="path142-9-1-9"
       inkscape:connector-curvature="0"
       sodipodi:nodetypes="cczsszczc" />
    <path
       style="fill:none;fill-rule:evenodd;stroke:#000000;stroke-width:1.40625;stroke-linecap:butt;stroke-linejoin:miter;stroke-miterlimit:4;stroke-dasharray:8.43749968, 2.81249989;stroke-dashoffset:0;stroke-opacity:1"
       d="M 71.669733,406.16142 521.11077,405.9437"
       id="path1212"
       inkscape:connector-curvature="0"
       sodipodi:nodetypes="cc" />
    <text
       xml:space="preserve"
       style="font-style:normal;font-variant:normal;font-weight:normal;font-stretch:normal;line-height:0%;font-family:'Nimbus Sans L';-inkscape-font-specification:Sans;letter-spacing:0px;word-spacing:0px;fill:#000000;fill-opacity:1;stroke:none;stroke-width:1px;stroke-linecap:butt;stroke-linejoin:miter;stroke-opacity:1"
       x="45.828201"
       y="184.83438"
       id="text6089"><tspan
         sodipodi:role="line"
         id="tspan6091"
         x="45.828201"
         y="184.83438"
         style="font-size:16.25px;line-height:1.25">$G$</tspan></text>
    <text
       xml:space="preserve"
       style="font-style:normal;font-variant:normal;font-weight:normal;font-stretch:normal;line-height:0%;font-family:'Nimbus Sans L';-inkscape-font-specification:Sans;letter-spacing:0px;word-spacing:0px;fill:#000000;fill-opacity:1;stroke:none;stroke-width:1px;stroke-linecap:butt;stroke-linejoin:miter;stroke-opacity:1"
       x="542.70319"
       y="308.76352"
       id="text6089-4"><tspan
         sodipodi:role="line"
         id="tspan6091-7"
         x="542.70319"
         y="308.76352"
         style="font-size:16.25px;line-height:1.25">$t$</tspan></text>
    <text
       xml:space="preserve"
       style="font-style:normal;font-variant:normal;font-weight:normal;font-stretch:normal;line-height:0%;font-family:'Nimbus Sans L';-inkscape-font-specification:Sans;letter-spacing:0px;word-spacing:0px;fill:#000000;fill-opacity:1;stroke:none;stroke-width:1px;stroke-linecap:butt;stroke-linejoin:miter;stroke-opacity:1"
       x="45.828201"
       y="344.49063"
       id="text6089-1"><tspan
         sodipodi:role="line"
         id="tspan6091-2"
         x="45.828201"
         y="344.49063"
         style="font-size:16.25px;line-height:1.25">$N_2$</tspan></text>
    <text
       xml:space="preserve"
       style="font-style:normal;font-variant:normal;font-weight:normal;font-stretch:normal;line-height:0%;font-family:'Nimbus Sans L';-inkscape-font-specification:Sans;letter-spacing:0px;word-spacing:0px;fill:#000000;fill-opacity:1;stroke:none;stroke-width:1px;stroke-linecap:butt;stroke-linejoin:miter;stroke-opacity:1"
       x="542.70319"
       y="469.08267"
       id="text6089-4-7"><tspan
         sodipodi:role="line"
         id="tspan6091-7-0"
         x="542.70319"
         y="469.08267"
         style="font-size:16.25px;line-height:1.25">$t$</tspan></text>
    <text
       xml:space="preserve"
       style="font-style:normal;font-variant:normal;font-weight:normal;font-stretch:normal;line-height:0%;font-family:'Nimbus Sans L';-inkscape-font-specification:Sans;letter-spacing:0px;word-spacing:0px;fill:#000000;fill-opacity:1;stroke:none;stroke-width:1px;stroke-linecap:butt;stroke-linejoin:miter;stroke-opacity:1"
       x="49.578201"
       y="499.83438"
       id="text6089-1-8"><tspan
         sodipodi:role="line"
         id="tspan6091-2-7"
         x="49.578201"
         y="499.83438"
         style="font-size:16.25px;line-height:1.25">$P$</tspan></text>
    <text
       xml:space="preserve"
       style="font-style:normal;font-variant:normal;font-weight:normal;font-stretch:normal;line-height:0%;font-family:'Nimbus Sans L';-inkscape-font-specification:Sans;letter-spacing:0px;word-spacing:0px;fill:#000000;fill-opacity:1;stroke:none;stroke-width:1px;stroke-linecap:butt;stroke-linejoin:miter;stroke-opacity:1"
       x="542.70319"
       y="628.17639"
       id="text6089-4-7-9"><tspan
         sodipodi:role="line"
         id="tspan6091-7-0-2"
         x="542.70319"
         y="628.17639"
         style="font-size:16.25px;line-height:1.25">$t$</tspan></text>
    <text
       xml:space="preserve"
       style="font-style:normal;font-variant:normal;font-weight:normal;font-stretch:normal;font-size:12px;line-height:0%;font-family:'Nimbus Sans L';-inkscape-font-specification:Sans;letter-spacing:0px;word-spacing:0px;fill:#000000;fill-opacity:1;stroke:none;stroke-width:1px;stroke-linecap:butt;stroke-linejoin:miter;stroke-opacity:1"
       x="28.538021"
       y="410.98767"
       id="text6089-1-2"><tspan
         sodipodi:role="line"
         id="tspan6091-2-2"
         x="28.538021"
         y="410.98767"
         style="font-size:16.25px;line-height:1.25;stroke-width:1px">$N_{\rm 2pr}$</tspan></text>
    <text
       xml:space="preserve"
       style="font-style:italic;font-variant:normal;font-weight:normal;font-stretch:normal;font-size:23.43749809px;line-height:125%;font-family:msbm10;-inkscape-font-specification:'msbm10 Italic';letter-spacing:0px;word-spacing:0px;fill:#000000;fill-opacity:1;stroke:none;stroke-width:0.93749994px;stroke-linecap:butt;stroke-linejoin:miter;stroke-opacity:1"
       x="0.8884899"
       y="345.69266"
       id="text1234"><tspan
         sodipodi:role="line"
         id="tspan1232"
         x="0.8884899"
         y="366.42935"
         style="stroke-width:0.93749994px" /></text>
  </g>
</svg>
