<?xml version="1.0" encoding="UTF-8" standalone="no"?>
<!-- Created with Inkscape (http://www.inkscape.org/) -->

<svg
   xmlns:dc="http://purl.org/dc/elements/1.1/"
   xmlns:cc="http://creativecommons.org/ns#"
   xmlns:rdf="http://www.w3.org/1999/02/22-rdf-syntax-ns#"
   xmlns:svg="http://www.w3.org/2000/svg"
   xmlns="http://www.w3.org/2000/svg"
   xmlns:sodipodi="http://sodipodi.sourceforge.net/DTD/sodipodi-0.dtd"
   xmlns:inkscape="http://www.inkscape.org/namespaces/inkscape"
   sodipodi:docname="06_pulseML_tine.svg"
   inkscape:version="0.91 r13725"
   version="1.1"
   id="svg2"
   viewBox="0 0 529.87888 315.4257"
   height="89.020149mm"
   width="149.54359mm">
  <sodipodi:namedview
     showguides="true"
     fit-margin-bottom="0"
     fit-margin-right="0"
     fit-margin-left="0"
     fit-margin-top="0"
     inkscape:window-maximized="0"
     inkscape:window-y="104"
     inkscape:window-x="891"
     inkscape:window-height="912"
     inkscape:window-width="881"
     showgrid="false"
     inkscape:current-layer="layer1"
     inkscape:document-units="px"
     inkscape:cy="87.422096"
     inkscape:cx="204.38532"
     inkscape:zoom="0.72464121"
     inkscape:pageshadow="2"
     inkscape:pageopacity="0.0"
     borderopacity="1.0"
     bordercolor="#666666"
     pagecolor="#ffffff"
     id="base" />
  <defs
     id="defs4">
    <marker
       inkscape:stockid="Arrow1Mend"
       orient="auto"
       refY="0"
       refX="0"
       id="marker5248"
       style="overflow:visible"
       inkscape:isstock="true">
      <path
         id="path5250"
         d="M 0,0 5,-5 -12.5,0 5,5 Z"
         style="fill:#000000;fill-opacity:1;fill-rule:evenodd;stroke:#000000;stroke-width:1.00000003pt;stroke-opacity:1"
         transform="matrix(-0.4,0,0,-0.4,-4,0)"
         inkscape:connector-curvature="0" />
    </marker>
    <marker
       inkscape:stockid="Arrow1Mend"
       orient="auto"
       refY="0"
       refX="0"
       id="Arrow1Mend"
       style="overflow:visible"
       inkscape:isstock="true">
      <path
         id="path4255"
         d="M 0,0 5,-5 -12.5,0 5,5 Z"
         style="fill:#d99238;fill-opacity:1;fill-rule:evenodd;stroke:#d99238;stroke-width:1.00000003pt;stroke-opacity:1"
         transform="matrix(-0.4,0,0,-0.4,-4,0)"
         inkscape:connector-curvature="0" />
    </marker>
    <marker
       inkscape:stockid="Arrow1Send"
       orient="auto"
       refY="0"
       refX="0"
       id="Arrow1Send"
       style="overflow:visible"
       inkscape:isstock="true">
      <path
         id="path4178"
         d="M 0,0 5,-5 -12.5,0 5,5 Z"
         style="fill:#d40000;fill-opacity:1;fill-rule:evenodd;stroke:#d40000;stroke-width:1.00000003pt;stroke-opacity:1"
         transform="matrix(-0.2,0,0,-0.2,-1.2,0)"
         inkscape:connector-curvature="0" />
    </marker>
    <marker
       inkscape:stockid="Arrow1Mend"
       orient="auto"
       refY="0"
       refX="0"
       id="Arrow1Mend-5"
       style="overflow:visible"
       inkscape:isstock="true">
      <path
         inkscape:connector-curvature="0"
         id="path4255-6"
         d="M 0,0 5,-5 -12.5,0 5,5 Z"
         style="fill:#d99238;fill-opacity:1;fill-rule:evenodd;stroke:#d99238;stroke-width:1.00000003pt;stroke-opacity:1"
         transform="matrix(-0.4,0,0,-0.4,-4,0)" />
    </marker>
    <marker
       inkscape:stockid="Arrow1Mend"
       orient="auto"
       refY="0"
       refX="0"
       id="Arrow1Mend-9"
       style="overflow:visible"
       inkscape:isstock="true">
      <path
         inkscape:connector-curvature="0"
         id="path4255-1"
         d="M 0,0 5,-5 -12.5,0 5,5 Z"
         style="fill:#d99238;fill-opacity:1;fill-rule:evenodd;stroke:#d99238;stroke-width:1.00000003pt;stroke-opacity:1"
         transform="matrix(-0.4,0,0,-0.4,-4,0)" />
    </marker>
    <marker
       inkscape:stockid="Arrow1Mend"
       orient="auto"
       refY="0"
       refX="0"
       id="Arrow1Mend-5-2"
       style="overflow:visible"
       inkscape:isstock="true">
      <path
         inkscape:connector-curvature="0"
         id="path4255-6-7"
         d="M 0,0 5,-5 -12.5,0 5,5 Z"
         style="fill:#d99238;fill-opacity:1;fill-rule:evenodd;stroke:#d99238;stroke-width:1.00000003pt;stroke-opacity:1"
         transform="matrix(-0.4,0,0,-0.4,-4,0)" />
    </marker>
    <marker
       inkscape:stockid="Arrow1Mend"
       orient="auto"
       refY="0"
       refX="0"
       id="Arrow1Mend-9-3"
       style="overflow:visible"
       inkscape:isstock="true">
      <path
         inkscape:connector-curvature="0"
         id="path4255-1-6"
         d="M 0,0 5,-5 -12.5,0 5,5 Z"
         style="fill:#d99238;fill-opacity:1;fill-rule:evenodd;stroke:#d99238;stroke-width:1.00000003pt;stroke-opacity:1"
         transform="matrix(-0.4,0,0,-0.4,-4,0)" />
    </marker>
    <marker
       inkscape:stockid="Arrow1Mend"
       orient="auto"
       refY="0"
       refX="0"
       id="Arrow1Mend-5-2-0"
       style="overflow:visible"
       inkscape:isstock="true">
      <path
         inkscape:connector-curvature="0"
         id="path4255-6-7-6"
         d="M 0,0 5,-5 -12.5,0 5,5 Z"
         style="fill:#d99238;fill-opacity:1;fill-rule:evenodd;stroke:#d99238;stroke-width:1.00000003pt;stroke-opacity:1"
         transform="matrix(-0.4,0,0,-0.4,-4,0)" />
    </marker>
    <marker
       inkscape:stockid="Arrow1Mend"
       orient="auto"
       refY="0"
       refX="0"
       id="Arrow1Mend-1"
       style="overflow:visible"
       inkscape:isstock="true">
      <path
         inkscape:connector-curvature="0"
         id="path4255-8"
         d="M 0,0 5,-5 -12.5,0 5,5 Z"
         style="fill:#d99238;fill-opacity:1;fill-rule:evenodd;stroke:#d99238;stroke-width:1.00000003pt;stroke-opacity:1"
         transform="matrix(-0.4,0,0,-0.4,-4,0)" />
    </marker>
    <marker
       inkscape:stockid="Arrow1Mend"
       orient="auto"
       refY="0"
       refX="0"
       id="Arrow1Mend-5-7"
       style="overflow:visible"
       inkscape:isstock="true">
      <path
         inkscape:connector-curvature="0"
         id="path4255-6-9"
         d="M 0,0 5,-5 -12.5,0 5,5 Z"
         style="fill:#d99238;fill-opacity:1;fill-rule:evenodd;stroke:#d99238;stroke-width:1.00000003pt;stroke-opacity:1"
         transform="matrix(-0.4,0,0,-0.4,-4,0)" />
    </marker>
    <marker
       inkscape:stockid="Arrow1Mend"
       orient="auto"
       refY="0"
       refX="0"
       id="Arrow1Mend-9-2"
       style="overflow:visible"
       inkscape:isstock="true">
      <path
         inkscape:connector-curvature="0"
         id="path4255-1-0"
         d="M 0,0 5,-5 -12.5,0 5,5 Z"
         style="fill:#d99238;fill-opacity:1;fill-rule:evenodd;stroke:#d99238;stroke-width:1.00000003pt;stroke-opacity:1"
         transform="matrix(-0.4,0,0,-0.4,-4,0)" />
    </marker>
    <marker
       inkscape:stockid="Arrow1Mend"
       orient="auto"
       refY="0"
       refX="0"
       id="Arrow1Mend-5-2-2"
       style="overflow:visible"
       inkscape:isstock="true">
      <path
         inkscape:connector-curvature="0"
         id="path4255-6-7-3"
         d="M 0,0 5,-5 -12.5,0 5,5 Z"
         style="fill:#d99238;fill-opacity:1;fill-rule:evenodd;stroke:#d99238;stroke-width:1.00000003pt;stroke-opacity:1"
         transform="matrix(-0.4,0,0,-0.4,-4,0)" />
    </marker>
    <marker
       inkscape:stockid="Arrow1Mend"
       orient="auto"
       refY="0"
       refX="0"
       id="Arrow1Mend-9-3-7"
       style="overflow:visible"
       inkscape:isstock="true">
      <path
         inkscape:connector-curvature="0"
         id="path4255-1-6-5"
         d="M 0,0 5,-5 -12.5,0 5,5 Z"
         style="fill:#d99238;fill-opacity:1;fill-rule:evenodd;stroke:#d99238;stroke-width:1.00000003pt;stroke-opacity:1"
         transform="matrix(-0.4,0,0,-0.4,-4,0)" />
    </marker>
    <marker
       inkscape:stockid="Arrow1Mend"
       orient="auto"
       refY="0"
       refX="0"
       id="Arrow1Mend-5-2-0-9"
       style="overflow:visible"
       inkscape:isstock="true">
      <path
         inkscape:connector-curvature="0"
         id="path4255-6-7-6-2"
         d="M 0,0 5,-5 -12.5,0 5,5 Z"
         style="fill:#d99238;fill-opacity:1;fill-rule:evenodd;stroke:#d99238;stroke-width:1.00000003pt;stroke-opacity:1"
         transform="matrix(-0.4,0,0,-0.4,-4,0)" />
    </marker>
    <marker
       inkscape:stockid="Arrow1Mend"
       orient="auto"
       refY="0"
       refX="0"
       id="marker5248-3"
       style="overflow:visible"
       inkscape:isstock="true">
      <path
         inkscape:connector-curvature="0"
         id="path5250-1"
         d="M 0,0 5,-5 -12.5,0 5,5 Z"
         style="fill:#000000;fill-opacity:1;fill-rule:evenodd;stroke:#000000;stroke-width:1.00000003pt;stroke-opacity:1"
         transform="matrix(-0.4,0,0,-0.4,-4,0)" />
    </marker>
    <marker
       inkscape:stockid="Arrow1Mend"
       orient="auto"
       refY="0"
       refX="0"
       id="marker5248-36"
       style="overflow:visible"
       inkscape:isstock="true">
      <path
         id="path5250-7"
         d="M 0,0 5,-5 -12.5,0 5,5 Z"
         style="fill:#000000;fill-opacity:1;fill-rule:evenodd;stroke:#000000;stroke-width:1.00000003pt;stroke-opacity:1"
         transform="matrix(-0.4,0,0,-0.4,-4,0)"
         inkscape:connector-curvature="0" />
    </marker>
    <marker
       inkscape:stockid="Arrow1Mend"
       orient="auto"
       refY="0"
       refX="0"
       id="marker5248-3-5"
       style="overflow:visible"
       inkscape:isstock="true">
      <path
         inkscape:connector-curvature="0"
         id="path5250-1-3"
         d="M 0,0 5,-5 -12.5,0 5,5 Z"
         style="fill:#000000;fill-opacity:1;fill-rule:evenodd;stroke:#000000;stroke-width:1.00000003pt;stroke-opacity:1"
         transform="matrix(-0.4,0,0,-0.4,-4,0)" />
    </marker>
    <marker
       inkscape:stockid="Arrow1Mend"
       orient="auto"
       refY="0"
       refX="0"
       id="marker5248-36-9"
       style="overflow:visible"
       inkscape:isstock="true">
      <path
         id="path5250-7-3"
         d="M 0,0 5,-5 -12.5,0 5,5 Z"
         style="fill:#000000;fill-opacity:1;fill-rule:evenodd;stroke:#000000;stroke-width:1.00000003pt;stroke-opacity:1"
         transform="matrix(-0.4,0,0,-0.4,-4,0)"
         inkscape:connector-curvature="0" />
    </marker>
    <marker
       inkscape:stockid="Arrow1Mend"
       orient="auto"
       refY="0"
       refX="0"
       id="marker5248-3-5-6"
       style="overflow:visible"
       inkscape:isstock="true">
      <path
         inkscape:connector-curvature="0"
         id="path5250-1-3-0"
         d="M 0,0 5,-5 -12.5,0 5,5 Z"
         style="fill:#000000;fill-opacity:1;fill-rule:evenodd;stroke:#000000;stroke-width:1.00000003pt;stroke-opacity:1"
         transform="matrix(-0.4,0,0,-0.4,-4,0)" />
    </marker>
    <marker
       inkscape:stockid="Arrow1Mend"
       orient="auto"
       refY="0"
       refX="0"
       id="marker5248-1"
       style="overflow:visible"
       inkscape:isstock="true">
      <path
         id="path5250-2"
         d="M 0,0 5,-5 -12.5,0 5,5 Z"
         style="fill:#000000;fill-opacity:1;fill-rule:evenodd;stroke:#000000;stroke-width:1.00000003pt;stroke-opacity:1"
         transform="matrix(-0.4,0,0,-0.4,-4,0)"
         inkscape:connector-curvature="0" />
    </marker>
    <marker
       inkscape:stockid="Arrow1Mend"
       orient="auto"
       refY="0"
       refX="0"
       id="marker5248-3-9"
       style="overflow:visible"
       inkscape:isstock="true">
      <path
         inkscape:connector-curvature="0"
         id="path5250-1-31"
         d="M 0,0 5,-5 -12.5,0 5,5 Z"
         style="fill:#000000;fill-opacity:1;fill-rule:evenodd;stroke:#000000;stroke-width:1.00000003pt;stroke-opacity:1"
         transform="matrix(-0.4,0,0,-0.4,-4,0)" />
    </marker>
    <clipPath
       id="clipPath">
      <rect
         y="322.63251"
         x="61.276173"
         height="289.02988"
         width="477.29706"
         id="rect1407"
         style="opacity:1;fill:#ffffff;fill-opacity:1;stroke:#d40000;stroke-width:1.87499988;stroke-linecap:round;stroke-linejoin:round;stroke-miterlimit:4;stroke-dasharray:none;stroke-dashoffset:0;stroke-opacity:1" />
    </clipPath>
    <clipPath
       id="clipPathD">
      <rect
         style="opacity:1;fill:#ffffff;fill-opacity:1;stroke:#d40000;stroke-width:1.87499988;stroke-linecap:round;stroke-linejoin:round;stroke-miterlimit:4;stroke-dasharray:none;stroke-dashoffset:0;stroke-opacity:1"
         id="rect2466"
         width="457.56409"
         height="285.00021"
         x="73.054169"
         y="325.28415" />
    </clipPath>
    <clipPath
       id="clipPathf">
      <rect
         y="506.92221"
         x="24.15307"
         height="403.05084"
         width="596.62134"
         id="rect2598"
         style="opacity:1;fill:#ffffff;fill-opacity:1;stroke:#d40000;stroke-width:1.87499988;stroke-linecap:round;stroke-linejoin:round;stroke-miterlimit:4;stroke-dasharray:none;stroke-dashoffset:0;stroke-opacity:1" />
    </clipPath>
    <clipPath
       id="clipPathz">
      <rect
         style="opacity:1;fill:#ffffff;fill-opacity:1;stroke:#d40000;stroke-width:1.87499988;stroke-linecap:round;stroke-linejoin:round;stroke-miterlimit:4;stroke-dasharray:none;stroke-dashoffset:0;stroke-opacity:1"
         id="rect2738"
         width="620.48615"
         height="462.71295"
         x="-215.82129"
         y="292.13852" />
    </clipPath>
    <clipPath
       id="clipPathM">
      <rect
         y="406.15945"
         x="-292.71915"
         height="551.54327"
         width="820.68573"
         id="rect2886"
         style="opacity:1;fill:#ffffff;fill-opacity:1;stroke:#d40000;stroke-width:1.87499988;stroke-linecap:round;stroke-linejoin:round;stroke-miterlimit:4;stroke-dasharray:none;stroke-dashoffset:0;stroke-opacity:1" />
    </clipPath>
  </defs>
  <metadata
     id="metadata7">
    <rdf:RDF>
      <cc:Work
         rdf:about="">
        <dc:format>image/svg+xml</dc:format>
        <dc:type
           rdf:resource="http://purl.org/dc/dcmitype/StillImage" />
        <dc:title />
      </cc:Work>
    </rdf:RDF>
  </metadata>
  <g
     inkscape:label="Layer 1"
     inkscape:groupmode="layer"
     id="layer1"
     transform="translate(-50.107234,-314.7982)">
    <text
       xml:space="preserve"
       style="font-style:italic;font-variant:normal;font-weight:normal;font-stretch:normal;font-size:23.43749809px;line-height:125%;font-family:msbm10;-inkscape-font-specification:'msbm10 Italic';letter-spacing:0px;word-spacing:0px;fill:#000000;fill-opacity:1;stroke:none;stroke-width:0.93749994px;stroke-linecap:butt;stroke-linejoin:miter;stroke-opacity:1"
       x="0.8884899"
       y="345.69266"
       id="text1234"><tspan
         sodipodi:role="line"
         id="tspan1232"
         x="0.8884899"
         y="366.42935"
         style="stroke-width:0.93749994px" /></text>
    <rect
       style="opacity:1;fill:#ffffff;fill-opacity:1;fill-rule:nonzero;stroke:none;stroke-width:1.5;stroke-linecap:butt;stroke-linejoin:miter;stroke-miterlimit:4;stroke-dasharray:none;stroke-dashoffset:0;stroke-opacity:1"
       id="rect3395"
       width="532.67743"
       height="317.39847"
       x="48.727242"
       y="312.82544" />
    <path
       style="fill:none;fill-rule:evenodd;stroke:#000000;stroke-width:2;stroke-linecap:butt;stroke-linejoin:miter;stroke-miterlimit:4;stroke-dasharray:none;stroke-opacity:1;marker-end:url(#marker5248-36-9)"
       d="m 73.05417,610.28435 502.99054,-10e-6"
       id="path5246-6-2"
       inkscape:connector-curvature="0"
       sodipodi:nodetypes="cc" />
    <path
       style="fill:none;fill-rule:evenodd;stroke:#000000;stroke-width:2;stroke-linecap:butt;stroke-linejoin:miter;stroke-miterlimit:4;stroke-dasharray:none;stroke-opacity:1;marker-end:url(#marker5248-3-5-6)"
       d="m 73.05417,610.28435 1e-5,-291.54479"
       id="path5246-9-2-6"
       inkscape:connector-curvature="0"
       sodipodi:nodetypes="cc" />
    <path
       id="path2963"
       clip-path="url(#clipPathM)"
       title="sin(8*x)*sin(8*x)/sin(x)/sin(x)"
       d="m -292.71915,406.15945 c 0.4567,0.007 0.9134,6.9004 1.37009,20.09354 0.4567,13.19314 0.9134,32.69088 1.3701,56.82777 0.45669,24.1369 0.91339,52.90923 1.37009,83.98653 0.4567,31.07729 0.91339,64.4374 1.37009,97.59271 0.4567,33.15531 0.9134,66.07315 1.3701,96.62344 0.45669,30.55028 0.91339,58.69932 1.37009,83.07009 0.4567,24.37077 0.91339,44.937 1.37009,61.26228 0.4567,16.32529 0.9134,28.396 1.37009,36.66642 0.4567,8.27042 0.9134,12.74049 1.3701,14.50253 0.4567,1.76203 0.91339,0.82643 1.37009,-1.44643 0.4567,-2.27286 0.9134,-5.86785 1.37009,-9.53479 0.4567,-3.66695 0.9134,-7.39231 1.3701,-10.32247 0.45669,-2.93016 0.91339,-5.05804 1.37009,-6.05683 0.4567,-0.99878 0.91339,-0.86996 1.37009,0.22535 0.4567,1.09531 0.9134,3.14808 1.3701,5.68034 0.45669,2.53227 0.91339,5.53094 1.37009,8.43375 0.4567,2.90282 0.91339,5.69716 1.37009,7.95049 0.4567,2.25334 0.9134,3.95752 1.37009,4.94154 0.4567,0.98403 0.9134,1.24632 1.3701,0.89739 0.4567,-0.34893 0.91339,-1.30441 1.37009,-2.55616 0.4567,-1.25175 0.9134,-2.79123 1.37009,-4.24978 0.4567,-1.45855 0.9134,-2.82724 1.3701,-3.82286 0.45669,-0.99562 0.91339,-1.61217 1.37009,-1.74707 0.4567,-0.13491 0.9134,0.21296 1.37009,0.94772 0.4567,0.73476 0.9134,1.85264 1.3701,3.11725 0.45669,1.26461 0.91339,2.66905 1.37009,3.94154 0.4567,1.27249 0.91339,2.40582 1.37009,3.20193 0.4567,0.79612 0.9134,1.25024 1.3701,1.31009 0.45669,0.0599 0.91339,-0.27527 1.37009,-0.90138 0.4567,-0.62611 0.91339,-1.53976 1.37009,-2.53159 0.4567,-0.99184 0.9134,-2.0558 1.37009,-2.96624 0.4567,-0.91044 0.9134,-1.66117 1.3701,-2.10119 0.45669,-0.44002 0.91339,-0.56546 1.37009,-0.35745 0.4567,0.20801 0.9134,0.74956 1.37009,1.50837 0.4567,0.75882 0.9134,1.73126 1.3701,2.71686 0.45669,0.98561 0.91339,1.97847 1.37009,2.77735 0.4567,0.79889 0.91339,1.39801 1.37009,1.67765 0.4567,0.27965 0.9134,0.23644 1.3701,-0.11918 0.45669,-0.35561 0.91339,-1.02324 1.37009,-1.86655 0.4567,-0.84331 0.91339,-1.85823 1.37009,-2.83798 0.4567,-0.97974 0.9134,-1.91814 1.37009,-2.62268 0.4567,-0.70454 0.9134,-1.16941 1.3701,-1.29676 0.4567,-0.12735 0.91339,0.0859 1.37009,0.59922 0.4567,0.51335 0.9134,1.32578 1.37009,2.27035 0.4567,0.94457 0.9134,2.01635 1.3701,2.98628 0.45669,0.96992 0.91339,1.83096 1.37009,2.38496 0.4567,0.55399 0.9134,0.79457 1.37009,0.63972 0.4567,-0.15484 0.9134,-0.70816 1.3701,-1.58335 0.45669,-0.87519 0.91339,-2.07048 1.37009,-3.37114 0.4567,-1.30065 0.91339,-2.7004 1.37009,-3.926 0.4567,-1.2256 0.9134,-2.26844 1.37009,-2.90791 0.4567,-0.63947 0.9134,-0.86793 1.3701,-0.61766 0.4567,0.25028 0.91339,0.98268 1.37009,2.06458 0.4567,1.08191 0.9134,2.51049 1.37009,3.98303 0.4567,1.47255 0.9134,2.98028 1.3701,4.15522 0.45669,1.17494 0.91339,2.00505 1.37009,2.20368 0.4567,0.19863 0.9134,-0.2452 1.37009,-1.40164 0.4567,-1.15644 0.9134,-3.03078 1.3701,-5.40886 0.45669,-2.37808 0.91339,-5.25631 1.37009,-8.17355 0.4567,-2.91725 0.91339,-5.86068 1.37009,-8.26884 0.4567,-2.40815 0.9134,-4.26201 1.3701,-5.12006 0.45669,-0.85804 0.91339,-0.70099 1.37009,0.56619 0.4567,1.26718 0.91339,3.65682 1.37009,6.76458 0.4567,3.10775 0.9134,6.93262 1.37009,10.55814 0.4567,3.62552 0.9134,7.03406 1.3701,8.9538 0.4567,1.91974 0.91339,2.31758 1.37009,-0.12887 0.4567,-2.44645 0.9134,-7.77996 1.37009,-16.99184 0.4567,-9.21188 0.9134,-22.34523 1.3701,-39.70525 0.45669,-17.36001 0.91339,-38.97956 1.37009,-64.25605 0.4567,-25.27649 0.9134,-54.22359 1.37009,-85.321 0.4567,-31.0974 0.9134,-64.33472 1.3701,-97.50015 0.45669,-33.16543 0.91339,-66.22523 1.37009,-96.69833 0.4567,-30.47311 0.91339,-58.30868 1.37009,-81.27775 0.4567,-22.96908 0.9134,-41.01408 1.37009,-52.64998 0.4567,-11.6359 0.9134,-16.81016 1.3701,-15.11853 0.4567,1.69163 0.91339,10.28641 1.37009,25.01355 0.4567,14.72714 0.9134,35.60245 1.37009,60.8531 0.4567,25.25065 0.9134,54.8703 1.3701,86.47962 0.45669,31.60932 0.91339,65.18435 1.37009,98.25536 0.4567,33.07101 0.9134,65.60466 1.37009,95.54701 0.4567,29.94234 0.9134,57.2602 1.3701,80.68872 0.45669,23.42852 0.91339,42.94283 1.37009,58.2253 0.4567,15.28247 0.91339,26.32123 1.37009,33.66752 0.4567,7.34628 0.9134,11.00157 1.3701,12.11317 0.45669,1.11161 0.91339,-0.30914 1.37009,-2.89598 0.4567,-2.58683 0.91339,-6.32448 1.37009,-9.99947 0.4567,-3.67499 0.9134,-7.27437 1.37009,-10.0068 0.4567,-2.73244 0.9134,-4.59188 1.3701,-5.31786 0.4567,-0.72599 0.91339,-0.32107 1.37009,1.00263 0.4567,1.32371 0.9134,3.55645 1.37009,6.19662 0.4567,2.64018 0.9134,5.67451 1.3701,8.54644 0.45669,2.87192 0.91339,5.56919 1.37009,7.68693 0.4567,2.11774 0.91339,3.64855 1.37009,4.45788 0.4567,0.80932 0.9134,0.89642 1.3701,0.40298 0.45669,-0.49343 0.91339,-1.56208 1.37009,-2.88003 0.4567,-1.31795 0.91339,-2.87641 1.37009,-4.3101 0.4567,-1.43368 0.9134,-2.73388 1.37009,-3.63618 0.4567,-0.90229 0.9134,-1.40122 1.3701,-1.41975 0.4567,-0.0185 0.91339,0.44384 1.37009,1.26914 0.4567,0.82529 0.9134,2.00924 1.37009,3.30475 0.4567,1.29551 0.9134,2.69549 1.3701,3.9318 0.45669,1.23631 0.91339,2.30191 1.37009,3.01416 0.4567,0.71225 0.9134,1.06681 1.37009,1.03173 0.4567,-0.0351 0.9134,-0.45994 1.3701,-1.15356 0.45669,-0.69363 0.91339,-1.65214 1.37009,-2.65885 0.4567,-1.00671 0.91339,-2.05541 1.37009,-2.92518 0.4567,-0.86977 0.9134,-1.5546 1.3701,-1.91785 0.45669,-0.36325 0.91339,-0.40147 1.37009,-0.11374 0.4567,0.28773 0.91339,0.90101 1.37009,1.70932 0.4567,0.80831 0.9134,1.8076 1.37009,2.79245 0.4567,0.98484 0.9134,1.9492 1.3701,2.69795 0.45669,0.74875 0.91339,1.27628 1.37009,1.47747 0.4567,0.20119 0.9134,0.0731 1.37009,-0.35673 0.4567,-0.42983 0.9134,-1.16047 1.3701,-2.04291 0.45669,-0.88243 0.91339,-1.91219 1.37009,-2.8794 0.4567,-0.9672 0.91339,-1.86558 1.37009,-2.51053 0.4567,-0.64494 0.9134,-1.03088 1.3701,-1.07589 0.45669,-0.045 0.91339,0.25349 1.37009,0.8374 0.4567,0.58391 0.91339,1.45164 1.37009,2.42408 0.4567,0.97245 0.9134,2.04429 1.37009,2.98501 0.4567,0.94072 0.9134,1.74323 1.3701,2.21979 0.4567,0.47656 0.91339,0.62108 1.37009,0.37026 0.4567,-0.25082 0.9134,-0.89949 1.37009,-1.84967 0.4567,-0.95017 0.9134,-2.19945 1.3701,-3.52045 0.45669,-1.321 0.91339,-2.70699 1.37009,-3.88503 0.4567,-1.17803 0.9134,-2.13942 1.37009,-2.6779 0.4567,-0.53849 0.9134,-0.64679 1.3701,-0.28109 0.45669,0.3657 0.91339,1.20808 1.37009,2.36993 0.4567,1.16184 0.91339,2.63951 1.37009,4.11511 0.4567,1.4756 0.9134,2.93975 1.37009,4.02632 0.4567,1.08657 0.9134,1.78336 1.3701,1.8243 0.4567,0.0409 0.91339,-0.58449 1.37009,-1.91271 0.4567,-1.32822 0.9134,-3.36354 1.37009,-5.8565 0.4567,-2.49297 0.9134,-5.4388 1.3701,-8.35378 0.45669,-2.91498 0.91339,-5.78528 1.37009,-8.05151 0.4567,-2.26623 0.9134,-3.90897 1.37009,-4.51835 0.4567,-0.60939 0.9134,-0.16663 1.3701,1.36693 0.45669,1.53356 0.91339,4.16887 1.37009,7.43488 0.4567,3.26601 0.91339,7.15975 1.37009,10.70829 0.4567,3.54854 0.9134,6.73216 1.3701,8.25361 0.45669,1.52145 0.913391,1.34601 1.370088,-1.82871 0.456698,-3.17472 0.913396,-9.3921 1.370093,-19.57534 0.456698,-10.18324 0.913396,-24.37474 1.370093,-42.77455 0.456698,-18.39982 0.913396,-41.03886 1.370094,-67.19549 0.456697,-26.15663 0.913395,-55.84167 1.370093,-87.43134 0.456697,-31.58968 0.913395,-65.07051 1.370093,-98.1708 0.456697,-33.10029 0.913395,-65.7837 1.370093,-95.57149 0.456697,-29.78779 0.913395,-56.62765 1.370093,-78.35877 0.456697,-21.73112 0.913395,-38.29593 1.370093,-48.33041 0.456697,-10.03448 0.913395,-13.48752 1.370093,-10.10211 0.456697,3.38541 0.913395,13.64407 1.370093,29.8652 0.456697,16.22114 0.913395,38.41771 1.370093,64.71582 0.456698,26.29811 0.913395,56.68886 1.370093,88.75232 0.456698,32.06345 0.913395,65.77397 1.370093,98.68776 0.456698,32.91378 0.913395,64.99702 1.370093,94.27781 0.456698,29.28078 0.913395,55.7266 1.370093,78.18726 0.456698,22.46067 0.913395,40.91275 1.370093,55.15616 0.456698,14.24342 0.913395,24.26803 1.370093,30.71764 0.456698,6.4496 0.913395,9.32719 1.370093,9.829 0.456698,0.50182 0.913395,-1.35996 1.370093,-4.21912 0.456698,-2.85915 0.913396,-6.70038 1.370093,-10.35118 0.456698,-3.6508 0.913396,-7.09888 1.370093,-9.6169 0.456698,-2.51803 0.913396,-4.10099 1.370093,-4.55384 0.456698,-0.45284 0.913396,0.22084 1.370093,1.76092 0.456698,1.54008 0.913396,3.9361 1.370093,6.66664 0.456698,2.73053 0.913396,5.78217 1.370093,8.60736 0.456698,2.82519 0.913396,5.41211 1.370093,7.38543 0.456698,1.97332 0.913396,3.32641 1.370093,3.96125 0.456698,0.63484 0.913396,0.5515 1.370093,-0.0786 0.456698,-0.63014 0.913396,-1.80115 1.370094,-3.17383 0.456697,-1.37268 0.913395,-2.93805 1.370093,-4.33645 0.456697,-1.3984 0.913395,-2.62138 1.370093,-3.42472 0.456697,-0.80333 0.913395,-1.18213 1.370093,-1.08498 0.456697,0.0972 0.913395,0.67008 1.370093,1.57983 0.456697,0.90976 0.913395,2.15158 1.370093,3.46942 0.456697,1.31784 0.913395,2.70445 1.370093,3.89708 0.456697,1.19262 0.913395,2.18444 1.370093,2.80924 0.456697,0.6248 0.913395,0.87873 1.370093,0.75019 0.456698,-0.12854 0.913395,-0.63915 1.370093,-1.39469 0.456698,-0.75554 0.913395,-1.75172 1.370093,-2.76603 0.456698,-1.0143 0.913395,-2.0404 1.370093,-2.86353 0.456698,-0.82313 0.913395,-1.4375 1.370093,-1.72166 0.456698,-0.28416 0.913395,-0.2351 1.370093,0.13024 0.456698,0.36534 0.913395,1.04605 1.370093,1.89828 0.456698,0.85222 0.913395,1.87156 1.370093,2.84897 0.456698,0.97741 0.913395,1.90676 1.370093,2.60034 0.456698,0.69357 0.913396,1.14597 1.370093,1.26736 0.456698,0.12138 0.913396,-0.0907 1.370093,-0.59189 0.456698,-0.50115 0.913396,-1.28991 1.370093,-2.20552 0.456698,-0.9156 0.913396,-1.95324 1.370093,-2.90132 0.456698,-0.94807 0.913396,-1.80026 1.370093,-2.38111 0.456698,-0.58085 0.913396,-0.88506 1.370093,-0.84725 0.456698,0.0378 0.913396,0.41974 1.370093,1.07033 0.456698,0.65058 0.913396,1.56772 1.370093,2.56125 0.456698,0.99353 0.913396,2.05776 1.370093,2.96228 0.456698,0.90452 0.913396,1.6422 1.370094,2.03704 0.456697,0.39485 0.913395,0.44111 1.370093,0.0947 0.456697,-0.34638 0.913395,-1.08732 1.370093,-2.10719 0.456697,-1.01987 0.913395,-2.31567 1.370093,-3.64871 0.456697,-1.33304 0.913395,-2.69619 1.370093,-3.81861 0.456697,-1.12241 0.913395,-1.99538 1.370093,-2.42855 0.456697,-0.43317 0.913395,-0.41968 1.370093,0.0598 0.456697,0.47944 0.913395,1.42677 1.370093,2.66082 0.456697,1.23404 0.913395,2.75034 1.370093,4.21766 0.456698,1.46732 0.913395,2.87571 1.370093,3.86325 0.456698,0.98755 0.913395,1.542 1.370093,1.41992 0.456698,-0.12207 0.9133953,-0.93064 1.3700929,-2.42747 0.4566977,-1.49682 0.9133954,-3.68518 1.3700931,-6.28115 0.4566977,-2.59597 0.9133953,-5.59356 1.370093,-8.48903 0.4566977,-2.89547 0.9133954,-5.67403 1.3700931,-7.78196 0.4566976,-2.10793 0.9133953,-3.52553 1.370093,-3.87816 0.4566977,-0.35263 0.9133954,0.37792 1.370093,2.17164 0.4566977,1.79372 0.9133954,4.6601 1.37009308,8.06148 0.45669768,3.40138 0.91339536,7.33277 1.37009304,10.76759 0.45669768,3.43481 0.91339538,6.35126 1.37009308,7.43177 0.4566976,1.08051 0.9133953,0.28883 1.370093,-3.65129 0.4566977,-3.94013 0.9133954,-11.07251 1.370093,-22.24675 0.4566977,-11.17423 0.9133954,-26.43182 1.3700931,-45.86453 0.4566977,-19.4327 0.9133953,-43.0693 1.370093,-70.06942 0.4566977,-27.00011 0.9133954,-57.37165 1.370093,-89.39138 0.4566977,-32.01973 0.9133954,-65.67113 1.3700926,-98.62961 0.456698,-32.95849 0.913396,-65.18526 1.370094,-94.21225 0.456697,-29.02698 0.913395,-54.80059 1.370093,-75.23581 0.456697,-20.43522 0.913395,-35.47464 1.370093,-43.88026 0.456697,-8.40562 0.913395,-10.12787 1.370093,-5.05799 0.456697,5.06987 0.913395,16.96417 1.370093,34.63536 0.456697,17.6712 0.913395,41.12943 1.370093,68.40637 0.456697,27.27694 0.913395,58.36123 1.370093,90.80065 0.456697,32.43941 0.913395,66.20678 1.370093,98.89215 0.456697,32.68537 0.913395,64.25459 1.370093,92.82337 0.456698,28.56878 0.913395,54.10539 1.370093,75.57633 0.456698,21.47094 0.913395,38.85431 1.370093,52.06582 0.456698,13.21151 0.913395,22.24276 1.370093,27.82545 0.456698,5.58268 0.913395,7.72121 1.370093,7.65467 0.456698,-0.0666 0.913395,-2.32525 1.370093,-5.41576 0.456698,-3.0905 0.913395,-6.99755 1.370093,-10.59364 0.456698,-3.59608 0.913395,-6.86963 1.370093,-9.15867 0.456698,-2.28903 0.913395,-3.58962 1.370093,-3.77083 0.456698,-0.18121 0.913395,0.75237 1.370093,2.49569 0.456698,1.74332 0.913396,4.28532 1.370093,7.0885 0.456698,2.80318 0.913396,5.85408 1.370093,8.61733 0.456698,2.76325 0.913396,5.22752 1.370093,7.04869 0.456698,1.82117 0.913396,2.99342 1.370093,3.45506 0.456698,0.46165 0.913396,0.21362 1.370093,-0.54471 0.456698,-0.75834 0.913396,-2.02049 1.370093,-3.43631 0.456698,-1.41582 0.913396,-2.9762 1.370093,-4.32932 0.456698,-1.35312 0.913396,-2.49083 1.370093,-3.19033 0.456698,-0.6995 0.913396,-0.95649 1.370094,-0.74515 0.456697,0.21135 0.913395,0.89022 1.370093,1.87786 0.456697,0.98763 0.913395,2.27883 1.370093,3.61037 0.456697,1.33154 0.913395,2.69607 1.370093,3.83787 0.456697,1.14181 0.913395,2.05431 1.370093,2.58869 0.456697,0.53438 0.913395,0.68728 1.370093,0.46735 0.456697,-0.21993 0.913395,-0.81175 1.370093,-1.62323 0.456697,-0.81149 0.913395,-1.83797 1.370093,-2.85259 0.456697,-1.01462 0.913395,-2.01097 1.370093,-2.78185 0.456698,-0.77088 0.913395,-1.31072 1.370093,-1.51401 0.456698,-0.20329 0.913395,-0.0675 1.370093,0.37282 0.456698,0.4403 0.913395,1.1837 1.370093,2.07398 0.456698,0.89029 0.913395,1.92273 1.370093,2.88608 0.456698,0.96336 0.913395,1.85146 1.370093,2.48519 0.456698,0.63373 0.913395,1.00797 1.370093,1.04874 0.456698,0.0408 0.913395,-0.25398 1.370093,-0.82308 0.456698,-0.5691 0.913395,-1.41068 1.370093,-2.35327 0.456698,-0.9426 0.913395,-1.98109 1.370093,-2.90357 0.456698,-0.92247 0.913396,-1.72259 1.370093,-2.23528 0.456698,-0.51268 0.913396,-0.73291 1.370093,-0.61236 0.456698,0.12055 0.913396,0.58347 1.370093,1.29639 0.456698,0.71292 0.913396,1.67319 1.370093,2.68082 0.456698,1.00762 0.913396,2.05659 1.370093,2.9181 0.456698,0.8615 0.913396,1.52842 1.370093,1.83778 0.456698,0.30937 0.913396,0.25578 1.370093,-0.18508 0.456698,-0.44087 0.913396,-1.27035 1.370093,-2.35411 0.456698,-1.08377 0.913396,-2.41821 1.370094,-3.75483 0.456697,-1.33661 0.913395,-2.6679 1.370093,-3.72694 0.456697,-1.05904 0.913395,-1.83715 1.370093,-2.16134 0.456697,-0.32419 0.913395,-0.18808 1.370093,0.40262 0.456697,0.59069 0.913395,1.63714 1.370093,2.935 0.456697,1.29787 0.913395,2.84191 1.370093,4.28943 0.456697,1.44753 0.913395,2.78809 1.370093,3.66639 0.456697,0.87829 0.913395,1.2821 1.370093,0.99263 0.456697,-0.28948 0.913395,-1.28158 1.370093,-2.94269 0.456698,-1.66111 0.913395,-3.99342 1.370093,-6.67959 0.456698,-2.68617 0.913395,-5.719 1.370093,-8.57743 0.456698,-2.85843 0.913395,-5.52677 1.370093,-7.46067 0.456698,-1.93391 0.913395,-3.11346 1.370093,-3.20274 0.456698,-0.0893 0.913391,0.92921 1.370091,2.97482 0.4567,2.04561 0.9134,5.12628 1.3701,8.63815 0.45669,3.51187 0.91339,7.44788 1.37009,10.73096 0.4567,3.28307 0.91339,5.88939 1.37009,6.48631 0.4567,0.59693 0.9134,-0.85317 1.37009,-5.59426 0.4567,-4.74109 0.9134,-12.81728 1.3701,-24.99921 0.45669,-12.18194 0.91339,-28.51009 1.37009,-48.96508 0.4567,-20.45499 0.9134,-45.06336 1.37009,-72.86673 0.4567,-27.80337 0.9134,-58.80667 1.3701,-91.19171 0.45669,-32.38505 0.91339,-66.13228 1.37009,-98.87154 0.4567,-32.73927 0.91339,-64.4294 1.37009,-92.62142 0.4567,-28.19203 0.9134,-52.83122 1.3701,-71.9158 0.45669,-19.08458 0.91339,-32.55749 1.37009,-39.31122 0.4567,-6.75372 0.91339,-6.74043 1.37009,0 0.4567,6.74043 0.9134,20.23766 1.37009,39.31122 0.4567,19.07356 0.9134,43.73075 1.3701,71.9158 0.4567,28.18505 0.91339,59.88422 1.37009,92.62142 0.4567,32.73719 0.9134,66.48384 1.37009,98.87154 0.4567,32.3877 0.9134,63.38209 1.3701,91.19171 0.45669,27.80963 0.91339,52.40362 1.37009,72.86673 0.4567,20.46311 0.9134,36.77502 1.37009,48.96508 0.4567,12.19005 0.9134,20.25158 1.3701,24.99921 0.45669,4.74764 0.91339,6.18715 1.37009,5.59426 0.4567,-0.59288 0.91339,-3.20461 1.37009,-6.48631 0.4567,-3.2817 0.9134,-7.21831 1.37009,-10.73096 0.4567,-3.51265 0.9134,-6.59056 1.3701,-8.63815 0.4567,-2.04758 0.91339,-3.06198 1.37009,-2.97482 0.4567,0.0872 0.9134,1.27029 1.37009,3.20274 0.4567,1.93245 0.9134,4.60261 1.3701,7.46067 0.45669,2.85806 0.91339,5.89059 1.37009,8.57743 0.4567,2.68684 0.9134,5.01719 1.37009,6.67959 0.4567,1.6624 0.9134,2.65186 1.3701,2.94269 0.45669,0.29083 0.91339,-0.11525 1.37009,-0.99263 0.4567,-0.87739 0.91339,-2.21907 1.37009,-3.66639 0.4567,-1.44731 0.9134,-2.99109 1.3701,-4.28943 0.45669,-1.29833 0.91339,-2.34343 1.37009,-2.935 0.4567,-0.59157 0.91339,-0.72593 1.37009,-0.40262 0.4567,0.32331 0.9134,1.10284 1.37009,2.16134 0.4567,1.0585 0.9134,2.39033 1.3701,3.72694 0.4567,1.33661 0.91339,2.67058 1.37009,3.75483 0.4567,1.08425 0.9134,1.91249 1.37009,2.35411 0.4567,0.44161 0.9134,0.49375 1.3701,0.18508 0.45669,-0.30866 0.91339,-0.97665 1.37009,-1.83778 0.4567,-0.86113 0.91339,-1.91039 1.37009,-2.9181 0.4567,-1.00771 0.9134,-1.96742 1.3701,-2.68082 0.45669,-0.7134 0.91339,-1.17518 1.37009,-1.29639 0.4567,-0.12121 0.91339,0.10024 1.37009,0.61236 0.4567,0.51213 0.9134,1.31304 1.37009,2.23528 0.4567,0.92225 0.9134,1.96078 1.3701,2.90357 0.4567,0.94278 0.91339,1.78364 1.37009,2.35327 0.4567,0.56963 0.9134,0.8632 1.37009,0.82308 0.4567,-0.0401 0.9134,-0.4155 1.3701,-1.04874 0.45669,-0.63324 0.91339,-1.52197 1.37009,-2.48519 0.4567,-0.96321 0.9134,-1.99551 1.37009,-2.88608 0.4567,-0.89056 0.9134,-1.63309 1.3701,-2.07398 0.45669,-0.44089 0.91339,-0.57546 1.37009,-0.37282 0.4567,0.20264 0.91339,0.74357 1.37009,1.51401 0.4567,0.77044 0.9134,1.76726 1.3701,2.78185 0.45669,1.01459 0.91339,2.04068 1.37009,2.85259 0.4567,0.81191 0.91339,1.40258 1.37009,1.62323 0.4567,0.22065 0.9134,0.0663 1.37009,-0.46735 0.4567,-0.53365 0.9134,-1.44731 1.3701,-2.58869 0.4567,-1.14137 0.91339,-2.50626 1.37009,-3.83787 0.4567,-1.33162 0.9134,-2.62214 1.37009,-3.61037 0.4567,-0.98824 0.9134,-1.6656 1.3701,-1.87786 0.45669,-0.21225 0.91339,0.0465 1.37009,0.74515 0.4567,0.69865 0.91339,1.83761 1.37009,3.19033 0.4567,1.35272 0.9134,2.91321 1.3701,4.32932 0.45669,1.41612 0.91339,2.67698 1.37009,3.43631 0.4567,0.75932 0.91339,1.00499 1.37009,0.54471 0.4567,-0.46027 0.9134,-1.63514 1.37009,-3.45506 0.4567,-1.81992 0.9134,-4.28599 1.3701,-7.04869 0.4567,-2.76269 0.91339,-5.81364 1.37009,-8.61733 0.4567,-2.80369 0.9134,-5.34361 1.37009,-7.0885 0.4567,-1.74489 0.9134,-2.67473 1.3701,-2.49569 0.45669,0.17905 0.91339,1.48368 1.37009,3.77083 0.4567,2.28716 0.9134,5.56314 1.37009,9.15867 0.4567,3.59553 0.9134,7.50146 1.3701,10.59364 0.45669,3.09219 0.91339,5.34483 1.37009,5.41576 0.4567,0.0709 0.91339,-2.0788 1.37009,-7.65467 0.4567,-5.57588 0.9134,-14.62215 1.3701,-27.82545 0.45669,-13.20329 0.91339,-30.60288 1.37009,-52.06582 0.4567,-21.46295 0.91339,-47.01344 1.37009,-75.57633 0.4567,-28.56289 0.9134,-60.14011 1.37009,-92.82337 0.4567,-32.68326 0.9134,-66.45005 1.3701,-98.89215 0.45669,-32.44211 0.91339,-63.51616 1.37009,-90.80065 0.4567,-27.28449 0.9134,-50.72376 1.37009,-68.40637 0.4567,-17.68261 0.9134,-29.55206 1.3701,-34.63536 0.45669,-5.08331 0.91339,-3.3345 1.37009,5.05799 0.4567,8.39249 0.91339,23.45563 1.37009,43.88026 0.4567,20.42463 0.9134,46.21521 1.3701,75.23581 0.45669,29.0206 0.91339,61.2552 1.37009,94.21225 0.4567,32.95704 0.91339,66.6067 1.37009,98.62961 0.4567,32.02292 0.9134,62.38468 1.37009,89.39138 0.4567,27.00671 0.9134,50.62849 1.3701,70.06942 0.4567,19.44093 0.91339,34.6823 1.37009,45.86453 0.4567,11.18224 0.9134,18.30035 1.37009,22.24675 0.4567,3.94639 0.9134,4.7281 1.3701,3.65129 0.45669,-1.07681 0.91339,-3.99802 1.37009,-7.43177 0.4567,-3.43376 0.9134,-7.36522 1.37009,-10.76759 0.4567,-3.40237 0.9134,-6.26571 1.3701,-8.06148 0.45669,-1.79577 0.91339,-2.52218 1.37009,-2.17164 0.4567,0.35055 0.91339,1.77156 1.37009,3.87816 0.4567,2.1066 0.9134,4.88672 1.37009,7.78196 0.4567,2.89524 0.9134,5.89229 1.3701,8.48903 0.4567,2.59674 0.91339,4.78299 1.37009,6.28115 0.4567,1.49816 0.9134,2.30407 1.37009,2.42747 0.4567,0.1234 0.9134,-0.43321 1.3701,-1.41992 0.45669,-0.98671 0.91339,-2.39604 1.37009,-3.86325 0.4567,-1.46721 0.9134,-2.98308 1.37009,-4.21766 0.4567,-1.23459 0.9134,-2.18048 1.3701,-2.66082 0.45669,-0.48034 0.91339,-0.49207 1.37009,-0.0598 0.4567,0.43231 0.91339,1.30661 1.37009,2.42855 0.4567,1.12194 0.9134,2.48551 1.3701,3.81861 0.45669,1.33311 0.91339,2.62831 1.37009,3.64871 0.4567,1.02041 0.91339,1.76005 1.37009,2.10719 0.4567,0.34714 0.9134,0.29945 1.37009,-0.0947 0.4567,-0.39417 0.9134,-1.13283 1.3701,-2.03704 0.4567,-0.9042 0.91339,-1.96861 1.37009,-2.96228 0.4567,-0.99367 0.9134,-1.91015 1.37009,-2.56125 0.4567,-0.65111 0.9134,-1.03186 1.3701,-1.07033 0.45669,-0.0385 0.91339,0.26693 1.37009,0.84725 0.4567,0.58032 0.9134,1.43322 1.37009,2.38111 0.4567,0.9479 0.9134,1.98548 1.3701,2.90132 0.45669,0.91585 0.91339,1.70381 1.37009,2.20552 0.4567,0.5017 0.91339,0.71263 1.37009,0.59189 0.4567,-0.12075 0.9134,-0.57425 1.37009,-1.26736 0.4567,-0.69311 0.9134,-1.62302 1.3701,-2.60034 0.4567,-0.97732 0.91339,-1.99642 1.37009,-2.84897 0.4567,-0.85256 0.9134,-1.53233 1.37009,-1.89828 0.4567,-0.36595 0.9134,-0.41376 1.3701,-0.13024 0.45669,0.28352 0.91339,0.89892 1.37009,1.72166 0.4567,0.82274 0.9134,1.8492 1.37009,2.86353 0.4567,1.01434 0.9134,2.01002 1.3701,2.76603 0.45669,0.75602 0.91339,1.26541 1.37009,1.39469 0.4567,0.12928 0.91339,-0.1261 1.37009,-0.75019 0.4567,-0.62409 0.9134,-1.61699 1.3701,-2.80924 0.45669,-1.19225 0.91339,-2.5791 1.37009,-3.89708 0.4567,-1.31798 0.91339,-2.55901 1.37009,-3.46942 0.4567,-0.9104 0.9134,-1.48176 1.37009,-1.57983 0.4567,-0.0981 0.9134,0.28246 1.3701,1.08498 0.4567,0.80252 0.91339,2.02664 1.37009,3.42472 0.4567,1.39808 0.9134,2.96337 1.37009,4.33645 0.4567,1.37307 0.9134,2.54263 1.3701,3.17383 0.45669,0.6312 0.91339,0.71208 1.37009,0.0786 0.4567,-0.63344 0.91339,-1.98912 1.37009,-3.96125 0.4567,-1.97214 0.9134,-4.56068 1.3701,-7.38543 0.45669,-2.82475 0.91339,-5.87618 1.37009,-8.60736 0.4567,-2.73119 0.91339,-5.12488 1.37009,-6.66664 0.4567,-1.54175 0.9134,-2.21158 1.37009,-1.76092 0.4567,0.45067 0.9134,2.03759 1.3701,4.55384 0.4567,2.51625 0.91339,5.96642 1.37009,9.6169 0.4567,3.65048 0.9134,7.49001 1.37009,10.35118 0.4567,2.86117 0.9134,4.71622 1.3701,4.21912 0.45669,-0.4971 0.91339,-3.38645 1.37009,-9.829 0.4567,-6.44256 0.9134,-16.48251 1.37009,-30.71764 0.4567,-14.23512 0.9134,-32.70333 1.3701,-55.15616 0.45669,-22.45282 0.91339,-48.91198 1.37009,-78.18726 0.4567,-29.27529 0.91339,-61.36557 1.37009,-94.27781 0.4567,-32.91224 0.9134,-66.62099 1.3701,-98.68776 0.45669,-32.06677 0.91339,-62.4461 1.37009,-88.75232 0.4567,-26.30621 0.91339,-48.4829 1.37009,-64.71582 0.4567,-16.23291 0.9134,-26.46627 1.37009,-29.8652 0.4567,-3.39893 0.9134,0.0806 1.3701,10.10211 0.45669,10.02156 0.91339,26.60943 1.37009,48.33041 0.4567,21.72098 0.9134,48.57677 1.37009,78.35877 0.4567,29.782 0.9134,62.47203 1.3701,95.57149 0.45669,33.09946 0.91339,66.57743 1.37009,98.1708 0.4567,31.59336 0.91339,61.26781 1.37009,87.43134 0.4567,26.16353 0.9134,48.78737 1.3701,67.19549 0.45669,18.40811 0.91339,32.58345 1.37009,42.77455 0.4567,10.19109 0.91339,16.39464 1.37009,19.57534 0.4567,3.1807 0.9134,3.3468 1.37009,1.82871 0.4567,-1.51809 0.9134,-4.70583 1.3701,-8.25361 0.4567,-3.54778 0.91339,-7.44111 1.37009,-10.70829 0.4567,-3.26719 0.9134,-5.89921 1.37009,-7.43488 0.4567,-1.53567 0.9134,-1.9743 1.3701,-1.36693 0.45669,0.60736 0.91339,2.25332 1.37009,4.51835 0.4567,2.26502 0.9134,5.13662 1.37009,8.05151 0.4567,2.9149 0.9134,5.85994 1.3701,8.35378 0.45669,2.49384 0.91339,4.52692 1.37009,5.8565 0.4567,1.32958 0.91339,1.95236 1.37009,1.91271 0.4567,-0.0397 0.9134,-0.73848 1.3701,-1.8243 0.45669,-1.08582 0.91339,-2.55074 1.37009,-4.02632 0.4567,-1.47558 0.91339,-2.95266 1.37009,-4.11511 0.4567,-1.16246 0.9134,-2.00331 1.37009,-2.36993 0.4567,-0.36662 0.9134,-0.25657 1.3701,0.28109 0.45669,0.53766 0.91339,1.50028 1.37009,2.6779 0.4567,1.17762 0.9134,2.5639 1.37009,3.88503 0.4567,1.32113 0.9134,2.5697 1.3701,3.52045 0.45669,0.95076 0.91339,1.59808 1.37009,1.84967 0.4567,0.25159 0.91339,0.10566 1.37009,-0.37026 0.4567,-0.47592 0.9134,-1.27933 1.3701,-2.21979 0.45669,-0.94046 0.91339,-2.01236 1.37009,-2.98501 0.4567,-0.97264 0.91339,-1.83962 1.37009,-2.42408 0.4567,-0.58446 0.9134,-0.88175 1.37009,-0.8374 0.4567,0.0444 0.9134,0.43145 1.3701,1.07589 0.4567,0.64445 0.91339,1.54346 1.37009,2.51053 0.4567,0.96708 0.9134,1.99668 1.37009,2.8794 0.4567,0.88273 0.9134,1.6125 1.3701,2.04291 0.45669,0.43041 0.91339,0.55729 1.37009,0.35673 0.4567,-0.20056 0.9134,-0.72914 1.37009,-1.47747 0.4567,-0.74832 0.9134,-1.71314 1.3701,-2.69795 0.45669,-0.98481 0.91339,-1.98377 1.37009,-2.79245 0.4567,-0.80868 0.91339,-1.42096 1.37009,-1.70932 0.4567,-0.28836 0.9134,-0.24889 1.37009,0.11374 0.4567,0.36263 0.9134,1.04843 1.3701,1.91785 0.4567,0.86942 0.91339,1.91838 1.37009,2.92518 0.4567,1.0068 0.9134,1.9647 1.37009,2.65885 0.4567,0.69414 0.9134,1.11773 1.3701,1.15356 0.45669,0.0358 0.91339,-0.32017 1.37009,-1.03173 0.4567,-0.71157 0.9134,-1.77817 1.37009,-3.01416 0.4567,-1.23599 0.9134,-2.63608 1.3701,-3.9318 0.45669,-1.29572 0.91339,-2.47876 1.37009,-3.30475 0.4567,-0.826 0.91339,-1.28673 1.37009,-1.26914 0.4567,0.0176 0.9134,0.51823 1.3701,1.41975 0.45669,0.90153 0.91339,2.20274 1.37009,3.63618 0.4567,1.43345 0.91339,2.99167 1.37009,4.3101 0.4567,1.31843 0.9134,2.38547 1.37009,2.88003 0.4567,0.49456 0.9134,0.40494 1.3701,-0.40298 0.4567,-0.80793 0.91339,-2.34126 1.37009,-4.45788 0.4567,-2.11662 0.9134,-4.81532 1.37009,-7.68693 0.4567,-2.87162 0.9134,-5.90547 1.3701,-8.54644 0.45669,-2.64097 0.91339,-4.87113 1.37009,-6.19662 0.4567,-1.32548 0.91339,-1.72643 1.37009,-1.00263 0.4567,0.7238 0.9134,2.58707 1.3701,5.31786 0.45669,2.73078 0.91339,6.33187 1.37009,10.0068 0.4567,3.67492 0.91339,7.4103 1.37009,9.99947 0.4567,2.58918 0.9134,4.00255 1.37009,2.89598 0.4567,-1.10656 0.9134,-4.77418 1.3701,-12.11317 0.4567,-7.339 0.91339,-18.39338 1.37009,-33.66752 0.4567,-15.27414 0.9134,-34.80442 1.37009,-58.2253 0.4567,-23.42087 0.9134,-50.75146 1.3701,-80.68872 0.45669,-29.93726 0.91339,-62.47697 1.37009,-95.54701 0.4567,-33.07004 0.9134,-66.64209 1.37009,-98.25536 0.4567,-31.61326 0.9134,-61.22032 1.3701,-86.47962 0.45669,-25.2593 0.91339,-46.11385 1.37009,-60.8531 0.4567,-14.73925 0.91339,-23.30835 1.37009,-25.01355 0.4567,-1.70521 0.9134,3.49532 1.3701,15.11853 0.45669,11.62321 0.91339,29.69057 1.37009,52.64998 0.4567,22.95941 0.91339,50.80982 1.37009,81.27775 0.4567,30.46792 0.9134,63.53312 1.37009,96.69833 0.4567,33.16521 0.9134,66.39857 1.3701,97.50015 0.45669,31.10159 0.91339,60.03733 1.37009,85.321 0.4567,25.28366 0.9134,46.8877 1.37009,64.25605 0.4567,17.36836 0.9134,30.48569 1.3701,39.70525 0.45669,9.21957 0.91339,14.53971 1.37009,16.99184 0.4567,2.45213 0.91339,2.0456 1.37009,0.12887 0.4567,-1.91672 0.9134,-5.32875 1.3701,-8.9538 0.45669,-3.62504 0.91339,-7.44904 1.37009,-10.55814 0.4567,-3.10911 0.91339,-5.49525 1.37009,-6.76458 0.4567,-1.26933 0.9134,-1.42228 1.37009,-0.56619 0.4567,0.85609 0.9134,2.71298 1.3701,5.12006 0.4567,2.40709 0.91339,5.35154 1.37009,8.26884 0.4567,2.91729 0.9134,5.7945 1.37009,8.17355 0.4567,2.37904 0.9134,4.25104 1.3701,5.40886 0.45669,1.15783 0.91339,1.59903 1.37009,1.40164 0.4567,-0.1974 0.9134,-1.0294 1.37009,-2.20368 0.4567,-1.17428 0.9134,-2.6826 1.3701,-4.15522 0.45669,-1.47261 0.91339,-2.90045 1.37009,-3.98303 0.4567,-1.08257 0.91339,-1.81338 1.37009,-2.06458 0.4567,-0.2512 0.9134,-0.021 1.3701,0.61766 0.45669,0.63868 0.91339,1.68265 1.37009,2.90791 0.4567,1.22525 0.91339,2.62515 1.37009,3.926 0.4567,1.30086 0.9134,2.49533 1.37009,3.37114 0.4567,0.87581 0.9134,1.42774 1.3701,1.58335 0.45669,0.15561 0.91339,-0.0863 1.37009,-0.63972 0.4567,-0.55339 0.9134,-1.41525 1.37009,-2.38496 0.4567,-0.96972 0.9134,-2.04146 1.3701,-2.98628 0.45669,-0.94482 0.91339,-1.75642 1.37009,-2.27035 0.4567,-0.51393 0.91339,-0.72591 1.37009,-0.59922 0.4567,0.1267 0.9134,0.59268 1.3701,1.29676 0.45669,0.70408 0.91339,1.64301 1.37009,2.62268 0.4567,0.97968 0.91339,1.99434 1.37009,2.83798 0.4567,0.84365 0.9134,1.51033 1.37009,1.86655 0.4567,0.35623 0.9134,0.3982 1.3701,0.11918 0.4567,-0.27902 0.91339,-0.87914 1.37009,-1.67765 0.4567,-0.7985 0.9134,-1.79172 1.37009,-2.77735 0.4567,-0.98562 0.9134,-1.95762 1.3701,-2.71686 0.45669,-0.75923 0.91339,-1.29972 1.37009,-1.50837 0.4567,-0.20865 0.9134,-0.082 1.37009,0.35745 0.4567,0.43942 0.9134,1.19105 1.3701,2.10119"
       style="opacity:1;fill:#ffffff;fill-opacity:1;stroke:#d40000;stroke-width:3.0924437;stroke-linecap:round;stroke-linejoin:round;stroke-miterlimit:4;stroke-dasharray:none;stroke-dashoffset:0;stroke-opacity:1"
       inkscape:connector-curvature="0"
       transform="matrix(0.58577343,0,0,0.49598977,244.52127,135.27372)"
       sodipodi:nodetypes="csssssssccscccscsccsscccccsccscccscccccsccscccccccscccccsccsscsscsscsssssscssssssssscsscccccscssccccccsccsscssccscccccsccssccccccsccsccsccsscsssssssssssssssssscssscscssccsscccsccsscssscsccccccccssccssccccscccsssssssssssssssssssssssssscssssssssccsscccsccscssscccscscccscccccccsscccccsssccscscccsssssssssssssscccscccccscccccsscssccsscscccscccccsscsscccccssccccssccscccsssssssscssssssssccscccscssccscccsccsccsccscccccscccsccsscsccsscccccscsssccssssssssccsssssssscssccsccsccscccsccssccscccccsccsscsscccccccccsccscccscsscssssssssccsssssscsccsscssccccccsccccccccscccccscccscc" />
    <g
       id="g3575">
      <text
         id="text6089-1-8"
         y="351.70938"
         x="49.578201"
         style="font-style:normal;font-variant:normal;font-weight:normal;font-stretch:normal;line-height:0%;font-family:'Nimbus Sans L';-inkscape-font-specification:Sans;letter-spacing:0px;word-spacing:0px;fill:#000000;fill-opacity:1;stroke:none;stroke-width:1px;stroke-linecap:butt;stroke-linejoin:miter;stroke-opacity:1"
         xml:space="preserve"><tspan
           style="font-size:16.25px;line-height:1.25"
           y="351.70938"
           x="49.578201"
           id="tspan6091-2-7"
           sodipodi:role="line">$P$</tspan></text>
      <text
         id="text6089-4-7-9"
         y="628.17639"
         x="542.70319"
         style="font-style:normal;font-variant:normal;font-weight:normal;font-stretch:normal;line-height:0%;font-family:'Nimbus Sans L';-inkscape-font-specification:Sans;letter-spacing:0px;word-spacing:0px;fill:#000000;fill-opacity:1;stroke:none;stroke-width:1px;stroke-linecap:butt;stroke-linejoin:miter;stroke-opacity:1"
         xml:space="preserve"><tspan
           style="font-size:16.25px;line-height:1.25"
           y="628.17639"
           x="542.70319"
           id="tspan6091-7-0-2"
           sodipodi:role="line">$t$</tspan></text>
    </g>
  </g>
</svg>
