<?xml version="1.0" encoding="UTF-8" standalone="no"?>
<!-- Created with Inkscape (http://www.inkscape.org/) -->

<svg
   xmlns:dc="http://purl.org/dc/elements/1.1/"
   xmlns:cc="http://creativecommons.org/ns#"
   xmlns:rdf="http://www.w3.org/1999/02/22-rdf-syntax-ns#"
   xmlns:svg="http://www.w3.org/2000/svg"
   xmlns="http://www.w3.org/2000/svg"
   xmlns:sodipodi="http://sodipodi.sourceforge.net/DTD/sodipodi-0.dtd"
   xmlns:inkscape="http://www.inkscape.org/namespaces/inkscape"
   width="142.72137mm"
   height="57.621784mm"
   viewBox="0 0 505.70569 204.17167"
   id="svg4471"
   version="1.1"
   inkscape:version="0.92.3 (2405546, 2018-03-11)"
   sodipodi:docname="06_svetlost.svg">
  <defs
     id="defs4473">
    <marker
       inkscape:stockid="Arrow1Mstart"
       orient="auto"
       refY="0"
       refX="0"
       id="marker1316"
       style="overflow:visible"
       inkscape:isstock="true">
      <path
         id="path1003"
         d="M 0,0 5,-5 -12.5,0 5,5 Z"
         style="fill:#ffa500;fill-opacity:1;fill-rule:evenodd;stroke:#ffa500;stroke-width:1.00000003pt;stroke-opacity:1"
         transform="matrix(0.4,0,0,0.4,4,0)"
         inkscape:connector-curvature="0" />
    </marker>
    <marker
       inkscape:stockid="Arrow1Sstart"
       orient="auto"
       refY="0"
       refX="0"
       id="Arrow1Sstart"
       style="overflow:visible"
       inkscape:isstock="true">
      <path
         id="path1009"
         d="M 0,0 5,-5 -12.5,0 5,5 Z"
         style="fill:#ffa500;fill-opacity:1;fill-rule:evenodd;stroke:#ffa500;stroke-width:1.00000003pt;stroke-opacity:1"
         transform="matrix(0.2,0,0,0.2,1.2,0)"
         inkscape:connector-curvature="0" />
    </marker>
    <marker
       inkscape:stockid="Arrow1Mend"
       orient="auto"
       refY="0"
       refX="0"
       id="Arrow1Mend"
       style="overflow:visible"
       inkscape:isstock="true">
      <path
         id="path5178"
         d="M 0,0 5,-5 -12.5,0 5,5 Z"
         style="fill:#737373;fill-opacity:1;fill-rule:evenodd;stroke:#000000;stroke-width:1.00000003pt;stroke-opacity:1"
         transform="matrix(-0.4,0,0,-0.4,-4,0)"
         inkscape:connector-curvature="0" />
    </marker>
    <marker
       inkscape:stockid="Arrow1Mstart"
       orient="auto"
       refY="0"
       refX="0"
       id="Arrow1Mstart"
       style="overflow:visible">
      <path
         id="path5117"
         d="M 0,0 5,-5 -12.5,0 5,5 Z"
         style="fill-rule:evenodd;stroke:#000000;stroke-width:1.00000003pt;marker-start:none"
         transform="matrix(0.4,0,0,0.4,4,0)"
         inkscape:connector-curvature="0" />
    </marker>
    <marker
       inkscape:stockid="Arrow1Mstart"
       orient="auto"
       refY="0"
       refX="0"
       id="marker4424"
       style="overflow:visible">
      <path
         id="path4426"
         d="M 0,0 5,-5 -12.5,0 5,5 Z"
         style="fill-rule:evenodd;stroke:#000000;stroke-width:1.00000003pt;marker-start:none"
         transform="matrix(0.4,0,0,0.4,4,0)"
         inkscape:connector-curvature="0" />
    </marker>
    <marker
       inkscape:stockid="Arrow1Mstart"
       orient="auto"
       refY="0"
       refX="0"
       id="marker4428"
       style="overflow:visible">
      <path
         id="path4430"
         d="M 0,0 5,-5 -12.5,0 5,5 Z"
         style="fill-rule:evenodd;stroke:#000000;stroke-width:1.00000003pt;marker-start:none"
         transform="matrix(0.4,0,0,0.4,4,0)"
         inkscape:connector-curvature="0" />
    </marker>
    <marker
       inkscape:stockid="Arrow1Mstart"
       orient="auto"
       refY="0"
       refX="0"
       id="marker4432"
       style="overflow:visible">
      <path
         id="path4434"
         d="M 0,0 5,-5 -12.5,0 5,5 Z"
         style="fill-rule:evenodd;stroke:#000000;stroke-width:1.00000003pt;marker-start:none"
         transform="matrix(0.4,0,0,0.4,4,0)"
         inkscape:connector-curvature="0" />
    </marker>
    <marker
       inkscape:stockid="Arrow1Mstart"
       orient="auto"
       refY="0"
       refX="0"
       id="marker4436"
       style="overflow:visible">
      <path
         id="path4438"
         d="M 0,0 5,-5 -12.5,0 5,5 Z"
         style="fill-rule:evenodd;stroke:#000000;stroke-width:1.00000003pt;marker-start:none"
         transform="matrix(0.4,0,0,0.4,4,0)"
         inkscape:connector-curvature="0" />
    </marker>
    <marker
       inkscape:stockid="Arrow1Mstart"
       orient="auto"
       refY="0"
       refX="0"
       id="marker1316-5"
       style="overflow:visible"
       inkscape:isstock="true">
      <path
         inkscape:connector-curvature="0"
         id="path1003-3"
         d="M 0,0 5,-5 -12.5,0 5,5 Z"
         style="fill:#ffa500;fill-opacity:1;fill-rule:evenodd;stroke:#ffa500;stroke-width:1.00000003pt;stroke-opacity:1"
         transform="matrix(0.4,0,0,0.4,4,0)" />
    </marker>
    <marker
       inkscape:stockid="Arrow1Mstart"
       orient="auto"
       refY="0"
       refX="0"
       id="marker1316-5-6"
       style="overflow:visible"
       inkscape:isstock="true">
      <path
         inkscape:connector-curvature="0"
         id="path1003-3-2"
         d="M 0,0 5,-5 -12.5,0 5,5 Z"
         style="fill:#ffa500;fill-opacity:1;fill-rule:evenodd;stroke:#ffa500;stroke-width:1.00000003pt;stroke-opacity:1"
         transform="matrix(0.4,0,0,0.4,4,0)" />
    </marker>
    <marker
       inkscape:stockid="Arrow1Mstart"
       orient="auto"
       refY="0"
       refX="0"
       id="marker1316-5-6-1"
       style="overflow:visible"
       inkscape:isstock="true">
      <path
         inkscape:connector-curvature="0"
         id="path1003-3-2-2"
         d="M 0,0 5,-5 -12.5,0 5,5 Z"
         style="fill:#ffa500;fill-opacity:1;fill-rule:evenodd;stroke:#ffa500;stroke-width:1.00000003pt;stroke-opacity:1"
         transform="matrix(0.4,0,0,0.4,4,0)" />
    </marker>
    <marker
       inkscape:stockid="Arrow1Mstart"
       orient="auto"
       refY="0"
       refX="0"
       id="marker1316-7"
       style="overflow:visible"
       inkscape:isstock="true">
      <path
         inkscape:connector-curvature="0"
         id="path1003-0"
         d="M 0,0 5,-5 -12.5,0 5,5 Z"
         style="fill:#ffa500;fill-opacity:1;fill-rule:evenodd;stroke:#ffa500;stroke-width:1.00000003pt;stroke-opacity:1"
         transform="matrix(0.4,0,0,0.4,4,0)" />
    </marker>
    <marker
       inkscape:stockid="Arrow1Mstart"
       orient="auto"
       refY="0"
       refX="0"
       id="marker1316-5-9"
       style="overflow:visible"
       inkscape:isstock="true">
      <path
         inkscape:connector-curvature="0"
         id="path1003-3-3"
         d="M 0,0 5,-5 -12.5,0 5,5 Z"
         style="fill:#ffa500;fill-opacity:1;fill-rule:evenodd;stroke:#ffa500;stroke-width:1.00000003pt;stroke-opacity:1"
         transform="matrix(0.4,0,0,0.4,4,0)" />
    </marker>
    <marker
       inkscape:stockid="Arrow1Mstart"
       orient="auto"
       refY="0"
       refX="0"
       id="marker1316-5-6-2"
       style="overflow:visible"
       inkscape:isstock="true">
      <path
         inkscape:connector-curvature="0"
         id="path1003-3-2-6"
         d="M 0,0 5,-5 -12.5,0 5,5 Z"
         style="fill:#ffa500;fill-opacity:1;fill-rule:evenodd;stroke:#ffa500;stroke-width:1.00000003pt;stroke-opacity:1"
         transform="matrix(0.4,0,0,0.4,4,0)" />
    </marker>
    <marker
       inkscape:stockid="Arrow1Mstart"
       orient="auto"
       refY="0"
       refX="0"
       id="marker1316-5-8"
       style="overflow:visible"
       inkscape:isstock="true">
      <path
         inkscape:connector-curvature="0"
         id="path1003-3-7"
         d="M 0,0 5,-5 -12.5,0 5,5 Z"
         style="fill:#ffa500;fill-opacity:1;fill-rule:evenodd;stroke:#ffa500;stroke-width:1.00000003pt;stroke-opacity:1"
         transform="matrix(0.4,0,0,0.4,4,0)" />
    </marker>
    <marker
       inkscape:stockid="Arrow1Mstart"
       orient="auto"
       refY="0"
       refX="0"
       id="marker1316-5-6-2-0"
       style="overflow:visible"
       inkscape:isstock="true">
      <path
         inkscape:connector-curvature="0"
         id="path1003-3-2-6-2"
         d="M 0,0 5,-5 -12.5,0 5,5 Z"
         style="fill:#ffa500;fill-opacity:1;fill-rule:evenodd;stroke:#ffa500;stroke-width:1.00000003pt;stroke-opacity:1"
         transform="matrix(0.4,0,0,0.4,4,0)" />
    </marker>
    <marker
       inkscape:stockid="Arrow1Mstart"
       orient="auto"
       refY="0"
       refX="0"
       id="marker1316-5-8-3"
       style="overflow:visible"
       inkscape:isstock="true">
      <path
         inkscape:connector-curvature="0"
         id="path1003-3-7-7"
         d="M 0,0 5,-5 -12.5,0 5,5 Z"
         style="fill:#ffa500;fill-opacity:1;fill-rule:evenodd;stroke:#ffa500;stroke-width:1.00000003pt;stroke-opacity:1"
         transform="matrix(0.4,0,0,0.4,4,0)" />
    </marker>
  </defs>
  <sodipodi:namedview
     id="base"
     pagecolor="#ffffff"
     bordercolor="#666666"
     borderopacity="1.0"
     inkscape:pageopacity="0.0"
     inkscape:pageshadow="2"
     inkscape:zoom="3.0282561"
     inkscape:cx="410.31118"
     inkscape:cy="108.89156"
     inkscape:document-units="px"
     inkscape:current-layer="layer1"
     showgrid="false"
     fit-margin-top="0"
     fit-margin-left="0"
     fit-margin-right="0"
     fit-margin-bottom="0"
     inkscape:window-width="1217"
     inkscape:window-height="705"
     inkscape:window-x="701"
     inkscape:window-y="93"
     inkscape:window-maximized="0" />
  <metadata
     id="metadata4476">
    <rdf:RDF>
      <cc:Work
         rdf:about="">
        <dc:format>image/svg+xml</dc:format>
        <dc:type
           rdf:resource="http://purl.org/dc/dcmitype/StillImage" />
        <dc:title />
      </cc:Work>
    </rdf:RDF>
  </metadata>
  <g
     inkscape:label="Layer 1"
     inkscape:groupmode="layer"
     id="layer1"
     transform="translate(263.20004,-567.71432)">
    <g
       id="g7473"
       transform="matrix(0,0.45343328,-0.45343328,0,677.78566,441.01129)"
       style="stroke:#000000;stroke-width:4.13511753;stroke-miterlimit:4;stroke-dasharray:16.54047096, 8.27023548;stroke-dashoffset:0;stroke-opacity:1" />
    <rect
       style="fill:#cccccc;stroke:#000000;stroke-width:1.31571996;stroke-linecap:round;stroke-linejoin:round;stroke-miterlimit:4;stroke-dasharray:none;stroke-dashoffset:0;stroke-opacity:1"
       id="rect1368"
       width="60.28389"
       height="164.53151"
       x="57.993786"
       y="619.3479"
       transform="matrix(0.90259528,-0.43049013,0,1,0,0)" />
    <path
       style="color:#000000;fill:#ffffff;stroke:#000000;stroke-width:1.25;stroke-linecap:round;stroke-linejoin:round;stroke-miterlimit:4;stroke-dasharray:none;stroke-dashoffset:0;stroke-opacity:1;marker:none"
       d="m 94.81653,670.93329 c 0,4.40257 -0.41201,8.59678 -1.15707,12.4116 -0.74507,3.81483 -1.8232,7.25031 -3.15544,10.13546 -1.33224,2.88515 -2.91861,5.21997 -4.68014,6.83351 -1.76153,1.6135 -3.69823,2.50577 -5.73117,2.50577 -2.03293,0 -3.96964,-0.89227 -5.73117,-2.50581 -1.76154,-1.6135 -3.34789,-3.94832 -4.68014,-6.83347 -1.33224,-2.88515 -2.41037,-6.32063 -3.15543,-10.13546 -0.74507,-3.81482 -1.15708,-8.00903 -1.15708,-12.4116 0,-4.40261 0.412,-8.59677 1.15707,-12.4116 0.74506,-3.81482 1.82319,-7.25031 3.15544,-10.13546 1.33224,-2.88515 2.9186,-5.21997 4.68013,-6.83351 1.76154,-1.61354 3.69824,-2.50581 5.73118,-2.50581 2.03294,0 3.96964,0.89227 5.73118,2.50581 1.76153,1.6135 3.34789,3.94836 4.68014,6.83351 1.33224,2.88515 2.41037,6.32059 3.15543,10.13546 0.74507,3.81483 1.15707,8.00899 1.15707,12.4116 z"
       id="shapes-f09.svgpath1932"
       inkscape:connector-curvature="0"
       sodipodi:nodetypes="sssssssssssssssss" />
    <path
       id="path4910"
       d="m -140.44018,579.17956 -51.8986,28.39264"
       style="fill:none;fill-opacity:1;fill-rule:evenodd;stroke:#ffa500;stroke-width:2.12531257;stroke-linecap:round;stroke-linejoin:round;stroke-miterlimit:4;stroke-dasharray:none;stroke-opacity:1;marker-start:url(#marker1316)"
       sodipodi:nodetypes="cc"
       inkscape:connector-curvature="0" />
    <path
       style="color:#000000;fill:#ffd386;fill-opacity:1;stroke:#ffa500;stroke-width:2.8125;stroke-linecap:round;stroke-linejoin:round;stroke-miterlimit:4;stroke-dasharray:none;stroke-dashoffset:0;stroke-opacity:1;marker:none"
       d="m -193.02081,670.93335 c 0,10.2819 -0.96222,20.0772 -2.70226,28.98645 -1.74006,8.90928 -4.25796,16.93261 -7.36932,23.67069 -3.11135,6.73807 -6.81621,12.19088 -10.93015,15.9592 -4.11393,3.76822 -8.63696,5.85206 -13.38476,5.85206 -4.74777,0 -9.27083,-2.08384 -13.38476,-5.85215 -4.11396,-3.76823 -7.81877,-9.22104 -10.93015,-15.95911 -3.11136,-6.73808 -5.62926,-14.76141 -7.3693,-23.67069 -1.74006,-8.90925 -2.70228,-18.70455 -2.70228,-28.98645 0,-10.282 0.9622,-20.07718 2.70226,-28.98646 1.74004,-8.90925 4.25794,-16.93261 7.36932,-23.67068 3.11136,-6.73807 6.81619,-12.19089 10.93013,-15.9592 4.11395,-3.76832 8.63699,-5.85215 13.38478,-5.85215 4.7478,0 9.27083,2.08383 13.38479,5.85215 4.11393,3.76822 7.81877,9.22113 10.93015,15.9592 3.11135,6.73807 5.62925,14.76131 7.36929,23.67068 1.74006,8.90928 2.70226,18.70446 2.70226,28.98646 z"
       id="shapes-f09.svgpath1932-3"
       inkscape:connector-curvature="0"
       sodipodi:nodetypes="sssssssssssssssss" />
    <path
       id="path7475"
       d="M 239.25683,670.64513 H -221.37306"
       style="fill:#737373;fill-opacity:1;fill-rule:evenodd;stroke:#000000;stroke-width:1.40625;stroke-linecap:round;stroke-linejoin:round;stroke-miterlimit:4;stroke-dasharray:5.625, 2.8125;stroke-dashoffset:0;stroke-opacity:1;marker-start:url(#Arrow1Mstart)"
       sodipodi:nodetypes="cc"
       inkscape:connector-curvature="0" />
    <path
       id="path4910-5"
       d="m -126.36476,623.70527 -57.47876,13.99284"
       style="fill:none;fill-opacity:1;fill-rule:evenodd;stroke:#ffa500;stroke-width:2.12531281;stroke-linecap:round;stroke-linejoin:round;stroke-miterlimit:4;stroke-dasharray:none;stroke-opacity:1;marker-start:url(#marker1316-5)"
       sodipodi:nodetypes="cc"
       inkscape:connector-curvature="0" />
    <path
       id="path4910-5-9"
       d="m -123.29144,670.58351 -59.14185,-0.0983"
       style="fill:none;fill-opacity:1;fill-rule:evenodd;stroke:#ffa500;stroke-width:2.12531304;stroke-linecap:round;stroke-linejoin:round;stroke-miterlimit:4;stroke-dasharray:none;stroke-opacity:1;marker-start:url(#marker1316-5-6)"
       sodipodi:nodetypes="cc"
       inkscape:connector-curvature="0" />
    <path
       id="path4910-6"
       d="m -140.44018,762.68338 -51.8986,-28.39264"
       style="fill:none;fill-opacity:1;fill-rule:evenodd;stroke:#ffa500;stroke-width:2.12531281;stroke-linecap:round;stroke-linejoin:round;stroke-miterlimit:4;stroke-dasharray:none;stroke-opacity:1;marker-start:url(#marker1316-7)"
       sodipodi:nodetypes="cc"
       inkscape:connector-curvature="0" />
    <path
       id="path4910-5-0"
       d="m -126.36476,718.15767 -57.47876,-13.99284"
       style="fill:none;fill-opacity:1;fill-rule:evenodd;stroke:#ffa500;stroke-width:2.12531304;stroke-linecap:round;stroke-linejoin:round;stroke-miterlimit:4;stroke-dasharray:none;stroke-opacity:1;marker-start:url(#marker1316-5-9)"
       sodipodi:nodetypes="cc"
       inkscape:connector-curvature="0" />
    <path
       id="path4910-5-9-1"
       d="m 183.15577,670.71617 -59.14185,-0.0983"
       style="fill:none;fill-opacity:1;fill-rule:evenodd;stroke:#ffa500;stroke-width:2.12531304;stroke-linecap:round;stroke-linejoin:round;stroke-miterlimit:4;stroke-dasharray:none;stroke-opacity:1;marker-start:url(#marker1316-5-6-2)"
       sodipodi:nodetypes="cc"
       inkscape:connector-curvature="0" />
    <path
       id="path4910-5-92"
       d="m 181.77001,640.41778 -58.82247,6.28694"
       style="fill:none;fill-opacity:1;fill-rule:evenodd;stroke:#ffa500;stroke-width:2.12531304;stroke-linecap:round;stroke-linejoin:round;stroke-miterlimit:4;stroke-dasharray:none;stroke-opacity:1;marker-start:url(#marker1316-5-8)"
       sodipodi:nodetypes="cc"
       inkscape:connector-curvature="0" />
    <path
       id="path4910-5-92-9"
       d="m 180.87748,700.69899 -58.82247,-6.28694"
       style="fill:none;fill-opacity:1;fill-rule:evenodd;stroke:#ffa500;stroke-width:2.12531304;stroke-linecap:round;stroke-linejoin:round;stroke-miterlimit:4;stroke-dasharray:none;stroke-opacity:1;marker-start:url(#marker1316-5-8-3)"
       sodipodi:nodetypes="cc"
       inkscape:connector-curvature="0" />
    <text
       xml:space="preserve"
       style="font-style:normal;font-variant:normal;font-weight:normal;font-stretch:normal;line-height:0%;font-family:'Nimbus Sans L';-inkscape-font-specification:Sans;letter-spacing:0px;word-spacing:0px;fill:#000000;fill-opacity:1;stroke:none"
       x="49.510841"
       y="770.41901"
       id="text3934-6"><tspan
         sodipodi:role="line"
         id="tspan3936-2"
         x="49.510841"
         y="770.41901"
         style="font-style:italic;font-variant:normal;font-weight:normal;font-stretch:normal;font-size:16px;line-height:1.25;font-family:'Nimbus Roman No9 L';-inkscape-font-specification:'Nimbus Roman No9 L Italic'">$z$</tspan></text>
    <text
       xml:space="preserve"
       style="font-style:normal;font-variant:normal;font-weight:normal;font-stretch:normal;line-height:0%;font-family:'Nimbus Sans L';-inkscape-font-specification:Sans;letter-spacing:0px;word-spacing:0px;fill:#000000;fill-opacity:1;stroke:none"
       x="-231.94511"
       y="626.966"
       id="text3934-6-7"><tspan
         sodipodi:role="line"
         id="tspan3936-2-1"
         x="-231.94511"
         y="626.966"
         style="font-style:normal;font-variant:normal;font-weight:normal;font-stretch:normal;font-size:16px;line-height:1.25;font-family:'Nimbus Sans L';-inkscape-font-specification:'Nimbus Sans L'">$S_0$</tspan></text>
    <text
       xml:space="preserve"
       style="font-style:normal;font-variant:normal;font-weight:normal;font-stretch:normal;font-size:12px;line-height:0%;font-family:'Nimbus Sans L';-inkscape-font-specification:Sans;letter-spacing:0px;word-spacing:0px;fill:#000000;fill-opacity:1;stroke:none;stroke-width:1.00000012"
       x="76.786674"
       y="632.82275"
       id="text3934-6-7-6"><tspan
         sodipodi:role="line"
         id="tspan3936-2-1-7"
         x="76.786674"
         y="632.82275"
         style="font-style:normal;font-variant:normal;font-weight:normal;font-stretch:normal;font-size:16.00000191px;line-height:1.25;font-family:'Nimbus Sans L';-inkscape-font-specification:'Nimbus Sans L';stroke-width:1.00000012">$S_c$</tspan></text>
    <text
       xml:space="preserve"
       style="font-style:normal;font-variant:normal;font-weight:normal;font-stretch:normal;font-size:15.234375px;line-height:125%;font-family:'Nimbus Sans L';-inkscape-font-specification:Sans;letter-spacing:0px;word-spacing:0px;fill:#000000;fill-opacity:1;stroke:none;stroke-width:0.9375px;stroke-linecap:butt;stroke-linejoin:miter;stroke-opacity:1"
       x="67.540276"
       y="667.10278"
       id="text5570"><tspan
         sodipodi:role="line"
         id="tspan5568"
         x="67.540276"
         y="667.10278"
         style="stroke-width:0.9375px">$\Delta\Omega$</tspan></text>
  </g>
</svg>
