<?xml version="1.0" encoding="UTF-8" standalone="no"?>
<!-- Created with Inkscape (http://www.inkscape.org/) -->

<svg
   xmlns:dc="http://purl.org/dc/elements/1.1/"
   xmlns:cc="http://creativecommons.org/ns#"
   xmlns:rdf="http://www.w3.org/1999/02/22-rdf-syntax-ns#"
   xmlns:svg="http://www.w3.org/2000/svg"
   xmlns="http://www.w3.org/2000/svg"
   xmlns:sodipodi="http://sodipodi.sourceforge.net/DTD/sodipodi-0.dtd"
   xmlns:inkscape="http://www.inkscape.org/namespaces/inkscape"
   sodipodi:docname="06_stacio.svg"
   inkscape:version="0.92.3 (2405546, 2018-03-11)"
   version="1.1"
   id="svg2"
   viewBox="0 0 748.9499 186.23378"
   height="52.559315mm"
   width="211.3703mm">
  <sodipodi:namedview
     fit-margin-bottom="0"
     fit-margin-right="0"
     fit-margin-left="0"
     fit-margin-top="0"
     inkscape:window-maximized="0"
     inkscape:window-y="144"
     inkscape:window-x="366"
     inkscape:window-height="854"
     inkscape:window-width="1551"
     showgrid="false"
     inkscape:current-layer="layer1"
     inkscape:document-units="px"
     inkscape:cy="-7.0398959"
     inkscape:cx="489.0058"
     inkscape:zoom="1.3802615"
     inkscape:pageshadow="2"
     inkscape:pageopacity="0.0"
     borderopacity="1.0"
     bordercolor="#666666"
     pagecolor="#ffffff"
     id="base" />
  <defs
     id="defs4">
    <marker
       inkscape:isstock="true"
       style="overflow:visible"
       id="marker5248"
       refX="0"
       refY="0"
       orient="auto"
       inkscape:stockid="Arrow1Mend">
      <path
         inkscape:connector-curvature="0"
         transform="matrix(-0.4,0,0,-0.4,-4,0)"
         style="fill:#000000;fill-opacity:1;fill-rule:evenodd;stroke:#000000;stroke-width:1.00000003pt;stroke-opacity:1"
         d="M 0,0 5,-5 -12.5,0 5,5 Z"
         id="path5250" />
    </marker>
    <marker
       inkscape:isstock="true"
       style="overflow:visible"
       id="Arrow1Mend"
       refX="0"
       refY="0"
       orient="auto"
       inkscape:stockid="Arrow1Mend">
      <path
         inkscape:connector-curvature="0"
         transform="matrix(-0.4,0,0,-0.4,-4,0)"
         style="fill:#d99238;fill-opacity:1;fill-rule:evenodd;stroke:#d99238;stroke-width:1.00000003pt;stroke-opacity:1"
         d="M 0,0 5,-5 -12.5,0 5,5 Z"
         id="path4255" />
    </marker>
    <marker
       inkscape:isstock="true"
       style="overflow:visible"
       id="Arrow1Send"
       refX="0"
       refY="0"
       orient="auto"
       inkscape:stockid="Arrow1Send">
      <path
         inkscape:connector-curvature="0"
         transform="matrix(-0.2,0,0,-0.2,-1.2,0)"
         style="fill:#d40000;fill-opacity:1;fill-rule:evenodd;stroke:#d40000;stroke-width:1.00000003pt;stroke-opacity:1"
         d="M 0,0 5,-5 -12.5,0 5,5 Z"
         id="path4178" />
    </marker>
    <marker
       inkscape:isstock="true"
       style="overflow:visible"
       id="Arrow1Mend-5"
       refX="0"
       refY="0"
       orient="auto"
       inkscape:stockid="Arrow1Mend">
      <path
         transform="matrix(-0.4,0,0,-0.4,-4,0)"
         style="fill:#d99238;fill-opacity:1;fill-rule:evenodd;stroke:#d99238;stroke-width:1.00000003pt;stroke-opacity:1"
         d="M 0,0 5,-5 -12.5,0 5,5 Z"
         id="path4255-6"
         inkscape:connector-curvature="0" />
    </marker>
    <marker
       inkscape:isstock="true"
       style="overflow:visible"
       id="Arrow1Mend-9"
       refX="0"
       refY="0"
       orient="auto"
       inkscape:stockid="Arrow1Mend">
      <path
         transform="matrix(-0.4,0,0,-0.4,-4,0)"
         style="fill:#d99238;fill-opacity:1;fill-rule:evenodd;stroke:#d99238;stroke-width:1.00000003pt;stroke-opacity:1"
         d="M 0,0 5,-5 -12.5,0 5,5 Z"
         id="path4255-1"
         inkscape:connector-curvature="0" />
    </marker>
    <marker
       inkscape:isstock="true"
       style="overflow:visible"
       id="Arrow1Mend-5-2"
       refX="0"
       refY="0"
       orient="auto"
       inkscape:stockid="Arrow1Mend">
      <path
         transform="matrix(-0.4,0,0,-0.4,-4,0)"
         style="fill:#d99238;fill-opacity:1;fill-rule:evenodd;stroke:#d99238;stroke-width:1.00000003pt;stroke-opacity:1"
         d="M 0,0 5,-5 -12.5,0 5,5 Z"
         id="path4255-6-7"
         inkscape:connector-curvature="0" />
    </marker>
    <marker
       inkscape:isstock="true"
       style="overflow:visible"
       id="Arrow1Mend-9-3"
       refX="0"
       refY="0"
       orient="auto"
       inkscape:stockid="Arrow1Mend">
      <path
         transform="matrix(-0.4,0,0,-0.4,-4,0)"
         style="fill:#d99238;fill-opacity:1;fill-rule:evenodd;stroke:#d99238;stroke-width:1.00000003pt;stroke-opacity:1"
         d="M 0,0 5,-5 -12.5,0 5,5 Z"
         id="path4255-1-6"
         inkscape:connector-curvature="0" />
    </marker>
    <marker
       inkscape:isstock="true"
       style="overflow:visible"
       id="Arrow1Mend-5-2-0"
       refX="0"
       refY="0"
       orient="auto"
       inkscape:stockid="Arrow1Mend">
      <path
         transform="matrix(-0.4,0,0,-0.4,-4,0)"
         style="fill:#d99238;fill-opacity:1;fill-rule:evenodd;stroke:#d99238;stroke-width:1.00000003pt;stroke-opacity:1"
         d="M 0,0 5,-5 -12.5,0 5,5 Z"
         id="path4255-6-7-6"
         inkscape:connector-curvature="0" />
    </marker>
    <marker
       inkscape:isstock="true"
       style="overflow:visible"
       id="Arrow1Mend-1"
       refX="0"
       refY="0"
       orient="auto"
       inkscape:stockid="Arrow1Mend">
      <path
         transform="matrix(-0.4,0,0,-0.4,-4,0)"
         style="fill:#d99238;fill-opacity:1;fill-rule:evenodd;stroke:#d99238;stroke-width:1.00000003pt;stroke-opacity:1"
         d="M 0,0 5,-5 -12.5,0 5,5 Z"
         id="path4255-8"
         inkscape:connector-curvature="0" />
    </marker>
    <marker
       inkscape:isstock="true"
       style="overflow:visible"
       id="Arrow1Mend-5-7"
       refX="0"
       refY="0"
       orient="auto"
       inkscape:stockid="Arrow1Mend">
      <path
         transform="matrix(-0.4,0,0,-0.4,-4,0)"
         style="fill:#d99238;fill-opacity:1;fill-rule:evenodd;stroke:#d99238;stroke-width:1.00000003pt;stroke-opacity:1"
         d="M 0,0 5,-5 -12.5,0 5,5 Z"
         id="path4255-6-9"
         inkscape:connector-curvature="0" />
    </marker>
    <marker
       inkscape:isstock="true"
       style="overflow:visible"
       id="Arrow1Mend-9-2"
       refX="0"
       refY="0"
       orient="auto"
       inkscape:stockid="Arrow1Mend">
      <path
         transform="matrix(-0.4,0,0,-0.4,-4,0)"
         style="fill:#d99238;fill-opacity:1;fill-rule:evenodd;stroke:#d99238;stroke-width:1.00000003pt;stroke-opacity:1"
         d="M 0,0 5,-5 -12.5,0 5,5 Z"
         id="path4255-1-0"
         inkscape:connector-curvature="0" />
    </marker>
    <marker
       inkscape:isstock="true"
       style="overflow:visible"
       id="Arrow1Mend-5-2-2"
       refX="0"
       refY="0"
       orient="auto"
       inkscape:stockid="Arrow1Mend">
      <path
         transform="matrix(-0.4,0,0,-0.4,-4,0)"
         style="fill:#d99238;fill-opacity:1;fill-rule:evenodd;stroke:#d99238;stroke-width:1.00000003pt;stroke-opacity:1"
         d="M 0,0 5,-5 -12.5,0 5,5 Z"
         id="path4255-6-7-3"
         inkscape:connector-curvature="0" />
    </marker>
    <marker
       inkscape:isstock="true"
       style="overflow:visible"
       id="Arrow1Mend-9-3-7"
       refX="0"
       refY="0"
       orient="auto"
       inkscape:stockid="Arrow1Mend">
      <path
         transform="matrix(-0.4,0,0,-0.4,-4,0)"
         style="fill:#d99238;fill-opacity:1;fill-rule:evenodd;stroke:#d99238;stroke-width:1.00000003pt;stroke-opacity:1"
         d="M 0,0 5,-5 -12.5,0 5,5 Z"
         id="path4255-1-6-5"
         inkscape:connector-curvature="0" />
    </marker>
    <marker
       inkscape:isstock="true"
       style="overflow:visible"
       id="Arrow1Mend-5-2-0-9"
       refX="0"
       refY="0"
       orient="auto"
       inkscape:stockid="Arrow1Mend">
      <path
         transform="matrix(-0.4,0,0,-0.4,-4,0)"
         style="fill:#d99238;fill-opacity:1;fill-rule:evenodd;stroke:#d99238;stroke-width:1.00000003pt;stroke-opacity:1"
         d="M 0,0 5,-5 -12.5,0 5,5 Z"
         id="path4255-6-7-6-2"
         inkscape:connector-curvature="0" />
    </marker>
    <marker
       inkscape:isstock="true"
       style="overflow:visible"
       id="marker5248-3"
       refX="0"
       refY="0"
       orient="auto"
       inkscape:stockid="Arrow1Mend">
      <path
         transform="matrix(-0.4,0,0,-0.4,-4,0)"
         style="fill:#000000;fill-opacity:1;fill-rule:evenodd;stroke:#000000;stroke-width:1.00000003pt;stroke-opacity:1"
         d="M 0,0 5,-5 -12.5,0 5,5 Z"
         id="path5250-1"
         inkscape:connector-curvature="0" />
    </marker>
    <marker
       inkscape:isstock="true"
       style="overflow:visible"
       id="marker5248-36"
       refX="0"
       refY="0"
       orient="auto"
       inkscape:stockid="Arrow1Mend">
      <path
         inkscape:connector-curvature="0"
         transform="matrix(-0.4,0,0,-0.4,-4,0)"
         style="fill:#000000;fill-opacity:1;fill-rule:evenodd;stroke:#000000;stroke-width:1.00000003pt;stroke-opacity:1"
         d="M 0,0 5,-5 -12.5,0 5,5 Z"
         id="path5250-7" />
    </marker>
    <marker
       inkscape:isstock="true"
       style="overflow:visible"
       id="marker5248-3-5"
       refX="0"
       refY="0"
       orient="auto"
       inkscape:stockid="Arrow1Mend">
      <path
         transform="matrix(-0.4,0,0,-0.4,-4,0)"
         style="fill:#000000;fill-opacity:1;fill-rule:evenodd;stroke:#000000;stroke-width:1.00000003pt;stroke-opacity:1"
         d="M 0,0 5,-5 -12.5,0 5,5 Z"
         id="path5250-1-3"
         inkscape:connector-curvature="0" />
    </marker>
  </defs>
  <metadata
     id="metadata7">
    <rdf:RDF>
      <cc:Work
         rdf:about="">
        <dc:format>image/svg+xml</dc:format>
        <dc:type
           rdf:resource="http://purl.org/dc/dcmitype/StillImage" />
        <dc:title></dc:title>
      </cc:Work>
    </rdf:RDF>
  </metadata>
  <g
     transform="translate(-47.350935,-128.99014)"
     id="layer1"
     inkscape:groupmode="layer"
     inkscape:label="Layer 1">
    <path
       sodipodi:nodetypes="cc"
       inkscape:connector-curvature="0"
       id="path5246"
       d="m 52.42917,285.47393 313.39667,-10e-6"
       style="fill:none;fill-rule:evenodd;stroke:#000000;stroke-width:2;stroke-linecap:butt;stroke-linejoin:miter;stroke-miterlimit:4;stroke-dasharray:none;stroke-opacity:1;marker-end:url(#marker5248)" />
    <path
       sodipodi:nodetypes="cc"
       inkscape:connector-curvature="0"
       id="path5246-9"
       d="m 52.42917,285.47393 1e-5,-152.54243"
       style="fill:none;fill-rule:evenodd;stroke:#000000;stroke-width:2;stroke-linecap:butt;stroke-linejoin:miter;stroke-miterlimit:4;stroke-dasharray:none;stroke-opacity:1;marker-end:url(#marker5248-3)" />
    <path
       sodipodi:nodetypes="cc"
       inkscape:connector-curvature="0"
       id="path3357-8"
       d="M 52.42917,285.47393 226.60404,142.54373"
       style="fill:none;fill-rule:evenodd;stroke:#d40000;stroke-width:2.8125;stroke-linecap:butt;stroke-linejoin:miter;stroke-miterlimit:4;stroke-dasharray:none;stroke-opacity:1" />
    <path
       sodipodi:nodetypes="cc"
       inkscape:connector-curvature="0"
       id="path5246-3"
       d="m 467.76993,285.14978 313.39667,-1e-5"
       style="fill:none;fill-rule:evenodd;stroke:#000000;stroke-width:2;stroke-linecap:butt;stroke-linejoin:miter;stroke-miterlimit:4;stroke-dasharray:none;stroke-opacity:1;marker-end:url(#marker5248-36)" />
    <path
       sodipodi:nodetypes="cc"
       inkscape:connector-curvature="0"
       id="path5246-9-6"
       d="m 468.76225,286.70063 1e-5,-152.54243"
       style="fill:none;fill-rule:evenodd;stroke:#000000;stroke-width:2;stroke-linecap:butt;stroke-linejoin:miter;stroke-miterlimit:4;stroke-dasharray:none;stroke-opacity:1;marker-end:url(#marker5248-3-5)" />
    <path
       sodipodi:nodetypes="cc"
       inkscape:connector-curvature="0"
       id="path3357-8-8"
       d="M 467.76993,285.14978 641.9448,142.21957"
       style="fill:none;fill-rule:evenodd;stroke:#d40000;stroke-width:2.8125;stroke-linecap:butt;stroke-linejoin:miter;stroke-miterlimit:4;stroke-dasharray:none;stroke-opacity:1" />
    <path
       inkscape:connector-curvature="0"
       style="opacity:1;fill:none;fill-opacity:1;fill-rule:nonzero;stroke:#000000;stroke-width:2.8125;stroke-linecap:round;stroke-linejoin:round;stroke-miterlimit:4;stroke-dasharray:none;stroke-dashoffset:0;stroke-opacity:1"
       d="m 468.76225,286.70063 c 0.14777,-0.39561 0.29554,-0.78791 0.44331,-1.177 0.14778,-0.38909 0.29555,-0.77495 0.44332,-1.15768 0.14777,-0.38272 0.29554,-0.7623 0.44331,-1.13882 0.14777,-0.37651 0.29555,-0.74996 0.44332,-1.12042 0.14777,-0.37046 0.29554,-0.73792 0.44331,-1.10246 0.14777,-0.36455 0.29554,-0.72617 0.44332,-1.08494 0.14777,-0.35878 0.29554,-0.71469 0.44331,-1.06783 0.14777,-0.35314 0.29554,-0.70348 0.44332,-1.05112 0.14777,-0.34763 0.29554,-0.69253 0.44331,-1.03479 0.14777,-0.34226 0.29554,-0.68185 0.44331,-1.01885 0.14778,-0.337 0.29555,-0.6714 0.44332,-1.00327 0.14777,-0.33187 0.29554,-0.6612 0.44331,-0.98805 0.14777,-0.32685 0.29555,-0.65122 0.44332,-0.97317 0.14777,-0.32194 0.29554,-0.64146 0.44331,-0.95862 0.14777,-0.31715 0.29555,-0.63193 0.44332,-0.94439 0.14777,-0.31247 0.29554,-0.62261 0.44331,-0.93049 0.14777,-0.30788 0.29554,-0.61349 0.44332,-0.91689 0.14777,-0.30339 0.29554,-0.60456 0.44331,-0.90357 0.14777,-0.29901 0.29554,-0.59585 0.44331,-0.89056 0.14778,-0.29472 0.29555,-0.5873 0.44332,-0.87782 0.14777,-0.29051 0.29554,-0.57894 0.44331,-0.86535 0.14778,-0.2864 0.29555,-0.57076 0.44332,-0.85314 0.14777,-0.28238 0.29554,-0.56276 0.44331,-0.84119 0.14777,-0.27844 0.29555,-0.55492 0.44332,-0.8295 0.14777,-0.27458 0.29554,-0.54724 0.44331,-0.81804 0.14777,-0.27079 0.29555,-0.53972 0.44332,-0.80681 0.14777,-0.2671 0.29554,-0.53236 0.44331,-0.79583 0.14777,-0.26347 0.29554,-0.52514 0.44332,-0.78505 0.14777,-0.25992 0.29554,-0.51807 0.44331,-0.7745 0.14777,-0.25644 0.29554,-0.51115 0.44331,-0.76417 0.14778,-0.25302 0.29555,-0.50435 0.44332,-0.75403 0.14777,-0.24967 0.29554,-0.49769 0.44331,-0.74409 0.14778,-0.2464 0.29555,-0.49117 0.44332,-0.73435 0.14777,-0.24319 0.29554,-0.48478 0.44331,-0.72481 0.14777,-0.24003 0.29555,-0.4785 0.44332,-0.71544 0.14777,-0.23694 0.29554,-0.47235 0.44331,-0.70625 0.14777,-0.23391 0.29554,-0.46632 0.44332,-0.69725 0.14777,-0.23094 0.29554,-0.4604 0.44331,-0.68841 0.14777,-0.22802 0.29554,-0.45459 0.44332,-0.67974 0.14777,-0.22516 0.29554,-0.44889 0.44331,-0.67124 0.14777,-0.22234 0.29554,-0.44329 0.44331,-0.66288 0.14778,-0.21959 0.29555,-0.43781 0.44332,-0.65469 0.14777,-0.21689 0.29554,-0.43242 0.44331,-0.64665 0.14777,-0.21423 0.29555,-0.42713 0.44332,-0.63875 0.14777,-0.21162 0.29554,-0.42194 0.44331,-0.631 0.14777,-0.20906 0.29555,-0.41685 0.44332,-0.62339 0.14777,-0.20655 0.29554,-0.41184 0.44331,-0.61592 0.14777,-0.20407 0.29554,-0.40692 0.44332,-0.60857 0.14777,-0.20165 0.29554,-0.40209 0.44331,-0.60136 0.14777,-0.19927 0.29554,-0.39735 0.44331,-0.59428 0.14778,-0.19693 0.29555,-0.39269 0.44332,-0.58732 0.14777,-0.19463 0.29554,-0.38811 0.44331,-0.58048 0.14778,-0.19237 0.29555,-0.38362 0.44332,-0.57377 0.14777,-0.19015 0.29554,-0.37919 0.44331,-0.56716 0.14777,-0.18797 0.29555,-0.37485 0.44332,-0.56067 0.14777,-0.18583 0.29554,-0.37058 0.44331,-0.5543 0.14777,-0.18371 0.29554,-0.36638 0.44332,-0.54802 0.14777,-0.18164 0.29554,-0.36226 0.44331,-0.54186 0.14777,-0.17961 0.29554,-0.3582 0.44331,-0.5358 0.14778,-0.1776 0.29555,-0.35421 0.44332,-0.52984 0.14777,-0.17563 0.29554,-0.35028 0.44331,-0.52398 0.14778,-0.17369 0.29555,-0.34642 0.44332,-0.51821 0.14777,-0.17179 0.29554,-0.34263 0.44331,-0.51254 0.14777,-0.16992 0.29555,-0.3389 0.44332,-0.50697 0.14777,-0.16807 0.29554,-0.33522 0.44331,-0.50148 0.14777,-0.16625 0.29554,-0.33161 0.44332,-0.49608 0.14777,-0.16447 0.29554,-0.32805 0.44331,-0.49077 0.14777,-0.16271 0.29554,-0.32456 0.44332,-0.48554 0.14777,-0.16099 0.29554,-0.32112 0.44331,-0.4804 0.14777,-0.15929 0.29554,-0.31773 0.44331,-0.47534 0.14778,-0.15761 0.29555,-0.31439 0.44332,-0.47036 0.14777,-0.15596 0.29554,-0.31111 0.44331,-0.46545 0.14777,-0.15434 0.29555,-0.30787 0.44332,-0.46062 0.14777,-0.15275 0.29554,-0.3047 0.44331,-0.45587 0.14777,-0.15117 0.29555,-0.30156 0.44332,-0.45119 0.14777,-0.14962 0.29554,-0.29848 0.44331,-0.44658 0.14777,-0.1481 0.29554,-0.29544 0.44332,-0.44204 0.14777,-0.1466 0.29554,-0.29245 0.44331,-0.43757 0.14777,-0.14512 0.29554,-0.28951 0.44331,-0.43317 0.14778,-0.14366 0.29555,-0.2866 0.44332,-0.42883 0.14777,-0.14223 0.29554,-0.28375 0.44331,-0.42457 0.14778,-0.14081 0.29555,-0.28093 0.44332,-0.42035 0.14777,-0.13943 0.29554,-0.27816 0.44331,-0.41621 0.14777,-0.13805 0.29555,-0.27542 0.44332,-0.41212 0.14777,-0.13671 0.29554,-0.27273 0.44331,-0.4081 0.14777,-0.13537 0.29554,-0.27008 0.44332,-0.40414 0.14777,-0.13406 0.29554,-0.26746 0.44331,-0.40022 0.14777,-0.13277 0.29554,-0.26489 0.44332,-0.39638 0.14777,-0.13149 0.29554,-0.26234 0.44331,-0.39257 0.14777,-0.13024 0.29554,-0.25984 0.44331,-0.38884 0.14778,-0.12899 0.29555,-0.25737 0.44332,-0.38514 0.14777,-0.12778 0.29554,-0.25494 0.44331,-0.38151 0.14777,-0.12657 0.29555,-0.25254 0.44332,-0.37793 0.14777,-0.12538 0.29554,-0.25017 0.44331,-0.37438 0.14777,-0.12422 0.29555,-0.24785 0.44332,-0.3709 0.14777,-0.12306 0.29554,-0.24555 0.44331,-0.36747 0.14777,-0.12192 0.29554,-0.24327 0.44332,-0.36407 0.14777,-0.1208 0.29554,-0.24104 0.44331,-0.36073 0.14777,-0.1197 0.29554,-0.23884 0.44331,-0.35744 0.14778,-0.1186 0.29555,-0.23666 0.44332,-0.35418 0.14777,-0.11752 0.29554,-0.23451 0.44331,-0.35097 0.14778,-0.11646 0.29555,-0.2324 0.44332,-0.34781 0.14777,-0.11541 0.29554,-0.23031 0.44331,-0.34469 0.14777,-0.11438 0.29555,-0.22824 0.44332,-0.3416 0.14777,-0.11336 0.29554,-0.22622 0.44331,-0.33857 0.14777,-0.11235 0.29554,-0.22421 0.44332,-0.33557 0.14777,-0.11136 0.29554,-0.22223 0.44331,-0.33261 0.14777,-0.11038 0.29554,-0.22027 0.44332,-0.32968 0.14777,-0.10942 0.29554,-0.21835 0.44331,-0.32681 0.14777,-0.10846 0.29554,-0.21645 0.44331,-0.32396 0.14778,-0.10752 0.29555,-0.21457 0.44332,-0.32116 0.14777,-0.10659 0.29554,-0.21271 0.44331,-0.31838 0.14777,-0.10567 0.29555,-0.21089 0.44332,-0.31565 0.14777,-0.10477 0.29554,-0.20908 0.44331,-0.31295 0.14777,-0.10387 0.29554,-0.2073 0.44332,-0.31028 0.14777,-0.10299 0.29554,-0.20554 0.44331,-0.30766 0.14777,-0.10211 0.29554,-0.20379 0.44332,-0.30505 0.14777,-0.10125 0.29554,-0.20208 0.44331,-0.30249 0.14777,-0.1004 0.29554,-0.20038 0.44331,-0.29995 0.14778,-0.0996 0.29555,-0.19871 0.44332,-0.29745 0.14777,-0.0987 0.29554,-0.19706 0.44331,-0.29498 0.14777,-0.0979 0.29555,-0.19543 0.44332,-0.29255 0.14777,-0.0971 0.29554,-0.19381 0.44331,-0.29013 0.14777,-0.0963 0.29555,-0.19223 0.44332,-0.28775 0.14777,-0.0955 0.29554,-0.19065 0.44331,-0.2854 0.14777,-0.0948 0.29554,-0.1891 0.44332,-0.28308 0.14777,-0.094 0.29554,-0.18757 0.44331,-0.28078 0.14777,-0.0932 0.29554,-0.18606 0.44331,-0.27852 0.14778,-0.0925 0.29555,-0.18456 0.44332,-0.27628 0.14777,-0.0917 0.29554,-0.18308 0.44331,-0.27407 0.14778,-0.091 0.29555,-0.18162 0.44332,-0.27188 0.14777,-0.0903 0.29554,-0.18017 0.44331,-0.26973 0.14777,-0.0896 0.29555,-0.17874 0.44332,-0.26758 0.14777,-0.0889 0.29554,-0.17734 0.44331,-0.26548 0.14777,-0.0882 0.29554,-0.17595 0.44332,-0.2634 0.14777,-0.0875 0.29554,-0.17457 0.44331,-0.26134 0.14777,-0.0868 0.29554,-0.1732 0.44332,-0.2593 0.14777,-0.0861 0.29554,-0.17186 0.44331,-0.25729 0.14777,-0.0854 0.29554,-0.17053 0.44331,-0.2553 0.14778,-0.0848 0.29555,-0.16922 0.44332,-0.25334 0.14777,-0.0841 0.29554,-0.16791 0.44331,-0.25139 0.14777,-0.0835 0.29555,-0.16663 0.44332,-0.24947 0.14777,-0.0828 0.29554,-0.16537 0.44331,-0.24758 0.14777,-0.0822 0.29555,-0.16411 0.44332,-0.24569 0.14777,-0.0816 0.29554,-0.16287 0.44331,-0.24385 0.14777,-0.081 0.29554,-0.16164 0.44332,-0.242 0.14777,-0.0804 0.29554,-0.16043 0.44331,-0.2402 0.14777,-0.0798 0.29554,-0.15923 0.44331,-0.23839 0.14778,-0.0792 0.29555,-0.15805 0.44332,-0.23663 0.14777,-0.0786 0.29554,-0.15687 0.44331,-0.23487 0.14778,-0.078 0.29555,-0.15571 0.44332,-0.23314 0.14777,-0.0774 0.29554,-0.15456 0.44331,-0.23142 0.14777,-0.0769 0.29555,-0.15343 0.44332,-0.22972 0.14777,-0.0763 0.29554,-0.15231 0.44331,-0.22805 0.14777,-0.0757 0.29554,-0.1512 0.44332,-0.22639 0.14777,-0.0752 0.29554,-0.1501 0.44331,-0.22474 0.14777,-0.0746 0.29554,-0.14902 0.44332,-0.22312 0.14777,-0.0741 0.29554,-0.14794 0.44331,-0.22152 0.14777,-0.0736 0.29554,-0.14688 0.44331,-0.21992 0.14778,-0.0731 0.29555,-0.14583 0.44332,-0.21835 0.14777,-0.0725 0.29554,-0.14479 0.44331,-0.2168 0.14777,-0.072 0.29555,-0.14376 0.44332,-0.21526 0.14777,-0.0715 0.29554,-0.14275 0.44331,-0.21374 0.14777,-0.071 0.29554,-0.14174 0.44332,-0.21223 0.14777,-0.0705 0.29554,-0.14074 0.44331,-0.21074 0.14777,-0.07 0.29554,-0.13976 0.44332,-0.20927 0.14777,-0.0695 0.29554,-0.13878 0.44331,-0.2078 0.14777,-0.069 0.29554,-0.13782 0.44331,-0.20637 0.14778,-0.0686 0.29555,-0.13686 0.44332,-0.20493 0.14777,-0.0681 0.29554,-0.13591 0.44331,-0.20352 0.14777,-0.0676 0.29555,-0.13498 0.44332,-0.20212 0.14777,-0.0671 0.29554,-0.13405 0.44331,-0.20073 0.14777,-0.0667 0.29555,-0.13314 0.44332,-0.19937 0.14777,-0.0662 0.29554,-0.13222 0.44331,-0.198 0.14777,-0.0658 0.29554,-0.13133 0.44332,-0.19666 0.14777,-0.0653 0.29554,-0.13045 0.44331,-0.19534 0.14777,-0.0649 0.29554,-0.12956 0.44331,-0.19401 0.14778,-0.0645 0.29555,-0.12869 0.44332,-0.19272 0.14777,-0.064 0.29554,-0.12783 0.44331,-0.19142 0.14778,-0.0636 0.29555,-0.12698 0.44332,-0.19015 0.14777,-0.0632 0.29554,-0.12613 0.44331,-0.18888 0.14777,-0.0627 0.29555,-0.12529 0.44332,-0.18763 0.14777,-0.0623 0.29554,-0.12447 0.44331,-0.18639 0.14777,-0.0619 0.29554,-0.12365 0.44332,-0.18517 0.14777,-0.0615 0.29554,-0.12283 0.44331,-0.18394 0.14777,-0.0611 0.29554,-0.12203 0.44332,-0.18275 0.14777,-0.0607 0.29554,-0.12123 0.44331,-0.18156 0.14777,-0.0603 0.29554,-0.12044 0.44331,-0.18037 0.14778,-0.0599 0.29555,-0.11966 0.44332,-0.17921 0.14777,-0.0595 0.29554,-0.11889 0.44331,-0.17805 0.14777,-0.0592 0.29555,-0.11812 0.44332,-0.1769 0.14777,-0.0588 0.29554,-0.11737 0.44331,-0.17577 0.14777,-0.0584 0.29555,-0.11662 0.44332,-0.17465 0.14777,-0.058 0.29554,-0.11587 0.44331,-0.17353 0.14777,-0.0577 0.29554,-0.11514 0.44332,-0.17243 0.14777,-0.0573 0.29554,-0.11441 0.44331,-0.17134 0.14777,-0.0569 0.29554,-0.11368 0.44331,-0.17025 0.14778,-0.0566 0.29555,-0.11297 0.44332,-0.16919 0.14777,-0.0562 0.29554,-0.11226 0.44331,-0.16812 0.14778,-0.0559 0.29555,-0.11156 0.44332,-0.16707 0.14777,-0.0555 0.29554,-0.11086 0.44331,-0.16603 0.14777,-0.0552 0.29555,-0.11017 0.44332,-0.165 0.14777,-0.0548 0.29554,-0.10949 0.44331,-0.16398 0.14777,-0.0545 0.29554,-0.10881 0.44332,-0.16296 0.14777,-0.0542 0.29554,-0.10814 0.44331,-0.16196 0.14777,-0.0538 0.29554,-0.10748 0.44332,-0.16097 0.14777,-0.0535 0.29554,-0.10682 0.44331,-0.15998 0.14777,-0.0532 0.29554,-0.10616 0.44331,-0.159 0.14778,-0.0528 0.29555,-0.10552 0.44332,-0.15804 0.14777,-0.0525 0.29554,-0.10488 0.44331,-0.15708 0.14777,-0.0522 0.29555,-0.10424 0.44332,-0.15613 0.14777,-0.0519 0.29554,-0.10361 0.44331,-0.15519 0.14777,-0.0516 0.29555,-0.10299 0.44332,-0.15425 0.14777,-0.0513 0.29554,-0.10238 0.44331,-0.15334 0.14777,-0.051 0.29554,-0.10176 0.44332,-0.15241 0.14777,-0.0506 0.29554,-0.10116 0.44331,-0.15151 0.14777,-0.0504 0.29554,-0.10055 0.44331,-0.15061 0.14778,-0.05 0.29555,-0.1 0.44332,-0.14971 0.14777,-0.0498 0.29554,-0.0994 0.44331,-0.14884 0.14777,-0.0495 0.29555,-0.0988 0.44332,-0.14795 0.14777,-0.0492 0.29554,-0.0982 0.44331,-0.14709 0.14777,-0.0489 0.29555,-0.0976 0.44332,-0.14623 0.14777,-0.0486 0.29554,-0.097 0.44331,-0.14537 0.14777,-0.0483 0.29554,-0.0965 0.44332,-0.14453 0.14777,-0.048 0.29554,-0.0959 0.44331,-0.14369 0.14777,-0.0478 0.29554,-0.0954 0.44331,-0.14286 0.14778,-0.0475 0.29555,-0.0948 0.44332,-0.14204 0.14777,-0.0472 0.29554,-0.0943 0.44331,-0.14121 0.14778,-0.0469 0.29555,-0.0937 0.44332,-0.14041 0.14777,-0.0467 0.29554,-0.0932 0.44331,-0.13961 0.14777,-0.0464 0.29555,-0.0927 0.44332,-0.13881 0.14777,-0.0461 0.29554,-0.0921 0.44331,-0.13802 0.14777,-0.0459 0.29554,-0.0916 0.44332,-0.13724 0.14777,-0.0456 0.29554,-0.0911 0.44331,-0.13646 0.14777,-0.0454 0.29554,-0.0906 0.44332,-0.1357 0.14777,-0.0451 0.29554,-0.0901 0.44331,-0.13493 0.14777,-0.0448 0.29554,-0.0896 0.44331,-0.13417 0.14778,-0.0446 0.29555,-0.0891 0.44332,-0.13343 0.14777,-0.0444 0.29554,-0.0886 0.44331,-0.13268 0.14777,-0.0441 0.29555,-0.0881 0.44332,-0.13194 0.14777,-0.0439 0.29554,-0.0876 0.44331,-0.13121 0.14777,-0.0436 0.29555,-0.0871 0.44332,-0.13049 0.14777,-0.0434 0.29554,-0.0866 0.44331,-0.12976 0.14777,-0.0431 0.29554,-0.0862 0.44332,-0.12906 0.14777,-0.0429 0.29554,-0.0857 0.44331,-0.12834 0.14777,-0.0427 0.29554,-0.0852 0.44331,-0.12765 0.14778,-0.0424 0.29555,-0.0847 0.44332,-0.12695 0.14777,-0.0422 0.29554,-0.0843 0.44331,-0.12626 0.14778,-0.042 0.29555,-0.0838 0.44332,-0.12557 0.14777,-0.0417 0.29554,-0.0834 0.44331,-0.12489 0.14777,-0.0415 0.29555,-0.0829 0.44332,-0.12422 0.14777,-0.0413 0.29554,-0.0825 0.44331,-0.12356 0.14777,-0.0411 0.29554,-0.082 0.44332,-0.12289 0.14777,-0.0409 0.29554,-0.0816 0.44331,-0.12223 0.14777,-0.0406 0.29554,-0.0812 0.44332,-0.12158 0.14777,-0.0404 0.29554,-0.0807 0.44331,-0.12093 0.14777,-0.0402 0.29554,-0.0803 0.44331,-0.12029 0.14778,-0.04 0.29555,-0.0799 0.44332,-0.11966 0.14777,-0.0398 0.29554,-0.0795 0.44331,-0.11902 0.14777,-0.0396 0.29555,-0.079 0.44332,-0.11839 0.14777,-0.0394 0.29554,-0.0786 0.44331,-0.11778 0.14777,-0.0392 0.29555,-0.0782 0.44332,-0.11716 0.14777,-0.0389 0.29554,-0.0778 0.44331,-0.11654 0.14777,-0.0387 0.29554,-0.0774 0.44332,-0.11594 0.14777,-0.0385 0.29554,-0.077 0.44331,-0.11533 0.14777,-0.0384 0.29554,-0.0766 0.44331,-0.11474 0.14778,-0.0382 0.29555,-0.0762 0.44332,-0.11414 0.14777,-0.0379 0.29554,-0.0758 0.44331,-0.11356 0.14778,-0.0377 0.29555,-0.0754 0.44332,-0.11297 0.14777,-0.0376 0.29554,-0.075 0.44331,-0.11239 0.14777,-0.0374 0.29555,-0.0746 0.44332,-0.11182 0.14777,-0.0372 0.29554,-0.0743 0.44331,-0.11124 0.14777,-0.037 0.29554,-0.0739 0.44332,-0.11068 0.14777,-0.0368 0.29554,-0.0735 0.44331,-0.11012 0.14777,-0.0366 0.29554,-0.0731 0.44331,-0.10956 0.14778,-0.0364 0.29555,-0.0728 0.44332,-0.109 0.14777,-0.0362 0.29554,-0.0724 0.44331,-0.10846 0.14778,-0.0361 0.29555,-0.072 0.44332,-0.10791 0.14777,-0.0359 0.29554,-0.0717 0.44331,-0.10737 0.14777,-0.0357 0.29555,-0.0713 0.44332,-0.10683 0.14777,-0.0355 0.29554,-0.0709 0.44331,-0.1063 0.14777,-0.0353 0.29554,-0.0706 0.44332,-0.10577 0.14777,-0.0352 0.29554,-0.0703 0.44331,-0.10524 0.14777,-0.035 0.29554,-0.0699 0.44332,-0.10473 0.14777,-0.0348 0.29554,-0.0696 0.44331,-0.1042 0.14777,-0.0346 0.29554,-0.0692 0.44331,-0.1037 0.14778,-0.0345 0.29555,-0.0689 0.44332,-0.10318 0.14777,-0.0343 0.29554,-0.0685 0.44331,-0.10268 0.14777,-0.0341 0.29555,-0.0682 0.44332,-0.10217 0.14777,-0.034 0.29554,-0.0679 0.44331,-0.10168 0.14777,-0.0338 0.29555,-0.0675 0.44332,-0.10118 0.14777,-0.0336 0.29554,-0.0672 0.44331,-0.10069 0.14777,-0.0335 0.29554,-0.0669 0.44332,-0.1002 0.14777,-0.0333 0.29554,-0.0666 0.44331,-0.0997 0.14777,-0.0332 0.29554,-0.0662 0.44331,-0.0992 0.14778,-0.033 0.29555,-0.0659 0.44332,-0.0988 0.14777,-0.0328 0.29554,-0.0656 0.44331,-0.0983 0.14778,-0.0327 0.29555,-0.0653 0.44332,-0.0978 0.14777,-0.0325 0.29554,-0.065 0.44331,-0.0974 0.14777,-0.0324 0.29555,-0.0647 0.44332,-0.0969 0.14777,-0.0322 0.29554,-0.0644 0.44331,-0.0964 0.14777,-0.0321 0.29554,-0.0641 0.44332,-0.096 0.14777,-0.0319 0.29554,-0.0637 0.44331,-0.0955 0.14777,-0.0318 0.29554,-0.0634 0.44332,-0.0951 0.14777,-0.0316 0.29554,-0.0632 0.44331,-0.0946 0.14777,-0.0315 0.29554,-0.0628 0.44331,-0.0942 0.14778,-0.0313 0.29555,-0.0626 0.44332,-0.0937 0.14777,-0.0312 0.29554,-0.0623 0.44331,-0.0933 0.14777,-0.031 0.29555,-0.062 0.44332,-0.0928 0.14777,-0.0309 0.29554,-0.0617 0.44331,-0.0924 0.14777,-0.0307 0.29555,-0.0614 0.44332,-0.092 0.14777,-0.0306 0.29554,-0.0611 0.44331,-0.0916 0.14777,-0.0305 0.29554,-0.0608 0.44332,-0.0911 0.14777,-0.0303 0.29554,-0.0606 0.44331,-0.0907 0.14777,-0.0302 0.29554,-0.0603 0.44331,-0.0903 0.14778,-0.03 0.29555,-0.06 0.44332,-0.0899 0.14777,-0.0299 0.29554,-0.0597 0.44331,-0.0895 0.14778,-0.0298 0.29555,-0.0594 0.44332,-0.0891 0.14777,-0.0296 0.29554,-0.0592 0.44331,-0.0887 0.14777,-0.0295 0.29555,-0.0589 0.44332,-0.0883 0.14777,-0.0294 0.29554,-0.0586 0.44331,-0.0879 0.14777,-0.0292 0.29554,-0.0584 0.44332,-0.0875 0.14777,-0.0291 0.29554,-0.0581 0.44331,-0.0871 0.14777,-0.029 0.29554,-0.0579 0.44332,-0.0867 0.14777,-0.0288 0.29554,-0.0576 0.44331,-0.0863 0.14777,-0.0287 0.29554,-0.0573 0.44331,-0.0859 0.14778,-0.0286 0.29555,-0.0571 0.44332,-0.0855 0.14777,-0.0284 0.29554,-0.0568 0.44331,-0.0851 0.14777,-0.0283 0.29555,-0.0566 0.44332,-0.0848 0.14777,-0.0282 0.29554,-0.0563 0.44331,-0.0844 0.14777,-0.0281 0.29554,-0.0561 0.44332,-0.084 0.14777,-0.0279 0.29554,-0.0558 0.44331,-0.0836 0.14777,-0.0278 0.29554,-0.0556 0.44332,-0.0833 0.14777,-0.0277 0.29554,-0.0553 0.44331,-0.0829 0.14777,-0.0276 0.29554,-0.0551 0.44331,-0.0825 0.14778,-0.0274 0.29555,-0.0548 0.44332,-0.0822 0.14777,-0.0273 0.29554,-0.0546 0.44331,-0.0818 0.14777,-0.0272 0.29555,-0.0544 0.44332,-0.0815 0.14777,-0.0271 0.29554,-0.0541 0.44331,-0.0811 0.14777,-0.027 0.29555,-0.0539 0.44332,-0.0807 0.14777,-0.0269 0.29554,-0.0537 0.44331,-0.0804 0.14777,-0.0267 0.29554,-0.0534 0.44332,-0.08 0.14777,-0.0266 0.29554,-0.0532 0.44331,-0.0797 0.14777,-0.0265 0.29554,-0.053 0.44331,-0.0794 0.14778,-0.0264 0.29555,-0.0527 0.44332,-0.079 0.14777,-0.0263 0.29554,-0.0525 0.44331,-0.0787 0.14778,-0.0262 0.29555,-0.0523 0.44332,-0.0783 0.14777,-0.026 0.29554,-0.0521 0.44331,-0.078 0.14777,-0.0259 0.29555,-0.0518 0.44332,-0.0777 0.14777,-0.0258 0.29554,-0.0516 0.44331,-0.0773 0.14777,-0.0257 0.29554,-0.0514 0.44332,-0.077 0.14777,-0.0256 0.29554,-0.0512 0.44331,-0.0767 0.14777,-0.0255 0.29554,-0.051 0.44332,-0.0764 0.14777,-0.0254 0.29554,-0.0507 0.44331,-0.076 0.14777,-0.0253 0.29554,-0.0505 0.44331,-0.0757 0.14778,-0.0252 0.29555,-0.0503 0.44332,-0.0754 0.14777,-0.0251 0.29554,-0.0501 0.44331,-0.0751 0.14777,-0.025 0.29555,-0.0499 0.44332,-0.0748 0.14777,-0.0249 0.29554,-0.0497 0.44331,-0.0745 0.14777,-0.0248 0.29555,-0.0495 0.44332,-0.0742 0.14777,-0.0247 0.29554,-0.0493 0.44331,-0.0738 0.14777,-0.0246 0.29554,-0.0491 0.44332,-0.0735 0.14777,-0.0245 0.29554,-0.0489 0.44331,-0.0732 0.14777,-0.0244 0.29554,-0.0487 0.44331,-0.0729 0.14778,-0.0243 0.29555,-0.0485 0.44332,-0.0726 0.14777,-0.0242 0.29554,-0.0483 0.44331,-0.0723 0.14778,-0.0241 0.29555,-0.0481 0.44332,-0.072 0.14777,-0.024 0.29554,-0.0479 0.44331,-0.0717 0.14777,-0.0239 0.29555,-0.0477 0.44332,-0.0714 0.14777,-0.0238 0.29554,-0.0475 0.44331,-0.0711 0.14777,-0.0237 0.29554,-0.0473 0.44332,-0.0709 0.14777,-0.0236 0.29554,-0.0471 0.44331,-0.0706 0.14777,-0.0235 0.29554,-0.0469 0.44332,-0.0703 0.14777,-0.0234 0.29554,-0.0467 0.44331,-0.07 0.14777,-0.0233 0.29554,-0.0465 0.44331,-0.0697 0.14778,-0.0232 0.29555,-0.0463 0.44332,-0.0694 0.14777,-0.0231 0.29554,-0.0461 0.44331,-0.0692 0.14777,-0.023 0.29555,-0.046 0.44332,-0.0689 0.14777,-0.0229 0.29554,-0.0458 0.44331,-0.0686 0.14777,-0.0228 0.29555,-0.0456 0.44332,-0.0683 0.14777,-0.0227 0.29554,-0.0454 0.44331,-0.068 0.14777,-0.0226 0.29554,-0.0452 0.44332,-0.0678 0.14777,-0.0225 0.29554,-0.045 0.44331,-0.0675 0.14777,-0.0225 0.29554,-0.0449 0.44331,-0.0672 0.14778,-0.0224 0.29555,-0.0447 0.44332,-0.067 0.14777,-0.0223 0.29554,-0.0445 0.44331,-0.0667 0.14777,-0.0222 0.29555,-0.0443 0.44332,-0.0665 0.14777,-0.0221 0.29554,-0.0442 0.44331,-0.0662 0.14777,-0.022 0.29555,-0.044 0.44332,-0.0659 0.14777,-0.0219 0.29554,-0.0438 0.44331,-0.0657 0.14777,-0.0219 0.29554,-0.0436 0.44332,-0.0654 0.14777,-0.0218 0.29554,-0.0435 0.44331,-0.0652 0.14777,-0.0217 0.29554,-0.0433 0.44331,-0.0649 0.14778,-0.0216 0.29555,-0.0431 0.44332,-0.0647 0.14777,-0.0215 0.29554,-0.043 0.44331,-0.0644 0.14778,-0.0214 0.29555,-0.0428 0.44332,-0.0641 0.14777,-0.0214 0.29554,-0.0426 0.44331,-0.0639 0.14777,-0.0213 0.29555,-0.0425 0.44332,-0.0637 0.14777,-0.0212 0.29554,-0.0423 0.44331,-0.0634 0.14777,-0.0211 0.29554,-0.0421 0.44332,-0.0632 0.14777,-0.021 0.29554,-0.042 0.44331,-0.0629 0.14777,-0.0209 0.29554,-0.0418 0.44332,-0.0627 0.14777,-0.0208 0.29554,-0.0417 0.44331,-0.0624 0.14777,-0.0208 0.29554,-0.0415 0.44331,-0.0622 0.14778,-0.0207 0.29555,-0.0414 0.44332,-0.062 0.14777,-0.0206 0.29554,-0.0412 0.44331,-0.0617 0.14777,-0.0205 0.29555,-0.041 0.44332,-0.0615 0.14777,-0.0205 0.29554,-0.0409 0.44331,-0.0613 0.14777,-0.0204 0.29555,-0.0407 0.44332,-0.061 0.14777,-0.0203 0.29554,-0.0406 0.44331,-0.0608 0.14777,-0.0202 0.29554,-0.0404 0.44332,-0.0606 0.14777,-0.0202 0.29554,-0.0403 0.44331,-0.0603 0.14777,-0.0201 0.29554,-0.0401 0.44331,-0.0601 0.14778,-0.02 0.29555,-0.04 0.44332,-0.0599 0.14777,-0.0199 0.29554,-0.0398 0.44331,-0.0597 0.14778,-0.0198 0.29555,-0.0397 0.44332,-0.0594 0.14777,-0.0198 0.29554,-0.0395 0.44331,-0.0592 0.14777,-0.0197 0.29555,-0.0394 0.44332,-0.059 0.14777,-0.0196 0.29554,-0.0392 0.44331,-0.0588 0.14777,-0.0196 0.29554,-0.0391 0.44332,-0.0586 0.14777,-0.0195 0.29554,-0.0389 0.44331,-0.0583 0.14777,-0.0194 0.29554,-0.0388 0.44332,-0.0581 0.14777,-0.0193 0.29554,-0.0386 0.44331,-0.0579 0.14777,-0.0193 0.29554,-0.0385 0.44331,-0.0577 0.14778,-0.0192 0.29555,-0.0384 0.44332,-0.0575 0.14777,-0.0191 0.29554,-0.0382 0.44331,-0.0573 0.14777,-0.0191 0.29555,-0.0381 0.44332,-0.0571 0.14777,-0.019 0.29554,-0.0379 0.44331,-0.0569 0.14777,-0.0189 0.29555,-0.0378 0.44332,-0.0567 0.14777,-0.0188 0.29554,-0.0377 0.44331,-0.0564 0.14777,-0.0188 0.29554,-0.0375 0.44332,-0.0563 0.14777,-0.0187 0.29554,-0.0374 0.44331,-0.056 0.14777,-0.0187 0.29554,-0.0373 0.44331,-0.0558 0.14778,-0.0186 0.29555,-0.0371 0.44332,-0.0556 0.14777,-0.0185 0.29554,-0.037 0.44331,-0.0554 0.14778,-0.0185 0.29555,-0.0369 0.44332,-0.0552 0.14777,-0.0184 0.29554,-0.0367 0.44331,-0.055 0.14777,-0.0183 0.29555,-0.0366 0.44332,-0.0548 0.14777,-0.0182 0.29554,-0.0365 0.44331,-0.0546 0.14777,-0.0182 0.29554,-0.0363 0.44332,-0.0545 0.14777,-0.0181 0.29554,-0.0362 0.44331,-0.0543 0.14777,-0.0181 0.29554,-0.0361 0.44331,-0.0541 0.14778,-0.018 0.29555,-0.0359 0.44332,-0.0539 0.14777,-0.0179 0.29554,-0.0358 0.44331,-0.0537 0.14778,-0.0179 0.29555,-0.0357 0.44332,-0.0535 0.14777,-0.0178 0.29554,-0.0356 0.44331,-0.0533 0.14777,-0.0177 0.29555,-0.0354 0.44332,-0.0531 0.14777,-0.0177 0.29554,-0.0353 0.44331,-0.0529 0.14777,-0.0176 0.29554,-0.0352 0.44332,-0.0527 0.14777,-0.0175 0.29554,-0.0351 0.44331,-0.0526 0.14777,-0.0175 0.29554,-0.0349 0.44332,-0.0524 0.14777,-0.0174 0.29554,-0.0348 0.44331,-0.0522 0.14777,-0.0174 0.29554,-0.0347 0.44331,-0.052 0.14778,-0.0173 0.29555,-0.0346 0.44332,-0.0518 0.14777,-0.0172 0.29554,-0.0345 0.44331,-0.0516 0.14777,-0.0172 0.29555,-0.0343 0.44332,-0.0515 0.14777,-0.0171 0.29554,-0.0342 0.44331,-0.0513 0.14777,-0.0171 0.29555,-0.0341 0.44332,-0.0511 0.14777,-0.017 0.29554,-0.034 0.44331,-0.0509 0.14777,-0.0169 0.29554,-0.0339 0.44332,-0.0508 0.14777,-0.0169 0.29554,-0.0337 0.44331,-0.0506 0.14777,-0.0168 0.29554,-0.0336 0.44331,-0.0504 0.14778,-0.0168 0.29555,-0.0335 0.44332,-0.0502 0.14777,-0.0167 0.29554,-0.0334 0.44331,-0.0501 0.14778,-0.0167 0.29555,-0.0333 0.44332,-0.0499 0.14777,-0.0166 0.29554,-0.0332 0.44331,-0.0497 0.14777,-0.0165 0.29555,-0.0331 0.44332,-0.0496 0.14777,-0.0165 0.29554,-0.0329 0.44331,-0.0494 0.14777,-0.0164 0.29554,-0.0328 0.44332,-0.0492 0.14777,-0.0164 0.29554,-0.0327 0.44331,-0.049 0.14777,-0.0163 0.29554,-0.0326 0.44332,-0.0489 0.14777,-0.0163 0.29554,-0.0325 0.44331,-0.0487 0.14777,-0.0162 0.29554,-0.0324 0.44331,-0.0486 0.14778,-0.0162 0.29555,-0.0323 0.44332,-0.0484 0.14777,-0.0161 0.29554,-0.0322 0.44331,-0.0482 0.14777,-0.016 0.29555,-0.0321 0.44332,-0.0481 0.14777,-0.016 0.29554,-0.032 0.44331,-0.0479 0.14777,-0.0159 0.29555,-0.0319 0.44332,-0.0477 0.14777,-0.0159 0.29554,-0.0318 0.44331,-0.0476 0.14777,-0.0158 0.29554,-0.0316 0.44332,-0.0474 0.14777,-0.0158 0.29554,-0.0315 0.44331,-0.0473 0.14777,-0.0157 0.29554,-0.0314 0.44331,-0.0471 0.14778,-0.0157 0.29555,-0.0313 0.44332,-0.047 0.14777,-0.0156 0.29554,-0.0312 0.44331,-0.0468 0.14778,-0.0156 0.29555,-0.0311 0.44332,-0.0466 0.14777,-0.0155 0.29554,-0.031 0.44331,-0.0465 0.14777,-0.0155 0.29555,-0.0309 0.44332,-0.0463 0.14777,-0.0154 0.29554,-0.0308 0.44331,-0.0462 0.14777,-0.0154 0.29554,-0.0307 0.44332,-0.046 0.14777,-0.0153 0.29554,-0.0306 0.44331,-0.0459 0.14777,-0.0153 0.29554,-0.0305 0.44331,-0.0457 0.14778,-0.0152 0.29555,-0.0304 0.44332,-0.0456 0.14777,-0.0152 0.29554,-0.0303 0.44331,-0.0454 0.14778,-0.0151 0.29555,-0.0302 0.44332,-0.0453 0.14777,-0.0151 0.29554,-0.0301 0.44331,-0.0451 0.14777,-0.015 0.29555,-0.03 0.44332,-0.045 0.14777,-0.015 0.29554,-0.0299 0.44331,-0.0448 0.14777,-0.0149 0.29554,-0.0298 0.44332,-0.0447 0.14777,-0.0149 0.29554,-0.0297 0.44331,-0.0446 0.14777,-0.0148 0.29554,-0.0296 0.44332,-0.0444 0.14777,-0.0148 0.29554,-0.0295 0.44331,-0.0443 0.14777,-0.0147 0.29554,-0.0294 0.44331,-0.0441 0.14778,-0.0147 0.29555,-0.0293 0.44332,-0.044 0.14777,-0.0146 0.29554,-0.0292 0.44331,-0.0438 0.14777,-0.0146 0.29555,-0.0292 0.44332,-0.0437 0.14777,-0.0145 0.29554,-0.0291 0.44331,-0.0436 0.14777,-0.0145 0.29555,-0.029 0.44332,-0.0434 0.14777,-0.0145 0.29554,-0.0289 0.44331,-0.0433 0.14777,-0.0144 0.29554,-0.0288 0.44332,-0.0431 0.14777,-0.0144 0.29554,-0.0287 0.44331,-0.043 0.14777,-0.0143 0.29554,-0.0286 0.44331,-0.0429 0.14778,-0.0143 0.29555,-0.0285 0.44332,-0.0427 0.14777,-0.0142 0.29554,-0.0284 0.44331,-0.0426 0.14778,-0.0142 0.29555,-0.0283 0.44332,-0.0425 0.14777,-0.0141 0.29554,-0.0282 0.44331,-0.0423 0.14777,-0.0141 0.29555,-0.0282 0.44332,-0.0422 0.14777,-0.014 0.29554,-0.0281 0.44331,-0.0421 0.14777,-0.014 0.29554,-0.028 0.44332,-0.0419 0.14777,-0.014 0.29554,-0.0279 0.44331,-0.0418 0.14777,-0.0139 0.29554,-0.0278 0.44332,-0.0417 0.14777,-0.0139 0.29554,-0.0277 0.44331,-0.0416 0.14777,-0.0138 0.29554,-0.0276 0.44331,-0.0414 0.14778,-0.0138 0.29555,-0.0275 0.44332,-0.0413 0.14777,-0.0137 0.29554,-0.0275 0.44331,-0.0412 0.14777,-0.0137 0.29555,-0.0274 0.44332,-0.041 0.14777,-0.0136 0.29554,-0.0273 0.44331,-0.0409 0.14777,-0.0136 0.29555,-0.0272 0.44332,-0.0408 0.14777,-0.0136 0.29554,-0.0271 0.44331,-0.0406 0.14777,-0.0135 0.29554,-0.027 0.44332,-0.0405 0.14777,-0.0135 0.29554,-0.027 0.44331,-0.0404 0.14777,-0.0134 0.29554,-0.0269 0.44331,-0.0403 0.14778,-0.0134 0.29555,-0.0268 0.44332,-0.0402 0.14777,-0.0134 0.29554,-0.0267 0.44331,-0.04 0.14778,-0.0133 0.29555,-0.0266 0.44332,-0.0399 0.14777,-0.0133 0.29554,-0.0265 0.44331,-0.0398 0.14777,-0.0132 0.29555,-0.0265 0.44332,-0.0397 0.14777,-0.0132 0.29554,-0.0264 0.44331,-0.0395 0.14777,-0.0132 0.29554,-0.0263 0.44332,-0.0394 0.14777,-0.0131 0.29554,-0.0262 0.44331,-0.0393 0.14777,-0.0131 0.29554,-0.0261 0.44332,-0.0392 0.14777,-0.013 0.29554,-0.0261 0.44331,-0.0391 0.14777,-0.013 0.29554,-0.026 0.44331,-0.0389 0.14778,-0.013 0.29555,-0.0259 0.44332,-0.0388 0.14777,-0.0129 0.29554,-0.0258 0.44331,-0.0387 0.14777,-0.0129 0.29555,-0.0258 0.44332,-0.0386 0.14777,-0.0128 0.29554,-0.0257 0.44331,-0.0385 0.14777,-0.0128 0.29554,-0.0256 0.44332,-0.0384 0.14777,-0.0128 0.29554,-0.0255 0.44331,-0.0383 0.14777,-0.0127 0.29554,-0.0254 0.44332,-0.0381 0.14777,-0.0127 0.29554,-0.0254 0.44331,-0.038 0.14777,-0.0127 0.29554,-0.0253 0.44331,-0.0379 0.14778,-0.0126 0.29555,-0.0252 0.44332,-0.0378 0.14777,-0.0126 0.29554,-0.0251 0.44331,-0.0377 0.14777,-0.0125 0.29555,-0.0251 0.44332,-0.0376 0.14777,-0.0125 0.29554,-0.025 0.44331,-0.0375 0.14777,-0.0125 0.29555,-0.0249 0.44332,-0.0374 0.14777,-0.0124 0.29554,-0.0248 0.44331,-0.0372 0.14777,-0.0124 0.29554,-0.0248 0.44332,-0.0371 0.14777,-0.0123 0.29554,-0.0247 0.44331,-0.037 0.14777,-0.0123 0.29554,-0.0246 0.44331,-0.0369 0.14778,-0.0123 0.29555,-0.0246 0.44332,-0.0368 0.14777,-0.0122 0.29554,-0.0245 0.44331,-0.0367 0.14778,-0.0122 0.29555,-0.0244 0.44332,-0.0366 0.14777,-0.0122 0.29554,-0.0243 0.44331,-0.0365 0.14777,-0.0121 0.29555,-0.0243 0.44332,-0.0364 0.14777,-0.0121 0.29554,-0.0242 0.44331,-0.0363 0.14777,-0.0121 0.29554,-0.0241 0.44332,-0.0362 0.14777,-0.012 0.29554,-0.0241 0.44331,-0.0361 0.14777,-0.012 0.29554,-0.024 0.44332,-0.036 0.14777,-0.012 0.29554,-0.0239 0.44331,-0.0359 0.14777,-0.0119 0.29554,-0.0238 0.44331,-0.0357 0.14778,-0.0119 0.29555,-0.0238 0.44332,-0.0356 0.14777,-0.0119 0.29554,-0.0237 0.44331,-0.0355 0.14777,-0.0118 0.29555,-0.0236 0.44332,-0.0354 0.14777,-0.0118 0.29554,-0.0236 0.44331,-0.0353 0.14777,-0.0118 0.29555,-0.0235 0.44332,-0.0352 0.14777,-0.0117 0.29554,-0.0234 0.44331,-0.0351 0.14777,-0.0117 0.29554,-0.0234 0.44332,-0.035 0.14777,-0.0117 0.29554,-0.0233 0.44331,-0.0349 0.14777,-0.0116 0.29554,-0.0232 0.44331,-0.0348 0.14778,-0.0116 0.29555,-0.0232 0.44332,-0.0347 0.14777,-0.0116 0.29554,-0.0231 0.44331,-0.0346 0.14778,-0.0115 0.29555,-0.023 0.44332,-0.0345 0.14777,-0.0115 0.29554,-0.023 0.44331,-0.0344 0.14777,-0.0115 0.29555,-0.0229 0.44332,-0.0343 0.14777,-0.0114 0.29554,-0.0228 0.44331,-0.0342 0.14777,-0.0114 0.29554,-0.0228 0.44332,-0.0341 0.14777,-0.0114 0.29554,-0.0227 0.44331,-0.034 0.14777,-0.0113 0.29554,-0.0226 0.44332,-0.034 0.14777,-0.0113 0.29554,-0.0226 0.44331,-0.0339 0.14777,-0.0113 0.29554,-0.0225 0.44331,-0.0338 0.14778,-0.0112 0.29555,-0.0225 0.44332,-0.0337 0.14777,-0.0112 0.29554,-0.0224 0.44331,-0.0336 0.14777,-0.0112 0.29555,-0.0223 0.44332,-0.0335 0.14777,-0.0111 0.29554,-0.0223 0.44331,-0.0334 0.14777,-0.0111 0.29555,-0.0222 0.44332,-0.0333 0.14777,-0.0111 0.29554,-0.0221 0.44331,-0.0332 0.14777,-0.0111 0.29554,-0.0221 0.44332,-0.0331 0.14777,-0.011 0.29554,-0.022 0.44331,-0.033"
       title="x/(1+x)"
       id="path1428" />
    <path
       id="path1539"
       title="x*0.3/(1+x)"
       d="m 52.42917,285.47393 c 0.14832,-0.0976 0.29665,-0.1944 0.44497,-0.2904 0.14832,-0.096 0.29665,-0.1912 0.44497,-0.28563 0.14833,-0.0944 0.29665,-0.18808 0.44497,-0.28098 0.14833,-0.0929 0.29665,-0.18503 0.44497,-0.27643 0.14833,-0.0914 0.29665,-0.18207 0.44498,-0.27201 0.14832,-0.0899 0.29664,-0.17917 0.44497,-0.26769 0.14832,-0.0885 0.29664,-0.17633 0.44497,-0.26346 0.14832,-0.0871 0.29665,-0.17357 0.44497,-0.25934 0.14832,-0.0858 0.29665,-0.17087 0.44497,-0.25531 0.14832,-0.0844 0.29665,-0.16823 0.44497,-0.25138 0.14832,-0.0832 0.29665,-0.16565 0.44497,-0.24753 0.14833,-0.0819 0.29665,-0.16314 0.44497,-0.24378 0.14833,-0.0806 0.29665,-0.16067 0.44497,-0.24011 0.14833,-0.0794 0.29665,-0.15826 0.44498,-0.23651 0.14832,-0.0783 0.29664,-0.15592 0.44497,-0.23301 0.14832,-0.0771 0.29664,-0.15362 0.44497,-0.22958 0.14832,-0.076 0.29665,-0.15136 0.44497,-0.22622 0.14832,-0.0749 0.29665,-0.14916 0.44497,-0.22294 0.14832,-0.0738 0.29665,-0.14701 0.44497,-0.21972 0.14832,-0.0727 0.29665,-0.14491 0.44497,-0.21658 0.14833,-0.0717 0.29665,-0.14284 0.44497,-0.21351 0.14833,-0.0707 0.29665,-0.14082 0.44497,-0.21049 0.14833,-0.0697 0.29665,-0.13885 0.44498,-0.20755 0.14832,-0.0687 0.29664,-0.13691 0.44497,-0.20466 0.14832,-0.0677 0.29664,-0.13502 0.44497,-0.20183 0.14832,-0.0668 0.29664,-0.13316 0.44497,-0.19906 0.14832,-0.0659 0.29665,-0.13135 0.44497,-0.19635 0.14832,-0.065 0.29665,-0.12957 0.44497,-0.1937 0.14832,-0.0641 0.29665,-0.12782 0.44497,-0.19109 0.14833,-0.0633 0.29665,-0.12611 0.44497,-0.18854 0.14833,-0.0624 0.29665,-0.12444 0.44497,-0.18604 0.14833,-0.0616 0.29665,-0.12279 0.44498,-0.18359 0.14832,-0.0608 0.29664,-0.12118 0.44497,-0.18118 0.14832,-0.06 0.29664,-0.11961 0.44497,-0.17883 0.14832,-0.0592 0.29664,-0.11806 0.44497,-0.17652 0.14832,-0.0585 0.29665,-0.11654 0.44497,-0.17425 0.14832,-0.0577 0.29665,-0.11505 0.44497,-0.17203 0.14832,-0.057 0.29665,-0.11359 0.44497,-0.16985 0.14833,-0.0563 0.29665,-0.11216 0.44497,-0.16771 0.14833,-0.0555 0.29665,-0.11075 0.44497,-0.16561 0.14833,-0.0549 0.29665,-0.10938 0.44498,-0.16355 0.14832,-0.0542 0.29664,-0.10802 0.44497,-0.16153 0.14832,-0.0535 0.29664,-0.10669 0.44497,-0.15955 0.14832,-0.0529 0.29664,-0.10539 0.44497,-0.1576 0.14832,-0.0522 0.29665,-0.1041 0.44497,-0.15568 0.14832,-0.0516 0.29665,-0.10285 0.44497,-0.15381 0.14832,-0.051 0.29665,-0.10161 0.44497,-0.15196 0.14833,-0.0504 0.29665,-0.1004 0.44497,-0.15015 0.14833,-0.0498 0.29665,-0.0992 0.44497,-0.14838 0.14833,-0.0492 0.29665,-0.098 0.44498,-0.14662 0.14832,-0.0486 0.29664,-0.0969 0.44497,-0.14491 0.14832,-0.048 0.29664,-0.0958 0.44497,-0.14322 0.14832,-0.0475 0.29664,-0.0947 0.44497,-0.14156 0.14832,-0.0469 0.29665,-0.0936 0.44497,-0.13994 0.14832,-0.0464 0.29665,-0.0925 0.44497,-0.13833 0.14832,-0.0458 0.29665,-0.0914 0.44497,-0.13676 0.14833,-0.0453 0.29665,-0.0904 0.44497,-0.13521 0.14833,-0.0448 0.29665,-0.0894 0.44497,-0.13369 0.14833,-0.0443 0.29665,-0.0884 0.44498,-0.1322 0.14832,-0.0438 0.29664,-0.0874 0.44497,-0.13073 0.14832,-0.0433 0.29664,-0.0864 0.44497,-0.12928 0.14832,-0.0428 0.29664,-0.0855 0.44497,-0.12785 0.14832,-0.0424 0.29665,-0.0845 0.44497,-0.12646 0.14832,-0.0419 0.29665,-0.0836 0.44497,-0.12508 0.14832,-0.0415 0.29665,-0.0827 0.44497,-0.12373 0.14833,-0.041 0.29665,-0.0818 0.44497,-0.1224 0.14833,-0.0406 0.29665,-0.0809 0.44497,-0.12109 0.14833,-0.0401 0.29665,-0.0801 0.44497,-0.11979 0.14833,-0.0397 0.29665,-0.0792 0.44498,-0.11853 0.14832,-0.0393 0.29664,-0.0784 0.44497,-0.11728 0.14832,-0.0389 0.29664,-0.0776 0.44497,-0.11605 0.14832,-0.0385 0.29665,-0.0768 0.44497,-0.11484 0.14832,-0.0381 0.29665,-0.076 0.44497,-0.11365 0.14832,-0.0377 0.29665,-0.0752 0.44497,-0.11247 0.14833,-0.0373 0.29665,-0.0744 0.44497,-0.11132 0.14833,-0.0369 0.29665,-0.0736 0.44497,-0.11018 0.14833,-0.0365 0.29665,-0.0729 0.44497,-0.10907 0.14833,-0.0362 0.29665,-0.0722 0.44498,-0.10796 0.14832,-0.0358 0.29664,-0.0714 0.44497,-0.10687 0.14832,-0.0354 0.29664,-0.0707 0.44497,-0.10581 0.14832,-0.0351 0.29665,-0.07 0.44497,-0.10475 0.14832,-0.0347 0.29665,-0.0693 0.44497,-0.10371 0.14832,-0.0344 0.29665,-0.0686 0.44497,-0.10269 0.14833,-0.0341 0.29665,-0.068 0.44497,-0.10169 0.14833,-0.0337 0.29665,-0.0673 0.44497,-0.10068 0.14833,-0.0334 0.29665,-0.0666 0.44497,-0.0997 0.14833,-0.0331 0.29665,-0.066 0.44498,-0.0987 0.14832,-0.0328 0.29664,-0.0654 0.44497,-0.0978 0.14832,-0.0324 0.29664,-0.0647 0.44497,-0.0969 0.14832,-0.0321 0.29665,-0.0641 0.44497,-0.0959 0.14832,-0.0318 0.29665,-0.0635 0.44497,-0.095 0.14832,-0.0315 0.29665,-0.0629 0.44497,-0.0941 0.14833,-0.0312 0.29665,-0.0623 0.44497,-0.0932 0.14833,-0.0309 0.29665,-0.0617 0.44497,-0.0924 0.14833,-0.0307 0.29665,-0.0611 0.44497,-0.0915 0.14833,-0.0304 0.29665,-0.0606 0.44498,-0.0907 0.14832,-0.0301 0.29664,-0.06 0.44497,-0.0898 0.14832,-0.0298 0.29664,-0.0595 0.44497,-0.089 0.14832,-0.0295 0.29665,-0.0589 0.44497,-0.0882 0.14832,-0.0293 0.29665,-0.0584 0.44497,-0.0874 0.14832,-0.029 0.29665,-0.0579 0.44497,-0.0866 0.14832,-0.0287 0.29665,-0.0573 0.44497,-0.0858 0.14833,-0.0285 0.29665,-0.0568 0.44497,-0.085 0.14833,-0.0282 0.29665,-0.0563 0.44497,-0.0843 0.14833,-0.028 0.29665,-0.0558 0.44498,-0.0835 0.14832,-0.0277 0.29664,-0.0553 0.44497,-0.0828 0.14832,-0.0275 0.29664,-0.0548 0.44497,-0.0821 0.14832,-0.0272 0.29665,-0.0543 0.44497,-0.0813 0.14832,-0.027 0.29665,-0.0539 0.44497,-0.0806 0.14832,-0.0268 0.29665,-0.0534 0.44497,-0.0799 0.14832,-0.0265 0.29665,-0.0529 0.44497,-0.0792 0.14833,-0.0263 0.29665,-0.0525 0.44497,-0.0786 0.14833,-0.0261 0.29665,-0.052 0.44497,-0.0779 0.14833,-0.0258 0.29665,-0.0516 0.44498,-0.0772 0.14832,-0.0256 0.29664,-0.0511 0.44497,-0.0765 0.14832,-0.0254 0.29664,-0.0507 0.44497,-0.0759 0.14832,-0.0252 0.29665,-0.0503 0.44497,-0.0753 0.14832,-0.025 0.29665,-0.0499 0.44497,-0.0746 0.14832,-0.0248 0.29665,-0.0494 0.44497,-0.074 0.14832,-0.0246 0.29665,-0.049 0.44497,-0.0734 0.14833,-0.0244 0.29665,-0.0486 0.44497,-0.0728 0.14833,-0.0242 0.29665,-0.0482 0.44497,-0.0722 0.14833,-0.024 0.29665,-0.0478 0.44498,-0.0716 0.14832,-0.0238 0.29664,-0.0474 0.44497,-0.071 0.14832,-0.0236 0.29664,-0.047 0.44497,-0.0704 0.14832,-0.0234 0.29665,-0.0466 0.44497,-0.0698 0.14832,-0.0232 0.29665,-0.0463 0.44497,-0.0693 0.14832,-0.023 0.29665,-0.0459 0.44497,-0.0687 0.14832,-0.0228 0.29665,-0.0455 0.44497,-0.0682 0.14833,-0.0226 0.29665,-0.0452 0.44497,-0.0676 0.14833,-0.0225 0.29665,-0.0448 0.44497,-0.0671 0.14833,-0.0223 0.29665,-0.0444 0.44498,-0.0666 0.14832,-0.0221 0.29664,-0.0441 0.44497,-0.066 0.14832,-0.0219 0.29664,-0.0437 0.44497,-0.0655 0.14832,-0.0217 0.29665,-0.0434 0.44497,-0.065 0.14832,-0.0216 0.29665,-0.0431 0.44497,-0.0645 0.14832,-0.0214 0.29665,-0.0427 0.44497,-0.064 0.14832,-0.0213 0.29665,-0.0424 0.44497,-0.0635 0.14833,-0.0211 0.29665,-0.0421 0.44497,-0.063 0.14833,-0.0209 0.29665,-0.0418 0.44497,-0.0625 0.14833,-0.0208 0.29665,-0.0414 0.44498,-0.062 0.14832,-0.0206 0.29664,-0.0411 0.44497,-0.0616 0.14832,-0.0204 0.29664,-0.0408 0.44497,-0.0611 0.14832,-0.0203 0.29664,-0.0405 0.44497,-0.0606 0.14832,-0.0201 0.29665,-0.0402 0.44497,-0.0602 0.14832,-0.02 0.29665,-0.0399 0.44497,-0.0597 0.14832,-0.0198 0.29665,-0.0396 0.44497,-0.0593 0.14833,-0.0197 0.29665,-0.0393 0.44497,-0.0588 0.14833,-0.0195 0.29665,-0.039 0.44497,-0.0584 0.14833,-0.0194 0.29665,-0.0387 0.44498,-0.058 0.14832,-0.0192 0.29664,-0.0384 0.44497,-0.0575 0.14832,-0.0191 0.29664,-0.0381 0.44497,-0.0571 0.14832,-0.019 0.29664,-0.0379 0.44497,-0.0567 0.14832,-0.0188 0.29665,-0.0376 0.44497,-0.0563 0.14832,-0.0187 0.29665,-0.0373 0.44497,-0.0558 0.14832,-0.0186 0.29665,-0.037 0.44497,-0.0555 0.14833,-0.0184 0.29665,-0.0368 0.44497,-0.055 0.14833,-0.0183 0.29665,-0.0365 0.44497,-0.0546 0.14833,-0.0181 0.29665,-0.0362 0.44498,-0.0543 0.14832,-0.018 0.29664,-0.036 0.44497,-0.0539 0.14832,-0.0179 0.29664,-0.0357 0.44497,-0.0535 0.14832,-0.0178 0.29664,-0.0355 0.44497,-0.0531 0.14832,-0.0176 0.29665,-0.0352 0.44497,-0.0527 0.14832,-0.0175 0.29665,-0.035 0.44497,-0.0524 0.14832,-0.0174 0.29665,-0.0347 0.44497,-0.052 0.14833,-0.0173 0.29665,-0.0345 0.44497,-0.0516 0.14833,-0.0172 0.29665,-0.0342 0.44497,-0.0513 0.14833,-0.017 0.29665,-0.034 0.44498,-0.0509 0.14832,-0.0169 0.29664,-0.0338 0.44497,-0.0506 0.14832,-0.0168 0.29664,-0.0335 0.44497,-0.0502 0.14832,-0.0167 0.29664,-0.0333 0.44497,-0.0499 0.14832,-0.0166 0.29665,-0.0331 0.44497,-0.0495 0.14832,-0.0165 0.29665,-0.0328 0.44497,-0.0492 0.14832,-0.0163 0.29665,-0.0326 0.44497,-0.0489 0.14833,-0.0162 0.29665,-0.0324 0.44497,-0.0485 0.14833,-0.0161 0.29665,-0.0322 0.44497,-0.0482 0.14833,-0.016 0.29665,-0.032 0.44498,-0.0479 0.14832,-0.0159 0.29664,-0.0318 0.44497,-0.0476 0.14832,-0.0158 0.29664,-0.0315 0.44497,-0.0472 0.14832,-0.0157 0.29664,-0.0313 0.44497,-0.0469 0.14832,-0.0156 0.29665,-0.0311 0.44497,-0.0466 0.14832,-0.0155 0.29665,-0.0309 0.44497,-0.0463 0.14832,-0.0154 0.29665,-0.0307 0.44497,-0.046 0.14833,-0.0153 0.29665,-0.0305 0.44497,-0.0457 0.14833,-0.0152 0.29665,-0.0303 0.44497,-0.0454 0.14833,-0.0151 0.29665,-0.0301 0.44497,-0.0451 0.14833,-0.015 0.29665,-0.0299 0.44498,-0.0448 0.14832,-0.0149 0.29664,-0.0297 0.44497,-0.0445 0.14832,-0.0148 0.29664,-0.0295 0.44497,-0.0442 0.14832,-0.0147 0.29665,-0.0293 0.44497,-0.0439 0.14832,-0.0146 0.29665,-0.0292 0.44497,-0.0437 0.14832,-0.0145 0.29665,-0.029 0.44497,-0.0434 0.14833,-0.0144 0.29665,-0.0288 0.44497,-0.0431 0.14833,-0.0143 0.29665,-0.0286 0.44497,-0.0428 0.14833,-0.0142 0.29665,-0.0284 0.44497,-0.0425 0.14833,-0.0141 0.29665,-0.0282 0.44498,-0.0423 0.14832,-0.014 0.29664,-0.0281 0.44497,-0.042 0.14832,-0.014 0.29664,-0.0279 0.44497,-0.0417 0.14832,-0.0139 0.29665,-0.0277 0.44497,-0.0415 0.14832,-0.0138 0.29665,-0.0275 0.44497,-0.0412 0.14832,-0.0137 0.29665,-0.0274 0.44497,-0.041 0.14833,-0.0136 0.29665,-0.0272 0.44497,-0.0407 0.14833,-0.0135 0.29665,-0.027 0.44497,-0.0405 0.14833,-0.0134 0.29665,-0.0268 0.44497,-0.0402 0.14833,-0.0134 0.29665,-0.0267 0.44498,-0.04 0.14832,-0.0133 0.29664,-0.0265 0.44497,-0.0397 0.14832,-0.0132 0.29664,-0.0264 0.44497,-0.0395 0.14832,-0.0131 0.29665,-0.0262 0.44497,-0.0392 0.14832,-0.013 0.29665,-0.026 0.44497,-0.039 0.14832,-0.0129 0.29665,-0.0259 0.44497,-0.0387 0.14833,-0.0129 0.29665,-0.0257 0.44497,-0.0385 0.14833,-0.0128 0.29665,-0.0256 0.44497,-0.0383 0.14833,-0.0127 0.29665,-0.0254 0.44497,-0.0381 0.14833,-0.0127 0.29665,-0.0253 0.44498,-0.0378 0.14832,-0.0126 0.29664,-0.0251 0.44497,-0.0376 0.14832,-0.0125 0.29664,-0.025 0.44497,-0.0374 0.14832,-0.0124 0.29665,-0.0248 0.44497,-0.0372 0.14832,-0.0123 0.29665,-0.0247 0.44497,-0.0369 0.14832,-0.0123 0.29665,-0.0245 0.44497,-0.0367 0.14833,-0.0122 0.29665,-0.0244 0.44497,-0.0365 0.14833,-0.0121 0.29665,-0.0242 0.44497,-0.0363 0.14833,-0.0121 0.29665,-0.0241 0.44497,-0.0361 0.14833,-0.012 0.29665,-0.024 0.44498,-0.0359 0.14832,-0.0119 0.29664,-0.0238 0.44497,-0.0357 0.14832,-0.0118 0.29664,-0.0237 0.44497,-0.0355 0.14832,-0.0118 0.29665,-0.0235 0.44497,-0.0352 0.14832,-0.0117 0.29665,-0.0234 0.44497,-0.035 0.14832,-0.0116 0.29665,-0.0233 0.44497,-0.0348 0.14832,-0.0116 0.29665,-0.0231 0.44497,-0.0346 0.14833,-0.0115 0.29665,-0.023 0.44497,-0.0344 0.14833,-0.0114 0.29665,-0.0229 0.44497,-0.0342 0.14833,-0.0114 0.29665,-0.0227 0.44498,-0.034 0.14832,-0.0113 0.29664,-0.0226 0.44497,-0.0339 0.14832,-0.0113 0.29664,-0.0225 0.44497,-0.0337 0.14832,-0.0112 0.29665,-0.0224 0.44497,-0.0335 0.14832,-0.0111 0.29665,-0.0222 0.44497,-0.0333 0.14832,-0.0111 0.29665,-0.0221 0.44497,-0.0331 0.14832,-0.011 0.29665,-0.022 0.44497,-0.0329 0.14833,-0.0109 0.29665,-0.0219 0.44497,-0.0327 0.14833,-0.0109 0.29665,-0.0217 0.44497,-0.0326 0.14833,-0.0108 0.29665,-0.0216 0.44498,-0.0324 0.14832,-0.0108 0.29664,-0.0215 0.44497,-0.0322 0.14832,-0.0107 0.29664,-0.0214 0.44497,-0.032 0.14832,-0.0106 0.29665,-0.0213 0.44497,-0.0318 0.14832,-0.0106 0.29665,-0.0211 0.44497,-0.0317 0.14832,-0.0105 0.29665,-0.021 0.44497,-0.0315 0.14832,-0.0105 0.29665,-0.0209 0.44497,-0.0313 0.14833,-0.0104 0.29665,-0.0208 0.44497,-0.0312 0.14833,-0.0103 0.29665,-0.0207 0.44497,-0.031 0.14833,-0.0103 0.29665,-0.0206 0.44498,-0.0308 0.14832,-0.0102 0.29664,-0.0205 0.44497,-0.0306 0.14832,-0.0102 0.29664,-0.0204 0.44497,-0.0305 0.14832,-0.0101 0.29665,-0.0202 0.44497,-0.0303 0.14832,-0.0101 0.29665,-0.0201 0.44497,-0.0301 0.14832,-0.01 0.29665,-0.02 0.44497,-0.03 0.14832,-0.01 0.29665,-0.0199 0.44497,-0.0298 0.14833,-0.01 0.29665,-0.0198 0.44497,-0.0297 0.14833,-0.01 0.29665,-0.0197 0.44497,-0.0295 0.14833,-0.01 0.29665,-0.0196 0.44498,-0.0294 0.14832,-0.01 0.29664,-0.0195 0.44497,-0.0292 0.14832,-0.01 0.29664,-0.0194 0.44497,-0.0291 0.14832,-0.01 0.29664,-0.0193 0.44497,-0.0289 0.14832,-0.01 0.29665,-0.0192 0.44497,-0.0288 0.14832,-0.01 0.29665,-0.0191 0.44497,-0.0286 0.14832,-0.01 0.29665,-0.019 0.44497,-0.0285 0.14833,-0.009 0.29665,-0.0189 0.44497,-0.0283 0.14833,-0.009 0.29665,-0.0188 0.44497,-0.0282 0.14833,-0.009 0.29665,-0.0187 0.44498,-0.028 0.14832,-0.009 0.29664,-0.0186 0.44497,-0.0279 0.14832,-0.009 0.29664,-0.0185 0.44497,-0.0277 0.14832,-0.009 0.29664,-0.0184 0.44497,-0.0276 0.14832,-0.009 0.29665,-0.0183 0.44497,-0.0274 0.14832,-0.009 0.29665,-0.0182 0.44497,-0.0273 0.14832,-0.009 0.29665,-0.0181 0.44497,-0.0272 0.14833,-0.009 0.29665,-0.018 0.44497,-0.027 0.14833,-0.009 0.29665,-0.0179 0.44497,-0.0269 0.14833,-0.009 0.29665,-0.0179 0.44498,-0.0268 0.14832,-0.009 0.29664,-0.0178 0.44497,-0.0266 0.14832,-0.009 0.29664,-0.0177 0.44497,-0.0265 0.14832,-0.009 0.29664,-0.0176 0.44497,-0.0264 0.14832,-0.009 0.29665,-0.0175 0.44497,-0.0262 0.14832,-0.009 0.29665,-0.0174 0.44497,-0.0261 0.14832,-0.009 0.29665,-0.0173 0.44497,-0.026 0.14833,-0.009 0.29665,-0.0172 0.44497,-0.0258 0.14833,-0.009 0.29665,-0.0172 0.44497,-0.0257 0.14833,-0.009 0.29665,-0.0171 0.44498,-0.0256 0.14832,-0.009 0.29664,-0.017 0.44497,-0.0255 0.14832,-0.008 0.29664,-0.0169 0.44497,-0.0253 0.14832,-0.008 0.29664,-0.0168 0.44497,-0.0252 0.14832,-0.008 0.29665,-0.0168 0.44497,-0.0251 0.14832,-0.008 0.29665,-0.0167 0.44497,-0.025 0.14832,-0.008 0.29665,-0.0166 0.44497,-0.0249 0.14833,-0.008 0.29665,-0.0165 0.44497,-0.0247 0.14833,-0.008 0.29665,-0.0164 0.44497,-0.0246 0.14833,-0.008 0.29665,-0.0163 0.44498,-0.0245 0.14832,-0.008 0.29664,-0.0163 0.44497,-0.0244 0.14832,-0.008 0.29664,-0.0162 0.44497,-0.0243 0.14832,-0.008 0.29664,-0.0161 0.44497,-0.0241 0.14832,-0.008 0.29665,-0.016 0.44497,-0.024 0.14832,-0.008 0.29665,-0.016 0.44497,-0.0239 0.14832,-0.008 0.29665,-0.0159 0.44497,-0.0238 0.14833,-0.008 0.29665,-0.0158 0.44497,-0.0237 0.14833,-0.008 0.29665,-0.0157 0.44497,-0.0236 0.14833,-0.008 0.29665,-0.0156 0.44497,-0.0235 0.14833,-0.008 0.29665,-0.0156 0.44498,-0.0233 0.14832,-0.008 0.29664,-0.0155 0.44497,-0.0232 0.14832,-0.008 0.29664,-0.0154 0.44497,-0.0231 0.14832,-0.008 0.29665,-0.0154 0.44497,-0.023 0.14832,-0.008 0.29665,-0.0153 0.44497,-0.0229 0.14832,-0.008 0.29665,-0.0152 0.44497,-0.0228 0.14833,-0.008 0.29665,-0.0151 0.44497,-0.0227 0.14833,-0.008 0.29665,-0.0151 0.44497,-0.0226 0.14833,-0.008 0.29665,-0.015 0.44497,-0.0225 0.14833,-0.007 0.29665,-0.0149 0.44498,-0.0224 0.14832,-0.007 0.29664,-0.0149 0.44497,-0.0223 0.14832,-0.007 0.29664,-0.0148 0.44497,-0.0222 0.14832,-0.007 0.29665,-0.0147 0.44497,-0.0221 0.14832,-0.007 0.29665,-0.0147 0.44497,-0.022 0.14832,-0.007 0.29665,-0.0146 0.44497,-0.0219 0.14833,-0.007 0.29665,-0.0145 0.44497,-0.0218 0.14833,-0.007 0.29665,-0.0145 0.44497,-0.0217 0.14833,-0.007 0.29665,-0.0144 0.44497,-0.0216 0.14833,-0.007 0.29665,-0.0143 0.44498,-0.0215 0.14832,-0.007 0.29664,-0.0143 0.44497,-0.0214 0.14832,-0.007 0.29664,-0.0142 0.44497,-0.0213 0.14832,-0.007 0.29665,-0.0142 0.44497,-0.0212 0.14832,-0.007 0.29665,-0.0141 0.44497,-0.0211 0.14832,-0.007 0.29665,-0.014 0.44497,-0.021 0.14833,-0.007 0.29665,-0.014 0.44497,-0.0209 0.14833,-0.007 0.29665,-0.0139 0.44497,-0.0208 0.14833,-0.007 0.29665,-0.0138 0.44497,-0.0207 0.14833,-0.007 0.29665,-0.0138 0.44498,-0.0206 0.14832,-0.007 0.29664,-0.0137 0.44497,-0.0205 0.14832,-0.007 0.29664,-0.0136 0.44497,-0.0205 0.14832,-0.007 0.29665,-0.0136 0.44497,-0.0204 0.14832,-0.007 0.29665,-0.0135 0.44497,-0.0203 0.14832,-0.007 0.29665,-0.0135 0.44497,-0.0202 0.14833,-0.007 0.29665,-0.0134 0.44497,-0.0201 0.14833,-0.007 0.29665,-0.0134 0.44497,-0.02 0.14833,-0.007 0.29665,-0.0133 0.44497,-0.0199 0.14833,-0.007 0.29665,-0.0132 0.44498,-0.0198 0.14832,-0.007 0.29664,-0.0132 0.44497,-0.0197 0.14832,-0.007 0.29664,-0.0131 0.44497,-0.0197 0.14832,-0.007 0.29665,-0.0131 0.44497,-0.0196 0.14832,-0.007 0.29665,-0.013 0.44497,-0.0195 0.14832,-0.006 0.29665,-0.0129 0.44497,-0.0194 0.14832,-0.006 0.29665,-0.0129 0.44497,-0.0193 0.14833,-0.006 0.29665,-0.0129 0.44497,-0.0192 0.14833,-0.006 0.29665,-0.0128 0.44497,-0.0192 0.14833,-0.006 0.29665,-0.0127 0.44498,-0.0191 0.14832,-0.006 0.29664,-0.0127 0.44497,-0.019 0.14832,-0.006 0.29664,-0.0126 0.44497,-0.0189 0.14832,-0.006 0.29665,-0.0126 0.44497,-0.0188 0.14832,-0.006 0.29665,-0.0125 0.44497,-0.0188 0.14832,-0.006 0.29665,-0.0125 0.44497,-0.0187 0.14832,-0.006 0.29665,-0.0124 0.44497,-0.0186 0.14833,-0.006 0.29665,-0.0124 0.44497,-0.0185 0.14833,-0.006 0.29665,-0.0123 0.44497,-0.0184 0.14833,-0.006 0.29665,-0.0123 0.44498,-0.0184 0.14832,-0.006 0.29664,-0.0122 0.44497,-0.0183 0.14832,-0.006 0.29664,-0.0122 0.44497,-0.0182 0.14832,-0.006 0.29665,-0.0121 0.44497,-0.0181 0.14832,-0.006 0.29665,-0.012 0.44497,-0.0181 0.14832,-0.006 0.29665,-0.012 0.44497,-0.018 0.14832,-0.006 0.29665,-0.012 0.44497,-0.0179 0.14833,-0.006 0.29665,-0.0119 0.44497,-0.0179 0.14833,-0.006 0.29665,-0.0119 0.44497,-0.0178 0.14833,-0.006 0.29665,-0.0118 0.44498,-0.0177 0.14832,-0.006 0.29664,-0.0118 0.44497,-0.0176 0.14832,-0.006 0.29664,-0.0117 0.44497,-0.0176 0.14832,-0.006 0.29665,-0.0117 0.44497,-0.0175 0.14832,-0.006 0.29665,-0.0116 0.44497,-0.0174 0.14832,-0.006 0.29665,-0.0116 0.44497,-0.0173 0.14832,-0.006 0.29665,-0.0115 0.44497,-0.0173 0.14833,-0.006 0.29665,-0.0115 0.44497,-0.0172 0.14833,-0.006 0.29665,-0.0114 0.44497,-0.0171 0.14833,-0.006 0.29665,-0.0114 0.44498,-0.0171 0.14832,-0.006 0.29664,-0.0113 0.44497,-0.017 0.14832,-0.006 0.29664,-0.0113 0.44497,-0.0169 0.14832,-0.006 0.29664,-0.0113 0.44497,-0.0169 0.14832,-0.006 0.29665,-0.0112 0.44497,-0.0168 0.14832,-0.006 0.29665,-0.0112 0.44497,-0.0167 0.14832,-0.006 0.29665,-0.0111 0.44497,-0.0167 0.14833,-0.006 0.29665,-0.0111 0.44497,-0.0166 0.14833,-0.006 0.29665,-0.011 0.44497,-0.0165 0.14833,-0.005 0.29665,-0.011 0.44498,-0.0165 0.14832,-0.005 0.29664,-0.0109 0.44497,-0.0164 0.14832,-0.005 0.29664,-0.0109 0.44497,-0.0163 0.14832,-0.005 0.29664,-0.0109 0.44497,-0.0163 0.14832,-0.005 0.29665,-0.0108 0.44497,-0.0162 0.14832,-0.005 0.29665,-0.0108 0.44497,-0.0161 0.14832,-0.005 0.29665,-0.0107 0.44497,-0.0161 0.14833,-0.005 0.29665,-0.0107 0.44497,-0.016 0.14833,-0.005 0.29665,-0.0106 0.44497,-0.016 0.14833,-0.005 0.29665,-0.0106 0.44498,-0.0159 0.14832,-0.005 0.29664,-0.0106 0.44497,-0.0158 0.14832,-0.005 0.29664,-0.0105 0.44497,-0.0158 0.14832,-0.005 0.29664,-0.0105 0.44497,-0.0157 0.14832,-0.005 0.29665,-0.0104 0.44497,-0.0156 0.14832,-0.005 0.29665,-0.0104 0.44497,-0.0156 0.14832,-0.005 0.29665,-0.0104 0.44497,-0.0155 0.14833,-0.005 0.29665,-0.0103 0.44497,-0.0155 0.14833,-0.005 0.29665,-0.0103 0.44497,-0.0154 0.14833,-0.005 0.29665,-0.0103 0.44498,-0.0154 0.14832,-0.005 0.29664,-0.0102 0.44497,-0.0153 0.14832,-0.005 0.29664,-0.0102 0.44497,-0.0152 0.14832,-0.005 0.29664,-0.0101 0.44497,-0.0152 0.14832,-0.005 0.29665,-0.0101 0.44497,-0.0151 0.14832,-0.005 0.29665,-0.01 0.44497,-0.015 0.14832,-0.005 0.29665,-0.01 0.44497,-0.015 0.14833,-0.005 0.29665,-0.01 0.44497,-0.0149 0.14833,-0.005 0.29665,-0.01 0.44497,-0.0149 0.14833,-0.005 0.29665,-0.01 0.44498,-0.0148 0.14832,-0.005 0.29664,-0.01 0.44497,-0.0148 0.14832,-0.005 0.29664,-0.01 0.44497,-0.0147 0.14832,-0.005 0.29664,-0.01 0.44497,-0.0147 0.14832,-0.005 0.29665,-0.01 0.44497,-0.0146 0.14832,-0.005 0.29665,-0.01 0.44497,-0.0145 0.14832,-0.005 0.29665,-0.01 0.44497,-0.0145 0.14833,-0.005 0.29665,-0.01 0.44497,-0.0145 0.14833,-0.005 0.29665,-0.01 0.44497,-0.0144 0.14833,-0.005 0.29665,-0.01 0.44497,-0.0144 0.14833,-0.005 0.29665,-0.01 0.44498,-0.0143 0.14832,-0.005 0.29664,-0.01 0.44497,-0.0142 0.14832,-0.005 0.29664,-0.009 0.44497,-0.0142 0.14832,-0.005 0.29665,-0.009 0.44497,-0.0141 0.14832,-0.005 0.29665,-0.009 0.44497,-0.0141 0.14832,-0.005 0.29665,-0.009 0.44497,-0.014 0.14833,-0.005 0.29665,-0.009 0.44497,-0.014 0.14833,-0.005 0.29665,-0.009 0.44497,-0.0139 0.14833,-0.005 0.29665,-0.009 0.44497,-0.0139 0.14833,-0.005 0.29665,-0.009 0.44498,-0.0138 0.14832,-0.005 0.29664,-0.009 0.44497,-0.0138 0.14832,-0.005 0.29664,-0.009 0.44497,-0.0137 0.14832,-0.005 0.29665,-0.009 0.44497,-0.0137 0.14832,-0.005 0.29665,-0.009 0.44497,-0.0136 0.14832,-0.005 0.29665,-0.009 0.44497,-0.0136 0.14833,-0.005 0.29665,-0.009 0.44497,-0.0135 0.14833,-0.005 0.29665,-0.009 0.44497,-0.0135 0.14833,-0.004 0.29665,-0.009 0.44497,-0.0134 0.14833,-0.004 0.29665,-0.009 0.44498,-0.0134 0.14832,-0.004 0.29664,-0.009 0.44497,-0.0133 0.14832,-0.004 0.29664,-0.009 0.44497,-0.0133 0.14832,-0.004 0.29665,-0.009 0.44497,-0.0132 0.14832,-0.004 0.29665,-0.009 0.44497,-0.0132 0.14832,-0.004 0.29665,-0.009 0.44497,-0.0131 0.14833,-0.004 0.29665,-0.009 0.44497,-0.0131 0.14833,-0.004 0.29665,-0.009 0.44497,-0.0131 0.14833,-0.004 0.29665,-0.009 0.44497,-0.013 0.14833,-0.004 0.29665,-0.009 0.44498,-0.013 0.14832,-0.004 0.29664,-0.009 0.44497,-0.0129 0.14832,-0.004 0.29664,-0.009 0.44497,-0.0129 0.14832,-0.004 0.29665,-0.009 0.44497,-0.0128 0.14832,-0.004 0.29665,-0.009 0.44497,-0.0128 0.14832,-0.004 0.29665,-0.009 0.44497,-0.0127 0.14833,-0.004 0.29665,-0.008 0.44497,-0.0127 0.14833,-0.004 0.29665,-0.008 0.44497,-0.0127 0.14833,-0.004 0.29665,-0.008 0.44497,-0.0126 0.14833,-0.004 0.29665,-0.008 0.44498,-0.0126 0.14832,-0.004 0.29664,-0.008 0.44497,-0.0125 0.14832,-0.004 0.29664,-0.008 0.44497,-0.0125 0.14832,-0.004 0.29665,-0.008 0.44497,-0.0124 0.14832,-0.004 0.29665,-0.008 0.44497,-0.0124 0.14832,-0.004 0.29665,-0.008 0.44497,-0.0123 0.14832,-0.004 0.29665,-0.008 0.44497,-0.0123 0.14833,-0.004 0.29665,-0.008 0.44497,-0.0123 0.14833,-0.004 0.29665,-0.008 0.44497,-0.0122 0.14833,-0.004 0.29665,-0.008 0.44498,-0.0122 0.14832,-0.004 0.29664,-0.008 0.44497,-0.0121 0.14832,-0.004 0.29664,-0.008 0.44497,-0.0121 0.14832,-0.004 0.29665,-0.008 0.44497,-0.0121 0.14832,-0.004 0.29665,-0.008 0.44497,-0.012 0.14832,-0.004 0.29665,-0.008 0.44497,-0.012 0.14832,-0.004 0.29665,-0.008 0.44497,-0.0119 0.14833,-0.004 0.29665,-0.008 0.44497,-0.0119 0.14833,-0.004 0.29665,-0.008 0.44497,-0.0119 0.14833,-0.004 0.29665,-0.008 0.44498,-0.0118 0.14832,-0.004 0.29664,-0.008 0.44497,-0.0118 0.14832,-0.004 0.29664,-0.008 0.44497,-0.0117 0.14832,-0.004 0.29665,-0.008 0.44497,-0.0117 0.14832,-0.004 0.29665,-0.008 0.44497,-0.0117 0.14832,-0.004 0.29665,-0.008 0.44497,-0.0116 0.14832,-0.004 0.29665,-0.008 0.44497,-0.0116 0.14833,-0.004 0.29665,-0.008 0.44497,-0.0115 0.14833,-0.004 0.29665,-0.008 0.44497,-0.0115 0.14833,-0.004 0.29665,-0.008 0.44498,-0.0115 0.14832,-0.004 0.29664,-0.008 0.44497,-0.0114 0.14832,-0.004 0.29664,-0.008 0.44497,-0.0114 0.14832,-0.004 0.29665,-0.008 0.44497,-0.0113 0.14832,-0.004 0.29665,-0.008 0.44497,-0.0113 0.14832,-0.004 0.29665,-0.008 0.44497,-0.0113 0.14832,-0.004 0.29665,-0.007 0.44497,-0.0112 0.14833,-0.004 0.29665,-0.007 0.44497,-0.0112 0.14833,-0.004 0.29665,-0.007 0.44497,-0.0112 0.14833,-0.004 0.29665,-0.007 0.44498,-0.0111 0.14832,-0.004 0.29664,-0.007 0.44497,-0.0111 0.14832,-0.004 0.29664,-0.007 0.44497,-0.0111 0.14832,-0.004 0.29665,-0.007 0.44497,-0.011 0.14832,-0.004 0.29665,-0.007 0.44497,-0.011 0.14832,-0.004 0.29665,-0.007 0.44497,-0.011 0.14832,-0.004 0.29665,-0.007 0.44497,-0.0109 0.14833,-0.004 0.29665,-0.007 0.44497,-0.0109 0.14833,-0.004 0.29665,-0.007 0.44497,-0.0109 0.14833,-0.004 0.29665,-0.007 0.44498,-0.0108 0.14832,-0.004 0.29664,-0.007 0.44497,-0.0108 0.14832,-0.004 0.29664,-0.007 0.44497,-0.0107 0.14832,-0.004 0.29664,-0.007 0.44497,-0.0107 0.14832,-0.004 0.29665,-0.007 0.44497,-0.0107 0.14832,-0.004 0.29665,-0.007 0.44497,-0.0106 0.14832,-0.004 0.29665,-0.007 0.44497,-0.0106 0.14833,-0.004 0.29665,-0.007 0.44497,-0.0106 0.14833,-0.004 0.29665,-0.007 0.44497,-0.0105 0.14833,-0.004 0.29665,-0.007 0.44498,-0.0105 0.14832,-0.003 0.29664,-0.007 0.44497,-0.0105 0.14832,-0.003 0.29664,-0.007 0.44497,-0.0104 0.14832,-0.003 0.29664,-0.007 0.44497,-0.0104 0.14832,-0.003 0.29665,-0.007 0.44497,-0.0104 0.14832,-0.003 0.29665,-0.007 0.44497,-0.0104 0.14832,-0.003 0.29665,-0.007 0.44497,-0.0103 0.14833,-0.003 0.29665,-0.007 0.44497,-0.0103 0.14833,-0.003 0.29665,-0.007 0.44497,-0.0102 0.14833,-0.003 0.29665,-0.007 0.44498,-0.0102 0.14832,-0.003 0.29664,-0.007 0.44497,-0.0102 0.14832,-0.003 0.29664,-0.007 0.44497,-0.0102 0.14832,-0.003 0.29664,-0.007 0.44497,-0.0101 0.14832,-0.003 0.29665,-0.007 0.44497,-0.0101 0.14832,-0.003 0.29665,-0.007 0.44497,-0.0101 0.14832,-0.003 0.29665,-0.007 0.44497,-0.01 0.14833,-0.003 0.29665,-0.007 0.44497,-0.01 0.14833,-0.003 0.29665,-0.007 0.44497,-0.01 0.14833,-0.003 0.29665,-0.007 0.44498,-0.01 0.14832,-0.003 0.29664,-0.007 0.44497,-0.01 0.14832,-0.003 0.29664,-0.007 0.44497,-0.01 0.14832,-0.003 0.29664,-0.007 0.44497,-0.01 0.14832,-0.003 0.29665,-0.007 0.44497,-0.01 0.14832,-0.003 0.29665,-0.007 0.44497,-0.01 0.14832,-0.003 0.29665,-0.007 0.44497,-0.01 0.14833,-0.003 0.29665,-0.006 0.44497,-0.01 0.14833,-0.003 0.29665,-0.006 0.44497,-0.01 0.14833,-0.003 0.29665,-0.006 0.44497,-0.01 0.14833,-0.003 0.29665,-0.006 0.44498,-0.01 0.14832,-0.003 0.29664,-0.006 0.44497,-0.01 0.14832,-0.003 0.29664,-0.006 0.44497,-0.01 0.14832,-0.003 0.29665,-0.006 0.44497,-0.01 0.14832,-0.003 0.29665,-0.006 0.44497,-0.01 0.14832,-0.003 0.29665,-0.006 0.44497,-0.01 0.14833,-0.003 0.29665,-0.006 0.44497,-0.009 0.14833,-0.003 0.29665,-0.006 0.44497,-0.009 0.14833,-0.003 0.29665,-0.006 0.44497,-0.009 0.14833,-0.003 0.29665,-0.006 0.44498,-0.009 0.14832,-0.003 0.29664,-0.006 0.44497,-0.009 0.14832,-0.003 0.29664,-0.006 0.44497,-0.009 0.14832,-0.003 0.29665,-0.006 0.44497,-0.009 0.14832,-0.003 0.29665,-0.006 0.44497,-0.009 0.14832,-0.003 0.29665,-0.006 0.44497,-0.009 0.14833,-0.003 0.29665,-0.006 0.44497,-0.009 0.14833,-0.003 0.29665,-0.006 0.44497,-0.009 0.14833,-0.003 0.29665,-0.006 0.44497,-0.009 0.14833,-0.003 0.29665,-0.006 0.44498,-0.009 0.14832,-0.003 0.29664,-0.006 0.44497,-0.009 0.14832,-0.003 0.29664,-0.006 0.44497,-0.009 0.14832,-0.003 0.29665,-0.006 0.44497,-0.009 0.14832,-0.003 0.29665,-0.006 0.44497,-0.009 0.14832,-0.003 0.29665,-0.006 0.44497,-0.009 0.14833,-0.003 0.29665,-0.006 0.44497,-0.009 0.14833,-0.003 0.29665,-0.006 0.44497,-0.009 0.14833,-0.003 0.29665,-0.006 0.44497,-0.009 0.14833,-0.003 0.29665,-0.006 0.44498,-0.009 0.14832,-0.003 0.29664,-0.006 0.44497,-0.009 0.14832,-0.003 0.29664,-0.006 0.44497,-0.009 0.14832,-0.003 0.29665,-0.006 0.44497,-0.009 0.14832,-0.003 0.29665,-0.006 0.44497,-0.009 0.14832,-0.003 0.29665,-0.006 0.44497,-0.009 0.14833,-0.003 0.29665,-0.006 0.44497,-0.009 0.14833,-0.003 0.29665,-0.006 0.44497,-0.009 0.14833,-0.003 0.29665,-0.006 0.44497,-0.009 0.14833,-0.003 0.29665,-0.006 0.44498,-0.009 0.14832,-0.003 0.29664,-0.006 0.44497,-0.009 0.14832,-0.003 0.29664,-0.006 0.44497,-0.009 0.14832,-0.003 0.29665,-0.006 0.44497,-0.009 0.14832,-0.003 0.29665,-0.006 0.44497,-0.009 0.14832,-0.003 0.29665,-0.006 0.44497,-0.009 0.14832,-0.003 0.29665,-0.006 0.44497,-0.009 0.14833,-0.003 0.29665,-0.006 0.44497,-0.008 0.14833,-0.003 0.29665,-0.006 0.44497,-0.008 0.14833,-0.003 0.29665,-0.006 0.44498,-0.008 0.14832,-0.003 0.29664,-0.006 0.44497,-0.008 0.14832,-0.003 0.29664,-0.006 0.44497,-0.008 0.14832,-0.003 0.29665,-0.006 0.44497,-0.008 0.14832,-0.003 0.29665,-0.006 0.44497,-0.008 0.14832,-0.003 0.29665,-0.006 0.44497,-0.008 0.14832,-0.003 0.29665,-0.006 0.44497,-0.008 0.14833,-0.003 0.29665,-0.006 0.44497,-0.008 0.14833,-0.003 0.29665,-0.006 0.44497,-0.008 0.14833,-0.003 0.29665,-0.005 0.44498,-0.008 0.14832,-0.003 0.29664,-0.005 0.44497,-0.008 0.14832,-0.003 0.29664,-0.005 0.44497,-0.008 0.14832,-0.003 0.29665,-0.005 0.44497,-0.008 0.14832,-0.003 0.29665,-0.005 0.44497,-0.008"
       style="opacity:1;fill:none;fill-opacity:1;fill-rule:nonzero;stroke:#000000;stroke-width:2.8125;stroke-linecap:round;stroke-linejoin:round;stroke-miterlimit:4;stroke-dasharray:none;stroke-dashoffset:0;stroke-opacity:1"
       inkscape:connector-curvature="0" />
    <text
       id="text6089"
       y="147.18326"
       x="233.51096"
       style="font-style:normal;font-variant:normal;font-weight:normal;font-stretch:normal;line-height:0%;font-family:'Nimbus Sans L';-inkscape-font-specification:Sans;letter-spacing:0px;word-spacing:0px;fill:#000000;fill-opacity:1;stroke:none;stroke-width:1px;stroke-linecap:butt;stroke-linejoin:miter;stroke-opacity:1"
       xml:space="preserve"><tspan
         style="font-size:16.25px;line-height:1.25"
         y="147.18326"
         x="233.51096"
         id="tspan6091"
         sodipodi:role="line">$\Lambda W$</tspan></text>
    <text
       id="text6089-4"
       y="313.17642"
       x="348.16754"
       style="font-style:normal;font-variant:normal;font-weight:normal;font-stretch:normal;line-height:0%;font-family:'Nimbus Sans L';-inkscape-font-specification:Sans;letter-spacing:0px;word-spacing:0px;fill:#000000;fill-opacity:1;stroke:none;stroke-width:1px;stroke-linecap:butt;stroke-linejoin:miter;stroke-opacity:1"
       xml:space="preserve"><tspan
         style="font-size:16.25px;line-height:1.25"
         y="313.17642"
         x="348.16754"
         id="tspan6091-7"
         sodipodi:role="line">$W$</tspan></text>
    <text
       id="text6089-4-1"
       y="313.17642"
       x="763.5083"
       style="font-style:normal;font-variant:normal;font-weight:normal;font-stretch:normal;line-height:0%;font-family:'Nimbus Sans L';-inkscape-font-specification:Sans;letter-spacing:0px;word-spacing:0px;fill:#000000;fill-opacity:1;stroke:none;stroke-width:1px;stroke-linecap:butt;stroke-linejoin:miter;stroke-opacity:1"
       xml:space="preserve"><tspan
         style="font-size:16.25px;line-height:1.25"
         y="313.17642"
         x="763.5083"
         id="tspan6091-7-2"
         sodipodi:role="line">$W$</tspan></text>
    <text
       id="text6089-6"
       y="146.0052"
       x="648.5564"
       style="font-style:normal;font-variant:normal;font-weight:normal;font-stretch:normal;font-size:12px;line-height:0%;font-family:'Nimbus Sans L';-inkscape-font-specification:Sans;letter-spacing:0px;word-spacing:0px;fill:#000000;fill-opacity:1;stroke:none;stroke-width:1px;stroke-linecap:butt;stroke-linejoin:miter;stroke-opacity:1"
       xml:space="preserve"><tspan
         style="font-size:16.25px;line-height:1.25;stroke-width:1px"
         y="146.0052"
         x="648.5564"
         id="tspan6091-1"
         sodipodi:role="line">$\Lambda W$</tspan></text>
    <text
       id="text6089-7"
       y="232.73932"
       x="245.22891"
       style="font-style:normal;font-variant:normal;font-weight:normal;font-stretch:normal;font-size:12px;line-height:0%;font-family:'Nimbus Sans L';-inkscape-font-specification:Sans;letter-spacing:0px;word-spacing:0px;fill:#000000;fill-opacity:1;stroke:none;stroke-width:1px;stroke-linecap:butt;stroke-linejoin:miter;stroke-opacity:1"
       xml:space="preserve"><tspan
         style="font-size:16.25px;line-height:1.25;stroke-width:1px"
         y="232.73932"
         x="245.22891"
         id="tspan6091-9"
         sodipodi:role="line">$\frac{2 G L^\prime W}{1+W/W_s}$</tspan></text>
    <text
       id="text6089-7-2"
       y="204.01456"
       x="651.04266"
       style="font-style:normal;font-variant:normal;font-weight:normal;font-stretch:normal;font-size:12px;line-height:0%;font-family:'Nimbus Sans L';-inkscape-font-specification:Sans;letter-spacing:0px;word-spacing:0px;fill:#000000;fill-opacity:1;stroke:none;stroke-width:1px;stroke-linecap:butt;stroke-linejoin:miter;stroke-opacity:1"
       xml:space="preserve"><tspan
         style="font-size:16.25px;line-height:1.25;stroke-width:1px"
         y="204.01456"
         x="651.04266"
         id="tspan6091-9-0"
         sodipodi:role="line">$\frac{2G L^\prime W}{1+W/W_s}$</tspan></text>
    <flowRoot
       xml:space="preserve"
       id="flowRoot2179"
       style="font-style:italic;font-variant:normal;font-weight:normal;font-stretch:normal;font-size:25px;line-height:125%;font-family:msbm10;-inkscape-font-specification:'msbm10 Italic';letter-spacing:0px;word-spacing:0px;fill:#000000;fill-opacity:1;stroke:none;stroke-width:1px;stroke-linecap:butt;stroke-linejoin:miter;stroke-opacity:1"
       transform="matrix(0.93749999,0,0,0.93749999,82.975935,128.99014)"><flowRegion
         id="flowRegion2181"><rect
           id="rect2183"
           width="458.69885"
           height="269.86658"
           x="-57.244427"
           y="-43.24955" /></flowRegion><flowPara
         id="flowPara2185" /></flowRoot>  </g>
</svg>
