<?xml version="1.0" encoding="UTF-8" standalone="no"?>
<!-- Created with Inkscape (http://www.inkscape.org/) -->

<svg
   xmlns:dc="http://purl.org/dc/elements/1.1/"
   xmlns:cc="http://creativecommons.org/ns#"
   xmlns:rdf="http://www.w3.org/1999/02/22-rdf-syntax-ns#"
   xmlns:svg="http://www.w3.org/2000/svg"
   xmlns="http://www.w3.org/2000/svg"
   xmlns:xlink="http://www.w3.org/1999/xlink"
   xmlns:sodipodi="http://sodipodi.sourceforge.net/DTD/sodipodi-0.dtd"
   xmlns:inkscape="http://www.inkscape.org/namespaces/inkscape"
   width="266.1489mm"
   height="63.634922mm"
   viewBox="0 0 943.04727 225.47807"
   id="svg6687"
   version="1.1"
   inkscape:version="0.92.3 (2405546, 2018-03-11)"
   sodipodi:docname="07_pnlaser.svg">
  <defs
     id="defs6689">
    <inkscape:path-effect
       effect="spiro"
       id="path-effect3452-7-06-3-2-6-2"
       is_visible="true" />
    <inkscape:path-effect
       effect="spiro"
       id="path-effect3452-7-06-3-9-4-4-7"
       is_visible="true" />
    <inkscape:path-effect
       effect="spiro"
       id="path-effect3452-7-06-3-9-4-3"
       is_visible="true" />
    <inkscape:path-effect
       effect="spiro"
       id="path-effect3452-7-06-3-2-8-4-3-7-6"
       is_visible="true" />
    <inkscape:path-effect
       effect="spiro"
       id="path-effect3452-7-06-3-2-9"
       is_visible="true" />
    <inkscape:path-effect
       effect="spiro"
       id="path-effect3452-7-06-3-9-4-4-7-0"
       is_visible="true" />
    <inkscape:path-effect
       effect="spiro"
       id="path-effect3452-7-06-3-9-4-3-1"
       is_visible="true" />
    <inkscape:path-effect
       effect="spiro"
       id="path-effect3452-7-06-3-2-8-4-3-7-6-7"
       is_visible="true" />
    <inkscape:path-effect
       effect="spiro"
       id="path-effect3452-7-06-3-2-6-2-3"
       is_visible="true" />
    <inkscape:path-effect
       effect="spiro"
       id="path-effect3452-7-06-3-2-9-8"
       is_visible="true" />
    <inkscape:path-effect
       effect="spiro"
       id="path-effect3452-7-06-3-2-8-4-3-7-6-7-5"
       is_visible="true" />
    <inkscape:path-effect
       effect="spiro"
       id="path-effect3452-7-06-3-2-9-8-9"
       is_visible="true" />
    <pattern
       inkscape:collect="always"
       xlink:href="#Strips1_1"
       id="pattern6344"
       patternTransform="matrix(-2.5493968,-2.411044,-7.8972608,8.3504289,1183.2896,54.797781)" />
    <pattern
       inkscape:isstock="true"
       inkscape:stockid="Stripes 1:1"
       id="Strips1_1"
       patternTransform="translate(0,0) scale(10,10)"
       height="1"
       width="2"
       patternUnits="userSpaceOnUse"
       inkscape:collect="always">
      <rect
         id="rect5615"
         height="2"
         width="1"
         y="-0.5"
         x="0"
         style="fill:black;stroke:none" />
    </pattern>
  </defs>
  <sodipodi:namedview
     id="base"
     pagecolor="#ffffff"
     bordercolor="#666666"
     borderopacity="1.0"
     inkscape:pageopacity="0.0"
     inkscape:pageshadow="2"
     inkscape:zoom="1.2993087"
     inkscape:cx="468.20314"
     inkscape:cy="61.432191"
     inkscape:document-units="px"
     inkscape:current-layer="layer1"
     showgrid="false"
     fit-margin-top="0"
     fit-margin-left="0"
     fit-margin-right="0"
     fit-margin-bottom="0"
     inkscape:window-width="1593"
     inkscape:window-height="800"
     inkscape:window-x="214"
     inkscape:window-y="174"
     inkscape:window-maximized="0"
     inkscape:snap-bbox="true" />
  <metadata
     id="metadata6692">
    <rdf:RDF>
      <cc:Work
         rdf:about="">
        <dc:format>image/svg+xml</dc:format>
        <dc:type
           rdf:resource="http://purl.org/dc/dcmitype/StillImage" />
        <dc:title></dc:title>
      </cc:Work>
    </rdf:RDF>
  </metadata>
  <g
     inkscape:label="Layer 1"
     inkscape:groupmode="layer"
     id="layer1"
     transform="translate(106.44144,-354.98972)">
    <g
       id="g1081">
      <g
         id="g7160">
        <g
           id="g6393"
           transform="translate(-615.10482,353.26902)">
          <path
             inkscape:connector-curvature="0"
             inkscape:original-d="m 685.96997,89.14223 h -150"
             inkscape:path-effect="#path-effect3452-7-06-3-2-6-2"
             id="path3450-5-59-1-3-1-1"
             d="m 685.96997,89.14223 h -150"
             style="fill:none;fill-rule:evenodd;stroke:#000000;stroke-width:2.63771081;stroke-linecap:butt;stroke-linejoin:miter;stroke-miterlimit:4;stroke-dasharray:none;stroke-opacity:1" />
          <rect
             y="99.827065"
             x="535.96997"
             height="100.40726"
             width="173.11781"
             id="rect5024-8-9-7-7-8"
             style="opacity:1;fill:#c1d5e9;fill-opacity:1;fill-rule:nonzero;stroke:none;stroke-width:2;stroke-linecap:butt;stroke-linejoin:bevel;stroke-miterlimit:4;stroke-dasharray:none;stroke-dashoffset:0;stroke-opacity:1" />
          <path
             inkscape:connector-curvature="0"
             inkscape:original-d="m 685.96997,30.920823 h -150"
             inkscape:path-effect="#path-effect3452-7-06-3-9-4-4-7"
             id="path3450-5-59-1-4-4-6-7"
             d="m 685.96997,30.920823 h -150"
             style="fill:none;fill-rule:evenodd;stroke:#000000;stroke-width:2.63771081;stroke-linecap:butt;stroke-linejoin:miter;stroke-miterlimit:4;stroke-dasharray:none;stroke-opacity:1" />
          <rect
             y="170.659"
             x="680.40094"
             height="29.516457"
             width="235.62154"
             id="rect5024-8-9-7-2"
             style="opacity:1;fill:#c1d5e9;fill-opacity:1;fill-rule:nonzero;stroke:none;stroke-width:2;stroke-linecap:butt;stroke-linejoin:bevel;stroke-miterlimit:4;stroke-dasharray:none;stroke-dashoffset:0;stroke-opacity:1" />
          <rect
             y="99.932137"
             x="748.60626"
             height="8.6091747"
             width="166.98396"
             id="rect5024-8-4-3-9-7-5-2-7"
             style="opacity:1;fill:#5ead5e;fill-opacity:1;fill-rule:nonzero;stroke:none;stroke-width:2;stroke-linecap:butt;stroke-linejoin:bevel;stroke-miterlimit:4;stroke-dasharray:none;stroke-dashoffset:0;stroke-opacity:1" />
          <path
             inkscape:connector-curvature="0"
             inkscape:original-d="m 916.02247,108.94268 h -150"
             inkscape:path-effect="#path-effect3452-7-06-3-9-4-3"
             id="path3450-5-59-1-4-4-3"
             d="m 916.02247,108.94268 h -150"
             style="fill:none;fill-rule:evenodd;stroke:#000000;stroke-width:2.63771081;stroke-linecap:butt;stroke-linejoin:miter;stroke-miterlimit:4;stroke-dasharray:none;stroke-opacity:1" />
          <path
             sodipodi:nodetypes="cc"
             inkscape:connector-curvature="0"
             inkscape:original-d="m 916.39137,99.836791 c 0,0 -497.29297,-2.37132 -379.5597,-0.25"
             inkscape:path-effect="#path-effect3452-7-06-3-2-8-4-3-7-6"
             id="path3450-5-59-1-3-4-4-6-5-1"
             d="m 916.39137,99.836791 -379.5597,-0.25"
             style="fill:#ff0000;fill-rule:evenodd;stroke:#d40000;stroke-width:2.63800001;stroke-linecap:butt;stroke-linejoin:miter;stroke-miterlimit:4;stroke-dasharray:10.55200005, 2.63800001;stroke-dashoffset:0;stroke-opacity:1" />
          <path
             inkscape:connector-curvature="0"
             id="path4526"
             d="m 746.99937,100.5531 c 0.22084,0.11018 0.66885,0.34776 0.85622,0.53513 0.0564,0.0564 0.0559,0.15278 0.10702,0.21405 0.1938,0.23256 0.40578,0.45306 0.64217,0.64217 0.10044,0.0804 0.22341,0.13034 0.32108,0.21406 0.15322,0.13133 0.2854,0.2854 0.4281,0.4281 0.0714,0.0713 0.12753,0.16214 0.21406,0.21406 0.0967,0.058 0.23083,0.0393 0.32108,0.10702 0.20181,0.15136 0.3436,0.37097 0.53513,0.53514 0.0606,0.0519 0.14768,0.0628 0.21406,0.10703 0.11011,0.0734 0.37256,0.31701 0.4281,0.4281 0.016,0.0319 -0.0252,0.0818 0,0.10703 0.0252,0.0252 0.0818,-0.0252 0.10703,0 0.0252,0.0252 -0.016,0.0751 0,0.10702 0.0856,0.17124 0.34249,0.25687 0.42811,0.42811 0.016,0.0319 -0.0252,0.0818 0,0.10702 0.0505,0.0505 0.15023,-0.0319 0.21405,0 0.0451,0.0226 0.0619,0.0845 0.10703,0.10703 0.0646,0.0323 0.27161,-0.0495 0.32108,0 0.0252,0.0252 -0.0252,0.0818 0,0.10703 0.0495,0.0495 0.25646,-0.0323 0.32108,0 0.0451,0.0226 0.0619,0.0845 0.10703,0.10703 0.0638,0.0319 0.15023,-0.0319 0.21405,0 0.0451,0.0226 0.0619,0.0845 0.10703,0.10703 0.0638,0.0319 0.1636,-0.0505 0.21405,0 0.0252,0.0252 -0.0319,0.0911 0,0.10703 0.0638,0.0319 0.15024,-0.0319 0.21406,0 0.0319,0.016 -0.0252,0.0818 0,0.10702 0.0252,0.0252 0.0773,-0.0198 0.10702,0 0.084,0.056 0.12753,0.16214 0.21406,0.21406 0.0967,0.058 0.21738,0.0626 0.32108,0.10702 0.14664,0.0628 0.28958,0.1349 0.42811,0.21406 0.57346,0.32769 0.81162,0.57006 1.49837,0.85621 0.5055,0.12638 0.29655,0.0413 0.64216,0.21406 0.14271,0.0713 0.29536,0.12555 0.42811,0.21404 0.12594,0.084 0.1857,0.25339 0.32108,0.32108 0.0319,0.016 0.0818,-0.0252 0.10703,0 0.0252,0.0252 -0.0252,0.0818 0,0.10703 0.0252,0.0252 0.0751,-0.016 0.10703,0 0.0451,0.0226 0.0619,0.0845 0.10702,0.10704 0.0319,0.016 0.0785,-0.0214 0.10703,0 0.12109,0.0908 0.20289,0.22651 0.32108,0.32107 0.0623,0.0498 0.14565,0.066 0.21405,0.10703 0.1103,0.0662 0.20103,0.16788 0.32109,0.21405 0.34763,0.1337 0.73712,0.15451 1.07026,0.32108 0.24922,0.12461 0.40778,0.38446 0.64217,0.53513 2.05843,1.32329 0.16412,0.0285 1.17729,0.53515 0.0451,0.0226 0.065,0.079 0.10703,0.10702 0.0664,0.0443 0.13837,0.0818 0.21405,0.10703 0.14133,0.0471 0.21406,-0.0983 0.21406,0.10703 0,0.0357 0.0113,0.0732 0,0.10702 -0.0252,0.0757 -0.0713,0.14271 -0.10703,0.21406 -0.19125,0.3825 0.002,0.0837 -0.42811,0.42811 -0.0788,0.063 -0.13333,0.15351 -0.21405,0.21405 -0.19146,0.14359 -0.42811,0.21405 -0.64216,0.32108 -0.0713,0.0357 -0.14271,0.0713 -0.21406,0.10703 -0.1427,0.10702 -0.27323,0.23258 -0.4281,0.32108 -0.098,0.056 -0.21634,0.0651 -0.32109,0.10703 -0.72054,0.28821 0.71444,-0.13498 -0.85621,0.21405 -0.22026,0.0489 -0.41791,0.18914 -0.64216,0.21404 -0.49641,0.0552 -1.0008,-0.0433 -1.49838,0 -0.53784,0.0468 -1.06756,0.1673 -1.6054,0.21406 -0.28433,0.0247 -0.57081,0 -0.85622,0 -0.74919,0 -1.49837,0 -2.24756,0 -0.53514,0 -1.07027,0 -1.60541,0 -0.0979,0 -0.45537,0.0399 -0.53513,0 -0.0451,-0.0226 -0.0592,-0.0911 -0.10703,-0.10703 -0.10153,-0.0339 -0.22535,0.0479 -0.32108,0 -0.0451,-0.0226 -0.0592,-0.0911 -0.10703,-0.10703 -0.0677,-0.0226 -0.14636,0.0226 -0.21405,0 -0.0479,-0.016 -0.065,-0.079 -0.10703,-0.10702 -0.0664,-0.0443 -0.1427,-0.0714 -0.21405,-0.10703 -0.0539,-0.2358 -0.22018,-0.0566 -0.32108,-0.10703 -0.11505,-0.0575 -0.20603,-0.15653 -0.32108,-0.21405 -0.0319,-0.016 -0.0751,0.016 -0.10703,0 -0.0451,-0.0226 -0.0619,-0.0845 -0.10703,-0.10703 -0.0319,-0.016 -0.0751,0.016 -0.10702,0 -0.44542,-0.22271 0.11441,0.007 -0.10703,-0.21405 -0.0252,-0.0252 -0.0818,0.0252 -0.10703,0 -0.0252,-0.0252 0.016,-0.0751 0,-0.10703 -0.0451,-0.0903 -0.15808,-0.13009 -0.21405,-0.21405 -0.0885,-0.13275 -0.12555,-0.29536 -0.21405,-0.42811 -0.028,-0.042 -0.0714,-0.0713 -0.10703,-0.10703 -0.0357,-0.10702 -0.0566,-0.22017 -0.10703,-0.32108 -0.0226,-0.0451 -0.0845,-0.0619 -0.10703,-0.10703 -0.016,-0.0319 0.009,-0.0724 0,-0.10702 -0.0274,-0.10945 -0.0566,-0.22018 -0.10702,-0.32108 -0.0226,-0.0451 -0.0911,-0.0592 -0.10703,-0.10703 -0.0338,-0.10153 0.0479,-0.22535 0,-0.32108 -0.0226,-0.0451 -0.0948,-0.0581 -0.10703,-0.10703 -0.0346,-0.13844 0,-0.2854 0,-0.42811 0,-0.4281 0,-0.85621 0,-1.28432 0,-0.78486 0,-1.56973 0,-2.35459 0,-0.2436 0.0403,-1.27036 0,-1.39135 -0.0252,-0.0757 -0.0818,-0.13837 -0.10702,-0.21405 -0.0314,-0.0941 -0.0175,-1.21413 0,-1.28433 0.0193,-0.0774 0.0818,-0.13837 0.10702,-0.21405 0.0113,-0.0339 -0.016,-0.0751 0,-0.10703 0.0226,-0.0451 0.0911,-0.0592 0.10703,-0.10703 0.007,-0.0216 -0.0356,-0.39249 0,-0.4281 0.1427,-0.14271 0.10703,0.17838 0.10703,-0.10703"
             style="fill:#ffffff;fill-rule:evenodd;stroke:none;stroke-width:1px;stroke-linecap:butt;stroke-linejoin:miter;stroke-opacity:1" />
          <path
             sodipodi:nodetypes="czc"
             inkscape:connector-curvature="0"
             id="path4813"
             d="m 685.86217,30.967477 c 20.1,-0.07787 32.8024,19.3737 42.0598,40.039628 9.2574,20.665928 22.4395,37.653995 38.1084,37.909765"
             style="fill:none;fill-opacity:1;fill-rule:evenodd;stroke:#000000;stroke-width:2.6400001;stroke-linecap:butt;stroke-linejoin:miter;stroke-miterlimit:4;stroke-dasharray:none;stroke-opacity:1" />
          <path
             inkscape:connector-curvature="0"
             id="path4528"
             d="m 709.00482,100.5531 c 5.24276,3.93226 6.48052,10.44554 10.58543,15.00341 6.97654,9.13491 9.16352,20.91176 15.93722,30.22033 4.3779,6.82411 8.33062,14.57484 16.06695,18.15061 4.5969,5.39095 12.15559,5.11104 17.13099,9.18221 -0.94048,6.84479 -12.96716,2.81169 -18.53831,4.14854 -9.54689,1.08719 -19.14752,3.00181 -28.74934,1.3241 -6.3492,-0.49874 -14.32112,1.54202 -18.6373,-4.57641 -4.10465,-7.56531 -0.34023,-16.76596 0.04,-24.86284 1.57253,-12.08844 0.1405,-24.29145 1.21918,-36.39879 2.87997,-3.5224 2.09058,-8.68213 4.94519,-12.19116 z"
             style="fill:#c1d5e9;fill-opacity:1;fill-rule:evenodd;stroke:none;stroke-width:1px;stroke-linecap:butt;stroke-linejoin:miter;stroke-opacity:1" />
          <path
             sodipodi:nodetypes="czc"
             inkscape:connector-curvature="0"
             id="path4813-4"
             d="m 685.94587,89.104104 c 20.1,-0.08183 32.8024,20.359516 42.0598,42.077016 9.2574,21.71751 22.4395,39.70148 38.1084,39.97026"
             style="fill:none;fill-opacity:1;fill-rule:evenodd;stroke:#000000;stroke-width:2.6400001;stroke-linecap:butt;stroke-linejoin:miter;stroke-miterlimit:4;stroke-dasharray:none;stroke-opacity:1" />
          <path
             inkscape:connector-curvature="0"
             inkscape:original-d="m 916.02247,171.16409 h -150"
             inkscape:path-effect="#path-effect3452-7-06-3-2-9"
             id="path3450-5-59-1-3-0"
             d="m 916.02247,171.16409 h -150"
             style="fill:none;fill-rule:evenodd;stroke:#000000;stroke-width:2.63771081;stroke-linecap:butt;stroke-linejoin:miter;stroke-miterlimit:4;stroke-dasharray:none;stroke-opacity:1" />
          <text
             id="text17025"
             y="195.52347"
             x="961.28015"
             style="font-style:italic;font-variant:normal;font-weight:normal;font-stretch:normal;line-height:0%;font-family:msbm10;-inkscape-font-specification:'msbm10 Italic';letter-spacing:0px;word-spacing:0px;fill:#000000;fill-opacity:1;stroke:none;stroke-width:0.93749994px;stroke-linecap:butt;stroke-linejoin:miter;stroke-opacity:1"
             xml:space="preserve"><tspan
               style="font-size:23.43749809px;line-height:1.25;stroke-width:0.93749994px"
               y="195.52347"
               x="961.28015"
               id="tspan17023"
               sodipodi:role="line"> </tspan></text>
        </g>
        <g
           id="g6409"
           transform="translate(-615.10482,353.26902)">
          <rect
             y="169.01469"
             x="1011.5122"
             height="31.219622"
             width="173.11781"
             id="rect5024-8-9-7-7-8-5"
             style="opacity:1;fill:#c1d5e9;fill-opacity:1;fill-rule:nonzero;stroke:none;stroke-width:2;stroke-linecap:butt;stroke-linejoin:bevel;stroke-miterlimit:4;stroke-dasharray:none;stroke-dashoffset:0;stroke-opacity:1" />
          <path
             inkscape:connector-curvature="0"
             inkscape:original-d="m 1161.5122,92.920819 h -150"
             inkscape:path-effect="#path-effect3452-7-06-3-9-4-4-7-0"
             id="path3450-5-59-1-4-4-6-7-4"
             d="m 1161.5122,92.920819 h -150"
             style="fill:none;fill-rule:evenodd;stroke:#000000;stroke-width:2.63771081;stroke-linecap:butt;stroke-linejoin:miter;stroke-miterlimit:4;stroke-dasharray:none;stroke-opacity:1" />
          <rect
             y="170.659"
             x="1156.1573"
             height="29.614302"
             width="235.40749"
             id="rect5024-8-9-7-2-9"
             style="opacity:1;fill:#c1d5e9;fill-opacity:1;fill-rule:nonzero;stroke:none;stroke-width:2;stroke-linecap:butt;stroke-linejoin:bevel;stroke-miterlimit:4;stroke-dasharray:none;stroke-dashoffset:0;stroke-opacity:1" />
          <rect
             y="95.694077"
             x="1195.9958"
             height="12.847224"
             width="195.13672"
             id="rect5024-8-4-3-9-7-5-2-7-2"
             style="opacity:1;fill:#5ead5e;fill-opacity:1;fill-rule:nonzero;stroke:none;stroke-width:2;stroke-linecap:butt;stroke-linejoin:bevel;stroke-miterlimit:4;stroke-dasharray:none;stroke-dashoffset:0;stroke-opacity:1" />
          <path
             inkscape:connector-curvature="0"
             id="path4526-4"
             d="m 1196.4164,98.131357 c 0.4259,0.12685 1.2899,0.400376 1.651,0.616095 0.1077,0.06493 0.1077,0.175895 0.2066,0.246435 0.3738,0.267746 0.7824,0.521608 1.2383,0.73933 0.1938,0.09256 0.4309,0.15006 0.6193,0.246447 0.2954,0.151196 0.5503,0.328586 0.8256,0.492876 0.1369,0.0821 0.2459,0.18667 0.4129,0.24645 0.1871,0.0668 0.4451,0.0452 0.619,0.12321 0.3894,0.17426 0.6627,0.4271 1.0322,0.6161 0.1176,0.0598 0.2848,0.0723 0.4127,0.12323 0.2123,0.0845 0.7185,0.36497 0.8255,0.49287 0.031,0.0367 -0.048,0.0942 0,0.12322 0.048,0.029 0.1582,-0.029 0.2066,0 0.048,0.029 -0.03,0.0865 0,0.12321 0.1659,0.19715 0.6605,0.29574 0.8256,0.49289 0.031,0.0367 -0.048,0.0942 0,0.12321 0.098,0.0581 0.2897,-0.0367 0.4127,0 0.087,0.026 0.1196,0.0973 0.2065,0.12322 0.1254,0.0372 0.5239,-0.057 0.6191,0 0.048,0.029 -0.048,0.0942 0,0.12323 0.095,0.057 0.4947,-0.0372 0.6192,0 0.087,0.026 0.1196,0.0973 0.2064,0.12322 0.1235,0.0367 0.2898,-0.0367 0.4129,0 0.087,0.026 0.1196,0.0973 0.2064,0.12322 0.1234,0.0367 0.3155,-0.0581 0.4129,0 0.048,0.029 -0.062,0.10489 0,0.12323 0.1234,0.0367 0.2896,-0.0367 0.4126,0 0.062,0.0184 -0.048,0.0942 0,0.12321 0.048,0.029 0.1485,-0.0228 0.2066,0 0.162,0.0645 0.2459,0.18667 0.4127,0.24645 0.187,0.0668 0.4192,0.0721 0.6192,0.12321 0.2828,0.0723 0.5585,0.15531 0.8256,0.24644 1.106,0.37727 1.5652,0.65631 2.8897,0.98576 0.9748,0.1455 0.5718,0.0476 1.2383,0.24645 0.2752,0.0821 0.5697,0.14454 0.8256,0.24642 0.243,0.0967 0.3582,0.29173 0.6192,0.36966 0.062,0.0184 0.1582,-0.029 0.2066,0 0.048,0.029 -0.048,0.0942 0,0.12322 0.048,0.029 0.1446,-0.0184 0.2063,0 0.087,0.026 0.1196,0.0973 0.2064,0.12324 0.062,0.0184 0.1504,-0.0246 0.2064,0 0.2335,0.10454 0.3913,0.26078 0.6192,0.36964 0.1195,0.0573 0.281,0.076 0.4129,0.12323 0.2127,0.0762 0.3876,0.19328 0.6193,0.24643 0.6703,0.15393 1.4214,0.17789 2.0638,0.36966 0.4807,0.14347 0.7865,0.44263 1.2385,0.6161 3.9697,1.5235 0.3165,0.0328 2.2705,0.61612 0.087,0.026 0.1253,0.0909 0.2063,0.12321 0.1273,0.051 0.2669,0.0942 0.4128,0.12322 0.2726,0.0542 0.4128,-0.11317 0.4128,0.12322 0,0.0411 0.022,0.0843 0,0.12322 -0.048,0.0872 -0.1369,0.1643 -0.2064,0.24644 -0.3689,0.44038 0,0.0964 -0.8255,0.49289 -0.1524,0.0725 -0.2573,0.17673 -0.413,0.24643 -0.3691,0.16532 -0.8255,0.24644 -1.2382,0.36966 -0.1369,0.0411 -0.2752,0.0821 -0.413,0.12322 -0.2752,0.12322 -0.5268,0.26777 -0.8255,0.36966 -0.189,0.0645 -0.4172,0.0749 -0.6193,0.12323 -1.3895,0.33181 1.378,-0.15541 -1.6512,0.24643 -0.4248,0.0563 -0.8059,0.21776 -1.2385,0.24643 -0.9573,0.0635 -1.9301,-0.0499 -2.8895,0 -1.0373,0.0539 -2.0589,0.19261 -3.096,0.24644 -0.5485,0.0284 -1.1008,0 -1.6514,0 -1.4446,0 -2.8895,0 -4.3343,0 -1.0321,0 -2.0641,0 -3.096,0 -0.189,0 -0.8783,0.0459 -1.0322,0 -0.087,-0.026 -0.1138,-0.10488 -0.2063,-0.12322 -0.1957,-0.039 -0.4345,0.0551 -0.6193,0 -0.087,-0.026 -0.1137,-0.10488 -0.2063,-0.12322 -0.1312,-0.026 -0.2823,0.026 -0.4127,0 -0.092,-0.0184 -0.1253,-0.091 -0.2066,-0.12322 -0.1273,-0.051 -0.2751,-0.0822 -0.4127,-0.12322 -0.1044,-0.27147 -0.4247,-0.0652 -0.6192,-0.12322 -0.222,-0.0662 -0.3972,-0.18022 -0.6193,-0.24644 -0.062,-0.0184 -0.1446,0.0184 -0.2063,0 -0.087,-0.026 -0.1196,-0.0973 -0.2064,-0.12322 -0.062,-0.0184 -0.1446,0.0184 -0.2066,0 -0.8589,-0.25641 0.2208,0.008 -0.2062,-0.24644 -0.048,-0.029 -0.1582,0.029 -0.2064,0 -0.048,-0.029 0.031,-0.0865 0,-0.12322 -0.087,-0.10396 -0.3049,-0.14977 -0.4129,-0.24644 -0.1717,-0.15283 -0.242,-0.34004 -0.4127,-0.49288 -0.054,-0.0483 -0.1369,-0.0821 -0.2066,-0.12322 -0.07,-0.12321 -0.1099,-0.25348 -0.2062,-0.36966 -0.045,-0.0519 -0.162,-0.0713 -0.2064,-0.12322 -0.031,-0.0367 0.02,-0.0834 0,-0.12322 -0.052,-0.12601 -0.1099,-0.25349 -0.2064,-0.36966 -0.044,-0.0519 -0.1754,-0.0681 -0.2065,-0.12322 -0.065,-0.11689 0.092,-0.25944 0,-0.36966 -0.045,-0.0519 -0.1832,-0.0669 -0.2064,-0.12322 -0.067,-0.15939 0,-0.32858 0,-0.49288 0,-0.49288 0,-0.98576 0,-1.47864 0,-0.90361 0,-1.80723 0,-2.71084 0,-0.28045 0.077,-1.46256 0,-1.60186 -0.048,-0.0872 -0.1581,-0.1593 -0.2064,-0.24643 -0.06,-0.10834 -0.033,-1.39783 0,-1.47866 0.037,-0.0891 0.1582,-0.159301 0.2064,-0.246431 0.021,-0.03903 -0.03,-0.08646 0,-0.123224 0.045,-0.05192 0.1755,-0.06816 0.2064,-0.123223 0.02,-0.02487 -0.07,-0.451873 0,-0.492871 0.2751,-0.164302 0.2065,0.205369 0.2065,-0.123224"
             style="fill:#ffffff;fill-rule:evenodd;stroke:none;stroke-width:1px;stroke-linecap:butt;stroke-linejoin:miter;stroke-opacity:1" />
          <path
             inkscape:connector-curvature="0"
             inkscape:original-d="m 1391.5647,108.94268 h -150"
             inkscape:path-effect="#path-effect3452-7-06-3-9-4-3-1"
             id="path3450-5-59-1-4-4-3-5"
             d="m 1391.5647,108.94268 h -150"
             style="fill:none;fill-rule:evenodd;stroke:#000000;stroke-width:2.63771081;stroke-linecap:butt;stroke-linejoin:miter;stroke-miterlimit:4;stroke-dasharray:none;stroke-opacity:1" />
          <path
             sodipodi:nodetypes="cc"
             inkscape:connector-curvature="0"
             inkscape:original-d="m 1391.9336,95.836787 c 0,0 -311.0661,-2.37132 -193.3329,-0.25"
             inkscape:path-effect="#path-effect3452-7-06-3-2-8-4-3-7-6-7"
             id="path3450-5-59-1-3-4-4-6-5-1-7"
             d="m 1391.9336,95.836787 -193.3329,-0.25"
             style="fill:#ff0000;fill-rule:evenodd;stroke:#d40000;stroke-width:2.63800001;stroke-linecap:butt;stroke-linejoin:miter;stroke-miterlimit:4;stroke-dasharray:10.55200005, 2.63800001;stroke-dashoffset:0;stroke-opacity:1" />
          <path
             sodipodi:nodetypes="cccccccc"
             inkscape:connector-curvature="0"
             id="path4528-9"
             d="m 1218.9897,168.36623 c 6.2144,2.47589 4.4412,5.04147 11.4415,5.69295 4.4048,1.37502 10.4928,2.58179 13.7247,4.26249 -4.5664,1.04662 -9.9986,0.25801 -14.9062,0.56679 -11.7781,0.11131 -23.545,0.71656 -35.3277,0.28458 -5.2639,-0.21987 -10.8226,0.37769 -15.8373,-1.02484 -3.6507,-2.36535 2.013,-5.73984 1.4214,-8.67143 19.1827,0.10562 28.8716,-1.11988 39.4836,-1.11054 z"
             style="fill:#c1d5e9;fill-opacity:1;fill-rule:evenodd;stroke:none;stroke-width:1px;stroke-linecap:butt;stroke-linejoin:miter;stroke-opacity:1" />
          <path
             sodipodi:nodetypes="czc"
             inkscape:connector-curvature="0"
             id="path4813-4-4"
             d="m 1161.4881,155.13312 c 20.1,-0.016 32.8024,3.97483 42.0598,8.21479 9.2574,4.23995 22.4395,7.751 38.1084,7.80347"
             style="fill:none;fill-opacity:1;fill-rule:evenodd;stroke:#000000;stroke-width:2.6400001;stroke-linecap:butt;stroke-linejoin:miter;stroke-miterlimit:4;stroke-dasharray:none;stroke-opacity:1" />
          <path
             inkscape:connector-curvature="0"
             inkscape:original-d="m 1161.5122,155.14223 h -150"
             inkscape:path-effect="#path-effect3452-7-06-3-2-6-2-3"
             id="path3450-5-59-1-3-1-1-1"
             d="m 1161.5122,155.14223 h -150"
             style="fill:none;fill-rule:evenodd;stroke:#000000;stroke-width:2.63771081;stroke-linecap:butt;stroke-linejoin:miter;stroke-miterlimit:4;stroke-dasharray:none;stroke-opacity:1" />
          <path
             inkscape:connector-curvature="0"
             inkscape:original-d="m 1391.5647,171.16409 h -150"
             inkscape:path-effect="#path-effect3452-7-06-3-2-9-8"
             id="path3450-5-59-1-3-0-5"
             d="m 1391.5647,171.16409 h -150"
             style="fill:none;fill-rule:evenodd;stroke:#000000;stroke-width:2.63771081;stroke-linecap:butt;stroke-linejoin:miter;stroke-miterlimit:4;stroke-dasharray:none;stroke-opacity:1" />
          <path
             sodipodi:nodetypes="cc"
             inkscape:connector-curvature="0"
             inkscape:original-d="m 1208.286,169.73219 c 0,0 -314.49094,-2.37132 -196.7577,-0.25"
             inkscape:path-effect="#path-effect3452-7-06-3-2-8-4-3-7-6-7-5"
             id="path3450-5-59-1-3-4-4-6-5-1-7-3"
             d="m 1208.286,169.73219 -196.7577,-0.25"
             style="fill:#ff0000;fill-rule:evenodd;stroke:#d40000;stroke-width:2.63800001;stroke-linecap:butt;stroke-linejoin:miter;stroke-miterlimit:4;stroke-dasharray:10.55200005, 2.63800001;stroke-dashoffset:0;stroke-opacity:1" />
          <path
             inkscape:connector-curvature="0"
             inkscape:original-d="m 1170.158,155.42378 h -150"
             inkscape:path-effect="#path-effect3452-7-06-3-2-9-8-9"
             id="path3450-5-59-1-3-0-5-2"
             d="m 1170.158,155.42378 h -150"
             style="fill:none;fill-rule:evenodd;stroke:#000000;stroke-width:2.63771081;stroke-linecap:butt;stroke-linejoin:miter;stroke-miterlimit:4;stroke-dasharray:none;stroke-opacity:1" />
          <path
             sodipodi:nodetypes="czc"
             inkscape:connector-curvature="0"
             id="path4813-9-0"
             d="m 1199.888,95.550371 c -15.1625,-0.07431 -24.7446,18.458619 -31.728,38.148349 -6.9833,19.6898 -16.9273,35.87541 -28.7472,36.11911"
             style="fill:none;fill-opacity:1;fill-rule:evenodd;stroke:#d40000;stroke-width:2.6400001;stroke-linecap:butt;stroke-linejoin:miter;stroke-miterlimit:4;stroke-dasharray:10.56000015, 5.28000006;stroke-dashoffset:0;stroke-opacity:1" />
          <path
             sodipodi:nodetypes="czc"
             inkscape:connector-curvature="0"
             id="path4813-9-0-1"
             d="m 1268.4966,95.718905 c -15.1625,-0.07398 -24.7446,18.381825 -31.728,37.989635 -6.9833,19.60786 -16.3922,35.72614 -28.2121,35.96883"
             style="fill:none;fill-opacity:1;fill-rule:evenodd;stroke:#d40000;stroke-width:2.63999987;stroke-linecap:butt;stroke-linejoin:miter;stroke-miterlimit:4;stroke-dasharray:10.56000029, 5.28000014;stroke-dashoffset:0;stroke-opacity:1" />
          <path
             sodipodi:nodetypes="czc"
             inkscape:connector-curvature="0"
             id="path4813-9"
             d="m 1161.4044,92.91751 c 20.1,-0.01599 32.8024,3.976513 42.0598,8.21826 9.2574,4.24175 22.4395,7.7286 38.1084,7.7811"
             style="fill:none;fill-opacity:1;fill-rule:evenodd;stroke:#000000;stroke-width:2.6400001;stroke-linecap:butt;stroke-linejoin:miter;stroke-miterlimit:4;stroke-dasharray:none;stroke-opacity:1" />
          <rect
             y="73.580971"
             x="1191.0157"
             height="114.73008"
             width="25.731007"
             id="rect4894"
             style="opacity:0.575;fill:url(#pattern6344);fill-opacity:1;fill-rule:nonzero;stroke:none;stroke-width:2.63800001;stroke-linecap:butt;stroke-linejoin:miter;stroke-miterlimit:4;stroke-dasharray:none;stroke-dashoffset:0;stroke-opacity:1" />
        </g>
      </g>
    </g>
    <g
       id="g1045">
      <text
         id="text4870-3-7-9-5-3-2"
         y="459.96716"
         x="305.07858"
         style="font-style:normal;font-variant:normal;font-weight:normal;font-stretch:normal;line-height:0%;font-family:'Nimbus Sans L';-inkscape-font-specification:Sans;letter-spacing:0px;word-spacing:0px;fill:#000000;fill-opacity:1;stroke:none;stroke-width:1px;stroke-linecap:butt;stroke-linejoin:miter;stroke-opacity:1"
         xml:space="preserve"><tspan
           style="font-size:20px;line-height:1.25"
           y="459.96716"
           x="305.07858"
           id="tspan4872-6-8-7-4-5-9"
           sodipodi:role="line">$E_F$</tspan></text>
      <text
         id="text11946-7"
         y="545.59265"
         x="-76.707565"
         style="font-style:italic;font-variant:normal;font-weight:normal;font-stretch:normal;line-height:0%;font-family:msbm10;-inkscape-font-specification:'msbm10 Italic';letter-spacing:0px;word-spacing:0px;fill:#000000;fill-opacity:1;stroke:none;stroke-width:0.93749988px;stroke-linecap:butt;stroke-linejoin:miter;stroke-opacity:1"
         xml:space="preserve"><tspan
           style="font-style:normal;font-variant:normal;font-weight:normal;font-stretch:normal;font-size:23.43749619px;line-height:1.25;font-family:'Nimbus Sans L';-inkscape-font-specification:'Nimbus Sans L';stroke-width:0.93749988px"
           y="545.59265"
           x="-76.707565"
           id="tspan11944-3"
           sodipodi:role="line">valenčni pas</tspan></text>
      <text
         id="text11946-9-6"
         y="372.40512"
         x="-77.897141"
         style="font-style:italic;font-variant:normal;font-weight:normal;font-stretch:normal;line-height:0%;font-family:msbm10;-inkscape-font-specification:'msbm10 Italic';letter-spacing:0px;word-spacing:0px;fill:#000000;fill-opacity:1;stroke:none;stroke-width:0.93749982px;stroke-linecap:butt;stroke-linejoin:miter;stroke-opacity:1"
         xml:space="preserve"><tspan
           style="font-style:normal;font-variant:normal;font-weight:normal;font-stretch:normal;font-size:23.43749428px;line-height:1.25;font-family:'Nimbus Sans L';-inkscape-font-specification:'Nimbus Sans L';stroke-width:0.93749982px"
           y="372.40512"
           x="-77.897141"
           id="tspan11944-1-1"
           sodipodi:role="line">prevodni pas</tspan></text>
      <text
         id="text5056-2-1-5-6-7-1-9"
         y="576.92529"
         x="-26.698895"
         style="font-style:normal;font-variant:normal;font-weight:normal;font-stretch:normal;line-height:0%;font-family:'Nimbus Sans L';-inkscape-font-specification:Sans;letter-spacing:0px;word-spacing:0px;fill:#000000;fill-opacity:1;stroke:none;stroke-width:1px;stroke-linecap:butt;stroke-linejoin:miter;stroke-opacity:1"
         xml:space="preserve"><tspan
           style="font-size:16.25px;line-height:1.25"
           y="576.92529"
           x="-26.698895"
           id="tspan5058-7-9-0-1-4-0-3"
           sodipodi:role="line">$p$</tspan></text>
      <text
         id="text5056-2-1-5-6-7-19"
         y="576.94714"
         x="208.97859"
         style="font-style:normal;font-variant:normal;font-weight:normal;font-stretch:normal;line-height:0%;font-family:'Nimbus Sans L';-inkscape-font-specification:Sans;letter-spacing:0px;word-spacing:0px;fill:#000000;fill-opacity:1;stroke:none;stroke-width:1px;stroke-linecap:butt;stroke-linejoin:miter;stroke-opacity:1"
         xml:space="preserve"><tspan
           style="font-size:16.25px;line-height:1.25"
           y="576.94714"
           x="208.97859"
           id="tspan5058-7-9-0-1-4-4"
           sodipodi:role="line">$n$</tspan></text>
      <text
         id="text4870-3-7-9-5-3-2-5"
         y="455.12369"
         x="780.62079"
         style="font-style:normal;font-variant:normal;font-weight:normal;font-stretch:normal;line-height:0%;font-family:'Nimbus Sans L';-inkscape-font-specification:Sans;letter-spacing:0px;word-spacing:0px;fill:#000000;fill-opacity:1;stroke:none;stroke-width:1px;stroke-linecap:butt;stroke-linejoin:miter;stroke-opacity:1"
         xml:space="preserve"><tspan
           style="font-size:20px;line-height:1.25"
           y="455.12369"
           x="780.62079"
           id="tspan4872-6-8-7-4-5-9-7"
           sodipodi:role="line">$F_p$</tspan></text>
      <text
         id="text11946-7-0"
         y="545.59265"
         x="398.83469"
         style="font-style:italic;font-variant:normal;font-weight:normal;font-stretch:normal;line-height:0%;font-family:msbm10;-inkscape-font-specification:'msbm10 Italic';letter-spacing:0px;word-spacing:0px;fill:#000000;fill-opacity:1;stroke:none;stroke-width:0.93749988px;stroke-linecap:butt;stroke-linejoin:miter;stroke-opacity:1"
         xml:space="preserve"><tspan
           style="font-style:normal;font-variant:normal;font-weight:normal;font-stretch:normal;font-size:23.43749619px;line-height:1.25;font-family:'Nimbus Sans L';-inkscape-font-specification:'Nimbus Sans L';stroke-width:0.93749988px"
           y="545.59265"
           x="398.83469"
           id="tspan11944-3-8"
           sodipodi:role="line">valenčni pas</tspan></text>
      <text
         id="text11946-9-6-1"
         y="430.40512"
         x="397.64505"
         style="font-style:italic;font-variant:normal;font-weight:normal;font-stretch:normal;line-height:0%;font-family:msbm10;-inkscape-font-specification:'msbm10 Italic';letter-spacing:0px;word-spacing:0px;fill:#000000;fill-opacity:1;stroke:none;stroke-width:0.93749982px;stroke-linecap:butt;stroke-linejoin:miter;stroke-opacity:1"
         xml:space="preserve"><tspan
           style="font-style:normal;font-variant:normal;font-weight:normal;font-stretch:normal;font-size:23.43749428px;line-height:1.25;font-family:'Nimbus Sans L';-inkscape-font-specification:'Nimbus Sans L';stroke-width:0.93749982px"
           y="430.40512"
           x="397.64505"
           id="tspan11944-1-1-9"
           sodipodi:role="line">prevodni pas</tspan></text>
      <text
         id="text5056-2-1-5-6-7-1-9-9"
         y="576.92529"
         x="448.84335"
         style="font-style:normal;font-variant:normal;font-weight:normal;font-stretch:normal;line-height:0%;font-family:'Nimbus Sans L';-inkscape-font-specification:Sans;letter-spacing:0px;word-spacing:0px;fill:#000000;fill-opacity:1;stroke:none;stroke-width:1px;stroke-linecap:butt;stroke-linejoin:miter;stroke-opacity:1"
         xml:space="preserve"><tspan
           style="font-size:16.25px;line-height:1.25"
           y="576.92529"
           x="448.84335"
           id="tspan5058-7-9-0-1-4-0-3-7"
           sodipodi:role="line">$p$</tspan></text>
      <text
         id="text5056-2-1-5-6-7-19-8"
         y="576.94714"
         x="684.52081"
         style="font-style:normal;font-variant:normal;font-weight:normal;font-stretch:normal;line-height:0%;font-family:'Nimbus Sans L';-inkscape-font-specification:Sans;letter-spacing:0px;word-spacing:0px;fill:#000000;fill-opacity:1;stroke:none;stroke-width:1px;stroke-linecap:butt;stroke-linejoin:miter;stroke-opacity:1"
         xml:space="preserve"><tspan
           style="font-size:16.25px;line-height:1.25"
           y="576.94714"
           x="684.52081"
           id="tspan5058-7-9-0-1-4-4-2"
           sodipodi:role="line">$n$</tspan></text>
      <text
         id="text4870-3-7-9-5-3-2-5-2"
         y="527.86597"
         x="361.87613"
         style="font-style:normal;font-variant:normal;font-weight:normal;font-stretch:normal;line-height:0%;font-family:'Nimbus Sans L';-inkscape-font-specification:Sans;letter-spacing:0px;word-spacing:0px;fill:#000000;fill-opacity:1;stroke:none;stroke-width:1px;stroke-linecap:butt;stroke-linejoin:miter;stroke-opacity:1"
         xml:space="preserve"><tspan
           style="font-size:20px;line-height:1.25"
           y="527.86597"
           x="361.87613"
           id="tspan4872-6-8-7-4-5-9-7-0"
           sodipodi:role="line">$F_v$</tspan></text>
      <text
         id="text4870-3-7-9-5-3-2-5-2-7"
         y="504.06854"
         x="621.64606"
         style="font-style:normal;font-variant:normal;font-weight:normal;font-stretch:normal;line-height:0%;font-family:'Nimbus Sans L';-inkscape-font-specification:Sans;letter-spacing:0px;word-spacing:0px;fill:#000000;fill-opacity:1;stroke:none;stroke-width:1px;stroke-linecap:butt;stroke-linejoin:miter;stroke-opacity:1"
         xml:space="preserve"><tspan
           style="font-size:20px;line-height:1.25"
           y="504.06854"
           x="621.64606"
           id="tspan4872-6-8-7-4-5-9-7-0-3"
           sodipodi:role="line">$F_v$</tspan></text>
      <text
         id="text4870-3-7-9-5-3-2-5-1"
         y="481.85287"
         x="519.36652"
         style="font-style:normal;font-variant:normal;font-weight:normal;font-stretch:normal;line-height:0%;font-family:'Nimbus Sans L';-inkscape-font-specification:Sans;letter-spacing:0px;word-spacing:0px;fill:#000000;fill-opacity:1;stroke:none;stroke-width:1px;stroke-linecap:butt;stroke-linejoin:miter;stroke-opacity:1"
         xml:space="preserve"><tspan
           style="font-size:20px;line-height:1.25"
           y="481.85287"
           x="519.36652"
           id="tspan4872-6-8-7-4-5-9-7-1"
           sodipodi:role="line">$F_p$</tspan></text>
      <text
         inkscape:transform-center-y="-3.6076877"
         inkscape:transform-center-x="-2.8861502"
         id="text976"
         y="372.95459"
         x="-107.84906"
         style="font-style:italic;font-variant:normal;font-weight:normal;font-stretch:normal;font-size:23.4375px;line-height:125%;font-family:msbm10;-inkscape-font-specification:'msbm10 Italic';letter-spacing:0px;word-spacing:0px;fill:#000000;fill-opacity:1;stroke:none;stroke-width:0.9375px;stroke-linecap:butt;stroke-linejoin:miter;stroke-opacity:1"
         xml:space="preserve"><tspan
           style="font-style:normal;font-variant:normal;font-weight:normal;font-stretch:normal;font-family:msbm10;-inkscape-font-specification:msbm10;stroke-width:0.9375px"
           y="372.95459"
           x="-107.84906"
           id="tspan974"
           sodipodi:role="line">a)</tspan></text>
      <text
         inkscape:transform-center-y="9.379988"
         inkscape:transform-center-x="-66.381454"
         id="text976-3"
         y="372.79672"
         x="361.56427"
         style="font-style:italic;font-variant:normal;font-weight:normal;font-stretch:normal;font-size:23.4375px;line-height:125%;font-family:msbm10;-inkscape-font-specification:'msbm10 Italic';letter-spacing:0px;word-spacing:0px;fill:#000000;fill-opacity:1;stroke:none;stroke-width:0.9375px;stroke-linecap:butt;stroke-linejoin:miter;stroke-opacity:1"
         xml:space="preserve"><tspan
           style="font-style:normal;font-variant:normal;font-weight:normal;font-stretch:normal;font-family:msbm10;-inkscape-font-specification:msbm10;stroke-width:0.9375px"
           y="372.79672"
           x="361.56427"
           id="tspan974-6"
           sodipodi:role="line">b)</tspan></text>
    </g>
  </g>
</svg>
