<?xml version="1.0" encoding="UTF-8" standalone="no"?>
<!-- Created with Inkscape (http://www.inkscape.org/) -->

<svg
   xmlns:dc="http://purl.org/dc/elements/1.1/"
   xmlns:cc="http://creativecommons.org/ns#"
   xmlns:rdf="http://www.w3.org/1999/02/22-rdf-syntax-ns#"
   xmlns:svg="http://www.w3.org/2000/svg"
   xmlns="http://www.w3.org/2000/svg"
   xmlns:sodipodi="http://sodipodi.sourceforge.net/DTD/sodipodi-0.dtd"
   xmlns:inkscape="http://www.inkscape.org/namespaces/inkscape"
   width="1080.0547"
   height="668.18994"
   id="svg2"
   version="1.1"
   inkscape:version="0.91 r13725"
   sodipodi:docname="08_OpticniSoliton.svg">
  <sodipodi:namedview
     id="base"
     pagecolor="#ffffff"
     bordercolor="#666666"
     borderopacity="1.0"
     inkscape:pageopacity="0.0"
     inkscape:pageshadow="2"
     inkscape:zoom="0.7"
     inkscape:cx="262.68189"
     inkscape:cy="189.61564"
     inkscape:document-units="px"
     inkscape:current-layer="layer1"
     showgrid="false"
     fit-margin-top="0"
     fit-margin-left="0"
     fit-margin-right="0"
     fit-margin-bottom="0"
     inkscape:window-width="1594"
     inkscape:window-height="1006"
     inkscape:window-x="323"
     inkscape:window-y="10"
     inkscape:window-maximized="0" />
  <defs
     id="defs4">
    <inkscape:path-effect
       effect="spiro"
       id="path-effect4385"
       is_visible="true" />
    <marker
       inkscape:stockid="Arrow1Mend"
       orient="auto"
       refY="0"
       refX="0"
       id="Arrow1Mend"
       style="overflow:visible">
      <path
         id="path3900"
         d="M 0,0 5,-5 -12.5,0 5,5 0,0 z"
         style="fill-rule:evenodd;stroke:#000000;stroke-width:1pt"
         transform="matrix(-0.4,0,0,-0.4,-4,0)"
         inkscape:connector-curvature="0" />
    </marker>
    <inkscape:path-effect
       effect="spiro"
       id="path-effect3117"
       is_visible="true" />
    <marker
       inkscape:stockid="Arrow1Mend"
       orient="auto"
       refY="0"
       refX="0"
       id="Arrow1Mend-3"
       style="overflow:visible">
      <path
         inkscape:connector-curvature="0"
         id="path3900-6"
         d="M 0,0 5,-5 -12.5,0 5,5 0,0 z"
         style="fill-rule:evenodd;stroke:#000000;stroke-width:1pt"
         transform="matrix(-0.4,0,0,-0.4,-4,0)" />
    </marker>
    <inkscape:path-effect
       effect="spiro"
       id="path-effect3117-7"
       is_visible="true" />
    <marker
       inkscape:stockid="Arrow1Mend"
       orient="auto"
       refY="0"
       refX="0"
       id="Arrow1Mend-3-6"
       style="overflow:visible">
      <path
         inkscape:connector-curvature="0"
         id="path3900-6-2"
         d="M 0,0 5,-5 -12.5,0 5,5 0,0 z"
         style="fill-rule:evenodd;stroke:#000000;stroke-width:1pt"
         transform="matrix(-0.4,0,0,-0.4,-4,0)" />
    </marker>
    <inkscape:path-effect
       effect="spiro"
       id="path-effect4385-9"
       is_visible="true" />
  </defs>
  <metadata
     id="metadata7">
    <rdf:RDF>
      <cc:Work
         rdf:about="">
        <dc:format>image/svg+xml</dc:format>
        <dc:type
           rdf:resource="http://purl.org/dc/dcmitype/StillImage" />
        <dc:title />
      </cc:Work>
    </rdf:RDF>
  </metadata>
  <g
     inkscape:label="Layer 1"
     inkscape:groupmode="layer"
     id="layer1"
     transform="translate(-51.411396,-6.3850392)">
    <path
       style="fill:none;stroke:#000000;stroke-width:3;stroke-linecap:butt;stroke-linejoin:miter;stroke-miterlimit:4;stroke-opacity:1;stroke-dasharray:none;marker-end:url(#Arrow1Mend)"
       d="m 52.911396,542.23156 1073.165104,0"
       id="path3115-5"
       inkscape:path-effect="#path-effect3117-7"
       inkscape:original-d="m 52.911396,542.23156 1073.165104,0"
       inkscape:connector-curvature="0"
       sodipodi:nodetypes="cc" />
    <path
       style="fill:none;stroke:#000000;stroke-width:3;stroke-linecap:butt;stroke-linejoin:miter;stroke-miterlimit:4;stroke-opacity:1;stroke-dasharray:none;marker-end:url(#Arrow1Mend)"
       d="m 54.550986,322.92835 1073.165114,0"
       id="path3115"
       inkscape:path-effect="#path-effect3117"
       inkscape:original-d="m 54.550986,322.92835 1073.165114,0"
       inkscape:connector-curvature="0"
       sodipodi:nodetypes="cc" />
    <path
       style="fill:none;stroke:#000000;stroke-width:3;stroke-linecap:butt;stroke-linejoin:miter;stroke-miterlimit:4;stroke-opacity:1;stroke-dasharray:none;marker-end:url(#Arrow1Mend-3)"
       d="m 568.28571,323.79075 0,-307.142854"
       id="path4383"
       inkscape:path-effect="#path-effect4385"
       inkscape:original-d="m 568.28571,323.79075 0,-307.142854"
       inkscape:connector-curvature="0"
       sodipodi:nodetypes="cc" />
    <path
       style="fill:none;stroke:#000000;stroke-width:3;stroke-linecap:butt;stroke-linejoin:miter;stroke-miterlimit:4;stroke-opacity:1;stroke-dasharray:none;marker-end:url(#Arrow1Mend-3)"
       d="m 569.01052,539.7436 0,-185.71428"
       id="path4383-1"
       inkscape:path-effect="#path-effect4385-9"
       inkscape:original-d="m 569.01052,539.7436 0,-185.71428"
       inkscape:connector-curvature="0"
       sodipodi:nodetypes="cc" />
    <path
       style="opacity:1;fill:none;fill-opacity:1;fill-rule:nonzero;stroke:#000000;stroke-width:5;stroke-linecap:butt;stroke-linejoin:round;stroke-miterlimit:4;stroke-dasharray:none;stroke-dashoffset:0;stroke-opacity:1"
       d="m 57.697109,321.71784 c 0.341309,0 0.682618,0 1.023927,0 0.341309,0 0.682618,0 1.023926,0 0.341309,0 0.682618,0 1.023927,0 0.341309,0 0.682618,0 1.023927,0 0.341309,0 0.682618,0 1.023927,0 0.341309,0 0.682617,0 1.023926,0 0.341309,0 0.682618,0 1.023927,0 0.341309,0 0.682618,0 1.023927,0 0.341309,0 0.682618,0 1.023927,0 0.341308,0 0.682617,0 1.023926,0 0.341309,0 0.682618,0 1.023927,0 0.341309,0 0.682618,0 1.023927,0 0.341309,0 0.682618,0 1.023926,0 0.341309,0 0.682618,0 1.023927,0 0.341309,0 0.682618,0 1.023927,0 0.341309,0 0.682618,0 1.023927,0 0.341309,0 0.682617,0 1.023926,0 0.341309,0 0.682618,0 1.023927,0 0.341309,0 0.682618,0 1.023927,0 0.341309,0 0.682618,0 1.023927,0 0.341308,0 0.682617,0 1.023926,0 0.341309,0 0.682618,0 1.023927,0 0.341309,0 0.682618,0 1.023927,0 0.341309,0 0.682618,0 1.023926,0 0.341309,0 0.682618,0 1.023927,0 0.341309,0 0.682618,0 1.023927,0 0.341309,0 0.682618,0 1.023927,0 0.341309,0 0.682617,0 1.023926,0 0.341309,0 0.682618,0 1.023927,0 0.341309,0 0.682618,0 1.023927,0 0.341309,0 0.682618,0 1.023927,0 0.341308,0 0.682617,0 1.023926,0 0.341309,0 0.682618,0 1.023927,0 0.341309,0 0.682618,0 1.023927,0 0.341309,0 0.682618,0 1.023926,0 0.341309,0 0.682618,0 1.023927,0 0.341309,0 0.682618,0 1.023927,0 0.341309,0 0.682618,0 1.023927,0 0.341309,0 0.682617,0 1.023926,0 0.341309,0 0.682618,0 1.023927,0 0.341309,0 0.682618,0 1.023927,0 0.341305,0 0.682615,0 1.023925,0 0.34131,0 0.68262,0 1.02393,0 0.34131,0 0.68262,0 1.02392,0 0.34131,0 0.68262,0 1.02393,0 0.34131,0 0.68262,0 1.02393,0 0.34131,0 0.68262,0 1.02393,0 0.3413,0 0.68261,0 1.02392,0 0.34131,0 0.68262,0 1.02393,0 0.34131,0 0.68262,0 1.02393,0 0.3413,0 0.68261,0 1.02392,0 0.34131,0 0.68262,0 1.02393,0 0.34131,0 0.68262,0 1.02393,0 0.3413,0 0.68261,0 1.02392,0 0.34131,0 0.68262,0 1.02393,0 0.34131,0 0.68262,0 1.02393,0 0.3413,0 0.68261,0 1.02392,0 0.34131,0 0.68262,0 1.02393,0 0.34131,0 0.68262,0 1.02393,0 0.3413,0 0.68261,0 1.02392,0 0.34131,0 0.68262,0 1.02393,0 0.34131,0 0.68262,0 1.02393,0 0.3413,0 0.68261,0 1.02392,0 0.34131,0 0.68262,0 1.02393,0 0.34131,0 0.68262,0 1.02393,0 0.34131,0 0.68261,0 1.02392,0 0.34131,0 0.68262,0 1.02393,0 0.34131,0 0.68262,0 1.02393,0 0.34131,0 0.68261,0 1.02392,0 0.34131,0 0.68262,0 1.02393,0 0.34131,0 0.68262,0 1.02393,0 0.34131,0 0.68261,0 1.02392,0 0.34131,0 0.68262,0 1.02393,0 0.34131,0 0.68262,0 1.02393,0 0.34131,0 0.68261,0 1.02392,0 0.34131,0 0.68262,0 1.02393,0 0.34131,0 0.68262,0 1.02393,0 0.34131,0 0.68261,0 1.02392,0 0.34131,0 0.68262,0 1.02393,0 0.34131,0 0.68262,0 1.02393,0 0.34131,0 0.68261,0 1.02392,0 0.34131,0 0.68262,0 1.02393,0 0.34131,0 0.68262,0 1.02393,0 0.34131,0 0.68262,0 1.02392,0 0.34131,0 0.68262,0 1.02393,0 0.34131,0 0.68262,-1e-5 1.02393,-1e-5 0.34131,0 0.68262,0 1.02392,0 0.34131,0 0.68262,0 1.02393,0 0.34131,0 0.68262,0 1.02393,0 0.34131,0 0.68262,0 1.02392,0 0.34131,0 0.68262,0 1.02393,0 0.34131,0 0.68262,0 1.02393,0 0.34131,0 0.68262,0 1.02392,0 0.34131,0 0.68262,0 1.02393,0 0.34131,0 0.68262,0 1.02393,0 0.34131,-10e-6 0.68262,-10e-6 1.02392,-10e-6 0.34131,0 0.68262,0 1.02393,0 0.34131,0 0.68262,0 1.02393,0 0.34131,0 0.68262,0 1.02392,0 0.34131,0 0.68262,0 1.02393,0 0.34131,0 0.68262,0 1.02393,-1e-5 0.34131,0 0.68262,0 1.02393,0 0.3413,0 0.68261,0 1.02392,0 0.34131,0 0.68262,0 1.02393,0 0.34131,0 0.68262,-10e-6 1.02393,-10e-6 0.3413,0 0.68261,0 1.02392,0 0.34131,0 0.68262,0 1.02393,0 0.34131,0 0.68262,-1e-5 1.02393,-1e-5 0.3413,0 0.68261,0 1.02392,0 0.34131,0 0.68262,0 1.02393,-10e-6 0.34131,0 0.68262,0 1.02393,0 0.3413,0 0.68261,0 1.02392,-1e-5 0.34131,0 0.68262,0 1.02393,0 0.34131,0 0.68262,0 1.02393,-10e-6 0.3413,0 0.68261,0 1.02392,0 0.34131,-10e-6 0.68262,-10e-6 1.02393,-10e-6 0.34131,0 0.68262,0 1.02393,-1e-5 0.3413,0 0.68261,0 1.02392,-10e-6 0.34131,0 0.68262,0 1.02393,0 0.34131,-1e-5 0.68262,-1e-5 1.02393,-1e-5 0.34131,-10e-6 0.68261,-10e-6 1.02392,-10e-6 0.34131,-1e-5 0.68262,-1e-5 1.02393,-1e-5 0.34131,-10e-6 0.68262,-10e-6 1.02393,-2e-5 0.34131,0 0.68261,0 1.02392,-10e-6 0.34131,0 0.68262,-10e-6 1.02393,-10e-6 0.34131,-1e-5 0.68262,-1e-5 1.02393,-2e-5 0.34131,0 0.68261,-1e-5 1.02392,-1e-5 0.34131,-10e-6 0.68262,-10e-6 1.02393,-2e-5 0.34131,0 0.68262,-10e-6 1.02393,-10e-6 0.34131,-1e-5 0.68261,-2e-5 1.02392,-2e-5 0.34131,-10e-6 0.68262,-2e-5 1.02393,-2e-5 0.34131,-10e-6 0.68262,-2e-5 1.02393,-3e-5 0.34131,0 0.68261,-1e-5 1.02392,-2e-5 0.34131,-1e-5 0.68262,-2e-5 1.02393,-3e-5 0.34131,0 0.68262,-1e-5 1.02393,-2e-5 0.34131,-1e-5 0.68261,-2e-5 1.02392,-3e-5 0.34131,-10e-6 0.68262,-2e-5 1.02393,-3e-5 0.34131,-10e-6 0.68262,-2e-5 1.02393,-4e-5 0.34131,-10e-6 0.68262,-2e-5 1.02392,-3e-5 0.34131,-1e-5 0.68262,-3e-5 1.02393,-4e-5 0.34131,-10e-6 0.68262,-3e-5 1.02393,-4e-5 0.34131,-2e-5 0.68262,-3e-5 1.02392,-5e-5 0.34131,-10e-6 0.68262,-3e-5 1.02393,-4e-5 0.34131,-2e-5 0.68262,-4e-5 1.02393,-5e-5 0.34131,-2e-5 0.68262,-4e-5 1.02392,-6e-5 0.34131,-2e-5 0.68262,-4e-5 1.02393,-6e-5 0.34131,-2e-5 0.68262,-4e-5 1.02393,-6e-5 0.34131,-2e-5 0.68262,-4e-5 1.02392,-7e-5 0.34131,-2e-5 0.68262,-4e-5 1.02393,-7e-5 0.34131,-2e-5 0.68262,-5e-5 1.02393,-7e-5 0.34131,-3e-5 0.68262,-6e-5 1.02392,-9e-5 0.34131,-2e-5 0.68262,-5e-5 1.02393,-8e-5 0.34131,-3e-5 0.68262,-6e-5 1.02393,-10e-5 0.34131,-3e-5 0.68262,-6e-5 1.02392,-1e-4 0.34131,-3e-5 0.68262,-7e-5 1.02393,-10e-5 0.34131,-4e-5 0.68262,-8e-5 1.02393,-1.2e-4 0.34131,-4e-5 0.68262,-8e-5 1.02393,-1.2e-4 0.3413,-4e-5 0.68261,-8e-5 1.02392,-1.3e-4 0.34131,-4e-5 0.68262,-9e-5 1.02393,-1.4e-4 0.34131,-4e-5 0.68262,-9e-5 1.02393,-1.4e-4 0.3413,-6e-5 0.68261,-1.1e-4 1.02392,-1.6e-4 0.34131,-6e-5 0.68262,-1.1e-4 1.02393,-1.7e-4 0.34131,-6e-5 0.68262,-1.2e-4 1.02393,-1.8e-4 0.3413,-6e-5 0.68261,-1.3e-4 1.02392,-1.9e-4 0.34131,-7e-5 0.68262,-1.4e-4 1.02393,-2.1e-4 0.34131,-7e-5 0.68262,-1.4e-4 1.02393,-2.2e-4 0.3413,-7e-5 0.68261,-1.5e-4 1.02392,-2.3e-4 0.34131,-8e-5 0.68262,-1.6e-4 1.02393,-2.5e-4 0.34131,-8e-5 0.68262,-1.7e-4 1.02393,-2.6e-4 0.3413,-9e-5 0.68261,-1.8e-4 1.02392,-2.8e-4 0.34131,-1e-4 0.68262,-2e-4 1.02393,-3e-4 0.34131,-10e-5 0.68262,-2.1e-4 1.02393,-3.2e-4 0.3413,-1.1e-4 0.68261,-2.2e-4 1.02392,-3.4e-4 0.34131,-1.2e-4 0.68262,-2.4e-4 1.02393,-3.6e-4 0.34131,-1.2e-4 0.68262,-2.5e-4 1.02393,-3.8e-4 0.34131,-1.4e-4 0.68261,-2.7e-4 1.02392,-4.1e-4 0.34131,-1.4e-4 0.68262,-2.9e-4 1.02393,-4.4e-4 0.34131,-1.5e-4 0.68262,-3e-4 1.02393,-4.6e-4 0.34131,-1.6e-4 0.68261,-3.2e-4 1.02392,-4.9e-4 0.34131,-1.7e-4 0.68262,-3.5e-4 1.02393,-5.3e-4 0.34131,-1.8e-4 0.68262,-3.6e-4 1.02393,-5.5e-4 0.34131,-1.9e-4 0.68261,-3.9e-4 1.02392,-5.9e-4 0.34131,-2.1e-4 0.68262,-4.1e-4 1.02393,-6.3e-4 0.34131,-2.2e-4 0.68262,-4.4e-4 1.02393,-6.7e-4 0.34131,-2.3e-4 0.68261,-4.6e-4 1.02392,-7e-4 0.34131,-2.5e-4 0.68262,-5e-4 1.02393,-7.6e-4 0.34131,-2.5e-4 0.68262,-5.2e-4 1.02393,-7.9e-4 0.34131,-2.8e-4 0.68261,-5.6e-4 1.02392,-8.5e-4 0.34131,-2.9e-4 0.68262,-5.9e-4 1.02393,-9e-4 0.34131,-3.1e-4 0.68262,-6.2e-4 1.02393,-9.5e-4 0.34131,-3.3e-4 0.68261,-6.6e-4 1.02392,-0.001 0.34131,-3.5e-4 0.68262,-7e-4 1.02393,-0.001 0.34131,-3.7e-4 0.68262,-7.5e-4 1.02393,-0.001 0.34131,-3.9e-4 0.68262,-7.9e-4 1.02392,-0.001 0.34131,-4.1e-4 0.68262,-8.4e-4 1.02393,-0.001 0.34131,-4.4e-4 0.68262,-8.9e-4 1.02393,-0.001 0.34131,-4.6e-4 0.68262,-9.4e-4 1.02392,-0.001 0.34131,-4.9e-4 0.68262,-9.9e-4 1.02393,-0.002 0.34131,-5.2e-4 0.68262,-0.001 1.02393,-0.002 0.34131,-5.5e-4 0.68262,-0.001 1.02392,-0.002 0.34131,-5.8e-4 0.68262,-0.001 1.02393,-0.002 0.34131,-6.2e-4 0.68262,-0.001 1.02393,-0.002 0.34131,-6.6e-4 0.68262,-0.001 1.02392,-0.002 0.34131,-6.9e-4 0.68262,-0.001 1.02393,-0.002 0.34131,-7.3e-4 0.68262,-0.001 1.02393,-0.002 0.34131,-7.8e-4 0.68262,-0.002 1.02392,-0.002 0.34131,-8.2e-4 0.68262,-0.002 1.02393,-0.003 0.34131,-8.6e-4 0.68262,-0.002 1.02393,-0.003 0.34131,-9.2e-4 0.68262,-0.002 1.02392,-0.003 0.34131,-9.6e-4 0.68262,-0.002 1.02393,-0.003 0.34131,-0.001 0.68262,-0.002 1.02393,-0.003 0.34131,-0.001 0.68262,-0.002 1.02393,-0.003 0.3413,-0.001 0.68261,-0.002 1.02392,-0.003 0.34131,-0.001 0.68262,-0.002 1.02393,-0.004 0.34131,-0.001 0.68262,-0.003 1.02393,-0.004 0.3413,-0.001 0.68261,-0.003 1.02392,-0.004 0.34131,-0.001 0.68262,-0.003 1.02393,-0.004 0.34131,-0.001 0.68262,-0.003 1.02393,-0.005 0.3413,-0.002 0.68261,-0.003 1.02392,-0.005 0.34131,-0.002 0.68262,-0.003 1.02393,-0.005 0.34131,-0.002 0.68262,-0.004 1.02393,-0.005 0.3413,-0.002 0.68261,-0.004 1.02392,-0.006 0.34131,-0.002 0.68262,-0.004 1.02393,-0.006 0.34131,-0.002 0.68262,-0.004 1.02393,-0.006 0.3413,-0.002 0.68261,-0.004 1.02392,-0.007 0.34131,-0.002 0.68262,-0.005 1.02393,-0.007 0.34131,-0.002 0.68262,-0.005 1.02393,-0.007 0.3413,-0.002 0.68261,-0.005 1.02392,-0.008 0.34131,-0.003 0.68262,-0.005 1.02393,-0.008 0.34131,-0.003 0.68262,-0.006 1.02393,-0.008 0.34131,-0.003 0.68261,-0.006 1.02392,-0.009 0.34131,-0.003 0.68262,-0.006 1.02393,-0.009 0.34131,-0.003 0.68262,-0.006 1.02393,-0.01 0.34131,-0.003 0.68261,-0.007 1.02392,-0.0104 0.34131,-0.004 0.68262,-0.007 1.02393,-0.0109 0.34131,-0.004 0.68262,-0.008 1.02393,-0.0114 0.34131,-0.004 0.68261,-0.008 1.02392,-0.012 0.34131,-0.004 0.68262,-0.008 1.02393,-0.0126 0.34131,-0.004 0.68262,-0.009 1.02393,-0.0132 0.34131,-0.005 0.68261,-0.009 1.02392,-0.0139 0.34131,-0.005 0.68262,-0.01 1.02393,-0.0146 0.34131,-0.005 0.68262,-0.0101 1.02393,-0.0153 0.34131,-0.005 0.68261,-0.0106 1.02392,-0.016 0.34131,-0.005 0.68262,-0.0111 1.02393,-0.0168 0.34131,-0.006 0.68262,-0.0116 1.02393,-0.0176 0.34131,-0.006 0.68261,-0.0122 1.02392,-0.0185 0.34131,-0.006 0.68262,-0.0128 1.02393,-0.0194 0.34131,-0.007 0.68262,-0.0134 1.02393,-0.0203 0.34131,-0.007 0.68262,-0.014 1.02392,-0.0212 0.34131,-0.007 0.68262,-0.0147 1.02393,-0.0223 0.34131,-0.008 0.68262,-0.0154 1.02393,-0.0233 0.34131,-0.008 0.68262,-0.0161 1.02392,-0.0244 0.34131,-0.008 0.68262,-0.0168 1.02393,-0.0255 0.34131,-0.009 0.68262,-0.0176 1.02393,-0.0267 0.34131,-0.009 0.68262,-0.0184 1.02392,-0.028 0.34131,-0.01 0.68262,-0.0193 1.02393,-0.0292 0.34131,-0.01 0.68262,-0.0202 1.02393,-0.0306 0.34131,-0.0104 0.68262,-0.0211 1.02392,-0.032 0.34131,-0.0109 0.68262,-0.022 1.02393,-0.0334 0.34131,-0.0114 0.68262,-0.023 1.02393,-0.0349 0.34131,-0.0119 0.68262,-0.0241 1.02392,-0.0365 0.34131,-0.0124 0.68262,-0.0251 1.02393,-0.0381 0.34131,-0.013 0.68262,-0.0263 1.02393,-0.0398 0.34131,-0.0136 0.68262,-0.0274 1.02392,-0.0416 0.34131,-0.0141 0.68262,-0.0286 1.02393,-0.0434 0.34131,-0.0148 0.68262,-0.0299 1.02393,-0.0453 0.34131,-0.0154 0.68262,-0.0312 1.02393,-0.0472 0.3413,-0.0161 0.68261,-0.0325 1.02392,-0.0493 0.34131,-0.0168 0.68262,-0.0339 1.02393,-0.0514 0.34131,-0.0175 0.68262,-0.0354 1.02393,-0.0536 0.3413,-0.0182 0.68261,-0.0369 1.02392,-0.0559 0.34131,-0.019 0.68262,-0.0384 1.02393,-0.0582 0.34131,-0.0198 0.68262,-0.04 1.02393,-0.0607 0.3413,-0.0206 0.68261,-0.0417 1.02392,-0.0632 0.34131,-0.0215 0.68262,-0.0435 1.02393,-0.0659 0.34131,-0.0224 0.68262,-0.0452 1.02393,-0.0686 0.3413,-0.0233 0.68261,-0.0471 1.02392,-0.0714 0.34131,-0.0243 0.68262,-0.0491 1.02393,-0.0743 0.34131,-0.0253 0.68262,-0.051 1.02393,-0.0773 0.3413,-0.0263 0.68261,-0.0531 1.02392,-0.0805 0.34131,-0.0274 0.68262,-0.0553 1.02393,-0.0837 0.34131,-0.0285 0.68262,-0.0575 1.02393,-0.087 0.3413,-0.0296 0.68261,-0.0598 1.02392,-0.0905 0.34131,-0.0308 0.68262,-0.0621 1.02393,-0.0941 0.34131,-0.032 0.68262,-0.0646 1.02393,-0.0978 0.34131,-0.0332 0.68261,-0.0671 1.02392,-0.1016 0.34131,-0.0345 0.68262,-0.0697 1.02393,-0.10555 0.34131,-0.0359 0.68262,-0.0724 1.02393,-0.10963 0.34131,-0.0372 0.68261,-0.0752 1.02392,-0.11383 0.34131,-0.0386 0.68262,-0.078 1.02393,-0.11817 0.34131,-0.0401 0.68262,-0.081 1.02393,-0.12265 0.34131,-0.0417 0.68261,-0.0841 1.02392,-0.12727 0.34131,-0.0432 0.68262,-0.0872 1.02393,-0.13204 0.34131,-0.0448 0.68262,-0.0905 1.02393,-0.13696 0.34131,-0.0465 0.68261,-0.0938 1.02392,-0.14202 0.34131,-0.0482 0.68262,-0.0973 1.02393,-0.14723 0.34131,-0.05 0.68262,-0.10083 1.02393,-0.15262 0.34131,-0.0518 0.68261,-0.10449 1.02392,-0.15815 0.34131,-0.0537 0.68262,-0.10827 1.02393,-0.16385 0.34131,-0.0556 0.68262,-0.11216 1.02393,-0.16973 0.34131,-0.0576 0.68261,-0.11615 1.02392,-0.17576 0.34131,-0.0596 0.68262,-0.12026 1.02393,-0.18198 0.34131,-0.0617 0.68262,-0.12449 1.02393,-0.18836 0.34131,-0.0639 0.68262,-0.12885 1.02392,-0.19494 0.34131,-0.0661 0.68262,-0.13332 1.02393,-0.20169 0.34131,-0.0684 0.68262,-0.13791 1.02393,-0.20864 0.34131,-0.0707 0.68262,-0.14263 1.02392,-0.21576 0.34131,-0.0731 0.68262,-0.14748 1.02393,-0.22309 0.34131,-0.0756 0.68262,-0.15246 1.02393,-0.23061 0.34131,-0.0781 0.68262,-0.15757 1.02392,-0.23833 0.34131,-0.0808 0.68262,-0.16282 1.02393,-0.24625 0.34131,-0.0834 0.68262,-0.1682 1.02393,-0.25437 0.34131,-0.0862 0.68262,-0.17373 1.02392,-0.26271 0.34131,-0.089 0.68262,-0.1794 1.02393,-0.27126 0.34131,-0.0919 0.68262,-0.1852 1.02393,-0.28002 0.34131,-0.0948 0.68262,-0.19114 1.02392,-0.28899 0.34131,-0.0978 0.68262,-0.19724 1.02393,-0.29819 0.34131,-0.10096 0.68262,-0.20348 1.02393,-0.30761 0.34131,-0.10413 0.68262,-0.20987 1.02392,-0.31725 0.34131,-0.10738 0.68262,-0.21641 1.02393,-0.32711 0.34131,-0.11071 0.68262,-0.22311 1.02393,-0.33722 0.34131,-0.11411 0.68262,-0.22995 1.02393,-0.34754 0.3413,-0.11759 0.68261,-0.23695 1.02392,-0.3581 0.34131,-0.12116 0.68262,-0.24411 1.02393,-0.3689 0.34131,-0.12479 0.68262,-0.25143 1.02393,-0.37994 0.3413,-0.12851 0.68261,-0.2589 1.02392,-0.39121 0.34131,-0.1323 0.68262,-0.26653 1.02393,-0.40272 0.34131,-0.13618 0.68262,-0.27433 1.02393,-0.41447 0.3413,-0.14014 0.68261,-0.28229 1.02392,-0.42647 0.34131,-0.14419 0.68262,-0.29042 1.02393,-0.43872 0.34131,-0.14831 0.68262,-0.2987 1.02393,-0.45121 0.3413,-0.1525 0.68261,-0.30714 1.02392,-0.46393 0.34131,-0.1568 0.68262,-0.31576 1.02393,-0.47692 0.34131,-0.16117 0.68262,-0.32454 1.02393,-0.49015 0.3413,-0.16562 0.68261,-0.33348 1.02392,-0.50363 0.34131,-0.17015 0.68262,-0.34259 1.02393,-0.51735 0.34131,-0.17476 0.68262,-0.35186 1.02393,-0.53132 0.3413,-0.17946 0.68261,-0.3613 1.02392,-0.54554 0.34131,-0.18424 0.68262,-0.37091 1.02393,-0.56001 0.34131,-0.18911 0.68262,-0.38067 1.02393,-0.57472 0.3413,-0.19405 0.68261,-0.3906 1.02392,-0.58968 0.34131,-0.19908 0.68262,-0.4007 1.02393,-0.60488 0.34131,-0.20419 0.68262,-0.41095 1.02393,-0.62033 0.34131,-0.20937 0.68261,-0.42137 1.02392,-0.63601 0.34131,-0.21464 0.68262,-0.43195 1.02393,-0.65194 0.34131,-0.21999 0.68262,-0.44268 1.02393,-0.6681 0.34131,-0.22541 0.68261,-0.45357 1.02392,-0.68449 0.34131,-0.23092 0.68262,-0.46462 1.02393,-0.70113 0.34131,-0.2365 0.68262,-0.47582 1.02393,-0.71798 0.34131,-0.24216 0.68261,-0.48718 1.02392,-0.73507 0.34131,-0.24789 0.68262,-0.49867 1.02393,-0.75237 0.34131,-0.2537 0.68262,-0.51032 1.02393,-0.7699 0.34131,-0.25957 0.68261,-0.52211 1.02392,-0.78763 0.34131,-0.26552 0.68262,-0.53405 1.02393,-0.80559 0.34131,-0.27154 0.68262,-0.54611 1.02393,-0.82373 0.34131,-0.27763 0.68261,-0.55832 1.02392,-0.8421 0.34131,-0.28377 0.68262,-0.57065 1.02393,-0.86064 0.34131,-0.28999 0.68262,-0.58311 1.02393,-0.87938 0.34131,-0.29627 0.68261,-0.5957 1.02392,-0.8983 0.34131,-0.3026 0.68262,-0.6084 1.02393,-0.9174 0.34131,-0.309 0.68262,-0.62122 1.02393,-0.93667 0.34131,-0.31545 0.68262,-0.63415 1.02392,-0.95611 0.34131,-0.32195 0.68262,-0.64718 1.02393,-0.97569 0.34131,-0.32851 0.68262,-0.66032 1.02393,-0.99543 0.34131,-0.33511 0.68262,-0.67355 1.02392,-1.01531 0.34131,-0.34176 0.68262,-0.68687 1.02393,-1.03532 0.34131,-0.34846 0.68262,-0.70028 1.02393,-1.05546 0.34131,-0.35519 0.68262,-0.71376 1.02392,-1.07571 0.34131,-0.36196 0.68262,-0.72731 1.02393,-1.09607 0.34131,-0.36875 0.68262,-0.74093 1.02393,-1.11652 0.34131,-0.37559 0.68262,-0.75461 1.02392,-1.13706 0.34131,-0.38245 0.68262,-0.76835 1.02393,-1.15768 0.34131,-0.38933 0.68262,-0.78212 1.02393,-1.17836 0.34131,-0.39623 0.68262,-0.79594 1.02392,-1.19909 0.34131,-0.40316 0.68262,-0.80979 1.02393,-1.21988 0.34131,-0.41009 0.68262,-0.82366 1.02393,-1.24069 0.34131,-0.41703 0.68262,-0.83755 1.02392,-1.26152 0.34131,-0.42398 0.68262,-0.85144 1.02393,-1.28237 0.34131,-0.43092 0.68262,-0.86533 1.02393,-1.3032 0.34131,-0.43786 0.68262,-0.87921 1.02393,-1.32401 0.3413,-0.44481 0.68261,-0.89309 1.02392,-1.34481 0.34131,-0.45173 0.68262,-0.90692 1.02393,-1.36555 0.34131,-0.45864 0.68262,-0.92073 1.02393,-1.38624 0.3413,-0.46552 0.68261,-0.93448 1.02392,-1.40686 0.34131,-0.47237 0.68262,-0.94818 1.02393,-1.42739 0.34131,-0.4792 0.68262,-0.96182 1.02393,-1.44781 0.3413,-0.486 0.68261,-0.97539 1.02392,-1.46814 0.34131,-0.49274 0.68262,-0.98886 1.02393,-1.48831 0.34131,-0.49946 0.68262,-1.00226 1.02393,-1.50836 0.3413,-0.50611 0.68261,-1.01554 1.02392,-1.52824 0.34131,-0.51271 0.68262,-1.02871 1.02393,-1.54795 0.34131,-0.51924 0.68262,-1.04174 1.02393,-1.56745 0.3413,-0.52572 0.68261,-1.05466 1.02392,-1.58677 0.34131,-0.53211 0.68262,-1.06741 1.02393,-1.60584 0.34131,-0.53843 0.68262,-1.08001 1.02393,-1.62467 0.3413,-0.54467 0.68261,-1.09245 1.02392,-1.64327 0.34131,-0.55081 0.68262,-1.10469 1.02393,-1.66156 0.34131,-0.55688 0.68262,-1.11676 1.02393,-1.67959 0.34131,-0.56282 0.68261,-1.12861 1.02392,-1.69729 0.34131,-0.56868 0.68262,-1.14026 1.02393,-1.71467 0.34131,-0.57442 0.68262,-1.15168 1.02393,-1.73172 0.34131,-0.58004 0.68261,-1.16286 1.02392,-1.7484 0.34131,-0.58553 0.68262,-1.1738 1.02393,-1.7647 0.34131,-0.59091 0.68262,-1.18447 1.02393,-1.78061 0.34131,-0.59615 0.68261,-1.19488 1.02392,-1.79612 0.34131,-0.60123 0.68262,-1.20499 1.02393,-1.81118 0.34131,-0.60618 0.68262,-1.21482 1.02393,-1.8258 0.34131,-0.61099 0.68261,-1.22434 1.02392,-1.83997 0.34131,-0.61563 0.68262,-1.23354 1.02393,-1.85365 0.34131,-0.6201 0.68262,-1.24241 1.02393,-1.86682 0.34131,-0.62442 0.68261,-1.25095 1.02392,-1.8795 0.34131,-0.62855 0.68262,-1.25912 1.02393,-1.89163 0.34131,-0.6325 0.68262,-1.26694 1.02393,-1.90321 0.34131,-0.63627 0.68261,-1.27439 1.02392,-1.91424 0.34131,-0.63985 0.68262,-1.28144 1.02393,-1.92467 0.34131,-0.64323 0.68262,-1.2881 1.02393,-1.93451 0.34131,-0.64641 0.68262,-1.29436 1.02392,-1.94374 0.34131,-0.64938 0.68262,-1.30019 1.02393,-1.95233 0.34131,-0.65213 0.68262,-1.3056 1.02393,-1.96028 0.34131,-0.65467 0.68262,-1.31057 1.02392,-1.96756 0.34131,-0.65699 0.68262,-1.31509 1.02393,-1.97417 0.34131,-0.65908 0.68262,-1.31915 1.02393,-1.98008 0.34131,-0.66094 0.68262,-1.32275 1.02392,-1.9853 0.34131,-0.66255 0.68262,-1.32586 1.02393,-1.98978 0.34131,-0.66393 0.68262,-1.32849 1.02393,-1.99354 0.34131,-0.66505 0.68262,-1.33061 1.02392,-1.99654 0.34131,-0.66593 0.68262,-1.33224 1.02393,-1.99879 0.34131,-0.66655 0.68262,-1.33335 1.02393,-2.00026 0.34131,-0.66691 0.68262,-1.33394 1.02392,-2.00094 0.34131,-0.66701 0.68262,-1.334 1.02393,-2.00083 0.34131,-0.66684 0.68262,-1.33352 1.02393,-1.99991 0.34131,-0.66639 0.68262,-1.33249 1.02392,-1.99816 0.34131,-0.66568 0.68262,-1.33092 1.02393,-1.9956 0.34131,-0.66467 0.68262,-1.32878 1.02393,-1.99217 0.34131,-0.6634 0.68262,-1.32609 1.02393,-1.98792 0.3413,-0.66184 0.68261,-1.32282 1.02392,-1.9828 0.34131,-0.65999 0.68262,-1.31897 1.02393,-1.97682 0.34131,-0.65784 0.68262,-1.31454 1.02393,-1.96995 0.3413,-0.65541 0.68261,-1.30953 1.02392,-1.96222 0.34131,-0.65268 0.68262,-1.30393 1.02393,-1.95359 0.34131,-0.64966 0.68262,-1.29773 1.02393,-1.94407 0.3413,-0.64634 0.68261,-1.29094 1.02392,-1.93366 0.34131,-0.64272 0.68262,-1.28355 1.02393,-1.92235 0.34131,-0.63879 0.68262,-1.27555 1.02393,-1.91012 0.3413,-0.63458 0.68261,-1.26695 1.02392,-1.897 0.34131,-0.63005 0.68262,-1.25774 1.02393,-1.88296 0.34131,-0.62521 0.68262,-1.24793 1.02393,-1.86801 0.3413,-0.62008 0.68261,-1.23751 1.02392,-1.85215 0.34131,-0.61464 0.68262,-1.22648 1.02393,-1.83537 0.34131,-0.6089 0.68262,-1.21484 1.02393,-1.81769 0.3413,-0.60285 0.68261,-1.2026 1.02392,-1.7991 0.34131,-0.5965 0.68262,-1.18974 1.02393,-1.77959 0.34131,-0.58985 0.68262,-1.17628 1.02393,-1.75918 0.34131,-0.58289 0.68261,-1.16223 1.02392,-1.73787 0.34131,-0.57564 0.68262,-1.14757 1.02393,-1.71566 0.34131,-0.5681 0.68262,-1.13233 1.02393,-1.69257 0.34131,-0.56024 0.68261,-1.11648 1.02392,-1.66858 0.34131,-0.5521 0.68262,-1.10005 1.02393,-1.64371 0.34131,-0.54367 0.68262,-1.08304 1.02393,-1.61798 0.34131,-0.53495 0.68261,-1.06545 1.02392,-1.59138 0.34131,-0.52594 0.68262,-1.04729 1.02393,-1.56393 0.34131,-0.51664 0.68262,-1.02856 1.02393,-1.53563 0.34131,-0.50707 0.68261,-1.00927 1.02392,-1.50649 0.34131,-0.49722 0.68262,-0.98944 1.02393,-1.47654 0.34131,-0.4871 0.68262,-0.96906 1.02393,-1.44578 0.34131,-0.47671 0.68261,-0.94814 1.02392,-1.4142 0.34131,-0.46607 0.68262,-0.92672 1.02393,-1.38187 0.34131,-0.45514 0.68262,-0.90476 1.02393,-1.34874 0.34131,-0.44398 0.68261,-0.8823 1.02392,-1.31487 0.34131,-0.43256 0.68262,-0.85934 1.02393,-1.28025 0.34131,-0.42091 0.68262,-0.83591 1.02393,-1.24492 0.34131,-0.40901 0.68262,-0.81199 1.02392,-1.20887 0.34131,-0.39688 0.68262,-0.78762 1.02393,-1.17214 0.34131,-0.38452 0.68262,-0.76279 1.02393,-1.13474 0.34131,-0.37194 0.68262,-0.73753 1.02392,-1.09668 0.34131,-0.35916 0.68262,-0.71185 1.02393,-1.058 0.34131,-0.34616 0.68262,-0.68575 1.02393,-1.0187 0.34131,-0.332962 0.68262,-0.659252 1.02392,-0.978818 0.34131,-0.319566 0.68262,-0.632368 1.02393,-0.938356 0.34131,-0.305989 0.68262,-0.605121 1.02393,-0.897352 0.34131,-0.292231 0.68262,-0.577519 1.02392,-0.855822 0.34131,-0.278303 0.68262,-0.549579 1.02393,-0.81379 0.34131,-0.264212 0.68262,-0.521316 1.02393,-0.77128 0.34131,-0.249964 0.68262,-0.492745 1.02392,-0.728315 0.34131,-0.235569 0.68262,-0.463883 1.02393,-0.684919 0.34131,-0.221035 0.68262,-0.434747 1.02393,-0.641118 0.34131,-0.20637 0.68262,-0.405354 1.02392,-0.596936 0.34131,-0.191583 0.68262,-0.37572 1.02393,-0.552401 0.34131,-0.176681 0.68262,-0.345861 1.02393,-0.507535 0.34131,-0.161674 0.68262,-0.315797 1.02393,-0.462368 0.3413,-0.146571 0.68261,-0.285544 1.02392,-0.416924 0.34131,-0.131379 0.68262,-0.25512 1.02393,-0.37123 0.34131,-0.116111 0.68262,-0.224545 1.02393,-0.325316 0.3413,-0.100771 0.68261,-0.193834 1.02392,-0.279205 0.34131,-0.08537 0.68262,-0.163007 1.02393,-0.232928 0.34131,-0.06992 0.68262,-0.132082 1.02393,-0.18651 0.3413,-0.05443 0.68261,-0.101078 1.02392,-0.139981 0.34131,-0.0389 0.68262,-0.07001 1.02393,-0.09337 0.34131,-0.02336 0.68262,-0.03891 1.02393,-0.0467 0.3413,-0.0078 0.68261,-0.0078 1.02392,0 0.34131,0.0078 0.68262,0.02336 1.02393,0.0467 0.34131,0.02334 0.68262,0.05448 1.02393,0.09337 0.3413,0.03889 0.68261,0.08557 1.02392,0.139981 0.34131,0.05441 0.68262,0.116604 1.02393,0.18651 0.34131,0.06991 0.68262,0.147571 1.02393,0.232928 0.3413,0.08536 0.68261,0.178449 1.02392,0.279205 0.34131,0.100756 0.68262,0.209221 1.02393,0.325316 0.34131,0.116095 0.68262,0.239866 1.02393,0.37123 0.34131,0.131365 0.68261,0.270369 1.02392,0.416924 0.34131,0.146556 0.68262,0.300709 1.02393,0.462368 0.34131,0.161659 0.68262,0.330869 1.02393,0.507535 0.34131,0.176666 0.68261,0.360833 1.02392,0.552401 0.34131,0.191567 0.68262,0.390581 1.02393,0.596936 0.34131,0.206356 0.68262,0.420098 1.02393,0.641118 0.34131,0.221021 0.68261,0.449364 1.02392,0.684919 0.34131,0.235555 0.68262,0.478365 1.02393,0.728315 0.34131,0.24995 0.68262,0.507082 1.02393,0.77128 0.34131,0.264197 0.68261,0.535501 1.02392,0.81379 0.34131,0.278289 0.68262,0.563604 1.02393,0.855822 0.34131,0.292217 0.68262,0.591377 1.02393,0.897352 0.34131,0.305974 0.68261,0.618803 1.02392,0.938356 0.34131,0.319553 0.68262,0.645869 1.02393,0.978818 0.34131,0.33294 0.68262,0.67255 1.02393,1.0187 0.34131,0.34614 0.68261,0.69885 1.02392,1.058 0.34131,0.35914 0.68262,0.72475 1.02393,1.09668 0.34131,0.37193 0.68262,0.75023 1.02393,1.13474 0.34131,0.38451 0.68262,0.77527 1.02392,1.17214 0.34131,0.39687 0.68262,0.79988 1.02393,1.20887 0.34131,0.409 0.68262,0.82402 1.02393,1.24492 0.34131,0.4209 0.68262,0.8477 1.02392,1.28025 0.34131,0.43256 0.68262,0.8709 1.02393,1.31487 0.34131,0.44397 0.68262,0.89361 1.02393,1.34874 0.34131,0.45514 0.68262,0.91582 1.02392,1.38187 0.34131,0.46604 0.68262,0.9375 1.02393,1.4142 0.34131,0.47671 0.68262,0.95869 1.02393,1.44578 0.34131,0.48709 0.68262,0.97933 1.02392,1.47654 0.34131,0.49721 0.68262,0.99943 1.02393,1.50649 0.34131,0.50706 0.68262,1.019 1.02393,1.53563 0.34131,0.51664 0.68262,1.038 1.02392,1.56393 0.34131,0.52592 0.68262,1.05644 1.02393,1.59138 0.34131,0.53493 0.68262,1.07432 1.02393,1.61798 0.34131,0.54366 0.68262,1.09162 1.02392,1.64371 0.34131,0.5521 0.68262,1.10835 1.02393,1.66858 0.34131,0.56024 0.68262,1.12448 1.02393,1.69257 0.34131,0.56808 0.68262,1.14002 1.02393,1.71566 0.3413,0.57563 0.68261,1.15498 1.02392,1.73787 0.34131,0.58289 0.68262,1.16934 1.02393,1.75918 0.34131,0.58984 0.68262,1.1831 1.02393,1.77959 0.3413,0.5965 0.68261,1.19625 1.02392,1.7991 0.34131,0.60284 0.68262,1.20879 1.02393,1.81769 0.34131,0.60889 0.68262,1.22074 1.02393,1.83537 0.3413,0.61464 0.68261,1.23208 1.02392,1.85215 0.34131,0.62008 0.68262,1.2428 1.02393,1.86801 0.34131,0.62521 0.68262,1.25292 1.02393,1.88296 0.3413,0.63004 0.68261,1.26243 1.02392,1.897 0.34131,0.63457 0.68262,1.27133 1.02393,1.91012 0.34131,0.6388 0.68262,1.27963 1.02393,1.92235 0.3413,0.64271 0.68261,1.28732 1.02392,1.93366 0.34131,0.64633 0.68262,1.29441 1.02393,1.94407 0.34131,0.64966 0.68262,1.30091 1.02393,1.95359 0.3413,0.65269 0.68261,1.30681 1.02392,1.96222 0.34131,0.65541 0.68262,1.31211 1.02393,1.96995 0.34131,0.65785 0.68262,1.31684 1.02393,1.97682 0.34131,0.65998 0.68261,1.32096 1.02392,1.9828 0.34131,0.66183 0.68262,1.32452 1.02393,1.98792 0.34131,0.66339 0.68262,1.3275 1.02393,1.99217 0.34131,0.66468 0.68261,1.32992 1.02392,1.9956 0.34131,0.66567 0.68262,1.33177 1.02393,1.99816 0.34131,0.66639 0.68262,1.33307 1.02393,1.99991 0.34131,0.66683 0.68261,1.33382 1.02392,2.00083 0.34131,0.667 0.68262,1.33403 1.02393,2.00094 0.34131,0.66691 0.68262,1.33371 1.02393,2.00026 0.34131,0.66655 0.68261,1.33286 1.02392,1.99879 0.34131,0.66593 0.68262,1.33148 1.02393,1.99654 0.34131,0.66506 0.68262,1.32961 1.02393,1.99354 0.34131,0.66393 0.68261,1.32723 1.02392,1.98978 0.34131,0.66256 0.68262,1.32436 1.02393,1.9853 0.34131,0.66093 0.68262,1.321 1.02393,1.98008 0.34131,0.65908 0.68261,1.31718 1.02392,1.97417 0.34131,0.657 0.68262,1.31289 1.02393,1.96756 0.34131,0.65468 0.68262,1.30814 1.02393,1.96028 0.34131,0.65214 0.68262,1.30295 1.02392,1.95233 0.34131,0.64938 0.68262,1.29733 1.02393,1.94374 0.34131,0.64641 0.68262,1.29128 1.02393,1.93451 0.34131,0.64323 0.68262,1.28482 1.02392,1.92467 0.34131,0.63986 0.68262,1.27796 1.02393,1.91424 0.34131,0.63627 0.68262,1.27071 1.02393,1.90321 0.34131,0.63251 0.68262,1.26308 1.02392,1.89163 0.34131,0.62856 0.68262,1.25508 1.02393,1.8795 0.34131,0.62442 0.68262,1.24672 1.02393,1.86682 0.34131,0.62011 0.68262,1.23802 1.02392,1.85365 0.34131,0.61563 0.68262,1.22898 1.02393,1.83997 0.34131,0.61099 0.68262,1.21961 1.02393,1.8258 0.34131,0.6062 0.68262,1.20994 1.02392,1.81118 0.34131,0.60125 0.68262,1.19997 1.02393,1.79612 0.34131,0.59614 0.68262,1.1897 1.02393,1.78061 0.34131,0.59091 0.68262,1.17916 1.02392,1.7647 0.34131,0.58554 0.68262,1.16836 1.02393,1.7484 0.34131,0.58004 0.68262,1.15729 1.02393,1.73172 0.34131,0.57442 0.68262,1.14599 1.02393,1.71467 0.3413,0.56868 0.68261,1.13446 1.02392,1.69729 0.34131,0.56284 0.68262,1.12271 1.02393,1.67959 0.34131,0.55688 0.68262,1.11074 1.02393,1.66156 0.3413,0.55083 0.68261,1.09859 1.02392,1.64327 0.34131,0.54467 0.68262,1.08624 1.02393,1.62467 0.34131,0.53844 0.68262,1.07373 1.02393,1.60584 0.3413,0.53212 0.68261,1.06105 1.02392,1.58677 0.34131,0.52571 0.68262,1.0482 1.02393,1.56745 0.34131,0.51925 0.68262,1.03524 1.02393,1.54795 0.3413,0.51271 0.68261,1.02212 1.02392,1.52824 0.34131,0.50611 0.68262,1.0089 1.02393,1.50836 0.34131,0.49945 0.68262,0.99556 1.02393,1.48831 0.3413,0.49276 0.68261,0.98214 1.02392,1.46814 0.34131,0.486 0.68262,0.9686 1.02393,1.44781 0.34131,0.47921 0.68262,0.95501 1.02393,1.42739 0.3413,0.47238 0.68261,0.94133 1.02392,1.40686 0.34131,0.46552 0.68262,0.9276 1.02393,1.38624 0.34131,0.45864 0.68262,0.91382 1.02393,1.36555 0.34131,0.45173 0.68261,0.9 1.02392,1.34481 0.34131,0.44481 0.68262,0.88614 1.02393,1.32401 0.34131,0.43788 0.68262,0.87227 1.02393,1.3032 0.34131,0.43093 0.68261,0.85838 1.02392,1.28237 0.34131,0.42398 0.68262,0.84448 1.02393,1.26152 0.34131,0.41704 0.68262,0.83059 1.02393,1.24069 0.34131,0.4101 0.68261,0.81671 1.02392,1.21988 0.34131,0.40316 0.68262,0.80285 1.02393,1.19909 0.34131,0.39625 0.68262,0.78902 1.02393,1.17836 0.34131,0.38934 0.68261,0.77522 1.02392,1.15768 0.34131,0.38246 0.68262,0.76146 1.02393,1.13706 0.34131,0.3756 0.68262,0.74776 1.02393,1.11652 0.34131,0.36876 0.68261,0.73411 1.02392,1.09607 0.34131,0.36196 0.68262,0.72052 1.02393,1.07571 0.34131,0.35519 0.68262,0.707 1.02393,1.05546 0.34131,0.34846 0.68261,0.69355 1.02392,1.03532 0.34131,0.34177 0.68262,0.68019 1.02393,1.01531 0.34131,0.33512 0.68262,0.66692 1.02393,0.99543 0.34131,0.32852 0.68262,0.65373 1.02392,0.97569 0.34131,0.32197 0.68262,0.64065 1.02393,0.95611 0.34131,0.31546 0.68262,0.62766 1.02393,0.93667 0.34131,0.309 0.68262,0.61479 1.02392,0.9174 0.34131,0.30261 0.68262,0.60203 1.02393,0.8983 0.34131,0.29627 0.68262,0.58939 1.02393,0.87938 0.34131,0.29 0.68262,0.57686 1.02392,0.86064 0.34131,0.28378 0.68262,0.56446 1.02393,0.8421 0.34131,0.27763 0.68262,0.55219 1.02393,0.82373 0.34131,0.27155 0.68262,0.54006 1.02392,0.80559 0.34131,0.26553 0.68262,0.52805 1.02393,0.78763 0.34131,0.25958 0.68262,0.5162 1.02393,0.7699 0.34131,0.2537 0.68262,0.50448 1.02392,0.75237 0.34131,0.2479 0.68262,0.4929 1.02393,0.73507 0.34131,0.24217 0.68262,0.48147 1.02393,0.71798 0.34131,0.23651 0.68262,0.4702 1.02392,0.70113 0.34131,0.23093 0.68262,0.45907 1.02393,0.68449 0.34131,0.22543 0.68262,0.44811 1.02393,0.6681 0.34131,0.22 0.68262,0.43729 1.02393,0.65194 0.3413,0.21465 0.68261,0.42663 1.02392,0.63601 0.34131,0.20938 0.68262,0.41614 1.02393,0.62033 0.34131,0.20419 0.68262,0.4058 1.02393,0.60488 0.3413,0.19908 0.68261,0.39562 1.02392,0.58968 0.34131,0.19405 0.68262,0.38561 1.02393,0.57472 0.34131,0.18911 0.68262,0.37576 1.02393,0.56001 0.3413,0.18424 0.68261,0.36607 1.02392,0.54554 0.34131,0.17946 0.68262,0.35655 1.02393,0.53132 0.34131,0.17477 0.68262,0.3472 1.02393,0.51735 0.3413,0.17015 0.68261,0.33801 1.02392,0.50363 0.34131,0.16561 0.68262,0.32898 1.02393,0.49015 0.34131,0.16116 0.68262,0.32012 1.02393,0.47692 0.3413,0.15679 0.68261,0.31142 1.02392,0.46393 0.34131,0.15252 0.68262,0.3029 1.02393,0.45121 0.34131,0.14831 0.68262,0.29453 1.02393,0.43872 0.3413,0.14418 0.68261,0.28632 1.02392,0.42647 0.34131,0.14015 0.68262,0.27829 1.02393,0.41447 0.34131,0.13619 0.68262,0.27041 1.02393,0.40272 0.3413,0.13231 0.68261,0.2627 1.02392,0.39121 0.34131,0.12851 0.68262,0.25514 1.02393,0.37994 0.34131,0.12479 0.68262,0.24774 1.02393,0.3689 0.34131,0.12115 0.68261,0.2405 1.02392,0.3581 0.34131,0.1176 0.68262,0.23343 1.02393,0.34754 0.34131,0.11412 0.68262,0.2265 1.02393,0.33722 0.34131,0.11071 0.68261,0.21973 1.02392,0.32711 0.34131,0.10738 0.68262,0.21312 1.02393,0.31725 0.34131,0.10413 0.68262,0.20665 1.02393,0.30761 0.34131,0.10095 0.68261,0.20033 1.02392,0.29819 0.34131,0.0979 0.68262,0.19417 1.02393,0.28899 0.34131,0.0948 0.68262,0.18815 1.02393,0.28002 0.34131,0.0919 0.68261,0.18227 1.02392,0.27126 0.34131,0.089 0.68262,0.17654 1.02393,0.26271 0.34131,0.0862 0.68262,0.17095 1.02393,0.25437 0.34131,0.0834 0.68261,0.1655 1.02392,0.24625 0.34131,0.0808 0.68262,0.16019 1.02393,0.23833 0.34131,0.0781 0.68262,0.15501 1.02393,0.23061 0.34131,0.0756 0.68261,0.14996 1.02392,0.22309 0.34131,0.0731 0.68262,0.14504 1.02393,0.21576 0.34131,0.0707 0.68262,0.14026 1.02393,0.20864 0.34131,0.0684 0.68262,0.13559 1.02392,0.20169 0.34131,0.0661 0.68262,0.13106 1.02393,0.19494 0.34131,0.0639 0.68262,0.12665 1.02393,0.18836 0.34131,0.0617 0.68262,0.12237 1.02392,0.18198 0.34131,0.0596 0.68262,0.11819 1.02393,0.17576 0.34131,0.0576 0.68262,0.11414 1.02393,0.16973 0.34131,0.0556 0.68262,0.11019 1.02392,0.16385 0.34131,0.0537 0.68262,0.10637 1.02393,0.15815 0.34131,0.0518 0.68262,0.10265 1.02393,0.15262 0.34131,0.05 0.68262,0.099 1.02392,0.14723 0.34131,0.0482 0.68262,0.0955 1.02393,0.14202 0.34131,0.0465 0.68262,0.0921 1.02393,0.13696 0.34131,0.0448 0.68262,0.0888 1.02392,0.13204 0.34131,0.0432 0.68262,0.0856 1.02393,0.12727 0.34131,0.0417 0.68262,0.0825 1.02393,0.12265 0.34131,0.0401 0.68262,0.0795 1.02392,0.11817 0.34131,0.0387 0.68262,0.0766 1.02393,0.11383 0.34131,0.0372 0.68262,0.0738 1.02393,0.10963 0.34131,0.0358 0.68262,0.071 1.02393,0.10555 0.3413,0.0345 0.68261,0.0684 1.02392,0.1016 0.34131,0.0332 0.68262,0.0658 1.02393,0.0978 0.34131,0.032 0.68262,0.0633 1.02393,0.0941 0.3413,0.0308 0.68261,0.0609 1.02392,0.0905 0.34131,0.0296 0.68262,0.0586 1.02393,0.087 0.34131,0.0285 0.68262,0.0563 1.02393,0.0837 0.3413,0.0273 0.68261,0.0542 1.02392,0.0805 0.34131,0.0263 0.68262,0.0521 1.02393,0.0773 0.34131,0.0253 0.68262,0.05 1.02393,0.0743 0.3413,0.0243 0.68261,0.0481 1.02392,0.0714 0.34131,0.0233 0.68262,0.0462 1.02393,0.0686 0.34131,0.0224 0.68262,0.0443 1.02393,0.0659 0.3413,0.0215 0.68261,0.0426 1.02392,0.0632 0.34131,0.0206 0.68262,0.0409 1.02393,0.0607 0.34131,0.0198 0.68262,0.0392 1.02393,0.0582 0.3413,0.019 0.68261,0.0376 1.02392,0.0559 0.34131,0.0182 0.68262,0.0361 1.02393,0.0536 0.34131,0.0175 0.68262,0.0346 1.02393,0.0514 0.34131,0.0168 0.68261,0.0332 1.02392,0.0493 0.34131,0.0161 0.68262,0.0318 1.02393,0.0472 0.34131,0.0154 0.68262,0.0305 1.02393,0.0453 0.34131,0.0148 0.68261,0.0292 1.02392,0.0434 0.34131,0.0142 0.68262,0.028 1.02393,0.0416 0.34131,0.0136 0.68262,0.0268 1.02393,0.0398 0.34131,0.013 0.68261,0.0257 1.02392,0.0381 0.34131,0.0124 0.68262,0.0246 1.02393,0.0365 0.34131,0.0119 0.68262,0.0235 1.02393,0.0349 0.34131,0.0114 0.68261,0.0225 1.02392,0.0334 0.34131,0.0109 0.68262,0.0215 1.02393,0.032 0.34131,0.0104 0.68262,0.0206 1.02393,0.0306 0.34131,0.01 0.68261,0.0197 1.02392,0.0292 0.34131,0.01 0.68262,0.0188 1.02393,0.028 0.34131,0.009 0.68262,0.018 1.02393,0.0267 0.34131,0.009 0.68261,0.0172 1.02392,0.0255 0.34131,0.008 0.68262,0.0164 1.02393,0.0244 0.34131,0.008 0.68262,0.0157 1.02393,0.0233 0.34131,0.008 0.68262,0.015 1.02392,0.0223 0.34131,0.007 0.68262,0.0143 1.02393,0.0212 0.34131,0.007 0.68262,0.0137 1.02393,0.0203 0.34131,0.007 0.68262,0.0131 1.02392,0.0194 0.34131,0.006 0.68262,0.0125 1.02393,0.0185 0.34131,0.006 0.68262,0.0119 1.02393,0.0176 0.34131,0.006 0.68262,0.0113 1.02392,0.0168 0.34131,0.005 0.68262,0.0108 1.02393,0.016 0.34131,0.005 0.68262,0.0103 1.02393,0.0153 0.34131,0.005 0.68262,0.01 1.02392,0.0146 0.34131,0.005 0.68262,0.009 1.02393,0.0139 0.34131,0.005 0.68262,0.009 1.02393,0.0132 0.34131,0.004 0.68262,0.009 1.02392,0.0126 0.34131,0.004 0.68262,0.008 1.02393,0.012 0.34131,0.004 0.68262,0.008 1.02393,0.0114 0.34131,0.004 0.68262,0.007 1.02392,0.0109 0.34131,0.004 0.68262,0.007 1.02393,0.0104 0.34131,0.003 0.68262,0.007 1.02393,0.01 0.34131,0.003 0.68262,0.006 1.02393,0.009 0.3413,0.003 0.68261,0.006 1.02392,0.009 0.34131,0.003 0.68262,0.006 1.02393,0.008 0.34131,0.003 0.68262,0.005 1.02393,0.008 0.3413,0.003 0.68261,0.005 1.02392,0.008 0.34131,0.002 0.68262,0.005 1.02393,0.007 0.34131,0.002 0.68262,0.005 1.02393,0.007 0.3413,0.002 0.68261,0.004 1.02392,0.007 0.34131,0.002 0.68262,0.004 1.02393,0.006 0.34131,0.002 0.68262,0.004 1.02393,0.006 0.3413,0.002 0.68261,0.004 1.02392,0.006 0.34131,0.002 0.68262,0.004 1.02393,0.005 0.34131,0.002 0.68262,0.003 1.02393,0.005 0.3413,0.002 0.68261,0.003 1.02392,0.005 0.34131,0.002 0.68262,0.003 1.02393,0.005 0.34131,0.001 0.68262,0.003 1.02393,0.004 0.3413,0.001 0.68261,0.003 1.02392,0.004 0.34131,0.001 0.68262,0.003 1.02393,0.004 0.34131,0.001 0.68262,0.002 1.02393,0.004 0.34131,0.001 0.68261,0.002 1.02392,0.003 0.34131,0.001 0.68262,0.002 1.02393,0.003 0.34131,0.001 0.68262,0.002 1.02393,0.003 0.34131,0.001 0.68261,0.002 1.02392,0.003 0.34131,9.6e-4 0.68262,0.002 1.02393,0.003 0.34131,9.1e-4 0.68262,0.002 1.02393,0.003 0.34131,8.6e-4 0.68261,0.002 1.02392,0.003 0.34131,8.1e-4 0.68262,0.002 1.02393,0.002 0.34131,7.7e-4 0.68262,0.002 1.02393,0.002 0.34131,7.2e-4 0.68261,0.001 1.02392,0.002 0.34131,6.9e-4 0.68262,0.001 1.02393,0.002 0.34131,6.5e-4 0.68262,0.001 1.02393,0.002 0.34131,6.1e-4 0.68261,0.001 1.02392,0.002 0.34131,5.9e-4 0.68262,0.001 1.02393,0.002 0.34131,5.5e-4 0.68262,0.001 1.02393,0.002 0.34131,5.2e-4 0.68261,0.001 1.02392,0.002 0.34131,4.9e-4 0.68262,9.7e-4 1.02393,0.001 0.34131,4.7e-4 0.68262,9.2e-4 1.02393,0.001 0.34131,4.3e-4 0.68262,8.6e-4 1.02392,0.001 0.34131,4.1e-4 0.68262,8.1e-4 1.02393,0.001 0.34131,3.9e-4 0.68262,7.7e-4 1.02393,0.001 0.34131,3.7e-4 0.68262,7.2e-4 1.02392,0.001 0.34131,3.5e-4 0.68262,6.8e-4 1.02393,0.001 0.34131,3.3e-4 0.68262,6.4e-4 1.02393,9.5e-4 0.34131,3.1e-4 0.68262,6.1e-4 1.02392,9e-4 0.34131,2.9e-4 0.68262,5.7e-4 1.02393,8.5e-4 0.34131,2.7e-4 0.68262,5.4e-4 1.02393,7.9e-4 0.34131,2.6e-4 0.68262,5.1e-4 1.02392,7.6e-4 0.34131,2.4e-4 0.68262,4.7e-4 1.02393,7e-4 0.34131,2.3e-4 0.68262,4.5e-4 1.02393,6.7e-4 0.34131,2.2e-4 0.68262,4.2e-4 1.02392,6.3e-4 0.34131,2e-4 0.68262,4e-4 1.02393,5.9e-4 0.34131,1.9e-4 0.68262,3.7e-4 1.02393,5.5e-4 0.34131,1.8e-4 0.68262,3.6e-4 1.02392,5.3e-4 0.34131,1.7e-4 0.68262,3.3e-4 1.02393,4.9e-4 0.34131,1.6e-4 0.68262,3.1e-4 1.02393,4.6e-4 0.34131,1.5e-4 0.68262,3e-4 1.02393,4.4e-4 0.3413,1.4e-4 0.68261,2.7e-4 1.02392,4.1e-4 0.34131,1.3e-4 0.68262,2.6e-4 1.02393,3.8e-4 0.34131,1.2e-4 0.68262,2.4e-4 1.02393,3.6e-4 0.3413,1.2e-4 0.68261,2.3e-4 1.02392,3.4e-4 0.34131,1.1e-4 0.68262,2.2e-4 1.02393,3.2e-4 0.34131,1e-4 0.68262,2e-4 1.02393,3e-4 0.3413,10e-5 0.68261,1.9e-4 1.02392,2.8e-4 0.34131,9e-5 0.68262,1.8e-4 1.02393,2.6e-4 0.34131,9e-5 0.68262,1.7e-4 1.02393,2.5e-4 0.3413,8e-5 0.68261,1.6e-4 1.02392,2.3e-4 0.34131,8e-5 0.68262,1.5e-4 1.02393,2.2e-4 0.34131,7e-5 0.68262,1.4e-4 1.02393,2.1e-4 0.3413,6e-5 0.68261,1.3e-4 1.02392,1.9e-4 0.34131,6e-5 0.68262,1.2e-4 1.02393,1.8e-4 0.34131,6e-5 0.68262,1.1e-4 1.02393,1.7e-4 0.3413,5e-5 0.68261,10e-5 1.02392,1.6e-4 0.34131,5e-5 0.68262,1e-4 1.02393,1.4e-4 0.34131,5e-5 0.68262,1e-4 1.02393,1.4e-4 0.34131,5e-5 0.68261,9e-5 1.02392,1.3e-4 0.34131,4e-5 0.68262,8e-5 1.02393,1.2e-4 0.34131,4e-5 0.68262,8e-5 1.02393,1.2e-4 0.34131,3e-5 0.68261,7e-5 1.02392,10e-5 0.34131,4e-5 0.68262,7e-5 1.02393,1e-4 0.34131,4e-5 0.68262,7e-5 1.02393,10e-5 0.34131,3e-5 0.68261,6e-5 1.02392,8e-5 0.34131,3e-5 0.68262,6e-5 1.02393,9e-5 0.34131,2e-5 0.68262,5e-5 1.02393,7e-5 0.34131,3e-5 0.68261,5e-5 1.02392,7e-5 0.34131,3e-5 0.68262,5e-5 1.02393,7e-5 0.34131,2e-5 0.68262,4e-5 1.02393,6e-5 0.34131,2e-5 0.68261,4e-5 1.02392,6e-5 0.34131,2e-5 0.68262,4e-5 1.02393,6e-5 0.34131,1e-5 0.68262,3e-5 1.02393,5e-5 0.34131,1e-5 0.68261,3e-5 1.02392,4e-5 0.34131,2e-5 0.68262,3e-5 1.02393,5e-5 0.34131,1e-5 0.68262,3e-5 1.02393,4e-5 0.34131,1e-5 0.68262,3e-5 1.02392,4e-5 0.34131,10e-6 0.68262,2e-5 1.02393,3e-5 0.34131,2e-5 0.68262,3e-5 1.02393,4e-5 0.34131,10e-6 0.68262,2e-5 1.02392,3e-5 0.34131,1e-5 0.68262,2e-5 1.02393,3e-5 0.34131,10e-6 0.68262,2e-5 1.02393,2e-5 0.34131,10e-6 0.68262,2e-5 1.02392,3e-5 0.34131,10e-6 0.68262,2e-5 1.02393,2e-5 0.34131,10e-6 0.68262,2e-5 1.02393,3e-5 0.34131,0 0.68262,1e-5 1.02392,2e-5 0.34131,0 0.68262,10e-6 1.02393,2e-5 0.34131,0 0.68262,10e-6 1.02393,10e-6 0.34131,1e-5 0.68262,1e-5 1.02392,2e-5 0.34131,0 0.68262,1e-5 1.02393,1e-5 0.34131,10e-6 0.68262,10e-6 1.02393,2e-5 0.34131,0 0.68262,10e-6 1.02392,10e-6 0.34131,10e-6 0.68262,10e-6 1.02393,10e-6 0.34131,1e-5 0.68262,1e-5 1.02393,2e-5 0.34131,0 0.68262,0 1.02393,1e-5 0.3413,0 0.68261,0 1.02392,10e-6 0.34131,0 0.68262,0 1.02393,1e-5 0.34131,0 0.68262,0 1.02393,0 0.3413,10e-6 0.68261,10e-6 1.02392,10e-6 0.34131,1e-5 0.68262,1e-5 1.02393,1e-5 0.34131,0 0.68262,0 1.02393,10e-6 0.3413,0 0.68261,0 1.02392,0 0.34131,10e-6 0.68262,10e-6 1.02393,10e-6 0.34131,0 0.68262,0 1.02393,0 0.3413,1e-5 0.68261,1e-5 1.02392,1e-5 0.34131,0 0.68262,0 1.02393,0 0.34131,10e-6 0.68262,10e-6 1.02393,10e-6 0.3413,0 0.68261,0 1.02392,0 0.34131,0 0.68262,1e-5 1.02393,1e-5 0.34131,0 0.68262,0 1.02393,0 0.3413,0 0.68261,0 1.02392,0 0.34131,0 0.68262,10e-6 1.02393,10e-6 0.34131,0 0.68262,0 1.02393,0 0.34131,0 0.68261,0 1.02392,0 0.34131,0 0.68262,0 1.02393,0 0.34131,1e-5 0.68262,1e-5 1.02393,1e-5 0.34131,0 0.68261,0 1.02392,0 0.34131,0 0.68262,0 1.02393,0 0.34131,0 0.68262,0 1.02393,0 0.34131,0 0.68261,0 1.02392,0 0.34131,0 0.68262,0 1.02393,10e-6 0.34131,0 0.68262,0 1.02393,0 0.34131,0 0.68261,0 1.02392,0 0.34131,0 0.68262,0 1.02393,0 0.34131,0 0.68262,0 1.02393,0 0.34131,0 0.68261,0 1.02392,0 0.34131,0 0.68262,0 1.02393,0 0.34131,0 0.68262,0 1.02393,0 0.34131,0 0.68261,0 1.02392,0 0.34131,0 0.68262,0 1.02393,0 0.34131,0 0.68262,1e-5 1.02393,1e-5 0.34131,0 0.68262,0 1.02392,0 0.34131,0 0.68262,0 1.02393,0 0.34131,0 0.68262,0 1.02393,0 0.34131,0 0.68262,0 1.02392,0 0.34131,0 0.68262,0 1.02393,0 0.34131,0 0.68262,0 1.02393,0 0.3413,0 0.6826,0 1.0239,0 0.3413,0 0.6826,0 1.024,0 0.3413,0 0.6826,0 1.0239,0 0.3413,0 0.6826,0 1.0239,0 0.3413,0 0.6826,0 1.0239,0 0.3413,0 0.6826,0 1.024,0 0.3413,0 0.6826,0 1.0239,0 0.3413,0 0.6826,0 1.0239,0 0.3413,0 0.6826,0 1.0239,0 0.3413,0 0.6827,0 1.024,0 0.3413,0 0.6826,0 1.0239,0 0.3413,0 0.6826,0 1.0239,0 0.3413,0 0.6826,0 1.0239,0 0.3414,0 0.6827,0 1.024,0 0.3413,0 0.6826,0 1.0239,0 0.3413,0 0.6826,0 1.0239,0 0.3413,0 0.6826,0 1.024,0 0.3413,0 0.6826,0 1.0239,0 0.3413,0 0.6826,0 1.0239,0 0.3413,0 0.6826,0 1.0239,0 0.3413,0 0.6826,0 1.024,0 0.3413,0 0.6826,0 1.0239,0 0.3413,0 0.6826,0 1.0239,0 0.3413,0 0.6826,0 1.0239,0 0.3413,0 0.6827,0 1.024,0 0.3413,0 0.6826,0 1.0239,0 0.3413,0 0.6826,0 1.0239,0 0.3413,0 0.6826,0 1.0239,0 0.3414,0 0.6827,0 1.024,0 0.3413,0 0.6826,0 1.0239,0 0.3413,0 0.6826,0 1.0239,0 0.3413,0 0.6826,0 1.024,0 0.3413,0 0.6826,0 1.0239,0 0.3413,0 0.6826,0 1.0239,0 0.3413,0 0.6826,0 1.0239,0 0.3413,0 0.6827,0 1.024,0 0.3413,0 0.6826,0 1.0239,0 0.3413,0 0.6826,0 1.0239,0 0.3413,0 0.6826,0 1.0239,0 0.3413,0 0.6827,0 1.024,0 0.3413,0 0.6826,0 1.0239,0 0.3413,0 0.6826,0 1.0239,0 0.3413,0 0.6826,0 1.0239,0 0.3414,0 0.6827,0 1.024,0 0.3413,0 0.6826,0 1.0239,0 0.3413,0 0.6826,0 1.0239,0 0.3413,0 0.6826,0 1.024,0 0.3413,0 0.6826,0 1.0239,0 0.3413,0 0.6826,0 1.0239,0 0.3413,0 0.6826,0 1.0239,0 0.3413,0 0.6827,0 1.024,0 0.3413,0 0.6826,0 1.0239,0 0.3413,0 0.6826,0 1.0239,0 0.3413,0 0.6826,0 1.0239,0 0.3413,0 0.6827,0 1.024,0 0.3413,0 0.6826,0 1.0239,0 0.3413,0 0.6826,0 1.0239,0 0.3413,0 0.6826,0 1.0239,0 0.3414,0 0.6827,0 1.024,0 0.3413,0 0.6826,0 1.0239,0 0.3413,0 0.6826,0 1.0239,0 0.3413,0 0.6826,0 1.024,0 0.3413,0 0.6826,0 1.0239,0 0.3413,0 0.6826,0 1.0239,0 0.3413,0 0.6826,0 1.0239,0 0.3413,0 0.6827,0 1.024,0 0.3413,0 0.6826,0 1.0239,0 0.3413,0 0.6826,0 1.0239,0 0.3413,0 0.6826,0 1.0239,0 0.3414,0 0.6827,0 1.024,0 0.3413,0 0.6826,0 1.0239,0 0.3413,0 0.6826,0 1.0239,0 0.3413,0 0.6826,0 1.0239,0 0.3414,0 0.6827,0 1.024,0 0.3413,0 0.6826,0 1.0239,0 0.3413,0 0.6826,0 1.0239,0 0.3413,0 0.6826,0 1.024,0 0.3413,0 0.6826,0 1.0239,0 0.3413,0 0.6826,0 1.0239,0"
       title="exp(-x*x)"
       id="path4204"
       inkscape:connector-curvature="0" />
    <path
       id="path4390"
       title="exp(-x*x)*x"
       d="m 52.944378,541.28925 c 0.344882,0 0.689763,0 1.034645,0 0.344881,0 0.689763,0 1.034644,0 0.344882,0 0.689763,0 1.034645,0 0.344881,0 0.689763,0 1.034644,0 0.344882,0 0.689763,0 1.034645,0 0.344881,0 0.689763,0 1.034644,0 0.344882,0 0.689763,0 1.034645,0 0.344881,0 0.689763,0 1.034644,0 0.344882,0 0.689763,0 1.034645,0 0.344881,0 0.689763,0 1.034644,0 0.344882,0 0.689763,0 1.034645,0 0.344882,0 0.689763,0 1.034645,0 0.344881,0 0.689763,0 1.034644,0 0.344882,0 0.689763,0 1.034645,0 0.344881,0 0.689763,0 1.034644,0 0.344882,0 0.689763,0 1.034645,0 0.344881,0 0.689763,0 1.034644,0 0.344882,0 0.689763,0 1.034645,0 0.344881,0 0.689763,0 1.034644,0 0.344882,0 0.689763,0 1.034645,0 0.344881,0 0.689763,0 1.034644,0 0.344882,0 0.689763,0 1.034645,0 0.344881,0 0.689763,0 1.034645,0 0.344881,0 0.689763,0 1.034644,0 0.344882,0 0.689763,0 1.034645,0 0.344881,0 0.689763,0 1.034644,0 0.344882,0 0.689763,0 1.034645,0 0.344881,0 0.689763,0 1.034644,0 0.344882,0 0.689763,0 1.034645,0 0.344881,0 0.689763,0 1.034644,0 0.344882,0 0.689763,0 1.034645,0 0.344881,0 0.689763,0 1.034644,0 0.344882,0 0.689763,0 1.034645,0 0.344881,0 0.689763,0 1.034645,0 0.344881,0 0.689763,0 1.034644,0 0.344882,0 0.689763,0 1.034645,0 0.344881,0 0.689763,0 1.034644,0 0.344882,0 0.689763,0 1.034645,0 0.344881,0 0.689763,0 1.034644,0 0.344882,0 0.689763,0 1.034645,0 0.344881,0 0.689763,0 1.034644,0 0.344882,0 0.689763,0 1.034645,0 0.344881,0 0.689763,0 1.034644,0 0.344882,0 0.689767,0 1.034647,0 0.34488,0 0.68976,0 1.03464,0 0.34488,0 0.68977,0 1.03465,0 0.34488,0 0.68976,0 1.03464,0 0.34488,0 0.68976,0 1.03465,0 0.34488,0 0.68976,0 1.03464,0 0.34488,0 0.68976,0 1.03465,0 0.34488,0 0.68976,0 1.03464,0 0.34488,0 0.68976,0 1.03464,0 0.34489,0 0.68977,0 1.03465,0 0.34488,0 0.68976,0 1.03464,0 0.34488,0 0.68977,0 1.03465,0 0.34488,0 0.68976,0 1.03464,0 0.34488,0 0.68977,0 1.03465,0 0.34488,0 0.68976,0 1.03464,0 0.34488,0 0.68976,0 1.03465,0 0.34488,0 0.68976,0 1.03464,0 0.34488,0 0.68976,0 1.03465,0 0.34488,0 0.68976,0 1.03464,0 0.34488,0 0.68976,0 1.03464,0 0.34489,0 0.68977,0 1.03465,0 0.34488,0 0.68976,0 1.03464,0 0.34488,0 0.68977,0 1.03465,0 0.34488,0 0.68976,0 1.03464,0 0.34488,0 0.68977,0 1.03465,0 0.34488,0 0.68976,10e-6 1.03464,10e-6 0.34488,0 0.68976,0 1.03465,0 0.34488,0 0.68976,0 1.03464,0 0.34488,0 0.68976,0 1.03465,0 0.34488,0 0.68976,0 1.03464,0 0.34488,0 0.68976,0 1.03464,0 0.34489,0 0.68977,0 1.03465,0 0.34488,0 0.68976,0 1.03464,0 0.34488,0 0.68977,0 1.03465,10e-6 0.34488,0 0.68976,0 1.03464,0 0.34488,0 0.68977,0 1.03465,0 0.34488,0 0.68976,0 1.03464,0 0.34488,0 0.68976,0 1.03465,0 0.34488,0 0.68976,0 1.03464,10e-6 0.34488,0 0.68976,0 1.03465,0 0.34488,0 0.68976,0 1.03464,0 0.34488,0 0.68976,0 1.03464,0 0.34489,1e-5 0.68977,1e-5 1.03465,1e-5 0.34488,0 0.68976,0 1.03464,0 0.34488,0 0.68977,0 1.03465,0 0.34488,10e-6 0.68976,10e-6 1.03464,10e-6 0.34488,0 0.68977,0 1.03465,0 0.34488,0 0.68976,10e-6 1.03464,10e-6 0.34488,0 0.68976,0 1.03465,0 0.34488,0 0.68976,10e-6 1.03464,10e-6 0.34488,0 0.68976,0 1.03465,0 0.34488,10e-6 0.68976,10e-6 1.03464,10e-6 0.34488,0 0.68976,1e-5 1.03464,1e-5 0.34489,0 0.68977,0 1.03465,10e-6 0.34488,0 0.68976,0 1.03464,0 0.34488,10e-6 0.68977,10e-6 1.03465,10e-6 0.34488,10e-6 0.68976,10e-6 1.03464,10e-6 0.34488,1e-5 0.68977,1e-5 1.03465,1e-5 0.34488,10e-6 0.68976,10e-6 1.03464,10e-6 0.34488,10e-6 0.68976,10e-6 1.03465,2e-5 0.34488,0 0.68976,0 1.03464,10e-6 0.34488,0 0.68976,1e-5 1.03465,1e-5 0.34488,10e-6 0.68976,10e-6 1.03464,2e-5 0.34488,0 0.68976,10e-6 1.03464,10e-6 0.34489,1e-5 0.68977,1e-5 1.03465,2e-5 0.34488,10e-6 0.68976,10e-6 1.03464,2e-5 0.34488,10e-6 0.68977,10e-6 1.03465,2e-5 0.34488,10e-6 0.68976,10e-6 1.03464,2e-5 0.34488,10e-6 0.68977,2e-5 1.03465,2e-5 0.34488,10e-6 0.68976,2e-5 1.03464,3e-5 0.34488,10e-6 0.68976,2e-5 1.03465,3e-5 0.34488,0 0.68976,10e-6 1.03464,2e-5 0.34488,1e-5 0.68976,2e-5 1.03465,4e-5 0.34488,10e-6 0.68976,2e-5 1.03464,3e-5 0.34488,10e-6 0.68976,2e-5 1.03464,3e-5 0.34489,2e-5 0.68977,3e-5 1.03465,4e-5 0.34488,2e-5 0.68976,3e-5 1.03464,4e-5 0.34488,2e-5 0.68977,3e-5 1.03465,5e-5 0.34488,1e-5 0.68976,3e-5 1.03464,4e-5 0.34488,2e-5 0.68977,4e-5 1.03465,5e-5 0.34488,2e-5 0.68976,4e-5 1.03464,6e-5 0.34488,2e-5 0.68976,4e-5 1.03465,6e-5 0.34488,2e-5 0.68976,4e-5 1.03464,6e-5 0.34488,2e-5 0.68976,4e-5 1.03465,7e-5 0.34488,2e-5 0.68976,4e-5 1.03464,7e-5 0.34488,2e-5 0.68976,5e-5 1.03464,7e-5 0.34489,3e-5 0.68977,6e-5 1.03465,9e-5 0.34488,2e-5 0.68976,5e-5 1.03464,8e-5 0.34488,3e-5 0.68977,7e-5 1.03465,10e-5 0.34488,3e-5 0.68976,6e-5 1.03464,10e-5 0.34488,3e-5 0.68977,7e-5 1.03465,1.1e-4 0.34488,3e-5 0.68976,7e-5 1.03464,1.1e-4 0.34488,4e-5 0.68976,8e-5 1.03465,1.3e-4 0.34488,4e-5 0.68976,8e-5 1.03464,1.3e-4 0.34488,4e-5 0.68976,9e-5 1.03465,1.4e-4 0.34488,5e-5 0.68976,10e-5 1.03464,1.5e-4 0.34488,5e-5 0.68976,1.1e-4 1.03464,1.6e-4 0.34489,6e-5 0.68977,1.1e-4 1.03465,1.7e-4 0.34488,6e-5 0.68976,1.2e-4 1.03464,1.9e-4 0.34488,6e-5 0.68977,1.3e-4 1.03465,1.9e-4 0.34488,7e-5 0.68976,1.4e-4 1.03464,2.1e-4 0.34488,8e-5 0.68977,1.5e-4 1.03465,2.3e-4 0.34488,8e-5 0.68976,1.6e-4 1.03464,2.4e-4 0.34488,8e-5 0.68976,1.7e-4 1.03465,2.5e-4 0.34488,9e-5 0.68976,1.8e-4 1.03464,2.8e-4 0.34488,9e-5 0.68976,1.9e-4 1.03465,2.9e-4 0.34488,1e-4 0.68976,2e-4 1.03464,3.1e-4 0.34488,1e-4 0.68976,2.1e-4 1.03464,3.3e-4 0.34489,1.1e-4 0.68977,2.3e-4 1.03465,3.5e-4 0.34488,1.2e-4 0.68976,2.4e-4 1.03464,3.7e-4 0.34488,1.3e-4 0.68977,2.7e-4 1.03465,4e-4 0.34488,1.4e-4 0.68976,2.8e-4 1.03464,4.3e-4 0.34488,1.5e-4 0.68977,3e-4 1.03465,4.5e-4 0.34488,1.6e-4 0.68976,3.2e-4 1.03464,4.9e-4 0.34488,1.6e-4 0.68976,3.3e-4 1.03465,5.1e-4 0.34488,1.8e-4 0.68976,3.6e-4 1.03464,5.5e-4 0.34488,1.9e-4 0.68976,3.8e-4 1.03465,5.8e-4 0.34488,2e-4 0.68976,4.1e-4 1.03464,6.2e-4 0.34488,2.1e-4 0.68976,4.3e-4 1.03464,6.6e-4 0.34489,2.2e-4 0.68977,4.6e-4 1.03465,7e-4 0.34488,2.4e-4 0.68976,4.9e-4 1.03464,7.4e-4 0.34488,2.6e-4 0.68977,5.2e-4 1.03465,7.9e-4 0.34488,2.8e-4 0.68976,5.6e-4 1.03464,8.5e-4 0.34488,2.8e-4 0.68977,5.8e-4 1.03465,8.9e-4 0.34488,3.1e-4 0.68976,6.2e-4 1.03464,9.5e-4 0.34488,3.2e-4 0.68976,6.6e-4 1.03465,10e-4 0.34488,3.4e-4 0.68976,7e-4 1.03464,0.001 0.34488,3.6e-4 0.68976,7.4e-4 1.03465,10e-4 0.34488,3.9e-4 0.68976,7.9e-4 1.03464,10e-4 0.34488,4.1e-4 0.68976,8.4e-4 1.03464,10e-4 0.34489,4.4e-4 0.68977,8.9e-4 1.03465,10e-4 0.34488,4.7e-4 0.68976,9.5e-4 1.03464,0.001 0.34488,5e-4 0.68977,10e-4 1.03465,0.002 0.34488,5.2e-4 0.68976,10e-4 1.03464,0.002 0.34488,5.5e-4 0.68977,0.001 1.03465,0.002 0.34488,5.9e-4 0.68976,10e-4 1.03464,0.002 0.34488,6.2e-4 0.68976,10e-4 1.03465,0.002 0.34488,6.6e-4 0.68976,10e-4 1.03464,0.002 0.34488,7e-4 0.68976,10e-4 1.03465,0.002 0.34488,7.4e-4 0.68976,0.001 1.03464,0.002 0.34488,7.9e-4 0.68976,0.002 1.03464,0.002 0.34489,8.3e-4 0.68977,0.002 1.03465,0.003 0.34488,8.8e-4 0.68976,0.002 1.03464,0.003 0.34488,9.2e-4 0.68977,0.002 1.03465,0.003 0.34488,9.8e-4 0.68976,0.002 1.03464,0.003 0.34488,10e-4 0.68977,0.002 1.03465,0.003 0.34488,0.001 0.68976,0.002 1.03464,0.003 0.34488,10e-4 0.68976,0.002 1.03465,0.004 0.34488,10e-4 0.68976,0.002 1.03464,0.004 0.34488,10e-4 0.68976,0.003 1.03465,0.004 0.34488,10e-4 0.68976,0.003 1.03464,0.004 0.34488,0.001 0.68976,0.003 1.03464,0.004 0.34489,0.002 0.68977,0.003 1.03465,0.005 0.34488,0.002 0.68976,0.003 1.03464,0.005 0.34488,0.002 0.68977,0.003 1.03465,0.005 0.34488,0.002 0.68976,0.004 1.03464,0.006 0.34488,0.002 0.68977,0.004 1.03465,0.006 0.34488,0.002 0.68976,0.004 1.03464,0.006 0.34488,0.002 0.68976,0.004 1.03465,0.006 0.34488,0.002 0.68976,0.004 1.03464,0.007 0.34488,0.002 0.68976,0.005 1.03465,0.007 0.34488,0.002 0.68976,0.005 1.03464,0.008 0.34488,0.003 0.68976,0.005 1.03464,0.008 0.34489,0.003 0.68977,0.006 1.03465,0.008 0.34488,0.003 0.68976,0.006 1.03464,0.009 0.34488,0.003 0.68977,0.006 1.03465,0.009 0.34488,0.003 0.68976,0.006 1.03464,0.01 0.34488,0.003 0.68977,0.007 1.03465,0.0103 0.34488,0.004 0.68976,0.007 1.03464,0.0108 0.34488,0.004 0.68976,0.007 1.03465,0.0114 0.34488,0.004 0.68976,0.008 1.03464,0.012 0.34488,0.004 0.68976,0.008 1.03465,0.0126 0.34488,0.004 0.68976,0.009 1.03464,0.0132 0.34488,0.005 0.68976,0.009 1.03464,0.0139 0.34489,0.005 0.68977,0.01 1.03465,0.0146 0.34488,0.005 0.68976,0.0101 1.03464,0.0153 0.34488,0.005 0.68977,0.0106 1.03465,0.0161 0.34488,0.005 0.68976,0.0111 1.03464,0.0169 0.34488,0.006 0.68977,0.0117 1.03465,0.0177 0.34488,0.006 0.68976,0.0122 1.03464,0.0186 0.34488,0.006 0.68976,0.0128 1.03465,0.0195 0.34488,0.007 0.68976,0.0134 1.03464,0.0204 0.34488,0.007 0.68976,0.0141 1.03465,0.0214 0.34488,0.007 0.68976,0.0148 1.03464,0.0224 0.34488,0.008 0.68976,0.0155 1.03464,0.0235 0.34489,0.008 0.68977,0.0162 1.03465,0.0246 0.34488,0.008 0.68976,0.017 1.03464,0.0258 0.34488,0.009 0.68977,0.0178 1.03465,0.027 0.34488,0.009 0.68976,0.0186 1.03464,0.0283 0.34488,0.01 0.68977,0.0195 1.03465,0.0296 0.34488,0.0101 0.68976,0.0204 1.03464,0.0309 0.34488,0.0106 0.68976,0.0213 1.03465,0.0324 0.34488,0.011 0.68976,0.0223 1.03464,0.0339 0.34488,0.0115 0.68976,0.0233 1.03465,0.0354 0.34488,0.0121 0.68976,0.0244 1.03464,0.037 0.34488,0.0126 0.68976,0.0255 1.03464,0.0387 0.34489,0.0132 0.68977,0.0267 1.03465,0.0404 0.34488,0.0138 0.68976,0.0278 1.03464,0.0422 0.34488,0.0144 0.68977,0.0291 1.03465,0.0441 0.34488,0.015 0.68976,0.0304 1.03464,0.0461 0.34488,0.0157 0.68977,0.0317 1.03465,0.0481 0.34488,0.0164 0.68976,0.0331 1.03464,0.0502 0.34488,0.0171 0.68976,0.0345 1.03465,0.0524 0.34488,0.0178 0.68976,0.036 1.03464,0.0546 0.34488,0.0186 0.68976,0.0376 1.03465,0.0569 0.34488,0.0194 0.68976,0.0392 1.03464,0.0594 0.34488,0.0202 0.68976,0.0408 1.03464,0.0619 0.34489,0.0211 0.68977,0.0426 1.03465,0.0645 0.34488,0.022 0.68976,0.0444 1.03464,0.0672 0.34488,0.0229 0.68977,0.0462 1.03465,0.07 0.34488,0.0238 0.68976,0.0481 1.03464,0.0729 0.34488,0.0248 0.68977,0.0501 1.03465,0.0759 0.34488,0.0258 0.68976,0.0521 1.03464,0.079 0.34488,0.0269 0.68976,0.0543 1.03465,0.0822 0.34488,0.0279 0.68976,0.0565 1.03464,0.0855 0.34488,0.0291 0.68976,0.0587 1.03465,0.089 0.34488,0.0302 0.68976,0.0611 1.03464,0.0925 0.34488,0.0314 0.68976,0.0635 1.03464,0.0962 0.34489,0.0327 0.68977,0.066 1.03465,0.1 0.34488,0.034 0.68976,0.0686 1.03464,0.10388 0.34488,0.0353 0.68977,0.0713 1.03465,0.10792 0.34488,0.0367 0.68976,0.074 1.03464,0.11208 0.34488,0.0381 0.68977,0.0769 1.03465,0.11638 0.34488,0.0395 0.68976,0.0798 1.03464,0.12081 0.34488,0.041 0.68976,0.0828 1.03465,0.12537 0.34488,0.0426 0.68976,0.0859 1.03464,0.13009 0.34488,0.0442 0.68976,0.0891 1.03465,0.13493 0.34488,0.0458 0.68976,0.0924 1.03464,0.13994 0.34488,0.0475 0.68976,0.0958 1.03464,0.14508 0.34489,0.0492 0.68977,0.0993 1.03465,0.15037 0.34488,0.051 0.68976,0.10296 1.03464,0.15583 0.34488,0.0529 0.68977,0.10667 1.03465,0.16143 0.34488,0.0548 0.68976,0.11049 1.03464,0.16721 0.34488,0.0567 0.68977,0.11441 1.03465,0.17313 0.34488,0.0587 0.68976,0.11845 1.03464,0.17922 0.34488,0.0608 0.68976,0.1226 1.03465,0.18549 0.34488,0.0629 0.68976,0.12685 1.03464,0.19192 0.34488,0.0651 0.68976,0.13122 1.03465,0.19851 0.34488,0.0673 0.68976,0.13572 1.03464,0.2053 0.34488,0.0696 0.68976,0.14032 1.03464,0.21225 0.34489,0.0719 0.68977,0.14504 1.03465,0.21938 0.34488,0.0743 0.68976,0.14989 1.03464,0.22669 0.34488,0.0768 0.68977,0.15485 1.03465,0.23418 0.34488,0.0793 0.68976,0.15995 1.03464,0.24187 0.34488,0.0819 0.68977,0.16516 1.03465,0.24973 0.34488,0.0846 0.68976,0.1705 1.03464,0.25779 0.34488,0.0873 0.68976,0.17595 1.03465,0.26602 0.34488,0.0901 0.68976,0.18155 1.03464,0.27447 0.34488,0.0929 0.68976,0.18726 1.03465,0.28309 0.34488,0.0958 0.68976,0.19311 1.03464,0.2919 0.34488,0.0988 0.68976,0.1991 1.03464,0.30093 0.34489,0.10183 0.68977,0.2052 1.03465,0.31013 0.34488,0.10493 0.68976,0.21144 1.03464,0.31954 0.34488,0.1081 0.68977,0.2178 1.03465,0.32914 0.34488,0.11133 0.68976,0.2243 1.03464,0.33893 0.34488,0.11464 0.68977,0.23094 1.03465,0.34894 0.34488,0.118 0.68976,0.2377 1.03464,0.35912 0.34488,0.12143 0.68976,0.24459 1.03465,0.36952 0.34488,0.12492 0.68976,0.25161 1.03464,0.3801 0.34488,0.12848 0.68976,0.25877 1.03464,0.39087 0.34489,0.13211 0.68977,0.26606 1.03465,0.40186 0.34488,0.1358 0.68976,0.27346 1.03464,0.41302 0.34489,0.13955 0.68977,0.28101 1.03465,0.42438 0.34488,0.14337 0.68976,0.28867 1.03464,0.43593 0.34488,0.14725 0.68977,0.29647 1.03465,0.44767 0.34488,0.15119 0.68976,0.30439 1.03464,0.45959 0.34488,0.1552 0.68977,0.31243 1.03465,0.4717 0.34488,0.15927 0.68976,0.32059 1.03464,0.48399 0.34488,0.16339 0.68976,0.32887 1.03465,0.49645 0.34488,0.16758 0.68976,0.33727 1.03464,0.50909 0.34488,0.17183 0.68976,0.34579 1.03464,0.52191 0.34489,0.17612 0.68977,0.35441 1.03465,0.53488 0.34488,0.18048 0.68976,0.36315 1.03464,0.54803 0.34489,0.18488 0.68977,0.37199 1.03465,0.56133 0.34488,0.18934 0.68976,0.38092 1.03464,0.57477 0.34488,0.19385 0.68977,0.38997 1.03465,0.58838 0.34488,0.19841 0.68976,0.39911 1.03464,0.60212 0.34488,0.20301 0.68977,0.40834 1.03465,0.616 0.34488,0.20765 0.68976,0.41765 1.03464,0.63 0.34488,0.21235 0.68976,0.42706 1.03465,0.64414 0.34488,0.21707 0.68976,0.43653 1.03464,0.65838 0.34488,0.22185 0.68976,0.44609 1.03464,0.67274 0.34489,0.22665 0.68977,0.45571 1.03465,0.6872 0.34488,0.23148 0.68976,0.46539 1.03464,0.70174 0.34489,0.23635 0.68977,0.47514 1.03465,0.71638 0.34488,0.24124 0.68976,0.48493 1.03464,0.73109 0.34488,0.24615 0.68977,0.49477 1.03465,0.74586 0.34488,0.25108 0.68976,0.50465 1.03464,0.76069 0.34488,0.25603 0.68977,0.51456 1.03465,0.77556 0.34488,0.261 0.68976,0.5245 1.03464,0.79048 0.34488,0.26598 0.68976,0.53445 1.03465,0.80541 0.34488,0.27096 0.68976,0.54442 1.03464,0.82036 0.34488,0.27594 0.68976,0.55438 1.03464,0.8353 0.34489,0.28093 0.68977,0.56435 1.03465,0.85025 0.34488,0.2859 0.68976,0.57429 1.03464,0.86516 0.34489,0.29087 0.68977,0.58422 1.03465,0.88004 0.34488,0.29581 0.68976,0.59411 1.03464,0.89486 0.34488,0.30075 0.68977,0.60397 1.03465,0.90963 0.34488,0.30566 0.68976,0.61378 1.03464,0.92432 0.34488,0.31054 0.68977,0.62352 1.03465,0.93891 0.34488,0.31539 0.68976,0.6332 1.03464,0.9534 0.34488,0.3202 0.68976,0.6428 1.03465,0.96776 0.34488,0.32497 0.68976,0.65231 1.03464,0.98199 0.34488,0.32969 0.68976,0.66172 1.03464,0.99607 0.34489,0.33435 0.68977,0.67102 1.03465,1.00997 0.34488,0.33895 0.68976,0.6802 1.03464,1.02369 0.34489,0.34349 0.68977,0.68924 1.03465,1.0372 0.34488,0.34796 0.68976,0.69815 1.03464,1.0505 0.34488,0.35235 0.68977,0.70689 1.03465,1.06355 0.34488,0.35667 0.68976,0.71547 1.03464,1.07636 0.34488,0.36089 0.68977,0.72387 1.03465,1.08888 0.34488,0.36501 0.68976,0.73207 1.03464,1.10111 0.34488,0.36904 0.68976,0.74008 1.03465,1.11304 0.34488,0.37296 0.68976,0.74786 1.03464,1.12463 0.34488,0.37677 0.68976,0.75542 1.03464,1.13588 0.34489,0.38045 0.68977,0.76273 1.03465,1.14675 0.34488,0.38401 0.68976,0.76979 1.03464,1.15724 0.34489,0.38744 0.68977,0.77658 1.03465,1.16732 0.34488,0.39074 0.68976,0.78309 1.03464,1.17697 0.34488,0.39389 0.68977,0.78931 1.03465,1.18619 0.34488,0.39687 0.68976,0.79521 1.03464,1.19492 0.34488,0.39971 0.68977,0.8008 1.03465,1.20318 0.34488,0.40238 0.68976,0.80606 1.03464,1.21093 0.34488,0.40488 0.68976,0.81096 1.03465,1.21815 0.34488,0.40719 0.68976,0.8155 1.03464,1.22483 0.34488,0.40932 0.68976,0.81966 1.03464,1.23093 0.34489,0.41126 0.68977,0.82344 1.03465,1.23645 0.34488,0.413 0.68976,0.82682 1.03464,1.24136 0.34489,0.41454 0.68977,0.82979 1.03465,1.24565 0.34488,0.41585 0.68976,0.83232 1.03464,1.24928 0.34488,0.41696 0.68977,0.83442 1.03465,1.25226 0.34488,0.41783 0.68976,0.83605 1.03464,1.25454 0.34488,0.41848 0.68977,0.83723 1.03465,1.25612 0.34488,0.41889 0.68976,0.83792 1.03464,1.25697 0.34488,0.41905 0.68976,0.83812 1.03465,1.25708 0.34488,0.41896 0.68976,0.83782 1.03464,1.25643 0.34488,0.41862 0.68976,0.83699 1.03464,1.255 0.34489,0.418 0.68977,0.83564 1.03465,1.25277 0.34488,0.41712 0.68976,0.83374 1.03464,1.24971 0.34489,0.41598 0.68977,0.8313 1.03465,1.24584 0.34488,0.41454 0.68976,0.82829 1.03464,1.24111 0.34488,0.41282 0.68977,0.82471 1.03465,1.23552 0.34488,0.4108 0.68976,0.82053 1.03464,1.22903 0.34488,0.4085 0.68977,0.81577 1.03465,1.22166 0.34488,0.40589 0.68976,0.8104 1.03464,1.21337 0.34488,0.40298 0.68976,0.80442 1.03465,1.20417 0.34488,0.39974 0.68976,0.7978 1.03464,1.194 0.34488,0.39621 0.68976,0.79056 1.03464,1.18291 0.34489,0.39235 0.68977,0.78268 1.03465,1.17084 0.34488,0.38816 0.68976,0.77414 1.03464,1.15779 0.34489,0.38365 0.68977,0.76496 1.03465,1.14377 0.34488,0.37881 0.68976,0.7551 1.03464,1.12874 0.34488,0.37363 0.68977,0.74459 1.03465,1.11271 0.34488,0.36812 0.68976,0.73339 1.03464,1.09566 0.34488,0.36227 0.68977,0.72152 1.03465,1.0776 0.34488,0.35608 0.68976,0.70897 1.03464,1.05851 0.34488,0.34954 0.68976,0.69572 1.03465,1.03838 0.34488,0.34266 0.68976,0.68178 1.03464,1.01722 0.34488,0.33543 0.68976,0.66715 1.03464,0.99501 0.34489,0.32785 0.68977,0.65182 1.03465,0.97176 0.34488,0.31993 0.68976,0.6358 1.03464,0.94746 0.34489,0.31166 0.68977,0.61909 1.03465,0.92212 0.34488,0.30304 0.68976,0.60167 1.03464,0.89574 0.34488,0.29406 0.68977,0.58354 1.03465,0.86829 0.34488,0.28475 0.68976,0.56474 1.03464,0.83982 0.34488,0.27508 0.68977,0.54523 1.03465,0.8103 0.34488,0.26507 0.68976,0.52504 1.03464,0.77975 0.34488,0.25472 0.68976,0.50415 1.03465,0.74817 0.34488,0.24401 0.68976,0.48258 1.03464,0.71556 0.34488,0.23298 0.68976,0.46034 1.03464,0.68195 0.34489,0.2216 0.68977,0.43742 1.03465,0.64732 0.34488,0.2099 0.68976,0.41384 1.03464,0.61171 0.34489,0.19786 0.68977,0.3896 1.03465,0.5751 0.34488,0.1855 0.68976,0.36472 1.03464,0.53754 0.34488,0.17282 0.68977,0.33919 1.03465,0.49901 0.34488,0.15982 0.68976,0.31304 1.03464,0.45955 0.34488,0.14651 0.68977,0.28626 1.03465,0.41915 0.34488,0.1329 0.68976,0.25888 1.03464,0.37786 0.34488,0.11898 0.68976,0.2309 1.03465,0.33567 0.34488,0.10477 0.68976,0.20235 1.03464,0.29262 0.34488,0.0903 0.68976,0.17322 1.03464,0.24872 0.34489,0.0755 0.68977,0.14354 1.03465,0.204 0.34488,0.0605 0.68976,0.11331 1.03464,0.15847 0.34489,0.0452 0.68977,0.0826 1.03465,0.11217 0.34488,0.0296 0.68976,0.0513 1.03464,0.0651 0.34488,0.0138 0.68977,0.0196 1.03465,0.0173 0.34488,-0.002 0.68976,-0.0126 1.03464,-0.0311 0.34488,-0.0185 0.68977,-0.0453 1.03465,-0.0803 0.34488,-0.035 0.68976,-0.0783 1.03464,-0.13003 0.34488,-0.0517 0.68976,-0.11182 1.03465,-0.18041 0.34488,-0.0686 0.68976,-0.14569 1.03464,-0.23135 0.34488,-0.0857 0.68976,-0.17993 1.03464,-0.28284 0.34489,-0.10291 0.68977,-0.21451 1.03465,-0.33483 0.34488,-0.12032 0.68976,-0.24941 1.03464,-0.38729 0.34489,-0.13788 0.68977,-0.2846 1.03465,-0.44018 0.34488,-0.15557 0.68976,-0.32006 1.03464,-0.49346 0.34488,-0.1734 0.68977,-0.35577 1.03465,-0.5471 0.34488,-0.19134 0.68976,-0.39169 1.03464,-0.60106 0.34488,-0.20938 0.68977,-0.42781 1.03465,-0.65531 0.34488,-0.22749 0.68976,-0.46409 1.03464,-0.70977 0.34488,-0.24569 0.68976,-0.50051 1.03465,-0.76445 0.34488,-0.26394 0.68976,-0.53704 1.03464,-0.81928 0.34488,-0.28223 0.68976,-0.57365 1.03464,-0.87422 0.34489,-0.30056 0.68977,-0.61032 1.03465,-0.92922 0.34488,-0.31891 0.68976,-0.64701 1.03464,-0.98426 0.34489,-0.33725 0.68977,-0.6837 1.03465,-1.03928 0.34488,-0.35558 0.68976,-0.72035 1.03464,-1.09423 0.34488,-0.37388 0.68977,-0.75694 1.03465,-1.14908 0.34488,-0.39214 0.68976,-0.79343 1.03464,-1.20377 0.34488,-0.41034 0.68977,-0.82979 1.03465,-1.25826 0.34488,-0.42847 0.68976,-0.86601 1.03464,-1.31252 0.34488,-0.44651 0.68976,-0.90203 1.03465,-1.36648 0.34488,-0.46444 0.68976,-0.93784 1.03464,-1.42009 0.34488,-0.48226 0.68976,-0.97341 1.03464,-1.47335 0.34489,-0.49993 0.68977,-1.00869 1.03465,-1.52615 0.34488,-0.51746 0.68976,-1.04367 1.03464,-1.57849 0.34489,-0.53482 0.68977,-1.07831 1.03465,-1.63031 0.34488,-0.552 0.68976,-1.11257 1.03464,-1.68155 0.34488,-0.56899 0.68977,-1.14644 1.03465,-1.7322 0.34488,-0.58575 0.68976,-1.17987 1.03464,-1.78217 0.34488,-0.6023 0.68977,-1.21284 1.03465,-1.83145 0.34488,-0.6186 0.68976,-1.24532 1.03464,-1.87997 0.34488,-0.63465 0.68976,-1.27729 1.03465,-1.92771 0.34488,-0.65043 0.68976,-1.30869 1.03464,-1.97461 0.34488,-0.66591 0.68976,-1.33952 1.03464,-2.02063 0.34489,-0.6811 0.68977,-1.36974 1.03465,-2.06572 0.34488,-0.69597 0.68976,-1.39933 1.03464,-2.10985 0.34489,-0.71052 0.68977,-1.42825 1.03465,-2.15298 0.34488,-0.72472 0.68976,-1.45648 1.03464,-2.19505 0.34488,-0.73858 0.68977,-1.484 1.03465,-2.23605 0.34488,-0.75205 0.68976,-1.51077 1.03464,-2.27592 0.34488,-0.76515 0.68977,-1.53676 1.03465,-2.31462 0.34488,-0.77785 0.68976,-1.56197 1.03464,-2.35212 0.34488,-0.79014 0.68976,-1.58636 1.03465,-2.38838 0.34488,-0.80203 0.68976,-1.60991 1.03464,-2.42338 0.34488,-0.81348 0.68976,-1.63259 1.03464,-2.45707 0.34489,-0.82449 0.68977,-1.65438 1.03465,-2.48943 0.34488,-0.83504 0.68976,-1.67526 1.03464,-2.5204 0.34489,-0.84514 0.68977,-1.69522 1.03465,-2.54998 0.34488,-0.85476 0.68976,-1.71423 1.03464,-2.57814 0.34488,-0.8639 0.68977,-1.73227 1.03465,-2.60483 0.34488,-0.87256 0.68976,-1.74934 1.03464,-2.63005 0.34488,-0.88071 0.68977,-1.76539 1.03465,-2.65375 0.34488,-0.88837 0.68976,-1.78043 1.03464,-2.67593 0.34488,-0.8955 0.68976,-1.79444 1.03465,-2.69655 0.34488,-0.90211 0.68976,-1.80741 1.03464,-2.7156 0.34488,-0.9082 0.68976,-1.81931 1.03464,-2.73306 0.34489,-0.91375 0.68977,-1.83015 1.03465,-2.74891 0.34488,-0.91876 0.68976,-1.83989 1.03464,-2.76312 0.34489,-0.92323 0.68977,-1.84856 1.03465,-2.77571 0.34488,-0.92715 0.68976,-1.85613 1.03464,-2.78664 0.34488,-0.93052 0.68977,-1.86258 1.03465,-2.79591 0.34488,-0.93332 0.68976,-1.86792 1.03464,-2.8035 0.34488,-0.93558 0.68977,-1.87215 1.03465,-2.80942 0.34488,-0.93727 0.68976,-1.87524 1.03464,-2.81364 0.34488,-0.9384 0.68976,-1.87723 1.03465,-2.81619 0.34488,-0.93896 0.68976,-1.87807 1.03464,-2.81703 0.34488,-0.93897 0.68976,-1.87779 1.03464,-2.81619 0.34489,-0.9384 0.68977,-1.87637 1.03465,-2.81364 0.34488,-0.93728 0.68976,-1.87384 1.03464,-2.80942 0.34489,-0.93558 0.68977,-1.87017 1.03465,-2.8035 0.34488,-0.93333 0.68976,-1.86539 1.03464,-2.79591 0.34488,-0.93052 0.68977,-1.85949 1.03465,-2.78664 0.34488,-0.92715 0.68976,-1.85248 1.03464,-2.77571 0.34488,-0.92323 0.68977,-1.84436 1.03465,-2.76312 0.34488,-0.91877 0.68976,-1.83516 1.03464,-2.74891 0.34488,-0.91375 0.68976,-1.82486 1.03465,-2.73306 0.34488,-0.9082 0.68976,-1.81348 1.03464,-2.7156 0.34488,-0.90211 0.68976,-1.80104 1.03464,-2.69655 0.34489,-0.8955 0.68977,-1.78756 1.03465,-2.67593 0.34488,-0.88837 0.68976,-1.77303 1.03464,-2.65375 0.34489,-0.88072 0.68977,-1.75748 1.03465,-2.63005 0.34488,-0.87257 0.68976,-1.74092 1.03464,-2.60483 0.34488,-0.86392 0.68977,-1.72337 1.03465,-2.57814 0.34488,-0.85477 0.68976,-1.70483 1.03464,-2.54998 0.34488,-0.84515 0.68977,-1.68535 1.03465,-2.5204 0.34488,-0.83506 0.68976,-1.66493 1.03464,-2.48943 0.34488,-0.82449 0.68976,-1.64358 1.03465,-2.45707 0.34488,-0.81348 0.68976,-1.62134 1.03464,-2.42338 0.34488,-0.80204 0.68976,-1.59822 1.03464,-2.38838 0.34489,-0.79016 0.68977,-1.57426 1.03465,-2.35212 0.34488,-0.77787 0.68976,-1.54946 1.03464,-2.31462 0.34489,-0.76516 0.68977,-1.52385 1.03465,-2.27592 0.34488,-0.75206 0.68976,-1.49746 1.03464,-2.23605 0.34488,-0.73858 0.68977,-1.47031 1.03465,-2.19505 0.34488,-0.72474 0.68976,-1.44244 1.03464,-2.15298 0.34488,-0.71054 0.68977,-1.41386 1.03465,-2.10985 0.34488,-0.69599 0.68976,-1.38461 1.03464,-2.06572 0.34488,-0.68112 0.68976,-1.3547 1.03465,-2.02063 0.34488,-0.66593 0.68976,-1.32417 1.03464,-1.97461 0.34488,-0.65044 0.68976,-1.29304 1.03464,-1.92771 0.34489,-0.63466 0.68977,-1.26135 1.03465,-1.87997 0.34488,-0.61862 0.68976,-1.22913 1.03464,-1.83145 0.34489,-0.60232 0.68977,-1.1964 1.03465,-1.78217 0.34488,-0.58578 0.68976,-1.16319 1.03464,-1.7322 0.34488,-0.569 0.68977,-1.12953 1.03465,-1.68155 0.34488,-0.55202 0.68976,-1.09547 1.03464,-1.63031 0.34488,-0.53484 0.68977,-1.06101 1.03465,-1.57849 0.34488,-0.51748 0.68976,-1.0262 1.03464,-1.52615 0.34488,-0.49995 0.68976,-0.99107 1.03465,-1.47335 0.34488,-0.48227 0.68976,-0.95564 1.03464,-1.42009 0.34488,-0.46446 0.68976,-0.91996 1.03464,-1.36648 0.34489,-0.44653 0.68977,-0.88403 1.03465,-1.31252 0.34488,-0.42848 0.68976,-0.8479 1.03464,-1.25826 0.34489,-0.41036 0.68977,-0.81161 1.03465,-1.20377 0.34488,-0.39216 0.68976,-0.77518 1.03464,-1.14908 0.34488,-0.3739 0.68977,-0.73863 1.03465,-1.09423 0.34488,-0.3556 0.68976,-0.70201 1.03464,-1.03928 0.34488,-0.33727 0.68977,-0.66534 1.03465,-0.98426 0.34488,-0.31892 0.68976,-0.62864 1.03464,-0.92922 0.34488,-0.30058 0.68976,-0.59197 1.03465,-0.87422 0.34488,-0.28225 0.68976,-0.55532 1.03464,-0.81928 0.34488,-0.26395 0.68976,-0.51874 1.03464,-0.76445 0.34489,-0.2457 0.68977,-0.48226 1.03465,-0.70977 0.34488,-0.22751 0.68976,-0.44592 1.03464,-0.65531 0.34489,-0.20938 0.68977,-0.4097 1.03465,-0.60106 0.34488,-0.19135 0.68976,-0.37368 1.03464,-0.5471 0.34488,-0.17342 0.68977,-0.33787 1.03465,-0.49346 0.34488,-0.1556 0.68976,-0.30228 1.03464,-0.44018 0.34488,-0.1379 0.68977,-0.26695 1.03465,-0.38729 0.34488,-0.12033 0.68976,-0.2319 1.03464,-0.33483 0.34488,-0.10292 0.68976,-0.19716 1.03465,-0.28284 0.34488,-0.0857 0.68976,-0.16275 1.03464,-0.23135 0.34488,-0.0686 0.68976,-0.12869 1.03464,-0.18041 0.34489,-0.0517 0.68977,-0.095 1.03465,-0.13003 0.34488,-0.035 0.68976,-0.0617 1.03464,-0.0803 0.34489,-0.0185 0.68977,-0.0289 1.03465,-0.0311 0.34488,-0.002 0.68976,0.004 1.03464,0.0173 0.34488,0.0138 0.68977,0.0355 1.03465,0.0651 0.34488,0.0296 0.68976,0.067 1.03464,0.11217 0.34488,0.0451 0.68977,0.098 1.03465,0.15847 0.34488,0.0605 0.68976,0.12851 1.03464,0.204 0.34488,0.0755 0.68976,0.15845 1.03465,0.24872 0.34488,0.0903 0.68976,0.18786 1.03464,0.29262 0.34488,0.10475 0.68976,0.21671 1.03464,0.33567 0.34489,0.11896 0.68977,0.24498 1.03465,0.37786 0.34488,0.13288 0.68976,0.27266 1.03464,0.41915 0.34489,0.1465 0.68977,0.29974 1.03465,0.45955 0.34488,0.1598 0.68976,0.32621 1.03464,0.49901 0.34488,0.1728 0.68977,0.35205 1.03465,0.53754 0.34488,0.18549 0.68976,0.37725 1.03464,0.5751 0.34488,0.19785 0.68977,0.40182 1.03465,0.61171 0.34488,0.20989 0.68976,0.42573 1.03464,0.64732 0.34488,0.2216 0.68976,0.44898 1.03465,0.68195 0.34488,0.23297 0.68976,0.47156 1.03464,0.71556 0.34488,0.24401 0.68976,0.49346 1.03464,0.74817 0.34489,0.2547 0.68977,0.51469 1.03465,0.77975 0.34488,0.26506 0.68976,0.53523 1.03464,0.8103 0.34489,0.27507 0.68977,0.55508 1.03465,0.83982 0.34488,0.28474 0.68976,0.57424 1.03464,0.86829 0.34488,0.29406 0.68977,0.59271 1.03465,0.89574 0.34488,0.30302 0.68976,0.61047 1.03464,0.92212 0.34488,0.31165 0.68977,0.62754 1.03465,0.94746 0.34488,0.31993 0.68976,0.64391 1.03464,0.97176 0.34488,0.32785 0.68976,0.65959 1.03465,0.99501 0.34488,0.33543 0.68976,0.67457 1.03464,1.01722 0.34488,0.34266 0.68976,0.68885 1.03464,1.03838 0.34489,0.34954 0.68977,0.70244 1.03465,1.05851 0.34488,0.35607 0.68976,0.71533 1.03464,1.0776 0.34489,0.36226 0.68977,0.72755 1.03465,1.09566 0.34488,0.36812 0.68976,0.73908 1.03464,1.11271 0.34488,0.37363 0.68977,0.74994 1.03465,1.12874 0.34488,0.37881 0.68976,0.76012 1.03464,1.14377 0.34488,0.38364 0.68977,0.76963 1.03465,1.15779 0.34488,0.38816 0.68976,0.7785 1.03464,1.17084 0.34488,0.39234 0.68976,0.7867 1.03465,1.18291 0.34488,0.3962 0.68976,0.79426 1.03464,1.194 0.34488,0.39975 0.68976,0.80119 1.03464,1.20417 0.34489,0.40297 0.68977,0.80748 1.03465,1.21337 0.34488,0.40589 0.68976,0.81316 1.03464,1.22166 0.34489,0.4085 0.68977,0.81823 1.03465,1.22903 0.34488,0.41081 0.68976,0.8227 1.03464,1.23552 0.34488,0.41281 0.68977,0.82657 1.03465,1.24111 0.34488,0.41453 0.68976,0.82986 1.03464,1.24584 0.34488,0.41597 0.68977,0.83259 1.03465,1.24971 0.34488,0.41713 0.68976,0.83477 1.03464,1.25277 0.34488,0.41801 0.68976,0.83638 1.03465,1.255 0.34488,0.41861 0.68976,0.83747 1.03464,1.25643 0.34488,0.41896 0.68976,0.83803 1.03464,1.25708 0.34489,0.41905 0.68977,0.83808 1.03465,1.25697 0.34488,0.41889 0.68976,0.83764 1.03464,1.25612 0.34489,0.41849 0.68977,0.8367 1.03465,1.25454 0.34488,0.41784 0.68976,0.8353 1.03464,1.25226 0.34488,0.41696 0.68977,0.83342 1.03465,1.24928 0.34488,0.41586 0.68976,0.83111 1.03464,1.24565 0.34488,0.41454 0.68977,0.82836 1.03465,1.24136 0.34488,0.41301 0.68976,0.82519 1.03464,1.23645 0.34488,0.41127 0.68976,0.82161 1.03465,1.23093 0.34488,0.40933 0.68976,0.81763 1.03464,1.22483 0.34488,0.40719 0.68976,0.81327 1.03464,1.21815 0.34489,0.40487 0.68977,0.80854 1.03465,1.21093 0.34488,0.40238 0.68976,0.80346 1.03464,1.20318 0.34489,0.39971 0.68977,0.79804 1.03465,1.19492 0.34488,0.39688 0.68976,0.7923 1.03464,1.18619 0.34488,0.39388 0.68977,0.78623 1.03465,1.17697 0.34488,0.39075 0.68976,0.77987 1.03464,1.16732 0.34488,0.38746 0.68976,0.77322 1.03465,1.15724 0.34488,0.38403 0.68976,0.76629 1.03464,1.14675 0.34488,0.38046 0.68976,0.75911 1.03465,1.13588 0.34488,0.37677 0.68976,0.75166 1.03464,1.12463 0.34488,0.37296 0.68976,0.74399 1.03464,1.11304 0.34489,0.36904 0.68977,0.73609 1.03465,1.10111 0.34488,0.36502 0.68976,0.72799 1.03464,1.08888 0.34489,0.36089 0.68977,0.71969 1.03465,1.07636 0.34488,0.35666 0.68976,0.71119 1.03464,1.06355 0.34488,0.35236 0.68977,0.70253 1.03465,1.0505 0.34488,0.34796 0.68976,0.6937 1.03464,1.0372 0.34488,0.3435 0.68976,0.68473 1.03465,1.02369 0.34488,0.33896 0.68976,0.67562 1.03464,1.00997 0.34488,0.33435 0.68976,0.66638 1.03465,0.99607 0.34488,0.32968 0.68976,0.65702 1.03464,0.98199 0.34488,0.32497 0.68976,0.64756 1.03464,0.96776 0.34489,0.32021 0.68977,0.63801 1.03465,0.9534 0.34488,0.3154 0.68976,0.62837 1.03464,0.93891 0.34489,0.31055 0.68977,0.61865 1.03465,0.92432 0.34488,0.30566 0.68976,0.60887 1.03464,0.90963 0.34488,0.30075 0.68977,0.59904 1.03465,0.89486 0.34488,0.29583 0.68976,0.58917 1.03464,0.88004 0.34488,0.29087 0.68976,0.57926 1.03465,0.86516 0.34488,0.2859 0.68976,0.56932 1.03464,0.85025 0.34488,0.28092 0.68976,0.55936 1.03465,0.8353 0.34488,0.27595 0.68976,0.5494 1.03464,0.82036 0.34488,0.27097 0.68976,0.53943 1.03464,0.80541 0.34489,0.26599 0.68977,0.52947 1.03465,0.79048 0.34488,0.26101 0.68976,0.51952 1.03464,0.77556 0.34489,0.25605 0.68977,0.5096 1.03465,0.76069 0.34488,0.2511 0.68976,0.49971 1.03464,0.74586 0.34488,0.24616 0.68977,0.48985 1.03465,0.73109 0.34488,0.24124 0.68976,0.48003 1.03464,0.71638 0.34488,0.23635 0.68976,0.47026 1.03465,0.70174 0.34488,0.23149 0.68976,0.46055 1.03464,0.6872 0.34488,0.22665 0.68976,0.45089 1.03465,0.67274 0.34488,0.22185 0.68976,0.4413 1.03464,0.65838 0.34488,0.21709 0.68976,0.43179 1.03464,0.64414 0.34489,0.21235 0.68977,0.42234 1.03465,0.63 0.34488,0.20767 0.68976,0.41299 1.03464,0.616 0.34489,0.20302 0.68977,0.40371 1.03465,0.60212 0.34488,0.19841 0.68976,0.39452 1.03464,0.58838 0.34488,0.19385 0.68977,0.38543 1.03465,0.57477 0.34488,0.18935 0.68976,0.37644 1.03464,0.56133 0.34488,0.18488 0.68976,0.36755 1.03465,0.54803 0.34488,0.18047 0.68976,0.35875 1.03464,0.53488 0.34488,0.17612 0.68976,0.35008 1.03465,0.52191 0.34488,0.17182 0.68976,0.34151 1.03464,0.50909 0.34488,0.16758 0.68976,0.33306 1.03464,0.49645 0.34489,0.1634 0.68977,0.32472 1.03465,0.48399 0.34488,0.15928 0.68976,0.31649 1.03464,0.4717 0.34489,0.15521 0.68977,0.30839 1.03465,0.45959 0.34488,0.15121 0.68976,0.30041 1.03464,0.44767 0.34488,0.14726 0.68977,0.29255 1.03465,0.43593 0.34488,0.14338 0.68976,0.28482 1.03464,0.42438 0.34488,0.13956 0.68976,0.27722 1.03465,0.41302 0.34488,0.13581 0.68976,0.26974 1.03464,0.40186 0.34488,0.13211 0.68976,0.26239 1.03465,0.39087 0.34488,0.12849 0.68976,0.25518 1.03464,0.3801 0.34488,0.12493 0.68976,0.24809 1.03464,0.36952 0.34489,0.12143 0.68977,0.24112 1.03465,0.35912 0.34488,0.118 0.68976,0.2343 1.03464,0.34894 0.34489,0.11463 0.68977,0.2276 1.03465,0.33893 0.34488,0.11134 0.68976,0.22104 1.03464,0.32914 0.34488,0.10811 0.68977,0.21461 1.03465,0.31954 0.34488,0.10494 0.68976,0.2083 1.03464,0.31013 0.34488,0.10184 0.68976,0.20213 1.03465,0.30093 0.34488,0.0988 0.68976,0.19608 1.03464,0.2919 0.34488,0.0958 0.68976,0.19018 1.03465,0.28309 0.34488,0.0929 0.68976,0.18439 1.03464,0.27447 0.34488,0.0901 0.68976,0.17873 1.03464,0.26602 0.34489,0.0873 0.68977,0.17321 1.03465,0.25779 0.34488,0.0846 0.68976,0.16781 1.03464,0.24973 0.34489,0.0819 0.68977,0.16253 1.03465,0.24187 0.34488,0.0793 0.68976,0.15738 1.03464,0.23418 0.34488,0.0768 0.68977,0.15236 1.03465,0.22669 0.34488,0.0743 0.68976,0.14745 1.03464,0.21938 0.34488,0.0719 0.68976,0.14267 1.03465,0.21225 0.34488,0.0696 0.68976,0.138 1.03464,0.2053 0.34488,0.0673 0.68976,0.13345 1.03465,0.19851 0.34488,0.0651 0.68976,0.12903 1.03464,0.19192 0.34488,0.0629 0.68976,0.12471 1.03464,0.18549 0.34489,0.0608 0.68977,0.1205 1.03465,0.17922 0.34488,0.0587 0.68976,0.11642 1.03464,0.17313 0.34489,0.0567 0.68977,0.11244 1.03465,0.16721 0.34488,0.0548 0.68976,0.10856 1.03464,0.16143 0.34488,0.0529 0.68977,0.1048 1.03465,0.15583 0.34488,0.051 0.68976,0.10114 1.03464,0.15037 0.34488,0.0492 0.68976,0.0976 1.03465,0.14508 0.34488,0.0475 0.68976,0.0941 1.03464,0.13994 0.34488,0.0458 0.68976,0.0908 1.03465,0.13493 0.34488,0.0442 0.68976,0.0875 1.03464,0.13009 0.34488,0.0426 0.68976,0.0844 1.03464,0.12537 0.34489,0.041 0.68977,0.0813 1.03465,0.12081 0.34488,0.0395 0.68976,0.0783 1.03464,0.11638 0.34489,0.0381 0.68977,0.0754 1.03465,0.11208 0.34488,0.0367 0.68976,0.0726 1.03464,0.10792 0.34488,0.0353 0.68977,0.0699 1.03465,0.10388 0.34488,0.034 0.68976,0.0673 1.03464,0.1 0.34488,0.0327 0.68976,0.0647 1.03465,0.0962 0.34488,0.0315 0.68976,0.0623 1.03464,0.0925 0.34488,0.0303 0.68976,0.0599 1.03465,0.089 0.34488,0.0291 0.68976,0.0576 1.03464,0.0855 0.34488,0.028 0.68976,0.0554 1.03464,0.0822 0.34489,0.0269 0.68977,0.0532 1.03465,0.079 0.34488,0.0258 0.68976,0.0511 1.03464,0.0759 0.34489,0.0248 0.68977,0.0491 1.03465,0.0729 0.34488,0.0238 0.68976,0.0471 1.03464,0.07 0.34488,0.0229 0.68977,0.0453 1.03465,0.0672 0.34488,0.0219 0.68976,0.0434 1.03464,0.0645 0.34488,0.0211 0.68976,0.0417 1.03465,0.0619 0.34488,0.0202 0.68976,0.04 1.03464,0.0594 0.34488,0.0194 0.68976,0.0384 1.03465,0.057 0.34488,0.0186 0.68976,0.0368 1.03464,0.0546 0.34488,0.0178 0.68976,0.0353 1.03464,0.0524 0.34489,0.0171 0.68977,0.0338 1.03465,0.0502 0.34488,0.0164 0.68976,0.0324 1.03464,0.0481 0.34489,0.0157 0.68977,0.031 1.03465,0.0461 0.34488,0.015 0.68976,0.0297 1.03464,0.0441 0.34488,0.0144 0.68977,0.0285 1.03465,0.0422 0.34488,0.0138 0.68976,0.0272 1.03464,0.0404 0.34488,0.0132 0.68976,0.0261 1.03465,0.0387 0.34488,0.0126 0.68976,0.0249 1.03464,0.037 0.34488,0.0121 0.68976,0.0239 1.03465,0.0354 0.34488,0.0115 0.68976,0.0228 1.03464,0.0339 0.34488,0.011 0.68976,0.0218 1.03464,0.0324 0.34489,0.0105 0.68977,0.0209 1.03465,0.0309 0.34488,0.0101 0.68976,0.0199 1.03464,0.0296 0.34489,0.01 0.68977,0.019 1.03465,0.0283 0.34488,0.009 0.68976,0.0182 1.03464,0.027 0.34488,0.009 0.68977,0.0174 1.03465,0.0258 0.34488,0.008 0.68976,0.0166 1.03464,0.0246 0.34488,0.008 0.68976,0.0158 1.03465,0.0235 0.34488,0.008 0.68976,0.0151 1.03464,0.0224 0.34488,0.007 0.68976,0.0144 1.03465,0.0214 0.34488,0.007 0.68976,0.0138 1.03464,0.0204 0.34488,0.007 0.68976,0.0131 1.03464,0.0195 0.34489,0.006 0.68977,0.0125 1.03465,0.0186 0.34488,0.006 0.68976,0.0119 1.03464,0.0177 0.34489,0.006 0.68977,0.0114 1.03465,0.0169 0.34488,0.005 0.68976,0.0108 1.03464,0.0161 0.34488,0.005 0.68977,0.0103 1.03465,0.0153 0.34488,0.005 0.68976,0.01 1.03464,0.0146 0.34488,0.005 0.68976,0.009 1.03465,0.0139 0.34488,0.005 0.68976,0.009 1.03464,0.0132 0.34488,0.004 0.68976,0.008 1.03465,0.0126 0.34488,0.004 0.68976,0.008 1.03464,0.012 0.34488,0.004 0.68976,0.008 1.03464,0.0114 0.34489,0.004 0.68977,0.007 1.03465,0.0108 0.34488,0.004 0.68976,0.007 1.03464,0.0103 0.34489,0.003 0.68977,0.007 1.03465,0.01 0.34488,0.003 0.68976,0.006 1.03464,0.009 0.34488,0.003 0.68977,0.006 1.03465,0.009 0.34488,0.003 0.68976,0.006 1.03464,0.008 0.34488,0.003 0.68976,0.005 1.03465,0.008 0.34488,0.003 0.68976,0.005 1.03464,0.008 0.34488,0.002 0.68976,0.005 1.03465,0.007 0.34488,0.002 0.68976,0.005 1.03464,0.007 0.34488,0.002 0.68976,0.004 1.03464,0.006 0.34489,0.002 0.68977,0.004 1.03465,0.006 0.34488,0.002 0.68976,0.004 1.03464,0.006 0.34489,0.002 0.68977,0.004 1.03465,0.006 0.34488,0.002 0.68976,0.004 1.03464,0.005 0.34488,0.002 0.68977,0.003 1.03465,0.005 0.34488,0.002 0.68976,0.003 1.03464,0.005 0.34488,0.002 0.68976,0.003 1.03465,0.004 0.34488,10e-4 0.68976,0.003 1.03464,0.004 0.34488,10e-4 0.68976,0.003 1.03465,0.004 0.34488,10e-4 0.68976,0.003 1.03464,0.004 0.34488,0.001 0.68976,0.002 1.03464,0.004 0.34489,10e-4 0.68977,0.002 1.03465,0.003 0.34488,10e-4 0.68976,0.002 1.03464,0.003 0.34489,0.001 0.68977,0.002 1.03465,0.003 0.34488,9.8e-4 0.68976,0.002 1.03464,0.003 0.34488,9.3e-4 0.68977,0.002 1.03465,0.003 0.34488,8.8e-4 0.68976,0.002 1.03464,0.003 0.34488,8.3e-4 0.68976,0.002 1.03465,0.002 0.34488,7.8e-4 0.68976,0.002 1.03464,0.002 0.34488,7.4e-4 0.68976,10e-4 1.03465,0.002 0.34488,7e-4 0.68976,10e-4 1.03464,0.002 0.34488,6.6e-4 0.68976,10e-4 1.03464,0.002 0.34489,6.3e-4 0.68977,10e-4 1.03465,0.002 0.34488,5.9e-4 0.68976,0.001 1.03464,0.002 0.34489,5.6e-4 0.68977,10e-4 1.03465,0.002 0.34488,5.2e-4 0.68976,10e-4 1.03464,0.002 0.34488,4.9e-4 0.68977,9.7e-4 1.03465,10e-4 0.34488,4.6e-4 0.68976,9.1e-4 1.03464,10e-4 0.34488,4.4e-4 0.68976,8.7e-4 1.03465,10e-4 0.34488,4.2e-4 0.68976,8.2e-4 1.03464,10e-4 0.34488,3.9e-4 0.68976,7.7e-4 1.03465,0.001 0.34488,3.7e-4 0.68976,7.3e-4 1.03464,10e-4 0.34488,3.5e-4 0.68976,6.9e-4 1.03464,10e-4 0.34489,3.3e-4 0.68977,6.4e-4 1.03465,9.5e-4 0.34488,3.1e-4 0.68976,6.1e-4 1.03464,8.9e-4 0.34489,2.9e-4 0.68977,5.7e-4 1.03465,8.5e-4 0.34488,2.7e-4 0.68976,5.3e-4 1.03464,7.9e-4 0.34488,2.5e-4 0.68977,5e-4 1.03465,7.4e-4 0.34488,2.4e-4 0.68976,4.8e-4 1.03464,7e-4 0.34488,2.3e-4 0.68976,4.5e-4 1.03465,6.6e-4 0.34488,2.1e-4 0.68976,4.2e-4 1.03464,6.2e-4 0.34488,2e-4 0.68976,3.9e-4 1.03465,5.8e-4 0.34488,1.9e-4 0.68976,3.7e-4 1.03464,5.5e-4 0.34488,1.8e-4 0.68976,3.5e-4 1.03464,5.1e-4 0.34489,1.7e-4 0.68977,3.3e-4 1.03465,4.9e-4 0.34488,1.5e-4 0.68976,3e-4 1.03464,4.5e-4 0.34489,1.5e-4 0.68977,2.9e-4 1.03465,4.3e-4 0.34488,1.3e-4 0.68976,2.7e-4 1.03464,4e-4 0.34488,1.3e-4 0.68977,2.5e-4 1.03465,3.7e-4 0.34488,1.2e-4 0.68976,2.4e-4 1.03464,3.5e-4 0.34488,1.2e-4 0.68976,2.3e-4 1.03465,3.3e-4 0.34488,1.1e-4 0.68976,2.1e-4 1.03464,3.1e-4 0.34488,10e-5 0.68976,2e-4 1.03465,2.9e-4 0.34488,10e-5 0.68976,1.9e-4 1.03464,2.8e-4 0.34488,8e-5 0.68976,1.7e-4 1.03464,2.5e-4 0.34489,8e-5 0.68977,1.6e-4 1.03465,2.4e-4 0.34488,8e-5 0.68976,1.5e-4 1.03464,2.3e-4 0.34489,7e-5 0.68977,1.4e-4 1.03465,2.1e-4 0.34488,6e-5 0.68976,1.3e-4 1.03464,1.9e-4 0.34488,7e-5 0.68977,1.3e-4 1.03465,1.9e-4 0.34488,6e-5 0.68976,1.1e-4 1.03464,1.7e-4 0.34488,5e-5 0.68976,1.1e-4 1.03465,1.6e-4 0.34488,5e-5 0.68976,10e-5 1.03464,1.5e-4 0.34488,5e-5 0.68976,10e-5 1.03465,1.4e-4 0.34488,5e-5 0.68976,9e-5 1.03464,1.3e-4 0.34488,5e-5 0.68976,9e-5 1.03464,1.3e-4 0.34489,4e-5 0.68977,8e-5 1.03465,1.1e-4 0.34488,4e-5 0.68976,8e-5 1.03464,1.1e-4 0.34489,4e-5 0.68977,7e-5 1.03465,10e-5 0.34488,3e-5 0.68976,7e-5 1.03464,10e-5 0.34488,3e-5 0.68977,6e-5 1.03465,8e-5 0.34488,3e-5 0.68976,6e-5 1.03464,9e-5 0.34488,2e-5 0.68976,5e-5 1.03465,7e-5 0.34488,3e-5 0.68976,5e-5 1.03464,7e-5 0.34488,3e-5 0.68976,5e-5 1.03465,7e-5 0.34488,2e-5 0.68976,4e-5 1.03464,6e-5 0.34488,2e-5 0.68976,4e-5 1.03464,6e-5 0.34489,2e-5 0.68977,4e-5 1.03465,6e-5 0.34488,10e-6 0.68976,3e-5 1.03464,5e-5 0.34489,10e-6 0.68977,3e-5 1.03465,4e-5 0.34488,2e-5 0.68976,3e-5 1.03464,5e-5 0.34488,10e-6 0.68977,2e-5 1.03465,4e-5 0.34488,10e-6 0.68976,2e-5 1.03464,4e-5 0.34488,10e-6 0.68976,2e-5 1.03465,3e-5 0.34488,1e-5 0.68976,2e-5 1.03464,3e-5 0.34488,2e-5 0.68976,3e-5 1.03465,4e-5 0.34488,10e-6 0.68976,2e-5 1.03464,2e-5 0.34488,1e-5 0.68976,2e-5 1.03464,3e-5 0.34489,10e-6 0.68977,2e-5 1.03465,3e-5 0.34488,0 0.68976,10e-6 1.03464,2e-5 0.34489,10e-6 0.68977,10e-6 1.03465,2e-5 0.34488,10e-6 0.68976,10e-6 1.03464,2e-5 0.34488,10e-6 0.68977,10e-6 1.03465,2e-5 0.34488,1e-5 0.68976,1e-5 1.03464,2e-5 0.34488,0 0.68976,10e-6 1.03465,10e-6 0.34488,10e-6 0.68976,10e-6 1.03464,2e-5 0.34488,0 0.68976,10e-6 1.03465,10e-6 0.34488,10e-6 0.68976,10e-6 1.03464,10e-6 0.34488,10e-6 0.68976,10e-6 1.03464,2e-5 0.34489,0 0.68977,0 1.03465,1e-5 0.34488,0 0.68976,0 1.03464,10e-6 0.34489,0 0.68977,0 1.03465,10e-6 0.34488,0 0.68976,0 1.03464,10e-6 0.34488,0 0.68977,0 1.03465,0 0.34488,1e-5 0.68976,1e-5 1.03464,1e-5 0.34488,0 0.68976,10e-6 1.03465,10e-6 0.34488,0 0.68976,0 1.03464,10e-6 0.34488,0 0.68976,0 1.03465,0 0.34488,0 0.68976,10e-6 1.03464,10e-6 0.34488,0 0.68976,0 1.03464,0 0.34489,0 0.68977,10e-6 1.03465,10e-6 0.34488,0 0.68976,0 1.03464,0 0.34489,0 0.68977,0 1.03465,1e-5 0.34488,0 0.68976,0 1.03464,0 0.34488,0 0.68977,0 1.03465,0 0.34488,0 0.68975,0 1.03465,10e-6 0.3449,0 0.6898,0 1.0346,0 0.3449,0 0.6898,0 1.0347,0 0.3449,0 0.6897,0 1.0346,0 0.3449,10e-6 0.6898,10e-6 1.0347,10e-6 0.3449,0 0.6897,0 1.0346,0 0.3449,0 0.6898,0 1.0347,0 0.3448,0 0.6897,0 1.0346,0 0.3449,0 0.6898,0 1.0346,0 0.3449,10e-6 0.6898,10e-6 1.0347,10e-6 0.3449,0 0.6898,0 1.0346,0 0.3449,0 0.6898,0 1.0347,0 0.3449,0 0.6897,0 1.0346,0 0.3449,0 0.6898,0 1.0347,0 0.3449,0 0.6897,0 1.0346,0 0.3449,0 0.6898,0 1.0347,0 0.3448,0 0.6897,0 1.0346,0 0.3449,0 0.6898,1e-5 1.0346,1e-5 0.3449,0 0.6898,0 1.0347,0 0.3449,0 0.6898,0 1.0346,0 0.3449,0 0.6898,0 1.0347,0 0.3449,0 0.6897,0 1.0346,0 0.3449,0 0.6898,0 1.0347,0 0.3449,0 0.6897,0 1.0346,0 0.3449,0 0.6898,0 1.0347,0 0.3448,0 0.6897,0 1.0346,0 0.3449,0 0.6898,0 1.0346,0 0.3449,0 0.6898,0 1.0347,0 0.3449,0 0.6898,0 1.0346,0 0.3449,0 0.6898,0 1.0347,0 0.3449,0 0.6897,0 1.0346,0 0.3449,0 0.6898,0 1.0347,0 0.3449,0 0.6897,0 1.0346,0 0.3449,0 0.6898,0 1.0347,0 0.3448,0 0.6897,0 1.0346,0 0.3449,0 0.6898,0 1.0347,0 0.3448,0 0.6897,0 1.0346,0 0.3449,0 0.6898,0 1.0346,0 0.3449,0 0.6898,0 1.0347,0 0.3449,0 0.6897,0 1.0346,0 0.3449,0 0.6898,0 1.0347,0 0.3449,0 0.6897,0 1.0346,0 0.3449,0 0.6898,0 1.0347,0 0.3448,0 0.6897,0 1.0346,0 0.3449,0 0.6898,0 1.0347,0 0.3448,0 0.6897,0 1.0346,0 0.3449,0 0.6898,0 1.0346,0 0.3449,0 0.6898,0 1.0347,0 0.3449,0 0.6897,0 1.0346,0 0.3449,0 0.6898,0 1.0347,0 0.3449,0 0.6897,0 1.0346,0 0.3449,0 0.6898,0 1.0347,0 0.3448,0 0.6897,0 1.0346,0 0.3449,0 0.6898,0 1.0347,0 0.3448,0 0.6897,0 1.0346,0 0.3449,0 0.6898,0 1.0346,0 0.3449,0 0.6898,0 1.0347,0 0.3449,0 0.6897,0 1.0346,0 0.3449,0 0.6898,0 1.0347,0 0.3449,0 0.6897,0 1.0346,0 0.3449,0 0.6898,0 1.0347,0 0.3448,0 0.6897,0 1.0346,0 0.3449,0 0.6898,0 1.0347,0 0.3448,0 0.6897,0 1.0346,0 0.3449,0 0.6898,0 1.0346,0 0.3449,0 0.6898,0 1.0347,0 0.3449,0 0.6898,0 1.0346,0 0.3449,0 0.6898,0 1.0347,0 0.3449,0 0.6897,0 1.0346,0 0.3449,0 0.6898,0 1.0347,0 0.3448,0 0.6897,0 1.0346,0 0.3449,0 0.6898,0 1.0347,0 0.3448,0 0.6897,0 1.0346,0 0.3449,0 0.6898,0 1.0346,0 0.3449,0 0.6898,0 1.0347,0 0.3449,0 0.6898,0 1.0346,0 0.3449,0 0.6898,0 1.0347,0 0.3449,0 0.6897,0 1.0346,0 0.3449,0 0.6898,0 1.0347,0 0.3448,0 0.6897,0 1.0346,0 0.3449,0 0.6898,0 1.0347,0 0.3448,0 0.6897,0 1.0346,0 0.3449,0 0.6898,0 1.0346,0 0.3449,0 0.6898,0 1.0347,0 0.3449,0 0.6898,0 1.0346,0 0.3449,0 0.6898,0 1.0347,0"
       style="opacity:1;fill:none;fill-opacity:1;fill-rule:nonzero;stroke:#d40000;stroke-width:5;stroke-linecap:butt;stroke-linejoin:round;stroke-miterlimit:4;stroke-dasharray:none;stroke-dashoffset:0;stroke-opacity:1"
       inkscape:connector-curvature="0" />
    <g
       id="g4422">
      <text
         sodipodi:linespacing="125%"
         id="text4358"
         y="306.64792"
         x="1040"
         style="font-size:56px;font-style:normal;font-variant:normal;font-weight:normal;font-stretch:normal;line-height:125%;letter-spacing:0px;word-spacing:0px;fill:#000000;fill-opacity:1;stroke:none;font-family:Nimbus Sans L;-inkscape-font-specification:Sans"
         xml:space="preserve"><tspan
           y="306.64792"
           x="1040"
           id="tspan4360"
           sodipodi:role="line">$t$</tspan></text>
      <text
         sodipodi:linespacing="125%"
         id="text4358-3"
         y="527.53705"
         x="1038.3633"
         style="font-size:56px;font-style:normal;font-variant:normal;font-weight:normal;font-stretch:normal;line-height:125%;letter-spacing:0px;word-spacing:0px;fill:#000000;fill-opacity:1;stroke:none;font-family:Nimbus Sans L;-inkscape-font-specification:Sans"
         xml:space="preserve"><tspan
           y="527.53705"
           x="1038.3633"
           id="tspan4360-5"
           sodipodi:role="line">$t$</tspan></text>
      <text
         sodipodi:linespacing="125%"
         id="text4571"
         y="49.505039"
         x="515.14282"
         style="font-style:normal;font-variant:normal;font-weight:normal;font-stretch:normal;font-size:56px;line-height:125%;font-family:'Nimbus Sans L';-inkscape-font-specification:Sans;letter-spacing:0px;word-spacing:0px;fill:#000000;fill-opacity:1;stroke:none"
         xml:space="preserve"><tspan
           y="49.505039"
           x="515.14282"
           id="tspan4573"
           sodipodi:role="line">$j$</tspan></text>
      <text
         sodipodi:linespacing="125%"
         id="text4571-2"
         y="401.45789"
         x="409.86761"
         style="font-style:normal;font-variant:normal;font-weight:normal;font-stretch:normal;font-size:56px;line-height:125%;font-family:'Nimbus Sans L';-inkscape-font-specification:Sans;letter-spacing:0px;word-spacing:0px;fill:#000000;fill-opacity:1;stroke:none"
         xml:space="preserve"><tspan
           y="401.45789"
           x="409.86761"
           id="tspan4573-7"
           sodipodi:role="line">$\omega-\omega_0$</tspan></text>
    </g>
  </g>
</svg>
