<?xml version="1.0" encoding="UTF-8" standalone="no"?>
<!-- generated by Grace-5.1.25 -->

<svg
   xmlns:dc="http://purl.org/dc/elements/1.1/"
   xmlns:cc="http://creativecommons.org/ns#"
   xmlns:rdf="http://www.w3.org/1999/02/22-rdf-syntax-ns#"
   xmlns:svg="http://www.w3.org/2000/svg"
   xmlns="http://www.w3.org/2000/svg"
   xmlns:sodipodi="http://sodipodi.sourceforge.net/DTD/sodipodi-0.dtd"
   xmlns:inkscape="http://www.inkscape.org/namespaces/inkscape"
   xml:space="preserve"
   width="9.4627953in"
   height="6.5281057in"
   viewBox="0 0 681.32319 470.02551"
   id="svg2"
   version="1.1"
   inkscape:version="0.91 r13725"
   sodipodi:docname="08_opagraf.svg"><metadata
     id="metadata118"><rdf:RDF><cc:Work
         rdf:about=""><dc:format>image/svg+xml</dc:format><dc:type
           rdf:resource="http://purl.org/dc/dcmitype/StillImage" /><dc:title></dc:title></cc:Work></rdf:RDF></metadata><defs
     id="defs116" /><sodipodi:namedview
     pagecolor="#ffffff"
     bordercolor="#666666"
     borderopacity="1"
     objecttolerance="10"
     gridtolerance="10"
     guidetolerance="10"
     inkscape:pageopacity="0"
     inkscape:pageshadow="2"
     inkscape:window-width="1694"
     inkscape:window-height="873"
     id="namedview114"
     showgrid="false"
     inkscape:zoom="0.5807352"
     inkscape:cx="888.16928"
     inkscape:cy="199.04085"
     inkscape:window-x="224"
     inkscape:window-y="122"
     inkscape:window-maximized="0"
     inkscape:current-layer="svg2"
     fit-margin-top="0"
     fit-margin-left="0"
     fit-margin-right="0"
     fit-margin-bottom="0" /><g
     id="g10"
     style="fill:none;stroke:#d40000;stroke-width:3.20001282;stroke-linecap:butt;stroke-linejoin:miter;stroke-dasharray:none;stroke-miterlimit:4;stroke-opacity:1"
     transform="matrix(1,0,0,-1,-36.000144,518.02572)"><path
       inkscape:connector-curvature="0"
       id="path12"
       d="m 89.244,228.068 6.0097,0.0142 6.0097,0.0425 6.0097,0.0708 6.0097,0.0993 6.0097,0.1276 6.0097,0.1561 6.0097,0.1847 6.0097,0.2133 6.0097,0.242 6.0097,0.2708 6.0097,0.2996 6.0097,0.3288 6.0097,0.3579 6.0097,0.3871 6.0097,0.4167 6.0097,0.4463 6.0096,0.4762 6.0097,0.5061 6.0097,0.5364 6.0097,0.5668 6.0097,0.5975 6.0097,0.6284 6.0097,0.6596 6.0097,0.691 6.0097,0.7228 6.0097,0.7547 6.0097,0.7871 6.0097,0.8198 6.0097,0.8527 6.0097,0.8861 6.0097,0.9197 6.0097,0.9538 6.0097,0.9883 6.0097,1.0232 6.0097,1.0584 6.0097,1.0941 6.0097,1.1303 6.0097,1.1669 6.0097,1.204 6.0097,1.2416 6.0097,1.2797 6.0097,1.3183 6.0097,1.3575 6.0097,1.3971 6.0097,1.4375 6.0097,1.4783 6.0097,1.5197 6.0097,1.5619 6.0096,1.6046 6.0098,1.648 6.0096,1.692 6.0097,1.7367 6.0097,1.7823 6.0097,1.8284 6.0097,1.8753 6.0097,1.923 6.0097,1.9715 6.0097,2.0208 6.0097,2.0708 6.0097,2.1219 6.0097,2.1736 6.0097,2.2264 6.0097,2.28 6.0097,2.3345 6.0097,2.39 6.0097,2.4464 6.0097,2.504 6.0097,2.5624 6.0097,2.622 6.0097,2.6826 6.0097,2.7443 6.0097,2.8071 6.0097,2.8711 6.0097,2.9362 6.0097,3.0025 6.0097,3.0702 6.0097,3.1389 6.0097,3.209 6.0097,3.2805 6.0097,3.3532 6.0097,3.4273 6.0097,3.5028 6.0096,3.5798 6.0097,3.6582 6.0097,3.738 6.0097,3.8195 6.0097,3.9025 6.0097,3.987 6.0097,4.0733 6.0097,4.1611 6.0097,4.2507 6.0097,4.342 6.0097,4.435 6.0097,4.53 6.0097,4.6266 6.0097,4.7253 6.0097,4.8258 6.0097,4.9284 6.0097,5.0328"
       style="stroke-width:3.20001282;stroke-miterlimit:4;stroke-dasharray:none;stroke:#d40000;stroke-opacity:1" /></g><g
     id="g14"
     style="fill:none;stroke:#ff6400;stroke-width:3.20001282;stroke-linecap:butt;stroke-linejoin:miter;stroke-dasharray:none;stroke-opacity:1;stroke-miterlimit:4"
     transform="matrix(1,0,0,-1,-36.000144,518.02572)"><path
       inkscape:connector-curvature="0"
       id="path16"
       d="m 89.244,89.244 6.0097,0.0142 6.0097,0.0425 6.0097,0.0708 6.0097,0.0993 6.0097,0.1276 6.0097,0.1561 6.0097,0.1847 6.0097,0.2133 6.0097,0.242 6.0097,0.2708 6.0097,0.2996 6.0097,0.3288 6.0097,0.3579 6.0097,0.3872 6.0097,0.4166 6.0097,0.4463 6.0096,0.4762 6.0097,0.5061 6.0097,0.5364 6.0097,0.5668 6.0097,0.5975 6.0097,0.6284 6.0097,0.6596 6.0097,0.691 6.0097,0.7228 6.0097,0.7547 6.0097,0.7871 6.0097,0.8198 6.0097,0.8527 6.0097,0.8861 6.0097,0.9197 6.0097,0.9538 6.0097,0.9883 6.0097,1.0232 6.0097,1.0584 6.0097,1.0941 6.0097,1.1303 6.0097,1.1669 6.0097,1.204 6.0097,1.2416 6.0097,1.2797 6.0097,1.3183 6.0097,1.3575 6.0097,1.3971 6.0097,1.4375 6.0097,1.4783 6.0097,1.5197 6.0097,1.5619 6.0096,1.6046 6.0098,1.648 6.0096,1.692 6.0097,1.7367 6.0097,1.7823 6.0097,1.8284 6.0097,1.8753 6.0097,1.923 6.0097,1.9715 6.0097,2.0208 6.0097,2.0709 6.0097,2.1218 6.0097,2.1736 6.0097,2.2264 6.0097,2.28 6.0097,2.3345 6.0097,2.39 6.0097,2.4464 6.0097,2.504 6.0097,2.5624 6.0097,2.622 6.0097,2.6826 6.0097,2.7443 6.0097,2.8071 6.0097,2.8711 6.0097,2.9362 6.0097,3.0025 6.0097,3.0702 6.0097,3.1389 6.0097,3.209 6.0097,3.2805 6.0097,3.3532 6.0097,3.4273 6.0097,3.5028 6.0096,3.5798 6.0097,3.6582 6.0097,3.738 6.0097,3.8195 6.0097,3.9025 6.0097,3.987 6.0097,4.0733 6.0097,4.1611 6.0097,4.2507 6.0097,4.342 6.0097,4.435 6.0097,4.53 6.0097,4.6266 6.0097,4.7253 6.0097,4.8258 6.0097,4.9284 6.0097,5.0328"
       style="stroke:#ff6400;stroke-opacity:1;stroke-width:3.20001282;stroke-miterlimit:4;stroke-dasharray:none" /></g><g
     id="g18"
     style="fill:none;stroke:#000000;stroke-width:2.23110008;stroke-linecap:butt;stroke-linejoin:miter;stroke-dasharray:none"
     transform="matrix(1,0,0,-1,-36.000144,518.02572)"><path
       inkscape:connector-curvature="0"
       id="path20"
       d="m 89.244,89.244 594.96,0" /><path
       inkscape:connector-curvature="0"
       id="path22"
       d="m 89.244,505.716 594.96,0" /></g><g
     id="g24"
     style="fill:none;stroke:#000000;stroke-width:2.67729998;stroke-linecap:butt;stroke-linejoin:miter;stroke-dasharray:none"
     transform="matrix(1,0,0,-1,-36.000144,518.02572)"><path
       inkscape:connector-curvature="0"
       id="path26"
       d="m 208.236,89.244 0,11.8992" /><path
       inkscape:connector-curvature="0"
       id="path28"
       d="m 208.236,505.716 0,-11.8992" /><path
       inkscape:connector-curvature="0"
       id="path30"
       d="m 327.228,89.244 0,11.8992" /><path
       inkscape:connector-curvature="0"
       id="path32"
       d="m 327.228,505.716 0,-11.8992" /><path
       inkscape:connector-curvature="0"
       id="path34"
       d="m 446.22,89.244 0,11.8992" /><path
       inkscape:connector-curvature="0"
       id="path36"
       d="m 446.22,505.716 0,-11.8992" /><path
       inkscape:connector-curvature="0"
       id="path38"
       d="m 565.212,89.244 0,11.8992" /><path
       inkscape:connector-curvature="0"
       id="path40"
       d="m 565.212,505.716 0,-11.8992" /><path
       inkscape:connector-curvature="0"
       id="path42"
       d="m 89.244,89.244 0,11.8992" /><path
       inkscape:connector-curvature="0"
       id="path44"
       d="m 89.244,505.716 0,-11.8992" /><path
       inkscape:connector-curvature="0"
       id="path46"
       d="m 684.204,89.244 0,11.8992" /><path
       inkscape:connector-curvature="0"
       id="path48"
       d="m 684.204,505.716 0,-11.8992" /></g><path
     style="fill:none;stroke:#000000;stroke-width:2.23110008;stroke-linecap:butt;stroke-linejoin:miter;stroke-dasharray:none"
     d="m 53.243856,428.78172 0,-416.472"
     id="path52"
     inkscape:connector-curvature="0" /><path
     style="fill:none;stroke:#000000;stroke-width:2.23110008;stroke-linecap:butt;stroke-linejoin:miter;stroke-dasharray:none"
     d="m 648.20386,428.78172 0,-416.472"
     id="path54"
     inkscape:connector-curvature="0" /><path
     style="fill:none;stroke:#000000;stroke-width:2.67729998;stroke-linecap:butt;stroke-linejoin:miter;stroke-dasharray:none"
     d="m 53.243856,428.78172 11.8992,0"
     id="path82"
     inkscape:connector-curvature="0" /><path
     style="fill:none;stroke:#000000;stroke-width:2.67729998;stroke-linecap:butt;stroke-linejoin:miter;stroke-dasharray:none"
     d="m 648.20386,428.78172 -11.8992,0"
     id="path84"
     inkscape:connector-curvature="0" /><path
     style="fill:none;stroke:#000000;stroke-width:2.67729998;stroke-linecap:butt;stroke-linejoin:miter;stroke-dasharray:none"
     d="m 53.243856,359.36972 11.8992,0"
     id="path86"
     inkscape:connector-curvature="0" /><path
     style="fill:none;stroke:#000000;stroke-width:2.67729998;stroke-linecap:butt;stroke-linejoin:miter;stroke-dasharray:none"
     d="m 648.20386,359.36972 -11.8992,0"
     id="path88"
     inkscape:connector-curvature="0" /><path
     style="fill:none;stroke:#000000;stroke-width:2.67729998;stroke-linecap:butt;stroke-linejoin:miter;stroke-dasharray:none"
     d="m 53.243856,289.95772 11.8992,0"
     id="path90"
     inkscape:connector-curvature="0" /><path
     style="fill:none;stroke:#000000;stroke-width:2.67729998;stroke-linecap:butt;stroke-linejoin:miter;stroke-dasharray:none"
     d="m 648.20386,289.95772 -11.8992,0"
     id="path92"
     inkscape:connector-curvature="0" /><path
     style="fill:none;stroke:#000000;stroke-width:2.67729998;stroke-linecap:butt;stroke-linejoin:miter;stroke-dasharray:none"
     d="m 53.243856,220.54572 11.8992,0"
     id="path94"
     inkscape:connector-curvature="0" /><path
     style="fill:none;stroke:#000000;stroke-width:2.67729998;stroke-linecap:butt;stroke-linejoin:miter;stroke-dasharray:none"
     d="m 648.20386,220.54572 -11.8992,0"
     id="path96"
     inkscape:connector-curvature="0" /><path
     style="fill:none;stroke:#000000;stroke-width:2.67729998;stroke-linecap:butt;stroke-linejoin:miter;stroke-dasharray:none"
     d="m 53.243856,151.13372 11.8992,0"
     id="path98"
     inkscape:connector-curvature="0" /><path
     style="fill:none;stroke:#000000;stroke-width:2.67729998;stroke-linecap:butt;stroke-linejoin:miter;stroke-dasharray:none"
     d="m 648.20386,151.13372 -11.8992,0"
     id="path100"
     inkscape:connector-curvature="0" /><path
     style="fill:none;stroke:#000000;stroke-width:2.67729998;stroke-linecap:butt;stroke-linejoin:miter;stroke-dasharray:none"
     d="m 53.243856,81.72172 11.8992,0"
     id="path102"
     inkscape:connector-curvature="0" /><path
     style="fill:none;stroke:#000000;stroke-width:2.67729998;stroke-linecap:butt;stroke-linejoin:miter;stroke-dasharray:none"
     d="m 648.20386,81.72172 -11.8992,0"
     id="path104"
     inkscape:connector-curvature="0" /><path
     style="fill:none;stroke:#000000;stroke-width:2.67729998;stroke-linecap:butt;stroke-linejoin:miter;stroke-dasharray:none"
     d="m 53.243856,12.30972 11.8992,0"
     id="path106"
     inkscape:connector-curvature="0" /><path
     style="fill:none;stroke:#000000;stroke-width:2.67729998;stroke-linecap:butt;stroke-linejoin:miter;stroke-dasharray:none"
     d="m 648.20386,12.30972 -11.8992,0"
     id="path108"
     inkscape:connector-curvature="0" /><path
     style="fill:none;stroke:#000000;stroke-width:0.89240003;stroke-linecap:butt;stroke-linejoin:miter;stroke-dasharray:none"
     d="m 53.243856,428.78172 0,-416.472 594.960004,0 0,416.472 z"
     id="path112"
     inkscape:connector-curvature="0" /><text
     xml:space="preserve"
     style="font-style:normal;font-variant:normal;font-weight:normal;font-stretch:normal;font-size:44.80017853px;line-height:125%;font-family:'Nimbus Sans L';-inkscape-font-specification:Sans;letter-spacing:0px;word-spacing:0px;fill:#000000;fill-opacity:1;stroke:none;stroke-width:1px;stroke-linecap:butt;stroke-linejoin:miter;stroke-opacity:1"
     x="46.755028"
     y="458.24545"
     id="text3579"
     sodipodi:linespacing="125%"><tspan
       sodipodi:role="line"
       id="tspan3581"
       x="46.755028"
       y="458.24545"
       style="font-size:30.00012016px">$0$</tspan></text>
<text
     xml:space="preserve"
     style="font-style:normal;font-variant:normal;font-weight:normal;font-stretch:normal;font-size:44.80017853px;line-height:125%;font-family:'Nimbus Sans L';-inkscape-font-specification:Sans;letter-spacing:0px;word-spacing:0px;fill:#000000;fill-opacity:1;stroke:none;stroke-width:1px;stroke-linecap:butt;stroke-linejoin:miter;stroke-opacity:1"
     x="155.5349"
     y="457.61545"
     id="text3579-3"
     sodipodi:linespacing="125%"><tspan
       sodipodi:role="line"
       id="tspan3581-6"
       x="155.5349"
       y="457.61545"
       style="font-size:30.00012016px">$0,2$</tspan></text>
<text
     xml:space="preserve"
     style="font-style:normal;font-variant:normal;font-weight:normal;font-stretch:normal;font-size:44.80017853px;line-height:125%;font-family:'Nimbus Sans L';-inkscape-font-specification:Sans;letter-spacing:0px;word-spacing:0px;fill:#000000;fill-opacity:1;stroke:none;stroke-width:1px;stroke-linecap:butt;stroke-linejoin:miter;stroke-opacity:1"
     x="275.34518"
     y="457.61545"
     id="text3579-3-7"
     sodipodi:linespacing="125%"><tspan
       sodipodi:role="line"
       id="tspan3581-6-5"
       x="275.34518"
       y="457.61545"
       style="font-size:30.00012016px">$0,4$</tspan></text>
<text
     xml:space="preserve"
     style="font-style:normal;font-variant:normal;font-weight:normal;font-stretch:normal;font-size:44.80017853px;line-height:125%;font-family:'Nimbus Sans L';-inkscape-font-specification:Sans;letter-spacing:0px;word-spacing:0px;fill:#000000;fill-opacity:1;stroke:none;stroke-width:1px;stroke-linecap:butt;stroke-linejoin:miter;stroke-opacity:1"
     x="393.90051"
     y="457.61545"
     id="text3579-3-7-3"
     sodipodi:linespacing="125%"><tspan
       sodipodi:role="line"
       id="tspan3581-6-5-5"
       x="393.90051"
       y="457.61545"
       style="font-size:30.00012016px">$0,6$</tspan></text>
<text
     xml:space="preserve"
     style="font-style:normal;font-variant:normal;font-weight:normal;font-stretch:normal;font-size:44.80017853px;line-height:125%;font-family:'Nimbus Sans L';-inkscape-font-specification:Sans;letter-spacing:0px;word-spacing:0px;fill:#000000;fill-opacity:1;stroke:none;stroke-width:1px;stroke-linecap:butt;stroke-linejoin:miter;stroke-opacity:1"
     x="512.09064"
     y="457.61545"
     id="text3579-3-7-3-6"
     sodipodi:linespacing="125%"><tspan
       sodipodi:role="line"
       id="tspan3581-6-5-5-2"
       x="512.09064"
       y="457.61545"
       style="font-size:30.00012016px">$0,8$</tspan></text>
<text
     xml:space="preserve"
     style="font-style:normal;font-variant:normal;font-weight:normal;font-stretch:normal;font-size:44.80017853px;line-height:125%;font-family:'Nimbus Sans L';-inkscape-font-specification:Sans;letter-spacing:0px;word-spacing:0px;fill:#000000;fill-opacity:1;stroke:none;stroke-width:1px;stroke-linecap:butt;stroke-linejoin:miter;stroke-opacity:1"
     x="637.185"
     y="458.24545"
     id="text3579-3-7-3-6-9"
     sodipodi:linespacing="125%"><tspan
       sodipodi:role="line"
       id="tspan3581-6-5-5-2-1"
       x="637.185"
       y="458.24545"
       style="font-size:30.00012016px">$1$</tspan></text>
<text
     xml:space="preserve"
     style="font-style:normal;font-variant:normal;font-weight:normal;font-stretch:normal;font-size:44.80017853px;line-height:125%;font-family:'Nimbus Sans L';-inkscape-font-specification:Sans;letter-spacing:0px;word-spacing:0px;fill:#000000;fill-opacity:1;stroke:none;stroke-width:1px;stroke-linecap:butt;stroke-linejoin:miter;stroke-opacity:1"
     x="26.222939"
     y="436.97375"
     id="text3579-2"
     sodipodi:linespacing="125%"><tspan
       sodipodi:role="line"
       id="tspan3581-7"
       x="26.222939"
       y="436.97375"
       style="font-size:30.00012016px">$0$</tspan></text>
<text
     xml:space="preserve"
     style="font-style:normal;font-variant:normal;font-weight:normal;font-stretch:normal;font-size:44.80017853px;line-height:125%;font-family:'Nimbus Sans L';-inkscape-font-specification:Sans;letter-spacing:0px;word-spacing:0px;fill:#000000;fill-opacity:1;stroke:none;stroke-width:1px;stroke-linecap:butt;stroke-linejoin:miter;stroke-opacity:1"
     x="26.222939"
     y="299.48831"
     id="text3579-3-7-3-6-9-0"
     sodipodi:linespacing="125%"><tspan
       sodipodi:role="line"
       id="tspan3581-6-5-5-2-1-9"
       x="26.222939"
       y="299.48831"
       style="font-size:30.00012016px">$1$</tspan></text>
<text
     xml:space="preserve"
     style="font-style:normal;font-variant:normal;font-weight:normal;font-stretch:normal;font-size:44.80017853px;line-height:125%;font-family:'Nimbus Sans L';-inkscape-font-specification:Sans;letter-spacing:0px;word-spacing:0px;fill:#000000;fill-opacity:1;stroke:none;stroke-width:1px;stroke-linecap:butt;stroke-linejoin:miter;stroke-opacity:1"
     x="26.222939"
     y="160.58549"
     id="text3579-3-7-3-6-9-0-3"
     sodipodi:linespacing="125%"><tspan
       sodipodi:role="line"
       id="tspan3581-6-5-5-2-1-9-6"
       x="26.222939"
       y="160.58549"
       style="font-size:30.00012016px">$2$</tspan></text>
<text
     xml:space="preserve"
     style="font-style:normal;font-variant:normal;font-weight:normal;font-stretch:normal;font-size:44.80017853px;line-height:125%;font-family:'Nimbus Sans L';-inkscape-font-specification:Sans;letter-spacing:0px;word-spacing:0px;fill:#000000;fill-opacity:1;stroke:none;stroke-width:1px;stroke-linecap:butt;stroke-linejoin:miter;stroke-opacity:1"
     x="26.222939"
     y="23.100092"
     id="text3579-3-7-3-6-9-0-3-0"
     sodipodi:linespacing="125%"
     inkscape:transform-center-x="-26.930134"
     inkscape:transform-center-y="131.81592"><tspan
       sodipodi:role="line"
       id="tspan3581-6-5-5-2-1-9-6-6"
       x="26.222939"
       y="23.100092"
       style="font-size:30.00012016px">$3$</tspan></text>
<text
     xml:space="preserve"
     style="font-style:normal;font-variant:normal;font-weight:normal;font-stretch:normal;font-size:44.80017853px;line-height:125%;font-family:'Nimbus Sans L';-inkscape-font-specification:Sans;letter-spacing:0px;word-spacing:0px;fill:#000000;fill-opacity:1;stroke:none;stroke-width:1px;stroke-linecap:butt;stroke-linejoin:miter;stroke-opacity:1"
     x="221.96169"
     y="258.28076"
     id="text3745"
     sodipodi:linespacing="125%"><tspan
       sodipodi:role="line"
       id="tspan3747"
       x="221.96169"
       y="258.28076">$|A_1|^2$</tspan></text>
<text
     xml:space="preserve"
     style="font-style:normal;font-variant:normal;font-weight:normal;font-stretch:normal;font-size:44.80017853px;line-height:125%;font-family:'Nimbus Sans L';-inkscape-font-specification:Sans;letter-spacing:0px;word-spacing:0px;fill:#000000;fill-opacity:1;stroke:none;stroke-width:1px;stroke-linecap:butt;stroke-linejoin:miter;stroke-opacity:1"
     x="298.40839"
     y="378.86578"
     id="text3745-2"
     sodipodi:linespacing="125%"><tspan
       sodipodi:role="line"
       id="tspan3747-6"
       x="298.40839"
       y="378.86578">$|A_2|^2$</tspan></text>
<text
     xml:space="preserve"
     style="font-style:normal;font-variant:normal;font-weight:normal;font-stretch:normal;font-size:44.80017853px;line-height:125%;font-family:'Nimbus Sans L';-inkscape-font-specification:Sans;letter-spacing:0px;word-spacing:0px;fill:#000000;fill-opacity:1;stroke:none;stroke-width:1px;stroke-linecap:butt;stroke-linejoin:miter;stroke-opacity:1"
     x="664.43433"
     y="459.556"
     id="text3786"
     sodipodi:linespacing="125%"><tspan
       sodipodi:role="line"
       id="tspan3788"
       x="664.43433"
       y="459.556">$\kappa L$</tspan></text>
</svg>