<?xml version="1.0" encoding="UTF-8" standalone="no"?>
<!-- generated by Grace-5.1.25 -->

<svg
   xmlns:dc="http://purl.org/dc/elements/1.1/"
   xmlns:cc="http://creativecommons.org/ns#"
   xmlns:rdf="http://www.w3.org/1999/02/22-rdf-syntax-ns#"
   xmlns:svg="http://www.w3.org/2000/svg"
   xmlns="http://www.w3.org/2000/svg"
   xmlns:sodipodi="http://sodipodi.sourceforge.net/DTD/sodipodi-0.dtd"
   xmlns:inkscape="http://www.inkscape.org/namespaces/inkscape"
   xml:space="preserve"
   width="9.4852781in"
   height="6.6442833in"
   viewBox="0 0 682.94196 478.39033"
   id="svg2"
   version="1.1"
   inkscape:version="0.91 r13725"
   sodipodi:docname="08_shg_depletion.svg"><metadata
     id="metadata112"><rdf:RDF><cc:Work
         rdf:about=""><dc:format>image/svg+xml</dc:format><dc:type
           rdf:resource="http://purl.org/dc/dcmitype/StillImage" /><dc:title /></cc:Work></rdf:RDF></metadata><defs
     id="defs110" /><sodipodi:namedview
     pagecolor="#ffffff"
     bordercolor="#666666"
     borderopacity="1"
     objecttolerance="10"
     gridtolerance="10"
     guidetolerance="10"
     inkscape:pageopacity="0"
     inkscape:pageshadow="2"
     inkscape:window-width="1251"
     inkscape:window-height="944"
     id="namedview108"
     showgrid="false"
     inkscape:snap-global="false"
     fit-margin-top="0"
     fit-margin-left="0"
     fit-margin-right="0"
     fit-margin-bottom="0"
     inkscape:zoom="0.63608041"
     inkscape:cx="486.41373"
     inkscape:cy="332.55495"
     inkscape:window-x="667"
     inkscape:window-y="72"
     inkscape:window-maximized="0"
     inkscape:current-layer="svg2" /><path
     style="fill:none;stroke:#000000;stroke-width:2.67729998;stroke-linecap:butt;stroke-linejoin:miter;stroke-dasharray:none"
     d="m 67.854217,422.51007 10.0162,-1.0605 10.0161,-3.16 10.0162,-5.1959 10.016103,-7.1287 10.0162,-8.9233 10.0162,-10.5502 10.0161,-11.9861 10.0162,-13.2151 10.0162,-14.228 10.0161,-15.0226 10.0162,-15.6026 10.0161,-15.9774 10.0162,-16.1602 10.0162,-16.1681 10.0161,-16.02 10.0162,-15.7362 10.0161,-15.3375 10.0162,-14.8441 10.0162,-14.2756 10.0161,-13.6502 10.0162,-12.9842 10.0162,-12.2923 10.0161,-11.5875 10.0162,-10.8805 10.0161,-10.1804 10.0162,-9.4948 10.0162,-8.8295 10.0161,-8.189 10.0162,-7.5767 10.0161,-6.9948 10.0162,-6.4448 10.0162,-5.9273 10.0161,-5.4426 10.0162,-4.99 10.0162,-4.5689 10.0161,-4.1783 10.0162,-3.8168 10.0161,-3.4832 10.0162,-3.1757 10.0162,-2.8932 10.0161,-2.6337 10.0162,-2.3959 10.0162,-2.1783 10.0161,-1.9793 10.0162,-1.7976 10.0161,-1.6318 10.0162,-1.4808 10.0162,-1.3432 10.0161,-1.218 10.0162,-1.1042 10.0161,-1.0006 10.0162,-0.9066 10.0162,-0.8213 10.0161,-0.7437 10.0162,-0.6735 10.0161,-0.6097 10.0162,-0.5519 10.0162,-0.4996 10.0161,-0.452 4.066,-0.1661"
     id="path12"
     inkscape:connector-curvature="0" /><path
     style="fill:none;stroke:#d40000;stroke-width:2.67729998;stroke-linecap:butt;stroke-linejoin:miter;stroke-dasharray:none;stroke-opacity:1"
     d="m 67.854217,422.51007 0.5956,-0.004 0.5955,-0.0112 0.5956,-0.0188 0.5955,-0.0263 0.5956,-0.0338 0.5955,-0.0413 0.5956,-0.0488 0.5955,-0.0564 0.5956,-0.0638 0.5956,-0.0714 0.5955,-0.0788 0.5956,-0.0864 0.5955,-0.0939 0.5956,-0.1014 0.5955,-0.1089 0.5956,-0.1165 0.5955,-0.1239 0.5956,-0.1315 0.5956,-0.1389 0.5955,-0.1465 0.5956,-0.154 0.5955,-0.1615 0.5956,-0.169 0.5955,-0.1765 0.5956,-0.184 0.5955,-0.1916 0.5956,-0.199 0.5956,-0.2066 0.5955,-0.2141 0.5956,-0.2216 0.5955,-0.2291 0.5956,-0.2366 0.5955,-0.2441 0.5956,-0.2517 0.5955,-0.2591 0.5956,-0.2667 0.5956,-0.2741 0.5955,-0.2817 0.5956,-0.2892 0.5955,-0.2967 0.5956,-0.3042 0.5955,-0.3118 0.5956,-0.3192 0.5955,-0.3267 0.5956,-0.3343 0.5956,-0.3418 0.5955,-0.3493 0.5956,-0.3568 0.5955,-0.3643 0.5956,-0.3718 0.5955,-0.3793 0.5956,-0.3869 0.5955,-0.3943 0.595603,-0.4019 0.5956,-0.4094 0.5955,-0.4169 0.5956,-0.4244 0.5955,-0.4319 0.5956,-0.4394 0.5955,-0.4469 0.5956,-0.4545 0.5955,-0.4619 0.5956,-0.4695 0.5956,-0.477 0.5955,-0.4845 0.5956,-0.492 0.5955,-0.4995 0.5956,-0.507 0.5955,-0.5146 0.5956,-0.522 0.5955,-0.5296 0.5956,-0.537 0.5956,-0.5446 0.5955,-0.5521 0.5956,-0.5596 0.5955,-0.5671 0.5956,-0.5747 0.5955,-0.5821 0.5956,-0.5897 0.5955,-0.5971 0.5956,-0.6047 0.5956,-0.6122 0.5955,-0.6197 0.5956,-0.6272 0.5955,-0.6347 0.5956,-0.6423 0.5955,-0.6497 0.5956,-0.6573 0.5955,-0.6647 0.5956,-0.6723 0.5956,-0.6798 0.5955,-0.6873 0.5956,-0.6948 0.5955,-0.7024 0.5956,-0.7098 0.5955,-0.7173 0.5956,-0.7249 0.5955,-0.7324 0.5956,-0.7399 0.5956,-0.7474 0.5955,-0.7549 0.5956,-0.7624 0.5955,-0.7699 0.5956,-0.7775 0.5955,-0.7849 0.5956,-0.7925 0.5955,-0.7999 0.5956,-0.8075 0.5956,-0.815 0.5955,-0.8225 0.5956,-0.8301 0.5955,-0.8375 0.5956,-0.845 0.5955,-0.8526 0.5956,-0.8601 0.5955,-0.8675 0.5956,-0.8751 0.5956,-0.8826 0.5955,-0.8902 0.5956,-0.8976 0.5955,-0.9051 0.5956,-0.9127 0.5955,-0.9201 0.5956,-0.9277 0.5955,-0.9352 0.5956,-0.9427 0.5956,-0.9502 0.5955,-0.9577 0.5956,-0.9652 0.5955,-0.9728 0.5956,-0.9802 0.5955,-0.9878 0.5956,-0.9953 0.5955,-1.0028 0.5956,-1.0102 0.5956,-1.0179 0.5955,-1.0253 0.5956,-1.0328 0.5955,-1.0404 0.5956,-1.0478 0.5955,-1.0554 0.5956,-1.0629 0.5955,-1.0703 0.5956,-1.078 0.5956,-1.0854 0.5955,-1.0929 0.5956,-1.1004 0.5955,-1.108 0.5956,-1.1154 0.5955,-1.123 0.5956,-1.1305 0.5955,-1.138 0.5956,-1.1455 0.5956,-1.153 0.5955,-1.1605 0.5956,-1.1681 0.5955,-1.1755 0.5956,-1.1831 0.5955,-1.1906 0.5956,-1.198 0.5955,-1.2056 0.5956,-1.2132 0.5956,-1.2206 0.5955,-1.2281 0.5956,-1.2357 0.5955,-1.2431 0.5956,-1.2507 0.5955,-1.2582 0.5956,-1.2656 0.5955,-1.2732 0.5956,-1.2808 0.5956,-1.2882 0.5955,-1.2957 0.5956,-1.3033 0.5955,-1.3107 0.5956,-1.3183 0.5955,-1.3258 0.5956,-1.3333 0.5955,-1.3408 0.5956,-1.3483 0.5956,-1.3558 0.5955,-1.3634 0.5956,-1.3708 0.5955,-1.3784 0.5956,-1.3858 0.5955,-1.3934 0.5956,-1.4009 0.5955,-1.4084 0.5956,-1.416 0.5956,-1.4234 0.5955,-1.4309 0.5956,-1.4385 0.5955,-1.4459 0.5956,-1.4535 0.5955,-1.461 0.5956,-1.4685 0.5955,-1.476 0.5956,-1.4835 0.5956,-1.4911 0.5955,-1.4985 0.5956,-1.5061 0.5955,-1.5136 0.5956,-1.521 0.5955,-1.5286 0.5956,-1.5361 0.5955,-1.5437 0.5956,-1.5511 0.5956,-1.5586 0.5955,-1.5662 0.5956,-1.5736 0.5955,-1.5812 0.5956,-1.5887 0.5955,-1.5962 0.5956,-1.6037 0.5955,-1.6112 0.5956,-1.6187 0.5956,-1.6263 0.5955,-1.6337 0.5956,-1.6413 0.5955,-1.6488 0.5956,-1.6563 0.5955,-1.6638 0.5956,-1.6713 0.5955,-1.6788 0.5956,-1.6863 0.5956,-1.6939 0.5955,-1.7013 0.5956,-1.7089 0.5955,-1.7164 0.5956,-1.7239 0.5955,-1.7314 0.5956,-1.7389 0.5955,-1.7464 0.5956,-1.754 0.5956,-1.7614 0.5955,-1.769 0.5956,-1.7764 0.5955,-1.784 0.5956,-1.7915 0.5955,-1.799 0.5956,-1.8066 0.5955,-1.814 0.5956,-1.8215 0.5956,-1.8291 0.5955,-1.8365 0.5956,-1.8441 0.5955,-1.8516 0.5956,-1.8591 0.5955,-1.8666 0.5956,-1.8741 0.5955,-1.8817 0.5956,-1.8891 0.5956,-1.8967 0.5955,-1.9041 0.5956,-1.9117 0.5955,-1.9192 0.5956,-1.9267 0.5955,-1.9342 0.5956,-1.9418 0.5955,-1.9492 0.5956,-1.9567 0.5956,-1.9643 0.5955,-1.9718 0.5956,-1.9793 0.5955,-1.9867 0.5956,-1.9944 0.5955,-2.0018 0.5956,-2.0093 0.5955,-2.0168 0.5956,-2.0244 0.5956,-2.0319 0.5955,-2.0393 0.5956,-2.0469 0.5955,-2.0544 0.5956,-2.0619 0.5955,-2.0695 0.5956,-2.0769 0.5955,-2.0844 0.5956,-2.092 0.5956,-2.0995 0.5955,-2.1069 0.5956,-2.1145 0.5955,-2.122 0.5956,-2.1295 0.5955,-2.1371 0.5956,-2.1445 0.5955,-2.152 0.5956,-2.1596 0.5956,-2.1671 0.5955,-2.1746 0.5956,-2.1821 0.5955,-2.1896 0.5956,-2.1971 0.5955,-2.2046 0.5956,-2.2121 0.5955,-2.2197 0.5956,-2.2272 0.5956,-2.2346 0.5955,-2.2422 0.5956,-2.2497 0.5955,-2.2572 0.5956,-2.2647 0.5955,-2.2723 0.5956,-2.2797 0.5955,-2.2873 0.5956,-2.2947 0.5956,-2.3023 0.5955,-2.3098 0.5956,-2.3173 0.5955,-2.3248 0.5956,-2.3324 0.5955,-2.3398 0.5956,-2.3473 0.5955,-2.3549 0.5956,-2.3624 0.5956,-2.3698 0.5955,-2.3774 0.5956,-2.3849 0.5955,-2.3925 0.5956,-2.3999 0.5955,-2.4074 0.5956,-2.415 0.5955,-2.4224 0.5956,-2.43 0.5956,-2.4375 0.5955,-2.445 0.5956,-2.4525 0.5955,-2.46 0.5956,-2.4676 0.5955,-2.475 0.5956,-2.4826 0.5955,-2.49 0.5956,-2.4976 0.0141,-0.0595"
     id="path16"
     inkscape:connector-curvature="0" /><path
     style="fill:none;stroke:#000000;stroke-width:2.23110008;stroke-linecap:butt;stroke-linejoin:miter;stroke-dasharray:none"
     d="m 67.854217,422.51007 594.960003,0"
     id="path20"
     inkscape:connector-curvature="0" /><path
     style="fill:none;stroke:#000000;stroke-width:2.23110008;stroke-linecap:butt;stroke-linejoin:miter;stroke-dasharray:none"
     d="m 67.854217,6.03807 594.960003,0"
     id="path22"
     inkscape:connector-curvature="0" /><path
     style="fill:none;stroke:#000000;stroke-width:2.23110008;stroke-linecap:butt;stroke-linejoin:miter;stroke-dasharray:none"
     d="m 167.01422,422.51007 0,-5.9496"
     id="path24"
     inkscape:connector-curvature="0" /><path
     style="fill:none;stroke:#000000;stroke-width:2.23110008;stroke-linecap:butt;stroke-linejoin:miter;stroke-dasharray:none"
     d="m 167.01422,6.03807 0,5.9496"
     id="path26"
     inkscape:connector-curvature="0" /><path
     style="fill:none;stroke:#000000;stroke-width:2.23110008;stroke-linecap:butt;stroke-linejoin:miter;stroke-dasharray:none"
     d="m 365.33422,422.51007 0,-5.9496"
     id="path28"
     inkscape:connector-curvature="0" /><path
     style="fill:none;stroke:#000000;stroke-width:2.23110008;stroke-linecap:butt;stroke-linejoin:miter;stroke-dasharray:none"
     d="m 365.33422,6.03807 0,5.9496"
     id="path30"
     inkscape:connector-curvature="0" /><path
     style="fill:none;stroke:#000000;stroke-width:2.23110008;stroke-linecap:butt;stroke-linejoin:miter;stroke-dasharray:none"
     d="m 563.65422,422.51007 0,-5.9496"
     id="path32"
     inkscape:connector-curvature="0" /><path
     style="fill:none;stroke:#000000;stroke-width:2.23110008;stroke-linecap:butt;stroke-linejoin:miter;stroke-dasharray:none"
     d="m 563.65422,6.03807 0,5.9496"
     id="path34"
     inkscape:connector-curvature="0" /><path
     style="fill:none;stroke:#000000;stroke-width:2.23110008;stroke-linecap:butt;stroke-linejoin:miter;stroke-dasharray:none"
     d="m 67.854217,422.51007 0,-11.8992"
     id="path36"
     inkscape:connector-curvature="0" /><path
     style="fill:none;stroke:#000000;stroke-width:2.23110008;stroke-linecap:butt;stroke-linejoin:miter;stroke-dasharray:none"
     d="m 67.854217,6.03807 0,11.8992"
     id="path38"
     inkscape:connector-curvature="0" /><path
     style="fill:none;stroke:#000000;stroke-width:2.23110008;stroke-linecap:butt;stroke-linejoin:miter;stroke-dasharray:none"
     d="m 266.17422,422.51007 0,-11.8992"
     id="path40"
     inkscape:connector-curvature="0" /><path
     style="fill:none;stroke:#000000;stroke-width:2.23110008;stroke-linecap:butt;stroke-linejoin:miter;stroke-dasharray:none"
     d="m 266.17422,6.03807 0,11.8992"
     id="path42"
     inkscape:connector-curvature="0" /><path
     style="fill:none;stroke:#000000;stroke-width:2.23110008;stroke-linecap:butt;stroke-linejoin:miter;stroke-dasharray:none"
     d="m 464.49422,422.51007 0,-11.8992"
     id="path44"
     inkscape:connector-curvature="0" /><path
     style="fill:none;stroke:#000000;stroke-width:2.23110008;stroke-linecap:butt;stroke-linejoin:miter;stroke-dasharray:none"
     d="m 464.49422,6.03807 0,11.8992"
     id="path46"
     inkscape:connector-curvature="0" /><path
     style="fill:none;stroke:#000000;stroke-width:2.23110008;stroke-linecap:butt;stroke-linejoin:miter;stroke-dasharray:none"
     d="m 662.81422,422.51007 0,-11.8992"
     id="path48"
     inkscape:connector-curvature="0" /><path
     style="fill:none;stroke:#000000;stroke-width:2.23110008;stroke-linecap:butt;stroke-linejoin:miter;stroke-dasharray:none"
     d="m 662.81422,6.03807 0,11.8992"
     id="path50"
     inkscape:connector-curvature="0" /><path
     style="fill:none;stroke:#000000;stroke-width:2.23110008;stroke-linecap:butt;stroke-linejoin:miter;stroke-dasharray:none"
     d="m 67.854217,422.51007 0,-416.472"
     id="path52"
     inkscape:connector-curvature="0" /><path
     style="fill:none;stroke:#000000;stroke-width:2.23110008;stroke-linecap:butt;stroke-linejoin:miter;stroke-dasharray:none"
     d="m 662.81422,422.51007 0,-416.472"
     id="path54"
     inkscape:connector-curvature="0" /><path
     style="fill:none;stroke:#000000;stroke-width:1.78489995;stroke-linecap:butt;stroke-linejoin:miter;stroke-dasharray:none"
     d="m 67.854217,380.86287 5.9496,0"
     id="path58"
     inkscape:connector-curvature="0" /><path
     style="fill:none;stroke:#000000;stroke-width:1.78489995;stroke-linecap:butt;stroke-linejoin:miter;stroke-dasharray:none"
     d="m 662.81422,380.86287 -5.9496,0"
     id="path60"
     inkscape:connector-curvature="0" /><path
     style="fill:none;stroke:#000000;stroke-width:1.78489995;stroke-linecap:butt;stroke-linejoin:miter;stroke-dasharray:none"
     d="m 67.854217,297.56847 5.9496,0"
     id="path62"
     inkscape:connector-curvature="0" /><path
     style="fill:none;stroke:#000000;stroke-width:1.78489995;stroke-linecap:butt;stroke-linejoin:miter;stroke-dasharray:none"
     d="m 662.81422,297.56847 -5.9496,0"
     id="path64"
     inkscape:connector-curvature="0" /><path
     style="fill:none;stroke:#000000;stroke-width:1.78489995;stroke-linecap:butt;stroke-linejoin:miter;stroke-dasharray:none"
     d="m 67.854217,214.27407 5.9496,0"
     id="path66"
     inkscape:connector-curvature="0" /><path
     style="fill:none;stroke:#000000;stroke-width:1.78489995;stroke-linecap:butt;stroke-linejoin:miter;stroke-dasharray:none"
     d="m 662.81422,214.27407 -5.9496,0"
     id="path68"
     inkscape:connector-curvature="0" /><path
     style="fill:none;stroke:#000000;stroke-width:1.78489995;stroke-linecap:butt;stroke-linejoin:miter;stroke-dasharray:none"
     d="m 67.854217,130.97967 5.9496,0"
     id="path70"
     inkscape:connector-curvature="0" /><path
     style="fill:none;stroke:#000000;stroke-width:1.78489995;stroke-linecap:butt;stroke-linejoin:miter;stroke-dasharray:none"
     d="m 662.81422,130.97967 -5.9496,0"
     id="path72"
     inkscape:connector-curvature="0" /><path
     style="fill:none;stroke:#000000;stroke-width:1.78489995;stroke-linecap:butt;stroke-linejoin:miter;stroke-dasharray:none"
     d="m 67.854217,47.68527 5.9496,0"
     id="path74"
     inkscape:connector-curvature="0" /><path
     style="fill:none;stroke:#000000;stroke-width:1.78489995;stroke-linecap:butt;stroke-linejoin:miter;stroke-dasharray:none"
     d="m 662.81422,47.68527 -5.9496,0"
     id="path76"
     inkscape:connector-curvature="0" /><path
     style="fill:none;stroke:#000000;stroke-width:2.23110008;stroke-linecap:butt;stroke-linejoin:miter;stroke-dasharray:none"
     d="m 67.854217,422.51007 11.8992,0"
     id="path80"
     inkscape:connector-curvature="0" /><path
     style="fill:none;stroke:#000000;stroke-width:2.23110008;stroke-linecap:butt;stroke-linejoin:miter;stroke-dasharray:none"
     d="m 662.81422,422.51007 -11.8992,0"
     id="path82"
     inkscape:connector-curvature="0" /><path
     style="fill:none;stroke:#000000;stroke-width:2.23110008;stroke-linecap:butt;stroke-linejoin:miter;stroke-dasharray:none"
     d="m 67.854217,339.21567 11.8992,0"
     id="path84"
     inkscape:connector-curvature="0" /><path
     style="fill:none;stroke:#000000;stroke-width:2.23110008;stroke-linecap:butt;stroke-linejoin:miter;stroke-dasharray:none"
     d="m 662.81422,339.21567 -11.8992,0"
     id="path86"
     inkscape:connector-curvature="0" /><path
     style="fill:none;stroke:#000000;stroke-width:2.23110008;stroke-linecap:butt;stroke-linejoin:miter;stroke-dasharray:none"
     d="m 67.854217,255.92127 11.8992,0"
     id="path88"
     inkscape:connector-curvature="0" /><path
     style="fill:none;stroke:#000000;stroke-width:2.23110008;stroke-linecap:butt;stroke-linejoin:miter;stroke-dasharray:none"
     d="m 662.81422,255.92127 -11.8992,0"
     id="path90"
     inkscape:connector-curvature="0" /><path
     style="fill:none;stroke:#000000;stroke-width:2.23110008;stroke-linecap:butt;stroke-linejoin:miter;stroke-dasharray:none"
     d="m 67.854217,172.62687 11.8992,0"
     id="path92"
     inkscape:connector-curvature="0" /><path
     style="fill:none;stroke:#000000;stroke-width:2.23110008;stroke-linecap:butt;stroke-linejoin:miter;stroke-dasharray:none"
     d="m 662.81422,172.62687 -11.8992,0"
     id="path94"
     inkscape:connector-curvature="0" /><path
     style="fill:none;stroke:#000000;stroke-width:2.23110008;stroke-linecap:butt;stroke-linejoin:miter;stroke-dasharray:none"
     d="m 67.854217,89.33247 11.8992,0"
     id="path96"
     inkscape:connector-curvature="0" /><path
     style="fill:none;stroke:#000000;stroke-width:2.23110008;stroke-linecap:butt;stroke-linejoin:miter;stroke-dasharray:none"
     d="m 662.81422,89.33247 -11.8992,0"
     id="path98"
     inkscape:connector-curvature="0" /><path
     style="fill:none;stroke:#000000;stroke-width:2.23110008;stroke-linecap:butt;stroke-linejoin:miter;stroke-dasharray:none"
     d="m 67.854217,6.03807 11.8992,0"
     id="path100"
     inkscape:connector-curvature="0" /><path
     style="fill:none;stroke:#000000;stroke-width:2.23110008;stroke-linecap:butt;stroke-linejoin:miter;stroke-dasharray:none"
     d="m 662.81422,6.03807 -11.8992,0"
     id="path102"
     inkscape:connector-curvature="0" /><path
     style="fill:none;stroke:#000000;stroke-width:0.89240003;stroke-linecap:butt;stroke-linejoin:miter;stroke-dasharray:none"
     d="m 67.854217,422.51007 0,-416.472 594.960003,0 0,416.472 z"
     id="path106"
     inkscape:connector-curvature="0" /><text
     xml:space="preserve"
     style="font-style:normal;font-variant:normal;font-weight:normal;font-stretch:normal;font-size:16.00006485px;line-height:125%;font-family:'Nimbus Sans L';-inkscape-font-specification:Sans;letter-spacing:0px;word-spacing:0px;fill:#000000;fill-opacity:1;stroke:none;stroke-width:1px;stroke-linecap:butt;stroke-linejoin:miter;stroke-opacity:1"
     x="477.22205"
     y="443.10089"
     id="text3600"
     sodipodi:linespacing="125%"><tspan
       sodipodi:role="line"
       id="tspan3602"
       x="477.22205"
       y="443.10089" /></text>
<text
     xml:space="preserve"
     style="font-style:normal;font-variant:normal;font-weight:normal;font-stretch:normal;font-size:16.00006485px;line-height:125%;font-family:'Nimbus Sans L';-inkscape-font-specification:Sans;letter-spacing:0px;word-spacing:0px;fill:#000000;fill-opacity:1;stroke:none;stroke-width:1px;stroke-linecap:butt;stroke-linejoin:miter;stroke-opacity:1"
     x="345.70999"
     y="463.70224"
     id="text3542"
     sodipodi:linespacing="125%"><tspan
       sodipodi:role="line"
       id="tspan3544"
       x="345.70999"
       y="463.70224">$\kappa L$</tspan></text>
<text
     xml:space="preserve"
     style="font-style:normal;font-variant:normal;font-weight:normal;font-stretch:normal;font-size:16.00006485px;line-height:125%;font-family:'Nimbus Sans L';-inkscape-font-specification:Sans;letter-spacing:0px;word-spacing:0px;fill:#000000;fill-opacity:1;stroke:none;stroke-width:1px;stroke-linecap:butt;stroke-linejoin:miter;stroke-opacity:1"
     x="61.611164"
     y="450.53781"
     id="text3542-3"
     sodipodi:linespacing="125%"><tspan
       sodipodi:role="line"
       id="tspan3544-6"
       x="61.611164"
       y="450.53781">$0$</tspan></text>
<text
     xml:space="preserve"
     style="font-style:normal;font-variant:normal;font-weight:normal;font-stretch:normal;font-size:16.00006485px;line-height:125%;font-family:'Nimbus Sans L';-inkscape-font-specification:Sans;letter-spacing:0px;word-spacing:0px;fill:#000000;fill-opacity:1;stroke:none;stroke-width:1px;stroke-linecap:butt;stroke-linejoin:miter;stroke-opacity:1"
     x="257.75851"
     y="450.53781"
     id="text3542-3-7"
     sodipodi:linespacing="125%"><tspan
       sodipodi:role="line"
       id="tspan3544-6-5"
       x="257.75851"
       y="450.53781">$1$</tspan></text>
<text
     xml:space="preserve"
     style="font-style:normal;font-variant:normal;font-weight:normal;font-stretch:normal;font-size:16.00006485px;line-height:125%;font-family:'Nimbus Sans L';-inkscape-font-specification:Sans;letter-spacing:0px;word-spacing:0px;fill:#000000;fill-opacity:1;stroke:none;stroke-width:1px;stroke-linecap:butt;stroke-linejoin:miter;stroke-opacity:1"
     x="458.24594"
     y="450.53781"
     id="text3542-3-7-3"
     sodipodi:linespacing="125%"><tspan
       sodipodi:role="line"
       id="tspan3544-6-5-5"
       x="458.24594"
       y="450.53781">$2$</tspan></text>
<text
     xml:space="preserve"
     style="font-style:normal;font-variant:normal;font-weight:normal;font-stretch:normal;font-size:16.00006485px;line-height:125%;font-family:'Nimbus Sans L';-inkscape-font-specification:Sans;letter-spacing:0px;word-spacing:0px;fill:#000000;fill-opacity:1;stroke:none;stroke-width:1px;stroke-linecap:butt;stroke-linejoin:miter;stroke-opacity:1"
     x="656.84167"
     y="450.53781"
     id="text3542-3-7-3-6"
     sodipodi:linespacing="125%"><tspan
       sodipodi:role="line"
       id="tspan3544-6-5-5-2"
       x="656.84167"
       y="450.53781">$3$</tspan></text>
<text
     xml:space="preserve"
     style="font-style:normal;font-variant:normal;font-weight:normal;font-stretch:normal;font-size:16.00006485px;line-height:125%;font-family:'Nimbus Sans L';-inkscape-font-specification:Sans;letter-spacing:0px;word-spacing:0px;fill:#000000;fill-opacity:1;stroke:none;stroke-width:1px;stroke-linecap:butt;stroke-linejoin:miter;stroke-opacity:1"
     x="40.489082"
     y="426.19406"
     id="text3542-3-9"
     sodipodi:linespacing="125%"><tspan
       sodipodi:role="line"
       id="tspan3544-6-1"
       x="40.489082"
       y="426.19406">$0$</tspan></text>
<text
     xml:space="preserve"
     style="font-style:normal;font-variant:normal;font-weight:normal;font-stretch:normal;font-size:16.00006485px;line-height:125%;font-family:'Nimbus Sans L';-inkscape-font-specification:Sans;letter-spacing:0px;word-spacing:0px;fill:#000000;fill-opacity:1;stroke:none;stroke-width:1px;stroke-linecap:butt;stroke-linejoin:miter;stroke-opacity:1"
     x="40.489082"
     y="12.32005"
     id="text3542-3-7-2"
     sodipodi:linespacing="125%"><tspan
       sodipodi:role="line"
       id="tspan3544-6-5-7"
       x="40.489082"
       y="12.32005">$1$</tspan></text>
<text
     xml:space="preserve"
     style="font-style:normal;font-variant:normal;font-weight:normal;font-stretch:normal;font-size:16.00006485px;line-height:125%;font-family:'Nimbus Sans L';-inkscape-font-specification:Sans;letter-spacing:0px;word-spacing:0px;fill:#000000;fill-opacity:1;stroke:none;stroke-width:1px;stroke-linecap:butt;stroke-linejoin:miter;stroke-opacity:1"
     x="18.088991"
     y="346.11234"
     id="text3542-3-7-2-0"
     sodipodi:linespacing="125%"><tspan
       sodipodi:role="line"
       id="tspan3544-6-5-7-9"
       x="18.088991"
       y="346.11234">$0,2$</tspan></text>
<text
     xml:space="preserve"
     style="font-style:normal;font-variant:normal;font-weight:normal;font-stretch:normal;font-size:16.00006485px;line-height:125%;font-family:'Nimbus Sans L';-inkscape-font-specification:Sans;letter-spacing:0px;word-spacing:0px;fill:#000000;fill-opacity:1;stroke:none;stroke-width:1px;stroke-linecap:butt;stroke-linejoin:miter;stroke-opacity:1"
     x="18.088991"
     y="259.48444"
     id="text3542-3-7-2-0-3"
     sodipodi:linespacing="125%"><tspan
       sodipodi:role="line"
       id="tspan3544-6-5-7-9-6"
       x="18.088991"
       y="259.48444">$0,4$</tspan></text>
<text
     xml:space="preserve"
     style="font-style:normal;font-variant:normal;font-weight:normal;font-stretch:normal;font-size:16.00006485px;line-height:125%;font-family:'Nimbus Sans L';-inkscape-font-specification:Sans;letter-spacing:0px;word-spacing:0px;fill:#000000;fill-opacity:1;stroke:none;stroke-width:1px;stroke-linecap:butt;stroke-linejoin:miter;stroke-opacity:1"
     x="18.088991"
     y="178.69403"
     id="text3542-3-7-2-0-3-0"
     sodipodi:linespacing="125%"><tspan
       sodipodi:role="line"
       id="tspan3544-6-5-7-9-6-6"
       x="18.088991"
       y="178.69403">$0,6$</tspan></text>
<text
     xml:space="preserve"
     style="font-style:normal;font-variant:normal;font-weight:normal;font-stretch:normal;font-size:16.00006485px;line-height:125%;font-family:'Nimbus Sans L';-inkscape-font-specification:Sans;letter-spacing:0px;word-spacing:0px;fill:#000000;fill-opacity:1;stroke:none;stroke-width:1px;stroke-linecap:butt;stroke-linejoin:miter;stroke-opacity:1"
     x="18.088991"
     y="95.068886"
     id="text3542-3-7-2-0-3-0-2"
     sodipodi:linespacing="125%"><tspan
       sodipodi:role="line"
       id="tspan3544-6-5-7-9-6-6-6"
       x="18.088991"
       y="95.068886">$0,8$</tspan></text>
<text
     xml:space="preserve"
     style="font-style:normal;font-variant:normal;font-weight:normal;font-stretch:normal;font-size:16.00006485px;line-height:125%;font-family:'Nimbus Sans L';-inkscape-font-specification:Sans;letter-spacing:0px;word-spacing:0px;fill:#000000;fill-opacity:1;stroke:none;stroke-width:1px;stroke-linecap:butt;stroke-linejoin:miter;stroke-opacity:1"
     x="-50.409946"
     y="45.706818"
     id="text3542-1"
     sodipodi:linespacing="125%"><tspan
       sodipodi:role="line"
       id="tspan3544-8"
       x="-50.409946"
       y="45.706818">$j_{2\omega}/j_\omega$</tspan></text>
</svg>