<?xml version="1.0" encoding="UTF-8" standalone="no"?>
<!-- generated by Grace-5.1.25 -->

<svg
   xmlns:dc="http://purl.org/dc/elements/1.1/"
   xmlns:cc="http://creativecommons.org/ns#"
   xmlns:rdf="http://www.w3.org/1999/02/22-rdf-syntax-ns#"
   xmlns:svg="http://www.w3.org/2000/svg"
   xmlns="http://www.w3.org/2000/svg"
   xmlns:sodipodi="http://sodipodi.sourceforge.net/DTD/sodipodi-0.dtd"
   xmlns:inkscape="http://www.inkscape.org/namespaces/inkscape"
   xml:space="preserve"
   width="11.943218in"
   height="6.3694119in"
   viewBox="0 0 859.91171 458.59766"
   id="svg2"
   version="1.1"
   inkscape:version="0.91 r13725"
   sodipodi:docname="08_soliton.svg"><sodipodi:namedview
     pagecolor="#ffffff"
     bordercolor="#666666"
     borderopacity="1"
     objecttolerance="10"
     gridtolerance="10"
     guidetolerance="10"
     inkscape:pageopacity="0"
     inkscape:pageshadow="2"
     inkscape:window-width="1478"
     inkscape:window-height="906"
     id="namedview116"
     showgrid="false"
     fit-margin-top="0"
     fit-margin-left="0"
     fit-margin-right="0"
     fit-margin-bottom="0"
     inkscape:zoom="0.95563589"
     inkscape:cx="537.44482"
     inkscape:cy="286.62354"
     inkscape:window-x="440"
     inkscape:window-y="41"
     inkscape:window-maximized="0"
     inkscape:current-layer="svg2" /><metadata
     id="metadata120"><rdf:RDF><cc:Work
         rdf:about=""><dc:format>image/svg+xml</dc:format><dc:type
           rdf:resource="http://purl.org/dc/dcmitype/StillImage" /><dc:title></dc:title></cc:Work></rdf:RDF></metadata><defs
     id="defs118" /><g
     transform="matrix(1,0,0,-1,25.560632,521.563)"
     style="fill:none;stroke:#000000;stroke-width:2.29500008;stroke-linecap:butt;stroke-linejoin:miter;stroke-dasharray:none"
     id="g14"><path
       d="m 91.8,91.8 612,0"
       id="path16"
       inkscape:connector-curvature="0" /><path
       d="m 91.8,520.2 612,0"
       id="path18"
       inkscape:connector-curvature="0" /></g><g
     transform="matrix(1,0,0,-1,25.560632,521.563)"
     style="fill:none;stroke:#000000;stroke-width:1.83599997;stroke-linecap:butt;stroke-linejoin:miter;stroke-dasharray:none"
     id="g20"><path
       d="m 168.3,91.8 0,6.12"
       id="path22"
       inkscape:connector-curvature="0" /><path
       d="m 168.3,520.2 0,-6.12"
       id="path24"
       inkscape:connector-curvature="0" /><path
       d="m 321.3,91.8 0,6.12"
       id="path26"
       inkscape:connector-curvature="0" /><path
       d="m 321.3,520.2 0,-6.12"
       id="path28"
       inkscape:connector-curvature="0" /><path
       d="m 474.3,91.8 0,6.12"
       id="path30"
       inkscape:connector-curvature="0" /><path
       d="m 474.3,520.2 0,-6.12"
       id="path32"
       inkscape:connector-curvature="0" /><path
       d="m 627.3,91.8 0,6.12"
       id="path34"
       inkscape:connector-curvature="0" /><path
       d="m 627.3,520.2 0,-6.12"
       id="path36"
       inkscape:connector-curvature="0" /></g><g
     transform="matrix(1,0,0,-1,25.560632,521.563)"
     style="fill:none;stroke:#000000;stroke-width:2.29500008;stroke-linecap:butt;stroke-linejoin:miter;stroke-dasharray:none"
     id="g38"><path
       d="m 91.8,91.8 0,12.24"
       id="path40"
       inkscape:connector-curvature="0" /><path
       d="m 91.8,520.2 0,-12.24"
       id="path42"
       inkscape:connector-curvature="0" /><path
       d="m 244.8,91.8 0,12.24"
       id="path44"
       inkscape:connector-curvature="0" /><path
       d="m 244.8,520.2 0,-12.24"
       id="path46"
       inkscape:connector-curvature="0" /><path
       d="m 397.8,91.8 0,12.24"
       id="path48"
       inkscape:connector-curvature="0" /><path
       d="m 397.8,520.2 0,-12.24"
       id="path50"
       inkscape:connector-curvature="0" /><path
       d="m 550.8,91.8 0,12.24"
       id="path52"
       inkscape:connector-curvature="0" /><path
       d="m 550.8,520.2 0,-12.24"
       id="path54"
       inkscape:connector-curvature="0" /><path
       d="m 703.8,91.8 0,12.24"
       id="path56"
       inkscape:connector-curvature="0" /><path
       d="m 703.8,520.2 0,-12.24"
       id="path58"
       inkscape:connector-curvature="0" /><path
       d="m 91.8,91.8 0,428.4"
       id="path60"
       inkscape:connector-curvature="0" /><path
       d="m 703.8,91.8 0,428.4"
       id="path62"
       inkscape:connector-curvature="0" /></g><g
     transform="matrix(1,0,0,-1,25.560632,521.563)"
     style="fill:none;stroke:#000000;stroke-width:1.83599997;stroke-linecap:butt;stroke-linejoin:miter;stroke-dasharray:none"
     id="g64"><path
       d="m 91.8,134.64 6.12,0"
       id="path66"
       inkscape:connector-curvature="0" /><path
       d="m 703.8,134.64 -6.12,0"
       id="path68"
       inkscape:connector-curvature="0" /><path
       d="m 91.8,220.32 6.12,0"
       id="path70"
       inkscape:connector-curvature="0" /><path
       d="m 703.8,220.32 -6.12,0"
       id="path72"
       inkscape:connector-curvature="0" /><path
       d="m 91.8,306 6.12,0"
       id="path74"
       inkscape:connector-curvature="0" /><path
       d="m 703.8,306 -6.12,0"
       id="path76"
       inkscape:connector-curvature="0" /><path
       d="m 91.8,391.68 6.12,0"
       id="path78"
       inkscape:connector-curvature="0" /><path
       d="m 703.8,391.68 -6.12,0"
       id="path80"
       inkscape:connector-curvature="0" /><path
       d="m 91.8,477.36 6.12,0"
       id="path82"
       inkscape:connector-curvature="0" /><path
       d="m 703.8,477.36 -6.12,0"
       id="path84"
       inkscape:connector-curvature="0" /></g><g
     transform="matrix(1,0,0,-1,25.560632,521.563)"
     style="fill:none;stroke:#000000;stroke-width:2.29500008;stroke-linecap:butt;stroke-linejoin:miter;stroke-dasharray:none"
     id="g86"><path
       d="m 91.8,91.8 12.24,0"
       id="path88"
       inkscape:connector-curvature="0" /><path
       d="m 703.8,91.8 -12.24,0"
       id="path90"
       inkscape:connector-curvature="0" /><path
       d="m 91.8,177.48 12.24,0"
       id="path92"
       inkscape:connector-curvature="0" /><path
       d="m 703.8,177.48 -12.24,0"
       id="path94"
       inkscape:connector-curvature="0" /><path
       d="m 91.8,263.16 12.24,0"
       id="path96"
       inkscape:connector-curvature="0" /><path
       d="m 703.8,263.16 -12.24,0"
       id="path98"
       inkscape:connector-curvature="0" /><path
       d="m 91.8,348.84 12.24,0"
       id="path100"
       inkscape:connector-curvature="0" /><path
       d="m 703.8,348.84 -12.24,0"
       id="path102"
       inkscape:connector-curvature="0" /><path
       d="m 91.8,434.52 12.24,0"
       id="path104"
       inkscape:connector-curvature="0" /><path
       d="m 703.8,434.52 -12.24,0"
       id="path106"
       inkscape:connector-curvature="0" /><path
       d="m 91.8,520.2 12.24,0"
       id="path108"
       inkscape:connector-curvature="0" /><path
       d="m 703.8,520.2 -12.24,0"
       id="path110"
       inkscape:connector-curvature="0" /></g><g
     transform="matrix(1,0,0,-1,25.560632,521.563)"
     style="fill:none;stroke:#000000;stroke-width:0.91799998;stroke-linecap:butt;stroke-linejoin:miter;stroke-dasharray:none"
     id="g112"><path
       d="m 91.8,91.8 0,428.4 612,0 0,-428.4 z"
       id="path114"
       inkscape:connector-curvature="0" /></g><path
     id="path4316"
     title="1/(cosh(x)*cosh(x))"
     d=" M 114.48529 428.765447502 C 116.558274478 428.734497759 118.631258956 428.701058395 120.704243434 428.664694216 C 122.777227912 428.628330038 124.850212391 428.589029169 126.923196869 428.546298207 C 128.996181347 428.503567245 131.069165825 428.457386367 133.142150303 428.407176335 C 135.215134781 428.356966304 137.288119259 428.302703828 139.361103737 428.243709051 C 141.434088215 428.184714274 143.507072694 428.120959833 145.580057172 428.051647975 C 147.65304165 427.982336118 149.726026128 427.907434701 151.799010606 427.826007911 C 153.871995084 427.744581121 155.944979562 427.656591204 158.01796404 427.560940779 C 160.090948519 427.465290355 162.163932997 427.361935084 164.236917475 427.249588659 C 166.309901953 427.137242235 168.382886431 427.015852591 170.455870909 426.883912705 C 172.528855387 426.75197282 174.601839865 426.609421565 176.674824343 426.454494347 C 178.747808822 426.29956713 180.8207933 426.132192198 182.893777778 425.950304767 C 184.966762256 425.768417337 187.039746734 425.571933207 189.112731212 425.358438268 C 191.18571569 425.144943329 193.258700168 424.9143388 195.331684646 424.663804815 C 197.404669125 424.41327083 199.477653603 424.14269154 201.550638081 423.848776804 C 203.623622559 423.554862068 205.696607037 423.237476072 207.769591515 422.892785038 C 209.842575993 422.548094003 211.915560471 422.175938788 213.988544949 421.771859123 C 216.061529428 421.367779457 218.134513906 420.931588971 220.207498384 420.458108124 C 222.280482862 419.984627278 224.35346734 419.473637959 226.426451818 418.919138578 C 228.499436296 418.364639196 230.572420774 417.766374693 232.645405253 417.117409107 C 234.718389731 416.468443522 236.791374209 415.768478871 238.864358687 415.009524288 C 240.937343165 414.250569704 243.010327643 413.432277449 245.083312121 412.545475514 C 247.156296599 411.658673579 249.229281077 410.702956705 251.302265556 409.667844064 C 253.375250034 408.632731422 255.448234512 407.51775148 257.52121899 406.310992053 C 259.594203468 405.104232626 261.667187946 403.805146133 263.740172424 402.400281436 C 265.813156902 400.99541674 267.88614138 399.484139427 269.959125859 397.851380687 C 272.032110337 396.218621948 274.105094815 394.463648839 276.178079293 392.569744319 C 278.251063771 390.675839799 280.324048249 388.642159987 282.397032727 386.450383089 C 284.470017205 384.258606191 286.543001684 381.907764639 288.615986162 379.378083146 C 290.68897064 376.848401653 292.761955118 374.138776479 294.834939596 371.228280486 C 296.907924074 368.317784493 298.980908552 365.205166474 301.05389303 361.868851304 C 303.126877508 358.532536134 305.199861987 354.971116384 307.272846465 351.163135184 C 309.345830943 347.355153983 311.418815421 343.299043367 313.491799899 338.974558811 C 315.564784377 334.650074256 317.637768855 330.055489933 319.710753333 325.173260119 C 321.783737811 320.291030304 323.85672229 315.119284265 325.929706768 309.645106611 C 328.002691246 304.170928958 330.075675724 298.392331318 332.148660202 292.303429642 C 334.22164468 286.214527967 336.294629158 279.813262417 338.367613636 273.103623906 C 340.440598114 266.393985394 342.513582593 259.37391241 344.586567071 252.06045058 C 346.659551549 244.74698875 348.732536027 237.138172334 350.805520505 229.267400988 C 352.878504983 221.396629642 354.951489461 213.26216053 357.024473939 204.916814246 C 359.097458418 196.571467962 361.170442896 188.01387973 363.243427374 179.318629606 C 365.316411852 170.623379481 367.38939633 161.789656623 369.462380808 152.914793992 C 371.535365286 144.039931361 373.608349764 135.123854101 375.681334242 126.285629241 C 377.754318721 117.447404381 379.827303199 108.687859102 381.900287677 100.144171006 C 383.973272155 91.6004829086 386.046256633 83.274503211 388.119241111 75.3149465415 C 390.192225589 67.3553898721 392.265210067 59.7651800655 394.338194545 52.695132964 C 396.411179024 45.6250858625 398.484163502 39.0791495209 400.55714798 33.1986058265 C 402.630132458 27.3180621322 404.703116936 22.1077282128 406.776101414 17.6867828321 C 408.849085892 13.2658374514 410.92207037 9.63971484616 412.995054848 6.89371315196 C 415.068039327 4.14771145776 417.141023805 2.28756362933 419.214008283 1.35557085779 C 421.286992761 0.42357808624 423.359977239 0.425432116248 425.432961717 1.35557085779 C 427.505946195 2.28570959932 429.578930673 4.14947022132 431.651915152 6.89371315196 C 433.72489963 9.6379560826 435.797884108 13.2674159238 437.870868586 17.6867828321 C 439.943853064 22.1061497404 442.016837542 27.3193939206 444.08982202 33.1986058265 C 446.162806498 39.0778177324 448.235790976 45.6261283921 450.308775455 52.695132964 C 452.381759933 59.7641375359 454.454744411 67.3561258274 456.527728889 75.3149465415 C 458.600713367 83.2737672557 460.673697845 91.6009182364 462.746682323 100.144171006 C 464.819666801 108.687423775 466.892651279 117.447563786 468.965635758 126.285629241 C 471.038620236 135.123694696 473.111604714 144.039852507 475.184589192 152.914793992 C 477.25757367 161.789735478 479.330558148 170.623107042 481.403542626 179.318629606 C 483.476527104 188.014152169 485.549511582 196.5710484 487.622496061 204.916814246 C 489.695480539 213.262580093 491.768465017 221.39610718 493.841449495 229.267400988 C 495.914433973 237.138694795 497.987418451 244.746402707 500.060402929 252.06045058 C 502.133387407 259.374498452 504.206371886 266.393368755 506.279356364 273.103623906 C 508.352340842 279.813879056 510.42532532 286.213906949 512.498309798 292.303429642 C 514.571294276 298.392952335 516.644278754 304.170323292 518.717263232 309.645106611 C 520.79024771 315.119889931 522.863232189 320.290453934 524.936216667 325.173260119 C 527.009201145 330.056066303 529.082185623 334.649536255 531.155170101 338.974558811 C 533.228154579 343.299581368 535.301139057 347.354659519 537.374123535 351.163135184 C 539.447108013 354.971610848 541.520092492 358.532087376 543.59307697 361.868851304 C 545.666061448 365.205615232 547.739045926 368.317381416 549.812030404 371.228280486 C 551.885014882 374.139179556 553.95799936 376.8480427 556.030983838 379.378083146 C 558.103968316 381.908123592 560.176952795 384.258288808 562.249937273 386.450383089 C 564.322921751 388.64247737 566.395906229 390.675560843 568.468890707 392.569744319 C 570.541875185 394.463927794 572.614859663 396.218377994 574.687844141 397.851380687 C 576.76082862 399.484383381 578.833813098 400.995204295 580.906797576 402.400281436 C 582.979782054 403.805358578 585.052766532 405.104048276 587.12575101 406.310992053 C 589.198735488 407.517935829 591.271719966 408.632571932 593.344704444 409.667844064 C 595.417688923 410.703116195 597.490673401 411.658535946 599.563657879 412.545475514 C 601.636642357 413.432415081 603.709626835 414.250451189 605.782611313 415.009524288 C 607.855595791 415.768597386 609.928580269 416.468341654 612.001564747 417.117409107 C 614.074549226 417.766476561 616.147533704 418.364551772 618.220518182 418.919138578 C 620.29350266 419.473725383 622.366487138 419.984552348 624.439471616 420.458108124 C 626.512456094 420.931663901 628.585440572 421.367715307 630.658425051 421.771859123 C 632.731409529 422.176002939 634.804394007 422.548039133 636.877378485 422.892785038 C 638.950362963 423.237530942 641.023347441 423.554815174 643.096331919 423.848776804 C 645.169316397 424.142738434 647.242300875 424.41323078 649.315285354 424.663804815 C 651.388269832 424.91437885 653.46125431 425.144909144 655.534238788 425.358438268 C 657.607223266 425.571967392 659.680207744 425.768388171 661.753192222 425.950304767 C 663.8261767 426.132221363 665.899161178 426.299542258 667.972145657 426.454494347 C 670.045130135 426.609446437 672.118114613 426.751951617 674.191099091 426.883912705 C 676.264083569 427.015873794 678.337068047 427.137224165 680.410052525 427.249588659 C 682.483037003 427.361953154 684.556021481 427.465274959 686.62900596 427.560940779 C 688.701990438 427.6566066 690.774974916 427.744568006 692.847959394 427.826007911 C 694.920943872 427.907447815 696.99392835 427.982324949 699.066912828 428.051647975 C 701.139897306 428.120971002 703.212881785 428.184704763 705.285866263 428.243709051 C 707.358850741 428.302713339 709.431835219 428.356958206 711.504819697 428.407176335 C 713.577804175 428.457394465 715.650788653 428.503560352 717.723773131 428.546298207 C 719.796757609 428.589036063 721.869742088 428.62832417 723.942726566 428.664694216 C 726.015711044 428.701064263 728.088695522 428.734497759 730.16168 428.765447502"
     style="opacity:1;fill:none;fill-opacity:1;fill-rule:nonzero;stroke:#d40000;stroke-width:2.79999995;stroke-linecap:butt;stroke-linejoin:round;stroke-miterlimit:4;stroke-dasharray:none;stroke-dashoffset:0;stroke-opacity:1" /><g
     id="g4418"><text
       xml:space="preserve"
       style="font-style:normal;font-variant:normal;font-weight:normal;font-stretch:normal;font-size:16px;line-height:125%;font-family:'Nimbus Sans L';-inkscape-font-specification:Sans;letter-spacing:0px;word-spacing:0px;fill:#000000;fill-opacity:1;stroke:none;stroke-width:1px;stroke-linecap:butt;stroke-linejoin:miter;stroke-opacity:1"
       x="90.377769"
       y="431.65118"
       id="text3542-3-9"
       sodipodi:linespacing="125%"><tspan
         sodipodi:role="line"
         id="tspan3544-6-1"
         x="90.377769"
         y="431.65118">$0$</tspan></text>
<text
       xml:space="preserve"
       style="font-style:normal;font-variant:normal;font-weight:normal;font-stretch:normal;font-size:16px;line-height:125%;font-family:'Nimbus Sans L';-inkscape-font-specification:Sans;letter-spacing:0px;word-spacing:0px;fill:#000000;fill-opacity:1;stroke:none;stroke-width:1px;stroke-linecap:butt;stroke-linejoin:miter;stroke-opacity:1"
       x="90.377769"
       y="17.778843"
       id="text3542-3-7-2"
       sodipodi:linespacing="125%"><tspan
         sodipodi:role="line"
         id="tspan3544-6-5-7"
         x="90.377769"
         y="17.778843">$1$</tspan></text>
<text
       xml:space="preserve"
       style="font-style:normal;font-variant:normal;font-weight:normal;font-stretch:normal;font-size:16px;line-height:125%;font-family:'Nimbus Sans L';-inkscape-font-specification:Sans;letter-spacing:0px;word-spacing:0px;fill:#000000;fill-opacity:1;stroke:none;stroke-width:1px;stroke-linecap:butt;stroke-linejoin:miter;stroke-opacity:1"
       x="67.97776"
       y="351.56976"
       id="text3542-3-7-2-0"
       sodipodi:linespacing="125%"><tspan
         sodipodi:role="line"
         id="tspan3544-6-5-7-9"
         x="67.97776"
         y="351.56976">$0,2$</tspan></text>
<text
       xml:space="preserve"
       style="font-style:normal;font-variant:normal;font-weight:normal;font-stretch:normal;font-size:16px;line-height:125%;font-family:'Nimbus Sans L';-inkscape-font-specification:Sans;letter-spacing:0px;word-spacing:0px;fill:#000000;fill-opacity:1;stroke:none;stroke-width:1px;stroke-linecap:butt;stroke-linejoin:miter;stroke-opacity:1"
       x="67.97776"
       y="264.94223"
       id="text3542-3-7-2-0-3"
       sodipodi:linespacing="125%"><tspan
         sodipodi:role="line"
         id="tspan3544-6-5-7-9-6"
         x="67.97776"
         y="264.94223">$0,4$</tspan></text>
<text
       xml:space="preserve"
       style="font-style:normal;font-variant:normal;font-weight:normal;font-stretch:normal;font-size:16px;line-height:125%;font-family:'Nimbus Sans L';-inkscape-font-specification:Sans;letter-spacing:0px;word-spacing:0px;fill:#000000;fill-opacity:1;stroke:none;stroke-width:1px;stroke-linecap:butt;stroke-linejoin:miter;stroke-opacity:1"
       x="67.97776"
       y="184.15215"
       id="text3542-3-7-2-0-3-0"
       sodipodi:linespacing="125%"><tspan
         sodipodi:role="line"
         id="tspan3544-6-5-7-9-6-6"
         x="67.97776"
         y="184.15215">$0,6$</tspan></text>
<text
       xml:space="preserve"
       style="font-style:normal;font-variant:normal;font-weight:normal;font-stretch:normal;font-size:16px;line-height:125%;font-family:'Nimbus Sans L';-inkscape-font-specification:Sans;letter-spacing:0px;word-spacing:0px;fill:#000000;fill-opacity:1;stroke:none;stroke-width:1px;stroke-linecap:butt;stroke-linejoin:miter;stroke-opacity:1"
       x="67.97776"
       y="100.52734"
       id="text3542-3-7-2-0-3-0-2"
       sodipodi:linespacing="125%"><tspan
         sodipodi:role="line"
         id="tspan3544-6-5-7-9-6-6-6"
         x="67.97776"
         y="100.52734">$0,8$</tspan></text>
<text
       xml:space="preserve"
       style="font-style:normal;font-variant:normal;font-weight:normal;font-stretch:normal;font-size:16px;line-height:125%;font-family:'Nimbus Sans L';-inkscape-font-specification:Sans;letter-spacing:0px;word-spacing:0px;fill:#000000;fill-opacity:1;stroke:none;stroke-width:1px;stroke-linecap:butt;stroke-linejoin:miter;stroke-opacity:1"
       x="45.879097"
       y="51.165478"
       id="text3542-1"
       sodipodi:linespacing="125%"><tspan
         sodipodi:role="line"
         id="tspan3544-8"
         x="45.879097"
         y="51.165478">$j/j_0$</tspan></text>
<text
       xml:space="preserve"
       style="font-style:normal;font-variant:normal;font-weight:normal;font-stretch:normal;font-size:16px;line-height:125%;font-family:'Nimbus Sans L';-inkscape-font-specification:Sans;letter-spacing:0px;word-spacing:0px;fill:#000000;fill-opacity:1;stroke:none;stroke-width:1px;stroke-linecap:butt;stroke-linejoin:miter;stroke-opacity:1"
       x="414.73337"
       y="459.78168"
       id="text3542-3"
       sodipodi:linespacing="125%"><tspan
         sodipodi:role="line"
         id="tspan3544-6"
         x="414.73337"
         y="459.78168">$0$</tspan></text>
<text
       xml:space="preserve"
       style="font-style:normal;font-variant:normal;font-weight:normal;font-stretch:normal;font-size:16px;line-height:125%;font-family:'Nimbus Sans L';-inkscape-font-specification:Sans;letter-spacing:0px;word-spacing:0px;fill:#000000;fill-opacity:1;stroke:none;stroke-width:1px;stroke-linecap:butt;stroke-linejoin:miter;stroke-opacity:1"
       x="569.28046"
       y="459.78168"
       id="text3542-3-7"
       sodipodi:linespacing="125%"><tspan
         sodipodi:role="line"
         id="tspan3544-6-5"
         x="569.28046"
         y="459.78168">$2$</tspan></text>
<text
       xml:space="preserve"
       style="font-style:normal;font-variant:normal;font-weight:normal;font-stretch:normal;font-size:16px;line-height:125%;font-family:'Nimbus Sans L';-inkscape-font-specification:Sans;letter-spacing:0px;word-spacing:0px;fill:#000000;fill-opacity:1;stroke:none;stroke-width:1px;stroke-linecap:butt;stroke-linejoin:miter;stroke-opacity:1"
       x="712.16791"
       y="459.78168"
       id="text3542-3-7-3"
       sodipodi:linespacing="125%"><tspan
         sodipodi:role="line"
         id="tspan3544-6-5-5"
         x="712.16791"
         y="459.78168">$4$</tspan></text>
<text
       xml:space="preserve"
       style="font-style:normal;font-variant:normal;font-weight:normal;font-stretch:normal;font-size:16px;line-height:125%;font-family:'Nimbus Sans L';-inkscape-font-specification:Sans;letter-spacing:0px;word-spacing:0px;fill:#000000;fill-opacity:1;stroke:none;stroke-width:1px;stroke-linecap:butt;stroke-linejoin:miter;stroke-opacity:1"
       x="97.263496"
       y="459.78168"
       id="text3542-3-7-3-3"
       sodipodi:linespacing="125%"><tspan
         sodipodi:role="line"
         id="tspan3544-6-5-5-6"
         x="97.263496"
         y="459.78168">$-4$</tspan></text>
<text
       xml:space="preserve"
       style="font-style:normal;font-variant:normal;font-weight:normal;font-stretch:normal;font-size:16px;line-height:125%;font-family:'Nimbus Sans L';-inkscape-font-specification:Sans;letter-spacing:0px;word-spacing:0px;fill:#000000;fill-opacity:1;stroke:none;stroke-width:1px;stroke-linecap:butt;stroke-linejoin:miter;stroke-opacity:1"
       x="248.11655"
       y="459.78168"
       id="text3542-3-7-7"
       sodipodi:linespacing="125%"><tspan
         sodipodi:role="line"
         id="tspan3544-6-5-53"
         x="248.11655"
         y="459.78168">$-2$</tspan></text>
<text
       xml:space="preserve"
       style="font-style:normal;font-variant:normal;font-weight:normal;font-stretch:normal;font-size:16px;line-height:125%;font-family:'Nimbus Sans L';-inkscape-font-specification:Sans;letter-spacing:0px;word-spacing:0px;fill:#000000;fill-opacity:1;stroke:none;stroke-width:1px;stroke-linecap:butt;stroke-linejoin:miter;stroke-opacity:1"
       x="761.77997"
       y="458.29962"
       id="text3542-1-5"
       sodipodi:linespacing="125%"><tspan
         sodipodi:role="line"
         id="tspan3544-8-6"
         x="761.77997"
         y="458.29962">$\eta x$</tspan></text>
</g></svg>