<?xml version="1.0" encoding="UTF-8" standalone="no"?>
<!-- Created with Inkscape (http://www.inkscape.org/) -->

<svg
   xmlns:dc="http://purl.org/dc/elements/1.1/"
   xmlns:cc="http://creativecommons.org/ns#"
   xmlns:rdf="http://www.w3.org/1999/02/22-rdf-syntax-ns#"
   xmlns:svg="http://www.w3.org/2000/svg"
   xmlns="http://www.w3.org/2000/svg"
   xmlns:sodipodi="http://sodipodi.sourceforge.net/DTD/sodipodi-0.dtd"
   xmlns:inkscape="http://www.inkscape.org/namespaces/inkscape"
   width="3079.8896"
   height="628.922"
   id="svg2"
   version="1.1"
   inkscape:version="0.91 r13725"
   sodipodi:docname="09_AMFM.svg">
  <defs
     id="defs4">
    <inkscape:path-effect
       effect="spiro"
       id="path-effect3506"
       is_visible="true" />
    <inkscape:path-effect
       effect="spiro"
       id="path-effect4385"
       is_visible="true" />
    <marker
       inkscape:stockid="Arrow1Mend"
       orient="auto"
       refY="0"
       refX="0"
       id="Arrow1Mend"
       style="overflow:visible">
      <path
         id="path3900"
         d="M 0,0 5,-5 -12.5,0 5,5 0,0 Z"
         style="fill-rule:evenodd;stroke:#000000;stroke-width:1pt"
         transform="matrix(-0.4,0,0,-0.4,-4,0)"
         inkscape:connector-curvature="0" />
    </marker>
    <inkscape:path-effect
       effect="spiro"
       id="path-effect3117"
       is_visible="true" />
    <marker
       inkscape:stockid="Arrow1Mend"
       orient="auto"
       refY="0"
       refX="0"
       id="Arrow1Mend-3"
       style="overflow:visible">
      <path
         inkscape:connector-curvature="0"
         id="path3900-6"
         d="M 0,0 5,-5 -12.5,0 5,5 0,0 Z"
         style="fill-rule:evenodd;stroke:#000000;stroke-width:1pt"
         transform="matrix(-0.4,0,0,-0.4,-4,0)" />
    </marker>
    <inkscape:path-effect
       effect="spiro"
       id="path-effect3117-7"
       is_visible="true" />
    <marker
       inkscape:stockid="Arrow1Mend"
       orient="auto"
       refY="0"
       refX="0"
       id="Arrow1Mend-3-6"
       style="overflow:visible">
      <path
         inkscape:connector-curvature="0"
         id="path3900-6-2"
         d="M 0,0 5,-5 -12.5,0 5,5 0,0 Z"
         style="fill-rule:evenodd;stroke:#000000;stroke-width:1pt"
         transform="matrix(-0.4,0,0,-0.4,-4,0)" />
    </marker>
    <inkscape:path-effect
       effect="spiro"
       id="path-effect4385-9"
       is_visible="true" />
    <marker
       inkscape:stockid="Arrow1Mend"
       orient="auto"
       refY="0"
       refX="0"
       id="Arrow1Mend-36"
       style="overflow:visible">
      <path
         id="path3900-7"
         d="M 0,0 5,-5 -12.5,0 5,5 0,0 Z"
         style="fill-rule:evenodd;stroke:#000000;stroke-width:1pt"
         transform="matrix(-0.4,0,0,-0.4,-4,0)"
         inkscape:connector-curvature="0" />
    </marker>
    <inkscape:path-effect
       effect="spiro"
       id="path-effect3117-5"
       is_visible="true" />
    <marker
       inkscape:stockid="Arrow1Mend"
       orient="auto"
       refY="0"
       refX="0"
       id="Arrow1Mend-3-3"
       style="overflow:visible">
      <path
         inkscape:connector-curvature="0"
         id="path3900-6-5"
         d="M 0,0 5,-5 -12.5,0 5,5 0,0 Z"
         style="fill-rule:evenodd;stroke:#000000;stroke-width:1pt"
         transform="matrix(-0.4,0,0,-0.4,-4,0)" />
    </marker>
    <inkscape:path-effect
       effect="spiro"
       id="path-effect4385-6"
       is_visible="true" />
    <marker
       inkscape:stockid="Arrow1Mend"
       orient="auto"
       refY="0"
       refX="0"
       id="Arrow1Mend-3-3-6"
       style="overflow:visible">
      <path
         inkscape:connector-curvature="0"
         id="path3900-6-5-2"
         d="M 0,0 5,-5 -12.5,0 5,5 0,0 Z"
         style="fill-rule:evenodd;stroke:#000000;stroke-width:1pt"
         transform="matrix(-0.4,0,0,-0.4,-4,0)" />
    </marker>
    <inkscape:path-effect
       effect="spiro"
       id="path-effect3506-6"
       is_visible="true" />
    <marker
       inkscape:stockid="Arrow1Mend"
       orient="auto"
       refY="0"
       refX="0"
       id="Arrow1Mend-3-1"
       style="overflow:visible">
      <path
         inkscape:connector-curvature="0"
         id="path3900-6-8"
         d="M 0,0 5,-5 -12.5,0 5,5 0,0 Z"
         style="fill-rule:evenodd;stroke:#000000;stroke-width:1pt"
         transform="matrix(-0.4,0,0,-0.4,-4,0)" />
    </marker>
    <inkscape:path-effect
       effect="spiro"
       id="path-effect4385-6-7"
       is_visible="true" />
    <marker
       inkscape:stockid="Arrow1Mend"
       orient="auto"
       refY="0"
       refX="0"
       id="Arrow1Mend-9"
       style="overflow:visible">
      <path
         id="path3900-2"
         d="M 0,0 5,-5 -12.5,0 5,5 0,0 Z"
         style="fill-rule:evenodd;stroke:#000000;stroke-width:1pt"
         transform="matrix(-0.4,0,0,-0.4,-4,0)"
         inkscape:connector-curvature="0" />
    </marker>
    <inkscape:path-effect
       effect="spiro"
       id="path-effect3117-5-0"
       is_visible="true" />
    <marker
       inkscape:stockid="Arrow1Mend"
       orient="auto"
       refY="0"
       refX="0"
       id="marker4599"
       style="overflow:visible">
      <path
         inkscape:connector-curvature="0"
         id="path4601"
         d="M 0,0 5,-5 -12.5,0 5,5 0,0 Z"
         style="fill-rule:evenodd;stroke:#000000;stroke-width:1pt"
         transform="matrix(-0.4,0,0,-0.4,-4,0)" />
    </marker>
    <inkscape:path-effect
       effect="spiro"
       id="path-effect4385-2"
       is_visible="true" />
    <marker
       inkscape:stockid="Arrow1Mend"
       orient="auto"
       refY="0"
       refX="0"
       id="marker4604"
       style="overflow:visible">
      <path
         id="path4606"
         d="M 0,0 5,-5 -12.5,0 5,5 0,0 Z"
         style="fill-rule:evenodd;stroke:#000000;stroke-width:1pt"
         transform="matrix(-0.4,0,0,-0.4,-4,0)"
         inkscape:connector-curvature="0" />
    </marker>
    <inkscape:path-effect
       effect="spiro"
       id="path-effect3117-3"
       is_visible="true" />
    <marker
       inkscape:stockid="Arrow1Mend"
       orient="auto"
       refY="0"
       refX="0"
       id="Arrow1Mend-367"
       style="overflow:visible">
      <path
         id="path3900-5"
         d="M 0,0 5,-5 -12.5,0 5,5 0,0 Z"
         style="fill-rule:evenodd;stroke:#000000;stroke-width:1pt"
         transform="matrix(-0.4,0,0,-0.4,-4,0)"
         inkscape:connector-curvature="0" />
    </marker>
    <inkscape:path-effect
       effect="spiro"
       id="path-effect3117-35"
       is_visible="true" />
    <marker
       inkscape:stockid="Arrow1Mend"
       orient="auto"
       refY="0"
       refX="0"
       id="Arrow1Mend-3-62"
       style="overflow:visible">
      <path
         inkscape:connector-curvature="0"
         id="path3900-6-9"
         d="M 0,0 5,-5 -12.5,0 5,5 0,0 Z"
         style="fill-rule:evenodd;stroke:#000000;stroke-width:1pt"
         transform="matrix(-0.4,0,0,-0.4,-4,0)" />
    </marker>
    <inkscape:path-effect
       effect="spiro"
       id="path-effect4385-1"
       is_visible="true" />
  </defs>
  <sodipodi:namedview
     id="base"
     pagecolor="#ffffff"
     bordercolor="#666666"
     borderopacity="1.0"
     inkscape:pageopacity="0.0"
     inkscape:pageshadow="2"
     inkscape:zoom="0.27993164"
     inkscape:cx="1035.8967"
     inkscape:cy="75.6641"
     inkscape:document-units="px"
     inkscape:current-layer="layer1"
     showgrid="false"
     fit-margin-top="0"
     fit-margin-left="0"
     fit-margin-right="0"
     fit-margin-bottom="0"
     inkscape:window-width="1917"
     inkscape:window-height="947"
     inkscape:window-x="1"
     inkscape:window-y="69"
     inkscape:window-maximized="0" />
  <metadata
     id="metadata7">
    <rdf:RDF>
      <cc:Work
         rdf:about="">
        <dc:format>image/svg+xml</dc:format>
        <dc:type
           rdf:resource="http://purl.org/dc/dcmitype/StillImage" />
        <dc:title></dc:title>
      </cc:Work>
    </rdf:RDF>
  </metadata>
  <g
     inkscape:label="Layer 1"
     inkscape:groupmode="layer"
     id="layer1"
     transform="translate(868.7776,-645.58954)">
    <path
       style="fill:none;stroke:#000000;stroke-width:4.97114658;stroke-linecap:butt;stroke-linejoin:miter;stroke-miterlimit:4;stroke-dasharray:none;stroke-opacity:1;marker-end:url(#Arrow1Mend)"
       d="m -858.74916,1016.8661 1462.5728,0"
       id="path3115"
       inkscape:path-effect="#path-effect3117"
       inkscape:original-d="m -858.74916,1016.8661 1462.5728,0"
       inkscape:connector-curvature="0"
       sodipodi:nodetypes="cc" />
    <path
       style="fill:none;stroke:#000000;stroke-width:4.97114658;stroke-linecap:butt;stroke-linejoin:miter;stroke-miterlimit:4;stroke-dasharray:none;stroke-opacity:1;marker-end:url(#Arrow1Mend-3)"
       d="m -856.32276,1019.1522 0,-364.0677"
       id="path4383"
       inkscape:path-effect="#path-effect4385"
       inkscape:original-d="m -856.32276,1019.1522 0,-364.0677"
       inkscape:connector-curvature="0"
       sodipodi:nodetypes="cc" />
    <path
       style="fill:none;stroke:#000000;stroke-width:4.97114658;stroke-linecap:butt;stroke-linejoin:miter;stroke-miterlimit:4;stroke-dasharray:none;stroke-opacity:1;marker-end:url(#Arrow1Mend)"
       d="m 739.04424,1016.8661 1462.57276,0"
       id="path3115-7"
       inkscape:path-effect="#path-effect3117-35"
       inkscape:original-d="m 739.04424,1016.8661 1462.57276,0"
       inkscape:connector-curvature="0"
       sodipodi:nodetypes="cc" />
    <path
       style="fill:none;stroke:#000000;stroke-width:4.97114658;stroke-linecap:butt;stroke-linejoin:miter;stroke-miterlimit:4;stroke-dasharray:none;stroke-opacity:1;marker-end:url(#Arrow1Mend-3)"
       d="m 741.47064,1019.1522 0,-364.0677"
       id="path4383-0"
       inkscape:path-effect="#path-effect4385-1"
       inkscape:original-d="m 741.47064,1019.1522 0,-364.0677"
       inkscape:connector-curvature="0"
       sodipodi:nodetypes="cc" />
    <path
       style="fill:none;fill-opacity:1;stroke:#d40000;stroke-width:5;stroke-linecap:butt;stroke-linejoin:miter;stroke-miterlimit:4;stroke-dasharray:none;stroke-opacity:1"
       inkscape:connector-curvature="0"
       id="path12-7"
       d="m 741.19938,1015.9077 1.37282,-24.9842 1.37261,-24.73978 1.3728,-24.25267 1.37264,-23.52678 1.37279,-22.56832 1.37244,-21.3841 1.37281,-19.98442 1.37263,-18.38028 1.37279,-16.58491 1.3728,-14.61329 1.37264,-12.48232 1.37281,-10.21011 1.37243,-7.81634 1.37279,-5.32283 1.37262,-2.75209 1.37282,-0.12821 1.37261,2.52387 1.37282,5.17761 1.3728,7.80656 1.37243,10.38297 1.37281,12.87881 1.37261,15.26649 1.37282,17.5179 1.37262,19.60522 1.37279,21.50196 1.37264,23.18215 1.37261,24.6211 1.37282,25.79623 1.37261,26.68638 1.37281,27.2737 1.37263,27.5417 1.37279,27.4786 1.37263,27.075 1.37281,26.3251 1.37244,25.2286 1.37281,23.7882 1.3728,22.0118 1.37261,19.9127 1.3728,17.5073 1.37264,14.8197 1.3728,11.8767 1.37244,8.7116 1.3728,5.3619 1.37262,1.8697 1.37282,-1.7187 1.3728,-5.3534 1.37262,-8.9808 1.37281,-12.5451 1.37243,-15.9901 1.37281,-19.2557 1.37261,-22.2848 1.37282,-25.0205 1.37263,-27.4074 1.37278,-29.394 1.37283,-30.9342 1.37242,-31.9857 1.37281,-32.5149 1.37263,-32.49471 1.37279,-31.90816 1.37263,-30.74677 1.37281,-29.01364 1.37244,-26.72268 1.37281,-23.89886 1.3728,-20.57942 1.37263,-16.81282 1.3728,-12.65837 1.37261,-8.18613 1.37281,-3.47607 1.37244,1.3842 1.3728,6.30046 1.37262,11.17237 1.37281,15.89799 1.3728,20.37332 1.37262,24.49693 1.3728,28.17064 1.37262,31.30346 1.37263,33.81284 1.3726,35.6278 1.37283,36.69092 1.37263,36.9605 1.37279,36.4123 1.37281,35.0401 1.37262,32.8575 1.37283,29.8987 1.3724,26.2162 1.37281,21.883 1.37264,16.99 1.3728,11.6438 1.37262,5.9651 1.37281,0.086 1.37281,-5.8515 1.37244,-11.7039 1.3728,-17.3245 1.37262,-22.5701 1.3728,-27.3047 1.37261,-31.4018 1.37282,-34.751 1.37244,-37.2581 1.37281,-38.8502 1.3728,-39.4776 1.37263,-39.11514 1.3728,-37.76347 1.37263,-35.44972 1.37279,-32.22741 1.37244,-28.17373 1.37281,-23.3899 1.37261,-17.99667 1.37281,-12.13216 1.37282,-5.94818 1.37262,0.39514 1.37281,6.73219 1.37243,12.89734 1.3728,18.73008 1.37262,24.07817 1.37281,28.80367 1.37263,32.78458 1.3728,35.92025 1.3728,38.13305 1.37245,39.37021 1.3728,39.606 1.37263,38.8409 1.3728,37.1023 1.37261,34.443 1.37281,30.9399 1.37262,26.6905 1.37281,21.8101 1.37263,16.43 1.37261,10.691 1.3728,4.7409 1.37263,-1.2692 1.3728,-7.1908 1.37263,-12.8803 1.3728,-18.203 1.37244,-23.0371 1.37279,-27.2764 1.37281,-30.831 1.37263,-33.6318 1.37281,-35.6292 1.37261,-36.7949 1.37281,-37.1219 1.37244,-36.62259 1.3728,-35.32947 1.37263,-33.29207 1.3728,-30.57526 1.37281,-27.25803 1.37262,-23.42927 1.3728,-19.18629 1.37244,-14.63174 1.37282,-9.87096 1.37262,-5.00894 1.3728,-0.14887 1.3726,4.61133 1.37282,9.18038 1.3728,13.47486 1.37244,17.42165 1.37281,20.95825 1.37263,24.03348 1.37279,26.60868 1.37264,28.65616 1.37281,30.16138 1.37243,31.11953 1.37279,31.53789 1.37281,31.4325 1.37263,30.8291 1.37281,29.7597 1.37262,28.2643 1.37281,26.3864 1.37261,24.1749 1.37262,21.6805 1.37262,18.9552 1.37281,16.0525 1.37281,13.024 1.3726,9.9207 1.37282,6.7908 1.37264,3.6793 1.37279,0.6286 1.37247,-2.324 1.37276,-5.1445 1.37266,-7.8039 1.37276,-10.2779 1.37277,-12.5464 1.37265,-14.5931 1.37267,-16.4078 1.37256,-17.9829 1.37267,-19.3147 1.37286,-20.4038 1.37268,-21.2529 1.37256,-21.8686 1.37303,-22.259 1.3726,-22.4349 1.3726,-22.4089 1.3726,-22.1937 1.3728,-21.8048 1.3727,-21.25759 1.3727,-20.56752 1.3727,-19.75086 1.3726,-18.82389 1.3726,-17.8018 1.3729,-16.70025 1.3726,-15.53407 1.3729,-14.317 1.3726,-13.06264 1.3727,-11.78311 1.3725,-10.48988 1.3728,-9.19374 1.3726,-7.90376 1.3728,-6.62877 1.3728,-5.37649 1.3727,-4.1531 1.3727,-2.96483 1.3725,-1.81621 1.3728,-0.71159 1.3728,0.34613 1.3726,1.35395 1.3726,2.31038 1.3729,3.21378 1.3728,4.06338 1.3725,4.8593 1.3728,5.60117 1.3726,6.28991 1.3729,6.92612 1.3723,7.51113 1.3729,8.04617 1.3726,8.53267 1.3728,8.97303 1.3729,9.36808 1.3725,9.72072 1.3728,10.03212 1.3725,10.3049 1.3728,10.54066 1.3726,10.74182 1.3729,10.91008 1.3723,11.04731 1.373,11.15575 1.3727,11.23681 1.3728,11.29233 1.3726,11.32432 1.3725,11.33372 1.373,11.32236 1.3724,11.2917 1.3729,11.2427 1.3725,11.1764 1.3729,11.0943 1.3728,10.997 1.3725,10.8852 1.3728,10.7601 1.3726,10.6219 1.3727,10.4714 1.3726,10.3087 1.373,10.1343 1.3725,9.9485 1.3729,9.7518 1.3726,9.5433 1.3727,9.324 1.3726,9.0934 1.3727,8.8513 1.3727,8.5976 1.3727,8.3322 1.3728,8.0547 1.3727,7.7643 1.3725,7.4614 1.3728,7.1449 1.3727,6.815 1.3727,6.4704 1.3726,6.1112 1.3729,5.737 1.3727,5.3469 1.3727,4.9405 1.3725,4.5176 1.3727,4.0777 1.3728,3.62 1.3726,3.1449 1.3729,2.6515 1.3727,2.1401 1.3728,1.61 1.3722,1.0619 1.373,0.4954 1.3725,-0.09 1.3729,-0.6912 1.3728,-1.3103 1.3726,-1.9463 1.3729,-2.5972 1.3723,-3.2631 1.3728,-3.9422 1.3726,-4.6333 1.3728,-5.3339 1.3728,-6.0434 1.3728,-6.7586 1.3729,-7.4774 1.3723,-8.1973 1.3728,-8.9149 1.3725,-9.6274 1.3729,-10.3317 1.3726,-11.0229 1.3728,-11.6977 1.3724,-12.3522 1.3729,-12.9818 1.3728,-13.5816 1.3725,-14.1469 1.3729,-14.6723 1.3725,-15.1537 1.373,-15.585 1.3723,-15.961 1.373,-16.2766 1.3724,-16.5268 1.3729,-16.7059 1.3728,-16.8092 1.3726,-16.83209 1.3728,-16.7695 1.3726,-16.61795 1.3729,-16.37302 1.3724,-16.03159 1.3728,-15.59112 1.3727,-15.04924 1.3728,-14.40459 1.3727,-13.65656 1.3726,-12.80526 1.3728,-11.85169 1.3725,-10.79799 1.3728,-9.64667 1.3726,-8.40243 1.3729,-7.0697 1.3726,-5.65486 1.3728,-4.16529 1.3727,-2.60899 1.3724,-0.99551 1.3729,0.66483 1.3727,2.36081 1.3728,4.07971 1.3726,5.8089 1.3726,7.53438 1.3726,9.24148 1.3727,10.91534 1.3729,12.54074 1.3727,14.10193 1.3726,15.58326 1.3727,16.96947 1.3728,18.24523 1.3724,19.39607 1.3728,20.40769 1.3726,21.26711 1.3729,21.96257 1.3728,22.48293 1.3725,22.8185 1.3729,22.9629 1.3723,22.9081 1.373,22.6515 1.3725,22.1906 1.373,21.525 1.3725,20.6569 1.3728,19.5908 1.3728,18.3328 1.3726,16.8918 1.3727,15.2789 1.3725,13.5069 1.3728,11.5902 1.3727,9.5464 1.3728,7.3934 1.3727,5.1515 1.3726,2.8422 1.3729,0.4875 1.3725,-1.8894 1.3728,-4.2636 1.3725,-6.6124 1.3729,-8.911 1.3725,-11.1352 1.3729,-13.262 1.3725,-15.2682 1.3729,-17.1334 1.3727,-18.8364 1.3725,-20.3593 1.3731,-21.685 1.3723,-22.799 1.3731,-23.6886 1.3722,-24.3443 1.373,-24.7572 1.3725,-24.9236 1.3727,-24.8397 1.3728,-24.50683 1.3727,-23.9271 1.3728,-23.10637 1.3725,-22.0522 1.3727,-20.77564 1.3728,-19.28925 1.3728,-17.60797 1.3724,-15.74893 1.3728,-13.73092 1.3729,-11.57451 1.3724,-9.30152 1.3729,-6.93475 1.3726,-4.49846 1.3729,-2.01697 1.3725,0.48476 1.3727,2.98171 1.3728,5.44875 1.3726,7.86151 1.3728,10.19587 1.3726,12.42882 1.3728,14.53819 1.3727,16.50317 1.3727,18.3044 1.3727,19.92402 1.3727,21.34617 1.3725,22.5568 1.3727,23.54356 1.3728,24.29676 1.3727,24.80833 1.3728,25.0733 1.3727,25.0878 1.3727,24.851 1.3725,24.3647 1.3727,23.6322 1.3727,22.6593 1.3727,21.4548 1.3731,20.0283 1.3724,18.3926 1.3731,16.5615 1.3721,14.5526 1.3729,12.3828 1.3725,10.0725 1.3728,7.6425 1.3729,5.1162 1.3727,2.5166 1.3729,-0.1302 1.3722,-2.7992 1.3729,-5.4631 1.3726,-8.0949 1.3728,-10.6675 1.3727,-13.1527 1.3729,-15.5228 1.3723,-17.7515 1.3728,-19.8114 1.373,-21.6766 1.3723,-23.3232 1.3729,-24.7271 1.3726,-25.8668 1.373,-26.7227 1.3723,-27.2769 1.3728,-27.5149 1.3726,-27.42427 1.3727,-26.99581 1.3731,-26.22442 1.3724,-25.10775 1.3728,-23.64817 1.3727,-21.85243 1.3726,-19.73094 1.3726,-17.30007 1.3728,-14.57986 1.3726,-11.5962 1.3729,-8.37968 1.3727,-4.9664 1.3729,-1.3966 1.3725,2.28395 1.3725,6.02474 1.3728,9.77214 1.3729,13.46735 1.3727,17.05015 1.3725,20.45659 1.3727,23.62204 1.3731,26.48141 1.3722,28.96996 1.373,31.02569 1.3725,32.58938 1.3729,33.6071 1.3725,34.0323 1.3727,33.8242 1.3725,32.9551 1.3728,31.4068 1.373,29.1746 1.3727,26.2689 1.3727,22.7153 1.3727,18.5571 1.3725,13.8542 1.3725,8.6846 1.3728,3.1446 1.3727,-2.6527 1.3728,-8.5797 1.3729,-14.4938 1.3725,-20.2415 1.3727,-25.6624 1.3724,-30.5913 1.3729,-34.8643 1.3729,-38.3239 1.3725,-40.8239 1.3729,-42.236 1.3725,-42.45601 1.3731,-41.40934 1.3721,-39.05731 1.3729,-35.40152 1.3727,-30.48888 1.3729,-24.41366 1.3725,-17.31926 1.3729,-9.39774 1.3727,-0.88669 1.3728,7.93477 1.3726,16.75462 1.3725,25.23589 1.3729,33.03008 1.3725,39.7903 1.3729,45.18671 1.3725,48.92324 1.3729,50.7545 1.3725,50.5018 1.3726,48.0679 1.3728,43.4495 1.3727,36.746 1.3727,28.1647 1.3727,18.0187 1.3727,6.7207 1.3727,-5.2285 1.3728,-17.262 1.3724,-28.7684 1.373,-39.1261 1.3725,-47.7324 1.3729,-54.0443 1.3727,-57.6132 1.3725,-58.11674 1.373,-55.39315 1.3724,-49.459 1.3729,-40.52474 1.3725,-28.99617 1.3729,-15.46233 1.3724,-0.67098 1.3728,14.50707 1.3729,29.12946 1.3727,42.23813 1.3724,52.92565 1.3728,60.39969 1.3727,64.04621 1.373,63.4855 1.3724,58.6121 1.3729,49.6204 1.3727,37.0081 1.3727,21.5583 1.3725,4.2937 1.3729,-13.5834 1.3727,-30.7762 1.3725,-45.9878 1.3728,-58.021 1.3728,-65.8799 1.3727,-68.8561 1.3726,-66.59907 1.3728,-59.16197 1.3727,-47.01197 1.3728,-31.01013 1.3723,-12.35556 1.3727,7.50192 1.3729,26.97421 1.3727,44.46408 1.3728,58.50059 1.3727,67.86817 1.3727,71.71793 1.3724,69.6515 1.3727,61.7652 1.373,48.6556 1.3726,31.3755 1.3727,11.3528 1.3728,-9.7293 1.3723,-30.0768 1.3728,-47.9404 1.3729,-61.7729 1.3724,-70.3658 1.3731,-72.96233 1.3726,-69.32412 1.3729,-59.75795 1.3722,-45.08729 1.3729,-26.58091 1.3725,-5.83868 1.3729,15.35062 1.3728,35.16946 1.3728,51.93198 1.3727,64.23047 1.3725,71.05735 1.3728,71.8863 1.3727,66.7112 1.3726,56.0372 1.3728,40.8259 1.3728,22.4039 1.3727,2.3379 1.3725,-17.7026 1.3727,-36.0915 1.3725,-51.3811 1.3729,-62.4145 1.3728,-68.4148 1.3727,-69.03126 1.3728,-64.35196 1.3726,-54.87699 1.3728,-41.46111 1.3723,-25.22724 1.3729,-7.46657 1.3725,10.47153 1.373,27.28598 1.3726,41.81974 1.3729,53.138 1.3727,60.58422 1.3725,63.80866 1.3727,62.7737 1.3728,57.7348 1.3726,49.2009 1.3727,37.8781 1.3728,24.6103 1.3723,10.3057 1.3729,-4.1236 1.3729,-17.8252 1.3728,-30.0536 1.3726,-40.2099 1.3725,-47.8605 1.3729,-52.7541 1.3723,-54.8125 1.373,-54.121 1.3726,-50.90418 1.3729,-45.49905 1.3726,-38.3231 1.3726,-29.84203 1.3728,-20.53892 1.3726,-10.88672 1.3727,-1.32446 1.3727,7.76093 1.3728,16.04685 1.3726,23.28339 1.3729,29.29535 1.3721,33.97987 1.3729,37.30196 1.373,39.28607 1.3725,40.00624 1.3729,39.5763 1.3725,38.1382 1.373,35.852 1.3727,32.8867 1.3725,29.4113 1.3728,25.5893 1.3726,21.5718 1.3729,17.4944 1.3724,13.4751 1.373,9.6114 1.3725,5.9823 1.3728,2.6475 1.3728,-0.3512 1.3726,-2.9886 1.3726,-5.2521 1.3727,-7.1422 1.3728,-8.6684 1.3727,-9.848 1.3728,-10.7038 1.3722,-11.262 3.962,-143.0341 1.3726,-11.6018 1.3729,-73.4753 1.3728,-11.10204 1.3725,-77.36023 1.3727,-9.98352 c 3.9908,-37.61987 0.142,-70.0074 8.158,-102.86938 0.685,-2.75237 1.7021,-5.47056 2.7456,-8.18988 l 1.3724,-2.53204 1.3728,-1.47921 1.3726,-0.42595 1.3728,0.62248 1.3727,1.6613 1.3727,2.68502 c 1.1532,2.76334 1.9235,5.56007 2.7453,8.35345 8.8139,34.11548 5.6277,71.65898 5.5692,101.90547 l 1.3727,9.50042 1.3726,76.78404 1.3726,10.44557 1.3727,72.7598 1.3728,10.8577 -1.2164,142.3039 1.3729,10.5979 1.3726,10.1731 1.3728,9.53 1.3727,8.6561 1.3726,7.5404 1.373,6.1761 1.3722,4.5612 1.3729,2.6986 1.3726,0.5973 1.3729,-1.7271 1.3725,-4.2508 1.3729,-6.9434 1.3724,-9.7668 1.3728,-12.6741 1.3726,-15.6119 1.3729,-18.5202 1.3728,-21.3333 1.3725,-23.9816 1.373,-26.392 1.3723,-28.4927 1.3729,-30.2125 1.3726,-31.4838 1.3727,-32.2467 1.3727,-32.45004 1.3727,-32.05394 1.373,-31.03176 1.3723,-29.37304 1.3729,-27.08352 1.3726,-24.18735 1.3728,-20.72573 1.3726,-16.75824 1.3728,-12.36095 1.3725,-7.62445 1.3727,-2.65211 1.3727,2.44262 1.3729,7.54091 1.3728,12.52018 1.3726,17.26019 1.3727,21.64524 1.3726,25.56869 1.3728,28.93634 1.3726,31.66968 1.3727,33.70795 1.3726,35.01033 1.3728,35.5564 1.3728,35.3475 1.3726,34.4058 1.3726,32.7711 1.3727,30.503 1.3728,27.6743 1.3729,24.3713 1.3725,20.6882 1.3728,16.7247 1.3726,12.5832 1.3727,8.3648 1.3725,4.1661 1.3729,0.077 1.3726,-3.8215 1.3728,-7.4602 1.3728,-10.7804 1.3727,-13.7369 1.3726,-16.2983 1.3726,-18.445 1.3727,-20.1692 1.3728,-21.4752 1.3726,-22.3764 1.3728,-22.8946 1.3726,-23.0589 1.3728,-22.9026 1.3725,-22.4634 1.3729,-21.7808 1.3725,-20.8947 1.3729,-19.8455 1.3727,-18.67021 c 4.0411,-51.78605 6.9009,-105.93465 9.6087,-152.50229 l 1.3729,-8.26912 1.3726,-7.12301 1.3728,-6.03701 1.3725,-5.00924 1.3727,-4.03459 1.3727,-3.10599 1.3728,-2.21347 1.3727,-1.34597 1.3728,-0.49021 1.3727,0.36813 1.3726,1.24389 1.3727,2.15286 1.3726,3.11062 1.3727,4.13243 1.3728,5.23254 1.3728,6.42372 1.3728,7.71636 c 1.4789,66.48484 7.1712,119.59057 10.9813,179.03966 l 1.3728,23.2058 1.3727,24.8433 1.3726,26.2447 1.3728,27.3136 1.3728,27.9455 1.3725,28.0272 1.3727,27.4431 1.3726,26.0817 1.3729,23.8402 1.3726,20.6363 1.3728,16.4163 1.3727,11.1674 1.3726,4.927 1.3726,-2.2035 1.3727,-10.0516 1.3728,-18.3672 1.3727,-26.8193 1.3729,-35.002 1.3726,-42.4433 1.3725,-48.6267 1.3728,-53.0182 1.3726,-55.10441 1.3728,-54.43894 1.3728,-50.69029 1.3727,-43.69714 1.3726,-33.51518 1.3727,-20.45833 1.3725,-5.12151 1.3729,11.61754 1.3726,28.62735 1.373,44.58191 1.3726,58.05492 1.3728,67.64638 1.3726,72.1272 1.3725,70.6002 1.3727,62.6481 1.3727,48.4578 1.3728,28.8926 1.3728,5.4984 1.3726,-19.5795 1.3728,-43.7646 1.3725,-64.3027 1.3727,-78.5824 1.3728,-84.48444 1.3726,-80.71895 1.3729,-67.09722 1.3726,-44.6889 1.3729,-15.82029 1.3723,16.11131 1.3727,47.00446 1.3728,72.574 1.3728,88.96363 1.3728,93.3622 1.3727,84.5305 1.3727,63.1314 1.3725,31.7906 1.3727,-5.1562 1.3728,-42.2272 1.3727,-73.6014 1.3725,-94.0543 1.3729,-99.87337 1.3724,-89.589 1.3728,-64.36445 1.3728,-27.95608 1.3727,13.79698 1.3729,53.88737 1.3725,85.32853 1.3728,102.40732 1.3725,101.7759 1.3728,83.1582 1.3726,49.5236 1.3729,6.6552 1.3727,-37.83 1.3726,-75.8415 1.3727,-100.3218 1.3726,-106.59746 1.3729,-93.31153 1.3725,-62.74676 1.3729,-20.4513 1.3724,25.76991 1.3731,67.31534 1.3723,96.41697 1.3729,107.62273 1.3727,98.8414 1.3727,71.7396 1.3727,31.4148 1.3726,-14.5857 1.3727,-57.7123 1.3728,-90.0299 1.3727,-105.6982 1.3725,-102.03017 1.3729,-79.92686 1.3727,-43.63855 1.3726,0.0983 1.3728,43.35696 1.3727,78.48848 1.3727,99.48834 1.3727,103.0072 1.3726,88.8419 1.3728,59.8443 1.3727,21.2937 1.3727,-20.1155 1.3726,-57.4804 1.3729,-84.852 1.3724,-98.1684 1.3728,-95.80825 1.3726,-78.70699 1.3728,-50.04515 1.3728,-14.6058 1.3725,22.07361 1.3729,54.59328 1.3725,78.48636 1.3727,90.80204 1.3727,90.4069 1.3728,77.9958 1.3727,55.8362 1.3727,27.3179 1.3728,-3.6016 1.3727,-32.9702 1.3729,-57.3475 1.3722,-74.184 1.3729,-82.0383 1.3725,-80.63476 1.373,-70.76077 1.3725,-54.05706 1.3729,-32.73347 1.3725,-9.25694 1.3727,13.94259 1.3728,34.72084 1.3725,51.39912 1.373,62.8674 1.3726,68.61295 1.3728,68.6847 1.3725,63.6052 1.3728,54.2571 1.3726,41.748 1.3726,27.2865 1.3729,12.0616 1.3727,-2.8446 1.3728,-16.5267 1.3724,-28.294 1.3729,-37.6848 1.3727,-44.4594 1.3726,-48.5788 1.3727,-50.1684 1.3728,-49.4825 1.3728,-46.86229 1.3724,-42.69828 1.3728,-37.39608 1.3726,-31.35149 1.373,-24.92701 1.3725,-18.44002 1.3728,-12.15366 1.3728,-6.27339 1.3724,-0.94987 1.3728,3.71897 1.3727,7.67996 1.3727,10.91861 1.3728,13.45124 1.3726,15.31644 1.3728,16.56953 1.3726,17.27634 1.3727,17.50617 1.3726,17.33079 1.3729,16.8181 c 6.5732,87.23734 7.5286,175.20624 8.236,255.79474 2.3601,70.9585 3.5743,65.1352 4.1184,97.9617 l 1.3726,3.8252 1.3727,2.3426 1.3725,0.8702 1.3727,-0.5888 1.3727,-2.0339 1.3728,-3.4626 c 1.3494,-31.6116 3.816,-30.7786 4.1182,-96.2931 3.7018,-87.2792 1.7636,-165.8133 8.2361,-248.35318 l 1.3725,-15.11349 1.3726,-15.62148 1.373,-15.8956 1.3725,-15.89875 1.373,-15.59476 1.3725,-14.94812 1.3728,-13.92675 1.3728,-12.50393 1.3724,-10.65969 1.3728,-8.38388 1.3727,-5.67762 1.3728,-2.55643 1.3726,0.94969 1.3728,4.79216 1.3727,8.90523 1.3725,13.2045 1.3728,17.58743 1.3727,21.93491 1.3728,26.11422 1.3726,29.98121 1.3728,33.38601 1.3726,36.17803 1.3728,38.21239 1.3725,39.3561 1.3729,39.4965 1.3725,38.5465 1.3727,36.4536"
       sodipodi:nodetypes="ccccccccccccccccccccccccccccccccccccccccccccccccccccccccccccccccccccccccccccccccccccccccccccccccccccccccccccccccccccccccccccccccccccccccccccccccccccccccccccccccccccccccccccccccccccccccccccccccccccccccccccccccccccccccccccccccccccccccccccccccccccccccccccccccccccccccccccccccccccccccccccccccccccccccccccccccccccccccccccccccccccccccccccccccccccccccccccccccccccccccccccccccccccccccccccccccccccccccccccccccccccccccccccccccccccccccccccccccccccccccccccccccccccccccccccccccccccccccccccccccccccccccccccccccccccccccccccccccccccccccccccccccccccccccccccccccccccccccccccccccccccccccccccccccccccccccccccccccccccccccccccccccccccccccccccccccccccccccccccccccccccccccccccccccccccccccccccccccccccccccccccccccccccccccccccccccccccccccccccccccccccccccccccccccccccccccccccccccccccccccccccccccccccccccccccccccccccccccccccccccccccccccccccccccccccccccccccccccccccccccccccccccccccccccccccccccccccccccccccccccccccccccccccccccccccccccccccccccccccccccccccccccccccccccccccccccccccccccccccccccccc" />
    <g
       id="g3130"
       style="fill:none;stroke:#d40000;stroke-width:2.6076094;stroke-linecap:butt;stroke-linejoin:miter;stroke-miterlimit:4;stroke-dasharray:none;stroke-opacity:1"
       transform="matrix(2.2593453,0,0,-1.6273176,-1056.7468,1499.4238)">
      <path
         inkscape:connector-curvature="0"
         id="path3132"
         d="m 89.244,297.48 0.7147,16.5156 0.7146,15.567 0.7147,13.7242 0.7147,11.0932 0.7146,7.8249 0.7147,4.1072 0.7147,0.1536 0.7146,-3.8087 0.7147,-7.5525 0.7147,-10.8622 0.7146,-13.5483 0.7147,-15.456 0.7147,-16.4761 0.7146,-16.5497 0.7147,-15.6729 0.7147,-13.8959 0.7146,-11.3206 0.7147,-8.0952 0.7147,-4.4049 0.7146,-0.4613 0.7147,3.5086 0.7147,7.2772 0.7146,10.6278 0.7147,13.3682 0.7147,15.3407 0.7146,16.4324 0.7147,16.5802 0.7147,15.7758 0.7146,14.0653 0.7147,11.547 0.7147,8.3654 0.7146,4.7032 0.7147,0.7705 0.7147,-3.2065 0.7146,-6.9998 0.7147,-10.3914 0.7147,-13.1865 0.7146,-15.2245 0.7147,-16.3886 0.7147,-16.6116 0.7146,-15.8806 0.7147,-14.2376 0.7147,-11.7767 0.7146,-8.6391 0.7147,-5.005 0.7147,-1.0827 0.7146,2.9025 0.7147,6.7219 0.7147,10.1561 0.7146,13.0079 0.7147,15.1135 0.7147,16.3518 0.7146,16.6514 0.7147,15.9951 0.7147,14.4201 0.7146,12.0165 0.7147,8.9221 0.7147,5.3142 0.7146,1.3997 0.7147,-2.5967 0.7147,-6.4457 0.7146,-9.9265 0.7147,-12.839 0.7147,-15.0156 0.7146,-16.3314 0.7147,-16.7102 0.7147,-16.1296 0.7146,-14.6227 0.7147,-12.2753 0.7147,-9.2214 0.7146,-5.636 0.7147,-1.7245 0.7147,2.2889 0.7146,6.1742 0.7147,9.708 0.7147,12.6874 0.7146,14.941 0.7147,16.3388 0.7147,16.7998 0.7146,16.2968 0.7147,14.8575 0.7147,12.5637 0.7146,9.5461 0.7147,5.9769 0.7147,2.0606 0.7146,-1.9789 0.7147,-5.9097 0.7147,-9.5064 0.7146,-12.5619 0.7147,-14.9004 0.7147,-16.3867 0.7146,-16.9343 0.7147,-16.5104 0.7147,-15.1379 0.7146,-12.8941 0.7147,-9.9063 0.7147,-6.3445 0.7146,-2.4124 0.7147,1.6653 0.7147,5.6548 0.7146,9.3272 0.7147,12.4712 0.7147,14.9051 0.7146,16.4883 0.7147,17.128 0.7147,16.7855 0.7146,15.4784 0.7147,13.2795 0.7147,10.3129 0.7146,6.7472 0.7147,2.7853 0.7147,-1.3463 0.7146,-5.4111 0.7147,-9.1756 0.7147,-12.4233 0.7146,-14.9661 0.7147,-16.6566 0.7147,-17.395 0.7146,-17.1367 0.7147,-15.8933 0.7147,-13.7332 0.7146,-10.7778 0.7147,-7.1939 0.7147,-3.1854 0.7146,1.0191 0.7147,5.1791 0.7147,9.0557 0.7146,12.4253 0.7147,15.0931 0.7147,16.9032 0.7146,17.7489 0.7147,17.5779 0.7147,16.3963 0.7146,14.2682 0.7147,11.3119 0.7147,7.6939 0.7146,3.6192 0.7147,-0.6802 0.7147,-4.9583 0.7146,-8.9697 0.7147,-12.4828 0.7147,-15.2937 0.7146,-17.2382 0.7147,-18.2005 0.7147,-18.1212 0.7146,-16.9998 0.7147,-14.896 0.7147,-11.926 0.7146,-8.2559 0.7147,-4.0935 0.7147,0.3251 0.7146,4.747 0.7147,8.9185 0.7147,12.5986 0.7146,15.5735 0.7147,17.6685 0.7147,18.7587 0.7146,18.7759 0.7147,17.7135 0.7147,15.6264 0.7146,12.6288 0.7147,8.8881 0.7147,4.6147 0.7146,0.0511 0.7147,-4.542 0.7147,-8.9008 0.7146,-12.7735 0.7147,-15.9345 0.7147,-18.198 0.7146,-19.4283 0.7147,-19.5481 0.7147,-18.5438 0.7146,-16.4662 0.7147,-13.4276 0.7147,-9.5969 0.7146,-5.1889 0.7147,-0.4537 0.7147,4.3388 0.7146,8.9132 0.7147,13.0052 0.7147,16.3758 0.7146,18.8266 0.7147,20.2102 0.7147,20.4396 0.7146,19.4938 0.7147,17.4188 0.7147,14.3263 0.7146,10.3869 0.7147,5.8214 0.7147,0.8879 0.7146,-4.1321 0.7147,-8.9505 0.7147,-13.2883 0.7146,-16.8924 0.7147,-19.55 0.7147,-21.1009 0.7146,-21.4478 0.7147,-20.5615 0.7147,-18.4839 0.7146,-15.3257 0.7147,-11.2604 0.7147,-6.5155 0.7146,-1.3588 0.7147,3.9157 0.7147,9.0052 0.7146,13.615 0.7147,17.4757 0.7147,20.3594 0.7146,22.092 0.7147,22.5648 0.7147,21.7405 0.7146,19.6566 0.7147,16.4228 0.7147,12.2168 0.7146,7.273 0.7147,1.8706 0.7147,-3.683 0.7146,-9.0684 0.7147,-13.9743 0.7147,-18.1136 0.7146,-21.2418 0.7147,-23.1702 0.7147,-23.7779 0.7146,-23.0194 0.7147,-20.927 0.7147,-17.6108 0.7146,-13.252 0.7147,-8.0935 0.7147,-2.4262 0.7146,3.427 0.7147,9.1302 0.7147,14.353 0.7146,18.7904 0.7147,22.1799 0.7147,24.3175 0.7146,25.0695 0.7147,24.3815 0.7147,22.2811 0.7146,18.8783 0.7147,14.3585 0.7147,8.9738 0.7146,3.0275 0.7147,-3.1416 0.7147,-9.1793 0.7146,-14.7362 0.7147,-19.4876 0.7147,-23.1529 0.7146,-25.5115 0.7147,-26.4171 0.7147,-25.8055 0.7146,-23.6998 0.7147,-20.2097 0.7147,-15.5254 0.7146,-9.9081 0.7147,-3.6742 0.7147,2.821 0.7146,9.2046 0.7147,15.1073 0.7147,20.1845 0.7146,24.1365 0.7147,26.7264 0.7147,27.794 0.7146,27.2658 0.7147,25.1598 0.7147,21.5855 0.7146,16.7381 0.7147,10.8876 0.7147,4.3641 0.7146,-2.4607 0.7147,-9.1951 0.7147,-15.4492 0.7146,-20.8587 0.7147,-25.1045 0.7147,-27.933 0.7146,-29.1702 0.7147,-28.7328 0.7147,-26.634 0.7146,-22.9827 0.7147,-17.9786 0.7147,-11.9007 0.7146,-5.0927 0.7147,2.0579 0.7147,9.1402 0.7146,15.7449 0.7147,21.487 0.7147,26.029 0.7146,29.1002 0.7147,30.513 0.7147,30.1745 0.7146,28.0923 0.7147,24.3749 0.7147,19.2259 0.7146,12.9335 0.7147,5.853 0.7147,-1.6114 0.7146,-9.0312 0.7147,-15.9777 0.7147,-22.0465 0.7146,-26.8816 0.7147,-30.1959 0.7147,-31.7884 0.7146,-31.5566 0.7147,-29.5024 0.7147,-25.7335 0.7146,-20.457 0.7147,-13.9688 0.7147,-6.6363 0.7146,1.1222 0.7147,8.8607 0.7147,16.1327 0.7146,22.515 0.7147,27.6345 0.7147,31.1881 0.7146,32.9621 0.7147,32.8442 0.7147,30.8309 0.7146,27.0285 0.7147,21.6468 0.7147,14.9883 0.7146,7.4311 0.7147,-0.5932 0.7147,-8.6238 0.7146,-16.1966 0.7147,-22.8725 0.7147,-28.2615 0.7146,-32.0461 0.7147,-34.0005 0.7147,-34.003 0.7146,-32.0446 0.7147,-28.2293 0.7147,-22.7691 0.7146,-15.9721 0.7147,-8.2247 0.7147,0.03 0.7146,8.3174 0.7147,16.1593 0.7147,23.1014 0.7146,28.7389 0.7147,32.7418 0.7147,34.8722 0.7146,35.0003 0.7147,33.1111 0.7147,29.3062 0.7146,23.7983 0.7147,16.8993 0.7147,9.0026 0.7146,0.5605 0.7147,-7.9417 0.7147,-16.0133 0.7146,-23.1874 0.7147,-29.0471 0.7147,-33.2502 0.7146,-35.5494 0.7147,-35.8064 0.7147,-34.0008 0.7146,-30.2309 0.7147,-24.7092 0.7147,-17.7494 0.7146,-9.7497 0.7147,-1.1691 0.7147,7.499 0.7146,15.7546 0.7147,23.1206 0.7147,29.17 0.7146,33.5514 0.7147,36.0085 0.7147,36.396 0.7146,34.6876 0.7147,30.9784 0.7147,25.4785 0.7146,18.5027 0.7147,10.4506 0.7147,1.7852 0.7146,-6.9946 0.7147,-15.3827 0.7147,-22.895 0.7146,-29.0973 0.7147,-33.6305 0.7147,-36.2315 0.7146,-36.7486 0.7147,-35.1504 0.7147,-31.5271 0.7146,-26.0865 0.7147,-19.1409 0.7147,-11.0902 0.7146,-2.3976 0.7147,6.4358 0.7147,14.9009 0.7146,22.5098 0.7147,28.8237 0.7147,33.4788 0.7146,36.2067 0.7147,36.8503 0.7147,35.3733 0.7146,31.861 0.7147,26.5165 0.7147,19.6489 0.7146,11.6543 0.7147,2.9941 0.7147,-5.832 0.7146,-14.3158 0.7147,-21.9684 0.7147,-28.3501 0.7146,-33.0941 0.7147,-35.9291 0.7147,-36.6941 0.7146,-35.3472 0.7147,-31.9692 0.7147,-26.7571 0.7146,-20.0141 0.7147,-12.1309 0.7147,-3.5631 0.7146,5.1944 0.7147,13.6371 0.7147,21.2794 0.7146,27.6827 0.7147,32.481 0.7147,35.4014 0.7146,36.2797 0.7147,35.0702 0.7147,31.8475 0.7146,26.8019 0.7147,20.2286 0.7147,12.5099 0.7146,4.0933 0.7147,-4.535 0.7147,-12.8775 0.7146,-20.4551 0.7147,-26.834 0.7147,-31.6506 0.7146,-34.6329 0.7147,-35.6152 0.7147,-34.5475 0.7146,-31.4984 0.7147,-26.6504 0.7147,-20.2885 0.7146,-12.7848 0.7147,-4.5748 0.7147,3.8663 0.7146,12.0518 0.7147,19.5123 0.7147,25.8212 0.7146,30.6205 0.7147,33.6406 0.7147,34.7155 0.7146,33.7918 0.7147,30.9316 0.7147,26.308 0.7146,20.1953 0.7147,12.952 0.7147,4.9996 0.7146,-3.2007 0.7147,-11.1766 0.7147,-18.4704 0.7146,-24.6664 0.7147,-29.414 0.7147,-32.4481 0.7146,-33.6031 0.7147,-32.8229 0.7147,-30.1631 0.7146,-25.7867 0.7147,-19.9553 0.7147,-13.0119 0.7146,-5.3622 0.7147,2.5501 0.7147,10.2689 0.7146,17.3517 0.7147,23.3956 0.7147,28.0596 0.7146,31.0845 0.7147,32.3066 0.7147,31.6676 0.7146,29.2159 0.7147,25.1042 0.7147,19.5798 0.7146,12.9692 0.7147,5.6595 0.7147,-1.9249 0.7146,-9.3463 0.7147,-16.18 0.7147,-22.0376 0.7146,-26.5896 0.7147,-29.5842 0.7147,-30.8605 0.7146,-30.3581 0.7147,-28.1186 0.7147,-24.2837 0.7146,-19.0854 0.7147,-12.8323 0.7147,-5.8915 0.7146,1.3336 0.7147,8.4259 0.7147,14.9797 0.7146,20.623 0.7147,25.0395 0.7147,27.9853 0.7146,29.3035 0.7147,28.9316 0.7147,26.9049 0.7146,23.3532 0.7147,18.4929 0.7147,12.6136 0.7146,6.0614 0.7147,-0.7826 0.7147,-7.5233 0.7146,-13.7749 0.7147,-19.1836 0.7147,-23.4461 0.7146,-26.3284 0.7147,-27.6774 0.7147,-27.4291 0.7146,-25.6121 0.7147,-22.3447 0.7147,-17.8269 0.7146,-12.3291 0.7147,-6.1753 0.7147,0.2759 0.7146,6.6522 0.7147,12.589 0.7147,17.75 0.7146,21.847 0.7147,24.655 0.7147,26.0255 0.7146,25.8934 0.7147,24.2803 0.7147,21.2928 0.7146,17.1151 0.7147,11.9976 0.7147,6.2425 0.7146,0.1853 0.7147,-5.8244 0.7147,-11.4427 0.7146,-16.352 0.7147,-20.2783 0.7147,-23.0063 0.7146,-24.3914 0.7147,-24.3678 0.7147,-22.9504 0.7146,-20.2341 0.7147,-16.3869 0.7147,-11.6402 0.7146,-6.2744 0.7147,-0.6024 0.7147,5.0483 0.7146,10.3546 0.7147,15.0167 0.7147,18.774 0.7146,21.421 0.7147,22.8171 0.7147,22.8948 0.7146,21.663 0.7147,19.2046 0.7147,15.6727 0.7146,11.2795 0.7147,6.2846 0.7147,0.9795 0.7146,-4.3299 0.7147,-9.3398 0.7147,-13.7671 0.7146,-17.3647 0.7147,-19.9349 0.7147,-21.3411 0.7146,-21.5143 0.7147,-20.4563 0.7147,-18.2398 0.7146,-15.0022 0.7147,-10.9383 0.7147,-6.2882 0.7146,-1.3226 0.7147,3.6717 0.7147,8.4095 0.7146,12.6228 0.7147,16.0759 0.7147,18.5789 0.7146,19.9978 0.7147,20.2614 0.7147,19.3655 0.7146,17.3717 0.7147,14.4034 0.7147,10.6392 0.7146,6.3005 0.7147,1.64 0.7147,-3.0737 0.7146,-7.571 0.7147,-11.5978 0.7147,-14.928 0.7146,-17.378 0.7147,-18.8152 0.7147,-19.1663 0.7146,-18.4203 0.7147,-16.6284 0.7147,-13.9016 0.7146,-10.4025 0.7147,-6.3369 0.7147,-1.9409 0.7146,2.5326 0.7147,6.8276 0.7147,10.7011 0.7146,13.9351 0.7147,16.3504 0.7147,17.8148 0.7146,18.2519 0.7147,17.6441 0.7147,16.033 0.7146,13.5172 0.7147,10.2464 0.7147,6.4116 0.7146,2.2351 0.7147,-2.0431 0.7147,-6.1784 0.7146,-9.9363 0.7147,-13.1048 0.7147,-15.5069 0.7146,-17.01 0.7147,-17.5336 0.7147,-17.0532 0.7146,-15.6014 0.7147,-13.2661 0.7147,-10.1849 0.7146,-6.5368 0.7147,-2.5326 0.7147,1.598 0.7146,5.619 0.7147,9.3018 0.7147,12.4378 0.7146,14.8507 0.7147,16.406 0.7147,17.018 0.7146,16.6556 0.7147,15.3428 0.7147,13.1576 0.7146,10.2276 0.7147,6.722 0.7147,2.8424 0.7146,-1.1889 0.7147,-5.1415 0.7147,-8.7906 0.7146,-11.9285 0.7147,-14.3775 0.7147,-15.9994 0.7146,-16.7034 0.7147,-16.4509 0.7147,-15.2581 0.7146,-13.1944 0.7147,-10.3789 0.7147,-6.9731 0.7146,-3.1722 0.7147,0.8066 0.7147,4.736 0.7146,8.3915 0.7147,11.565 0.7147,14.075 0.7146,15.7788 0.7147,16.5791 0.7147,16.4301 0.7146,15.3404 0.7147,13.3722 0.7147,10.6375 0.7146,7.2922 0.7147,3.5274 0.7147,-0.4424 0.7146,-4.3899 0.7147,-8.0897 0.7147,-11.33 0.7146,-13.9248 0.7147,-15.7249 0.7147,-16.6261 0.7146,-16.5758 0.7147,-15.575 0.7147,-13.6795 0.7146,-10.9961 0.7147,-7.6769 0.7147,-3.9107 0.7146,0.0878 0.7147,4.0902 0.7147,7.8672 0.7146,11.2019 0.7147,13.9021 0.7147,15.8116 0.7146,16.8185 0.7147,16.8629 0.7147,15.9394 0.7146,14.0981 0.7147,11.4418 0.7147,8.1204 0.7146,4.3223 0.7147,0.2637 0.7147,-3.8232 0.7146,-7.7042 0.7147,-11.1556 0.7147,-13.978 0.7146,-16.0071 0.7147,-17.1237 0.7147,-17.2601 0.7146,-16.405 0.7147,-14.6038 0.7147,-11.9563 0.7146,-8.6114 0.7147,-4.7585 0.7147,-0.6171 0.7146,3.576 0.7147,7.5799 0.7147,11.1639 0.7146,14.12 0.7147,16.276 0.7147,17.5043 0.7146,17.7307 0.7147,16.9378 0.7147,15.1673 0.7146,12.5165 0.7147,9.1347 0.7147,5.213 0.7146,0.9752 0.7147,-3.3366 0.7147,-7.4742 0.7146,-11.1988 0.7147,-14.2943 0.7147,-16.5799 0.7146,-17.9203 0.7147,-18.2346 0.7147,-17.5004 0.7146,-15.7555 0.7147,-13.0962 0.7147,-9.6717 0.7146,-5.6765 0.7147,-1.338 0.7147,3.0952 0.7146,7.3677 0.7147,11.2332 0.7147,14.4669 0.7146,16.8802 0.7147,18.3305 0.7147,18.7307 0.7146,18.0533 0.7147,16.3336 0.7147,13.6663 0.7146,10.2019 0.7147,6.1369 0.7147,1.7036 0.7146,-2.844 0.7147,-7.2437 0.7147,-11.2417 0.7146,-14.6058 0.7147,-17.1399 0.7147,-18.695 0.7146,-19.1781 0.7147,-18.5579 0.7147,-16.8663 0.7146,-14.1979 0.7147,-10.703 0.7147,-6.581 0.7146,-2.0675 0.7147,2.5779 0.7147,7.0882 0.7146,11.2025 0.7147,14.6823 0.7147,17.3255 0.7146,18.9771 0.7147,19.5396 0.7147,18.9776 0.7146,17.3208 0.7147,14.6626 0.7147,11.1535 0.7146,6.9946 0.7147,2.4241 0.7147,-2.2949 0.7146,-6.8908 0.7147,-11.0979 0.7147,-14.673 0.7146,-17.4088 0.7147,-19.146 0.7147,-19.783 0.7146,-19.2812 0.7147,-17.6682 0.7147,-15.0355 0.7146,-11.5338 0.7147,-7.3642 0.7147,-2.7662 0.7146,1.995 0.7147,6.6452 0.7147,10.916 0.7146,14.5608 0.7147,17.3689 0.7147,19.1783 0.7146,19.8839 0.7147,19.4447 0.7147,17.8859 0.7146,15.2973 0.7147,11.8278 0.7147,7.678 0.7146,3.0869 0.7147,-1.6806 0.7147,-6.3493 0.7146,-10.6505 0.7147,-14.336 0.7147,-17.194 0.7146,-19.0601 0.7147,-19.8279 0.7147,-19.4536 0.7146,-17.9604 0.7147,-15.4353 0.7147,-12.0253 0.7146,-7.9277 0.7147,-3.38 0.7147,1.3554 0.7146,6.0052 0.7147,10.3016 0.7147,13.9977 0.7146,16.8818 0.7147,18.7891 0.7147,19.6118 0.7146,19.305 0.7147,17.8886 0.7147,15.4469 0.7146,12.1228 0.7147,8.1102 0.7147,3.6416 0.7146,-1.0241 0.7147,-5.6182 0.7147,-9.8762 0.7146,-13.5537 0.7147,-16.4413 0.7147,-18.3749 0.7146,-19.2464 0.7147,-19.0089 0.7147,-17.6802 0.7146,-15.3399 0.7147,-12.1268 0.7147,-8.2283 0.7146,-3.8716 0.7147,0.6912 0.7147,5.1971 0.4168,5.4749"
         style="stroke:#d40000;stroke-width:2.6076094;stroke-miterlimit:4;stroke-dasharray:none;stroke-opacity:1" />
    </g>
    <text
       xml:space="preserve"
       style="font-style:normal;font-variant:normal;font-weight:normal;font-stretch:normal;font-size:92.79473877px;line-height:125%;font-family:'Nimbus Sans L';-inkscape-font-specification:Sans;letter-spacing:0px;word-spacing:0px;fill:#000000;fill-opacity:1;stroke:none"
       x="554.47369"
       y="989.88861"
       id="text4358"
       sodipodi:linespacing="125%"><tspan
         sodipodi:role="line"
         id="tspan4360"
         x="554.47369"
         y="989.88861">$t$</tspan></text>
    <text
       xml:space="preserve"
       style="font-style:normal;font-variant:normal;font-weight:normal;font-stretch:normal;font-size:92.79473877px;line-height:125%;font-family:'Nimbus Sans L';-inkscape-font-specification:Sans;letter-spacing:0px;word-spacing:0px;fill:#000000;fill-opacity:1;stroke:none"
       x="-831.64612"
       y="715.41199"
       id="text4571"
       sodipodi:linespacing="125%"><tspan
         sodipodi:role="line"
         id="tspan4573"
         x="-831.64612"
         y="715.41199">$E(t)$</tspan></text>
    <text
       xml:space="preserve"
       style="font-style:normal;font-variant:normal;font-weight:normal;font-stretch:normal;font-size:92.79473877px;line-height:125%;font-family:'Nimbus Sans L';-inkscape-font-specification:Sans;letter-spacing:0px;word-spacing:0px;fill:#000000;fill-opacity:1;stroke:none"
       x="2152.2671"
       y="989.88861"
       id="text4358-9"
       sodipodi:linespacing="125%"><tspan
         sodipodi:role="line"
         id="tspan4360-3"
         x="2152.2671"
         y="989.88861">$t$</tspan></text>
    <text
       xml:space="preserve"
       style="font-style:normal;font-variant:normal;font-weight:normal;font-stretch:normal;font-size:92.79473877px;line-height:125%;font-family:'Nimbus Sans L';-inkscape-font-specification:Sans;letter-spacing:0px;word-spacing:0px;fill:#000000;fill-opacity:1;stroke:none"
       x="766.14728"
       y="715.41199"
       id="text4571-6"
       sodipodi:linespacing="125%"><tspan
         sodipodi:role="line"
         id="tspan4573-0"
         x="766.14728"
         y="715.41199">$E(t)$</tspan></text>
  </g>
</svg>
