<?xml version="1.0" encoding="UTF-8" standalone="no"?>
<!-- generated by Grace-5.1.23 -->

<svg
   xmlns:dc="http://purl.org/dc/elements/1.1/"
   xmlns:cc="http://creativecommons.org/ns#"
   xmlns:rdf="http://www.w3.org/1999/02/22-rdf-syntax-ns#"
   xmlns:svg="http://www.w3.org/2000/svg"
   xmlns="http://www.w3.org/2000/svg"
   xmlns:sodipodi="http://sodipodi.sourceforge.net/DTD/sodipodi-0.dtd"
   xmlns:inkscape="http://www.inkscape.org/namespaces/inkscape"
   xml:space="preserve"
   width="11.6933in"
   height="8.2633in"
   viewBox="0.0000 0.0000 841.9200 594.9600"
   id="svg2"
   version="1.1"
   inkscape:version="0.48.4 r9939"
   sodipodi:docname="09_AM.pdf"><metadata
     id="metadata22"><rdf:RDF><cc:Work
         rdf:about=""><dc:format>image/svg+xml</dc:format><dc:type
           rdf:resource="http://purl.org/dc/dcmitype/StillImage" /><dc:title></dc:title></cc:Work></rdf:RDF></metadata><defs
     id="defs20" /><sodipodi:namedview
     pagecolor="#ffffff"
     bordercolor="#666666"
     borderopacity="1"
     objecttolerance="10"
     gridtolerance="10"
     guidetolerance="10"
     inkscape:pageopacity="0"
     inkscape:pageshadow="2"
     inkscape:window-width="1164"
     inkscape:window-height="783"
     id="namedview18"
     showgrid="false"
     inkscape:zoom="1.0072245"
     inkscape:cx="383.6413"
     inkscape:cy="439.3411"
     inkscape:window-x="480"
     inkscape:window-y="142"
     inkscape:window-maximized="0"
     inkscape:current-layer="svg2" /><g
     transform="matrix(1,0,0,-1,-78.63224,650.55855)"
     id="g4"><g
       style="fill:#ffffff;fill-rule:nonzero"
       id="g6" /><g
       style="fill:none;stroke:#000000;stroke-width:1.78489995;stroke-linecap:butt;stroke-linejoin:miter;stroke-dasharray:none"
       id="g10"><path
         d="m 89.244,297.48 0.5956,16.5156 0.5955,15.567 0.5956,13.7242 0.5955,11.0932 0.5956,7.8249 0.5955,4.1072 0.5956,0.1536 0.5955,-3.8087 0.5956,-7.5525 0.5956,-10.8622 0.5955,-13.5483 0.5956,-15.456 0.5955,-16.4761 0.5956,-16.5497 0.5955,-15.6729 0.5956,-13.8959 0.5955,-11.3206 0.5956,-8.0952 0.5956,-4.4049 0.5955,-0.4613 0.5956,3.5086 0.5955,7.2772 0.5956,10.6278 0.5955,13.3682 0.5956,15.3407 0.5955,16.4324 0.5956,16.5802 0.5956,15.7758 0.5955,14.0653 0.5956,11.547 0.5955,8.3654 0.5956,4.7032 0.5955,0.7705 0.5956,-3.2065 0.5955,-6.9998 0.5956,-10.3914 0.5956,-13.1865 0.5955,-15.2245 0.5956,-16.3886 0.5955,-16.6116 0.5956,-15.8806 0.5955,-14.2376 0.5956,-11.7767 0.5955,-8.6391 0.5956,-5.005 0.5956,-1.0827 0.5955,2.9025 0.5956,6.7219 0.5955,10.1561 0.5956,13.0079 0.5955,15.1135 0.5956,16.3518 0.5955,16.6514 0.5956,15.9951 0.5956,14.4201 0.5955,12.0165 0.5956,8.9221 0.5955,5.3142 0.5956,1.3997 0.5955,-2.5967 0.5956,-6.4457 0.5955,-9.9265 0.5956,-12.839 0.5956,-15.0156 0.5955,-16.3314 0.5956,-16.7102 0.5955,-16.1296 0.5956,-14.6227 0.5955,-12.2753 0.5956,-9.2214 0.5955,-5.636 0.5956,-1.7245 0.5956,2.2889 0.5955,6.1742 0.5956,9.708 0.5955,12.6874 0.5956,14.941 0.5955,16.3388 0.5956,16.7998 0.5955,16.2968 0.5956,14.8575 0.5956,12.5637 0.5955,9.5461 0.5956,5.9769 0.5955,2.0606 0.5956,-1.9789 0.5955,-5.9097 0.5956,-9.5064 0.5955,-12.5619 0.5956,-14.9004 0.5956,-16.3867 0.5955,-16.9343 0.5956,-16.5104 0.5955,-15.1379 0.5956,-12.8941 0.5955,-9.9063 0.5956,-6.3445 0.5955,-2.4124 0.5956,1.6653 0.5956,5.6548 0.5955,9.3272 0.5956,12.4712 0.5955,14.9051 0.5956,16.4883 0.5955,17.128 0.5956,16.7855 0.5955,15.4784 0.5956,13.2795 0.5956,10.3129 0.5955,6.7472 0.5956,2.7853 0.5955,-1.3463 0.5956,-5.4111 0.5955,-9.1756 0.5956,-12.4233 0.5955,-14.9661 0.5956,-16.6566 0.5956,-17.395 0.5955,-17.1367 0.5956,-15.8933 0.5955,-13.7332 0.5956,-10.7778 0.5955,-7.1939 0.5956,-3.1854 0.5955,1.0191 0.5956,5.1791 0.5956,9.0557 0.5955,12.4253 0.5956,15.0931 0.5955,16.9032 0.5956,17.7489 0.5955,17.5779 0.5956,16.3963 0.5955,14.2682 0.5956,11.3119 0.5956,7.6939 0.5955,3.6192 0.5956,-0.6802 0.5955,-4.9583 0.5956,-8.9697 0.5955,-12.4828 0.5956,-15.2937 0.5955,-17.2382 0.5956,-18.2005 0.5956,-18.1212 0.5955,-16.9998 0.5956,-14.896 0.5955,-11.926 0.5956,-8.2559 0.5955,-4.0935 0.5956,0.3251 0.5955,4.747 0.5956,8.9185 0.5956,12.5986 0.5955,15.5735 0.5956,17.6685 0.5955,18.7587 0.5956,18.7759 0.5955,17.7135 0.5956,15.6264 0.5955,12.6288 0.5956,8.8881 0.5956,4.6147 0.5955,0.0511 0.5956,-4.542 0.5955,-8.9008 0.5956,-12.7735 0.5955,-15.9345 0.5956,-18.198 0.5955,-19.4283 0.5956,-19.5481 0.5956,-18.5438 0.5955,-16.4662 0.5956,-13.4276 0.5955,-9.5969 0.5956,-5.1889 0.5955,-0.4537 0.5956,4.3388 0.5955,8.9132 0.5956,13.0052 0.5956,16.3758 0.5955,18.8266 0.5956,20.2102 0.5955,20.4396 0.5956,19.4938 0.5955,17.4188 0.5956,14.3263 0.5955,10.3869 0.5956,5.8214 0.5956,0.8879 0.5955,-4.1321 0.5956,-8.9505 0.5955,-13.2883 0.5956,-16.8924 0.5955,-19.55 0.5956,-21.1009 0.5955,-21.4478 0.5956,-20.5615 0.5956,-18.4839 0.5955,-15.3257 0.5956,-11.2604 0.5955,-6.5155 0.5956,-1.3588 0.5955,3.9157 0.5956,9.0052 0.5955,13.615 0.5956,17.4757 0.5956,20.3594 0.5955,22.092 0.5956,22.5648 0.5955,21.7405 0.5956,19.6566 0.5955,16.4228 0.5956,12.2168 0.5955,7.273 0.5956,1.8706 0.5956,-3.683 0.5955,-9.0684 0.5956,-13.9743 0.5955,-18.1136 0.5956,-21.2418 0.5955,-23.1702 0.5956,-23.7779 0.5955,-23.0194 0.5956,-20.927 0.5956,-17.6108 0.5955,-13.252 0.5956,-8.0935 0.5955,-2.4262 0.5956,3.427 0.5955,9.1302 0.5956,14.353 0.5955,18.7904 0.5956,22.1799 0.5956,24.3175 0.5955,25.0695 0.5956,24.3815 0.5955,22.2811 0.5956,18.8783 0.5955,14.3585 0.5956,8.9738 0.5955,3.0275 0.5956,-3.1416 0.5956,-9.1793 0.5955,-14.7362 0.5956,-19.4876 0.5955,-23.1529 0.5956,-25.5115 0.5955,-26.4171 0.5956,-25.8055 0.5955,-23.6998 0.5956,-20.2097 0.5956,-15.5254 0.5955,-9.9081 0.5956,-3.6742 0.5955,2.821 0.5956,9.2046 0.5955,15.1073 0.5956,20.1845 0.5955,24.1365 0.5956,26.7264 0.5956,27.794 0.5955,27.2658 0.5956,25.1598 0.5955,21.5855 0.5956,16.7381 0.5955,10.8876 0.5956,4.3641 0.5955,-2.4607 0.5956,-9.1951 0.5956,-15.4492 0.5955,-20.8587 0.5956,-25.1045 0.5955,-27.933 0.5956,-29.1702 0.5955,-28.7328 0.5956,-26.634 0.5955,-22.9827 0.5956,-17.9786 0.5956,-11.9007 0.5955,-5.0927 0.5956,2.0579 0.5955,9.1402 0.5956,15.7449 0.5955,21.487 0.5956,26.029 0.5955,29.1002 0.5956,30.513 0.5956,30.1745 0.5955,28.0923 0.5956,24.3749 0.5955,19.2259 0.5956,12.9335 0.5955,5.853 0.5956,-1.6114 0.5955,-9.0312 0.5956,-15.9777 0.5956,-22.0465 0.5955,-26.8816 0.5956,-30.1959 0.5955,-31.7884 0.5956,-31.5566 0.5955,-29.5024 0.5956,-25.7335 0.5955,-20.457 0.5956,-13.9688 0.5956,-6.6363 0.5955,1.1222 0.5956,8.8607 0.5955,16.1327 0.5956,22.515 0.5955,27.6345 0.5956,31.1881 0.5955,32.9621 0.5956,32.8442 0.5956,30.8309 0.5955,27.0285 0.5956,21.6468 0.5955,14.9884 0.5956,7.431 0.5955,-0.5932 0.5956,-8.6238 0.5955,-16.1966 0.5956,-22.8725 0.5956,-28.2615 0.5955,-32.0461 0.5956,-34.0005 0.5955,-34.003 0.5956,-32.0446 0.5955,-28.2293 0.5956,-22.7691 0.5955,-15.9721 0.5956,-8.2247 0.5956,0.03 0.5955,8.3174 0.5956,16.1593 0.5955,23.1014 0.5956,28.7389 0.5955,32.7418 0.5956,34.8722 0.5955,35.0003 0.5956,33.1111 0.5956,29.3062 0.5955,23.7983 0.5956,16.8993 0.5955,9.0026 0.5956,0.5605 0.5955,-7.9417 0.5956,-16.0133 0.5955,-23.1874 0.5956,-29.0471 0.5956,-33.2502 0.5955,-35.5494 0.5956,-35.8064 0.5955,-34.0008 0.5956,-30.2309 0.5955,-24.7092 0.5956,-17.7494 0.5955,-9.7497 0.5956,-1.1691 0.5956,7.499 0.5955,15.7546 0.5956,23.1206 0.5955,29.17 0.5956,33.5514 0.5955,36.0085 0.5956,36.396 0.5955,34.6876 0.5956,30.9783 0.5956,25.4786 0.5955,18.5027 0.5956,10.4506 0.5955,1.7852 0.5956,-6.9946 0.5955,-15.3827 0.5956,-22.895 0.5955,-29.0973 0.5956,-33.6305 0.5956,-36.2315 0.5955,-36.7486 0.5956,-35.1504 0.5955,-31.5271 0.5956,-26.0865 0.5955,-19.1409 0.5956,-11.0902 0.5955,-2.3976 0.5956,6.4358 0.5956,14.9009 0.5955,22.5098 0.5956,28.8237 0.5955,33.4788 0.5956,36.2067 0.5955,36.8503 0.5956,35.3733 0.5955,31.861 0.5956,26.5165 0.5956,19.6489 0.5955,11.6543 0.5956,2.9941 0.5955,-5.832 0.5956,-14.3158 0.5955,-21.9684 0.5956,-28.3501 0.5955,-33.0941 0.5956,-35.9291 0.5956,-36.6941 0.5955,-35.3472 0.5956,-31.9692 0.5955,-26.7571 0.5956,-20.0141 0.5955,-12.1309 0.5956,-3.5631 0.5955,5.1944 0.5956,13.6371 0.5956,21.2794 0.5955,27.6827 0.5956,32.481 0.5955,35.4014 0.5956,36.2797 0.5955,35.0702 0.5956,31.8475 0.5955,26.8019 0.5956,20.2286 0.5956,12.5099 0.5955,4.0933 0.5956,-4.535 0.5955,-12.8775 0.5956,-20.4551 0.5955,-26.834 0.5956,-31.6506 0.5955,-34.6329 0.5956,-35.6152 0.5956,-34.5475 0.5955,-31.4984 0.5956,-26.6504 0.5955,-20.2885 0.5956,-12.7848 0.5955,-4.5748 0.5956,3.8663 0.5955,12.0518 0.5956,19.5123 0.5956,25.8212 0.5955,30.6205 0.5956,33.6406 0.5955,34.7155 0.5956,33.7918 0.5955,30.9316 0.5956,26.308 0.5955,20.1953 0.5956,12.952 0.5956,4.9996 0.5955,-3.2007 0.5956,-11.1766 0.5955,-18.4704 0.5956,-24.6664 0.5955,-29.414 0.5956,-32.4481 0.5955,-33.6031 0.5956,-32.8229 0.5956,-30.1631 0.5955,-25.7867 0.5956,-19.9553 0.5955,-13.0119 0.5956,-5.3622 0.5955,2.5501 0.5956,10.2689 0.5955,17.3517 0.5956,23.3956 0.5956,28.0596 0.5955,31.0845 0.5956,32.3066 0.5955,31.6676 0.5956,29.2159 0.5955,25.1042 0.5956,19.5798 0.5955,12.9692 0.5956,5.6595 0.5956,-1.9249 0.5955,-9.3463 0.5956,-16.18 0.5955,-22.0376 0.5956,-26.5896 0.5955,-29.5842 0.5956,-30.8605 0.5955,-30.3581 0.5956,-28.1186 0.5956,-24.2837 0.5955,-19.0854 0.5956,-12.8323 0.5955,-5.8915 0.5956,1.3336 0.5955,8.4259 0.5956,14.9797 0.5955,20.623 0.5956,25.0395 0.5956,27.9853 0.5955,29.3035 0.5956,28.9316 0.5955,26.9049 0.5956,23.3532 0.5955,18.4929 0.5956,12.6136 0.5955,6.0614 0.5956,-0.7826 0.5956,-7.5233 0.5955,-13.7749 0.5956,-19.1836 0.5955,-23.4461 0.5956,-26.3284 0.5955,-27.6774 0.5956,-27.4291 0.5955,-25.6121 0.5956,-22.3447 0.5956,-17.8269 0.5955,-12.3291 0.5956,-6.1753 0.5955,0.2759 0.5956,6.6522 0.5955,12.589 0.5956,17.75 0.5955,21.847 0.5956,24.655 0.5956,26.0255 0.5955,25.8934 0.5956,24.2803 0.5955,21.2928 0.5956,17.1151 0.5955,11.9976 0.5956,6.2425 0.5955,0.1853 0.5956,-5.8244 0.5956,-11.4427 0.5955,-16.352 0.5956,-20.2783 0.5955,-23.0063 0.5956,-24.3914 0.5955,-24.3678 0.5956,-22.9504 0.5955,-20.2341 0.5956,-16.3869 0.5956,-11.6402 0.5955,-6.2744 0.5956,-0.6024 0.5955,5.0483 0.5956,10.3546 0.5955,15.0167 0.5956,18.774 0.5955,21.421 0.5956,22.8171 0.5956,22.8948 0.5955,21.663 0.5956,19.2046 0.5955,15.6727 0.5956,11.2795 0.5955,6.2846 0.5956,0.9795 0.5955,-4.3299 0.5956,-9.3398 0.5956,-13.7671 0.5955,-17.3647 0.5956,-19.9349 0.5955,-21.3411 0.5956,-21.5143 0.5955,-20.4563 0.5956,-18.2398 0.5955,-15.0022 0.5956,-10.9383 0.5956,-6.2882 0.5955,-1.3226 0.5956,3.6717 0.5955,8.4095 0.5956,12.6228 0.5955,16.0759 0.5956,18.5789 0.5955,19.9978 0.5956,20.2614 0.5956,19.3655 0.5955,17.3717 0.5956,14.4034 0.5955,10.6392 0.5956,6.3005 0.5955,1.64 0.5956,-3.0737 0.5955,-7.571 0.5956,-11.5978 0.5956,-14.928 0.5955,-17.378 0.5956,-18.8152 0.5955,-19.1663 0.5956,-18.4203 0.5955,-16.6284 0.5956,-13.9016 0.5955,-10.4025 0.5956,-6.3369 0.5956,-1.9409 0.5955,2.5326 0.5956,6.8276 0.5955,10.7011 0.5956,13.9351 0.5955,16.3504 0.5956,17.8148 0.5955,18.2519 0.5956,17.6441 0.5956,16.033 0.5955,13.5172 0.5956,10.2464 0.5955,6.4116 0.5956,2.2351 0.5955,-2.0431 0.5956,-6.1784 0.5955,-9.9363 0.5956,-13.1048 0.5956,-15.5069 0.5955,-17.01 0.5956,-17.5336 0.5955,-17.0532 0.5956,-15.6014 0.5955,-13.2661 0.5956,-10.1849 0.5955,-6.5368 0.5956,-2.5326 0.5956,1.598 0.5955,5.619 0.5956,9.3018 0.5955,12.4378 0.5956,14.8507 0.5955,16.406 0.5956,17.018 0.5955,16.6556 0.5956,15.3428 0.5956,13.1576 0.5955,10.2276 0.5956,6.722 0.5955,2.8424 0.5956,-1.1889 0.5955,-5.1415 0.5956,-8.7906 0.5955,-11.9285 0.5956,-14.3775 0.5956,-15.9994 0.5955,-16.7034 0.5956,-16.4509 0.5955,-15.2581 0.5956,-13.1944 0.5955,-10.3789 0.5956,-6.9731 0.5955,-3.1722 0.5956,0.8066 0.5956,4.736 0.5955,8.3915 0.5956,11.565 0.5955,14.075 0.5956,15.7788 0.5955,16.5791 0.5956,16.4301 0.5955,15.3404 0.5956,13.3722 0.5956,10.6375 0.5955,7.2922 0.5956,3.5274 0.5955,-0.4424 0.5956,-4.3899 0.5955,-8.0897 0.5956,-11.33 0.5955,-13.9248 0.5956,-15.7249 0.5956,-16.6261 0.5955,-16.5758 0.5956,-15.575 0.5955,-13.6795 0.5956,-10.9961 0.5955,-7.6769 0.5956,-3.9107 0.5955,0.0878 0.5956,4.0902 0.5956,7.8672 0.5955,11.2019 0.5956,13.9021 0.5955,15.8116 0.5956,16.8185 0.5955,16.8629 0.5956,15.9394 0.5955,14.0981 0.5956,11.4418 0.5956,8.1204 0.5955,4.3223 0.5956,0.2637 0.5955,-3.8232 0.5956,-7.7042 0.5955,-11.1556 0.5956,-13.978 0.5955,-16.0071 0.5956,-17.1237 0.5956,-17.2601 0.5955,-16.405 0.5956,-14.6038 0.5955,-11.9563 0.5956,-8.6114 0.5955,-4.7585 0.5956,-0.6171 0.5955,3.576 0.5956,7.5799 0.5956,11.1639 0.5955,14.12 0.5956,16.276 0.5955,17.5043 0.5956,17.7307 0.5955,16.9378 0.5956,15.1673 0.5955,12.5165 0.5956,9.1347 0.5956,5.213 0.5955,0.9752 0.5956,-3.3366 0.5955,-7.4742 0.5956,-11.1988 0.5955,-14.2943 0.5956,-16.5799 0.5955,-17.9203 0.5956,-18.2346 0.5956,-17.5004 0.5955,-15.7555 0.5956,-13.0962 0.5955,-9.6717 0.5956,-5.6765 0.5955,-1.338 0.5956,3.0952 0.5955,7.3677 0.5956,11.2332 0.5956,14.4669 0.5955,16.8802 0.5956,18.3305 0.5955,18.7307 0.5956,18.0533 0.5955,16.3336 0.5956,13.6663 0.5955,10.2019 0.5956,6.1369 0.5956,1.7036 0.5955,-2.844 0.5956,-7.2437 0.5955,-11.2417 0.5956,-14.6058 0.5955,-17.1399 0.5956,-18.695 0.5955,-19.1781 0.5956,-18.5579 0.5956,-16.8663 0.5955,-14.1979 0.5956,-10.703 0.5955,-6.581 0.5956,-2.0675 0.5955,2.5779 0.5956,7.0882 0.5955,11.2025 0.5956,14.6823 0.5956,17.3255 0.5955,18.9771 0.5956,19.5396 0.5955,18.9776 0.5956,17.3208 0.5955,14.6626 0.5956,11.1535 0.5955,6.9946 0.5956,2.4241 0.5956,-2.2949 0.5955,-6.8908 0.5956,-11.0979 0.5955,-14.673 0.5956,-17.4088 0.5955,-19.146 0.5956,-19.783 0.5955,-19.2812 0.5956,-17.6682 0.5956,-15.0355 0.5955,-11.5338 0.5956,-7.3642 0.5955,-2.7662 0.5956,1.995 0.5955,6.6452 0.5956,10.916 0.5955,14.5608 0.5956,17.3689 0.5956,19.1783 0.5955,19.8839 0.5956,19.4447 0.5955,17.8859 0.5956,15.2973 0.5955,11.8278 0.5956,7.678 0.5955,3.0869 0.5956,-1.6806 0.5956,-6.3493 0.5955,-10.6505 0.5956,-14.336 0.5955,-17.194 0.5956,-19.0601 0.5955,-19.8279 0.5956,-19.4536 0.5955,-17.9604 0.5956,-15.4353 0.5956,-12.0253 0.5955,-7.9277 0.5956,-3.38 0.5955,1.3554 0.5956,6.0052 0.5955,10.3016 0.5956,13.9977 0.5955,16.8818 0.5956,18.7891 0.5956,19.6118 0.5955,19.305 0.5956,17.8886 0.5955,15.4469 0.5956,12.1228 0.5955,8.1102 0.5956,3.6416 0.5955,-1.0241 0.5956,-5.6182 0.5956,-9.8762 0.5955,-13.5537 0.5956,-16.4413 0.5955,-18.3749 0.5956,-19.2464 0.5955,-19.0089 0.5956,-17.6802 0.5955,-15.3399 0.5956,-12.1268 0.5956,-8.2283 0.5955,-3.8716 0.5956,0.6912 0.5955,5.1971 0.5956,9.3869 0.5955,13.0211 0.5956,15.893 0.5955,17.8406 0.5956,18.7558 0.5956,18.5905 0.5955,17.3586 0.5956,15.1355 0.5955,12.0536 0.5956,8.2935 0.5955,4.0744 0.5956,-0.3596 0.5955,-4.7524 0.5956,-8.8524 0.5956,-12.4254 0.5955,-15.2688 0.5956,-17.2229 0.5955,-18.18 0.5956,-18.0897 0.5955,-16.9628 0.5956,-14.8685 0.5955,-11.9322 0.5956,-8.3261 0.5956,-4.2605 0.5955,0.0293 0.5956,4.2962 0.5955,8.2959 0.5956,11.8004 0.5955,14.6116 0.5956,16.5719 0.5955,17.5732 0.5956,17.5631 0.5956,16.5472 0.5955,14.5885 0.5956,11.8042 0.5955,8.3572 0.5956,4.4483 0.5955,0.3032 0.5956,-3.8399 0.5955,-7.744 0.5956,-11.1872 0.5956,-13.9747 0.5955,-15.9503 0.5956,-17.0049 0.5955,-17.0822 0.5956,-16.1822 0.5955,-14.3604 0.5956,-11.7249 0.5955,-8.4293 0.5956,-4.6643 0.5956,-0.6467 0.5955,3.3934 0.5956,7.2256 0.5955,10.632 0.5956,13.42 0.5955,15.4327 0.5956,16.5577 0.5955,16.7338 0.5956,15.9536 0.5956,14.264 0.5955,11.7636 0.5956,8.5966 0.5955,4.9445 0.5956,1.0165 0.5955,-2.9639 0.5956,-6.7699 0.5955,-10.1854 0.5956,-13.0165 0.5956,-15.103 0.5955,-16.3265 0.5956,-16.6181 0.5955,-15.9613 0.5956,-14.3933 0.5955,-12.0028 0.5956,-8.9254 0.5955,-5.3349 0.5956,-1.4348 0.5956,2.5538 0.5955,6.405 0.5956,9.8994 0.5955,12.8382 0.5956,15.0529 0.5955,16.4158 0.5956,16.8467 0.5955,16.3178 0.5956,14.8551 0.5956,12.538 0.5955,9.4937 0.5956,5.8913 0.5955,1.9325 0.5956,-2.1603 0.5955,-6.1557 0.5956,-9.8262 0.5955,-12.9612 0.5956,-15.3791 0.5956,-16.9372 0.5955,-17.5401 0.5956,-17.1457 0.5955,-15.7677 0.5956,-13.4754 0.5955,-10.3902 0.5956,-6.6799 0.5955,-2.5485 0.5956,1.7734 0.5956,6.0423 0.5955,10.0149 0.5956,13.4616 0.5955,16.1802 0.5956,18.0063 0.5955,18.8247 0.5956,18.5752 0.5955,17.2573 0.5956,14.9306 0.5956,11.7134 0.5955,7.7757 0.5956,3.3308 0.5955,-1.3753 0.5956,-6.0785 0.5955,-10.5101 0.5956,-14.4122 0.5955,-17.553 0.5956,-19.7395 0.5956,-20.8293 0.5955,-20.7404 0.5956,-19.4557 0.5955,-17.0263 0.5956,-13.5691 0.5955,-9.2622 0.5956,-4.3359 0.5955,0.9401 0.5956,6.27 0.5956,11.3489 0.5955,15.8797 0.5956,19.5903 0.5955,22.2495 0.5956,23.6811 0.5955,23.7756 0.5956,22.4972 0.5955,19.8883 0.5956,16.0686 0.5956,11.23 0.5955,5.6279 0.5956,-0.4329 0.5955,-6.6134 0.5956,-12.5594 0.5955,-17.9218 0.5956,-22.3761 0.5955,-25.6424 0.5956,-27.5018 0.5956,-27.8113 0.5955,-26.5139 0.5956,-23.6433 0.5955,-19.3258 0.5956,-13.774 0.5955,-7.278 0.5956,-0.1897 0.5955,7.095 0.5956,14.1584 0.5956,20.5846 0.5955,25.9833 0.5956,30.013 0.5955,32.403 0.5956,32.9701 0.5955,31.632 0.5956,28.4145 0.5955,23.4542 0.5956,16.9918"
         id="path12"
         inkscape:connector-curvature="0" /></g><g
       style="fill:none;stroke:#000000;stroke-width:0.89240003;stroke-linecap:butt;stroke-linejoin:miter;stroke-dasharray:none"
       id="g14" /></g></svg>