<?xml version="1.0" encoding="UTF-8" standalone="no"?>
<!-- Created with Inkscape (http://www.inkscape.org/) -->

<svg
   xmlns:dc="http://purl.org/dc/elements/1.1/"
   xmlns:cc="http://creativecommons.org/ns#"
   xmlns:rdf="http://www.w3.org/1999/02/22-rdf-syntax-ns#"
   xmlns:svg="http://www.w3.org/2000/svg"
   xmlns="http://www.w3.org/2000/svg"
   xmlns:sodipodi="http://sodipodi.sourceforge.net/DTD/sodipodi-0.dtd"
   xmlns:inkscape="http://www.inkscape.org/namespaces/inkscape"
   width="3075.3389"
   height="776.81116"
   id="svg2"
   version="1.1"
   inkscape:version="0.48.4 r9939"
   sodipodi:docname="09_AMFM.svg">
  <defs
     id="defs4">
    <inkscape:path-effect
       effect="spiro"
       id="path-effect3506"
       is_visible="true" />
    <inkscape:path-effect
       effect="spiro"
       id="path-effect4385"
       is_visible="true" />
    <marker
       inkscape:stockid="Arrow1Mend"
       orient="auto"
       refY="0"
       refX="0"
       id="Arrow1Mend"
       style="overflow:visible">
      <path
         id="path3900"
         d="M 0,0 5,-5 -12.5,0 5,5 0,0 z"
         style="fill-rule:evenodd;stroke:#000000;stroke-width:1pt"
         transform="matrix(-0.4,0,0,-0.4,-4,0)"
         inkscape:connector-curvature="0" />
    </marker>
    <inkscape:path-effect
       effect="spiro"
       id="path-effect3117"
       is_visible="true" />
    <marker
       inkscape:stockid="Arrow1Mend"
       orient="auto"
       refY="0"
       refX="0"
       id="Arrow1Mend-3"
       style="overflow:visible">
      <path
         inkscape:connector-curvature="0"
         id="path3900-6"
         d="M 0,0 5,-5 -12.5,0 5,5 0,0 z"
         style="fill-rule:evenodd;stroke:#000000;stroke-width:1pt"
         transform="matrix(-0.4,0,0,-0.4,-4,0)" />
    </marker>
    <inkscape:path-effect
       effect="spiro"
       id="path-effect3117-7"
       is_visible="true" />
    <marker
       inkscape:stockid="Arrow1Mend"
       orient="auto"
       refY="0"
       refX="0"
       id="Arrow1Mend-3-6"
       style="overflow:visible">
      <path
         inkscape:connector-curvature="0"
         id="path3900-6-2"
         d="M 0,0 5,-5 -12.5,0 5,5 0,0 z"
         style="fill-rule:evenodd;stroke:#000000;stroke-width:1pt"
         transform="matrix(-0.4,0,0,-0.4,-4,0)" />
    </marker>
    <inkscape:path-effect
       effect="spiro"
       id="path-effect4385-9"
       is_visible="true" />
    <marker
       inkscape:stockid="Arrow1Mend"
       orient="auto"
       refY="0"
       refX="0"
       id="Arrow1Mend-36"
       style="overflow:visible">
      <path
         id="path3900-7"
         d="M 0,0 5,-5 -12.5,0 5,5 0,0 z"
         style="fill-rule:evenodd;stroke:#000000;stroke-width:1pt"
         transform="matrix(-0.4,0,0,-0.4,-4,0)"
         inkscape:connector-curvature="0" />
    </marker>
    <inkscape:path-effect
       effect="spiro"
       id="path-effect3117-5"
       is_visible="true" />
    <marker
       inkscape:stockid="Arrow1Mend"
       orient="auto"
       refY="0"
       refX="0"
       id="Arrow1Mend-3-3"
       style="overflow:visible">
      <path
         inkscape:connector-curvature="0"
         id="path3900-6-5"
         d="M 0,0 5,-5 -12.5,0 5,5 0,0 z"
         style="fill-rule:evenodd;stroke:#000000;stroke-width:1pt"
         transform="matrix(-0.4,0,0,-0.4,-4,0)" />
    </marker>
    <inkscape:path-effect
       effect="spiro"
       id="path-effect4385-6"
       is_visible="true" />
    <marker
       inkscape:stockid="Arrow1Mend"
       orient="auto"
       refY="0"
       refX="0"
       id="Arrow1Mend-3-3-6"
       style="overflow:visible">
      <path
         inkscape:connector-curvature="0"
         id="path3900-6-5-2"
         d="M 0,0 5,-5 -12.5,0 5,5 0,0 z"
         style="fill-rule:evenodd;stroke:#000000;stroke-width:1pt"
         transform="matrix(-0.4,0,0,-0.4,-4,0)" />
    </marker>
    <inkscape:path-effect
       effect="spiro"
       id="path-effect3506-6"
       is_visible="true" />
    <marker
       inkscape:stockid="Arrow1Mend"
       orient="auto"
       refY="0"
       refX="0"
       id="Arrow1Mend-3-1"
       style="overflow:visible">
      <path
         inkscape:connector-curvature="0"
         id="path3900-6-8"
         d="M 0,0 5,-5 -12.5,0 5,5 0,0 z"
         style="fill-rule:evenodd;stroke:#000000;stroke-width:1pt"
         transform="matrix(-0.4,0,0,-0.4,-4,0)" />
    </marker>
    <inkscape:path-effect
       effect="spiro"
       id="path-effect4385-6-7"
       is_visible="true" />
    <marker
       inkscape:stockid="Arrow1Mend"
       orient="auto"
       refY="0"
       refX="0"
       id="Arrow1Mend-9"
       style="overflow:visible">
      <path
         id="path3900-2"
         d="M 0,0 5,-5 -12.5,0 5,5 0,0 z"
         style="fill-rule:evenodd;stroke:#000000;stroke-width:1pt"
         transform="matrix(-0.4,0,0,-0.4,-4,0)"
         inkscape:connector-curvature="0" />
    </marker>
    <inkscape:path-effect
       effect="spiro"
       id="path-effect3117-5-0"
       is_visible="true" />
    <marker
       inkscape:stockid="Arrow1Mend"
       orient="auto"
       refY="0"
       refX="0"
       id="marker4599"
       style="overflow:visible">
      <path
         inkscape:connector-curvature="0"
         id="path4601"
         d="M 0,0 5,-5 -12.5,0 5,5 0,0 z"
         style="fill-rule:evenodd;stroke:#000000;stroke-width:1pt"
         transform="matrix(-0.4,0,0,-0.4,-4,0)" />
    </marker>
    <inkscape:path-effect
       effect="spiro"
       id="path-effect4385-2"
       is_visible="true" />
    <marker
       inkscape:stockid="Arrow1Mend"
       orient="auto"
       refY="0"
       refX="0"
       id="marker4604"
       style="overflow:visible">
      <path
         id="path4606"
         d="M 0,0 5,-5 -12.5,0 5,5 0,0 z"
         style="fill-rule:evenodd;stroke:#000000;stroke-width:1pt"
         transform="matrix(-0.4,0,0,-0.4,-4,0)"
         inkscape:connector-curvature="0" />
    </marker>
    <inkscape:path-effect
       effect="spiro"
       id="path-effect3117-3"
       is_visible="true" />
    <marker
       inkscape:stockid="Arrow1Mend"
       orient="auto"
       refY="0"
       refX="0"
       id="Arrow1Mend-367"
       style="overflow:visible">
      <path
         id="path3900-5"
         d="M 0,0 5,-5 -12.5,0 5,5 0,0 z"
         style="fill-rule:evenodd;stroke:#000000;stroke-width:1pt"
         transform="matrix(-0.4,0,0,-0.4,-4,0)"
         inkscape:connector-curvature="0" />
    </marker>
    <inkscape:path-effect
       effect="spiro"
       id="path-effect3117-35"
       is_visible="true" />
    <marker
       inkscape:stockid="Arrow1Mend"
       orient="auto"
       refY="0"
       refX="0"
       id="Arrow1Mend-3-62"
       style="overflow:visible">
      <path
         inkscape:connector-curvature="0"
         id="path3900-6-9"
         d="M 0,0 5,-5 -12.5,0 5,5 0,0 z"
         style="fill-rule:evenodd;stroke:#000000;stroke-width:1pt"
         transform="matrix(-0.4,0,0,-0.4,-4,0)" />
    </marker>
    <inkscape:path-effect
       effect="spiro"
       id="path-effect4385-1"
       is_visible="true" />
  </defs>
  <sodipodi:namedview
     id="base"
     pagecolor="#ffffff"
     bordercolor="#666666"
     borderopacity="1.0"
     inkscape:pageopacity="0.0"
     inkscape:pageshadow="2"
     inkscape:zoom="0.35"
     inkscape:cx="1690.0536"
     inkscape:cy="339.12415"
     inkscape:document-units="px"
     inkscape:current-layer="layer1"
     showgrid="false"
     fit-margin-top="0"
     fit-margin-left="0"
     fit-margin-right="0"
     fit-margin-bottom="0"
     inkscape:window-width="1635"
     inkscape:window-height="947"
     inkscape:window-x="229"
     inkscape:window-y="60"
     inkscape:window-maximized="0" />
  <metadata
     id="metadata7">
    <rdf:RDF>
      <cc:Work
         rdf:about="">
        <dc:format>image/svg+xml</dc:format>
        <dc:type
           rdf:resource="http://purl.org/dc/dcmitype/StillImage" />
        <dc:title />
      </cc:Work>
    </rdf:RDF>
  </metadata>
  <g
     inkscape:label="Layer 1"
     inkscape:groupmode="layer"
     id="layer1"
     transform="translate(867.50784,-578.27334)">
    <path
       style="fill:none;stroke:#000000;stroke-width:4.97114658;stroke-linecap:butt;stroke-linejoin:miter;stroke-miterlimit:4;stroke-opacity:1;stroke-dasharray:none;marker-end:url(#Arrow1Mend)"
       d="m -858.74916,1016.8661 1462.5728,0"
       id="path3115"
       inkscape:path-effect="#path-effect3117"
       inkscape:original-d="m -858.74916,1016.8661 1462.5728,0"
       inkscape:connector-curvature="0"
       sodipodi:nodetypes="cc" />
    <path
       style="fill:none;stroke:#000000;stroke-width:4.97114658;stroke-linecap:butt;stroke-linejoin:miter;stroke-miterlimit:4;stroke-opacity:1;stroke-dasharray:none;marker-end:url(#Arrow1Mend-3)"
       d="m -856.32276,1019.1522 0,-434.66493"
       id="path4383"
       inkscape:path-effect="#path-effect4385"
       inkscape:original-d="m -856.32276,1019.1522 c 0,0 0,-340.37921 0,-434.66493"
       inkscape:connector-curvature="0"
       sodipodi:nodetypes="cc" />
    <text
       xml:space="preserve"
       style="font-size:92.79473877px;font-style:normal;font-variant:normal;font-weight:normal;font-stretch:normal;line-height:125%;letter-spacing:0px;word-spacing:0px;fill:#000000;fill-opacity:1;stroke:none;font-family:Nimbus Sans L;-inkscape-font-specification:Sans"
       x="554.47369"
       y="989.88861"
       id="text4358"
       sodipodi:linespacing="125%"><tspan
         sodipodi:role="line"
         id="tspan4360"
         x="554.47369"
         y="989.88861">$t$</tspan></text>
    <text
       xml:space="preserve"
       style="font-size:92.79473877px;font-style:normal;font-variant:normal;font-weight:normal;font-stretch:normal;line-height:125%;letter-spacing:0px;word-spacing:0px;fill:#000000;fill-opacity:1;stroke:none;font-family:Nimbus Sans L;-inkscape-font-specification:Sans"
       x="-831.64612"
       y="677.79028"
       id="text4571"
       sodipodi:linespacing="125%"><tspan
         sodipodi:role="line"
         id="tspan4573"
         x="-831.64612"
         y="677.79028">$E(t)$</tspan></text>
    <path
       style="fill:none;stroke:#000000;stroke-width:4.97114658;stroke-linecap:butt;stroke-linejoin:miter;stroke-miterlimit:4;stroke-opacity:1;stroke-dasharray:none;marker-end:url(#Arrow1Mend)"
       d="m 739.04424,1016.8661 1462.57276,0"
       id="path3115-7"
       inkscape:path-effect="#path-effect3117-35"
       inkscape:original-d="m 739.04424,1016.8661 1462.57276,0"
       inkscape:connector-curvature="0"
       sodipodi:nodetypes="cc" />
    <path
       style="fill:none;stroke:#000000;stroke-width:4.97114658;stroke-linecap:butt;stroke-linejoin:miter;stroke-miterlimit:4;stroke-opacity:1;stroke-dasharray:none;marker-end:url(#Arrow1Mend-3)"
       d="m 741.47064,1019.1522 0,-434.66493"
       id="path4383-0"
       inkscape:path-effect="#path-effect4385-1"
       inkscape:original-d="m 741.47064,1019.1522 c 0,0 0,-340.37921 0,-434.66493"
       inkscape:connector-curvature="0"
       sodipodi:nodetypes="cc" />
    <text
       xml:space="preserve"
       style="font-size:92.79473877px;font-style:normal;font-variant:normal;font-weight:normal;font-stretch:normal;line-height:125%;letter-spacing:0px;word-spacing:0px;fill:#000000;fill-opacity:1;stroke:none;font-family:Nimbus Sans L;-inkscape-font-specification:Sans"
       x="2062.2671"
       y="989.88861"
       id="text4358-9"
       sodipodi:linespacing="125%"><tspan
         sodipodi:role="line"
         id="tspan4360-3"
         x="2062.2671"
         y="989.88861">$t$</tspan></text>
    <text
       xml:space="preserve"
       style="font-size:92.79473877px;font-style:normal;font-variant:normal;font-weight:normal;font-stretch:normal;line-height:125%;letter-spacing:0px;word-spacing:0px;fill:#000000;fill-opacity:1;stroke:none;font-family:Nimbus Sans L;-inkscape-font-specification:Sans"
       x="766.14728"
       y="677.79028"
       id="text4571-6"
       sodipodi:linespacing="125%"><tspan
         sodipodi:role="line"
         id="tspan4573-0"
         x="766.14728"
         y="677.79028">$E(t)$</tspan></text>
    <path
       style="fill:none;stroke:#d40000;stroke-width:5;stroke-linecap:butt;stroke-linejoin:miter;stroke-dasharray:none;stroke-opacity:1;fill-opacity:1;stroke-miterlimit:4"
       inkscape:connector-curvature="0"
       id="path12-7"
       d="m 741.19938,1017.2283 1.27271,-27.25063 1.27252,-26.98417 1.27269,-26.45282 1.27254,-25.66109 1.27269,-24.61567 1.27236,-23.32401 1.2727,-21.79737 1.27253,-20.0477 1.27269,-18.08946 1.27269,-15.93897 1.27254,-13.61469 1.2727,-11.13635 1.27235,-8.52543 1.27269,-5.8057 1.27252,-3.00175 1.27271,-0.13985 1.27252,2.75283 1.27271,5.64732 1.27269,8.51475 1.27235,11.32489 1.2727,14.04715 1.27252,16.65143 1.27271,19.10709 1.27253,21.38377 1.27268,23.45257 1.27254,25.28518 1.27252,26.85468 1.27271,28.13641 1.27252,29.10727 1.2727,29.74792 1.27253,30.0403 1.27269,29.9714 1.27253,29.5311 1.2727,28.7133 1.27236,27.5173 1.2727,25.9462 1.2727,24.0087 1.27251,21.7191 1.2727,19.0955 1.27254,16.1641 1.27269,12.9542 1.27236,9.5019 1.27269,5.8483 1.27253,2.0393 1.27271,-1.8746 1.27269,-5.8391 1.27253,-9.7955 1.2727,-13.6832 1.27235,-17.4406 1.2727,-21.0026 1.27252,-24.3064 1.27271,-27.2903 1.27253,-29.8938 1.27268,-32.0605 1.27272,-33.7405 1.27234,-34.8874 1.2727,-35.4646 1.27253,-35.44252 1.27269,-34.8028 1.27253,-33.53605 1.2727,-31.6457 1.27236,-29.1469 1.2727,-26.06691 1.2727,-22.44635 1.27253,-18.33804 1.27269,-13.80671 1.27252,-8.92876 1.2727,-3.79141 1.27236,1.50977 1.27269,6.87203 1.27253,12.1859 1.2727,17.34022 1.27269,22.22155 1.27253,26.71924 1.27269,30.72622 1.27253,34.14324 1.27253,36.88027 1.27251,38.85988 1.27272,40.01943 1.27253,40.3135 1.27269,39.7155 1.2727,38.2189 1.27252,35.8383 1.27272,32.611 1.27233,28.5945 1.2727,23.8682 1.27254,18.5313 1.27269,12.7001 1.27253,6.5062 1.2727,0.094 1.2727,-6.3823 1.27236,-12.7657 1.27269,-18.8961 1.27253,-24.6176 1.27269,-29.7817 1.27252,-34.2506 1.27271,-37.9035 1.27236,-40.6381 1.2727,-42.3746 1.27269,-43.05887 1.27254,-42.6636 1.27269,-41.1893 1.27253,-38.66564 1.27269,-35.15101 1.27236,-30.72959 1.2727,-25.51179 1.27251,-19.62928 1.27271,-13.23277 1.27271,-6.48779 1.27252,0.43099 1.2727,7.34292 1.27235,14.06736 1.2727,20.42923 1.27252,26.26249 1.2727,31.41668 1.27254,35.75873 1.27269,39.17886 1.27269,41.5924 1.27237,42.94178 1.27269,43.199 1.27254,42.3645 1.27269,40.4681 1.27252,37.5676 1.2727,33.7467 1.27252,29.1118 1.27271,23.7887 1.27253,17.9205 1.27252,11.6608 1.27269,5.171 1.27253,-1.3843 1.2727,-7.8432 1.27253,-14.0487 1.27269,-19.8544 1.27236,-25.127 1.27269,-29.7508 1.2727,-33.6279 1.27253,-36.6828 1.2727,-38.8614 1.27252,-40.1329 1.2727,-40.4895 1.27236,-39.94494 1.27269,-38.53448 1.27254,-36.31226 1.27269,-33.34898 1.2727,-29.73082 1.27253,-25.55473 1.27269,-20.92683 1.27236,-15.9591 1.27271,-10.76643 1.27253,-5.46334 1.27269,-0.16237 1.27251,5.02966 1.27271,10.0132 1.27269,14.69727 1.27236,19.00211 1.2727,22.85953 1.27253,26.21375 1.27269,29.02256 1.27254,31.25579 1.2727,32.89756 1.27235,33.94262 1.27269,34.39893 1.2727,34.284 1.27253,33.6258 1.2727,32.4595 1.27253,30.8284 1.2727,28.7801 1.27252,26.368 1.27252,23.6473 1.27253,20.6748 1.2727,17.5087 1.2727,14.2055 1.27251,10.8207 1.27271,7.4069 1.27254,4.013 1.27269,0.6857 1.27238,-2.5349 1.27266,-5.6112 1.27256,-8.5118 1.27266,-11.2103 1.27266,-13.6846 1.27256,-15.9169 1.27257,-17.8963 1.27247,-19.6143 1.27257,-21.0669 1.27275,-22.2548 1.27258,-23.1809 1.27247,-23.8525 1.27293,-24.2783 1.27248,-24.4701 1.27247,-24.4418 1.27257,-24.2071 1.27266,-23.78289 1.27261,-23.18599 1.27262,-22.43336 1.27261,-21.54261 1.27252,-20.53156 1.27242,-19.41674 1.27281,-18.21526 1.27252,-16.94329 1.2728,-15.61581 1.27252,-14.24765 1.27261,-12.85205 1.27239,-11.4415 1.2727,-10.02777 1.2725,-8.62078 1.2727,-7.23012 1.2727,-5.86423 1.2726,-4.52986 1.2726,-3.23379 1.2724,-1.98097 1.2727,-0.77615 1.2727,0.37753 1.2725,1.47678 1.2725,2.51997 1.2728,3.50533 1.2727,4.432 1.2724,5.30013 1.2727,6.10929 1.2725,6.86052 1.2728,7.55444 1.2722,8.19252 1.2728,8.77611 1.2725,9.30673 1.2727,9.78705 1.2728,10.21793 1.2724,10.60256 1.2727,10.94221 1.2724,11.23974 1.2727,11.49689 1.2725,11.71629 1.2728,11.89982 1.2722,12.0495 1.2729,12.16778 1.2726,12.25619 1.2727,12.31674 1.2725,12.35164 1.2724,12.36189 1.2729,12.34953 1.2723,12.31598 1.2728,12.26269 1.2724,12.1903 1.2728,12.1007 1.2727,11.9947 1.2724,11.8726 1.2727,11.7363 1.2725,11.5855 1.2726,11.4213 1.2725,11.2439 1.2729,11.0537 1.2724,10.851 1.2728,10.6364 1.2725,10.4091 1.2726,10.1698 1.2725,9.9184 1.2726,9.6542 1.2726,9.3776 1.2726,9.0881 1.2727,8.7854 1.2726,8.4686 1.2724,8.1383 1.2727,7.7931 1.2726,7.4332 1.2726,7.0574 1.2725,6.6656 1.2728,6.2575 1.2726,5.8319 1.2726,5.3887 1.2724,4.9274 1.2726,4.4476 1.2727,3.9485 1.2725,3.4301 1.2728,2.8921 1.2726,2.3342 1.2727,1.7561 1.2721,1.1582 1.2729,0.5404 1.2724,-0.098 1.2728,-0.7539 1.2727,-1.4292 1.2725,-2.1228 1.2728,-2.8328 1.2722,-3.5592 1.2727,-4.2998 1.2725,-5.0536 1.2727,-5.8178 1.2727,-6.5916 1.2727,-7.3718 1.2727,-8.1557 1.2723,-8.9409 1.2727,-9.7237 1.2724,-10.5008 1.2728,-11.2689 1.2725,-12.0229 1.2727,-12.7589 1.2723,-13.4728 1.2728,-14.1594 1.2727,-14.8137 1.2724,-15.4303 1.2728,-16.0033 1.2724,-16.5285 1.2729,-16.9988 1.2722,-17.4089 1.2729,-17.7532 1.2723,-18.0261 1.2728,-18.22138 1.2727,-18.33413 1.2725,-18.35907 1.2727,-18.29079 1.2725,-18.12549 1.2728,-17.85835 1.2723,-17.48594 1.2727,-17.00551 1.2726,-16.41448 1.2727,-15.71134 1.2726,-14.89546 1.2725,-13.96692 1.2727,-12.92685 1.2724,-11.77756 1.2727,-10.5218 1.2725,-9.16468 1.2728,-7.71105 1.2725,-6.16786 1.2727,-4.54315 1.2726,-2.84567 1.2723,-1.08582 1.2728,0.72514 1.2726,2.57497 1.2727,4.44982 1.2725,6.33587 1.2725,8.21788 1.2725,10.07985 1.2726,11.90556 1.2728,13.6784 1.2726,15.38123 1.2725,16.99694 1.2726,18.50891 1.2727,19.90039 1.2723,21.15564 1.2727,22.25904 1.2725,23.19642 1.2728,23.95496 1.2727,24.5225 1.2724,24.88858 1.2728,25.046 1.2722,24.9863 1.2729,24.7064 1.2724,24.2037 1.2729,23.4777 1.2724,22.5309 1.2727,21.368 1.2727,19.9959 1.2725,18.4242 1.2726,16.665 1.2724,14.7322 1.2727,12.6416 1.2726,10.4124 1.2727,8.0642 1.2726,5.6188 1.2725,3.1 1.2728,0.5318 1.2724,-2.0608 1.2727,-4.6504 1.2724,-7.2123 1.2728,-9.7194 1.2724,-12.1453 1.2728,-14.4651 1.2724,-16.6533 1.2728,-18.6878 1.2726,-20.5452 1.2724,-22.2062 1.2729,-23.6522 1.2723,-24.8673 1.2729,-25.8376 1.2722,-26.5527 1.2729,-27.0032 1.2724,-27.1846 1.2726,-27.09308 1.2727,-26.73003 1.2726,-26.09772 1.2727,-25.20253 1.2724,-24.05273 1.2726,-22.66036 1.2727,-21.03913 1.2727,-19.20533 1.2723,-17.17764 1.2727,-14.97656 1.2728,-12.62453 1.2723,-10.14533 1.2728,-7.56385 1.2725,-4.90656 1.2728,-2.19994 1.2724,0.52874 1.2726,3.2522 1.2727,5.94305 1.2725,8.57469 1.2727,11.12082 1.2725,13.55633 1.2727,15.85707 1.2726,18.0003 1.2726,19.96494 1.2726,21.73148 1.2726,23.28265 1.2724,24.6031 1.2726,25.67939 1.2727,26.50091 1.2726,27.05892 1.2727,27.34783 1.2726,27.3637 1.2726,27.1055 1.2724,26.575 1.2726,25.776 1.2726,24.715 1.2726,23.4011 1.2729,21.8452 1.2724,20.0611 1.2729,18.064 1.2721,15.8728 1.2728,13.5061 1.2724,10.9862 1.2727,8.3359 1.2728,5.5803 1.2726,2.7449 1.2727,-0.142 1.2722,-3.0532 1.2728,-5.9587 1.2725,-8.8292 1.2727,-11.6352 1.2726,-14.3459 1.2727,-16.931 1.2723,-19.3619 1.2727,-21.6086 1.2728,-23.6431 1.2723,-25.439 1.2728,-26.9703 1.2725,-28.2134 1.2728,-29.1469 1.2723,-29.7514 1.2727,-30.01104 1.2725,-29.91213 1.2726,-29.44481 1.2729,-28.60344 1.2724,-27.38548 1.2727,-25.79348 1.2726,-23.83483 1.2725,-21.52089 1.2725,-18.8695 1.2727,-15.90251 1.2725,-12.64819 1.2728,-9.13986 1.2726,-5.41694 1.2727,-1.5233 1.2725,2.49115 1.2724,6.57129 1.2727,10.65864 1.2727,14.68909 1.2726,18.5969 1.2725,22.31237 1.2726,25.76498 1.2729,28.88374 1.2722,31.59806 1.2728,33.84027 1.2725,35.54581 1.2727,36.6559 1.2725,37.1196 1.2726,36.8927 1.2724,35.9447 1.2727,34.256 1.2728,31.8212 1.2726,28.652 1.2726,24.7759 1.2726,20.2406 1.2725,15.111 1.2724,9.4725 1.2727,3.4299 1.2726,-2.8934 1.2727,-9.358 1.2727,-15.8087 1.2725,-22.0777 1.2726,-27.9905 1.2723,-33.3664 1.2728,-38.0272 1.2727,-41.8005 1.2725,-44.5274 1.2727,-46.0676 1.2725,-46.30748 1.2729,-45.16591 1.2721,-42.6005 1.2728,-38.61307 1.2726,-33.25477 1.2727,-26.62841 1.2725,-18.89043 1.2727,-10.25029 1.2726,-0.96712 1.2727,8.65459 1.2725,18.27457 1.2725,27.52523 1.2727,36.0265 1.2725,43.39999 1.2727,49.28595 1.2725,53.36141 1.2727,55.35894 1.2725,55.0832 1.2725,52.4285 1.2727,47.3911 1.2726,40.0795 1.2726,30.7198 1.2726,19.6533 1.2726,7.3304 1.2726,-5.7028 1.2726,-18.828 1.2724,-31.3782 1.2728,-42.6755 1.2725,-52.0626 1.2727,-58.9471 1.2726,-62.8397 1.2725,-63.38902 1.2728,-60.4183 1.2724,-53.94581 1.2727,-44.20106 1.2725,-31.62665 1.2727,-16.86504 1.2724,-0.73184 1.2727,15.82312 1.2727,31.77202 1.2726,46.06988 1.2724,57.72695 1.2727,65.87903 1.2726,69.85632 1.2728,69.2448 1.2724,63.9293 1.2727,54.1218 1.2726,40.3654 1.2726,23.514 1.2725,4.6833 1.2727,-14.8157 1.2726,-33.5682 1.2725,-50.1597 1.2726,-63.2845 1.2727,-71.8564 1.2726,-75.10256 1.2725,-72.64082 1.2727,-64.52902 1.2726,-51.27679 1.2727,-33.8233 1.2723,-13.47643 1.2726,8.18247 1.2727,29.42126 1.2726,48.49776 1.2727,63.80764 1.2726,74.02503 1.2726,78.22406 1.2724,75.9701 1.2726,67.3684 1.2728,53.0696 1.2725,34.2218 1.2726,12.3827 1.2727,-10.612 1.2723,-32.8053 1.2727,-52.2894 1.2727,-67.3768 1.2724,-76.7493 1.2729,-79.58127 1.2725,-75.61306 1.2728,-65.17906 1.2722,-49.17752 1.2727,-28.99227 1.2725,-6.36835 1.2727,16.74319 1.2727,38.35996 1.2727,56.64314 1.2726,70.05732 1.2724,77.50352 1.2727,78.4077 1.2726,72.7631 1.2725,61.1207 1.2727,44.5296 1.2727,24.4363 1.2726,2.55 1.2724,-19.3085 1.2726,-39.3657 1.2725,-56.0423 1.2727,-68.0766 1.2727,-74.6212 1.2726,-75.29364 1.2727,-70.18984 1.2725,-59.85531 1.2727,-45.22237 1.2723,-27.51581 1.2727,-8.14392 1.2725,11.42149 1.2728,29.7613 1.2725,45.61354 1.2728,57.95857 1.2726,66.08029 1.2724,69.5972 1.2726,68.4684 1.2727,62.9724 1.2725,53.6643 1.2726,41.3144 1.2727,26.8428 1.2723,11.2407 1.2727,-4.4977 1.2728,-19.4423 1.2727,-32.78 1.2725,-43.8576 1.2724,-52.2024 1.2728,-57.5398 1.2723,-59.785 1.2728,-59.03071 1.2725,-55.5221 1.2728,-49.62663 1.2725,-41.79969 1.2725,-32.54924 1.2727,-22.40216 1.2725,-11.87434 1.2726,-1.44461 1.2726,8.46498 1.2727,17.50259 1.2725,25.39561 1.2728,31.95296 1.2721,37.06245 1.2728,40.68591 1.2728,42.85002 1.2724,43.63558 1.2728,43.16648 1.2724,41.5981 1.2729,39.1044 1.2726,35.8701 1.2724,32.0794 1.2727,27.9107 1.2725,23.5288 1.2728,19.0814 1.2723,14.6976 1.2729,10.4833 1.2724,6.525 1.2727,2.8877 1.2727,-0.3831 1.2725,-3.2597 1.2725,-5.7286 1.2726,-7.7901 1.2727,-9.4548 1.2726,-10.7414 1.2727,-11.6748 1.2722,-12.2837 3.673,-156.0098 1.2725,-12.6543 1.2728,-80.14082 1.2727,-12.1092 1.2724,-84.37818 1.2726,-10.88921 c 3.6998,-41.03266 0.1317,-76.35832 7.5631,-112.20147 0.6351,-3.00206 1.578,-5.96683 2.5454,-8.93285 l 1.2723,-2.76174 1.2727,-1.6134 1.2725,-0.46459 1.2727,0.67895 1.2726,1.81201 1.2726,2.9286 c 1.0691,3.01402 1.7833,6.06447 2.5451,9.11126 8.1712,37.21036 5.2174,78.15973 5.1631,111.15011 l 1.2726,10.36228 1.2725,83.74973 1.2725,11.39315 1.2726,79.36047 1.2727,11.8427 -1.1277,155.2134 1.2728,11.5593 1.2725,11.096 1.2727,10.3945 1.2726,9.4414 1.2725,8.2244 1.2729,6.7364 1.2721,4.975 1.2728,2.9434 1.2725,0.6515 1.2728,-1.8838 1.2724,-4.6364 1.2728,-7.5733 1.2723,-10.6528 1.2727,-13.8239 1.2725,-17.0282 1.2728,-20.2003 1.2727,-23.2686 1.2724,-26.1572 1.2729,-28.7862 1.2722,-31.0775 1.2728,-32.9533 1.2725,-34.3399 1.2726,-35.1721 1.2726,-35.39384 1.2726,-34.96181 1.2729,-33.84689 1.2722,-32.03771 1.2728,-29.54048 1.2725,-26.38157 1.2727,-22.60592 1.2725,-18.27852 1.2727,-13.48231 1.2724,-8.31612 1.2726,-2.8927 1.2726,2.66421 1.2728,8.225 1.2727,13.65599 1.2725,18.82599 1.2726,23.60885 1.2725,27.88823 1.2727,31.56138 1.2725,34.54269 1.2726,36.76586 1.2725,38.1864 1.2727,38.78197 1.2727,38.5542 1.2725,37.527 1.2725,35.744 1.2726,33.2702 1.2727,30.1849 1.2728,26.5822 1.2724,22.565 1.2727,18.2419 1.2725,13.7247 1.2726,9.1236 1.2724,4.5441 1.2728,0.084 1.2725,-4.1682 1.2727,-8.137 1.2727,-11.7584 1.2726,-14.9831 1.2725,-17.7768 1.2725,-20.1183 1.2726,-21.9989 1.2727,-23.4234 1.2725,-24.4063 1.2727,-24.9716 1.2725,-25.1507 1.2727,-24.9803 1.2724,-24.5012 1.2728,-23.7567 1.2724,-22.79027 1.2728,-21.64578 1.2726,-20.36398 c 3.7464,-56.48397 6.3977,-115.54482 8.908,-166.33698 l 1.2728,-9.01927 1.2725,-7.7692 1.2727,-6.58467 1.2724,-5.46367 1.2726,-4.4006 1.2726,-3.38776 1.2727,-2.41427 1.2726,-1.46807 1.2727,-0.53469 1.2726,0.40153 1.2725,1.35673 1.2726,2.34817 1.2725,3.3928 1.2726,4.50732 1.2727,5.70723 1.2727,7.00646 1.2727,8.41637 c 1.3711,72.51621 6.6483,130.43958 10.1805,195.28179 l 1.2727,25.31091 1.2726,27.0971 1.2725,28.6255 1.2727,29.7915 1.2727,30.4806 1.2724,30.5698 1.2726,29.9327 1.2725,28.4477 1.2728,26.003 1.2725,22.5084 1.2727,17.9055 1.2726,12.1805 1.2725,5.374 1.2725,-2.4034 1.2726,-10.9635 1.2727,-20.0334 1.2726,-29.2523 1.2728,-38.1773 1.2725,-46.2937 1.2724,-53.038 1.2727,-57.8279 1.2725,-60.10336 1.2727,-59.37753 1.2727,-55.2888 1.2726,-47.66126 1.2725,-36.5556 1.2726,-22.31427 1.2724,-5.58612 1.2728,12.67146 1.2725,31.22436 1.2729,48.62629 1.2725,63.32154 1.2727,73.78307 1.2725,78.67042 1.2724,77.0049 1.2726,68.3314 1.2726,52.8538 1.2727,31.5137 1.2727,5.9972 1.2725,-21.3557 1.2727,-47.7348 1.2724,-70.1361 1.2726,-85.7113 1.2727,-92.14865 1.2725,-88.0416 1.2728,-73.18414 1.2725,-48.74298 1.2728,-17.25547 1.2722,17.57289 1.2726,51.26861 1.2727,79.15776 1.2727,97.03427 1.2727,101.83181 1.2726,92.1989 1.2726,68.8585 1.2724,34.6746 1.2726,-5.6239 1.2727,-46.058 1.2726,-80.2784 1.2724,-102.5867 1.2728,-108.93365 1.2723,-97.71632 1.2727,-70.20346 1.2727,-30.4922 1.2726,15.04862 1.2728,58.77591 1.2724,93.06936 1.2727,111.69754 1.2724,111.0088 1.2727,90.7021 1.2725,54.0163 1.2728,7.2589 1.2726,-41.2619 1.2725,-82.7216 1.2726,-109.4228 1.2725,-116.26777 1.2728,-101.77655 1.2724,-68.43902 1.2728,-22.3066 1.2723,28.10771 1.273,73.42204 1.2722,105.16371 1.2728,117.38608 1.2726,107.808 1.2726,78.2477 1.2726,34.2647 1.2725,-15.9089 1.2726,-62.9478 1.2727,-98.1972 1.2726,-115.287 1.2724,-111.2861 1.2728,-87.17766 1.2726,-47.59734 1.2725,0.10727 1.2727,47.29021 1.2726,85.60879 1.2726,108.51377 1.2726,112.35176 1.2725,96.9015 1.2727,65.2732 1.2726,23.2255 1.2726,-21.9404 1.2725,-62.6949 1.2728,-92.5496 1.2723,-107.074 1.2727,-104.49984 1.2725,-85.84712 1.2727,-54.58514 1.2727,-15.93081 1.2724,24.07608 1.2728,59.54587 1.2724,85.60648 1.2726,99.03948 1.2726,98.6084 1.2727,85.0714 1.2726,60.9016 1.2726,29.7961 1.2727,-3.9283 1.2726,-35.9612 1.2728,-62.55 1.2721,-80.9138 1.2728,-89.4806 1.2724,-87.94987 1.2729,-77.18003 1.2724,-58.961 1.2728,-35.70298 1.2724,-10.09671 1.2726,15.20743 1.2727,37.87064 1.2724,56.06194 1.2729,68.57059 1.2725,74.83746 1.2727,74.91563 1.2724,69.3753 1.2727,59.1792 1.2725,45.5353 1.2725,29.7618 1.2728,13.1559 1.2726,-3.1027 1.2727,-18.026 1.2723,-30.8607 1.2728,-41.1035 1.2726,-48.4927 1.2725,-52.9857 1.2726,-54.7196 1.2727,-53.97149 1.2727,-51.11357 1.2723,-46.57178 1.2727,-40.78857 1.2725,-34.19563 1.2729,-27.18834 1.2724,-20.11286 1.2727,-13.25621 1.2727,-6.8425 1.2723,-1.03604 1.2727,4.05634 1.2726,8.37667 1.2726,11.90913 1.2727,14.67151 1.2725,16.70591 1.2727,18.07268 1.2725,18.84362 1.2726,19.09429 1.2725,18.903 1.2728,18.3438 c 6.0939,95.15141 6.9796,191.10064 7.6354,278.99994 2.188,77.3957 3.3137,71.0441 3.8181,106.8486 l 1.2725,4.1722 1.2726,2.5551 1.2724,0.9492 1.2726,-0.6423 1.2726,-2.2184 1.2727,-3.7767 c 1.251,-34.4793 3.5377,-33.5707 3.8179,-105.0286 3.4318,-95.197 1.635,-180.85557 7.6355,-270.8833 l 1.2724,-16.48455 1.2725,-17.03863 1.2729,-17.33761 1.2724,-17.34105 1.2729,-17.00949 1.2724,-16.30418 1.2727,-15.19015 1.2727,-13.63826 1.2723,-11.62672 1.2727,-9.14445 1.2726,-6.19268 1.2727,-2.78834 1.2725,1.03584 1.2727,5.2269 1.2726,9.71309 1.2724,14.40238 1.2727,19.18293 1.2726,23.9248 1.2727,28.48325 1.2725,32.70104 1.2727,36.41471 1.2725,39.46003 1.2727,41.679 1.2724,42.92634 1.2728,43.0796 1.2724,42.0433 1.2726,39.7606"
       sodipodi:nodetypes="ccccccccccccccccccccccccccccccccccccccccccccccccccccccccccccccccccccccccccccccccccccccccccccccccccccccccccccccccccccccccccccccccccccccccccccccccccccccccccccccccccccccccccccccccccccccccccccccccccccccccccccccccccccccccccccccccccccccccccccccccccccccccccccccccccccccccccccccccccccccccccccccccccccccccccccccccccccccccccccccccccccccccccccccccccccccccccccccccccccccccccccccccccccccccccccccccccccccccccccccccccccccccccccccccccccccccccccccccccccccccccccccccccccccccccccccccccccccccccccccccccccccccccccccccccccccccccccccccccccccccccccccccccccccccccccccccccccccccccccccccccccccccccccccccccccccccccccccccccccccccccccccccccccccccccccccccccccccccccccccccccccccccccccccccccccccccccccccccccccccccccccccccccccccccccccccccccccccccccccccccccccccccccccccccccccccccccccccccccccccccccccccccccccccccccccccccccccccccccccccccccccccccccccccccccccccccccccccccccccccccccccccccccccccccccccccccccccccccccccccccccccccccccccccccccccccccccccccccccccccccccccccccccccccccccccccccccccccccccccccccccc" />
    <g
       id="g3130"
       style="fill:none;stroke:#d40000;stroke-width:2.23110008000000004;stroke-linecap:butt;stroke-linejoin:miter;stroke-dasharray:none;stroke-opacity:1"
       transform="matrix(2.3601823,0,0,-2.1817886,-1065.7459,1663.1589)">
      <path
         inkscape:connector-curvature="0"
         id="path3132"
         d="m 89.244,297.48 0.7147,16.5156 0.7146,15.567 0.7147,13.7242 0.7147,11.0932 0.7146,7.8249 0.7147,4.1072 0.7147,0.1536 0.7146,-3.8087 0.7147,-7.5525 0.7147,-10.8622 0.7146,-13.5483 0.7147,-15.456 0.7147,-16.4761 0.7146,-16.5497 0.7147,-15.6729 0.7147,-13.8959 0.7146,-11.3206 0.7147,-8.0952 0.7147,-4.4049 0.7146,-0.4613 0.7147,3.5086 0.7147,7.2772 0.7146,10.6278 0.7147,13.3682 0.7147,15.3407 0.7146,16.4324 0.7147,16.5802 0.7147,15.7758 0.7146,14.0653 0.7147,11.547 0.7147,8.3654 0.7146,4.7032 0.7147,0.7705 0.7147,-3.2065 0.7146,-6.9998 0.7147,-10.3914 0.7147,-13.1865 0.7146,-15.2245 0.7147,-16.3886 0.7147,-16.6116 0.7146,-15.8806 0.7147,-14.2376 0.7147,-11.7767 0.7146,-8.6391 0.7147,-5.005 0.7147,-1.0827 0.7146,2.9025 0.7147,6.7219 0.7147,10.1561 0.7146,13.0079 0.7147,15.1135 0.7147,16.3518 0.7146,16.6514 0.7147,15.9951 0.7147,14.4201 0.7146,12.0165 0.7147,8.9221 0.7147,5.3142 0.7146,1.3997 0.7147,-2.5967 0.7147,-6.4457 0.7146,-9.9265 0.7147,-12.839 0.7147,-15.0156 0.7146,-16.3314 0.7147,-16.7102 0.7147,-16.1296 0.7146,-14.6227 0.7147,-12.2753 0.7147,-9.2214 0.7146,-5.636 0.7147,-1.7245 0.7147,2.2889 0.7146,6.1742 0.7147,9.708 0.7147,12.6874 0.7146,14.941 0.7147,16.3388 0.7147,16.7998 0.7146,16.2968 0.7147,14.8575 0.7147,12.5637 0.7146,9.5461 0.7147,5.9769 0.7147,2.0606 0.7146,-1.9789 0.7147,-5.9097 0.7147,-9.5064 0.7146,-12.5619 0.7147,-14.9004 0.7147,-16.3867 0.7146,-16.9343 0.7147,-16.5104 0.7147,-15.1379 0.7146,-12.8941 0.7147,-9.9063 0.7147,-6.3445 0.7146,-2.4124 0.7147,1.6653 0.7147,5.6548 0.7146,9.3272 0.7147,12.4712 0.7147,14.9051 0.7146,16.4883 0.7147,17.128 0.7147,16.7855 0.7146,15.4784 0.7147,13.2795 0.7147,10.3129 0.7146,6.7472 0.7147,2.7853 0.7147,-1.3463 0.7146,-5.4111 0.7147,-9.1756 0.7147,-12.4233 0.7146,-14.9661 0.7147,-16.6566 0.7147,-17.395 0.7146,-17.1367 0.7147,-15.8933 0.7147,-13.7332 0.7146,-10.7778 0.7147,-7.1939 0.7147,-3.1854 0.7146,1.0191 0.7147,5.1791 0.7147,9.0557 0.7146,12.4253 0.7147,15.0931 0.7147,16.9032 0.7146,17.7489 0.7147,17.5779 0.7147,16.3963 0.7146,14.2682 0.7147,11.3119 0.7147,7.6939 0.7146,3.6192 0.7147,-0.6802 0.7147,-4.9583 0.7146,-8.9697 0.7147,-12.4828 0.7147,-15.2937 0.7146,-17.2382 0.7147,-18.2005 0.7147,-18.1212 0.7146,-16.9998 0.7147,-14.896 0.7147,-11.926 0.7146,-8.2559 0.7147,-4.0935 0.7147,0.3251 0.7146,4.747 0.7147,8.9185 0.7147,12.5986 0.7146,15.5735 0.7147,17.6685 0.7147,18.7587 0.7146,18.7759 0.7147,17.7135 0.7147,15.6264 0.7146,12.6288 0.7147,8.8881 0.7147,4.6147 0.7146,0.0511 0.7147,-4.542 0.7147,-8.9008 0.7146,-12.7735 0.7147,-15.9345 0.7147,-18.198 0.7146,-19.4283 0.7147,-19.5481 0.7147,-18.5438 0.7146,-16.4662 0.7147,-13.4276 0.7147,-9.5969 0.7146,-5.1889 0.7147,-0.4537 0.7147,4.3388 0.7146,8.9132 0.7147,13.0052 0.7147,16.3758 0.7146,18.8266 0.7147,20.2102 0.7147,20.4396 0.7146,19.4938 0.7147,17.4188 0.7147,14.3263 0.7146,10.3869 0.7147,5.8214 0.7147,0.8879 0.7146,-4.1321 0.7147,-8.9505 0.7147,-13.2883 0.7146,-16.8924 0.7147,-19.55 0.7147,-21.1009 0.7146,-21.4478 0.7147,-20.5615 0.7147,-18.4839 0.7146,-15.3257 0.7147,-11.2604 0.7147,-6.5155 0.7146,-1.3588 0.7147,3.9157 0.7147,9.0052 0.7146,13.615 0.7147,17.4757 0.7147,20.3594 0.7146,22.092 0.7147,22.5648 0.7147,21.7405 0.7146,19.6566 0.7147,16.4228 0.7147,12.2168 0.7146,7.273 0.7147,1.8706 0.7147,-3.683 0.7146,-9.0684 0.7147,-13.9743 0.7147,-18.1136 0.7146,-21.2418 0.7147,-23.1702 0.7147,-23.7779 0.7146,-23.0194 0.7147,-20.927 0.7147,-17.6108 0.7146,-13.252 0.7147,-8.0935 0.7147,-2.4262 0.7146,3.427 0.7147,9.1302 0.7147,14.353 0.7146,18.7904 0.7147,22.1799 0.7147,24.3175 0.7146,25.0695 0.7147,24.3815 0.7147,22.2811 0.7146,18.8783 0.7147,14.3585 0.7147,8.9738 0.7146,3.0275 0.7147,-3.1416 0.7147,-9.1793 0.7146,-14.7362 0.7147,-19.4876 0.7147,-23.1529 0.7146,-25.5115 0.7147,-26.4171 0.7147,-25.8055 0.7146,-23.6998 0.7147,-20.2097 0.7147,-15.5254 0.7146,-9.9081 0.7147,-3.6742 0.7147,2.821 0.7146,9.2046 0.7147,15.1073 0.7147,20.1845 0.7146,24.1365 0.7147,26.7264 0.7147,27.794 0.7146,27.2658 0.7147,25.1598 0.7147,21.5855 0.7146,16.7381 0.7147,10.8876 0.7147,4.3641 0.7146,-2.4607 0.7147,-9.1951 0.7147,-15.4492 0.7146,-20.8587 0.7147,-25.1045 0.7147,-27.933 0.7146,-29.1702 0.7147,-28.7328 0.7147,-26.634 0.7146,-22.9827 0.7147,-17.9786 0.7147,-11.9007 0.7146,-5.0927 0.7147,2.0579 0.7147,9.1402 0.7146,15.7449 0.7147,21.487 0.7147,26.029 0.7146,29.1002 0.7147,30.513 0.7147,30.1745 0.7146,28.0923 0.7147,24.3749 0.7147,19.2259 0.7146,12.9335 0.7147,5.853 0.7147,-1.6114 0.7146,-9.0312 0.7147,-15.9777 0.7147,-22.0465 0.7146,-26.8816 0.7147,-30.1959 0.7147,-31.7884 0.7146,-31.5566 0.7147,-29.5024 0.7147,-25.7335 0.7146,-20.457 0.7147,-13.9688 0.7147,-6.6363 0.7146,1.1222 0.7147,8.8607 0.7147,16.1327 0.7146,22.515 0.7147,27.6345 0.7147,31.1881 0.7146,32.9621 0.7147,32.8442 0.7147,30.8309 0.7146,27.0285 0.7147,21.6468 0.7147,14.9883 0.7146,7.4311 0.7147,-0.5932 0.7147,-8.6238 0.7146,-16.1966 0.7147,-22.8725 0.7147,-28.2615 0.7146,-32.0461 0.7147,-34.0005 0.7147,-34.003 0.7146,-32.0446 0.7147,-28.2293 0.7147,-22.7691 0.7146,-15.9721 0.7147,-8.2247 0.7147,0.03 0.7146,8.3174 0.7147,16.1593 0.7147,23.1014 0.7146,28.7389 0.7147,32.7418 0.7147,34.8722 0.7146,35.0003 0.7147,33.1111 0.7147,29.3062 0.7146,23.7983 0.7147,16.8993 0.7147,9.0026 0.7146,0.5605 0.7147,-7.9417 0.7147,-16.0133 0.7146,-23.1874 0.7147,-29.0471 0.7147,-33.2502 0.7146,-35.5494 0.7147,-35.8064 0.7147,-34.0008 0.7146,-30.2309 0.7147,-24.7092 0.7147,-17.7494 0.7146,-9.7497 0.7147,-1.1691 0.7147,7.499 0.7146,15.7546 0.7147,23.1206 0.7147,29.17 0.7146,33.5514 0.7147,36.0085 0.7147,36.396 0.7146,34.6876 0.7147,30.9784 0.7147,25.4785 0.7146,18.5027 0.7147,10.4506 0.7147,1.7852 0.7146,-6.9946 0.7147,-15.3827 0.7147,-22.895 0.7146,-29.0973 0.7147,-33.6305 0.7147,-36.2315 0.7146,-36.7486 0.7147,-35.1504 0.7147,-31.5271 0.7146,-26.0865 0.7147,-19.1409 0.7147,-11.0902 0.7146,-2.3976 0.7147,6.4358 0.7147,14.9009 0.7146,22.5098 0.7147,28.8237 0.7147,33.4788 0.7146,36.2067 0.7147,36.8503 0.7147,35.3733 0.7146,31.861 0.7147,26.5165 0.7147,19.6489 0.7146,11.6543 0.7147,2.9941 0.7147,-5.832 0.7146,-14.3158 0.7147,-21.9684 0.7147,-28.3501 0.7146,-33.0941 0.7147,-35.9291 0.7147,-36.6941 0.7146,-35.3472 0.7147,-31.9692 0.7147,-26.7571 0.7146,-20.0141 0.7147,-12.1309 0.7147,-3.5631 0.7146,5.1944 0.7147,13.6371 0.7147,21.2794 0.7146,27.6827 0.7147,32.481 0.7147,35.4014 0.7146,36.2797 0.7147,35.0702 0.7147,31.8475 0.7146,26.8019 0.7147,20.2286 0.7147,12.5099 0.7146,4.0933 0.7147,-4.535 0.7147,-12.8775 0.7146,-20.4551 0.7147,-26.834 0.7147,-31.6506 0.7146,-34.6329 0.7147,-35.6152 0.7147,-34.5475 0.7146,-31.4984 0.7147,-26.6504 0.7147,-20.2885 0.7146,-12.7848 0.7147,-4.5748 0.7147,3.8663 0.7146,12.0518 0.7147,19.5123 0.7147,25.8212 0.7146,30.6205 0.7147,33.6406 0.7147,34.7155 0.7146,33.7918 0.7147,30.9316 0.7147,26.308 0.7146,20.1953 0.7147,12.952 0.7147,4.9996 0.7146,-3.2007 0.7147,-11.1766 0.7147,-18.4704 0.7146,-24.6664 0.7147,-29.414 0.7147,-32.4481 0.7146,-33.6031 0.7147,-32.8229 0.7147,-30.1631 0.7146,-25.7867 0.7147,-19.9553 0.7147,-13.0119 0.7146,-5.3622 0.7147,2.5501 0.7147,10.2689 0.7146,17.3517 0.7147,23.3956 0.7147,28.0596 0.7146,31.0845 0.7147,32.3066 0.7147,31.6676 0.7146,29.2159 0.7147,25.1042 0.7147,19.5798 0.7146,12.9692 0.7147,5.6595 0.7147,-1.9249 0.7146,-9.3463 0.7147,-16.18 0.7147,-22.0376 0.7146,-26.5896 0.7147,-29.5842 0.7147,-30.8605 0.7146,-30.3581 0.7147,-28.1186 0.7147,-24.2837 0.7146,-19.0854 0.7147,-12.8323 0.7147,-5.8915 0.7146,1.3336 0.7147,8.4259 0.7147,14.9797 0.7146,20.623 0.7147,25.0395 0.7147,27.9853 0.7146,29.3035 0.7147,28.9316 0.7147,26.9049 0.7146,23.3532 0.7147,18.4929 0.7147,12.6136 0.7146,6.0614 0.7147,-0.7826 0.7147,-7.5233 0.7146,-13.7749 0.7147,-19.1836 0.7147,-23.4461 0.7146,-26.3284 0.7147,-27.6774 0.7147,-27.4291 0.7146,-25.6121 0.7147,-22.3447 0.7147,-17.8269 0.7146,-12.3291 0.7147,-6.1753 0.7147,0.2759 0.7146,6.6522 0.7147,12.589 0.7147,17.75 0.7146,21.847 0.7147,24.655 0.7147,26.0255 0.7146,25.8934 0.7147,24.2803 0.7147,21.2928 0.7146,17.1151 0.7147,11.9976 0.7147,6.2425 0.7146,0.1853 0.7147,-5.8244 0.7147,-11.4427 0.7146,-16.352 0.7147,-20.2783 0.7147,-23.0063 0.7146,-24.3914 0.7147,-24.3678 0.7147,-22.9504 0.7146,-20.2341 0.7147,-16.3869 0.7147,-11.6402 0.7146,-6.2744 0.7147,-0.6024 0.7147,5.0483 0.7146,10.3546 0.7147,15.0167 0.7147,18.774 0.7146,21.421 0.7147,22.8171 0.7147,22.8948 0.7146,21.663 0.7147,19.2046 0.7147,15.6727 0.7146,11.2795 0.7147,6.2846 0.7147,0.9795 0.7146,-4.3299 0.7147,-9.3398 0.7147,-13.7671 0.7146,-17.3647 0.7147,-19.9349 0.7147,-21.3411 0.7146,-21.5143 0.7147,-20.4563 0.7147,-18.2398 0.7146,-15.0022 0.7147,-10.9383 0.7147,-6.2882 0.7146,-1.3226 0.7147,3.6717 0.7147,8.4095 0.7146,12.6228 0.7147,16.0759 0.7147,18.5789 0.7146,19.9978 0.7147,20.2614 0.7147,19.3655 0.7146,17.3717 0.7147,14.4034 0.7147,10.6392 0.7146,6.3005 0.7147,1.64 0.7147,-3.0737 0.7146,-7.571 0.7147,-11.5978 0.7147,-14.928 0.7146,-17.378 0.7147,-18.8152 0.7147,-19.1663 0.7146,-18.4203 0.7147,-16.6284 0.7147,-13.9016 0.7146,-10.4025 0.7147,-6.3369 0.7147,-1.9409 0.7146,2.5326 0.7147,6.8276 0.7147,10.7011 0.7146,13.9351 0.7147,16.3504 0.7147,17.8148 0.7146,18.2519 0.7147,17.6441 0.7147,16.033 0.7146,13.5172 0.7147,10.2464 0.7147,6.4116 0.7146,2.2351 0.7147,-2.0431 0.7147,-6.1784 0.7146,-9.9363 0.7147,-13.1048 0.7147,-15.5069 0.7146,-17.01 0.7147,-17.5336 0.7147,-17.0532 0.7146,-15.6014 0.7147,-13.2661 0.7147,-10.1849 0.7146,-6.5368 0.7147,-2.5326 0.7147,1.598 0.7146,5.619 0.7147,9.3018 0.7147,12.4378 0.7146,14.8507 0.7147,16.406 0.7147,17.018 0.7146,16.6556 0.7147,15.3428 0.7147,13.1576 0.7146,10.2276 0.7147,6.722 0.7147,2.8424 0.7146,-1.1889 0.7147,-5.1415 0.7147,-8.7906 0.7146,-11.9285 0.7147,-14.3775 0.7147,-15.9994 0.7146,-16.7034 0.7147,-16.4509 0.7147,-15.2581 0.7146,-13.1944 0.7147,-10.3789 0.7147,-6.9731 0.7146,-3.1722 0.7147,0.8066 0.7147,4.736 0.7146,8.3915 0.7147,11.565 0.7147,14.075 0.7146,15.7788 0.7147,16.5791 0.7147,16.4301 0.7146,15.3404 0.7147,13.3722 0.7147,10.6375 0.7146,7.2922 0.7147,3.5274 0.7147,-0.4424 0.7146,-4.3899 0.7147,-8.0897 0.7147,-11.33 0.7146,-13.9248 0.7147,-15.7249 0.7147,-16.6261 0.7146,-16.5758 0.7147,-15.575 0.7147,-13.6795 0.7146,-10.9961 0.7147,-7.6769 0.7147,-3.9107 0.7146,0.0878 0.7147,4.0902 0.7147,7.8672 0.7146,11.2019 0.7147,13.9021 0.7147,15.8116 0.7146,16.8185 0.7147,16.8629 0.7147,15.9394 0.7146,14.0981 0.7147,11.4418 0.7147,8.1204 0.7146,4.3223 0.7147,0.2637 0.7147,-3.8232 0.7146,-7.7042 0.7147,-11.1556 0.7147,-13.978 0.7146,-16.0071 0.7147,-17.1237 0.7147,-17.2601 0.7146,-16.405 0.7147,-14.6038 0.7147,-11.9563 0.7146,-8.6114 0.7147,-4.7585 0.7147,-0.6171 0.7146,3.576 0.7147,7.5799 0.7147,11.1639 0.7146,14.12 0.7147,16.276 0.7147,17.5043 0.7146,17.7307 0.7147,16.9378 0.7147,15.1673 0.7146,12.5165 0.7147,9.1347 0.7147,5.213 0.7146,0.9752 0.7147,-3.3366 0.7147,-7.4742 0.7146,-11.1988 0.7147,-14.2943 0.7147,-16.5799 0.7146,-17.9203 0.7147,-18.2346 0.7147,-17.5004 0.7146,-15.7555 0.7147,-13.0962 0.7147,-9.6717 0.7146,-5.6765 0.7147,-1.338 0.7147,3.0952 0.7146,7.3677 0.7147,11.2332 0.7147,14.4669 0.7146,16.8802 0.7147,18.3305 0.7147,18.7307 0.7146,18.0533 0.7147,16.3336 0.7147,13.6663 0.7146,10.2019 0.7147,6.1369 0.7147,1.7036 0.7146,-2.844 0.7147,-7.2437 0.7147,-11.2417 0.7146,-14.6058 0.7147,-17.1399 0.7147,-18.695 0.7146,-19.1781 0.7147,-18.5579 0.7147,-16.8663 0.7146,-14.1979 0.7147,-10.703 0.7147,-6.581 0.7146,-2.0675 0.7147,2.5779 0.7147,7.0882 0.7146,11.2025 0.7147,14.6823 0.7147,17.3255 0.7146,18.9771 0.7147,19.5396 0.7147,18.9776 0.7146,17.3208 0.7147,14.6626 0.7147,11.1535 0.7146,6.9946 0.7147,2.4241 0.7147,-2.2949 0.7146,-6.8908 0.7147,-11.0979 0.7147,-14.673 0.7146,-17.4088 0.7147,-19.146 0.7147,-19.783 0.7146,-19.2812 0.7147,-17.6682 0.7147,-15.0355 0.7146,-11.5338 0.7147,-7.3642 0.7147,-2.7662 0.7146,1.995 0.7147,6.6452 0.7147,10.916 0.7146,14.5608 0.7147,17.3689 0.7147,19.1783 0.7146,19.8839 0.7147,19.4447 0.7147,17.8859 0.7146,15.2973 0.7147,11.8278 0.7147,7.678 0.7146,3.0869 0.7147,-1.6806 0.7147,-6.3493 0.7146,-10.6505 0.7147,-14.336 0.7147,-17.194 0.7146,-19.0601 0.7147,-19.8279 0.7147,-19.4536 0.7146,-17.9604 0.7147,-15.4353 0.7147,-12.0253 0.7146,-7.9277 0.7147,-3.38 0.7147,1.3554 0.7146,6.0052 0.7147,10.3016 0.7147,13.9977 0.7146,16.8818 0.7147,18.7891 0.7147,19.6118 0.7146,19.305 0.7147,17.8886 0.7147,15.4469 0.7146,12.1228 0.7147,8.1102 0.7147,3.6416 0.7146,-1.0241 0.7147,-5.6182 0.7147,-9.8762 0.7146,-13.5537 0.7147,-16.4413 0.7147,-18.3749 0.7146,-19.2464 0.7147,-19.0089 0.7147,-17.6802 0.7146,-15.3399 0.7147,-12.1268 0.7147,-8.2283 0.7146,-3.8716 0.7147,0.6912 0.7147,5.1971 0.4168,5.4749"
         style="stroke:#d40000;stroke-opacity:1" />
    </g>
  </g>
</svg>
