<?xml version="1.0" encoding="UTF-8" standalone="no"?>
<!-- generated by Grace-5.1.23 -->

<svg
   xmlns:dc="http://purl.org/dc/elements/1.1/"
   xmlns:cc="http://creativecommons.org/ns#"
   xmlns:rdf="http://www.w3.org/1999/02/22-rdf-syntax-ns#"
   xmlns:svg="http://www.w3.org/2000/svg"
   xmlns="http://www.w3.org/2000/svg"
   xmlns:sodipodi="http://sodipodi.sourceforge.net/DTD/sodipodi-0.dtd"
   xmlns:inkscape="http://www.inkscape.org/namespaces/inkscape"
   xml:space="preserve"
   width="757.52637"
   height="588.96631"
   viewBox="0 0 606.02284 471.17494"
   id="svg2"
   version="1.1"
   inkscape:version="0.91 r13725"
   sodipodi:docname="09_AMT.svg"><metadata
     id="metadata64"><rdf:RDF><cc:Work
         rdf:about=""><dc:format>image/svg+xml</dc:format><dc:type
           rdf:resource="http://purl.org/dc/dcmitype/StillImage" /><dc:title /></cc:Work></rdf:RDF></metadata><defs
     id="defs62"><inkscape:path-effect
       effect="spiro"
       id="path-effect3026"
       is_visible="true" /><inkscape:path-effect
       effect="spiro"
       id="path-effect3026-3"
       is_visible="true" /><inkscape:path-effect
       effect="spiro"
       id="path-effect3026-7"
       is_visible="true" /></defs><sodipodi:namedview
     pagecolor="#ffffff"
     bordercolor="#666666"
     borderopacity="1"
     objecttolerance="10"
     gridtolerance="10"
     guidetolerance="10"
     inkscape:pageopacity="0"
     inkscape:pageshadow="2"
     inkscape:window-width="1026"
     inkscape:window-height="873"
     id="namedview60"
     showgrid="false"
     fit-margin-top="0"
     fit-margin-left="0"
     fit-margin-right="0"
     fit-margin-bottom="0"
     inkscape:zoom="0.5"
     inkscape:cx="281.85093"
     inkscape:cy="451.36432"
     inkscape:window-x="739"
     inkscape:window-y="195"
     inkscape:window-maximized="0"
     inkscape:current-layer="svg2" /><path
     style="fill:none;stroke:#000000;stroke-width:2.40000963;stroke-linecap:butt;stroke-linejoin:miter;stroke-miterlimit:4;stroke-dasharray:9.60003847, 2.40000962;stroke-dashoffset:0;stroke-opacity:1"
     d="m 156.16929,416.96633 0,-205.71465"
     id="path3024"
     inkscape:path-effect="#path-effect3026"
     inkscape:original-d="m 156.16929,416.96633 0,-205.71465"
     inkscape:connector-curvature="0" /><path
     style="fill:none;stroke:#000000;stroke-width:2.40000963;stroke-linecap:butt;stroke-linejoin:miter;stroke-miterlimit:4;stroke-dasharray:9.60003855, 2.40000963;stroke-dashoffset:0;stroke-opacity:1"
     d="m 11.2702,208.89362 145.15192,0"
     id="path3024-6"
     inkscape:path-effect="#path-effect3026-3"
     inkscape:original-d="m 11.2702,208.89362 145.15192,0"
     inkscape:connector-curvature="0"
     sodipodi:nodetypes="cc" /><g
     id="g6"
     style="fill:#ffffff;fill-rule:nonzero"
     transform="matrix(1,0,0,-1,-79.296497,507.05348)" /><g
     id="g14"
     style="fill:none;stroke:#000000;stroke-width:2.23110008;stroke-linecap:butt;stroke-linejoin:miter;stroke-dasharray:none"
     transform="matrix(1,0,0,-1,-79.296497,507.05348)"><path
       inkscape:connector-curvature="0"
       id="path16"
       d="m 89.244,89.244 594.96,0" /><path
       inkscape:connector-curvature="0"
       id="path18"
       d="m 89.244,505.716 594.96,0" /><path
       inkscape:connector-curvature="0"
       id="path20"
       d="m 89.244,89.244 0,11.8992" /><path
       inkscape:connector-curvature="0"
       id="path22"
       d="m 89.244,505.716 0,-11.8992" /><path
       inkscape:connector-curvature="0"
       id="path24"
       d="m 235.6527,89.244 0,11.8992" /><path
       inkscape:connector-curvature="0"
       id="path26"
       d="m 235.6527,505.716 0,-11.8992" /><path
       inkscape:connector-curvature="0"
       id="path28"
       d="m 382.0613,89.244 0,11.8992" /><path
       inkscape:connector-curvature="0"
       id="path30"
       d="m 382.0613,505.716 0,-11.8992" /><path
       inkscape:connector-curvature="0"
       id="path32"
       d="m 528.47,89.244 0,11.8992" /><path
       inkscape:connector-curvature="0"
       id="path34"
       d="m 528.47,505.716 0,-11.8992" /><path
       inkscape:connector-curvature="0"
       id="path36"
       d="m 674.8786,89.244 0,11.8992" /><path
       inkscape:connector-curvature="0"
       id="path38"
       d="m 674.8786,505.716 0,-11.8992" /><path
       inkscape:connector-curvature="0"
       id="path40"
       d="m 89.244,89.244 0,416.472" /><path
       inkscape:connector-curvature="0"
       id="path42"
       d="m 684.204,89.244 0,416.472" /><path
       inkscape:connector-curvature="0"
       id="path44"
       d="m 89.244,89.244 11.8992,0" /><path
       inkscape:connector-curvature="0"
       id="path46"
       d="m 684.204,89.244 -11.8992,0" /><path
       inkscape:connector-curvature="0"
       id="path48"
       d="m 89.244,297.48 11.8992,0" /><path
       inkscape:connector-curvature="0"
       id="path50"
       d="m 684.204,297.48 -11.8992,0" /><path
       inkscape:connector-curvature="0"
       id="path52"
       d="m 89.244,505.716 11.8992,0" /><path
       inkscape:connector-curvature="0"
       id="path54"
       d="m 684.204,505.716 -11.8992,0" /></g><g
     id="g56"
     style="fill:none;stroke:#000000;stroke-width:0.89240003;stroke-linecap:butt;stroke-linejoin:miter;stroke-dasharray:none"
     transform="matrix(1,0,0,-1,-79.296497,507.05348)"><path
       inkscape:connector-curvature="0"
       id="path58"
       d="m 89.244,89.244 0,416.472 594.96,0 0,-416.472 z" /></g><g
     id="g3382"><path
       style="fill:none;stroke:#d40000;stroke-width:2.67729998;stroke-linecap:butt;stroke-linejoin:miter;stroke-dasharray:none;stroke-opacity:1"
       inkscape:connector-curvature="0"
       id="path12"
       d="m 9.947503,417.80948 0.5865,-0.004 0.5865,-0.0124 0.5865,-0.0206 0.5865,-0.0288 0.5866,-0.0371 0.5865,-0.0452 0.5865,-0.0536 0.5865,-0.0617 0.5865,-0.07 0.5865,-0.0782 0.5865,-0.0864 0.5865,-0.0947 0.5865,-0.1028 0.5865,-0.1111 0.5866,-0.1193 0.5865,-0.1275 0.5865,-0.1356 0.5865,-0.1439 0.5865,-0.152 0.5865,-0.1602 0.5865,-0.1684 0.5865,-0.1766 0.5865,-0.1847 0.5865,-0.1929 0.5866,-0.201 0.5865,-0.2091 0.5865,-0.2173 0.5865,-0.2254 0.5865,-0.2335 0.5865,-0.2416 0.5865,-0.2497 0.5865,-0.2578 0.5865,-0.2658 0.5865,-0.2739 0.5866,-0.282 0.5865,-0.29 0.5865,-0.298 0.5865,-0.306 0.5865,-0.314 0.5865,-0.3221 0.5865,-0.33 0.5865,-0.3379 0.5865,-0.346 0.5865,-0.3538 0.5866,-0.3618 0.5865,-0.3697 0.5865,-0.3776 0.5865,-0.3855 0.5865,-0.3933 0.5865,-0.4012 0.5865,-0.409 0.5865,-0.4168 0.5865,-0.4246 0.5866,-0.4325 0.5865,-0.4401 0.5865,-0.448 0.5865,-0.4556 0.5865,-0.4634 0.5865,-0.4711 0.5865,-0.4787 0.5865,-0.4864 0.5865,-0.4941 0.5865,-0.5016 0.5866,-0.5093 0.5865,-0.5168 0.5865,-0.5244 0.5865,-0.5319 0.5865,-0.5395 0.5865,-0.5469 0.5865,-0.5545 0.5865,-0.5618 0.5865,-0.5693 0.5865,-0.5767 0.5866,-0.5841 0.5865,-0.5915 0.5865,-0.5988 0.5865,-0.6061 0.5865,-0.6134 0.5865,-0.6206 0.5865,-0.6279 0.5865,-0.6351 0.5865,-0.6423 0.5865,-0.6495 0.5866,-0.6566 0.5865,-0.6637 0.5865,-0.6709 0.5865,-0.6778 0.5865,-0.6849 0.5865,-0.692 0.5865,-0.6989 0.5865,-0.7058 0.5865,-0.7128 0.5865,-0.7197 0.5866,-0.7265 0.5865,-0.7334 0.5865,-0.7402 0.5865,-0.7469 0.5865,-0.7537 0.5865,-0.7605 0.5865,-0.7671 0.5865,-0.7738 0.5865,-0.7804 0.5866,-0.787 0.5865,-0.7936 0.5865,-0.8002 0.5865,-0.8066 0.5865,-0.8131 0.5865,-0.8195 0.5865,-0.826 0.5865,-0.8323 0.5865,-0.8387 0.5865,-0.845 0.5866,-0.8512 0.5865,-0.8575 0.5865,-0.8638 0.5865,-0.8698 0.5865,-0.8761 0.5865,-0.8821 0.5865,-0.8882 0.5865,-0.8943 0.5865,-0.9002 0.5865,-0.9062 0.5866,-0.9121 0.5865,-0.9181 0.5865,-0.9238 0.5865,-0.9297 0.5865,-0.9355 0.5865,-0.9413 0.5865,-0.9469 0.5865,-0.9526 0.5865,-0.9583 0.5865,-0.9638 0.5866,-0.9694 0.5865,-0.9749 0.5865,-0.9804 0.5865,-0.9859 0.5865,-0.9912 0.5865,-0.9966 0.5865,-1.002 0.5865,-1.0072 0.5865,-1.0125 0.5865,-1.0176 0.5866,-1.0229 0.5865,-1.0279 0.5865,-1.0331 0.5865,-1.038 0.5865,-1.0431 0.5865,-1.0481 0.5865,-1.0529 0.5865,-1.0579 0.5865,-1.0627 0.5866,-1.0674 0.5865,-1.0723 0.586497,-1.0769 0.5865,-1.0816 0.5865,-1.0862 0.5865,-1.0908 0.5865,-1.0953 0.5865,-1.0999 0.5865,-1.1043 0.5865,-1.1086 0.5866,-1.1131 0.5865,-1.1174 0.5865,-1.1216 0.5865,-1.1259 0.5865,-1.13 0.5865,-1.1343 0.5865,-1.1382 0.5865,-1.1424 0.5865,-1.1464 0.5865,-1.1503 0.5866,-1.1542 0.5865,-1.1581 0.5865,-1.1619 0.5865,-1.1657 0.5865,-1.1695 0.5865,-1.1731 0.5865,-1.1767 0.5865,-1.1804 0.5865,-1.1839 0.5865,-1.1874 0.5866,-1.1908 0.5865,-1.1943 0.5865,-1.1976 0.5865,-1.2009 0.5865,-1.2042 0.5865,-1.2074 0.5865,-1.2106 0.5865,-1.2136 0.5865,-1.2168 0.5866,-1.2198 0.5865,-1.2227 0.5865,-1.2257 0.5865,-1.2286 0.5865,-1.2314 0.5865,-1.2341 0.5865,-1.2369 0.5865,-1.2396 0.5865,-1.2422 0.5865,-1.2448 0.5866,-1.2474 0.5865,-1.2498 0.5865,-1.2522 0.5865,-1.2547 0.5865,-1.257 0.5865,-1.2593 0.5865,-1.2615 0.5865,-1.2637 0.5865,-1.2658 0.5865,-1.2679 0.5866,-1.27 0.5865,-1.272 0.5865,-1.2738 0.5865,-1.2758 0.5865,-1.2776 0.5865,-1.2794 0.5865,-1.2812 0.5865,-1.2828 0.5865,-1.2845 0.5865,-1.286 0.5866,-1.2876 0.5865,-1.289 0.5865,-1.2905 0.5865,-1.2919 0.5865,-1.2931 0.5865,-1.2945 0.5865,-1.2957 0.5865,-1.2969 0.5865,-1.298 0.5866,-1.299 0.5865,-1.3001 0.5865,-1.3011 0.5865,-1.3019 0.5865,-1.3029 0.5865,-1.3036 0.5865,-1.3045 0.5865,-1.3051 0.5865,-1.3058 0.5865,-1.3064 0.5866,-1.3069 0.5865,-1.3075 0.5865,-1.3079 0.5865,-1.3083 0.5865,-1.3087 0.5865,-1.3089 0.5865,-1.3092 0.5865,-1.3094 0.5865,-1.3096 0.5865,-1.3096 0.5865,-1.3097 0.5866,-1.3096 0.5865,-1.3096 0.5865,-1.3095 0.5865,-1.3093 0.5865,-1.3091 0.5865,-1.3088 0.5865,-1.3085 0.5865,-1.3082 0.5865,-1.3076 0.5865,-1.3073 0.5866,-1.3067 0.5865,-1.3061 0.5865,-1.3054 0.5865,-1.3048 0.5865,-1.3041 0.5865,-1.3032 0.5865,-1.3024 0.5865,-1.3016 0.5865,-1.3005 0.5866,-1.2996 0.5865,-1.2986 0.5865,-1.2974 0.5865,-1.2963 0.5865,-1.2951 0.5865,-1.2938 0.5865,-1.2926 0.5865,-1.2912 0.5865,-1.2898 0.5865,-1.2883 0.5866,-1.2868 0.5865,-1.2853 0.5865,-1.2836 0.5865,-1.282 0.5865,-1.2803 0.5865,-1.2785 0.5865,-1.2767 0.5865,-1.2749 0.5865,-1.2729 0.5865,-1.271 0.5866,-1.269 0.5865,-1.2669 0.5865,-1.2648 0.5865,-1.2626 0.5865,-1.2604 0.5865,-1.2582 0.5865,-1.2558 0.5865,-1.2535 0.5865,-1.2511 0.5865,-1.2486 0.5866,-1.2461 0.5865,-1.2435 0.5865,-1.2409 0.5865,-1.2383 0.5865,-1.2355 0.5865,-1.2328 0.5865,-1.23 0.5865,-1.2272 0.5865,-1.2242 0.5866,-1.2213 0.5865,-1.2183 0.5865,-1.2153 0.5865,-1.2121 0.5865,-1.209 0.5865,-1.2058 0.5865,-1.2026 0.5865,-1.1993 0.5865,-1.196 0.5865,-1.1925 0.5866,-1.1892 0.5865,-1.1857 0.5865,-1.1821 0.5865,-1.1786 0.5865,-1.175 0.5865,-1.1713 0.5865,-1.1676 0.5865,-1.1638 0.5865,-1.1601 0.5865,-1.1562 0.5866,-1.1523 0.5865,-1.1483 0.5865,-1.1444 0.5865,-1.1404 0.5865,-1.1363 0.5865,-1.1321 0.5865,-1.128 0.5865,-1.1238 0.5865,-1.1196 0.5865,-1.1152 0.5866,-1.1109 0.5865,-1.1066 0.5865,-1.102 0.5865,-1.0977 0.5865,-1.0931 0.5865,-1.0885 0.5865,-1.084 0.5865,-1.0793 0.5865,-1.0746 0.5866,-1.0699 0.5865,-1.0651 0.5865,-1.0603 0.5865,-1.0554 0.5865,-1.0506 0.5865,-1.0456 0.5865,-1.0406 0.5865,-1.0356 0.5865,-1.0305 0.5865,-1.0255 0.5866,-1.0203 0.5865,-1.0151 0.5865,-1.0098 0.5865,-1.0047 0.5865,-0.9993 0.5865,-0.9939 0.5865,-0.9886 0.5865,-0.9832 0.5865,-0.9777 0.5865,-0.9722 0.5866,-0.9667 0.5865,-0.9611 0.5865,-0.9554 0.5865,-0.9498 0.5865,-0.9442 0.5865,-0.9384 0.5865,-0.9326 0.5865,-0.9269 0.5865,-0.921 0.5865,-0.9151 0.5866,-0.9092 0.5865,-0.9033 0.5865,-0.8973 0.5865,-0.8912 0.5865,-0.8852 0.5865,-0.8792 0.5865,-0.873 0.5865,-0.8668 0.5865,-0.8607 0.5866,-0.8544 0.5865,-0.8482 0.5865,-0.8418 0.5865,-0.8356 0.5865,-0.8292 0.5865,-0.8228 0.5865,-0.8163 0.5865,-0.81 0.5865,-0.8034 0.5865,-0.7969 0.5866,-0.7904 0.5865,-0.7837 0.5865,-0.7772 0.5865,-0.7705 0.5865,-0.7638 0.5865,-0.7572 0.5865,-0.7503 0.5865,-0.7437 0.5865,-0.7368 0.5865,-0.73 0.5866,-0.7232 0.5865,-0.7162 0.5865,-0.7094 0.5865,-0.7024 0.5865,-0.6955 0.5865,-0.6884 0.5865,-0.6815 0.5865,-0.6744 0.5865,-0.6673 0.5865,-0.6602 0.5866,-0.6531 0.5865,-0.646 0.5865,-0.6387 0.5865,-0.6316 0.5865,-0.6243 0.5865,-0.6171 0.5865,-0.6098 0.5865,-0.6025 0.5865,-0.5952 0.5865,-0.5878 0.5866,-0.5804 0.5865,-0.5731 0.5865,-0.5656 0.5865,-0.5582 0.5865,-0.5508 0.5865,-0.5432 0.5865,-0.5358 0.5865,-0.5282 0.5865,-0.5206 0.5866,-0.5131 0.5865,-0.5056 0.5865,-0.4979 0.5865,-0.4902 0.5865,-0.4827 0.5865,-0.4749 0.5865,-0.4673 0.5865,-0.4596 0.5865,-0.4518 0.5865,-0.4441 0.5866,-0.4364 0.5865,-0.4286 0.5865,-0.4208 0.5865,-0.4129 0.5865,-0.4052 0.5865,-0.3973 0.5865,-0.3894 0.5865,-0.3816 0.5865,-0.3737 0.5865,-0.3658 0.5866,-0.3579 0.5865,-0.3499 0.5865,-0.342 0.5865,-0.3341 0.5865,-0.3261 0.5865,-0.318 0.5865,-0.3101 0.5865,-0.3021 0.5865,-0.2941 0.5865,-0.286 0.5866,-0.278 0.5865,-0.2699 0.5865,-0.2619 0.5865,-0.2538 0.5865,-0.2457 0.5865,-0.2376 0.5865,-0.2295 0.5865,-0.2214 0.5865,-0.2132 0.5866,-0.2052 0.5865,-0.197 0.5865,-0.1888 0.5865,-0.1807 0.5865,-0.1725 0.5865,-0.1644 0.5865,-0.1562 0.5865,-0.148 0.5865,-0.1398 0.5865,-0.1316 0.5866,-0.1235 0.5865,-0.1152 0.5865,-0.107 0.5865,-0.0988 0.5865,-0.0906 0.5865,-0.0824 0.5865,-0.0741 0.5865,-0.066 0.5865,-0.0577 0.5865,-0.0494 0.5865,-0.0413 0.5866,-0.033 0.5865,-0.0247 0.5865,-0.0166 0.5865,-0.008 0.5865,-10e-5 0.5865,0.008 0.5865,0.0164 0.5865,0.0247 0.5865,0.0328 0.5865,0.0412 0.5866,0.0493 0.5865,0.0576 0.5865,0.0658 0.5865,0.0741 0.5865,0.0822 0.5865,0.0905 0.5865,0.0987 0.5865,0.1069 0.5865,0.1151 0.5866,0.1233 0.5865,0.1315 0.5865,0.1398 0.5865,0.1478 0.5865,0.1561 0.5865,0.1643 0.5865,0.1724 0.5865,0.1806 0.5865,0.1887 0.5865,0.1969 0.5866,0.205 0.5865,0.2132 0.5865,0.2213 0.5865,0.2293 0.5865,0.2375 0.5865,0.2456 0.5865,0.2537 0.5865,0.2618 0.5865,0.2698 0.5865,0.2779 0.5866,0.2859 0.5865,0.2939 0.5865,0.302 0.5865,0.31 0.5865,0.318 0.5865,0.3259 0.5865,0.334 0.5865,0.3419 0.5865,0.3498 0.5865,0.3578 0.5866,0.3657 0.5865,0.3736 0.5865,0.3814 0.5865,0.3894 0.5865,0.3972 0.5865,0.405 0.5865,0.4129 0.5865,0.4207 0.5865,0.4284 0.5866,0.4363 0.5865,0.444 0.5865,0.4517 0.5865,0.4595 0.5865,0.4672 0.5865,0.4748 0.5865,0.4826 0.5865,0.4901 0.5865,0.4978 0.5865,0.5054 0.5866,0.513 0.5865,0.5206 0.5865,0.5281 0.5865,0.5357 0.5865,0.5431 0.5865,0.5507 0.5865,0.5581 0.5865,0.5655 0.5865,0.5729 0.5865,0.5804 0.5866,0.5877 0.5865,0.5951 0.5865,0.6024 0.5865,0.6097 0.5865,0.617 0.5865,0.6242 0.5865,0.6315 0.5865,0.6386 0.5865,0.6459 0.5865,0.653 0.5866,0.6601 0.5865,0.6672 0.5865,0.6743 0.5865,0.6814 0.5865,0.6883 0.5865,0.6954 0.5865,0.7023 0.5865,0.7093 0.5865,0.7162 0.5866,0.723 0.5865,0.7299 0.5865,0.7368 0.5865,0.7435 0.5865,0.7503 0.5865,0.7571 0.5865,0.7637 0.5865,0.7704 0.5865,0.7771 0.5865,0.7837 0.5866,0.7902 0.5865,0.7969 0.5865,0.8033 0.5865,0.8098 0.5865,0.8163 0.5865,0.8227 0.5865,0.8291 0.5865,0.8355 0.5865,0.8418 0.5865,0.8481 0.5866,0.8543 0.5865,0.8606 0.5865,0.8667 0.5865,0.873 0.5865,0.879 0.5865,0.8851 0.5865,0.8912 0.5865,0.8972 0.5865,0.9032 0.5865,0.9091 0.5866,0.9151 0.5865,0.9209 0.5865,0.9268 0.5865,0.9325 0.5865,0.9384 0.5865,0.944 0.5865,0.9498 0.5865,0.9553 0.5865,0.9611 0.5866,0.9665 0.5865,0.9722 0.5865,0.9776 0.5865,0.9831 0.5865,0.9885 0.5865,0.9939 0.5865,0.9992 0.5865,1.0046 0.5865,1.0098 0.5865,1.015 0.5866,1.0203 0.5865,1.0253 0.5865,1.0305 0.5865,1.0355 0.5865,1.0406 0.5865,1.0455 0.5865,1.0505 0.5865,1.0554 0.5865,1.0602 0.5865,1.0651 0.5866,1.0698 0.5865,1.0745 0.5865,1.0793 0.5865,1.0838 0.5865,1.0885 0.5865,1.0931 0.5865,1.0975 0.5865,1.1021 0.5865,1.1064 0.5865,1.1109 0.5866,1.1152 0.5865,1.1194 0.5865,1.1238 0.5865,1.1279 0.5865,1.1321 0.5865,1.1363 0.5865,1.1403 0.5865,1.1443 0.5865,1.1483 0.5865,1.1523 0.5866,1.1561 0.5865,1.16 0.5865,1.1638 0.5865,1.1676 0.5865,1.1712 0.5865,1.1749 0.5865,1.1786 0.5865,1.1821 0.5865,1.1856 0.5866,1.1891 0.5865,1.1925 0.5865,1.196 0.5865,1.1992 0.5865,1.2025 0.5865,1.2058 0.5865,1.209 0.5865,1.2121 0.5865,1.2152 0.5865,1.2182 0.5866,1.2213 0.5865,1.2242 0.5865,1.2271 0.5865,1.23 0.5865,1.2327 0.5865,1.2355 0.5865,1.2383 0.5865,1.2409 0.5865,1.2435 0.5865,1.246 0.5866,1.2486 0.5865,1.251 0.5865,1.2535 0.5865,1.2558 0.5865,1.2581 0.5865,1.2604 0.5865,1.2626 0.5865,1.2647 0.5865,1.2669 0.5865,1.269 0.5866,1.2709 0.5865,1.2729 0.5865,1.2748 0.5865,1.2767 0.5865,1.2785 0.5865,1.2803 0.5865,1.282 0.5865,1.2836 0.5865,1.2853 0.5866,1.2868 0.5865,1.2883 0.5865,1.2897 0.5865,1.2912 0.5865,1.2925 0.5865,1.2938 0.5865,1.2951 0.5865,1.2963 0.5865,1.2974 0.5865,1.2986 0.5866,1.2995 0.5865,1.3006 0.5865,1.3015 0.5865,1.3024 0.5865,1.3033 0.5865,1.304 0.5865,1.3048 0.5865,1.3054 0.5865,1.3061 0.5865,1.3067 0.5865,1.3072 0.5866,1.3077 0.5865,1.3081 0.5865,1.3085 0.5865,1.3088 0.5865,1.3091 0.5865,1.3093 0.5865,1.3095 0.5865,1.3096 0.5865,1.3097 0.5866,1.3096 0.5865,1.3097 0.5865,1.3095 0.5865,1.3094 0.5865,1.3092 0.5865,1.309 0.5865,1.3087 0.5865,1.3083 0.5865,1.3079 0.5865,1.3075 0.5866,1.3069 0.5865,1.3064 0.5865,1.3058 0.5865,1.3052 0.5865,1.3044 0.5865,1.3036 0.5865,1.3029 0.5865,1.302 0.5865,1.301 0.5865,1.3001 0.5866,1.2991 0.5865,1.298 0.5865,1.2969 0.5865,1.2957 0.5865,1.2945 0.5865,1.2932 0.5865,1.2919 0.5865,1.2905 0.5865,1.2891 0.5865,1.2876 0.5866,1.286 0.5865,1.2845 0.5865,1.2828 0.5865,1.2812 0.5865,1.2794 0.5865,1.2777 0.5865,1.2758 0.5865,1.2739 0.5865,1.272 0.5865,1.27 0.5866,1.2679 0.5865,1.2659 0.5865,1.2637 0.5865,1.2615 0.5865,1.2594 0.5865,1.257 0.5865,1.2547 0.5865,1.2522 0.5865,1.2499 0.5866,1.2474 0.5865,1.2448 0.5865,1.2423 0.5865,1.2396 0.5865,1.2369 0.5865,1.2342 0.5865,1.2315 0.5865,1.2285 0.5865,1.2258 0.5865,1.2228 0.5866,1.2198 0.5865,1.2168 0.5865,1.2137 0.5865,1.2106 0.5865,1.2075 0.5865,1.2042 0.5865,1.2009 0.5865,1.1977 0.5865,1.1943 0.5865,1.1909 0.5866,1.1874 0.5865,1.184 0.5865,1.1804 0.5865,1.1768 0.5865,1.1731 0.5865,1.1695 0.5865,1.1658 0.5865,1.162 0.5865,1.1581 0.5865,1.1543 0.5866,1.1504 0.5865,1.1464 0.5865,1.1424 0.5865,1.1383 0.5865,1.1343 0.5865,1.1301 0.5865,1.1259 0.5865,1.1217 0.5865,1.1175 0.5866,1.1131 0.5865,1.1087 0.5865,1.1044 0.5865,1.0999 0.5865,1.0954 0.5865,1.0908 0.5865,1.0863 0.5865,1.0817 0.5865,1.077 0.5865,1.0723 0.5866,1.0675 0.5865,1.0627 0.5865,1.0579 0.5865,1.0531 0.5865,1.0481 0.5865,1.0431 0.5865,1.0382 0.5865,1.0331 0.5865,1.028 0.5865,1.0229 0.5866,1.0178 0.5865,1.0125 0.5865,1.0073 0.5865,1.002 0.5865,0.9967 0.5865,0.9913 0.5865,0.9859 0.5865,0.9805 0.5865,0.975 0.5865,0.9695 0.5866,0.9639 0.5865,0.9583 0.5865,0.9527 0.5865,0.947 0.5865,0.9413 0.5865,0.9356 0.5865,0.9298 0.5865,0.9239 0.5865,0.9182 0.5866,0.9122 0.5865,0.9063 0.5865,0.9003 0.5865,0.8943 0.5865,0.8883 0.5865,0.8822 0.5865,0.8761 0.5865,0.87 0.5865,0.8638 0.5865,0.8576 0.5866,0.8513 0.5865,0.8451 0.5865,0.8387 0.5865,0.8325 0.5865,0.826 0.5865,0.8196 0.5865,0.8132 0.5865,0.8067 0.5865,0.8003 0.5865,0.7936 0.5866,0.7871 0.5865,0.7806 0.5865,0.7738 0.5865,0.7673 0.5865,0.7605 0.5865,0.7538 0.5865,0.7471 0.5865,0.7402 0.5865,0.7335 0.5865,0.7266 0.5866,0.7198 0.5865,0.7129 0.5865,0.7059 0.5865,0.699 0.5865,0.692 0.5865,0.685 0.5865,0.678 0.5865,0.6709 0.5865,0.6638 0.5866,0.6567 0.5865,0.6496 0.5865,0.6424 0.5865,0.6352 0.5865,0.628 0.5865,0.6208 0.5865,0.6135 0.5865,0.6062 0.5865,0.5989 0.5865,0.5915 0.5866,0.5842 0.5865,0.5768 0.5865,0.5694 0.5865,0.562 0.5865,0.5545 0.5865,0.547 0.5865,0.5396 0.5865,0.532 0.5865,0.5245 0.5865,0.517 0.5866,0.5093 0.5865,0.5018 0.5865,0.4941 0.5865,0.4865 0.5865,0.4789 0.5865,0.4712 0.5865,0.4634 0.5865,0.4558 0.5865,0.448 0.5865,0.4403 0.5866,0.4325 0.5865,0.4248 0.5865,0.4169 0.5865,0.4091 0.5865,0.4013 0.5865,0.3935 0.5865,0.3855 0.5865,0.3777 0.5865,0.3698 0.5865,0.3619 0.5866,0.354 0.5865,0.346 0.5865,0.3381 0.5865,0.3301 0.5865,0.3221 0.5865,0.3142 0.5865,0.3061 0.5865,0.2982 0.5865,0.2901 0.5866,0.282 0.5865,0.274 0.5865,0.266 0.5865,0.2579 0.5865,0.2498 0.5865,0.2417 0.5865,0.2336 0.5865,0.2255 0.5865,0.2174 0.5865,0.2092 0.5866,0.2012 0.5865,0.1929 0.5865,0.1849 0.5865,0.1766 0.5865,0.1685 0.5865,0.1604 0.5865,0.1521 0.5865,0.144 0.5865,0.1358 0.5865,0.1275 0.5865,0.1194 0.5866,0.1112 0.5865,0.103 0.5865,0.0947 0.5865,0.0866 0.5865,0.0783 0.5865,0.0701 0.5865,0.0618 0.5865,0.0537 0.5865,0.0454 0.5866,0.0372 0.5865,0.0289 0.5865,0.0207 0.5865,0.0125 0.5865,0.004" /><path
       inkscape:connector-curvature="0"
       inkscape:original-d="M 114.07666,300.89917 200.56864,114.25068"
       inkscape:path-effect="#path-effect3026-7"
       id="path3024-5"
       d="M 114.07666,300.89917 200.56864,114.25068"
       style="fill:#0000ff;stroke:#0000d4;stroke-width:4.00001621;stroke-linecap:butt;stroke-linejoin:miter;stroke-miterlimit:4;stroke-dasharray:none;stroke-dashoffset:0;stroke-opacity:1" /></g><text
     xml:space="preserve"
     style="font-style:normal;font-variant:normal;font-weight:normal;font-stretch:normal;font-size:44.80017853px;line-height:125%;font-family:'Nimbus Sans L';-inkscape-font-specification:Sans;letter-spacing:0px;word-spacing:0px;fill:#000000;fill-opacity:1;stroke:none"
     x="-9.690176"
     y="16.326567"
     id="text3091-3"
     sodipodi:linespacing="125%"><tspan
       sodipodi:role="line"
       id="tspan3093-5"
       x="-9.690176"
       y="16.326567">$1$</tspan></text>
<text
     xml:space="preserve"
     style="font-style:normal;font-variant:normal;font-weight:normal;font-stretch:normal;font-size:44.80017853px;line-height:125%;font-family:'Nimbus Sans L';-inkscape-font-specification:Sans;letter-spacing:0px;word-spacing:0px;fill:#000000;fill-opacity:1;stroke:none"
     x="618.10223"
     y="419.70724"
     id="text3041"
     sodipodi:linespacing="125%"><tspan
       sodipodi:role="line"
       id="tspan3043"
       x="618.10223"
       y="419.70724">$\Delta\phi$</tspan></text>
<text
     xml:space="preserve"
     style="font-style:normal;font-variant:normal;font-weight:normal;font-stretch:normal;font-size:44.80017853px;line-height:125%;font-family:'Nimbus Sans L';-inkscape-font-specification:Sans;letter-spacing:0px;word-spacing:0px;fill:#000000;fill-opacity:1;stroke:none"
     x="-1.458997"
     y="448.60843"
     id="text3045"
     sodipodi:linespacing="125%"><tspan
       sodipodi:role="line"
       id="tspan3047"
       x="-1.458997"
       y="448.60843">$0$</tspan></text>
<text
     xml:space="preserve"
     style="font-style:normal;font-variant:normal;font-weight:normal;font-stretch:normal;font-size:44.80017853px;line-height:125%;font-family:'Nimbus Sans L';-inkscape-font-specification:Sans;letter-spacing:0px;word-spacing:0px;fill:#000000;fill-opacity:1;stroke:none"
     x="290.08667"
     y="448.60843"
     id="text3045-3"
     sodipodi:linespacing="125%"><tspan
       sodipodi:role="line"
       id="tspan3047-6"
       x="290.08667"
       y="448.60843">$\pi$</tspan></text>
<text
     xml:space="preserve"
     style="font-style:normal;font-variant:normal;font-weight:normal;font-stretch:normal;font-size:44.80017853px;line-height:125%;font-family:'Nimbus Sans L';-inkscape-font-specification:Sans;letter-spacing:0px;word-spacing:0px;fill:#000000;fill-opacity:1;stroke:none"
     x="593.41559"
     y="444.48685"
     id="text3045-3-7"
     sodipodi:linespacing="125%"
     inkscape:transform-center-x="339.54695"
     inkscape:transform-center-y="-9.9282733"><tspan
       sodipodi:role="line"
       id="tspan3047-6-5"
       x="593.41559"
       y="444.48685">$2\pi$</tspan></text>
<text
     xml:space="preserve"
     style="font-style:normal;font-variant:normal;font-weight:normal;font-stretch:normal;font-size:44.80017853px;line-height:125%;font-family:'Nimbus Sans L';-inkscape-font-specification:Sans;letter-spacing:0px;word-spacing:0px;fill:#000000;fill-opacity:1;stroke:none"
     x="-63.882202"
     y="16.404245"
     id="text3091"
     sodipodi:linespacing="125%"><tspan
       sodipodi:role="line"
       id="tspan3093"
       x="-63.882202"
       y="16.404245">$T$</tspan></text>
<text
     xml:space="preserve"
     style="font-style:normal;font-variant:normal;font-weight:normal;font-stretch:normal;font-size:44.80017853px;line-height:125%;font-family:'Nimbus Sans L';-inkscape-font-specification:Sans;letter-spacing:0px;word-spacing:0px;fill:#000000;fill-opacity:1;stroke:none"
     x="-42.053818"
     y="222.83548"
     id="text3091-3-6"
     sodipodi:linespacing="125%"><tspan
       sodipodi:role="line"
       id="tspan3093-5-2"
       x="-42.053818"
       y="222.83548">$0,5$</tspan></text>
<text
     xml:space="preserve"
     style="font-style:normal;font-variant:normal;font-weight:normal;font-stretch:normal;font-size:44.80017853px;line-height:125%;font-family:'Nimbus Sans L';-inkscape-font-specification:Sans;letter-spacing:0px;word-spacing:0px;fill:#000000;fill-opacity:1;stroke:none"
     x="-16.293058"
     y="429.34439"
     id="text3091-3-9"
     sodipodi:linespacing="125%"><tspan
       sodipodi:role="line"
       id="tspan3093-5-1"
       x="-16.293058"
       y="429.34439">$0$</tspan></text>
<text
     xml:space="preserve"
     style="font-style:normal;font-variant:normal;font-weight:normal;font-stretch:normal;font-size:44.80017853px;line-height:125%;font-family:'Nimbus Sans L';-inkscape-font-specification:Sans;letter-spacing:0px;word-spacing:0px;fill:#000000;fill-opacity:1;stroke:none"
     x="144.54543"
     y="448.33963"
     id="text3045-3-3"
     sodipodi:linespacing="125%"><tspan
       sodipodi:role="line"
       id="tspan3047-6-56"
       x="144.54543"
       y="448.33963">$\pi/2$</tspan></text>
<text
     xml:space="preserve"
     style="font-style:normal;font-variant:normal;font-weight:normal;font-stretch:normal;font-size:44.80017853px;line-height:125%;font-family:'Nimbus Sans L';-inkscape-font-specification:Sans;letter-spacing:0px;word-spacing:0px;fill:#000000;fill-opacity:1;stroke:none"
     x="436.85022"
     y="448.33963"
     id="text3045-3-3-3"
     sodipodi:linespacing="125%"><tspan
       sodipodi:role="line"
       id="tspan3047-6-56-6"
       x="436.85022"
       y="448.33963">$3\pi/2$</tspan></text>
</svg>