<?xml version="1.0" encoding="UTF-8" standalone="no"?>
<!-- generated by Grace-5.1.23 -->

<svg
   xmlns:dc="http://purl.org/dc/elements/1.1/"
   xmlns:cc="http://creativecommons.org/ns#"
   xmlns:rdf="http://www.w3.org/1999/02/22-rdf-syntax-ns#"
   xmlns:svg="http://www.w3.org/2000/svg"
   xmlns="http://www.w3.org/2000/svg"
   xmlns:sodipodi="http://sodipodi.sourceforge.net/DTD/sodipodi-0.dtd"
   xmlns:inkscape="http://www.inkscape.org/namespaces/inkscape"
   xml:space="preserve"
   width="812.67328"
   height="568.33527"
   viewBox="0 0 650.1405 454.67003"
   id="svg2"
   version="1.1"
   inkscape:version="0.91 r13725"
   sodipodi:docname="09_AOcalc.svg"><metadata
     id="metadata140"><rdf:RDF><cc:Work
         rdf:about=""><dc:format>image/svg+xml</dc:format><dc:type
           rdf:resource="http://purl.org/dc/dcmitype/StillImage" /><dc:title /></cc:Work></rdf:RDF></metadata><defs
     id="defs138" /><sodipodi:namedview
     pagecolor="#ffffff"
     bordercolor="#666666"
     borderopacity="1"
     objecttolerance="10"
     gridtolerance="10"
     guidetolerance="10"
     inkscape:pageopacity="0"
     inkscape:pageshadow="2"
     inkscape:window-width="1433"
     inkscape:window-height="869"
     id="namedview136"
     showgrid="false"
     fit-margin-top="0"
     fit-margin-left="0"
     fit-margin-right="0"
     fit-margin-bottom="0"
     inkscape:zoom="0.71221527"
     inkscape:cx="559.29132"
     inkscape:cy="161.95256"
     inkscape:window-x="444"
     inkscape:window-y="81"
     inkscape:window-maximized="0"
     inkscape:current-layer="svg2" /><path
     style="fill:none;stroke:#d40000;stroke-width:2.67729998;stroke-linecap:butt;stroke-linejoin:miter;stroke-dasharray:none;stroke-opacity:1"
     d="m 46.432212,426.90302 0.5956,-0.0104 0.5955,-0.0313 0.5956,-0.0522 0.5955,-0.073 0.5956,-0.0939 0.5955,-0.1147 0.5956,-0.1355 0.5955,-0.1563 0.5956,-0.1772 0.5956,-0.1979 0.5955,-0.2187 0.5956,-0.2394 0.5955,-0.2601 0.5956,-0.2809 0.5955,-0.3014 0.5956,-0.3222 0.5955,-0.3427 0.5956,-0.3632 0.5956,-0.3838 0.5955,-0.4043 0.5956,-0.4248 0.5955,-0.4451 0.5956,-0.4655 0.5955,-0.4859 0.5956,-0.5061 0.5955,-0.5263 0.5956,-0.5464 0.5956,-0.5666 0.5955,-0.5866 0.5956,-0.6066 0.5955,-0.6266 0.5956,-0.6464 0.5955,-0.6662 0.5956,-0.686 0.5955,-0.7056 0.5956,-0.7252 0.5956,-0.7448 0.5955,-0.7642 0.5956,-0.7836 0.5955,-0.8028 0.5956,-0.8221 0.5955,-0.8412 0.5956,-0.8603 0.5955,-0.8792 0.5956,-0.8981 0.5956,-0.9169 0.5955,-0.9356 0.5956,-0.9541 0.5955,-0.9727 0.5956,-0.9911 0.5955,-1.0094 0.5956,-1.0276 0.5955,-1.0457 0.5956,-1.0637 0.5956,-1.0816 0.5955,-1.0993 0.5956,-1.1171 0.5955,-1.1345 0.5956,-1.1521 0.5955,-1.1694 0.5956,-1.1865 0.5955,-1.2037 0.5956,-1.2207 0.5956,-1.2375 0.5955,-1.2542 0.5956,-1.2709 0.5955,-1.2873 0.5956,-1.3036 0.5955,-1.3199 0.5956,-1.336 0.5955,-1.3519 0.5956,-1.3677 0.5956,-1.3834 0.5955,-1.3989 0.5956,-1.4143 0.5955,-1.4296 0.5956,-1.4447 0.5955,-1.4597 0.5956,-1.4745 0.5955,-1.4892 0.5956,-1.5036 0.5956,-1.5181 0.5955,-1.5323 0.5956,-1.5463 0.5955,-1.5603 0.5956,-1.574 0.5955,-1.5877 0.5956,-1.601 0.5955,-1.6144 0.595598,-1.6274 0.5956,-1.6404 0.5955,-1.6533 0.5956,-1.6658 0.5955,-1.6783 0.5956,-1.6906 0.5955,-1.7027 0.5956,-1.7146 0.5955,-1.7265 0.5956,-1.738 0.5956,-1.7495 0.5955,-1.7607 0.5956,-1.7718 0.5955,-1.7827 0.5956,-1.7934 0.5955,-1.804 0.5956,-1.8143 0.5955,-1.8246 0.5956,-1.8345 0.5956,-1.8443 0.5955,-1.854 0.5956,-1.8634 0.5955,-1.8726 0.5956,-1.8818 0.5955,-1.8906 0.5956,-1.8993 0.5955,-1.9078 0.5956,-1.9161 0.5956,-1.9242 0.5955,-1.9322 0.5956,-1.9399 0.5955,-1.9474 0.5956,-1.9548 0.5955,-1.9619 0.5956,-1.9688 0.5955,-1.9756 0.5956,-1.9822 0.5956,-1.9885 0.5955,-1.9947 0.5956,-2.0007 0.5955,-2.0064 0.5956,-2.0119 0.5955,-2.0173 0.5956,-2.0225 0.5955,-2.0274 0.5956,-2.0321 0.5956,-2.0367 0.5955,-2.0411 0.5956,-2.0451 0.5955,-2.0491 0.5956,-2.0528 0.5955,-2.0564 0.5956,-2.0596 0.5955,-2.0628 0.5956,-2.0656 0.5956,-2.0684 0.5955,-2.0708 0.5956,-2.0731 0.5955,-2.0752 0.5956,-2.077 0.5955,-2.0787 0.5956,-2.0801 0.5955,-2.0814 0.5956,-2.0824 0.5956,-2.0832 0.5955,-2.0838 0.5956,-2.0842 0.5955,-2.0844 0.5956,-2.0844 0.5955,-2.0842 0.5956,-2.0838 0.5955,-2.0831 0.5956,-2.0822 0.5956,-2.0812 0.5955,-2.0799 0.5956,-2.0784 0.5955,-2.0768 0.5956,-2.0749 0.5955,-2.0727 0.5956,-2.0705 0.5955,-2.0679 0.5956,-2.0652 0.5956,-2.0623 0.5955,-2.0592 0.5956,-2.0558 0.5955,-2.0522 0.5956,-2.0485 0.5955,-2.0446 0.5956,-2.0403 0.5955,-2.036 0.5956,-2.0315 0.5956,-2.0266 0.5955,-2.0217 0.5956,-2.0165 0.5955,-2.0111 0.5956,-2.0055 0.5955,-1.9997 0.5956,-1.9938 0.5955,-1.9875 0.5956,-1.9812 0.5956,-1.9746 0.5955,-1.9678 0.5956,-1.9608 0.5955,-1.9536 0.5956,-1.9463 0.5955,-1.9387 0.5956,-1.931 0.5955,-1.9229 0.5956,-1.9149 0.5956,-1.9065 0.5955,-1.898 0.5956,-1.8892 0.5955,-1.8803 0.5956,-1.8713 0.5955,-1.8619 0.5956,-1.8525 0.5955,-1.8428 0.5956,-1.833 0.5956,-1.823 0.5955,-1.8127 0.5956,-1.8024 0.5955,-1.7917 0.5956,-1.7811 0.5955,-1.7701 0.5956,-1.759 0.5955,-1.7477 0.5956,-1.7362 0.5956,-1.7246 0.5955,-1.712901 0.5956,-1.7008 0.5955,-1.6887 0.5956,-1.6764 0.5955,-1.6638 0.5956,-1.6513 0.5955,-1.6384 0.5956,-1.6254 0.5956,-1.6123 0.5955,-1.599 0.5956,-1.5856 0.5955,-1.5719 0.5956,-1.5581 0.5955,-1.5442 0.5956,-1.5301 0.5955,-1.5158 0.5956,-1.5015 0.5956,-1.4869 0.5955,-1.4722 0.5956,-1.4573 0.5955,-1.4424 0.5956,-1.4272 0.5955,-1.412 0.5956,-1.3965 0.5955,-1.381 0.5956,-1.3653 0.5956,-1.3494 0.5955,-1.3335 0.5956,-1.3174 0.5955,-1.3011 0.5956,-1.2848 0.5955,-1.2682 0.5956,-1.2517 0.5955,-1.2349 0.5956,-1.218 0.5956,-1.2011 0.5955,-1.1839 0.5956,-1.1667 0.5955,-1.1493 0.5956,-1.1319 0.5955,-1.1143 0.5956,-1.0966 0.5955,-1.0789 0.5956,-1.0609 0.5956,-1.0429 0.5955,-1.0247 0.5956,-1.0066 0.5955,-0.9882 0.5956,-0.9699 0.5955,-0.9513 0.5956,-0.9326 0.5955,-0.914 0.5956,-0.8952 0.5956,-0.8763 0.5955,-0.8573 0.5956,-0.8383 0.5955,-0.8191 0.5956,-0.7999 0.5955,-0.7806 0.5956,-0.7611 0.5955,-0.7418 0.5956,-0.7222 0.5956,-0.7026 0.5955,-0.6829 0.5956,-0.6631 0.5955,-0.6434 0.5956,-0.6234 0.5955,-0.6036 0.5956,-0.5835 0.5955,-0.5634 0.5956,-0.5434 0.5956,-0.5232 0.5955,-0.5029 0.5956,-0.4827 0.5955,-0.4624 0.5956,-0.4419 0.5955,-0.4216 0.5956,-0.4011 0.5955,-0.3807 0.5956,-0.3601 0.5956,-0.3395 0.5955,-0.3189 0.5956,-0.2983 0.5955,-0.2776 0.5956,-0.2569 0.5955,-0.2363 0.5956,-0.2154 0.5955,-0.1947 0.5956,-0.1739 0.5956,-0.1532 0.5955,-0.1323 0.5956,-0.1114 0.5955,-0.0907 0.5956,-0.0698 0.5955,-0.0489 0.5956,-0.028 0.5955,-0.007 0.5956,0.0136 0.5956,0.0345 0.5955,0.0554 0.5956,0.0763 0.5955,0.0971 0.5956,0.1179 0.5955,0.1387 0.5956,0.1596 0.5955,0.1804 0.5956,0.2011 0.5956,0.2219 0.5955,0.2426 0.5956,0.2634 0.5955,0.284 0.5956,0.3047 0.5955,0.3253 0.5956,0.3459 0.5955,0.3665 0.5956,0.3869 0.5956,0.4075 0.5955,0.4279 0.5956,0.4483 0.5955,0.4687 0.5956,0.4889 0.5955,0.5093 0.5956,0.5294 0.5955,0.5496 0.5956,0.5697 0.5956,0.5897 0.5955,0.6097 0.5956,0.6296 0.5955,0.6495 0.5956,0.6693 0.5955,0.689 0.5956,0.7087 0.5955,0.7282 0.5956,0.7478 0.5956,0.7672 0.5955,0.7866 0.5956,0.8058 0.5955,0.8251 0.5956,0.8441 0.5955,0.8632 0.5956,0.8822 0.5955,0.901 0.5956,0.9198 0.5956,0.9385 0.5955,0.957 0.5956,0.9755 0.5955,0.994 0.5956,1.0122 0.5955,1.0304 0.5956,1.0485 0.5955,1.0664 0.5956,1.0844 0.5956,1.1021 0.5955,1.1197 0.5956,1.1374 0.5955,1.1547 0.5956,1.172 0.5955,1.1893 0.5956,1.2063 0.5955,1.2233 0.5956,1.2401 0.5956,1.2568 0.5955,1.2734 0.5956,1.2898 0.5955,1.3062 0.5956,1.3224 0.5955,1.3384 0.5956,1.3544 0.5955,1.3701 0.5956,1.3859 0.5956,1.4013 0.5955,1.4167 0.5956,1.4319 0.5955,1.447 0.5956,1.462 0.5955,1.4768 0.5956,1.4914 0.5955,1.5059 0.5956,1.5203 0.5956,1.5345 0.5955,1.5485 0.5956,1.5624 0.5955,1.5762 0.5956,1.5897 0.5955,1.6031 0.5956,1.6164 0.5955,1.6295 0.5956,1.6424 0.5956,1.6552 0.5955,1.6677 0.5956,1.6802 0.5955,1.6925 0.5956,1.7046 0.5955,1.716501 0.5956,1.7282 0.5955,1.7398 0.5956,1.7513 0.5956,1.7624 0.5955,1.7735 0.5956,1.7844 0.5955,1.7951 0.5956,1.8056 0.5955,1.8159 0.5956,1.8261 0.5955,1.836 0.5956,1.8458 0.5956,1.8555 0.5955,1.8648 0.5956,1.8741 0.5955,1.8831 0.5956,1.892 0.5955,1.9006 0.5956,1.9091 0.5955,1.9174 0.5956,1.9255 0.5956,1.9333 0.5955,1.9411 0.5956,1.9486 0.5955,1.9559 0.5956,1.963 0.5955,1.9699 0.5956,1.9766 0.5955,1.9832 0.5956,1.9895 0.5956,1.9956 0.5955,2.0016 0.5956,2.0072 0.5955,2.0128 0.5956,2.0182 0.5955,2.0232 0.5956,2.0281 0.5955,2.0329 0.5956,2.0374 0.5956,2.0417 0.5955,2.0458 0.5956,2.0496 0.5955,2.0534 0.5956,2.0569 0.5955,2.0601 0.5956,2.0632 0.5955,2.0661 0.5956,2.0688 0.5956,2.0711 0.5955,2.0735 0.5956,2.0755 0.5955,2.0773 0.5956,2.0789 0.5955,2.0803 0.5956,2.0816 0.5955,2.0825 0.5956,2.0833 0.5956,2.0839 0.5955,2.0843 0.5956,2.0844 0.5955,2.0844 0.5956,2.0841 0.5955,2.0837 0.5956,2.0829 0.5955,2.0821 0.5956,2.081 0.5956,2.0797 0.5955,2.0782 0.5956,2.0765 0.5955,2.0746 0.5956,2.0724 0.5955,2.0701 0.5956,2.0675 0.5955,2.0648 0.5956,2.0618 0.5956,2.0586 0.5955,2.0553 0.5956,2.0517 0.5955,2.0479 0.5956,2.0439 0.5955,2.0397 0.5956,2.0353 0.5955,2.0307 0.5956,2.0259 0.5956,2.0209 0.5955,2.0156 0.5956,2.0103 0.5955,2.0046 0.5956,1.9988 0.5955,1.9928 0.5956,1.9866 0.5955,1.9802 0.5956,1.9735 0.5956,1.9668 0.5955,1.9597 0.5956,1.9525 0.5955,1.9451 0.5956,1.9375 0.5955,1.9297 0.5956,1.9218 0.5955,1.9135 0.5956,1.9052 0.5956,1.8967 0.5955,1.8878 0.5956,1.879 0.5955,1.8698 0.5956,1.8605 0.5955,1.851 0.5956,1.8413 0.5955,1.8314 0.5956,1.8214 0.5956,1.8112 0.5955,1.8007 0.5956,1.7901 0.5955,1.7794 0.5956,1.7684 0.5955,1.7572 0.5956,1.746 0.5955,1.7344 0.5956,1.7228 0.5956,1.711 0.5955,1.699 0.5956,1.6868 0.5955,1.6744 0.5956,1.6619 0.5955,1.6493 0.5956,1.6364 0.5955,1.6234 0.5956,1.6103 0.5956,1.5969 0.5955,1.5834 0.5956,1.5698 0.5955,1.556 0.5956,1.542 0.5955,1.5279 0.5956,1.5136 0.5955,1.4992 0.5956,1.4847 0.5956,1.4699 0.5955,1.455 0.5956,1.4401 0.5955,1.4248 0.5956,1.4096 0.5955,1.3941 0.5956,1.3786 0.5955,1.3628 0.5956,1.347 0.5956,1.331 0.5955,1.3149 0.5956,1.2986 0.5955,1.2822 0.5956,1.2657 0.5955,1.2491 0.5956,1.2323 0.5955,1.2154 0.5956,1.1984 0.5956,1.1812 0.5955,1.1641 0.5956,1.1466 0.5955,1.1292 0.5956,1.1115 0.5955,1.0939 0.5956,1.0761 0.5955,1.0581 0.5956,1.0401 0.5956,1.022 0.5955,1.0037 0.5956,0.9854 0.5955,0.9669 0.5956,0.9484 0.5955,0.9298 0.5956,0.9111 0.5955,0.8923 0.5956,0.8733 0.5956,0.8544 0.5955,0.8353 0.5956,0.8161 0.5955,0.7969 0.5956,0.7776 0.5955,0.7582 0.5956,0.7387 0.5955,0.7192 0.5956,0.6995 0.5956,0.6799 0.5955,0.6601 0.5956,0.6402 0.5955,0.6204 0.5956,0.6004 0.5955,0.5805 0.5956,0.5603 0.5955,0.5402 0.5956,0.5201 0.5956,0.4998 0.5955,0.4795 0.5956,0.4592 0.5955,0.4389 0.5956,0.4184 0.5955,0.3979 0.5956,0.3775 0.5955,0.3569 0.5956,0.3363 0.5956,0.3158 0.5955,0.295 0.5956,0.2745 0.5955,0.2537 0.5956,0.233 0.5955,0.2122 0.5956,0.1915 0.5955,0.1707 0.5956,0.1499 0.5956,0.1291 0.5955,0.1082 0.5956,0.0874 0.5955,0.0666 0.5956,0.0457 0.5955,0.0248 0.5956,0.004 0.5955,-0.0169 0.5956,-0.0378 0.5956,-0.0586 0.5955,-0.0794 0.5956,-0.1004 0.5955,-0.1211 0.5956,-0.142 0.5955,-0.1628 0.5956,-0.1836 0.5955,-0.2043 0.5956,-0.2251 0.5956,-0.2459 0.5955,-0.2665 0.5956,-0.2872 0.5955,-0.3079 0.5956,-0.3285 0.5955,-0.3491 0.5956,-0.3697 0.5955,-0.3901 0.5956,-0.4106 0.5956,-0.4311 0.5955,-0.4515 0.5956,-0.4718 0.5955,-0.4921 0.5956,-0.5123 0.5955,-0.5326 0.5956,-0.5527 0.5955,-0.5728 0.5956,-0.5928 0.5956,-0.6128 0.5955,-0.6327 0.5956,-0.6526 0.5955,-0.6723 0.5956,-0.6921 0.5955,-0.7117 0.5956,-0.7313 0.5955,-0.7507 0.5956,-0.7703 0.5956,-0.7895 0.5955,-0.8088 0.5956,-0.8281 0.5955,-0.8471 0.5956,-0.8661 0.5955,-0.8851 0.5956,-0.904 0.5955,-0.9226 0.5956,-0.9414 0.5956,-0.9599 0.5955,-0.9784 0.5956,-0.9968 0.5955,-1.015 0.5956,-1.0332 0.5955,-1.0513 0.5956,-1.0692 0.5955,-1.0871 0.5956,-1.1049 0.5956,-1.1225 0.5955,-1.14 0.5956,-1.1574 0.5955,-1.1747 0.5956,-1.1919 0.5955,-1.209 0.5956,-1.2259 0.5955,-1.2427 0.5956,-1.2593 0.5956,-1.276 0.5955,-1.2924 0.5956,-1.3087 0.5955,-1.3249 0.5956,-1.3409 0.5955,-1.3568 0.5956,-1.3726 0.5955,-1.3882 0.5956,-1.4037 0.5956,-1.4191 0.5955,-1.4343 0.5956,-1.4493 0.5955,-1.4643 0.5956,-1.4791 0.5955,-1.4936 0.5956,-1.5082 0.5955,-1.5225 0.5956,-1.5366 0.5956,-1.5507 0.5955,-1.5646 0.5956,-1.5782 0.5955,-1.5918 0.5956,-1.6052 0.5955,-1.6184 0.5956,-1.6315 0.5955,-1.6444 0.5956,-1.6572 0.5956,-1.6697 0.5955,-1.6821 0.5956,-1.6944 0.5955,-1.7064 0.5956,-1.7183 0.5955,-1.73 0.5956,-1.7416 0.5955,-1.753 0.5956,-1.7642 0.5956,-1.7752 0.5955,-1.786 0.5956,-1.7968 0.5955,-1.8072 0.5956,-1.8175 0.5955,-1.8276 0.5956,-1.8376 0.5955,-1.8473 0.5956,-1.8569 0.5956,-1.8663 0.5955,-1.8755 0.5956,-1.8845 0.5955,-1.8933 0.5956,-1.902 0.5955,-1.9104 0.5956,-1.9186 0.5955,-1.9267 0.5956,-1.9346 0.5956,-1.9423 0.5955,-1.9497 0.5956,-1.957 0.5955,-1.9641 0.5956,-1.9709 0.5955,-1.9777 0.5956,-1.9842 0.5955,-1.9904 0.5956,-1.9966 0.5956,-2.0024 0.5955,-2.0082 0.5956,-2.0136 0.5955,-2.0189 0.5956,-2.024 0.5955,-2.0289 0.5956,-2.0336 0.5955,-2.0381 0.5956,-2.0423 0.5956,-2.0464 0.5955,-2.0503 0.5956,-2.0539 0.5955,-2.0574 0.5956,-2.0606 0.5955,-2.0637 0.5956,-2.0665 0.5955,-2.0691 0.5956,-2.0716 0.5956,-2.0737 0.5955,-2.0758 0.5956,-2.0776 0.5955,-2.0791 0.5956,-2.0806 0.5955,-2.0817 0.5956,-2.0826 0.5955,-2.0835 0.5956,-2.0839 0.5956,-2.0843 0.5955,-2.0845 0.5956,-2.0843 0.5955,-2.0841 0.5956,-2.0835 0.5955,-2.0829 0.5956,-2.0819 0.5955,-2.0809 0.5956,-2.0795 0.5956,-2.0779 0.5955,-2.0762 0.5956,-2.0742 0.5955,-2.0721 0.5956,-2.0697 0.5955,-2.0671 0.5956,-2.0643 0.5955,-2.0614 0.5956,-2.0581 0.5956,-2.0547 0.5955,-2.0511 0.5956,-2.0473 0.5955,-2.0433 0.5956,-2.039 0.5955,-2.0346 0.5956,-2.03 0.5955,-2.0251 0.5956,-2.0201 0.5956,-2.0149 0.5955,-2.0094 0.5956,-2.0037 0.5955,-1.9979 0.5956,-1.9919 0.5955,-1.9856 0.5956,-1.9791 0.5955,-1.9725 0.5956,-1.9657 0.5956,-1.9586 0.5955,-1.9514 0.5956,-1.9439 0.5955,-1.9363 0.5956,-1.9285 0.5955,-1.9205 0.5956,-1.9123 0.5955,-1.9039 0.5956,-1.8953 0.5956,-1.8865 0.5955,-1.8775 0.5956,-1.8684 0.5955,-1.859 0.5956,-1.8495 0.5955,-1.8398 0.5956,-1.8299 0.5955,-1.8198 0.5956,-1.8096 0.5956,-1.7991 0.5955,-1.7884 0.5956,-1.7777 0.5955,-1.7667 0.5956,-1.7555 0.5955,-1.7442 0.5956,-1.7326 0.5955,-1.721 0.5956,-1.709101 0.5956,-1.6971 0.5955,-1.6849 0.5956,-1.6725 0.5955,-1.66 0.5956,-1.6473 0.5955,-1.6344 0.5956,-1.6214 0.5955,-1.6082 0.5956,-1.5949 0.5956,-1.5813 0.5955,-1.5676 0.5956,-1.5539 0.5955,-1.5398 0.5956,-1.5257 0.5955,-1.5114 0.5956,-1.497 0.5955,-1.4823 0.5956,-1.4676 0.5956,-1.4528 0.5955,-1.4377 0.5956,-1.4225 0.5955,-1.4072 0.5956,-1.3917 0.5955,-1.3761 0.5956,-1.3604 0.5955,-1.3445 0.5956,-1.3285 0.5956,-1.3124 0.5955,-1.2961 0.5956,-1.2796 0.5955,-1.2632 0.5956,-1.2464 0.5955,-1.2297 0.5956,-1.2128 0.5955,-1.1958 0.5956,-1.1786 0.5956,-1.1613 0.5955,-1.144 0.5956,-1.1264 0.5955,-1.1088 0.5956,-1.0912 0.5955,-1.0732 0.5956,-1.0554 0.5955,-1.0373 0.5956,-1.0191 0.5956,-1.0009 0.5955,-0.9826 0.5956,-0.964 0.5955,-0.9456 0.5956,-0.9269 0.5955,-0.9082 0.5956,-0.8893 0.5955,-0.8704 0.5956,-0.8514 0.5956,-0.8324 0.5955,-0.8131 0.5956,-0.794 0.5955,-0.7745 0.5956,-0.7552 0.5955,-0.7357 0.5956,-0.7161 0.5955,-0.6965 0.5956,-0.6768 0.5956,-0.657 0.5955,-0.6372 0.5956,-0.6173 0.5955,-0.5974 0.5956,-0.5773 0.5955,-0.5572 0.5956,-0.5371 0.5955,-0.5169 0.5956,-0.4967 0.5956,-0.4764 0.5955,-0.4561 0.5956,-0.4356 0.5955,-0.4153 0.5956,-0.3947 0.5955,-0.3743 0.5956,-0.3537 0.5955,-0.3332 0.5956,-0.3125 0.5956,-0.2919 0.5955,-0.2712 0.5956,-0.2505 0.5955,-0.2298 0.5956,-0.2091 0.5955,-0.1882 0.5956,-0.1675 0.5955,-0.1467 0.5956,-0.1258 0.5956,-0.105 0.5955,-0.0842 0.5956,-0.0633 0.5955,-0.0425 0.5956,-0.0216 0.5955,-7e-4 0.5956,0.0201 0.5955,0.041 0.5956,0.0618 0.5956,0.0827 0.5955,0.1036 0.5956,0.1244 0.5955,0.1452 0.5956,0.166 0.5955,0.1868 0.5956,0.2075 0.5955,0.2284 0.5956,0.249 0.5956,0.2698 0.5955,0.2904 0.5956,0.3111 0.5955,0.3316 0.5956,0.3523 0.5955,0.3728 0.5956,0.3934 0.5955,0.4138 0.5956,0.4342 0.5956,0.4546 0.5955,0.475 0.5956,0.4952 0.5955,0.5155 0.5956,0.5357 0.5955,0.5558 0.5956,0.5759 0.5955,0.5959 0.5956,0.6159 0.5956,0.6358 0.5955,0.6556 0.5956,0.6754 0.5955,0.6951 0.5956,0.7148 0.5955,0.7343 0.5956,0.7538 0.5955,0.7732 0.5956,0.7925 0.5956,0.8118 0.5955,0.831 0.5956,0.8501 0.5955,0.8691 0.5956,0.888 0.5955,0.9068 0.5956,0.9256 0.5955,0.9443 0.5956,0.9627 0.5956,0.9813 0.5955,0.9996 0.5956,1.0178 0.5955,1.0361 0.5956,1.054 0.5955,1.072 0.5956,1.0899 0.5955,1.1076 0.5956,1.1252"
     id="path14"
     inkscape:connector-curvature="0" /><path
     style="fill:none;stroke:#000000;stroke-width:2.67729998;stroke-linecap:butt;stroke-linejoin:miter;stroke-dasharray:none"
     d="m 46.432212,10.431019 0.5956,0.0104 0.5955,0.0313 0.5956,0.0522 0.5955,0.073 0.5956,0.0939 0.5955,0.1147 0.5956,0.1355 0.5955,0.1563 0.5956,0.1772 0.5956,0.1979 0.5955,0.2187 0.5956,0.2394 0.5955,0.2601 0.5956,0.2809 0.5955,0.3014 0.5956,0.3222 0.5955,0.3427 0.5956,0.3632 0.5956,0.3838 0.5955,0.4043 0.5956,0.4248 0.5955,0.4451 0.5956,0.4655 0.5955,0.4859 0.5956,0.5061 0.5955,0.5263 0.5956,0.5464 0.5956,0.5666 0.5955,0.5866 0.5956,0.6066 0.5955,0.6266 0.5956,0.6464 0.5955,0.6662 0.5956,0.686 0.5955,0.7056 0.5956,0.7252 0.5956,0.7448 0.5955,0.7642 0.5956,0.7836 0.5955,0.8028 0.5956,0.8221 0.5955,0.8412 0.5956,0.8603 0.5955,0.8792 0.5956,0.8981 0.5956,0.9169 0.5955,0.9356 0.5956,0.9541 0.5955,0.9727 0.5956,0.9911 0.5955,1.0094 0.5956,1.0276 0.5955,1.0457 0.5956,1.0637 0.5956,1.0816 0.5955,1.0993 0.5956,1.1171 0.5955,1.1345 0.5956,1.1521 0.5955,1.1694 0.5956,1.1865 0.5955,1.2037 0.5956,1.2207 0.5956,1.2375 0.5955,1.2542 0.5956,1.2709 0.5955,1.2873 0.5956,1.3036 0.5955,1.3199 0.5956,1.336 0.5955,1.3519 0.5956,1.3677 0.5956,1.3834 0.5955,1.3989 0.5956,1.4143 0.5955,1.4296 0.5956,1.4447 0.5955,1.4597 0.5956,1.4745 0.5955,1.4892 0.5956,1.5036 0.5956,1.5181 0.5955,1.5323 0.5956,1.5463 0.5955,1.5603 0.5956,1.574 0.5955,1.5877 0.5956,1.601 0.5955,1.6144 0.595598,1.6274 0.5956,1.6404 0.5955,1.6533 0.5956,1.6658 0.5955,1.6783 0.5956,1.6906 0.5955,1.7027 0.5956,1.714601 0.5955,1.7265 0.5956,1.738 0.5956,1.7495 0.5955,1.7607 0.5956,1.7718 0.5955,1.7827 0.5956,1.7934 0.5955,1.804 0.5956,1.8143 0.5955,1.8246 0.5956,1.8345 0.5956,1.8443 0.5955,1.854 0.5956,1.8634 0.5955,1.8726 0.5956,1.8818 0.5955,1.8906 0.5956,1.8993 0.5955,1.9078 0.5956,1.9161 0.5956,1.9242 0.5955,1.9322 0.5956,1.9399 0.5955,1.9474 0.5956,1.9548 0.5955,1.9619 0.5956,1.9688 0.5955,1.9756 0.5956,1.9822 0.5956,1.9885 0.5955,1.9947 0.5956,2.0007 0.5955,2.0064 0.5956,2.0119 0.5955,2.0173 0.5956,2.0225 0.5955,2.0274 0.5956,2.0321 0.5956,2.0367 0.5955,2.0411 0.5956,2.0451 0.5955,2.0491 0.5956,2.0528 0.5955,2.0564 0.5956,2.0596 0.5955,2.0628 0.5956,2.0656 0.5956,2.0684 0.5955,2.0708 0.5956,2.0731 0.5955,2.0752 0.5956,2.077 0.5955,2.0787 0.5956,2.0801 0.5955,2.0814 0.5956,2.0824 0.5956,2.0832 0.5955,2.0838 0.5956,2.0842 0.5955,2.0844 0.5956,2.0844 0.5955,2.0842 0.5956,2.0838 0.5955,2.0831 0.5956,2.0822 0.5956,2.0812 0.5955,2.0799 0.5956,2.0784 0.5955,2.0768 0.5956,2.0749 0.5955,2.0727 0.5956,2.0705 0.5955,2.0679 0.5956,2.0652 0.5956,2.0623 0.5955,2.0592 0.5956,2.0558 0.5955,2.0522 0.5956,2.0485 0.5955,2.0446 0.5956,2.0403 0.5955,2.036 0.5956,2.0315 0.5956,2.0266 0.5955,2.0217 0.5956,2.0165 0.5955,2.0111 0.5956,2.0055 0.5955,1.9997 0.5956,1.9938 0.5955,1.9875 0.5956,1.9812 0.5956,1.9746 0.5955,1.9678 0.5956,1.9608 0.5955,1.9536 0.5956,1.9463 0.5955,1.9387 0.5956,1.931 0.5955,1.9229 0.5956,1.9149 0.5956,1.9065 0.5955,1.898 0.5956,1.8892 0.5955,1.8803 0.5956,1.8713 0.5955,1.8619 0.5956,1.8525 0.5955,1.8428 0.5956,1.833 0.5956,1.823 0.5955,1.8127 0.5956,1.8024 0.5955,1.7917 0.5956,1.7811 0.5955,1.7701 0.5956,1.759 0.5955,1.7477 0.5956,1.7362 0.5956,1.7246 0.5955,1.7129 0.5956,1.7008 0.5955,1.6887 0.5956,1.6764 0.5955,1.6638 0.5956,1.6513 0.5955,1.6384 0.5956,1.6254 0.5956,1.6123 0.5955,1.599 0.5956,1.5856 0.5955,1.5719 0.5956,1.5581 0.5955,1.5442 0.5956,1.5301 0.5955,1.5158 0.5956,1.5015 0.5956,1.4869 0.5955,1.4722 0.5956,1.4573 0.5955,1.4424 0.5956,1.4272 0.5955,1.412 0.5956,1.3965 0.5955,1.381 0.5956,1.3653 0.5956,1.3494 0.5955,1.3335 0.5956,1.3174 0.5955,1.3011 0.5956,1.2848 0.5955,1.2682 0.5956,1.2517 0.5955,1.2349 0.5956,1.218 0.5956,1.2011 0.5955,1.1839 0.5956,1.1667 0.5955,1.1493 0.5956,1.1319 0.5955,1.1143 0.5956,1.0966 0.5955,1.0789 0.5956,1.0609 0.5956,1.0429 0.5955,1.0247 0.5956,1.0066 0.5955,0.9882 0.5956,0.9699 0.5955,0.9513 0.5956,0.9326 0.5955,0.914 0.5956,0.8952 0.5956,0.8763 0.5955,0.8573 0.5956,0.8383 0.5955,0.8191 0.5956,0.7999 0.5955,0.7806 0.5956,0.7611 0.5955,0.7418 0.5956,0.7222 0.5956,0.7026 0.5955,0.6829 0.5956,0.6631 0.5955,0.6434 0.5956,0.6234 0.5955,0.6036 0.5956,0.5835 0.5955,0.5634 0.5956,0.5434 0.5956,0.5232 0.5955,0.5029 0.5956,0.4827 0.5955,0.4624 0.5956,0.4419 0.5955,0.4216 0.5956,0.4011 0.5955,0.3807 0.5956,0.3601 0.5956,0.3395 0.5955,0.3189 0.5956,0.2983 0.5955,0.2776 0.5956,0.2569 0.5955,0.2363 0.5956,0.2154 0.5955,0.1947 0.5956,0.1739 0.5956,0.1532 0.5955,0.1323 0.5956,0.1114 0.5955,0.0907 0.5956,0.0698 0.5955,0.0489 0.5956,0.028 0.5955,0.007 0.5956,-0.0136 0.5956,-0.0345 0.5955,-0.0554 0.5956,-0.0763 0.5955,-0.0971 0.5956,-0.1179 0.5955,-0.1387 0.5956,-0.1596 0.5955,-0.1804 0.5956,-0.2011 0.5956,-0.2219 0.5955,-0.2426 0.5956,-0.2634 0.5955,-0.284 0.5956,-0.3047 0.5955,-0.3253 0.5956,-0.3459 0.5955,-0.3665 0.5956,-0.3869 0.5956,-0.4075 0.5955,-0.4279 0.5956,-0.4483 0.5955,-0.4687 0.5956,-0.4889 0.5955,-0.5093 0.5956,-0.5294 0.5955,-0.5496 0.5956,-0.5697 0.5956,-0.5897 0.5955,-0.6097 0.5956,-0.6296 0.5955,-0.6495 0.5956,-0.6693 0.5955,-0.689 0.5956,-0.7087 0.5955,-0.7282 0.5956,-0.7478 0.5956,-0.7672 0.5955,-0.7866 0.5956,-0.8058 0.5955,-0.8251 0.5956,-0.8441 0.5955,-0.8632 0.5956,-0.8822 0.5955,-0.901 0.5956,-0.9198 0.5956,-0.9385 0.5955,-0.957 0.5956,-0.9755 0.5955,-0.994 0.5956,-1.0122 0.5955,-1.0304 0.5956,-1.0485 0.5955,-1.0664 0.5956,-1.0844 0.5956,-1.1021 0.5955,-1.1197 0.5956,-1.1374 0.5955,-1.1547 0.5956,-1.172 0.5955,-1.1893 0.5956,-1.2063 0.5955,-1.2233 0.5956,-1.2401 0.5956,-1.2568 0.5955,-1.2734 0.5956,-1.2898 0.5955,-1.3062 0.5956,-1.3224 0.5955,-1.3384 0.5956,-1.3544 0.5955,-1.3701 0.5956,-1.3859 0.5956,-1.4013 0.5955,-1.4167 0.5956,-1.4319 0.5955,-1.447 0.5956,-1.462 0.5955,-1.4768 0.5956,-1.4914 0.5955,-1.5059 0.5956,-1.5203 0.5956,-1.5345 0.5955,-1.5485 0.5956,-1.5624 0.5955,-1.5762 0.5956,-1.5897 0.5955,-1.6031 0.5956,-1.6164 0.5955,-1.6295 0.5956,-1.6424 0.5956,-1.6552 0.5955,-1.6677 0.5956,-1.6802 0.5955,-1.6925 0.5956,-1.7046 0.5955,-1.7165 0.5956,-1.7282 0.5955,-1.7398 0.5956,-1.7513 0.5956,-1.7624 0.5955,-1.7735 0.5956,-1.7844 0.5955,-1.7951 0.5956,-1.8056 0.5955,-1.8159 0.5956,-1.8261 0.5955,-1.836 0.5956,-1.8458 0.5956,-1.8555 0.5955,-1.8648 0.5956,-1.8741 0.5955,-1.8831 0.5956,-1.892 0.5955,-1.9006 0.5956,-1.9091 0.5955,-1.9174 0.5956,-1.9255 0.5956,-1.9333 0.5955,-1.9411 0.5956,-1.9486 0.5955,-1.9559 0.5956,-1.963 0.5955,-1.9699 0.5956,-1.9766 0.5955,-1.9832 0.5956,-1.9895 0.5956,-1.9956 0.5955,-2.0016 0.5956,-2.0072 0.5955,-2.0128 0.5956,-2.0182 0.5955,-2.0232 0.5956,-2.0281 0.5955,-2.0329 0.5956,-2.0374 0.5956,-2.0417 0.5955,-2.0458 0.5956,-2.0496 0.5955,-2.0534 0.5956,-2.0569 0.5955,-2.0601 0.5956,-2.0632 0.5955,-2.0661 0.5956,-2.0688 0.5956,-2.0711 0.5955,-2.0735 0.5956,-2.0755 0.5955,-2.0773 0.5956,-2.0789 0.5955,-2.0803 0.5956,-2.0816 0.5955,-2.0825 0.5956,-2.0833 0.5956,-2.0839 0.5955,-2.0843 0.5956,-2.0844 0.5955,-2.0844 0.5956,-2.0841 0.5955,-2.0837 0.5956,-2.0829 0.5955,-2.0821 0.5956,-2.081 0.5956,-2.0797 0.5955,-2.0782 0.5956,-2.0765 0.5955,-2.0746 0.5956,-2.0724 0.5955,-2.0701 0.5956,-2.0675 0.5955,-2.0648 0.5956,-2.0618 0.5956,-2.0586 0.5955,-2.0553 0.5956,-2.0517 0.5955,-2.0479 0.5956,-2.0439 0.5955,-2.0397 0.5956,-2.0353 0.5955,-2.0307 0.5956,-2.0259 0.5956,-2.0209 0.5955,-2.0156 0.5956,-2.0103 0.5955,-2.0046 0.5956,-1.9988 0.5955,-1.9928 0.5956,-1.9866 0.5955,-1.9802 0.5956,-1.9735 0.5956,-1.9668 0.5955,-1.9597 0.5956,-1.9525 0.5955,-1.9451 0.5956,-1.9375 0.5955,-1.9297 0.5956,-1.9218 0.5955,-1.9135 0.5956,-1.9052 0.5956,-1.8967 0.5955,-1.8878 0.5956,-1.879 0.5955,-1.8698 0.5956,-1.8605 0.5955,-1.851 0.5956,-1.8413 0.5955,-1.8314 0.5956,-1.8214 0.5956,-1.8112 0.5955,-1.8007 0.5956,-1.7901 0.5955,-1.7794 0.5956,-1.7684 0.5955,-1.7572 0.5956,-1.746 0.5955,-1.7344 0.5956,-1.7228 0.5956,-1.711001 0.5955,-1.699 0.5956,-1.6868 0.5955,-1.6744 0.5956,-1.6619 0.5955,-1.6493 0.5956,-1.6364 0.5955,-1.6234 0.5956,-1.6103 0.5956,-1.5969 0.5955,-1.5834 0.5956,-1.5698 0.5955,-1.556 0.5956,-1.542 0.5955,-1.5279 0.5956,-1.5136 0.5955,-1.4992 0.5956,-1.4847 0.5956,-1.4699 0.5955,-1.455 0.5956,-1.4401 0.5955,-1.4248 0.5956,-1.4096 0.5955,-1.3941 0.5956,-1.3786 0.5955,-1.3628 0.5956,-1.347 0.5956,-1.331 0.5955,-1.3149 0.5956,-1.2986 0.5955,-1.2822 0.5956,-1.2657 0.5955,-1.2491 0.5956,-1.2323 0.5955,-1.2154 0.5956,-1.1984 0.5956,-1.1812 0.5955,-1.1641 0.5956,-1.1466 0.5955,-1.1292 0.5956,-1.1115 0.5955,-1.0939 0.5956,-1.0761 0.5955,-1.0581 0.5956,-1.0401 0.5956,-1.022 0.5955,-1.0037 0.5956,-0.9854 0.5955,-0.9669 0.5956,-0.9484 0.5955,-0.9298 0.5956,-0.9111 0.5955,-0.8923 0.5956,-0.8733 0.5956,-0.8544 0.5955,-0.8353 0.5956,-0.8161 0.5955,-0.7969 0.5956,-0.7776 0.5955,-0.7582 0.5956,-0.7387 0.5955,-0.7192 0.5956,-0.6995 0.5956,-0.6799 0.5955,-0.6601 0.5956,-0.6402 0.5955,-0.6204 0.5956,-0.6004 0.5955,-0.5805 0.5956,-0.5603 0.5955,-0.5402 0.5956,-0.5201 0.5956,-0.4998 0.5955,-0.4795 0.5956,-0.4592 0.5955,-0.4389 0.5956,-0.4184 0.5955,-0.3979 0.5956,-0.3775 0.5955,-0.3569 0.5956,-0.3363 0.5956,-0.3158 0.5955,-0.295 0.5956,-0.2745 0.5955,-0.2537 0.5956,-0.233 0.5955,-0.2122 0.5956,-0.1915 0.5955,-0.1707 0.5956,-0.1499 0.5956,-0.1291 0.5955,-0.1082 0.5956,-0.0874 0.5955,-0.0666 0.5956,-0.0457 0.5955,-0.0248 0.5956,-0.004 0.5955,0.0169 0.5956,0.0378 0.5956,0.0586 0.5955,0.0794 0.5956,0.1004 0.5955,0.1211 0.5956,0.142 0.5955,0.1628 0.5956,0.1836 0.5955,0.2043 0.5956,0.2251 0.5956,0.2459 0.5955,0.2665 0.5956,0.2872 0.5955,0.3079 0.5956,0.3285 0.5955,0.3491 0.5956,0.3697 0.5955,0.3901 0.5956,0.4106 0.5956,0.4311 0.5955,0.4515 0.5956,0.4718 0.5955,0.4921 0.5956,0.5123 0.5955,0.5326 0.5956,0.5527 0.5955,0.5728 0.5956,0.5928 0.5956,0.6128 0.5955,0.6327 0.5956,0.6526 0.5955,0.6723 0.5956,0.6921 0.5955,0.7117 0.5956,0.7313 0.5955,0.7507 0.5956,0.7703 0.5956,0.7895 0.5955,0.8088 0.5956,0.8281 0.5955,0.8471 0.5956,0.8661 0.5955,0.8851 0.5956,0.904 0.5955,0.9226 0.5956,0.9414 0.5956,0.9599 0.5955,0.9784 0.5956,0.9968 0.5955,1.015 0.5956,1.0332 0.5955,1.0513 0.5956,1.0692 0.5955,1.0871 0.5956,1.1049 0.5956,1.1225 0.5955,1.14 0.5956,1.1574 0.5955,1.1747 0.5956,1.1919 0.5955,1.209 0.5956,1.2259 0.5955,1.2427 0.5956,1.2593 0.5956,1.276 0.5955,1.2924 0.5956,1.3087 0.5955,1.3249 0.5956,1.3409 0.5955,1.3568 0.5956,1.3726 0.5955,1.3882 0.5956,1.4037 0.5956,1.4191 0.5955,1.4343 0.5956,1.4493 0.5955,1.4643 0.5956,1.4791 0.5955,1.4936 0.5956,1.5082 0.5955,1.5225 0.5956,1.5366 0.5956,1.5507 0.5955,1.5646 0.5956,1.5782 0.5955,1.5918 0.5956,1.6052 0.5955,1.6184 0.5956,1.6315 0.5955,1.6444 0.5956,1.6572 0.5956,1.6697 0.5955,1.6821 0.5956,1.6944 0.5955,1.7064 0.5956,1.718301 0.5955,1.73 0.5956,1.7416 0.5955,1.753 0.5956,1.7642 0.5956,1.7752 0.5955,1.786 0.5956,1.7968 0.5955,1.8072 0.5956,1.8175 0.5955,1.8276 0.5956,1.8376 0.5955,1.8473 0.5956,1.8569 0.5956,1.8663 0.5955,1.8755 0.5956,1.8845 0.5955,1.8933 0.5956,1.902 0.5955,1.9104 0.5956,1.9186 0.5955,1.9267 0.5956,1.9346 0.5956,1.9423 0.5955,1.9497 0.5956,1.957 0.5955,1.9641 0.5956,1.9709 0.5955,1.9777 0.5956,1.9842 0.5955,1.9904 0.5956,1.9966 0.5956,2.0024 0.5955,2.0082 0.5956,2.0136 0.5955,2.0189 0.5956,2.024 0.5955,2.0289 0.5956,2.0336 0.5955,2.0381 0.5956,2.0423 0.5956,2.0464 0.5955,2.0503 0.5956,2.0539 0.5955,2.0574 0.5956,2.0606 0.5955,2.0637 0.5956,2.0665 0.5955,2.0691 0.5956,2.0716 0.5956,2.0737 0.5955,2.0758 0.5956,2.0776 0.5955,2.0791 0.5956,2.0806 0.5955,2.0817 0.5956,2.0826 0.5955,2.0835 0.5956,2.0839 0.5956,2.0843 0.5955,2.0845 0.5956,2.0843 0.5955,2.0841 0.5956,2.0835 0.5955,2.0829 0.5956,2.0819 0.5955,2.0809 0.5956,2.0795 0.5956,2.0779 0.5955,2.0762 0.5956,2.0742 0.5955,2.0721 0.5956,2.0697 0.5955,2.0671 0.5956,2.0643 0.5955,2.0614 0.5956,2.0581 0.5956,2.0547 0.5955,2.0511 0.5956,2.0473 0.5955,2.0433 0.5956,2.039 0.5955,2.0346 0.5956,2.03 0.5955,2.0251 0.5956,2.0201 0.5956,2.0149 0.5955,2.0094 0.5956,2.0037 0.5955,1.9979 0.5956,1.9919 0.5955,1.9856 0.5956,1.9791 0.5955,1.9725 0.5956,1.9657 0.5956,1.9586 0.5955,1.9514 0.5956,1.9439 0.5955,1.9363 0.5956,1.9285 0.5955,1.9205 0.5956,1.9123 0.5955,1.9039 0.5956,1.8953 0.5956,1.8865 0.5955,1.8775 0.5956,1.8684 0.5955,1.859 0.5956,1.8495 0.5955,1.8398 0.5956,1.8299 0.5955,1.8198 0.5956,1.8096 0.5956,1.7991 0.5955,1.7884 0.5956,1.7777 0.5955,1.7667 0.5956,1.7555 0.5955,1.7442 0.5956,1.7326 0.5955,1.721 0.5956,1.7091 0.5956,1.6971 0.5955,1.6849 0.5956,1.6725 0.5955,1.66 0.5956,1.6473 0.5955,1.6344 0.5956,1.6214 0.5955,1.6082 0.5956,1.5949 0.5956,1.5813 0.5955,1.5676 0.5956,1.5539 0.5955,1.5398 0.5956,1.5257 0.5955,1.5114 0.5956,1.497 0.5955,1.4823 0.5956,1.4676 0.5956,1.4528 0.5955,1.4377 0.5956,1.4225 0.5955,1.4072 0.5956,1.3917 0.5955,1.3761 0.5956,1.3604 0.5955,1.3445 0.5956,1.3285 0.5956,1.3124 0.5955,1.2961 0.5956,1.2796 0.5955,1.2632 0.5956,1.2464 0.5955,1.2297 0.5956,1.2128 0.5955,1.1958 0.5956,1.1786 0.5956,1.1613 0.5955,1.144 0.5956,1.1264 0.5955,1.1088 0.5956,1.0912 0.5955,1.0732 0.5956,1.0554 0.5955,1.0373 0.5956,1.0191 0.5956,1.0009 0.5955,0.9826 0.5956,0.964 0.5955,0.9456 0.5956,0.9269 0.5955,0.9082 0.5956,0.8893 0.5955,0.8704 0.5956,0.8514 0.5956,0.8324 0.5955,0.8131 0.5956,0.794 0.5955,0.7745 0.5956,0.7552 0.5955,0.7357 0.5956,0.7161 0.5955,0.6965 0.5956,0.6768 0.5956,0.657 0.5955,0.6372 0.5956,0.6173 0.5955,0.5974 0.5956,0.5773 0.5955,0.5572 0.5956,0.5371 0.5955,0.5169 0.5956,0.4967 0.5956,0.4764 0.5955,0.4561 0.5956,0.4356 0.5955,0.4153 0.5956,0.3947 0.5955,0.3743 0.5956,0.3537 0.5955,0.3332 0.5956,0.3125 0.5956,0.2919 0.5955,0.2712 0.5956,0.2505 0.5955,0.2298 0.5956,0.2091 0.5955,0.1882 0.5956,0.1675 0.5955,0.1467 0.5956,0.1258 0.5956,0.105 0.5955,0.0842 0.5956,0.0633 0.5955,0.0425 0.5956,0.0216 0.5955,7e-4 0.5956,-0.0201 0.5955,-0.041 0.5956,-0.0618 0.5956,-0.0827 0.5955,-0.1036 0.5956,-0.1244 0.5955,-0.1452 0.5956,-0.166 0.5955,-0.1868 0.5956,-0.2075 0.5955,-0.2284 0.5956,-0.249 0.5956,-0.2698 0.5955,-0.2904 0.5956,-0.3111 0.5955,-0.3316 0.5956,-0.3523 0.5955,-0.3728 0.5956,-0.3934 0.5955,-0.4138 0.5956,-0.4342 0.5956,-0.4546 0.5955,-0.475 0.5956,-0.4952 0.5955,-0.5155 0.5956,-0.5357 0.5955,-0.5558 0.5956,-0.5759 0.5955,-0.5959 0.5956,-0.6159 0.5956,-0.6358 0.5955,-0.6556 0.5956,-0.6754 0.5955,-0.6951 0.5956,-0.7148 0.5955,-0.7343 0.5956,-0.7538 0.5955,-0.7732 0.5956,-0.7925 0.5956,-0.8118 0.5955,-0.831 0.5956,-0.8501 0.5955,-0.8691 0.5956,-0.888 0.5955,-0.9068 0.5956,-0.9256 0.5955,-0.9443 0.5956,-0.9627 0.5956,-0.9813 0.5955,-0.9996 0.5956,-1.0178 0.5955,-1.0361 0.5956,-1.054 0.5955,-1.072 0.5956,-1.0899 0.5955,-1.1076 0.5956,-1.1252"
     id="path18"
     inkscape:connector-curvature="0" /><path
     style="fill:none;stroke:#000000;stroke-width:2.23110008;stroke-linecap:butt;stroke-linejoin:miter;stroke-dasharray:none"
     d="m 46.432212,426.90302 594.959998,0"
     id="path22"
     inkscape:connector-curvature="0" /><path
     style="fill:none;stroke:#000000;stroke-width:2.23110008;stroke-linecap:butt;stroke-linejoin:miter;stroke-dasharray:none"
     d="m 46.432212,10.431019 594.959998,0"
     id="path24"
     inkscape:connector-curvature="0" /><path
     style="fill:none;stroke:#000000;stroke-width:2.23110008;stroke-linecap:butt;stroke-linejoin:miter;stroke-dasharray:none"
     d="m 46.432212,426.90302 0,-11.8992"
     id="path26"
     inkscape:connector-curvature="0" /><path
     style="fill:none;stroke:#000000;stroke-width:2.23110008;stroke-linecap:butt;stroke-linejoin:miter;stroke-dasharray:none"
     d="m 46.432212,10.431019 0,11.8992"
     id="path28"
     inkscape:connector-curvature="0" /><path
     style="fill:none;stroke:#000000;stroke-width:2.23110008;stroke-linecap:butt;stroke-linejoin:miter;stroke-dasharray:none"
     d="m 165.42421,10.431019 0,11.8992"
     id="path32"
     inkscape:connector-curvature="0" /><path
     style="fill:none;stroke:#000000;stroke-width:2.23110008;stroke-linecap:butt;stroke-linejoin:miter;stroke-dasharray:none"
     d="m 233.21589,426.90302 0,-11.8992"
     id="path34"
     inkscape:connector-curvature="0" /><path
     style="fill:none;stroke:#000000;stroke-width:2.23110008;stroke-linecap:butt;stroke-linejoin:miter;stroke-dasharray:none"
     d="m 284.41621,10.431019 0,11.8992"
     id="path36"
     inkscape:connector-curvature="0" /><path
     style="fill:none;stroke:#000000;stroke-width:2.23110008;stroke-linecap:butt;stroke-linejoin:miter;stroke-dasharray:none"
     d="m 421.00832,426.90302 0,-11.8992"
     id="path38"
     inkscape:connector-curvature="0" /><path
     style="fill:none;stroke:#000000;stroke-width:2.23110008;stroke-linecap:butt;stroke-linejoin:miter;stroke-dasharray:none"
     d="m 403.40821,10.431019 0,11.8992"
     id="path40"
     inkscape:connector-curvature="0" /><path
     style="fill:none;stroke:#000000;stroke-width:2.23110008;stroke-linecap:butt;stroke-linejoin:miter;stroke-dasharray:none"
     d="m 607.20074,426.90302 0,-11.8992"
     id="path42"
     inkscape:connector-curvature="0" /><path
     style="fill:none;stroke:#000000;stroke-width:2.23110008;stroke-linecap:butt;stroke-linejoin:miter;stroke-dasharray:none"
     d="m 522.40021,10.431019 0,11.8992"
     id="path44"
     inkscape:connector-curvature="0" /><path
     style="fill:none;stroke:#000000;stroke-width:2.23110008;stroke-linecap:butt;stroke-linejoin:miter;stroke-dasharray:none"
     d="m 641.39221,426.90302 0,-11.8992"
     id="path46"
     inkscape:connector-curvature="0" /><path
     style="fill:none;stroke:#000000;stroke-width:2.23110008;stroke-linecap:butt;stroke-linejoin:miter;stroke-dasharray:none"
     d="m 641.39221,10.431019 0,11.8992"
     id="path48"
     inkscape:connector-curvature="0" /><path
     style="fill:none;stroke:#000000;stroke-width:2.23110008;stroke-linecap:butt;stroke-linejoin:miter;stroke-dasharray:none"
     d="m 46.432212,426.90302 0,-416.472001"
     id="path66"
     inkscape:connector-curvature="0" /><path
     style="fill:none;stroke:#000000;stroke-width:2.23110008;stroke-linecap:butt;stroke-linejoin:miter;stroke-dasharray:none"
     d="m 641.39221,426.90302 0,-416.472001"
     id="path68"
     inkscape:connector-curvature="0" /><path
     style="fill:none;stroke:#000000;stroke-width:1.78489995;stroke-linecap:butt;stroke-linejoin:miter;stroke-dasharray:none"
     d="m 46.432212,385.25582 5.9496,0"
     id="path72"
     inkscape:connector-curvature="0" /><path
     style="fill:none;stroke:#000000;stroke-width:1.78489995;stroke-linecap:butt;stroke-linejoin:miter;stroke-dasharray:none"
     d="m 641.39221,385.25582 -5.9496,0"
     id="path74"
     inkscape:connector-curvature="0" /><path
     style="fill:none;stroke:#000000;stroke-width:1.78489995;stroke-linecap:butt;stroke-linejoin:miter;stroke-dasharray:none"
     d="m 46.432212,301.96142 5.9496,0"
     id="path76"
     inkscape:connector-curvature="0" /><path
     style="fill:none;stroke:#000000;stroke-width:1.78489995;stroke-linecap:butt;stroke-linejoin:miter;stroke-dasharray:none"
     d="m 641.39221,301.96142 -5.9496,0"
     id="path78"
     inkscape:connector-curvature="0" /><path
     style="fill:none;stroke:#000000;stroke-width:1.78489995;stroke-linecap:butt;stroke-linejoin:miter;stroke-dasharray:none"
     d="m 46.432212,218.66702 5.9496,0"
     id="path80"
     inkscape:connector-curvature="0" /><path
     style="fill:none;stroke:#000000;stroke-width:1.78489995;stroke-linecap:butt;stroke-linejoin:miter;stroke-dasharray:none"
     d="m 641.39221,218.66702 -5.9496,0"
     id="path82"
     inkscape:connector-curvature="0" /><path
     style="fill:none;stroke:#000000;stroke-width:1.78489995;stroke-linecap:butt;stroke-linejoin:miter;stroke-dasharray:none"
     d="m 46.432212,135.37262 5.9496,0"
     id="path84"
     inkscape:connector-curvature="0" /><path
     style="fill:none;stroke:#000000;stroke-width:1.78489995;stroke-linecap:butt;stroke-linejoin:miter;stroke-dasharray:none"
     d="m 641.39221,135.37262 -5.9496,0"
     id="path86"
     inkscape:connector-curvature="0" /><path
     style="fill:none;stroke:#000000;stroke-width:1.78489995;stroke-linecap:butt;stroke-linejoin:miter;stroke-dasharray:none"
     d="m 46.432212,52.078219 5.9496,0"
     id="path88"
     inkscape:connector-curvature="0" /><path
     style="fill:none;stroke:#000000;stroke-width:1.78489995;stroke-linecap:butt;stroke-linejoin:miter;stroke-dasharray:none"
     d="m 641.39221,52.078219 -5.9496,0"
     id="path90"
     inkscape:connector-curvature="0" /><path
     style="fill:none;stroke:#000000;stroke-width:2.23110008;stroke-linecap:butt;stroke-linejoin:miter;stroke-dasharray:none"
     d="m 46.432212,426.90302 11.8992,0"
     id="path94"
     inkscape:connector-curvature="0" /><path
     style="fill:none;stroke:#000000;stroke-width:2.23110008;stroke-linecap:butt;stroke-linejoin:miter;stroke-dasharray:none"
     d="m 641.39221,426.90302 -11.8992,0"
     id="path96"
     inkscape:connector-curvature="0" /><path
     style="fill:none;stroke:#000000;stroke-width:2.23110008;stroke-linecap:butt;stroke-linejoin:miter;stroke-dasharray:none"
     d="m 46.432212,343.60862 11.8992,0"
     id="path98"
     inkscape:connector-curvature="0" /><path
     style="fill:none;stroke:#000000;stroke-width:2.23110008;stroke-linecap:butt;stroke-linejoin:miter;stroke-dasharray:none"
     d="m 641.39221,343.60862 -11.8992,0"
     id="path100"
     inkscape:connector-curvature="0" /><path
     style="fill:none;stroke:#000000;stroke-width:2.23110008;stroke-linecap:butt;stroke-linejoin:miter;stroke-dasharray:none"
     d="m 46.432212,260.31422 11.8992,0"
     id="path102"
     inkscape:connector-curvature="0" /><path
     style="fill:none;stroke:#000000;stroke-width:2.23110008;stroke-linecap:butt;stroke-linejoin:miter;stroke-dasharray:none"
     d="m 641.39221,260.31422 -11.8992,0"
     id="path104"
     inkscape:connector-curvature="0" /><path
     style="fill:none;stroke:#000000;stroke-width:2.23110008;stroke-linecap:butt;stroke-linejoin:miter;stroke-dasharray:none"
     d="m 46.432212,177.01982 11.8992,0"
     id="path106"
     inkscape:connector-curvature="0" /><path
     style="fill:none;stroke:#000000;stroke-width:2.23110008;stroke-linecap:butt;stroke-linejoin:miter;stroke-dasharray:none"
     d="m 641.39221,177.01982 -11.8992,0"
     id="path108"
     inkscape:connector-curvature="0" /><path
     style="fill:none;stroke:#000000;stroke-width:2.23110008;stroke-linecap:butt;stroke-linejoin:miter;stroke-dasharray:none"
     d="m 46.432212,93.725419 11.8992,0"
     id="path110"
     inkscape:connector-curvature="0" /><path
     style="fill:none;stroke:#000000;stroke-width:2.23110008;stroke-linecap:butt;stroke-linejoin:miter;stroke-dasharray:none"
     d="m 641.39221,93.725419 -11.8992,0"
     id="path112"
     inkscape:connector-curvature="0" /><path
     style="fill:none;stroke:#000000;stroke-width:2.23110008;stroke-linecap:butt;stroke-linejoin:miter;stroke-dasharray:none"
     d="m 46.432212,10.431019 11.8992,0"
     id="path114"
     inkscape:connector-curvature="0" /><path
     style="fill:none;stroke:#000000;stroke-width:2.23110008;stroke-linecap:butt;stroke-linejoin:miter;stroke-dasharray:none"
     d="m 641.39221,10.431019 -11.8992,0"
     id="path116"
     inkscape:connector-curvature="0" /><path
     style="fill:none;stroke:#000000;stroke-width:0.89240003;stroke-linecap:butt;stroke-linejoin:miter;stroke-dasharray:none"
     d="m 46.432212,426.90302 0,-416.472001 594.959998,0 0,416.472001 z"
     id="path134"
     inkscape:connector-curvature="0" /><g
     id="g3391"><text
       sodipodi:linespacing="125%"
       id="text3235"
       y="455.49091"
       x="658.10223"
       style="font-size:44.80017853px;font-style:normal;font-variant:normal;font-weight:normal;font-stretch:normal;line-height:125%;letter-spacing:0px;word-spacing:0px;fill:#000000;fill-opacity:1;stroke:none;font-family:Nimbus Sans L;-inkscape-font-specification:Sans"
       xml:space="preserve"><tspan
         y="455.49091"
         x="658.10223"
         id="tspan3237"
         sodipodi:role="line">$\xi d$</tspan></text>
<text
       y="454.2926"
       x="40.072212"
       id="text52"
       style="font-size:26.65420914px;font-style:normal;font-weight:normal;fill:#000000;fill-rule:nonzero">0</text>
<text
       y="435.78302"
       x="18.162577"
       id="text120"
       style="font-size:26.65420914px;font-style:normal;font-weight:normal;fill:#000000;fill-rule:nonzero">0</text>
<text
       y="350.80862"
       x="-1.7574261"
       id="text122"
       style="font-size:26.65420914px;font-style:normal;font-weight:normal;fill:#000000;fill-rule:nonzero">0,2</text>
<text
       y="267.51422"
       x="-1.5174254"
       id="text124"
       style="font-size:26.65420914px;font-style:normal;font-weight:normal;fill:#000000;fill-rule:nonzero">0,4</text>
<text
       y="184.21982"
       x="-1.5174254"
       id="text126"
       style="font-size:26.65420914px;font-style:normal;font-weight:normal;fill:#000000;fill-rule:nonzero">0,6</text>
<text
       y="100.92542"
       x="-0.79742795"
       id="text128"
       style="font-size:26.65420914px;font-style:normal;font-weight:normal;fill:#000000;fill-rule:nonzero">0,8</text>
<text
       y="19.431023"
       x="20.322573"
       id="text130"
       style="font-size:26.65420914px;font-style:normal;font-weight:normal;fill:#000000;fill-rule:nonzero">1</text>
<text
       sodipodi:linespacing="125%"
       id="text3235-3"
       y="71.159172"
       x="95.728447"
       style="font-size:44.80017853px;font-style:normal;font-variant:normal;font-weight:normal;font-stretch:normal;line-height:125%;letter-spacing:0px;word-spacing:0px;fill:#000000;fill-opacity:1;stroke:none;font-family:Nimbus Sans L;-inkscape-font-specification:Sans"
       xml:space="preserve"><tspan
         y="71.159172"
         x="95.728447"
         id="tspan3237-6"
         sodipodi:role="line">$|A_0|^2$</tspan></text>
<text
       sodipodi:linespacing="125%"
       id="text3235-3-7"
       y="388.23871"
       x="98.247658"
       style="font-size:44.80017853px;font-style:normal;font-variant:normal;font-weight:normal;font-stretch:normal;line-height:125%;letter-spacing:0px;word-spacing:0px;fill:#000000;fill-opacity:1;stroke:none;font-family:Nimbus Sans L;-inkscape-font-specification:Sans"
       xml:space="preserve"><tspan
         y="388.23871"
         x="98.247658"
         id="tspan3237-6-5"
         sodipodi:role="line">$|A_1|^2$</tspan></text>
<text
       sodipodi:linespacing="125%"
       id="text3175"
       y="453.37701"
       x="205.36092"
       style="font-size:44.80017853px;font-style:normal;font-variant:normal;font-weight:normal;font-stretch:normal;line-height:125%;letter-spacing:0px;word-spacing:0px;fill:#000000;fill-opacity:1;stroke:none;font-family:Nimbus Sans L;-inkscape-font-specification:Sans"
       xml:space="preserve"><tspan
         style="font-size:22.40008926px"
         y="453.37701"
         x="205.36092"
         id="tspan3177"
         sodipodi:role="line">$\pi/2$</tspan></text>
<text
       inkscape:transform-center-y="-6.4533777"
       inkscape:transform-center-x="11.417514"
       sodipodi:linespacing="125%"
       id="text3175-3"
       y="452.93277"
       x="403.34714"
       style="font-size:44.80017853px;font-style:normal;font-variant:normal;font-weight:normal;font-stretch:normal;line-height:125%;letter-spacing:0px;word-spacing:0px;fill:#000000;fill-opacity:1;stroke:none;font-family:Nimbus Sans L;-inkscape-font-specification:Sans"
       xml:space="preserve"><tspan
         style="font-size:22.40008926px"
         y="452.93277"
         x="403.34714"
         id="tspan3177-6"
         sodipodi:role="line">$\pi$</tspan></text>
<text
       inkscape:transform-center-y="-5.1627235"
       inkscape:transform-center-x="9.1340493"
       sodipodi:linespacing="125%"
       id="text3175-3-7"
       y="452.53561"
       x="576.03986"
       style="font-size:44.80017853px;font-style:normal;font-variant:normal;font-weight:normal;font-stretch:normal;line-height:125%;letter-spacing:0px;word-spacing:0px;fill:#000000;fill-opacity:1;stroke:none;font-family:Nimbus Sans L;-inkscape-font-specification:Sans"
       xml:space="preserve"><tspan
         style="font-size:22.40008926px"
         y="452.53561"
         x="576.03986"
         id="tspan3177-6-5"
         sodipodi:role="line">$3\pi/2$</tspan></text>
</g></svg>