<?xml version="1.0" encoding="UTF-8" standalone="no"?>
<!-- generated by Grace-5.1.23 -->

<svg
   xmlns:dc="http://purl.org/dc/elements/1.1/"
   xmlns:cc="http://creativecommons.org/ns#"
   xmlns:rdf="http://www.w3.org/1999/02/22-rdf-syntax-ns#"
   xmlns:svg="http://www.w3.org/2000/svg"
   xmlns="http://www.w3.org/2000/svg"
   xmlns:sodipodi="http://sodipodi.sourceforge.net/DTD/sodipodi-0.dtd"
   xmlns:inkscape="http://www.inkscape.org/namespaces/inkscape"
   xml:space="preserve"
   width="862.16931"
   height="581.48535"
   viewBox="0 0 689.73743 465.19014"
   id="svg2"
   version="1.1"
   inkscape:version="0.91 r13725"
   sodipodi:docname="09_Fred.svg"><metadata
     id="metadata36"><rdf:RDF><cc:Work
         rdf:about=""><dc:format>image/svg+xml</dc:format><dc:type
           rdf:resource="http://purl.org/dc/dcmitype/StillImage" /></cc:Work></rdf:RDF></metadata><defs
     id="defs34" /><sodipodi:namedview
     pagecolor="#ffffff"
     bordercolor="#666666"
     borderopacity="1"
     objecttolerance="10"
     gridtolerance="10"
     guidetolerance="10"
     inkscape:pageopacity="0"
     inkscape:pageshadow="2"
     inkscape:window-width="1298"
     inkscape:window-height="825"
     id="namedview32"
     showgrid="false"
     fit-margin-top="0"
     fit-margin-left="0"
     fit-margin-right="0"
     fit-margin-bottom="0"
     inkscape:zoom="0.55302326"
     inkscape:cx="635.90899"
     inkscape:cy="194.11575"
     inkscape:window-x="620"
     inkscape:window-y="136"
     inkscape:window-maximized="0"
     inkscape:current-layer="svg2" /><path
     style="fill:none;stroke:#ff0000;stroke-width:2.67729998;stroke-linecap:butt;stroke-linejoin:miter;stroke-dasharray:none"
     d="m 29.769902,417.12535 0.2978,0 0.2978,0 0.2977,0 0.2978,0 0.2978,0 0.2978,0 0.2977,0 0.2978,0 0.2978,0 0.2978,0 0.2978,0 0.2977,0 0.2978,0 0.2978,0 0.2978,0 0.2977,0 0.2978,0 0.2978,0 0.2978,0 0.2978,0 0.2977,0 0.2978,0 0.2978,0 0.2978,0 0.2977,0 0.2978,0 0.2978,0 0.2978,0 0.2978,0 0.2977,0 0.2978,0 0.2978,0 0.2978,0 0.2977,0 0.2978,0 0.2978,0 0.2978,0 0.2978,0 0.2977,0 0.2978,0 0.2978,0 0.2978,0 0.2977,0 0.2978,0 0.2978,0 0.2978,0 0.2978,0 0.2977,0 0.2978,0 0.2978,0 0.2978,0 0.2977,0 0.2978,0 0.2978,0 0.2978,0 0.2978,0 0.2977,0 0.2978,0 0.2978,0 0.2978,0 0.2977,0 0.2978,0 0.2978,0 0.2978,0 0.2978,0 0.2977,0 0.2978,0 0.2978,0 0.2978,0 0.2977,0 0.2978,0 0.2978,0 0.2978,0 0.2978,0 0.2977,0 0.2978,0 0.2978,0 0.2978,0 0.2977,0 0.2978,0 0.2978,0 0.2978,0 0.2978,0 0.2977,0 0.2978,0 0.2978,0 0.2978,0 0.2977,0 0.2978,0 0.2978,0 0.2978,0 0.2978,0 0.2977,0 0.2978,0 0.2978,0 0.2978,0 0.2977,0 0.2978,0 0.2978,0 0.2978,0 0.2978,0 0.2977,0 0.2978,0 0.2978,0 0.2978,0 0.2977,0 0.2978,0 0.2978,0 0.2978,0 0.2978,0 0.2977,0 0.2978,0 0.2978,0 0.2978,0 0.2977,0 0.2978,0 0.2978,0 0.2978,0 0.2978,0 0.2977,0 0.2978,0 0.2978,0 0.2978,0 0.2977,0 0.2978,0 0.2978,0 0.2978,0 0.2978,0 0.2977,0 0.2978,0 0.2978,0 0.2978,0 0.2977,0 0.2978,0 0.2978,0 0.2978,0 0.2978,0 0.2977,0 0.2978,0 0.2978,0 0.2978,0 0.2977,0 0.2978,0 0.2978,0 0.2978,0 0.2978,0 0.2977,0 0.2978,0 0.2978,0 0.2978,0 0.2977,0 0.2978,0 0.2978,0 0.2978,0 0.2978,0 0.2977,0 0.2978,0 0.2978,0 0.2978,0 0.2977,0 0.2978,0 0.2978,0 0.2978,0 0.2978,0 0.2977,0 0.2978,0 0.2978,0 0.2978,0 0.2977,0 0.2978,0 0.2978,0 0.2978,0 0.2978,0 0.2977,0 0.2978,0 0.2978,0 0.2978,0 0.2977,0 0.2978,0 0.2978,0 0.2978,0 0.2978,0 0.2977,0 0.2978,0 0.2978,0 0.2978,0 0.2977,0 0.2978,0 0.2978,0 0.2978,0 0.2978,0 0.2977,0 0.2978,0 0.2978,0 0.2978,0 0.2977,0 0.2978,0 0.2978,0 0.2978,0 0.2978,0 0.2977,0 0.2978,0 0.2978,0 0.2978,0 0.2977,0 0.2978,0 0.2978,0 0.2978,0 0.2978,0 0.2977,0 0.2978,0 0.2978,0 0.2978,0 0.2977,0 0.2978,0 0.2978,0 0.2978,0 0.2978,0 0.2977,0 0.2978,0 0.2978,0 0.2978,0 0.2977,0 0.2978,0 0.2978,0 0.2978,0 0.2978,0 0.2977,0 0.2978,0 0.2978,0 0.2978,0 0.2977,0 0.2978,0 0.2978,0 0.2978,0 0.297798,0 0.2977,0 0.2978,0 0.2978,0 0.2978,0 0.2977,0 0.2978,0 0.2978,0 0.2978,0 0.2978,0 0.2977,0 0.2978,0 0.2978,0 0.2978,0 0.2977,0 0.2978,0 0.2978,0 0.2978,0 0.2978,0 0.2977,0 0.2978,0 0.2978,0 0.2978,0 0.2977,0 0.2978,0 0.2978,0 0.2978,0 0.2978,0 0.2977,0 0.2978,0 0.2978,0 0.2978,0 0.2977,0 0.2978,0 0.2978,0 0.2978,0 0.2978,0 0.2977,0 0.2978,0 0.2978,0 0.2978,0 0.2977,0 0.2978,0 0.2978,0 0.2978,0 0.2978,0 0.2977,0 0.2978,0 0.2978,0 0.2978,0 0.2977,0 0.2978,0 0.2978,0 0.2978,0 0.2978,0 0.2977,0 0.2978,0 0.2978,0 0.2978,0 0.2977,0 0.2978,0 0.2978,0 0.2978,0 0.2978,0 0.2977,0 0.2978,0 0.2978,0 0.2978,0 0.2977,0 0.2978,0 0.2978,0 0.2978,0 0.2978,0 0.2977,0 0.2978,0 0.2978,0 0.2978,0 0.2977,0 0.2978,0 0.2978,0 0.2978,0 0.2978,0 0.2977,0 0.2978,0 0.2978,0 0.2978,0 0.2977,0 0.2978,0 0.2978,0 0.2978,0 0.2978,0 0.2977,0 0.2978,0 0.2978,0 0.2978,0 0.2977,0 0.2978,0 0.2978,0 0.2978,0 0.2978,0 0.2977,0 0.2978,0 0.2978,0 0.2978,0 0.2977,0 0.2978,0 0.2978,0 0.2978,0 0.2978,0 0.2977,0 0.2978,0 0.2978,0 0.2978,0 0.2977,0 0.2978,0 0.2978,0 0.2978,0 0.2978,0 0.2977,0 0.2978,0 0.2978,0 0.2978,0 0.2977,0 0.2978,0 0.2978,0 0.2978,0 0.2978,0 0.2977,0 0.2978,0 0.2978,0 0.2978,0 0.2977,0 0.2978,0 0.2978,0 0.2978,0 0.2978,0 0.2977,0 0.2978,0 0.2978,0 0.2978,0 0.2977,0 0.2978,0 0.2978,0 0.2978,0 0.2978,0 0.2977,0 0.2978,0 0.2978,0 0.2978,0 0.2977,0 0.2978,0 0.2978,0 0.2978,0 0.2978,0 0.2977,0 0.2978,0 0.2978,0 0.2978,0 0.2977,0 0.2978,0 0.2978,0 0.2978,0 0.2978,0 0.2977,0 0.2978,0 0.2978,0 0.2978,0 0.2977,0 0.2978,0 0.2978,0 0.2978,0 0.2978,0 0.2977,0 0.2978,0 0.2978,0 0.2978,0 0.2977,0 0.2978,0 0.2978,0 0.2978,0 0.2978,0 0.2977,0 0.2978,0 0.2978,0 0.2978,0 0.2977,0 0.2978,0 0.2978,0 0.2978,0 0.2978,0 0.2977,0 0.2978,0 0.2978,0 0.2978,0 0.2977,0 0.2978,0 0.2978,0 0.2978,0 0.2978,0 0.2977,0 0.2978,0 0.2978,0 0.2978,0 0.2977,0 0.2978,0 0.2978,0 0.2978,0 0.2978,0 0.2977,0 0.2978,0 0.2978,0 0.2978,0 0.2977,0 0.2978,0 0.2978,0 0.2978,0 0.2978,0 0.2977,0 0.2978,0 0.2978,0 0.2978,0 0.2977,0 0.2978,0 0.2978,0 0.2978,0 0.2978,0 0.2977,0 0.2978,0 0.2978,0 0.2978,0 0.2977,0 0.2978,0 0.2978,0 0.2978,0 0.2978,0 0.2977,0 0.2978,0 0.2978,0 0.2978,0 0.2977,0 0.2978,0 0.2978,0 0.2978,0 0.2978,0 0.2977,0 0.2978,0 0.2978,0 0.2978,0 0.2977,0 0.2978,0 0.2978,0 0.2978,0 0.2978,0 0.2977,0 0.2978,0 0.2978,0 0.2978,0 0.2977,0 0.2978,0 0.2978,0 0.2978,0 0.2978,0 0.2977,0 0.2978,0 0.2978,0 0.2978,0 0.2977,0 0.2978,0 0.2978,0 0.2978,0 0.2978,0 0.2977,0 0.2978,0 0.2978,0 0.2978,0 0.2977,0 0.2978,0 0.2978,0 0.2978,0 0.2978,0 0.2977,0 0.2978,0 0.2978,0 0.2978,0 0.2977,0 0.2978,0 0.2978,0 0.2978,0 0.2978,0 0.2977,0 0.2978,0 0.2978,0 0.2978,0 0.2977,0 0.2978,0 0.2978,0 0.2978,0 0.2978,0 0.2977,0 0.2978,0 0.2978,0 0.2978,0 0.2977,0 0.2978,0 0.2978,0 0.2978,0 0.2978,0 0.2977,0 0.2978,0 0.2978,0 0.2978,0 0.2977,0 0.2978,0 0.2978,0 0.2978,0 0.2978,0 0.2977,0 0.2978,0 0.2978,0 0.2978,0 0.2977,0 0.2978,0 0.2978,0 0.2978,0 0.2978,0 0.2977,0 0.2978,0 0.2978,0 0.2978,0 0.2977,0 0.2978,0 0.2978,0 0.2978,0 0.2978,0 0.2977,0 0.2978,0 0.2978,0 0.2978,0 0.2977,0 0.2978,0 0.2978,0 0.2978,0 0.2978,0 0.2977,0 0.2978,0 0.2978,0 0.2978,0 0.2977,0 0.2978,0 0.2978,0 0.2978,0 0.2978,0 0.2977,0 0.2978,0 0.2978,0 0.2978,0 0.2977,0 0.2978,0 0.2978,0 0.2978,0 0.2978,0 0.2977,0 0.2978,0 0.2978,0 0.2978,0 0.2977,0 0.2978,0 0.2978,0 0.2978,0 0.2978,0 0.2977,0 0.2978,0 0.2978,0 0.2978,0 0.2977,0 0.2978,0 0.2978,0 0.2978,0 0.2978,0 0.2977,0 0.2978,0 0.2978,0 0.2978,0 0.2977,0 0.2978,0 0.2978,0 0.2978,0 0.2978,0 0.2977,0 0.2978,0 0.2978,0 0.2978,0 0.2977,0 0.2978,0 0.2978,0 0.2978,0 0.2978,0 0.2977,0 0.2978,0 0.2978,0 0.2978,0 0.2977,0 0.2978,0 0.2978,0 0.2978,0 0.2978,0 0.2977,0 0.2978,0 0.2978,0 0.2978,0 0.2977,0 0.2978,0 0.2978,0 0.2978,0 0.2978,0 0.2977,0 0.2978,0 0.2978,0 0.2978,0 0.2977,0 0.2978,0 0.2978,0 0.2978,0 0.2978,0 0.2977,0 0.2978,0 0.2978,0 0.2978,0 0.2977,0 0.2978,0 0.2978,0 0.2978,0 0.2978,0 0.2977,0 0.2978,0 0.2978,0 0.2978,0 0.2977,0 0.2978,0 0.2978,0 0.2978,0 0.2978,0 0.2977,0 0.2978,0 0.2978,0 0.2978,0 0.2977,0 0.2978,0 0.2978,0 0.2978,0 0.2978,0 0.2977,0 0.2978,0 0.2978,0 0.2978,0 0.2977,0 0.2978,0 0.2978,0 0.2978,0 0.2978,0 0.2977,0 0.2978,0 0.2978,0 0.2978,0 0.2977,0 0.2978,0 0.2978,0 0.2978,0 0.2978,0 0.2977,0 0.2978,0 0.2978,0 0.2978,0 0.2977,0 0.2978,0 0.2978,0 0.2978,0 0.2978,0 0.2977,0 0.2978,0 0.2978,0 0.2978,0 0.2977,0 0.2978,0 0.2978,0 0.2978,0 0.2978,0 0.2977,0 0.2978,0 0.2978,0 0.2978,0 0.2977,0 0.2978,0 0.2978,0 0.2978,0 0.2978,0 0.2977,0 0.2978,0 0.2978,0 0.2978,0 0.2977,0 0.2978,0 0.2978,0 0.2978,0 0.2978,0 0.2977,0 0.2978,0 0.2978,0 0.2978,0 0.2977,0 0.2978,0 0.2978,0 0.2978,0 0.2978,0 0.2977,0 0.2978,0 0.2978,0 0.2978,0 0.2977,0 0.2978,0 0.2978,0 0.2978,0 0.2978,0 0.2977,0 0.2978,0 0.2978,0 0.2978,0 0.2977,0 0.2978,0 0.2978,0 0.2978,0 0.2978,0 0.2977,0 0.2978,0 0.2978,0 0.2978,0 0.2977,0 0.2978,0 0.2978,0 0.2978,0 0.2978,0 0.2977,0 0.2978,0 0.2978,0 0.2978,0 0.2977,0 0.2978,0 0.2978,0 0.2978,0 0.2978,0 0.2977,0 0.2978,0 0.2978,0 0.2978,0 0.2977,0 0.2978,0 0.2978,0 0.2978,0 0.2978,0 0.2977,0 0.2978,0 0.2978,0 0.2978,0 0.2977,0 0.2978,0 0.2978,0 0.2978,0 0.2978,0 0.2977,0 0.2978,0 0.2978,0 0.2978,0 0.2977,0 0.2978,0 0.2978,0 0.2978,0 0.2978,0 0.2977,0 0.2978,0 0.2978,0 0.2978,0 0.2977,0 0.2978,0 0.2978,0 0.2978,0 0.2978,0 0.2977,0 0.2978,0 0.2978,0 0.2978,0 0.2977,0 0.2978,0 0.2978,0 0.2978,0 0.2978,0 0.2977,0 0.2978,0 0.2978,0 0.2978,0 0.2977,0 0.2978,0 0.2978,0 0.2978,0 0.2978,0 0.2977,0 0.2978,0 0.2978,0 0.2978,0 0.2977,0 0.2978,0 0.2978,0 0.2978,0 0.2978,0 0.2977,0 0.2978,0 0.2978,0 0.2978,0 0.2977,0 0.2978,0 0.2978,0 0.2978,0 0.2978,0 0.2977,0 0.2978,0 0.2978,0 0.2978,0 0.2977,0 0.2978,0 0.2978,0 0.2978,0 0.2978,0 0.2977,0 0.2978,0 0.2978,0 0.2978,0 0.2977,0 0.2978,0 0.2978,0 0.2978,0 0.2978,0 0.2977,0 0.2978,0 0.2978,0 0.2978,0 0.2977,0 0.2978,0 0.2978,0 0.2978,0 0.2978,0 0.2977,0 0.2978,0 0.2978,0 0.2978,0 0.2977,0 0.2978,0 0.2978,0 0.2978,0 0.2978,0 0.2977,0 0.2978,0 0.2978,0 0.2978,0 0.2977,0 0.2978,0 0.2978,0 0.2978,0 0.2978,0 0.2977,0 0.2978,0 0.2978,0 0.2978,0 0.2977,0 0.2978,0 0.2978,0 0.2978,0 0.2978,0 0.2977,0 0.2978,0 0.2978,0 0.2978,0 0.2977,0 0.2978,0 0.2978,0 0.2978,0 0.2978,0 0.2977,0 0.2978,0 0.2978,0 0.2978,0 0.2977,0 0.2978,0 0.2978,0 0.2978,0 0.2978,0 0.2977,0 0.2978,0 0.2978,0 0.2978,0 0.2977,0 0.2978,0 0.2978,0 0.2978,0 0.2978,0 0.2977,0 0.2978,0 0.2978,0 0.2978,0 0.2977,0 0.2978,0 0.2978,0 0.2978,0 0.2978,0 0.2977,0 0.2978,0 0.2978,0 0.2978,0 0.2977,0 0.2978,0 0.2978,0 0.2978,0 0.2978,0 0.2977,0 0.2978,0 0.2978,0 0.2978,0 0.2977,0 0.2978,0 0.2978,0 0.2978,0 0.2978,0 0.2977,0 0.2978,0 0.2978,0 0.2978,0 0.2977,0 0.2978,0 0.2978,0 0.2978,0 0.2978,0 0.2977,0 0.2978,0 0.2978,0 0.2978,0 0.2977,0 0.2978,0 0.2978,0 0.2978,0 0.2978,0 0.2977,0 0.2978,0 0.2978,0 0.2978,0 0.2977,0 0.2978,0 0.2978,0 0.2978,0 0.2978,0 0.2977,0 0.2978,0 0.2978,0 0.2978,0 0.2977,0 0.2978,0 0.2978,0"
     id="path14"
     inkscape:connector-curvature="0" /><path
     style="fill:none;stroke:#d40000;stroke-width:3.31761336;stroke-linecap:butt;stroke-linejoin:miter;stroke-miterlimit:4;stroke-dasharray:none;stroke-opacity:1"
     d="m 327.2499,417.12535 2.9778,-29.2562 2.9778,-12.1286 2.9777,-9.3137 2.9778,-7.8577 2.9778,-6.928 2.9778,-6.268 2.9777,-5.7684 2.9778,-5.373 2.9778,-5.0503 2.9778,-4.7802 2.9778,-4.5499 2.9777,-4.3507 2.9778,-4.176 2.9778,-4.0211 2.9778,-3.8828 2.9777,-3.7582 2.9778,-3.6451 2.9778,-3.5421 2.9778,-3.4474 2.9778,-3.3604 2.9777,-3.2797 2.9778,-3.2049 2.9778,-3.1351 2.9778,-3.0699 2.9777,-3.0088 2.9778,-2.9514 2.9778,-2.8972 2.9778,-2.8461 2.9778,-2.7978 2.9777,-2.7519 2.9778,-2.7084 2.9778,-2.667 2.9778,-2.6276 2.9777,-2.5899 2.9778,-2.5539 2.9778,-2.5195 2.9778,-2.4865 2.9778,-2.4549 2.9777,-2.4246 2.9778,-2.3954 2.9778,-2.3673 2.9778,-2.3404 2.9777,-2.3142 2.9778,-2.2892 2.9778,-2.2649 2.9778,-2.2414 2.9778,-2.2189 2.9777,-2.1969 2.9778,-2.1756 2.9778,-2.1551 2.9778,-2.1352 2.9777,-2.1159 2.9778,-2.097 2.9778,-2.0789 2.9778,-2.0611 2.9778,-2.044 2.9777,-2.0272 2.9778,-2.0109 2.9778,-1.995 2.9778,-1.9796 2.9777,-1.9646 2.9778,-1.9498 2.9778,-1.9356 2.9778,-1.9216 2.9778,-1.908 2.9777,-1.8947 2.9778,-1.8817 2.9778,-1.869 2.9778,-1.8566 2.9777,-1.8444 2.9778,-1.8327 2.9778,-1.821 2.9778,-1.8096 2.9778,-1.7986 2.9777,-1.7877 2.9778,-1.777 2.9778,-1.7666 2.9778,-1.7563 2.9777,-1.7464 2.9778,-1.7365 2.9778,-1.7269 2.9778,-1.7174 2.9778,-1.7082 2.9777,-1.699 2.9778,-1.6902 2.9778,-1.6813 2.9778,-1.6728 2.9777,-1.6643 2.9778,-1.656 2.9778,-1.6478 2.9778,-1.6399 2.9778,-1.6319 2.9777,-1.6242 2.9778,-1.6166 2.9778,-1.6091 2.9778,-1.6017 2.9777,-1.5945 2.9778,-1.5874 2.9778,-1.5803 2.7395,-1.4475"
     id="path16"
     inkscape:connector-curvature="0" /><path
     style="fill:none;stroke:#000000;stroke-width:2.23110008;stroke-linecap:butt;stroke-linejoin:miter;stroke-dasharray:none"
     d="m 29.769902,417.58755 594.959998,0"
     id="path20"
     inkscape:connector-curvature="0" /><path
     style="fill:none;stroke:#000000;stroke-width:2.23110008;stroke-linecap:butt;stroke-linejoin:miter;stroke-dasharray:none"
     d="m 29.769902,1.11555 594.959998,0"
     id="path22"
     inkscape:connector-curvature="0" /><path
     style="fill:none;stroke:#000000;stroke-width:2.23110008;stroke-linecap:butt;stroke-linejoin:miter;stroke-dasharray:none"
     d="m 29.769902,417.58755 0,-416.472"
     id="path24"
     inkscape:connector-curvature="0" /><path
     style="fill:none;stroke:#000000;stroke-width:2.23110008;stroke-linecap:butt;stroke-linejoin:miter;stroke-dasharray:none"
     d="m 624.7299,417.58755 0,-416.472"
     id="path26"
     inkscape:connector-curvature="0" /><path
     style="fill:none;stroke:#000000;stroke-width:0.89240003;stroke-linecap:butt;stroke-linejoin:miter;stroke-dasharray:none"
     d="m 29.769902,417.58755 0,-416.472 594.959998,0 0,416.472 z"
     id="path30"
     inkscape:connector-curvature="0" /><g
     id="g4149"><text
       sodipodi:linespacing="125%"
       id="text3033"
       y="457.30533"
       x="317.21185"
       style="font-size:44.80017853px;font-style:normal;font-variant:normal;font-weight:normal;font-stretch:normal;line-height:125%;letter-spacing:0px;word-spacing:0px;fill:#000000;fill-opacity:1;stroke:none;font-family:Nimbus Sans L;-inkscape-font-specification:Sans"
       xml:space="preserve"><tspan
         y="457.30533"
         x="317.21185"
         id="tspan3035"
         sodipodi:role="line">$E_c$</tspan></text>
<text
       inkscape:transform-center-x="54.247267"
       sodipodi:linespacing="125%"
       id="text3033-3"
       y="459.03821"
       x="611.66864"
       style="font-size:44.80017853px;font-style:normal;font-variant:normal;font-weight:normal;font-stretch:normal;line-height:125%;letter-spacing:0px;word-spacing:0px;fill:#000000;fill-opacity:1;stroke:none;font-family:Nimbus Sans L;-inkscape-font-specification:Sans"
       xml:space="preserve"><tspan
         y="459.03821"
         x="611.66864"
         id="tspan3035-6"
         sodipodi:role="line">$E$</tspan></text>
<text
       sodipodi:linespacing="125%"
       id="text3058"
       y="48.488235"
       x="-1.4787419"
       style="font-style:normal;font-variant:normal;font-weight:normal;font-stretch:normal;font-size:44.80017853px;line-height:125%;font-family:'Nimbus Sans L';-inkscape-font-specification:Sans;letter-spacing:0px;word-spacing:0px;fill:#000000;fill-opacity:1;stroke:none"
       xml:space="preserve"><tspan
         y="48.488235"
         x="-1.4787419"
         id="tspan3060"
         sodipodi:role="line">$a$</tspan></text>
<text
       sodipodi:linespacing="125%"
       id="text3033-7"
       y="457.59158"
       x="19.420061"
       style="font-size:44.80017853px;font-style:normal;font-variant:normal;font-weight:normal;font-stretch:normal;line-height:125%;letter-spacing:0px;word-spacing:0px;fill:#000000;fill-opacity:1;stroke:none;font-family:Nimbus Sans L;-inkscape-font-specification:Sans"
       xml:space="preserve"><tspan
         y="457.59158"
         x="19.420061"
         id="tspan3035-5"
         sodipodi:role="line">$0$</tspan></text>
<text
       sodipodi:linespacing="125%"
       id="text3033-7-3"
       y="426.66705"
       x="3.1925952"
       style="font-size:44.80017853px;font-style:normal;font-variant:normal;font-weight:normal;font-stretch:normal;line-height:125%;letter-spacing:0px;word-spacing:0px;fill:#000000;fill-opacity:1;stroke:none;font-family:Nimbus Sans L;-inkscape-font-specification:Sans"
       xml:space="preserve"><tspan
         y="426.66705"
         x="3.1925952"
         id="tspan3035-5-5"
         sodipodi:role="line">$0$</tspan></text>
</g></svg>