<?xml version="1.0" encoding="UTF-8" standalone="no"?>
<svg
   xmlns:dc="http://purl.org/dc/elements/1.1/"
   xmlns:cc="http://creativecommons.org/ns#"
   xmlns:rdf="http://www.w3.org/1999/02/22-rdf-syntax-ns#"
   xmlns:svg="http://www.w3.org/2000/svg"
   xmlns="http://www.w3.org/2000/svg"
   xmlns:sodipodi="http://sodipodi.sourceforge.net/DTD/sodipodi-0.dtd"
   xmlns:inkscape="http://www.inkscape.org/namespaces/inkscape"
   width="874.40912"
   height="579.68506"
   viewBox="0 0 874.40921 579.68506"
   id="svg2"
   version="1.1"
   inkscape:version="0.91 r13725"
   sodipodi:docname="09_gap.svg">
  <metadata
     id="metadata120">
    <rdf:RDF>
      <cc:Work
         rdf:about="">
        <dc:format>image/svg+xml</dc:format>
        <dc:type
           rdf:resource="http://purl.org/dc/dcmitype/StillImage" />
        <dc:title>glps_renderer figure</dc:title>
      </cc:Work>
    </rdf:RDF>
  </metadata>
  <sodipodi:namedview
     pagecolor="#ffffff"
     bordercolor="#666666"
     borderopacity="1"
     objecttolerance="10"
     gridtolerance="10"
     guidetolerance="10"
     inkscape:pageopacity="0"
     inkscape:pageshadow="2"
     inkscape:window-width="1572"
     inkscape:window-height="1000"
     id="namedview118"
     showgrid="false"
     inkscape:zoom="1.0716748"
     inkscape:cx="560.03842"
     inkscape:cy="317.40266"
     inkscape:window-x="130"
     inkscape:window-y="8"
     inkscape:window-maximized="0"
     inkscape:current-layer="svg2"
     fit-margin-top="0"
     fit-margin-left="0"
     fit-margin-right="0"
     fit-margin-bottom="0" />
  <title
     id="title4">glps_renderer figure</title>
  <desc
     id="desc6">
Creator: GL2PS 1.3.8, (C) 1999-2012 C. Geuzaine
For: Octave
CreationDate: Fri Sep  9 08:51:37 2016
</desc>
  <defs
     id="defs8" />
  <polygon
     style="fill:#ffffff"
     id="polygon12"
     points="521.28,384.48 74.88,32.4 74.88,384.48 "
     transform="matrix(1.5991166,0,0,1.4210796,6.4029942,-26.352149)" />
  <polygon
     style="fill:#ffffff"
     id="polygon14"
     points="74.88,32.4 521.28,384.48 521.28,32.4 "
     transform="matrix(1.5991166,0,0,1.4210796,6.4029942,-24.352149)" />
  <polyline
     style="fill:none;stroke:#000000;stroke-width:0.5;stroke-dasharray:16, 0"
     id="polyline70"
     points="74.88,325.8 79.348,325.8"
     transform="matrix(1.5991166,0,0,1.4210796,-17.59701,-24.352149)" />
  <polyline
     style="fill:none;stroke:#000000;stroke-width:1.24629176;stroke-miterlimit:4;stroke-dasharray:39.88133647, 0;stroke-dashoffset:0"
     id="polyline74"
     points="74.88,267.12 79.348,267.12"
     transform="matrix(1.5991166,0,0,1.4210796,-17.59701,-24.352149)" />
  <polyline
     style="fill:none;stroke:#000000;stroke-width:1.24629176;stroke-miterlimit:4;stroke-dasharray:39.88133647, 0;stroke-dashoffset:0"
     id="polyline78"
     points="74.88,208.44 79.348,208.44"
     transform="matrix(1.5991166,0,0,1.4210796,-17.59701,-24.352149)" />
  <polyline
     style="fill:none;stroke:#000000;stroke-width:1.24629176;stroke-miterlimit:4;stroke-dasharray:39.88133647, 0;stroke-dashoffset:0"
     id="polyline82"
     points="74.88,149.76 79.348,149.76"
     transform="matrix(1.5991166,0,0,1.4210796,-17.59701,-24.352149)" />
  <polyline
     style="fill:none;stroke:#000000;stroke-width:1.24629176;stroke-miterlimit:4;stroke-dasharray:39.88133647, 0;stroke-dashoffset:0"
     id="polyline86"
     points="74.88,91.08 79.348,91.08"
     transform="matrix(1.5991166,0,0,1.4210796,-17.59701,-24.352149)" />
  <polyline
     style="fill:none;stroke:#000000;stroke-width:1.10820806;stroke-miterlimit:4;stroke-dasharray:none;stroke-dashoffset:0"
     id="polyline28"
     points="149.28,384.48 149.28,380.015"
     transform="matrix(1.6625163,0,0,1.7218448,-21.9282,-130.64746)" />
  <polyline
     style="fill:none;stroke:#000000;stroke-width:1.10490346;stroke-miterlimit:4;stroke-dasharray:none;stroke-dashoffset:0"
     id="polyline32"
     points="223.68,384.48 223.68,380.015"
     transform="matrix(1.6724759,0,0,1.7218448,-22.67397,-130.64746)" />
  <rect
     style="opacity:1;fill:#c9e6ff;fill-opacity:1;fill-rule:nonzero;stroke:none;stroke-width:5;stroke-linecap:butt;stroke-linejoin:miter;stroke-miterlimit:4;stroke-dasharray:none;stroke-dashoffset:0;stroke-opacity:1"
     id="rect3389"
     width="51.192406"
     height="517.24866"
     x="318.97507"
     y="13.652877" />
  <polyline
     style="fill:none;stroke:#000000;stroke-width:1.10490346;stroke-miterlimit:4;stroke-dasharray:none;stroke-dashoffset:0"
     id="polyline36"
     points="298.08,384.48 298.08,380.015"
     transform="matrix(1.6724759,0,0,1.7218448,-22.67397,-130.64746)" />
  <polyline
     style="fill:none;stroke:#000000;stroke-width:1.10490346;stroke-miterlimit:4;stroke-dasharray:none;stroke-dashoffset:0"
     id="polyline40"
     points="372.48,384.48 372.48,380.015"
     transform="matrix(1.6724759,0,0,1.7218448,-22.67397,-130.64746)" />
  <polyline
     style="fill:none;stroke:#000000;stroke-width:1.10490346;stroke-miterlimit:4;stroke-dasharray:none;stroke-dashoffset:0"
     id="polyline44"
     points="446.88,384.48 446.88,380.015"
     transform="matrix(1.6724759,0,0,1.7218448,-22.67397,-130.64746)" />
  <rect
     style="opacity:1;fill:#c9e6ff;fill-opacity:1;fill-rule:nonzero;stroke:none;stroke-width:5;stroke-linecap:butt;stroke-linejoin:miter;stroke-miterlimit:4;stroke-dasharray:none;stroke-dashoffset:0;stroke-opacity:1"
     id="rect3389-3"
     width="51.19241"
     height="517.24872"
     x="581.43335"
     y="13.587055" />
  <g
     id="g4608"
     transform="matrix(1.0401498,0,0,1.0266517,21.838618,141.75388)">
    <path
       style="fill:none;stroke:#d40000;stroke-width:2.71344972;stroke-miterlimit:4;stroke-dasharray:none;stroke-opacity:1"
       d="M 668.94587,378.10025 C 598.59973,326.07686 527.16685,275.01109 455.57199,224.62117 c -5.83667,-4.13658 -8.39514,-5.58699 -13.19227,-9.11682 -7.16214,-5.61526 -5.03045,-5.83601 -12.4804,0.007 -6.54058,4.67544 -11.47865,8.35123 -18.73104,13.26172 -49.18447,35.02707 -98.75486,69.87643 -147.51443,105.52901 -19.97698,14.54728 -39.93791,29.11551 -59.78865,43.79807"
       id="polyline108"
       inkscape:connector-curvature="0"
       sodipodi:nodetypes="ccccccc" />
    <polyline
       transform="matrix(1.5991166,0,0,1.4210796,-40.259142,-168.27643)"
       points="74.88,105.777 76.8082,107.084 79.3891,108.935 81.8836,110.64 83.8982,112.1 86.9391,114.196 88.4073,115.272 91.9744,117.753 92.9164,118.45 96.9896,121.309 97.4254,121.636 101.935,124.828 101.991,124.865 106.444,128.033 107.024,128.422 110.953,131.247 112.035,131.978 115.462,134.469 117.024,135.535 119.971,137.702 121.991,139.091 124.48,140.944 126.934,142.647 128.989,144.196 131.853,146.204 133.498,147.46 136.748,149.76 138.007,150.736 141.616,153.316 142.516,154.025 146.456,156.873 147.025,157.328 151.265,160.429 151.535,160.648 156.042,163.985 156.044,163.987 160.553,167.361 160.822,167.542 165.062,170.763 165.557,171.098 169.571,174.2 170.237,174.655 174.08,177.682 174.849,178.211 178.589,181.223 179.374,181.767 183.098,184.845 183.783,185.324 187.607,188.584 188.025,188.88 192.038,192.436 192.116,192.527 195.852,195.993 196.625,196.998 199.174,199.549 201.135,202.65 201.534,203.105 203.061,206.662 203.061,210.218 201.534,213.775 201.135,214.23 199.174,217.331 196.625,219.882 195.852,220.887 192.116,224.353 192.038,224.444 188.025,228 187.607,228.296 183.783,231.556 183.098,232.035 179.374,235.113 178.589,235.657 174.849,238.669 174.08,239.198 170.237,242.225 169.571,242.68 165.557,245.782 165.062,246.117 160.822,249.338 160.553,249.519 156.044,252.893 156.042,252.895 151.535,256.232 151.265,256.451 147.025,259.552 146.456,260.007 142.516,262.855 141.616,263.564 138.007,266.144 136.748,267.12 133.498,269.42 131.853,270.676 128.989,272.684 126.934,274.233 124.48,275.936 121.991,277.789 119.971,279.178 117.024,281.345 115.462,282.411 112.035,284.902 110.953,285.633 107.024,288.458 106.444,288.847 101.991,292.015 101.935,292.052 97.4254,295.244 96.9896,295.571 92.9164,298.43 91.9744,299.127 88.4073,301.608 86.9391,302.684 83.8982,304.78 81.8836,306.24 79.3891,307.945 76.8082,309.796 74.88,311.103"
       id="polyline112"
       style="fill:none;stroke:#d40000;stroke-width:1.79999995;stroke-miterlimit:4;stroke-dasharray:none;stroke-opacity:1" />
    <polyline
       transform="matrix(1.5991166,0,0,1.4210796,-40.259142,-168.27643)"
       points="521.28,105.777 519.352,107.084 516.771,108.935 514.276,110.64 512.262,112.1 509.221,114.196 507.753,115.272 504.186,117.753 503.244,118.45 499.17,121.309 498.735,121.636 494.225,124.828 494.169,124.865 489.716,128.033 489.136,128.422 485.207,131.247 484.125,131.978 480.698,134.469 479.136,135.535 476.189,137.702 474.169,139.091 471.68,140.944 469.226,142.647 467.171,144.196 464.307,146.204 462.662,147.46 459.412,149.76 458.153,150.736 454.544,153.316 453.644,154.025 449.704,156.873 449.135,157.328 444.895,160.429 444.625,160.648 440.118,163.985 440.116,163.987 435.607,167.361 435.338,167.542 431.098,170.763 430.603,171.098 426.589,174.2 425.923,174.655 422.08,177.682 421.311,178.211 417.571,181.223 416.786,181.767 413.062,184.845 412.377,185.324 408.553,188.584 408.135,188.88 404.122,192.436 404.044,192.527 400.308,195.993 399.535,196.998 396.986,199.549 395.025,202.65 394.626,203.105 393.099,206.662 393.099,210.218 394.626,213.775 395.025,214.23 396.986,217.331 399.535,219.882 400.308,220.887 404.044,224.353 404.122,224.444 408.135,228 408.553,228.296 412.377,231.556 413.062,232.035 416.786,235.113 417.571,235.657 421.311,238.669 422.08,239.198 425.923,242.225 426.589,242.68 430.603,245.782 431.098,246.117 435.338,249.338 435.607,249.519 440.116,252.893 440.118,252.895 444.625,256.232 444.895,256.451 449.135,259.552 449.704,260.007 453.644,262.855 454.544,263.564 458.153,266.144 459.412,267.12 462.662,269.42 464.307,270.676 467.171,272.684 469.226,274.233 471.68,275.936 474.169,277.789 476.189,279.178 479.136,281.345 480.698,282.411 484.125,284.902 485.207,285.633 489.136,288.458 489.716,288.847 494.169,292.015 494.225,292.052 498.735,295.244 499.17,295.571 503.244,298.43 504.186,299.127 507.753,301.608 509.221,302.684 512.262,304.78 514.276,306.24 516.771,307.945 519.352,309.796 521.28,311.103"
       id="polyline114"
       style="fill:none;stroke:#d40000;stroke-width:1.79999995;stroke-miterlimit:4;stroke-dasharray:none;stroke-opacity:1" />
    <path
       sodipodi:nodetypes="cccccccccccc"
       inkscape:connector-curvature="0"
       id="polyline116"
       d="m 430.09382,206.92012 c -15.66707,-11.13865 -16.98906,-12.4484 -25.7085,-18.11396 -21.65605,-15.99694 -45.25223,-30.3858 -63.67705,-49.49058 -5.78295,-5.76395 -7.17418,-14.72544 -1.44191,-20.94857 15.44701,-17.65196 36.64549,-30.337665 55.70208,-44.659846 12.23414,-9.093985 18.13253,-13.588391 30.7605,-23.009666 12.19348,-9.620154 10.22504,-7.408386 23.61445,1.900126 25.99779,19.344702 53.91235,37.455366 77.9381,58.920466 6.91234,5.96942 13.73713,15.56691 7.6598,23.93773 -9.90868,13.43176 -24.95004,23.04584 -38.53527,33.35352 -16.55516,12.09604 -33.55573,23.72002 -50.14826,35.74185 -12.34555,7.81875 -8.49843,8.33792 -16.16394,2.36893 z"
       style="fill:none;stroke:#d40000;stroke-width:2.71344972;stroke-miterlimit:4;stroke-dasharray:none;stroke-opacity:1" />
    <path
       sodipodi:nodetypes="ccccccc"
       inkscape:connector-curvature="0"
       id="polyline108-2"
       d="m 668.5913,-123.53945 c -70.34615,52.023384 -141.77902,103.089149 -213.37389,153.479068 -5.83666,4.136578 -8.39513,5.586989 -13.19226,9.116822 -7.16214,5.615254 -5.03045,5.836005 -12.4804,-0.0071 C 423.00417,34.373903 418.0661,30.69811 410.8137,25.787626 361.62926,-9.2394422 312.05887,-44.088799 263.29929,-79.741384 243.32231,-94.288663 223.36139,-108.85688 203.51064,-123.53944"
       style="fill:none;stroke:#d40000;stroke-width:2.71344972;stroke-miterlimit:4;stroke-dasharray:none;stroke-opacity:1" />
  </g>
  <path
     style="fill:none;stroke:#000000;stroke-width:3;stroke-linecap:butt;stroke-linejoin:miter;stroke-miterlimit:4;stroke-dasharray:none"
     d="m 102.01029,532.48093 0,-520.58793 743.69702,0 0,520.58793 z"
     id="path134"
     inkscape:connector-curvature="0" />
  <polyline
     style="fill:none;stroke:#000000;stroke-width:1.24629176;stroke-miterlimit:4;stroke-dasharray:39.88133647, 0;stroke-dashoffset:0"
     id="polyline74-7"
     points="74.88,267.12 79.348,267.12"
     transform="matrix(1.5991166,0,0,1.4210796,-18.00433,59.563307)" />
  <path
     style="fill:none;stroke:#000000;stroke-width:1px;stroke-linecap:butt;stroke-linejoin:miter;stroke-opacity:1"
     d="m 101.09186,271.94502 746.06355,0.25305"
     id="path4917"
     inkscape:connector-curvature="0"
     sodipodi:nodetypes="cc" />
  <path
     style="fill:none;stroke:#000000;stroke-width:1px;stroke-linecap:butt;stroke-linejoin:miter;stroke-opacity:1"
     d="m 475.52429,531.7166 0,-521.7212108"
     id="path4919"
     inkscape:connector-curvature="0" />
  <g
     id="g3388">
    <text
       sodipodi:linespacing="125%"
       id="text4715"
       y="576.5351"
       x="465.1405"
       style="font-style:normal;font-variant:normal;font-weight:normal;font-stretch:normal;font-size:25px;line-height:125%;font-family:msbm10;-inkscape-font-specification:msbm10;letter-spacing:0px;word-spacing:0px;fill:#000000;fill-opacity:1;stroke:none"
       xml:space="preserve"><tspan
         style="font-style:normal;font-variant:normal;font-weight:normal;font-stretch:normal;font-family:'Nimbus Sans L';-inkscape-font-specification:'Nimbus Sans L'"
         y="576.5351"
         x="465.1405"
         id="tspan4717"
         sodipodi:role="line">$0$</tspan></text>
    <text
       sodipodi:linespacing="125%"
       id="text4715-7"
       y="576.5351"
       x="588.5813"
       style="font-style:normal;font-variant:normal;font-weight:normal;font-stretch:normal;font-size:25px;line-height:125%;font-family:msbm10;-inkscape-font-specification:msbm10;letter-spacing:0px;word-spacing:0px;fill:#000000;fill-opacity:1;stroke:none"
       xml:space="preserve"><tspan
         style="font-style:normal;font-variant:normal;font-weight:normal;font-stretch:normal;font-family:'Nimbus Sans L';-inkscape-font-specification:'Nimbus Sans L'"
         y="576.5351"
         x="588.5813"
         id="tspan4717-4"
         sodipodi:role="line">$1$</tspan></text>
    <text
       sodipodi:linespacing="125%"
       id="text4715-7-2"
       y="576.5351"
       x="715.12091"
       style="font-style:normal;font-variant:normal;font-weight:normal;font-stretch:normal;font-size:25px;line-height:125%;font-family:msbm10;-inkscape-font-specification:msbm10;letter-spacing:0px;word-spacing:0px;fill:#000000;fill-opacity:1;stroke:none"
       xml:space="preserve"><tspan
         style="font-style:normal;font-variant:normal;font-weight:normal;font-stretch:normal;font-family:'Nimbus Sans L';-inkscape-font-specification:'Nimbus Sans L'"
         y="576.5351"
         x="715.12091"
         id="tspan4717-4-4"
         sodipodi:role="line">$2$</tspan></text>
    <text
       sodipodi:linespacing="125%"
       id="text4715-7-9"
       y="576.53503"
       x="201.45918"
       style="font-style:normal;font-variant:normal;font-weight:normal;font-stretch:normal;font-size:25px;line-height:125%;font-family:msbm10;-inkscape-font-specification:msbm10;letter-spacing:0px;word-spacing:0px;fill:#000000;fill-opacity:1;stroke:none"
       xml:space="preserve"><tspan
         style="font-style:normal;font-variant:normal;font-weight:normal;font-stretch:normal;font-family:'Nimbus Sans L';-inkscape-font-specification:'Nimbus Sans L'"
         y="576.53503"
         x="201.45918"
         id="tspan4717-4-6"
         sodipodi:role="line">$-2$</tspan></text>
    <text
       sodipodi:linespacing="125%"
       id="text4715-7-2-9"
       y="576.5351"
       x="327.99887"
       style="font-style:normal;font-variant:normal;font-weight:normal;font-stretch:normal;font-size:25px;line-height:125%;font-family:msbm10;-inkscape-font-specification:msbm10;letter-spacing:0px;word-spacing:0px;fill:#000000;fill-opacity:1;stroke:none"
       xml:space="preserve"><tspan
         style="font-style:normal;font-variant:normal;font-weight:normal;font-stretch:normal;font-family:'Nimbus Sans L';-inkscape-font-specification:'Nimbus Sans L'"
         y="576.5351"
         x="327.99887"
         id="tspan4717-4-4-7"
         sodipodi:role="line">$-1$</tspan></text>
    <text
       sodipodi:linespacing="125%"
       id="text4715-3"
       y="280.85898"
       x="66.470467"
       style="font-style:normal;font-variant:normal;font-weight:normal;font-stretch:normal;font-size:25px;line-height:125%;font-family:msbm10;-inkscape-font-specification:msbm10;letter-spacing:0px;word-spacing:0px;fill:#000000;fill-opacity:1;stroke:none"
       xml:space="preserve"><tspan
         style="font-style:normal;font-variant:normal;font-weight:normal;font-stretch:normal;font-family:'Nimbus Sans L';-inkscape-font-specification:'Nimbus Sans L'"
         y="280.85898"
         x="66.470467"
         id="tspan4717-9"
         sodipodi:role="line">$0$</tspan></text>
    <text
       sodipodi:linespacing="125%"
       id="text4715-3-3"
       y="195.40314"
       x="67.606514"
       style="font-style:normal;font-variant:normal;font-weight:normal;font-stretch:normal;font-size:25px;line-height:125%;font-family:msbm10;-inkscape-font-specification:msbm10;letter-spacing:0px;word-spacing:0px;fill:#000000;fill-opacity:1;stroke:none"
       xml:space="preserve"><tspan
         style="font-style:normal;font-variant:normal;font-weight:normal;font-stretch:normal;font-family:'Nimbus Sans L';-inkscape-font-specification:'Nimbus Sans L'"
         y="195.40314"
         x="67.606514"
         id="tspan4717-9-3"
         sodipodi:role="line">$1$</tspan></text>
    <text
       sodipodi:linespacing="125%"
       id="text4715-3-3-4"
       y="112.46259"
       x="67.334442"
       style="font-style:normal;font-variant:normal;font-weight:normal;font-stretch:normal;font-size:25px;line-height:125%;font-family:msbm10;-inkscape-font-specification:msbm10;letter-spacing:0px;word-spacing:0px;fill:#000000;fill-opacity:1;stroke:none"
       xml:space="preserve"><tspan
         style="font-style:normal;font-variant:normal;font-weight:normal;font-stretch:normal;font-family:'Nimbus Sans L';-inkscape-font-specification:'Nimbus Sans L'"
         y="112.46259"
         x="67.334442"
         id="tspan4717-9-3-0"
         sodipodi:role="line">$2$</tspan></text>
    <text
       sodipodi:linespacing="125%"
       id="text4715-7-2-95"
       y="576.5351"
       x="833.62714"
       style="font-style:normal;font-variant:normal;font-weight:normal;font-stretch:normal;font-size:25px;line-height:125%;font-family:msbm10;-inkscape-font-specification:msbm10;letter-spacing:0px;word-spacing:0px;fill:#000000;fill-opacity:1;stroke:none"
       xml:space="preserve"><tspan
         style="font-style:normal;font-variant:normal;font-weight:normal;font-stretch:normal;font-family:'Nimbus Sans L';-inkscape-font-specification:'Nimbus Sans L'"
         y="576.5351"
         x="833.62714"
         id="tspan4717-4-4-9"
         sodipodi:role="line">$3$</tspan></text>
    <text
       sodipodi:linespacing="125%"
       id="text4715-7-9-8"
       y="576.5351"
       x="76.897469"
       style="font-style:normal;font-variant:normal;font-weight:normal;font-stretch:normal;font-size:25px;line-height:125%;font-family:msbm10;-inkscape-font-specification:msbm10;letter-spacing:0px;word-spacing:0px;fill:#000000;fill-opacity:1;stroke:none"
       xml:space="preserve"><tspan
         style="font-style:normal;font-variant:normal;font-weight:normal;font-stretch:normal;font-family:'Nimbus Sans L';-inkscape-font-specification:'Nimbus Sans L'"
         y="576.5351"
         x="76.897469"
         id="tspan4717-4-6-4"
         sodipodi:role="line">$-3$</tspan></text>
    <text
       sodipodi:linespacing="125%"
       id="text4715-3-3-4-3"
       y="19.249969"
       x="67.334442"
       style="font-style:normal;font-variant:normal;font-weight:normal;font-stretch:normal;font-size:25px;line-height:125%;font-family:msbm10;-inkscape-font-specification:msbm10;letter-spacing:0px;word-spacing:0px;fill:#000000;fill-opacity:1;stroke:none"
       xml:space="preserve"><tspan
         style="font-style:normal;font-variant:normal;font-weight:normal;font-stretch:normal;font-family:'Nimbus Sans L';-inkscape-font-specification:'Nimbus Sans L'"
         y="19.249969"
         x="67.334442"
         id="tspan4717-9-3-0-6"
         sodipodi:role="line">$3$</tspan></text>
    <text
       sodipodi:linespacing="125%"
       id="text4715-3-3-0"
       y="539.20221"
       x="34.606514"
       style="font-style:normal;font-variant:normal;font-weight:normal;font-stretch:normal;font-size:25px;line-height:125%;font-family:msbm10;-inkscape-font-specification:msbm10;letter-spacing:0px;word-spacing:0px;fill:#000000;fill-opacity:1;stroke:none"
       xml:space="preserve"><tspan
         style="font-style:normal;font-variant:normal;font-weight:normal;font-stretch:normal;font-family:'Nimbus Sans L';-inkscape-font-specification:'Nimbus Sans L'"
         y="539.20221"
         x="34.606514"
         id="tspan4717-9-3-4"
         sodipodi:role="line">$-3$</tspan></text>
    <text
       sodipodi:linespacing="125%"
       id="text4715-3-3-4-8"
       y="456.26169"
       x="34.334442"
       style="font-style:normal;font-variant:normal;font-weight:normal;font-stretch:normal;font-size:25px;line-height:125%;font-family:msbm10;-inkscape-font-specification:msbm10;letter-spacing:0px;word-spacing:0px;fill:#000000;fill-opacity:1;stroke:none"
       xml:space="preserve"><tspan
         style="font-style:normal;font-variant:normal;font-weight:normal;font-stretch:normal;font-family:'Nimbus Sans L';-inkscape-font-specification:'Nimbus Sans L'"
         y="456.26169"
         x="34.334442"
         id="tspan4717-9-3-0-0"
         sodipodi:role="line">$-2$</tspan></text>
    <text
       sodipodi:linespacing="125%"
       id="text4715-3-3-4-3-6"
       y="363.04907"
       x="34.334442"
       style="font-style:normal;font-variant:normal;font-weight:normal;font-stretch:normal;font-size:25px;line-height:125%;font-family:msbm10;-inkscape-font-specification:msbm10;letter-spacing:0px;word-spacing:0px;fill:#000000;fill-opacity:1;stroke:none"
       xml:space="preserve"><tspan
         style="font-style:normal;font-variant:normal;font-weight:normal;font-stretch:normal;font-family:'Nimbus Sans L';-inkscape-font-specification:'Nimbus Sans L'"
         y="363.04907"
         x="34.334442"
         id="tspan4717-9-3-0-6-5"
         sodipodi:role="line">$-1$</tspan></text>
    <text
       sodipodi:linespacing="125%"
       id="text4921"
       y="574.23511"
       x="894.74908"
       style="font-style:normal;font-variant:normal;font-weight:normal;font-stretch:normal;font-size:25px;line-height:125%;font-family:msbm10;-inkscape-font-specification:msbm10;letter-spacing:0px;word-spacing:0px;fill:#000000;fill-opacity:1;stroke:none"
       xml:space="preserve"><tspan
         style="font-style:normal;font-variant:normal;font-weight:normal;font-stretch:normal;font-family:'Nimbus Sans L';-inkscape-font-specification:'Nimbus Sans L'"
         y="574.23511"
         x="894.74908"
         id="tspan4923"
         sodipodi:role="line">$\beta/q$</tspan></text>
    <text
       sodipodi:linespacing="125%"
       id="text4921-7"
       y="67.117165"
       x="-0.81389678"
       style="font-style:normal;font-variant:normal;font-weight:normal;font-stretch:normal;font-size:25px;line-height:125%;font-family:msbm10;-inkscape-font-specification:msbm10;letter-spacing:0px;word-spacing:0px;fill:#000000;fill-opacity:1;stroke:none"
       xml:space="preserve"><tspan
         style="font-style:normal;font-variant:normal;font-weight:normal;font-stretch:normal;font-family:'Nimbus Sans L';-inkscape-font-specification:'Nimbus Sans L'"
         y="67.117165"
         x="-0.81389678"
         id="tspan4923-2"
         sodipodi:role="line">$k/q$</tspan></text>
  </g>
</svg>
