<?xml version="1.0" encoding="UTF-8" standalone="no"?>
<!-- Created with Inkscape (http://www.inkscape.org/) -->

<svg
   xmlns:dc="http://purl.org/dc/elements/1.1/"
   xmlns:cc="http://creativecommons.org/ns#"
   xmlns:rdf="http://www.w3.org/1999/02/22-rdf-syntax-ns#"
   xmlns:svg="http://www.w3.org/2000/svg"
   xmlns="http://www.w3.org/2000/svg"
   xmlns:sodipodi="http://sodipodi.sourceforge.net/DTD/sodipodi-0.dtd"
   xmlns:inkscape="http://www.inkscape.org/namespaces/inkscape"
   width="231"
   height="366.44513"
   id="svg2"
   version="1.1"
   inkscape:version="0.48.4 r9939"
   sodipodi:docname="09_tensor.pdf">
  <defs
     id="defs4">
    <inkscape:path-effect
       effect="spiro"
       id="path-effect3864"
       is_visible="true" />
    <inkscape:path-effect
       effect="spiro"
       id="path-effect3864-1"
       is_visible="true" />
    <inkscape:path-effect
       effect="spiro"
       id="path-effect3864-1-0"
       is_visible="true" />
    <inkscape:path-effect
       effect="spiro"
       id="path-effect3864-3"
       is_visible="true" />
  </defs>
  <sodipodi:namedview
     id="base"
     pagecolor="#ffffff"
     bordercolor="#666666"
     borderopacity="1.0"
     inkscape:pageopacity="0.0"
     inkscape:pageshadow="2"
     inkscape:zoom="1"
     inkscape:cx="108.53636"
     inkscape:cy="262.94668"
     inkscape:document-units="px"
     inkscape:current-layer="layer1"
     showgrid="false"
     inkscape:window-width="1460"
     inkscape:window-height="1013"
     inkscape:window-x="356"
     inkscape:window-y="0"
     inkscape:window-maximized="0"
     fit-margin-top="0"
     fit-margin-left="0"
     fit-margin-right="0"
     fit-margin-bottom="0" />
  <metadata
     id="metadata7">
    <rdf:RDF>
      <cc:Work
         rdf:about="">
        <dc:format>image/svg+xml</dc:format>
        <dc:type
           rdf:resource="http://purl.org/dc/dcmitype/StillImage" />
        <dc:title></dc:title>
      </cc:Work>
    </rdf:RDF>
  </metadata>
  <g
     inkscape:label="Layer 1"
     inkscape:groupmode="layer"
     id="layer1"
     transform="translate(-73.000019,-75.505047)">
    <g
       transform="translate(72.999999,-0.00987464)"
       id="g3119-6-9-3">
      <path
         transform="matrix(0.19328441,0,0,0.19328441,112.04773,28.267196)"
         d="m 34.642858,422.36218 c 0,11.83468 -9.593899,21.42857 -21.428572,21.42857 -11.8346735,0 -21.4285719,-9.59389 -21.4285719,-21.42857 0,-11.83467 9.5938984,-21.42857 21.4285719,-21.42857 11.834673,0 21.428572,9.5939 21.428572,21.42857 z"
         sodipodi:ry="21.428572"
         sodipodi:rx="21.428572"
         sodipodi:cy="422.36218"
         sodipodi:cx="13.214286"
         id="path3052-3-2-3-2-3-7"
         style="fill:#000000;fill-opacity:1;stroke:#000000;stroke-width:4.76000023;stroke-linecap:butt;stroke-linejoin:round;stroke-miterlimit:4;stroke-opacity:1;stroke-dasharray:none;stroke-dashoffset:0"
         sodipodi:type="arc" />
      <path
         transform="matrix(0.19328441,0,0,0.19328441,112.04773,88.267196)"
         d="m 34.642858,422.36218 c 0,11.83468 -9.593899,21.42857 -21.428572,21.42857 -11.8346735,0 -21.4285719,-9.59389 -21.4285719,-21.42857 0,-11.83467 9.5938984,-21.42857 21.4285719,-21.42857 11.834673,0 21.428572,9.5939 21.428572,21.42857 z"
         sodipodi:ry="21.428572"
         sodipodi:rx="21.428572"
         sodipodi:cy="422.36218"
         sodipodi:cx="13.214286"
         id="path3052-3-2-3-6-9-6-5"
         style="fill:#000000;fill-opacity:1;stroke:#000000;stroke-width:4.76000023;stroke-linecap:butt;stroke-linejoin:round;stroke-miterlimit:4;stroke-opacity:1;stroke-dasharray:none;stroke-dashoffset:0"
         sodipodi:type="arc" />
      <path
         transform="matrix(0.19328441,0,0,0.19328441,112.04773,148.2672)"
         d="m 34.642858,422.36218 c 0,11.83468 -9.593899,21.42857 -21.428572,21.42857 -11.8346735,0 -21.4285719,-9.59389 -21.4285719,-21.42857 0,-11.83467 9.5938984,-21.42857 21.4285719,-21.42857 11.834673,0 21.428572,9.5939 21.428572,21.42857 z"
         sodipodi:ry="21.428572"
         sodipodi:rx="21.428572"
         sodipodi:cy="422.36218"
         sodipodi:cx="13.214286"
         id="path3052-3-2-3-6-7-1-0-9"
         style="fill:#000000;fill-opacity:1;stroke:#000000;stroke-width:4.76000023;stroke-linecap:butt;stroke-linejoin:round;stroke-miterlimit:4;stroke-opacity:1;stroke-dasharray:none;stroke-dashoffset:0"
         sodipodi:type="arc" />
      <path
         transform="matrix(0.19328441,0,0,0.19328441,112.04773,208.2672)"
         d="m 34.642858,422.36218 c 0,11.83468 -9.593899,21.42857 -21.428572,21.42857 -11.8346735,0 -21.4285719,-9.59389 -21.4285719,-21.42857 0,-11.83467 9.5938984,-21.42857 21.4285719,-21.42857 11.834673,0 21.428572,9.5939 21.428572,21.42857 z"
         sodipodi:ry="21.428572"
         sodipodi:rx="21.428572"
         sodipodi:cy="422.36218"
         sodipodi:cx="13.214286"
         id="path3052-3-2-3-6-7-5-2-6-2"
         style="fill:#000000;fill-opacity:1;stroke:#000000;stroke-width:4.76000023;stroke-linecap:butt;stroke-linejoin:round;stroke-miterlimit:4;stroke-opacity:1;stroke-dasharray:none;stroke-dashoffset:0"
         sodipodi:type="arc" />
      <path
         transform="matrix(0.19328441,0,0,0.19328441,112.04773,268.2672)"
         d="m 34.642858,422.36218 c 0,11.83468 -9.593899,21.42857 -21.428572,21.42857 -11.8346735,0 -21.4285719,-9.59389 -21.4285719,-21.42857 0,-11.83467 9.5938984,-21.42857 21.4285719,-21.42857 11.834673,0 21.428572,9.5939 21.428572,21.42857 z"
         sodipodi:ry="21.428572"
         sodipodi:rx="21.428572"
         sodipodi:cy="422.36218"
         sodipodi:cx="13.214286"
         id="path3052-3-2-3-6-7-5-3-7-2-2"
         style="fill:#000000;fill-opacity:1;stroke:#000000;stroke-width:4.76000023;stroke-linecap:butt;stroke-linejoin:round;stroke-miterlimit:4;stroke-opacity:1;stroke-dasharray:none;stroke-dashoffset:0"
         sodipodi:type="arc" />
      <path
         transform="matrix(0.19328441,0,0,0.19328441,112.04773,328.2672)"
         d="m 34.642858,422.36218 c 0,11.83468 -9.593899,21.42857 -21.428572,21.42857 -11.8346735,0 -21.4285719,-9.59389 -21.4285719,-21.42857 0,-11.83467 9.5938984,-21.42857 21.4285719,-21.42857 11.834673,0 21.428572,9.5939 21.428572,21.42857 z"
         sodipodi:ry="21.428572"
         sodipodi:rx="21.428572"
         sodipodi:cy="422.36218"
         sodipodi:cx="13.214286"
         id="path3052-3-2-3-6-7-5-3-5-0-6-8"
         style="fill:#000000;fill-opacity:1;stroke:#000000;stroke-width:4.76000023;stroke-linecap:butt;stroke-linejoin:round;stroke-miterlimit:4;stroke-opacity:1;stroke-dasharray:none;stroke-dashoffset:0"
         sodipodi:type="arc" />
    </g>
    <path
       style="fill:#000000"
       d="m 73.000019,258.72761 0,-183.222563 9,0 c 8.333333,0 9,0.09853 9,1.330109 0,1.193689 -0.666667,1.33011 -6.5,1.33011 l -6.5,0 0,180.562344 0,180.56235 6.5,0 c 5.833333,0 6.5,0.13643 6.5,1.33011 0,1.23159 -0.666667,1.33011 -9,1.33011 l -9,0 z M 286.00002,440.62007 c 0,-1.19368 0.66667,-1.33011 6.5,-1.33011 l 6.5,0 0,-180.56235 0,-180.562344 -6.5,0 c -5.83333,0 -6.5,-0.136421 -6.5,-1.33011 0,-1.231582 0.66667,-1.330109 9,-1.330109 l 9,0 0,183.222563 0,183.22257 -9,0 c -8.33333,0 -9,-0.0985 -9,-1.33011 z"
       id="path3050"
       inkscape:connector-curvature="0"
       sodipodi:nodetypes="ccssscccsssccsscccssscccss" />
    <path
       sodipodi:type="arc"
       style="fill:#000000;fill-opacity:1;stroke:#000000;stroke-width:4.76000023;stroke-linecap:butt;stroke-linejoin:round;stroke-miterlimit:4;stroke-opacity:1;stroke-dasharray:none;stroke-dashoffset:0"
       id="path3052-7"
       sodipodi:cx="13.214286"
       sodipodi:cy="422.36218"
       sodipodi:rx="21.428572"
       sodipodi:ry="21.428572"
       d="m 34.642858,422.36218 a 21.428572,21.428572 0 1 1 -42.8571439,0 21.428572,21.428572 0 1 1 42.8571439,0 z"
       transform="matrix(0.37148245,0,0,0.37148245,183.28561,193.3851)" />
    <path
       sodipodi:type="arc"
       style="fill:#000000;fill-opacity:1;stroke:#000000;stroke-width:4.76000023;stroke-linecap:butt;stroke-linejoin:round;stroke-miterlimit:4;stroke-opacity:1;stroke-dasharray:none;stroke-dashoffset:0"
       id="path3052-3-5-6"
       sodipodi:cx="13.214286"
       sodipodi:cy="422.36218"
       sodipodi:rx="21.428572"
       sodipodi:ry="21.428572"
       d="m 34.642858,422.36218 a 21.428572,21.428572 0 1 1 -42.8571439,0 21.428572,21.428572 0 1 1 42.8571439,0 z"
       transform="matrix(0.37148245,0,0,0.37148245,108.36705,132.33915)" />
    <path
       sodipodi:type="arc"
       style="fill:#000000;fill-opacity:1;stroke:#000000;stroke-width:4.76000023;stroke-linecap:butt;stroke-linejoin:round;stroke-miterlimit:4;stroke-opacity:1;stroke-dasharray:none;stroke-dashoffset:0"
       id="path3052-3-2"
       sodipodi:cx="13.214286"
       sodipodi:cy="422.36218"
       sodipodi:rx="21.428572"
       sodipodi:ry="21.428572"
       d="m 34.642858,422.36218 a 21.428572,21.428572 0 1 1 -42.8571439,0 21.428572,21.428572 0 1 1 42.8571439,0 z"
       transform="matrix(0.37148245,0,0,0.37148245,259.60383,253.33034)" />
    <path
       style="fill:none;stroke:#000000;stroke-width:4.30000019;stroke-linecap:butt;stroke-linejoin:miter;stroke-miterlimit:4;stroke-opacity:1;stroke-dasharray:none"
       d="M 114.95913,289.57249 263.24992,410.51647"
       id="path3862-6"
       inkscape:path-effect="#path-effect3864-3"
       inkscape:original-d="M 114.95913,289.57249 263.24992,410.51647"
       inkscape:connector-curvature="0"
       sodipodi:nodetypes="cc" />
    <path
       sodipodi:type="arc"
       style="fill:#000000;fill-opacity:1;stroke:#000000;stroke-width:4.76000023;stroke-linecap:butt;stroke-linejoin:round;stroke-miterlimit:4;stroke-opacity:1;stroke-dasharray:none;stroke-dashoffset:0"
       id="path3052-3-2-3-6-7-5-3-7"
       sodipodi:cx="13.214286"
       sodipodi:cy="422.36218"
       sodipodi:rx="21.428572"
       sodipodi:ry="21.428572"
       d="m 34.642858,422.36218 c 0,11.83468 -9.593899,21.42857 -21.428572,21.42857 -11.8346735,0 -21.4285719,-9.59389 -21.4285719,-21.42857 0,-11.83467 9.5938984,-21.42857 21.4285719,-21.42857 11.834673,0 21.428572,9.5939 21.428572,21.42857 z"
       transform="matrix(0.19328441,0,0,0.19328441,112.04773,268.2672)" />
    <g
       transform="translate(150,-4.029775e-6)"
       id="g3119-6-9">
      <path
         transform="matrix(0.19328441,0,0,0.19328441,112.04773,28.267196)"
         d="m 34.642858,422.36218 c 0,11.83468 -9.593899,21.42857 -21.428572,21.42857 -11.8346735,0 -21.4285719,-9.59389 -21.4285719,-21.42857 0,-11.83467 9.5938984,-21.42857 21.4285719,-21.42857 11.834673,0 21.428572,9.5939 21.428572,21.42857 z"
         sodipodi:ry="21.428572"
         sodipodi:rx="21.428572"
         sodipodi:cy="422.36218"
         sodipodi:cx="13.214286"
         id="path3052-3-2-3-2-3"
         style="fill:#000000;fill-opacity:1;stroke:#000000;stroke-width:4.76000023;stroke-linecap:butt;stroke-linejoin:round;stroke-miterlimit:4;stroke-opacity:1;stroke-dasharray:none;stroke-dashoffset:0"
         sodipodi:type="arc" />
      <path
         transform="matrix(0.19328441,0,0,0.19328441,112.04773,88.267196)"
         d="m 34.642858,422.36218 c 0,11.83468 -9.593899,21.42857 -21.428572,21.42857 -11.8346735,0 -21.4285719,-9.59389 -21.4285719,-21.42857 0,-11.83467 9.5938984,-21.42857 21.4285719,-21.42857 11.834673,0 21.428572,9.5939 21.428572,21.42857 z"
         sodipodi:ry="21.428572"
         sodipodi:rx="21.428572"
         sodipodi:cy="422.36218"
         sodipodi:cx="13.214286"
         id="path3052-3-2-3-6-9-6"
         style="fill:#000000;fill-opacity:1;stroke:#000000;stroke-width:4.76000023;stroke-linecap:butt;stroke-linejoin:round;stroke-miterlimit:4;stroke-opacity:1;stroke-dasharray:none;stroke-dashoffset:0"
         sodipodi:type="arc" />
      <path
         transform="matrix(0.19328441,0,0,0.19328441,112.04773,148.2672)"
         d="m 34.642858,422.36218 c 0,11.83468 -9.593899,21.42857 -21.428572,21.42857 -11.8346735,0 -21.4285719,-9.59389 -21.4285719,-21.42857 0,-11.83467 9.5938984,-21.42857 21.4285719,-21.42857 11.834673,0 21.428572,9.5939 21.428572,21.42857 z"
         sodipodi:ry="21.428572"
         sodipodi:rx="21.428572"
         sodipodi:cy="422.36218"
         sodipodi:cx="13.214286"
         id="path3052-3-2-3-6-7-1-0"
         style="fill:#000000;fill-opacity:1;stroke:#000000;stroke-width:4.76000023;stroke-linecap:butt;stroke-linejoin:round;stroke-miterlimit:4;stroke-opacity:1;stroke-dasharray:none;stroke-dashoffset:0"
         sodipodi:type="arc" />
      <path
         transform="matrix(0.19328441,0,0,0.19328441,112.04773,208.2672)"
         d="m 34.642858,422.36218 c 0,11.83468 -9.593899,21.42857 -21.428572,21.42857 -11.8346735,0 -21.4285719,-9.59389 -21.4285719,-21.42857 0,-11.83467 9.5938984,-21.42857 21.4285719,-21.42857 11.834673,0 21.428572,9.5939 21.428572,21.42857 z"
         sodipodi:ry="21.428572"
         sodipodi:rx="21.428572"
         sodipodi:cy="422.36218"
         sodipodi:cx="13.214286"
         id="path3052-3-2-3-6-7-5-2-6"
         style="fill:#000000;fill-opacity:1;stroke:#000000;stroke-width:4.76000023;stroke-linecap:butt;stroke-linejoin:round;stroke-miterlimit:4;stroke-opacity:1;stroke-dasharray:none;stroke-dashoffset:0"
         sodipodi:type="arc" />
      <path
         transform="matrix(0.19328441,0,0,0.19328441,112.04773,268.2672)"
         d="m 34.642858,422.36218 c 0,11.83468 -9.593899,21.42857 -21.428572,21.42857 -11.8346735,0 -21.4285719,-9.59389 -21.4285719,-21.42857 0,-11.83467 9.5938984,-21.42857 21.4285719,-21.42857 11.834673,0 21.428572,9.5939 21.428572,21.42857 z"
         sodipodi:ry="21.428572"
         sodipodi:rx="21.428572"
         sodipodi:cy="422.36218"
         sodipodi:cx="13.214286"
         id="path3052-3-2-3-6-7-5-3-7-2"
         style="fill:#000000;fill-opacity:1;stroke:#000000;stroke-width:4.76000023;stroke-linecap:butt;stroke-linejoin:round;stroke-miterlimit:4;stroke-opacity:1;stroke-dasharray:none;stroke-dashoffset:0"
         sodipodi:type="arc" />
      <path
         transform="matrix(0.19328441,0,0,0.19328441,112.04773,328.2672)"
         d="m 34.642858,422.36218 c 0,11.83468 -9.593899,21.42857 -21.428572,21.42857 -11.8346735,0 -21.4285719,-9.59389 -21.4285719,-21.42857 0,-11.83467 9.5938984,-21.42857 21.4285719,-21.42857 11.834673,0 21.428572,9.5939 21.428572,21.42857 z"
         sodipodi:ry="21.428572"
         sodipodi:rx="21.428572"
         sodipodi:cy="422.36218"
         sodipodi:cx="13.214286"
         id="path3052-3-2-3-6-7-5-3-5-0-6"
         style="fill:#000000;fill-opacity:1;stroke:#000000;stroke-width:4.76000023;stroke-linecap:butt;stroke-linejoin:round;stroke-miterlimit:4;stroke-opacity:1;stroke-dasharray:none;stroke-dashoffset:0"
         sodipodi:type="arc" />
    </g>
    <g
       transform="translate(-2.0000007,-0.00987464)"
       id="g3119-6-9-3-9">
      <path
         transform="matrix(0.19328441,0,0,0.19328441,112.04773,28.267196)"
         d="m 34.642858,422.36218 c 0,11.83468 -9.593899,21.42857 -21.428572,21.42857 -11.8346735,0 -21.4285719,-9.59389 -21.4285719,-21.42857 0,-11.83467 9.5938984,-21.42857 21.4285719,-21.42857 11.834673,0 21.428572,9.5939 21.428572,21.42857 z"
         sodipodi:ry="21.428572"
         sodipodi:rx="21.428572"
         sodipodi:cy="422.36218"
         sodipodi:cx="13.214286"
         id="path3052-3-2-3-2-3-7-7"
         style="fill:#000000;fill-opacity:1;stroke:#000000;stroke-width:4.76000023;stroke-linecap:butt;stroke-linejoin:round;stroke-miterlimit:4;stroke-opacity:1;stroke-dasharray:none;stroke-dashoffset:0"
         sodipodi:type="arc" />
      <path
         transform="matrix(0.19328441,0,0,0.19328441,112.04773,88.267196)"
         d="m 34.642858,422.36218 c 0,11.83468 -9.593899,21.42857 -21.428572,21.42857 -11.8346735,0 -21.4285719,-9.59389 -21.4285719,-21.42857 0,-11.83467 9.5938984,-21.42857 21.4285719,-21.42857 11.834673,0 21.428572,9.5939 21.428572,21.42857 z"
         sodipodi:ry="21.428572"
         sodipodi:rx="21.428572"
         sodipodi:cy="422.36218"
         sodipodi:cx="13.214286"
         id="path3052-3-2-3-6-9-6-5-3"
         style="fill:#000000;fill-opacity:1;stroke:#000000;stroke-width:4.76000023;stroke-linecap:butt;stroke-linejoin:round;stroke-miterlimit:4;stroke-opacity:1;stroke-dasharray:none;stroke-dashoffset:0"
         sodipodi:type="arc" />
      <path
         transform="matrix(0.19328441,0,0,0.19328441,112.04773,148.2672)"
         d="m 34.642858,422.36218 c 0,11.83468 -9.593899,21.42857 -21.428572,21.42857 -11.8346735,0 -21.4285719,-9.59389 -21.4285719,-21.42857 0,-11.83467 9.5938984,-21.42857 21.4285719,-21.42857 11.834673,0 21.428572,9.5939 21.428572,21.42857 z"
         sodipodi:ry="21.428572"
         sodipodi:rx="21.428572"
         sodipodi:cy="422.36218"
         sodipodi:cx="13.214286"
         id="path3052-3-2-3-6-7-1-0-9-6"
         style="fill:#000000;fill-opacity:1;stroke:#000000;stroke-width:4.76000023;stroke-linecap:butt;stroke-linejoin:round;stroke-miterlimit:4;stroke-opacity:1;stroke-dasharray:none;stroke-dashoffset:0"
         sodipodi:type="arc" />
      <path
         transform="matrix(0.19328441,0,0,0.19328441,112.04773,208.2672)"
         d="m 34.642858,422.36218 c 0,11.83468 -9.593899,21.42857 -21.428572,21.42857 -11.8346735,0 -21.4285719,-9.59389 -21.4285719,-21.42857 0,-11.83467 9.5938984,-21.42857 21.4285719,-21.42857 11.834673,0 21.428572,9.5939 21.428572,21.42857 z"
         sodipodi:ry="21.428572"
         sodipodi:rx="21.428572"
         sodipodi:cy="422.36218"
         sodipodi:cx="13.214286"
         id="path3052-3-2-3-6-7-5-2-6-2-1"
         style="fill:#000000;fill-opacity:1;stroke:#000000;stroke-width:4.76000023;stroke-linecap:butt;stroke-linejoin:round;stroke-miterlimit:4;stroke-opacity:1;stroke-dasharray:none;stroke-dashoffset:0"
         sodipodi:type="arc" />
      <path
         transform="matrix(0.19328441,0,0,0.19328441,112.04773,268.2672)"
         d="m 34.642858,422.36218 c 0,11.83468 -9.593899,21.42857 -21.428572,21.42857 -11.8346735,0 -21.4285719,-9.59389 -21.4285719,-21.42857 0,-11.83467 9.5938984,-21.42857 21.4285719,-21.42857 11.834673,0 21.428572,9.5939 21.428572,21.42857 z"
         sodipodi:ry="21.428572"
         sodipodi:rx="21.428572"
         sodipodi:cy="422.36218"
         sodipodi:cx="13.214286"
         id="path3052-3-2-3-6-7-5-3-7-2-2-2"
         style="fill:#000000;fill-opacity:1;stroke:#000000;stroke-width:4.76000023;stroke-linecap:butt;stroke-linejoin:round;stroke-miterlimit:4;stroke-opacity:1;stroke-dasharray:none;stroke-dashoffset:0"
         sodipodi:type="arc" />
      <path
         transform="matrix(0.19328441,0,0,0.19328441,112.04773,328.2672)"
         d="m 34.642858,422.36218 c 0,11.83468 -9.593899,21.42857 -21.428572,21.42857 -11.8346735,0 -21.4285719,-9.59389 -21.4285719,-21.42857 0,-11.83467 9.5938984,-21.42857 21.4285719,-21.42857 11.834673,0 21.428572,9.5939 21.428572,21.42857 z"
         sodipodi:ry="21.428572"
         sodipodi:rx="21.428572"
         sodipodi:cy="422.36218"
         sodipodi:cx="13.214286"
         id="path3052-3-2-3-6-7-5-3-5-0-6-8-9"
         style="fill:#000000;fill-opacity:1;stroke:#000000;stroke-width:4.76000023;stroke-linecap:butt;stroke-linejoin:round;stroke-miterlimit:4;stroke-opacity:1;stroke-dasharray:none;stroke-dashoffset:0"
         sodipodi:type="arc" />
    </g>
  </g>
</svg>
