<?xml version="1.0" encoding="UTF-8" standalone="no"?>
<!-- generated by Grace-5.1.23 -->

<svg
   xmlns:dc="http://purl.org/dc/elements/1.1/"
   xmlns:cc="http://creativecommons.org/ns#"
   xmlns:rdf="http://www.w3.org/1999/02/22-rdf-syntax-ns#"
   xmlns:svg="http://www.w3.org/2000/svg"
   xmlns="http://www.w3.org/2000/svg"
   xmlns:sodipodi="http://sodipodi.sourceforge.net/DTD/sodipodi-0.dtd"
   xmlns:inkscape="http://www.inkscape.org/namespaces/inkscape"
   xml:space="preserve"
   width="792.39294"
   height="553.95636"
   viewBox="0 0 633.91618 443.16686"
   id="svg3495"
   version="1.1"
   inkscape:version="0.48.4 r9939"
   sodipodi:docname="10_Bessel2.pdf"><metadata
     id="metadata3619"><rdf:RDF><cc:Work
         rdf:about=""><dc:format>image/svg+xml</dc:format><dc:type
           rdf:resource="http://purl.org/dc/dcmitype/StillImage" /><dc:title></dc:title></cc:Work></rdf:RDF></metadata><defs
     id="defs3617" /><sodipodi:namedview
     pagecolor="#ffffff"
     bordercolor="#666666"
     borderopacity="1"
     objecttolerance="10"
     gridtolerance="10"
     guidetolerance="10"
     inkscape:pageopacity="0"
     inkscape:pageshadow="2"
     inkscape:window-width="1204"
     inkscape:window-height="814"
     id="namedview3615"
     showgrid="false"
     inkscape:zoom="1.564186"
     inkscape:cx="263.51529"
     inkscape:cy="399.26307"
     inkscape:window-x="667"
     inkscape:window-y="42"
     inkscape:window-maximized="0"
     inkscape:current-layer="svg3495"
     fit-margin-top="0"
     fit-margin-left="0"
     fit-margin-right="0"
     fit-margin-bottom="0" /><path
     style="fill:none;stroke:#000000;stroke-width:2.67729998;stroke-linecap:butt;stroke-linejoin:miter;stroke-dasharray:none"
     d="m 16.652011,6.9573419 3.3164,92.9099001 5.9946,60.787298 5.9947,37.6591 5.9947,27.149 5.9947,21.0937 5.9946,17.1404 5.9947,14.3494 5.9947,12.2705 5.9947,10.6604 5.9946,9.3758 5.9947,8.3268 5.9947,7.454 5.9946,6.7166 5.9947,6.0857 5.994699,5.54 5.9947,5.0636 5.9946,4.6444 5.9947,4.2732 5.9947,3.9424 5.9947,3.6458 5.9946,3.379 5.9947,3.1377 5.9947,2.9188 5.9946,2.7195 5.9947,2.5375 5.9947,2.3708 5.9947,2.2178 5.9946,2.0769 5.9947,1.9471 5.9947,1.827 5.9947,1.716 5.9946,1.6131 5.9947,1.5173 5.9947,1.4285 5.9946,1.3456 5.9947,1.2685 5.9947,1.1964 5.9947,1.129 5.9946,1.0661 5.9947,1.0071 5.9947,0.9519 5.9947,0.9001 5.9946,0.8514 5.9947,0.8058 5.9947,0.7628 5.9946,0.7225 5.9947,0.6844 5.9947,0.6487 5.9947,0.6149 5.9946,0.5832 5.9947,0.5531 5.9947,0.5249 5.9947,0.4981 5.9946,0.473 5.9947,0.449 5.9947,0.4265 5.9946,0.4052 5.9947,0.385 5.9947,0.3659 5.9947,0.3479 5.9946,0.3307 5.9947,0.3145 5.9947,0.2992 5.9947,0.2846 5.9946,0.2707 5.9947,0.2577 5.9947,0.2453 5.9946,0.2334 5.9947,0.2223 5.9947,0.2116 5.9947,0.2016 5.9946,0.192 5.9947,0.1829 5.9947,0.1742 5.9947,0.166 5.9946,0.1582 5.9947,0.1507 5.9947,0.1437 5.9946,0.137 5.9947,0.1306 5.9947,0.1245 5.9947,0.1188 5.9946,0.1132 5.9947,0.108 5.9947,0.103 5.9947,0.0983 5.9946,0.0937 5.9947,0.0895 5.9947,0.0853 5.9946,0.0815 5.9947,0.0777 5.9947,0.0741 5.9947,0.0708 5.9946,0.0676 5.9947,0.0645 5.9947,0.0616 5.9947,0.0588 5.9946,0.0562 5.9947,0.0536"
     id="path3505"
     inkscape:connector-curvature="0" /><path
     style="fill:none;stroke:#ff0000;stroke-width:2.67729998;stroke-linecap:butt;stroke-linejoin:miter;stroke-dasharray:none"
     d="m 47.762211,6.9573419 2.1795,29.5056001 5.9947,59.1093 5.9947,45.019998 5.9947,35.4551 5.9946,28.6552 5.9947,23.6421 5.9947,19.8356 5.9946,16.8742 5.9947,14.5228 5.994699,12.6231 5.9947,11.0653 5.9946,9.7712 5.9947,8.6837 5.9947,7.761 5.9947,6.9709 5.9946,6.289 5.9947,5.6964 5.9947,5.1779 5.9946,4.7219 5.9947,4.3185 5.9947,3.9601 5.9947,3.6402 5.9946,3.3535 5.9947,3.0956 5.9947,2.863 5.9947,2.6524 5.9946,2.4612 5.9947,2.2871 5.9947,2.1283 5.9946,1.983 5.9947,1.8499 5.9947,1.7276 5.9947,1.6151 5.9946,1.5114 5.9947,1.4156 5.9947,1.327 5.9947,1.2451 5.9946,1.169 5.9947,1.0985 5.9947,1.0328 5.9946,0.9717 5.9947,0.9148 5.9947,0.8618 5.9947,0.8122 5.9946,0.766 5.9947,0.7226 5.9947,0.6822 5.9947,0.6441 5.9946,0.6086 5.9947,0.5753 5.9947,0.5439 5.9946,0.5145 5.9947,0.4868 5.9947,0.4608 5.9947,0.4363 5.9946,0.4133 5.9947,0.3916 5.9947,0.3712 5.9947,0.3518 5.9946,0.3337 5.9947,0.3165 5.9947,0.3003 5.9946,0.2849 5.9947,0.2705 5.9947,0.2569 5.9947,0.2439 5.9946,0.2317 5.9947,0.2201 5.9947,0.2092 5.9947,0.1987 5.9946,0.189 5.9947,0.1797 5.9947,0.1709 5.9946,0.1625 5.9947,0.1545 5.9947,0.1471 5.9947,0.14 5.9946,0.1332 5.9947,0.1267 5.9947,0.1207 5.9947,0.1149 5.9946,0.1095 5.9947,0.1042 5.9947,0.0992 5.9946,0.0946 5.9947,0.09 5.9947,0.0859 5.9947,0.0818 5.9946,0.0779 5.9947,0.0743 5.9947,0.0708 5.9947,0.0675 5.9946,0.0644 5.9947,0.0613"
     id="path3509"
     inkscape:connector-curvature="0" /><path
     style="fill:none;stroke:#0000ff;stroke-width:2.23110008;stroke-linecap:butt;stroke-linejoin:miter;stroke-dasharray:none"
     d="m 112.61671,6.9573419 3.2664,29.4484001 5.9947,45.3022 5.9947,38.328998 5.9947,32.6997 5.9946,28.1056 5.9947,24.3197 5.9947,21.172 5.9946,18.5337 5.9947,16.3063 5.9947,14.4128 5.9947,12.7932 5.9946,11.4 5.9947,10.1953 5.9947,9.1481 5.9947,8.234 5.9946,7.4326 5.9947,6.7271 5.9947,6.1038 5.9946,5.5511 5.9947,5.0597 5.9947,4.6212 5.9947,4.2287 5.9946,3.8767 5.9947,3.56 5.9947,3.2744 5.9947,3.0164 5.9946,2.7826 5.9947,2.5705 5.9947,2.3776 5.9946,2.2018 5.9947,2.0415 5.9947,1.8948 5.9947,1.7606 5.9946,1.6374 5.9947,1.5245 5.9947,1.4204 5.9947,1.3248 5.9946,1.2365 5.9947,1.155 5.9947,1.0797 5.9946,1.0101 5.9947,0.9456 5.9947,0.8858 5.9947,0.8303 5.9946,0.7787 5.9947,0.7309 5.9947,0.6862 5.9947,0.6448 5.9946,0.606 5.9947,0.57 5.9947,0.5363 5.9946,0.5049 5.9947,0.4754 5.9947,0.448 5.9947,0.4222 5.9946,0.3982 5.9947,0.3756 5.9947,0.3544 5.9947,0.3346 5.9946,0.3159 5.9947,0.2985 5.9947,0.282 5.9946,0.2666 5.9947,0.2521 5.9947,0.2384 5.9947,0.2256 5.9946,0.2135 5.9947,0.2021 5.9947,0.1913 5.9947,0.1813 5.9946,0.1716 5.9947,0.1627 5.9947,0.1542 5.9946,0.1462 5.9947,0.1386 5.9947,0.1314 5.9947,0.1247 5.9946,0.1183 5.9947,0.1123 5.9947,0.1066 5.9947,0.1011 5.9946,0.0961 5.9947,0.0912"
     id="path3513"
     inkscape:connector-curvature="0" /><path
     style="fill:none;stroke:#000000;stroke-width:2.23110008;stroke-linecap:butt;stroke-linejoin:miter;stroke-dasharray:none"
     d="m 12.486311,423.48884 594.959999,0"
     id="path3517"
     inkscape:connector-curvature="0" /><path
     style="fill:none;stroke:#000000;stroke-width:2.23110008;stroke-linecap:butt;stroke-linejoin:miter;stroke-dasharray:none"
     d="m 12.486311,7.0168419 594.959999,0"
     id="path3519"
     inkscape:connector-curvature="0" /><path
     style="fill:none;stroke:#000000;stroke-width:1.78489995;stroke-linecap:butt;stroke-linejoin:miter;stroke-dasharray:none"
     d="m 86.856311,423.48884 0,-5.9496"
     id="path3523"
     inkscape:connector-curvature="0" /><path
     style="fill:none;stroke:#000000;stroke-width:1.78489995;stroke-linecap:butt;stroke-linejoin:miter;stroke-dasharray:none"
     d="m 86.856311,7.0168419 0,5.9496001"
     id="path3525"
     inkscape:connector-curvature="0" /><path
     style="fill:none;stroke:#000000;stroke-width:1.78489995;stroke-linecap:butt;stroke-linejoin:miter;stroke-dasharray:none"
     d="m 235.59631,423.48884 0,-5.9496"
     id="path3527"
     inkscape:connector-curvature="0" /><path
     style="fill:none;stroke:#000000;stroke-width:1.78489995;stroke-linecap:butt;stroke-linejoin:miter;stroke-dasharray:none"
     d="m 235.59631,7.0168419 0,5.9496001"
     id="path3529"
     inkscape:connector-curvature="0" /><path
     style="fill:none;stroke:#000000;stroke-width:1.78489995;stroke-linecap:butt;stroke-linejoin:miter;stroke-dasharray:none"
     d="m 384.33631,423.48884 0,-5.9496"
     id="path3531"
     inkscape:connector-curvature="0" /><path
     style="fill:none;stroke:#000000;stroke-width:1.78489995;stroke-linecap:butt;stroke-linejoin:miter;stroke-dasharray:none"
     d="m 384.33631,7.0168419 0,5.9496001"
     id="path3533"
     inkscape:connector-curvature="0" /><path
     style="fill:none;stroke:#000000;stroke-width:1.78489995;stroke-linecap:butt;stroke-linejoin:miter;stroke-dasharray:none"
     d="m 533.07631,423.48884 0,-5.9496"
     id="path3535"
     inkscape:connector-curvature="0" /><path
     style="fill:none;stroke:#000000;stroke-width:1.78489995;stroke-linecap:butt;stroke-linejoin:miter;stroke-dasharray:none"
     d="m 533.07631,7.0168419 0,5.9496001"
     id="path3537"
     inkscape:connector-curvature="0" /><path
     style="fill:none;stroke:#000000;stroke-width:1.78489995;stroke-linecap:butt;stroke-linejoin:miter;stroke-dasharray:none"
     d="m 12.486311,423.48884 0,-11.8992"
     id="path3539"
     inkscape:connector-curvature="0" /><path
     style="fill:none;stroke:#000000;stroke-width:1.78489995;stroke-linecap:butt;stroke-linejoin:miter;stroke-dasharray:none"
     d="m 12.486311,7.0168419 0,11.8992001"
     id="path3541"
     inkscape:connector-curvature="0" /><path
     style="fill:none;stroke:#000000;stroke-width:1.78489995;stroke-linecap:butt;stroke-linejoin:miter;stroke-dasharray:none"
     d="m 161.22631,423.48884 0,-11.8992"
     id="path3543"
     inkscape:connector-curvature="0" /><path
     style="fill:none;stroke:#000000;stroke-width:1.78489995;stroke-linecap:butt;stroke-linejoin:miter;stroke-dasharray:none"
     d="m 161.22631,7.0168419 0,11.8992001"
     id="path3545"
     inkscape:connector-curvature="0" /><path
     style="fill:none;stroke:#000000;stroke-width:1.78489995;stroke-linecap:butt;stroke-linejoin:miter;stroke-dasharray:none"
     d="m 309.96631,423.48884 0,-11.8992"
     id="path3547"
     inkscape:connector-curvature="0" /><path
     style="fill:none;stroke:#000000;stroke-width:1.78489995;stroke-linecap:butt;stroke-linejoin:miter;stroke-dasharray:none"
     d="m 309.96631,7.0168419 0,11.8992001"
     id="path3549"
     inkscape:connector-curvature="0" /><path
     style="fill:none;stroke:#000000;stroke-width:1.78489995;stroke-linecap:butt;stroke-linejoin:miter;stroke-dasharray:none"
     d="m 458.70631,423.48884 0,-11.8992"
     id="path3551"
     inkscape:connector-curvature="0" /><path
     style="fill:none;stroke:#000000;stroke-width:1.78489995;stroke-linecap:butt;stroke-linejoin:miter;stroke-dasharray:none"
     d="m 458.70631,7.0168419 0,11.8992001"
     id="path3553"
     inkscape:connector-curvature="0" /><path
     style="fill:none;stroke:#000000;stroke-width:1.78489995;stroke-linecap:butt;stroke-linejoin:miter;stroke-dasharray:none"
     d="m 607.44631,423.48884 0,-11.8992"
     id="path3555"
     inkscape:connector-curvature="0" /><path
     style="fill:none;stroke:#000000;stroke-width:1.78489995;stroke-linecap:butt;stroke-linejoin:miter;stroke-dasharray:none"
     d="m 607.44631,7.0168419 0,11.8992001"
     id="path3557"
     inkscape:connector-curvature="0" /><text
     style="font-size:16.65888023px;font-style:normal;font-weight:normal;fill:#000000;fill-rule:nonzero"
     id="text3561"
     x="3.7262876"
     y="453.51849">$0$</text>
<text
     style="font-size:16.65888023px;font-style:normal;font-weight:normal;fill:#000000;fill-rule:nonzero"
     id="text3563"
     x="153.18629"
     y="453.51849">$1$</text>
<text
     style="font-size:16.65888023px;font-style:normal;font-weight:normal;fill:#000000;fill-rule:nonzero"
     id="text3565"
     x="301.2063"
     y="453.51849">2$$</text>
<text
     style="font-size:16.65888023px;font-style:normal;font-weight:normal;fill:#000000;fill-rule:nonzero"
     id="text3567"
     x="450.3063"
     y="453.51849">$3$</text>
<text
     style="font-size:16.65888023px;font-style:normal;font-weight:normal;fill:#000000;fill-rule:nonzero"
     id="text3569"
     x="598.68622"
     y="453.51849">$4$</text>
<path
     style="fill:none;stroke:#000000;stroke-width:2.23110008;stroke-linecap:butt;stroke-linejoin:miter;stroke-dasharray:none"
     d="m 12.486311,423.48884 0,-416.4719981"
     id="path3573"
     inkscape:connector-curvature="0" /><path
     style="fill:none;stroke:#000000;stroke-width:2.23110008;stroke-linecap:butt;stroke-linejoin:miter;stroke-dasharray:none"
     d="m 607.44631,423.48884 0,-416.4719981"
     id="path3575"
     inkscape:connector-curvature="0" /><path
     style="fill:none;stroke:#000000;stroke-width:1.78489995;stroke-linecap:butt;stroke-linejoin:miter;stroke-dasharray:none"
     d="m 12.486311,423.48884 11.8992,0"
     id="path3579"
     inkscape:connector-curvature="0" /><path
     style="fill:none;stroke:#000000;stroke-width:1.78489995;stroke-linecap:butt;stroke-linejoin:miter;stroke-dasharray:none"
     d="m 607.44631,423.48884 -11.8992,0"
     id="path3581"
     inkscape:connector-curvature="0" /><path
     style="fill:none;stroke:#000000;stroke-width:1.78489995;stroke-linecap:butt;stroke-linejoin:miter;stroke-dasharray:none"
     d="m 12.486311,319.37084 11.8992,0"
     id="path3583"
     inkscape:connector-curvature="0" /><path
     style="fill:none;stroke:#000000;stroke-width:1.78489995;stroke-linecap:butt;stroke-linejoin:miter;stroke-dasharray:none"
     d="m 607.44631,319.37084 -11.8992,0"
     id="path3585"
     inkscape:connector-curvature="0" /><path
     style="fill:none;stroke:#000000;stroke-width:1.78489995;stroke-linecap:butt;stroke-linejoin:miter;stroke-dasharray:none"
     d="m 12.486311,215.25284 11.8992,0"
     id="path3587"
     inkscape:connector-curvature="0" /><path
     style="fill:none;stroke:#000000;stroke-width:1.78489995;stroke-linecap:butt;stroke-linejoin:miter;stroke-dasharray:none"
     d="m 607.44631,215.25284 -11.8992,0"
     id="path3589"
     inkscape:connector-curvature="0" /><path
     style="fill:none;stroke:#000000;stroke-width:1.78489995;stroke-linecap:butt;stroke-linejoin:miter;stroke-dasharray:none"
     d="m 12.486311,111.13484 11.8992,0"
     id="path3591"
     inkscape:connector-curvature="0" /><path
     style="fill:none;stroke:#000000;stroke-width:1.78489995;stroke-linecap:butt;stroke-linejoin:miter;stroke-dasharray:none"
     d="m 607.44631,111.13484 -11.8992,0"
     id="path3593"
     inkscape:connector-curvature="0" /><path
     style="fill:none;stroke:#000000;stroke-width:1.78489995;stroke-linecap:butt;stroke-linejoin:miter;stroke-dasharray:none"
     d="m 12.486311,7.0168419 11.8992,0"
     id="path3595"
     inkscape:connector-curvature="0" /><path
     style="fill:none;stroke:#000000;stroke-width:1.78489995;stroke-linecap:butt;stroke-linejoin:miter;stroke-dasharray:none"
     d="m 607.44631,7.0168419 -11.8992,0"
     id="path3597"
     inkscape:connector-curvature="0" /><text
     style="font-size:16.65888023px;font-style:normal;font-weight:normal;fill:#000000;fill-rule:nonzero"
     id="text3601"
     x="-14.183343"
     y="429.00882">$0$</text>
<text
     style="font-size:16.65888023px;font-style:normal;font-weight:normal;fill:#000000;fill-rule:nonzero"
     id="text3603"
     x="-12.74334"
     y="325.01083">$1$</text>
<text
     style="font-size:16.65888023px;font-style:normal;font-weight:normal;fill:#000000;fill-rule:nonzero"
     id="text3605"
     x="-14.183343"
     y="220.89284">$2$</text>
<text
     style="font-size:16.65888023px;font-style:normal;font-weight:normal;fill:#000000;fill-rule:nonzero"
     id="text3607"
     x="-13.463343"
     y="116.65485">$3$</text>
<text
     style="font-size:16.65888023px;font-style:normal;font-weight:normal;fill:#000000;fill-rule:nonzero"
     id="text3609"
     x="-14.183343"
     y="12.656844">$4$</text>
<path
     style="fill:none;stroke:#000000;stroke-width:0.89240003;stroke-linecap:butt;stroke-linejoin:miter;stroke-dasharray:none"
     d="m 12.486311,423.48884 0,-416.4719981 594.959999,0 0,416.4719981 z"
     id="path3613"
     inkscape:connector-curvature="0" /><flowRoot
     xml:space="preserve"
     id="flowRoot3745"
     style="fill:black;stroke:none;stroke-opacity:1;stroke-width:1px;stroke-linejoin:miter;stroke-linecap:butt;fill-opacity:1;font-family:Nimbus Sans L;font-style:normal;font-weight:normal;font-size:56px;line-height:125%;letter-spacing:0px;word-spacing:0px;-inkscape-font-specification:Sans;font-stretch:normal;font-variant:normal"><flowRegion
       id="flowRegion3747"><rect
         id="rect3749"
         width="866.9046"
         height="81.831703"
         x="-23.015165"
         y="529.6626" /></flowRegion><flowPara
       id="flowPara3751"></flowPara></flowRoot></svg>