<?xml version="1.0" encoding="UTF-8" standalone="no"?>
<!-- generated by Grace-5.1.23 -->

<svg
   xmlns:dc="http://purl.org/dc/elements/1.1/"
   xmlns:cc="http://creativecommons.org/ns#"
   xmlns:rdf="http://www.w3.org/1999/02/22-rdf-syntax-ns#"
   xmlns:svg="http://www.w3.org/2000/svg"
   xmlns="http://www.w3.org/2000/svg"
   xmlns:sodipodi="http://sodipodi.sourceforge.net/DTD/sodipodi-0.dtd"
   xmlns:inkscape="http://www.inkscape.org/namespaces/inkscape"
   xml:space="preserve"
   width="822.00159"
   height="553.95636"
   viewBox="0 0 657.60316 443.16686"
   id="svg2"
   version="1.1"
   inkscape:version="0.48.4 r9939"
   sodipodi:docname="10_Bessel1.svg"><metadata
     id="metadata178"><rdf:RDF><cc:Work
         rdf:about=""><dc:format>image/svg+xml</dc:format><dc:type
           rdf:resource="http://purl.org/dc/dcmitype/StillImage" /></cc:Work></rdf:RDF></metadata><defs
     id="defs176" /><sodipodi:namedview
     pagecolor="#ffffff"
     bordercolor="#666666"
     borderopacity="1"
     objecttolerance="10"
     gridtolerance="10"
     guidetolerance="10"
     inkscape:pageopacity="0"
     inkscape:pageshadow="2"
     inkscape:window-width="1278"
     inkscape:window-height="788"
     id="namedview174"
     showgrid="false"
     inkscape:zoom="0.78209299"
     inkscape:cx="407.75108"
     inkscape:cy="333.68472"
     inkscape:window-x="305"
     inkscape:window-y="43"
     inkscape:window-maximized="0"
     inkscape:current-layer="svg2"
     fit-margin-top="0"
     fit-margin-left="0"
     fit-margin-right="0"
     fit-margin-bottom="0" /><path
     style="fill:none;stroke:#000000;stroke-width:2.67729998;stroke-linecap:butt;stroke-linejoin:miter;stroke-dasharray:none"
     d="m 29.766309,7.0168419 6.0097,0.7078 6.0097,2.1178 6.0097,3.5118001 6.0097,4.8789 6.0097,6.2088 6.0097,7.4912 6.0097,8.7168 6.0097,9.8759 6.0097,10.9604 6.0097,11.9617 6.0097,12.873 6.009701,13.687398 6.0097,14.3993 6.0097,15.0038 6.0097,15.497 6.0097,15.8757 6.0096,16.1379 6.0097,16.2825 6.0097,16.3093 6.0097,16.2192 6.0097,16.014 6.0097,15.6963 6.0097,15.2698 6.0097,14.739 6.0097,14.1095 6.0097,13.3871 6.0097,12.5789 6.0097,11.6924 6.0097,10.7355 6.0097,9.7171 6.0097,8.6463 6.0097,7.5325 6.0097,6.3852 6.0097,5.2148 6.0097,4.0308 6.0097,2.8436 6.0097,1.663 6.0097,0.4988 6.0097,-0.6393 6.0097,-1.7423 6.0097,-2.8013 6.0097,-3.8078 6.0097,-4.7542 6.0097,-5.6334 6.0097,-6.4386 6.0097,-7.1642 6.0097,-7.8053 6.0097,-8.3576 6.0096,-8.8176 6.0098,-9.183 6.0096,-9.4521 6.0097,-9.6243 6.0097,-9.6994 6.0097,-9.6787 6.0097,-9.564 6.0097,-9.3579 6.0097,-9.0639 6.0097,-8.6864 6.0097,-8.2301 6.0097,-7.7008 6.0097,-7.1046 6.0097,-6.4483 6.0097,-5.739 6.0097,-4.9844 6.0097,-4.1923 6.0097,-3.3712 6.0097,-2.529 6.0097,-1.6745 6.0097,-0.8159 6.0097,0.0383 6.0097,0.8799 6.0097,1.701 6.0097,2.4937 6.0097,3.2509 6.0097,3.9653 6.0097,4.631 6.0097,5.2417 6.0097,5.7923 6.0097,6.2781 6.0097,6.6951 6.0097,7.0403 6.0097,7.3108 6.0096,7.5051 6.0097,7.6221 6.0097,7.6616 6.0097,7.6239 6.0097,7.5106 6.0097,7.3233 6.0097,7.0649 6.0097,6.7387 6.0097,6.3487 6.0097,5.8993 6.0097,5.3956 6.0097,4.8434 6.0097,4.2485 6.0097,3.6171 6.0097,2.9562 6.0097,2.2722 6.0097,1.5726"
     id="path12"
     inkscape:connector-curvature="0" /><path
     style="fill:none;stroke:#ff0000;stroke-width:2.67729998;stroke-linecap:butt;stroke-linejoin:miter;stroke-dasharray:none"
     d="m 29.766309,284.66484 6.0097,-14.0047 6.0097,-13.8977 6.0097,-13.6845 6.0097,-13.3668 6.0097,-12.9475 6.0097,-12.4302 6.0097,-11.8192 6.0097,-11.1195 6.0097,-10.3373 6.0097,-9.479 6.0097,-8.5521 6.009701,-7.5642 6.0097,-6.5236 6.0097,-5.4392 6.0097,-4.32 6.0097,-3.1753 6.0096,-2.0148 6.0097,-0.848 6.0097,0.3155 6.0097,1.4659 6.0097,2.5939 6.0097,3.6903 6.0097,4.7462 6.0097,5.753 6.0097,6.703 6.0097,7.5883 6.0097,8.4023 6.0097,9.1386 6.0097,9.7917 6.0097,10.3569 6.0097,10.8301 6.0097,11.2084 6.0097,11.4891 6.0097,11.6711 6.0097,11.7536 6.0097,11.7371 6.0097,11.6226 6.0097,11.4121 6.0097,11.1086 6.0097,10.7156 6.0097,10.2377 6.0097,9.6797 6.0097,9.0475 6.0097,8.3477 6.0097,7.587 6.0097,6.7728 6.0097,5.913 6.0097,5.0158 6.0096,4.0895 6.0098,3.1428 6.0096,2.1845 6.0097,1.223 6.0097,0.2673 6.0097,-0.6741 6.0097,-1.5932 6.0097,-2.4814 6.0097,-3.3316 6.0097,-4.1361 6.0097,-4.8884 6.0097,-5.5821 6.0097,-6.2116 6.0097,-6.7721 6.0097,-7.259 6.0097,-7.669 6.0097,-7.9991 6.0097,-8.2474 6.0097,-8.4125 6.0097,-8.4939 6.0097,-8.492 6.0097,-8.4079 6.0097,-8.2432 6.0097,-8.0007 6.0097,-7.6835 6.0097,-7.2958 6.0097,-6.8418 6.0097,-6.3269 6.0097,-5.7567 6.0097,-5.1373 6.0097,-4.4753 6.0097,-3.7774 6.0097,-3.0511 6.0097,-2.3034 6.0096,-1.5419 6.0097,-0.7741 6.0097,-0.008 6.0097,0.7501 6.0097,1.492 6.0097,2.2108 6.0097,2.8997 6.0097,3.5526 6.0097,4.1632 6.0097,4.726 6.0097,5.2361 6.0097,5.689 6.0097,6.0807 6.0097,6.4082 6.0097,6.6687 6.0097,6.8603 6.0097,6.982"
     id="path16"
     inkscape:connector-curvature="0" /><path
     style="fill:none;stroke:#0000ff;stroke-width:2.67729998;stroke-linecap:butt;stroke-linejoin:miter;stroke-dasharray:none"
     d="m 29.766309,284.66484 6.0097,-0.3538 6.0097,-1.0578 6.0097,-1.751 6.0097,-2.4264 6.0097,-3.077 6.0097,-3.6961 6.0097,-4.2774 6.0097,-4.815 6.0097,-5.3031 6.0097,-5.7367 6.0097,-6.1111 6.009701,-6.4225 6.0097,-6.6673 6.0097,-6.8426 6.0097,-6.9466 6.0097,-6.9777 6.0096,-6.9349 6.0097,-6.8186 6.0097,-6.6292 6.0097,-6.3682 6.0097,-6.0376 6.0097,-5.6401 6.0097,-5.179 6.0097,-4.6586 6.0097,-4.0831 6.0097,-3.4578 6.0097,-2.7881 6.0097,-2.0803 6.0097,-1.3404 6.0097,-0.5753 6.0097,0.208 6.0097,1.0024 6.0097,1.8008 6.0097,2.5958 6.0097,3.3801 6.0097,4.1465 6.0097,4.8879 6.0097,5.5977 6.0097,6.2691 6.0097,6.8961 6.0097,7.4728 6.0097,7.9939 6.0097,8.4545 6.0097,8.8505 6.0097,9.178 6.0097,9.4341 6.0097,9.6164 6.0097,9.7231 6.0096,9.7531 6.0098,9.7062 6.0096,9.5828 6.0097,9.3837 6.0097,9.1109 6.0097,8.7668 6.0097,8.3544 6.0097,7.8775 6.0097,7.3401 6.0097,6.7474 6.0097,6.1044 6.0097,5.417 6.0097,4.6913 6.0097,3.9339 6.0097,3.1513 6.0097,2.3508 6.0097,1.5393 6.0097,0.7239 6.0097,-0.0879 6.0097,-0.8892 6.0097,-1.673 6.0097,-2.4322 6.0097,-3.1606 6.0097,-3.8515 6.0097,-4.4993 6.0097,-5.0985 6.0097,-5.6439 6.0097,-6.1312 6.0097,-6.5563 6.0097,-6.916 6.0097,-7.2074 6.0097,-7.4285 6.0097,-7.578 6.0097,-7.6548 6.0096,-7.6592 6.0097,-7.5916 6.0097,-7.4532 6.0097,-7.2459 6.0097,-6.9724 6.0097,-6.6357 6.0097,-6.2395 6.0097,-5.788 6.0097,-5.2859 6.0097,-4.7386 6.0097,-4.1513 6.0097,-3.5301 6.0097,-2.8812 6.0097,-2.2108 6.0097,-1.5256 6.0097,-0.8322 6.0097,-0.1373"
     id="path20"
     inkscape:connector-curvature="0" /><path
     style="fill:none;stroke:#000000;stroke-width:2.23110008;stroke-linecap:butt;stroke-linejoin:miter;stroke-dasharray:none"
     d="m 29.766309,423.48884 594.960001,0"
     id="path24"
     inkscape:connector-curvature="0" /><path
     style="fill:none;stroke:#000000;stroke-width:2.23110008;stroke-linecap:butt;stroke-linejoin:miter;stroke-dasharray:none"
     d="m 29.766309,7.0168419 594.960001,0"
     id="path26"
     inkscape:connector-curvature="0" /><path
     style="fill:none;stroke:#000000;stroke-width:1.78489995;stroke-linecap:butt;stroke-linejoin:miter;stroke-dasharray:none"
     d="m 89.262309,423.48884 0,-5.9496"
     id="path30"
     inkscape:connector-curvature="0" /><path
     style="fill:none;stroke:#000000;stroke-width:1.78489995;stroke-linecap:butt;stroke-linejoin:miter;stroke-dasharray:none"
     d="m 89.262309,7.0168419 0,5.9496001"
     id="path32"
     inkscape:connector-curvature="0" /><path
     style="fill:none;stroke:#000000;stroke-width:1.78489995;stroke-linecap:butt;stroke-linejoin:miter;stroke-dasharray:none"
     d="m 208.25431,423.48884 0,-5.9496"
     id="path34"
     inkscape:connector-curvature="0" /><path
     style="fill:none;stroke:#000000;stroke-width:1.78489995;stroke-linecap:butt;stroke-linejoin:miter;stroke-dasharray:none"
     d="m 208.25431,7.0168419 0,5.9496001"
     id="path36"
     inkscape:connector-curvature="0" /><path
     style="fill:none;stroke:#000000;stroke-width:1.78489995;stroke-linecap:butt;stroke-linejoin:miter;stroke-dasharray:none"
     d="m 327.24631,423.48884 0,-5.9496"
     id="path38"
     inkscape:connector-curvature="0" /><path
     style="fill:none;stroke:#000000;stroke-width:1.78489995;stroke-linecap:butt;stroke-linejoin:miter;stroke-dasharray:none"
     d="m 327.24631,7.0168419 0,5.9496001"
     id="path40"
     inkscape:connector-curvature="0" /><path
     style="fill:none;stroke:#000000;stroke-width:1.78489995;stroke-linecap:butt;stroke-linejoin:miter;stroke-dasharray:none"
     d="m 446.23831,423.48884 0,-5.9496"
     id="path42"
     inkscape:connector-curvature="0" /><path
     style="fill:none;stroke:#000000;stroke-width:1.78489995;stroke-linecap:butt;stroke-linejoin:miter;stroke-dasharray:none"
     d="m 446.23831,7.0168419 0,5.9496001"
     id="path44"
     inkscape:connector-curvature="0" /><path
     style="fill:none;stroke:#000000;stroke-width:1.78489995;stroke-linecap:butt;stroke-linejoin:miter;stroke-dasharray:none"
     d="m 565.23031,423.48884 0,-5.9496"
     id="path46"
     inkscape:connector-curvature="0" /><path
     style="fill:none;stroke:#000000;stroke-width:1.78489995;stroke-linecap:butt;stroke-linejoin:miter;stroke-dasharray:none"
     d="m 565.23031,7.0168419 0,5.9496001"
     id="path48"
     inkscape:connector-curvature="0" /><path
     style="fill:none;stroke:#000000;stroke-width:1.78489995;stroke-linecap:butt;stroke-linejoin:miter;stroke-dasharray:none"
     d="m 29.766309,423.48884 0,-11.8992"
     id="path50"
     inkscape:connector-curvature="0" /><path
     style="fill:none;stroke:#000000;stroke-width:1.78489995;stroke-linecap:butt;stroke-linejoin:miter;stroke-dasharray:none"
     d="m 29.766309,7.0168419 0,11.8992001"
     id="path52"
     inkscape:connector-curvature="0" /><path
     style="fill:none;stroke:#000000;stroke-width:1.78489995;stroke-linecap:butt;stroke-linejoin:miter;stroke-dasharray:none"
     d="m 148.75831,423.48884 0,-11.8992"
     id="path54"
     inkscape:connector-curvature="0" /><path
     style="fill:none;stroke:#000000;stroke-width:1.78489995;stroke-linecap:butt;stroke-linejoin:miter;stroke-dasharray:none"
     d="m 148.75831,7.0168419 0,11.8992001"
     id="path56"
     inkscape:connector-curvature="0" /><path
     style="fill:none;stroke:#000000;stroke-width:1.78489995;stroke-linecap:butt;stroke-linejoin:miter;stroke-dasharray:none"
     d="m 267.75031,423.48884 0,-11.8992"
     id="path58"
     inkscape:connector-curvature="0" /><path
     style="fill:none;stroke:#000000;stroke-width:1.78489995;stroke-linecap:butt;stroke-linejoin:miter;stroke-dasharray:none"
     d="m 267.75031,7.0168419 0,11.8992001"
     id="path60"
     inkscape:connector-curvature="0" /><path
     style="fill:none;stroke:#000000;stroke-width:1.78489995;stroke-linecap:butt;stroke-linejoin:miter;stroke-dasharray:none"
     d="m 386.74231,423.48884 0,-11.8992"
     id="path62"
     inkscape:connector-curvature="0" /><path
     style="fill:none;stroke:#000000;stroke-width:1.78489995;stroke-linecap:butt;stroke-linejoin:miter;stroke-dasharray:none"
     d="m 386.74231,7.0168419 0,11.8992001"
     id="path64"
     inkscape:connector-curvature="0" /><path
     style="fill:none;stroke:#000000;stroke-width:1.78489995;stroke-linecap:butt;stroke-linejoin:miter;stroke-dasharray:none"
     d="m 505.73431,423.48884 0,-11.8992"
     id="path66"
     inkscape:connector-curvature="0" /><path
     style="fill:none;stroke:#000000;stroke-width:1.78489995;stroke-linecap:butt;stroke-linejoin:miter;stroke-dasharray:none"
     d="m 505.73431,7.0168419 0,11.8992001"
     id="path68"
     inkscape:connector-curvature="0" /><path
     style="fill:none;stroke:#000000;stroke-width:1.78489995;stroke-linecap:butt;stroke-linejoin:miter;stroke-dasharray:none"
     d="m 624.72631,423.48884 0,-11.8992"
     id="path70"
     inkscape:connector-curvature="0" /><path
     style="fill:none;stroke:#000000;stroke-width:1.78489995;stroke-linecap:butt;stroke-linejoin:miter;stroke-dasharray:none"
     d="m 624.72631,7.0168419 0,11.8992001"
     id="path72"
     inkscape:connector-curvature="0" /><text
     style="font-size:16.65888023px;font-style:normal;font-weight:normal;fill:#000000;fill-rule:nonzero"
     id="text76"
     x="25.806305"
     y="440.71844">$0$</text>
<text
     style="font-size:16.65888023px;font-style:normal;font-weight:normal;fill:#000000;fill-rule:nonzero"
     id="text78"
     x="144.79831"
     y="440.71844">$2$</text>
<text
     style="font-size:16.65888023px;font-style:normal;font-weight:normal;fill:#000000;fill-rule:nonzero"
     id="text80"
     x="263.79031"
     y="440.71844">$4$</text>
<text
     style="font-size:16.65888023px;font-style:normal;font-weight:normal;fill:#000000;fill-rule:nonzero"
     id="text82"
     x="382.90231"
     y="440.71844">$6$</text>
<text
     style="font-size:16.65888023px;font-style:normal;font-weight:normal;fill:#000000;fill-rule:nonzero"
     id="text84"
     x="502.01431"
     y="440.71844">$8$</text>
<text
     style="font-size:16.65888023px;font-style:normal;font-weight:normal;fill:#000000;fill-rule:nonzero"
     id="text86"
     x="616.56635"
     y="440.71844">$10$</text>
<path
     style="fill:none;stroke:#000000;stroke-width:2.23110008;stroke-linecap:butt;stroke-linejoin:miter;stroke-dasharray:none"
     d="m 29.766309,423.48884 0,-416.4719981"
     id="path90"
     inkscape:connector-curvature="0" /><path
     style="fill:none;stroke:#000000;stroke-width:2.23110008;stroke-linecap:butt;stroke-linejoin:miter;stroke-dasharray:none"
     d="m 624.72631,423.48884 0,-416.4719981"
     id="path92"
     inkscape:connector-curvature="0" /><path
     style="fill:none;stroke:#000000;stroke-width:1.78489995;stroke-linecap:butt;stroke-linejoin:miter;stroke-dasharray:none"
     d="m 29.766309,395.72404 5.9496,0"
     id="path96"
     inkscape:connector-curvature="0" /><path
     style="fill:none;stroke:#000000;stroke-width:1.78489995;stroke-linecap:butt;stroke-linejoin:miter;stroke-dasharray:none"
     d="m 624.72631,395.72404 -5.9496,0"
     id="path98"
     inkscape:connector-curvature="0" /><path
     style="fill:none;stroke:#000000;stroke-width:1.78489995;stroke-linecap:butt;stroke-linejoin:miter;stroke-dasharray:none"
     d="m 29.766309,367.95924 5.9496,0"
     id="path100"
     inkscape:connector-curvature="0" /><path
     style="fill:none;stroke:#000000;stroke-width:1.78489995;stroke-linecap:butt;stroke-linejoin:miter;stroke-dasharray:none"
     d="m 624.72631,367.95924 -5.9496,0"
     id="path102"
     inkscape:connector-curvature="0" /><path
     style="fill:none;stroke:#000000;stroke-width:1.78489995;stroke-linecap:butt;stroke-linejoin:miter;stroke-dasharray:none"
     d="m 29.766309,340.19444 5.9496,0"
     id="path104"
     inkscape:connector-curvature="0" /><path
     style="fill:none;stroke:#000000;stroke-width:1.78489995;stroke-linecap:butt;stroke-linejoin:miter;stroke-dasharray:none"
     d="m 624.72631,340.19444 -5.9496,0"
     id="path106"
     inkscape:connector-curvature="0" /><path
     style="fill:none;stroke:#000000;stroke-width:1.78489995;stroke-linecap:butt;stroke-linejoin:miter;stroke-dasharray:none"
     d="m 29.766309,312.42964 5.9496,0"
     id="path108"
     inkscape:connector-curvature="0" /><path
     style="fill:none;stroke:#000000;stroke-width:1.78489995;stroke-linecap:butt;stroke-linejoin:miter;stroke-dasharray:none"
     d="m 624.72631,312.42964 -5.9496,0"
     id="path110"
     inkscape:connector-curvature="0" /><path
     style="fill:none;stroke:#000000;stroke-width:1.78489995;stroke-linecap:butt;stroke-linejoin:miter;stroke-dasharray:none"
     d="m 29.766309,256.90004 5.9496,0"
     id="path112"
     inkscape:connector-curvature="0" /><path
     style="fill:none;stroke:#000000;stroke-width:1.78489995;stroke-linecap:butt;stroke-linejoin:miter;stroke-dasharray:none"
     d="m 624.72631,256.90004 -5.9496,0"
     id="path114"
     inkscape:connector-curvature="0" /><path
     style="fill:none;stroke:#000000;stroke-width:1.78489995;stroke-linecap:butt;stroke-linejoin:miter;stroke-dasharray:none"
     d="m 29.766309,229.13524 5.9496,0"
     id="path116"
     inkscape:connector-curvature="0" /><path
     style="fill:none;stroke:#000000;stroke-width:1.78489995;stroke-linecap:butt;stroke-linejoin:miter;stroke-dasharray:none"
     d="m 624.72631,229.13524 -5.9496,0"
     id="path118"
     inkscape:connector-curvature="0" /><path
     style="fill:none;stroke:#000000;stroke-width:1.78489995;stroke-linecap:butt;stroke-linejoin:miter;stroke-dasharray:none"
     d="m 29.766309,201.37044 5.9496,0"
     id="path120"
     inkscape:connector-curvature="0" /><path
     style="fill:none;stroke:#000000;stroke-width:1.78489995;stroke-linecap:butt;stroke-linejoin:miter;stroke-dasharray:none"
     d="m 624.72631,201.37044 -5.9496,0"
     id="path122"
     inkscape:connector-curvature="0" /><path
     style="fill:none;stroke:#000000;stroke-width:1.78489995;stroke-linecap:butt;stroke-linejoin:miter;stroke-dasharray:none"
     d="m 29.766309,173.60564 5.9496,0"
     id="path124"
     inkscape:connector-curvature="0" /><path
     style="fill:none;stroke:#000000;stroke-width:1.78489995;stroke-linecap:butt;stroke-linejoin:miter;stroke-dasharray:none"
     d="m 624.72631,173.60564 -5.9496,0"
     id="path126"
     inkscape:connector-curvature="0" /><path
     style="fill:none;stroke:#000000;stroke-width:1.78489995;stroke-linecap:butt;stroke-linejoin:miter;stroke-dasharray:none"
     d="m 29.766309,118.07604 5.9496,0"
     id="path128"
     inkscape:connector-curvature="0" /><path
     style="fill:none;stroke:#000000;stroke-width:1.78489995;stroke-linecap:butt;stroke-linejoin:miter;stroke-dasharray:none"
     d="m 624.72631,118.07604 -5.9496,0"
     id="path130"
     inkscape:connector-curvature="0" /><path
     style="fill:none;stroke:#000000;stroke-width:1.78489995;stroke-linecap:butt;stroke-linejoin:miter;stroke-dasharray:none"
     d="m 29.766309,90.311242 5.9496,0"
     id="path132"
     inkscape:connector-curvature="0" /><path
     style="fill:none;stroke:#000000;stroke-width:1.78489995;stroke-linecap:butt;stroke-linejoin:miter;stroke-dasharray:none"
     d="m 624.72631,90.311242 -5.9496,0"
     id="path134"
     inkscape:connector-curvature="0" /><path
     style="fill:none;stroke:#000000;stroke-width:1.78489995;stroke-linecap:butt;stroke-linejoin:miter;stroke-dasharray:none"
     d="m 29.766309,62.546442 5.9496,0"
     id="path136"
     inkscape:connector-curvature="0" /><path
     style="fill:none;stroke:#000000;stroke-width:1.78489995;stroke-linecap:butt;stroke-linejoin:miter;stroke-dasharray:none"
     d="m 624.72631,62.546442 -5.9496,0"
     id="path138"
     inkscape:connector-curvature="0" /><path
     style="fill:none;stroke:#000000;stroke-width:1.78489995;stroke-linecap:butt;stroke-linejoin:miter;stroke-dasharray:none"
     d="m 29.766309,34.781642 5.9496,0"
     id="path140"
     inkscape:connector-curvature="0" /><path
     style="fill:none;stroke:#000000;stroke-width:1.78489995;stroke-linecap:butt;stroke-linejoin:miter;stroke-dasharray:none"
     d="m 624.72631,34.781642 -5.9496,0"
     id="path142"
     inkscape:connector-curvature="0" /><path
     style="fill:none;stroke:#000000;stroke-width:1.78489995;stroke-linecap:butt;stroke-linejoin:miter;stroke-dasharray:none"
     d="m 29.766309,423.48884 11.8992,0"
     id="path144"
     inkscape:connector-curvature="0" /><path
     style="fill:none;stroke:#000000;stroke-width:1.78489995;stroke-linecap:butt;stroke-linejoin:miter;stroke-dasharray:none"
     d="m 624.72631,423.48884 -11.8992,0"
     id="path146"
     inkscape:connector-curvature="0" /><path
     style="fill:none;stroke:#000000;stroke-width:1.78489995;stroke-linecap:butt;stroke-linejoin:miter;stroke-dasharray:none"
     d="m 29.766309,284.66484 11.8992,0"
     id="path148"
     inkscape:connector-curvature="0" /><path
     style="fill:none;stroke:#000000;stroke-width:1.78489995;stroke-linecap:butt;stroke-linejoin:miter;stroke-dasharray:none"
     d="m 624.72631,284.66484 -11.8992,0"
     id="path150"
     inkscape:connector-curvature="0" /><path
     style="fill:none;stroke:#000000;stroke-width:1.78489995;stroke-linecap:butt;stroke-linejoin:miter;stroke-dasharray:none"
     d="m 29.766309,145.84084 11.8992,0"
     id="path152"
     inkscape:connector-curvature="0" /><path
     style="fill:none;stroke:#000000;stroke-width:1.78489995;stroke-linecap:butt;stroke-linejoin:miter;stroke-dasharray:none"
     d="m 624.72631,145.84084 -11.8992,0"
     id="path154"
     inkscape:connector-curvature="0" /><path
     style="fill:none;stroke:#000000;stroke-width:1.78489995;stroke-linecap:butt;stroke-linejoin:miter;stroke-dasharray:none"
     d="m 29.766309,7.0168419 11.8992,0"
     id="path156"
     inkscape:connector-curvature="0" /><path
     style="fill:none;stroke:#000000;stroke-width:1.78489995;stroke-linecap:butt;stroke-linejoin:miter;stroke-dasharray:none"
     d="m 624.72631,7.0168419 -11.8992,0"
     id="path158"
     inkscape:connector-curvature="0" /><text
     style="font-size:16.65888023px;font-style:normal;font-weight:normal;fill:#000000;fill-rule:nonzero"
     id="text162"
     x="-1.3832922"
     y="428.04883">$-0,5$</text>
<text
     style="font-size:16.65888023px;font-style:normal;font-weight:normal;fill:#000000;fill-rule:nonzero"
     id="text164"
     x="15.896707"
     y="290.18481">$0$</text>
<text
     style="font-size:16.65888023px;font-style:normal;font-weight:normal;fill:#000000;fill-rule:nonzero"
     id="text166"
     x="4.1367083"
     y="150.40085">$0,5$</text>
<text
     style="font-size:16.65888023px;font-style:normal;font-weight:normal;fill:#000000;fill-rule:nonzero"
     id="text168"
     x="17.336708"
     y="12.656844">$1$</text>
<path
     style="fill:none;stroke:#000000;stroke-width:0.89240003;stroke-linecap:butt;stroke-linejoin:miter;stroke-dasharray:none"
     d="m 29.766309,423.48884 0,-416.4719981 594.960001,0 0,416.4719981 z"
     id="path172"
     inkscape:connector-curvature="0" /></svg>