<?xml version="1.0" encoding="UTF-8" standalone="no"?>
<!-- generated by Grace-5.1.23 -->

<svg
   xmlns:dc="http://purl.org/dc/elements/1.1/"
   xmlns:cc="http://creativecommons.org/ns#"
   xmlns:rdf="http://www.w3.org/1999/02/22-rdf-syntax-ns#"
   xmlns:svg="http://www.w3.org/2000/svg"
   xmlns="http://www.w3.org/2000/svg"
   xmlns:sodipodi="http://sodipodi.sourceforge.net/DTD/sodipodi-0.dtd"
   xmlns:inkscape="http://www.inkscape.org/namespaces/inkscape"
   xml:space="preserve"
   width="1641.8428"
   height="553.9563"
   viewBox="0 0 1313.478 443.16681"
   id="svg2"
   version="1.1"
   inkscape:version="0.91 r13725"
   sodipodi:docname="10_Bessel1.svg"><metadata
     id="metadata178"><rdf:RDF><cc:Work
         rdf:about=""><dc:format>image/svg+xml</dc:format><dc:type
           rdf:resource="http://purl.org/dc/dcmitype/StillImage" /><dc:title></dc:title></cc:Work></rdf:RDF></metadata><defs
     id="defs176" /><sodipodi:namedview
     pagecolor="#ffffff"
     bordercolor="#666666"
     borderopacity="1"
     objecttolerance="10"
     gridtolerance="10"
     guidetolerance="10"
     inkscape:pageopacity="0"
     inkscape:pageshadow="2"
     inkscape:window-width="1216"
     inkscape:window-height="833"
     id="namedview174"
     showgrid="false"
     inkscape:zoom="0.3910465"
     inkscape:cx="772.85126"
     inkscape:cy="246.79556"
     inkscape:window-x="678"
     inkscape:window-y="56"
     inkscape:window-maximized="0"
     inkscape:current-layer="svg2"
     fit-margin-top="0"
     fit-margin-left="0"
     fit-margin-right="0"
     fit-margin-bottom="0" /><path
     style="fill:none;stroke:#000000;stroke-width:2.6800108;stroke-linecap:butt;stroke-linejoin:miter;stroke-miterlimit:4;stroke-dasharray:none"
     d="m 38.032214,4.4653696 6.0097,0.7078 6.0097,2.1178 6.0097,3.5118004 6.0097,4.8789 6.0097,6.2088 6.0097,7.4912 6.0097,8.7168 6.0097,9.8759 6.0097,10.9604 6.0097,11.9617 6.009696,12.873 6.00971,13.687398 6.0097,14.399302 6.0097,15.0038 6.0097,15.497 6.0097,15.8757 6.0096,16.1379 6.0097,16.2825 6.0097,16.3093 6.0097,16.2192 6.0097,16.014 6.0097,15.6963 6.0097,15.2698 6.0097,14.739 6.0097,14.1095 6.0097,13.3871 6.0097,12.5789 6.0097,11.6924 6.0097,10.7355 6.0097,9.7171 6.0097,8.6463 6.0097,7.5325 6.0097,6.3852 6.0097,5.2148 6.0097,4.0308 6.0097,2.8436 6.0097,1.663 6.0097,0.4988 6.0097,-0.6393 6.0097,-1.7423 6.0097,-2.8013 6.0097,-3.8078 6.0097,-4.7542 6.0097,-5.6334 6.0097,-6.4386 6.0097,-7.1642 6.0097,-7.8053 6.0097,-8.3576 6.0096,-8.8176 6.0098,-9.183 6.0096,-9.4521 6.0097,-9.6243 6.0097,-9.6994 6.0097,-9.6787 6.0097,-9.564 6.0097,-9.3579 6.0097,-9.0639 6.0097,-8.6864 6.0097,-8.2301 6.0097,-7.7008 6.0097,-7.1046 6.0097,-6.4483 6.0097,-5.739 6.0097,-4.9844 6.0097,-4.1923 6.0097,-3.3712 6.0097,-2.529 6.0097,-1.6745 6.0097,-0.8159 6.0097,0.0383 6.0097,0.8799 6.0097,1.701 6.0097,2.4937 6.0097,3.2509 6.0097,3.9653 6.0097,4.631 6.0097,5.2417 6.0097,5.7923 6.0097,6.2781 6.0097,6.6951 6.0097,7.0403 6.0097,7.3108 6.0096,7.5051 6.0097,7.6221 6.0097,7.6616 6.0097,7.6239 6.0097,7.5106 6.0097,7.3233 6.0097,7.0649 6.0097,6.7387 6.0097,6.3487 6.0097,5.8993 6.0097,5.3956 6.0097,4.8434 6.0097,4.2485 6.0097,3.6171 6.0097,2.9562 6.0097,2.2722 6.0097,1.5726"
     id="path12"
     inkscape:connector-curvature="0" /><path
     style="fill:none;stroke:#d40000;stroke-width:2.6800108;stroke-linecap:butt;stroke-linejoin:miter;stroke-miterlimit:4;stroke-dasharray:none;stroke-opacity:1"
     d="m 38.032214,282.11337 6.0097,-14.0047 6.0097,-13.8977 6.0097,-13.6845 6.0097,-13.3668 6.0097,-12.9475 6.0097,-12.4302 6.0097,-11.8192 6.0097,-11.1195 6.0097,-10.3373 6.0097,-9.479 6.009696,-8.5521 6.00971,-7.5642 6.0097,-6.5236 6.0097,-5.4392 6.0097,-4.32 6.0097,-3.1753 6.0096,-2.0148 6.0097,-0.848 6.0097,0.3155 6.0097,1.4659 6.0097,2.5939 6.0097,3.6903 6.0097,4.7462 6.0097,5.753 6.0097,6.703 6.0097,7.5883 6.0097,8.4023 6.0097,9.1386 6.0097,9.7917 6.0097,10.3569 6.0097,10.8301 6.0097,11.2084 6.0097,11.4891 6.0097,11.6711 6.0097,11.7536 6.0097,11.7371 6.0097,11.6226 6.0097,11.4121 6.0097,11.1086 6.0097,10.7156 6.0097,10.2377 6.0097,9.6797 6.0097,9.0475 6.0097,8.3477 6.0097,7.587 6.0097,6.7728 6.0097,5.913 6.0097,5.0158 6.0096,4.0895 6.0098,3.1428 6.0096,2.1845 6.0097,1.223 6.0097,0.2673 6.0097,-0.6741 6.0097,-1.5932 6.0097,-2.4814 6.0097,-3.3316 6.0097,-4.1361 6.0097,-4.8884 6.0097,-5.5821 6.0097,-6.2116 6.0097,-6.7721 6.0097,-7.259 6.0097,-7.669 6.0097,-7.9991 6.0097,-8.2474 6.0097,-8.4125 6.0097,-8.4939 6.0097,-8.492 6.0097,-8.4079 6.0097,-8.2432 6.0097,-8.0007 6.0097,-7.6835 6.0097,-7.2958 6.0097,-6.8418 6.0097,-6.3269 6.0097,-5.7567 6.0097,-5.1373 6.0097,-4.4753 6.0097,-3.7774 6.0097,-3.0511 6.0097,-2.3034 6.0096,-1.5419 6.0097,-0.7741 6.0097,-0.008 6.0097,0.7501 6.0097,1.492 6.0097,2.2108 6.0097,2.8997 6.0097,3.5526 6.0097,4.1632 6.0097,4.726 6.0097,5.2361 6.0097,5.689 6.0097,6.0807 6.0097,6.4082 6.0097,6.6687 6.0097,6.8603 6.0097,6.982"
     id="path16"
     inkscape:connector-curvature="0" /><path
     style="fill:none;stroke:#0000d4;stroke-width:2.6800108;stroke-linecap:butt;stroke-linejoin:miter;stroke-miterlimit:4;stroke-dasharray:none;stroke-opacity:1"
     d="m 38.032214,282.11337 6.0097,-0.3538 6.0097,-1.0578 6.0097,-1.751 6.0097,-2.4264 6.0097,-3.077 6.0097,-3.6961 6.0097,-4.2774 6.0097,-4.815 6.0097,-5.3031 6.0097,-5.7367 6.009696,-6.1111 6.00971,-6.4225 6.0097,-6.6673 6.0097,-6.8426 6.0097,-6.9466 6.0097,-6.9777 6.0096,-6.9349 6.0097,-6.8186 6.0097,-6.6292 6.0097,-6.3682 6.0097,-6.0376 6.0097,-5.6401 6.0097,-5.179 6.0097,-4.6586 6.0097,-4.0831 6.0097,-3.4578 6.0097,-2.7881 6.0097,-2.0803 6.0097,-1.3404 6.0097,-0.5753 6.0097,0.208 6.0097,1.0024 6.0097,1.8008 6.0097,2.5958 6.0097,3.3801 6.0097,4.1465 6.0097,4.8879 6.0097,5.5977 6.0097,6.2691 6.0097,6.8961 6.0097,7.4728 6.0097,7.9939 6.0097,8.4545 6.0097,8.8505 6.0097,9.178 6.0097,9.4341 6.0097,9.6164 6.0097,9.7231 6.0096,9.7531 6.0098,9.7062 6.0096,9.5828 6.0097,9.3837 6.0097,9.1109 6.0097,8.7668 6.0097,8.3544 6.0097,7.8775 6.0097,7.3401 6.0097,6.7474 6.0097,6.1044 6.0097,5.417 6.0097,4.6913 6.0097,3.9339 6.0097,3.1513 6.0097,2.3508 6.0097,1.5393 6.0097,0.7239 6.0097,-0.0879 6.0097,-0.8892 6.0097,-1.673 6.0097,-2.4322 6.0097,-3.1606 6.0097,-3.8515 6.0097,-4.4993 6.0097,-5.0985 6.0097,-5.6439 6.0097,-6.1312 6.0097,-6.5563 6.0097,-6.916 6.0097,-7.2074 6.0097,-7.4285 6.0097,-7.578 6.0097,-7.6548 6.0096,-7.6592 6.0097,-7.5916 6.0097,-7.4532 6.0097,-7.2459 6.0097,-6.9724 6.0097,-6.6357 6.0097,-6.2395 6.0097,-5.788 6.0097,-5.2859 6.0097,-4.7386 6.0097,-4.1513 6.0097,-3.5301 6.0097,-2.8812 6.0097,-2.2108 6.0097,-1.5256 6.0097,-0.8322 6.0097,-0.1373"
     id="path20"
     inkscape:connector-curvature="0" /><path
     style="fill:none;stroke:#000000;stroke-width:2.23110008;stroke-linecap:butt;stroke-linejoin:miter;stroke-dasharray:none"
     d="m 38.032214,420.93737 594.960006,0"
     id="path24"
     inkscape:connector-curvature="0" /><path
     style="fill:none;stroke:#000000;stroke-width:2.23110008;stroke-linecap:butt;stroke-linejoin:miter;stroke-dasharray:none"
     d="m 38.032214,4.4653696 594.960006,0"
     id="path26"
     inkscape:connector-curvature="0" /><path
     style="fill:none;stroke:#000000;stroke-width:1.78489995;stroke-linecap:butt;stroke-linejoin:miter;stroke-dasharray:none"
     d="m 97.528214,420.93737 0,-5.9496"
     id="path30"
     inkscape:connector-curvature="0" /><path
     style="fill:none;stroke:#000000;stroke-width:1.78489995;stroke-linecap:butt;stroke-linejoin:miter;stroke-dasharray:none"
     d="m 97.528214,4.4653696 0,5.9496004"
     id="path32"
     inkscape:connector-curvature="0" /><path
     style="fill:none;stroke:#000000;stroke-width:1.78489995;stroke-linecap:butt;stroke-linejoin:miter;stroke-dasharray:none"
     d="m 216.52022,420.93737 0,-5.9496"
     id="path34"
     inkscape:connector-curvature="0" /><path
     style="fill:none;stroke:#000000;stroke-width:1.78489995;stroke-linecap:butt;stroke-linejoin:miter;stroke-dasharray:none"
     d="m 216.52022,4.4653696 0,5.9496004"
     id="path36"
     inkscape:connector-curvature="0" /><path
     style="fill:none;stroke:#000000;stroke-width:1.78489995;stroke-linecap:butt;stroke-linejoin:miter;stroke-dasharray:none"
     d="m 335.51222,420.93737 0,-5.9496"
     id="path38"
     inkscape:connector-curvature="0" /><path
     style="fill:none;stroke:#000000;stroke-width:1.78489995;stroke-linecap:butt;stroke-linejoin:miter;stroke-dasharray:none"
     d="m 335.51222,4.4653696 0,5.9496004"
     id="path40"
     inkscape:connector-curvature="0" /><path
     style="fill:none;stroke:#000000;stroke-width:1.78489995;stroke-linecap:butt;stroke-linejoin:miter;stroke-dasharray:none"
     d="m 454.50422,420.93737 0,-5.9496"
     id="path42"
     inkscape:connector-curvature="0" /><path
     style="fill:none;stroke:#000000;stroke-width:1.78489995;stroke-linecap:butt;stroke-linejoin:miter;stroke-dasharray:none"
     d="m 454.50422,4.4653696 0,5.9496004"
     id="path44"
     inkscape:connector-curvature="0" /><path
     style="fill:none;stroke:#000000;stroke-width:1.78489995;stroke-linecap:butt;stroke-linejoin:miter;stroke-dasharray:none"
     d="m 573.49622,420.93737 0,-5.9496"
     id="path46"
     inkscape:connector-curvature="0" /><path
     style="fill:none;stroke:#000000;stroke-width:1.78489995;stroke-linecap:butt;stroke-linejoin:miter;stroke-dasharray:none"
     d="m 573.49622,4.4653696 0,5.9496004"
     id="path48"
     inkscape:connector-curvature="0" /><path
     style="fill:none;stroke:#000000;stroke-width:1.78489995;stroke-linecap:butt;stroke-linejoin:miter;stroke-dasharray:none"
     d="m 38.032214,420.93737 0,-11.8992"
     id="path50"
     inkscape:connector-curvature="0" /><path
     style="fill:none;stroke:#000000;stroke-width:1.78489995;stroke-linecap:butt;stroke-linejoin:miter;stroke-dasharray:none"
     d="m 38.032214,4.4653696 0,11.8992004"
     id="path52"
     inkscape:connector-curvature="0" /><path
     style="fill:none;stroke:#000000;stroke-width:1.78489995;stroke-linecap:butt;stroke-linejoin:miter;stroke-dasharray:none"
     d="m 157.02422,420.93737 0,-11.8992"
     id="path54"
     inkscape:connector-curvature="0" /><path
     style="fill:none;stroke:#000000;stroke-width:1.78489995;stroke-linecap:butt;stroke-linejoin:miter;stroke-dasharray:none"
     d="m 157.02422,4.4653696 0,11.8992004"
     id="path56"
     inkscape:connector-curvature="0" /><path
     style="fill:none;stroke:#000000;stroke-width:1.78489995;stroke-linecap:butt;stroke-linejoin:miter;stroke-dasharray:none"
     d="m 276.01622,420.93737 0,-11.8992"
     id="path58"
     inkscape:connector-curvature="0" /><path
     style="fill:none;stroke:#000000;stroke-width:1.78489995;stroke-linecap:butt;stroke-linejoin:miter;stroke-dasharray:none"
     d="m 276.01622,4.4653696 0,11.8992004"
     id="path60"
     inkscape:connector-curvature="0" /><path
     style="fill:none;stroke:#000000;stroke-width:1.78489995;stroke-linecap:butt;stroke-linejoin:miter;stroke-dasharray:none"
     d="m 395.00822,420.93737 0,-11.8992"
     id="path62"
     inkscape:connector-curvature="0" /><path
     style="fill:none;stroke:#000000;stroke-width:1.78489995;stroke-linecap:butt;stroke-linejoin:miter;stroke-dasharray:none"
     d="m 395.00822,4.4653696 0,11.8992004"
     id="path64"
     inkscape:connector-curvature="0" /><path
     style="fill:none;stroke:#000000;stroke-width:1.78489995;stroke-linecap:butt;stroke-linejoin:miter;stroke-dasharray:none"
     d="m 514.00022,420.93737 0,-11.8992"
     id="path66"
     inkscape:connector-curvature="0" /><path
     style="fill:none;stroke:#000000;stroke-width:1.78489995;stroke-linecap:butt;stroke-linejoin:miter;stroke-dasharray:none"
     d="m 514.00022,4.4653696 0,11.8992004"
     id="path68"
     inkscape:connector-curvature="0" /><path
     style="fill:none;stroke:#000000;stroke-width:1.78489995;stroke-linecap:butt;stroke-linejoin:miter;stroke-dasharray:none"
     d="m 632.99222,420.93737 0,-11.8992"
     id="path70"
     inkscape:connector-curvature="0" /><path
     style="fill:none;stroke:#000000;stroke-width:1.78489995;stroke-linecap:butt;stroke-linejoin:miter;stroke-dasharray:none"
     d="m 632.99222,4.4653696 0,11.8992004"
     id="path72"
     inkscape:connector-curvature="0" /><path
     style="fill:none;stroke:#000000;stroke-width:2.23110008;stroke-linecap:butt;stroke-linejoin:miter;stroke-dasharray:none"
     d="m 38.032214,420.93737 0,-416.4720004"
     id="path90"
     inkscape:connector-curvature="0" /><path
     style="fill:none;stroke:#000000;stroke-width:2.23110008;stroke-linecap:butt;stroke-linejoin:miter;stroke-dasharray:none"
     d="m 632.99222,420.93737 0,-416.4720004"
     id="path92"
     inkscape:connector-curvature="0" /><path
     style="fill:none;stroke:#000000;stroke-width:1.78489995;stroke-linecap:butt;stroke-linejoin:miter;stroke-dasharray:none"
     d="m 38.032214,420.93737 11.8992,0"
     id="path144"
     inkscape:connector-curvature="0" /><path
     style="fill:none;stroke:#000000;stroke-width:1.78489995;stroke-linecap:butt;stroke-linejoin:miter;stroke-dasharray:none"
     d="m 632.99222,420.93737 -11.8992,0"
     id="path146"
     inkscape:connector-curvature="0" /><path
     style="fill:none;stroke:#000000;stroke-width:1.78489995;stroke-linecap:butt;stroke-linejoin:miter;stroke-dasharray:none"
     d="m 38.032214,282.11337 11.8992,0"
     id="path148"
     inkscape:connector-curvature="0" /><path
     style="fill:none;stroke:#000000;stroke-width:1.78489995;stroke-linecap:butt;stroke-linejoin:miter;stroke-dasharray:none"
     d="m 632.99222,282.11337 -11.8992,0"
     id="path150"
     inkscape:connector-curvature="0" /><path
     style="fill:none;stroke:#000000;stroke-width:1.78489995;stroke-linecap:butt;stroke-linejoin:miter;stroke-dasharray:none"
     d="m 38.032214,143.28937 11.8992,0"
     id="path152"
     inkscape:connector-curvature="0" /><path
     style="fill:none;stroke:#000000;stroke-width:1.78489995;stroke-linecap:butt;stroke-linejoin:miter;stroke-dasharray:none"
     d="m 632.99222,143.28937 -11.8992,0"
     id="path154"
     inkscape:connector-curvature="0" /><path
     style="fill:none;stroke:#000000;stroke-width:1.78489995;stroke-linecap:butt;stroke-linejoin:miter;stroke-dasharray:none"
     d="m 38.032214,4.4653696 11.8992,0"
     id="path156"
     inkscape:connector-curvature="0" /><path
     style="fill:none;stroke:#000000;stroke-width:1.78489995;stroke-linecap:butt;stroke-linejoin:miter;stroke-dasharray:none"
     d="m 632.99222,4.4653696 -11.8992,0"
     id="path158"
     inkscape:connector-curvature="0" /><path
     style="fill:none;stroke:#000000;stroke-width:2.6800108;stroke-linecap:butt;stroke-linejoin:miter;stroke-miterlimit:4;stroke-dasharray:none"
     d="m 707.41794,3.7573259 3.3164,92.9099001 5.9946,60.787294 5.9947,37.6591 5.9947,27.149 5.9947,21.0937 5.9946,17.1404 5.99469,14.34941 5.9947,12.27049 5.9947,10.66041 5.9946,9.37579 5.9947,8.3268 5.9947,7.454 5.99461,6.71661 5.99469,6.08569 5.9947,5.54 5.9947,5.06361 5.9946,4.6444 5.9947,4.2732 5.9947,3.9424 5.9947,3.64581 5.9946,3.37899 5.9947,3.1377 5.9947,2.9188 5.9946,2.7195 5.99469,2.53751 5.99471,2.37079 5.99469,2.2178 5.9946,2.0769 5.99471,1.9471 5.99469,1.827 5.99471,1.71601 5.99459,1.61309 5.9947,1.5173 5.9947,1.4285 5.9946,1.3456 5.9947,1.2685 5.9947,1.1964 5.9947,1.129 5.9946,1.0661 5.9947,1.0071 5.9947,0.9519 5.9947,0.9001 5.9946,0.8514 5.9947,0.8058 5.9947,0.76281 5.9946,0.72249 5.9947,0.6844 5.9947,0.64871 5.9947,0.61489 5.99458,0.58321 5.9947,0.55309 5.9947,0.5249 5.9947,0.4981 5.9946,0.473 5.9947,0.449 5.9946,0.4265 5.9946,0.4052 5.9947,0.38501 5.9946,0.36589 5.9947,0.3479 5.9946,0.33071 5.9946,0.31449 5.9947,0.2992 5.9946,0.2846 5.9946,0.2707 5.9947,0.2577 5.9946,0.2453 5.9946,0.2334 5.9947,0.2223 5.9946,0.2116 5.9947,0.2016 5.9945,0.192 5.9947,0.1829 5.9947,0.1742 5.9946,0.166 5.9946,0.1582 5.9946,0.1507 5.9947,0.1437 5.9946,0.137 5.9946,0.13061 5.9947,0.12449 5.9947,0.1188 5.9945,0.1132 5.9947,0.108 5.9946,0.103 5.9947,0.0983 5.9946,0.0937 5.9946,0.0895 5.9947,0.0853 5.9946,0.0815 5.9946,0.0777 5.9947,0.0741 5.9946,0.0708 5.9946,0.0676 5.9947,0.0645 5.9946,0.0616 5.9947,0.0588 5.9946,0.0562 5.9946,0.0536"
     id="path3505"
     inkscape:connector-curvature="0" /><path
     style="fill:none;stroke:#d40000;stroke-width:2.6800108;stroke-linecap:butt;stroke-linejoin:miter;stroke-miterlimit:4;stroke-dasharray:none;stroke-opacity:1"
     d="m 738.52814,3.7573259 2.1795,29.5056001 5.99469,59.1093 5.9947,45.020004 5.9947,35.4551 5.9946,28.65519 5.9947,23.6421 5.9947,19.8356 5.99461,16.87421 5.99469,14.52279 5.9947,12.6231 5.9947,11.0653 5.9946,9.77121 5.9947,8.68369 5.9947,7.761 5.9947,6.9709 5.9946,6.289 5.9947,5.69641 5.9947,5.1779 5.9946,4.7219 5.99469,4.3185 5.99471,3.9601 5.99469,3.6402 5.9946,3.3535 5.99471,3.0956 5.99469,2.863 5.99471,2.6524 5.99459,2.4612 5.9947,2.28711 5.9947,2.12829 5.9946,1.983 5.9947,1.84991 5.9947,1.72759 5.9947,1.6151 5.9946,1.51141 5.9947,1.41559 5.9947,1.327 5.9947,1.2451 5.9946,1.16901 5.9947,1.0985 5.9947,1.03279 5.9946,0.9717 5.9947,0.91481 5.9947,0.86179 5.9947,0.8122 5.99458,0.766 5.9947,0.7226 5.9947,0.68221 5.9947,0.64409 5.9946,0.60861 5.9947,0.57529 5.9946,0.5439 5.9946,0.5145 5.9947,0.4868 5.9946,0.4608 5.9947,0.4363 5.9946,0.4133 5.9946,0.3916 5.9947,0.3712 5.9946,0.3518 5.9946,0.3337 5.9947,0.3165 5.9946,0.3003 5.9946,0.2849 5.9947,0.2705 5.9946,0.2569 5.9947,0.2439 5.9945,0.23171 5.9947,0.22009 5.9947,0.2092 5.9946,0.1987 5.9946,0.189 5.9946,0.17971 5.9947,0.17089 5.9946,0.1625 5.9946,0.1545 5.9947,0.1471 5.9947,0.14 5.9945,0.1332 5.9947,0.12671 5.9946,0.12069 5.9947,0.1149 5.9946,0.1095 5.9946,0.1042 5.9947,0.0992 5.9946,0.0946 5.9946,0.09 5.9947,0.0859 5.9946,0.0818 5.9946,0.0779 5.9947,0.0743 5.9946,0.0708 5.9947,0.0675 5.9946,0.0644 5.9946,0.0613"
     id="path3509"
     inkscape:connector-curvature="0" /><path
     style="fill:none;stroke:#0000d4;stroke-width:2.6800108;stroke-linecap:butt;stroke-linejoin:miter;stroke-miterlimit:4;stroke-dasharray:none;stroke-opacity:1"
     d="m 803.38263,3.7573259 3.2664,29.4484001 5.9947,45.3022 5.9947,38.329004 5.9947,32.69969 5.9946,28.1056 5.9947,24.3197 5.9947,21.172 5.9946,18.5337 5.99469,16.3063 5.99471,14.4128 5.99469,12.7932 5.9946,11.4 5.99471,10.1953 5.99469,9.1481 5.99471,8.234 5.99459,7.4326 5.9947,6.7271 5.9947,6.1038 5.9946,5.55111 5.9947,5.0597 5.9947,4.62121 5.9947,4.22869 5.9946,3.87671 5.9947,3.55999 5.9947,3.2744 5.9947,3.01641 5.9946,2.78259 5.9947,2.5705 5.9947,2.3776 5.9946,2.2018 5.9947,2.04151 5.9947,1.89479 5.9947,1.7606 5.99458,1.6374 5.9947,1.5245 5.9947,1.4204 5.9947,1.3248 5.9946,1.2365 5.9947,1.15501 5.9946,1.0797 5.9946,1.0101 5.9947,0.94559 5.9946,0.8858 5.9947,0.8303 5.9946,0.7787 5.9946,0.7309 5.9947,0.6862 5.9946,0.6448 5.9946,0.606 5.9947,0.57 5.9946,0.5363 5.9946,0.5049 5.9947,0.4754 5.9946,0.448 5.9947,0.42221 5.9945,0.39819 5.9947,0.3756 5.9947,0.3544 5.9946,0.3346 5.9946,0.3159 5.9946,0.29851 5.9947,0.28199 5.9946,0.2666 5.9946,0.25211 5.9947,0.2384 5.9947,0.22559 5.9945,0.2135 5.9947,0.2021 5.9946,0.19131 5.9947,0.18129 5.9946,0.1716 5.9946,0.1627 5.9947,0.1542 5.9946,0.1462 5.9946,0.1386 5.9947,0.1314 5.9946,0.12471 5.9946,0.11829 5.9947,0.1123 5.9946,0.1066 5.9947,0.1011 5.9946,0.0961 5.9946,0.0912"
     id="path3513"
     inkscape:connector-curvature="0" /><path
     style="fill:none;stroke:#000000;stroke-width:2.23110008;stroke-linecap:butt;stroke-linejoin:miter;stroke-dasharray:none"
     d="m 703.25224,420.28883 594.95826,0"
     id="path3517"
     inkscape:connector-curvature="0" /><path
     style="fill:none;stroke:#000000;stroke-width:2.23110008;stroke-linecap:butt;stroke-linejoin:miter;stroke-dasharray:none"
     d="m 703.25224,3.8168259 594.95826,0"
     id="path3519"
     inkscape:connector-curvature="0" /><path
     style="fill:none;stroke:#000000;stroke-width:1.78489983;stroke-linecap:butt;stroke-linejoin:miter;stroke-dasharray:none"
     d="m 777.62223,420.28883 0,-5.9496"
     id="path3523"
     inkscape:connector-curvature="0" /><path
     style="fill:none;stroke:#000000;stroke-width:1.78489983;stroke-linecap:butt;stroke-linejoin:miter;stroke-dasharray:none"
     d="m 777.62223,3.8168259 0,5.9495998"
     id="path3525"
     inkscape:connector-curvature="0" /><path
     style="fill:none;stroke:#000000;stroke-width:1.78489983;stroke-linecap:butt;stroke-linejoin:miter;stroke-dasharray:none"
     d="m 926.36222,420.28883 0,-5.9496"
     id="path3527"
     inkscape:connector-curvature="0" /><path
     style="fill:none;stroke:#000000;stroke-width:1.78489983;stroke-linecap:butt;stroke-linejoin:miter;stroke-dasharray:none"
     d="m 926.36222,3.8168259 0,5.9495998"
     id="path3529"
     inkscape:connector-curvature="0" /><path
     style="fill:none;stroke:#000000;stroke-width:1.78489983;stroke-linecap:butt;stroke-linejoin:miter;stroke-dasharray:none"
     d="m 1075.1019,420.28883 0,-5.9496"
     id="path3531"
     inkscape:connector-curvature="0" /><path
     style="fill:none;stroke:#000000;stroke-width:1.78489983;stroke-linecap:butt;stroke-linejoin:miter;stroke-dasharray:none"
     d="m 1075.1019,3.8168259 0,5.9495998"
     id="path3533"
     inkscape:connector-curvature="0" /><path
     style="fill:none;stroke:#000000;stroke-width:1.78489983;stroke-linecap:butt;stroke-linejoin:miter;stroke-dasharray:none"
     d="m 1223.841,420.28883 0,-5.9496"
     id="path3535"
     inkscape:connector-curvature="0" /><path
     style="fill:none;stroke:#000000;stroke-width:1.78489983;stroke-linecap:butt;stroke-linejoin:miter;stroke-dasharray:none"
     d="m 1223.841,3.8168259 0,5.9495998"
     id="path3537"
     inkscape:connector-curvature="0" /><path
     style="fill:none;stroke:#000000;stroke-width:1.78489983;stroke-linecap:butt;stroke-linejoin:miter;stroke-dasharray:none"
     d="m 703.25224,420.28883 0,-11.8992"
     id="path3539"
     inkscape:connector-curvature="0" /><path
     style="fill:none;stroke:#000000;stroke-width:1.78489983;stroke-linecap:butt;stroke-linejoin:miter;stroke-dasharray:none"
     d="m 703.25224,3.8168259 0,11.8992001"
     id="path3541"
     inkscape:connector-curvature="0" /><path
     style="fill:none;stroke:#000000;stroke-width:1.78489983;stroke-linecap:butt;stroke-linejoin:miter;stroke-dasharray:none"
     d="m 851.99223,420.28883 0,-11.8992"
     id="path3543"
     inkscape:connector-curvature="0" /><path
     style="fill:none;stroke:#000000;stroke-width:1.78489983;stroke-linecap:butt;stroke-linejoin:miter;stroke-dasharray:none"
     d="m 851.99223,3.8168259 0,11.8992001"
     id="path3545"
     inkscape:connector-curvature="0" /><path
     style="fill:none;stroke:#000000;stroke-width:1.78489983;stroke-linecap:butt;stroke-linejoin:miter;stroke-dasharray:none"
     d="m 1000.7322,420.28883 0,-11.8992"
     id="path3547"
     inkscape:connector-curvature="0" /><path
     style="fill:none;stroke:#000000;stroke-width:1.78489983;stroke-linecap:butt;stroke-linejoin:miter;stroke-dasharray:none"
     d="m 1000.7322,3.8168259 0,11.8992001"
     id="path3549"
     inkscape:connector-curvature="0" /><path
     style="fill:none;stroke:#000000;stroke-width:1.78489983;stroke-linecap:butt;stroke-linejoin:miter;stroke-dasharray:none"
     d="m 1149.4714,420.28883 0,-11.8992"
     id="path3551"
     inkscape:connector-curvature="0" /><path
     style="fill:none;stroke:#000000;stroke-width:1.78489983;stroke-linecap:butt;stroke-linejoin:miter;stroke-dasharray:none"
     d="m 1149.4714,3.8168259 0,11.8992001"
     id="path3553"
     inkscape:connector-curvature="0" /><path
     style="fill:none;stroke:#000000;stroke-width:1.78489983;stroke-linecap:butt;stroke-linejoin:miter;stroke-dasharray:none"
     d="m 1298.2105,420.28883 0,-11.8992"
     id="path3555"
     inkscape:connector-curvature="0" /><path
     style="fill:none;stroke:#000000;stroke-width:1.78489983;stroke-linecap:butt;stroke-linejoin:miter;stroke-dasharray:none"
     d="m 1298.2105,3.8168259 0,11.8992001"
     id="path3557"
     inkscape:connector-curvature="0" /><path
     style="fill:none;stroke:#000000;stroke-width:2.23110008;stroke-linecap:butt;stroke-linejoin:miter;stroke-dasharray:none"
     d="m 703.25224,420.28883 0,-416.4720041"
     id="path3573"
     inkscape:connector-curvature="0" /><path
     style="fill:none;stroke:#000000;stroke-width:2.23110008;stroke-linecap:butt;stroke-linejoin:miter;stroke-dasharray:none"
     d="m 1298.2105,420.28883 0,-416.4720041"
     id="path3575"
     inkscape:connector-curvature="0" /><path
     style="fill:none;stroke:#000000;stroke-width:1.78489983;stroke-linecap:butt;stroke-linejoin:miter;stroke-dasharray:none"
     d="m 703.25224,420.28883 11.8992,0"
     id="path3579"
     inkscape:connector-curvature="0" /><path
     style="fill:none;stroke:#000000;stroke-width:1.78489983;stroke-linecap:butt;stroke-linejoin:miter;stroke-dasharray:none"
     d="m 1298.2105,420.28883 -11.8991,0"
     id="path3581"
     inkscape:connector-curvature="0" /><path
     style="fill:none;stroke:#000000;stroke-width:1.78489983;stroke-linecap:butt;stroke-linejoin:miter;stroke-dasharray:none"
     d="m 703.25224,316.17082 11.8992,0"
     id="path3583"
     inkscape:connector-curvature="0" /><path
     style="fill:none;stroke:#000000;stroke-width:1.78489983;stroke-linecap:butt;stroke-linejoin:miter;stroke-dasharray:none"
     d="m 1298.2105,316.17082 -11.8991,0"
     id="path3585"
     inkscape:connector-curvature="0" /><path
     style="fill:none;stroke:#000000;stroke-width:1.78489983;stroke-linecap:butt;stroke-linejoin:miter;stroke-dasharray:none"
     d="m 703.25224,212.05282 11.8992,0"
     id="path3587"
     inkscape:connector-curvature="0" /><path
     style="fill:none;stroke:#000000;stroke-width:1.78489983;stroke-linecap:butt;stroke-linejoin:miter;stroke-dasharray:none"
     d="m 1298.2105,212.05282 -11.8991,0"
     id="path3589"
     inkscape:connector-curvature="0" /><path
     style="fill:none;stroke:#000000;stroke-width:1.78489983;stroke-linecap:butt;stroke-linejoin:miter;stroke-dasharray:none"
     d="m 703.25224,107.93483 11.8992,0"
     id="path3591"
     inkscape:connector-curvature="0" /><path
     style="fill:none;stroke:#000000;stroke-width:1.78489983;stroke-linecap:butt;stroke-linejoin:miter;stroke-dasharray:none"
     d="m 1298.2105,107.93483 -11.8991,0"
     id="path3593"
     inkscape:connector-curvature="0" /><path
     style="fill:none;stroke:#000000;stroke-width:1.78489983;stroke-linecap:butt;stroke-linejoin:miter;stroke-dasharray:none"
     d="m 703.25224,3.8168259 11.8992,0"
     id="path3595"
     inkscape:connector-curvature="0" /><path
     style="fill:none;stroke:#000000;stroke-width:1.78489983;stroke-linecap:butt;stroke-linejoin:miter;stroke-dasharray:none"
     d="m 1298.2105,3.8168259 -11.8991,0"
     id="path3597"
     inkscape:connector-curvature="0" /><path
     style="fill:none;stroke:#000000;stroke-width:0.89240003;stroke-linecap:butt;stroke-linejoin:miter;stroke-dasharray:none"
     d="m 703.25224,420.28883 0,-416.4720041 594.95826,0 0,416.4720041 z"
     id="path3613"
     inkscape:connector-curvature="0" /><flowRoot
     xml:space="preserve"
     id="flowRoot3745"
     style="font-style:normal;font-variant:normal;font-weight:normal;font-stretch:normal;font-size:56px;line-height:125%;font-family:'Nimbus Sans L';-inkscape-font-specification:Sans;letter-spacing:0px;word-spacing:0px;fill:#000000;fill-opacity:1;stroke:none;stroke-width:1px;stroke-linecap:butt;stroke-linejoin:miter;stroke-opacity:1"
     transform="translate(677.96577,-3.2000141)"><flowRegion
       id="flowRegion3747"><rect
         id="rect3749"
         width="866.90454"
         height="81.831703"
         x="-10.215005"
         y="529.6626" /></flowRegion><flowPara
       id="flowPara3751" /></flowRoot><g
     id="g5122"><text
       y="290.83334"
       x="11.362562"
       id="text164"
       style="font-style:normal;font-weight:normal;font-size:16.65888023px;fill:#000000;fill-rule:nonzero">$0$</text>
<text
       y="151.04939"
       x="-14.797495"
       id="text166"
       style="font-style:normal;font-weight:normal;font-size:16.65888023px;fill:#000000;fill-rule:nonzero">$0,5$</text>
<text
       y="21.305414"
       x="17.602583"
       id="text168"
       style="font-style:normal;font-weight:normal;font-size:16.65888023px;fill:#000000;fill-rule:nonzero">$1$</text>
<g
       id="g5109"><text
         style="font-style:normal;font-weight:normal;font-size:16.65888023px;fill:#000000;fill-rule:nonzero"
         id="text76"
         x="34.072212"
         y="452.56702">$0$</text>
<text
         style="font-style:normal;font-weight:normal;font-size:16.65888023px;fill:#000000;fill-rule:nonzero"
         id="text78"
         x="146.66418"
         y="452.56702">$2$</text>
<text
         style="font-style:normal;font-weight:normal;font-size:16.65888023px;fill:#000000;fill-rule:nonzero"
         id="text80"
         x="264.05618"
         y="452.56702">$4$</text>
<text
         style="font-style:normal;font-weight:normal;font-size:16.65888023px;fill:#000000;fill-rule:nonzero"
         id="text82"
         x="386.36819"
         y="452.56702">$6$</text>
<text
         style="font-style:normal;font-weight:normal;font-size:16.65888023px;fill:#000000;fill-rule:nonzero"
         id="text84"
         x="505.48019"
         y="452.56702">$8$</text>
<text
         style="font-style:normal;font-weight:normal;font-size:16.65888023px;fill:#000000;fill-rule:nonzero"
         id="text86"
         x="615.23206"
         y="452.56702">$10$</text>
<text
         style="font-style:normal;font-weight:normal;font-size:16.65888023px;fill:#000000;fill-rule:nonzero"
         id="text3561"
         x="688.09436"
         y="453.51846">$0$</text>
<text
         style="font-style:normal;font-weight:normal;font-size:16.65888023px;fill:#000000;fill-rule:nonzero"
         id="text3563"
         x="843.95734"
         y="450.31845">$1$</text>
<text
         style="font-style:normal;font-weight:normal;font-size:16.65888023px;fill:#000000;fill-rule:nonzero"
         id="text3565"
         x="990.37756"
         y="453.51846">2$$</text>
<text
         style="font-style:normal;font-weight:normal;font-size:16.65888023px;fill:#000000;fill-rule:nonzero"
         id="text3567"
         x="1139.4745"
         y="453.51846">$3$</text>
<text
         style="font-style:normal;font-weight:normal;font-size:16.65888023px;fill:#000000;fill-rule:nonzero"
         id="text3569"
         x="1283.049"
         y="453.51846">$4$</text>
</g><text
       y="429.00879"
       x="676.58453"
       id="text3601"
       style="font-style:normal;font-weight:normal;font-size:16.65888023px;fill:#000000;fill-rule:nonzero">$0$</text>
<text
       y="325.0108"
       x="678.02454"
       id="text3603"
       style="font-style:normal;font-weight:normal;font-size:16.65888023px;fill:#000000;fill-rule:nonzero">$1$</text>
<text
       y="220.89282"
       x="676.58453"
       id="text3605"
       style="font-style:normal;font-weight:normal;font-size:16.65888023px;fill:#000000;fill-rule:nonzero">$2$</text>
<text
       y="116.65482"
       x="677.30457"
       id="text3607"
       style="font-style:normal;font-weight:normal;font-size:16.65888023px;fill:#000000;fill-rule:nonzero">$3$</text>
<text
       sodipodi:linespacing="125%"
       id="text5056"
       y="25.258537"
       x="-16.672432"
       style="font-style:normal;font-variant:normal;font-weight:normal;font-stretch:normal;font-size:30.00012016px;line-height:125%;font-family:'Nimbus Sans L';-inkscape-font-specification:Sans;letter-spacing:0px;word-spacing:0px;fill:#000000;fill-opacity:1;stroke:none;stroke-width:1px;stroke-linecap:butt;stroke-linejoin:miter;stroke-opacity:1"
       xml:space="preserve"><tspan
         style="font-size:16.00006485px"
         y="25.258537"
         x="-16.672432"
         id="tspan5058"
         sodipodi:role="line">a)</tspan></text>
<text
       sodipodi:linespacing="125%"
       id="text5056-5"
       y="25.258537"
       x="652.55695"
       style="font-style:normal;font-variant:normal;font-weight:normal;font-stretch:normal;font-size:30.00012016px;line-height:125%;font-family:'Nimbus Sans L';-inkscape-font-specification:Sans;letter-spacing:0px;word-spacing:0px;fill:#000000;fill-opacity:1;stroke:none;stroke-width:1px;stroke-linecap:butt;stroke-linejoin:miter;stroke-opacity:1"
       xml:space="preserve"><tspan
         style="font-size:16.00006485px"
         y="25.258537"
         x="652.55695"
         id="tspan5058-9"
         sodipodi:role="line">b)</tspan></text>
</g></svg>