<?xml version="1.0" encoding="ISO-8859-1"?>
<!DOCTYPE svg PUBLIC "-//W3C//DTD SVG 1.0//EN" "http://www.w3.org/TR/2001/REC-SVG-20010904/DTD/svg10.dtd">
<!-- generated by Grace-5.1.25 -->
<svg xml:space="preserve" width="11.6933in" height="8.2633in" viewBox="0.0000 0.0000 841.9200 594.9600">
 <g transform="translate(0,594.9600) scale(1,-1)">
 <desc></desc>
  <g style="fill:#FFFFFF; fill-rule:nonzero">
   <path  d="M0.0000,0.0000L0.0000,594.9600L841.9200,594.9600L841.9200,0.0000z"/>
  </g>
  <g style="fill:none; stroke:#FF0000; stroke-width:  2.6773; stroke-linecap:butt; stroke-linejoin:miter; stroke-dasharray:none">
   <path d="M89.2440,89.2440L90.0948,89.2565L90.9456,89.2941L91.7964,89.3566L92.6472,89.4442L93.4980,89.5567L94.3488,89.6941L95.1996,89.8564L96.0503,90.0435L96.9011,90.2553
            L97.7519,90.4917L98.6027,90.7527L99.4535,91.0381L100.3043,91.3478L101.1551,91.6817L102.0059,92.0397L102.8567,92.4216L103.7075,92.8273L104.5583,93.2565L105.4091,93.7092
            L106.2599,94.1851L107.1107,94.6841L107.9615,95.2060L108.8123,95.7505L109.6630,96.3174L110.5138,96.9065L111.3646,97.5176L112.2154,98.1504L113.0662,98.8047L113.9170,99.4802
            L114.7678,100.1766L115.6186,100.8937L116.4694,101.6311L117.3202,102.3887L118.1710,103.1660L119.0218,103.9627L119.8726,104.7786L120.7234,105.6133L121.5742,106.4665L122.4250,107.3378
            L123.2757,108.2269L124.1265,109.1334L124.9773,110.0570L125.8281,110.9973L126.6789,111.9539L127.5297,112.9264L128.3805,113.9145L129.2313,114.9178L130.0821,115.9357L130.9329,116.9681
            L131.7837,118.0143L132.6345,119.0741L133.4853,120.1469L134.3361,121.2324L135.1869,122.3301L136.0377,123.4396L136.8884,124.5604L137.7392,125.6921L138.5900,126.8343L139.4408,127.9864
            L140.2916,129.1480L141.1424,130.3186L141.9932,131.4979L142.8440,132.6852L143.6948,133.8802L144.5456,135.0823L145.3964,136.2911L146.2472,137.5060L147.0980,138.7267L147.9488,139.9525
            L148.7996,141.1831L149.6503,142.4179L150.5011,143.6564L151.3519,144.8982L152.2027,146.1426L153.0535,147.3894L153.9043,148.6378L154.7551,149.8875L155.6059,151.1379L156.4567,152.3886
            L157.3075,153.6389L158.1583,154.8885L159.0091,156.1369L159.8599,157.3834L160.7107,158.6277L161.5615,159.8692L162.4123,161.1075L163.2630,162.3420L164.1138,163.5722L164.9646,164.7977
            L165.8154,166.0179L166.6662,167.2324L167.5170,168.4407L168.3678,169.6422L169.2186,170.8366L170.0694,172.0234L170.9202,173.2019L171.7710,174.3719L172.6218,175.5328L173.4726,176.6842
            L174.3234,177.8255L175.1742,178.9564L176.0250,180.0763L176.8757,181.1849L177.7265,182.2817L178.5773,183.3662L179.4281,184.4381L180.2789,185.4968L181.1297,186.5420L181.9805,187.5732
            L182.8313,188.5901L183.6821,189.5922L184.5329,190.5791L185.3837,191.5504L186.2345,192.5057L187.0853,193.4447L187.9361,194.3670L188.7869,195.2722L189.6377,196.1599L190.4884,197.0299
            L191.3392,197.8816L192.1900,198.7149L193.0408,199.5293L193.8916,200.3245L194.7424,201.1003L195.5932,201.8563L196.4440,202.5922L197.2948,203.3077L198.1456,204.0025L198.9964,204.6763
            L199.8472,205.3290L200.6980,205.9601L201.5488,206.5695L202.3996,207.1569L203.2503,207.7221L204.1011,208.2649L204.9519,208.7849L205.8027,209.2822L206.6535,209.7563L207.5043,210.2072
            L208.3551,210.6346L209.2059,211.0384L210.0567,211.4185L210.9075,211.7746L211.7583,212.1066L212.6091,212.4145L213.4599,212.6980L214.3107,212.9570L215.1615,213.1916L216.0123,213.4015
            L216.8630,213.5866L217.7138,213.7470L218.5646,213.8825L219.4154,213.9931L220.2662,214.0787L221.1170,214.1393L221.9678,214.1749L222.8186,214.1855L223.6694,214.1711L224.5202,214.1316
            L225.3710,214.0671L226.2218,213.9776L227.0726,213.8631L227.9234,213.7238L228.7742,213.5596L229.6250,213.3706L230.4757,213.1569L231.3265,212.9185L232.1773,212.6557L233.0281,212.3684
            L233.8789,212.0568L234.7297,211.7210L235.5805,211.3612L236.4313,210.9774L237.2821,210.5699L238.1329,210.1389L238.9837,209.6844L239.8345,209.2066L240.6853,208.7059L241.5361,208.1823
            L242.3869,207.6360L243.2377,207.0674L244.0884,206.4765L244.9392,205.8638L245.7900,205.2293L246.6408,204.5733L247.4916,203.8962L248.3424,203.1982L249.1932,202.4795L250.0440,201.7405
            L250.8948,200.9814L251.7456,200.2026L252.5964,199.4044L253.4472,198.5870L254.2980,197.7509L255.1488,196.8963L255.9996,196.0236L256.8503,195.1331L257.7011,194.2253L258.5519,193.3004
            L259.4027,192.3588L260.2535,191.4010L261.1043,190.4272L261.9551,189.4379L262.8059,188.4335L263.6567,187.4144L264.5075,186.3810L265.3583,185.3337L266.2091,184.2729L267.0599,183.1991
            L267.9107,182.1126L268.7615,181.0140L269.6123,179.9036L270.4630,178.7819L271.3138,177.6494L272.1646,176.5065L273.0154,175.3536L273.8662,174.1913L274.7170,173.0199L275.5678,171.8401
            L276.4186,170.6521L277.2694,169.4566L278.1202,168.2539L278.9710,167.0447L279.8218,165.8292L280.6726,164.6082L281.5234,163.3819L282.3742,162.1510L283.2250,160.9159L284.0757,159.6771
            L284.9265,158.4351L285.7773,157.1905L286.6281,155.9436L287.4789,154.6950L288.3297,153.4453L289.1805,152.1948L290.0313,150.9442L290.8821,149.6939L291.7329,148.4443L292.5837,147.1961
            L293.4345,145.9497L294.2853,144.7056L295.1361,143.4644L295.9869,142.2264L296.8377,140.9922L297.6884,139.7623L298.5392,138.5372L299.3900,137.3174L300.2408,136.1034L301.0916,134.8956
            L301.9424,133.6946L302.7932,132.5008L303.6440,131.3147L304.4948,130.1367L305.3456,128.9674L306.1964,127.8073L307.0472,126.6567L307.8980,125.5161L308.7488,124.3861L309.5996,123.2670
            L310.4503,122.1593L311.3011,121.0635L312.1519,119.9799L313.0027,118.9091L313.8535,117.8514L314.7043,116.8072L315.5551,115.7771L316.4059,114.7614L317.2567,113.7605L318.1075,112.7748
            L318.9583,111.8047L319.8091,110.8506L320.6599,109.9128L321.5107,108.9919L322.3615,108.0880L323.2123,107.2016L324.0630,106.3331L324.9138,105.4828L325.7646,104.6510L326.6154,103.8380
            L327.4662,103.0443L328.3170,102.2700L329.1678,101.5156L330.0186,100.7813L330.8694,100.0674L331.7202,99.3742L332.5710,98.7020L333.4218,98.0510L334.2726,97.4215L335.1234,96.8138
            L335.9742,96.2281L336.8250,95.6646L337.6757,95.1236L338.5265,94.6053L339.3773,94.1099L340.2281,93.6376L341.0789,93.1885L341.9297,92.7629L342.7805,92.3609L343.6313,91.9827
            L344.4821,91.6284L345.3329,91.2983L346.1837,90.9923L347.0345,90.7107L347.8853,90.4535L348.7361,90.2209L349.5869,90.0129L350.4377,89.8297L351.2884,89.6712L352.1392,89.5377
            L352.9900,89.4290L353.8408,89.3453L354.6916,89.2866L355.5424,89.2529L356.3932,89.2443L357.2440,89.2607L358.0948,89.3021L358.9456,89.3686L359.7964,89.4600L360.6472,89.5764
            L361.4980,89.7177L362.3488,89.8838L363.1996,90.0747L364.0503,90.2903L364.9011,90.5306L365.7519,90.7953L366.6027,91.0845L367.4535,91.3980L368.3043,91.7356L369.1551,92.0973
            L370.0059,92.4829L370.8567,92.8922L371.7075,93.3251L372.5583,93.7814L373.4091,94.2609L374.2599,94.7635L375.1107,95.2888L375.9615,95.8368L376.8123,96.4072L377.6630,96.9997
            L378.5138,97.6142L379.3646,98.2504L380.2154,98.9080L381.0662,99.5867L381.9170,100.2863L382.7678,101.0066L383.6186,101.7472L384.4694,102.5078L385.3202,103.2881L386.1710,104.0878
            L387.0218,104.9067L387.8726,105.7442L388.7234,106.6003L389.5742,107.4743L390.4250,108.3662L391.2757,109.2754L392.1265,110.2016L392.9773,111.1444L393.8281,112.1035L394.6789,113.0785
            L395.5297,114.0689L396.3805,115.0745L397.2313,116.0947L398.0821,117.1292L398.9329,118.1776L399.7837,119.2394L400.6345,120.3142L401.4853,121.4017L402.3361,122.5012L403.1869,123.6125
            L404.0377,124.7350L404.8884,125.8684L405.7392,127.0121L406.5900,128.1657L407.4408,129.3287L408.2916,130.5007L409.1424,131.6813L409.9932,132.8698L410.8440,134.0659L411.6948,135.2691
            L412.5456,136.4789L413.3964,137.6947L414.2472,138.9162L415.0980,140.1428L415.9488,141.3741L416.7996,142.6095L417.6503,143.8486L418.5011,145.0908L419.3519,146.3356L420.2027,147.5826
            L421.0535,148.8313L421.9043,150.0811L422.7551,151.3316L423.6059,152.5823L424.4567,153.8325L425.3075,155.0820L426.1583,156.3301L427.0091,157.5763L427.8599,158.8202L428.7107,160.0613
            L429.5615,161.2989L430.4123,162.5328L431.2630,163.7623L432.1138,164.9870L432.9646,166.2064L433.8154,167.4200L434.6662,168.6272L435.5170,169.8277L436.3678,171.0210L437.2186,172.2065
            L438.0694,173.3837L438.9202,174.5523L439.7710,175.7118L440.6218,176.8616L441.4726,178.0014L442.3234,179.1306L443.1742,180.2488L444.0250,181.3556L444.8757,182.4505L445.7265,183.5331
            L446.5773,184.6029L447.4281,185.6596L448.2789,186.7026L449.1297,187.7317L449.9805,188.7463L450.8313,189.7460L451.6821,190.7305L452.5329,191.6994L453.3837,192.6523L454.2345,193.5887
            L455.0853,194.5084L455.9361,195.4109L456.7869,196.2959L457.6377,197.1630L458.4884,198.0119L459.3392,198.8423L460.1900,199.6537L461.0408,200.4460L461.8916,201.2187L462.7424,201.9716
            L463.5932,202.7043L464.4440,203.4166L465.2948,204.1082L466.1456,204.7788L466.9964,205.4281L467.8472,206.0559L468.6980,206.6619L469.5488,207.2459L470.3996,207.8077L471.2503,208.3469
            L472.1011,208.8635L472.9519,209.3571L473.8027,209.8277L474.6535,210.2749L475.5043,210.6987L476.3551,211.0989L477.2059,211.4752L478.0567,211.8276L478.9075,212.1559L479.7583,212.4600
            L480.6091,212.7397L481.4599,212.9950L482.3107,213.2257L483.1615,213.4318L484.0123,213.6131L484.8630,213.7696L485.7138,213.9012L486.5646,214.0080L487.4154,214.0897L488.2662,214.1465
            L489.1170,214.1782L489.9678,214.1849L490.8186,214.1666L491.6694,214.1232L492.5202,214.0548L493.3710,213.9615L494.2218,213.8432L495.0726,213.7000L495.9234,213.5319L496.7742,213.3391
            L497.6250,213.1215L498.4757,212.8794L499.3265,212.6128L500.1773,212.3217L501.0281,212.0063L501.8789,211.6668L502.7297,211.3033L503.5805,210.9159L504.4313,210.5047L505.2821,210.0700
            L506.1329,209.6119L506.9837,209.1306L507.8345,208.6263L508.6853,208.0991L509.5361,207.5494L510.3869,206.9773L511.2377,206.3831L512.0884,205.7669L512.9392,205.1291L513.7900,204.4698
            L514.6408,203.7895L515.4916,203.0882L516.3424,202.3664L517.1932,201.6242L518.0440,200.8621L518.8948,200.0802L519.7456,199.2790L520.5964,198.4587L521.4472,197.6197L522.2980,196.7623
            L523.1488,195.8868L523.9996,194.9936L524.8503,194.0831L525.7011,193.1556L526.5519,192.2115L527.4027,191.2512L528.2535,190.2750L529.1043,189.2833L529.9551,188.2766L530.8059,187.2553
            L531.6567,186.2197L532.5075,185.1702L533.3583,184.1074L534.2091,183.0316L535.0599,181.9432L535.9107,180.8427L536.7615,179.7306L537.6123,178.6072L538.4630,177.4730L539.3138,176.3285
            L540.1646,175.1742L541.0154,174.0104L541.8662,172.8377L542.7170,171.6566L543.5678,170.4674L544.4186,169.2708L545.2694,168.0670L546.1202,166.8568L546.9710,165.6405L547.8218,164.4186
            L548.6726,163.1916L549.5234,161.9600L550.3742,160.7243L551.2250,159.4849L552.0757,158.2425L552.9265,156.9975L553.7773,155.7503L554.6281,154.5015L555.4789,153.2516L556.3297,152.0011
            L557.1805,150.7505L558.0313,149.5003L558.8821,148.2509L559.7329,147.0029L560.5837,145.7569L561.4345,144.5132L562.2853,143.2724L563.1361,142.0349L563.9869,140.8014L564.8377,139.5722
            L565.6884,138.3479L566.5392,137.1290L567.3900,135.9159L568.2408,134.7091L569.0916,133.5092L569.9424,132.3165L570.7932,131.1317L571.6440,129.9550L572.4948,128.7871L573.3456,127.6284
            L574.1964,126.4794L575.0472,125.3404L575.8980,124.2120L576.7488,123.0947L577.5996,121.9888L578.4503,120.8948L579.3011,119.8132L580.1519,118.7444L581.0027,117.6887L581.8535,116.6468
            L582.7043,115.6188L583.5551,114.6054L584.4059,113.6068L585.2567,112.6235L586.1075,111.6558L586.9583,110.7042L587.8091,109.7691L588.6599,108.8507L589.5107,107.9496L590.3615,107.0659
            L591.2123,106.2002L592.0630,105.3527L592.9138,104.5238L593.7646,103.7138L594.6154,102.9231L595.4662,102.1519L596.3170,101.4005L597.1678,100.6694L598.0186,99.9587L598.8694,99.2687
            L599.7202,98.5997L600.5710,97.9521L601.4218,97.3260L602.2726,96.7216L603.1234,96.1394L603.9742,95.5794L604.8250,95.0419L605.6757,94.5271L606.5265,94.0352L607.3773,93.5665
            L608.2281,93.1210L609.0789,92.6991L609.9297,92.3007L610.7805,91.9263L611.6313,91.5757L612.4821,91.2493L613.3329,90.9471L614.1837,90.6692L615.0345,90.4159L615.8853,90.1871
            L616.7361,89.9829L617.5869,89.8035L618.4377,89.6489L619.2884,89.5192L620.1392,89.4144L620.9900,89.3346L621.8408,89.2798L622.6916,89.2500L623.5424,89.2452L624.3932,89.2655
            L625.2440,89.3108L626.0948,89.3811L626.9456,89.4764L627.7964,89.5966L628.6472,89.7418L629.4980,89.9117L630.3488,90.1065L631.1996,90.3259L632.0503,90.5700L632.9011,90.8385
            L633.7519,91.1315L634.6027,91.4487L635.4535,91.7901L636.3043,92.1555L637.1551,92.5447L638.0059,92.9577L638.8567,93.3943L639.7075,93.8542L640.5583,94.3373L641.4091,94.8433
            L642.2599,95.3722L643.1107,95.9237L643.9615,96.4975L644.8123,97.0935L645.6630,97.7113L646.5138,98.3508L647.3646,99.0117L648.2154,99.6937L649.0662,100.3966L649.9170,101.1200
            L650.7678,101.8637L651.6186,102.6274L652.4694,103.4107L653.3202,104.2134L654.1710,105.0352L655.0218,105.8756L655.8726,106.7345L656.7234,107.6113L657.5742,108.5059L658.4250,109.4177
            L659.2757,110.3465L660.1265,111.2919L660.9773,112.2535L661.8281,113.2309L662.6789,114.2237L663.5297,115.2316L664.3805,116.2540L665.2313,117.2907L666.0821,118.3412L666.9329,119.4051
            L667.7837,120.4819L668.6345,121.5712L669.4853,122.6726L670.3361,123.7856L671.1869,124.9099L672.0377,126.0449L672.8884,127.1901L673.7392,128.3452L674.5900,129.5097L675.4408,130.6831
            L676.2916,131.8648L677.1424,133.0546L677.9932,134.2518L678.8440,135.4561L679.6948,136.6668L680.5456,137.8836L681.3964,139.1059L682.2472,140.3333L683.0980,141.5652L683.9488,142.8012
            L684.2635,143.2598"/>
  </g>
  <g style="fill:none; stroke:#000000; stroke-width:  2.6773; stroke-linecap:butt; stroke-linejoin:miter; stroke-dasharray:none">
   <path d="M89.2440,505.7160L90.0948,505.7035L90.9456,505.6659L91.7964,505.6034L92.6472,505.5158L93.4980,505.4033L94.3488,505.2659L95.1996,505.1036L96.0503,504.9165L96.9011,504.7047
            L97.7519,504.4683L98.6027,504.2073L99.4535,503.9219L100.3043,503.6122L101.1551,503.2783L102.0059,502.9203L102.8567,502.5384L103.7075,502.1327L104.5583,501.7035L105.4091,501.2508
            L106.2599,500.7749L107.1107,500.2759L107.9615,499.7540L108.8123,499.2095L109.6630,498.6426L110.5138,498.0535L111.3646,497.4424L112.2154,496.8096L113.0662,496.1553L113.9170,495.4798
            L114.7678,494.7834L115.6186,494.0663L116.4694,493.3289L117.3202,492.5713L118.1710,491.7940L119.0218,490.9973L119.8726,490.1814L120.7234,489.3467L121.5742,488.4935L122.4250,487.6222
            L123.2757,486.7331L124.1265,485.8266L124.9773,484.9030L125.8281,483.9627L126.6789,483.0061L127.5297,482.0336L128.3805,481.0455L129.2313,480.0422L130.0821,479.0243L130.9329,477.9919
            L131.7837,476.9457L132.6345,475.8859L133.4853,474.8131L134.3361,473.7276L135.1869,472.6299L136.0377,471.5204L136.8884,470.3996L137.7392,469.2679L138.5900,468.1257L139.4408,466.9736
            L140.2916,465.8120L141.1424,464.6414L141.9932,463.4621L142.8440,462.2748L143.6948,461.0798L144.5456,459.8777L145.3964,458.6689L146.2472,457.4540L147.0980,456.2333L147.9488,455.0075
            L148.7996,453.7769L149.6503,452.5421L150.5011,451.3036L151.3519,450.0618L152.2027,448.8174L153.0535,447.5706L153.9043,446.3222L154.7551,445.0725L155.6059,443.8221L156.4567,442.5714
            L157.3075,441.3211L158.1583,440.0715L159.0091,438.8231L159.8599,437.5766L160.7107,436.3323L161.5615,435.0908L162.4123,433.8525L163.2630,432.6180L164.1138,431.3878L164.9646,430.1623
            L165.8154,428.9421L166.6662,427.7276L167.5170,426.5193L168.3678,425.3178L169.2186,424.1234L170.0694,422.9366L170.9202,421.7581L171.7710,420.5881L172.6218,419.4272L173.4726,418.2758
            L174.3234,417.1345L175.1742,416.0036L176.0250,414.8837L176.8757,413.7751L177.7265,412.6783L178.5773,411.5938L179.4281,410.5219L180.2789,409.4632L181.1297,408.4180L181.9805,407.3868
            L182.8313,406.3699L183.6821,405.3678L184.5329,404.3809L185.3837,403.4096L186.2345,402.4543L187.0853,401.5153L187.9361,400.5930L188.7869,399.6878L189.6377,398.8001L190.4884,397.9301
            L191.3392,397.0784L192.1900,396.2451L193.0408,395.4307L193.8916,394.6355L194.7424,393.8597L195.5932,393.1037L196.4440,392.3678L197.2948,391.6523L198.1456,390.9575L198.9964,390.2837
            L199.8472,389.6310L200.6980,388.9999L201.5488,388.3905L202.3996,387.8031L203.2503,387.2379L204.1011,386.6951L204.9519,386.1751L205.8027,385.6778L206.6535,385.2037L207.5043,384.7528
            L208.3551,384.3254L209.2059,383.9216L210.0567,383.5415L210.9075,383.1854L211.7583,382.8534L212.6091,382.5455L213.4599,382.2620L214.3107,382.0030L215.1615,381.7684L216.0123,381.5585
            L216.8630,381.3734L217.7138,381.2130L218.5646,381.0775L219.4154,380.9669L220.2662,380.8813L221.1170,380.8207L221.9678,380.7851L222.8186,380.7745L223.6694,380.7889L224.5202,380.8284
            L225.3710,380.8929L226.2218,380.9824L227.0726,381.0969L227.9234,381.2362L228.7742,381.4004L229.6250,381.5894L230.4757,381.8031L231.3265,382.0415L232.1773,382.3043L233.0281,382.5916
            L233.8789,382.9032L234.7297,383.2390L235.5805,383.5988L236.4313,383.9826L237.2821,384.3901L238.1329,384.8211L238.9837,385.2756L239.8345,385.7534L240.6853,386.2541L241.5361,386.7777
            L242.3869,387.3240L243.2377,387.8926L244.0884,388.4835L244.9392,389.0962L245.7900,389.7307L246.6408,390.3867L247.4916,391.0638L248.3424,391.7618L249.1932,392.4805L250.0440,393.2195
            L250.8948,393.9786L251.7456,394.7574L252.5964,395.5556L253.4472,396.3730L254.2980,397.2091L255.1488,398.0637L255.9996,398.9364L256.8503,399.8269L257.7011,400.7347L258.5519,401.6596
            L259.4027,402.6012L260.2535,403.5590L261.1043,404.5328L261.9551,405.5221L262.8059,406.5265L263.6567,407.5456L264.5075,408.5790L265.3583,409.6263L266.2091,410.6871L267.0599,411.7609
            L267.9107,412.8474L268.7615,413.9460L269.6123,415.0564L270.4630,416.1781L271.3138,417.3106L272.1646,418.4535L273.0154,419.6064L273.8662,420.7687L274.7170,421.9401L275.5678,423.1199
            L276.4186,424.3079L277.2694,425.5034L278.1202,426.7061L278.9710,427.9153L279.8218,429.1308L280.6726,430.3518L281.5234,431.5781L282.3742,432.8090L283.2250,434.0441L284.0757,435.2829
            L284.9265,436.5249L285.7773,437.7695L286.6281,439.0164L287.4789,440.2650L288.3297,441.5147L289.1805,442.7652L290.0313,444.0158L290.8821,445.2661L291.7329,446.5157L292.5837,447.7639
            L293.4345,449.0103L294.2853,450.2544L295.1361,451.4956L295.9869,452.7336L296.8377,453.9678L297.6884,455.1977L298.5392,456.4228L299.3900,457.6426L300.2408,458.8566L301.0916,460.0644
            L301.9424,461.2654L302.7932,462.4592L303.6440,463.6453L304.4948,464.8233L305.3456,465.9926L306.1964,467.1527L307.0472,468.3033L307.8980,469.4439L308.7488,470.5739L309.5996,471.6930
            L310.4503,472.8007L311.3011,473.8965L312.1519,474.9801L313.0027,476.0509L313.8535,477.1086L314.7043,478.1528L315.5551,479.1829L316.4059,480.1986L317.2567,481.1995L318.1075,482.1852
            L318.9583,483.1553L319.8091,484.1094L320.6599,485.0472L321.5107,485.9681L322.3615,486.8720L323.2123,487.7584L324.0630,488.6269L324.9138,489.4772L325.7646,490.3090L326.6154,491.1220
            L327.4662,491.9157L328.3170,492.6900L329.1678,493.4444L330.0186,494.1787L330.8694,494.8926L331.7202,495.5858L332.5710,496.2580L333.4218,496.9090L334.2726,497.5385L335.1234,498.1462
            L335.9742,498.7319L336.8250,499.2954L337.6757,499.8364L338.5265,500.3547L339.3773,500.8501L340.2281,501.3224L341.0789,501.7715L341.9297,502.1971L342.7805,502.5991L343.6313,502.9773
            L344.4821,503.3316L345.3329,503.6617L346.1837,503.9677L347.0345,504.2493L347.8853,504.5065L348.7361,504.7391L349.5869,504.9471L350.4377,505.1303L351.2884,505.2888L352.1392,505.4223
            L352.9900,505.5310L353.8408,505.6147L354.6916,505.6734L355.5424,505.7071L356.3932,505.7157L357.2440,505.6993L358.0948,505.6579L358.9456,505.5914L359.7964,505.5000L360.6472,505.3836
            L361.4980,505.2423L362.3488,505.0762L363.1996,504.8853L364.0503,504.6697L364.9011,504.4294L365.7519,504.1647L366.6027,503.8755L367.4535,503.5620L368.3043,503.2244L369.1551,502.8627
            L370.0059,502.4771L370.8567,502.0678L371.7075,501.6349L372.5583,501.1786L373.4091,500.6991L374.2599,500.1965L375.1107,499.6712L375.9615,499.1232L376.8123,498.5528L377.6630,497.9603
            L378.5138,497.3458L379.3646,496.7096L380.2154,496.0520L381.0662,495.3733L381.9170,494.6737L382.7678,493.9534L383.6186,493.2128L384.4694,492.4522L385.3202,491.6719L386.1710,490.8722
            L387.0218,490.0533L387.8726,489.2158L388.7234,488.3597L389.5742,487.4857L390.4250,486.5938L391.2757,485.6846L392.1265,484.7584L392.9773,483.8156L393.8281,482.8565L394.6789,481.8815
            L395.5297,480.8911L396.3805,479.8855L397.2313,478.8653L398.0821,477.8308L398.9329,476.7824L399.7837,475.7206L400.6345,474.6458L401.4853,473.5583L402.3361,472.4588L403.1869,471.3475
            L404.0377,470.2250L404.8884,469.0916L405.7392,467.9479L406.5900,466.7943L407.4408,465.6313L408.2916,464.4593L409.1424,463.2787L409.9932,462.0902L410.8440,460.8941L411.6948,459.6909
            L412.5456,458.4811L413.3964,457.2653L414.2472,456.0438L415.0980,454.8172L415.9488,453.5859L416.7996,452.3505L417.6503,451.1114L418.5011,449.8692L419.3519,448.6244L420.2027,447.3774
            L421.0535,446.1287L421.9043,444.8789L422.7551,443.6284L423.6059,442.3777L424.4567,441.1275L425.3075,439.8780L426.1583,438.6299L427.0091,437.3837L427.8599,436.1398L428.7107,434.8987
            L429.5615,433.6611L430.4123,432.4272L431.2630,431.1977L432.1138,429.9730L432.9646,428.7536L433.8154,427.5400L434.6662,426.3328L435.5170,425.1323L436.3678,423.9390L437.2186,422.7535
            L438.0694,421.5763L438.9202,420.4077L439.7710,419.2482L440.6218,418.0984L441.4726,416.9586L442.3234,415.8294L443.1742,414.7112L444.0250,413.6044L444.8757,412.5095L445.7265,411.4269
            L446.5773,410.3571L447.4281,409.3004L448.2789,408.2574L449.1297,407.2283L449.9805,406.2137L450.8313,405.2140L451.6821,404.2295L452.5329,403.2606L453.3837,402.3077L454.2345,401.3713
            L455.0853,400.4516L455.9361,399.5491L456.7869,398.6641L457.6377,397.7970L458.4884,396.9481L459.3392,396.1177L460.1900,395.3063L461.0408,394.5140L461.8916,393.7413L462.7424,392.9884
            L463.5932,392.2557L464.4440,391.5434L465.2948,390.8518L466.1456,390.1812L466.9964,389.5319L467.8472,388.9041L468.6980,388.2981L469.5488,387.7141L470.3996,387.1523L471.2503,386.6131
            L472.1011,386.0965L472.9519,385.6029L473.8027,385.1323L474.6535,384.6851L475.5043,384.2613L476.3551,383.8611L477.2059,383.4848L478.0567,383.1324L478.9075,382.8041L479.7583,382.5000
            L480.6091,382.2203L481.4599,381.9650L482.3107,381.7343L483.1615,381.5282L484.0123,381.3469L484.8630,381.1904L485.7138,381.0588L486.5646,380.9520L487.4154,380.8703L488.2662,380.8135
            L489.1170,380.7818L489.9678,380.7751L490.8186,380.7934L491.6694,380.8368L492.5202,380.9052L493.3710,380.9985L494.2218,381.1168L495.0726,381.2600L495.9234,381.4281L496.7742,381.6209
            L497.6250,381.8385L498.4757,382.0806L499.3265,382.3472L500.1773,382.6383L501.0281,382.9537L501.8789,383.2932L502.7297,383.6567L503.5805,384.0441L504.4313,384.4553L505.2821,384.8900
            L506.1329,385.3481L506.9837,385.8294L507.8345,386.3337L508.6853,386.8609L509.5361,387.4106L510.3869,387.9827L511.2377,388.5769L512.0884,389.1931L512.9392,389.8309L513.7900,390.4902
            L514.6408,391.1705L515.4916,391.8718L516.3424,392.5936L517.1932,393.3358L518.0440,394.0979L518.8948,394.8798L519.7456,395.6810L520.5964,396.5013L521.4472,397.3403L522.2980,398.1977
            L523.1488,399.0732L523.9996,399.9664L524.8503,400.8769L525.7011,401.8044L526.5519,402.7485L527.4027,403.7088L528.2535,404.6850L529.1043,405.6767L529.9551,406.6834L530.8059,407.7047
            L531.6567,408.7403L532.5075,409.7898L533.3583,410.8526L534.2091,411.9284L535.0599,413.0168L535.9107,414.1173L536.7615,415.2294L537.6123,416.3528L538.4630,417.4870L539.3138,418.6315
            L540.1646,419.7858L541.0154,420.9496L541.8662,422.1223L542.7170,423.3034L543.5678,424.4926L544.4186,425.6892L545.2694,426.8930L546.1202,428.1032L546.9710,429.3195L547.8218,430.5414
            L548.6726,431.7684L549.5234,433.0000L550.3742,434.2357L551.2250,435.4751L552.0757,436.7175L552.9265,437.9625L553.7773,439.2097L554.6281,440.4585L555.4789,441.7084L556.3297,442.9589
            L557.1805,444.2095L558.0313,445.4597L558.8821,446.7091L559.7329,447.9571L560.5837,449.2031L561.4345,450.4468L562.2853,451.6876L563.1361,452.9251L563.9869,454.1586L564.8377,455.3878
            L565.6884,456.6121L566.5392,457.8310L567.3900,459.0441L568.2408,460.2509L569.0916,461.4508L569.9424,462.6435L570.7932,463.8283L571.6440,465.0050L572.4948,466.1729L573.3456,467.3316
            L574.1964,468.4806L575.0472,469.6196L575.8980,470.7480L576.7488,471.8653L577.5996,472.9712L578.4503,474.0652L579.3011,475.1468L580.1519,476.2156L581.0027,477.2713L581.8535,478.3132
            L582.7043,479.3412L583.5551,480.3546L584.4059,481.3532L585.2567,482.3365L586.1075,483.3042L586.9583,484.2558L587.8091,485.1909L588.6599,486.1093L589.5107,487.0104L590.3615,487.8941
            L591.2123,488.7598L592.0630,489.6073L592.9138,490.4362L593.7646,491.2462L594.6154,492.0369L595.4662,492.8081L596.3170,493.5595L597.1678,494.2906L598.0186,495.0013L598.8694,495.6913
            L599.7202,496.3603L600.5710,497.0079L601.4218,497.6340L602.2726,498.2384L603.1234,498.8206L603.9742,499.3806L604.8250,499.9181L605.6757,500.4329L606.5265,500.9248L607.3773,501.3935
            L608.2281,501.8390L609.0789,502.2609L609.9297,502.6593L610.7805,503.0337L611.6313,503.3843L612.4821,503.7107L613.3329,504.0129L614.1837,504.2908L615.0345,504.5441L615.8853,504.7729
            L616.7361,504.9771L617.5869,505.1565L618.4377,505.3111L619.2884,505.4408L620.1392,505.5456L620.9900,505.6254L621.8408,505.6802L622.6916,505.7100L623.5424,505.7148L624.3932,505.6945
            L625.2440,505.6492L626.0948,505.5789L626.9456,505.4836L627.7964,505.3634L628.6472,505.2182L629.4980,505.0483L630.3488,504.8535L631.1996,504.6341L632.0503,504.3900L632.9011,504.1215
            L633.7519,503.8285L634.6027,503.5113L635.4535,503.1699L636.3043,502.8045L637.1551,502.4153L638.0059,502.0023L638.8567,501.5657L639.7075,501.1058L640.5583,500.6227L641.4091,500.1167
            L642.2599,499.5878L643.1107,499.0363L643.9615,498.4625L644.8123,497.8665L645.6630,497.2487L646.5138,496.6092L647.3646,495.9483L648.2154,495.2663L649.0662,494.5634L649.9170,493.8400
            L650.7678,493.0963L651.6186,492.3326L652.4694,491.5493L653.3202,490.7466L654.1710,489.9248L655.0218,489.0844L655.8726,488.2255L656.7234,487.3487L657.5742,486.4541L658.4250,485.5423
            L659.2757,484.6135L660.1265,483.6681L660.9773,482.7065L661.8281,481.7291L662.6789,480.7363L663.5297,479.7284L664.3805,478.7060L665.2313,477.6693L666.0821,476.6188L666.9329,475.5549
            L667.7837,474.4781L668.6345,473.3888L669.4853,472.2874L670.3361,471.1744L671.1869,470.0501L672.0377,468.9151L672.8884,467.7699L673.7392,466.6148L674.5900,465.4503L675.4408,464.2769
            L676.2916,463.0952L677.1424,461.9054L677.9932,460.7082L678.8440,459.5039L679.6948,458.2932L680.5456,457.0764L681.3964,455.8541L682.2472,454.6267L683.0980,453.3948L683.9488,452.1588
            L684.2635,451.7002"/>
  </g>
  <g style="fill:none; stroke:#000000; stroke-width:  2.2311; stroke-linecap:butt; stroke-linejoin:miter; stroke-dasharray:none">
   <path d="M89.2440,89.2440L684.2040,89.2440"/>
   <path d="M89.2440,505.7160L684.2040,505.7160"/>
  </g>
  <g style="fill:none; stroke:#000000; stroke-width:  0.8924; stroke-linecap:butt; stroke-linejoin:miter; stroke-dasharray:none">
   <path d="M174.2383,89.2440L174.2383,95.1936"/>
   <path d="M174.2383,505.7160L174.2383,499.7664"/>
   <path d="M344.2269,89.2440L344.2269,95.1936"/>
   <path d="M344.2269,505.7160L344.2269,499.7664"/>
   <path d="M514.2154,89.2440L514.2154,95.1936"/>
   <path d="M514.2154,505.7160L514.2154,499.7664"/>
   <path d="M684.2040,89.2440L684.2040,95.1936"/>
   <path d="M684.2040,505.7160L684.2040,499.7664"/>
   <path d="M89.2440,89.2440L89.2440,101.1432"/>
   <path d="M89.2440,505.7160L89.2440,493.8168"/>
   <path d="M259.2326,89.2440L259.2326,101.1432"/>
   <path d="M259.2326,505.7160L259.2326,493.8168"/>
   <path d="M429.2211,89.2440L429.2211,101.1432"/>
   <path d="M429.2211,505.7160L429.2211,493.8168"/>
   <path d="M599.2097,89.2440L599.2097,101.1432"/>
   <path d="M599.2097,505.7160L599.2097,493.8168"/>
  </g>
  <g style="fill:#000000; fill-rule:nonzero">
   <text   style="font-family:'Times','Nimbus Roman No9 L'; font-style:normal; font-weight:normal; font-size:594.9600" transform="matrix(0.0448,0.0000,-0.0000,-0.0448,82.8840,65.0544)">0</text>
   <text   style="font-family:'Times','Nimbus Roman No9 L'; font-style:normal; font-weight:normal; font-size:594.9600" transform="matrix(0.0448,0.0000,-0.0000,-0.0448,252.8726,65.0544)">2</text>
   <text   style="font-family:'Times','Nimbus Roman No9 L'; font-style:normal; font-weight:normal; font-size:594.9600" transform="matrix(0.0448,0.0000,-0.0000,-0.0448,422.9811,65.0544)">4</text>
   <text   style="font-family:'Times','Nimbus Roman No9 L'; font-style:normal; font-weight:normal; font-size:594.9600" transform="matrix(0.0448,0.0000,-0.0000,-0.0448,592.9697,65.0544)">6</text>
  </g>
  <g style="fill:none; stroke:#000000; stroke-width:  2.2311; stroke-linecap:butt; stroke-linejoin:miter; stroke-dasharray:none">
   <path d="M89.2440,89.2440L89.2440,505.7160"/>
   <path d="M684.2040,89.2440L684.2040,505.7160"/>
  </g>
  <g style="fill:none; stroke:#000000; stroke-width:  1.7849; stroke-linecap:butt; stroke-linejoin:miter; stroke-dasharray:none">
   <path d="M89.2440,89.2440L101.1432,89.2440"/>
   <path d="M684.2040,89.2440L672.3048,89.2440"/>
   <path d="M89.2440,172.5384L101.1432,172.5384"/>
   <path d="M684.2040,172.5384L672.3048,172.5384"/>
   <path d="M89.2440,255.8328L101.1432,255.8328"/>
   <path d="M684.2040,255.8328L672.3048,255.8328"/>
   <path d="M89.2440,339.1272L101.1432,339.1272"/>
   <path d="M684.2040,339.1272L672.3048,339.1272"/>
   <path d="M89.2440,422.4216L101.1432,422.4216"/>
   <path d="M684.2040,422.4216L672.3048,422.4216"/>
   <path d="M89.2440,505.7160L101.1432,505.7160"/>
   <path d="M684.2040,505.7160L672.3048,505.7160"/>
  </g>
  <g style="fill:#000000; fill-rule:nonzero">
   <text   style="font-family:'Times','Nimbus Roman No9 L'; font-style:normal; font-weight:normal; font-size:594.9600" transform="matrix(0.0448,0.0000,-0.0000,-0.0448,70.5744,80.3640)">0</text>
   <text   style="font-family:'Times','Nimbus Roman No9 L'; font-style:normal; font-weight:normal; font-size:594.9600" transform="matrix(0.0448,0.0000,-0.0000,-0.0448,50.6544,165.3384)">0,2</text>
   <text   style="font-family:'Times','Nimbus Roman No9 L'; font-style:normal; font-weight:normal; font-size:594.9600" transform="matrix(0.0448,0.0000,-0.0000,-0.0448,50.8944,248.6328)">0,4</text>
   <text   style="font-family:'Times','Nimbus Roman No9 L'; font-style:normal; font-weight:normal; font-size:594.9600" transform="matrix(0.0448,0.0000,-0.0000,-0.0448,50.8944,331.9272)">0,6</text>
   <text   style="font-family:'Times','Nimbus Roman No9 L'; font-style:normal; font-weight:normal; font-size:594.9600" transform="matrix(0.0448,0.0000,-0.0000,-0.0448,51.6144,415.2216)">0,8</text>
   <text   style="font-family:'Times','Nimbus Roman No9 L'; font-style:normal; font-weight:normal; font-size:594.9600" transform="matrix(0.0448,0.0000,-0.0000,-0.0448,72.7344,496.7160)">1</text>
  </g>
  <g style="fill:none; stroke:#000000; stroke-width:  0.8924; stroke-linecap:butt; stroke-linejoin:miter; stroke-dasharray:none">
   <path d="M89.2440,89.2440L89.2440,505.7160L684.2040,505.7160L684.2040,89.2440z"/>
  </g>
 </g>
</svg>
