<?xml version="1.0" encoding="UTF-8" standalone="no"?>
<!-- Created with Inkscape (http://www.inkscape.org/) -->

<svg
   xmlns:dc="http://purl.org/dc/elements/1.1/"
   xmlns:cc="http://creativecommons.org/ns#"
   xmlns:rdf="http://www.w3.org/1999/02/22-rdf-syntax-ns#"
   xmlns:svg="http://www.w3.org/2000/svg"
   xmlns="http://www.w3.org/2000/svg"
   xmlns:sodipodi="http://sodipodi.sourceforge.net/DTD/sodipodi-0.dtd"
   xmlns:inkscape="http://www.inkscape.org/namespaces/inkscape"
   width="217.21992mm"
   height="85.335335mm"
   viewBox="0 0 769.6769 302.36929"
   id="svg4927"
   version="1.1"
   inkscape:version="0.92.3 (2405546, 2018-03-11)"
   sodipodi:docname="10_Gausstau.svg">
  <defs
     id="defs4929">
    <marker
       inkscape:stockid="Arrow1Mstart"
       orient="auto"
       refY="0"
       refX="0"
       id="Arrow1Mstart-17"
       style="overflow:visible">
      <path
         inkscape:connector-curvature="0"
         id="path4575-70"
         d="M 0,0 5,-5 -12.5,0 5,5 0,0 Z"
         style="fill-rule:evenodd;stroke:#000000;stroke-width:1pt"
         transform="matrix(0.4,0,0,0.4,4,0)" />
    </marker>
    <marker
       inkscape:stockid="Arrow1Mend"
       orient="auto"
       refY="0"
       refX="0"
       id="Arrow1Mend-76"
       style="overflow:visible">
      <path
         inkscape:connector-curvature="0"
         id="path4578-4"
         d="M 0,0 5,-5 -12.5,0 5,5 0,0 Z"
         style="fill-rule:evenodd;stroke:#000000;stroke-width:1pt"
         transform="matrix(-0.4,0,0,-0.4,-4,0)" />
    </marker>
    <marker
       inkscape:stockid="Arrow1Mstart"
       orient="auto"
       refY="0"
       refX="0"
       id="Arrow1Mstart-17-3"
       style="overflow:visible">
      <path
         inkscape:connector-curvature="0"
         id="path4575-70-6"
         d="M 0,0 5,-5 -12.5,0 5,5 0,0 Z"
         style="fill-rule:evenodd;stroke:#000000;stroke-width:1pt"
         transform="matrix(0.4,0,0,0.4,4,0)" />
    </marker>
    <marker
       inkscape:stockid="Arrow1Mend"
       orient="auto"
       refY="0"
       refX="0"
       id="Arrow1Mend-76-7"
       style="overflow:visible">
      <path
         inkscape:connector-curvature="0"
         id="path4578-4-5"
         d="M 0,0 5,-5 -12.5,0 5,5 0,0 Z"
         style="fill-rule:evenodd;stroke:#000000;stroke-width:1pt"
         transform="matrix(-0.4,0,0,-0.4,-4,0)" />
    </marker>
  </defs>
  <sodipodi:namedview
     id="base"
     pagecolor="#ffffff"
     bordercolor="#666666"
     borderopacity="1.0"
     inkscape:pageopacity="0.0"
     inkscape:pageshadow="2"
     inkscape:zoom="1.299898"
     inkscape:cx="523.3391"
     inkscape:cy="191.33406"
     inkscape:document-units="px"
     inkscape:current-layer="layer1"
     showgrid="false"
     fit-margin-top="0"
     fit-margin-left="0"
     fit-margin-right="0"
     fit-margin-bottom="0"
     inkscape:window-width="1920"
     inkscape:window-height="1016"
     inkscape:window-x="0"
     inkscape:window-y="0"
     inkscape:window-maximized="1"
     showguides="false">
    <sodipodi:guide
       position="304.63015,277.87673"
       orientation="-0.70710678,0.70710678"
       id="guide4373"
       inkscape:locked="false" />
  </sodipodi:namedview>
  <metadata
     id="metadata4932">
    <rdf:RDF>
      <cc:Work
         rdf:about="">
        <dc:format>image/svg+xml</dc:format>
        <dc:type
           rdf:resource="http://purl.org/dc/dcmitype/StillImage" />
        <dc:title></dc:title>
      </cc:Work>
    </rdf:RDF>
  </metadata>
  <g
     inkscape:label="Layer 1"
     inkscape:groupmode="layer"
     id="layer1"
     transform="translate(-410.651,-21.131408)">
    <g
       id="g92">
      <text
         style="font-size:18.33284569px;line-height:0%;font-family:Times;fill:#000000;stroke-width:2;stroke-miterlimit:4;stroke-dasharray:none"
         id="text208-0"
         font-size="10px"
         y="216.89912"
         x="1166.6136">
        <tspan
           style="font-style:normal;font-variant:normal;font-weight:normal;font-stretch:normal;font-size:25.20766258px;font-family:'Nimbus Roman No9 L';-inkscape-font-specification:'Nimbus Roman No9 L'"
           id="tspan4720-93">$\zeta$</tspan>
      </text>
      <text
         style="font-size:18.33284569px;line-height:0%;font-family:Times;fill:#000000;stroke-width:2;stroke-miterlimit:4;stroke-dasharray:none"
         id="text208-5-6"
         font-size="10px"
         y="77.147934"
         x="849.08862">
        <tspan
           style="font-style:normal;font-variant:normal;font-weight:normal;font-stretch:normal;font-size:25.20766258px;font-family:'Nimbus Roman No9 L';-inkscape-font-specification:'Nimbus Roman No9 L'"
           id="tspan4720-9-0">$\tau$</tspan>
      </text>
      <text
         id="text5306-6"
         y="173.92558"
         x="837.6311"
         style="font-style:normal;font-variant:normal;font-weight:normal;font-stretch:normal;line-height:0%;font-family:msbm10;-inkscape-font-specification:msbm10;letter-spacing:0px;word-spacing:0px;fill:#000000;fill-opacity:1;stroke:none;stroke-width:1px;stroke-linecap:butt;stroke-linejoin:miter;stroke-opacity:1"
         xml:space="preserve"><tspan
           style="font-style:normal;font-variant:normal;font-weight:normal;font-stretch:normal;font-size:25.20766258px;line-height:1.25;font-family:'Nimbus Roman No9 L';-inkscape-font-specification:'Nimbus Roman No9 L'"
           y="173.92558"
           x="837.6311"
           id="tspan5308-2"
           sodipodi:role="line">$\sigma_0$</tspan></text>
      <text
         inkscape:transform-center-y="-24.041631"
         inkscape:transform-center-x="-31.112698"
         id="text5306-8-6"
         y="39.457378"
         x="1124.4081"
         style="font-style:normal;font-variant:normal;font-weight:normal;font-stretch:normal;line-height:0%;font-family:msbm10;-inkscape-font-specification:msbm10;letter-spacing:0px;word-spacing:0px;fill:#000000;fill-opacity:1;stroke:none;stroke-width:1px;stroke-linecap:butt;stroke-linejoin:miter;stroke-opacity:1"
         xml:space="preserve"><tspan
           style="font-style:normal;font-variant:normal;font-weight:normal;font-stretch:normal;font-size:25.20766258px;line-height:1.25;font-family:'Nimbus Roman No9 L';-inkscape-font-specification:'Nimbus Roman No9 L'"
           y="39.457378"
           x="1124.4081"
           id="tspan5308-5-1"
           sodipodi:role="line">$\sigma(\zeta)$</tspan></text>
      <text
         id="text4587-3-8"
         y="119.2509"
         x="877.36975"
         style="font-style:normal;font-weight:normal;line-height:0%;font-family:sans-serif;letter-spacing:0px;word-spacing:0px;fill:#000000;fill-opacity:1;stroke:none"
         xml:space="preserve"><tspan
           style="font-style:normal;font-variant:normal;font-weight:normal;font-stretch:normal;font-size:25.20766258px;line-height:1.25;font-family:'Nimbus Roman No9 L';-inkscape-font-specification:'Nimbus Roman No9 L'"
           y="119.2509"
           x="877.36975"
           id="tspan4589-3-7"
           sodipodi:role="line">$\zeta_0$</tspan></text>
      <text
         style="font-size:18.33284569px;line-height:0%;font-family:Times;fill:#000000;stroke-width:2;stroke-miterlimit:4;stroke-dasharray:none"
         id="text208"
         font-size="10px"
         y="216.89912"
         x="750.41071">
        <tspan
           style="font-style:normal;font-variant:normal;font-weight:normal;font-stretch:normal;font-size:25.20766258px;font-family:'Nimbus Roman No9 L';-inkscape-font-specification:'Nimbus Roman No9 L'"
           id="tspan4720">$z$</tspan>
      </text>
      <text
         style="font-size:18.33284569px;line-height:0%;font-family:Times;fill:#000000;stroke-width:2;stroke-miterlimit:4;stroke-dasharray:none"
         id="text208-5"
         font-size="10px"
         y="77.147934"
         x="432.88562">
        <tspan
           style="font-style:normal;font-variant:normal;font-weight:normal;font-stretch:normal;font-size:25.20766258px;font-family:'Nimbus Roman No9 L';-inkscape-font-specification:'Nimbus Roman No9 L'"
           id="tspan4720-9">$r$</tspan>
      </text>
      <text
         id="text5306"
         y="173.92558"
         x="421.4281"
         style="font-style:normal;font-variant:normal;font-weight:normal;font-stretch:normal;line-height:0%;font-family:msbm10;-inkscape-font-specification:msbm10;letter-spacing:0px;word-spacing:0px;fill:#000000;fill-opacity:1;stroke:none;stroke-width:1px;stroke-linecap:butt;stroke-linejoin:miter;stroke-opacity:1"
         xml:space="preserve"><tspan
           style="font-style:normal;font-variant:normal;font-weight:normal;font-stretch:normal;font-size:25.20766258px;line-height:1.25;font-family:'Nimbus Roman No9 L';-inkscape-font-specification:'Nimbus Roman No9 L'"
           y="173.92558"
           x="421.4281"
           id="tspan5308"
           sodipodi:role="line">$w_0$</tspan></text>
      <text
         inkscape:transform-center-y="-24.041631"
         inkscape:transform-center-x="-31.112698"
         id="text5306-8"
         y="39.457378"
         x="708.20514"
         style="font-style:normal;font-variant:normal;font-weight:normal;font-stretch:normal;line-height:0%;font-family:msbm10;-inkscape-font-specification:msbm10;letter-spacing:0px;word-spacing:0px;fill:#000000;fill-opacity:1;stroke:none;stroke-width:1px;stroke-linecap:butt;stroke-linejoin:miter;stroke-opacity:1"
         xml:space="preserve"><tspan
           style="font-style:normal;font-variant:normal;font-weight:normal;font-stretch:normal;font-size:25.20766258px;line-height:1.25;font-family:'Nimbus Roman No9 L';-inkscape-font-specification:'Nimbus Roman No9 L'"
           y="39.457378"
           x="708.20514"
           id="tspan5308-5"
           sodipodi:role="line">$w(z)$</tspan></text>
      <text
         id="text4587-3"
         y="119.2509"
         x="461.16684"
         style="font-style:normal;font-weight:normal;line-height:0%;font-family:sans-serif;letter-spacing:0px;word-spacing:0px;fill:#000000;fill-opacity:1;stroke:none"
         xml:space="preserve"><tspan
           style="font-style:normal;font-variant:normal;font-weight:normal;font-stretch:normal;font-size:25.20766258px;line-height:1.25;font-family:'Nimbus Roman No9 L';-inkscape-font-specification:'Nimbus Roman No9 L'"
           y="119.2509"
           x="461.16684"
           id="tspan4589-3"
           sodipodi:role="line">$z_0$</tspan></text>
    </g>
    <g
       id="g147">
      <g
         id="g129">
        <polyline
           points="74.1,56.2125 409.608,56.2125 "
           id="polyline194-5"
           style="fill:none;stroke:#000000;stroke-width:2.07214475;stroke-miterlimit:4;stroke-dasharray:none;stroke-opacity:1"
           transform="matrix(0.98441029,0,0,0.94633224,762.64138,131.2133)" />
        <path
           transform="matrix(1.8318938,0,0,2.953207,383.43187,18.179179)"
           style="fill:none;stroke:#0000d4;stroke-width:1.28980529;stroke-miterlimit:4;stroke-dasharray:none;stroke-opacity:1"
           d="m 246.786,45.0807 0.105,-1e-4 0.105,-3e-4 0.105,-3e-4 0.105,-4e-4 0.105,-4e-4 0.104,-5e-4 0.105,-6e-4 0.105,-7e-4 0.105,-7e-4 0.105,-7e-4 0.105,-9e-4 0.209,-0.0019 0.105,-10e-4 0.105,-0.0011 0.21,-0.0024 0.105,-0.0013 0.105,-0.0014 0.209,-0.0029 0.105,-0.0016 0.105,-0.0016 0.21,-0.0034 0.419,-0.0077 0.114,-0.0023 0.114,-0.0023 0.227,-0.0049 0.455,-0.0108 0.114,-0.0029 0.114,-0.0029 0.227,-0.0061 0.455,-0.0132 0.114,-0.0035 0.114,-0.0036 0.227,-0.0073 0.455,-0.0156 0.91,-0.0349 0.114,-0.0047 0.114,-0.0047 0.228,-0.0098 0.455,-0.0204 0.91,-0.0443 0.113,-0.0059 0.114,-0.0059 0.228,-0.0121 0.455,-0.0251 0.91,-0.0536 0.106,-0.0066 0.106,-0.0066 0.212,-0.0134 0.425,-0.0276 0.849,-0.058 1.699,-0.1275 0.106,-0.0085 0.106,-0.0085 0.212,-0.0172 0.425,-0.0352 0.849,-0.073 1.699,-0.1568 0.115,-0.0111 0.115,-0.0112 0.23,-0.0226 0.46,-0.0458 0.921,-0.0947 1.841,-0.201 3.682,-0.4453 0.112,-0.0145 0.113,-0.0146 0.226,-0.0293 0.452,-0.0592 0.904,-0.1207 1.807,-0.2505 3.615,-0.5345 6.743,-1.102 7.312,-1.3217 6.826,-1.3273 6.691,-1.37 7.261,-1.5478 6.775,-1.4899 7.344,-1.6554 6.857,-1.5763 6.723,-1.569 7.293,-1.7237 6.806,-1.626 7.376,-1.7777 7.241,-1.7588 6.755,-1.6509 7.325,-1.7997 6.838,-1.688 6.703,-1.6613 7.273,-1.8087 6.787,-1.693 0.118,-0.0296 0.119,-0.0296 0.237,-0.0591 0.473,-0.1183 0.947,-0.2367 1.894,-0.4736 0.118,-0.0296 0.119,-0.0297 0.237,-0.0592 0.473,-0.1185 0.947,-0.237 0.118,-0.0296 0.119,-0.0297 0.237,-0.0592 0.473,-0.1186 0.118,-0.0296 0.119,-0.0297 0.236,-0.0593 0.119,-0.0296 0.118,-0.0297 0.119,-0.0296 0.118,-0.0297"
           id="polyline158-6"
           inkscape:connector-curvature="0"
           sodipodi:nodetypes="ccccccccccccccccccccccccccccccccccccccccccccccccccccccccccccccccccccccccccccccccccccccccccccccccccccccccccccccccc" />
        <path
           transform="matrix(1.8318938,0,0,2.953207,383.43187,18.179179)"
           style="fill:none;stroke:#0000d4;stroke-width:1.28980529;stroke-miterlimit:4;stroke-dasharray:none;stroke-opacity:1"
           d="m 246.577,67.3441 0.104,1e-4 0.105,1e-4 0.105,10e-5 0.105,3e-4 0.105,3e-4 0.105,4e-4 0.105,4e-4 0.104,5e-4 0.105,6e-4 0.105,7e-4 0.105,7e-4 0.105,7e-4 0.105,9e-4 0.209,0.0019 0.105,0.001 0.105,0.0011 0.21,0.0024 0.105,0.0013 0.105,0.0014 0.209,0.0029 0.105,0.0016 0.105,0.0016 0.21,0.0034 0.419,0.0077 0.114,0.0023 0.114,0.0023 0.227,0.0049 0.455,0.0108 0.114,0.0029 0.114,0.0029 0.227,0.0061 0.455,0.0132 0.114,0.0035 0.114,0.0036 0.227,0.0073 0.455,0.0156 0.91,0.0349 0.114,0.0047 0.114,0.0047 0.228,0.0098 0.455,0.0204 0.91,0.0443 0.113,0.0059 0.114,0.0059 0.228,0.0121 0.455,0.0251 0.91,0.0536 0.106,0.0066 0.106,0.0066 0.212,0.0134 0.425,0.0276 0.849,0.058 1.699,0.1275 0.106,0.0085 0.106,0.0085 0.212,0.0172 0.425,0.0352 0.849,0.073 1.699,0.1568 0.115,0.0111 0.115,0.0112 0.23,0.0226 0.46,0.0458 0.921,0.0947 1.841,0.201 3.682,0.4453 0.112,0.0145 0.113,0.0146 0.226,0.0293 0.452,0.0592 0.904,0.1207 1.807,0.2505 3.615,0.5345 6.743,1.102 7.312,1.3217 6.826,1.3273 6.691,1.37 7.261,1.5478 6.775,1.4899 7.344,1.6554 6.857,1.5763 6.723,1.569 7.293,1.7237 6.806,1.626 7.376,1.7777 7.241,1.7588 6.755,1.6509 7.325,1.7997 6.838,1.688 6.703,1.6613 7.273,1.8087 6.787,1.6929 0.118,0.03 0.119,0.029 0.237,0.059 0.473,0.119 0.947,0.236 1.894,0.474 0.118,0.03 0.119,0.029 0.237,0.059 0.473,0.119 0.947,0.237 0.118,0.03 0.119,0.029 0.237,0.06 0.473,0.118 0.118,0.03 0.119,0.029 0.236,0.06 0.119,0.029 0.118,0.03 0.119,0.03 0.118,0.029"
           id="polyline160-2"
           inkscape:connector-curvature="0"
           sodipodi:nodetypes="ccccccccccccccccccccccccccccccccccccccccccccccccccccccccccccccccccccccccccccccccccccccccccccccccccccccccccccccccccc" />
        <polygon
           points="409.466,56.9463 409.313,57.4119 409.137,57.8873 408.805,58.699 408.653,59.0443 419,56.2125 408.653,53.4896 408.653,53.4896 408.805,53.7993 409.137,54.5423 409.313,54.9891 409.466,55.4396 409.572,55.8591 409.608,56.2125 409.572,56.5324 "
           id="polygon201-1"
           style="opacity:1;fill:#000000;fill-rule:evenodd;stroke:none"
           transform="matrix(1.8318938,0,0,2.953207,412.76442,18.179179)" />
        <path
           style="fill:none;stroke:#000000;stroke-width:2;stroke-linecap:butt;stroke-linejoin:miter;stroke-miterlimit:4;stroke-dasharray:none;stroke-opacity:1;marker-start:url(#Arrow1Mstart-17-3);marker-end:url(#Arrow1Mend-76-7)"
           d="m 932.2712,126.46587 -1.4161,0.007 -91.3255,0.48029"
           id="path6432-6-7"
           inkscape:connector-curvature="0"
           sodipodi:nodetypes="ccc" />
      </g>
      <g
         id="g122">
        <polygon
           points="409.572,56.5324 409.466,56.9463 409.313,57.4119 409.137,57.8873 408.805,58.699 408.653,59.0443 419,56.2125 408.653,53.4896 408.653,53.4896 408.805,53.7993 409.137,54.5423 409.313,54.9891 409.466,55.4396 409.572,55.8591 409.608,56.2125 "
           id="polygon201-6-2"
           style="opacity:1;fill:#000000;fill-rule:evenodd;stroke:none"
           transform="matrix(0,-1.8318938,2.953207,0,668.8881,823.7308)" />
        <polyline
           points="246.55,99.325 246.55,99.2986 246.55,99.2721 246.55,99.2192 246.55,99.1134 246.55,98.9019 246.55,98.4788 246.55,97.6325 246.55,95.7977 246.55,94.0844 246.55,92.4048 246.55,90.5828 246.55,88.8824 246.55,87.0396 246.55,85.2304 246.55,83.5428 246.55,81.7129 246.55,80.0046 246.55,78.3298 246.55,76.5127 246.55,74.8172 246.55,72.9793 246.55,71.1751 246.55,69.4924 246.55,67.6674 246.55,65.9639 246.55,64.1181 246.55,62.3059 246.55,60.6153 246.55,58.7823 246.55,57.071 246.55,55.3932 246.55,53.5731 246.55,51.8745 246.55,50.0336 246.55,48.2263 246.55,46.5406 246.55,44.7126 246.55,43.0061 246.55,41.3332 246.55,39.518 246.55,37.8243 246.55,35.9884 246.55,34.2739 246.55,32.5931 246.55,30.77 246.55,29.0684 246.55,27.2245 246.55,25.4142 246.55,23.7254 246.55,21.8943 246.55,20.1848 246.55,18.5089 246.55,16.6907 246.55,14.994 246.55,14.9644 246.55,14.9348 246.55,14.8756 246.55,14.7572 246.55,14.5205 246.55,14.047 246.55,14.0174 246.55,13.9878 246.55,13.9286 246.55,13.8102 246.55,13.5735 246.55,13.5439 246.55,13.5143 246.55,13.4551 246.55,13.3367 246.55,13.3072 246.55,13.2776 246.55,13.2184 246.55,13.1888 246.55,13.1592 246.55,13.1296 246.55,13.1 "
           id="polyline52-9"
           style="fill:none;stroke:#000000;stroke-width:0.8598702;stroke-miterlimit:4;stroke-dasharray:none;stroke-dashoffset:0;stroke-opacity:1"
           transform="matrix(1.8318938,0,0,2.953207,383.43187,20.179179)" />
        <polyline
           points="74.1,56.2125 409.608,56.2125 "
           id="polyline194"
           style="fill:none;stroke:#000000;stroke-width:2.06666684;stroke-miterlimit:4;stroke-dasharray:none;stroke-opacity:1"
           transform="matrix(0.98701952,0,0,0.94884054,345.36966,131.0723)" />
        <path
           transform="matrix(1.8318938,0,0,2.953207,-32.77109,18.179179)"
           style="fill:none;stroke:#d40000;stroke-width:1.28980529;stroke-miterlimit:4;stroke-dasharray:none;stroke-opacity:1"
           d="m 246.472,45.0809 h 0.105 l 0.104,-10e-5 0.105,-1e-4 0.105,-1e-4 0.105,-3e-4 0.105,-3e-4 0.105,-4e-4 0.105,-4e-4 0.104,-5e-4 0.105,-6e-4 0.105,-7e-4 0.105,-7e-4 0.105,-7e-4 0.105,-9e-4 0.209,-0.0019 0.105,-10e-4 0.105,-0.0011 0.21,-0.0024 0.105,-0.0013 0.105,-0.0014 0.209,-0.0029 0.105,-0.0016 0.105,-0.0016 0.21,-0.0034 0.419,-0.0077 0.114,-0.0023 0.114,-0.0023 0.227,-0.0049 0.455,-0.0108 0.114,-0.0029 0.114,-0.0029 0.227,-0.0061 0.455,-0.0132 0.114,-0.0035 0.114,-0.0036 0.227,-0.0073 0.455,-0.0156 0.91,-0.0349 0.114,-0.0047 0.114,-0.0047 0.228,-0.0098 0.455,-0.0204 0.91,-0.0443 0.113,-0.0059 0.114,-0.0059 0.228,-0.0121 0.455,-0.0251 0.91,-0.0536 0.106,-0.0066 0.106,-0.0066 0.212,-0.0134 0.425,-0.0276 0.849,-0.058 1.699,-0.1275 0.106,-0.0085 0.106,-0.0085 0.212,-0.0172 0.425,-0.0352 0.849,-0.073 1.699,-0.1568 0.115,-0.0111 0.115,-0.0112 0.23,-0.0226 0.46,-0.0458 0.921,-0.0947 1.841,-0.201 3.682,-0.4453 0.112,-0.0145 0.113,-0.0146 0.226,-0.0293 0.452,-0.0592 0.904,-0.1207 1.807,-0.2505 3.615,-0.5345 6.743,-1.102 7.312,-1.3217 6.826,-1.3273 6.691,-1.37 7.261,-1.5478 6.775,-1.4899 7.344,-1.6554 6.857,-1.5763 6.723,-1.569 7.293,-1.7237 6.806,-1.626 7.376,-1.7777 7.241,-1.7588 6.755,-1.6509 7.325,-1.7997 6.838,-1.688 6.703,-1.6613 7.273,-1.8087 6.787,-1.693 0.118,-0.0296 0.119,-0.0296 0.237,-0.0591 0.473,-0.1183 0.947,-0.2367 1.894,-0.4736 0.118,-0.0296 0.119,-0.0297 0.237,-0.0592 0.473,-0.1185 0.947,-0.237 0.118,-0.0296 0.119,-0.0297 0.237,-0.0592 0.473,-0.1186 0.118,-0.0296 0.119,-0.0297 0.236,-0.0593 0.119,-0.0296 0.118,-0.0297 0.119,-0.0296 0.118,-0.0297"
           id="polyline158"
           inkscape:connector-curvature="0"
           sodipodi:nodetypes="cccccccccccccccccccccccccccccccccccccccccccccccccccccccccccccccccccccccccccccccccccccccccccccccccccccccccccccccccccc" />
        <path
           transform="matrix(1.8318938,0,0,2.953207,-32.77109,18.179179)"
           style="fill:none;stroke:#d40000;stroke-width:1.28980529;stroke-miterlimit:4;stroke-dasharray:none;stroke-opacity:1"
           d="m 246.472,67.3441 h 0.105 l 0.104,1e-4 0.105,1e-4 0.105,10e-5 0.105,3e-4 0.105,3e-4 0.105,4e-4 0.105,4e-4 0.104,5e-4 0.105,6e-4 0.105,7e-4 0.105,7e-4 0.105,7e-4 0.105,9e-4 0.209,0.0019 0.105,0.001 0.105,0.0011 0.21,0.0024 0.105,0.0013 0.105,0.0014 0.209,0.0029 0.105,0.0016 0.105,0.0016 0.21,0.0034 0.419,0.0077 0.114,0.0023 0.114,0.0023 0.227,0.0049 0.455,0.0108 0.114,0.0029 0.114,0.0029 0.227,0.0061 0.455,0.0132 0.114,0.0035 0.114,0.0036 0.227,0.0073 0.455,0.0156 0.91,0.0349 0.114,0.0047 0.114,0.0047 0.228,0.0098 0.455,0.0204 0.91,0.0443 0.113,0.0059 0.114,0.0059 0.228,0.0121 0.455,0.0251 0.91,0.0536 0.106,0.0066 0.106,0.0066 0.212,0.0134 0.425,0.0276 0.849,0.058 1.699,0.1275 0.106,0.0085 0.106,0.0085 0.212,0.0172 0.425,0.0352 0.849,0.073 1.699,0.1568 0.115,0.0111 0.115,0.0112 0.23,0.0226 0.46,0.0458 0.921,0.0947 1.841,0.201 3.682,0.4453 0.112,0.0145 0.113,0.0146 0.226,0.0293 0.452,0.0592 0.904,0.1207 1.807,0.2505 3.615,0.5345 6.743,1.102 7.312,1.3217 6.826,1.3273 6.691,1.37 7.261,1.5478 6.775,1.4899 7.344,1.6554 6.857,1.5763 6.723,1.569 7.293,1.7237 6.806,1.626 7.376,1.7777 7.241,1.7588 6.755,1.6509 7.325,1.7997 6.838,1.688 6.703,1.6613 7.273,1.8087 6.787,1.6929 0.118,0.03 0.119,0.029 0.237,0.059 0.473,0.119 0.947,0.236 1.894,0.474 0.118,0.03 0.119,0.029 0.237,0.059 0.473,0.119 0.947,0.237 0.118,0.03 0.119,0.029 0.237,0.06 0.473,0.118 0.118,0.03 0.119,0.029 0.236,0.06 0.119,0.029 0.118,0.03 0.119,0.03 0.118,0.029"
           id="polyline160"
           inkscape:connector-curvature="0"
           sodipodi:nodetypes="cccccccccccccccccccccccccccccccccccccccccccccccccccccccccccccccccccccccccccccccccccccccccccccccccccccccccccccccccccc" />
        <polygon
           points="408.805,58.699 408.653,59.0443 419,56.2125 408.653,53.4896 408.653,53.4896 408.805,53.7993 409.137,54.5423 409.313,54.9891 409.466,55.4396 409.572,55.8591 409.608,56.2125 409.572,56.5324 409.466,56.9463 409.313,57.4119 409.137,57.8873 "
           id="polygon201"
           style="opacity:1;fill:#000000;fill-rule:evenodd;stroke:none"
           transform="matrix(1.8318938,0,0,2.953207,-3.438537,18.179179)" />
        <polygon
           points="409.137,57.8873 408.805,58.699 408.653,59.0443 419,56.2125 408.653,53.4896 408.653,53.4896 408.805,53.7993 409.137,54.5423 409.313,54.9891 409.466,55.4396 409.572,55.8591 409.608,56.2125 409.572,56.5324 409.466,56.9463 409.313,57.4119 "
           id="polygon201-6"
           style="opacity:1;fill:#000000;fill-rule:evenodd;stroke:none"
           transform="matrix(0,-1.8318938,2.953207,0,252.68514,823.7308)" />
        <path
           style="fill:none;stroke:#000000;stroke-width:2;stroke-linecap:butt;stroke-linejoin:miter;stroke-miterlimit:4;stroke-dasharray:none;stroke-opacity:1;marker-start:url(#Arrow1Mstart-17);marker-end:url(#Arrow1Mend-76)"
           d="m 516.06828,126.46587 -1.41614,0.007 -91.32551,0.48029"
           id="path6432-6"
           inkscape:connector-curvature="0"
           sodipodi:nodetypes="ccc" />
        <polyline
           points="246.55,99.325 246.55,99.2986 246.55,99.2721 246.55,99.2192 246.55,99.1134 246.55,98.9019 246.55,98.4788 246.55,97.6325 246.55,95.7977 246.55,94.0844 246.55,92.4048 246.55,90.5828 246.55,88.8824 246.55,87.0396 246.55,85.2304 246.55,83.5428 246.55,81.7129 246.55,80.0046 246.55,78.3298 246.55,76.5127 246.55,74.8172 246.55,72.9793 246.55,71.1751 246.55,69.4924 246.55,67.6674 246.55,65.9639 246.55,64.1181 246.55,62.3059 246.55,60.6153 246.55,58.7823 246.55,57.071 246.55,55.3932 246.55,53.5731 246.55,51.8745 246.55,50.0336 246.55,48.2263 246.55,46.5406 246.55,44.7126 246.55,43.0061 246.55,41.3332 246.55,39.518 246.55,37.8243 246.55,35.9884 246.55,34.2739 246.55,32.5931 246.55,30.77 246.55,29.0684 246.55,27.2245 246.55,25.4142 246.55,23.7254 246.55,21.8943 246.55,20.1848 246.55,18.5089 246.55,16.6907 246.55,14.994 246.55,14.9644 246.55,14.9348 246.55,14.8756 246.55,14.7572 246.55,14.5205 246.55,14.047 246.55,14.0174 246.55,13.9878 246.55,13.9286 246.55,13.8102 246.55,13.5735 246.55,13.5439 246.55,13.5143 246.55,13.4551 246.55,13.3367 246.55,13.3072 246.55,13.2776 246.55,13.2184 246.55,13.1888 246.55,13.1592 246.55,13.1296 246.55,13.1 "
           id="polyline52"
           style="fill:none;stroke:#000000;stroke-width:0.8598702;stroke-miterlimit:4;stroke-dasharray:none;stroke-dashoffset:0;stroke-opacity:1"
           transform="matrix(1.8318938,0,0,2.953207,-32.77109,20.179179)" />
      </g>
    </g>
  </g>
</svg>
