<?xml version="1.0" encoding="UTF-8" standalone="no"?>
<!-- Created with Inkscape (http://www.inkscape.org/) -->

<svg
   xmlns:dc="http://purl.org/dc/elements/1.1/"
   xmlns:cc="http://creativecommons.org/ns#"
   xmlns:rdf="http://www.w3.org/1999/02/22-rdf-syntax-ns#"
   xmlns:svg="http://www.w3.org/2000/svg"
   xmlns="http://www.w3.org/2000/svg"
   xmlns:sodipodi="http://sodipodi.sourceforge.net/DTD/sodipodi-0.dtd"
   xmlns:inkscape="http://www.inkscape.org/namespaces/inkscape"
   id="svg3933"
   version="1.1"
   inkscape:version="0.48.4 r9939"
   width="581.60754"
   height="306.22522"
   xml:space="preserve"
   sodipodi:docname="10_LP11bs.pdf"><metadata
     id="metadata3939"><rdf:RDF><cc:Work
         rdf:about=""><dc:format>image/svg+xml</dc:format><dc:type
           rdf:resource="http://purl.org/dc/dcmitype/StillImage" /><dc:title></dc:title></cc:Work></rdf:RDF></metadata><defs
     id="defs3937"><marker
       inkscape:stockid="Arrow1Send"
       orient="auto"
       refY="0"
       refX="0"
       id="Arrow1Send"
       style="overflow:visible"><path
         id="path4748"
         d="M 0,0 5,-5 -12.5,0 5,5 0,0 z"
         style="fill-rule:evenodd;stroke:#000000;stroke-width:1pt"
         transform="matrix(-0.2,0,0,-0.2,-1.2,0)"
         inkscape:connector-curvature="0" /></marker><marker
       inkscape:stockid="Arrow1Mend"
       orient="auto"
       refY="0"
       refX="0"
       id="Arrow1Mend"
       style="overflow:visible"><path
         id="path4742"
         d="M 0,0 5,-5 -12.5,0 5,5 0,0 z"
         style="fill-rule:evenodd;stroke:#000000;stroke-width:1pt"
         transform="matrix(-0.4,0,0,-0.4,-4,0)"
         inkscape:connector-curvature="0" /></marker><inkscape:path-effect
       effect="spiro"
       id="path-effect4727"
       is_visible="true" /><marker
       inkscape:stockid="Arrow1Send"
       orient="auto"
       refY="0"
       refX="0"
       id="Arrow1Send-3"
       style="overflow:visible"><path
         inkscape:connector-curvature="0"
         id="path4748-6"
         d="M 0,0 5,-5 -12.5,0 5,5 0,0 z"
         style="fill-rule:evenodd;stroke:#000000;stroke-width:1pt"
         transform="matrix(-0.2,0,0,-0.2,-1.2,0)" /></marker><inkscape:path-effect
       effect="spiro"
       id="path-effect4727-7"
       is_visible="true" /><marker
       inkscape:stockid="Arrow1Send"
       orient="auto"
       refY="0"
       refX="0"
       id="Arrow1Send-35"
       style="overflow:visible"><path
         inkscape:connector-curvature="0"
         id="path4748-62"
         d="M 0,0 5,-5 -12.5,0 5,5 0,0 z"
         style="fill-rule:evenodd;stroke:#000000;stroke-width:1pt"
         transform="matrix(-0.2,0,0,-0.2,-1.2,0)" /></marker><inkscape:path-effect
       effect="spiro"
       id="path-effect4727-9"
       is_visible="true" /><marker
       inkscape:stockid="Arrow1Send"
       orient="auto"
       refY="0"
       refX="0"
       id="marker5403"
       style="overflow:visible"><path
         inkscape:connector-curvature="0"
         id="path5405"
         d="M 0,0 5,-5 -12.5,0 5,5 0,0 z"
         style="fill-rule:evenodd;stroke:#000000;stroke-width:1pt"
         transform="matrix(-0.2,0,0,-0.2,-1.2,0)" /></marker><inkscape:path-effect
       effect="spiro"
       id="path-effect4727-7-1"
       is_visible="true" /><marker
       inkscape:stockid="Arrow1Send"
       orient="auto"
       refY="0"
       refX="0"
       id="Arrow1Send-9"
       style="overflow:visible"><path
         inkscape:connector-curvature="0"
         id="path4748-3"
         d="M 0,0 5,-5 -12.5,0 5,5 0,0 z"
         style="fill-rule:evenodd;stroke:#000000;stroke-width:1pt"
         transform="matrix(-0.2,0,0,-0.2,-1.2,0)" /></marker><inkscape:path-effect
       effect="spiro"
       id="path-effect4727-9-6"
       is_visible="true" /><marker
       inkscape:stockid="Arrow1Send"
       orient="auto"
       refY="0"
       refX="0"
       id="marker5447"
       style="overflow:visible"><path
         inkscape:connector-curvature="0"
         id="path5449"
         d="M 0,0 5,-5 -12.5,0 5,5 0,0 z"
         style="fill-rule:evenodd;stroke:#000000;stroke-width:1pt"
         transform="matrix(-0.2,0,0,-0.2,-1.2,0)" /></marker><inkscape:path-effect
       effect="spiro"
       id="path-effect4727-7-1-0"
       is_visible="true" /><marker
       inkscape:stockid="Arrow1Send"
       orient="auto"
       refY="0"
       refX="0"
       id="Arrow1Send-1"
       style="overflow:visible"><path
         inkscape:connector-curvature="0"
         id="path4748-8"
         d="M 0,0 5,-5 -12.5,0 5,5 0,0 z"
         style="fill-rule:evenodd;stroke:#000000;stroke-width:1pt"
         transform="matrix(-0.2,0,0,-0.2,-1.2,0)" /></marker><inkscape:path-effect
       effect="spiro"
       id="path-effect4727-9-6-7"
       is_visible="true" /><marker
       inkscape:stockid="Arrow1Send"
       orient="auto"
       refY="0"
       refX="0"
       id="marker5491"
       style="overflow:visible"><path
         inkscape:connector-curvature="0"
         id="path5493"
         d="M 0,0 5,-5 -12.5,0 5,5 0,0 z"
         style="fill-rule:evenodd;stroke:#000000;stroke-width:1pt"
         transform="matrix(-0.2,0,0,-0.2,-1.2,0)" /></marker><inkscape:path-effect
       effect="spiro"
       id="path-effect4727-7-1-0-9"
       is_visible="true" /><marker
       inkscape:stockid="Arrow1Send"
       orient="auto"
       refY="0"
       refX="0"
       id="Arrow1Send-37"
       style="overflow:visible"><path
         inkscape:connector-curvature="0"
         id="path4748-5"
         d="M 0,0 5,-5 -12.5,0 5,5 0,0 z"
         style="fill-rule:evenodd;stroke:#000000;stroke-width:1pt"
         transform="matrix(-0.2,0,0,-0.2,-1.2,0)" /></marker><inkscape:path-effect
       effect="spiro"
       id="path-effect4727-92"
       is_visible="true" /><marker
       inkscape:stockid="Arrow1Send"
       orient="auto"
       refY="0"
       refX="0"
       id="marker5535"
       style="overflow:visible"><path
         inkscape:connector-curvature="0"
         id="path5537"
         d="M 0,0 5,-5 -12.5,0 5,5 0,0 z"
         style="fill-rule:evenodd;stroke:#000000;stroke-width:1pt"
         transform="matrix(-0.2,0,0,-0.2,-1.2,0)" /></marker><inkscape:path-effect
       effect="spiro"
       id="path-effect4727-7-2"
       is_visible="true" /><marker
       inkscape:stockid="Arrow1Send"
       orient="auto"
       refY="0"
       refX="0"
       id="Arrow1Send-36"
       style="overflow:visible"><path
         inkscape:connector-curvature="0"
         id="path4748-7"
         d="M 0,0 5,-5 -12.5,0 5,5 0,0 z"
         style="fill-rule:evenodd;stroke:#000000;stroke-width:1pt"
         transform="matrix(-0.2,0,0,-0.2,-1.2,0)" /></marker><inkscape:path-effect
       effect="spiro"
       id="path-effect4727-5"
       is_visible="true" /><marker
       inkscape:stockid="Arrow1Send"
       orient="auto"
       refY="0"
       refX="0"
       id="marker3057"
       style="overflow:visible"><path
         inkscape:connector-curvature="0"
         id="path3059"
         d="M 0,0 5,-5 -12.5,0 5,5 0,0 z"
         style="fill-rule:evenodd;stroke:#000000;stroke-width:1pt"
         transform="matrix(-0.2,0,0,-0.2,-1.2,0)" /></marker><inkscape:path-effect
       effect="spiro"
       id="path-effect4727-7-3"
       is_visible="true" /><marker
       inkscape:stockid="Arrow1Send"
       orient="auto"
       refY="0"
       refX="0"
       id="marker3062"
       style="overflow:visible"><path
         inkscape:connector-curvature="0"
         id="path3064"
         d="M 0,0 5,-5 -12.5,0 5,5 0,0 z"
         style="fill-rule:evenodd;stroke:#000000;stroke-width:1pt"
         transform="matrix(-0.2,0,0,-0.2,-1.2,0)" /></marker><inkscape:path-effect
       effect="spiro"
       id="path-effect4727-9-5"
       is_visible="true" /><marker
       inkscape:stockid="Arrow1Send"
       orient="auto"
       refY="0"
       refX="0"
       id="marker3067"
       style="overflow:visible"><path
         inkscape:connector-curvature="0"
         id="path3069"
         d="M 0,0 5,-5 -12.5,0 5,5 0,0 z"
         style="fill-rule:evenodd;stroke:#000000;stroke-width:1pt"
         transform="matrix(-0.2,0,0,-0.2,-1.2,0)" /></marker><inkscape:path-effect
       effect="spiro"
       id="path-effect4727-7-1-6"
       is_visible="true" /><marker
       inkscape:stockid="Arrow1Send"
       orient="auto"
       refY="0"
       refX="0"
       id="marker3072"
       style="overflow:visible"><path
         inkscape:connector-curvature="0"
         id="path3074"
         d="M 0,0 5,-5 -12.5,0 5,5 0,0 z"
         style="fill-rule:evenodd;stroke:#000000;stroke-width:1pt"
         transform="matrix(-0.2,0,0,-0.2,-1.2,0)" /></marker><inkscape:path-effect
       effect="spiro"
       id="path-effect4727-9-6-2"
       is_visible="true" /><marker
       inkscape:stockid="Arrow1Send"
       orient="auto"
       refY="0"
       refX="0"
       id="marker3077"
       style="overflow:visible"><path
         inkscape:connector-curvature="0"
         id="path3079"
         d="M 0,0 5,-5 -12.5,0 5,5 0,0 z"
         style="fill-rule:evenodd;stroke:#000000;stroke-width:1pt"
         transform="matrix(-0.2,0,0,-0.2,-1.2,0)" /></marker><inkscape:path-effect
       effect="spiro"
       id="path-effect4727-7-1-0-91"
       is_visible="true" /><marker
       inkscape:stockid="Arrow1Send"
       orient="auto"
       refY="0"
       refX="0"
       id="marker3082"
       style="overflow:visible"><path
         inkscape:connector-curvature="0"
         id="path3084"
         d="M 0,0 5,-5 -12.5,0 5,5 0,0 z"
         style="fill-rule:evenodd;stroke:#000000;stroke-width:1pt"
         transform="matrix(-0.2,0,0,-0.2,-1.2,0)" /></marker><inkscape:path-effect
       effect="spiro"
       id="path-effect4727-92-2"
       is_visible="true" /><marker
       inkscape:stockid="Arrow1Send"
       orient="auto"
       refY="0"
       refX="0"
       id="marker3087"
       style="overflow:visible"><path
         inkscape:connector-curvature="0"
         id="path3089"
         d="M 0,0 5,-5 -12.5,0 5,5 0,0 z"
         style="fill-rule:evenodd;stroke:#000000;stroke-width:1pt"
         transform="matrix(-0.2,0,0,-0.2,-1.2,0)" /></marker><inkscape:path-effect
       effect="spiro"
       id="path-effect4727-7-2-7"
       is_visible="true" /><marker
       inkscape:stockid="Arrow1Send"
       orient="auto"
       refY="0"
       refX="0"
       id="Arrow1Send-375"
       style="overflow:visible"><path
         id="path4748-9"
         d="M 0,0 5,-5 -12.5,0 5,5 0,0 z"
         style="fill-rule:evenodd;stroke:#000000;stroke-width:1pt"
         transform="matrix(-0.2,0,0,-0.2,-1.2,0)"
         inkscape:connector-curvature="0" /></marker><inkscape:path-effect
       effect="spiro"
       id="path-effect4727-9-2"
       is_visible="true" /><marker
       inkscape:stockid="Arrow1Send"
       orient="auto"
       refY="0"
       refX="0"
       id="Arrow1Send-97"
       style="overflow:visible"><path
         id="path4748-36"
         d="M 0,0 5,-5 -12.5,0 5,5 0,0 z"
         style="fill-rule:evenodd;stroke:#000000;stroke-width:1pt"
         transform="matrix(-0.2,0,0,-0.2,-1.2,0)"
         inkscape:connector-curvature="0" /></marker><inkscape:path-effect
       effect="spiro"
       id="path-effect4727-7-1-1"
       is_visible="true" /><marker
       inkscape:stockid="Arrow1Send"
       orient="auto"
       refY="0"
       refX="0"
       id="Arrow1Send-93"
       style="overflow:visible"><path
         id="path4748-1"
         d="M 0,0 5,-5 -12.5,0 5,5 0,0 z"
         style="fill-rule:evenodd;stroke:#000000;stroke-width:1pt"
         transform="matrix(-0.2,0,0,-0.2,-1.2,0)"
         inkscape:connector-curvature="0" /></marker><inkscape:path-effect
       effect="spiro"
       id="path-effect4727-9-2-9"
       is_visible="true" /><marker
       inkscape:stockid="Arrow1Send"
       orient="auto"
       refY="0"
       refX="0"
       id="marker4471"
       style="overflow:visible"><path
         id="path4473"
         d="M 0,0 5,-5 -12.5,0 5,5 0,0 z"
         style="fill-rule:evenodd;stroke:#000000;stroke-width:1pt"
         transform="matrix(-0.2,0,0,-0.2,-1.2,0)"
         inkscape:connector-curvature="0" /></marker><inkscape:path-effect
       effect="spiro"
       id="path-effect4727-7-1-1-4"
       is_visible="true" /><marker
       inkscape:stockid="Arrow1Send"
       orient="auto"
       refY="0"
       refX="0"
       id="Arrow1Send-5"
       style="overflow:visible"><path
         id="path4748-0"
         d="M 0,0 5,-5 -12.5,0 5,5 0,0 z"
         style="fill-rule:evenodd;stroke:#000000;stroke-width:1pt"
         transform="matrix(-0.2,0,0,-0.2,-1.2,0)"
         inkscape:connector-curvature="0" /></marker><inkscape:path-effect
       effect="spiro"
       id="path-effect4727-3"
       is_visible="true" /><marker
       inkscape:stockid="Arrow1Send"
       orient="auto"
       refY="0"
       refX="0"
       id="marker4527"
       style="overflow:visible"><path
         id="path4529"
         d="M 0,0 5,-5 -12.5,0 5,5 0,0 z"
         style="fill-rule:evenodd;stroke:#000000;stroke-width:1pt"
         transform="matrix(-0.2,0,0,-0.2,-1.2,0)"
         inkscape:connector-curvature="0" /></marker><inkscape:path-effect
       effect="spiro"
       id="path-effect4727-7-6"
       is_visible="true" /><marker
       inkscape:stockid="Arrow1Send"
       orient="auto"
       refY="0"
       refX="0"
       id="marker4532"
       style="overflow:visible"><path
         id="path4534"
         d="M 0,0 5,-5 -12.5,0 5,5 0,0 z"
         style="fill-rule:evenodd;stroke:#000000;stroke-width:1pt"
         transform="matrix(-0.2,0,0,-0.2,-1.2,0)"
         inkscape:connector-curvature="0" /></marker><inkscape:path-effect
       effect="spiro"
       id="path-effect4727-9-1"
       is_visible="true" /><marker
       inkscape:stockid="Arrow1Send"
       orient="auto"
       refY="0"
       refX="0"
       id="marker4537"
       style="overflow:visible"><path
         id="path4539"
         d="M 0,0 5,-5 -12.5,0 5,5 0,0 z"
         style="fill-rule:evenodd;stroke:#000000;stroke-width:1pt"
         transform="matrix(-0.2,0,0,-0.2,-1.2,0)"
         inkscape:connector-curvature="0" /></marker><inkscape:path-effect
       effect="spiro"
       id="path-effect4727-7-1-06"
       is_visible="true" /><marker
       inkscape:stockid="Arrow1Send"
       orient="auto"
       refY="0"
       refX="0"
       id="marker4542"
       style="overflow:visible"><path
         id="path4544"
         d="M 0,0 5,-5 -12.5,0 5,5 0,0 z"
         style="fill-rule:evenodd;stroke:#000000;stroke-width:1pt"
         transform="matrix(-0.2,0,0,-0.2,-1.2,0)"
         inkscape:connector-curvature="0" /></marker><inkscape:path-effect
       effect="spiro"
       id="path-effect4727-9-2-3"
       is_visible="true" /><marker
       inkscape:stockid="Arrow1Send"
       orient="auto"
       refY="0"
       refX="0"
       id="marker4547"
       style="overflow:visible"><path
         id="path4549"
         d="M 0,0 5,-5 -12.5,0 5,5 0,0 z"
         style="fill-rule:evenodd;stroke:#000000;stroke-width:1pt"
         transform="matrix(-0.2,0,0,-0.2,-1.2,0)"
         inkscape:connector-curvature="0" /></marker><inkscape:path-effect
       effect="spiro"
       id="path-effect4727-7-1-1-2"
       is_visible="true" /><marker
       inkscape:stockid="Arrow1Send"
       orient="auto"
       refY="0"
       refX="0"
       id="marker4552"
       style="overflow:visible"><path
         id="path4554"
         d="M 0,0 5,-5 -12.5,0 5,5 0,0 z"
         style="fill-rule:evenodd;stroke:#000000;stroke-width:1pt"
         transform="matrix(-0.2,0,0,-0.2,-1.2,0)"
         inkscape:connector-curvature="0" /></marker><inkscape:path-effect
       effect="spiro"
       id="path-effect4727-9-2-9-0"
       is_visible="true" /><marker
       inkscape:stockid="Arrow1Send"
       orient="auto"
       refY="0"
       refX="0"
       id="marker4557"
       style="overflow:visible"><path
         id="path4559"
         d="M 0,0 5,-5 -12.5,0 5,5 0,0 z"
         style="fill-rule:evenodd;stroke:#000000;stroke-width:1pt"
         transform="matrix(-0.2,0,0,-0.2,-1.2,0)"
         inkscape:connector-curvature="0" /></marker><inkscape:path-effect
       effect="spiro"
       id="path-effect4727-7-1-1-4-6"
       is_visible="true" /><marker
       inkscape:stockid="Arrow1Send"
       orient="auto"
       refY="0"
       refX="0"
       id="Arrow1Send-52"
       style="overflow:visible"><path
         id="path4748-54"
         d="M 0,0 5,-5 -12.5,0 5,5 0,0 z"
         style="fill-rule:evenodd;stroke:#000000;stroke-width:1pt"
         transform="matrix(-0.2,0,0,-0.2,-1.2,0)"
         inkscape:connector-curvature="0" /></marker><inkscape:path-effect
       effect="spiro"
       id="path-effect4727-9-2-7"
       is_visible="true" /><marker
       inkscape:stockid="Arrow1Send"
       orient="auto"
       refY="0"
       refX="0"
       id="Arrow1Send-4"
       style="overflow:visible"><path
         id="path4748-30"
         d="M 0,0 5,-5 -12.5,0 5,5 0,0 z"
         style="fill-rule:evenodd;stroke:#000000;stroke-width:1pt"
         transform="matrix(-0.2,0,0,-0.2,-1.2,0)"
         inkscape:connector-curvature="0" /></marker><inkscape:path-effect
       effect="spiro"
       id="path-effect4727-9-7"
       is_visible="true" /><marker
       inkscape:stockid="Arrow1Send"
       orient="auto"
       refY="0"
       refX="0"
       id="marker4771"
       style="overflow:visible"><path
         id="path4773"
         d="M 0,0 5,-5 -12.5,0 5,5 0,0 z"
         style="fill-rule:evenodd;stroke:#000000;stroke-width:1pt"
         transform="matrix(-0.2,0,0,-0.2,-1.2,0)"
         inkscape:connector-curvature="0" /></marker><inkscape:path-effect
       effect="spiro"
       id="path-effect4727-9-2-8"
       is_visible="true" /><marker
       inkscape:stockid="Arrow1Send"
       orient="auto"
       refY="0"
       refX="0"
       id="marker4776"
       style="overflow:visible"><path
         id="path4778"
         d="M 0,0 5,-5 -12.5,0 5,5 0,0 z"
         style="fill-rule:evenodd;stroke:#000000;stroke-width:1pt"
         transform="matrix(-0.2,0,0,-0.2,-1.2,0)"
         inkscape:connector-curvature="0" /></marker><inkscape:path-effect
       effect="spiro"
       id="path-effect4727-9-2-7-6"
       is_visible="true" /><marker
       inkscape:stockid="Arrow1Send"
       orient="auto"
       refY="0"
       refX="0"
       id="Arrow1Send-49"
       style="overflow:visible"><path
         id="path4748-2"
         d="M 0,0 5,-5 -12.5,0 5,5 0,0 z"
         style="fill-rule:evenodd;stroke:#000000;stroke-width:1pt"
         transform="matrix(-0.2,0,0,-0.2,-1.2,0)"
         inkscape:connector-curvature="0" /></marker><inkscape:path-effect
       effect="spiro"
       id="path-effect4727-0"
       is_visible="true" /><marker
       inkscape:stockid="Arrow1Send"
       orient="auto"
       refY="0"
       refX="0"
       id="marker4841"
       style="overflow:visible"><path
         id="path4843"
         d="M 0,0 5,-5 -12.5,0 5,5 0,0 z"
         style="fill-rule:evenodd;stroke:#000000;stroke-width:1pt"
         transform="matrix(-0.2,0,0,-0.2,-1.2,0)"
         inkscape:connector-curvature="0" /></marker><inkscape:path-effect
       effect="spiro"
       id="path-effect4727-7-68"
       is_visible="true" /><marker
       inkscape:stockid="Arrow1Send"
       orient="auto"
       refY="0"
       refX="0"
       id="marker4846"
       style="overflow:visible"><path
         id="path4848"
         d="M 0,0 5,-5 -12.5,0 5,5 0,0 z"
         style="fill-rule:evenodd;stroke:#000000;stroke-width:1pt"
         transform="matrix(-0.2,0,0,-0.2,-1.2,0)"
         inkscape:connector-curvature="0" /></marker><inkscape:path-effect
       effect="spiro"
       id="path-effect4727-9-9"
       is_visible="true" /><marker
       inkscape:stockid="Arrow1Send"
       orient="auto"
       refY="0"
       refX="0"
       id="marker4851"
       style="overflow:visible"><path
         id="path4853"
         d="M 0,0 5,-5 -12.5,0 5,5 0,0 z"
         style="fill-rule:evenodd;stroke:#000000;stroke-width:1pt"
         transform="matrix(-0.2,0,0,-0.2,-1.2,0)"
         inkscape:connector-curvature="0" /></marker><inkscape:path-effect
       effect="spiro"
       id="path-effect4727-9-2-2"
       is_visible="true" /><marker
       inkscape:stockid="Arrow1Send"
       orient="auto"
       refY="0"
       refX="0"
       id="marker4856"
       style="overflow:visible"><path
         id="path4858"
         d="M 0,0 5,-5 -12.5,0 5,5 0,0 z"
         style="fill-rule:evenodd;stroke:#000000;stroke-width:1pt"
         transform="matrix(-0.2,0,0,-0.2,-1.2,0)"
         inkscape:connector-curvature="0" /></marker><inkscape:path-effect
       effect="spiro"
       id="path-effect4727-9-2-7-66"
       is_visible="true" /><marker
       inkscape:stockid="Arrow1Send"
       orient="auto"
       refY="0"
       refX="0"
       id="marker4861"
       style="overflow:visible"><path
         id="path4863"
         d="M 0,0 5,-5 -12.5,0 5,5 0,0 z"
         style="fill-rule:evenodd;stroke:#000000;stroke-width:1pt"
         transform="matrix(-0.2,0,0,-0.2,-1.2,0)"
         inkscape:connector-curvature="0" /></marker><inkscape:path-effect
       effect="spiro"
       id="path-effect4727-9-7-4"
       is_visible="true" /><marker
       inkscape:stockid="Arrow1Send"
       orient="auto"
       refY="0"
       refX="0"
       id="marker4866"
       style="overflow:visible"><path
         id="path4868"
         d="M 0,0 5,-5 -12.5,0 5,5 0,0 z"
         style="fill-rule:evenodd;stroke:#000000;stroke-width:1pt"
         transform="matrix(-0.2,0,0,-0.2,-1.2,0)"
         inkscape:connector-curvature="0" /></marker><inkscape:path-effect
       effect="spiro"
       id="path-effect4727-9-2-8-9"
       is_visible="true" /><marker
       inkscape:stockid="Arrow1Send"
       orient="auto"
       refY="0"
       refX="0"
       id="marker4871"
       style="overflow:visible"><path
         id="path4873"
         d="M 0,0 5,-5 -12.5,0 5,5 0,0 z"
         style="fill-rule:evenodd;stroke:#000000;stroke-width:1pt"
         transform="matrix(-0.2,0,0,-0.2,-1.2,0)"
         inkscape:connector-curvature="0" /></marker><inkscape:path-effect
       effect="spiro"
       id="path-effect4727-9-2-7-6-5"
       is_visible="true" /><marker
       inkscape:stockid="Arrow1Send"
       orient="auto"
       refY="0"
       refX="0"
       id="Arrow1Send-8"
       style="overflow:visible"><path
         id="path4748-12"
         d="M 0,0 5,-5 -12.5,0 5,5 0,0 z"
         style="fill-rule:evenodd;stroke:#000000;stroke-width:1pt"
         transform="matrix(-0.2,0,0,-0.2,-1.2,0)"
         inkscape:connector-curvature="0" /></marker><inkscape:path-effect
       effect="spiro"
       id="path-effect4727-9-9-8"
       is_visible="true" /><marker
       inkscape:stockid="Arrow1Send"
       orient="auto"
       refY="0"
       refX="0"
       id="Arrow1Send-6"
       style="overflow:visible"><path
         id="path4748-80"
         d="M 0,0 5,-5 -12.5,0 5,5 0,0 z"
         style="fill-rule:evenodd;stroke:#000000;stroke-width:1pt"
         transform="matrix(-0.2,0,0,-0.2,-1.2,0)"
         inkscape:connector-curvature="0" /></marker><inkscape:path-effect
       effect="spiro"
       id="path-effect4727-9-9-2"
       is_visible="true" /><marker
       inkscape:stockid="Arrow1Send"
       orient="auto"
       refY="0"
       refX="0"
       id="Arrow1Send-0"
       style="overflow:visible"><path
         id="path4748-51"
         d="M 0,0 5,-5 -12.5,0 5,5 0,0 z"
         style="fill-rule:evenodd;stroke:#000000;stroke-width:1pt"
         transform="matrix(-0.2,0,0,-0.2,-1.2,0)"
         inkscape:connector-curvature="0" /></marker><inkscape:path-effect
       effect="spiro"
       id="path-effect4727-9-9-2-1"
       is_visible="true" /><marker
       inkscape:stockid="Arrow1Send"
       orient="auto"
       refY="0"
       refX="0"
       id="marker7575"
       style="overflow:visible"><path
         id="path7577"
         d="M 0,0 5,-5 -12.5,0 5,5 0,0 z"
         style="fill-rule:evenodd;stroke:#000000;stroke-width:1pt"
         transform="matrix(-0.2,0,0,-0.2,-1.2,0)"
         inkscape:connector-curvature="0" /></marker><inkscape:path-effect
       effect="spiro"
       id="path-effect4727-9-9-0"
       is_visible="true" /><marker
       inkscape:stockid="Arrow1Send"
       orient="auto"
       refY="0"
       refX="0"
       id="Arrow1Send-46"
       style="overflow:visible"><path
         id="path4748-25"
         d="M 0,0 5,-5 -12.5,0 5,5 0,0 z"
         style="fill-rule:evenodd;stroke:#000000;stroke-width:1pt"
         transform="matrix(-0.2,0,0,-0.2,-1.2,0)"
         inkscape:connector-curvature="0" /></marker><inkscape:path-effect
       effect="spiro"
       id="path-effect4727-9-9-2-1-8"
       is_visible="true" /></defs><sodipodi:namedview
     pagecolor="#ffffff"
     bordercolor="#666666"
     borderopacity="1"
     objecttolerance="10"
     gridtolerance="10"
     guidetolerance="10"
     inkscape:pageopacity="0"
     inkscape:pageshadow="2"
     inkscape:window-width="1451"
     inkscape:window-height="959"
     id="namedview3935"
     showgrid="false"
     inkscape:zoom="1.9985293"
     inkscape:cx="287.20501"
     inkscape:cy="159.24977"
     inkscape:window-x="108"
     inkscape:window-y="54"
     inkscape:window-maximized="0"
     inkscape:current-layer="g3941"
     fit-margin-top="0"
     fit-margin-left="0"
     fit-margin-right="0"
     fit-margin-bottom="0" /><g
     id="g3941"
     inkscape:groupmode="layer"
     inkscape:label="10_TE01"
     transform="matrix(1.25,0,0,-1.25,150.40643,223.62669)"><g
       id="g3943" /><rect
       style="fill:#ffffff;fill-opacity:1;stroke:none"
       id="rect3309"
       width="465.28604"
       height="244.98016"
       x="-120.32514"
       y="-178.90135"
       transform="scale(1,-1)" /><path
       sodipodi:type="arc"
       style="fill:none;stroke:none"
       id="path3951"
       sodipodi:cx="271.02118"
       sodipodi:cy="81.377121"
       sodipodi:rx="106.85169"
       sodipodi:ry="87.038139"
       d="m 377.87287,81.377121 c 0,48.069839 -47.83913,87.038139 -106.85169,87.038139 -59.01256,0 -106.85169,-38.9683 -106.85169,-87.038139 0,-48.069837 47.83913,-87.0381394 106.85169,-87.0381394 59.01256,0 106.85169,38.9683024 106.85169,87.0381394 z"
       transform="matrix(0.8,0,0,-0.8,0,267.20001)" /><g
       id="g7693"
       transform="matrix(0,-1,1,0,-40.733261,62.976883)"><path
         sodipodi:nodetypes="sssss"
         inkscape:connector-curvature="0"
         id="path3955"
         d="m -29.520611,128.93833 c 26.538331,0 29.563964,-37.390852 29.563964,-80.047217 0,-42.65637 -3.025633,-74.425169 -29.563964,-74.425169 -26.53833,0 -48.051895,34.579824 -48.051895,77.236194 0,42.656368 21.513565,77.236192 48.051895,77.236192 z"
         style="fill:#ffffff;fill-opacity:1;stroke:#000000;stroke-width:2.43712354;stroke-miterlimit:4;stroke-opacity:1;stroke-dasharray:none" /><path
         inkscape:connector-curvature="0"
         inkscape:original-d="m -35.957846,15.978867 0.620826,63.93466"
         inkscape:path-effect="#path-effect4727-9-9"
         id="path4725-7-1"
         d="m -35.957846,15.978867 0.620826,63.93466"
         style="fill:none;stroke:#000000;stroke-width:5.60444593;stroke-linecap:butt;stroke-linejoin:miter;stroke-miterlimit:4;stroke-opacity:1;stroke-dasharray:none;marker-end:url(#Arrow1Send)" /><path
         sodipodi:nodetypes="sssss"
         inkscape:connector-curvature="0"
         id="path3955-3"
         d="m 51.764235,129.2442 c -26.538331,0 -29.563964,-37.390849 -29.563964,-80.047212 0,-42.6563755 3.025633,-74.425168 29.563964,-74.425168 26.538331,0 48.051893,34.5798165 48.051893,77.236192 0,42.656368 -21.513563,77.236188 -48.051893,77.236188 z"
         style="fill:#ffffff;fill-opacity:1;stroke:#000000;stroke-width:2.43712354;stroke-miterlimit:4;stroke-opacity:1;stroke-dasharray:none" /><path
         inkscape:connector-curvature="0"
         inkscape:original-d="m 57.304744,88.568698 0.62082,-63.93466"
         inkscape:path-effect="#path-effect4727-9-9-2"
         id="path4725-7-1-1"
         d="m 57.304744,88.568698 0.62082,-63.93466"
         style="fill:none;stroke:#000000;stroke-width:5.60444593;stroke-linecap:butt;stroke-linejoin:miter;stroke-miterlimit:4;stroke-opacity:1;stroke-dasharray:none;marker-end:url(#Arrow1Send)" /></g><g
       id="g7699"
       transform="matrix(0,-1,1,0,170.71911,274.73513)"><path
         sodipodi:nodetypes="sssss"
         inkscape:connector-curvature="0"
         id="path3955-8"
         d="m 182.0847,129.09127 c 26.53833,0 29.56396,-37.390851 29.56396,-80.047217 0,-42.6563686 -3.02563,-74.425168 -29.56396,-74.425168 -26.53833,0 -48.05189,34.5798234 -48.05189,77.236194 0,42.65637 21.51356,77.236191 48.05189,77.236191 z"
         style="fill:#ffffff;fill-opacity:1;stroke:#000000;stroke-width:2.43712354;stroke-miterlimit:4;stroke-opacity:1;stroke-dasharray:none" /><path
         sodipodi:nodetypes="sssss"
         inkscape:connector-curvature="0"
         id="path3955-3-0"
         d="m 263.36955,129.39714 c -26.53834,0 -29.56397,-37.390851 -29.56397,-80.047215 0,-42.6563766 3.02563,-74.425168 29.56397,-74.425168 26.53832,0 48.05188,34.5798154 48.05188,77.236192 0,42.65637 -21.51356,77.236191 -48.05188,77.236191 z"
         style="fill:#ffffff;fill-opacity:1;stroke:#000000;stroke-width:2.43712354;stroke-miterlimit:4;stroke-opacity:1;stroke-dasharray:none" /><path
         inkscape:connector-curvature="0"
         inkscape:original-d="m 244.6712,52.433532 52.80417,0.654159"
         inkscape:path-effect="#path-effect4727-9-9-2-1"
         id="path4725-7-1-1-6"
         d="m 244.6712,52.433532 52.80417,0.654159"
         style="fill:none;stroke:#000000;stroke-width:5.22826338;stroke-linecap:butt;stroke-linejoin:miter;stroke-miterlimit:4;stroke-opacity:1;stroke-dasharray:none;marker-end:url(#Arrow1Send)" /><path
         inkscape:connector-curvature="0"
         inkscape:original-d="m 201.11228,51.896629 -52.80417,0.65416"
         inkscape:path-effect="#path-effect4727-9-9-2-1-8"
         id="path4725-7-1-1-6-6"
         d="m 201.11228,51.896629 -52.80417,0.65416"
         style="fill:none;stroke:#000000;stroke-width:5.22826338;stroke-linecap:butt;stroke-linejoin:miter;stroke-miterlimit:4;stroke-opacity:1;stroke-dasharray:none;marker-end:url(#Arrow1Send)" /></g></g></svg>