<?xml version="1.0" encoding="ISO-8859-1"?>
<!DOCTYPE svg PUBLIC "-//W3C//DTD SVG 1.0//EN" "http://www.w3.org/TR/2001/REC-SVG-20010904/DTD/svg10.dtd">
<!-- generated by Grace-5.1.23 -->
<svg xml:space="preserve" width="11.6933in" height="8.2633in" viewBox="0.0000 0.0000 841.9200 594.9600">
 <g transform="translate(0,594.9600) scale(1,-1)">
 <desc></desc>
  <g style="fill:#FFFFFF; fill-rule:nonzero">
   <path  d="M0.0000,0.0000L0.0000,594.9600L841.9200,594.9600L841.9200,0.0000z"/>
  </g>
  <g style="fill:none; stroke:#000000; stroke-width:  2.6773; stroke-linecap:butt; stroke-linejoin:miter; stroke-dasharray:none">
   <path d="M89.8390,366.8929L90.4339,366.8955L91.0289,366.8998L91.6238,366.9059L92.2188,366.9137L92.8138,366.9233L93.4087,366.9345L94.0037,366.9476L94.5986,366.9624L95.1936,366.9789
            L95.7886,366.9972L96.3835,367.0172L96.9785,367.0390L97.5734,367.0626L98.1684,367.0880L98.7634,367.1151L99.3583,367.1440L99.9533,367.1746L100.5482,367.2071L101.1432,367.2414
            L101.7382,367.2775L102.3331,367.3154L102.9281,367.3551L103.5230,367.3966L104.1180,367.4400L104.7130,367.4852L105.3079,367.5323L105.9029,367.5812L106.4978,367.6321L107.0928,367.6848
            L107.6878,367.7394L108.2827,367.7959L108.8777,367.8543L109.4726,367.9147L110.0676,367.9770L110.6626,368.0413L111.2575,368.1076L111.8525,368.1758L112.4474,368.2460L113.0424,368.3183
            L113.6374,368.3926L114.2323,368.4689L114.8273,368.5473L115.4222,368.6278L116.0172,368.7104L116.6122,368.7951L117.2071,368.8820L117.8021,368.9710L118.3970,369.0622L118.9920,369.1556
            L119.5870,369.2512L120.1819,369.3490L120.7769,369.4491L121.3718,369.5515L121.9668,369.6562L122.5618,369.7633L123.1567,369.8727L123.7517,369.9845L124.3466,370.0987L124.9416,370.2153
            L125.5366,370.3344L126.1315,370.4560L126.7265,370.5802L127.3214,370.7069L127.9164,370.8362L128.5114,370.9681L129.1063,371.1027L129.7013,371.2399L130.2962,371.3799L130.8912,371.5226
            L131.4862,371.6682L132.0811,371.8165L132.6761,371.9678L133.2710,372.1220L133.8660,372.2791L134.4610,372.4392L135.0559,372.6024L135.6509,372.7686L136.2458,372.9380L136.8408,373.1105
            L137.4358,373.2863L138.0307,373.4654L138.6257,373.6478L139.2206,373.8335L139.8156,374.0227L140.4106,374.2154L141.0055,374.4117L141.6005,374.6115L142.1954,374.8151L142.7904,375.0223
            L143.3854,375.2334L143.9803,375.4483L144.5753,375.6671L145.1702,375.8899L145.7652,376.1168L146.3602,376.3479L146.9551,376.5831L147.5501,376.8227L148.1450,377.0666L148.7400,377.3150
            L149.3350,377.5680L149.9299,377.8256L150.5249,378.0879L151.1198,378.3550L151.7148,378.6270L152.3098,378.9041L152.9047,379.1862L153.4997,379.4736L154.0946,379.7663L154.6896,380.0645
            L155.2846,380.3682L155.8795,380.6776L156.4745,380.9927L157.0694,381.3139L157.6644,381.6410L158.2594,381.9744L158.8543,382.3141L159.4493,382.6603L160.0442,383.0131L160.6392,383.3727
            L161.2342,383.7392L161.8291,384.1129L162.4241,384.4938L163.0190,384.8822L163.6140,385.2782L164.2090,385.6821L164.8039,386.0940L165.3989,386.5141L165.9938,386.9427L166.5888,387.3799
            L167.1838,387.8260L167.7787,388.2812L168.3737,388.7458L168.9686,389.2201L169.5636,389.7042L170.1586,390.1984L170.7535,390.7032L171.3485,391.2186L171.9434,391.7451L172.5384,392.2829
            L173.1334,392.8325L173.7283,393.3941L174.3233,393.9681L174.9182,394.5548L175.5132,395.1548L176.1082,395.7683L176.7031,396.3958L177.2981,397.0377L177.8930,397.6946L178.4880,398.3668
            L179.0830,399.0549L179.6779,399.7595L180.2729,400.4810L180.8678,401.2200L181.4628,401.9772L182.0578,402.7532L182.6527,403.5487L183.2477,404.3642L183.8426,405.2007L184.4376,406.0588
            L185.0326,406.9393L185.6275,407.8432L186.2225,408.7712L186.8174,409.7243L187.4124,410.7036L188.0074,411.7099L188.6023,412.7446L189.1973,413.8086L189.7922,414.9032L190.3872,416.0297
            L190.9822,417.1895L191.5771,418.3840L192.1721,419.6148L192.7670,420.8834L193.3620,422.1916L193.9570,423.5412L194.5519,424.9342L195.1469,426.3726L195.7418,427.8586L196.3368,429.3946
            L196.9318,430.9831L197.5267,432.6267L198.1217,434.3284L198.7166,436.0911L199.3116,437.9183L199.9066,439.8133L200.5015,441.7800L201.0965,443.8225L201.6914,445.9452L202.2864,448.1528
            L202.8814,450.4505L203.4763,452.8438L204.0713,455.3387L204.6662,457.9418L205.2612,460.6601L205.8562,463.5016L206.4511,466.4745L207.0461,469.5883L207.6410,472.8530L208.2360,476.2798
            L208.8310,479.8810L209.4259,483.6702L210.0209,487.6624L210.6158,491.8743L211.2108,496.3244L211.8058,501.0335L212.3710,505.7755"/>
   <path d="M232.3485,89.1845L232.3378,505.7755"/>
   <path d="M246.3758,89.1845L246.9084,98.1540L247.5034,107.3902L248.0983,115.9309L248.6933,123.8518L249.2882,131.2182L249.8832,138.0865L250.4782,144.5057L251.0731,150.5186L251.6681,156.1627
            L252.2630,161.4710L252.8580,166.4728L253.4530,171.1940L254.0479,175.6577L254.6429,179.8845L255.2378,183.8928L255.8328,187.6993L256.4278,191.3190L257.0227,194.7653L257.6177,198.0507
            L258.2126,201.1860L258.8076,204.1816L259.4026,207.0467L259.9975,209.7896L260.5925,212.4182L261.1874,214.9394L261.7824,217.3600L262.3774,219.6858L262.9723,221.9224L263.5673,224.0749
            L264.1622,226.1481L264.7572,228.1464L265.3522,230.0738L265.9471,231.9341L266.5421,233.7308L267.1370,235.4673L267.7320,237.1465L268.3270,238.7714L268.9219,240.3446L269.5169,241.8686
            L270.1118,243.3458L270.7068,244.7784L271.3018,246.1684L271.8967,247.5178L272.4917,248.8284L273.0866,250.1020L273.6816,251.3401L274.2766,252.5442L274.8715,253.7160L275.4665,254.8566
            L276.0614,255.9674L276.6564,257.0496L277.2514,258.1044L277.8463,259.1328L278.4413,260.1360L279.0362,261.1149L279.6312,262.0704L280.2262,263.0035L280.8211,263.9150L281.4161,264.8056
            L282.0110,265.6762L282.6060,266.5276L283.2010,267.3603L283.7959,268.1751L284.3909,268.9726L284.9858,269.7535L285.5808,270.5182L286.1758,271.2674L286.7707,272.0016L287.3657,272.7213
            L287.9606,273.4270L288.5556,274.1192L289.1506,274.7983L289.7455,275.4647L290.3405,276.1189L290.9354,276.7613L291.5304,277.3922L292.1254,278.0120L292.7203,278.6211L293.3153,279.2198
            L293.9102,279.8084L294.5052,280.3872L295.1002,280.9566L295.6951,281.5169L296.2901,282.0683L296.8850,282.6111L297.4800,283.1455L298.0750,283.6719L298.6699,284.1904L299.2649,284.7013
            L299.8598,285.2048L300.4548,285.7012L301.0498,286.1907L301.6447,286.6734L302.2397,287.1496L302.8346,287.6195L303.4296,288.0832L304.0246,288.5410L304.6195,288.9930L305.2145,289.4394
            L305.8094,289.8803L306.4044,290.3160L306.9994,290.7466L307.5943,291.1722L308.1893,291.5929L308.7842,292.0090L309.3792,292.4206L309.9742,292.8278L310.5691,293.2308L311.1641,293.6296
            L311.7590,294.0244L312.3540,294.4154L312.9490,294.8026L313.5439,295.1862L314.1389,295.5663L314.7338,295.9430L315.3288,296.3165L315.9238,296.6867L316.5187,297.0539L317.1137,297.4182
            L317.7086,297.7795L318.3036,298.1382L318.8986,298.4941L319.4935,298.8475L320.0885,299.1985L320.6834,299.5471L321.2784,299.8934L321.8734,300.2376L322.4683,300.5796L323.0633,300.9197
            L323.6582,301.2578L324.2532,301.5941L324.8482,301.9287L325.4431,302.2617L326.0381,302.5930L326.6330,302.9229L327.2280,303.2514L327.8230,303.5785L328.4179,303.9044L329.0129,304.2292
            L329.6078,304.5529L330.2028,304.8756L330.7978,305.1973L331.3927,305.5183L331.9877,305.8384L332.5826,306.1579L333.1776,306.4768L333.7726,306.7952L334.3675,307.1131L334.9625,307.4306
            L335.5574,307.7479L336.1524,308.0650L336.7474,308.3819L337.3423,308.6989L337.9373,309.0158L338.5322,309.3329L339.1272,309.6501L339.7222,309.9677L340.3171,310.2856L340.9121,310.6039
            L341.5070,310.9228L342.1020,311.2424L342.6970,311.5626L343.2919,311.8836L343.8869,312.2056L344.4818,312.5285L345.0768,312.8524L345.6718,313.1776L346.2667,313.5040L346.8617,313.8317
            L347.4566,314.1610L348.0516,314.4918L348.6466,314.8242L349.2415,315.1584L349.8365,315.4945L350.4314,315.8326L351.0264,316.1728L351.6214,316.5153L352.2163,316.8600L352.8113,317.2072
            L353.4062,317.5571L354.0012,317.9096L354.5962,318.2650L355.1911,318.6233L355.7861,318.9848L356.3810,319.3496L356.9760,319.7178L357.5710,320.0896L358.1659,320.4651L358.7609,320.8445
            L359.3558,321.2280L359.9508,321.6158L360.5458,322.0080L361.1407,322.4048L361.7357,322.8065L362.3306,323.2131L362.9256,323.6251L363.5206,324.0425L364.1155,324.4655L364.7105,324.8946
            L365.3054,325.3298L365.9004,325.7714L366.4954,326.2198L367.0903,326.6752L367.6853,327.1378L368.2802,327.6081L368.8752,328.0863L369.4702,328.5727L370.0651,329.0678L370.6601,329.5719
            L371.2550,330.0854L371.8500,330.6086L372.4450,331.1421L373.0399,331.6863L373.6349,332.2416L374.2298,332.8085L374.8248,333.3877L375.4198,333.9795L376.0147,334.5847L376.6097,335.2039
            L377.2046,335.8377L377.7996,336.4867L378.3946,337.1518L378.9895,337.8337L379.5845,338.5333L380.1794,339.2514L380.7744,339.9889L381.3694,340.7469L381.9643,341.5265L382.5593,342.3287
            L383.1542,343.1548L383.7492,344.0061L384.3442,344.8839L384.9391,345.7898L385.5341,346.7254L386.1290,347.6923L386.7240,348.6925L387.3190,349.7278L387.9139,350.8006L388.5089,351.9130
            L389.1038,353.0677L389.6988,354.2673L390.2938,355.5149L390.8887,356.8137L391.4837,358.1671L392.0786,359.5791L392.6736,361.0539L393.2686,362.5961L393.8635,364.2108L394.4585,365.9036
            L395.0534,367.6808L395.6484,369.5492L396.2434,371.5165L396.8383,373.5912L397.4333,375.7827L398.0282,378.1019L398.6232,380.5606L399.2182,383.1725L399.8131,385.9528L400.4081,388.9191
            L401.0030,392.0913L401.5980,395.4924L402.1930,399.1487L402.7879,403.0911L403.3829,407.3551L403.9778,411.9830L404.5728,417.0242L405.1678,422.5380L405.7627,428.5951L406.3577,435.2815
            L406.9526,442.7019L407.5476,450.9861L408.1426,460.2958L408.7375,470.8362L409.3325,482.8709L409.9274,496.7446L410.2597,505.7755"/>
   <path d="M418.2526,89.1845L418.2519,505.7755"/>
   <path d="M424.6082,89.1845L424.8014,95.4030L425.3964,111.6097L425.9914,125.5091L426.5863,137.5628L427.1813,148.1170L427.7762,157.4364L428.3712,165.7269L428.9662,173.1511L429.5611,179.8388
            L430.1561,185.8953L430.7510,191.4067L431.3460,196.4442L431.9410,201.0669L432.5359,205.3246L433.1309,209.2595L433.7258,212.9074L434.3208,216.2990L434.9158,219.4610L435.5107,222.4162
            L436.1057,225.1846L436.7006,227.7838L437.2956,230.2291L437.8906,232.5342L438.4855,234.7110L439.0805,236.7702L439.6754,238.7213L440.2704,240.5730L440.8654,242.3328L441.4603,244.0076
            L442.0553,245.6037L442.6502,247.1266L443.2452,248.5816L443.8402,249.9731L444.4351,251.3055L445.0301,252.5825L445.6250,253.8079L446.2200,254.9846L446.8150,256.1158L447.4099,257.2042
            L448.0049,258.2523L448.5998,259.2624L449.1948,260.2367L449.7898,261.1772L450.3847,262.0857L450.9797,262.9639L451.5746,263.8135L452.1696,264.6359L452.7646,265.4325L453.3595,266.2046
            L453.9545,266.9534L454.5494,267.6800L455.1444,268.3856L455.7394,269.0711L456.3343,269.7373L456.9293,270.3853L457.5242,271.0159L458.1192,271.6297L458.7142,272.2276L459.3091,272.8102
            L459.9041,273.3782L460.4990,273.9322L461.0940,274.4727L461.6890,275.0005L462.2839,275.5158L462.8789,276.0193L463.4738,276.5115L464.0688,276.9927L464.6638,277.4634L465.2587,277.9239
            L465.8537,278.3748L466.4486,278.8163L467.0436,279.2487L467.6386,279.6725L468.2335,280.0879L468.8285,280.4953L469.4234,280.8949L470.0184,281.2869L470.6134,281.6718L471.2083,282.0496
            L471.8033,282.4207L472.3982,282.7852L472.9932,283.1435L473.5882,283.4957L474.1831,283.8419L474.7781,284.1825L475.3730,284.5176L475.9680,284.8474L476.5630,285.1720L477.1579,285.4916
            L477.7529,285.8065L478.3478,286.1166L478.9428,286.4222L479.5378,286.7234L480.1327,287.0204L480.7277,287.3133L481.3226,287.6022L481.9176,287.8873L482.5126,288.1686L483.1075,288.4463
            L483.7025,288.7204L484.2974,288.9912L484.8924,289.2587L485.4874,289.5230L486.0823,289.7841L486.6773,290.0423L487.2722,290.2976L487.8672,290.5500L488.4622,290.7997L489.0571,291.0468
            L489.6521,291.2913L490.2470,291.5333L490.8420,291.7729L491.4370,292.0102L492.0319,292.2451L492.6269,292.4779L493.2218,292.7086L493.8168,292.9373L494.4118,293.1639L495.0067,293.3886
            L495.6017,293.6115L496.1966,293.8325L496.7916,294.0518L497.3866,294.2695L497.9815,294.4855L498.5765,294.7000L499.1714,294.9129L499.7664,295.1244L500.3614,295.3345L500.9563,295.5432
            L501.5513,295.7507L502.1462,295.9569L502.7412,296.1618L503.3362,296.3657L503.9311,296.5684L504.5261,296.7701L505.1210,296.9708L505.7160,297.1705L506.3110,297.3693L506.9059,297.5672
            L507.5009,297.7644L508.0958,297.9607L508.6908,298.1563L509.2858,298.3511L509.8807,298.5454L510.4757,298.7390L511.0706,298.9321L511.6656,299.1246L512.2606,299.3166L512.8555,299.5082
            L513.4505,299.6994L514.0454,299.8903L514.6404,300.0808L515.2354,300.2710L515.8303,300.4610L516.4253,300.6508L517.0202,300.8404L517.6152,301.0300L518.2102,301.2194L518.8051,301.4089
            L519.4001,301.5983L519.9950,301.7878L520.5900,301.9773L521.1850,302.1671L521.7799,302.3570L522.3749,302.5471L522.9698,302.7374L523.5648,302.9281L524.1598,303.1192L524.7547,303.3106
            L525.3497,303.5025L525.9446,303.6948L526.5396,303.8877L527.1346,304.0812L527.7295,304.2753L528.3245,304.4701L528.9194,304.6656L529.5144,304.8619L530.1094,305.0590L530.7043,305.2570
            L531.2993,305.4559L531.8942,305.6559L532.4892,305.8568L533.0842,306.0589L533.6791,306.2621L534.2741,306.4666L534.8690,306.6723L535.4640,306.8794L536.0590,307.0879L536.6539,307.2978
            L537.2489,307.5093L537.8438,307.7224L538.4388,307.9372L539.0338,308.1537L539.6287,308.3721L540.2237,308.5924L540.8186,308.8146L541.4136,309.0389L542.0086,309.2654L542.6035,309.4941
            L543.1985,309.7252L543.7934,309.9587L544.3884,310.1947L544.9834,310.4334L545.5783,310.6747L546.1733,310.9190L546.7682,311.1661L547.3632,311.4164L547.9582,311.6698L548.5531,311.9266
            L549.1481,312.1868L549.7430,312.4506L550.3380,312.7181L550.9330,312.9895L551.5279,313.2649L552.1229,313.5445L552.7178,313.8285L553.3128,314.1170L553.9078,314.4102L554.5027,314.7084
            L555.0977,315.0116L555.6926,315.3202L556.2876,315.6343L556.8826,315.9542L557.4775,316.2801L558.0725,316.6122L558.6674,316.9509L559.2624,317.2965L559.8574,317.6491L560.4523,318.0092
            L561.0473,318.3770L561.6422,318.7529L562.2372,319.1373L562.8322,319.5305L563.4271,319.9330L564.0221,320.3452L564.6170,320.7675L565.2120,321.2005L565.8070,321.6446L566.4019,322.1005
            L566.9969,322.5686L567.5918,323.0497L568.1868,323.5443L568.7818,324.0532L569.3767,324.5771L569.9717,325.1169L570.5666,325.6733L571.1616,326.2474L571.7566,326.8401L572.3515,327.4525
            L572.9465,328.0857L573.5414,328.7410L574.1364,329.4196L574.7314,330.1232L575.3263,330.8531L575.9213,331.6111L576.5162,332.3991L577.1112,333.2190L577.7062,334.0730L578.3011,334.9636
            L578.8961,335.8932L579.4910,336.8648L580.0860,337.8814L580.6810,338.9467L581.2759,340.0643L581.8709,341.2385L582.4658,342.4740L583.0608,343.7760L583.6558,345.1503L584.2507,346.6035
            L584.8457,348.1429L585.4406,349.7768L586.0356,351.5144L586.6306,353.3665L587.2255,355.3452L587.8205,357.4643L588.4154,359.7399L589.0104,362.1904L589.6054,364.8375L590.2003,367.7064
            L590.7953,370.8268L591.3902,374.2342L591.9852,377.9707L592.5802,382.0875L593.1751,386.6465L593.7701,391.7242L594.3650,397.4157L594.9600,403.8408L595.5550,411.1526L596.1499,419.5502
            L596.7449,429.2967L597.3398,440.7482L597.9348,454.3977L598.5298,470.9488L599.1247,491.4412L599.4523,505.7755"/>
   <path d="M604.2759,89.1845L604.2397,505.7755"/>
   <path d="M608.6231,89.1845L608.6441,90.3068L609.2390,114.7349L609.8340,134.0981L610.4290,149.8263L611.0239,162.8574L611.6189,173.8320L612.2138,183.2029L612.8088,191.2990L613.4038,198.3651
            L613.9987,204.5869L614.5937,210.1081L615.1886,215.0416L615.7836,219.4771L616.3786,223.4872L616.9735,227.1307L617.5685,230.4564L618.1634,233.5045L618.7584,236.3088L619.3534,238.8980
            L619.9483,241.2962L620.5433,243.5241L621.1382,245.5996L621.7332,247.5382L622.3282,249.3532L622.9231,251.0564L623.5181,252.6581L624.1130,254.1672L624.7080,255.5919L625.3030,256.9391
            L625.8979,258.2154L626.4929,259.4263L627.0878,260.5769L627.6828,261.6718L628.2778,262.7150L628.8727,263.7104L629.4677,264.6613L630.0626,265.5707L630.6576,266.4414L631.2526,267.2761
            L631.8475,268.0769L632.4425,268.8461L633.0374,269.5855L633.6324,270.2971L634.2274,270.9824L634.8223,271.6429L635.4173,272.2802L636.0122,272.8955L636.6072,273.4899L637.2022,274.0647
            L637.7971,274.6209L638.3921,275.1594L638.9870,275.6812L639.5820,276.1871L640.1770,276.6779L640.7719,277.1543L641.3669,277.6171L641.9618,278.0668L642.5568,278.5042L643.1518,278.9296
            L643.7467,279.3438L644.3417,279.7472L644.9366,280.1402L645.5316,280.5234L646.1266,280.8972L646.7215,281.2619L647.3165,281.6179L647.9114,281.9656L648.5064,282.3054L649.1014,282.6375
            L649.6963,282.9623L650.2913,283.2800L650.8862,283.5910L651.4812,283.8954L652.0762,284.1936L652.6711,284.4858L653.2661,284.7721L653.8610,285.0529L654.4560,285.3283L655.0510,285.5985
            L655.6459,285.8637L656.2409,286.1241L656.8358,286.3798L657.4308,286.6311L658.0258,286.8780L658.6207,287.1207L659.2157,287.3594L659.8106,287.5942L660.4056,287.8252L661.0006,288.0526
            L661.5955,288.2765L662.1905,288.4969L662.7854,288.7141L663.3804,288.9281L663.9754,289.1390L664.5703,289.3469L665.1653,289.5519L665.7602,289.7541L666.3552,289.9537L666.9502,290.1506
            L667.5451,290.3450L668.1401,290.5369L668.7350,290.7265L669.3300,290.9137L669.9250,291.0988L670.5199,291.2817L671.1149,291.4624L671.7098,291.6412L672.3048,291.8180L672.8998,291.9929
            L673.4947,292.1660L674.0897,292.3373L674.6846,292.5068L675.2796,292.6747L675.8746,292.8410L676.4695,293.0057L677.0645,293.1689L677.6594,293.3307L678.2544,293.4910L678.8494,293.6499
            L679.4443,293.8076L680.0393,293.9639L680.6342,294.1190L681.2292,294.2730L681.8242,294.4257L682.4191,294.5774L683.0141,294.7280L683.6090,294.8775L684.2040,295.0261"/>
  </g>
  <g style="fill:none; stroke:#000000; stroke-width:  1.7849; stroke-linecap:butt; stroke-linejoin:miter; stroke-dasharray: 2 5">
   <path d="M89.8390,297.4800L90.4339,297.4800L91.0289,297.4800L91.6238,297.4800L92.2188,297.4800L92.8138,297.4800L93.4087,297.4800L94.0037,297.4800L94.5986,297.4800L95.1936,297.4800
            L95.7886,297.4800L96.3835,297.4800L96.9785,297.4800L97.5734,297.4800L98.1684,297.4800L98.7634,297.4800L99.3583,297.4800L99.9533,297.4800L100.5482,297.4800L101.1432,297.4800
            L101.7382,297.4800L102.3331,297.4800L102.9281,297.4800L103.5230,297.4800L104.1180,297.4800L104.7130,297.4800L105.3079,297.4800L105.9029,297.4800L106.4978,297.4800L107.0928,297.4800
            L107.6878,297.4800L108.2827,297.4800L108.8777,297.4800L109.4726,297.4800L110.0676,297.4800L110.6626,297.4800L111.2575,297.4800L111.8525,297.4800L112.4474,297.4800L113.0424,297.4800
            L113.6374,297.4800L114.2323,297.4800L114.8273,297.4800L115.4222,297.4800L116.0172,297.4800L116.6122,297.4800L117.2071,297.4800L117.8021,297.4800L118.3970,297.4800L118.9920,297.4800
            L119.5870,297.4800L120.1819,297.4800L120.7769,297.4800L121.3718,297.4800L121.9668,297.4800L122.5618,297.4800L123.1567,297.4800L123.7517,297.4800L124.3466,297.4800L124.9416,297.4800
            L125.5366,297.4800L126.1315,297.4800L126.7265,297.4800L127.3214,297.4800L127.9164,297.4800L128.5114,297.4800L129.1063,297.4800L129.7013,297.4800L130.2962,297.4800L130.8912,297.4800
            L131.4862,297.4800L132.0811,297.4800L132.6761,297.4800L133.2710,297.4800L133.8660,297.4800L134.4610,297.4800L135.0559,297.4800L135.6509,297.4800L136.2458,297.4800L136.8408,297.4800
            L137.4358,297.4800L138.0307,297.4800L138.6257,297.4800L139.2206,297.4800L139.8156,297.4800L140.4106,297.4800L141.0055,297.4800L141.6005,297.4800L142.1954,297.4800L142.7904,297.4800
            L143.3854,297.4800L143.9803,297.4800L144.5753,297.4800L145.1702,297.4800L145.7652,297.4800L146.3602,297.4800L146.9551,297.4800L147.5501,297.4800L148.1450,297.4800L148.7400,297.4800
            L149.3350,297.4800L149.9299,297.4800L150.5249,297.4800L151.1198,297.4800L151.7148,297.4800L152.3098,297.4800L152.9047,297.4800L153.4997,297.4800L154.0946,297.4800L154.6896,297.4800
            L155.2846,297.4800L155.8795,297.4800L156.4745,297.4800L157.0694,297.4800L157.6644,297.4800L158.2594,297.4800L158.8543,297.4800L159.4493,297.4800L160.0442,297.4800L160.6392,297.4800
            L161.2342,297.4800L161.8291,297.4800L162.4241,297.4800L163.0190,297.4800L163.6140,297.4800L164.2090,297.4800L164.8039,297.4800L165.3989,297.4800L165.9938,297.4800L166.5888,297.4800
            L167.1838,297.4800L167.7787,297.4800L168.3737,297.4800L168.9686,297.4800L169.5636,297.4800L170.1586,297.4800L170.7535,297.4800L171.3485,297.4800L171.9434,297.4800L172.5384,297.4800
            L173.1334,297.4800L173.7283,297.4800L174.3233,297.4800L174.9182,297.4800L175.5132,297.4800L176.1082,297.4800L176.7031,297.4800L177.2981,297.4800L177.8930,297.4800L178.4880,297.4800
            L179.0830,297.4800L179.6779,297.4800L180.2729,297.4800L180.8678,297.4800L181.4628,297.4800L182.0578,297.4800L182.6527,297.4800L183.2477,297.4800L183.8426,297.4800L184.4376,297.4800
            L185.0326,297.4800L185.6275,297.4800L186.2225,297.4800L186.8174,297.4800L187.4124,297.4800L188.0074,297.4800L188.6023,297.4800L189.1973,297.4800L189.7922,297.4800L190.3872,297.4800
            L190.9822,297.4800L191.5771,297.4800L192.1721,297.4800L192.7670,297.4800L193.3620,297.4800L193.9570,297.4800L194.5519,297.4800L195.1469,297.4800L195.7418,297.4800L196.3368,297.4800
            L196.9318,297.4800L197.5267,297.4800L198.1217,297.4800L198.7166,297.4800L199.3116,297.4800L199.9066,297.4800L200.5015,297.4800L201.0965,297.4800L201.6914,297.4800L202.2864,297.4800
            L202.8814,297.4800L203.4763,297.4800L204.0713,297.4800L204.6662,297.4800L205.2612,297.4800L205.8562,297.4800L206.4511,297.4800L207.0461,297.4800L207.6410,297.4800L208.2360,297.4800
            L208.8310,297.4800L209.4259,297.4800L210.0209,297.4800L210.6158,297.4800L211.2108,297.4800L211.8058,297.4800L212.4007,297.4800L212.9957,297.4800L213.5906,297.4800L214.1856,297.4800
            L214.7806,297.4800L215.3755,297.4800L215.9705,297.4800L216.5654,297.4800L217.1604,297.4800L217.7554,297.4800L218.3503,297.4800L218.9453,297.4800L219.5402,297.4800L220.1352,297.4800
            L220.7302,297.4800L221.3251,297.4800L221.9201,297.4800L222.5150,297.4800L223.1100,297.4800L223.7050,297.4800L224.2999,297.4800L224.8949,297.4800L225.4898,297.4800L226.0848,297.4800
            L226.6798,297.4800L227.2747,297.4800L227.8697,297.4800L228.4646,297.4800L229.0596,297.4800L229.6546,297.4800L230.2495,297.4800L230.8445,297.4800L231.4394,297.4800L232.0344,297.4800
            L232.6294,297.4800L233.2243,297.4800L233.8193,297.4800L234.4142,297.4800L235.0092,297.4800L235.6042,297.4800L236.1991,297.4800L236.7941,297.4800L237.3890,297.4800L237.9840,297.4800
            L238.5790,297.4800L239.1739,297.4800L239.7689,297.4800L240.3638,297.4800L240.9588,297.4800L241.5538,297.4800L242.1487,297.4800L242.7437,297.4800L243.3386,297.4800L243.9336,297.4800
            L244.5286,297.4800L245.1235,297.4800L245.7185,297.4800L246.3134,297.4800L246.9084,297.4800L247.5034,297.4800L248.0983,297.4800L248.6933,297.4800L249.2882,297.4800L249.8832,297.4800
            L250.4782,297.4800L251.0731,297.4800L251.6681,297.4800L252.2630,297.4800L252.8580,297.4800L253.4530,297.4800L254.0479,297.4800L254.6429,297.4800L255.2378,297.4800L255.8328,297.4800
            L256.4278,297.4800L257.0227,297.4800L257.6177,297.4800L258.2126,297.4800L258.8076,297.4800L259.4026,297.4800L259.9975,297.4800L260.5925,297.4800L261.1874,297.4800L261.7824,297.4800
            L262.3774,297.4800L262.9723,297.4800L263.5673,297.4800L264.1622,297.4800L264.7572,297.4800L265.3522,297.4800L265.9471,297.4800L266.5421,297.4800L267.1370,297.4800L267.7320,297.4800
            L268.3270,297.4800L268.9219,297.4800L269.5169,297.4800L270.1118,297.4800L270.7068,297.4800L271.3018,297.4800L271.8967,297.4800L272.4917,297.4800L273.0866,297.4800L273.6816,297.4800
            L274.2766,297.4800L274.8715,297.4800L275.4665,297.4800L276.0614,297.4800L276.6564,297.4800L277.2514,297.4800L277.8463,297.4800L278.4413,297.4800L279.0362,297.4800L279.6312,297.4800
            L280.2262,297.4800L280.8211,297.4800L281.4161,297.4800L282.0110,297.4800L282.6060,297.4800L283.2010,297.4800L283.7959,297.4800L284.3909,297.4800L284.9858,297.4800L285.5808,297.4800
            L286.1758,297.4800L286.7707,297.4800L287.3657,297.4800L287.9606,297.4800L288.5556,297.4800L289.1506,297.4800L289.7455,297.4800L290.3405,297.4800L290.9354,297.4800L291.5304,297.4800
            L292.1254,297.4800L292.7203,297.4800L293.3153,297.4800L293.9102,297.4800L294.5052,297.4800L295.1002,297.4800L295.6951,297.4800L296.2901,297.4800L296.8850,297.4800L297.4800,297.4800
            L298.0750,297.4800L298.6699,297.4800L299.2649,297.4800L299.8598,297.4800L300.4548,297.4800L301.0498,297.4800L301.6447,297.4800L302.2397,297.4800L302.8346,297.4800L303.4296,297.4800
            L304.0246,297.4800L304.6195,297.4800L305.2145,297.4800L305.8094,297.4800L306.4044,297.4800L306.9994,297.4800L307.5943,297.4800L308.1893,297.4800L308.7842,297.4800L309.3792,297.4800
            L309.9742,297.4800L310.5691,297.4800L311.1641,297.4800L311.7590,297.4800L312.3540,297.4800L312.9490,297.4800L313.5439,297.4800L314.1389,297.4800L314.7338,297.4800L315.3288,297.4800
            L315.9238,297.4800L316.5187,297.4800L317.1137,297.4800L317.7086,297.4800L318.3036,297.4800L318.8986,297.4800L319.4935,297.4800L320.0885,297.4800L320.6834,297.4800L321.2784,297.4800
            L321.8734,297.4800L322.4683,297.4800L323.0633,297.4800L323.6582,297.4800L324.2532,297.4800L324.8482,297.4800L325.4431,297.4800L326.0381,297.4800L326.6330,297.4800L327.2280,297.4800
            L327.8230,297.4800L328.4179,297.4800L329.0129,297.4800L329.6078,297.4800L330.2028,297.4800L330.7978,297.4800L331.3927,297.4800L331.9877,297.4800L332.5826,297.4800L333.1776,297.4800
            L333.7726,297.4800L334.3675,297.4800L334.9625,297.4800L335.5574,297.4800L336.1524,297.4800L336.7474,297.4800L337.3423,297.4800L337.9373,297.4800L338.5322,297.4800L339.1272,297.4800
            L339.7222,297.4800L340.3171,297.4800L340.9121,297.4800L341.5070,297.4800L342.1020,297.4800L342.6970,297.4800L343.2919,297.4800L343.8869,297.4800L344.4818,297.4800L345.0768,297.4800
            L345.6718,297.4800L346.2667,297.4800L346.8617,297.4800L347.4566,297.4800L348.0516,297.4800L348.6466,297.4800L349.2415,297.4800L349.8365,297.4800L350.4314,297.4800L351.0264,297.4800
            L351.6214,297.4800L352.2163,297.4800L352.8113,297.4800L353.4062,297.4800L354.0012,297.4800L354.5962,297.4800L355.1911,297.4800L355.7861,297.4800L356.3810,297.4800L356.9760,297.4800
            L357.5710,297.4800L358.1659,297.4800L358.7609,297.4800L359.3558,297.4800L359.9508,297.4800L360.5458,297.4800L361.1407,297.4800L361.7357,297.4800L362.3306,297.4800L362.9256,297.4800
            L363.5206,297.4800L364.1155,297.4800L364.7105,297.4800L365.3054,297.4800L365.9004,297.4800L366.4954,297.4800L367.0903,297.4800L367.6853,297.4800L368.2802,297.4800L368.8752,297.4800
            L369.4702,297.4800L370.0651,297.4800L370.6601,297.4800L371.2550,297.4800L371.8500,297.4800L372.4450,297.4800L373.0399,297.4800L373.6349,297.4800L374.2298,297.4800L374.8248,297.4800
            L375.4198,297.4800L376.0147,297.4800L376.6097,297.4800L377.2046,297.4800L377.7996,297.4800L378.3946,297.4800L378.9895,297.4800L379.5845,297.4800L380.1794,297.4800L380.7744,297.4800
            L381.3694,297.4800L381.9643,297.4800L382.5593,297.4800L383.1542,297.4800L383.7492,297.4800L384.3442,297.4800L384.9391,297.4800L385.5341,297.4800L386.1290,297.4800L386.7240,297.4800
            L387.3190,297.4800L387.9139,297.4800L388.5089,297.4800L389.1038,297.4800L389.6988,297.4800L390.2938,297.4800L390.8887,297.4800L391.4837,297.4800L392.0786,297.4800L392.6736,297.4800
            L393.2686,297.4800L393.8635,297.4800L394.4585,297.4800L395.0534,297.4800L395.6484,297.4800L396.2434,297.4800L396.8383,297.4800L397.4333,297.4800L398.0282,297.4800L398.6232,297.4800
            L399.2182,297.4800L399.8131,297.4800L400.4081,297.4800L401.0030,297.4800L401.5980,297.4800L402.1930,297.4800L402.7879,297.4800L403.3829,297.4800L403.9778,297.4800L404.5728,297.4800
            L405.1678,297.4800L405.7627,297.4800L406.3577,297.4800L406.9526,297.4800L407.5476,297.4800L408.1426,297.4800L408.7375,297.4800L409.3325,297.4800L409.9274,297.4800L410.5224,297.4800
            L411.1174,297.4800L411.7123,297.4800L412.3073,297.4800L412.9022,297.4800L413.4972,297.4800L414.0922,297.4800L414.6871,297.4800L415.2821,297.4800L415.8770,297.4800L416.4720,297.4800
            L417.0670,297.4800L417.6619,297.4800L418.2569,297.4800L418.8518,297.4800L419.4468,297.4800L420.0418,297.4800L420.6367,297.4800L421.2317,297.4800L421.8266,297.4800L422.4216,297.4800
            L423.0166,297.4800L423.6115,297.4800L424.2065,297.4800L424.8014,297.4800L425.3964,297.4800L425.9914,297.4800L426.5863,297.4800L427.1813,297.4800L427.7762,297.4800L428.3712,297.4800
            L428.9662,297.4800L429.5611,297.4800L430.1561,297.4800L430.7510,297.4800L431.3460,297.4800L431.9410,297.4800L432.5359,297.4800L433.1309,297.4800L433.7258,297.4800L434.3208,297.4800
            L434.9158,297.4800L435.5107,297.4800L436.1057,297.4800L436.7006,297.4800L437.2956,297.4800L437.8906,297.4800L438.4855,297.4800L439.0805,297.4800L439.6754,297.4800L440.2704,297.4800
            L440.8654,297.4800L441.4603,297.4800L442.0553,297.4800L442.6502,297.4800L443.2452,297.4800L443.8402,297.4800L444.4351,297.4800L445.0301,297.4800L445.6250,297.4800L446.2200,297.4800
            L446.8150,297.4800L447.4099,297.4800L448.0049,297.4800L448.5998,297.4800L449.1948,297.4800L449.7898,297.4800L450.3847,297.4800L450.9797,297.4800L451.5746,297.4800L452.1696,297.4800
            L452.7646,297.4800L453.3595,297.4800L453.9545,297.4800L454.5494,297.4800L455.1444,297.4800L455.7394,297.4800L456.3343,297.4800L456.9293,297.4800L457.5242,297.4800L458.1192,297.4800
            L458.7142,297.4800L459.3091,297.4800L459.9041,297.4800L460.4990,297.4800L461.0940,297.4800L461.6890,297.4800L462.2839,297.4800L462.8789,297.4800L463.4738,297.4800L464.0688,297.4800
            L464.6638,297.4800L465.2587,297.4800L465.8537,297.4800L466.4486,297.4800L467.0436,297.4800L467.6386,297.4800L468.2335,297.4800L468.8285,297.4800L469.4234,297.4800L470.0184,297.4800
            L470.6134,297.4800L471.2083,297.4800L471.8033,297.4800L472.3982,297.4800L472.9932,297.4800L473.5882,297.4800L474.1831,297.4800L474.7781,297.4800L475.3730,297.4800L475.9680,297.4800
            L476.5630,297.4800L477.1579,297.4800L477.7529,297.4800L478.3478,297.4800L478.9428,297.4800L479.5378,297.4800L480.1327,297.4800L480.7277,297.4800L481.3226,297.4800L481.9176,297.4800
            L482.5126,297.4800L483.1075,297.4800L483.7025,297.4800L484.2974,297.4800L484.8924,297.4800L485.4874,297.4800L486.0823,297.4800L486.6773,297.4800L487.2722,297.4800L487.8672,297.4800
            L488.4622,297.4800L489.0571,297.4800L489.6521,297.4800L490.2470,297.4800L490.8420,297.4800L491.4370,297.4800L492.0319,297.4800L492.6269,297.4800L493.2218,297.4800L493.8168,297.4800
            L494.4118,297.4800L495.0067,297.4800L495.6017,297.4800L496.1966,297.4800L496.7916,297.4800L497.3866,297.4800L497.9815,297.4800L498.5765,297.4800L499.1714,297.4800L499.7664,297.4800
            L500.3614,297.4800L500.9563,297.4800L501.5513,297.4800L502.1462,297.4800L502.7412,297.4800L503.3362,297.4800L503.9311,297.4800L504.5261,297.4800L505.1210,297.4800L505.7160,297.4800
            L506.3110,297.4800L506.9059,297.4800L507.5009,297.4800L508.0958,297.4800L508.6908,297.4800L509.2858,297.4800L509.8807,297.4800L510.4757,297.4800L511.0706,297.4800L511.6656,297.4800
            L512.2606,297.4800L512.8555,297.4800L513.4505,297.4800L514.0454,297.4800L514.6404,297.4800L515.2354,297.4800L515.8303,297.4800L516.4253,297.4800L517.0202,297.4800L517.6152,297.4800
            L518.2102,297.4800L518.8051,297.4800L519.4001,297.4800L519.9950,297.4800L520.5900,297.4800L521.1850,297.4800L521.7799,297.4800L522.3749,297.4800L522.9698,297.4800L523.5648,297.4800
            L524.1598,297.4800L524.7547,297.4800L525.3497,297.4800L525.9446,297.4800L526.5396,297.4800L527.1346,297.4800L527.7295,297.4800L528.3245,297.4800L528.9194,297.4800L529.5144,297.4800
            L530.1094,297.4800L530.7043,297.4800L531.2993,297.4800L531.8942,297.4800L532.4892,297.4800L533.0842,297.4800L533.6791,297.4800L534.2741,297.4800L534.8690,297.4800L535.4640,297.4800
            L536.0590,297.4800L536.6539,297.4800L537.2489,297.4800L537.8438,297.4800L538.4388,297.4800L539.0338,297.4800L539.6287,297.4800L540.2237,297.4800L540.8186,297.4800L541.4136,297.4800
            L542.0086,297.4800L542.6035,297.4800L543.1985,297.4800L543.7934,297.4800L544.3884,297.4800L544.9834,297.4800L545.5783,297.4800L546.1733,297.4800L546.7682,297.4800L547.3632,297.4800
            L547.9582,297.4800L548.5531,297.4800L549.1481,297.4800L549.7430,297.4800L550.3380,297.4800L550.9330,297.4800L551.5279,297.4800L552.1229,297.4800L552.7178,297.4800L553.3128,297.4800
            L553.9078,297.4800L554.5027,297.4800L555.0977,297.4800L555.6926,297.4800L556.2876,297.4800L556.8826,297.4800L557.4775,297.4800L558.0725,297.4800L558.6674,297.4800L559.2624,297.4800
            L559.8574,297.4800L560.4523,297.4800L561.0473,297.4800L561.6422,297.4800L562.2372,297.4800L562.8322,297.4800L563.4271,297.4800L564.0221,297.4800L564.6170,297.4800L565.2120,297.4800
            L565.8070,297.4800L566.4019,297.4800L566.9969,297.4800L567.5918,297.4800L568.1868,297.4800L568.7818,297.4800L569.3767,297.4800L569.9717,297.4800L570.5666,297.4800L571.1616,297.4800
            L571.7566,297.4800L572.3515,297.4800L572.9465,297.4800L573.5414,297.4800L574.1364,297.4800L574.7314,297.4800L575.3263,297.4800L575.9213,297.4800L576.5162,297.4800L577.1112,297.4800
            L577.7062,297.4800L578.3011,297.4800L578.8961,297.4800L579.4910,297.4800L580.0860,297.4800L580.6810,297.4800L581.2759,297.4800L581.8709,297.4800L582.4658,297.4800L583.0608,297.4800
            L583.6558,297.4800L584.2507,297.4800L584.8457,297.4800L585.4406,297.4800L586.0356,297.4800L586.6306,297.4800L587.2255,297.4800L587.8205,297.4800L588.4154,297.4800L589.0104,297.4800
            L589.6054,297.4800L590.2003,297.4800L590.7953,297.4800L591.3902,297.4800L591.9852,297.4800L592.5802,297.4800L593.1751,297.4800L593.7701,297.4800L594.3650,297.4800L594.9600,297.4800
            L595.5550,297.4800L596.1499,297.4800L596.7449,297.4800L597.3398,297.4800L597.9348,297.4800L598.5298,297.4800L599.1247,297.4800L599.7197,297.4800L600.3146,297.4800L600.9096,297.4800
            L601.5046,297.4800L602.0995,297.4800L602.6945,297.4800L603.2894,297.4800L603.8844,297.4800L604.4794,297.4800L605.0743,297.4800L605.6693,297.4800L606.2642,297.4800L606.8592,297.4800
            L607.4542,297.4800L608.0491,297.4800L608.6441,297.4800L609.2390,297.4800L609.8340,297.4800L610.4290,297.4800L611.0239,297.4800L611.6189,297.4800L612.2138,297.4800L612.8088,297.4800
            L613.4038,297.4800L613.9987,297.4800L614.5937,297.4800L615.1886,297.4800L615.7836,297.4800L616.3786,297.4800L616.9735,297.4800L617.5685,297.4800L618.1634,297.4800L618.7584,297.4800
            L619.3534,297.4800L619.9483,297.4800L620.5433,297.4800L621.1382,297.4800L621.7332,297.4800L622.3282,297.4800L622.9231,297.4800L623.5181,297.4800L624.1130,297.4800L624.7080,297.4800
            L625.3030,297.4800L625.8979,297.4800L626.4929,297.4800L627.0878,297.4800L627.6828,297.4800L628.2778,297.4800L628.8727,297.4800L629.4677,297.4800L630.0626,297.4800L630.6576,297.4800
            L631.2526,297.4800L631.8475,297.4800L632.4425,297.4800L633.0374,297.4800L633.6324,297.4800L634.2274,297.4800L634.8223,297.4800L635.4173,297.4800L636.0122,297.4800L636.6072,297.4800
            L637.2022,297.4800L637.7971,297.4800L638.3921,297.4800L638.9870,297.4800L639.5820,297.4800L640.1770,297.4800L640.7719,297.4800L641.3669,297.4800L641.9618,297.4800L642.5568,297.4800
            L643.1518,297.4800L643.7467,297.4800L644.3417,297.4800L644.9366,297.4800L645.5316,297.4800L646.1266,297.4800L646.7215,297.4800L647.3165,297.4800L647.9114,297.4800L648.5064,297.4800
            L649.1014,297.4800L649.6963,297.4800L650.2913,297.4800L650.8862,297.4800L651.4812,297.4800L652.0762,297.4800L652.6711,297.4800L653.2661,297.4800L653.8610,297.4800L654.4560,297.4800
            L655.0510,297.4800L655.6459,297.4800L656.2409,297.4800L656.8358,297.4800L657.4308,297.4800L658.0258,297.4800L658.6207,297.4800L659.2157,297.4800L659.8106,297.4800L660.4056,297.4800
            L661.0006,297.4800L661.5955,297.4800L662.1905,297.4800L662.7854,297.4800L663.3804,297.4800L663.9754,297.4800L664.5703,297.4800L665.1653,297.4800L665.7602,297.4800L666.3552,297.4800
            L666.9502,297.4800L667.5451,297.4800L668.1401,297.4800L668.7350,297.4800L669.3300,297.4800L669.9250,297.4800L670.5199,297.4800L671.1149,297.4800L671.7098,297.4800L672.3048,297.4800
            L672.8998,297.4800L673.4947,297.4800L674.0897,297.4800L674.6846,297.4800L675.2796,297.4800L675.8746,297.4800L676.4695,297.4800L677.0645,297.4800L677.6594,297.4800L678.2544,297.4800
            L678.8494,297.4800L679.4443,297.4800L680.0393,297.4800L680.6342,297.4800L681.2292,297.4800L681.8242,297.4800L682.4191,297.4800L683.0141,297.4800L683.6090,297.4800L684.2040,297.4800"/>
  </g>
  <g style="fill:none; stroke:#FF0000; stroke-width:  2.6773; stroke-linecap:butt; stroke-linejoin:miter; stroke-dasharray:none">
   <path d="M89.3035,279.0728L89.8990,279.0727L90.4945,279.0727L91.0900,279.0726L91.6855,279.0725L92.2810,279.0724L92.8765,279.0722L93.4720,279.0720L94.0675,279.0718L94.6630,279.0715
            L95.2585,279.0712L95.8540,279.0709L96.4494,279.0705L97.0449,279.0701L97.6404,279.0697L98.2359,279.0693L98.8314,279.0688L99.4269,279.0683L100.0224,279.0678L100.6179,279.0672
            L101.2134,279.0666L101.8089,279.0660L102.4044,279.0653L102.9999,279.0646L103.5954,279.0639L104.1909,279.0632L104.7864,279.0624L105.3819,279.0616L105.9774,279.0607L106.5729,279.0599
            L107.1684,279.0590L107.7639,279.0580L108.3594,279.0571L108.9549,279.0561L109.5504,279.0550L110.1459,279.0540L110.7414,279.0529L111.3368,279.0518L111.9323,279.0506L112.5278,279.0495
            L113.1233,279.0483L113.7188,279.0470L114.3143,279.0457L114.9098,279.0444L115.5053,279.0431L116.1008,279.0417L116.6963,279.0403L117.2918,279.0389L117.8873,279.0375L118.4828,279.0360
            L119.0783,279.0345L119.6738,279.0329L120.2693,279.0313L120.8648,279.0297L121.4603,279.0281L122.0558,279.0264L122.6513,279.0247L123.2468,279.0230L123.8423,279.0212L124.4378,279.0194
            L125.0333,279.0176L125.6288,279.0157L126.2242,279.0138L126.8197,279.0119L127.4152,279.0099L128.0107,279.0080L128.6062,279.0059L129.2017,279.0039L129.7972,279.0018L130.3927,278.9997
            L130.9882,278.9976L131.5837,278.9954L132.1792,278.9932L132.7747,278.9909L133.3702,278.9887L133.9657,278.9864L134.5612,278.9840L135.1567,278.9817L135.7522,278.9793L136.3477,278.9769
            L136.9432,278.9744L137.5387,278.9719L138.1342,278.9694L138.7297,278.9668L139.3252,278.9642L139.9207,278.9616L140.5162,278.9590L141.1116,278.9563L141.7071,278.9536L142.3026,278.9508
            L142.8981,278.9480L143.4936,278.9452L144.0891,278.9424L144.6846,278.9395L145.2801,278.9366L145.8756,278.9337L146.4711,278.9307L147.0666,278.9277L147.6621,278.9246L148.2576,278.9216
            L148.8531,278.9185L149.4486,278.9153L150.0441,278.9122L150.6396,278.9090L151.2351,278.9057L151.8306,278.9025L152.4261,278.8992L153.0216,278.8958L153.6171,278.8925L154.2126,278.8891
            L154.8081,278.8856L155.4036,278.8822L155.9990,278.8787L156.5945,278.8751L157.1900,278.8716L157.7855,278.8679L158.3810,278.8643L158.9765,278.8606L159.5720,278.8569L160.1675,278.8532
            L160.7630,278.8494L161.3585,278.8456L161.9540,278.8418L162.5495,278.8379L163.1450,278.8340L163.7405,278.8301L164.3360,278.8261L164.9315,278.8221L165.5270,278.8181L166.1225,278.8140
            L166.7180,278.8099L167.3135,278.8057L167.9090,278.8016L168.5045,278.7974L169.1000,278.7931L169.6955,278.7888L170.2910,278.7845L170.8864,278.7802L171.4819,278.7758L172.0774,278.7714
            L172.6729,278.7669L173.2684,278.7624L173.8639,278.7579L174.4594,278.7533L175.0549,278.7487L175.6504,278.7441L176.2459,278.7394L176.8414,278.7347L177.4369,278.7300L178.0324,278.7252
            L178.6279,278.7204L179.2234,278.7156L179.8189,278.7107L180.4144,278.7058L181.0099,278.7008L181.6054,278.6958L182.2009,278.6908L182.7964,278.6857L183.3919,278.6806L183.9874,278.6755
            L184.5829,278.6703L185.1784,278.6651L185.7738,278.6599L186.3693,278.6546L186.9648,278.6493L187.5603,278.6439L188.1558,278.6385L188.7513,278.6331L189.3468,278.6276L189.9423,278.6221
            L190.5378,278.6166L191.1333,278.6110L191.7288,278.6054L192.3243,278.5997L192.9198,278.5940L193.5153,278.5883L194.1108,278.5825L194.7063,278.5767L195.3018,278.5709L195.8973,278.5650
            L196.4928,278.5591L197.0883,278.5531L197.6838,278.5471L198.2793,278.5411L198.8748,278.5350L199.4703,278.5289L200.0658,278.5227L200.6612,278.5165L201.2567,278.5103L201.8522,278.5040
            L202.4477,278.4977L203.0432,278.4914L203.6387,278.4850L204.2342,278.4786L204.8297,278.4721L205.4252,278.4656L206.0207,278.4590L206.6162,278.4525L207.2117,278.4458L207.8072,278.4392
            L208.4027,278.4324L208.9982,278.4257L209.5937,278.4189L210.1892,278.4121L210.7847,278.4052L211.3802,278.3983L211.9757,278.3913L212.5712,278.3843L213.1667,278.3773L213.7622,278.3702
            L214.3577,278.3631L214.9532,278.3559L215.5486,278.3487L216.1441,278.3415L216.7396,278.3342L217.3351,278.3268L217.9306,278.3195L218.5261,278.3121L219.1216,278.3046L219.7171,278.2971
            L220.3126,278.2895L220.9081,278.2820L221.5036,278.2743L222.0991,278.2666L222.6946,278.2589L223.2901,278.2512L223.8856,278.2434L224.4811,278.2355L225.0766,278.2276L225.6721,278.2197
            L226.2676,278.2117L226.8631,278.2037L227.4586,278.1956L228.0541,278.1875L228.6496,278.1793L229.2451,278.1711L229.8406,278.1628L230.4360,278.1545L231.0315,278.1462L231.6270,278.1378
            L232.2225,278.1294L232.8180,278.1209L233.4135,278.1124L234.0090,278.1038L234.6045,278.0952L235.2000,278.0865L235.7955,278.0778L236.3910,278.0690L236.9865,278.0602L237.5820,278.0514
            L238.1775,278.0425L238.7730,278.0335L239.3685,278.0245L239.9640,278.0155L240.5595,278.0064L241.1550,277.9972L241.7505,277.9880L242.3460,277.9788L242.9415,277.9695L243.5370,277.9601
            L244.1325,277.9508L244.7280,277.9413L245.3234,277.9318L245.9189,277.9223L246.5144,277.9127L247.1099,277.9031L247.7054,277.8934L248.3009,277.8836L248.8964,277.8738L249.4919,277.8640
            L250.0874,277.8541L250.6829,277.8442L251.2784,277.8342L251.8739,277.8241L252.4694,277.8140L253.0649,277.8039L253.6604,277.7937L254.2559,277.7834L254.8514,277.7731L255.4469,277.7627
            L256.0424,277.7523L256.6379,277.7418L257.2334,277.7313L257.8289,277.7207L258.4244,277.7101L259.0199,277.6994L259.6154,277.6887L260.2108,277.6779L260.8063,277.6670L261.4018,277.6561
            L261.9973,277.6452L262.5928,277.6341L263.1883,277.6231L263.7838,277.6119L264.3793,277.6007L264.9748,277.5895L265.5703,277.5782L266.1658,277.5668L266.7613,277.5554L267.3568,277.5440
            L267.9523,277.5324L268.5478,277.5208L269.1433,277.5092L269.7388,277.4975L270.3343,277.4857L270.9298,277.4739L271.5253,277.4620L272.1208,277.4501L272.7163,277.4381L273.3118,277.4260
            L273.9073,277.4139L274.5028,277.4017L275.0982,277.3895L275.6937,277.3771L276.2892,277.3648L276.8847,277.3523L277.4802,277.3399L278.0757,277.3273L278.6712,277.3147L279.2667,277.3020
            L279.8622,277.2893L280.4577,277.2764L281.0532,277.2636L281.6487,277.2506L282.2442,277.2376L282.8397,277.2246L283.4352,277.2114L284.0307,277.1982L284.6262,277.1850L285.2217,277.1717
            L285.8172,277.1583L286.4127,277.1448L287.0082,277.1313L287.6037,277.1177L288.1992,277.1040L288.7947,277.0903L289.3902,277.0765L289.9856,277.0626L290.5811,277.0487L291.1766,277.0347
            L291.7721,277.0206L292.3676,277.0065L292.9631,276.9922L293.5586,276.9779L294.1541,276.9636L294.7496,276.9492L295.3451,276.9347L295.9406,276.9201L296.5361,276.9054L297.1316,276.8907
            L297.7271,276.8759L298.3226,276.8611L298.9181,276.8461L299.5136,276.8311L300.1091,276.8160L300.7046,276.8009L301.3001,276.7856L301.8956,276.7703L302.4911,276.7549L303.0866,276.7394
            L303.6821,276.7239L304.2776,276.7083L304.8730,276.6926L305.4685,276.6768L306.0640,276.6609L306.6595,276.6450L307.2550,276.6290L307.8505,276.6129L308.4460,276.5967L309.0415,276.5804
            L309.6370,276.5641L310.2325,276.5477L310.8280,276.5312L311.4235,276.5146L312.0190,276.4979L312.6145,276.4811L313.2100,276.4643L313.8055,276.4474L314.4010,276.4304L314.9965,276.4133
            L315.5920,276.3961L316.1875,276.3788L316.7830,276.3615L317.3785,276.3440L317.9740,276.3265L318.5695,276.3089L319.1650,276.2912L319.7604,276.2734L320.3559,276.2555L320.9514,276.2375
            L321.5469,276.2194L322.1424,276.2013L322.7379,276.1830L323.3334,276.1647L323.9289,276.1462L324.5244,276.1277L325.1199,276.1091L325.7154,276.0904L326.3109,276.0715L326.9064,276.0526
            L327.5019,276.0336L328.0974,276.0145L328.6929,275.9953L329.2884,275.9760L329.8839,275.9566L330.4794,275.9371L331.0749,275.9175L331.6704,275.8978L332.2659,275.8780L332.8614,275.8581
            L333.4569,275.8381L334.0524,275.8179L334.6478,275.7977L335.2433,275.7774L335.8388,275.7570L336.4343,275.7364L337.0298,275.7158L337.6253,275.6951L338.2208,275.6742L338.8163,275.6532
            L339.4118,275.6322L340.0073,275.6110L340.6028,275.5897L341.1983,275.5683L341.7938,275.5468L342.3893,275.5251L342.9848,275.5034L343.5803,275.4815L344.1758,275.4595L344.7713,275.4374
            L345.3668,275.4152L345.9623,275.3929L346.5578,275.3705L347.1533,275.3479L347.7488,275.3252L348.3443,275.3024L348.9398,275.2795L349.5352,275.2564L350.1307,275.2333L350.7262,275.2100
            L351.3217,275.1865L351.9172,275.1630L352.5127,275.1393L353.1082,275.1155L353.7037,275.0916L354.2992,275.0675L354.8947,275.0434L355.4902,275.0190L356.0857,274.9946L356.6812,274.9700
            L357.2767,274.9453L357.8722,274.9204L358.4677,274.8954L359.0632,274.8703L359.6587,274.8450L360.2542,274.8196L360.8497,274.7941L361.4452,274.7684L362.0407,274.7426L362.6362,274.7166
            L363.2317,274.6905L363.8272,274.6643L364.4226,274.6378L365.0181,274.6113L365.6136,274.5846L366.2091,274.5578L366.8046,274.5308L367.4001,274.5036L367.9956,274.4763L368.5911,274.4488
            L369.1866,274.4212L369.7821,274.3935L370.3776,274.3655L370.9731,274.3375L371.5686,274.3092L372.1641,274.2808L372.7596,274.2522L373.3551,274.2235L373.9506,274.1946L374.5461,274.1656
            L375.1416,274.1363L375.7371,274.1069L376.3326,274.0774L376.9281,274.0476L377.5236,274.0177L378.1191,273.9876L378.7146,273.9574L379.3100,273.9269L379.9055,273.8963L380.5010,273.8655
            L381.0965,273.8346L381.6920,273.8034L382.2875,273.7721L382.8830,273.7405L383.4785,273.7088L384.0740,273.6769L384.6695,273.6448L385.2650,273.6125L385.8605,273.5800L386.4560,273.5474
            L387.0515,273.5145L387.6470,273.4814L388.2425,273.4481L388.8380,273.4147L389.4335,273.3810L390.0290,273.3471L390.6245,273.3130L391.2200,273.2787L391.8155,273.2442L392.4110,273.2095
            L393.0065,273.1745L393.6020,273.1394L394.1974,273.1040L394.7929,273.0684L395.3884,273.0326L395.9839,272.9966L396.5794,272.9603L397.1749,272.9238L397.7704,272.8871L398.3659,272.8501
            L398.9614,272.8129L399.5569,272.7755L400.1524,272.7378L400.7479,272.6999L401.3434,272.6618L401.9389,272.6234L402.5344,272.5848L403.1299,272.5459L403.7254,272.5067L404.3209,272.4673
            L404.9164,272.4277L405.5119,272.3877L406.1074,272.3476L406.7029,272.3071L407.2984,272.2664L407.8939,272.2254L408.4894,272.1842L409.0848,272.1427L409.6803,272.1009L410.2758,272.0588
            L410.8713,272.0164L411.4668,271.9737L412.0623,271.9308L412.6578,271.8876L413.2533,271.8440L413.8488,271.8002L414.4443,271.7561L415.0398,271.7117L415.6353,271.6669L416.2308,271.6219
            L416.8263,271.5765L417.4218,271.5308L418.0173,271.4849L418.6128,271.4385L419.2083,271.3919L419.8038,271.3449L420.3993,271.2976L420.9948,271.2500L421.5903,271.2020L422.1858,271.1537
            L422.7813,271.1050L423.3768,271.0560L423.9722,271.0066L424.5677,270.9569L425.1632,270.9068L425.7587,270.8563L426.3542,270.8055L426.9497,270.7542L427.5452,270.7027L428.1407,270.6507
            L428.7362,270.5983L429.3317,270.5456L429.9272,270.4924L430.5227,270.4389L431.1182,270.3849L431.7137,270.3305L432.3092,270.2758L432.9047,270.2206L433.5002,270.1649L434.0957,270.1089
            L434.6912,270.0524L435.2867,269.9955L435.8822,269.9381L436.4777,269.8803L437.0732,269.8220L437.6687,269.7633L438.2642,269.7041L438.8596,269.6444L439.4551,269.5843L440.0506,269.5236
            L440.6461,269.4625L441.2416,269.4009L441.8371,269.3388L442.4326,269.2761L443.0281,269.2130L443.6236,269.1493L444.2191,269.0851L444.8146,269.0204L445.4101,268.9551L446.0056,268.8893
            L446.6011,268.8230L447.1966,268.7560L447.7921,268.6885L448.3876,268.6204L448.9831,268.5518L449.5786,268.4825L450.1741,268.4127L450.7696,268.3422L451.3651,268.2711L451.9606,268.1994
            L452.5561,268.1271L453.1516,268.0541L453.7470,267.9805L454.3425,267.9062L454.9380,267.8312L455.5335,267.7556L456.1290,267.6793L456.7245,267.6022L457.3200,267.5245L457.9155,267.4460
            L458.5110,267.3669L459.1065,267.2869L459.7020,267.2063L460.2975,267.1248L460.8930,267.0426L461.4885,266.9597L462.0840,266.8759L462.6795,266.7913L463.2750,266.7059L463.8705,266.6196
            L464.4660,266.5326L465.0615,266.4446L465.6570,266.3558L466.2525,266.2661L466.8480,266.1755L467.4435,266.0840L468.0390,265.9916L468.6344,265.8982L469.2299,265.8039L469.8254,265.7085
            L470.4209,265.6123L471.0164,265.5150L471.6119,265.4166L472.2074,265.3173L472.8029,265.2169L473.3984,265.1154L473.9939,265.0128L474.5894,264.9091L475.1849,264.8043L475.7804,264.6983
            L476.3759,264.5912L476.9714,264.4829L477.5669,264.3734L478.1624,264.2626L478.7579,264.1506L479.3534,264.0373L479.9489,263.9227L480.5444,263.8068L481.1399,263.6896L481.7354,263.5709
            L482.3309,263.4509L482.9264,263.3295L483.5218,263.2066L484.1173,263.0822L484.7128,262.9563L485.3083,262.8289L485.9038,262.6999L486.4993,262.5693L487.0948,262.4371L487.6903,262.3032
            L488.2858,262.1677L488.8813,262.0304L489.4768,261.8913L490.0723,261.7504L490.6678,261.6077L491.2633,261.4632L491.8588,261.3167L492.4543,261.1682L493.0498,261.0178L493.6453,260.8653
            L494.2408,260.7108L494.8363,260.5540L495.4318,260.3952L496.0273,260.2341L496.6228,260.0707L497.2183,259.9049L497.8138,259.7368L498.4092,259.5663L499.0047,259.3933L499.6002,259.2177
            L500.1957,259.0394L500.7912,258.8585L501.3867,258.6749L501.9822,258.4885L502.5777,258.2991L503.1732,258.1068L503.7687,257.9115L504.3642,257.7131L504.9597,257.5115L505.5552,257.3066
            L506.1507,257.0984L506.7462,256.8867L507.3417,256.6715L507.9372,256.4526L508.5327,256.2300L509.1282,256.0036L509.7237,255.7733L510.3192,255.5388L510.9147,255.3002L511.5102,255.0574
            L512.1057,254.8101L512.7012,254.5582L513.2966,254.3017L513.8921,254.0403L514.4876,253.7740L515.0831,253.5025L515.6786,253.2258L516.2741,252.9436L516.8696,252.6557L517.4651,252.3621
            L518.0606,252.0624L518.6561,251.7565L519.2516,251.4442L519.8471,251.1252L520.4426,250.7994L521.0381,250.4665L521.6336,250.1262L522.2291,249.7782L522.8246,249.4223L523.4201,249.0583
            L524.0156,248.6857L524.6111,248.3042L525.2066,247.9135L525.8021,247.5133L526.3976,247.1031L526.9931,246.6826L527.5886,246.2513L528.1840,245.8088L528.7795,245.3545L529.3750,244.8880
            L529.9705,244.4088L530.5660,243.9162L531.1615,243.4096L531.7570,242.8884L532.3525,242.3519L532.9480,241.7994L533.5435,241.2300L534.1390,240.6430L534.7345,240.0373L535.3300,239.4121
            L535.9255,238.7662L536.5210,238.0986L537.1165,237.4081L537.7120,236.6933L538.3075,235.9528L538.9030,235.1851L539.4985,234.3886L540.0940,233.5614L540.6895,232.7016L541.2850,231.8070
            L541.8805,230.8754L542.4760,229.9040L543.0714,228.8903L543.6669,227.8309L544.2624,226.7226L544.8579,225.5615L545.4534,224.3435L546.0489,223.0638L546.6444,221.7173L547.2399,220.2982
            L547.8354,218.7998L548.4309,217.2146L549.0264,215.5344L549.6219,213.7494L550.2174,211.8486L550.8129,209.8195L551.4084,207.6473L552.0039,205.3150L552.5994,202.8025L553.1949,200.0862
            L553.7904,197.1379L554.3859,193.9238L554.9814,190.4028L555.5769,186.5246L556.1724,182.2268L556.7679,177.4307L557.3634,172.0360L557.9588,165.9121L558.5543,158.8855L559.1498,150.7206
            L559.7453,141.0877L560.3408,129.5096L560.9363,115.2661L561.5318,97.2112L561.7325,89.1845"/>
  </g>
  <g style="fill:none; stroke:#0000FF; stroke-width:  2.6773; stroke-linecap:butt; stroke-linejoin:miter; stroke-dasharray:none">
   <path d="M89.3035,212.2395L89.8990,212.2380L90.4945,212.2340L91.0900,212.2275L91.6855,212.2185L92.2810,212.2069L92.8765,212.1929L93.4720,212.1763L94.0675,212.1573L94.6630,212.1357
            L95.2585,212.1116L95.8540,212.0849L96.4494,212.0557L97.0449,212.0240L97.6404,211.9897L98.2359,211.9528L98.8314,211.9133L99.4269,211.8713L100.0224,211.8267L100.6179,211.7795
            L101.2134,211.7296L101.8089,211.6771L102.4044,211.6220L102.9999,211.5642L103.5954,211.5038L104.1909,211.4406L104.7864,211.3748L105.3819,211.3062L105.9774,211.2349L106.5729,211.1609
            L107.1684,211.0840L107.7639,211.0044L108.3594,210.9219L108.9549,210.8366L109.5504,210.7485L110.1459,210.6574L110.7414,210.5635L111.3368,210.4666L111.9323,210.3667L112.5278,210.2639
            L113.1233,210.1580L113.7188,210.0491L114.3143,209.9372L114.9098,209.8221L115.5053,209.7038L116.1008,209.5824L116.6963,209.4578L117.2918,209.3300L117.8873,209.1989L118.4828,209.0644
            L119.0783,208.9266L119.6738,208.7854L120.2693,208.6407L120.8648,208.4926L121.4603,208.3410L122.0558,208.1857L122.6513,208.0269L123.2468,207.8644L123.8423,207.6981L124.4378,207.5281
            L125.0333,207.3543L125.6288,207.1766L126.2242,206.9949L126.8197,206.8093L127.4152,206.6196L128.0107,206.4258L128.6062,206.2278L129.2017,206.0255L129.7972,205.8189L130.3927,205.6080
            L130.9882,205.3926L131.5837,205.1726L132.1792,204.9480L132.7747,204.7187L133.3702,204.4847L133.9657,204.2458L134.5612,204.0019L135.1567,203.7530L135.7522,203.4989L136.3477,203.2396
            L136.9432,202.9750L137.5387,202.7049L138.1342,202.4293L138.7297,202.1480L139.3252,201.8610L139.9207,201.5680L140.5162,201.2690L141.1116,200.9639L141.7071,200.6526L142.3026,200.3348
            L142.8981,200.0104L143.4936,199.6794L144.0891,199.3415L144.6846,198.9967L145.2801,198.6446L145.8756,198.2852L146.4711,197.9183L147.0666,197.5438L147.6621,197.1613L148.2576,196.7708
            L148.8531,196.3720L149.4486,195.9648L150.0441,195.5488L150.6396,195.1240L151.2351,194.6899L151.8306,194.2465L152.4261,193.7934L153.0216,193.3304L153.6171,192.8572L154.2126,192.3736
            L154.8081,191.8791L155.4036,191.3736L155.9990,190.8566L156.5945,190.3279L157.1900,189.7871L157.7855,189.2339L158.3810,188.6677L158.9765,188.0884L159.5720,187.4953L160.1675,186.8881
            L160.7630,186.2664L161.3585,185.6296L161.9540,184.9772L162.5495,184.3087L163.1450,183.6236L163.7405,182.9213L164.3360,182.2011L164.9315,181.4624L165.5270,180.7045L166.1225,179.9268
            L166.7180,179.1284L167.3135,178.3087L167.9090,177.4666L168.5045,176.6014L169.1000,175.7122L169.6955,174.7979L170.2910,173.8575L170.8864,172.8899L171.4819,171.8939L172.0774,170.8684
            L172.6729,169.8119L173.2684,168.7230L173.8639,167.6004L174.4594,166.4423L175.0549,165.2472L175.6504,164.0131L176.2459,162.7382L176.8414,161.4204L177.4369,160.0574L178.0324,158.6469
            L178.6279,157.1864L179.2234,155.6730L179.8189,154.1038L180.4144,152.4756L181.0099,150.7850L181.6054,149.0282L182.2009,147.2010L182.7964,145.2992L183.3919,143.3179L183.9874,141.2518
            L184.5829,139.0952L185.1784,136.8418L185.7738,134.4847L186.3693,132.0163L186.9648,129.4281L187.5603,126.7109L188.1558,123.8544L188.7513,120.8470L189.3468,117.6760L189.9423,114.3268
            L190.5378,110.7833L191.1333,107.0273L191.7288,103.0380L192.3243,98.7917L192.9198,94.2614L193.5153,89.4160L193.5418,89.1845"/>
  </g>
  <g style="fill:none; stroke:#000000; stroke-width:  2.6773; stroke-linecap:butt; stroke-linejoin:miter; stroke-dasharray:none">
   <path d="M89.2440,89.2440L684.2040,89.2440"/>
   <path d="M89.2440,505.7160L684.2040,505.7160"/>
  </g>
  <g style="fill:none; stroke:#000000; stroke-width:  1.7849; stroke-linecap:butt; stroke-linejoin:miter; stroke-dasharray:none">
   <path d="M118.9920,89.2440L118.9920,95.1936"/>
   <path d="M118.9920,505.7160L118.9920,499.7664"/>
   <path d="M148.7400,89.2440L148.7400,95.1936"/>
   <path d="M148.7400,505.7160L148.7400,499.7664"/>
   <path d="M178.4880,89.2440L178.4880,95.1936"/>
   <path d="M178.4880,505.7160L178.4880,499.7664"/>
   <path d="M237.9840,89.2440L237.9840,95.1936"/>
   <path d="M237.9840,505.7160L237.9840,499.7664"/>
   <path d="M267.7320,89.2440L267.7320,95.1936"/>
   <path d="M267.7320,505.7160L267.7320,499.7664"/>
   <path d="M297.4800,89.2440L297.4800,95.1936"/>
   <path d="M297.4800,505.7160L297.4800,499.7664"/>
   <path d="M356.9760,89.2440L356.9760,95.1936"/>
   <path d="M356.9760,505.7160L356.9760,499.7664"/>
   <path d="M386.7240,89.2440L386.7240,95.1936"/>
   <path d="M386.7240,505.7160L386.7240,499.7664"/>
   <path d="M416.4720,89.2440L416.4720,95.1936"/>
   <path d="M416.4720,505.7160L416.4720,499.7664"/>
   <path d="M475.9680,89.2440L475.9680,95.1936"/>
   <path d="M475.9680,505.7160L475.9680,499.7664"/>
   <path d="M505.7160,89.2440L505.7160,95.1936"/>
   <path d="M505.7160,505.7160L505.7160,499.7664"/>
   <path d="M535.4640,89.2440L535.4640,95.1936"/>
   <path d="M535.4640,505.7160L535.4640,499.7664"/>
   <path d="M594.9600,89.2440L594.9600,95.1936"/>
   <path d="M594.9600,505.7160L594.9600,499.7664"/>
   <path d="M624.7080,89.2440L624.7080,95.1936"/>
   <path d="M624.7080,505.7160L624.7080,499.7664"/>
   <path d="M654.4560,89.2440L654.4560,95.1936"/>
   <path d="M654.4560,505.7160L654.4560,499.7664"/>
  </g>
  <g style="fill:none; stroke:#000000; stroke-width:  2.2311; stroke-linecap:butt; stroke-linejoin:miter; stroke-dasharray:none">
   <path d="M89.2440,89.2440L89.2440,101.1432"/>
   <path d="M89.2440,505.7160L89.2440,493.8168"/>
   <path d="M208.2360,89.2440L208.2360,101.1432"/>
   <path d="M208.2360,505.7160L208.2360,493.8168"/>
   <path d="M327.2280,89.2440L327.2280,101.1432"/>
   <path d="M327.2280,505.7160L327.2280,493.8168"/>
   <path d="M446.2200,89.2440L446.2200,101.1432"/>
   <path d="M446.2200,505.7160L446.2200,493.8168"/>
   <path d="M565.2120,89.2440L565.2120,101.1432"/>
   <path d="M565.2120,505.7160L565.2120,493.8168"/>
   <path d="M684.2040,89.2440L684.2040,101.1432"/>
   <path d="M684.2040,505.7160L684.2040,493.8168"/>
  </g>
  <g style="fill:#000000; fill-rule:nonzero">
   <text   style="font-family:'Times','Nimbus Roman No9 L'; font-style:normal; font-weight:normal; font-size:594.9600" transform="matrix(0.0280,0.0000,-0.0000,-0.0280,85.2840,72.0144)">0</text>
   <text   style="font-family:'Times','Nimbus Roman No9 L'; font-style:normal; font-weight:normal; font-size:594.9600" transform="matrix(0.0280,0.0000,-0.0000,-0.0280,204.2760,72.0144)">2</text>
   <text   style="font-family:'Times','Nimbus Roman No9 L'; font-style:normal; font-weight:normal; font-size:594.9600" transform="matrix(0.0280,0.0000,-0.0000,-0.0280,323.2680,72.0144)">4</text>
   <text   style="font-family:'Times','Nimbus Roman No9 L'; font-style:normal; font-weight:normal; font-size:594.9600" transform="matrix(0.0280,0.0000,-0.0000,-0.0280,442.3800,72.0144)">6</text>
   <text   style="font-family:'Times','Nimbus Roman No9 L'; font-style:normal; font-weight:normal; font-size:594.9600" transform="matrix(0.0280,0.0000,-0.0000,-0.0280,561.4920,72.0144)">8</text>
   <text   style="font-family:'Times','Nimbus Roman No9 L'; font-style:normal; font-weight:normal; font-size:594.9600" transform="matrix(0.0280,0.0000,-0.0000,-0.0280,676.0440,72.0144)">10</text>
  </g>
  <g style="fill:none; stroke:#000000; stroke-width:  2.6773; stroke-linecap:butt; stroke-linejoin:miter; stroke-dasharray:none">
   <path d="M89.2440,89.2440L89.2440,505.7160"/>
   <path d="M684.2040,89.2440L684.2040,505.7160"/>
  </g>
  <g style="fill:none; stroke:#000000; stroke-width:  2.2311; stroke-linecap:butt; stroke-linejoin:miter; stroke-dasharray:none">
   <path d="M89.2440,89.2440L101.1432,89.2440"/>
   <path d="M684.2040,89.2440L672.3048,89.2440"/>
   <path d="M89.2440,158.6560L101.1432,158.6560"/>
   <path d="M684.2040,158.6560L672.3048,158.6560"/>
   <path d="M89.2440,228.0680L101.1432,228.0680"/>
   <path d="M684.2040,228.0680L672.3048,228.0680"/>
   <path d="M89.2440,297.4800L101.1432,297.4800"/>
   <path d="M684.2040,297.4800L672.3048,297.4800"/>
   <path d="M89.2440,366.8920L101.1432,366.8920"/>
   <path d="M684.2040,366.8920L672.3048,366.8920"/>
   <path d="M89.2440,436.3040L101.1432,436.3040"/>
   <path d="M684.2040,436.3040L672.3048,436.3040"/>
   <path d="M89.2440,505.7160L101.1432,505.7160"/>
   <path d="M684.2040,505.7160L672.3048,505.7160"/>
  </g>
  <g style="fill:#000000; fill-rule:nonzero">
   <text   style="font-family:'Times','Nimbus Roman No9 L'; font-style:normal; font-weight:normal; font-size:594.9600" transform="matrix(0.0280,0.0000,-0.0000,-0.0280,58.0944,84.6840)">-1,5</text>
   <text   style="font-family:'Times','Nimbus Roman No9 L'; font-style:normal; font-weight:normal; font-size:594.9600" transform="matrix(0.0280,0.0000,-0.0000,-0.0280,71.2944,153.0160)">-1</text>
   <text   style="font-family:'Times','Nimbus Roman No9 L'; font-style:normal; font-weight:normal; font-size:594.9600" transform="matrix(0.0280,0.0000,-0.0000,-0.0280,58.0944,223.5080)">-0,5</text>
   <text   style="font-family:'Times','Nimbus Roman No9 L'; font-style:normal; font-weight:normal; font-size:594.9600" transform="matrix(0.0280,0.0000,-0.0000,-0.0280,75.3744,291.9600)">0</text>
   <text   style="font-family:'Times','Nimbus Roman No9 L'; font-style:normal; font-weight:normal; font-size:594.9600" transform="matrix(0.0280,0.0000,-0.0000,-0.0280,63.6144,362.3320)">0,5</text>
   <text   style="font-family:'Times','Nimbus Roman No9 L'; font-style:normal; font-weight:normal; font-size:594.9600" transform="matrix(0.0280,0.0000,-0.0000,-0.0280,76.8144,430.6640)">1</text>
   <text   style="font-family:'Times','Nimbus Roman No9 L'; font-style:normal; font-weight:normal; font-size:594.9600" transform="matrix(0.0280,0.0000,-0.0000,-0.0280,63.6144,501.1560)">1,5</text>
  </g>
  <g style="fill:none; stroke:#000000; stroke-width:  0.8924; stroke-linecap:butt; stroke-linejoin:miter; stroke-dasharray:none">
   <path d="M89.2440,89.2440L89.2440,505.7160L684.2040,505.7160L684.2040,89.2440z"/>
  </g>
 </g>
</svg>
