<?xml version="1.0" encoding="UTF-8" standalone="no"?>
<!-- generated by Grace-5.1.23 -->

<svg
   xmlns:dc="http://purl.org/dc/elements/1.1/"
   xmlns:cc="http://creativecommons.org/ns#"
   xmlns:rdf="http://www.w3.org/1999/02/22-rdf-syntax-ns#"
   xmlns:svg="http://www.w3.org/2000/svg"
   xmlns="http://www.w3.org/2000/svg"
   xmlns:sodipodi="http://sodipodi.sourceforge.net/DTD/sodipodi-0.dtd"
   xmlns:inkscape="http://www.inkscape.org/namespaces/inkscape"
   xml:space="preserve"
   width="826.00146"
   height="563.30652"
   viewBox="0 0 660.80307 450.64702"
   id="svg2"
   version="1.1"
   inkscape:version="0.91 r13725"
   sodipodi:docname="10_SekFiber.svg"><metadata
     id="metadata204"><rdf:RDF><cc:Work
         rdf:about=""><dc:format>image/svg+xml</dc:format><dc:type
           rdf:resource="http://purl.org/dc/dcmitype/StillImage" /><dc:title></dc:title></cc:Work></rdf:RDF></metadata><defs
     id="defs202" /><sodipodi:namedview
     pagecolor="#ffffff"
     bordercolor="#666666"
     borderopacity="1"
     objecttolerance="10"
     gridtolerance="10"
     guidetolerance="10"
     inkscape:pageopacity="0"
     inkscape:pageshadow="2"
     inkscape:window-width="1262"
     inkscape:window-height="895"
     id="namedview200"
     showgrid="false"
     inkscape:zoom="1.1060465"
     inkscape:cx="404.00511"
     inkscape:cy="303.11855"
     inkscape:window-x="721"
     inkscape:window-y="80"
     inkscape:window-maximized="0"
     inkscape:current-layer="svg2"
     fit-margin-top="0"
     fit-margin-left="0"
     fit-margin-right="0"
     fit-margin-bottom="0" /><path
     style="fill:none;stroke:#000000;stroke-width:2.67729998;stroke-linecap:butt;stroke-linejoin:miter;stroke-dasharray:none"
     inkscape:connector-curvature="0"
     d="m 39.961346,146.91994 0.5949,-0.003 0.595,-0.004 0.5949,-0.006 0.595,-0.008 0.595,-0.01 0.5949,-0.0112 0.595,-0.0131 0.5949,-0.0148 0.595,-0.0165 0.595,-0.0183 0.5949,-0.02 0.595,-0.0218 0.5949,-0.0236 0.595,-0.0254 0.595,-0.0271 0.5949,-0.0289 0.595,-0.0306 0.5949,-0.0325 0.595,-0.0343 0.595,-0.0361 0.5949,-0.0379 0.595,-0.0397 0.5949,-0.0415 0.595,-0.0434 0.595,-0.0452 0.5949,-0.0471 0.595,-0.0489 0.5949,-0.0509 0.595,-0.0527 0.595,-0.0546 0.5949,-0.0565 0.595,-0.0584 0.5949,-0.0604 0.595,-0.0623 0.595,-0.0643 0.5949,-0.0663 0.595,-0.0682 0.5949,-0.0702 0.595,-0.0723 0.595,-0.0743 0.5949,-0.0763 0.595,-0.0784 0.5949,-0.0805 0.595,-0.0826 0.595,-0.0847 0.5949,-0.0869 0.595,-0.089 0.5949,-0.0912 0.595,-0.0934 0.595,-0.0956 0.5949,-0.0978 0.595,-0.1001 0.5949,-0.1024 0.595,-0.1047 0.595,-0.1071 0.5949,-0.1094 0.595,-0.1118 0.5949,-0.1142 0.595,-0.1166 0.595,-0.1191 0.5949,-0.1216 0.595,-0.1242 0.5949,-0.1267 0.595,-0.1293 0.595,-0.1319 0.5949,-0.1346 0.595,-0.1372 0.5949,-0.14 0.595,-0.1427 0.595,-0.1456 0.5949,-0.1483 0.595,-0.1513 0.5949,-0.1542 0.595,-0.1571 0.595,-0.1601 0.5949,-0.1632 0.595,-0.1662 0.5949,-0.1694 0.595,-0.1725 0.595,-0.1758 0.5949,-0.1791 0.595,-0.1824 0.5949,-0.1857 0.595,-0.1892 0.595,-0.1927 0.5949,-0.1963 0.595,-0.1998 0.5949,-0.2036 0.595,-0.2072 0.595,-0.2111 0.5949,-0.2149 0.595,-0.2188 0.5949,-0.2228 0.595,-0.2269 0.595,-0.2311 0.5949,-0.2352 0.595,-0.2396 0.5949,-0.2439 0.595,-0.2484 0.595,-0.253 0.594904,-0.2576 0.595,-0.2623 0.5949,-0.2671 0.595,-0.272 0.595,-0.2771 0.5949,-0.2821 0.595,-0.2874 0.5949,-0.2927 0.595,-0.2982 0.595,-0.3037 0.5949,-0.3094 0.595,-0.3151 0.5949,-0.3212 0.595,-0.3271 0.595,-0.3334 0.5949,-0.3397 0.595,-0.3462 0.5949,-0.3528 0.595,-0.3596 0.595,-0.3665 0.5949,-0.3737 0.595,-0.3809 0.5949,-0.3884 0.595,-0.396 0.595,-0.4039 0.5949,-0.4119 0.595,-0.4201 0.5949,-0.4286 0.595,-0.4372 0.595,-0.4461 0.5949,-0.4552 0.595,-0.4646 0.5949,-0.4743 0.595,-0.4841 0.595,-0.4942 0.5949,-0.5048 0.595,-0.5154 0.5949,-0.5265 0.595,-0.5378 0.595,-0.5496 0.5949,-0.5616 0.595,-0.574 0.5949,-0.5867 0.595,-0.6 0.595,-0.6135 0.5949,-0.6275 0.595,-0.6419 0.5949,-0.6569 0.595,-0.6722 0.595,-0.6881 0.5949,-0.7046 0.595,-0.7215 0.5949,-0.739 0.595,-0.7572 0.595,-0.776 0.5949,-0.7955 0.595,-0.8155 0.5949,-0.8365 0.595,-0.8581 0.595,-0.8805 0.5949,-0.9039 0.595,-0.928 0.5949,-0.9531 0.595,-0.9793 0.595,-1.0063 0.5949,-1.0347 0.595,-1.064 0.5949,-1.094596 0.595,-1.1265 0.595,-1.1598 0.5949,-1.1945 0.595,-1.2308 0.5949,-1.2686 0.595,-1.3082 0.595,-1.3496 0.5949,-1.393 0.595,-1.4384 0.5949,-1.486 0.595,-1.536 0.595,-1.5885 0.5949,-1.6436 0.595,-1.7017 0.5949,-1.7627 0.595,-1.8272 0.595,-1.895 0.5949,-1.9667 0.595,-2.0425 0.5949,-2.1227 0.595,-2.2076 0.595,-2.2977 0.5949,-2.3933 0.595,-2.4949 0.5949,-2.6031 0.595,-2.7183 0.595,-2.8415 0.5949,-2.9729 0.595,-3.1138 0.5949,-3.2647 0.595,-3.4268 0.595,-3.6012 0.5949,-3.7892 0.595,-3.9922 0.5949,-4.2119 0.595,-4.4501 0.595,-4.7091 0.5652,-4.7420003"
     id="path14" /><path
     style="fill:#4d4d4d;stroke:#909090;stroke-width:2.30000921;stroke-linecap:butt;stroke-linejoin:miter;stroke-dasharray:2.30000921,4.60001843;stroke-opacity:1;stroke-miterlimit:4;stroke-dashoffset:0"
     inkscape:connector-curvature="0"
     d="M 182.47085,424.62834 182.46015,8.0373437"
     id="path16" /><path
     style="fill:none;stroke:#000000;stroke-width:2.67729998;stroke-linecap:butt;stroke-linejoin:miter;stroke-dasharray:none"
     inkscape:connector-curvature="0"
     d="m 196.49815,424.62834 0.5326,-8.9695 0.595,-9.2362 0.5949,-8.5407 0.595,-7.9209 0.5949,-7.3664 0.595,-6.8683 0.595,-6.4192 0.5949,-6.0129 0.595,-5.6441 0.5949,-5.3083 0.595,-5.0018 0.595,-4.7212 0.5949,-4.4637 0.595,-4.2268 0.5949,-4.0083 0.595,-3.8065 0.595,-3.6197 0.5949,-3.4463 0.595,-3.2854 0.5949,-3.1353 0.595,-2.9956 0.595,-2.8651 0.5949,-2.7429 0.595,-2.6286 0.5949,-2.5212 0.595,-2.4206 0.595,-2.3258 0.5949,-2.2366 0.595,-2.1525 0.5949,-2.0732 0.595,-1.9983 0.595,-1.9274 0.5949,-1.8603 0.595,-1.7967 0.5949,-1.7365 0.595,-1.6792 0.595,-1.6249 0.5949,-1.5732 0.595,-1.524 0.5949,-1.4772 0.595,-1.4326 0.595,-1.39 0.5949,-1.3494 0.595,-1.3106 0.5949,-1.2736 0.595,-1.2381 0.595,-1.2041 0.5949,-1.1718 0.595,-1.1406 0.5949,-1.1108 0.595,-1.0822 0.595,-1.0548 0.5949,-1.0284 0.595,-1.0032 0.5949,-0.9789 0.595,-0.9555 0.595,-0.9331 0.5949,-0.9115 0.595,-0.8906 0.5949,-0.8706 0.595,-0.8514 0.595,-0.8327 0.5949,-0.8148 0.595,-0.7975 0.5949,-0.7809 0.595,-0.7647 0.595,-0.7492 0.5949,-0.7342 0.595,-0.7197 0.5949,-0.7057 0.595,-0.6922 0.595,-0.6791 0.5949,-0.6664 0.595,-0.6542 0.5949,-0.6424 0.595,-0.6309 0.595,-0.6198 0.5949,-0.6091 0.595,-0.5987 0.5949,-0.5886 0.595,-0.5788 0.595,-0.5694 0.5949,-0.5603 0.595,-0.5514 0.5949,-0.5428 0.595,-0.5344 0.595,-0.5264 0.5949,-0.5185 0.595,-0.5109 0.5949,-0.5035 0.595,-0.4964 0.595,-0.4895 0.5949,-0.4827 0.595,-0.4762 0.5949,-0.4699 0.595,-0.4637 0.595,-0.4578 0.5949,-0.452 0.595,-0.4464 0.5949,-0.4409 0.595,-0.4357 0.595,-0.4306 0.5949,-0.4256 0.595,-0.4207 0.5949,-0.4161 0.595,-0.4116 0.595,-0.4072 0.5949,-0.403 0.595,-0.3988 0.5949,-0.3948 0.595,-0.391 0.595,-0.3872 0.5949,-0.3836 0.595,-0.3801 0.5949,-0.3767 0.595,-0.3735 0.595,-0.3702 0.5949,-0.3672 0.595,-0.3643 0.5949,-0.3613 0.595,-0.3587 0.595,-0.3559 0.5949,-0.3534 0.595,-0.351 0.5949,-0.3486 0.595,-0.3463 0.595,-0.3442 0.5949,-0.342 0.595,-0.3401 0.5949,-0.3381 0.595,-0.3363 0.595,-0.3346 0.5949,-0.333 0.595,-0.3313 0.5949,-0.3299 0.595,-0.3285 0.595,-0.3271 0.5949,-0.3259 0.595,-0.3248 0.5949,-0.3237 0.595,-0.3227 0.595,-0.3217 0.5949,-0.321 0.595,-0.3201 0.5949,-0.3195 0.595,-0.3189 0.595,-0.3184 0.5949,-0.3179 0.595,-0.3175 0.5949,-0.3173 0.595,-0.3171 0.595,-0.3169 0.5949,-0.317 0.595,-0.3169 0.5949,-0.3171 0.595,-0.3172 0.595,-0.3176 0.5949,-0.3179 0.595,-0.3183 0.5949,-0.3189 0.595,-0.3196 0.595,-0.3202 0.5949,-0.321 0.595,-0.322 0.5949,-0.3229 0.595,-0.3239 0.595,-0.3252 0.5949,-0.3264 0.595,-0.3277 0.5949,-0.3293 0.595,-0.3308 0.595,-0.3324 0.5949,-0.3342 0.595,-0.3361 0.5949,-0.3381 0.595,-0.3402 0.595,-0.3425 0.5949,-0.3447 0.595,-0.3472 0.5949,-0.3499 0.595,-0.3525 0.595,-0.3554 0.5949,-0.3583 0.595,-0.3615 0.5949,-0.3648 0.595,-0.3682 0.595,-0.3718 0.5949,-0.3755 0.595,-0.3794 0.5949,-0.3835 0.595,-0.3878 0.595,-0.3922 0.5949,-0.3968 0.595,-0.4017 0.5949,-0.4066 0.595,-0.412 0.595,-0.4174 0.5949,-0.423 0.595,-0.4291 0.5949,-0.4352 0.595,-0.4416 0.595,-0.4484 0.5949,-0.4554 0.595,-0.4626 0.5949,-0.4703 0.595,-0.4782 0.595,-0.4864 0.5949,-0.4951 0.595,-0.5041 0.5949,-0.5135 0.595,-0.5232 0.595,-0.5335 0.5949,-0.5442 0.595,-0.5553 0.5949,-0.5669 0.595,-0.5792 0.595,-0.5918 0.5949,-0.6052 0.595,-0.6192 0.5949,-0.6338 0.595,-0.649 0.595,-0.6651 0.5949,-0.6819 0.595,-0.6996 0.5949,-0.7181 0.595,-0.7375 0.595,-0.758 0.5949,-0.7796 0.595,-0.8022 0.5949,-0.8261 0.595,-0.8513 0.595,-0.8778 0.5949,-0.9059 0.595,-0.9356 0.5949,-0.9669 0.595,-1.0002 0.595,-1.0353 0.5949,-1.0728 0.595,-1.1124 0.5949,-1.1547 0.595,-1.1996 0.595,-1.2476 0.5949,-1.2988 0.595,-1.3534 0.5949,-1.412 0.595,-1.4748 0.595,-1.5422 0.5949,-1.6147 0.595,-1.6928 0.5949,-1.7772 0.595,-1.8684 0.595,-1.9673 0.5949,-2.0747 0.595,-2.1915 0.5949,-2.3192 0.595,-2.4587 0.595,-2.6119 0.5949,-2.7803 0.595,-2.9663 0.5949,-3.1722 0.595,-3.4011 0.595,-3.6563 0.5949,-3.9424 0.595,-4.264 0.5949,-4.6279 0.595,-5.041196 0.595,-5.5138 0.5949,-6.0571 0.595,-6.6864 0.5949,-7.4204 0.595,-8.2842 0.595,-9.3097 0.5949,-10.5404 0.595,-12.0347 0.5949,-13.8737 0.3323,-9.0309003"
     id="path18" /><path
     style="fill:#4d4d4d;stroke:#909090;stroke-width:2.30000921;stroke-linecap:butt;stroke-linejoin:miter;stroke-dasharray:2.30000921,4.60001843;stroke-opacity:1;stroke-miterlimit:4;stroke-dashoffset:0"
     inkscape:connector-curvature="0"
     d="m 368.37495,424.62834 -7e-4,-416.5909963"
     id="path20" /><path
     style="fill:none;stroke:#000000;stroke-width:2.67729998;stroke-linecap:butt;stroke-linejoin:miter;stroke-dasharray:none"
     inkscape:connector-curvature="0"
     d="m 374.73055,424.62834 0.1932,-6.2185 0.595,-16.2067 0.595,-13.8994 0.5949,-12.0537 0.595,-10.5542 0.5949,-9.3194 0.595,-8.2905 0.595,-7.4242 0.5949,-6.6877 0.595,-6.0565 0.5949,-5.5114 0.595,-5.0375 0.595,-4.6227 0.5949,-4.2577 0.595,-3.9349 0.5949,-3.6479 0.595,-3.3916 0.595,-3.162 0.5949,-2.9552 0.595,-2.7684 0.5949,-2.5992 0.595,-2.4453 0.595,-2.3051 0.5949,-2.1768 0.595,-2.0592 0.5949,-1.9511 0.595,-1.8517 0.595,-1.7598 0.5949,-1.6748 0.595,-1.5961 0.5949,-1.5229 0.595,-1.455 0.595,-1.3915 0.5949,-1.3324 0.595,-1.277 0.5949,-1.2254 0.595,-1.1767 0.595,-1.1312 0.5949,-1.0884 0.595,-1.0481 0.5949,-1.0101 0.595,-0.9743 0.595,-0.9405 0.5949,-0.9085 0.595,-0.8782 0.5949,-0.8496 0.595,-0.8224 0.595,-0.7966 0.5949,-0.7721 0.595,-0.7488 0.5949,-0.7266 0.595,-0.7056 0.595,-0.6855 0.5949,-0.6662 0.595,-0.648 0.5949,-0.6306 0.595,-0.6138 0.595,-0.5979 0.5949,-0.5826 0.595,-0.568 0.5949,-0.554 0.595,-0.5405 0.595,-0.5278 0.5949,-0.5153 0.595,-0.5035 0.5949,-0.4922 0.595,-0.4812 0.595,-0.4707 0.5949,-0.4605 0.595,-0.4509 0.5949,-0.4415 0.595,-0.4324 0.595,-0.4238 0.5949,-0.4154 0.595,-0.4074 0.5949,-0.3996 0.595,-0.392 0.595,-0.3849 0.5949,-0.3778 0.595,-0.3711 0.5949,-0.3645 0.595,-0.3583 0.595,-0.3522 0.5949,-0.3462 0.595,-0.3406 0.5949,-0.3351 0.595,-0.3298 0.595,-0.3246 0.5949,-0.3196 0.595,-0.3149 0.5949,-0.3101 0.595,-0.3056 0.595,-0.3012 0.5949,-0.297 0.595,-0.2929 0.5949,-0.2889 0.595,-0.2851 0.595,-0.2813 0.5949,-0.2777 0.595,-0.2741 0.5949,-0.2708 0.595,-0.2675 0.595,-0.2643 0.5949,-0.2611 0.595,-0.2582 0.5949,-0.2553 0.595,-0.2524 0.595,-0.2497 0.5949,-0.2471 0.595,-0.2445 0.5949,-0.242 0.595,-0.2396 0.595,-0.2373 0.5949,-0.2349 0.595,-0.2328 0.5949,-0.2307 0.595,-0.2287 0.595,-0.2266 0.5949,-0.2247 0.595,-0.2229 0.5949,-0.221 0.595,-0.2193 0.595,-0.2177 0.5949,-0.216 0.595,-0.2145 0.5949,-0.2129 0.595,-0.2115 0.595,-0.2101 0.5949,-0.2087 0.595,-0.2075 0.5949,-0.2062 0.595,-0.2049 0.595,-0.2039 0.5949,-0.2027 0.595,-0.2017 0.5949,-0.2007 0.595,-0.1997 0.595,-0.1988 0.5949,-0.1979 0.595,-0.1972 0.5949,-0.1963 0.595,-0.1956 0.595,-0.1948 0.5949,-0.1943 0.595,-0.1936 0.5949,-0.1931 0.595,-0.1925 0.595,-0.192 0.5949,-0.1916 0.595,-0.1912 0.5949,-0.1909 0.595,-0.1905 0.595,-0.1902 0.5949,-0.19 0.595,-0.1898 0.5949,-0.1896 0.595,-0.1896 0.595,-0.1894 0.5949,-0.1895 0.595,-0.1894 0.5949,-0.1895 0.595,-0.1895 0.595,-0.1898 0.5949,-0.1899 0.595,-0.1901 0.5949,-0.1903 0.595,-0.1907 0.595,-0.1911 0.5949,-0.1914 0.595,-0.1919 0.5949,-0.1923 0.595,-0.1929 0.595,-0.1935 0.5949,-0.1941 0.595,-0.1948 0.5949,-0.1955 0.595,-0.1963 0.595,-0.1971 0.5949,-0.198 0.595,-0.1989 0.5949,-0.2 0.595,-0.2009 0.595,-0.2021 0.5949,-0.2032 0.595,-0.2045 0.5949,-0.2057 0.595,-0.2071 0.595,-0.2085 0.5949,-0.2099 0.595,-0.2115 0.5949,-0.2131 0.595,-0.2148 0.595,-0.2165 0.5949,-0.2184 0.595,-0.2203 0.5949,-0.2222 0.595,-0.2243 0.595,-0.2265 0.5949,-0.2287 0.595,-0.2311 0.5949,-0.2335 0.595,-0.236 0.595,-0.2387 0.5949,-0.2413 0.595,-0.2443 0.5949,-0.2471 0.595,-0.2503 0.595,-0.2534 0.5949,-0.2568 0.595,-0.2602 0.5949,-0.2638 0.595,-0.2675 0.595,-0.2714 0.5949,-0.2754 0.595,-0.2796 0.5949,-0.284 0.595,-0.2885 0.595,-0.2932 0.5949,-0.2982 0.595,-0.3032 0.5949,-0.3086 0.595,-0.3141 0.595,-0.3199 0.5949,-0.3259 0.595,-0.3321 0.5949,-0.3387 0.595,-0.3456 0.595,-0.3526 0.5949,-0.3601 0.595,-0.3678 0.5949,-0.3759 0.595,-0.3844 0.595,-0.3932 0.5949,-0.4025 0.595,-0.4122 0.5949,-0.4223 0.595,-0.433 0.595,-0.4441 0.5949,-0.4559 0.595,-0.4681 0.5949,-0.4811 0.595,-0.4946 0.595,-0.5089 0.5949,-0.5239 0.595,-0.5398 0.5949,-0.5564 0.595,-0.5741 0.595,-0.5927 0.5949,-0.6124 0.595,-0.6332 0.5949,-0.6553 0.595,-0.6786 0.595,-0.7036 0.5949,-0.7299 0.595,-0.758 0.5949,-0.788 0.595,-0.8199 0.595,-0.854 0.5949,-0.8906 0.595,-0.9296 0.5949,-0.9716 0.595,-1.0166 0.595,-1.0653 0.5949,-1.1176 0.595,-1.1742 0.5949,-1.2355 0.595,-1.302 0.595,-1.3743 0.5949,-1.4532 0.595,-1.5394 0.5949,-1.6339 0.595,-1.7376 0.595,-1.8521 0.5949,-1.9787 0.595,-2.1191 0.5949,-2.2756 0.595,-2.4505 0.595,-2.6471 0.5949,-2.8689 0.595,-3.1204 0.5949,-3.4074 0.595,-3.7365 0.595,-4.1168 0.5949,-4.559 0.595,-5.0777 0.5949,-5.6915 0.595,-6.4251 0.595,-7.3118 0.5949,-8.397596 0.595,-9.7465 0.5949,-11.4515 0.595,-13.6495 0.595,-16.5511 0.5949,-20.4924 0.3276,-14.3343003"
     id="path22" /><path
     style="fill:#4d4d4d;stroke:#8c8c8c;stroke-width:2.14184856;stroke-linecap:butt;stroke-linejoin:miter;stroke-dasharray:2.14184856,2.14184856;stroke-opacity:1;stroke-miterlimit:4;stroke-dashoffset:0"
     inkscape:connector-curvature="0"
     d="M 554.39825,424.62834 554.36205,8.0373437"
     id="path24" /><path
     style="fill:none;stroke:#000000;stroke-width:2.67729998;stroke-linecap:butt;stroke-linejoin:miter;stroke-dasharray:none"
     inkscape:connector-curvature="0"
     d="m 558.74545,424.62834 0.021,-1.1223 0.5949,-24.4281 0.595,-19.3632 0.595,-15.7282 0.5949,-13.0311 0.595,-10.9746 0.5949,-9.3709 0.595,-8.0961 0.595,-7.0661 0.5949,-6.2218 0.595,-5.5212 0.5949,-4.9335 0.595,-4.4355 0.595,-4.0101 0.5949,-3.6435 0.595,-3.3257 0.5949,-3.0481 0.595,-2.8043 0.595,-2.5892 0.5949,-2.3982 0.595,-2.2279 0.5949,-2.0755 0.595,-1.9386 0.595,-1.815 0.5949,-1.7032 0.595,-1.6017 0.5949,-1.5091 0.595,-1.4247 0.595,-1.3472 0.5949,-1.2763 0.595,-1.2109 0.5949,-1.1506 0.595,-1.0949 0.595,-1.0432 0.5949,-0.9954 0.595,-0.9509 0.5949,-0.9094 0.595,-0.8707 0.595,-0.8347 0.5949,-0.8008 0.595,-0.7692 0.5949,-0.7394 0.595,-0.7116 0.595,-0.6853 0.5949,-0.6605 0.595,-0.6373 0.5949,-0.6153 0.595,-0.5944 0.595,-0.5748 0.5949,-0.5562 0.595,-0.5385 0.5949,-0.5218 0.595,-0.5059 0.595,-0.4908 0.5949,-0.4764 0.595,-0.4628 0.5949,-0.4497 0.595,-0.4374 0.595,-0.4254 0.5949,-0.4142 0.595,-0.4034 0.5949,-0.393 0.595,-0.3832 0.595,-0.3738 0.5949,-0.3647 0.595,-0.356 0.5949,-0.3477 0.595,-0.3398 0.595,-0.3321 0.5949,-0.3248 0.595,-0.3177 0.5949,-0.311 0.595,-0.3044 0.595,-0.2982 0.5949,-0.2922 0.595,-0.2863 0.5949,-0.2808 0.595,-0.2754 0.595,-0.2702 0.5949,-0.2652 0.595,-0.2604 0.5949,-0.2557 0.595,-0.2513 0.595,-0.2469 0.5949,-0.2427 0.595,-0.2387 0.5949,-0.2348 0.595,-0.231 0.595,-0.2274 0.5949,-0.2239 0.595,-0.2204 0.5949,-0.2172 0.595,-0.214 0.595,-0.2109 0.5949,-0.2079 0.595,-0.205 0.5949,-0.2022 0.595,-0.1996 0.595,-0.1969 0.5949,-0.1944 0.595,-0.1919 0.5949,-0.1896 0.595,-0.1872 0.595,-0.1851 0.5949,-0.1829 0.595,-0.1807 0.5949,-0.1788 0.595,-0.1768 0.595,-0.1749 0.5949,-0.1731 0.595,-0.1713 0.5949,-0.1695 0.595,-0.1679 0.595,-0.1663 0.5949,-0.1647 0.595,-0.1632 0.5949,-0.1618 0.595,-0.1603 0.595,-0.1589 0.5949,-0.1577 0.595,-0.1563 0.5949,-0.1551 0.595,-0.154 0.595,-0.1527 0.5949,-0.1517 0.595,-0.1506 0.5949,-0.1495 0.595,-0.1486"
     id="path26" /><path
     style="fill:#4d4d4d;stroke:#909090;stroke-width:2.30000921;stroke-linecap:butt;stroke-linejoin:miter;stroke-dasharray:2.30000921,4.60001843;stroke-opacity:1;stroke-miterlimit:4;stroke-dashoffset:0"
     inkscape:connector-curvature="0"
     d="m 39.961346,216.33284 0.5949,0 0.595,0 0.5949,0 0.595,0 0.595,0 0.5949,0 0.595,0 0.5949,0 0.595,0 0.595,0 0.5949,0 0.595,0 0.5949,0 0.595,0 0.595,0 0.5949,0 0.595,0 0.5949,0 0.595,0 0.595,0 0.5949,0 0.595,0 0.5949,0 0.595,0 0.595,0 0.5949,0 0.595,0 0.5949,0 0.595,0 0.595,0 0.5949,0 0.595,0 0.5949,0 0.595,0 0.595,0 0.5949,0 0.595,0 0.5949,0 0.595,0 0.595,0 0.5949,0 0.595,0 0.5949,0 0.595,0 0.595,0 0.5949,0 0.595,0 0.5949,0 0.595,0 0.595,0 0.5949,0 0.595,0 0.5949,0 0.595,0 0.595,0 0.5949,0 0.595,0 0.5949,0 0.595,0 0.595,0 0.5949,0 0.595,0 0.5949,0 0.595,0 0.595,0 0.5949,0 0.595,0 0.5949,0 0.595,0 0.595,0 0.5949,0 0.595,0 0.5949,0 0.595,0 0.595,0 0.5949,0 0.595,0 0.5949,0 0.595,0 0.595,0 0.5949,0 0.595,0 0.5949,0 0.595,0 0.595,0 0.5949,0 0.595,0 0.5949,0 0.595,0 0.595,0 0.5949,0 0.595,0 0.5949,0 0.595,0 0.595,0 0.5949,0 0.595,0 0.5949,0 0.595,0 0.595,0 0.594904,0 0.595,0 0.5949,0 0.595,0 0.595,0 0.5949,0 0.595,0 0.5949,0 0.595,0 0.595,0 0.5949,0 0.595,0 0.5949,0 0.595,0 0.595,0 0.5949,0 0.595,0 0.5949,0 0.595,0 0.595,0 0.5949,0 0.595,0 0.5949,0 0.595,0 0.595,0 0.5949,0 0.595,0 0.5949,0 0.595,0 0.595,0 0.5949,0 0.595,0 0.5949,0 0.595,0 0.595,0 0.5949,0 0.595,0 0.5949,0 0.595,0 0.595,0 0.5949,0 0.595,0 0.5949,0 0.595,0 0.595,0 0.5949,0 0.595,0 0.5949,0 0.595,0 0.595,0 0.5949,0 0.595,0 0.5949,0 0.595,0 0.595,0 0.5949,0 0.595,0 0.5949,0 0.595,0 0.595,0 0.5949,0 0.595,0 0.5949,0 0.595,0 0.595,0 0.5949,0 0.595,0 0.5949,0 0.595,0 0.595,0 0.5949,0 0.595,0 0.5949,0 0.595,0 0.595,0 0.5949,0 0.595,0 0.5949,0 0.595,0 0.595,0 0.5949,0 0.595,0 0.5949,0 0.595,0 0.595,0 0.5949,0 0.595,0 0.5949,0 0.595,0 0.595,0 0.5949,0 0.595,0 0.5949,0 0.595,0 0.595,0 0.5949,0 0.595,0 0.5949,0 0.595,0 0.595,0 0.5949,0 0.595,0 0.5949,0 0.595,0 0.595,0 0.5949,0 0.595,0 0.5949,0 0.595,0 0.595,0 0.5949,0 0.595,0 0.5949,0 0.595,0 0.595,0 0.5949,0 0.595,0 0.5949,0 0.595,0 0.595,0 0.5949,0 0.595,0 0.5949,0 0.595,0 0.595,0 0.5949,0 0.595,0 0.5949,0 0.595,0 0.595,0 0.5949,0 0.595,0 0.5949,0 0.595,0 0.595,0 0.5949,0 0.595,0 0.5949,0 0.595,0 0.595,0 0.5949,0 0.595,0 0.5949,0 0.595,0 0.595,0 0.5949,0 0.595,0 0.5949,0 0.595,0 0.595,0 0.5949,0 0.595,0 0.5949,0 0.595,0 0.595,0 0.5949,0 0.595,0 0.5949,0 0.595,0 0.595,0 0.5949,0 0.595,0 0.5949,0 0.595,0 0.595,0 0.5949,0 0.595,0 0.5949,0 0.595,0 0.595,0 0.5949,0 0.595,0 0.5949,0 0.595,0 0.595,0 0.5949,0 0.595,0 0.5949,0 0.595,0 0.595,0 0.5949,0 0.595,0 0.5949,0 0.595,0 0.595,0 0.5949,0 0.595,0 0.5949,0 0.595,0 0.595,0 0.5949,0 0.595,0 0.5949,0 0.595,0 0.595,0 0.5949,0 0.595,0 0.5949,0 0.595,0 0.595,0 0.5949,0 0.595,0 0.5949,0 0.595,0 0.595,0 0.5949,0 0.595,0 0.5949,0 0.595,0 0.595,0 0.5949,0 0.595,0 0.5949,0 0.595,0 0.595,0 0.5949,0 0.595,0 0.5949,0 0.595,0 0.595,0 0.5949,0 0.595,0 0.5949,0 0.595,0 0.595,0 0.5949,0 0.595,0 0.5949,0 0.595,0 0.595,0 0.5949,0 0.595,0 0.5949,0 0.595,0 0.595,0 0.5949,0 0.595,0 0.5949,0 0.595,0 0.595,0 0.5949,0 0.595,0 0.5949,0 0.595,0 0.595,0 0.5949,0 0.595,0 0.5949,0 0.595,0 0.595,0 0.5949,0 0.595,0 0.5949,0 0.595,0 0.595,0 0.5949,0 0.595,0 0.5949,0 0.595,0 0.595,0 0.5949,0 0.595,0 0.5949,0 0.595,0 0.595,0 0.5949,0 0.595,0 0.5949,0 0.595,0 0.595,0 0.5949,0 0.595,0 0.5949,0 0.595,0 0.595,0 0.5949,0 0.595,0 0.5949,0 0.595,0 0.595,0 0.5949,0 0.595,0 0.5949,0 0.595,0 0.595,0 0.5949,0 0.595,0 0.5949,0 0.595,0 0.595,0 0.5949,0 0.595,0 0.5949,0 0.595,0 0.595,0 0.5949,0 0.595,0 0.5949,0 0.595,0 0.595,0 0.5949,0 0.595,0 0.5949,0 0.595,0 0.595,0 0.5949,0 0.595,0 0.5949,0 0.595,0 0.595,0 0.5949,0 0.595,0 0.5949,0 0.595,0 0.595,0 0.5949,0 0.595,0 0.5949,0 0.595,0 0.595,0 0.5949,0 0.595,0 0.5949,0 0.595,0 0.595,0 0.5949,0 0.595,0 0.5949,0 0.595,0 0.595,0 0.5949,0 0.595,0 0.5949,0 0.595,0 0.595,0 0.5949,0 0.595,0 0.5949,0 0.595,0 0.595,0 0.5949,0 0.595,0 0.5949,0 0.595,0 0.595,0 0.5949,0 0.595,0 0.5949,0 0.595,0 0.595,0 0.5949,0 0.595,0 0.5949,0 0.595,0 0.595,0 0.5949,0 0.595,0 0.5949,0 0.595,0 0.595,0 0.5949,0 0.595,0 0.5949,0 0.595,0 0.595,0 0.5949,0 0.595,0 0.5949,0 0.595,0 0.595,0 0.5949,0 0.595,0 0.5949,0 0.595,0 0.595,0 0.5949,0 0.595,0 0.5949,0 0.595,0 0.595,0 0.5949,0 0.595,0 0.5949,0 0.595,0 0.595,0 0.5949,0 0.595,0 0.5949,0 0.595,0 0.595,0 0.5949,0 0.595,0 0.5949,0 0.595,0 0.595,0 0.5949,0 0.595,0 0.5949,0 0.595,0 0.595,0 0.5949,0 0.595,0 0.5949,0 0.595,0 0.595,0 0.5949,0 0.595,0 0.5949,0 0.595,0 0.595,0 0.5949,0 0.595,0 0.5949,0 0.595,0 0.595,0 0.5949,0 0.595,0 0.5949,0 0.595,0 0.595,0 0.5949,0 0.595,0 0.5949,0 0.595,0 0.595,0 0.5949,0 0.595,0 0.5949,0 0.595,0 0.595,0 0.5949,0 0.595,0 0.5949,0 0.595,0 0.595,0 0.5949,0 0.595,0 0.5949,0 0.595,0 0.595,0 0.5949,0 0.595,0 0.5949,0 0.595,0 0.595,0 0.5949,0 0.595,0 0.5949,0 0.595,0 0.595,0 0.5949,0 0.595,0 0.5949,0 0.595,0 0.595,0 0.5949,0 0.595,0 0.5949,0 0.595,0 0.595,0 0.5949,0 0.595,0 0.5949,0 0.595,0 0.595,0 0.5949,0 0.595,0 0.5949,0 0.595,0 0.595,0 0.5949,0 0.595,0 0.5949,0 0.595,0 0.595,0 0.5949,0 0.595,0 0.5949,0 0.595,0 0.595,0 0.5949,0 0.595,0 0.5949,0 0.595,0 0.595,0 0.5949,0 0.595,0 0.5949,0 0.595,0 0.595,0 0.5949,0 0.595,0 0.5949,0 0.595,0 0.595,0 0.5949,0 0.595,0 0.5949,0 0.595,0 0.595,0 0.5949,0 0.595,0 0.5949,0 0.595,0 0.595,0 0.5949,0 0.595,0 0.5949,0 0.595,0 0.595,0 0.5949,0 0.595,0 0.5949,0 0.595,0 0.595,0 0.5949,0 0.595,0 0.5949,0 0.595,0 0.595,0 0.5949,0 0.595,0 0.5949,0 0.595,0 0.595,0 0.5949,0 0.595,0 0.5949,0 0.595,0 0.595,0 0.5949,0 0.595,0 0.5949,0 0.595,0 0.595,0 0.5949,0 0.595,0 0.5949,0 0.595,0 0.595,0 0.5949,0 0.595,0 0.5949,0 0.595,0 0.595,0 0.5949,0 0.595,0 0.5949,0 0.595,0 0.595,0 0.5949,0 0.595,0 0.5949,0 0.595,0 0.595,0 0.5949,0 0.595,0 0.5949,0 0.595,0 0.595,0 0.5949,0 0.595,0 0.5949,0 0.595,0 0.595,0 0.5949,0 0.595,0 0.5949,0 0.595,0 0.595,0 0.5949,0 0.595,0 0.5949,0 0.595,0 0.595,0 0.5949,0 0.595,0 0.5949,0 0.595,0 0.595,0 0.5949,0 0.595,0 0.5949,0 0.595,0 0.595,0 0.5949,0 0.595,0 0.5949,0 0.595,0 0.595,0 0.5949,0 0.595,0 0.5949,0 0.595,0 0.595,0 0.5949,0 0.595,0 0.5949,0 0.595,0 0.595,0 0.5949,0 0.595,0 0.5949,0 0.595,0 0.595,0 0.5949,0 0.595,0 0.5949,0 0.595,0 0.595,0 0.5949,0 0.595,0 0.5949,0 0.595,0 0.595,0 0.5949,0 0.595,0 0.5949,0 0.595,0 0.595,0 0.5949,0 0.595,0 0.5949,0 0.595,0 0.595,0 0.5949,0 0.595,0 0.5949,0 0.595,0 0.595,0 0.5949,0 0.595,0 0.5949,0 0.595,0 0.595,0 0.5949,0 0.595,0 0.5949,0 0.595,0 0.595,0 0.5949,0 0.595,0 0.5949,0 0.595,0 0.595,0 0.5949,0 0.595,0 0.5949,0 0.595,0 0.595,0 0.5949,0 0.595,0 0.5949,0 0.595,0 0.595,0 0.5949,0 0.595,0 0.5949,0 0.595,0 0.595,0 0.5949,0 0.595,0 0.5949,0 0.595,0 0.595,0 0.5949,0 0.595,0 0.5949,0 0.595,0 0.595,0 0.5949,0 0.595,0 0.5949,0 0.595,0 0.595,0 0.5949,0 0.595,0 0.5949,0 0.595,0 0.595,0 0.5949,0 0.595,0 0.5949,0 0.595,0 0.595,0 0.5949,0 0.595,0 0.5949,0 0.595,0 0.595,0 0.5949,0 0.595,0 0.5949,0 0.595,0 0.595,0 0.5949,0 0.595,0 0.5949,0 0.595,0 0.595,0 0.5949,0 0.595,0 0.5949,0 0.595,0 0.595,0 0.5949,0 0.595,0 0.5949,0 0.595,0 0.595,0 0.5949,0 0.595,0 0.5949,0 0.595,0 0.595,0 0.5949,0 0.595,0 0.5949,0 0.595,0 0.595,0 0.5949,0 0.595,0 0.5949,0 0.595,0 0.595,0 0.5949,0 0.595,0 0.5949,0 0.595,0 0.595,0 0.5949,0 0.595,0 0.5949,0 0.595,0 0.595,0 0.5949,0 0.595,0 0.5949,0 0.595,0 0.595,0 0.5949,0 0.595,0 0.5949,0 0.595,0 0.595,0 0.5949,0 0.595,0 0.5949,0 0.595,0 0.595,0 0.5949,0 0.595,0 0.5949,0 0.595,0 0.595,0 0.5949,0 0.595,0 0.5949,0 0.595,0 0.595,0 0.5949,0 0.595,0 0.5949,0 0.595,0 0.595,0 0.5949,0 0.595,0 0.5949,0 0.595,0 0.595,0 0.5949,0 0.595,0 0.5949,0 0.595,0 0.595,0 0.5949,0 0.595,0 0.5949,0 0.595,0 0.595,0 0.5949,0 0.595,0 0.5949,0 0.595,0 0.595,0 0.5949,0 0.595,0 0.5949,0 0.595,0 0.595,0 0.5949,0 0.595,0 0.5949,0 0.595,0 0.595,0 0.5949,0 0.595,0 0.5949,0 0.595,0 0.595,0 0.5949,0 0.595,0 0.5949,0 0.595,0 0.595,0 0.5949,0 0.595,0 0.5949,0 0.595,0 0.595,0 0.5949,0 0.595,0 0.5949,0 0.595,0 0.595,0 0.5949,0 0.595,0 0.5949,0 0.595,0 0.595,0 0.5949,0 0.595,0 0.5949,0 0.595,0 0.595,0 0.5949,0 0.595,0 0.5949,0 0.595,0 0.595,0 0.5949,0 0.595,0 0.5949,0 0.595,0 0.595,0 0.5949,0 0.595,0 0.5949,0 0.595,0 0.595,0 0.5949,0 0.595,0 0.5949,0 0.595,0 0.595,0 0.5949,0 0.595,0 0.5949,0 0.595,0 0.595,0 0.5949,0 0.595,0 0.5949,0 0.595,0 0.595,0 0.5949,0 0.595,0 0.5949,0 0.595,0 0.595,0 0.5949,0 0.595,0 0.5949,0 0.595,0 0.595,0 0.5949,0 0.595,0 0.5949,0 0.595,0 0.595,0 0.5949,0 0.595,0 0.5949,0 0.595,0 0.595,0 0.5949,0 0.595,0 0.5949,0 0.595,0 0.595,0 0.5949,0 0.595,0 0.5949,0 0.595,0 0.595,0 0.5949,0 0.595,0 0.5949,0 0.595,0 0.595,0 0.5949,0 0.595,0 0.5949,0 0.595,0 0.595,0 0.5949,0 0.595,0 0.5949,0 0.595,0"
     id="path30" /><path
     style="fill:none;stroke:#d40000;stroke-width:2.67729998;stroke-linecap:butt;stroke-linejoin:miter;stroke-dasharray:none;stroke-opacity:1"
     inkscape:connector-curvature="0"
     d="m 39.425846,234.74004 0.5955,1e-4 0.5955,0 0.5955,1e-4 0.5955,1e-4 0.5955,1e-4 0.5955,2e-4 0.5955,2e-4 0.5955,2e-4 0.5955,3e-4 0.5955,3e-4 0.5955,3e-4 0.5954,4e-4 0.5955,4e-4 0.5955,4e-4 0.5955,4e-4 0.5955,5e-4 0.5955,5e-4 0.5955,5e-4 0.5955,6e-4 0.5955,6e-4 0.5955,6e-4 0.5955,7e-4 0.5955,7e-4 0.5955,7e-4 0.5955,7e-4 0.5955,8e-4 0.5955,8e-4 0.5955,9e-4 0.5955,8e-4 0.5955,9e-4 0.5955,0.001 0.5955,9e-4 0.5955,0.001 0.5955,0.001 0.5955,10e-4 0.5955,0.001 0.5954,0.001 0.5955,0.001 0.5955,0.001 0.5955,0.001 0.5955,10e-4 0.5955,0.001 0.5955,0.001 0.5955,0.001 0.5955,0.001 0.5955,0.001 0.5955,10e-4 0.5955,0.001 0.5955,0.002 0.5955,0.002 0.5955,0.002 0.5955,0.002 0.5955,0.002 0.5955,0.002 0.5955,0.002 0.5955,0.002 0.5955,0.002 0.5955,0.002 0.5955,0.002 0.5955,0.002 0.5955,0.002 0.5954,0.002 0.5955,0.002 0.5955,0.002 0.5955,0.002 0.5955,0.002 0.5955,0.002 0.5955,0.002 0.5955,0.002 0.5955,0.002 0.5955,0.002 0.5955,0.002 0.5955,0.002 0.5955,0.002 0.5955,0.002 0.5955,0.002 0.5955,0.002 0.5955,0.002 0.5955,0.002 0.5955,0.002 0.5955,0.002 0.5955,0.002 0.5955,0.003 0.5955,0.003 0.5955,0.003 0.5955,0.003 0.5954,0.003 0.5955,0.003 0.5955,0.003 0.5955,0.003 0.5955,0.003 0.5955,0.003 0.5955,0.003 0.5955,0.003 0.5955,0.003 0.5955,0.003 0.5955,0.003 0.5955,0.003 0.5955,0.003 0.5955,0.003 0.5955,0.003 0.595504,0.003 0.5955,0.003 0.5955,0.003 0.5955,0.003 0.5955,0.003 0.5955,0.003 0.5955,0.003 0.5955,0.003 0.5955,0.003 0.5955,0.003 0.5954,0.004 0.5955,0.004 0.5955,0.003 0.5955,0.004 0.5955,0.004 0.5955,0.004 0.5955,0.004 0.5955,0.004 0.5955,0.004 0.5955,0.004 0.5955,0.004 0.5955,0.004 0.5955,0.004 0.5955,0.004 0.5955,0.004 0.5955,0.004 0.5955,0.004 0.5955,0.004 0.5955,0.004 0.5955,0.004 0.5955,0.004 0.5955,0.004 0.5955,0.004 0.5955,0.004 0.5955,0.004 0.5954,0.004 0.5955,0.004 0.5955,0.004 0.5955,0.005 0.5955,0.005 0.5955,0.005 0.5955,0.005 0.5955,0.005 0.5955,0.005 0.5955,0.005 0.5955,0.005 0.5955,0.005 0.5955,0.005 0.5955,0.005 0.5955,0.005 0.5955,0.005 0.5955,0.005 0.5955,0.005 0.5955,0.005 0.5955,0.005 0.5955,0.005 0.5955,0.005 0.5955,0.005 0.5955,0.005 0.5955,0.005 0.5954,0.005 0.5955,0.005 0.5955,0.005 0.5955,0.005 0.5955,0.005 0.5955,0.005 0.5955,0.006 0.5955,0.005 0.5955,0.005 0.5955,0.006 0.5955,0.006 0.5955,0.006 0.5955,0.006 0.5955,0.006 0.5955,0.006 0.5955,0.006 0.5955,0.006 0.5955,0.006 0.5955,0.006 0.5955,0.006 0.5955,0.006 0.5955,0.006 0.5955,0.006 0.5955,0.006 0.5955,0.006 0.5954,0.006 0.5955,0.006 0.5955,0.006 0.5955,0.006 0.5955,0.006 0.5955,0.006 0.5955,0.006 0.5955,0.006 0.5955,0.007 0.5955,0.007 0.5955,0.007 0.5955,0.007 0.5955,0.007 0.5955,0.007 0.5955,0.007 0.5955,0.007 0.5955,0.007 0.5955,0.007 0.5955,0.007 0.5955,0.007 0.5955,0.007 0.5955,0.007 0.5955,0.007 0.5955,0.007 0.5955,0.007 0.5954,0.007 0.5955,0.007 0.5955,0.007 0.5955,0.007 0.5955,0.007 0.5955,0.007 0.5955,0.007 0.5955,0.007 0.5955,0.008 0.5955,0.007 0.5955,0.008 0.5955,0.008 0.5955,0.008 0.5955,0.008 0.5955,0.008 0.5955,0.008 0.5955,0.008 0.5955,0.008 0.5955,0.008 0.5955,0.008 0.5955,0.008 0.5955,0.008 0.5955,0.008 0.5955,0.008 0.5955,0.008 0.5954,0.008 0.5955,0.008 0.5955,0.008 0.5955,0.008 0.5955,0.008 0.5955,0.009 0.5955,0.009 0.5955,0.009 0.5955,0.009 0.5955,0.009 0.5955,0.009 0.5955,0.009 0.5955,0.009 0.5955,0.009 0.5955,0.009 0.5955,0.009 0.5955,0.009 0.5955,0.009 0.5955,0.009 0.5955,0.009 0.5955,0.009 0.5955,0.009 0.5955,0.009 0.5955,0.009 0.5955,0.01 0.5954,0.01 0.5955,0.01 0.5955,0.01 0.5955,0.01 0.5955,0.01 0.5955,0.01 0.5955,0.01 0.5955,0.01 0.5955,0.01 0.5955,0.01 0.5955,0.01 0.5955,0.0101 0.5955,0.0101 0.5955,0.0101 0.5955,0.0102 0.5955,0.0103 0.5955,0.0103 0.5955,0.0104 0.5955,0.0104 0.5955,0.0105 0.5955,0.0105 0.5955,0.0106 0.5955,0.0106 0.5955,0.0107 0.5955,0.0107 0.5954,0.0108 0.5955,0.0109 0.5955,0.0109 0.5955,0.0109 0.5955,0.0111 0.5955,0.011 0.5955,0.0112 0.5955,0.0112 0.5955,0.0112 0.5955,0.0113 0.5955,0.0114 0.5955,0.0114 0.5955,0.0114 0.5955,0.0116 0.5955,0.0116 0.5955,0.0116 0.5955,0.0117 0.5955,0.0118 0.5955,0.0118 0.5955,0.0119 0.5955,0.0119 0.5955,0.012 0.5955,0.0121 0.5955,0.0121 0.5955,0.0122 0.5954,0.0122 0.5955,0.0124 0.5955,0.0123 0.5955,0.0125 0.5955,0.0124 0.5955,0.0126 0.5955,0.0126 0.5955,0.0127 0.5955,0.0127 0.5955,0.0129 0.5955,0.0128 0.5955,0.013 0.5955,0.013 0.5955,0.013 0.5955,0.0132 0.5955,0.0132 0.5955,0.0132 0.5955,0.0133 0.5955,0.0134 0.5955,0.0135 0.5955,0.0135 0.5955,0.0136 0.5955,0.0137 0.5955,0.0137 0.5955,0.0138 0.5954,0.0139 0.5955,0.0139 0.5955,0.014 0.5955,0.0141 0.5955,0.0141 0.5955,0.0143 0.5955,0.0143 0.5955,0.0143 0.5955,0.0144 0.5955,0.0145 0.5955,0.0146 0.5955,0.0147 0.5955,0.0147 0.5955,0.0148 0.5955,0.0148 0.5955,0.015 0.5955,0.015 0.5955,0.0151 0.5955,0.0151 0.5955,0.0153 0.5955,0.0153 0.5955,0.0154 0.5955,0.0155 0.5955,0.0155 0.5955,0.0156 0.5954,0.0157 0.5955,0.0158 0.5955,0.0159 0.5955,0.0159 0.5955,0.016 0.5955,0.0161 0.5955,0.0162 0.5955,0.0163 0.5955,0.0163 0.5955,0.0164 0.5955,0.0165 0.5955,0.0166 0.5955,0.0167 0.5955,0.0168 0.5955,0.0168 0.5955,0.0169 0.5955,0.017 0.5955,0.0171 0.5955,0.0172 0.5955,0.0173 0.5955,0.0173 0.5955,0.0175 0.5955,0.0175 0.5955,0.0176 0.5955,0.0177 0.5954,0.0178 0.5955,0.0179 0.5955,0.018 0.5955,0.0181 0.5955,0.0181 0.5955,0.0183 0.5955,0.0183 0.5955,0.0185 0.5955,0.0185 0.5955,0.0186 0.5955,0.0187 0.5955,0.0189 0.5955,0.0189 0.5955,0.019 0.5955,0.0191 0.5955,0.0192 0.5955,0.0193 0.5955,0.0194 0.5955,0.0195 0.5955,0.0196 0.5955,0.0197 0.5955,0.0198 0.5955,0.0199 0.5955,0.02 0.5955,0.0202 0.5954,0.0202 0.5955,0.0203 0.5955,0.0204 0.5955,0.0206 0.5955,0.0206 0.5955,0.0207 0.5955,0.0209 0.5955,0.021 0.5955,0.021 0.5955,0.0212 0.5955,0.0213 0.5955,0.0214 0.5955,0.0215 0.5955,0.0217 0.5955,0.0217 0.5955,0.0219 0.5955,0.022 0.5955,0.0221 0.5955,0.0222 0.5955,0.0223 0.5955,0.0224 0.5955,0.0226 0.5955,0.0227 0.5955,0.0228 0.5955,0.0229 0.5954,0.0231 0.5955,0.0231 0.5955,0.0233 0.5955,0.0235 0.5955,0.0235 0.5955,0.0237 0.5955,0.0238 0.5955,0.0239 0.5955,0.0241 0.5955,0.0241 0.5955,0.0244 0.5955,0.0244 0.5955,0.0246 0.5955,0.0247 0.5955,0.0249 0.5955,0.025 0.5955,0.0251 0.5955,0.0253 0.5955,0.0254 0.5955,0.0255 0.5955,0.0257 0.5955,0.0258 0.5955,0.026 0.5955,0.0261 0.5955,0.0262 0.5954,0.0265 0.5955,0.0265 0.5955,0.0267 0.5955,0.0268 0.5955,0.027 0.5955,0.0272 0.5955,0.0273 0.5955,0.0275 0.5955,0.0276 0.5955,0.0277 0.5955,0.028 0.5955,0.028 0.5955,0.0283 0.5955,0.0284 0.5955,0.0286 0.5955,0.0287 0.5955,0.0289 0.5955,0.029 0.5955,0.0293 0.5955,0.0294 0.5955,0.0295 0.5955,0.0298 0.5955,0.0299 0.5955,0.0301 0.5955,0.0302 0.5954,0.0305 0.5955,0.0306 0.5955,0.0308 0.5955,0.0309 0.5955,0.0312 0.5955,0.0313 0.5955,0.0316 0.5955,0.0317 0.5955,0.0319 0.5955,0.0321 0.5955,0.0323 0.5955,0.0325 0.5955,0.0326 0.5955,0.0329 0.5955,0.0331 0.5955,0.0333 0.5955,0.0334 0.5955,0.0337 0.5955,0.0339 0.5955,0.0341 0.5955,0.0343 0.5955,0.0345 0.5955,0.0347 0.5955,0.035 0.5955,0.0351 0.5954,0.0354 0.5955,0.0356 0.5955,0.0358 0.5955,0.036 0.5955,0.0363 0.5955,0.0365 0.5955,0.0367 0.5955,0.037 0.5955,0.0372 0.5955,0.0374 0.5955,0.0377 0.5955,0.0379 0.5955,0.0381 0.5955,0.0384 0.5955,0.0386 0.5955,0.0389 0.5955,0.0392 0.5955,0.0394 0.5955,0.0396 0.5955,0.04 0.5955,0.0401 0.5955,0.0405 0.5955,0.0407 0.5955,0.041 0.5955,0.0412 0.5954,0.0415 0.5955,0.0418 0.5955,0.0421 0.5955,0.0424 0.5955,0.0427 0.5955,0.0429 0.5955,0.0432 0.5955,0.0436 0.5955,0.0438 0.5955,0.0441 0.5955,0.0444 0.5955,0.0448 0.5955,0.045 0.5955,0.0454 0.5955,0.0457 0.5955,0.0459 0.5955,0.0464 0.5955,0.0466 0.5955,0.047 0.5955,0.0473 0.5955,0.0476 0.5955,0.048 0.5955,0.0483 0.5955,0.0487 0.5955,0.049 0.5954,0.0494 0.5955,0.0497 0.5955,0.0501 0.5955,0.0505 0.5955,0.0508 0.5955,0.0513 0.5955,0.0515 0.5955,0.052 0.5955,0.0524 0.5955,0.0527 0.5955,0.0532 0.5955,0.0535 0.5955,0.054 0.5955,0.0544 0.5955,0.0547 0.5955,0.0552 0.5955,0.0557 0.5955,0.056 0.5955,0.0565 0.5955,0.0569 0.5955,0.0574 0.5955,0.0578 0.5955,0.0583 0.5955,0.0587 0.5955,0.0592 0.5954,0.0597 0.5955,0.0601 0.5955,0.0607 0.5955,0.0611 0.5955,0.0616 0.5955,0.0621 0.5955,0.0627 0.5955,0.0631 0.5955,0.0637 0.5955,0.0642 0.5955,0.0647 0.5955,0.0653 0.5955,0.0658 0.5955,0.0663 0.5955,0.067 0.5955,0.0675 0.5955,0.0681 0.5955,0.0686 0.5955,0.0693 0.5955,0.0698 0.5955,0.0705 0.5955,0.0711 0.5955,0.0717 0.5955,0.0723 0.5955,0.073 0.5954,0.0736 0.5955,0.0743 0.5955,0.075 0.5955,0.0756 0.5955,0.0763 0.5955,0.0771 0.5955,0.0777 0.5955,0.0785 0.5955,0.0791 0.5955,0.08 0.5955,0.0806 0.5955,0.0815 0.5955,0.0822 0.5955,0.0829 0.5955,0.0838 0.5955,0.0846 0.5955,0.0854 0.5955,0.0863 0.5955,0.087 0.5955,0.088 0.5955,0.0888 0.5955,0.0897 0.5955,0.0906 0.5955,0.0915 0.5955,0.0924 0.5954,0.0934 0.5955,0.0943 0.5955,0.0954 0.5955,0.0962 0.5955,0.0973 0.5955,0.0984 0.5955,0.0993 0.5955,0.1004 0.5955,0.1015 0.5955,0.1026 0.5955,0.1037 0.5955,0.1048 0.5955,0.106 0.5955,0.1071 0.5955,0.1083 0.5955,0.1095 0.5955,0.1108 0.5955,0.112 0.5955,0.1133 0.5955,0.1146 0.5955,0.1159 0.5955,0.1172 0.5955,0.1187 0.5955,0.12 0.5955,0.1214 0.5954,0.1229 0.5955,0.1244 0.5955,0.1259 0.5955,0.1274 0.5955,0.129 0.5955,0.1306 0.5955,0.1322 0.5955,0.1339 0.5955,0.1355 0.5955,0.1373 0.5955,0.1391 0.5955,0.1409 0.5955,0.1427 0.5955,0.1445 0.5955,0.1465 0.5955,0.1485 0.5955,0.1504 0.5955,0.1525 0.5955,0.1545 0.5955,0.1568 0.5955,0.1588 0.5955,0.1611 0.5955,0.1634 0.5955,0.1658 0.5955,0.1681 0.5954,0.1705 0.5955,0.173 0.5955,0.1756 0.5955,0.1783 0.5955,0.1809 0.5955,0.1836 0.5955,0.1864 0.5955,0.1894 0.5955,0.1923 0.5955,0.1953 0.5955,0.1984 0.5955,0.2016 0.5955,0.2049 0.5955,0.2082 0.5955,0.2117 0.5955,0.2152 0.5955,0.2189 0.5955,0.2226 0.5955,0.2264 0.5955,0.2303 0.5955,0.2345 0.5955,0.2386 0.5955,0.2428 0.5955,0.2473 0.5955,0.2519 0.5954,0.2565 0.5955,0.2614 0.5955,0.2663 0.5955,0.2715 0.5955,0.2767 0.5955,0.2822 0.5955,0.2879 0.5955,0.2936 0.5955,0.2997 0.5955,0.3059 0.5955,0.3123 0.5955,0.319 0.5955,0.3258 0.5955,0.3329 0.5955,0.3403 0.5955,0.348 0.5955,0.3559 0.5955,0.364 0.5955,0.3726 0.5955,0.3815 0.5955,0.3907 0.5955,0.4002 0.5955,0.4102 0.5955,0.4205 0.5955,0.4313 0.5954,0.4425 0.5955,0.4543 0.5955,0.4665 0.5955,0.4792 0.5955,0.4926 0.5955,0.5066 0.5955,0.5212 0.5955,0.5365 0.5955,0.5525 0.5955,0.5694 0.5955,0.587 0.5955,0.6057 0.5955,0.6252 0.5955,0.6459 0.5955,0.6676 0.5955,0.6905 0.5955,0.7148 0.5955,0.7405 0.5955,0.7677 0.5955,0.7965 0.5955,0.8272 0.5955,0.8598 0.5955,0.8946 0.5955,0.9316 0.5955,0.9714 0.5954,1.0137 0.5955,1.0594 0.5955,1.1083 0.5955,1.1611 0.5955,1.218 0.5955,1.2797 0.5955,1.3465 0.5955,1.4191 0.5955,1.4984 0.5955,1.5852 0.5955,1.6802 0.5955,1.785 0.5955,1.9008 0.5955,2.0291 0.5955,2.1722 0.5955,2.3323 0.5955,2.5125 0.5955,2.7163 0.5955,2.9483 0.5955,3.2141 0.5955,3.521 0.5955,3.8782 0.5955,4.2978 0.5955,4.7961 0.5955,5.3947 0.5954,6.1239 0.5955,7.0266 0.5955,8.1649 0.5955,9.6329 0.5955,11.5781 0.5955,14.2435 0.5955,18.0549 0.2007,8.0267"
     id="path34" /><path
     style="fill:none;stroke:#000000;stroke-width:2.67729998;stroke-linecap:butt;stroke-linejoin:miter;stroke-dasharray:none"
     inkscape:connector-curvature="0"
     d="m 39.366346,424.56884 594.960004,0"
     id="path38" /><path
     style="fill:none;stroke:#000000;stroke-width:2.67729998;stroke-linecap:butt;stroke-linejoin:miter;stroke-dasharray:none"
     inkscape:connector-curvature="0"
     d="m 39.366346,8.0968437 594.960004,0"
     id="path40" /><path
     style="fill:none;stroke:#000000;stroke-width:2.23110008;stroke-linecap:butt;stroke-linejoin:miter;stroke-dasharray:none"
     inkscape:connector-curvature="0"
     d="m 39.366346,424.56884 0,-11.8992"
     id="path106" /><path
     style="fill:none;stroke:#000000;stroke-width:2.23110008;stroke-linecap:butt;stroke-linejoin:miter;stroke-dasharray:none"
     inkscape:connector-curvature="0"
     d="m 39.366346,8.0968437 0,11.8992003"
     id="path108" /><path
     style="fill:none;stroke:#000000;stroke-width:2.23110008;stroke-linecap:butt;stroke-linejoin:miter;stroke-dasharray:none"
     inkscape:connector-curvature="0"
     d="m 158.35835,424.56884 0,-11.8992"
     id="path110" /><path
     style="fill:none;stroke:#000000;stroke-width:2.23110008;stroke-linecap:butt;stroke-linejoin:miter;stroke-dasharray:none"
     inkscape:connector-curvature="0"
     d="m 158.35835,8.0968437 0,11.8992003"
     id="path112" /><path
     style="fill:none;stroke:#000000;stroke-width:2.23110008;stroke-linecap:butt;stroke-linejoin:miter;stroke-dasharray:none"
     inkscape:connector-curvature="0"
     d="m 277.35035,424.56884 0,-11.8992"
     id="path114" /><path
     style="fill:none;stroke:#000000;stroke-width:2.23110008;stroke-linecap:butt;stroke-linejoin:miter;stroke-dasharray:none"
     inkscape:connector-curvature="0"
     d="m 277.35035,8.0968437 0,11.8992003"
     id="path116" /><path
     style="fill:none;stroke:#000000;stroke-width:2.23110008;stroke-linecap:butt;stroke-linejoin:miter;stroke-dasharray:none"
     inkscape:connector-curvature="0"
     d="m 396.34235,424.56884 0,-11.8992"
     id="path118" /><path
     style="fill:none;stroke:#000000;stroke-width:2.23110008;stroke-linecap:butt;stroke-linejoin:miter;stroke-dasharray:none"
     inkscape:connector-curvature="0"
     d="m 396.34235,8.0968437 0,11.8992003"
     id="path120" /><path
     style="fill:none;stroke:#000000;stroke-width:2.23110008;stroke-linecap:butt;stroke-linejoin:miter;stroke-dasharray:none"
     inkscape:connector-curvature="0"
     d="m 515.33435,424.56884 0,-11.8992"
     id="path122" /><path
     style="fill:none;stroke:#000000;stroke-width:2.23110008;stroke-linecap:butt;stroke-linejoin:miter;stroke-dasharray:none"
     inkscape:connector-curvature="0"
     d="m 515.33435,8.0968437 0,11.8992003"
     id="path124" /><path
     style="fill:none;stroke:#000000;stroke-width:2.23110008;stroke-linecap:butt;stroke-linejoin:miter;stroke-dasharray:none"
     inkscape:connector-curvature="0"
     d="m 634.32635,424.56884 0,-11.8992"
     id="path126" /><path
     style="fill:none;stroke:#000000;stroke-width:2.23110008;stroke-linecap:butt;stroke-linejoin:miter;stroke-dasharray:none"
     inkscape:connector-curvature="0"
     d="m 634.32635,8.0968437 0,11.8992003"
     id="path128" /><path
     style="fill:none;stroke:#000000;stroke-width:2.67729998;stroke-linecap:butt;stroke-linejoin:miter;stroke-dasharray:none"
     inkscape:connector-curvature="0"
     d="m 39.366346,424.56884 0,-416.4719963"
     id="path146" /><path
     style="fill:none;stroke:#000000;stroke-width:2.67729998;stroke-linecap:butt;stroke-linejoin:miter;stroke-dasharray:none"
     inkscape:connector-curvature="0"
     d="m 634.32635,424.56884 0,-416.4719963"
     id="path148" /><path
     style="fill:none;stroke:#000000;stroke-width:2.23110008;stroke-linecap:butt;stroke-linejoin:miter;stroke-dasharray:none"
     inkscape:connector-curvature="0"
     d="m 39.366346,424.56884 11.8992,0"
     id="path152" /><path
     style="fill:none;stroke:#000000;stroke-width:2.23110008;stroke-linecap:butt;stroke-linejoin:miter;stroke-dasharray:none"
     inkscape:connector-curvature="0"
     d="m 634.32635,424.56884 -11.8992,0"
     id="path154" /><path
     style="fill:none;stroke:#000000;stroke-width:2.23110008;stroke-linecap:butt;stroke-linejoin:miter;stroke-dasharray:none"
     inkscape:connector-curvature="0"
     d="m 39.366346,355.15684 11.8992,0"
     id="path156" /><path
     style="fill:none;stroke:#000000;stroke-width:2.23110008;stroke-linecap:butt;stroke-linejoin:miter;stroke-dasharray:none"
     inkscape:connector-curvature="0"
     d="m 634.32635,355.15684 -11.8992,0"
     id="path158" /><path
     style="fill:none;stroke:#000000;stroke-width:2.23110008;stroke-linecap:butt;stroke-linejoin:miter;stroke-dasharray:none"
     inkscape:connector-curvature="0"
     d="m 39.366346,285.74484 11.8992,0"
     id="path160" /><path
     style="fill:none;stroke:#000000;stroke-width:2.23110008;stroke-linecap:butt;stroke-linejoin:miter;stroke-dasharray:none"
     inkscape:connector-curvature="0"
     d="m 634.32635,285.74484 -11.8992,0"
     id="path162" /><path
     style="fill:none;stroke:#000000;stroke-width:2.23110008;stroke-linecap:butt;stroke-linejoin:miter;stroke-dasharray:none"
     inkscape:connector-curvature="0"
     d="m 39.366346,216.33284 11.8992,0"
     id="path164" /><path
     style="fill:none;stroke:#000000;stroke-width:2.23110008;stroke-linecap:butt;stroke-linejoin:miter;stroke-dasharray:none"
     inkscape:connector-curvature="0"
     d="m 634.32635,216.33284 -11.8992,0"
     id="path166" /><path
     style="fill:none;stroke:#000000;stroke-width:2.23110008;stroke-linecap:butt;stroke-linejoin:miter;stroke-dasharray:none"
     inkscape:connector-curvature="0"
     d="m 39.366346,146.92084 11.8992,0"
     id="path168" /><path
     style="fill:none;stroke:#000000;stroke-width:2.23110008;stroke-linecap:butt;stroke-linejoin:miter;stroke-dasharray:none"
     inkscape:connector-curvature="0"
     d="m 634.32635,146.92084 -11.8992,0"
     id="path170" /><path
     style="fill:none;stroke:#000000;stroke-width:2.23110008;stroke-linecap:butt;stroke-linejoin:miter;stroke-dasharray:none"
     inkscape:connector-curvature="0"
     d="m 39.366346,77.508844 11.8992,0"
     id="path172" /><path
     style="fill:none;stroke:#000000;stroke-width:2.23110008;stroke-linecap:butt;stroke-linejoin:miter;stroke-dasharray:none"
     inkscape:connector-curvature="0"
     d="m 634.32635,77.508844 -11.8992,0"
     id="path174" /><path
     style="fill:none;stroke:#000000;stroke-width:2.23110008;stroke-linecap:butt;stroke-linejoin:miter;stroke-dasharray:none"
     inkscape:connector-curvature="0"
     d="m 39.366346,8.0968437 11.8992,0"
     id="path176" /><path
     style="fill:none;stroke:#000000;stroke-width:2.23110008;stroke-linecap:butt;stroke-linejoin:miter;stroke-dasharray:none"
     inkscape:connector-curvature="0"
     d="m 634.32635,8.0968437 -11.8992,0"
     id="path178" /><text
     xml:space="preserve"
     style="font-size:44.80017853px;font-style:normal;font-variant:normal;font-weight:normal;font-stretch:normal;line-height:125%;letter-spacing:0px;word-spacing:0px;fill:#000000;fill-opacity:1;stroke:none;font-family:Nimbus Sans L;-inkscape-font-specification:Sans"
     x="36.917843"
     y="82.002876"
     id="text3559"
     sodipodi:linespacing="125%"><tspan
       sodipodi:role="line"
       id="tspan3561"
       x="36.917843"
       y="82.002876" /></text>
<g
     id="g5766"><text
       y="448.19861"
       x="29.006317"
       id="text132"
       style="font-size:16.65888023px;font-style:normal;font-weight:normal;fill:#000000;fill-rule:nonzero">$0$</text>
<text
       y="448.19861"
       x="147.99832"
       id="text134"
       style="font-size:16.65888023px;font-style:normal;font-weight:normal;fill:#000000;fill-rule:nonzero">$2$</text>
<text
       y="448.19861"
       x="266.99033"
       id="text136"
       style="font-size:16.65888023px;font-style:normal;font-weight:normal;fill:#000000;fill-rule:nonzero">$4$</text>
<text
       y="448.19861"
       x="386.10233"
       id="text138"
       style="font-size:16.65888023px;font-style:normal;font-weight:normal;fill:#000000;fill-rule:nonzero">$6$</text>
<text
       y="448.19861"
       x="505.2142"
       id="text140"
       style="font-size:16.65888023px;font-style:normal;font-weight:normal;fill:#000000;fill-rule:nonzero">$8$</text>
<text
       y="448.19861"
       x="619.76624"
       id="text142"
       style="font-size:16.65888023px;font-style:normal;font-weight:normal;fill:#000000;fill-rule:nonzero">$10$</text>
<text
       y="221.85284"
       x="15.896707"
       id="text188"
       style="font-size:16.65888023px;font-style:normal;font-weight:normal;fill:#000000;fill-rule:nonzero">$0$</text>
<text
       transform="scale(0.98685675,1.0133183)"
       y="219.60028"
       x="651.33582"
       id="text120-5-3-5-3"
       style="font-style:normal;font-weight:normal;font-size:16.43992805px;fill:#000000;fill-rule:nonzero">$k_sa$</text>
<text
       y="83.251846"
       x="16.641638"
       id="text188-3"
       style="font-style:normal;font-weight:normal;font-size:16.65888023px;fill:#000000;fill-rule:nonzero">$1$</text>
</g></svg>