<?xml version="1.0" encoding="UTF-8" standalone="no"?>
<!-- generated by Grace-5.1.25 -->

<svg
   xmlns:dc="http://purl.org/dc/elements/1.1/"
   xmlns:cc="http://creativecommons.org/ns#"
   xmlns:rdf="http://www.w3.org/1999/02/22-rdf-syntax-ns#"
   xmlns:svg="http://www.w3.org/2000/svg"
   xmlns="http://www.w3.org/2000/svg"
   xmlns:sodipodi="http://sodipodi.sourceforge.net/DTD/sodipodi-0.dtd"
   xmlns:inkscape="http://www.inkscape.org/namespaces/inkscape"
   xml:space="preserve"
   width="8.7725353in"
   height="6.1990004in"
   viewBox="0 0 631.62433 446.32983"
   id="svg2"
   version="1.1"
   inkscape:version="0.91 r13725"
   sodipodi:docname="10_TELihi.svg"><metadata
     id="metadata112"><rdf:RDF><cc:Work
         rdf:about=""><dc:format>image/svg+xml</dc:format><dc:type
           rdf:resource="http://purl.org/dc/dcmitype/StillImage" /><dc:title /></cc:Work></rdf:RDF></metadata><defs
     id="defs110" /><sodipodi:namedview
     pagecolor="#ffffff"
     bordercolor="#666666"
     borderopacity="1"
     objecttolerance="10"
     gridtolerance="10"
     guidetolerance="10"
     inkscape:pageopacity="0"
     inkscape:pageshadow="2"
     inkscape:window-width="1147"
     inkscape:window-height="859"
     id="namedview108"
     showgrid="false"
     fit-margin-top="0"
     fit-margin-left="0"
     fit-margin-right="0"
     fit-margin-bottom="0"
     inkscape:zoom="1.0642914"
     inkscape:cx="405.28547"
     inkscape:cy="303.37427"
     inkscape:window-x="883"
     inkscape:window-y="148"
     inkscape:window-maximized="0"
     inkscape:current-layer="svg2" /><rect
     style="opacity:1;fill:#c1d5e9;fill-opacity:1;stroke:none;stroke-width:1.50300598;stroke-linecap:round;stroke-linejoin:round;stroke-miterlimit:4;stroke-dasharray:48.09619238, 0;stroke-dashoffset:0;stroke-opacity:1"
     id="rect3532"
     width="296.91235"
     height="417.18063"
     x="169.42154"
     y="1.176132" /><path
     style="fill:none;stroke:#000000;stroke-width:2.67729998;stroke-linecap:butt;stroke-linejoin:miter;stroke-dasharray:none"
     d="m 21.136154,417.81065 594.959996,0"
     id="path42"
     inkscape:connector-curvature="0" /><path
     style="fill:none;stroke:#000000;stroke-width:2.67729998;stroke-linecap:butt;stroke-linejoin:miter;stroke-dasharray:none"
     d="m 21.136154,1.33865 594.959996,0"
     id="path44"
     inkscape:connector-curvature="0" /><path
     style="fill:none;stroke:#000000;stroke-width:2.67729998;stroke-linecap:butt;stroke-linejoin:miter;stroke-dasharray:none"
     d="m 21.136154,417.81065 0,-11.8992"
     id="path46"
     inkscape:connector-curvature="0" /><path
     style="fill:none;stroke:#000000;stroke-width:2.67729998;stroke-linecap:butt;stroke-linejoin:miter;stroke-dasharray:none"
     d="m 21.136154,1.33865 0,11.8992"
     id="path48"
     inkscape:connector-curvature="0" /><path
     style="fill:none;stroke:#000000;stroke-width:2.67729998;stroke-linecap:butt;stroke-linejoin:miter;stroke-dasharray:none"
     d="m 169.87615,417.81065 0,-11.8992"
     id="path50"
     inkscape:connector-curvature="0" /><path
     style="fill:none;stroke:#000000;stroke-width:2.67729998;stroke-linecap:butt;stroke-linejoin:miter;stroke-dasharray:none"
     d="m 169.87615,1.33865 0,11.8992"
     id="path52"
     inkscape:connector-curvature="0" /><path
     style="fill:none;stroke:#000000;stroke-width:2.67729998;stroke-linecap:butt;stroke-linejoin:miter;stroke-dasharray:none"
     d="m 318.61615,417.81065 0,-11.8992"
     id="path54"
     inkscape:connector-curvature="0" /><path
     style="fill:none;stroke:#000000;stroke-width:2.67729998;stroke-linecap:butt;stroke-linejoin:miter;stroke-dasharray:none"
     d="m 318.61615,1.33865 0,11.8992"
     id="path56"
     inkscape:connector-curvature="0" /><path
     style="fill:none;stroke:#000000;stroke-width:2.67729998;stroke-linecap:butt;stroke-linejoin:miter;stroke-dasharray:none"
     d="m 467.35615,417.81065 0,-11.8992"
     id="path58"
     inkscape:connector-curvature="0" /><path
     style="fill:none;stroke:#000000;stroke-width:2.67729998;stroke-linecap:butt;stroke-linejoin:miter;stroke-dasharray:none"
     d="m 467.35615,1.33865 0,11.8992"
     id="path60"
     inkscape:connector-curvature="0" /><path
     style="fill:none;stroke:#000000;stroke-width:2.67729998;stroke-linecap:butt;stroke-linejoin:miter;stroke-dasharray:none"
     d="m 616.09615,417.81065 0,-11.8992"
     id="path62"
     inkscape:connector-curvature="0" /><path
     style="fill:none;stroke:#000000;stroke-width:2.67729998;stroke-linecap:butt;stroke-linejoin:miter;stroke-dasharray:none"
     d="m 616.09615,1.33865 0,11.8992"
     id="path64"
     inkscape:connector-curvature="0" /><path
     style="fill:none;stroke:#000000;stroke-width:2.67729998;stroke-linecap:butt;stroke-linejoin:miter;stroke-dasharray:none"
     d="m 21.136154,417.81065 0,-416.472"
     id="path80"
     inkscape:connector-curvature="0" /><path
     style="fill:none;stroke:#000000;stroke-width:2.67729998;stroke-linecap:butt;stroke-linejoin:miter;stroke-dasharray:none"
     d="m 616.09615,417.81065 0,-416.472"
     id="path82"
     inkscape:connector-curvature="0" /><path
     style="fill:none;stroke:#000000;stroke-width:2.67729998;stroke-linecap:butt;stroke-linejoin:miter;stroke-dasharray:none"
     d="m 21.136154,383.10465 11.8992,0"
     id="path84"
     inkscape:connector-curvature="0" /><path
     style="fill:none;stroke:#000000;stroke-width:2.67729998;stroke-linecap:butt;stroke-linejoin:miter;stroke-dasharray:none"
     d="m 616.09615,383.10465 -11.8992,0"
     id="path86"
     inkscape:connector-curvature="0" /><path
     style="fill:none;stroke:#000000;stroke-width:2.67729998;stroke-linecap:butt;stroke-linejoin:miter;stroke-dasharray:none"
     d="m 21.136154,209.57465 11.8992,0"
     id="path88"
     inkscape:connector-curvature="0" /><path
     style="fill:none;stroke:#d40000;stroke-width:2.67761072;stroke-linecap:butt;stroke-linejoin:miter;stroke-dasharray:none;stroke-opacity:1;stroke-miterlimit:4;stroke-dashoffset:0"
     d="m 21.98227,205.90921 0.1489,-0.0133 0.1489,-0.0133 0.1489,-0.0133 0.1489,-0.0134 0.1488,-0.0134 0.1489,-0.0135 0.1489,-0.0135 0.1489,-0.0136 0.1489,-0.0136 0.1489,-0.0137 0.1489,-0.0137 0.1489,-0.0138 0.1489,-0.0138 0.1488,-0.0139 0.1489,-0.014 0.1489,-0.0139 0.1489,-0.0141 0.1489,-0.014 0.1489,-0.0142 0.1489,-0.0142 0.1489,-0.0142 0.1489,-0.0143 0.1488,-0.0143 0.1489,-0.0144 0.1489,-0.0145 0.1489,-0.0145 0.1489,-0.0145 0.1489,-0.0146 0.1489,-0.0147 0.1489,-0.0147 0.1489,-0.0147 0.1488,-0.0148 0.1489,-0.0149 0.1489,-0.0149 0.1489,-0.015 0.1489,-0.0151 0.1489,-0.015 0.1489,-0.0152 0.1489,-0.0152 0.1489,-0.0152 0.1488,-0.0153 0.1489,-0.0154 0.1489,-0.0154 0.1489,-0.0155 0.1489,-0.0155 0.1489,-0.0156 0.1489,-0.0157 0.1489,-0.0157 0.1489,-0.0157 0.1488,-0.0158 0.1489,-0.0159 0.1489,-0.0159 0.1489,-0.016 0.1489,-0.0161 0.1489,-0.0161 0.1489,-0.0161 0.1489,-0.0163 0.1489,-0.0162 0.1488,-0.0164 0.1489,-0.0164 0.1489,-0.0164 0.1489,-0.0166 0.1489,-0.0165 0.1489,-0.0167 0.1489,-0.0167 0.1489,-0.0167 0.1489,-0.0169 0.1488,-0.0168 0.1489,-0.017 0.1489,-0.017 0.1489,-0.0171 0.1489,-0.0171 0.1489,-0.0172 0.1489,-0.0172 0.1489,-0.0174 0.1489,-0.0173 0.1488,-0.0175 0.1489,-0.0175 0.1489,-0.0176 0.1489,-0.0176 0.1489,-0.0177 0.1489,-0.0178 0.1489,-0.0178 0.1489,-0.0179 0.1489,-0.0179 0.1488,-0.018 0.1489,-0.0181 0.1489,-0.0182 0.1489,-0.0182 0.1489,-0.0183 0.1489,-0.0183 0.1489,-0.0185 0.1489,-0.0185 0.1489,-0.0185 0.1488,-0.0186 0.1489,-0.0187 0.1489,-0.0188 0.1489,-0.0188 0.1489,-0.0189 0.1489,-0.0189 0.1489,-0.0191 0.1489,-0.0191 0.1489,-0.0191 0.1488,-0.0193 0.1489,-0.0193 0.1489,-0.0194 0.1489,-0.0194 0.1489,-0.0195 0.1489,-0.0196 0.1489,-0.0197 0.1489,-0.0197 0.1489,-0.0198 0.1488,-0.0199 0.1489,-0.02 0.1489,-0.02 0.1489,-0.0201 0.1489,-0.0201 0.1489,-0.0203 0.1489,-0.0203 0.1489,-0.0204 0.1489,-0.0205 0.1488,-0.0205 0.1489,-0.0206 0.1489,-0.0207 0.1489,-0.0208 0.1489,-0.0208 0.1489,-0.0209 0.1489,-0.021 0.1489,-0.0211 0.1489,-0.0211 0.1488,-0.0212 0.1489,-0.0213 0.1489,-0.0214 0.1489,-0.0214 0.1489,-0.0216 0.1489,-0.0216 0.1489,-0.0217 0.1489,-0.0217 0.1489,-0.0219 0.1488,-0.0219 0.1489,-0.022 0.1489,-0.0221 0.1489,-0.0221 0.1489,-0.0223 0.1489,-0.0223 0.1489,-0.0224 0.1489,-0.0225 0.1489,-0.0226 0.1488,-0.0226 0.1489,-0.0228 0.1489,-0.0228 0.1489,-0.0229 0.1489,-0.0229 0.1489,-0.0231 0.1489,-0.0232 0.1489,-0.0232 0.1489,-0.0233 0.1488,-0.0234 0.1489,-0.0235 0.1489,-0.0236 0.1489,-0.0236 0.1489,-0.0238 0.1489,-0.0238 0.1489,-0.0239 0.1489,-0.024 0.1489,-0.0241 0.1488,-0.0242 0.1489,-0.0243 0.1489,-0.0243 0.1489,-0.0245 0.1489,-0.0245 0.1489,-0.0246 0.1489,-0.0247 0.1489,-0.0248 0.1489,-0.0249 0.1488,-0.025 0.1489,-0.0251 0.1489,-0.0252 0.1489,-0.0252 0.1489,-0.0254 0.1489,-0.0254 0.1489,-0.0255 0.1489,-0.0257 0.1489,-0.0257 0.1488,-0.0258 0.1489,-0.0259 0.1489,-0.026 0.1489,-0.0261 0.1489,-0.0262 0.1489,-0.0263 0.1489,-0.0263 0.1489,-0.0265 0.1489,-0.0266 0.1488,-0.0266 0.1489,-0.0268 0.1489,-0.0269 0.1489,-0.0269 0.1489,-0.0271 0.1489,-0.0272 0.1489,-0.0272 0.1489,-0.0274 0.1489,-0.0274 0.1488,-0.0276 0.1489,-0.0276 0.1489,-0.0278 0.1489,-0.0278 0.1489,-0.028 0.1489,-0.028 0.1489,-0.0282 0.1489,-0.0283 0.1489,-0.0283 0.1488,-0.0285 0.1489,-0.0286 0.1489,-0.0286 0.1489,-0.0288 0.1489,-0.0289 0.1489,-0.029 0.1489,-0.0291 0.1489,-0.0292 0.1489,-0.0293 0.1488,-0.0294 0.1489,-0.0295 0.1489,-0.0297 0.1489,-0.0297 0.1489,-0.0298 0.1489,-0.03 0.1489,-0.0301 0.1489,-0.0301 0.1489,-0.0303 0.1488,-0.0304 0.1489,-0.0305 0.1489,-0.0306 0.1489,-0.0307 0.1489,-0.0309 0.1489,-0.0309 0.1489,-0.0311 0.1489,-0.0311 0.1489,-0.0313 0.1488,-0.0314 0.1489,-0.0315 0.1489,-0.0317 0.1489,-0.0317 0.1489,-0.0319 0.1489,-0.0319 0.1489,-0.0321 0.1489,-0.0322 0.1489,-0.0323 0.1488,-0.0325 0.1489,-0.0325 0.1489,-0.0327 0.1489,-0.0328 0.1489,-0.0329 0.1489,-0.0331 0.1489,-0.0331 0.1489,-0.0333 0.1489,-0.0334 0.1488,-0.0335 0.1489,-0.0336 0.1489,-0.0338 0.1489,-0.0339 0.1489,-0.034 0.1489,-0.0341 0.1489,-0.0343 0.1489,-0.0344 0.1489,-0.0345 0.1488,-0.0346 0.1489,-0.0348 0.1489,-0.0348 0.1489,-0.035 0.1489,-0.0352 0.1489,-0.0352 0.1489,-0.0354 0.1489,-0.0356 0.1489,-0.0356 0.1488,-0.0358 0.1489,-0.0359 0.1489,-0.036 0.1489,-0.0362 0.1489,-0.0363 0.1489,-0.0364 0.1489,-0.0366 0.1489,-0.0367 0.1489,-0.0368 0.1488,-0.037 0.1489,-0.0371 0.1489,-0.0372 0.1489,-0.0374 0.1489,-0.0375 0.1489,-0.0377 0.1489,-0.0378 0.1489,-0.0379 0.1489,-0.038 0.1488,-0.0382 0.1489,-0.0384 0.1489,-0.0384 0.1489,-0.0386 0.1489,-0.0388 0.1489,-0.0389 0.1489,-0.039 0.1489,-0.0392 0.1489,-0.0393 0.1488,-0.0395 0.1489,-0.0396 0.1489,-0.0397 0.1489,-0.0399 0.1489,-0.0401 0.1489,-0.0401 0.1489,-0.0404 0.1489,-0.0405 0.1489,-0.0406 0.1488,-0.0408 0.1489,-0.0409 0.1489,-0.041 0.1489,-0.0413 0.1489,-0.0413 0.1489,-0.0415 0.1489,-0.0417 0.1489,-0.0418 0.1489,-0.042 0.1488,-0.0421 0.1489,-0.0423 0.1489,-0.0424 0.1489,-0.0426 0.1489,-0.0428 0.1489,-0.0429 0.1489,-0.043 0.1489,-0.0432 0.1489,-0.0434 0.1488,-0.0435 0.1489,-0.0437 0.1489,-0.0438 0.1489,-0.044 0.1489,-0.0442 0.1489,-0.0443 0.1489,-0.0445 0.1489,-0.0446 0.1489,-0.0449 0.1488,-0.0449 0.1489,-0.0452 0.1489,-0.0452 0.1489,-0.0455 0.1489,-0.0456 0.1489,-0.0458 0.1489,-0.046 0.1489,-0.0461 0.1489,-0.0463 0.1488,-0.0465 0.1489,-0.0466 0.1489,-0.0468 0.1489,-0.047 0.1489,-0.0471 0.1489,-0.0473 0.1489,-0.0475 0.1489,-0.0477 0.1489,-0.0478 0.1488,-0.048 0.1489,-0.0482 0.1489,-0.0483 0.1489,-0.0485 0.1489,-0.0488 0.1489,-0.0488 0.1489,-0.0491 0.1489,-0.0492 0.1489,-0.0494 0.1488,-0.0496 0.1489,-0.0498 0.1489,-0.05 0.1489,-0.0501 0.1489,-0.0503 0.1489,-0.0505 0.1489,-0.0507 0.1489,-0.0509 0.1489,-0.0511 0.1488,-0.0512 0.1489,-0.0514 0.1489,-0.0517 0.1489,-0.0518 0.1489,-0.052 0.1489,-0.0521 0.1489,-0.0524 0.1489,-0.0526 0.1489,-0.0527 0.1488,-0.053 0.1489,-0.0531 0.1489,-0.0533 0.1489,-0.0536 0.1489,-0.0537 0.1489,-0.0539 0.1489,-0.0541 0.1489,-0.0543 0.1489,-0.0545 0.1488,-0.0547 0.1489,-0.0549 0.1489,-0.0551 0.1489,-0.0553 0.1489,-0.0555 0.1489,-0.0557 0.1489,-0.0559 0.1489,-0.0561 0.1489,-0.0563 0.1488,-0.0566 0.1489,-0.0567 0.1489,-0.0569 0.1489,-0.0571 0.1489,-0.0574 0.1489,-0.0575 0.1489,-0.0578 0.1489,-0.058 0.1489,-0.0581 0.1488,-0.0584 0.1489,-0.0586 0.1489,-0.0589 0.1489,-0.059 0.1489,-0.0592 0.1489,-0.0595 0.1489,-0.0597 0.1489,-0.0599 0.1489,-0.0601 0.1488,-0.0603 0.1489,-0.0606 0.1489,-0.0608 0.1489,-0.0609 0.1489,-0.0613 0.1489,-0.0614 0.1489,-0.0617 0.1489,-0.0618 0.1489,-0.0621 0.1488,-0.0624 0.1489,-0.0625 0.1489,-0.0628 0.1489,-0.063 0.1489,-0.0633 0.1489,-0.0635 0.1489,-0.0637 0.1489,-0.0639 0.1489,-0.0642 0.1488,-0.0644 0.1489,-0.0646 0.1489,-0.0649 0.1489,-0.0651 0.1489,-0.0653 0.1489,-0.0656 0.1489,-0.0659 0.1489,-0.066 0.1489,-0.0663 0.1488,-0.0666 0.1489,-0.0667 0.1489,-0.0671 0.1489,-0.0672 0.1489,-0.0675 0.1489,-0.0678 0.1489,-0.068 0.1489,-0.0683 0.1489,-0.0685 0.1488,-0.0687 0.1489,-0.069 0.1489,-0.0693 0.1489,-0.0695 0.1489,-0.0697 0.1489,-0.07 0.1489,-0.0703 0.1489,-0.0705 0.1489,-0.0708 0.1488,-0.071 0.1489,-0.0713 0.1489,-0.0716 0.1489,-0.0718 0.1489,-0.072 0.1489,-0.0724 0.1489,-0.0726 0.1489,-0.0728 0.1489,-0.0732 0.1488,-0.0733 0.1489,-0.0737 0.1489,-0.0739 0.1489,-0.0742 0.1489,-0.0745 0.1489,-0.0747 0.1489,-0.075 0.1489,-0.0753 0.1489,-0.0756 0.1488,-0.0758 0.1489,-0.0761 0.1489,-0.0764 0.1489,-0.0766 0.1489,-0.077 0.1489,-0.0772 0.1489,-0.0775 0.1489,-0.0777 0.1489,-0.0781 0.1488,-0.0783 0.1489,-0.0787 0.1489,-0.0789 0.1489,-0.0792 0.1489,-0.0795 0.1489,-0.0798 0.1489,-0.08 0.1489,-0.0804 0.1489,-0.0806 0.1488,-0.081 0.1489,-0.0812 0.1489,-0.0815 0.1489,-0.0819 0.1489,-0.0821 0.1489,-0.0824 0.1489,-0.0828 0.1489,-0.083 0.1489,-0.0833 0.1488,-0.0836 0.1489,-0.084 0.1489,-0.0842 0.1489,-0.0846 0.1489,-0.0848 0.1489,-0.0852 0.1489,-0.0854 0.1489,-0.0858 0.1489,-0.0861 0.1488,-0.0864 0.1489,-0.0868 0.1489,-0.087 0.1489,-0.0873 0.1489,-0.0877 0.1489,-0.088 0.1489,-0.0883 0.1489,-0.0886 0.1489,-0.089 0.1488,-0.0893 0.1489,-0.0896 0.1489,-0.0899 0.1489,-0.0902 0.1489,-0.0906 0.1489,-0.0909 0.1489,-0.0913 0.1489,-0.0915 0.1489,-0.0919 0.1488,-0.0923 0.1489,-0.0926 0.1489,-0.0929 0.1489,-0.0932 0.1489,-0.0936 0.1489,-0.0939 0.1489,-0.0943 0.1489,-0.0946 0.1489,-0.095 0.1488,-0.0953 0.1489,-0.0956 0.1489,-0.096 0.1489,-0.0964 0.1489,-0.0966 0.1489,-0.0971 0.1489,-0.0974 0.1489,-0.0977 0.1489,-0.0982 0.1488,-0.0984 0.1489,-0.0988 0.1489,-0.0992 0.1489,-0.0996 0.1489,-0.0999 0.1489,-0.1002 0.1489,-0.1007 0.1489,-0.101 0.1489,-0.1013 0.1488,-0.1018 0.1489,-0.1021 0.1489,-0.1024 0.1489,-0.1029 0.1489,-0.1032 0.1489,-0.1036 0.1489,-0.104 0.1489,-0.1043 0.1489,-0.1047 0.1488,-0.1051 0.1489,-0.1055 0.1489,-0.1059 0.1489,-0.1063 0.1489,-0.1066 0.1489,-0.1071 0.1489,-0.1074 0.1489,-0.1078 0.1489,-0.1082 0.1488,-0.1086 0.1489,-0.109 0.1489,-0.1094 0.1489,-0.1098 0.1489,-0.1101 0.1489,-0.1106 0.1489,-0.111 0.1489,-0.1114 0.1489,-0.1118 0.1488,-0.1122 0.1489,-0.1126 0.1489,-0.113 0.1489,-0.1135 0.1489,-0.1138 0.1489,-0.1143 0.1489,-0.1146 0.1489,-0.1151 0.1489,-0.1155 0.1488,-0.116 0.1489,-0.1163 0.1489,-0.1168 0.1489,-0.1172 0.1489,-0.1176 0.1489,-0.1181 0.1489,-0.1184 0.1489,-0.119 0.1489,-0.1193 0.1488,-0.1198 0.1489,-0.1202 0.1489,-0.1206 0.1489,-0.1211 0.1489,-0.1215 0.1489,-0.122 0.1489,-0.1224 0.1489,-0.1229 0.1489,-0.1233 0.1488,-0.1237 0.1489,-0.1242 0.1489,-0.1247 0.1489,-0.1251 0.1489,-0.1256 0.1489,-0.126 0.1489,-0.1265 0.1489,-0.1269 0.1489,-0.1274 0.1488,-0.1278 0.1489,-0.1284 0.1489,-0.1288 0.1489,-0.1292 0.1489,-0.1297 0.1489,-0.1302 0.1489,-0.1307 0.1489,-0.1312 0.1489,-0.1316 0.1488,-0.1321 0.1489,-0.1326 0.1489,-0.133 0.1489,-0.1336 0.1489,-0.134 0.1489,-0.1346 0.1489,-0.135 0.1489,-0.1355 0.1489,-0.136 0.1488,-0.1365 0.1489,-0.1369 0.1489,-0.1375 0.1489,-0.138 0.1489,-0.1385 0.1489,-0.139 0.1489,-0.1395 0.1489,-0.14 0.1489,-0.1405 0.1488,-0.141 0.1489,-0.1415 0.1489,-0.1421 0.1489,-0.1425 0.1489,-0.1431 0.1489,-0.1436 0.1489,-0.1441 0.1489,-0.1447 0.1489,-0.1452 0.1488,-0.1457 0.1489,-0.1462 0.1489,-0.1468 0.1489,-0.1473 0.1489,-0.1478 0.1489,-0.1484 0.1489,-0.1489 0.1489,-0.1494 0.1489,-0.15 0.1488,-0.1505 0.1489,-0.1511 0.1489,-0.1517 0.1489,-0.1521 0.1489,-0.1528 0.1489,-0.1533 0.1489,-0.1538 0.1489,-0.1544 0.1489,-0.155 0.1488,-0.1555 0.1489,-0.1561 0.1489,-0.1567 0.1489,-0.1572 0.1489,-0.1578 0.1489,-0.1584 0.1489,-0.159 0.1489,-0.1595 0.1489,-0.1601 0.1488,-0.1607 0.1489,-0.1613 0.1489,-0.1619 0.1489,-0.1624 0.1489,-0.1631 0.1489,-0.1636 0.1489,-0.1643 0.1489,-0.1648 0.1489,-0.1654 0.1488,-0.166 0.1489,-0.1667 0.1489,-0.1672 0.1489,-0.1679 0.1489,-0.1684 0.1489,-0.1691 0.1489,-0.1697 0.1489,-0.1703 0.1489,-0.1709 0.1488,-0.1716 0.1489,-0.1721 0.1489,-0.1728 0.1489,-0.1734 0.1489,-0.1741 0.1489,-0.1747 0.1489,-0.1753 0.1489,-0.1759 0.1489,-0.1766 0.1488,-0.1773 0.1489,-0.1778 0.1489,-0.1786 0.1489,-0.1792 0.1489,-0.1798 0.1489,-0.1805 0.1489,-0.1811 0.1489,-0.1818 0.1489,-0.1825 0.1488,-0.1831 0.1489,-0.1838 0.1489,-0.1844 0.1489,-0.1851 0.1489,-0.1858 0.1489,-0.1865 0.1489,-0.1872 0.1489,-0.1878 0.1489,-0.1885 0.1488,-0.1892 0.1489,-0.1899 0.1489,-0.1906 0.1489,-0.1912 0.1489,-0.192 0.1489,-0.1927 0.1489,-0.1933 0.1489,-0.1941 0.1489,-0.1948 0.1488,-0.1954 0.1489,-0.1962 0.1489,-0.1969 0.1489,-0.1976 0.1489,-0.1984 0.1489,-0.199 0.1489,-0.1998 0.1489,-0.2005 0.1489,-0.2013 0.1488,-0.2019 0.1489,-0.2027 0.1489,-0.2035 0.1489,-0.2042 0.1489,-0.2049 0.1489,-0.2056 0.1489,-0.2065 0.1489,-0.2071 0.1489,-0.2079 0.1488,-0.2087 0.1489,-0.2094 0.1489,-0.2102 0.1489,-0.211 0.1489,-0.2117 0.1489,-0.2125 0.1489,-0.2133 0.1489,-0.214 0.1489,-0.2148 0.1488,-0.2156 0.1489,-0.2164 0.1489,-0.2172 0.1489,-0.2179 0.1489,-0.2188 0.1489,-0.2195 0.1489,-0.2204 0.1489,-0.2211 0.1489,-0.222 0.1488,-0.2227 0.1489,-0.2236 0.1489,-0.2244 0.1489,-0.2252 0.1489,-0.226 0.1489,-0.2268 0.1489,-0.2277 0.1489,-0.2284 0.1489,-0.2294 0.1488,-0.2301 0.1489,-0.231 0.1489,-0.2318 0.1489,-0.2327 0.1489,-0.2335 0.1489,-0.2344 0.1489,-0.2352 0.1489,-0.2361 0.1489,-0.2369 0.1488,-0.2378 0.1489,-0.2386 0.1489,-0.2395 0.1489,-0.2404 0.1489,-0.2413 0.1489,-0.2421 0.1489,-0.2431 0.1489,-0.2439 0.1489,-0.2448 0.1488,-0.2457 0.1489,-0.2465 0.1489,-0.2475 0.1489,-0.2484 0.1489,-0.2492 0.1489,-0.2502 0.1489,-0.2511 0.1489,-0.252 0.1489,-0.2529 0.1488,-0.2539 0.1489,-0.2547 0.1489,-0.2557 0.1489,-0.2566 0.1489,-0.2576 0.1489,-0.2585 0.1489,-0.2594 0.1489,-0.2604 0.1489,-0.2613 0.1488,-0.2622 0.1489,-0.2633 0.1489,-0.2641 0.1489,-0.2652 0.1489,-0.2661 0.1489,-0.267 0.1489,-0.2681 0.1489,-0.269 0.1489,-0.27 0.1488,-0.2709 0.1489,-0.272 0.1489,-0.2729 0.1489,-0.274 0.1489,-0.2749 0.1489,-0.2759 0.1489,-0.277 0.1489,-0.2779 0.1489,-0.279 0.1488,-0.2799 0.1489,-0.281 0.1489,-0.282 0.1489,-0.283 0.1489,-0.2841 0.1489,-0.2851 0.1489,-0.2861 0.1489,-0.2872 0.1489,-0.2882 0.1488,-0.2892 0.1489,-0.2904 0.1489,-0.2913 0.1489,-0.2924 0.1489,-0.2935 0.1489,-0.2946 0.1489,-0.2956 0.1489,-0.2967 0.1489,-0.2978 0.1488,-0.2988 0.1489,-0.3 0.1489,-0.301 0.1489,-0.3022 0.1489,-0.3032 0.1489,-0.3043 0.1489,-0.3054 0.1489,-0.3066 0.1489,-0.3077 0.1488,-0.3087 0.1489,-0.3099 0.1489,-0.3111 0.1489,-0.3121 0.1489,-0.3133 0.1489,-0.3145 0.1489,-0.3155 0.1489,-0.3168 0.1489,-0.3178 0.1488,-0.3191 0.1489,-0.3201 0.1489,-0.3214 0.1489,-0.3225 0.1489,-0.3237 0.1489,-0.3249 0.1489,-0.326 0.1489,-0.3273 0.1489,-0.3284 0.1488,-0.3296 0.1489,-0.3308 0.1489,-0.3321 0.1489,-0.3332 0.1489,-0.3344 0.1489,-0.3357 0.1489,-0.3369 0.1489,-0.338 0.1489,-0.3394 0.1488,-0.3405 0.1489,-0.3418 0.1489,-0.3431 0.1489,-0.3443 0.1489,-0.3455 0.1489,-0.3468 0.1489,-0.3481 0.1489,-0.3493 0.1489,-0.3506 0.1488,-0.3518 0.1489,-0.3532 0.1489,-0.3544 0.1489,-0.3557 0.1489,-0.357 0.1489,-0.3583 0.1489,-0.3597 0.1489,-0.3609 0.1489,-0.3622 0.1488,-0.3636 0.1489,-0.3648 0.1489,-0.3662 0.1489,-0.3675 0.1489,-0.3689 0.1489,-0.3702 0.1489,-0.3715 0.1489,-0.3729 0.1489,-0.3743 0.1488,-0.3756 0.1489,-0.377 0.1489,-0.3783 0.1489,-0.3798 0.1489,-0.3811 0.1489,-0.3825 0.1489,-0.3838 0.1489,-0.3853 0.1489,-0.3867 0.1488,-0.3881 0.1489,-0.3895 0.1489,-0.3909 0.1489,-0.3923 0.1489,-0.3938 0.1489,-0.3951 0.1489,-0.3967 0.1489,-0.398001 0.1489,-0.3995 0.1488,-0.401 0.1489,-0.4024 0.1489,-0.4039 0.1489,-0.4054 0.1489,-0.4068 0.1489,-0.4083 0.1489,-0.4098 0.1489,-0.4113 0.1489,-0.4127 0.1488,-0.4143 0.1489,-0.4158 0.1489,-0.4173 0.1489,-0.4188 0.1489,-0.4203 0.1489,-0.4219 0.1489,-0.4234 0.1489,-0.4249 0.1489,-0.4265 0.1488,-0.428 0.1489,-0.4296 0.1489,-0.4311 0.1489,-0.4327 0.1489,-0.4343 0.1489,-0.4359 0.1489,-0.4374 0.1489,-0.4391 0.1489,-0.4406 0.1488,-0.4422 0.1489,-0.4439 0.1489,-0.4454 0.1489,-0.4471 0.1489,-0.4487 0.1489,-0.4503 0.1489,-0.452 0.1489,-0.4536 0.1489,-0.4553 0.1488,-0.4569 0.1489,-0.4586 0.1489,-0.4602 0.1489,-0.4619 0.1489,-0.4636 0.1489,-0.4653 0.1489,-0.4669 0.1489,-0.4687 0.1489,-0.4704 0.1488,-0.4721 0.1489,-0.4738 0.1489,-0.4755 0.1489,-0.4772 0.1489,-0.479 0.1489,-0.4807 0.1489,-0.4825 0.1489,-0.4842 0.1489,-0.486 0.1488,-0.4878 0.1489,-0.4895 0.1489,-0.4913 0.1489,-0.4931 0.1489,-0.4949"
     id="path28"
     inkscape:connector-curvature="0" /><path
     style="fill:none;stroke:#d40000;stroke-width:2.67761072;stroke-linecap:butt;stroke-linejoin:miter;stroke-dasharray:none;stroke-opacity:1;stroke-miterlimit:4;stroke-dashoffset:0"
     d="m 170.72227,72.796609 0.2978,-0.9818 0.2978,-0.9662 0.2977,-0.9505 0.2978,-0.9347 0.2978,-0.9189 0.2978,-0.9028 0.2977,-0.8868 0.2978,-0.8706 0.2978,-0.8542 0.2978,-0.8379 0.2978,-0.8214 0.2977,-0.8049 0.2978,-0.7881 0.2978,-0.7714 0.2978,-0.7546 0.2977,-0.7376 0.2978,-0.7206 0.2978,-0.7035 0.2978,-0.6864 0.2978,-0.6691 0.2977,-0.6518 0.2978,-0.6343 0.2978,-0.6169 0.2978,-0.5994 0.2977,-0.5818 0.2978,-0.564 0.2978,-0.5464 0.2978,-0.5285 0.2978,-0.5107 0.2977,-0.4928 0.2978,-0.4747 0.2978,-0.4568 0.2978,-0.4387 0.2977,-0.4205 0.2978,-0.4024 0.2978,-0.3842 0.2978,-0.3659 0.2978,-0.3476 0.2977,-0.3292 0.2978,-0.3109 0.2978,-0.2924 0.2978,-0.274 0.2977,-0.2555 0.2978,-0.237 0.2978,-0.2185 0.2978,-0.1999 0.2978,-0.1813 0.2977,-0.1627 0.2978,-0.1441 0.2978,-0.1254 0.2978,-0.1068 0.2977,-0.0881 0.2978,-0.0695 0.2978,-0.0508 0.2978,-0.032 0.2978,-0.0134 0.2977,0.005 0.2978,0.024 0.2978,0.0427 0.2978,0.0614 0.2977,0.08 0.2978,0.0988 0.2978,0.1174 0.2978,0.136 0.2978,0.1547 0.2977,0.1733 0.2978,0.1918 0.2978,0.2105 0.2978,0.229 0.2977,0.2475 0.2978,0.266 0.2978,0.2845 0.2978,0.3029 0.2978,0.3213 0.2977,0.3397 0.2978,0.3579 0.2978,0.3763 0.2978,0.3945 0.2977,0.4127 0.2978,0.4309 0.2978,0.449 0.2978,0.467 0.2978,0.485 0.2977,0.5029 0.2978,0.5209 0.2978,0.5386 0.2978,0.5564 0.2977,0.5742 0.2978,0.5917 0.2978,0.6094 0.2978,0.6268 0.2978,0.6443 0.2977,0.6616 0.2978,0.6789 0.2978,0.6961 0.2978,0.7133 0.2977,0.7303 0.2978,0.7472 0.2978,0.7642 0.2978,0.7809 0.2978,0.7976 0.2977,0.8143 0.2978,0.8308 0.2978,0.8472 0.2978,0.8635 0.2977,0.8798 0.2978,0.8959 0.2978,0.9119 0.2978,0.9279 0.2978,0.9437 0.2977,0.9595 0.2978,0.975 0.2978,0.9906 0.2978,1.0059 0.2977,1.0212 0.2978,1.0364 0.2978,1.0514 0.2978,1.0664 0.2978,1.0811 0.2977,1.0959 0.2978,1.1104 0.2978,1.1248 0.2978,1.1391 0.2977,1.1533 0.2978,1.1674 0.2978,1.1813 0.2978,1.195 0.2978,1.2087 0.2977,1.2223 0.2978,1.2356 0.2978,1.2488 0.2978,1.2619 0.2977,1.2749 0.2978,1.2876 0.2978,1.3003 0.2978,1.312901 0.2978,1.3252 0.2977,1.3374 0.2978,1.3495 0.2978,1.3614 0.2978,1.3731 0.2977,1.3848 0.2978,1.3962 0.2978,1.4075 0.2978,1.4186 0.2978,1.4295 0.2977,1.4404 0.2978,1.4511 0.2978,1.4615 0.2978,1.4718 0.2977,1.482 0.2978,1.4919 0.2978,1.5018 0.2978,1.5114 0.2978,1.5209 0.2977,1.5301 0.2978,1.5393 0.2978,1.5483 0.2978,1.557 0.2977,1.5657 0.2978,1.574 0.2978,1.5823 0.2978,1.5904 0.2978,1.5983 0.2977,1.606 0.2978,1.6135 0.2978,1.6208 0.2978,1.628 0.2977,1.635 0.2978,1.6418 0.2978,1.6483 0.2978,1.6548 0.2978,1.6611 0.2977,1.6671 0.2978,1.6729 0.2978,1.6786 0.2978,1.6841 0.2977,1.6894 0.2978,1.6944 0.2978,1.6994 0.2978,1.7041 0.2978,1.7086 0.2977,1.7129 0.2978,1.7171 0.2978,1.721 0.2978,1.7248 0.2977,1.7283 0.2978,1.7317 0.2978,1.7348 0.2978,1.7378 0.2978,1.7405 0.2977,1.7432 0.2978,1.7455 0.2978,1.7477 0.2978,1.7496 0.2977,1.7515 0.2978,1.753 0.2978,1.7544 0.2978,1.7556 0.2978,1.7566 0.2977,1.7573 0.2978,1.758 0.2978,1.7584 0.2978,1.7585 0.2977,1.7586 0.2978,1.7583 0.2978,1.758 0.2978,1.7573 0.2978,1.7565 0.2977,1.7556 0.2978,1.7543 0.2978,1.753 0.2978,1.7514 0.2977,1.7495 0.2978,1.7476 0.2978,1.7454 0.2978,1.743 0.2978,1.7405 0.2977,1.7376 0.2978,1.7347 0.2978,1.7315 0.2978,1.7282 0.2977,1.7246 0.2978,1.7208 0.2978,1.7169 0.2978,1.7128 0.2978,1.7084 0.2977,1.7038 0.2978,1.6992 0.2978,1.6942 0.2978,1.6892 0.2977,1.6838 0.2978,1.6784 0.2978,1.6726 0.2978,1.6669 0.2978,1.6607 0.2977,1.6545 0.2978,1.6481 0.2978,1.6415 0.2978,1.6347 0.2977,1.6276 0.2978,1.6206 0.2978,1.6131 0.2978,1.6056 0.2978,1.598 0.2977,1.59 0.2978,1.5819 0.2978,1.5737 0.2978,1.5652 0.2977,1.5567 0.2978,1.5478 0.2978,1.5389 0.2978,1.5298 0.2978,1.5204 0.2977,1.511 0.2978,1.5013 0.2978,1.4915 0.2978,1.4816 0.2977,1.4713 0.2978,1.461 0.2978,1.4506 0.2978,1.4399 0.2978,1.4291 0.2977,1.4181 0.2978,1.407 0.2978,1.3956 0.2978,1.3843 0.2977,1.3726 0.2978,1.3608 0.2978,1.349 0.2978,1.3368 0.2978,1.3247 0.2977,1.3123 0.2978,1.2997 0.2978,1.2871 0.2978,1.2743 0.2977,1.2613 0.2978,1.2482 0.2978,1.235 0.2978,1.2216 0.2978,1.2081 0.2977,1.1944 0.2978,1.1807 0.2978,1.1667 0.2978,1.1527 0.2977,1.1385 0.2978,1.1242 0.2978,1.1097 0.2978,1.0952 0.2978,1.0805 0.2977,1.0656 0.2978,1.0508 0.2978,1.0357 0.2978,1.0205 0.2977,1.0052 0.2978,0.9899 0.2978,0.9743 0.2978,0.9587 0.2978,0.943 0.2977,0.9272 0.2978,0.9112 0.2978,0.8952 0.2978,0.879 0.2977,0.8629 0.2978,0.8464 0.2978,0.83 0.2978,0.8135 0.2978,0.7969 0.2977,0.7802 0.2978,0.7634 0.2978,0.7465 0.2978,0.7295 0.2977,0.7124 0.2978,0.6954 0.2978,0.6781 0.2978,0.6609 0.2978,0.6434 0.2977,0.6261 0.2978,0.6085 0.2978,0.591 0.2978,0.5733 0.2977,0.5556 0.2978,0.5379 0.2978,0.52 0.2978,0.5021 0.2978,0.4842 0.2977,0.4662 0.2978,0.4481 0.2978,0.4301 0.2978,0.4119 0.2977,0.3937 0.2978,0.3754 0.2978,0.3572 0.2978,0.3388 0.2978,0.3205 0.2977,0.302 0.2978,0.2837 0.2978,0.2652 0.2978,0.2466 0.2977,0.2282 0.2978,0.2096 0.2978,0.191 0.2978,0.1725 0.2978,0.1538 0.2977,0.1352 0.2978,0.1165 0.2978,0.0979 0.2978,0.0792 0.2977,0.0605 0.2978,0.0419 0.2978,0.0231 0.2978,0.005 0.2978,-0.0142 0.2977,-0.0329 0.2978,-0.0517 0.2978,-0.0703 0.2978,-0.0889 0.2977,-0.1077 0.2978,-0.1263 0.2978,-0.1449 0.2978,-0.1636 0.2978,-0.1821 0.2977,-0.2008 0.2978,-0.2193 0.2978,-0.2378 0.2978,-0.2563 0.2977,-0.2749 0.2978,-0.2933 0.2978,-0.3117 0.2978,-0.33 0.2978,-0.3484 0.2977,-0.3668 0.2978,-0.385 0.2978,-0.4032 0.2978,-0.4213 0.2977,-0.4395 0.2978,-0.4576 0.2978,-0.4756 0.2978,-0.4936 0.2978,-0.5115 0.2977,-0.5293 0.2978,-0.5472 0.2978,-0.5649 0.2978,-0.5825 0.2977,-0.6002 0.2978,-0.6177 0.2978,-0.6351 0.2978,-0.6526 0.2978,-0.6699 0.2977,-0.6871 0.2978,-0.7043 0.2978,-0.7214 0.2978,-0.7384 0.2977,-0.7553 0.2978,-0.7722 0.2978,-0.7889 0.2978,-0.8056 0.2978,-0.8222 0.2977,-0.8386 0.2978,-0.855 0.2978,-0.8713 0.2978,-0.8875 0.2977,-0.9036 0.2978,-0.9195 0.2978,-0.9355 0.2978,-0.9512 0.2978,-0.9669 0.2977,-0.9825 0.2978,-0.9979 0.2978,-1.0132 0.2978,-1.0285 0.2977,-1.0436 0.2978,-1.0585 0.2978,-1.0735 0.2978,-1.0882 0.2978,-1.1028 0.2977,-1.1173 0.2978,-1.1316 0.2978,-1.1459 0.2978,-1.1601 0.2977,-1.174 0.2978,-1.1879 0.2978,-1.2016 0.2978,-1.2151 0.2978,-1.2287 0.2977,-1.2419 0.2978,-1.2551 0.2978,-1.2681 0.2978,-1.281 0.2977,-1.2937 0.2978,-1.3063 0.2978,-1.3188 0.2978,-1.331 0.2978,-1.3432 0.2977,-1.3552 0.2978,-1.367 0.2978,-1.3787 0.2978,-1.3903 0.2977,-1.4016 0.2978,-1.4128 0.2978,-1.4238 0.2978,-1.4348 0.2978,-1.4455 0.2977,-1.456 0.2978,-1.4665 0.2978,-1.4767 0.2978,-1.4867 0.2977,-1.4967 0.2978,-1.5064 0.2978,-1.5159 0.2978,-1.5254 0.2978,-1.5345 0.2977,-1.5436 0.2978,-1.5525 0.2978,-1.5612 0.2978,-1.5696 0.2977,-1.5781 0.2978,-1.5861 0.2978,-1.5942 0.2978,-1.602 0.2978,-1.6096 0.2977,-1.617 0.2978,-1.6243 0.2978,-1.6313 0.2978,-1.6383 0.2977,-1.6449 0.2978,-1.6515 0.2978,-1.6578 0.2978,-1.6639 0.2978,-1.6699 0.2977,-1.6757 0.2978,-1.6813 0.2978,-1.6866 0.2978,-1.6918 0.2977,-1.6968 0.2978,-1.7017 0.2978,-1.7063 0.2978,-1.7107 0.2978,-1.7149 0.2977,-1.719 0.2978,-1.7228 0.2978,-1.7265 0.2978,-1.7299 0.2977,-1.7332 0.2978,-1.7363 0.2978,-1.7391 0.2978,-1.7418 0.2978,-1.7443 0.2977,-1.7466 0.2978,-1.7486 0.2978,-1.7506 0.2978,-1.7522 0.2977,-1.7537 0.2978,-1.755 0.2978,-1.7561 0.2978,-1.757 0.2978,-1.7577 0.2977,-1.7581 0.2978,-1.7585 0.2978,-1.7586 0.2978,-1.7585 0.2977,-1.7581 0.2978,-1.7577 0.2978,-1.757 0.2978,-1.7561 0.2978,-1.755 0.2977,-1.7537 0.2978,-1.7522 0.2978,-1.7506 0.2978,-1.7486 0.2977,-1.7466 0.2978,-1.7443 0.2978,-1.7418 0.2978,-1.7391 0.2978,-1.7363 0.2977,-1.7332 0.2978,-1.7299 0.2978,-1.7265 0.2978,-1.7228 0.2977,-1.719 0.2978,-1.7149 0.2978,-1.7107 0.2978,-1.7063 0.2978,-1.7017 0.2977,-1.6968 0.2978,-1.6918 0.2978,-1.6866 0.2978,-1.6813 0.2977,-1.6757 0.2978,-1.6699 0.2978,-1.6639 0.2978,-1.6578 0.2978,-1.6515 0.2977,-1.6449 0.2978,-1.6383 0.2978,-1.6313 0.2978,-1.6243 0.2977,-1.617 0.2978,-1.6096 0.2978,-1.602 0.2978,-1.5942 0.2978,-1.5861 0.2977,-1.5781 0.2978,-1.5696 0.2978,-1.5612 0.2978,-1.5525 0.2977,-1.5436 0.2978,-1.5345 0.2978,-1.5254 0.2978,-1.5159 0.2978,-1.5064 0.2977,-1.4967 0.2978,-1.4867 0.2978,-1.4767 0.2978,-1.4665 0.2977,-1.456 0.2978,-1.4455 0.2978,-1.4348 0.2978,-1.4238 0.2978,-1.4128 0.2977,-1.4016 0.2978,-1.3903 0.2978,-1.3787 0.2978,-1.367 0.2977,-1.3552 0.2978,-1.3432 0.2978,-1.331 0.2978,-1.318801 0.2978,-1.3063 0.2977,-1.2937 0.2978,-1.281 0.2978,-1.2681 0.2978,-1.2551 0.2977,-1.2419 0.2978,-1.2287 0.2978,-1.2151 0.2978,-1.2016 0.2978,-1.1879 0.2977,-1.174 0.2978,-1.1601 0.2978,-1.1459 0.2978,-1.1316 0.2977,-1.1173 0.2978,-1.1028 0.2978,-1.0882 0.2978,-1.0735 0.2978,-1.0585 0.2977,-1.0436 0.2978,-1.0285 0.2978,-1.0132 0.2978,-0.9979 0.2977,-0.9825 0.2978,-0.9669 0.2978,-0.9512 0.2978,-0.9355 0.2978,-0.9195 0.2977,-0.9036 0.2978,-0.8875 0.2978,-0.8713 0.2978,-0.855 0.2977,-0.8386 0.2978,-0.8222 0.2978,-0.8056 0.2978,-0.7889 0.2978,-0.7722 0.2977,-0.7553 0.2978,-0.7384 0.2978,-0.7214 0.2978,-0.7043 0.2977,-0.6871 0.2978,-0.6699 0.2978,-0.6526 0.2978,-0.6351 0.2978,-0.6177 0.2977,-0.6002 0.2978,-0.5825 0.2978,-0.5649 0.2978,-0.5472 0.2977,-0.5293 0.2978,-0.5115 0.2978,-0.4936 0.2978,-0.4756 0.2978,-0.4576 0.2977,-0.4395 0.2978,-0.4213 0.2978,-0.4032 0.2978,-0.385 0.2977,-0.3668 0.2978,-0.3484 0.2978,-0.33 0.2978,-0.3117 0.2978,-0.2933 0.2977,-0.2749 0.2978,-0.2563 0.2978,-0.2378 0.2978,-0.2193 0.2977,-0.2008 0.2978,-0.1821 0.2978,-0.1636 0.2978,-0.1449 0.2978,-0.1263 0.2977,-0.1077 0.2978,-0.0889 0.2978,-0.0703 0.2978,-0.0517 0.2977,-0.0329 0.2978,-0.0142 0.2978,0.005 0.2978,0.0231 0.2978,0.0419 0.2977,0.0605 0.2978,0.0792 0.2978,0.0979 0.2978,0.1165 0.2977,0.1352 0.2978,0.1538 0.2978,0.1725 0.2978,0.191 0.2978,0.2096 0.2977,0.2282 0.2978,0.2466 0.2978,0.2652 0.2978,0.2837 0.2977,0.302 0.2978,0.3205 0.2978,0.3388 0.2978,0.3572 0.2978,0.3754 0.2977,0.3937 0.2978,0.4119 0.2978,0.4301 0.2978,0.4481 0.2977,0.4662 0.2978,0.4842 0.2978,0.5021 0.2978,0.52 0.2978,0.5379 0.2977,0.5556 0.2978,0.5733 0.2978,0.591 0.2978,0.6085 0.2977,0.6261 0.2978,0.6434 0.2978,0.6609 0.2978,0.6781 0.2978,0.6954 0.2977,0.7124 0.2978,0.7295 0.2978,0.7465 0.2978,0.7634 0.2977,0.7802 0.2978,0.7969 0.2978,0.8135 0.2978,0.83 0.2978,0.8464 0.2977,0.8629 0.2978,0.879 0.2978,0.8952 0.2978,0.9112 0.2977,0.9272 0.2978,0.943 0.2978,0.9587 0.2978,0.9743 0.2978,0.9899 0.2977,1.0052 0.2978,1.0205 0.2978,1.0357 0.2978,1.0508 0.2977,1.0656 0.2978,1.0805 0.2978,1.0952 0.2978,1.1097 0.2978,1.1242 0.2977,1.1385 0.2978,1.1527 0.2978,1.1667 0.2978,1.1807 0.2977,1.1944 0.2978,1.2081 0.2978,1.2216 0.2978,1.235 0.2978,1.2482 0.2977,1.2613 0.2978,1.2743 0.2978,1.2871 0.2978,1.2997 0.2977,1.312301 0.2978,1.3247 0.2978,1.3368 0.2978,1.349 0.2978,1.3608 0.2977,1.3726 0.2978,1.3843 0.2978,1.3956 0.2978,1.407 0.2977,1.4181 0.2978,1.4291 0.2978,1.4399 0.2978,1.4506 0.2978,1.461 0.2977,1.4713 0.2978,1.4816 0.2978,1.4915 0.2978,1.5013 0.2977,1.511 0.2978,1.5204 0.2978,1.5298 0.2978,1.5389 0.2978,1.5478 0.2977,1.5567 0.2978,1.5652 0.2978,1.5737 0.2978,1.5819 0.2977,1.59 0.2978,1.598 0.2978,1.6056 0.2978,1.6131 0.2978,1.6206 0.2977,1.6276 0.2978,1.6347 0.2978,1.6415 0.2978,1.6481 0.2977,1.6545 0.2978,1.6607 0.2978,1.6669 0.2978,1.6726 0.2978,1.6784 0.2977,1.6838 0.2978,1.6892 0.2978,1.6942 0.2978,1.6992 0.2977,1.7038 0.2978,1.7084 0.2978,1.7128 0.2978,1.7169 0.2978,1.7208 0.2977,1.7246 0.2978,1.7282 0.2978,1.7315 0.2978,1.7347 0.2977,1.7376 0.2978,1.7405 0.2978,1.743 0.2978,1.7454 0.2978,1.7476 0.2977,1.7495 0.2978,1.7514 0.2978,1.753 0.2978,1.7543 0.2977,1.7556 0.2978,1.7565 0.2978,1.7573 0.2978,1.758 0.2978,1.7583 0.2977,1.7586 0.2978,1.7585 0.2978,1.7584 0.2978,1.758 0.2977,1.7573 0.2978,1.7566 0.2978,1.7556 0.2978,1.7544 0.2978,1.753 0.2977,1.7515 0.2978,1.7496 0.2978,1.7477 0.2978,1.7455 0.2977,1.7432 0.2978,1.7405 0.2978,1.7378 0.2978,1.7348 0.2978,1.7317 0.2977,1.7283 0.2978,1.7248 0.2978,1.721 0.2978,1.7171 0.2977,1.7129 0.2978,1.7086 0.2978,1.7041 0.2978,1.6994 0.2978,1.6944 0.2977,1.6894 0.2978,1.6841 0.2978,1.6786 0.2978,1.6729 0.2977,1.6671 0.2978,1.6611 0.2978,1.6548 0.2978,1.6483 0.2978,1.6418 0.2977,1.635 0.2978,1.628 0.2978,1.6208 0.2978,1.6135 0.2977,1.606 0.2978,1.5983 0.2978,1.5904 0.2978,1.5823 0.2978,1.574 0.2977,1.5657 0.2978,1.557 0.2978,1.5483 0.2978,1.5393 0.2977,1.5301 0.2978,1.5209 0.2978,1.5114 0.2978,1.5018 0.2978,1.4919 0.2977,1.482 0.2978,1.4718 0.2978,1.4615 0.2978,1.4511 0.2977,1.4404 0.2978,1.4295 0.2978,1.4186 0.2978,1.4075 0.2978,1.3962 0.2977,1.3848 0.2978,1.3731 0.2978,1.3614 0.2978,1.3495 0.2977,1.3374 0.2978,1.3252 0.2978,1.3129 0.2978,1.3003 0.2978,1.2876 0.2977,1.2749 0.2978,1.2619 0.2978,1.2488 0.2978,1.2356 0.2977,1.2223 0.2978,1.2087 0.2978,1.195 0.2978,1.1813 0.2978,1.1674 0.2977,1.1533 0.2978,1.1391 0.2978,1.1248 0.2978,1.1104 0.2977,1.0959 0.2978,1.0811 0.2978,1.0664 0.2978,1.0514 0.2978,1.0364 0.2977,1.0212 0.2978,1.0059 0.2978,0.9906 0.2978,0.975 0.2977,0.9595 0.2978,0.9437 0.2978,0.9279 0.2978,0.9119 0.2978,0.8959 0.2977,0.8798 0.2978,0.8635 0.2978,0.8472 0.2978,0.8308 0.2977,0.8143 0.2978,0.7976 0.2978,0.7809 0.2978,0.7642 0.2978,0.7472 0.2977,0.7303 0.2978,0.7133 0.2978,0.6961 0.2978,0.6789 0.2977,0.6616 0.2978,0.6443 0.2978,0.6268 0.2978,0.6094 0.2978,0.5917 0.2977,0.5742 0.2978,0.5564 0.2978,0.5386 0.2978,0.5209 0.2977,0.5029 0.2978,0.485 0.2978,0.467 0.2978,0.449 0.2978,0.4309 0.2977,0.4127 0.2978,0.3945 0.2978,0.3763 0.2978,0.3579 0.2977,0.3397 0.2978,0.3213 0.2978,0.3029 0.2978,0.2845 0.2978,0.266 0.2977,0.2475 0.2978,0.229 0.2978,0.2105 0.2978,0.1918 0.2977,0.1733 0.2978,0.1547 0.2978,0.136 0.2978,0.1174 0.2978,0.0988 0.2977,0.08 0.2978,0.0614 0.2978,0.0427 0.2978,0.024 0.2977,0.005 0.2978,-0.0134 0.2978,-0.032 0.2978,-0.0508 0.2978,-0.0695 0.2977,-0.0881 0.2978,-0.1068 0.2978,-0.1254 0.2978,-0.1441 0.2977,-0.1627 0.2978,-0.1813 0.2978,-0.1999 0.2978,-0.2185 0.2978,-0.237 0.2977,-0.2555 0.2978,-0.274 0.2978,-0.2924 0.2978,-0.3109 0.2977,-0.3292 0.2978,-0.3476 0.2978,-0.3659 0.2978,-0.3842 0.2978,-0.4024 0.2977,-0.4205 0.2978,-0.4387 0.2978,-0.4568 0.2978,-0.4747 0.2977,-0.4928 0.2978,-0.5107 0.2978,-0.5285 0.2978,-0.5464 0.2978,-0.564 0.2977,-0.5818 0.2978,-0.5994 0.2978,-0.6169 0.2978,-0.6343 0.2977,-0.6518 0.2978,-0.6691 0.2978,-0.6864 0.2978,-0.7035 0.2978,-0.7206 0.2977,-0.7376 0.2978,-0.7546 0.2978,-0.7714 0.2978,-0.7881 0.2977,-0.8049 0.2978,-0.8214 0.2978,-0.8379 0.2978,-0.8542 0.2978,-0.8706 0.2977,-0.8868 0.2978,-0.9028 0.2978,-0.9189 0.2978,-0.9347 0.2977,-0.9505 0.2978,-0.9662 0.2978,-0.9818"
     id="path18"
     inkscape:connector-curvature="0" /><path
     inkscape:connector-curvature="0"
     id="path14"
     d="m 170.72227,136.82931 0.2978,-0.8473 0.2978,-0.8451 0.2977,-0.843 0.2978,-0.8408 0.2978,-0.8385 0.2978,-0.8363 0.2977,-0.834 0.2978,-0.8317 0.2978,-0.8293 0.2978,-0.827 0.2978,-0.8246 0.2977,-0.8223 0.2978,-0.8197 0.2978,-0.8174 0.2978,-0.8148 0.2977,-0.8124 0.2978,-0.8098 0.2978,-0.8072 0.2978,-0.8047 0.2978,-0.8021 0.2977,-0.7995 0.2978,-0.7969 0.2978,-0.7941 0.2978,-0.7915 0.2977,-0.7888 0.2978,-0.786 0.2978,-0.7833 0.2978,-0.7805 0.2978,-0.7776 0.2977,-0.7749 0.2978,-0.772 0.2978,-0.7691 0.2978,-0.7662 0.2977,-0.7634 0.2978,-0.7603 0.2978,-0.7574 0.2978,-0.7545 0.2978,-0.7514 0.2977,-0.7483 0.2978,-0.7454 0.2978,-0.7422 0.2978,-0.7392 0.2977,-0.736 0.2978,-0.7329 0.2978,-0.7298 0.2978,-0.7265 0.2978,-0.7234 0.2977,-0.7201 0.2978,-0.7169 0.2978,-0.7136 0.2978,-0.7103 0.2977,-0.707 0.2978,-0.7037 0.2978,-0.7004 0.2978,-0.6969 0.2978,-0.6936 0.2977,-0.6902 0.2978,-0.6867 0.2978,-0.6833 0.2978,-0.6798 0.2977,-0.6763 0.2978,-0.6728 0.2978,-0.6693 0.2978,-0.6657 0.2978,-0.6622 0.2977,-0.6585 0.2978,-0.655 0.2978,-0.6513 0.2978,-0.6477 0.2977,-0.644 0.2978,-0.6403 0.2978,-0.6366 0.2978,-0.6329 0.2978,-0.6292 0.2977,-0.6253 0.2978,-0.6217 0.2978,-0.6178 0.2978,-0.614 0.2977,-0.6101 0.2978,-0.6063 0.2978,-0.6025 0.2978,-0.5985 0.2978,-0.5947 0.2977,-0.5907 0.2978,-0.5868 0.2978,-0.5829 0.2978,-0.5788 0.2977,-0.5749 0.2978,-0.5708 0.2978,-0.5669 0.2978,-0.5628 0.2978,-0.5587 0.2977,-0.5547 0.2978,-0.5506 0.2978,-0.5464 0.2978,-0.5424 0.2977,-0.5382 0.2978,-0.5341 0.2978,-0.5298 0.2978,-0.5257 0.2978,-0.5215 0.2977,-0.5173 0.2978,-0.5131 0.2978,-0.5088 0.2978,-0.5045 0.2977,-0.5003 0.2978,-0.496 0.2978,-0.4917 0.2978,-0.4873 0.2978,-0.483 0.2977,-0.4787 0.2978,-0.4743 0.2978,-0.47 0.2978,-0.4655 0.2977,-0.4611 0.2978,-0.4568 0.2978,-0.4523 0.2978,-0.4478 0.2978,-0.4434 0.2977,-0.4389 0.2978,-0.4345 0.2978,-0.4299 0.2978,-0.4254 0.2977,-0.4209 0.2978,-0.4164 0.2978,-0.4119 0.2978,-0.4072 0.2978,-0.4028 0.2977,-0.3981 0.2978,-0.3935 0.2978,-0.3889 0.2978,-0.3844 0.2977,-0.3796 0.2978,-0.3751 0.2978,-0.3704 0.2978,-0.3657 0.2978,-0.3611 0.2977,-0.3564 0.2978,-0.3517 0.2978,-0.347 0.2978,-0.3422 0.2977,-0.3376 0.2978,-0.3328 0.2978,-0.3281 0.2978,-0.3233 0.2978,-0.3186 0.2977,-0.3138 0.2978,-0.309 0.2978,-0.3043 0.2978,-0.2994 0.2977,-0.2946 0.2978,-0.2898 0.2978,-0.285 0.2978,-0.2801 0.2978,-0.2754 0.2977,-0.2704 0.2978,-0.2656 0.2978,-0.2608 0.2978,-0.2558 0.2977,-0.251 0.2978,-0.2461 0.2978,-0.2412 0.2978,-0.2363 0.2978,-0.2314 0.2977,-0.2265 0.2978,-0.2216 0.2978,-0.2166 0.2978,-0.2117 0.2977,-0.2068 0.2978,-0.2018 0.2978,-0.1969 0.2978,-0.1919 0.2978,-0.1869 0.2977,-0.182 0.2978,-0.177 0.2978,-0.172 0.2978,-0.167 0.2977,-0.162 0.2978,-0.1571 0.2978,-0.152 0.2978,-0.1471 0.2978,-0.142 0.2977,-0.137 0.2978,-0.132 0.2978,-0.127 0.2978,-0.1219 0.2977,-0.117 0.2978,-0.1119 0.2978,-0.1068 0.2978,-0.1019 0.2978,-0.0967 0.2977,-0.0918 0.2978,-0.0867 0.2978,-0.0816 0.2978,-0.0766 0.2977,-0.0716 0.2978,-0.0665 0.2978,-0.0614 0.2978,-0.0564 0.2978,-0.0513 0.2977,-0.0462 0.2978,-0.0412 0.2978,-0.0361 0.2978,-0.0311 0.2977,-0.026 0.2978,-0.0209 0.2978,-0.0158 0.2978,-0.0108 0.2978,-0.006 0.2977,-7e-4 0.2978,0.004 0.2978,0.01 0.2978,0.0146 0.2977,0.0196 0.2978,0.0247 0.2978,0.0298 0.2978,0.0348 0.2978,0.0399 0.2977,0.045 0.2978,0.05 0.2978,0.0551 0.2978,0.0601 0.2977,0.0652 0.2978,0.0703 0.2978,0.0753 0.2978,0.0803 0.2978,0.0854 0.2977,0.0905 0.2978,0.0955 0.2978,0.1006 0.2978,0.1055 0.2977,0.1106 0.2978,0.1157 0.2978,0.1207 0.2978,0.1257 0.2978,0.1307 0.2977,0.1357 0.2978,0.1408 0.2978,0.1458 0.2978,0.1507 0.2977,0.1558 0.2978,0.1608 0.2978,0.1657 0.2978,0.1708 0.2978,0.1757 0.2977,0.1807 0.2978,0.1857 0.2978,0.1906 0.2978,0.1956 0.2977,0.2005 0.2978,0.2055 0.2978,0.2105 0.2978,0.2154 0.2978,0.2203 0.2977,0.2252 0.2978,0.2301 0.2978,0.2351 0.2978,0.24 0.2977,0.2448 0.2978,0.2498 0.2978,0.2546 0.2978,0.2595 0.2978,0.2644 0.2977,0.2692 0.2978,0.2741 0.2978,0.2789 0.2978,0.2837 0.2977,0.2886 0.2978,0.2934 0.2978,0.2982 0.2978,0.303 0.2978,0.3078 0.2977,0.3126 0.2978,0.3174 0.2978,0.3221 0.2978,0.3269 0.2977,0.3316 0.2978,0.3363 0.2978,0.3411 0.2978,0.3458 0.2978,0.3505 0.2977,0.3552 0.2978,0.3599 0.2978,0.3645 0.2978,0.3692 0.2977,0.3739 0.2978,0.3785 0.2978,0.3831 0.2978,0.3878 0.2978,0.3923 0.2977,0.397 0.2978,0.4015 0.2978,0.4062 0.2978,0.4106 0.2977,0.4153 0.2978,0.4197 0.2978,0.4243 0.2978,0.4288 0.2978,0.4333 0.2977,0.4378 0.2978,0.4422 0.2978,0.4467 0.2978,0.4512 0.2977,0.4556 0.2978,0.46 0.2978,0.4644 0.2978,0.4689 0.2978,0.4732 0.2977,0.4775 0.2978,0.4819 0.2978,0.4863 0.2978,0.4906 0.2977,0.4948 0.2978,0.4992 0.2978,0.5035 0.2978,0.5077 0.2978,0.512 0.2977,0.5162 0.2978,0.5204 0.2978,0.5247 0.2978,0.5288 0.2977,0.533 0.2978,0.5371 0.2978,0.5413 0.2978,0.5454 0.2978,0.5496 0.2977,0.5536 0.2978,0.5577 0.2978,0.5618 0.2978,0.5658 0.2977,0.5698 0.2978,0.5739 0.2978,0.5778 0.2978,0.5818 0.2978,0.5858 0.2977,0.5898 0.2978,0.5936 0.2978,0.5976 0.2978,0.6014 0.2977,0.6054 0.2978,0.6091 0.2978,0.6131 0.2978,0.6168 0.2978,0.6207 0.2977,0.6244 0.2978,0.6282 0.2978,0.6319 0.2978,0.6357 0.2977,0.6394 0.2978,0.643 0.2978,0.6468 0.2978,0.6504 0.2978,0.654 0.2977,0.6576 0.2978,0.6613 0.2978,0.6648 0.2978,0.6684 0.2977,0.6719 0.2978,0.6754 0.2978,0.6789 0.2978,0.6824 0.2978,0.6859 0.2977,0.6893 0.2978,0.6927 0.2978,0.6961 0.2978,0.6995 0.2977,0.7028 0.2978,0.7062 0.2978,0.7095 0.2978,0.7127 0.2978,0.7161 0.2977,0.7193 0.2978,0.7225 0.2978,0.7258 0.2978,0.7289 0.2977,0.7321 0.2978,0.7352 0.2978,0.7384 0.2978,0.7415 0.2978,0.7445 0.2977,0.7476 0.2978,0.7507 0.2978,0.7536 0.2978,0.7567 0.2977,0.7596 0.2978,0.7625 0.2978,0.7655 0.2978,0.7684 0.2978,0.7713 0.2977,0.7741 0.2978,0.777 0.2978,0.7798 0.2978,0.7825 0.2977,0.7853 0.2978,0.7881 0.2978,0.7908 0.2978,0.7935 0.2978,0.7962 0.2977,0.7988 0.2978,0.8014 0.2978,0.804 0.2978,0.8067 0.2977,0.8091 0.2978,0.8117 0.2978,0.8142 0.2978,0.8167 0.2978,0.8192 0.2977,0.8216 0.2978,0.824 0.2978,0.8264 0.2978,0.8287 0.2977,0.8311 0.2978,0.8334 0.2978,0.8357 0.2978,0.838 0.2978,0.8402 0.2977,0.8424 0.2978,0.8446 0.2978,0.8468 0.2978,0.8489 0.2977,0.8511 0.2978,0.8531 0.2978,0.8552 0.2978,0.8572 0.2978,0.8593 0.2977,0.8612 0.2978,0.8632 0.2978,0.8652 0.2978,0.8671 0.2977,0.8689 0.2978,0.8708 0.2978,0.8727 0.2978,0.8745 0.2978,0.8762 0.2977,0.8781 0.2978,0.8797 0.2978,0.8815 0.2978,0.8831 0.2977,0.8849 0.2978,0.8864 0.2978,0.888 0.2978,0.8897 0.2978,0.8912 0.2977,0.8927 0.2978,0.8942 0.2978,0.8957 0.2978,0.8971 0.2977,0.8986 0.2978,0.8999 0.2978,0.9014 0.2978,0.9026 0.2978,0.904 0.2977,0.9053 0.2978,0.9065 0.2978,0.9078 0.2978,0.909 0.2977,0.9102 0.2978,0.9113 0.2978,0.9125 0.2978,0.9135 0.2978,0.9147 0.2977,0.9157 0.2978,0.9167 0.2978,0.9177 0.2978,0.9187 0.2977,0.9196 0.2978,0.9205 0.2978,0.9214 0.2978,0.9223 0.2978,0.9232 0.2977,0.9239 0.2978,0.9247 0.2978,0.9254 0.2978,0.9262 0.2977,0.9269 0.2978,0.9276 0.2978,0.9282 0.2978,0.9288 0.2978,0.9294 0.2977,0.93 0.2978,0.9305 0.2978,0.931 0.2978,0.9314 0.2977,0.932 0.2978,0.9324 0.2978,0.9327 0.2978,0.9331 0.2978,0.9335 0.2977,0.9338 0.2978,0.9341 0.2978,0.9343 0.2978,0.9346 0.2977,0.9348 0.2978,0.935 0.2978,0.9351 0.2978,0.9352 0.2978,0.9353 0.2977,0.9354 0.2978,0.9355 0.2978,0.9354 0.2978,0.9355 0.2977,0.9354 0.2978,0.9353 0.2978,0.9352 0.2978,0.9351 0.2978,0.935 0.2977,0.9348 0.2978,0.9346 0.2978,0.9343 0.2978,0.9341 0.2977,0.9338 0.2978,0.9335 0.2978,0.9331 0.2978,0.9327 0.2978,0.9324 0.2977,0.932 0.2978,0.9314 0.2978,0.931 0.2978,0.9305 0.2977,0.93 0.2978,0.9294 0.2978,0.9288 0.2978,0.9282 0.2978,0.9276 0.2977,0.9269 0.2978,0.9262 0.2978,0.9254 0.2978,0.9247 0.2977,0.9239 0.2978,0.9232 0.2978,0.9223 0.2978,0.9214 0.2978,0.9205 0.2977,0.9196 0.2978,0.9187 0.2978,0.9177 0.2978,0.9167 0.2977,0.9157 0.2978,0.9147 0.2978,0.9135 0.2978,0.9125 0.2978,0.9113 0.2977,0.9102 0.2978,0.909 0.2978,0.9078 0.2978,0.9065 0.2977,0.9053 0.2978,0.904 0.2978,0.9026 0.2978,0.9014 0.2978,0.8999 0.2977,0.8986 0.2978,0.8971 0.2978,0.8957 0.2978,0.8942 0.2977,0.8927 0.2978,0.8912 0.2978,0.8897 0.2978,0.888 0.2978,0.8864 0.2977,0.8849 0.2978,0.8831 0.2978,0.8815 0.2978,0.8797 0.2977,0.8781 0.2978,0.8762 0.2978,0.8745 0.2978,0.8727 0.2978,0.8708 0.2977,0.8689 0.2978,0.8671 0.2978,0.8652 0.2978,0.8632 0.2977,0.8612 0.2978,0.8593 0.2978,0.8572 0.2978,0.8552 0.2978,0.8531 0.2977,0.8511 0.2978,0.8489 0.2978,0.8468 0.2978,0.8446 0.2977,0.8424 0.2978,0.8402 0.2978,0.838 0.2978,0.8357 0.2978,0.8334 0.2977,0.8311 0.2978,0.8287 0.2978,0.8264 0.2978,0.824 0.2977,0.8216 0.2978,0.8192 0.2978,0.8167 0.2978,0.8142 0.2978,0.8117 0.2977,0.8091 0.2978,0.8067 0.2978,0.804 0.2978,0.8014 0.2977,0.7988 0.2978,0.7962 0.2978,0.7935 0.2978,0.7908 0.2978,0.7881 0.2977,0.7853 0.2978,0.7825 0.2978,0.7798 0.2978,0.777 0.2977,0.7741 0.2978,0.7713 0.2978,0.7684 0.2978,0.7655 0.2978,0.7625 0.2977,0.7596 0.2978,0.7567 0.2978,0.7536 0.2978,0.7507 0.2977,0.7476 0.2978,0.7445 0.2978,0.7415 0.2978,0.7384 0.2978,0.7352 0.2977,0.7321 0.2978,0.7289 0.2978,0.7258 0.2978,0.7225 0.2977,0.7193 0.2978,0.7161 0.2978,0.7127 0.2978,0.7095 0.2978,0.7062 0.2977,0.7028 0.2978,0.6995 0.2978,0.6961 0.2978,0.6927 0.2977,0.6893 0.2978,0.6859 0.2978,0.6824 0.2978,0.6789 0.2978,0.6754 0.2977,0.6719 0.2978,0.6684 0.2978,0.6648 0.2978,0.6613 0.2977,0.6576 0.2978,0.654 0.2978,0.6504 0.2978,0.6468 0.2978,0.643 0.2977,0.6394 0.2978,0.6357 0.2978,0.6319 0.2978,0.6282 0.2977,0.6244 0.2978,0.6207 0.2978,0.6168 0.2978,0.6131 0.2978,0.6091 0.2977,0.6054 0.2978,0.6014 0.2978,0.5976 0.2978,0.5936 0.2977,0.5898 0.2978,0.5858 0.2978,0.5818 0.2978,0.5778 0.2978,0.5739 0.2977,0.5698 0.2978,0.5658 0.2978,0.5618 0.2978,0.5577 0.2977,0.5536 0.2978,0.5496 0.2978,0.5454 0.2978,0.5413 0.2978,0.5371 0.2977,0.533 0.2978,0.5288 0.2978,0.5247 0.2978,0.5204 0.2977,0.5162 0.2978,0.512 0.2978,0.5077 0.2978,0.5035 0.2978,0.4992 0.2977,0.4948 0.2978,0.4906 0.2978,0.4863 0.2978,0.4819 0.2977,0.4775 0.2978,0.4732 0.2978,0.4689 0.2978,0.4644 0.2978,0.46 0.2977,0.4556 0.2978,0.4512 0.2978,0.4467 0.2978,0.4422 0.2977,0.4378 0.2978,0.4333 0.2978,0.4288 0.2978,0.4243 0.2978,0.4197 0.2977,0.4153 0.2978,0.4106 0.2978,0.4062 0.2978,0.4015 0.2977,0.397 0.2978,0.3923 0.2978,0.3878 0.2978,0.3831 0.2978,0.3785 0.2977,0.3739 0.2978,0.3692 0.2978,0.3645 0.2978,0.3599 0.2977,0.3552 0.2978,0.3505 0.2978,0.3458 0.2978,0.3411 0.2978,0.3363 0.2977,0.3316 0.2978,0.3269 0.2978,0.3221 0.2978,0.3174 0.2977,0.3126 0.2978,0.3078 0.2978,0.303 0.2978,0.2982 0.2978,0.2934 0.2977,0.2886 0.2978,0.2837 0.2978,0.2789 0.2978,0.2741 0.2977,0.2692 0.2978,0.2644 0.2978,0.2595 0.2978,0.2546 0.2978,0.2498 0.2977,0.2448 0.2978,0.24 0.2978,0.2351 0.2978,0.2301 0.2977,0.2252 0.2978,0.2203 0.2978,0.2154 0.2978,0.2105 0.2978,0.2055 0.2977,0.2005 0.2978,0.1956 0.2978,0.1906 0.2978,0.1857 0.2977,0.1807 0.2978,0.1757 0.2978,0.1708 0.2978,0.1657 0.2978,0.1608 0.2977,0.1558 0.2978,0.1507 0.2978,0.1458 0.2978,0.1408 0.2977,0.1357 0.2978,0.1307 0.2978,0.1257 0.2978,0.1207 0.2978,0.1157 0.2977,0.1106 0.2978,0.1055 0.2978,0.1006 0.2978,0.0955 0.2977,0.0905 0.2978,0.0854 0.2978,0.0803 0.2978,0.0753 0.2978,0.0703 0.2977,0.0652 0.2978,0.0601 0.2978,0.0551 0.2978,0.05 0.2977,0.045 0.2978,0.0399 0.2978,0.0348 0.2978,0.0298 0.2978,0.0247 0.2977,0.0196 0.2978,0.0146 0.2978,0.01 0.2978,0.004 0.2977,-7e-4 0.2978,-0.006 0.2978,-0.0108 0.2978,-0.0158 0.2978,-0.0209 0.2977,-0.026 0.2978,-0.0311 0.2978,-0.0361 0.2978,-0.0412 0.2977,-0.0462 0.2978,-0.0513 0.2978,-0.0564 0.2978,-0.0614 0.2978,-0.0665 0.2977,-0.0716 0.2978,-0.0766 0.2978,-0.0816 0.2978,-0.0867 0.2977,-0.0918 0.2978,-0.0967 0.2978,-0.1019 0.2978,-0.1068 0.2978,-0.1119 0.2977,-0.117 0.2978,-0.1219 0.2978,-0.127 0.2978,-0.132 0.2977,-0.137 0.2978,-0.142 0.2978,-0.1471 0.2978,-0.152 0.2978,-0.1571 0.2977,-0.162 0.2978,-0.167 0.2978,-0.172 0.2978,-0.177 0.2977,-0.182 0.2978,-0.1869 0.2978,-0.1919 0.2978,-0.1969 0.2978,-0.2018 0.2977,-0.2068 0.2978,-0.2117 0.2978,-0.2166 0.2978,-0.2216 0.2977,-0.2265 0.2978,-0.2314 0.2978,-0.2363 0.2978,-0.2412 0.2978,-0.2461 0.2977,-0.251 0.2978,-0.2558 0.2978,-0.2608 0.2978,-0.2656 0.2977,-0.2704 0.2978,-0.2754 0.2978,-0.2801 0.2978,-0.285 0.2978,-0.2898 0.2977,-0.2946 0.2978,-0.2994 0.2978,-0.3043 0.2978,-0.309 0.2977,-0.3138 0.2978,-0.3186 0.2978,-0.3233 0.2978,-0.3281 0.2978,-0.3328 0.2977,-0.3376 0.2978,-0.3422 0.2978,-0.347 0.2978,-0.3517 0.2977,-0.3564 0.2978,-0.3611 0.2978,-0.3657 0.2978,-0.3704 0.2978,-0.3751 0.2977,-0.3796 0.2978,-0.3844 0.2978,-0.3889 0.2978,-0.3935 0.2977,-0.3981 0.2978,-0.4028 0.2978,-0.4072 0.2978,-0.4119 0.2978,-0.4164 0.2977,-0.4209 0.2978,-0.4254 0.2978,-0.4299 0.2978,-0.4345 0.2977,-0.4389 0.2978,-0.4434 0.2978,-0.4478 0.2978,-0.4523 0.2978,-0.4568 0.2977,-0.4611 0.2978,-0.4655 0.2978,-0.47 0.2978,-0.4743 0.2977,-0.4787 0.2978,-0.483 0.2978,-0.4873 0.2978,-0.4917 0.2978,-0.496 0.2977,-0.5003 0.2978,-0.5045 0.2978,-0.5088 0.2978,-0.5131 0.2977,-0.5173 0.2978,-0.5215 0.2978,-0.5257 0.2978,-0.5298 0.2978,-0.5341 0.2977,-0.5382 0.2978,-0.5424 0.2978,-0.5464 0.2978,-0.5506 0.2977,-0.5547 0.2978,-0.5587 0.2978,-0.5628 0.2978,-0.5669 0.2978,-0.5708 0.2977,-0.5749 0.2978,-0.5788 0.2978,-0.5829 0.2978,-0.5868 0.2977,-0.5907 0.2978,-0.5947 0.2978,-0.5985 0.2978,-0.6025 0.2978,-0.6063 0.2977,-0.6101 0.2978,-0.614 0.2978,-0.6178 0.2978,-0.6217 0.2977,-0.6253 0.2978,-0.6292 0.2978,-0.6329 0.2978,-0.6366 0.2978,-0.6403 0.2977,-0.644 0.2978,-0.6477 0.2978,-0.6513 0.2978,-0.655 0.2977,-0.6585 0.2978,-0.6622 0.2978,-0.6657 0.2978,-0.6693 0.2978,-0.6728 0.2977,-0.6763 0.2978,-0.6798 0.2978,-0.6833 0.2978,-0.6867 0.2977,-0.6902 0.2978,-0.6936 0.2978,-0.6969 0.2978,-0.7004 0.2978,-0.7037 0.2977,-0.707 0.2978,-0.7103 0.2978,-0.7136 0.2978,-0.7169 0.2977,-0.7201 0.2978,-0.7234 0.2978,-0.7265 0.2978,-0.7298 0.2978,-0.7329 0.2977,-0.736 0.2978,-0.7392 0.2978,-0.7422 0.2978,-0.7454 0.2977,-0.7483 0.2978,-0.7514 0.2978,-0.7545 0.2978,-0.7574 0.2978,-0.7603 0.2977,-0.7634 0.2978,-0.7662 0.2978,-0.7691 0.2978,-0.772 0.2977,-0.7749 0.2978,-0.7776 0.2978,-0.7805 0.2978,-0.7833 0.2978,-0.786 0.2977,-0.7888 0.2978,-0.7915 0.2978,-0.7941 0.2978,-0.7969 0.2977,-0.7995 0.2978,-0.8021 0.2978,-0.8047 0.2978,-0.8072 0.2978,-0.8098 0.2977,-0.8124 0.2978,-0.8148 0.2978,-0.8174 0.2978,-0.8197 0.2977,-0.8223 0.2978,-0.8246 0.2978,-0.827 0.2978,-0.8293 0.2978,-0.8317 0.2977,-0.834 0.2978,-0.8363 0.2978,-0.8385 0.2978,-0.8408 0.2977,-0.843 0.2978,-0.8451 0.2978,-0.8473"
     style="fill:none;stroke:#000000;stroke-width:2.67729998;stroke-linecap:butt;stroke-linejoin:miter;stroke-dasharray:none;stroke-opacity:1" /><path
     inkscape:connector-curvature="0"
     id="path22"
     d="m 468.20227,282.27101 0.1489,-0.4233 0.1489,-0.4209 0.1489,-0.4184 0.1489,-0.416 0.1488,-0.4135 0.1489,-0.4111 0.1489,-0.4088 0.1489,-0.4064 0.1489,-0.404 0.1489,-0.4016 0.1489,-0.3993 0.1489,-0.397 0.1489,-0.3947 0.1488,-0.3924 0.1489,-0.3901 0.1489,-0.3878 0.1489,-0.3856 0.1489,-0.3833 0.1489,-0.3811 0.1489,-0.3788 0.1489,-0.3767 0.1489,-0.3745 0.1488,-0.3723 0.1489,-0.3701 0.1489,-0.368 0.1489,-0.3658 0.1489,-0.3637 0.1489,-0.3616 0.1489,-0.3595 0.1489,-0.3573 0.1489,-0.3553 0.1488,-0.3533 0.1489,-0.3512 0.1489,-0.3491 0.1489,-0.3471 0.1489,-0.3451 0.1489,-0.3431 0.1489,-0.341 0.1489,-0.3391 0.1489,-0.3371 0.1488,-0.3352 0.1489,-0.3332 0.1489,-0.3313 0.1489,-0.3293 0.1489,-0.3274 0.1489,-0.3255 0.1489,-0.3237 0.1489,-0.3217 0.1489,-0.3199 0.1488,-0.318 0.1489,-0.3161 0.1489,-0.3143 0.1489,-0.3125 0.1489,-0.3106 0.1489,-0.3089 0.1489,-0.307 0.1489,-0.3053 0.1489,-0.3035 0.1488,-0.3017 0.1489,-0.3 0.1489,-0.2982 0.1489,-0.2965 0.1489,-0.2947 0.1489,-0.2931 0.1489,-0.2913 0.1489,-0.2897 0.1489,-0.2879 0.1488,-0.2863 0.1489,-0.2846 0.1489,-0.283 0.1489,-0.2813 0.1489,-0.2796 0.1489,-0.2781 0.1489,-0.2764 0.1489,-0.2748 0.1489,-0.2732 0.1488,-0.2716 0.1489,-0.2701 0.1489,-0.2685 0.1489,-0.2669 0.1489,-0.2653 0.1489,-0.2638 0.1489,-0.2623 0.1489,-0.2607 0.1489,-0.2593 0.1488,-0.2577 0.1489,-0.2562 0.1489,-0.2547 0.1489,-0.2533 0.1489,-0.2518 0.1489,-0.2503 0.1489,-0.2488 0.1489,-0.2474 0.1489,-0.246 0.1488,-0.2445 0.1489,-0.2431 0.1489,-0.2417 0.1489,-0.2403 0.1489,-0.2388 0.1489,-0.2375 0.1489,-0.2362 0.1489,-0.2347 0.1489,-0.2334 0.1488,-0.232 0.1489,-0.2306 0.1489,-0.2293 0.1489,-0.228 0.1489,-0.2267 0.1489,-0.2253 0.1489,-0.224 0.1489,-0.2228 0.1489,-0.2214 0.1488,-0.2201 0.1489,-0.2189 0.1489,-0.2175 0.1489,-0.2164 0.1489,-0.215 0.1489,-0.2138 0.1489,-0.2126 0.1489,-0.2113 0.1489,-0.2101 0.1488,-0.2088 0.1489,-0.2077 0.1489,-0.2064 0.1489,-0.2053 0.1489,-0.204 0.1489,-0.2029 0.1489,-0.2016 0.1489,-0.2006 0.1489,-0.1993 0.1488,-0.1982 0.1489,-0.197 0.1489,-0.1959 0.1489,-0.1947 0.1489,-0.1936 0.1489,-0.1925 0.1489,-0.1913 0.1489,-0.1903 0.1489,-0.1891 0.1488,-0.188 0.1489,-0.187 0.1489,-0.1858 0.1489,-0.1848 0.1489,-0.1837 0.1489,-0.1826 0.1489,-0.1815 0.1489,-0.1805 0.1489,-0.1795 0.1488,-0.1784 0.1489,-0.1774 0.1489,-0.1763 0.1489,-0.1753 0.1489,-0.1743 0.1489,-0.1733 0.1489,-0.1722 0.1489,-0.1713 0.1489,-0.1702 0.1488,-0.1693 0.1489,-0.1683 0.1489,-0.1673 0.1489,-0.1664 0.1489,-0.1653 0.1489,-0.1644 0.1489,-0.1635 0.1489,-0.1625 0.1489,-0.1615 0.1488,-0.1606 0.1489,-0.1597 0.1489,-0.1587 0.1489,-0.1579 0.1489,-0.1569 0.1489,-0.1559 0.1489,-0.1551 0.1489,-0.1542 0.1489,-0.1533 0.1488,-0.1524 0.1489,-0.1515 0.1489,-0.1506 0.1489,-0.1497 0.1489,-0.1489 0.1489,-0.148 0.1489,-0.1471 0.1489,-0.1463 0.1489,-0.1455 0.1488,-0.1445 0.1489,-0.1438 0.1489,-0.1429 0.1489,-0.1421 0.1489,-0.1412 0.1489,-0.1405 0.1489,-0.1396 0.1489,-0.1388 0.1489,-0.1379 0.1488,-0.1372 0.1489,-0.1364 0.1489,-0.1356 0.1489,-0.1348 0.1489,-0.134 0.1489,-0.1333 0.1489,-0.1324 0.1489,-0.1317 0.1489,-0.131 0.1488,-0.1301 0.1489,-0.1294 0.1489,-0.1287 0.1489,-0.1279 0.1489,-0.1271 0.1489,-0.1265 0.1489,-0.1256 0.1489,-0.125 0.1489,-0.1242 0.1488,-0.1235 0.1489,-0.1228 0.1489,-0.1221 0.1489,-0.1213 0.1489,-0.1207 0.1489,-0.1199 0.1489,-0.1193 0.1489,-0.1185 0.1489,-0.1179 0.1488,-0.1172 0.1489,-0.1165 0.1489,-0.1158 0.1489,-0.1151 0.1489,-0.1145 0.1489,-0.1138 0.1489,-0.1132 0.1489,-0.1124 0.1489,-0.1119 0.1488,-0.1112 0.1489,-0.1105 0.1489,-0.1099 0.1489,-0.1092 0.1489,-0.1086 0.1489,-0.108 0.1489,-0.1074 0.1489,-0.1067 0.1489,-0.1061 0.1488,-0.1055 0.1489,-0.1049 0.1489,-0.1042 0.1489,-0.1037 0.1489,-0.1031 0.1489,-0.1024 0.1489,-0.1019 0.1489,-0.1012 0.1489,-0.1007 0.1488,-0.1001 0.1489,-0.0995 0.1489,-0.0989 0.1489,-0.0984 0.1489,-0.0978 0.1489,-0.0972 0.1489,-0.0966 0.1489,-0.0961 0.1489,-0.0955 0.1488,-0.095 0.1489,-0.0944 0.1489,-0.0939 0.1489,-0.0933 0.1489,-0.0928 0.1489,-0.0922 0.1489,-0.0917 0.1489,-0.0912 0.1489,-0.0906 0.1488,-0.0901 0.1489,-0.0896 0.1489,-0.089 0.1489,-0.0886 0.1489,-0.088 0.1489,-0.0875 0.1489,-0.087 0.1489,-0.0865 0.1489,-0.086 0.1488,-0.0855 0.1489,-0.085 0.1489,-0.0845 0.1489,-0.084 0.1489,-0.0835 0.1489,-0.0831 0.1489,-0.0825 0.1489,-0.0821 0.1489,-0.0816 0.1488,-0.0811 0.1489,-0.0806 0.1489,-0.0802 0.1489,-0.0797 0.1489,-0.0793 0.1489,-0.0787 0.1489,-0.0784 0.1489,-0.0778 0.1489,-0.0775 0.1488,-0.0769 0.1489,-0.0765 0.1489,-0.0761 0.1489,-0.0756 0.1489,-0.0752 0.1489,-0.0748 0.1489,-0.0743 0.1489,-0.0739 0.1489,-0.0734 0.1488,-0.073 0.1489,-0.0726 0.1489,-0.0722 0.1489,-0.0718 0.1489,-0.0713 0.1489,-0.0709 0.1489,-0.0706 0.1489,-0.0701 0.1489,-0.0696 0.1488,-0.0693 0.1489,-0.0689 0.1489,-0.0685 0.1489,-0.0681 0.1489,-0.0677 0.1489,-0.0673 0.1489,-0.0669 0.1489,-0.0665 0.1489,-0.0661 0.1488,-0.0657 0.1489,-0.0654 0.1489,-0.065 0.1489,-0.0646 0.1489,-0.0642 0.1489,-0.0639 0.1489,-0.0634 0.1489,-0.0631 0.1489,-0.0628 0.1488,-0.0624 0.1489,-0.062 0.1489,-0.0616 0.1489,-0.0613 0.1489,-0.0609 0.1489,-0.0606 0.1489,-0.0603 0.1489,-0.0598 0.1489,-0.0596 0.1488,-0.0591 0.1489,-0.0589 0.1489,-0.0585 0.1489,-0.0581 0.1489,-0.0578 0.1489,-0.0575 0.1489,-0.0572 0.1489,-0.0568 0.1489,-0.0565 0.1488,-0.0561 0.1489,-0.0558 0.1489,-0.0555 0.1489,-0.0552 0.1489,-0.0549 0.1489,-0.0545 0.1489,-0.0542 0.1489,-0.0539 0.1489,-0.0536 0.1488,-0.0533 0.1489,-0.053 0.1489,-0.0526 0.1489,-0.0524 0.1489,-0.052 0.1489,-0.0518 0.1489,-0.0514 0.1489,-0.0512 0.1489,-0.0508 0.1488,-0.0506 0.1489,-0.0502 0.1489,-0.05 0.1489,-0.0497 0.1489,-0.0494 0.1489,-0.049 0.1489,-0.0489 0.1489,-0.0485 0.1489,-0.0482 0.1488,-0.048 0.1489,-0.0477 0.1489,-0.0474 0.1489,-0.0471 0.1489,-0.0469 0.1489,-0.0466 0.1489,-0.0463 0.1489,-0.046 0.1489,-0.0458 0.1488,-0.0455 0.1489,-0.0452 0.1489,-0.045 0.1489,-0.0447 0.1489,-0.0445 0.1489,-0.0442 0.1489,-0.0439 0.1489,-0.0437 0.1489,-0.0435 0.1488,-0.0431 0.1489,-0.043 0.1489,-0.0426 0.1489,-0.0425 0.1489,-0.0422 0.1489,-0.0419 0.1489,-0.0417 0.1489,-0.0414 0.1489,-0.0412 0.1488,-0.041 0.1489,-0.0407 0.1489,-0.0405 0.1489,-0.0403 0.1489,-0.04 0.1489,-0.0398 0.1489,-0.0396 0.1489,-0.0393 0.1489,-0.0391 0.1488,-0.0389 0.1489,-0.0386 0.1489,-0.0384 0.1489,-0.0382 0.1489,-0.038 0.1489,-0.0378 0.1489,-0.0375 0.1489,-0.0373 0.1489,-0.0371 0.1488,-0.0369 0.1489,-0.0366 0.1489,-0.0365 0.1489,-0.0362 0.1489,-0.0361 0.1489,-0.0358 0.1489,-0.0356 0.1489,-0.0354 0.1489,-0.0352 0.1488,-0.035 0.1489,-0.0348 0.1489,-0.0346 0.1489,-0.0344 0.1489,-0.0342 0.1489,-0.0339 0.1489,-0.0338 0.1489,-0.0336 0.1489,-0.0334 0.1488,-0.0332 0.1489,-0.033 0.1489,-0.0328 0.1489,-0.0327 0.1489,-0.0324 0.1489,-0.0323 0.1489,-0.032 0.1489,-0.0319 0.1489,-0.0317 0.1488,-0.0315 0.1489,-0.0313 0.1489,-0.0311 0.1489,-0.031 0.1489,-0.0308 0.1489,-0.0306 0.1489,-0.0304 0.1489,-0.0302 0.1489,-0.0301 0.1488,-0.0299 0.1489,-0.0297 0.1489,-0.0295 0.1489,-0.0294 0.1489,-0.0292 0.1489,-0.029 0.1489,-0.0289 0.1489,-0.0287 0.1489,-0.0285 0.1488,-0.0284 0.1489,-0.0282 0.1489,-0.028 0.1489,-0.0279 0.1489,-0.0277 0.1489,-0.0275 0.1489,-0.0274 0.1489,-0.0272 0.1489,-0.0271 0.1488,-0.0269 0.1489,-0.0268 0.1489,-0.0266 0.1489,-0.0264 0.1489,-0.0263 0.1489,-0.0261 0.1489,-0.026 0.1489,-0.0258 0.1489,-0.0257 0.1488,-0.0256 0.1489,-0.0253 0.1489,-0.0253 0.1489,-0.0251 0.1489,-0.0249 0.1489,-0.0248 0.1489,-0.0247 0.1489,-0.0245 0.1489,-0.0243 0.1488,-0.0243 0.1489,-0.024 0.1489,-0.024 0.1489,-0.0238 0.1489,-0.0237 0.1489,-0.0235 0.1489,-0.0234 0.1489,-0.0232 0.1489,-0.0231 0.1488,-0.023 0.1489,-0.0229 0.1489,-0.0227 0.1489,-0.0226 0.1489,-0.0224 0.1489,-0.0224 0.1489,-0.0222 0.1489,-0.022 0.1489,-0.022 0.1488,-0.0218 0.1489,-0.0216 0.1489,-0.0216 0.1489,-0.0214 0.1489,-0.0213 0.1489,-0.0212 0.1489,-0.0211 0.1489,-0.0209 0.1489,-0.0208 0.1488,-0.0207 0.1489,-0.0206 0.1489,-0.0204 0.1489,-0.0204 0.1489,-0.0202 0.1489,-0.0201 0.1489,-0.02 0.1489,-0.0198 0.1489,-0.0198 0.1488,-0.0196 0.1489,-0.0195 0.1489,-0.0194 0.1489,-0.0193 0.1489,-0.0192 0.1489,-0.0191 0.1489,-0.0189 0.1489,-0.0189 0.1489,-0.0187 0.1488,-0.0186 0.1489,-0.0185 0.1489,-0.0185 0.1489,-0.0183 0.1489,-0.0182 0.1489,-0.018 0.1489,-0.018 0.1489,-0.0179 0.1489,-0.0178 0.1488,-0.0177 0.1489,-0.0175 0.1489,-0.0175 0.1489,-0.0174 0.1489,-0.0172 0.1489,-0.0172 0.1489,-0.0171 0.1489,-0.0169 0.1489,-0.0169 0.1488,-0.0168 0.1489,-0.0166 0.1489,-0.0166 0.1489,-0.0165 0.1489,-0.0164 0.1489,-0.0163 0.1489,-0.0162 0.1489,-0.0161 0.1489,-0.016 0.1488,-0.0159 0.1489,-0.0158 0.1489,-0.0157 0.1489,-0.0157 0.1489,-0.0155 0.1489,-0.0154 0.1489,-0.0154 0.1489,-0.0153 0.1489,-0.0152 0.1488,-0.0151 0.1489,-0.015 0.1489,-0.0149 0.1489,-0.0148 0.1489,-0.0148 0.1489,-0.0146 0.1489,-0.0146 0.1489,-0.0145 0.1489,-0.0144 0.1488,-0.0143 0.1489,-0.0143 0.1489,-0.0141 0.1489,-0.0141 0.1489,-0.014 0.1489,-0.0139 0.1489,-0.0138 0.1489,-0.0138 0.1489,-0.0137 0.1488,-0.0136 0.1489,-0.0135 0.1489,-0.0134 0.1489,-0.0134 0.1489,-0.0132 0.1489,-0.0132 0.1489,-0.0132 0.1489,-0.013 0.1489,-0.013 0.1488,-0.0129 0.1489,-0.0128 0.1489,-0.0127 0.1489,-0.0127 0.1489,-0.0126 0.1489,-0.0125 0.1489,-0.0125 0.1489,-0.0124 0.1489,-0.0123 0.1488,-0.0122 0.1489,-0.0122 0.1489,-0.0121 0.1489,-0.012 0.1489,-0.0119 0.1489,-0.0119 0.1489,-0.0118 0.1489,-0.0118 0.1489,-0.0116 0.1488,-0.0117 0.1489,-0.0115 0.1489,-0.0115 0.1489,-0.0114 0.1489,-0.0113 0.1489,-0.0113 0.1489,-0.0112 0.1489,-0.0111 0.1489,-0.0111 0.1488,-0.011 0.1489,-0.011 0.1489,-0.0109 0.1489,-0.0108 0.1489,-0.0108 0.1489,-0.0107 0.1489,-0.0106 0.1489,-0.0106 0.1489,-0.0105 0.1488,-0.0104 0.1489,-0.0104 0.1489,-0.0103 0.1489,-0.0103 0.1489,-0.0102 0.1489,-0.0102 0.1489,-0.0101 0.1489,-0.01 0.1489,-0.01 0.1488,-0.01 0.1489,-0.01 0.1489,-0.01 0.1489,-0.01 0.1489,-0.01 0.1489,-0.01 0.1489,-0.01 0.1489,-0.01 0.1489,-0.01 0.1488,-0.009 0.1489,-0.009 0.1489,-0.009 0.1489,-0.009 0.1489,-0.009 0.1489,-0.009 0.1489,-0.009 0.1489,-0.009 0.1489,-0.009 0.1488,-0.009 0.1489,-0.009 0.1489,-0.009 0.1489,-0.009 0.1489,-0.009 0.1489,-0.009 0.1489,-0.009 0.1489,-0.009 0.1489,-0.008 0.1488,-0.008 0.1489,-0.008 0.1489,-0.008 0.1489,-0.008 0.1489,-0.008 0.1489,-0.008 0.1489,-0.008 0.1489,-0.008 0.1489,-0.008 0.1488,-0.008 0.1489,-0.008 0.1489,-0.008 0.1489,-0.008 0.1489,-0.008 0.1489,-0.008 0.1489,-0.008 0.1489,-0.008 0.1489,-0.008 0.1488,-0.008 0.1489,-0.008 0.1489,-0.008 0.1489,-0.007 0.1489,-0.007 0.1489,-0.007 0.1489,-0.007 0.1489,-0.007 0.1489,-0.007 0.1488,-0.007 0.1489,-0.007 0.1489,-0.007 0.1489,-0.007 0.1489,-0.007 0.1489,-0.007 0.1489,-0.007 0.1489,-0.007 0.1489,-0.007 0.1488,-0.007 0.1489,-0.007 0.1489,-0.007 0.1489,-0.007 0.1489,-0.007 0.1489,-0.007 0.1489,-0.007 0.1489,-0.007 0.1489,-0.007 0.1488,-0.006 0.1489,-0.007 0.1489,-0.007 0.1489,-0.006 0.1489,-0.006 0.1489,-0.006 0.1489,-0.006 0.1489,-0.006 0.1489,-0.006 0.1488,-0.006 0.1489,-0.006 0.1489,-0.006 0.1489,-0.006 0.1489,-0.006 0.1489,-0.006 0.1489,-0.006 0.1489,-0.006 0.1489,-0.006 0.1488,-0.006 0.1489,-0.006 0.1489,-0.006 0.1489,-0.006 0.1489,-0.006 0.1489,-0.006 0.1489,-0.006 0.1489,-0.006 0.1489,-0.006 0.1488,-0.006 0.1489,-0.005 0.1489,-0.006 0.1489,-0.005 0.1489,-0.005 0.1489,-0.005 0.1489,-0.005 0.1489,-0.005 0.1489,-0.005 0.1488,-0.005 0.1489,-0.005 0.1489,-0.005 0.1489,-0.005 0.1489,-0.005 0.1489,-0.005 0.1489,-0.005 0.1489,-0.005 0.1489,-0.005 0.1488,-0.005 0.1489,-0.005 0.1489,-0.005 0.1489,-0.005 0.1489,-0.005 0.1489,-0.005 0.1489,-0.005 0.1489,-0.005 0.1489,-0.005 0.1488,-0.005 0.1489,-0.005 0.1489,-0.005 0.1489,-0.005 0.1489,-0.005 0.1489,-0.005 0.1489,-0.005 0.1489,-0.005 0.1489,-0.005 0.1488,-0.005 0.1489,-0.005 0.1489,-0.005 0.1489,-0.004 0.1489,-0.004 0.1489,-0.004 0.1489,-0.004 0.1489,-0.004 0.1489,-0.004 0.1488,-0.004 0.1489,-0.004 0.1489,-0.004 0.1489,-0.004 0.1489,-0.004 0.1489,-0.004 0.1489,-0.004 0.1489,-0.004 0.1489,-0.004 0.1488,-0.004 0.1489,-0.004 0.1489,-0.004 0.1489,-0.004 0.1489,-0.004 0.1489,-0.004 0.1489,-0.004 0.1489,-0.004 0.1489,-0.004 0.1488,-0.004 0.1489,-0.004 0.1489,-0.004 0.1489,-0.004 0.1489,-0.004 0.1489,-0.004 0.1489,-0.004 0.1489,-0.004 0.1489,-0.004 0.1488,-0.004 0.1489,-0.004 0.1489,-0.004 0.1489,-0.004 0.1489,-0.004 0.1489,-0.004 0.1489,-0.004 0.1489,-0.003 0.1489,-0.004 0.1488,-0.003 0.1489,-0.003 0.1489,-0.003 0.1489,-0.003 0.1489,-0.003 0.1489,-0.003 0.1489,-0.003 0.1489,-0.003 0.1489,-0.003 0.1488,-0.003 0.1489,-0.003 0.1489,-0.003 0.1489,-0.003 0.1489,-0.003 0.1489,-0.003 0.1489,-0.003 0.1489,-0.003 0.1489,-0.003 0.1488,-0.003 0.1489,-0.003 0.1489,-0.003 0.1489,-0.003 0.1489,-0.003 0.1489,-0.003 0.1489,-0.003 0.1489,-0.003 0.1489,-0.003 0.1488,-0.003 0.1489,-0.003 0.1489,-0.003 0.1489,-0.003 0.1489,-0.003 0.1489,-0.003 0.1489,-0.003 0.1489,-0.003 0.1489,-0.003 0.1488,-0.003 0.1489,-0.003 0.1489,-0.003 0.1489,-0.003 0.1489,-0.003 0.1489,-0.003 0.1489,-0.003 0.1489,-0.003 0.1489,-0.003 0.1488,-0.003 0.1489,-0.003 0.1489,-0.003 0.1489,-0.003 0.1489,-0.003 0.1489,-0.003 0.1489,-0.003 0.1489,-0.003 0.1489,-0.002 0.1488,-0.002 0.1489,-0.003 0.1489,-0.002 0.1489,-0.002 0.1489,-0.002 0.1489,-0.002 0.1489,-0.002 0.1489,-0.002 0.1489,-0.002 0.1488,-0.002 0.1489,-0.002 0.1489,-0.002 0.1489,-0.002 0.1489,-0.002 0.1489,-0.002 0.1489,-0.002 0.1489,-0.002 0.1489,-0.002 0.1488,-0.002 0.1489,-0.002 0.1489,-0.002 0.1489,-0.002 0.1489,-0.002 0.1489,-0.002 0.1489,-0.002 0.1489,-0.002 0.1489,-0.002 0.1488,-0.002 0.1489,-0.002 0.1489,-0.002 0.1489,-0.002 0.1489,-0.002 0.1489,-0.002 0.1489,-0.002 0.1489,-0.002 0.1489,-0.002 0.1488,-0.002 0.1489,-0.002 0.1489,-0.002 0.1489,-0.002 0.1489,-0.002 0.1489,-0.002 0.1489,-0.002 0.1489,-0.002 0.1489,-0.002 0.1488,-0.002 0.1489,-0.002 0.1489,-0.002 0.1489,-0.002 0.1489,-0.002 0.1489,-0.002 0.1489,-0.002 0.1489,-0.002 0.1489,-0.002 0.1488,-0.002 0.1489,-0.002 0.1489,-0.002 0.1489,-0.002 0.1489,-0.002 0.1489,-0.002 0.1489,-0.002 0.1489,-0.002 0.1489,-0.002 0.1488,-0.002 0.1489,-0.002 0.1489,-0.002 0.1489,-0.002 0.1489,-0.002 0.1489,-0.002 0.1489,-0.002 0.1489,-0.002 0.1489,-0.002 0.1488,-0.002 0.1489,-0.002 0.1489,-0.002 0.1489,-0.002 0.1489,-0.002 0.1489,-0.002 0.1489,-0.002 0.1489,-0.002 0.1489,-0.002 0.1488,-0.002 0.1489,-0.002 0.1489,-10e-4 0.1489,-0.002 0.1489,-0.002 0.1489,-0.002 0.1489,-0.002 0.1489,-0.001 0.1489,-0.002 0.1488,-10e-4 0.1489,-0.002 0.1489,-0.001 0.1489,-0.002 0.1489,-0.002 0.1489,-0.001 0.1489,-0.001 0.1489,-0.001 0.1489,-0.001 0.1488,-10e-4 0.1489,-0.001 0.1489,-0.001 0.1489,-0.001 0.1489,-0.001 0.1489,-0.001 0.1489,-10e-4 0.1489,-0.001 0.1489,-0.001 0.1488,-0.001 0.1489,-0.001 0.1489,-0.001 0.1489,-10e-4 0.1489,-0.001 0.1489,-0.001 0.1489,-0.001 0.1489,-0.001 0.1489,-0.001 0.1488,-10e-4 0.1489,-0.001 0.1489,-0.001 0.1489,-0.001 0.1489,-0.001"
     style="fill:none;stroke:#000000;stroke-width:2.67729998;stroke-linecap:butt;stroke-linejoin:miter;stroke-dasharray:none;stroke-opacity:1" /><path
     style="fill:none;stroke:#000000;stroke-width:2.67729998;stroke-linecap:butt;stroke-linejoin:miter;stroke-dasharray:none;stroke-opacity:1"
     d="m 21.98227,209.33871 0.1489,-0.001 0.1489,-10e-4 0.1489,-0.001 0.1489,-0.001 0.1488,-0.001 0.1489,-0.001 0.1489,-0.001 0.1489,-10e-4 0.1489,-0.001 0.1489,-0.001 0.1489,-0.001 0.1489,-0.001 0.1489,-0.001 0.1488,-10e-4 0.1489,-0.001 0.1489,-0.001 0.1489,-0.001 0.1489,-0.001 0.1489,-0.001 0.1489,-10e-4 0.1489,-0.001 0.1489,-0.001 0.1488,-0.002 0.1489,-0.001 0.1489,-10e-4 0.1489,-0.002 0.1489,-0.001 0.1489,-0.002 0.1489,-10e-4 0.1489,-0.001 0.1489,-0.001 0.1488,-0.002 0.1489,-10e-4 0.1489,-0.002 0.1489,-0.002 0.1489,-0.002 0.1489,-0.001 0.1489,-0.002 0.1489,-0.002 0.1489,-0.002 0.1488,-0.002 0.1489,-0.002 0.1489,-0.002 0.1489,-0.002 0.1489,-0.002 0.1489,-0.002 0.1489,-0.002 0.1489,-0.002 0.1489,-0.002 0.1488,-0.002 0.1489,-0.002 0.1489,-0.002 0.1489,-0.002 0.1489,-0.002 0.1489,-0.002 0.1489,-0.002 0.1489,-0.002 0.1489,-0.002 0.1488,-0.002 0.1489,-0.002 0.1489,-0.002 0.1489,-0.002 0.1489,-0.002 0.1489,-0.002 0.1489,-0.002 0.1489,-0.002 0.1489,-0.002 0.1488,-0.002 0.1489,-0.002 0.1489,-0.002 0.1489,-0.002 0.1489,-0.002 0.1489,-0.002 0.1489,-0.002 0.1489,-0.002 0.1489,-0.002 0.1488,-0.002 0.1489,-0.002 0.1489,-0.002 0.1489,-0.002 0.1489,-0.002 0.1489,-0.002 0.1489,-0.002 0.1489,-0.002 0.1489,-0.002 0.1488,-0.002 0.1489,-0.002 0.1489,-0.002 0.1489,-0.002 0.1489,-0.002 0.1489,-0.002 0.1489,-0.002 0.1489,-0.002 0.1489,-0.002 0.1488,-0.002 0.1489,-0.002 0.1489,-0.002 0.1489,-0.002 0.1489,-0.002 0.1489,-0.002 0.1489,-0.002 0.1489,-0.002 0.1489,-0.002 0.1488,-0.002 0.1489,-0.002 0.1489,-0.002 0.1489,-0.002 0.1489,-0.002 0.1489,-0.002 0.1489,-0.002 0.1489,-0.002 0.1489,-0.002 0.1488,-0.002 0.1489,-0.002 0.1489,-0.002 0.1489,-0.002 0.1489,-0.002 0.1489,-0.002 0.1489,-0.002 0.1489,-0.002 0.1489,-0.003 0.1488,-0.002 0.1489,-0.002 0.1489,-0.003 0.1489,-0.003 0.1489,-0.003 0.1489,-0.003 0.1489,-0.003 0.1489,-0.003 0.1489,-0.003 0.1488,-0.003 0.1489,-0.003 0.1489,-0.003 0.1489,-0.003 0.1489,-0.003 0.1489,-0.003 0.1489,-0.003 0.1489,-0.003 0.1489,-0.003 0.1488,-0.003 0.1489,-0.003 0.1489,-0.003 0.1489,-0.003 0.1489,-0.003 0.1489,-0.003 0.1489,-0.003 0.1489,-0.003 0.1489,-0.003 0.1488,-0.003 0.1489,-0.003 0.1489,-0.003 0.1489,-0.003 0.1489,-0.003 0.1489,-0.003 0.1489,-0.003 0.1489,-0.003 0.1489,-0.003 0.1488,-0.003 0.1489,-0.003 0.1489,-0.003 0.1489,-0.003 0.1489,-0.003 0.1489,-0.003 0.1489,-0.003 0.1489,-0.003 0.1489,-0.003 0.1488,-0.003 0.1489,-0.003 0.1489,-0.003 0.1489,-0.003 0.1489,-0.003 0.1489,-0.003 0.1489,-0.003 0.1489,-0.003 0.1489,-0.003 0.1488,-0.003 0.1489,-0.004 0.1489,-0.003 0.1489,-0.004 0.1489,-0.003 0.1489,-0.004 0.1489,-0.004 0.1489,-0.004 0.1489,-0.004 0.1488,-0.004 0.1489,-0.004 0.1489,-0.004 0.1489,-0.004 0.1489,-0.004 0.1489,-0.004 0.1489,-0.004 0.1489,-0.004 0.1489,-0.004 0.1488,-0.004 0.1489,-0.004 0.1489,-0.004 0.1489,-0.004 0.1489,-0.004 0.1489,-0.004 0.1489,-0.004 0.1489,-0.004 0.1489,-0.004 0.1488,-0.004 0.1489,-0.004 0.1489,-0.004 0.1489,-0.004 0.1489,-0.004 0.1489,-0.004 0.1489,-0.004 0.1489,-0.004 0.1489,-0.004 0.1488,-0.004 0.1489,-0.004 0.1489,-0.004 0.1489,-0.004 0.1489,-0.004 0.1489,-0.004 0.1489,-0.004 0.1489,-0.005 0.1489,-0.005 0.1488,-0.005 0.1489,-0.004 0.1489,-0.005 0.1489,-0.005 0.1489,-0.005 0.1489,-0.005 0.1489,-0.005 0.1489,-0.005 0.1489,-0.005 0.1488,-0.005 0.1489,-0.005 0.1489,-0.005 0.1489,-0.005 0.1489,-0.005 0.1489,-0.005 0.1489,-0.005 0.1489,-0.005 0.1489,-0.005 0.1488,-0.005 0.1489,-0.005 0.1489,-0.005 0.1489,-0.005 0.1489,-0.005 0.1489,-0.005 0.1489,-0.005 0.1489,-0.005 0.1489,-0.005 0.1488,-0.005 0.1489,-0.005 0.1489,-0.005 0.1489,-0.005 0.1489,-0.005 0.1489,-0.005 0.1489,-0.005 0.1489,-0.005 0.1489,-0.006 0.1488,-0.006 0.1489,-0.006 0.1489,-0.006 0.1489,-0.006 0.1489,-0.006 0.1489,-0.006 0.1489,-0.006 0.1489,-0.006 0.1489,-0.006 0.1488,-0.006 0.1489,-0.006 0.1489,-0.006 0.1489,-0.006 0.1489,-0.006 0.1489,-0.006 0.1489,-0.006 0.1489,-0.006 0.1489,-0.006 0.1488,-0.006 0.1489,-0.006 0.1489,-0.006 0.1489,-0.006 0.1489,-0.006 0.1489,-0.006 0.1489,-0.006 0.1489,-0.007 0.1489,-0.006 0.1488,-0.007 0.1489,-0.007 0.1489,-0.007 0.1489,-0.007 0.1489,-0.007 0.1489,-0.007 0.1489,-0.007 0.1489,-0.007 0.1489,-0.007 0.1488,-0.007 0.1489,-0.007 0.1489,-0.007 0.1489,-0.007 0.1489,-0.007 0.1489,-0.007 0.1489,-0.007 0.1489,-0.007 0.1489,-0.007 0.1488,-0.007 0.1489,-0.007 0.1489,-0.007 0.1489,-0.007 0.1489,-0.007 0.1489,-0.007 0.1489,-0.007 0.1489,-0.008 0.1489,-0.008 0.1488,-0.008 0.1489,-0.008 0.1489,-0.008 0.1489,-0.008 0.1489,-0.008 0.1489,-0.008 0.1489,-0.008 0.1489,-0.008 0.1489,-0.008 0.1488,-0.008 0.1489,-0.008 0.1489,-0.008 0.1489,-0.008 0.1489,-0.008 0.1489,-0.008 0.1489,-0.008 0.1489,-0.008 0.1489,-0.008 0.1488,-0.008 0.1489,-0.009 0.1489,-0.009 0.1489,-0.009 0.1489,-0.009 0.1489,-0.009 0.1489,-0.009 0.1489,-0.009 0.1489,-0.009 0.1488,-0.009 0.1489,-0.009 0.1489,-0.009 0.1489,-0.009 0.1489,-0.009 0.1489,-0.009 0.1489,-0.009 0.1489,-0.009 0.1489,-0.009 0.1488,-0.009 0.1489,-0.01 0.1489,-0.01 0.1489,-0.01 0.1489,-0.01 0.1489,-0.01 0.1489,-0.01 0.1489,-0.01 0.1489,-0.01 0.1488,-0.01 0.1489,-0.01 0.1489,-0.01 0.1489,-0.0101 0.1489,-0.0102 0.1489,-0.0102 0.1489,-0.0103 0.1489,-0.0103 0.1489,-0.0104 0.1488,-0.0104 0.1489,-0.0105 0.1489,-0.0106 0.1489,-0.0106 0.1489,-0.0107 0.1489,-0.0108 0.1489,-0.0108 0.1489,-0.0109 0.1489,-0.011 0.1488,-0.011 0.1489,-0.0111 0.1489,-0.0111 0.1489,-0.0112 0.1489,-0.0113 0.1489,-0.0113 0.1489,-0.0114 0.1489,-0.0115 0.1489,-0.0115 0.1488,-0.0117 0.1489,-0.0116 0.1489,-0.0118 0.1489,-0.0118 0.1489,-0.0119 0.1489,-0.0119 0.1489,-0.012 0.1489,-0.0121 0.1489,-0.0122 0.1488,-0.0122 0.1489,-0.0123 0.1489,-0.0124 0.1489,-0.0125 0.1489,-0.0125 0.1489,-0.0126 0.1489,-0.0127 0.1489,-0.0127 0.1489,-0.0128 0.1488,-0.0129 0.1489,-0.013 0.1489,-0.013 0.1489,-0.0132 0.1489,-0.0132 0.1489,-0.0132 0.1489,-0.0134 0.1489,-0.0134 0.1489,-0.0135 0.1488,-0.0136 0.1489,-0.0137 0.1489,-0.0138 0.1489,-0.0138 0.1489,-0.0139 0.1489,-0.014 0.1489,-0.0141 0.1489,-0.0141 0.1489,-0.0143 0.1488,-0.0143 0.1489,-0.0144 0.1489,-0.0145 0.1489,-0.0146 0.1489,-0.0146 0.1489,-0.0148 0.1489,-0.0148 0.1489,-0.0149 0.1489,-0.015 0.1488,-0.0151 0.1489,-0.0152 0.1489,-0.0153 0.1489,-0.0154 0.1489,-0.0154 0.1489,-0.0155 0.1489,-0.0157 0.1489,-0.0157 0.1489,-0.0158 0.1488,-0.0159 0.1489,-0.016 0.1489,-0.0161 0.1489,-0.0162 0.1489,-0.0163 0.1489,-0.0164 0.1489,-0.0165 0.1489,-0.0166 0.1489,-0.0166 0.1488,-0.0168 0.1489,-0.0169 0.1489,-0.0169 0.1489,-0.0171 0.1489,-0.0172 0.1489,-0.0172 0.1489,-0.0174 0.1489,-0.0175 0.1489,-0.0175 0.1488,-0.0177 0.1489,-0.0178 0.1489,-0.0179 0.1489,-0.018 0.1489,-0.018 0.1489,-0.0182 0.1489,-0.0183 0.1489,-0.0185 0.1489,-0.0185 0.1488,-0.0186 0.1489,-0.0187 0.1489,-0.0189 0.1489,-0.0189 0.1489,-0.0191 0.1489,-0.0192 0.1489,-0.0193 0.1489,-0.0194 0.1489,-0.0195 0.1488,-0.0196 0.1489,-0.0198 0.1489,-0.0198 0.1489,-0.02 0.1489,-0.0201 0.1489,-0.0202 0.1489,-0.0204 0.1489,-0.0204 0.1489,-0.0206 0.1488,-0.0207 0.1489,-0.0208 0.1489,-0.0209 0.1489,-0.0211 0.1489,-0.0212 0.1489,-0.0213 0.1489,-0.0214 0.1489,-0.0216 0.1489,-0.0216 0.1488,-0.0218 0.1489,-0.022 0.1489,-0.022 0.1489,-0.0222 0.1489,-0.0224 0.1489,-0.0224 0.1489,-0.0226 0.1489,-0.0227 0.1489,-0.0229 0.1488,-0.023 0.1489,-0.0231 0.1489,-0.0232 0.1489,-0.0234 0.1489,-0.0235 0.1489,-0.0237 0.1489,-0.0238 0.1489,-0.024 0.1489,-0.024 0.1488,-0.0243 0.1489,-0.0243 0.1489,-0.0245 0.1489,-0.0247 0.1489,-0.0248 0.1489,-0.0249 0.1489,-0.0251 0.1489,-0.0253 0.1489,-0.0253 0.1488,-0.0256 0.1489,-0.0257 0.1489,-0.0258 0.1489,-0.026 0.1489,-0.0261 0.1489,-0.0263 0.1489,-0.0264 0.1489,-0.0266 0.1489,-0.0268 0.1488,-0.0269 0.1489,-0.0271 0.1489,-0.0272 0.1489,-0.0274 0.1489,-0.0275 0.1489,-0.0277 0.1489,-0.0279 0.1489,-0.028 0.1489,-0.0282 0.1488,-0.0284 0.1489,-0.0285 0.1489,-0.0287 0.1489,-0.0289 0.1489,-0.029 0.1489,-0.0292 0.1489,-0.0294 0.1489,-0.0295 0.1489,-0.0297 0.1488,-0.0299 0.1489,-0.0301 0.1489,-0.0302 0.1489,-0.0304 0.1489,-0.0306 0.1489,-0.0308 0.1489,-0.031 0.1489,-0.0311 0.1489,-0.0313 0.1488,-0.0315 0.1489,-0.0317 0.1489,-0.0319 0.1489,-0.032 0.1489,-0.0323 0.1489,-0.0324 0.1489,-0.0327 0.1489,-0.0328 0.1489,-0.033 0.1488,-0.0332 0.1489,-0.0334 0.1489,-0.0336 0.1489,-0.0338 0.1489,-0.0339 0.1489,-0.0342 0.1489,-0.0344 0.1489,-0.0346 0.1489,-0.0348 0.1488,-0.035 0.1489,-0.0352 0.1489,-0.0354 0.1489,-0.0356 0.1489,-0.0358 0.1489,-0.0361 0.1489,-0.0362 0.1489,-0.0365 0.1489,-0.0366 0.1488,-0.0369 0.1489,-0.0371 0.1489,-0.0373 0.1489,-0.0375 0.1489,-0.0378 0.1489,-0.038 0.1489,-0.0382 0.1489,-0.0384 0.1489,-0.0386 0.1488,-0.0389 0.1489,-0.0391 0.1489,-0.0393 0.1489,-0.0396 0.1489,-0.0398 0.1489,-0.04 0.1489,-0.0403 0.1489,-0.0405 0.1489,-0.0407 0.1488,-0.041 0.1489,-0.0412 0.1489,-0.0414 0.1489,-0.0417 0.1489,-0.0419 0.1489,-0.0422 0.1489,-0.0425 0.1489,-0.0426 0.1489,-0.043 0.1488,-0.0431 0.1489,-0.0435 0.1489,-0.0437 0.1489,-0.0439 0.1489,-0.0442 0.1489,-0.0445 0.1489,-0.0447 0.1489,-0.045 0.1489,-0.0452 0.1488,-0.0455 0.1489,-0.0458 0.1489,-0.046 0.1489,-0.0463 0.1489,-0.0466 0.1489,-0.0469 0.1489,-0.0471 0.1489,-0.0474 0.1489,-0.0477 0.1488,-0.048 0.1489,-0.0482 0.1489,-0.0485 0.1489,-0.0489 0.1489,-0.049 0.1489,-0.0494 0.1489,-0.0497 0.1489,-0.05 0.1489,-0.0502 0.1488,-0.0506 0.1489,-0.0508 0.1489,-0.0512 0.1489,-0.0514 0.1489,-0.0518 0.1489,-0.052 0.1489,-0.0524 0.1489,-0.0526 0.1489,-0.053 0.1488,-0.0533 0.1489,-0.0536 0.1489,-0.0539 0.1489,-0.0542 0.1489,-0.0545 0.1489,-0.0549 0.1489,-0.0552 0.1489,-0.0555 0.1489,-0.0558 0.1488,-0.0561 0.1489,-0.0565 0.1489,-0.0568 0.1489,-0.0572 0.1489,-0.0575 0.1489,-0.0578 0.1489,-0.0581 0.1489,-0.0585 0.1489,-0.0589 0.1488,-0.0591 0.1489,-0.0596 0.1489,-0.0598 0.1489,-0.0603 0.1489,-0.0606 0.1489,-0.0609 0.1489,-0.0613 0.1489,-0.0616 0.1489,-0.062 0.1488,-0.0624 0.1489,-0.0628 0.1489,-0.0631 0.1489,-0.0634 0.1489,-0.0639 0.1489,-0.0642 0.1489,-0.0646 0.1489,-0.065 0.1489,-0.0654 0.1488,-0.0657 0.1489,-0.0661 0.1489,-0.0665 0.1489,-0.0669 0.1489,-0.0673 0.1489,-0.0677 0.1489,-0.0681 0.1489,-0.0685 0.1489,-0.0689 0.1488,-0.0693 0.1489,-0.0696 0.1489,-0.0701 0.1489,-0.0706 0.1489,-0.0709 0.1489,-0.0713 0.1489,-0.0718 0.1489,-0.0722 0.1489,-0.0726 0.1488,-0.073 0.1489,-0.0734 0.1489,-0.0739 0.1489,-0.0743 0.1489,-0.0748 0.1489,-0.0752 0.1489,-0.0756 0.1489,-0.0761 0.1489,-0.0765 0.1488,-0.0769 0.1489,-0.0775 0.1489,-0.0778 0.1489,-0.0784 0.1489,-0.0787 0.1489,-0.0793 0.1489,-0.0797 0.1489,-0.0802 0.1489,-0.0806 0.1488,-0.0811 0.1489,-0.0816 0.1489,-0.0821 0.1489,-0.0825 0.1489,-0.0831 0.1489,-0.0835 0.1489,-0.084 0.1489,-0.0845 0.1489,-0.085 0.1488,-0.0855 0.1489,-0.086 0.1489,-0.0865 0.1489,-0.087 0.1489,-0.0875 0.1489,-0.088 0.1489,-0.0886 0.1489,-0.089 0.1489,-0.0896 0.1488,-0.0901 0.1489,-0.0906 0.1489,-0.0912 0.1489,-0.0917 0.1489,-0.0922 0.1489,-0.0928 0.1489,-0.0933 0.1489,-0.0939 0.1489,-0.0944 0.1488,-0.095 0.1489,-0.0955 0.1489,-0.0961 0.1489,-0.0966 0.1489,-0.0972 0.1489,-0.0978 0.1489,-0.0984 0.1489,-0.0989 0.1489,-0.0995 0.1488,-0.1001 0.1489,-0.1007 0.1489,-0.1012 0.1489,-0.1019 0.1489,-0.1024 0.1489,-0.1031 0.1489,-0.1037 0.1489,-0.1042 0.1489,-0.1049 0.1488,-0.1055 0.1489,-0.1061 0.1489,-0.1067 0.1489,-0.1074 0.1489,-0.108 0.1489,-0.1086 0.1489,-0.1092 0.1489,-0.1099 0.1489,-0.1105 0.1488,-0.1112 0.1489,-0.1119 0.1489,-0.1124 0.1489,-0.1132 0.1489,-0.1138 0.1489,-0.1145 0.1489,-0.1151 0.1489,-0.1158 0.1489,-0.1165 0.1488,-0.1172 0.1489,-0.1179 0.1489,-0.1185 0.1489,-0.1193 0.1489,-0.1199 0.1489,-0.1207 0.1489,-0.1213 0.1489,-0.1221 0.1489,-0.1228 0.1488,-0.1235 0.1489,-0.1242 0.1489,-0.125 0.1489,-0.1256 0.1489,-0.1265 0.1489,-0.1271 0.1489,-0.1279 0.1489,-0.1287 0.1489,-0.1294 0.1488,-0.1301 0.1489,-0.131 0.1489,-0.1317 0.1489,-0.1324 0.1489,-0.1333 0.1489,-0.134 0.1489,-0.1348 0.1489,-0.1356 0.1489,-0.1364 0.1488,-0.1372 0.1489,-0.1379 0.1489,-0.1388 0.1489,-0.1396 0.1489,-0.1405 0.1489,-0.1412 0.1489,-0.1421 0.1489,-0.1429 0.1489,-0.1438 0.1488,-0.1445 0.1489,-0.1455 0.1489,-0.1463 0.1489,-0.1471 0.1489,-0.148 0.1489,-0.1489 0.1489,-0.1497 0.1489,-0.1506 0.1489,-0.1515 0.1488,-0.1524 0.1489,-0.1533 0.1489,-0.1542 0.1489,-0.1551 0.1489,-0.1559 0.1489,-0.1569 0.1489,-0.1579 0.1489,-0.1587 0.1489,-0.1597 0.1488,-0.1606 0.1489,-0.1615 0.1489,-0.1625 0.1489,-0.1635 0.1489,-0.1644 0.1489,-0.1653 0.1489,-0.1664 0.1489,-0.1673 0.1489,-0.1683 0.1488,-0.1693 0.1489,-0.1702 0.1489,-0.1713 0.1489,-0.1722 0.1489,-0.1733 0.1489,-0.1743 0.1489,-0.1753 0.1489,-0.1763 0.1489,-0.1774 0.1488,-0.1784 0.1489,-0.1795 0.1489,-0.1805 0.1489,-0.1815 0.1489,-0.1826 0.1489,-0.1837 0.1489,-0.1848 0.1489,-0.1858 0.1489,-0.187 0.1488,-0.188 0.1489,-0.1891 0.1489,-0.1903 0.1489,-0.1913 0.1489,-0.1925 0.1489,-0.1936 0.1489,-0.1947 0.1489,-0.1959 0.1489,-0.197 0.1488,-0.1982 0.1489,-0.1993 0.1489,-0.2006 0.1489,-0.2016 0.1489,-0.2029 0.1489,-0.204 0.1489,-0.2053 0.1489,-0.2064 0.1489,-0.2077 0.1488,-0.2088 0.1489,-0.2101 0.1489,-0.2113 0.1489,-0.2126 0.1489,-0.2138 0.1489,-0.215 0.1489,-0.2164 0.1489,-0.2175 0.1489,-0.2189 0.1488,-0.2201 0.1489,-0.2214 0.1489,-0.2228 0.1489,-0.224 0.1489,-0.2253 0.1489,-0.2267 0.1489,-0.228 0.1489,-0.2293 0.1489,-0.2306 0.1488,-0.232 0.1489,-0.2334 0.1489,-0.2347 0.1489,-0.2362 0.1489,-0.2375 0.1489,-0.2388 0.1489,-0.2403 0.1489,-0.2417 0.1489,-0.2431 0.1488,-0.2445 0.1489,-0.246 0.1489,-0.2474 0.1489,-0.2488 0.1489,-0.2503 0.1489,-0.2518 0.1489,-0.2533 0.1489,-0.2547 0.1489,-0.2562 0.1488,-0.2577 0.1489,-0.2593 0.1489,-0.2607 0.1489,-0.2623 0.1489,-0.2638 0.1489,-0.2653 0.1489,-0.2669 0.1489,-0.2685 0.1489,-0.2701 0.1488,-0.2716 0.1489,-0.2732 0.1489,-0.2748 0.1489,-0.2764 0.1489,-0.2781 0.1489,-0.2796 0.1489,-0.2813 0.1489,-0.283 0.1489,-0.2846 0.1488,-0.2863 0.1489,-0.2879 0.1489,-0.2897 0.1489,-0.2913 0.1489,-0.2931 0.1489,-0.2947 0.1489,-0.2965 0.1489,-0.2982 0.1489,-0.3 0.1488,-0.3017 0.1489,-0.3035 0.1489,-0.3053 0.1489,-0.307 0.1489,-0.3089 0.1489,-0.3106 0.1489,-0.3125 0.1489,-0.3143 0.1489,-0.3161 0.1488,-0.318 0.1489,-0.3199 0.1489,-0.3217 0.1489,-0.3237 0.1489,-0.3255 0.1489,-0.3274 0.1489,-0.3293 0.1489,-0.3313 0.1489,-0.3332 0.1488,-0.3352 0.1489,-0.3371 0.1489,-0.3391 0.1489,-0.341 0.1489,-0.3431 0.1489,-0.3451 0.1489,-0.3471 0.1489,-0.3491 0.1489,-0.3512 0.1488,-0.3533 0.1489,-0.3553 0.1489,-0.3573 0.1489,-0.3595 0.1489,-0.3616 0.1489,-0.3637 0.1489,-0.3658 0.1489,-0.368 0.1489,-0.3701 0.1488,-0.3723 0.1489,-0.3745 0.1489,-0.3767 0.1489,-0.3788 0.1489,-0.3811 0.1489,-0.3833 0.1489,-0.3856 0.1489,-0.3878 0.1489,-0.3901 0.1488,-0.3924 0.1489,-0.3947 0.1489,-0.397 0.1489,-0.3993 0.1489,-0.4016 0.1489,-0.404 0.1489,-0.4064 0.1489,-0.4088 0.1489,-0.4111 0.1488,-0.4135 0.1489,-0.416 0.1489,-0.4184 0.1489,-0.4209 0.1489,-0.4233"
     id="path24"
     inkscape:connector-curvature="0" /><path
     style="fill:none;stroke:#d40000;stroke-width:2.67761072;stroke-linecap:butt;stroke-linejoin:miter;stroke-dasharray:none;stroke-opacity:1;stroke-miterlimit:4;stroke-dashoffset:0"
     d="m 468.20227,346.19091 0.1489,-0.4949 0.1489,-0.4931 0.1489,-0.4913 0.1489,-0.4895 0.1488,-0.4878 0.1489,-0.486 0.1489,-0.4842 0.1489,-0.4825 0.1489,-0.4807 0.1489,-0.479 0.1489,-0.4772 0.1489,-0.4755 0.1489,-0.4738 0.1488,-0.4721 0.1489,-0.4704 0.1489,-0.4687 0.1489,-0.4669 0.1489,-0.4653 0.1489,-0.4636 0.1489,-0.4619 0.1489,-0.4602 0.1489,-0.4586 0.1488,-0.4569 0.1489,-0.4553 0.1489,-0.4536 0.1489,-0.452 0.1489,-0.4503 0.1489,-0.4487 0.1489,-0.4471 0.1489,-0.4454 0.1489,-0.4439 0.1488,-0.4422 0.1489,-0.4406 0.1489,-0.4391 0.1489,-0.4374 0.1489,-0.4359 0.1489,-0.4343 0.1489,-0.4327 0.1489,-0.4311 0.1489,-0.4296 0.1488,-0.428 0.1489,-0.4265 0.1489,-0.4249 0.1489,-0.4234 0.1489,-0.4219 0.1489,-0.4203 0.1489,-0.4188 0.1489,-0.4173 0.1489,-0.4158 0.1488,-0.4143 0.1489,-0.4127 0.1489,-0.4113 0.1489,-0.4098 0.1489,-0.4083 0.1489,-0.4068 0.1489,-0.4054 0.1489,-0.4039 0.1489,-0.4024 0.1488,-0.401 0.1489,-0.3995 0.1489,-0.398 0.1489,-0.3967 0.1489,-0.3951 0.1489,-0.3938 0.1489,-0.3923 0.1489,-0.3909 0.1489,-0.3895 0.1488,-0.3881 0.1489,-0.3867 0.1489,-0.3853 0.1489,-0.3838 0.1489,-0.3825 0.1489,-0.3811 0.1489,-0.3798 0.1489,-0.3783 0.1489,-0.377 0.1488,-0.3756 0.1489,-0.3743 0.1489,-0.3729 0.1489,-0.3715 0.1489,-0.3702 0.1489,-0.3689 0.1489,-0.3675 0.1489,-0.3662 0.1489,-0.3648 0.1488,-0.3636 0.1489,-0.3622 0.1489,-0.3609 0.1489,-0.3597 0.1489,-0.3583 0.1489,-0.357 0.1489,-0.3557 0.1489,-0.3544 0.1489,-0.3532 0.1488,-0.3518 0.1489,-0.3506 0.1489,-0.3493 0.1489,-0.3481 0.1489,-0.3468 0.1489,-0.3455 0.1489,-0.3443 0.1489,-0.3431 0.1489,-0.3418 0.1488,-0.3405 0.1489,-0.3394 0.1489,-0.338 0.1489,-0.3369 0.1489,-0.3357 0.1489,-0.3344 0.1489,-0.3332 0.1489,-0.3321 0.1489,-0.3308 0.1488,-0.3296 0.1489,-0.3284 0.1489,-0.3273 0.1489,-0.326 0.1489,-0.3249 0.1489,-0.3237 0.1489,-0.3225 0.1489,-0.3214 0.1489,-0.3201 0.1488,-0.3191 0.1489,-0.3178 0.1489,-0.3168 0.1489,-0.3155 0.1489,-0.3145 0.1489,-0.3133 0.1489,-0.3121 0.1489,-0.3111 0.1489,-0.3099 0.1488,-0.3087 0.1489,-0.3077 0.1489,-0.3066 0.1489,-0.3054 0.1489,-0.3043 0.1489,-0.3032 0.1489,-0.3022 0.1489,-0.301 0.1489,-0.3 0.1488,-0.2988 0.1489,-0.2978 0.1489,-0.2967 0.1489,-0.2956 0.1489,-0.2946 0.1489,-0.2935 0.1489,-0.2924 0.1489,-0.2913 0.1489,-0.2904 0.1488,-0.2892 0.1489,-0.2882 0.1489,-0.2872 0.1489,-0.2861 0.1489,-0.2851 0.1489,-0.2841 0.1489,-0.283 0.1489,-0.282 0.1489,-0.281 0.1488,-0.2799 0.1489,-0.279 0.1489,-0.2779 0.1489,-0.277 0.1489,-0.2759 0.1489,-0.2749 0.1489,-0.274 0.1489,-0.2729 0.1489,-0.272 0.1488,-0.2709 0.1489,-0.27 0.1489,-0.269 0.1489,-0.2681 0.1489,-0.267 0.1489,-0.2661 0.1489,-0.2652 0.1489,-0.2641 0.1489,-0.2633 0.1488,-0.2622 0.1489,-0.2613 0.1489,-0.2604 0.1489,-0.2594 0.1489,-0.2585 0.1489,-0.2576 0.1489,-0.2566 0.1489,-0.2557 0.1489,-0.2547 0.1488,-0.2539 0.1489,-0.2529 0.1489,-0.252 0.1489,-0.2511 0.1489,-0.2502 0.1489,-0.2492 0.1489,-0.2484 0.1489,-0.2475 0.1489,-0.2465 0.1488,-0.2457 0.1489,-0.2448 0.1489,-0.2439 0.1489,-0.2431 0.1489,-0.2421 0.1489,-0.2413 0.1489,-0.2404 0.1489,-0.2395 0.1489,-0.2386 0.1488,-0.2378 0.1489,-0.2369 0.1489,-0.2361 0.1489,-0.2352 0.1489,-0.2344 0.1489,-0.2335 0.1489,-0.2327 0.1489,-0.2318 0.1489,-0.231 0.1488,-0.2301 0.1489,-0.2294 0.1489,-0.2284 0.1489,-0.2277 0.1489,-0.2268 0.1489,-0.226 0.1489,-0.2252 0.1489,-0.2244 0.1489,-0.2236 0.1488,-0.2227 0.1489,-0.222 0.1489,-0.2211 0.1489,-0.2204 0.1489,-0.2195 0.1489,-0.2188 0.1489,-0.2179 0.1489,-0.2172 0.1489,-0.2164 0.1488,-0.2156 0.1489,-0.2148 0.1489,-0.214 0.1489,-0.2133 0.1489,-0.2125 0.1489,-0.2117 0.1489,-0.211 0.1489,-0.2102 0.1489,-0.2094 0.1488,-0.2087 0.1489,-0.2079 0.1489,-0.2071 0.1489,-0.2065 0.1489,-0.2056 0.1489,-0.2049 0.1489,-0.2042 0.1489,-0.2035 0.1489,-0.2027 0.1488,-0.2019 0.1489,-0.2013 0.1489,-0.2005 0.1489,-0.1998 0.1489,-0.199 0.1489,-0.1984 0.1489,-0.1976 0.1489,-0.1969 0.1489,-0.1962 0.1488,-0.1954 0.1489,-0.1948 0.1489,-0.1941 0.1489,-0.1933 0.1489,-0.1927 0.1489,-0.192 0.1489,-0.1912 0.1489,-0.1906 0.1489,-0.1899 0.1488,-0.1892 0.1489,-0.1885 0.1489,-0.1878 0.1489,-0.1872 0.1489,-0.1865 0.1489,-0.1858 0.1489,-0.1851 0.1489,-0.1844 0.1489,-0.1838 0.1488,-0.1831 0.1489,-0.1825 0.1489,-0.1818 0.1489,-0.1811 0.1489,-0.1805 0.1489,-0.1798 0.1489,-0.1792 0.1489,-0.1786 0.1489,-0.1778 0.1488,-0.1773 0.1489,-0.1766 0.1489,-0.1759 0.1489,-0.1753 0.1489,-0.1747 0.1489,-0.1741 0.1489,-0.1734 0.1489,-0.1728 0.1489,-0.1721 0.1488,-0.1716 0.1489,-0.1709 0.1489,-0.1703 0.1489,-0.1697 0.1489,-0.1691 0.1489,-0.1684 0.1489,-0.1679 0.1489,-0.1672 0.1489,-0.1667 0.1488,-0.166 0.1489,-0.1654 0.1489,-0.1648 0.1489,-0.1643 0.1489,-0.1636 0.1489,-0.1631 0.1489,-0.1624 0.1489,-0.1619 0.1489,-0.1613 0.1488,-0.1607 0.1489,-0.1601 0.1489,-0.1595 0.1489,-0.159 0.1489,-0.1584 0.1489,-0.1578 0.1489,-0.1572 0.1489,-0.1567 0.1489,-0.1561 0.1488,-0.1555 0.1489,-0.155 0.1489,-0.1544 0.1489,-0.1538 0.1489,-0.1533 0.1489,-0.1528 0.1489,-0.1521 0.1489,-0.1517 0.1489,-0.1511 0.1488,-0.1505 0.1489,-0.15 0.1489,-0.1494 0.1489,-0.1489 0.1489,-0.1484 0.1489,-0.1478 0.1489,-0.1473 0.1489,-0.1468 0.1489,-0.1462 0.1488,-0.1457 0.1489,-0.1452 0.1489,-0.1447 0.1489,-0.1441 0.1489,-0.1436 0.1489,-0.1431 0.1489,-0.1425 0.1489,-0.1421 0.1489,-0.1415 0.1488,-0.141 0.1489,-0.1405 0.1489,-0.14 0.1489,-0.1395 0.1489,-0.139 0.1489,-0.1385 0.1489,-0.138 0.1489,-0.1375 0.1489,-0.1369 0.1488,-0.1365 0.1489,-0.136 0.1489,-0.1355 0.1489,-0.135 0.1489,-0.1346 0.1489,-0.134 0.1489,-0.1336 0.1489,-0.133 0.1489,-0.1326 0.1488,-0.1321 0.1489,-0.1316 0.1489,-0.1312 0.1489,-0.1307 0.1489,-0.1302 0.1489,-0.1297 0.1489,-0.1292 0.1489,-0.1288 0.1489,-0.1284 0.1488,-0.1278 0.1489,-0.1274 0.1489,-0.1269 0.1489,-0.1265 0.1489,-0.126 0.1489,-0.1256 0.1489,-0.1251 0.1489,-0.1247 0.1489,-0.1242 0.1488,-0.1237 0.1489,-0.1233 0.1489,-0.1229 0.1489,-0.1224 0.1489,-0.122 0.1489,-0.1215 0.1489,-0.1211 0.1489,-0.1206 0.1489,-0.1202 0.1488,-0.1198 0.1489,-0.1193 0.1489,-0.119 0.1489,-0.1184 0.1489,-0.1181 0.1489,-0.1176 0.1489,-0.1172 0.1489,-0.1168 0.1489,-0.1163 0.1488,-0.116 0.1489,-0.1155 0.1489,-0.1151 0.1489,-0.1146 0.1489,-0.1143 0.1489,-0.1138 0.1489,-0.1135 0.1489,-0.113 0.1489,-0.1126 0.1488,-0.1122 0.1489,-0.1118 0.1489,-0.1114 0.1489,-0.111 0.1489,-0.1106 0.1489,-0.1101 0.1489,-0.1098 0.1489,-0.1094 0.1489,-0.109 0.1488,-0.1086 0.1489,-0.1082 0.1489,-0.1078 0.1489,-0.1074 0.1489,-0.1071 0.1489,-0.1066 0.1489,-0.1063 0.1489,-0.1059 0.1489,-0.1055 0.1488,-0.1051 0.1489,-0.1047 0.1489,-0.1043 0.1489,-0.104 0.1489,-0.1036 0.1489,-0.1032 0.1489,-0.1029 0.1489,-0.1024 0.1489,-0.1021 0.1488,-0.1018 0.1489,-0.1013 0.1489,-0.101 0.1489,-0.1007 0.1489,-0.1002 0.1489,-0.0999 0.1489,-0.0996 0.1489,-0.0992 0.1489,-0.0988 0.1488,-0.0984 0.1489,-0.0982 0.1489,-0.0977 0.1489,-0.0974 0.1489,-0.0971 0.1489,-0.0966 0.1489,-0.0964 0.1489,-0.096 0.1489,-0.0956 0.1488,-0.0953 0.1489,-0.095 0.1489,-0.0946 0.1489,-0.0943 0.1489,-0.0939 0.1489,-0.0936 0.1489,-0.0932 0.1489,-0.0929 0.1489,-0.0926 0.1488,-0.0923 0.1489,-0.0919 0.1489,-0.0915 0.1489,-0.0913 0.1489,-0.0909 0.1489,-0.0906 0.1489,-0.0902 0.1489,-0.0899 0.1489,-0.0896 0.1488,-0.0893 0.1489,-0.089 0.1489,-0.0886 0.1489,-0.0883 0.1489,-0.088 0.1489,-0.0877 0.1489,-0.0873 0.1489,-0.087 0.1489,-0.0868 0.1488,-0.0864 0.1489,-0.0861 0.1489,-0.0858 0.1489,-0.0854 0.1489,-0.0852 0.1489,-0.0848 0.1489,-0.0846 0.1489,-0.0842 0.1489,-0.084 0.1488,-0.0836 0.1489,-0.0833 0.1489,-0.083 0.1489,-0.0828 0.1489,-0.0824 0.1489,-0.0821 0.1489,-0.0819 0.1489,-0.0815 0.1489,-0.0812 0.1488,-0.081 0.1489,-0.0806 0.1489,-0.0804 0.1489,-0.08 0.1489,-0.0798 0.1489,-0.0795 0.1489,-0.0792 0.1489,-0.0789 0.1489,-0.0787 0.1488,-0.0783 0.1489,-0.0781 0.1489,-0.0777 0.1489,-0.0775 0.1489,-0.0772 0.1489,-0.077 0.1489,-0.0766 0.1489,-0.0764 0.1489,-0.0761 0.1488,-0.0758 0.1489,-0.0756 0.1489,-0.0753 0.1489,-0.075 0.1489,-0.0747 0.1489,-0.0745 0.1489,-0.0742 0.1489,-0.0739 0.1489,-0.0737 0.1488,-0.0733 0.1489,-0.0732 0.1489,-0.0728 0.1489,-0.0726 0.1489,-0.0724 0.1489,-0.072 0.1489,-0.0718 0.1489,-0.0716 0.1489,-0.0713 0.1488,-0.071 0.1489,-0.0708 0.1489,-0.0705 0.1489,-0.0703 0.1489,-0.07 0.1489,-0.0697 0.1489,-0.0695 0.1489,-0.0693 0.1489,-0.069 0.1488,-0.0687 0.1489,-0.0685 0.1489,-0.0683 0.1489,-0.068 0.1489,-0.0678 0.1489,-0.0675 0.1489,-0.0672 0.1489,-0.0671 0.1489,-0.0667 0.1488,-0.0666 0.1489,-0.0663 0.1489,-0.066 0.1489,-0.0659 0.1489,-0.0656 0.1489,-0.0653 0.1489,-0.0651 0.1489,-0.0649 0.1489,-0.0646 0.1488,-0.0644 0.1489,-0.0642 0.1489,-0.0639 0.1489,-0.0637 0.1489,-0.0635 0.1489,-0.0633 0.1489,-0.063 0.1489,-0.0628 0.1489,-0.0625 0.1488,-0.0624 0.1489,-0.0621 0.1489,-0.0618 0.1489,-0.0617 0.1489,-0.0614 0.1489,-0.0613 0.1489,-0.0609 0.1489,-0.0608 0.1489,-0.0606 0.1488,-0.0603 0.1489,-0.0601 0.1489,-0.0599 0.1489,-0.0597 0.1489,-0.0595 0.1489,-0.0592 0.1489,-0.059 0.1489,-0.0589 0.1489,-0.0586 0.1488,-0.0584 0.1489,-0.0581 0.1489,-0.058 0.1489,-0.0578 0.1489,-0.0575 0.1489,-0.0574 0.1489,-0.0571 0.1489,-0.0569 0.1489,-0.0567 0.1488,-0.0566 0.1489,-0.0563 0.1489,-0.0561 0.1489,-0.0559 0.1489,-0.0557 0.1489,-0.0555 0.1489,-0.0553 0.1489,-0.0551 0.1489,-0.0549 0.1488,-0.0547 0.1489,-0.0545 0.1489,-0.0543 0.1489,-0.0541 0.1489,-0.0539 0.1489,-0.0537 0.1489,-0.0536 0.1489,-0.0533 0.1489,-0.0531 0.1488,-0.053 0.1489,-0.0527 0.1489,-0.0526 0.1489,-0.0524 0.1489,-0.0521 0.1489,-0.052 0.1489,-0.0518 0.1489,-0.0517 0.1489,-0.0514 0.1488,-0.0512 0.1489,-0.0511 0.1489,-0.0509 0.1489,-0.0507 0.1489,-0.0505 0.1489,-0.0503 0.1489,-0.0501 0.1489,-0.05 0.1489,-0.0498 0.1488,-0.0496 0.1489,-0.0494 0.1489,-0.0492 0.1489,-0.0491 0.1489,-0.0488 0.1489,-0.0488 0.1489,-0.0485 0.1489,-0.0483 0.1489,-0.0482 0.1488,-0.048 0.1489,-0.0478 0.1489,-0.0477 0.1489,-0.0475 0.1489,-0.0473 0.1489,-0.0471 0.1489,-0.047 0.1489,-0.0468 0.1489,-0.0466 0.1488,-0.0465 0.1489,-0.0463 0.1489,-0.0461 0.1489,-0.046 0.1489,-0.0458 0.1489,-0.0456 0.1489,-0.0455 0.1489,-0.0452 0.1489,-0.0452 0.1488,-0.0449 0.1489,-0.0449 0.1489,-0.0446 0.1489,-0.0445 0.1489,-0.0443 0.1489,-0.0442 0.1489,-0.044 0.1489,-0.0438 0.1489,-0.0437 0.1488,-0.0435 0.1489,-0.0434 0.1489,-0.0432 0.1489,-0.043 0.1489,-0.0429 0.1489,-0.0428 0.1489,-0.0426 0.1489,-0.0424 0.1489,-0.0423 0.1488,-0.0421 0.1489,-0.042 0.1489,-0.0418 0.1489,-0.0417 0.1489,-0.0415 0.1489,-0.0413 0.1489,-0.0413 0.1489,-0.041 0.1489,-0.0409 0.1488,-0.0408 0.1489,-0.0406 0.1489,-0.0405 0.1489,-0.0404 0.1489,-0.0401 0.1489,-0.0401 0.1489,-0.0399 0.1489,-0.0397 0.1489,-0.0396 0.1488,-0.0395 0.1489,-0.0393 0.1489,-0.0392 0.1489,-0.039 0.1489,-0.0389 0.1489,-0.0388 0.1489,-0.0386 0.1489,-0.0384 0.1489,-0.0384 0.1488,-0.0382 0.1489,-0.038 0.1489,-0.0379 0.1489,-0.0378 0.1489,-0.0377 0.1489,-0.0375 0.1489,-0.0374 0.1489,-0.0372 0.1489,-0.0371 0.1488,-0.037 0.1489,-0.0368 0.1489,-0.0367 0.1489,-0.0366 0.1489,-0.0364 0.1489,-0.0363 0.1489,-0.0362 0.1489,-0.036 0.1489,-0.0359 0.1488,-0.0358 0.1489,-0.0356 0.1489,-0.0356 0.1489,-0.0354 0.1489,-0.0352 0.1489,-0.0352 0.1489,-0.035 0.1489,-0.0348 0.1489,-0.0348 0.1488,-0.0346 0.1489,-0.0345 0.1489,-0.0344 0.1489,-0.0343 0.1489,-0.0341 0.1489,-0.034 0.1489,-0.0339 0.1489,-0.0338 0.1489,-0.0336 0.1488,-0.0335 0.1489,-0.0334 0.1489,-0.0333 0.1489,-0.0331 0.1489,-0.0331 0.1489,-0.0329 0.1489,-0.0328 0.1489,-0.0327 0.1489,-0.0325 0.1488,-0.0325 0.1489,-0.0323 0.1489,-0.0322 0.1489,-0.0321 0.1489,-0.0319 0.1489,-0.0319 0.1489,-0.0317 0.1489,-0.0317 0.1489,-0.0315 0.1488,-0.0314 0.1489,-0.0313 0.1489,-0.0311 0.1489,-0.0311 0.1489,-0.0309 0.1489,-0.0309 0.1489,-0.0307 0.1489,-0.0306 0.1489,-0.0305 0.1488,-0.0304 0.1489,-0.0303 0.1489,-0.0301 0.1489,-0.0301 0.1489,-0.03 0.1489,-0.0298 0.1489,-0.0297 0.1489,-0.0297 0.1489,-0.0295 0.1488,-0.0294 0.1489,-0.0293 0.1489,-0.0292 0.1489,-0.0291 0.1489,-0.029 0.1489,-0.0289 0.1489,-0.0288 0.1489,-0.0286 0.1489,-0.0286 0.1488,-0.0285 0.1489,-0.0283 0.1489,-0.0283 0.1489,-0.0282 0.1489,-0.028 0.1489,-0.028 0.1489,-0.0278 0.1489,-0.0278 0.1489,-0.0276 0.1488,-0.0276 0.1489,-0.0274 0.1489,-0.0274 0.1489,-0.0272 0.1489,-0.0272 0.1489,-0.0271 0.1489,-0.0269 0.1489,-0.0269 0.1489,-0.0268 0.1488,-0.0266 0.1489,-0.0266 0.1489,-0.0265 0.1489,-0.0263 0.1489,-0.0263 0.1489,-0.0262 0.1489,-0.0261 0.1489,-0.026 0.1489,-0.0259 0.1488,-0.0258 0.1489,-0.0257 0.1489,-0.0257 0.1489,-0.0255 0.1489,-0.0254 0.1489,-0.0254 0.1489,-0.0252 0.1489,-0.0252 0.1489,-0.0251 0.1488,-0.025 0.1489,-0.0249 0.1489,-0.0248 0.1489,-0.0247 0.1489,-0.0246 0.1489,-0.0245 0.1489,-0.0245 0.1489,-0.0243 0.1489,-0.0243 0.1488,-0.0242 0.1489,-0.0241 0.1489,-0.024 0.1489,-0.0239 0.1489,-0.0238 0.1489,-0.0238 0.1489,-0.0236 0.1489,-0.0236 0.1489,-0.0235 0.1488,-0.0234 0.1489,-0.0233 0.1489,-0.0232 0.1489,-0.0232 0.1489,-0.0231 0.1489,-0.0229 0.1489,-0.0229 0.1489,-0.0228 0.1489,-0.0228 0.1488,-0.0226 0.1489,-0.0226 0.1489,-0.0225 0.1489,-0.0224 0.1489,-0.0223 0.1489,-0.0223 0.1489,-0.0221 0.1489,-0.0221 0.1489,-0.022 0.1488,-0.0219 0.1489,-0.0219 0.1489,-0.0217 0.1489,-0.0217 0.1489,-0.0216 0.1489,-0.0216 0.1489,-0.0214 0.1489,-0.0214 0.1489,-0.0213 0.1488,-0.0212 0.1489,-0.0211 0.1489,-0.0211 0.1489,-0.021 0.1489,-0.0209 0.1489,-0.0208 0.1489,-0.0208 0.1489,-0.0207 0.1489,-0.0206 0.1488,-0.0205 0.1489,-0.0205 0.1489,-0.0204 0.1489,-0.0203 0.1489,-0.0203 0.1489,-0.0201 0.1489,-0.0201 0.1489,-0.02 0.1489,-0.02 0.1488,-0.0199 0.1489,-0.0198 0.1489,-0.0197 0.1489,-0.0197 0.1489,-0.0196 0.1489,-0.0195 0.1489,-0.0194 0.1489,-0.0194 0.1489,-0.0193 0.1488,-0.0193 0.1489,-0.0191 0.1489,-0.0191 0.1489,-0.0191 0.1489,-0.0189 0.1489,-0.0189 0.1489,-0.0188 0.1489,-0.0188 0.1489,-0.0187 0.1488,-0.0186 0.1489,-0.0185 0.1489,-0.0185 0.1489,-0.0185 0.1489,-0.0183 0.1489,-0.0183 0.1489,-0.0182 0.1489,-0.0182 0.1489,-0.0181 0.1488,-0.018 0.1489,-0.0179 0.1489,-0.0179 0.1489,-0.0178 0.1489,-0.0178 0.1489,-0.0177 0.1489,-0.0176 0.1489,-0.0176 0.1489,-0.0175 0.1488,-0.0175 0.1489,-0.0173 0.1489,-0.0174 0.1489,-0.0172 0.1489,-0.0172 0.1489,-0.0171 0.1489,-0.0171 0.1489,-0.017 0.1489,-0.017 0.1488,-0.0168 0.1489,-0.0169 0.1489,-0.0167 0.1489,-0.0167 0.1489,-0.0167 0.1489,-0.0165 0.1489,-0.0166 0.1489,-0.0164 0.1489,-0.0164 0.1488,-0.0164 0.1489,-0.0162 0.1489,-0.0163 0.1489,-0.0161 0.1489,-0.0161 0.1489,-0.0161 0.1489,-0.016 0.1489,-0.0159 0.1489,-0.0159 0.1488,-0.0158 0.1489,-0.0157 0.1489,-0.0157 0.1489,-0.0157 0.1489,-0.0156 0.1489,-0.0155 0.1489,-0.0155 0.1489,-0.0154 0.1489,-0.0154 0.1488,-0.0153 0.1489,-0.0152 0.1489,-0.0152 0.1489,-0.0152 0.1489,-0.015 0.1489,-0.0151 0.1489,-0.015 0.1489,-0.0149 0.1489,-0.0149 0.1488,-0.0148 0.1489,-0.0147 0.1489,-0.0147 0.1489,-0.0147 0.1489,-0.0146 0.1489,-0.0145 0.1489,-0.0145 0.1489,-0.0145 0.1489,-0.0144 0.1488,-0.0143 0.1489,-0.0143 0.1489,-0.0142 0.1489,-0.0142 0.1489,-0.0142 0.1489,-0.014 0.1489,-0.0141 0.1489,-0.0139 0.1489,-0.014 0.1488,-0.0139 0.1489,-0.0138 0.1489,-0.0138 0.1489,-0.0137 0.1489,-0.0137 0.1489,-0.0136 0.1489,-0.0136 0.1489,-0.0135 0.1489,-0.0135 0.1488,-0.0134 0.1489,-0.0134 0.1489,-0.0133 0.1489,-0.0133 0.1489,-0.0133"
     id="path30"
     inkscape:connector-curvature="0" /><path
     style="fill:none;stroke:#000000;stroke-width:2.67729998;stroke-linecap:butt;stroke-linejoin:miter;stroke-dasharray:none"
     d="m 616.09615,209.57465 -11.8992,0"
     id="path90"
     inkscape:connector-curvature="0" /><path
     style="fill:none;stroke:#000000;stroke-width:2.67729998;stroke-linecap:butt;stroke-linejoin:miter;stroke-dasharray:none"
     d="m 21.136154,36.04465 11.8992,0"
     id="path92"
     inkscape:connector-curvature="0" /><path
     style="fill:none;stroke:#000000;stroke-width:2.67729998;stroke-linecap:butt;stroke-linejoin:miter;stroke-dasharray:none"
     d="m 616.09615,36.04465 -11.8992,0"
     id="path94"
     inkscape:connector-curvature="0" /><path
     style="fill:none;stroke:#000000;stroke-width:0.89240003;stroke-linecap:butt;stroke-linejoin:miter;stroke-dasharray:none"
     d="m 21.136154,417.81065 0,-416.472 594.959996,0 0,416.472 z"
     id="path106"
     inkscape:connector-curvature="0" /><text
     style="font-style:normal;font-weight:normal;font-size:16.65888023px;font-family:Times, 'Nimbus Roman No9 L';fill:#000000;fill-rule:nonzero"
     id="text70"
     x="146.01611"
     y="448.08047">$-a/2$</text>
<text
     style="font-style:normal;font-weight:normal;font-size:16.65888023px;font-family:Times, 'Nimbus Roman No9 L';fill:#000000;fill-rule:nonzero"
     id="text72"
     x="309.85614"
     y="447.84048">$0$</text>
<text
     style="font-style:normal;font-weight:normal;font-size:16.65888023px;font-family:Times, 'Nimbus Roman No9 L';fill:#000000;fill-rule:nonzero"
     id="text74"
     x="449.45615"
     y="448.08047">$a/2$</text>
<text
     style="font-style:normal;font-weight:normal;font-size:16.65888023px;font-family:Times, 'Nimbus Roman No9 L';fill:#000000;fill-rule:nonzero"
     id="text100"
     x="-3.9334917"
     y="216.69466">$0$</text>
</svg>