<?xml version="1.0" encoding="UTF-8" standalone="no"?>
<!-- generated by Grace-5.1.25 -->

<svg
   xmlns:dc="http://purl.org/dc/elements/1.1/"
   xmlns:cc="http://creativecommons.org/ns#"
   xmlns:rdf="http://www.w3.org/1999/02/22-rdf-syntax-ns#"
   xmlns:svg="http://www.w3.org/2000/svg"
   xmlns="http://www.w3.org/2000/svg"
   xmlns:sodipodi="http://sodipodi.sourceforge.net/DTD/sodipodi-0.dtd"
   xmlns:inkscape="http://www.inkscape.org/namespaces/inkscape"
   xml:space="preserve"
   width="7.6256371in"
   height="5.9257369in"
   viewBox="0 0 549.04742 426.65478"
   version="1.1"
   id="svg1989"
   sodipodi:docname="10_TEsekularna_nova.svg"
   inkscape:version="0.92.3 (2405546, 2018-03-11)"><metadata
   id="metadata1995"><rdf:RDF><cc:Work
       rdf:about=""><dc:format>image/svg+xml</dc:format><dc:type
         rdf:resource="http://purl.org/dc/dcmitype/StillImage" /><dc:title></dc:title></cc:Work></rdf:RDF></metadata><defs
   id="defs1993">
 
  
  
  
  
  
  
  
  
  
  
  
  
 
   
   
   
   
   
   
   
   
   
   
   
   
   
  
   
  </defs><sodipodi:namedview
   pagecolor="#ffffff"
   bordercolor="#666666"
   borderopacity="1"
   objecttolerance="10"
   gridtolerance="10"
   guidetolerance="10"
   inkscape:pageopacity="0"
   inkscape:pageshadow="2"
   inkscape:window-width="1353"
   inkscape:window-height="895"
   id="namedview1991"
   showgrid="false"
   inkscape:snap-others="false"
   inkscape:snap-global="true"
   inkscape:zoom="1.0298708"
   inkscape:cx="515.83708"
   inkscape:cy="303.13991"
   inkscape:window-x="297"
   inkscape:window-y="55"
   inkscape:window-maximized="0"
   inkscape:current-layer="svg1989"
   fit-margin-top="0"
   fit-margin-left="0"
   fit-margin-right="0"
   fit-margin-bottom="0" />
 <g
   id="g3020"><text
   transform="scale(1.0237554,0.97679582)"
   y="432.42111"
   x="29.079584"
   id="text118"
   style="font-style:normal;font-weight:normal;font-size:15.98870564px;line-height:0%;fill:#000000;fill-rule:nonzero;stroke-width:0.93750006">$0$</text>

<text
   transform="scale(1.0237554,0.97679582)"
   y="432.9808"
   x="95.972404"
   id="text120"
   style="font-style:normal;font-weight:normal;font-size:15.98870564px;line-height:0%;fill:#000000;fill-rule:nonzero;stroke-width:0.93750006">$\pi$</text>

<text
   transform="scale(1.0237554,0.97679582)"
   y="432.9808"
   x="251.56854"
   id="text120-5"
   style="font-style:normal;font-weight:normal;font-size:15.98870564px;line-height:0%;fill:#000000;fill-rule:nonzero;stroke-width:0.93750006">$3\pi$</text>

<text
   transform="scale(1.0102999,0.9898051)"
   y="427.72073"
   x="415.10645"
   id="text120-5-3"
   style="font-style:normal;font-weight:normal;font-size:15.77856159px;line-height:0%;fill:#000000;fill-rule:nonzero;stroke-width:0.93750006">$5\pi$</text>

<text
   transform="scale(1.0237554,0.97679582)"
   y="432.9808"
   x="173.52383"
   id="text120-5-2"
   style="font-style:normal;font-weight:normal;font-size:15.98870564px;line-height:0%;fill:#000000;fill-rule:nonzero;stroke-width:0.93750006">$2\pi$</text>

<text
   transform="scale(1.0102999,0.9898051)"
   y="427.29019"
   x="333.56616"
   id="text120-5-3-7"
   style="font-style:normal;font-weight:normal;font-size:15.77856159px;line-height:0%;fill:#000000;fill-rule:nonzero;stroke-width:0.93750006">$4\pi$</text>

<text
   transform="scale(1.0262373,0.97443347)"
   y="409.97995"
   x="-1.2637661"
   id="text144"
   style="font-style:normal;font-weight:normal;font-size:15.21840954px;line-height:0%;fill:#000000;fill-rule:nonzero;stroke-width:0.93750006">$0$</text>

<text
   transform="scale(0.98685675,1.0133183)"
   y="417.41229"
   x="502.80023"
   id="text120-5-3-5-3"
   style="font-style:normal;font-weight:normal;font-size:15.41243267px;line-height:0%;fill:#000000;fill-rule:nonzero;stroke-width:0.93750006">$k_xa$</text>

</g>
<path
   style="fill:none;stroke:#000000;stroke-width:2.50996876;stroke-linecap:butt;stroke-linejoin:miter;stroke-dasharray:none"
   d="m 195.66513,402.72235 -0.0547,-13.39658"
   id="path22-3-62"
   inkscape:connector-curvature="0"
   sodipodi:nodetypes="cc" /><g
   id="g4653"><path
     inkscape:connector-curvature="0"
     id="path1781"
     d="m 35.457709,393.55947 0.5123,-0.005 0.5122,-0.0156 0.5123,-0.0257 0.5123,-0.0361 0.5123,-0.0466 0.5123,-0.057 0.5123,-0.0672 0.5122,-0.0777 0.5123,-0.0882 0.5123,-0.0986 0.5123,-0.10914 0.5123,-0.11972 0.5123,-0.13037 0.5123,-0.1411 0.5122,-0.15176 0.5123,-0.16252 0.5123,-0.17344 0.5123,-0.18437 0.5123,-0.1954 0.5123,-0.20643 0.5122,-0.21766 0.5123,-0.22896 0.5123,-0.24026 0.5123,-0.25178 0.5123,-0.26336 0.5123,-0.27506 0.5122,-0.28693 0.5123,-0.29882 0.5123,-0.31087 0.5123,-0.32312 0.5123,-0.33549 0.5123,-0.34801 0.5123,-0.36064 0.5122,-0.37356 0.5123,-0.38648 0.5123,-0.39976 0.5123,-0.41305 0.5123,-0.42672 0.5123,-0.44049 0.5122,-0.45444 0.5123,-0.46876 0.5123,-0.48317 0.5123,-0.4979 0.5123,-0.51287 0.5123,-0.52807 0.5122,-0.5436 0.5123,-0.55935 0.5123,-0.57555 0.5123,-0.59187 0.5123,-0.60865 0.5123,-0.62571 0.5122,-0.64315 0.5123,-0.66095 0.5123,-0.67916 0.5123,-0.69782 0.5123,-0.71667 0.5123,-0.73628 0.5123,-0.75607 0.5122,-0.77653 0.5123,-0.79737 0.5123,-0.81875 0.5123,-0.8408 0.5123,-0.86325 0.5123,-0.88634 0.5122,-0.91001 0.5123,-0.93451 0.5123,-0.95949 0.5123,-0.98531 0.5123,-1.01171 0.5123,-1.03914 0.5122,-1.06713 0.5123,-1.09617 0.5123,-1.12596 0.5123,-1.15688 0.5123,-1.18855 0.5123,-1.22143 0.5123,-1.25528 0.5122,-1.29044 0.5123,-1.32664 0.5123,-1.36424 0.5123,-1.40319 0.5123,-1.44343 0.5123,-1.48518 0.5122,-1.52855 0.5123,-1.57361 0.5123,-1.62034 0.5123,-1.66909 0.5123,-1.71961 0.5123,-1.77231 0.5122,-1.82717 0.5123,-1.88439 0.5123,-1.94413 0.5123,-2.00647 0.5123,-2.07167 0.5123,-2.13974 0.5122,-2.21119 0.5123,-2.28584 0.5123,-2.36437 0.5123,-2.44656 0.5123,-2.53299 0.5123,-2.62386 0.5123,-2.71954 0.5122,-2.8204 0.5123,-2.92674 0.5123,-3.03908 0.5123,-3.15777 0.5123,-3.28341 0.5123,-3.41661 0.5122,-3.55789 0.5123,-3.70806 0.5123,-3.86775 0.5123,-4.03798 0.5123,-4.21953 0.5123,-4.4136 0.5122,-4.62127 0.5123,-4.84393 0.5123,-5.08315 0.5123,-5.34057 0.5123,-5.61798 0.5123,-5.91784 0.5123,-6.24228 0.5122,-6.59455 0.5123,-6.97742 0.5123,-7.39511 0.5123,-7.85162 0.512301,-8.35223 0.5123,-8.90253 0.5122,-9.50978 0.5123,-10.18176 0.5123,-10.92839 0.5123,-11.76103 0.5123,-12.69335 0.5123,-13.74241 0.5122,-14.928298 0.5123,-16.27596 0.5123,-17.81638 0.5123,-19.5882 0.5123,-21.64068 0.4218,-19.79115"
     style="fill:none;stroke:#000000;stroke-width:2.67729998;stroke-linecap:butt;stroke-linejoin:miter;stroke-dasharray:none;stroke-opacity:1" /><path
     inkscape:connector-curvature="0"
     id="path1785"
     d="m 195.65221,395.39587 0.1504,-0.4714 0.5123,-1.61593 0.5123,-1.62628 0.5123,-1.63696 0.5122,-1.64806 0.5123,-1.65939 0.5123,-1.67107 0.5123,-1.68313 0.5123,-1.69549 0.5123,-1.70829 0.5122,-1.72151 0.5123,-1.73488 0.5123,-1.74883 0.5123,-1.76307 0.5123,-1.77777 0.5123,-1.79276 0.5122,-1.80822 0.5123,-1.82415 0.5123,-1.84046 0.5123,-1.85715 0.5123,-1.87438 0.5123,-1.89193 0.5123,-1.91012 0.5122,-1.92869 0.5123,-1.94772 0.5123,-1.96734 0.5123,-1.9874 0.5123,-2.00806 0.5123,-2.02917 0.5122,-2.05086 0.5123,-2.07308 0.5123,-2.09599 0.5123,-2.11949 0.5123,-2.1436 0.5123,-2.1682 0.5122,-2.19366 0.5123,-2.21967 0.5123,-2.24635 0.5123,-2.27387 0.5123,-2.30206 0.5123,-2.3309 0.5122,-2.36079 0.5123,-2.39121 0.5123,-2.42263 0.5123,-2.45485 0.5123,-2.48803 0.5123,-2.52206 0.5123,-2.55703 0.5122,-2.59315 0.5123,-2.62999 0.5123,-2.66816 0.5123,-2.70729 0.5123,-2.74764 0.5123,-2.78911 0.5122,-2.83169 0.5123,-2.87574 0.5123,-2.92099 0.5123,-2.96763 0.5123,-3.01563 0.5123,-3.06519 0.5122,-3.11627 0.5123,-3.1689 0.5123,-3.22318 0.5123,-3.27918 0.5123,-3.33703 0.5123,-3.39673 0.5123,-3.45836 0.5122,-3.52199 0.5123,-3.58787 0.5123,-3.65585 0.5123,-3.72625 0.5123,-3.79903 0.5123,-3.87434 0.5122,-3.95229 0.5123,-4.03307 0.5123,-4.1167 0.5123,-4.2034 0.5123,-4.29343 0.5123,-4.38665 0.5122,-4.48345 0.5123,-4.58395 0.5123,-4.68847 0.5123,-4.79697 0.5123,-4.9099 0.5123,-5.02726 0.5122,-5.14961 0.5123,-5.27685 0.5123,-5.40957 0.5123,-5.54785 0.5123,-5.69228 0.5123,-5.84299 0.5123,-6.00033 0.5122,-6.16498 0.5123,-6.33701 0.5123,-6.51725 0.5123,-6.70597 0.5123,-6.903788 0.5123,-7.1114 0.5122,-7.32921 0.5123,-7.55826 0.5123,-7.79902 0.5123,-8.05238 0.5123,-8.31953 0.5123,-8.601 0.5122,-8.89819 0.5123,-9.21211 0.5123,-9.54426 0.5123,-9.89587 0.1067,-2.13887"
     style="fill:none;stroke:#000000;stroke-width:2.67729998;stroke-linecap:butt;stroke-linejoin:miter;stroke-dasharray:none;stroke-opacity:1" /><path
     inkscape:connector-curvature="0"
     id="path1789"
     d="m 356.72261,395.39587 0.4495,-2.84019 0.5123,-3.2475 0.5123,-3.25862 0.5123,-3.27051 0.5122,-3.28293 0.5123,-3.29615 0.5123,-3.30999 0.5123,-3.3245 0.5123,-3.3397 0.5123,-3.35562 0.5122,-3.37229 0.5123,-3.38956 0.5123,-3.40756 0.5123,-3.4264 0.5123,-3.44602 0.5123,-3.46619 0.5122,-3.48729 0.5123,-3.50928 0.5123,-3.5318 0.5123,-3.55534 0.5123,-3.5796 0.5123,-3.60475 0.5122,-3.63076 0.5123,-3.65763 0.5123,-3.68544 0.5123,-3.71418 0.5123,-3.7438 0.5123,-3.77442 0.5122,-3.806 0.5123,-3.83862 0.5123,-3.87226 0.5123,-3.90695 0.5123,-3.94278 0.5123,-3.97962 0.5122,-4.01772 0.5123,-4.05693 0.5123,-4.09735 0.5123,-4.13903 0.5123,-4.18201 0.5123,-4.22622 0.5122,-4.27193 0.5123,-4.31897 0.5123,-4.36742 0.5123,-4.41739 0.5123,-4.46884 0.5123,-4.522 0.5122,-4.57669 0.5124,-4.63314 0.5122,-4.69123 0.5123,-4.75116 0.5123,-4.81308 0.5123,-4.87681 0.5123,-4.9426 0.5123,-5.01039 0.5122,-5.08041 0.5123,-5.15263 0.5123,-5.22728 0.5123,-5.3041 0.5123,-5.38365 0.5123,-5.46557 0.5122,-5.5504 0.5123,-5.63798 0.5123,-5.72847 0.5123,-5.82188 0.5123,-5.91866 0.5123,-6.01861 0.5122,-6.12202 0.5123,-6.22908 0.5123,-6.33985 0.5123,-6.454558 0.5123,-6.57334 0.5123,-6.69642 0.5122,-6.82399 0.5123,-6.95613 0.5123,-7.09336 0.5123,-7.23571 0.5123,-7.38332 0.5123,-7.53677 0.5122,-7.69608 0.5123,-7.86161 0.5123,-8.03383 0.5123,-8.21302 0.2386,-3.91136"
     style="fill:none;stroke:#000000;stroke-width:2.67729998;stroke-linecap:butt;stroke-linejoin:miter;stroke-dasharray:none;stroke-opacity:1" /><path
     inkscape:connector-curvature="0"
     id="path1795"
     d="m 114.66721,395.39587 0.4107,-0.63287 0.512,-0.79905 0.5121,-0.80933 0.512,-0.8197 0.512,-0.83025 0.512,-0.84101 0.5121,-0.85183 0.512,-0.86297 0.512,-0.87428 0.512,-0.88569 0.5121,-0.89737 0.512,-0.90915 0.512,-0.92131 0.5121,-0.93347 0.512,-0.94601 0.512,-0.95874 0.512,-0.97165 0.5121,-0.98475 0.512,-0.99822 0.512,-1.0119 0.5121,-1.02576 0.512,-1.03998 0.512,-1.05451 0.512,-1.06911 0.5121,-1.0842 0.512,-1.09947 0.512,-1.11511 0.512,-1.13105 0.5121,-1.14726 0.512,-1.16394 0.512,-1.18081 0.5121,-1.19807 0.512,-1.21578 0.512,-1.23379 0.512,-1.25217 0.5121,-1.27102 0.512,-1.29026 0.512,-1.30995 0.5121,-1.33004 0.512,-1.35056 0.512,-1.37161 0.512,-1.39318 0.5121,-1.41516 0.512,-1.43777 0.512,-1.46077 0.5121,-1.48453 0.512,-1.50874 0.512,-1.53355 0.512,-1.55898 0.5121,-1.58512 0.512,-1.61186 0.512,-1.6394 0.5121,-1.66749 0.512,-1.69642 0.512,-1.72622 0.512,-1.75666 0.5121,-1.78796 0.512,-1.82019 0.512,-1.85337 0.512,-1.8873 0.5121,-1.92247 0.512,-1.95838 0.512,-1.99561 0.5121,-2.03369 0.512,-2.0731 0.512,-2.11362 0.512,-2.15548 0.5121,-2.19856 0.512,-2.24305 0.512,-2.28896 0.5121,-2.33627 0.512,-2.3852 0.512,-2.4358 0.512,-2.48803 0.5121,-2.54207 0.512,-2.59803 0.512,-2.65582 0.512,-2.71577 0.5121,-2.77779 0.512,-2.84218 0.512,-2.9088 0.5121,-2.97812 0.512,-3.04991 0.512,-3.1245 0.512,-3.20207 0.5121,-3.28265 0.512,-3.36645 0.512,-3.45376 0.5121,-3.5447 0.512,-3.63935 0.512,-3.73813 0.512,-3.84126 0.5121,-3.94881 0.512,-4.06135 0.512,-4.17879 0.5121,-4.30183 0.512,-4.43067 0.512,-4.56565 0.512,-4.70724 0.5121,-4.85579 0.512,-5.01179 0.512,-5.17599 0.512,-5.34869 0.5121,-5.53051 0.512,-5.72236 0.512,-5.92471 0.5121,-6.13859 0.512,-6.36473 0.512,-6.60415 0.512,-6.85792 0.5121,-7.12729 0.512,-7.4135 0.512,-7.71805 0.5121,-8.04248 0.512,-8.38853 0.512,-8.758408 0.512,-9.15411 0.5121,-9.5783 0.512,-10.03367 0.512,-10.52356 0.5121,-11.05123 0.512,-11.62104 0.512,-12.23742 0.512,-12.90562 0.1508,-4.01422"
     style="fill:none;stroke:#d40000;stroke-width:2.67729998;stroke-linecap:butt;stroke-linejoin:miter;stroke-dasharray:none;stroke-opacity:1" /><path
     inkscape:connector-curvature="0"
     id="path1799"
     d="m 276.23641,395.39587 0.1303,-0.61543 0.512,-2.42789 0.5121,-2.43846 0.512,-2.44957 0.512,-2.46107 0.512,-2.47305 0.5121,-2.48568 0.512,-2.49868 0.512,-2.51227 0.5121,-2.52639 0.512,-2.54101 0.512,-2.5561 0.512,-2.57192 0.5121,-2.58814 0.512,-2.60502 0.512,-2.62245 0.5121,-2.64037 0.512,-2.65901 0.512,-2.67826 0.512,-2.69804 0.5121,-2.71851 0.512,-2.73963 0.512,-2.76129 0.512,-2.78384 0.5121,-2.80692 0.512,-2.83067 0.512,-2.85528 0.5121,-2.88053 0.512,-2.90656 0.512,-2.93342 0.512,-2.96095 0.5121,-2.98931 0.512,-3.01864 0.512,-3.0487 0.5121,-3.0797 0.512,-3.11158 0.512,-3.14438 0.512,-3.17823 0.5121,-3.2129 0.512,-3.24873 0.512,-3.28547 0.512,-3.32339 0.5121,-3.36241 0.512,-3.40256 0.512,-3.44385 0.5121,-3.48635 0.512,-3.53028 0.512,-3.57535 0.512,-3.62171 0.5121,-3.6697 0.512,-3.7189 0.512,-3.76971 0.5121,-3.82203 0.512,-3.87594 0.512,-3.93146 0.512,-3.98887 0.5121,-4.04788 0.512,-4.10887 0.512,-4.17162 0.512,-4.23659 0.5121,-4.30352 0.512,-4.37261 0.512,-4.44397 0.5121,-4.51757 0.512,-4.59373 0.512,-4.67246 0.512,-4.75372 0.5121,-4.83769 0.512,-4.92479 0.512,-5.01471 0.5121,-5.10774 0.512,-5.20419 0.512,-5.304 0.512,-5.40742 0.5121,-5.51469 0.512,-5.62571 0.512,-5.741 0.512,-5.86071 0.5121,-5.98476 0.512,-6.11382 0.5121,-6.24775 0.512,-6.386968 0.512,-6.53186 0.512,-6.68257 0.5121,-6.83944 0.512,-7.00278 0.512,-7.17313 0.512,-7.35061 0.5121,-7.53583 0.512,-7.72918 0.512,-7.93115 0.5121,-8.14223 0.512,-8.36299 0.512,-8.594 0.3039,-5.24443"
     style="fill:none;stroke:#d40000;stroke-width:2.67729998;stroke-linecap:butt;stroke-linejoin:miter;stroke-dasharray:none;stroke-opacity:1" /><path
     inkscape:connector-curvature="0"
     id="path1803"
     d="m 437.16981,395.39587 0.4857,-3.8386 0.512,-4.05721 0.5121,-4.06881 0.512,-4.08114 0.512,-4.09435 0.5121,-4.1083 0.512,-4.12309 0.512,-4.13884 0.512,-4.15544 0.5121,-4.17276 0.512,-4.19106 0.512,-4.21019 0.512,-4.23037 0.5121,-4.25129 0.512,-4.27315 0.512,-4.29597 0.5121,-4.31983 0.512,-4.34453 0.512,-4.37024 0.512,-4.39701 0.5121,-4.42473 0.512,-4.45349 0.512,-4.48338 0.5121,-4.51436 0.512,-4.54625 0.512,-4.57951 0.512,-4.61372 0.5121,-4.64916 0.512,-4.68594 0.512,-4.72374 0.512,-4.76302 0.5121,-4.8034 0.512,-4.84513 0.512,-4.8883 0.5121,-4.9329 0.512,-4.9788 0.512,-5.02622 0.512,-5.07523 0.5121,-5.12567 0.512,-5.17778 0.512,-5.23153 0.5121,-5.28704 0.512,-5.34415 0.512,-5.40317 0.512,-5.46397 0.5121,-5.52685 0.512,-5.5916 0.512,-5.65831 0.512,-5.72734 0.5121,-5.7984 0.512,-5.87176 0.512,-5.94743 0.5121,-6.02567 0.512,-6.10628 0.512,-6.18947 0.512,-6.27558 0.5121,-6.36415 0.512,-6.45597 0.512,-6.55064 0.5121,-6.648358 0.512,-6.74949 0.512,-6.85405 0.512,-6.96197 0.5121,-7.07368 0.512,-7.18914 0.512,-7.30875 0.5121,-7.43235 0.512,-7.56034 0.512,-7.69286 0.5121,-7.83022 0.512,-7.97239 0.512,-8.11977 0.4617,-7.45966"
     style="fill:none;stroke:#d40000;stroke-width:2.67729998;stroke-linecap:butt;stroke-linejoin:miter;stroke-dasharray:none;stroke-opacity:1" /><g
     transform="matrix(1,0,0,-0.94261582,-71.534291,479.46261)"
     style="fill:none;stroke:#00d400;stroke-width:2.70373249;stroke-linecap:butt;stroke-linejoin:miter;stroke-miterlimit:4;stroke-dasharray:none;stroke-opacity:1"
     id="g1811">
   <path
   style="stroke:#00d400;stroke-width:2.70373249;stroke-miterlimit:4;stroke-dasharray:none;stroke-opacity:1"
   d="m 106.992,145.7644 0.5169,-0.003 0.517,-0.008 0.5169,-0.014 0.5169,-0.0195 0.517,-0.0251 0.5169,-0.0307 0.517,-0.0363 0.5169,-0.0419 0.5169,-0.0476 0.517,-0.0532 0.5169,-0.0589 0.517,-0.0645 0.5169,-0.0702 0.517,-0.076 0.5169,-0.0817 0.5169,-0.0875 0.517,-0.0933 0.5169,-0.0991 0.517,-0.1049 0.5169,-0.1109 0.5169,-0.1168 0.517,-0.1228 0.5169,-0.1288 0.517,-0.1348 0.5169,-0.141 0.5169,-0.1471 0.517,-0.1533 0.5169,-0.1596 0.517,-0.1658 0.5169,-0.1723 0.517,-0.1787 0.5169,-0.1852 0.5169,-0.1918 0.517,-0.1985 0.5169,-0.2051 0.517,-0.212 0.5169,-0.2189 0.5169,-0.2258 0.517,-0.233 0.5169,-0.2401 0.517,-0.2474 0.5169,-0.2548 0.5169,-0.2623 0.517,-0.27 0.5169,-0.2776 0.517,-0.2856 0.5169,-0.2936 0.517,-0.3018 0.5169,-0.3101 0.5169,-0.3186 0.517,-0.3273 0.5169,-0.3361 0.517,-0.3452 0.5169,-0.3544 0.5169,-0.3639 0.517,-0.3736 0.5169,-0.3836 0.517,-0.3937 0.5169,-0.4042 0.5169,-0.415 0.517,-0.4261 0.5169,-0.4374 0.517,-0.4493 0.5169,-0.4614 0.517,-0.4739 0.5169,-0.4869 0.5169,-0.5004 0.517,-0.5144 0.5169,-0.5289 0.517,-0.544 0.5169,-0.5598 0.5169,-0.5762 0.517,-0.5935 0.5169,-0.6116 0.517,-0.6306 0.5169,-0.6507 0.517,-0.6718 0.5169,-0.6943 0.5169,-0.7182 0.517,-0.7437 0.5169,-0.771 0.517,-0.8003 0.5169,-0.832 0.5169,-0.8665 0.517,-0.9042 0.5169,-0.9456 0.517,-0.9915 0.5169,-1.0429 0.5169,-1.101 0.517,-1.1676 0.5169,-1.2449 0.517,-1.3366 0.5169,-1.448 0.517,-1.5875 0.5169,-1.7701 0.5169,-2.0252 0.517,-2.4213 0.5169,-3.1804 0.517,-7.7454"
   id="path1809"
   inkscape:connector-curvature="0" />
  </g><g
     transform="matrix(1,0,0,-0.94261582,-71.534291,479.46261)"
     style="fill:none;stroke:#00d4d4;stroke-width:2.70373249;stroke-linecap:butt;stroke-linejoin:miter;stroke-miterlimit:4;stroke-dasharray:none;stroke-opacity:1"
     id="g1815">
   <path
   style="stroke:#00d4d4;stroke-width:2.70373249;stroke-miterlimit:4;stroke-dasharray:none;stroke-opacity:1"
   d="m 106.992,227.7121 1.2923,-0.007 1.2924,-0.0209 1.2923,-0.0348 1.2924,-0.0488 1.2923,-0.0628 1.2924,-0.0768 1.2923,-0.0908 1.2924,-0.1048 1.2924,-0.1189 1.2923,-0.133 1.2924,-0.1471 1.2923,-0.1614 1.2924,-0.1756 1.2923,-0.1899 1.2924,-0.2042 1.2923,-0.2187 1.2924,-0.2332 1.2923,-0.2478 1.2924,-0.2624 1.2923,-0.2772 1.2924,-0.292 1.2923,-0.3069 1.2924,-0.322 1.2923,-0.3371 1.2924,-0.3524 1.2924,-0.3678 1.2923,-0.3833 1.2924,-0.3989 1.2923,-0.4147 1.2924,-0.4307 1.2923,-0.4467 1.2924,-0.4631 1.2923,-0.4794 1.2924,-0.4961 1.2923,-0.513 1.2924,-0.5299 1.2923,-0.5472 1.2924,-0.5647 1.2923,-0.5823 1.2924,-0.6003 1.2924,-0.6185 1.2923,-0.637 1.2924,-0.6558 1.2923,-0.6748 1.2924,-0.6942 1.2923,-0.714 1.2924,-0.734 1.2923,-0.7544 1.2924,-0.7753 1.2923,-0.7965 1.2924,-0.8182 1.2923,-0.8404 1.2924,-0.8629 1.2923,-0.8861 1.2924,-0.9098 1.2923,-0.934 1.2924,-0.9588 1.2924,-0.9844 1.2923,-1.0105 1.2924,-1.0374 1.2923,-1.0652 1.2924,-1.0937 1.2923,-1.123 1.2924,-1.1535 1.2923,-1.1848 1.2924,-1.2174 1.2923,-1.2509 1.2924,-1.2859 1.2923,-1.3223 1.2924,-1.36 1.2923,-1.3994 1.2924,-1.4406 1.2924,-1.4838 1.2923,-1.529 1.2924,-1.5765 1.2923,-1.6267 1.2924,-1.6796 1.2923,-1.7358 1.2924,-1.7955 1.2923,-1.8592 1.2924,-1.9274 1.2923,-2.0008 1.2924,-2.0801 1.2923,-2.1662 1.2924,-2.2604 1.2923,-2.3639 1.2924,-2.4788 1.2923,-2.6073 1.2924,-2.7525 1.2924,-2.919 1.2923,-3.1123 1.2924,-3.3416 1.2923,-3.6199 1.2924,-3.9686 1.2923,-4.4253 1.2924,-5.0631 1.2923,-6.0533 1.2924,-7.9511 1.2923,-19.3634"
   id="path1813"
   inkscape:connector-curvature="0" />
  </g><g
     transform="matrix(0.81581178,0,0,-0.94596758,-38.80699,479.76172)"
     style="fill:none;stroke:#060000;stroke-width:2.86005712;stroke-linecap:butt;stroke-linejoin:miter;stroke-miterlimit:4;stroke-dasharray:none;stroke-opacity:1"
     id="g1825">
   <path
   style="stroke:#060000;stroke-width:2.86005712;stroke-miterlimit:4;stroke-dasharray:none;stroke-opacity:1"
   d="m 89.244,89.244 h 594.96"
   id="path1821"
   inkscape:connector-curvature="0" />
   <path
   sodipodi:nodetypes="cc"
   style="stroke:#060000;stroke-width:2.86005712;stroke-miterlimit:4;stroke-dasharray:none;stroke-opacity:1"
   d="M 90.428452,505.73505 684.204,505.716"
   id="path1823"
   inkscape:connector-curvature="0" />
  </g><g
     transform="matrix(0.8147679,0,0,-0.94261582,-37.74754,478.04867)"
     style="fill:none;stroke:#000000;stroke-width:2.86697245;stroke-linecap:butt;stroke-linejoin:miter;stroke-miterlimit:4;stroke-dasharray:none"
     id="g1941">
   <path
   style="stroke-width:2.86697245;stroke-miterlimit:4;stroke-dasharray:none"
   d="M 89.244,89.244 V 505.716"
   id="path1937"
   inkscape:connector-curvature="0" />
   <path
   sodipodi:nodetypes="cc"
   style="stroke-width:2.86697245;stroke-miterlimit:4;stroke-dasharray:none"
   d="M 684.20401,87.743994 V 505.69688"
   id="path1939"
   inkscape:connector-curvature="0" />
  </g><path
     sodipodi:nodetypes="ccccccccccccccccccccccccccccccccccccccccccccccccccccccccccccccccccccccccccccccccccccccccccccccc"
     inkscape:connector-curvature="0"
     id="path40-6-0"
     d="m 356.10352,393.2129 v -4.1177 -4.1177 -4.11769 -4.1177 -4.1177 -4.11769 -4.11769 -4.1176 -4.1177 -4.11768 -4.11771 -4.11768 -4.11771 -4.11769 -4.1177 -4.11759 -4.11771 -4.11768 -4.1177 -4.11769 -4.1177 -4.11769 -4.11771 -4.11759 -4.11771 -4.11767 -4.11771 -4.11768 -4.1177 -4.11769 -4.1177 -4.1177 -4.1176 -4.11768 -4.1177 -4.11771 -4.11768 -4.11771 -4.11768 -4.11772 -4.11757 -4.11771 -4.11768 -4.11772 -4.11767 -4.11772 -4.11768 -4.11771 -4.11758 -4.1177 -4.1177 -4.1177 -4.11768 -4.1177 -4.1177 -4.11769 -4.11761 -4.11769 -4.11769 -4.1177 -4.1177 -4.11769 -4.11771 -4.11767 -4.11771 -4.11759 -4.1177 -4.11769 -4.11771 -4.11767 -4.11771 -4.117678 -4.11772 -4.11758 -4.11771 -4.11767 -4.11772 -4.11767 -4.11772 -4.11768 -4.11771 -4.1176 -4.11769 -4.1177 -4.11769 -4.11771 -4.11768 -4.11771 -4.11769 -4.1176 -4.11768 -4.11772 -4.11768 -4.1177"
     style="fill:#b5b5b5;fill-opacity:1;stroke:#909090;stroke-width:1.67334378;stroke-linecap:butt;stroke-linejoin:miter;stroke-dasharray:1.87500012, 4.68750032;stroke-opacity:1" /><path
     sodipodi:nodetypes="ccccccccccccccccccccccccccccccccccccccccccccccccccccccccccccccccccccccccccccccccccccccccccccccc"
     inkscape:connector-curvature="0"
     id="path40-6-0-6"
     d="m 437.16981,393.2129 v -4.11771 -4.1177 -4.11769 -4.11769 -4.1177 -4.11769 -4.11769 -4.1176 -4.1177 -4.11768 -4.11771 -4.11768 -4.11771 -4.11769 -4.1177 -4.11759 -4.11771 -4.11768 -4.1177 -4.11769 -4.1177 -4.11769 -4.11771 -4.11759 -4.11771 -4.11767 -4.11771 -4.11768 -4.1177 -4.11769 -4.1177 -4.1177 -4.1176 -4.11768 -4.1177 -4.11771 -4.11768 -4.11771 -4.11768 -4.11772 -4.11756 -4.11771 -4.11768 -4.11773 -4.11767 -4.11771 -4.11768 -4.11771 -4.11759 -4.1177 -4.1177 -4.1177 -4.11768 -4.11769 -4.11771 -4.11768 -4.11761 -4.11769 -4.11769 -4.1177 -4.1177 -4.11769 -4.11771 -4.11768 -4.1177 -4.1176 -4.11769 -4.1177 -4.11771 -4.11766 -4.11771 -4.117678 -4.11772 -4.11758 -4.11771 -4.11767 -4.11772 -4.11767 -4.11772 -4.11769 -4.1177 -4.1176 -4.11769 -4.11771 -4.11768 -4.11771 -4.11768 -4.11771 -4.11769 -4.1176 -4.11768 -4.11771 -4.11768 -4.11771"
     style="fill:#b5b5b5;fill-opacity:1;stroke:#909090;stroke-width:1.67334378;stroke-linecap:butt;stroke-linejoin:miter;stroke-dasharray:1.87500005, 4.68750016;stroke-opacity:1" /><g
     transform="matrix(1,0,0,-0.94261582,-71.534291,479.46261)"
     style="fill:none;stroke:#0000d4;stroke-width:2.70373249;stroke-linecap:butt;stroke-linejoin:miter;stroke-miterlimit:4;stroke-dasharray:none;stroke-opacity:1"
     id="g1819">
   <path
   style="stroke:#0000d4;stroke-width:2.70373249;stroke-miterlimit:4;stroke-dasharray:none;stroke-opacity:1"
   d="m 106.992,473.555 3.6186,-0.0195 3.6186,-0.0585 3.6185,-0.0976 3.6186,-0.1366 3.6186,-0.1758 3.6186,-0.215 3.6186,-0.2541 3.6186,-0.2935 3.6186,-0.3329 3.6186,-0.3724 3.6186,-0.412 3.6185,-0.4518 3.6186,-0.4917 3.6186,-0.5317 3.6186,-0.572 3.6186,-0.6123 3.6186,-0.653 3.6186,-0.6937 3.6186,-0.7348 3.6185,-0.7761 3.6186,-0.8176 3.6186,-0.8594 3.6186,-0.9016 3.6186,-0.9439 3.6186,-0.9867 3.6186,-1.0297 3.6186,-1.0732 3.6186,-1.117 3.6185,-1.1612 3.6186,-1.2058 3.6186,-1.251 3.6186,-1.2964 3.6186,-1.3426 3.6186,-1.3891 3.6186,-1.4362 3.6186,-1.4838 3.6186,-1.5322 3.6185,-1.581 3.6186,-1.6306 3.6186,-1.6809 3.6186,-1.7318 3.6186,-1.7836 3.6186,-1.8361 3.6186,-1.8895 3.6186,-1.9438 3.6186,-1.9991 3.6185,-2.0552 3.6186,-2.1124 3.6186,-2.1708 3.6186,-2.2303 3.6186,-2.291 3.6186,-2.3529 3.6186,-2.4163 3.6186,-2.481 3.6185,-2.5473 3.6186,-2.6152 3.6186,-2.6848 3.6186,-2.7562 3.6186,-2.8295 3.6186,-2.9048 3.6186,-2.9824 3.6186,-3.0623 3.6186,-3.1446 3.6185,-3.2297 3.6186,-3.3175 3.6186,-3.4085 3.6186,-3.5028 3.6186,-3.6005 3.6186,-3.7022 3.6186,-3.8081 3.6186,-3.9184 3.6186,-4.0338 3.6185,-4.1545 3.6186,-4.2811 3.6186,-4.4143 3.6186,-4.5546 3.6186,-4.703 3.6186,-4.8602 3.6186,-5.0274 3.6186,-5.2058 3.6186,-5.3967 3.6185,-5.6023 3.6186,-5.8242 3.6186,-6.0655 3.6186,-6.329 3.6186,-6.6191 3.6186,-6.9406 3.6186,-7.3003 3.6186,-7.7072 3.6186,-8.1729 3.6185,-8.7146 3.6186,-9.3565 3.6186,-10.1357 3.6186,-11.1122 3.6186,-12.3907 3.6186,-14.1767 3.6186,-16.9494 3.6186,-22.2628 3.6185,-54.2177"
   id="path1817"
   inkscape:connector-curvature="0" />
  </g><path
     sodipodi:nodetypes="ccccccccccccccccccccccccccccccccccccccccccccccccccccccccccccccccccccccccccccccccccccccccccccccc"
     inkscape:connector-curvature="0"
     id="path40-6-0-6-2-9"
     d="m 276.23641,393.2129 v -4.11771 -4.1177 -4.11769 -4.11768 -4.1177 -4.11769 -4.1177 -4.1176 -4.1177 -4.11767 -4.11771 -4.11768 -4.11772 -4.11769 -4.1177 -4.11758 -4.11771 -4.11768 -4.1177 -4.11769 -4.1177 -4.11769 -4.11771 -4.11759 -4.11771 -4.11768 -4.1177 -4.11768 -4.1177 -4.1177 -4.11769 -4.1177 -4.1176 -4.11768 -4.1177 -4.11771 -4.11768 -4.11771 -4.11768 -4.11772 -4.11756 -4.11771 -4.11768 -4.11772 -4.11768 -4.11771 -4.11768 -4.11771 -4.1176 -4.11768 -4.11771 -4.11768 -4.11769 -4.1177 -4.11769 -4.1177 -4.11761 -4.11769 -4.11768 -4.11769 -4.1177 -4.11769 -4.11771 -4.11768 -4.11771 -4.11759 -4.11771 -4.11768 -4.11771 -4.11768 -4.11771 -4.117678 -4.11771 -4.11758 -4.11771 -4.11768 -4.11772 -4.11767 -4.11771 -4.11769 -4.1177 -4.1176 -4.11769 -4.11771 -4.11768 -4.11771 -4.11768 -4.11771 -4.11769 -4.1176 -4.11768 -4.11771 -4.11769 -4.1177"
     style="fill:#b5b5b5;fill-opacity:1;stroke:#909090;stroke-width:1.67334378;stroke-linecap:butt;stroke-linejoin:miter;stroke-dasharray:1.87499993, 4.68749984;stroke-opacity:1" /><path
     sodipodi:nodetypes="ccccccccccccccccccccccccccccccccccccccccccccccccccccccccccccccccccccccccccccccccccccccccccccccc"
     inkscape:connector-curvature="0"
     id="path40-6-0-1"
     d="m 114.66721,393.2129 v -4.1177 -4.1177 -4.11769 -4.1177 -4.1177 -4.11769 -4.11768 -4.1176 -4.1177 -4.11769 -4.1177 -4.11769 -4.11771 -4.11769 -4.1177 -4.11759 -4.11771 -4.11768 -4.11769 -4.1177 -4.1177 -4.11769 -4.11771 -4.11758 -4.11771 -4.11768 -4.1177 -4.11768 -4.11771 -4.11769 -4.1177 -4.1177 -4.1176 -4.11767 -4.1177 -4.11772 -4.11767 -4.11771 -4.11768 -4.11773 -4.11756 -4.11771 -4.11768 -4.11772 -4.11768 -4.11771 -4.11768 -4.11771 -4.11759 -4.11769 -4.1177 -4.1177 -4.11768 -4.1177 -4.1177 -4.11769 -4.11761 -4.11769 -4.11769 -4.1177 -4.1177 -4.11769 -4.11771 -4.11768 -4.1177 -4.11759 -4.1177 -4.11769 -4.11772 -4.11766 -4.11771 -4.117678 -4.11772 -4.11758 -4.11771 -4.11767 -4.11772 -4.11767 -4.11772 -4.11769 -4.1177 -4.1176 -4.11769 -4.11771 -4.11768 -4.11771 -4.11768 -4.11771 -4.11769 -4.1176 -4.11768 -4.11772 -4.11768 -4.1177"
     style="fill:#b5b5b5;fill-opacity:1;stroke:#909090;stroke-width:1.67334378;stroke-linecap:butt;stroke-linejoin:miter;stroke-dasharray:1.87500005, 4.68750016;stroke-opacity:1" /><path
     sodipodi:nodetypes="ccccccccccccccccccccccccccccccccccccccccccccccccccccccccccccccccccccccccccccccccccccccccccccccc"
     inkscape:connector-curvature="0"
     id="path40-6-0-6-27"
     d="m 196.39111,393.2129 v -4.11771 -4.1177 -4.11769 -4.11769 -4.1177 -4.11769 -4.11768 -4.1176 -4.1177 -4.11769 -4.1177 -4.11769 -4.11771 -4.11769 -4.1177 -4.11759 -4.11771 -4.11768 -4.11769 -4.1177 -4.1177 -4.11769 -4.11771 -4.11758 -4.11771 -4.11768 -4.1177 -4.11768 -4.11771 -4.11769 -4.1177 -4.1177 -4.1176 -4.11767 -4.1177 -4.11772 -4.11767 -4.11771 -4.11768 -4.11773 -4.11755 -4.11771 -4.11768 -4.11773 -4.11768 -4.11771 -4.11768 -4.11771 -4.11759 -4.11769 -4.1177 -4.1177 -4.11768 -4.11769 -4.11771 -4.11768 -4.11761 -4.11769 -4.11769 -4.1177 -4.1177 -4.11769 -4.11771 -4.11768 -4.1177 -4.1176 -4.11769 -4.1177 -4.11771 -4.11767 -4.1177 -4.117678 -4.11772 -4.11758 -4.11771 -4.11768 -4.11771 -4.11768 -4.11771 -4.11769 -4.1177 -4.1176 -4.11769 -4.11771 -4.11768 -4.11771 -4.11768 -4.11771 -4.11769 -4.1176 -4.11768 -4.11771 -4.11768 -4.11771"
     style="fill:#b5b5b5;fill-opacity:1;stroke:#909090;stroke-width:1.67334378;stroke-linecap:butt;stroke-linejoin:miter;stroke-dasharray:1.87499999, 4.6875;stroke-opacity:1" /><path
     sodipodi:nodetypes="cc"
     inkscape:connector-curvature="0"
     id="path22"
     d="m 115.56178,401.7228 -0.0547,-13.39659"
     style="fill:none;stroke:#000000;stroke-width:2.50996876;stroke-linecap:butt;stroke-linejoin:miter;stroke-dasharray:none" /><path
     inkscape:connector-curvature="0"
     id="path100"
     d="M 34.965609,402.52836 V 392.013"
     style="fill:none;stroke:#000000;stroke-width:2.51251006;stroke-linecap:butt;stroke-linejoin:miter;stroke-miterlimit:4;stroke-dasharray:none" /><path
     sodipodi:nodetypes="cc"
     inkscape:connector-curvature="0"
     id="path22-3"
     d="M 276.13975,401.76357 276.08505,388.367"
     style="fill:none;stroke:#000000;stroke-width:2.50996876;stroke-linecap:butt;stroke-linejoin:miter;stroke-dasharray:none" /><path
     sodipodi:nodetypes="cc"
     inkscape:connector-curvature="0"
     id="path22-3-6"
     d="M 438.47924,401.76357 438.42454,388.367"
     style="fill:none;stroke:#000000;stroke-width:2.50996876;stroke-linecap:butt;stroke-linejoin:miter;stroke-dasharray:none" /><path
     sodipodi:nodetypes="cc"
     inkscape:connector-curvature="0"
     id="path22-3-62-9"
     d="m 356.28066,401.92743 -0.0547,-13.3966"
     style="fill:none;stroke:#000000;stroke-width:2.50996876;stroke-linecap:butt;stroke-linejoin:miter;stroke-dasharray:none" /><circle
     r="6.6639299"
     cy="359.741"
     cx="72.850319"
     id="path2848"
     style="opacity:1;fill:none;fill-opacity:1;fill-rule:nonzero;stroke:#000000;stroke-width:2.51251006;stroke-linecap:butt;stroke-linejoin:bevel;stroke-miterlimit:4;stroke-dasharray:none;stroke-dashoffset:0;stroke-opacity:1" /><circle
     r="6.6639295"
     cy="278.29294"
     cx="92.101677"
     id="path2848-6"
     style="opacity:1;fill:none;fill-opacity:1;fill-rule:nonzero;stroke:#000000;stroke-width:2.51250982;stroke-linecap:butt;stroke-linejoin:bevel;stroke-miterlimit:4;stroke-dasharray:none;stroke-dashoffset:0;stroke-opacity:1" /><circle
     r="6.6639295"
     cy="325.49332"
     cx="144.17511"
     id="path2848-6-0"
     style="opacity:1;fill:none;fill-opacity:1;fill-rule:nonzero;stroke:#d40000;stroke-width:2.51250982;stroke-linecap:butt;stroke-linejoin:bevel;stroke-miterlimit:4;stroke-dasharray:none;stroke-dashoffset:0;stroke-opacity:1" /><circle
     r="6.6639295"
     cy="40.148865"
     cx="105.43108"
     id="path2848-6-0-6"
     style="opacity:1;fill:none;fill-opacity:1;fill-rule:nonzero;stroke:#000000;stroke-width:2.51250982;stroke-linecap:butt;stroke-linejoin:bevel;stroke-miterlimit:4;stroke-dasharray:none;stroke-dashoffset:0;stroke-opacity:1" /><circle
     r="6.6639295"
     cy="61.615158"
     cx="175.58917"
     id="path2848-6-0-6-2"
     style="opacity:1;fill:none;fill-opacity:1;fill-rule:nonzero;stroke:#d40000;stroke-width:2.51250982;stroke-linecap:butt;stroke-linejoin:bevel;stroke-miterlimit:4;stroke-dasharray:none;stroke-dashoffset:0;stroke-opacity:1" /><circle
     r="6.6639295"
     cy="100.88275"
     cx="244.70012"
     id="path2848-6-0-6-2-6"
     style="opacity:1;fill:none;fill-opacity:1;fill-rule:nonzero;stroke:#000000;stroke-width:2.51250982;stroke-linecap:butt;stroke-linejoin:bevel;stroke-miterlimit:4;stroke-dasharray:none;stroke-dashoffset:0;stroke-opacity:1" /><circle
     r="6.6639295"
     cy="163.71086"
     cx="311.7168"
     id="path2848-6-0-6-2-6-1"
     style="opacity:1;fill:none;fill-opacity:1;fill-rule:nonzero;stroke:#d40000;stroke-width:2.51250982;stroke-linecap:butt;stroke-linejoin:bevel;stroke-miterlimit:4;stroke-dasharray:none;stroke-dashoffset:0;stroke-opacity:1" /><circle
     r="6.6639295"
     cy="275.2308"
     cx="373.4978"
     id="path2848-6-0-6-2-6-1-8"
     style="opacity:1;fill:none;fill-opacity:1;fill-rule:nonzero;stroke:#000000;stroke-width:2.51250982;stroke-linecap:butt;stroke-linejoin:bevel;stroke-miterlimit:4;stroke-dasharray:none;stroke-dashoffset:0;stroke-opacity:1" /></g></svg>