<?xml version="1.0" encoding="UTF-8" standalone="no"?>
<!-- generated by Grace-5.1.23 -->

<svg
   xmlns:dc="http://purl.org/dc/elements/1.1/"
   xmlns:cc="http://creativecommons.org/ns#"
   xmlns:rdf="http://www.w3.org/1999/02/22-rdf-syntax-ns#"
   xmlns:svg="http://www.w3.org/2000/svg"
   xmlns="http://www.w3.org/2000/svg"
   xmlns:sodipodi="http://sodipodi.sourceforge.net/DTD/sodipodi-0.dtd"
   xmlns:inkscape="http://www.inkscape.org/namespaces/inkscape"
   xml:space="preserve"
   width="11.6933in"
   height="8.2633in"
   viewBox="0.0000 0.0000 841.9200 594.9600"
   id="svg2"
   version="1.1"
   inkscape:version="0.48.4 r9939"
   sodipodi:docname="10_Zero.svg"><metadata
     id="metadata120"><rdf:RDF><cc:Work
         rdf:about=""><dc:format>image/svg+xml</dc:format><dc:type
           rdf:resource="http://purl.org/dc/dcmitype/StillImage" /></cc:Work></rdf:RDF></metadata><defs
     id="defs118"><inkscape:path-effect
       effect="spiro"
       id="path-effect4005"
       is_visible="true" /><inkscape:path-effect
       effect="spiro"
       id="path-effect3994"
       is_visible="true" /><inkscape:path-effect
       effect="spiro"
       id="path-effect3217"
       is_visible="true" /></defs><sodipodi:namedview
     pagecolor="#ffffff"
     bordercolor="#666666"
     borderopacity="1"
     objecttolerance="10"
     gridtolerance="10"
     guidetolerance="10"
     inkscape:pageopacity="0"
     inkscape:pageshadow="2"
     inkscape:window-width="1250"
     inkscape:window-height="960"
     id="namedview116"
     showgrid="false"
     inkscape:zoom="1.1060465"
     inkscape:cx="439.38799"
     inkscape:cy="424.76844"
     inkscape:window-x="2"
     inkscape:window-y="0"
     inkscape:window-maximized="0"
     inkscape:current-layer="svg2" /><path
     style="fill:none;stroke:#909090;stroke-width:2.67761072;stroke-linecap:butt;stroke-linejoin:miter;stroke-dasharray:2.67761072,5.35522145;stroke-miterlimit:4;stroke-dashoffset:0;stroke-opacity:1"
     d="m 89.244,297.48 6.0097,0 6.0097,0 6.0097,0 6.0097,0 6.0097,0 6.0097,0 6.0097,0 6.0097,0 6.0097,0 6.0097,0 6.0097,0 6.0097,0 6.0097,0 6.0097,0 6.0097,0 6.0097,0 6.0096,0 6.0097,0 6.0097,0 6.0097,0 6.0097,0 6.0097,0 6.0097,0 6.0097,0 6.0097,0 6.0097,0 6.0097,0 6.0097,0 6.0097,0 6.0097,0 6.0097,0 6.0097,0 6.0097,0 6.0097,0 6.0097,0 6.0097,0 6.0097,0 6.0097,0 6.0097,0 6.0097,0 6.0097,0 6.0097,0 6.0097,0 6.0097,0 6.0097,0 6.0097,0 6.0097,0 6.0097,0 6.0097,0 6.0096,0 6.0097,0 6.0097,0 6.0097,0 6.0097,0 6.0097,0 6.0097,0 6.0097,0 6.0097,0 6.0097,0 6.0097,0 6.0097,0 6.0097,0 6.0097,0 6.0097,0 6.0097,0 6.0097,0 6.0097,0 6.0097,0 6.0097,0 6.0097,0 6.0097,0 6.0097,0 6.0097,0 6.0097,0 6.0097,0 6.0097,0 6.0097,0 6.0097,0 6.0097,0 6.0097,0 6.0097,0 6.0097,0 6.0096,0 6.0097,0 6.0097,0 6.0097,0 6.0097,0 6.0097,0 6.0097,0 6.0097,0 6.0097,0 6.0097,0 6.0097,0 6.0097,0 6.0097,0 6.0097,0 6.0097,0 6.0097,0 6.0097,0"
     id="path14"
     inkscape:connector-curvature="0" /><path
     style="fill:none;stroke:#000000;stroke-width:2.67729998;stroke-linecap:butt;stroke-linejoin:miter;stroke-dasharray:none"
     d="m 89.244,505.716 594.96,0"
     id="path16"
     inkscape:connector-curvature="0" /><path
     style="fill:none;stroke:#000000;stroke-width:2.67729998;stroke-linecap:butt;stroke-linejoin:miter;stroke-dasharray:none"
     d="m 89.244,89.244 594.96,0"
     id="path18"
     inkscape:connector-curvature="0" /><path
     style="fill:none;stroke:#000000;stroke-width:2.23110008;stroke-linecap:butt;stroke-linejoin:miter;stroke-dasharray:none"
     d="m 89.244,505.716 0,-11.8992"
     id="path22"
     inkscape:connector-curvature="0" /><path
     style="fill:none;stroke:#000000;stroke-width:2.23110008;stroke-linecap:butt;stroke-linejoin:miter;stroke-dasharray:none"
     d="m 89.244,89.244 0,11.8992"
     id="path24"
     inkscape:connector-curvature="0" /><path
     style="fill:none;stroke:#000000;stroke-width:2.23110008;stroke-linecap:butt;stroke-linejoin:miter;stroke-dasharray:none"
     d="m 188.404,505.716 0,-11.8992"
     id="path26"
     inkscape:connector-curvature="0" /><path
     style="fill:none;stroke:#000000;stroke-width:2.23110008;stroke-linecap:butt;stroke-linejoin:miter;stroke-dasharray:none"
     d="m 188.404,89.244 0,11.8992"
     id="path28"
     inkscape:connector-curvature="0" /><path
     style="fill:none;stroke:#000000;stroke-width:2.23110008;stroke-linecap:butt;stroke-linejoin:miter;stroke-dasharray:none"
     d="m 287.564,505.716 0,-11.8992"
     id="path30"
     inkscape:connector-curvature="0" /><path
     style="fill:none;stroke:#000000;stroke-width:2.23110008;stroke-linecap:butt;stroke-linejoin:miter;stroke-dasharray:none"
     d="m 287.564,89.244 0,11.8992"
     id="path32"
     inkscape:connector-curvature="0" /><path
     style="fill:none;stroke:#000000;stroke-width:2.23110008;stroke-linecap:butt;stroke-linejoin:miter;stroke-dasharray:none"
     d="m 386.724,505.716 0,-11.8992"
     id="path34"
     inkscape:connector-curvature="0" /><path
     style="fill:none;stroke:#000000;stroke-width:2.23110008;stroke-linecap:butt;stroke-linejoin:miter;stroke-dasharray:none"
     d="m 386.724,89.244 0,11.8992"
     id="path36"
     inkscape:connector-curvature="0" /><path
     style="fill:none;stroke:#000000;stroke-width:2.23110008;stroke-linecap:butt;stroke-linejoin:miter;stroke-dasharray:none"
     d="m 485.884,505.716 0,-11.8992"
     id="path38"
     inkscape:connector-curvature="0" /><path
     style="fill:none;stroke:#000000;stroke-width:2.23110008;stroke-linecap:butt;stroke-linejoin:miter;stroke-dasharray:none"
     d="m 485.884,89.244 0,11.8992"
     id="path40"
     inkscape:connector-curvature="0" /><path
     style="fill:none;stroke:#000000;stroke-width:2.23110008;stroke-linecap:butt;stroke-linejoin:miter;stroke-dasharray:none"
     d="m 585.044,505.716 0,-11.8992"
     id="path42"
     inkscape:connector-curvature="0" /><path
     style="fill:none;stroke:#000000;stroke-width:2.23110008;stroke-linecap:butt;stroke-linejoin:miter;stroke-dasharray:none"
     d="m 585.044,89.244 0,11.8992"
     id="path44"
     inkscape:connector-curvature="0" /><text
     style="font-size:16.65888023px;font-style:normal;font-weight:normal;fill:#000000;fill-rule:nonzero"
     id="text48"
     x="79.764"
     y="522.94562">$1,1$</text>
<text
     style="font-size:16.65888023px;font-style:normal;font-weight:normal;fill:#000000;fill-rule:nonzero"
     id="text50"
     x="178.20399"
     y="522.94562">$1,2$</text>
<text
     style="font-size:16.65888023px;font-style:normal;font-weight:normal;fill:#000000;fill-rule:nonzero"
     id="text52"
     x="277.724"
     y="522.94562">$1,3$</text>
<text
     style="font-size:16.65888023px;font-style:normal;font-weight:normal;fill:#000000;fill-rule:nonzero"
     id="text54"
     x="376.52399"
     y="522.94562">$1,4$</text>
<text
     style="font-size:16.65888023px;font-style:normal;font-weight:normal;fill:#000000;fill-rule:nonzero"
     id="text56"
     x="476.04401"
     y="523.18561">$1,5$</text>
<text
     style="font-size:16.65888023px;font-style:normal;font-weight:normal;fill:#000000;fill-rule:nonzero"
     id="text58"
     x="574.96399"
     y="522.94562">$1,6$</text>
<path
     style="fill:none;stroke:#000000;stroke-width:2.67729998;stroke-linecap:butt;stroke-linejoin:miter;stroke-dasharray:none"
     d="m 89.244,505.716 0,-416.472"
     id="path62"
     inkscape:connector-curvature="0" /><path
     style="fill:none;stroke:#000000;stroke-width:2.67729998;stroke-linecap:butt;stroke-linejoin:miter;stroke-dasharray:none"
     d="m 684.204,505.716 0,-416.472"
     id="path64"
     inkscape:connector-curvature="0" /><path
     style="fill:none;stroke:#000000;stroke-width:2.23110008;stroke-linecap:butt;stroke-linejoin:miter;stroke-dasharray:none"
     d="m 89.244,505.716 11.8992,0"
     id="path68"
     inkscape:connector-curvature="0" /><path
     style="fill:none;stroke:#000000;stroke-width:2.23110008;stroke-linecap:butt;stroke-linejoin:miter;stroke-dasharray:none"
     d="m 684.204,505.716 -11.8992,0"
     id="path70"
     inkscape:connector-curvature="0" /><path
     style="fill:none;stroke:#000000;stroke-width:2.23110008;stroke-linecap:butt;stroke-linejoin:miter;stroke-dasharray:none"
     d="m 89.244,436.304 11.8992,0"
     id="path72"
     inkscape:connector-curvature="0" /><path
     style="fill:none;stroke:#000000;stroke-width:2.23110008;stroke-linecap:butt;stroke-linejoin:miter;stroke-dasharray:none"
     d="m 684.204,436.304 -11.8992,0"
     id="path74"
     inkscape:connector-curvature="0" /><path
     style="fill:none;stroke:#000000;stroke-width:2.23110008;stroke-linecap:butt;stroke-linejoin:miter;stroke-dasharray:none"
     d="m 89.244,366.892 11.8992,0"
     id="path76"
     inkscape:connector-curvature="0" /><path
     style="fill:none;stroke:#000000;stroke-width:2.23110008;stroke-linecap:butt;stroke-linejoin:miter;stroke-dasharray:none"
     d="m 684.204,366.892 -11.8992,0"
     id="path78"
     inkscape:connector-curvature="0" /><path
     style="fill:none;stroke:#000000;stroke-width:2.23110008;stroke-linecap:butt;stroke-linejoin:miter;stroke-dasharray:none"
     d="m 89.244,297.48 11.8992,0"
     id="path80"
     inkscape:connector-curvature="0" /><path
     style="fill:none;stroke:#000000;stroke-width:2.23110008;stroke-linecap:butt;stroke-linejoin:miter;stroke-dasharray:none"
     d="m 684.204,297.48 -11.8992,0"
     id="path82"
     inkscape:connector-curvature="0" /><path
     style="fill:none;stroke:#000000;stroke-width:2.23110008;stroke-linecap:butt;stroke-linejoin:miter;stroke-dasharray:none"
     d="m 89.244,228.068 11.8992,0"
     id="path84"
     inkscape:connector-curvature="0" /><path
     style="fill:none;stroke:#000000;stroke-width:2.23110008;stroke-linecap:butt;stroke-linejoin:miter;stroke-dasharray:none"
     d="m 684.204,228.068 -11.8992,0"
     id="path86"
     inkscape:connector-curvature="0" /><path
     style="fill:none;stroke:#000000;stroke-width:2.23110008;stroke-linecap:butt;stroke-linejoin:miter;stroke-dasharray:none"
     d="m 89.244,158.656 11.8992,0"
     id="path88"
     inkscape:connector-curvature="0" /><path
     style="fill:none;stroke:#000000;stroke-width:2.23110008;stroke-linecap:butt;stroke-linejoin:miter;stroke-dasharray:none"
     d="m 684.204,158.656 -11.8992,0"
     id="path90"
     inkscape:connector-curvature="0" /><path
     style="fill:none;stroke:#000000;stroke-width:2.23110008;stroke-linecap:butt;stroke-linejoin:miter;stroke-dasharray:none"
     d="m 89.244,89.244 11.8992,0"
     id="path92"
     inkscape:connector-curvature="0" /><path
     style="fill:none;stroke:#000000;stroke-width:2.23110008;stroke-linecap:butt;stroke-linejoin:miter;stroke-dasharray:none"
     d="m 684.204,89.244 -11.8992,0"
     id="path94"
     inkscape:connector-curvature="0" /><text
     style="font-size:16.65888023px;font-style:normal;font-weight:normal;fill:#000000;fill-rule:nonzero"
     id="text98"
     x="61.454399"
     y="511.23599">$-30$</text>
<text
     style="font-size:16.65888023px;font-style:normal;font-weight:normal;fill:#000000;fill-rule:nonzero"
     id="text100"
     x="61.454399"
     y="441.82401">$-20$</text>
<text
     style="font-size:16.65888023px;font-style:normal;font-weight:normal;fill:#000000;fill-rule:nonzero"
     id="text102"
     x="61.454399"
     y="372.41199">$-10$</text>
<text
     style="font-size:16.65888023px;font-style:normal;font-weight:normal;fill:#000000;fill-rule:nonzero"
     id="text104"
     x="75.374397"
     y="303">$0$</text>
<text
     style="font-size:16.65888023px;font-style:normal;font-weight:normal;fill:#000000;fill-rule:nonzero"
     id="text106"
     x="66.974403"
     y="233.588">$10$</text>
<text
     style="font-size:16.65888023px;font-style:normal;font-weight:normal;fill:#000000;fill-rule:nonzero"
     id="text108"
     x="66.974403"
     y="164.17599">$20$</text>
<text
     style="font-size:16.65888023px;font-style:normal;font-weight:normal;fill:#000000;fill-rule:nonzero"
     id="text110"
     x="66.974403"
     y="94.764">$30$</text>
<path
     style="fill:none;stroke:#000000;stroke-width:0.89240003;stroke-linecap:butt;stroke-linejoin:miter;stroke-dasharray:none"
     d="m 89.244,505.716 0,-416.472 594.96,0 0,416.472 z"
     id="path114"
     inkscape:connector-curvature="0" /><text
     style="font-size:16.68849564px;font-style:normal;font-weight:normal;fill:#000000;fill-rule:nonzero"
     id="text58-3"
     x="670.03278"
     y="523.87549"
     transform="scale(1.0017779,0.9982253)">$1,7$</text>
<path
     style="fill:none;stroke:#000000;stroke-width:2.6800108;stroke-linecap:butt;stroke-linejoin:miter;stroke-miterlimit:4;stroke-opacity:1"
     d="M 112.11099,469.10584 C 181.67324,378.13438 260.2544,341.16317 345.4601,296.73917 c 85.2057,-44.424 240.00676,-96.23514 316.35873,-110.44355"
     id="path3215"
     inkscape:connector-curvature="0"
     sodipodi:nodetypes="czc" /><path
     style="fill:none;stroke:#000000;stroke-width:2.6000104;stroke-linecap:butt;stroke-linejoin:miter;stroke-miterlimit:4;stroke-opacity:1;stroke-dasharray:none"
     d="m 111.38769,315.76628 c 74.65283,7.2072 157.87477,11.80424 248.48812,21.53367 90.61336,9.72942 193.6235,15.74876 303.68984,27.83389"
     id="path3992"
     inkscape:connector-curvature="0"
     sodipodi:nodetypes="czc" /><path
     style="fill:none;stroke:#ff0000;stroke-width:2.60001041;stroke-linecap:butt;stroke-linejoin:miter;stroke-opacity:1;stroke-miterlimit:4;stroke-dasharray:none"
     inkscape:path-effect="#path-effect4005"
     inkscape:original-d="M 110.66439,492.97473 C 204.71952,434.75756 292.01807,382.71943 374.697,323.21647 457.37594,263.71351 569.14743,271.00797 661.09553,252.11573"
     id="path4003"
     d="M 110.66439,492.97473 C 188.26333,422.04304 277.95599,364.37565 374.697,323.21647 465.59171,284.54464 562.66796,260.44468 661.09553,252.11573"
     inkscape:connector-curvature="0"
     sodipodi:nodetypes="czc" /><text
     xml:space="preserve"
     style="font-size:44.80017853px;font-style:normal;font-variant:normal;font-weight:normal;font-stretch:normal;line-height:125%;letter-spacing:0px;word-spacing:0px;fill:#000000;fill-opacity:1;stroke:none;font-family:Nimbus Sans L;-inkscape-font-specification:Sans"
     x="600.33838"
     y="351.93127"
     id="text4742"
     sodipodi:linespacing="125%"><tspan
       sodipodi:role="line"
       id="tspan4744"
       x="600.33838"
       y="351.93127"
       style="font-size:14.40005779px">$D_v$</tspan></text>
<text
     xml:space="preserve"
     style="font-size:44.80017853px;font-style:normal;font-variant:normal;font-weight:normal;font-stretch:normal;line-height:125%;letter-spacing:0px;word-spacing:0px;fill:#000000;fill-opacity:1;stroke:none;font-family:Nimbus Sans L;-inkscape-font-specification:Sans"
     x="113.02395"
     y="411.17886"
     id="text4742-6"
     sodipodi:linespacing="125%"><tspan
       sodipodi:role="line"
       id="tspan4744-7"
       x="113.02395"
       y="411.17886"
       style="font-size:14.40005779px">$D_m$</tspan></text>
<text
     xml:space="preserve"
     style="font-size:44.80017853px;font-style:normal;font-variant:normal;font-weight:normal;font-stretch:normal;line-height:125%;letter-spacing:0px;word-spacing:0px;fill:#000000;fill-opacity:1;stroke:none;font-family:Nimbus Sans L;-inkscape-font-specification:Sans"
     x="610.65417"
     y="245.54323"
     id="text4742-5"
     sodipodi:linespacing="125%"><tspan
       sodipodi:role="line"
       id="tspan4744-3"
       x="610.65417"
       y="245.54323"
       style="font-size:14.40005779px">$D$</tspan></text>
</svg>