<?xml version="1.0" encoding="UTF-8" standalone="no"?>
<!-- generated by Grace-5.1.23 -->

<svg
   xmlns:dc="http://purl.org/dc/elements/1.1/"
   xmlns:cc="http://creativecommons.org/ns#"
   xmlns:rdf="http://www.w3.org/1999/02/22-rdf-syntax-ns#"
   xmlns:svg="http://www.w3.org/2000/svg"
   xmlns="http://www.w3.org/2000/svg"
   xmlns:sodipodi="http://sodipodi.sourceforge.net/DTD/sodipodi-0.dtd"
   xmlns:inkscape="http://www.inkscape.org/namespaces/inkscape"
   xml:space="preserve"
   width="818.61218"
   height="554.40637"
   viewBox="0 0 654.89163 443.52687"
   id="svg2"
   version="1.1"
   inkscape:version="0.92.3 (2405546, 2018-03-11)"
   sodipodi:docname="10_Zero.svg"><metadata
   id="metadata120"><rdf:RDF><cc:Work
       rdf:about=""><dc:format>image/svg+xml</dc:format><dc:type
         rdf:resource="http://purl.org/dc/dcmitype/StillImage" /><dc:title></dc:title></cc:Work></rdf:RDF></metadata><defs
   id="defs118"><inkscape:path-effect
     effect="spiro"
     id="path-effect4005"
     is_visible="true" /><inkscape:path-effect
     effect="spiro"
     id="path-effect3994"
     is_visible="true" /><inkscape:path-effect
     effect="spiro"
     id="path-effect3217"
     is_visible="true" /></defs><sodipodi:namedview
   pagecolor="#ffffff"
   bordercolor="#666666"
   borderopacity="1"
   objecttolerance="10"
   gridtolerance="10"
   guidetolerance="10"
   inkscape:pageopacity="0"
   inkscape:pageshadow="2"
   inkscape:window-width="1303"
   inkscape:window-height="826"
   id="namedview116"
   showgrid="false"
   inkscape:zoom="0.98173642"
   inkscape:cx="531.79298"
   inkscape:cy="271.863"
   inkscape:window-x="797"
   inkscape:window-y="180"
   inkscape:window-maximized="0"
   inkscape:current-layer="svg2"
   fit-margin-top="0"
   fit-margin-left="0"
   fit-margin-right="0"
   fit-margin-bottom="0" /><path
   style="fill:none;stroke:#909090;stroke-width:2.67761064;stroke-linecap:butt;stroke-linejoin:miter;stroke-miterlimit:4;stroke-opacity:1;stroke-dasharray:2.67761072, 5.35522145;stroke-dashoffset:0"
   d="m 26.406309,215.37284 6.0097,0 6.0097,0 6.0097,0 6.0097,0 6.0097,0 6.0097,0 6.0097,0 6.0097,0 6.0097,0 6.0097,0 6.0097,0 6.0097,0 6.009701,0 6.0097,0 6.0097,0 6.0097,0 6.0096,0 6.0097,0 6.0097,0 6.0097,0 6.0097,0 6.0097,0 6.0097,0 6.0097,0 6.0097,0 6.0097,0 6.0097,0 6.0097,0 6.0097,0 6.0097,0 6.0097,0 6.0097,0 6.0097,0 6.0097,0 6.0097,0 6.0097,0 6.0097,0 6.0097,0 6.0097,0 6.0097,0 6.0097,0 6.0097,0 6.0097,0 6.0097,0 6.0097,0 6.0097,0 6.0097,0 6.0097,0 6.0097,0 6.0096,0 6.0097,0 6.0097,0 6.0097,0 6.0097,0 6.0097,0 6.0097,0 6.0097,0 6.0097,0 6.0097,0 6.0097,0 6.0097,0 6.0097,0 6.0097,0 6.0097,0 6.0097,0 6.0097,0 6.0097,0 6.0097,0 6.0097,0 6.0097,0 6.0097,0 6.0097,0 6.0097,0 6.0097,0 6.0097,0 6.0097,0 6.0097,0 6.0097,0 6.0097,0 6.0097,0 6.0097,0 6.0097,0 6.0096,0 6.0097,0 6.0097,0 6.0097,0 6.0097,0 6.0097,0 6.0097,0 6.0097,0 6.0097,0 6.0097,0 6.0097,0 6.0097,0 6.0097,0 6.0097,0 6.0097,0 6.0097,0 6.0097,0"
   id="path14"
   inkscape:connector-curvature="0" /><path
   style="fill:none;stroke:#000000;stroke-width:2.67729998;stroke-linecap:butt;stroke-linejoin:miter;stroke-dasharray:none"
   d="m 26.406309,423.60884 594.960001,0"
   id="path16"
   inkscape:connector-curvature="0" /><path
   style="fill:none;stroke:#000000;stroke-width:2.67729998;stroke-linecap:butt;stroke-linejoin:miter;stroke-dasharray:none"
   d="m 26.406309,7.1368446 594.960001,0"
   id="path18"
   inkscape:connector-curvature="0" /><path
   style="fill:none;stroke:#000000;stroke-width:2.23110008;stroke-linecap:butt;stroke-linejoin:miter;stroke-dasharray:none"
   d="m 26.406309,423.60884 0,-11.8992"
   id="path22"
   inkscape:connector-curvature="0" /><path
   style="fill:none;stroke:#000000;stroke-width:2.23110008;stroke-linecap:butt;stroke-linejoin:miter;stroke-dasharray:none"
   d="m 26.406309,7.1368446 0,11.8992004"
   id="path24"
   inkscape:connector-curvature="0" /><path
   style="fill:none;stroke:#000000;stroke-width:2.23110008;stroke-linecap:butt;stroke-linejoin:miter;stroke-dasharray:none"
   d="m 125.56631,423.60884 0,-11.8992"
   id="path26"
   inkscape:connector-curvature="0" /><path
   style="fill:none;stroke:#000000;stroke-width:2.23110008;stroke-linecap:butt;stroke-linejoin:miter;stroke-dasharray:none"
   d="m 125.56631,7.1368446 0,11.8992004"
   id="path28"
   inkscape:connector-curvature="0" /><path
   style="fill:none;stroke:#000000;stroke-width:2.23110008;stroke-linecap:butt;stroke-linejoin:miter;stroke-dasharray:none"
   d="m 224.72631,423.60884 0,-11.8992"
   id="path30"
   inkscape:connector-curvature="0" /><path
   style="fill:none;stroke:#000000;stroke-width:2.23110008;stroke-linecap:butt;stroke-linejoin:miter;stroke-dasharray:none"
   d="m 224.72631,7.1368446 0,11.8992004"
   id="path32"
   inkscape:connector-curvature="0" /><path
   style="fill:none;stroke:#000000;stroke-width:2.23110008;stroke-linecap:butt;stroke-linejoin:miter;stroke-dasharray:none"
   d="m 323.88631,423.60884 0,-11.8992"
   id="path34"
   inkscape:connector-curvature="0" /><path
   style="fill:none;stroke:#000000;stroke-width:2.23110008;stroke-linecap:butt;stroke-linejoin:miter;stroke-dasharray:none"
   d="m 323.88631,7.1368446 0,11.8992004"
   id="path36"
   inkscape:connector-curvature="0" /><path
   style="fill:none;stroke:#000000;stroke-width:2.23110008;stroke-linecap:butt;stroke-linejoin:miter;stroke-dasharray:none"
   d="m 423.04631,423.60884 0,-11.8992"
   id="path38"
   inkscape:connector-curvature="0" /><path
   style="fill:none;stroke:#000000;stroke-width:2.23110008;stroke-linecap:butt;stroke-linejoin:miter;stroke-dasharray:none"
   d="m 423.04631,7.1368446 0,11.8992004"
   id="path40"
   inkscape:connector-curvature="0" /><path
   style="fill:none;stroke:#000000;stroke-width:2.23110008;stroke-linecap:butt;stroke-linejoin:miter;stroke-dasharray:none"
   d="m 522.20631,423.60884 0,-11.8992"
   id="path42"
   inkscape:connector-curvature="0" /><path
   style="fill:none;stroke:#000000;stroke-width:2.23110008;stroke-linecap:butt;stroke-linejoin:miter;stroke-dasharray:none"
   d="m 522.20631,7.1368446 0,11.8992004"
   id="path44"
   inkscape:connector-curvature="0" /><path
   style="fill:none;stroke:#000000;stroke-width:2.67729998;stroke-linecap:butt;stroke-linejoin:miter;stroke-dasharray:none"
   d="m 26.406309,423.60884 0,-416.4719954"
   id="path62"
   inkscape:connector-curvature="0" /><path
   style="fill:none;stroke:#000000;stroke-width:2.67729998;stroke-linecap:butt;stroke-linejoin:miter;stroke-dasharray:none"
   d="m 621.36631,423.60884 0,-416.4719954"
   id="path64"
   inkscape:connector-curvature="0" /><path
   style="fill:none;stroke:#000000;stroke-width:2.23110008;stroke-linecap:butt;stroke-linejoin:miter;stroke-dasharray:none"
   d="m 26.406309,423.60884 11.8992,0"
   id="path68"
   inkscape:connector-curvature="0" /><path
   style="fill:none;stroke:#000000;stroke-width:2.23110008;stroke-linecap:butt;stroke-linejoin:miter;stroke-dasharray:none"
   d="m 621.36631,423.60884 -11.8992,0"
   id="path70"
   inkscape:connector-curvature="0" /><path
   style="fill:none;stroke:#000000;stroke-width:2.23110008;stroke-linecap:butt;stroke-linejoin:miter;stroke-dasharray:none"
   d="m 26.406309,354.19684 11.8992,0"
   id="path72"
   inkscape:connector-curvature="0" /><path
   style="fill:none;stroke:#000000;stroke-width:2.23110008;stroke-linecap:butt;stroke-linejoin:miter;stroke-dasharray:none"
   d="m 621.36631,354.19684 -11.8992,0"
   id="path74"
   inkscape:connector-curvature="0" /><path
   style="fill:none;stroke:#000000;stroke-width:2.23110008;stroke-linecap:butt;stroke-linejoin:miter;stroke-dasharray:none"
   d="m 26.406309,284.78484 11.8992,0"
   id="path76"
   inkscape:connector-curvature="0" /><path
   style="fill:none;stroke:#000000;stroke-width:2.23110008;stroke-linecap:butt;stroke-linejoin:miter;stroke-dasharray:none"
   d="m 621.36631,284.78484 -11.8992,0"
   id="path78"
   inkscape:connector-curvature="0" /><path
   style="fill:none;stroke:#000000;stroke-width:2.23110008;stroke-linecap:butt;stroke-linejoin:miter;stroke-dasharray:none"
   d="m 26.406309,215.37284 11.8992,0"
   id="path80"
   inkscape:connector-curvature="0" /><path
   style="fill:none;stroke:#000000;stroke-width:2.23110008;stroke-linecap:butt;stroke-linejoin:miter;stroke-dasharray:none"
   d="m 621.36631,215.37284 -11.8992,0"
   id="path82"
   inkscape:connector-curvature="0" /><path
   style="fill:none;stroke:#000000;stroke-width:2.23110008;stroke-linecap:butt;stroke-linejoin:miter;stroke-dasharray:none"
   d="m 26.406309,145.96084 11.8992,0"
   id="path84"
   inkscape:connector-curvature="0" /><path
   style="fill:none;stroke:#000000;stroke-width:2.23110008;stroke-linecap:butt;stroke-linejoin:miter;stroke-dasharray:none"
   d="m 621.36631,145.96084 -11.8992,0"
   id="path86"
   inkscape:connector-curvature="0" /><path
   style="fill:none;stroke:#000000;stroke-width:2.23110008;stroke-linecap:butt;stroke-linejoin:miter;stroke-dasharray:none"
   d="m 26.406309,76.548845 11.8992,0"
   id="path88"
   inkscape:connector-curvature="0" /><path
   style="fill:none;stroke:#000000;stroke-width:2.23110008;stroke-linecap:butt;stroke-linejoin:miter;stroke-dasharray:none"
   d="m 621.36631,76.548845 -11.8992,0"
   id="path90"
   inkscape:connector-curvature="0" /><path
   style="fill:none;stroke:#000000;stroke-width:2.23110008;stroke-linecap:butt;stroke-linejoin:miter;stroke-dasharray:none"
   d="m 26.406309,7.1368446 11.8992,0"
   id="path92"
   inkscape:connector-curvature="0" /><path
   style="fill:none;stroke:#000000;stroke-width:2.23110008;stroke-linecap:butt;stroke-linejoin:miter;stroke-dasharray:none"
   d="m 621.36631,7.1368446 -11.8992,0"
   id="path94"
   inkscape:connector-curvature="0" /><path
   style="fill:none;stroke:#000000;stroke-width:0.89240003;stroke-linecap:butt;stroke-linejoin:miter;stroke-dasharray:none"
   d="m 26.406309,423.60884 0,-416.4719954 594.960001,0 0,416.4719954 z"
   id="path114"
   inkscape:connector-curvature="0" /><path
   style="fill:none;stroke:#000000;stroke-width:2.6800108;stroke-linecap:butt;stroke-linejoin:miter;stroke-miterlimit:4;stroke-opacity:1"
   d="M 49.273299,386.99868 C 118.83555,296.02722 197.41671,259.05601 282.62241,214.63201 c 85.2057,-44.424 240.00676,-96.23514 316.35873,-110.44355"
   id="path3215"
   inkscape:connector-curvature="0"
   sodipodi:nodetypes="czc" /><path
   style="fill:none;stroke:#000000;stroke-width:2.6000104;stroke-linecap:butt;stroke-linejoin:miter;stroke-miterlimit:4;stroke-opacity:1;stroke-dasharray:none"
   d="m 48.549999,233.65912 c 74.652831,7.2072 157.874771,11.80424 248.488121,21.53367 90.61336,9.72942 193.6235,15.74876 303.68984,27.83389"
   id="path3992"
   inkscape:connector-curvature="0"
   sodipodi:nodetypes="czc" /><path
   style="fill:none;stroke:#d40000;stroke-width:2.6000104;stroke-linecap:butt;stroke-linejoin:miter;stroke-miterlimit:4;stroke-opacity:1;stroke-dasharray:none"
   inkscape:path-effect="#path-effect4005"
   inkscape:original-d="M 47.826699,410.86757 C 141.88183,352.6504 229.18038,300.61227 311.85931,241.10931 c 82.67894,-59.50296 194.45043,-52.2085 286.39853,-71.10074"
   id="path4003"
   d="M 47.826699,410.86757 C 125.42564,339.93588 215.1183,282.26849 311.85931,241.10931 402.75402,202.43748 499.83027,178.33752 598.25784,170.00857"
   inkscape:connector-curvature="0"
   sodipodi:nodetypes="czc" /><text
   style="font-style:normal;font-weight:normal;font-size:16.65888023px;line-height:0%;fill:#000000;fill-rule:nonzero"
   id="text48"
   x="0.92624468"
   y="452.03851">$1100$</text>


<text
   style="font-style:normal;font-weight:normal;font-size:16.65888023px;line-height:0%;fill:#000000;fill-rule:nonzero"
   id="text50"
   x="99.366211"
   y="452.03851">$1200$</text>


<text
   style="font-style:normal;font-weight:normal;font-size:16.65888023px;line-height:0%;fill:#000000;fill-rule:nonzero"
   id="text52"
   x="198.88625"
   y="452.03851">$1300$</text>


<text
   style="font-style:normal;font-weight:normal;font-size:16.65888023px;line-height:0%;fill:#000000;fill-rule:nonzero"
   id="text54"
   x="297.68625"
   y="452.03851">$1400$</text>


<text
   style="font-style:normal;font-weight:normal;font-size:16.65888023px;line-height:0%;fill:#000000;fill-rule:nonzero"
   id="text56"
   x="397.20627"
   y="452.2785">$1500$</text>


<text
   style="font-style:normal;font-weight:normal;font-size:16.65888023px;line-height:0%;fill:#000000;fill-rule:nonzero"
   id="text58"
   x="496.12622"
   y="452.03851">$1600$</text>


<text
   style="font-style:normal;font-weight:normal;font-size:16.65888023px;line-height:0%;fill:#000000;fill-rule:nonzero"
   id="text98"
   x="-30.183405"
   y="429.12885">$-30$</text>


<text
   style="font-style:normal;font-weight:normal;font-size:16.65888023px;line-height:0%;fill:#000000;fill-rule:nonzero"
   id="text100"
   x="-30.183405"
   y="359.71686">$-20$</text>


<text
   style="font-style:normal;font-weight:normal;font-size:16.65888023px;line-height:0%;fill:#000000;fill-rule:nonzero"
   id="text102"
   x="-30.183405"
   y="290.30484">$-10$</text>


<text
   style="font-style:normal;font-weight:normal;font-size:16.65888023px;line-height:0%;fill:#000000;fill-rule:nonzero"
   id="text104"
   x="1.3366613"
   y="220.89284">$0$</text>


<text
   style="font-style:normal;font-weight:normal;font-size:16.65888023px;line-height:0%;fill:#000000;fill-rule:nonzero"
   id="text106"
   x="-11.863352"
   y="151.48083">$10$</text>


<text
   style="font-style:normal;font-weight:normal;font-size:16.65888023px;line-height:0%;fill:#000000;fill-rule:nonzero"
   id="text108"
   x="-11.863352"
   y="82.06884">$20$</text>


<text
   style="font-style:normal;font-weight:normal;font-size:16.65888023px;line-height:0%;fill:#000000;fill-rule:nonzero"
   id="text110"
   x="-11.863352"
   y="12.656844">$30$</text>


<text
   style="font-style:normal;font-weight:normal;font-size:16.68849564px;line-height:0%;fill:#000000;fill-rule:nonzero"
   id="text58-3"
   x="591.33496"
   y="452.84229"
   transform="scale(1.0017779,0.99822526)">$1700$</text>


<text
   xml:space="preserve"
   style="font-style:normal;font-variant:normal;font-weight:normal;font-stretch:normal;line-height:0%;font-family:'Nimbus Sans L';-inkscape-font-specification:Sans;letter-spacing:0px;word-spacing:0px;fill:#000000;fill-opacity:1;stroke:none"
   x="535.53296"
   y="269.82413"
   id="text4742"><tspan
     sodipodi:role="line"
     id="tspan4744"
     x="535.53296"
     y="269.82413"
     style="font-size:14.40005779px;line-height:1.25">$D_v$</tspan></text>


<text
   xml:space="preserve"
   style="font-style:normal;font-variant:normal;font-weight:normal;font-stretch:normal;line-height:0%;font-family:'Nimbus Sans L';-inkscape-font-specification:Sans;letter-spacing:0px;word-spacing:0px;fill:#000000;fill-opacity:1;stroke:none"
   x="535.53296"
   y="96.014343"
   id="text4742-6"><tspan
     sodipodi:role="line"
     id="tspan4744-7"
     x="535.53296"
     y="96.014343"
     style="font-size:14.40005779px;line-height:1.25">$D_m$</tspan></text>


<text
   xml:space="preserve"
   style="font-style:normal;font-variant:normal;font-weight:normal;font-stretch:normal;line-height:0%;font-family:'Nimbus Sans L';-inkscape-font-specification:Sans;letter-spacing:0px;word-spacing:0px;fill:#000000;fill-opacity:1;stroke:none"
   x="535.53296"
   y="163.43607"
   id="text4742-5"><tspan
     sodipodi:role="line"
     id="tspan4744-3"
     x="535.53296"
     y="163.43607"
     style="font-size:14.40005779px;line-height:1.25">$D$</tspan></text>


<text
   style="font-style:normal;font-weight:normal;font-size:16.68849564px;line-height:0%;fill:#000000;fill-rule:nonzero"
   id="text58-3-3"
   x="662.09741"
   y="453.35898"
   transform="scale(1.0017779,0.99822526)">$\lambda \mathrm{[nm]}$</text>


<text
   xml:space="preserve"
   style="font-style:normal;font-variant:normal;font-weight:normal;font-stretch:normal;line-height:0%;font-family:'Nimbus Sans L';-inkscape-font-specification:Sans;letter-spacing:0px;word-spacing:0px;fill:#000000;fill-opacity:1;stroke:none"
   x="-96.450356"
   y="40.177246"
   id="text4742-5-6"><tspan
     sodipodi:role="line"
     id="tspan4744-3-7"
     x="-96.450356"
     y="40.177246"
     style="font-size:14.40005875px;line-height:1.25">ps /nm km</tspan></text>


</svg>