<?xml version="1.0" encoding="UTF-8" standalone="no"?>
<!-- generated by Grace-5.1.25 -->

<svg
   xmlns:dc="http://purl.org/dc/elements/1.1/"
   xmlns:cc="http://creativecommons.org/ns#"
   xmlns:rdf="http://www.w3.org/1999/02/22-rdf-syntax-ns#"
   xmlns:svg="http://www.w3.org/2000/svg"
   xmlns="http://www.w3.org/2000/svg"
   xmlns:sodipodi="http://sodipodi.sourceforge.net/DTD/sodipodi-0.dtd"
   xmlns:inkscape="http://www.inkscape.org/namespaces/inkscape"
   xml:space="preserve"
   width="8.8051796in"
   height="6.2070789in"
   viewBox="0 0 633.97472 446.91149"
   id="svg2"
   version="1.1"
   inkscape:version="0.92.3 (2405546, 2018-03-11)"
   sodipodi:docname="11_ShemaTermKv.svg"><metadata
   id="metadata50"><rdf:RDF><cc:Work
       rdf:about=""><dc:format>image/svg+xml</dc:format><dc:type
         rdf:resource="http://purl.org/dc/dcmitype/StillImage" /><dc:title></dc:title></cc:Work></rdf:RDF></metadata><defs
   id="defs48"><marker
     inkscape:isstock="true"
     style="overflow:visible;"
     id="marker6005"
     refX="0.0"
     refY="0.0"
     orient="auto"
     inkscape:stockid="Arrow1Mend"><path
       transform="scale(0.4) rotate(180) translate(10,0)"
       style="fill-rule:evenodd;stroke:#000000;stroke-width:1pt;stroke-opacity:1;fill:#000000;fill-opacity:1"
       d="M 0.0,0.0 L 5.0,-5.0 L -12.5,0.0 L 5.0,5.0 L 0.0,0.0 z "
       id="path6007" /></marker><marker
     inkscape:stockid="Arrow1Lend"
     orient="auto"
     refY="0.0"
     refX="0.0"
     id="Arrow1Lend"
     style="overflow:visible;"
     inkscape:isstock="true"><path
       id="path4161"
       d="M 0.0,0.0 L 5.0,-5.0 L -12.5,0.0 L 5.0,5.0 L 0.0,0.0 z "
       style="fill-rule:evenodd;stroke:#000000;stroke-width:1pt;stroke-opacity:1;fill:#000000;fill-opacity:1"
       transform="scale(0.8) rotate(180) translate(12.5,0)" /></marker><marker
     inkscape:stockid="Arrow1Mend"
     orient="auto"
     refY="0.0"
     refX="0.0"
     id="Arrow1Mend"
     style="overflow:visible;"
     inkscape:isstock="true"
     inkscape:collect="always"><path
       id="path4167"
       d="M 0.0,0.0 L 5.0,-5.0 L -12.5,0.0 L 5.0,5.0 L 0.0,0.0 z "
       style="fill-rule:evenodd;stroke:#000000;stroke-width:1pt;stroke-opacity:1;fill:#000000;fill-opacity:1"
       transform="scale(0.4) rotate(180) translate(10,0)" /></marker><marker
     inkscape:stockid="Arrow1Lend"
     orient="auto"
     refY="0"
     refX="0"
     id="Arrow1Lend-3"
     style="overflow:visible"
     inkscape:isstock="true"><path
       inkscape:connector-curvature="0"
       id="path4161-6"
       d="M 0,0 5,-5 -12.5,0 5,5 0,0 Z"
       style="fill:#000000;fill-opacity:1;fill-rule:evenodd;stroke:#000000;stroke-width:1pt;stroke-opacity:1"
       transform="matrix(-0.8,0,0,-0.8,-10,0)" /></marker></defs><sodipodi:namedview
   pagecolor="#ffffff"
   bordercolor="#666666"
   borderopacity="1"
   objecttolerance="10"
   gridtolerance="10"
   guidetolerance="10"
   inkscape:pageopacity="0"
   inkscape:pageshadow="2"
   inkscape:window-width="1531"
   inkscape:window-height="854"
   id="namedview46"
   showgrid="false"
   fit-margin-top="0"
   fit-margin-left="0"
   fit-margin-right="0"
   fit-margin-bottom="0"
   inkscape:zoom="0.69674848"
   inkscape:cx="157.94738"
   inkscape:cy="314.55523"
   inkscape:window-x="220"
   inkscape:window-y="130"
   inkscape:window-maximized="0"
   inkscape:current-layer="svg2" />


<g
   id="g117"><text
     id="text3349"
     y="411.85312"
     x="570.83765"
     style="font-style:normal;font-variant:normal;font-weight:normal;font-stretch:normal;line-height:0%;font-family:msbm10;-inkscape-font-specification:msbm10;letter-spacing:0px;word-spacing:0px;fill:#000000;fill-opacity:1;stroke:none;stroke-width:1px;stroke-linecap:butt;stroke-linejoin:miter;stroke-opacity:1"
     xml:space="preserve"><tspan
       style="font-style:normal;font-variant:normal;font-weight:normal;font-stretch:normal;font-size:20.00008202px;line-height:1.25;font-family:'Liberation Sans';-inkscape-font-specification:'Liberation Sans'"
       y="411.85312"
       x="570.83765"
       id="tspan3351"
       sodipodi:role="line">$\lambda$</tspan></text>
<text
     id="text3349-6"
     y="50.32095"
     x="-10.160654"
     style="font-style:normal;font-variant:normal;font-weight:normal;font-stretch:normal;line-height:0%;font-family:msbm10;-inkscape-font-specification:msbm10;letter-spacing:0px;word-spacing:0px;fill:#000000;fill-opacity:1;stroke:none;stroke-width:1px;stroke-linecap:butt;stroke-linejoin:miter;stroke-opacity:1"
     xml:space="preserve"><tspan
       style="font-style:normal;font-variant:normal;font-weight:normal;font-stretch:normal;font-size:20.00008202px;line-height:1.25;font-family:'Liberation Sans';-inkscape-font-specification:'Liberation Sans'"
       y="50.32095"
       x="-10.160654"
       id="tspan3351-0"
       sodipodi:role="line">$\mathcal{R}$</tspan></text>
<text
     id="text3347"
     y="57.414375"
     x="346.63943"
     style="font-style:normal;font-variant:normal;font-weight:normal;font-stretch:normal;line-height:0%;font-family:msbm10;-inkscape-font-specification:msbm10;letter-spacing:0px;word-spacing:0px;fill:#000000;fill-opacity:1;stroke:none;stroke-width:1px;stroke-linecap:butt;stroke-linejoin:miter;stroke-opacity:1"
     xml:space="preserve"><tspan
       style="font-style:normal;font-variant:normal;font-weight:normal;font-stretch:normal;font-size:20.00008202px;line-height:1.25;font-family:'Nimbus Sans L';-inkscape-font-specification:'Nimbus Sans L'"
       y="57.414375"
       x="346.63943"
       id="tspan3349"
       sodipodi:role="line">$\textrm{kvantni~detektor}$</tspan></text>
<text
     id="text3347-7"
     y="300.83002"
     x="190.27631"
     style="font-style:normal;font-variant:normal;font-weight:normal;font-stretch:normal;line-height:0%;font-family:msbm10;-inkscape-font-specification:msbm10;letter-spacing:0px;word-spacing:0px;fill:#000000;fill-opacity:1;stroke:none;stroke-width:1px;stroke-linecap:butt;stroke-linejoin:miter;stroke-opacity:1"
     xml:space="preserve"><tspan
       style="font-style:normal;font-variant:normal;font-weight:normal;font-stretch:normal;font-size:20.00008202px;line-height:1.25;font-family:'Nimbus Sans L';-inkscape-font-specification:'Nimbus Sans L'"
       y="300.83002"
       x="190.27631"
       id="tspan3349-0"
       sodipodi:role="line">$\textrm{termi\v cni~detektor}$</tspan></text>
</g>
<g
   id="g124"><g
     transform="matrix(1,0,0,-1,-51.121456,450.6081)"
     style="fill:none;stroke:#d40000;stroke-width:2.40000963;stroke-linecap:butt;stroke-linejoin:miter;stroke-miterlimit:4;stroke-dasharray:none;stroke-opacity:1"
     id="g12"><path
       style="stroke:#d40000;stroke-width:2.40000963;stroke-miterlimit:4;stroke-dasharray:none;stroke-opacity:1"
       d="m 89.244,141.303 6.0097,0 6.0097,0 6.0097,0 6.0097,0 6.0097,0 6.0097,0 6.0097,0 6.0097,0 6.0097,0 6.0097,0 6.0097,0 6.0097,0 6.0097,0 6.0097,0 6.0097,0 6.0097,0 6.0096,0 6.0097,0 6.0097,0 6.0097,0 6.0097,0 6.0097,0 6.0097,0 6.0097,0 6.0097,0 6.0097,0 6.0097,0 6.0097,0 6.0097,0 6.0097,0 6.0097,0 6.0097,0 6.0097,0 6.0097,0 6.0097,0 6.0097,0 6.0097,0 6.0097,0 6.0097,0 6.0097,0 6.0097,0 6.0097,0 6.0097,0 6.0097,0 6.0097,0 6.0097,0 6.0097,0 6.0097,0 6.0097,0 6.0096,0 6.0097,0 6.0097,0 6.0097,0 6.0097,0 6.0097,0 6.0097,0 6.0097,0 6.0097,0 6.0097,0 6.0097,0 6.0097,0 6.0097,0 6.0097,0 6.0097,0 6.0097,0 6.0097,0 6.0097,0 6.0097,0 6.0097,0 6.0097,0 6.0097,0 6.0097,0 6.0097,0 6.0097,0 6.0097,0 6.0097,0 6.0097,0 6.0097,0 6.0097,0 6.0097,0 6.0097,0 6.0097,0 6.0096,0 6.0097,0 6.0097,0 6.0097,0 6.0097,0 6.0097,0 6.0097,0 6.0097,0 6.0097,0 6.0097,0 6.0097,0 6.0097,0 6.0097,0 6.0097,0 6.0097,0 6.0097,0 6.0097,0"
       id="path14"
       inkscape:connector-curvature="0" /></g><path
     sodipodi:nodetypes="czszc"
     inkscape:connector-curvature="0"
     id="path4218"
     d="M 78.808234,355.79316 C 147.21666,273.7511 159.23371,249.92707 231.93236,175.49422 304.63101,101.06136 344.09555,63.11055 417.84167,67.87461 c 34.95329,2.25801 55.46126,73.70288 65.67559,143.23662 10.21433,69.53374 18.91592,125.55551 30.65053,197.59074"
     style="fill:none;fill-rule:evenodd;stroke:#000000;stroke-width:2.80070806;stroke-linecap:butt;stroke-linejoin:miter;stroke-miterlimit:4;stroke-dasharray:none;stroke-opacity:1" /><path
     sodipodi:nodetypes="cc"
     inkscape:connector-curvature="0"
     id="path4152"
     d="M 36.145471,418.48388 631.24076,418.925"
     style="fill:none;fill-rule:evenodd;stroke:#000000;stroke-width:2.00000811;stroke-linecap:butt;stroke-linejoin:miter;stroke-miterlimit:4;stroke-dasharray:none;stroke-opacity:1;marker-end:url(#marker6005)" /><path
     sodipodi:nodetypes="cc"
     inkscape:connector-curvature="0"
     id="path4152-7"
     d="M 36.949531,418.25516 36.508409,5.4068949"
     style="fill:none;fill-rule:evenodd;stroke:#000000;stroke-width:2.0000082;stroke-linecap:butt;stroke-linejoin:miter;stroke-miterlimit:4;stroke-dasharray:none;stroke-opacity:1;marker-end:url(#Arrow1Mend)" /></g></svg>