<?xml version="1.0" encoding="UTF-8" standalone="no"?>
<!-- generated by Grace-5.1.25 -->

<svg
   xmlns:dc="http://purl.org/dc/elements/1.1/"
   xmlns:cc="http://creativecommons.org/ns#"
   xmlns:rdf="http://www.w3.org/1999/02/22-rdf-syntax-ns#"
   xmlns:svg="http://www.w3.org/2000/svg"
   xmlns="http://www.w3.org/2000/svg"
   xmlns:sodipodi="http://sodipodi.sourceforge.net/DTD/sodipodi-0.dtd"
   xmlns:inkscape="http://www.inkscape.org/namespaces/inkscape"
   xml:space="preserve"
   width="8.8051796in"
   height="6.2070789in"
   viewBox="0 0 633.97472 446.91149"
   id="svg2"
   version="1.1"
   inkscape:version="0.91 r13725"
   sodipodi:docname="11_ShemaTermKv.svg"><metadata
     id="metadata50"><rdf:RDF><cc:Work
         rdf:about=""><dc:format>image/svg+xml</dc:format><dc:type
           rdf:resource="http://purl.org/dc/dcmitype/StillImage" /><dc:title></dc:title></cc:Work></rdf:RDF></metadata><defs
     id="defs48" /><sodipodi:namedview
     pagecolor="#ffffff"
     bordercolor="#666666"
     borderopacity="1"
     objecttolerance="10"
     gridtolerance="10"
     guidetolerance="10"
     inkscape:pageopacity="0"
     inkscape:pageshadow="2"
     inkscape:window-width="1068"
     inkscape:window-height="854"
     id="namedview46"
     showgrid="false"
     fit-margin-top="0"
     fit-margin-left="0"
     fit-margin-right="0"
     fit-margin-bottom="0"
     inkscape:zoom="0.63466708"
     inkscape:cx="174.75119"
     inkscape:cy="203.6016"
     inkscape:window-x="797"
     inkscape:window-y="153"
     inkscape:window-maximized="0"
     inkscape:current-layer="svg2" /><g
     id="g12"
     style="fill:none;stroke:#d40000;stroke-width:2.40000963;stroke-linecap:butt;stroke-linejoin:miter;stroke-miterlimit:4;stroke-dasharray:none;stroke-opacity:1"
     transform="matrix(1,0,0,-1,-51.121456,450.6081)"><path
       inkscape:connector-curvature="0"
       id="path14"
       d="m 89.244,141.303 6.0097,0 6.0097,0 6.0097,0 6.0097,0 6.0097,0 6.0097,0 6.0097,0 6.0097,0 6.0097,0 6.0097,0 6.0097,0 6.0097,0 6.0097,0 6.0097,0 6.0097,0 6.0097,0 6.0096,0 6.0097,0 6.0097,0 6.0097,0 6.0097,0 6.0097,0 6.0097,0 6.0097,0 6.0097,0 6.0097,0 6.0097,0 6.0097,0 6.0097,0 6.0097,0 6.0097,0 6.0097,0 6.0097,0 6.0097,0 6.0097,0 6.0097,0 6.0097,0 6.0097,0 6.0097,0 6.0097,0 6.0097,0 6.0097,0 6.0097,0 6.0097,0 6.0097,0 6.0097,0 6.0097,0 6.0097,0 6.0097,0 6.0096,0 6.0097,0 6.0097,0 6.0097,0 6.0097,0 6.0097,0 6.0097,0 6.0097,0 6.0097,0 6.0097,0 6.0097,0 6.0097,0 6.0097,0 6.0097,0 6.0097,0 6.0097,0 6.0097,0 6.0097,0 6.0097,0 6.0097,0 6.0097,0 6.0097,0 6.0097,0 6.0097,0 6.0097,0 6.0097,0 6.0097,0 6.0097,0 6.0097,0 6.0097,0 6.0097,0 6.0097,0 6.0097,0 6.0096,0 6.0097,0 6.0097,0 6.0097,0 6.0097,0 6.0097,0 6.0097,0 6.0097,0 6.0097,0 6.0097,0 6.0097,0 6.0097,0 6.0097,0 6.0097,0 6.0097,0 6.0097,0 6.0097,0"
       style="stroke:#d40000;stroke-width:2.40000963;stroke-miterlimit:4;stroke-dasharray:none;stroke-opacity:1" /></g><g
     id="g16"
     style="fill:none;stroke:#000000;stroke-width:1.78489995;stroke-linecap:butt;stroke-linejoin:miter;stroke-dasharray:none"
     transform="matrix(1,0,0,-1,-51.121456,506.60845)"><path
       inkscape:connector-curvature="0"
       id="path18"
       d="m 89.244,89.244 594.96,0" /><path
       inkscape:connector-curvature="0"
       id="path20"
       d="m 89.244,505.716 594.96,0" /></g><g
     id="g28"
     style="fill:none;stroke:#000000;stroke-width:1.78489995;stroke-linecap:butt;stroke-linejoin:miter;stroke-dasharray:none"
     transform="matrix(1,0,0,-1,-51.121456,506.60845)"><path
       inkscape:connector-curvature="0"
       id="path30"
       d="m 89.244,89.244 0,416.472" /><path
       inkscape:connector-curvature="0"
       id="path32"
       d="m 684.204,89.244 0,416.472" /></g><g
     id="g42"
     style="fill:none;stroke:#000000;stroke-width:0.89240003;stroke-linecap:butt;stroke-linejoin:miter;stroke-dasharray:none"
     transform="matrix(1,0,0,-1,-51.121456,506.60845)"><path
       inkscape:connector-curvature="0"
       id="path44"
       d="m 89.244,89.244 0,416.472 594.96,0 0,-416.472 z" /></g><path
     style="fill:none;fill-rule:evenodd;stroke:#000000;stroke-width:2.80070806;stroke-linecap:butt;stroke-linejoin:miter;stroke-miterlimit:4;stroke-dasharray:none;stroke-opacity:1"
     d="M 78.808234,355.79316 C 147.21666,273.7511 159.23371,249.92707 231.93236,175.49422 304.63101,101.06136 344.09555,63.11055 417.84167,67.87461 c 34.95329,2.25801 55.46126,73.70288 65.67559,143.23662 10.21433,69.53374 18.91592,125.55551 30.65053,197.59074"
     id="path4218"
     inkscape:connector-curvature="0"
     sodipodi:nodetypes="czszc" /><text
     xml:space="preserve"
     style="font-style:normal;font-variant:normal;font-weight:normal;font-stretch:normal;font-size:20.00008202px;line-height:125%;font-family:msbm10;-inkscape-font-specification:msbm10;letter-spacing:0px;word-spacing:0px;fill:#000000;fill-opacity:1;stroke:none;stroke-width:1px;stroke-linecap:butt;stroke-linejoin:miter;stroke-opacity:1"
     x="307.56366"
     y="454.08804"
     id="text3349"
     sodipodi:linespacing="125%"><tspan
       sodipodi:role="line"
       id="tspan3351"
       x="307.56366"
       y="454.08804"
       style="font-style:normal;font-variant:normal;font-weight:normal;font-stretch:normal;font-family:'Liberation Sans';-inkscape-font-specification:'Liberation Sans'">$\lambda$</tspan></text>
<text
     xml:space="preserve"
     style="font-style:normal;font-variant:normal;font-weight:normal;font-stretch:normal;font-size:20.00008202px;line-height:125%;font-family:msbm10;-inkscape-font-specification:msbm10;letter-spacing:0px;word-spacing:0px;fill:#000000;fill-opacity:1;stroke:none;stroke-width:1px;stroke-linecap:butt;stroke-linejoin:miter;stroke-opacity:1"
     x="6.3394127"
     y="50.32095"
     id="text3349-6"
     sodipodi:linespacing="125%"><tspan
       sodipodi:role="line"
       id="tspan3351-0"
       x="6.3394127"
       y="50.32095"
       style="font-style:normal;font-variant:normal;font-weight:normal;font-stretch:normal;font-family:'Liberation Sans';-inkscape-font-specification:'Liberation Sans'">$R$</tspan></text>
<text
     xml:space="preserve"
     style="font-style:normal;font-variant:normal;font-weight:normal;font-stretch:normal;font-size:20.00008202px;line-height:125%;font-family:msbm10;-inkscape-font-specification:msbm10;letter-spacing:0px;word-spacing:0px;fill:#000000;fill-opacity:1;stroke:none;stroke-width:1px;stroke-linecap:butt;stroke-linejoin:miter;stroke-opacity:1"
     x="346.63943"
     y="57.414375"
     id="text3347"
     sodipodi:linespacing="125%"><tspan
       sodipodi:role="line"
       id="tspan3349"
       x="346.63943"
       y="57.414375"
       style="font-style:normal;font-variant:normal;font-weight:normal;font-stretch:normal;font-family:'Nimbus Sans L';-inkscape-font-specification:'Nimbus Sans L'">$\textrm{kvantni~detektor}$</tspan></text>
<text
     xml:space="preserve"
     style="font-style:normal;font-variant:normal;font-weight:normal;font-stretch:normal;font-size:20.00008202px;line-height:125%;font-family:msbm10;-inkscape-font-specification:msbm10;letter-spacing:0px;word-spacing:0px;fill:#000000;fill-opacity:1;stroke:none;stroke-width:1px;stroke-linecap:butt;stroke-linejoin:miter;stroke-opacity:1"
     x="190.27631"
     y="300.83002"
     id="text3347-7"
     sodipodi:linespacing="125%"><tspan
       sodipodi:role="line"
       id="tspan3349-0"
       x="190.27631"
       y="300.83002"
       style="font-style:normal;font-variant:normal;font-weight:normal;font-stretch:normal;font-family:'Nimbus Sans L';-inkscape-font-specification:'Nimbus Sans L'">$\textrm{termi\v cni~detektor}$</tspan></text>
</svg>