<?xml version="1.0" encoding="UTF-8" standalone="no"?>
<svg
   xmlns:dc="http://purl.org/dc/elements/1.1/"
   xmlns:cc="http://creativecommons.org/ns#"
   xmlns:rdf="http://www.w3.org/1999/02/22-rdf-syntax-ns#"
   xmlns:svg="http://www.w3.org/2000/svg"
   xmlns="http://www.w3.org/2000/svg"
   xmlns:sodipodi="http://sodipodi.sourceforge.net/DTD/sodipodi-0.dtd"
   xmlns:inkscape="http://www.inkscape.org/namespaces/inkscape"
   version="1.1"
   id="svg3045"
   inkscape:version="0.91 r13725"
   width="1045.0265"
   height="216.35704"
   sodipodi:docname="11_sum.svg">
  <metadata
     id="metadata3136">
    <rdf:RDF>
      <cc:Work
         rdf:about="">
        <dc:format>image/svg+xml</dc:format>
        <dc:type
           rdf:resource="http://purl.org/dc/dcmitype/StillImage" />
        <dc:title></dc:title>
      </cc:Work>
    </rdf:RDF>
  </metadata>
  <sodipodi:namedview
     pagecolor="#ffffff"
     bordercolor="#666666"
     borderopacity="1"
     objecttolerance="10"
     gridtolerance="10"
     guidetolerance="10"
     inkscape:pageopacity="0"
     inkscape:pageshadow="2"
     inkscape:window-width="1823"
     inkscape:window-height="668"
     id="namedview3134"
     showgrid="false"
     inkscape:zoom="1.0260367"
     inkscape:cx="51.440827"
     inkscape:cy="128.07866"
     inkscape:window-x="94"
     inkscape:window-y="348"
     inkscape:window-maximized="0"
     inkscape:current-layer="svg3045"
     fit-margin-top="0"
     fit-margin-left="0"
     fit-margin-right="0"
     fit-margin-bottom="0" />
  <defs
     id="defs3132">
    <marker
       inkscape:stockid="Arrow1Mend"
       orient="auto"
       refY="0"
       refX="0"
       id="Arrow1Mend"
       style="overflow:visible"
       inkscape:isstock="true">
      <path
         id="path4471"
         d="M 0,0 5,-5 -12.5,0 5,5 0,0 Z"
         style="fill:#000000;fill-opacity:1;fill-rule:evenodd;stroke:#000000;stroke-width:1pt;stroke-opacity:1"
         transform="matrix(-0.4,0,0,-0.4,-4,0)"
         inkscape:connector-curvature="0" />
    </marker>
    <marker
       inkscape:stockid="Arrow1Send"
       orient="auto"
       refY="0"
       refX="0"
       id="Arrow1Send"
       style="overflow:visible"
       inkscape:isstock="true">
      <path
         id="path4477"
         d="M 0,0 5,-5 -12.5,0 5,5 0,0 Z"
         style="fill:#000000;fill-opacity:1;fill-rule:evenodd;stroke:#000000;stroke-width:1pt;stroke-opacity:1"
         transform="matrix(-0.2,0,0,-0.2,-1.2,0)"
         inkscape:connector-curvature="0" />
    </marker>
    <clipPath
       id="cp11">
      <polygon
         points="14,15 14,-1 -1,-1 -1,15 "
         id="polygon3128" />
    </clipPath>
    <clipPath
       id="cp10">
      <polygon
         points="1074,167 1074,13 74,13 74,167 "
         id="polygon3121" />
    </clipPath>
    <clipPath
       id="cp9">
      <polygon
         points="1074,167 1074,13 74,13 74,167 "
         id="polygon3114" />
    </clipPath>
    <clipPath
       id="cp8">
      <polygon
         points="5,15 5,-1 -1,-1 -1,15 "
         id="polygon3107" />
    </clipPath>
    <clipPath
       id="cp7">
      <polygon
         points="1074,167 1074,13 74,13 74,167 "
         id="polygon3100" />
    </clipPath>
    <clipPath
       id="cp6">
      <polygon
         points="1074,167 1074,13 74,13 74,167 "
         id="polygon3093" />
    </clipPath>
    <clipPath
       id="cp5">
      <polygon
         points="1044,137 1044,42 104,42 104,137 "
         id="polygon3084" />
    </clipPath>
    <clipPath
       id="cp4">
      <polygon
         points="11,15 11,4.12 -1,4.12 -1,15 "
         id="polygon3077" />
    </clipPath>
    <clipPath
       id="cp3">
      <polygon
         points="1044,137 1044,42 104,42 104,137 "
         id="polygon3068" />
    </clipPath>
    <clipPath
       id="cp2">
      <polygon
         points="1044,137 1044,42 104,42 104,137 "
         id="polygon3059" />
    </clipPath>
    <clipPath
       id="cp1">
      <polygon
         points="4.49423e+307,4.49423e+307 4.49423e+307,-4.49423e+307 -4.49423e+307,-4.49423e+307 -4.49423e+307,4.49423e+307 "
         id="polygon3052" />
    </clipPath>
    <marker
       inkscape:stockid="Arrow1Mend"
       orient="auto"
       refY="0"
       refX="0"
       id="Arrow1Mend-3"
       style="overflow:visible"
       inkscape:isstock="true">
      <path
         inkscape:connector-curvature="0"
         id="path4471-6"
         d="M 0,0 5,-5 -12.5,0 5,5 0,0 Z"
         style="fill:#000000;fill-opacity:1;fill-rule:evenodd;stroke:#000000;stroke-width:1pt;stroke-opacity:1"
         transform="matrix(-0.4,0,0,-0.4,-4,0)" />
    </marker>
    <marker
       inkscape:stockid="Arrow1Mend"
       orient="auto"
       refY="0"
       refX="0"
       id="Arrow1Mend-7"
       style="overflow:visible"
       inkscape:isstock="true">
      <path
         inkscape:connector-curvature="0"
         id="path4471-0"
         d="M 0,0 5,-5 -12.5,0 5,5 0,0 Z"
         style="fill:#000000;fill-opacity:1;fill-rule:evenodd;stroke:#000000;stroke-width:1pt;stroke-opacity:1"
         transform="matrix(-0.4,0,0,-0.4,-4,0)" />
    </marker>
    <marker
       inkscape:stockid="Arrow1Mend"
       orient="auto"
       refY="0"
       refX="0"
       id="Arrow1Mend-3-2"
       style="overflow:visible"
       inkscape:isstock="true">
      <path
         inkscape:connector-curvature="0"
         id="path4471-6-9"
         d="M 0,0 5,-5 -12.5,0 5,5 0,0 Z"
         style="fill:#000000;fill-opacity:1;fill-rule:evenodd;stroke:#000000;stroke-width:1pt;stroke-opacity:1"
         transform="matrix(-0.4,0,0,-0.4,-4,0)" />
    </marker>
    <marker
       inkscape:stockid="Arrow1Mend"
       orient="auto"
       refY="0"
       refX="0"
       id="Arrow1Mend-6"
       style="overflow:visible"
       inkscape:isstock="true">
      <path
         inkscape:connector-curvature="0"
         id="path4471-1"
         d="M 0,0 5,-5 -12.5,0 5,5 0,0 Z"
         style="fill:#000000;fill-opacity:1;fill-rule:evenodd;stroke:#000000;stroke-width:1pt;stroke-opacity:1"
         transform="matrix(-0.4,0,0,-0.4,-4,0)" />
    </marker>
    <marker
       inkscape:stockid="Arrow1Mend"
       orient="auto"
       refY="0"
       refX="0"
       id="Arrow1Mend-3-0"
       style="overflow:visible"
       inkscape:isstock="true">
      <path
         inkscape:connector-curvature="0"
         id="path4471-6-6"
         d="M 0,0 5,-5 -12.5,0 5,5 0,0 Z"
         style="fill:#000000;fill-opacity:1;fill-rule:evenodd;stroke:#000000;stroke-width:1pt;stroke-opacity:1"
         transform="matrix(-0.4,0,0,-0.4,-4,0)" />
    </marker>
    <marker
       inkscape:stockid="Arrow1Mend"
       orient="auto"
       refY="0"
       refX="0"
       id="Arrow1Mend-3-2-3"
       style="overflow:visible"
       inkscape:isstock="true">
      <path
         inkscape:connector-curvature="0"
         id="path4471-6-9-2"
         d="M 0,0 5,-5 -12.5,0 5,5 0,0 Z"
         style="fill:#000000;fill-opacity:1;fill-rule:evenodd;stroke:#000000;stroke-width:1pt;stroke-opacity:1"
         transform="matrix(-0.4,0,0,-0.4,-4,0)" />
    </marker>
  </defs>
  <flowRoot
     xml:space="preserve"
     id="flowRoot4025"
     style="font-style:normal;font-variant:normal;font-weight:normal;font-stretch:normal;font-size:22px;line-height:125%;font-family:'Nimbus Sans L';-inkscape-font-specification:Sans;letter-spacing:0px;word-spacing:0px;fill:#000000;fill-opacity:1;stroke:none"
     transform="translate(350,-55.572159)"><flowRegion
       id="flowRegion4027"><rect
         id="rect4029"
         width="0.83609283"
         height="65.493942"
         x="684.20264"
         y="187.28479" /></flowRegion><flowPara
       id="flowPara4031" /></flowRoot>  <flowRoot
     xml:space="preserve"
     id="flowRoot3912"
     style="font-style:normal;font-variant:normal;font-weight:normal;font-stretch:normal;font-size:22px;line-height:125%;font-family:'Nimbus Sans L';-inkscape-font-specification:Sans;letter-spacing:0px;word-spacing:0px;fill:#000000;fill-opacity:1;stroke:none"
     transform="translate(350,-55.572159)"><flowRegion
       id="flowRegion3914"><rect
         id="rect3916"
         width="864.73865"
         height="141.88966"
         x="-100.11104"
         y="11.838024" /></flowRegion><flowPara
       id="flowPara3918" /></flowRoot>  <g
     id="g10"
     style="fill:none;stroke:#000000;stroke-width:12.53497982;stroke-linecap:butt;stroke-linejoin:miter;stroke-dasharray:none"
     transform="matrix(0.44816982,0,0,-0.16828989,-14.238488,92.244167)" />
  <path
     style="fill:none;stroke:#0000d4;stroke-width:2.5;stroke-linecap:round;stroke-linejoin:round;stroke-miterlimit:4;stroke-dasharray:none;stroke-opacity:1"
     d="m 385.34969,71.170816 0.84506,0.313174 0.84414,-0.239847 0.84507,-0.249239 0.84413,-0.430569 0.84507,-0.940966 0.84413,-0.47861 0.84507,-0.484392 0.84413,-0.36591 0.84507,0.02673 0.84413,-0.07261 0.84507,-0.145571 0.84413,0.607204 0.84507,0.775891 0.84413,0.606842 0.84507,0.418288 0.84414,0.149182 0.84507,0.250683 0.84413,0.09283 0.84507,-0.331595 0.84413,-0.499923 0.84507,0.147737 0.84413,0.270912 0.84507,0.540379 0.84413,0.739408 0.84507,0.974559 0.84413,0.976727 0.84507,0.91532 0.84413,0.670416 0.84507,0.637546 0.84413,-0.146159 0.84507,0.273079 0.84414,0.05057 0.84506,0.02493 0.84414,0.08633 0.84507,-0.0419 0.84413,-0.19 0.84507,-0.04624 0.84413,0.05996 0.84507,0.0614 0.84413,0.229013 0.84507,0.238764 0.84413,-0.03938 0.84507,-0.03899 0.84413,-0.126066 0.84507,-0.296197 0.84413,-0.296558 0.84507,0.274028 0.84413,-0.500644 0.84507,-0.22251 0.84414,-0.216367 0.84506,-0.216007 0.84414,0.142679 0.84507,0.175191 0.84413,0.262603 0.84507,0.254657 0.84413,0.254297 0.84507,0.08452 0.84413,0.196863 0.84507,0.0083 0.84413,-0.05887 0.84507,-0.132204 0.84413,-0.08597 0.84507,0.25285 0.84413,-1.083018 0.84507,0.271996 0.84414,0.236961 0.84507,0.271995 0.84413,0.271996 0.84507,0.272717 0.84413,-0.06574 0.84507,-0.08814 0.84413,-0.101862 0.84507,-0.06683 0.84413,-0.06683 0.84506,-0.541461 0.84414,0.911076 0.84507,-0.54724 0.84414,-0.614428 0.84506,-0.619846 0.84414,-0.920016 0.84507,-0.920016 0.84413,-0.856804 0.84507,1.626152 0.84413,-0.550492 0.84507,-0.616234 0.84413,-0.611177 0.84507,-0.458021 0.84413,-0.534237 0.84507,-0.123176 0.84413,-0.424788 0.84507,-0.149544 0.84413,0.222509 0.84507,0.296919 0.84413,0.642602 0.84507,0.718819 0.84414,0.719181 0.84506,0.694977 0.84414,-1.760884 0.84507,0.01048 0.84413,0.260437 0.84507,0.207698 0.84413,-0.139067 0.84507,-0.498117 0.84413,-0.474275 0.84507,-0.455854 0.84413,-0.12173 0.84507,-0.602869 0.84413,-0.214201 0.84507,0.132566 0.84413,0.491615 0.84507,0.503172 0.84413,0.09536 0.84507,-3.77e-4 0.84414,0.235512 0.84506,-0.299086 0.84414,-0.448269 0.84507,-0.403838 0.84413,-0.415037 0.84507,-0.403839 0.84413,-0.403839 0.84507,-0.485834 0.84413,-0.292586 0.84507,0.216007 0.84413,0.352908 0.84507,0.352908 0.84413,0.684864 0.84507,0.940967 0.84413,0.943856 0.84507,0.750606 0.84414,0.391558 0.84506,0.209866 0.84414,-0.04552 0.84507,7.3e-4 0.84413,-0.25538 0.84507,-0.255378 0.84413,0.01951 0.84507,0.01987 0.84413,0.01951 0.84507,0.386139 0.84413,0.583003 0.84507,0.563857 0.84413,0.406367 0.84507,0.156046 0.84413,0.156044 0.84507,0.156046 0.84413,0.04515 0.84507,-0.167603 0.84414,0.114506 0.84506,0.272356 0.84414,0.177718 0.84507,0.311006 0.84413,0.310646 0.84507,-0.147015 0.84413,-0.279219 0.84507,-0.542546 0.84413,-0.774447 0.84507,-0.528458 0.84413,-0.661024 0.84507,-0.472832 0.84413,-0.03973 0.84507,-0.272718 0.84413,-0.106197 0.84507,-7.3e-4 0.84413,-0.177718 0.84507,0.0032 0.84414,0.02636 0.84506,0.06357 0.84414,0.738686 0.84507,0.49342 0.84413,0.944579 0.84507,0.991175 0.84413,0.598896 0.84507,0.487641 0.84413,-0.546499 0.84507,0.24996 0.84413,0.327989 0.84507,0.0034 0.84413,-0.04335 0.84507,0.167956 0.84413,0.06719 0.84507,-0.01083 0.84413,-0.0726 0.84507,0.0083 0.84414,0.0015 0.84507,-0.02274 0.84413,-0.139792 0.84507,-0.141232 0.84413,-0.35905 0.84507,0.793208 0.84413,-0.421539 0.84507,-0.206615 0.84413,-0.06429 0.84507,0.101864 0.84413,0.02926 0.84507,0.266578 0.84413,0.266216 0.84507,-0.780205 0.84413,0.102946 0.84507,0.06321 0.84414,-0.03468 0.84506,0.03973 0.84414,0.03035 0.84507,0.0307 0.84413,0.03035 0.84507,0.03035 0.84413,-0.05851 0.84507,-0.01047 0.84413,-0.01012 0.84507,0.05201 0.84413,0.05165 0.84507,0.05166 0.84413,0.05202 0.84507,-0.03 0.84413,0.115949 0.84507,0.11595 0.84413,0.01625 0.84507,0.01554 0.84414,0.0372 0.84506,-0.102225 0.84414,-1.508417 0.84507,1.556437 0.84413,-0.425513 0.84507,-0.141595 0.84413,-0.141597 0.84507,-0.212033 0.84413,-0.07296 0.84507,0.500283 0.84413,0.56133 0.84507,-1.819042 0.84413,0.116311 0.84507,0.32582 0.84413,0.360853 0.84507,0.390476 0.84413,0.224673 0.84507,0.170854 0.84414,0.202282 0.84507,0.212756 0.84413,-0.03899 0.84507,-0.153515 0.84413,-0.293308 0.84507,-0.527736 0.84413,-0.474635 0.84507,1.567632 0.84413,-0.638268 0.84507,-0.596005 0.84413,-0.471026 0.84507,-0.109809 0.84413,0.124257 0.84507,-0.06646 0.84413,-0.224314 0.56637,-1.374882 1.12284,-1.22583 0.84506,-0.09861 0.84414,-0.349657 0.84507,-0.411063 0.84413,-0.220704 0.84507,0.04515 0.84413,0.04479 0.84507,0.04515 0.84413,-0.06249 0.84507,-0.104031 0.84413,-0.06321 0.84507,-0.06285 0.84413,-0.06285 0.84507,0.274163 0.56543,1.133358 1.12377,0.886611 0.84413,1.078858 0.84507,0.49306 0.84414,0.571081 0.84506,0.626348 0.84414,0.289333 0.84507,0.479695 0.84413,-0.818856 0.84507,0.171217 0.84413,0.171219 0.84507,0.09283 0.84413,-0.04368 0.84507,0.156767 0.84413,-0.02564 0.84507,-0.02927 0.84413,-0.12534 0.84507,-0.12534 0.84413,-0.125346 0.84507,-0.04552 0.84413,0.844863 0.84507,-0.231178 0.84414,-0.118117 0.84506,0.04046 0.84414,0.04081 0.84507,0.01554 0.84413,0.03215 0.84507,-0.180246 0.84413,-0.04588 0.84507,-0.158935 0.84413,0.0087 0.84507,-0.137623 0.84413,-0.112698 0.84507,0.0065 0.84413,0.233345 0.84507,0.217452 0.84413,0.152434 0.84507,-0.180248 0.84414,0.09066 0.84506,0.09067 0.84414,-0.04371 0.84507,-0.169771 0.84413,-0.154239 0.84507,-0.08922 0.84413,-0.278859 0.84507,-0.426957 0.84413,-0.426595 0.84507,-0.426956 0.84413,-0.314981 0.84507,-0.315341 0.84413,-0.122091 0.84507,0.210228 0.84413,0.374943 0.84507,0.249599 0.84413,0.214561 0.84507,0.214563 0.84414,0.214201 0.84506,-0.04479 0.84414,-0.141957 0.84507,-0.288612"
     id="polyline3088"
     inkscape:connector-curvature="0"
     sodipodi:nodetypes="cccccccccccccccccccccccccccccccccccccccccccccccccccccccccccccccccccccccccccccccccccccccccccccccccccccccccccccccccccccccccccccccccccccccccccccccccccccccccccccccccccccccccccccccccccccccccccccccccccccccccccccccccccccccccccccccccccccccccccccccccccccccccccccccccccccccccccccccccccccccccccccccccccccccccccccccccccccccccccccccccccccc" />
  <polyline
     points="122.8,137 122.8,51.5324 "
     id="polyline3116"
     style="fill:none;stroke:#000000;stroke-width:2.67867233;stroke-miterlimit:4;stroke-dasharray:none;stroke-opacity:1"
     transform="matrix(0.74663854,0,0,0.74663854,293.15301,-25.684739)" />
  <polygon
     points="124.321,51.9606 125.059,52.2622 125.373,52.4 122.8,43 120.326,52.4 120.326,52.4 120.608,52.2622 121.283,51.9606 121.689,51.8005 122.098,51.6618 122.479,51.5655 122.8,51.5324 123.091,51.5655 123.467,51.6618 123.89,51.8005 "
     id="polygon3123"
     style="fill:#000000;fill-rule:evenodd;stroke:none"
     transform="matrix(0.74663854,0,0,0.74663854,293.15301,-25.684739)" />
  <path
     style="fill:none;fill-rule:evenodd;stroke:#000000;stroke-width:2;stroke-linecap:butt;stroke-linejoin:miter;stroke-miterlimit:4;stroke-dasharray:none;stroke-opacity:1;marker-end:url(#Arrow1Mend)"
     d="m 383.901,77.222054 293.92383,0.04343"
     id="path3656"
     inkscape:connector-curvature="0"
     sodipodi:nodetypes="cc" />
  <polyline
     points="122.8,137 122.8,51.5324 "
     id="polyline3116-3"
     style="fill:none;stroke:#000000;stroke-width:2.67867233;stroke-miterlimit:4;stroke-dasharray:none;stroke-opacity:1"
     transform="matrix(0.74663854,0,0,0.74663854,-66.56922,-25.684739)" />
  <polygon
     points="120.608,52.2622 121.283,51.9606 121.689,51.8005 122.098,51.6618 122.479,51.5655 122.8,51.5324 123.091,51.5655 123.467,51.6618 123.89,51.8005 124.321,51.9606 125.059,52.2622 125.373,52.4 122.8,43 120.326,52.4 120.326,52.4 "
     id="polygon3123-5"
     style="fill:#000000;fill-rule:evenodd;stroke:none"
     transform="matrix(0.74663854,0,0,0.74663854,-66.56922,-25.684739)" />
  <path
     style="fill:none;fill-rule:evenodd;stroke:#000000;stroke-width:2;stroke-linecap:butt;stroke-linejoin:miter;stroke-miterlimit:4;stroke-dasharray:none;stroke-opacity:1;marker-end:url(#Arrow1Mend-3)"
     d="M 24.136718,77.222054 318.1026,77.265488"
     id="path3656-2"
     inkscape:connector-curvature="0"
     sodipodi:nodetypes="cc" />
  <path
     style="fill:none;fill-rule:evenodd;stroke:#d40000;stroke-width:2.5;stroke-linecap:butt;stroke-linejoin:miter;stroke-miterlimit:4;stroke-dasharray:none;stroke-opacity:1"
     d="m 25.96355,75.800428 c 33.83057,1.089924 86.09706,1.871411 100.53639,0.560527 29.64212,1.517543 26.1062,-68.460704 33.64931,-68.905417 7.54311,-0.444713 5.58536,69.218002 33.05514,69.017982 44.79389,0.507086 57.92522,0.399902 93.68156,0.387568"
     id="path11309"
     inkscape:connector-curvature="0"
     sodipodi:nodetypes="cczcc" />
  <polyline
     points="122.8,137 122.8,51.5324 "
     id="polyline3116-3-1"
     style="fill:none;stroke:#000000;stroke-width:2.67867233;stroke-miterlimit:4;stroke-dasharray:none;stroke-opacity:1"
     transform="matrix(0.74663854,0,0,0.74663854,657.48964,-25.684733)" />
  <polygon
     points="123.091,51.5655 123.467,51.6618 123.89,51.8005 124.321,51.9606 125.059,52.2622 125.373,52.4 122.8,43 120.326,52.4 120.326,52.4 120.608,52.2622 121.283,51.9606 121.689,51.8005 122.098,51.6618 122.479,51.5655 122.8,51.5324 "
     id="polygon3123-5-9"
     style="fill:#000000;fill-rule:evenodd;stroke:none"
     transform="matrix(0.74663854,0,0,0.74663854,657.48964,-25.684733)" />
  <path
     style="fill:none;fill-rule:evenodd;stroke:#000000;stroke-width:2;stroke-linecap:butt;stroke-linejoin:miter;stroke-miterlimit:4;stroke-dasharray:none;stroke-opacity:1;marker-end:url(#Arrow1Mend-3-2)"
     d="m 748.18,77.22206 293.9815,0.04343"
     id="path3656-2-5"
     inkscape:connector-curvature="0"
     sodipodi:nodetypes="cc" />
  <path
     style="fill:none;fill-rule:evenodd;stroke:#d40000;stroke-width:2.5;stroke-linecap:butt;stroke-linejoin:miter;stroke-miterlimit:4;stroke-dasharray:none;stroke-opacity:1"
     d="m 866.56857,71.000429 c 0.94242,-1.598785 1.942,-3.610794 2.93682,-5.865977 0.99482,-2.255182 1.3267,-4.095366 2.25005,-6.666845 0.92335,-2.571479 3.32084,-8.887736 2.28862,-6.447411 -0.57188,1.352028 1.98557,-6.534156 2.39439,-8.717926 0.81763,-4.367538 1.02384,-8.092235 1.59033,-12.213272 0.56649,-4.121036 1.27388,-9.077195 1.77753,-12.397406 0.50365,-3.320211 1.02296,-6.978991 1.65208,-8.944053 0.62912,-1.965062 1.80683,-2.236406 2.74972,-2.291995 0.94289,-0.05559 1.73733,0.98425 2.45935,2.846139 0.72202,1.861889 2.02979,3.229483 2.683,6.462091 0.65321,3.232608 0.87126,9.865966 1.60773,13.922535 0.73647,4.056569 1.99137,7.291475 2.96316,11.625247 0.4859,2.166886 1.17554,6.426257 2.08086,9.687062 0.90532,3.260805 2.4651,4.426091 3.8137,7.864088 1.3486,3.437998 2.9248,6.73541 4.74054,9.433874 1.81573,2.698463 2.77405,5.456151 5.08077,6.498354"
     id="path11309-0"
     inkscape:connector-curvature="0"
     sodipodi:nodetypes="csssssssssssssssc" />
  <path
     style="fill:none;stroke:#d40000;stroke-width:2.5;stroke-linecap:round;stroke-linejoin:round;stroke-miterlimit:4;stroke-dasharray:none;stroke-opacity:1"
     d="m 749.59515,70.990279 0.84507,0.313174 0.84413,-0.239847 0.84507,-0.249239 0.84413,-0.430569 0.84507,-0.940966 0.84413,-0.47861 0.84507,-0.484392 0.84413,-0.36591 0.84507,0.02673 0.84413,-0.07261 0.84507,-0.145571 0.84414,0.607204 0.84506,0.775891 0.84414,0.606842 0.84507,0.418288 0.84413,0.149182 0.84507,0.250683 0.84413,0.09283 0.84507,-0.331595 0.84413,-0.499923 0.84507,0.147737 0.84413,0.270912 0.84507,0.540379 0.84413,0.739408 0.84507,0.974559 0.84413,0.976727 0.84507,0.91532 0.84414,0.670416 0.84506,0.637546 0.84414,-0.146159 0.84507,0.273079 0.84413,0.05057 0.84507,0.02493 0.84413,0.08633 0.84507,-0.0419 0.84413,-0.19 0.84507,-0.04624 0.84413,0.05996 0.84507,0.0614 0.84413,0.229013 0.84507,0.238764 0.84413,-0.03938 0.84507,-0.03899 0.84413,-0.126066 0.84507,-0.296197 0.84414,-0.296558 0.84506,0.274028 0.84414,-0.500644 0.84507,-0.22251 0.84413,-0.216367 0.84507,-0.216007 0.84413,0.142679 0.84507,0.175191 0.84413,0.262603 0.84507,0.254657 0.84413,0.254297 0.84507,0.08452 0.84413,0.196863 0.84507,0.0083 0.84413,-0.05887 0.84507,-0.132204 0.84413,-0.08597 0.84507,0.25285 0.84414,-1.083018 0.84506,0.271996 0.84414,0.236961 0.84507,0.271995 0.84413,0.271996 0.84507,0.272717 0.84413,-0.06574 0.84507,-0.08814 0.84413,-0.101862 0.84507,-0.06683 0.84413,-0.06683 0.84506,-0.541461 0.84414,0.911076 0.84507,-0.54724 0.84414,-0.614428 0.84506,-0.619846 0.84414,-0.920016 0.84507,-0.920016 0.84413,-0.856804 0.84507,1.626152 0.84413,-0.550492 0.84507,-0.616234 0.84413,-0.611177 0.84507,-0.458021 0.84413,-0.534237 0.84507,-0.123176 0.84413,-0.424788 0.84507,-0.149544 0.84413,0.222509 0.84507,0.296919 0.84413,0.642602 0.84507,0.718819 0.84414,0.719181 0.84506,0.694977 0.84414,-1.760884 0.84507,0.01048 0.84413,0.260437 0.84507,0.207698 0.84413,-0.139067 0.84507,-0.498117 0.84413,-0.474275 0.84507,-0.455854 0.84413,-0.12173 0.84507,-0.602869 0.84413,-0.214201 0.84507,0.132566 0.84413,0.491615 0.84507,0.503172 0.84413,0.09536 0.84507,-3.77e-4 0.84414,0.235512 0.84506,-0.299086 0.84414,-0.448269 0.84507,-0.403838 0.84413,-0.415037 0.84507,-0.403839 0.84413,-0.403839 0.84507,-0.485834 0.84413,-0.292586 0.84507,0.216007 0.84413,0.352908 0.84507,0.352908 0.84413,0.684864 0.84507,0.940967 0.84413,0.943856 0.84507,0.750606 0.84414,0.391558 0.84506,0.209866 0.84414,-0.04552 0.84507,7.3e-4 0.84413,-0.25538 0.84507,-0.255378 0.84413,0.01951 1.61294,-0.418911 1.44745,-2.33894 m 42.54804,6.475276 0.84507,-0.206615 m 0,0 0.84413,-0.06429 0.84507,0.101864 0.84413,0.02926 0.84507,0.266578 0.84413,0.266216 0.84507,-0.780205 0.84413,0.102946 0.84507,0.06321 0.84414,-0.03468 0.84506,0.03973 0.84414,0.03035 0.84507,0.0307 0.84413,0.03035 0.84507,0.03035 0.84413,-0.05851 0.84507,-0.01047 0.84413,-0.01012 0.84507,0.05201 0.84413,0.05165 0.84507,0.05166 0.84413,0.05202 0.84507,-0.03 0.84413,0.115949 0.84507,0.11595 0.84413,0.01625 0.84507,0.01554 0.84414,0.0372 0.84506,-0.102225 0.84414,-1.508417 0.84507,1.556437 0.84413,-0.425513 0.84507,-0.141595 0.84413,-0.141597 0.84507,-0.212033 0.84413,-0.07296 0.84507,0.500283 0.84413,0.56133 0.84507,-1.819042 0.84413,0.116311 0.84507,0.32582 0.84413,0.360853 0.84507,0.390476 0.84413,0.224673 0.84507,0.170854 0.84414,0.202282 0.84507,0.212756 0.84413,-0.03899 0.84507,-0.153515 0.84413,-0.293308 0.84507,-0.527736 0.84413,-0.474635 0.84507,1.567632 0.84413,-0.638268 0.84507,-0.596005 0.84413,-0.471026 0.84507,-0.109809 0.84413,0.124257 0.84507,-0.06646 0.84413,-0.224314 0.56637,-1.374882 1.12284,-1.22583 0.84506,-0.09861 0.84414,-0.349657 0.84507,-0.411063 0.84413,-0.220704 0.84507,0.04515 0.84413,0.04479 0.84507,0.04515 0.84413,-0.06249 0.84507,-0.104031 0.84413,-0.06321 0.84507,-0.06285 0.84413,-0.06285 0.84507,0.274163 0.56543,1.133358 1.12377,0.886611 0.84413,1.078858 0.84507,0.49306 0.84414,0.571081 0.84506,0.626348 0.84414,0.289333 0.84507,0.479695 0.84413,-0.818856 0.84507,0.171217 0.84413,0.171219 0.84507,0.09283 0.84413,-0.04368 0.84507,0.156767 0.84413,-0.02564 0.84507,-0.02927 0.84413,-0.12534 0.84507,-0.12534 0.84413,-0.125346 0.84507,-0.04552 0.84413,0.844863 0.84507,-0.231178 0.84414,-0.118117 0.84506,0.04046 0.84414,0.04081 0.84507,0.01554 0.84413,0.03215 0.84507,-0.180246 0.84413,-0.04588 0.84507,-0.158935 0.84413,0.0087 0.84508,-0.137623 0.8441,-0.112698 0.8451,0.0065 0.8441,0.233345 0.8451,0.217452 0.8441,0.152434 0.8451,-0.180248 0.8441,0.09066 0.8451,0.09067 0.8441,-0.04371 0.8451,-0.169771 0.8441,-0.154239 0.8451,-0.08922 0.8441,-0.278859 0.8451,-0.426957 0.8441,-0.426595 0.8451,-0.426956 0.8441,-0.314981 0.8451,-0.315341 0.8441,-0.122091 0.8451,0.210228 0.8441,0.374943 0.8451,0.249599 0.8441,0.214561 0.8451,0.214563 0.8441,0.214201 0.8451,-0.04479 0.8441,-0.141957 0.8451,-0.288612"
     id="polyline3088-3"
     inkscape:connector-curvature="0"
     sodipodi:nodetypes="cccccccccccccccccccccccccccccccccccccccccccccccccccccccccccccccccccccccccccccccccccccccccccccccccccccccccccccccccccccccccccccccccccccccccccccccccccccccccccccccccccccccccccccccccccccccccccccccccccccccccccccccccccccccccccccccccccccccccccccccccccccccccccccccccccccccccccccccccccc" />
  <path
     style="fill:none;stroke:#0000d4;stroke-width:2.5;stroke-linecap:round;stroke-linejoin:round;stroke-miterlimit:4;stroke-dasharray:none;stroke-opacity:1"
     d="m 385.34968,199.10001 0.84507,0.31317 0.84413,-0.23984 0.84508,-0.24924 0.84413,-0.43057 0.84507,-0.94097 0.84413,-0.47861 0.84507,-0.48439 0.84413,-0.36591 0.84507,0.0267 0.84413,-0.0726 0.84507,-0.14557 0.84413,0.6072 0.84507,0.77589 0.84413,0.60685 0.84507,0.41828 0.84413,0.14919 0.84507,0.25068 0.84414,0.0928 0.84506,-0.3316 0.84414,-0.49992 0.84507,0.14774 0.84413,0.27091 0.84507,0.54038 0.84413,0.73941 0.84507,0.97456 0.84413,0.97672 0.84507,0.91532 0.84413,0.67042 0.84507,0.63754 0.84413,-0.14615 0.84507,0.27307 0.84413,0.0506 0.84507,0.0249 0.84413,0.0863 0.84507,-0.0419 0.84414,-0.19 0.84506,-0.0462 0.84414,0.06 0.84507,0.0614 0.84413,0.22902 0.84507,0.23876 0.84413,-0.0394 0.84507,-0.039 0.84413,-0.12606 0.84507,-0.2962 0.84413,-0.29656 0.84507,0.27403 0.84413,-0.50064 0.84507,-0.22251 0.84413,-0.21637 0.84507,-0.21601 0.84413,0.14268 0.84507,0.17519 0.84414,0.2626 0.84506,0.25466 0.84414,0.2543 0.84507,0.0845 0.84413,0.19686 0.84507,0.008 0.84413,-0.0589 0.84507,-0.1322 0.84413,-0.086 0.84507,0.25285 0.84413,-1.08302 0.84507,0.27199 0.84413,0.23697 0.84507,0.27199 0.84413,0.272 0.84507,0.27271 0.84413,-0.0657 0.84507,-0.0881 0.84413,-0.10186 0.84507,-0.0668 0.84413,-0.0668 0.84507,-0.54146 0.84414,0.91108 0.84507,-0.54724 0.84414,-0.61443 0.84506,-0.61985 0.84414,-0.92001 0.84507,-0.92002 0.84413,-0.8568 0.84507,1.62615 0.84413,-0.55049 0.84507,-0.61624 0.84413,-0.61117 0.84507,-0.45803 0.84413,-0.53423 0.84507,-0.12318 0.84413,-0.42479 0.84507,-0.14954 0.84413,0.22251 0.84507,0.29692 0.84413,0.6426 0.84507,0.71882 0.84414,0.71918 0.84506,0.69498 0.84414,-1.76089 0.84507,0.0105 0.84413,0.26044 0.84507,0.2077 0.84413,-0.13907 0.84507,-0.49812 0.84413,-0.47427 0.84507,-0.45586 0.84413,-0.12173 0.84507,-0.60286 0.84413,-0.21421 0.84507,0.13257 0.84413,0.49162 0.84507,0.50317 0.84413,0.0954 0.84507,-3.8e-4 0.84414,0.23551 0.84506,-0.29908 0.84414,-0.44827 0.84507,-0.40384 0.84413,-0.41504 0.84507,-0.40384 0.84413,-0.40384 0.84507,-0.48583 0.84413,-0.29259 0.84507,0.21601 0.84413,0.35291 0.84507,0.35291 0.84413,0.68486 0.84507,0.94097 0.84413,0.94385 0.84507,0.75061 0.84414,0.39156 0.84506,0.20986 0.84414,-0.0455 0.84507,7.3e-4 0.84413,-0.25538 0.84507,-0.25537 0.84413,0.0195 0.84507,0.0199 0.84413,0.0195 0.84507,0.38614 0.84413,0.583 0.84507,0.56386 0.84413,0.40636 0.84507,0.15605 0.84413,0.15604 0.84507,0.15605 0.84413,0.0452 0.84507,-0.1676 0.84414,0.1145 0.84506,0.27236 0.84414,0.17772 0.84507,0.311 0.84413,0.31065 0.84507,-0.14702 0.84413,-0.27922 0.84507,-0.54254 0.84413,-0.77445 0.84507,-0.52846 0.84413,-0.66102 0.84507,-0.47283 0.84413,-0.0397 0.84507,-0.27272 0.84413,-0.1062 0.84507,-7.3e-4 0.84413,-0.17772 0.84507,0.003 0.84414,0.0264 0.84506,0.0636 0.84414,0.73869 0.84507,0.49342 0.84413,0.94458 0.84507,0.99117 0.84413,0.5989 0.84507,0.48764 0.84413,-0.5465 0.84507,0.24996 0.84413,0.32799 0.84507,0.003 0.84413,-0.0434 0.84507,0.16796 0.84413,0.0672 0.84507,-0.0108 0.84413,-0.0726 0.84507,0.008 0.84414,0.001 0.84507,-0.0227 0.84413,-0.13979 0.84507,-0.14124 0.84413,-0.35905 0.84507,0.79321 0.84413,-0.42154 0.84507,-0.20661 0.84413,-0.0643 0.84507,0.10186 0.84413,0.0293 0.84507,0.26658 0.84413,0.26622 0.84507,-0.78021 0.84413,0.10295 0.84507,0.0632 0.84414,-0.0347 0.84506,0.0397 0.84414,0.0303 0.84507,0.0307 0.84413,0.0303 0.84507,0.0303 0.84413,-0.0585 0.84507,-0.0105 0.84413,-0.0101 0.84507,0.052 0.84413,0.0516 0.84507,0.0517 0.84413,0.052 0.84507,-0.03 0.84413,0.11595 0.84507,0.11595 0.84413,0.0163 0.84507,0.0155 0.84414,0.0372 0.84506,-0.10223 0.84414,-1.50842 0.84507,1.55644 0.84413,-0.42551 0.84507,-0.1416 0.84413,-0.14159 0.84507,-0.21204 0.84413,-0.073 0.84507,0.50029 0.84413,0.56133 0.84507,-1.81905 0.84413,0.11631 0.84507,0.32582 0.84413,0.36086 0.84507,0.39047 0.84413,0.22468 0.84507,0.17085 0.84414,0.20228 0.84507,0.21276 0.84413,-0.039 0.84507,-0.15352 0.84413,-0.2933 0.84507,-0.52774 0.84413,-0.47464 0.84507,1.56764 0.84413,-0.63827 0.84507,-0.59601 0.84413,-0.47102 0.84507,-0.10981 0.84413,0.12426 0.84507,-0.0665 0.84413,-0.22432 0.56637,-1.37488 1.12284,-1.22583 0.84506,-0.0986 0.84414,-0.34966 0.84507,-0.41106 0.84413,-0.2207 0.84507,0.0452 0.84413,0.0448 0.84507,0.0452 0.84413,-0.0625 0.84507,-0.10404 0.84413,-0.0632 0.84507,-0.0628 0.84413,-0.0628 0.84507,0.27417 0.56543,1.13336 1.12377,0.88661 0.84413,1.07885 0.84507,0.49306 0.84414,0.57109 0.84506,0.62634 0.84414,0.28934 0.84507,0.47969 0.84413,-0.81885 0.84507,0.17121 0.84413,0.17122 0.84507,0.0928 0.84413,-0.0437 0.84507,0.15677 0.84413,-0.0256 0.84507,-0.0293 0.84413,-0.12534 0.84507,-0.12534 0.84413,-0.12535 0.84507,-0.0455 0.84413,0.84487 0.84507,-0.23118 0.84414,-0.11812 0.84506,0.0405 0.84414,0.0408 0.84507,0.0155 0.84413,0.0322 0.84507,-0.18025 0.84413,-0.0459 0.84507,-0.15893 0.84413,0.009 0.84507,-0.13762 0.84413,-0.1127 0.84507,0.007 0.84413,0.23334 0.84507,0.21746 0.84413,0.15243 0.84507,-0.18025 0.84414,0.0907 0.84506,0.0907 0.84414,-0.0437 0.84507,-0.16977 0.84413,-0.15424 0.84507,-0.0892 0.84413,-0.27886 0.84507,-0.42695 0.84413,-0.4266 0.84507,-0.42696 0.84413,-0.31498 0.84507,-0.31534 0.84413,-0.12209 0.84507,0.21023 0.84413,0.37494 0.84507,0.2496 0.84413,0.21456 0.84507,0.21457 0.84414,0.2142 0.84506,-0.0448 0.84414,-0.14196 0.84507,-0.28861"
     id="polyline3088-6"
     inkscape:connector-curvature="0"
     sodipodi:nodetypes="cccccccccccccccccccccccccccccccccccccccccccccccccccccccccccccccccccccccccccccccccccccccccccccccccccccccccccccccccccccccccccccccccccccccccccccccccccccccccccccccccccccccccccccccccccccccccccccccccccccccccccccccccccccccccccccccccccccccccccccccccccccccccccccccccccccccccccccccccccccccccccccccccccccccccccccccccccccccccccccccccccccc" />
  <polyline
     points="122.8,137 122.8,51.5324 "
     id="polyline3116-1"
     style="fill:none;stroke:#000000;stroke-width:2.67867233;stroke-miterlimit:4;stroke-dasharray:none;stroke-opacity:1"
     transform="matrix(0.74663854,0,0,0.74663854,293.15301,102.24445)" />
  <polygon
     points="120.608,52.2622 121.283,51.9606 121.689,51.8005 122.098,51.6618 122.479,51.5655 122.8,51.5324 123.091,51.5655 123.467,51.6618 123.89,51.8005 124.321,51.9606 125.059,52.2622 125.373,52.4 122.8,43 120.326,52.4 120.326,52.4 "
     id="polygon3123-55"
     style="fill:#000000;fill-rule:evenodd;stroke:none"
     transform="matrix(0.74663854,0,0,0.74663854,293.15301,102.24445)" />
  <path
     style="fill:none;fill-rule:evenodd;stroke:#000000;stroke-width:2;stroke-linecap:butt;stroke-linejoin:miter;stroke-miterlimit:4;stroke-dasharray:none;stroke-opacity:1;marker-end:url(#Arrow1Mend-6)"
     d="m 383.903,205.14978 293.92183,0.0449"
     id="path3656-9"
     inkscape:connector-curvature="0"
     sodipodi:nodetypes="cc" />
  <polyline
     points="122.8,137 122.8,51.5324 "
     id="polyline3116-3-4"
     style="fill:none;stroke:#000000;stroke-width:2.67867233;stroke-miterlimit:4;stroke-dasharray:none;stroke-opacity:1"
     transform="matrix(0.74663854,0,0,0.74663854,-66.56922,102.24445)" />
  <polygon
     points="123.091,51.5655 123.467,51.6618 123.89,51.8005 124.321,51.9606 125.059,52.2622 125.373,52.4 122.8,43 120.326,52.4 120.326,52.4 120.608,52.2622 121.283,51.9606 121.689,51.8005 122.098,51.6618 122.479,51.5655 122.8,51.5324 "
     id="polygon3123-5-5"
     style="fill:#000000;fill-rule:evenodd;stroke:none"
     transform="matrix(0.74663854,0,0,0.74663854,-66.56922,102.24445)" />
  <path
     style="fill:none;fill-rule:evenodd;stroke:#000000;stroke-width:2;stroke-linecap:butt;stroke-linejoin:miter;stroke-miterlimit:4;stroke-dasharray:none;stroke-opacity:1;marker-end:url(#Arrow1Mend-3-0)"
     d="m 24.141704,205.14978 293.960896,0.0449"
     id="path3656-2-4"
     inkscape:connector-curvature="0"
     sodipodi:nodetypes="cc" />
  <path
     style="fill:none;fill-rule:evenodd;stroke:#d40000;stroke-width:2.5;stroke-linecap:butt;stroke-linejoin:miter;stroke-miterlimit:4;stroke-dasharray:none;stroke-opacity:1"
     d="m 25.96355,204.80674 c 33.83057,0.14823 86.09706,0.2545 100.53639,0.0762 29.64212,0.20638 26.1062,-9.31049 33.64931,-9.37097 7.54311,-0.0605 5.58536,9.41348 33.05514,9.38628 44.79389,0.069 57.92522,0.0544 93.68156,0.0527"
     id="path11309-4"
     inkscape:connector-curvature="0"
     sodipodi:nodetypes="cczcc" />
  <polyline
     points="122.8,137 122.8,51.5324 "
     id="polyline3116-3-1-0"
     style="fill:none;stroke:#000000;stroke-width:2.67867233;stroke-miterlimit:4;stroke-dasharray:none;stroke-opacity:1"
     transform="matrix(0.74663854,0,0,0.74663854,657.48962,102.24446)" />
  <polygon
     points="122.8,43 120.326,52.4 120.326,52.4 120.608,52.2622 121.283,51.9606 121.689,51.8005 122.098,51.6618 122.479,51.5655 122.8,51.5324 123.091,51.5655 123.467,51.6618 123.89,51.8005 124.321,51.9606 125.059,52.2622 125.373,52.4 "
     id="polygon3123-5-9-7"
     style="fill:#000000;fill-rule:evenodd;stroke:none"
     transform="matrix(0.74663854,0,0,0.74663854,657.48962,102.24446)" />
  <g
     id="g12307"
     transform="translate(0,4)">
    <text
       sodipodi:linespacing="125%"
       id="text3995-5-9-8"
       y="95.231728"
       x="1015.0273"
       style="font-style:normal;font-variant:normal;font-weight:normal;font-stretch:normal;font-size:16.42604828px;line-height:125%;font-family:'Nimbus Sans L';-inkscape-font-specification:Sans;letter-spacing:0px;word-spacing:0px;fill:#000000;fill-opacity:1;stroke:none"
       xml:space="preserve"><tspan
         style="font-style:italic;font-variant:normal;font-weight:normal;font-stretch:normal;font-size:13.43949413px;font-family:'Nimbus Roman No9 L';-inkscape-font-specification:'Nimbus Roman No9 L Italic'"
         y="95.231728"
         x="1015.0273"
         id="tspan3997-7-1-4"
         sodipodi:role="line">$t$</tspan></text>
    <g
       id="g12285">
      <text
         xml:space="preserve"
         style="font-style:normal;font-variant:normal;font-weight:normal;font-stretch:normal;font-size:16.42604828px;line-height:125%;font-family:'Nimbus Sans L';-inkscape-font-specification:Sans;letter-spacing:0px;word-spacing:0px;fill:#000000;fill-opacity:1;stroke:none"
         x="365.3056"
         y="9.8242702"
         id="text3995"
         sodipodi:linespacing="125%"><tspan
           sodipodi:role="line"
           id="tspan3997"
           x="365.3056"
           y="9.8242702"
           style="font-style:italic;font-variant:normal;font-weight:normal;font-stretch:normal;font-size:13.43949413px;font-family:'Nimbus Roman No9 L';-inkscape-font-specification:'Nimbus Roman No9 L Italic'">$I$</tspan></text>
      <text
         xml:space="preserve"
         style="font-style:normal;font-variant:normal;font-weight:normal;font-stretch:normal;font-size:16.42604828px;line-height:125%;font-family:'Nimbus Sans L';-inkscape-font-specification:Sans;letter-spacing:0px;word-spacing:0px;fill:#000000;fill-opacity:1;stroke:none"
         x="650.69073"
         y="95.23172"
         id="text3995-5"
         sodipodi:linespacing="125%"><tspan
           sodipodi:role="line"
           id="tspan3997-7"
           x="650.69073"
           y="95.23172"
           style="font-style:italic;font-variant:normal;font-weight:normal;font-stretch:normal;font-size:13.43949413px;font-family:'Nimbus Roman No9 L';-inkscape-font-specification:'Nimbus Roman No9 L Italic'">$t$</tspan></text>
      <text
         xml:space="preserve"
         style="font-style:normal;font-variant:normal;font-weight:normal;font-stretch:normal;font-size:16.42604828px;line-height:125%;font-family:'Nimbus Sans L';-inkscape-font-specification:Sans;letter-spacing:0px;word-spacing:0px;fill:#000000;fill-opacity:1;stroke:none"
         x="5.5833783"
         y="9.8242702"
         id="text3995-6"
         sodipodi:linespacing="125%"><tspan
           sodipodi:role="line"
           id="tspan3997-2"
           x="5.5833783"
           y="9.8242702"
           style="font-style:italic;font-variant:normal;font-weight:normal;font-stretch:normal;font-size:13.43949413px;font-family:'Nimbus Roman No9 L';-inkscape-font-specification:'Nimbus Roman No9 L Italic'">$I$</tspan></text>
      <text
         xml:space="preserve"
         style="font-style:normal;font-variant:normal;font-weight:normal;font-stretch:normal;font-size:16.42604828px;line-height:125%;font-family:'Nimbus Sans L';-inkscape-font-specification:Sans;letter-spacing:0px;word-spacing:0px;fill:#000000;fill-opacity:1;stroke:none"
         x="290.96848"
         y="95.23172"
         id="text3995-5-9"
         sodipodi:linespacing="125%"><tspan
           sodipodi:role="line"
           id="tspan3997-7-1"
           x="290.96848"
           y="95.23172"
           style="font-style:italic;font-variant:normal;font-weight:normal;font-stretch:normal;font-size:13.43949413px;font-family:'Nimbus Roman No9 L';-inkscape-font-specification:'Nimbus Roman No9 L Italic'">$t$</tspan></text>
      <text
         xml:space="preserve"
         style="font-style:normal;font-variant:normal;font-weight:normal;font-stretch:normal;font-size:16.42604828px;line-height:125%;font-family:'Nimbus Sans L';-inkscape-font-specification:Sans;letter-spacing:0px;word-spacing:0px;fill:#000000;fill-opacity:1;stroke:none"
         x="729.64221"
         y="9.824276"
         id="text3995-6-4"
         sodipodi:linespacing="125%"><tspan
           sodipodi:role="line"
           id="tspan3997-2-7"
           x="729.64221"
           y="9.824276"
           style="font-style:italic;font-variant:normal;font-weight:normal;font-stretch:normal;font-size:13.43949413px;font-family:'Nimbus Roman No9 L';-inkscape-font-specification:'Nimbus Roman No9 L Italic'">$I$</tspan></text>
      <text
         xml:space="preserve"
         style="font-style:normal;font-variant:normal;font-weight:normal;font-stretch:normal;font-size:16.42604828px;line-height:125%;font-family:'Nimbus Sans L';-inkscape-font-specification:Sans;letter-spacing:0px;word-spacing:0px;fill:#000000;fill-opacity:1;stroke:none"
         x="365.3056"
         y="137.75346"
         id="text3995-4"
         sodipodi:linespacing="125%"><tspan
           sodipodi:role="line"
           id="tspan3997-76"
           x="365.3056"
           y="137.75346"
           style="font-style:italic;font-variant:normal;font-weight:normal;font-stretch:normal;font-size:13.43949413px;font-family:'Nimbus Roman No9 L';-inkscape-font-specification:'Nimbus Roman No9 L Italic'">$I$</tspan></text>
      <text
         xml:space="preserve"
         style="font-style:normal;font-variant:normal;font-weight:normal;font-stretch:normal;font-size:16.42604828px;line-height:125%;font-family:'Nimbus Sans L';-inkscape-font-specification:Sans;letter-spacing:0px;word-spacing:0px;fill:#000000;fill-opacity:1;stroke:none"
         x="650.69067"
         y="223.16092"
         id="text3995-5-5"
         sodipodi:linespacing="125%"><tspan
           sodipodi:role="line"
           id="tspan3997-7-6"
           x="650.69067"
           y="223.16092"
           style="font-style:italic;font-variant:normal;font-weight:normal;font-stretch:normal;font-size:13.43949413px;font-family:'Nimbus Roman No9 L';-inkscape-font-specification:'Nimbus Roman No9 L Italic'">$t$</tspan></text>
      <text
         xml:space="preserve"
         style="font-style:normal;font-variant:normal;font-weight:normal;font-stretch:normal;font-size:16.42604828px;line-height:125%;font-family:'Nimbus Sans L';-inkscape-font-specification:Sans;letter-spacing:0px;word-spacing:0px;fill:#000000;fill-opacity:1;stroke:none"
         x="5.583374"
         y="137.75346"
         id="text3995-6-2"
         sodipodi:linespacing="125%"><tspan
           sodipodi:role="line"
           id="tspan3997-2-5"
           x="5.583374"
           y="137.75346"
           style="font-style:italic;font-variant:normal;font-weight:normal;font-stretch:normal;font-size:13.43949413px;font-family:'Nimbus Roman No9 L';-inkscape-font-specification:'Nimbus Roman No9 L Italic'">$I$</tspan></text>
      <text
         xml:space="preserve"
         style="font-style:normal;font-variant:normal;font-weight:normal;font-stretch:normal;font-size:16.42604828px;line-height:125%;font-family:'Nimbus Sans L';-inkscape-font-specification:Sans;letter-spacing:0px;word-spacing:0px;fill:#000000;fill-opacity:1;stroke:none"
         x="290.96848"
         y="223.16092"
         id="text3995-5-9-4"
         sodipodi:linespacing="125%"><tspan
           sodipodi:role="line"
           id="tspan3997-7-1-7"
           x="290.96848"
           y="223.16092"
           style="font-style:italic;font-variant:normal;font-weight:normal;font-stretch:normal;font-size:13.43949413px;font-family:'Nimbus Roman No9 L';-inkscape-font-specification:'Nimbus Roman No9 L Italic'">$t$</tspan></text>
      <text
         xml:space="preserve"
         style="font-style:normal;font-variant:normal;font-weight:normal;font-stretch:normal;font-size:16.42604828px;line-height:125%;font-family:'Nimbus Sans L';-inkscape-font-specification:Sans;letter-spacing:0px;word-spacing:0px;fill:#000000;fill-opacity:1;stroke:none"
         x="729.64221"
         y="137.75348"
         id="text3995-6-4-8"
         sodipodi:linespacing="125%"><tspan
           sodipodi:role="line"
           id="tspan3997-2-7-6"
           x="729.64221"
           y="137.75348"
           style="font-style:italic;font-variant:normal;font-weight:normal;font-stretch:normal;font-size:13.43949413px;font-family:'Nimbus Roman No9 L';-inkscape-font-specification:'Nimbus Roman No9 L Italic'">$I$</tspan></text>
    </g>
    <text
       sodipodi:linespacing="125%"
       id="text3995-5-9-8-8"
       y="223.16093"
       x="1015.0273"
       style="font-style:normal;font-variant:normal;font-weight:normal;font-stretch:normal;font-size:16.42604828px;line-height:125%;font-family:'Nimbus Sans L';-inkscape-font-specification:Sans;letter-spacing:0px;word-spacing:0px;fill:#000000;fill-opacity:1;stroke:none"
       xml:space="preserve"><tspan
         style="font-style:italic;font-variant:normal;font-weight:normal;font-stretch:normal;font-size:13.43949413px;font-family:'Nimbus Roman No9 L';-inkscape-font-specification:'Nimbus Roman No9 L Italic'"
         y="223.16093"
         x="1015.0273"
         id="tspan3997-7-1-4-8"
         sodipodi:role="line">$t$</tspan></text>
  </g>
  <path
     style="fill:none;fill-rule:evenodd;stroke:#000000;stroke-width:2;stroke-linecap:butt;stroke-linejoin:miter;stroke-miterlimit:4;stroke-dasharray:none;stroke-opacity:1;marker-end:url(#Arrow1Mend-3-2-3)"
     d="m 748.16337,205.14979 293.99803,0.0449"
     id="path3656-2-5-4"
     inkscape:connector-curvature="0"
     sodipodi:nodetypes="cc" />
  <path
     style="fill:none;stroke:#d40000;stroke-width:2.5;stroke-linecap:round;stroke-linejoin:round;stroke-miterlimit:4;stroke-dasharray:none;stroke-opacity:1"
     d="m 749.82052,199.03245 0.84507,0.31317 0.84413,-0.23984 0.84507,-0.24924 0.84413,-0.43057 0.84507,-0.94097 0.84413,-0.47861 0.84507,-0.48439 0.84414,-0.36591 0.84506,0.0267 0.84414,-0.0726 0.84507,-0.14557 0.84413,0.6072 0.84507,0.77589 0.84413,0.60685 0.84507,0.41828 0.84413,0.14919 0.84507,0.25068 0.84413,0.0928 0.84507,-0.3316 0.84413,-0.49992 0.84507,0.14774 0.84413,0.27091 0.84507,0.54038 0.84413,0.73941 0.84507,0.97456 0.84414,0.97672 0.84506,0.91532 0.84414,0.67042 0.84507,0.63754 0.84413,-0.14615 0.84507,0.27307 0.84413,0.0506 0.84507,0.0249 0.84413,0.0863 0.84507,-0.0419 0.84413,-0.19 0.84507,-0.0462 0.84413,0.06 0.84507,0.0614 0.84413,0.22902 0.84507,0.23876 0.84414,-0.0394 0.84506,-0.039 0.84414,-0.12606 0.84507,-0.2962 0.84413,-0.29656 0.84507,0.27403 0.84413,-0.50064 0.84507,-0.22251 0.84413,-0.21637 0.84507,-0.21601 0.84413,0.14268 0.84507,0.17519 0.84413,0.2626 0.84507,0.25466 0.84413,0.2543 0.84507,0.0845 0.84413,0.19686 0.84507,0.008 0.84414,-0.0589 0.84506,-0.1322 0.84414,-0.086 0.84507,0.25285 0.84413,-1.08302 0.84507,0.27199 0.84413,0.23697 0.84507,0.27199 0.84413,0.272 0.84507,0.27271 0.84413,-0.0657 0.84507,-0.0881 0.84413,-0.10186 0.84507,-0.0668 0.84413,-0.0668 0.84506,-0.54146 0.84414,0.91108 0.84508,-0.54724 0.84414,-0.61443 0.84506,-0.61985 0.84414,-0.92001 0.84507,-0.92002 0.84413,-0.8568 0.84507,1.62615 0.84413,-0.55049 0.84507,-0.61624 0.84413,-0.61117 0.84507,-0.45803 0.84413,-0.53423 0.84507,-0.12318 0.84413,-0.42479 0.84507,-0.14954 0.84413,0.22251 0.84507,0.29692 0.84413,0.6426 0.84507,0.71882 0.84414,0.71918 0.84506,0.69498 0.84414,-1.76089 0.84507,0.0105 0.84413,0.26044 0.84507,0.2077 0.84413,-0.13907 0.84507,-0.49812 0.84413,-0.47427 0.84507,-0.45586 0.84413,-0.12173 0.84507,-0.60286 0.84413,-0.21421 0.84507,0.13257 0.84413,0.49162 0.84507,0.50317 0.84413,0.0954 0.84507,-3.8e-4 0.84414,0.23551 0.84506,-0.29908 0.84414,-0.44827 0.84507,-0.40384 0.84413,-0.41504 0.84507,-0.40384 0.84413,-0.40384 0.84507,-0.48583 0.84413,-0.29259 0.84507,0.21601 0.84413,0.35291 0.84507,0.35291 0.84413,0.68486 0.84507,0.94097 0.84413,0.94385 0.84507,0.75061 0.84414,0.39156 0.84506,0.20986 0.84414,-0.0455 0.84507,7.3e-4 0.84413,-0.25538 0.84507,-0.25537 0.84413,0.0195 0.84507,0.0199 0.84413,0.0195 c 1.7514,-2.85701 -0.35726,-4.04918 2.9182,-1.86368 0.46479,-0.18959 0.89712,0.13373 1.36012,0.17848 l 0.78928,-0.0633 1.11931,-2.14367 0.84413,-0.33874 1.06446,-0.77092 c 0.38572,-0.71152 0.54697,-0.0769 1.30527,0.16747 l 0.73444,-0.31591 0.84507,0.311 1.11837,-1.14087 0.57083,-0.6955 0.84413,-0.27922 0.84507,-0.54254 0.95383,0.37735 0.68052,-0.33843 0.89898,-0.003 0.84507,-0.47283 0.84413,-0.0397 0.84507,-0.27272 0.84413,-0.1062 0.84507,0.43805 0.73443,0.42561 1.06447,1.20964 0.73444,0.43582 c 2.32392,1.82623 1.0428,1.28205 1.6892,0.14412 l 0.84507,0.49342 0.84413,0.94458 0.84507,0.99117 0.84413,0.5989 0.84507,0.48764 c 1.40838,-0.66249 1.56521,0.68794 2.88477,0.69262 l 1.33776,1.29843 0.84507,0.16796 0.84413,0.0672 c 1.91207,0.71086 0.093,2.1434 3.54295,2.38987 l 0.79023,0.69031 0.73443,0.68293 0.84507,-0.14124 0.84413,-0.35905 0.84507,0.79321 0.84413,-0.42154 0.84507,-0.20661 0.84413,-0.0643 0.84507,0.10186 0.84413,0.0293 0.84507,0.26658 0.84413,0.26622 0.84507,-0.78021 0.84413,0.10295 0.84507,0.0632 0.84414,-0.0347 0.84506,0.0397 0.84414,0.0303 0.84507,0.0307 0.84413,0.0303 0.84507,0.0303 0.84413,-0.0585 0.84507,-0.0105 0.84413,-0.0101 0.84507,0.052 0.84413,0.0516 0.84507,0.0517 0.84413,0.052 0.84507,-0.03 0.84413,0.11595 0.84507,0.11595 0.84413,0.0163 0.84507,0.0155 0.84414,0.0372 0.84506,-0.10223 0.84414,-1.50842 0.84507,1.55644 0.84413,-0.42551 0.84507,-0.1416 0.84413,-0.14159 0.84507,-0.21204 0.84413,-0.073 0.84507,0.50029 0.84413,0.56133 0.84507,-1.81905 0.84413,0.11631 0.84507,0.32582 0.84413,0.36086 0.84507,0.39047 0.84413,0.22468 0.84507,0.17085 0.84414,0.20228 0.84507,0.21276 0.84413,-0.039 0.84507,-0.15352 0.84413,-0.2933 0.84507,-0.52774 0.84413,-0.47464 0.84507,1.56764 0.84413,-0.63827 0.84507,-0.59601 0.84413,-0.47102 0.84507,-0.10981 0.84413,0.12426 0.84507,-0.0665 0.84413,-0.22432 0.56637,-1.37488 1.12284,-1.22583 0.84506,-0.0986 0.84414,-0.34966 0.84507,-0.41106 0.84413,-0.2207 0.84507,0.0452 0.84413,0.0448 0.84507,0.0452 0.84413,-0.0625 0.84507,-0.10404 0.84413,-0.0632 0.84507,-0.0628 0.84413,-0.0628 0.84507,0.27417 0.56543,1.13336 1.12377,0.88661 0.84413,1.07885 0.84507,0.49306 0.84414,0.57109 0.84506,0.62634 0.84414,0.28934 0.84507,0.47969 0.84413,-0.81885 0.84507,0.17121 0.84413,0.17122 0.84507,0.0928 0.84413,-0.0437 0.84507,0.15677 0.84413,-0.0256 0.84507,-0.0293 0.84413,-0.12534 0.84507,-0.12534 0.84413,-0.12535 0.84507,-0.0455 0.84413,0.84487 0.84507,-0.23118 0.84414,-0.11812 0.84506,0.0405 0.84414,0.0408 0.84507,0.0155 0.84413,0.0322 0.84507,-0.18025 0.84413,-0.0459 0.84507,-0.15893 0.84413,0.009 0.8451,-0.13762 0.8441,-0.1127 0.8451,0.007 0.8441,0.23334 0.8451,0.21746 0.8441,0.15243 0.8451,-0.18025 0.8441,0.0907 0.8451,0.0907 0.8441,-0.0437 0.8451,-0.16977 0.8441,-0.15424 0.8451,-0.0892 0.8441,-0.27886 0.8451,-0.42695 0.8441,-0.4266 0.8451,-0.42696 0.8441,-0.31498 0.8451,-0.31534 0.8441,-0.12209 0.8451,0.21023 0.8441,0.37494 0.8451,0.2496 0.8441,0.21456 0.8451,0.21457 0.8441,0.2142 0.8451,-0.0448 0.8441,-0.14196 0.8451,-0.28861"
     id="polyline3088-6-4"
     inkscape:connector-curvature="0"
     sodipodi:nodetypes="ccccccccccccccccccccccccccccccccccccccccccccccccccccccccccccccccccccccccccccccccccccccccccccccccccccccccccccccccccccccccccccccccccccccccccccccccccccccccccccccccccccccccccccccccccccccccccccccccccccccccccccccccccccccccccccccccccccccccccccccccccccccccccccccccccccccccccccccccccccccccccccccccccccccccccccccccccccccccccc" />
  <text
     xml:space="preserve"
     style="font-style:normal;font-variant:normal;font-weight:normal;font-stretch:normal;font-size:37.5px;line-height:125%;font-family:'Nimbus Sans L';-inkscape-font-specification:Sans;letter-spacing:0px;word-spacing:0px;fill:#000000;fill-opacity:1;stroke:none;stroke-width:1px;stroke-linecap:butt;stroke-linejoin:miter;stroke-opacity:1"
     x="335.125"
     y="53.98204"
     id="text11970"
     sodipodi:linespacing="125%"><tspan
       sodipodi:role="line"
       id="tspan11972"
       x="335.125"
       y="53.98204">+</tspan></text>
  <text
     xml:space="preserve"
     style="font-style:normal;font-variant:normal;font-weight:normal;font-stretch:normal;font-size:37.5px;line-height:125%;font-family:'Nimbus Sans L';-inkscape-font-specification:Sans;letter-spacing:0px;word-spacing:0px;fill:#000000;fill-opacity:1;stroke:none;stroke-width:1px;stroke-linecap:butt;stroke-linejoin:miter;stroke-opacity:1"
     x="335.125"
     y="174.98204"
     id="text11970-0"
     sodipodi:linespacing="125%"><tspan
       sodipodi:role="line"
       id="tspan11972-6"
       x="335.125"
       y="174.98204">+</tspan></text>
  <text
     xml:space="preserve"
     style="font-style:normal;font-variant:normal;font-weight:normal;font-stretch:normal;font-size:37.5px;line-height:125%;font-family:'Nimbus Sans L';-inkscape-font-specification:Sans;letter-spacing:0px;word-spacing:0px;fill:#000000;fill-opacity:1;stroke:none;stroke-width:1px;stroke-linecap:butt;stroke-linejoin:miter;stroke-opacity:1"
     x="700.125"
     y="58.519539"
     id="text11998"
     sodipodi:linespacing="125%"><tspan
       sodipodi:role="line"
       id="tspan12000"
       x="700.125"
       y="58.519539">=</tspan></text>
  <text
     xml:space="preserve"
     style="font-style:normal;font-variant:normal;font-weight:normal;font-stretch:normal;font-size:37.5px;line-height:125%;font-family:'Nimbus Sans L';-inkscape-font-specification:Sans;letter-spacing:0px;word-spacing:0px;fill:#000000;fill-opacity:1;stroke:none;stroke-width:1px;stroke-linecap:butt;stroke-linejoin:miter;stroke-opacity:1"
     x="700.125"
     y="179.51955"
     id="text11998-8"
     sodipodi:linespacing="125%"><tspan
       sodipodi:role="line"
       id="tspan12000-9"
       x="700.125"
       y="179.51955">=</tspan></text>
</svg>
