<?xml version="1.0" encoding="UTF-8" standalone="no"?>
<!-- Created with Inkscape (http://www.inkscape.org/) -->

<svg
   xmlns:dc="http://purl.org/dc/elements/1.1/"
   xmlns:cc="http://creativecommons.org/ns#"
   xmlns:rdf="http://www.w3.org/1999/02/22-rdf-syntax-ns#"
   xmlns:svg="http://www.w3.org/2000/svg"
   xmlns="http://www.w3.org/2000/svg"
   xmlns:sodipodi="http://sodipodi.sourceforge.net/DTD/sodipodi-0.dtd"
   xmlns:inkscape="http://www.inkscape.org/namespaces/inkscape"
   version="1.1"
   width="744.09448"
   height="1052.3622"
   id="svg2985"
   inkscape:version="0.48.3.1 r9886"
   sodipodi:docname="Bessel_beam_intensity.svg">
  <sodipodi:namedview
     pagecolor="#ffffff"
     bordercolor="#666666"
     borderopacity="1"
     objecttolerance="10"
     gridtolerance="10"
     guidetolerance="10"
     inkscape:pageopacity="0"
     inkscape:pageshadow="2"
     inkscape:window-width="1615"
     inkscape:window-height="1026"
     id="namedview3392"
     showgrid="false"
     inkscape:zoom="1.1799905"
     inkscape:cx="240.95733"
     inkscape:cy="935.60072"
     inkscape:window-x="65"
     inkscape:window-y="24"
     inkscape:window-maximized="1"
     inkscape:current-layer="svg2985" />
  <defs
     id="defs2987">
    <filter
       x="-0.18000001"
       y="-0.18000001"
       width="1.36"
       height="1.36"
       color-interpolation-filters="sRGB"
       id="filter4039">
      <feGaussianBlur
         id="feGaussianBlur4041"
         stdDeviation="12" />
    </filter>
    <filter
       x="-0.12"
       y="-0.12"
       width="1.24"
       height="1.24"
       color-interpolation-filters="sRGB"
       id="filter4067">
      <feGaussianBlur
         id="feGaussianBlur4069"
         stdDeviation="8" />
    </filter>
    <filter
       x="-0.12"
       y="-0.12"
       width="1.24"
       height="1.24"
       color-interpolation-filters="sRGB"
       id="filter4089">
      <feGaussianBlur
         id="feGaussianBlur4091"
         stdDeviation="8" />
    </filter>
    <filter
       x="-0.29433963"
       y="-0.29433963"
       width="1.5886792"
       height="1.5886792"
       color-interpolation-filters="sRGB"
       id="filter4107">
      <feGaussianBlur
         id="feGaussianBlur4109"
         stdDeviation="19.622642" />
    </filter>
    <filter
       color-interpolation-filters="sRGB"
       id="filter4598">
      <feGaussianBlur
         id="feGaussianBlur4600"
         stdDeviation="4" />
    </filter>
  </defs>
  <metadata
     id="metadata2990">
    <rdf:RDF>
      <cc:Work
         rdf:about="">
        <dc:format>image/svg+xml</dc:format>
        <dc:type
           rdf:resource="http://purl.org/dc/dcmitype/StillImage" />
        <dc:title></dc:title>
      </cc:Work>
    </rdf:RDF>
  </metadata>
  <path
     inkscape:connector-curvature="0"
     style="fill:none;stroke:#ff0000;stroke-width:1.25;stroke-linecap:butt;stroke-linejoin:miter;stroke-miterlimit:4;stroke-opacity:1;stroke-dasharray:none"
     id="path3879"
     d="m 407.50233,220.79163 c 0,-0.86462 0,-2.59385 0,-5.18769 0,-2.59385 -0.90784,-2.59385 -0.90784,-5.18769 0,-2.59384 0.90784,-2.59384 0.90784,-5.18769 0,-2.59384 -1.81569,-2.59384 -1.81569,-5.18769 0,-2.59384 1.81569,-2.59384 1.81569,-5.18768 0,-2.59385 -2.72353,-2.59385 -2.72353,-5.18769 0,-2.59385 2.72353,-2.59385 2.72353,-5.18769 0,-2.59384 -4.53922,-2.59384 -4.53922,-5.18769 0,-2.59384 4.53922,-2.59384 4.53922,-5.18769 0,-2.59384 -21.78829,-2.59384 -21.78829,-5.18769 0,-2.59384 21.78829,-2.59384 21.78829,-5.18768 0,-2.59385 -4.53922,-2.59385 -4.53922,-5.18769 0,-2.59384 4.53922,-2.59384 4.53922,-5.18769 0,-2.59384 -2.72353,-2.59384 -2.72353,-5.18769 0,-2.59384 2.72353,-2.59384 2.72353,-5.18768 0,-2.59385 -1.81569,-2.59385 -1.81569,-5.18769 0,-2.59385 1.81569,-2.59385 1.81569,-5.18769 0,-2.59384 -0.90784,-2.59384 -0.90784,-5.18769 0,-2.59384 0.90784,-2.59384 0.90784,-5.18768 0,-2.59385 0,-4.32308 0,-5.18769" />
  <g
     id="g4608"
     transform="matrix(0.0648461,0,0,0.0648461,207.08838,130.4892)">
    <path
       inkscape:connector-curvature="0"
       style="fill:none;stroke:#ff0000;stroke-width:8;stroke-linecap:butt;stroke-miterlimit:4;stroke-opacity:1;stroke-dasharray:none;stroke-dashoffset:0;filter:url(#filter4067)"
       id="path3883"
       transform="matrix(2,0,0,2,-2400,-572.36218)"
       d="m 2240,572.36218 a 80,80 0 1 1 -160,0 80,80 0 1 1 160,0 z" />
    <path
       inkscape:connector-curvature="0"
       style="fill:none;stroke:#ff0000;stroke-width:8;stroke-linecap:butt;stroke-miterlimit:4;stroke-opacity:1;stroke-dasharray:none;stroke-dashoffset:0;filter:url(#filter4039)"
       id="path3945"
       transform="matrix(3.9999994,0,0,3.9999994,-6719.9986,-1717.0862)"
       d="m 2240,572.36218 a 80,80 0 1 1 -160,0 80,80 0 1 1 160,0 z" />
    <path
       inkscape:connector-curvature="0"
       style="opacity:0.53846154;fill:none;stroke:#ff0000;stroke-width:8;stroke-linecap:butt;stroke-miterlimit:4;stroke-opacity:1;stroke-dasharray:none;stroke-dashoffset:0;filter:url(#filter4089)"
       id="path4071"
       transform="matrix(7.0000027,0,0,7.0000027,-13200.006,-3434.1747)"
       d="m 2240,572.36218 a 80,80 0 1 1 -160,0 80,80 0 1 1 160,0 z" />
    <path
       inkscape:connector-curvature="0"
       style="fill:#ff0000;fill-opacity:1;stroke:#ff0000;stroke-width:8;stroke-linecap:butt;stroke-miterlimit:4;stroke-opacity:1;stroke-dasharray:none;stroke-dashoffset:0;filter:url(#filter4107)"
       id="path4093"
       transform="translate(-239.99802,5.2429268e-4)"
       d="m 2240,572.36218 a 80,80 0 1 1 -160,0 80,80 0 1 1 160,0 z" />
    <path
       inkscape:connector-curvature="0"
       style="fill:#ff0000;fill-opacity:1;stroke:#ff0000;stroke-width:8;stroke-linecap:butt;stroke-miterlimit:4;stroke-opacity:1;stroke-dasharray:none;stroke-dashoffset:0;filter:url(#filter4598)"
       id="path4576"
       transform="matrix(0.61147979,0,0,0.61147979,599.20563,222.3748)"
       d="m 2240,572.36218 a 80,80 0 1 1 -160,0 80,80 0 1 1 160,0 z" />
  </g>
</svg>
