<?xml version="1.0" encoding="UTF-8" standalone="no"?>
<!-- Created with matplotlib (http://matplotlib.org/) -->

<svg
   xmlns:dc="http://purl.org/dc/elements/1.1/"
   xmlns:cc="http://creativecommons.org/ns#"
   xmlns:rdf="http://www.w3.org/1999/02/22-rdf-syntax-ns#"
   xmlns:svg="http://www.w3.org/2000/svg"
   xmlns="http://www.w3.org/2000/svg"
   xmlns:xlink="http://www.w3.org/1999/xlink"
   xmlns:sodipodi="http://sodipodi.sourceforge.net/DTD/sodipodi-0.dtd"
   xmlns:inkscape="http://www.inkscape.org/namespaces/inkscape"
   height="441pt"
   version="1.1"
   viewBox="0 0 585 441"
   width="585pt"
   id="svg2"
   inkscape:version="0.91 r13725"
   sodipodi:docname="jabs_graf.svg">
  <metadata
     id="metadata346">
    <rdf:RDF>
      <cc:Work
         rdf:about="">
        <dc:format>image/svg+xml</dc:format>
        <dc:type
           rdf:resource="http://purl.org/dc/dcmitype/StillImage" />
      </cc:Work>
    </rdf:RDF>
  </metadata>
  <sodipodi:namedview
     pagecolor="#ffffff"
     bordercolor="#666666"
     borderopacity="1"
     objecttolerance="10"
     gridtolerance="10"
     guidetolerance="10"
     inkscape:pageopacity="0"
     inkscape:pageshadow="2"
     inkscape:window-width="1085"
     inkscape:window-height="912"
     id="namedview344"
     showgrid="false"
     inkscape:zoom="1.2109003"
     inkscape:cx="278.06873"
     inkscape:cy="226.75089"
     inkscape:window-x="-248"
     inkscape:window-y="110"
     inkscape:window-maximized="0"
     inkscape:current-layer="svg2" />
  <defs
     id="defs4">
    <style
       type="text/css"
       id="style6">
*{stroke-linecap:butt;stroke-linejoin:round;}
  </style>
    <defs
       id="defs228">
      <path
         style="stroke-linecap:butt;stroke-linejoin:round"
         inkscape:connector-curvature="0"
         id="DejaVuSans-2e"
         d="M 10.6875,12.4062 21,12.4062 21,0 10.6875,0 Z" />
    </defs>
    <defs
       id="defs220">
      <path
         inkscape:connector-curvature="0"
         style="stroke:#000000;stroke-width:0.5;stroke-linecap:butt;stroke-linejoin:round"
         id="md9a1c1a7cd"
         d="M 0,0 -4,0" />
    </defs>
    <defs
       id="defs212">
      <path
         inkscape:connector-curvature="0"
         style="stroke:#000000;stroke-width:0.5;stroke-linecap:butt;stroke-linejoin:round"
         id="md7965d1ba0"
         d="M 0,0 4,0" />
    </defs>
    <defs
       id="defs50">
      <path
         style="stroke-linecap:butt;stroke-linejoin:round"
         inkscape:connector-curvature="0"
         id="DejaVuSans-30"
         d="m 31.7812,66.4062 q -7.6093,0 -11.4531,-7.5 Q 16.5,51.4219 16.5,36.375 q 0,-14.9844 3.8281,-22.4844 3.8438,-7.49998 11.4531,-7.49998 7.6719,0 11.5,7.49998 3.8438,7.5 3.8438,22.4844 0,15.0469 -3.8438,22.5312 -3.8281,7.5 -11.5,7.5 m 0,7.8126 q 12.2657,0 18.7344,-9.7032 6.4688,-9.6875 6.4688,-28.1406 0,-18.4062 -6.4688,-28.10938 -6.4687,-9.6875 -18.7344,-9.6875 -12.25,0 -18.7187,9.6875 -6.46875,9.70318 -6.46875,28.10938 0,18.4531 6.46875,28.1406 6.4687,9.7032 18.7187,9.7032" />
    </defs>
    <defs
       id="defs42">
      <path
         inkscape:connector-curvature="0"
         style="stroke:#000000;stroke-width:0.5;stroke-linecap:butt;stroke-linejoin:round"
         id="m5a7d422ac3"
         d="M 0,0 0,4" />
    </defs>
    <defs
       id="defs34">
      <path
         inkscape:connector-curvature="0"
         style="stroke:#000000;stroke-width:0.5;stroke-linecap:butt;stroke-linejoin:round"
         id="mc7db9fdffb"
         d="M 0,0 0,-4" />
    </defs>
    <defs
       id="defs69">
      <path
         style="stroke-linecap:butt;stroke-linejoin:round"
         inkscape:connector-curvature="0"
         id="DejaVuSans-31"
         d="m 12.4062,8.29688 16.1094,0 0,55.62502 -17.5312,-3.5157 0,8.9844 17.4375,3.5156 9.8593,0 0,-64.60932 16.1094,0 0,-8.29688 -41.9844,0 z" />
    </defs>
    <defs
       id="defs88">
      <path
         style="stroke-linecap:butt;stroke-linejoin:round"
         inkscape:connector-curvature="0"
         id="DejaVuSans-32"
         d="m 19.1875,8.29688 34.4219,0 0,-8.29688 -46.28128,0 0,8.29688 Q 12.9375,14.1094 22.625,23.8906 q 9.7031,9.7969 12.1875,12.6406 4.7344,5.3126 6.6094,9 1.8906,3.6876 1.8906,7.25 0,5.8126 -4.0781,9.4688 -4.0782,3.6719 -10.625,3.6719 -4.6406,0 -9.7969,-1.6094 -5.1406,-1.6094 -11,-4.8906 l 0,9.9687 q 5.9531,2.3906 11.125,3.6094 5.1875,1.2188 9.4844,1.2188 11.3281,0 18.0625,-5.6719 6.7344,-5.6563 6.7344,-15.125 0,-4.5 -1.6876,-8.5313 Q 49.8594,40.875 45.4062,35.4062 44.1875,33.9844 37.6406,27.2188 31.1094,20.4531 19.1875,8.29688" />
    </defs>
    <defs
       id="defs107">
      <path
         style="stroke-linecap:butt;stroke-linejoin:round"
         inkscape:connector-curvature="0"
         id="DejaVuSans-33"
         d="M 40.5781,39.3125 Q 47.6562,37.7969 51.625,33 q 3.9844,-4.7812 3.9844,-11.8125 0,-10.7813 -7.4219,-16.70312 -7.4219,-5.90626 -21.0937,-5.90626 -4.5782,0 -9.4376,0.906255 Q 12.7969,0.390625 7.625,2.20312 l 0,9.51568 q 4.0938,-2.39068 8.9688,-3.60942 4.8906,-1.21876 10.2187,-1.21876 9.2656,0 14.125,3.65628 4.8594,3.6562 4.8594,10.6406 0,6.4531 -4.5157,10.0781 -4.5156,3.6406 -12.5624,3.6406 l -8.5,0 0,8.1094 8.8906,0 q 7.2656,0 11.125,2.9063 3.8594,2.9062 3.8594,8.375 0,5.6093 -3.9844,8.6093 -3.9688,3.0157 -11.3906,3.0157 -4.0626,0 -8.7032,-0.8907 -4.6406,-0.875 -10.2031,-2.7187 l 0,8.7813 q 5.625,1.5624 10.5313,2.3437 4.9062,0.7813 9.25,0.7813 11.2343,0 17.7656,-5.1094 6.5468,-5.0938 6.5468,-13.7813 0,-6.0625 -3.4687,-10.2343 -3.4687,-4.1719 -9.8594,-5.7813" />
    </defs>
    <defs
       id="defs126">
      <path
         style="stroke-linecap:butt;stroke-linejoin:round"
         inkscape:connector-curvature="0"
         id="DejaVuSans-34"
         d="m 37.7969,64.3125 -24.9063,-38.9219 24.9063,0 z m -2.5938,8.5937 12.4063,0 0,-47.5156 10.4062,0 0,-8.2031 -10.4062,0 0,-17.1875 -9.8125,0 0,17.1875 -32.90628,0 0,9.5156 z" />
    </defs>
    <defs
       id="defs145">
      <path
         style="stroke-linecap:butt;stroke-linejoin:round"
         inkscape:connector-curvature="0"
         id="DejaVuSans-35"
         d="m 10.7969,72.9062 38.7187,0 0,-8.3124 -29.6875,0 0,-17.8594 q 2.1407,0.7344 4.2813,1.0937 2.1562,0.3594 4.3125,0.3594 12.2031,0 19.3281,-6.6875 7.1406,-6.6875 7.1406,-18.1094 0,-11.7656 -7.3281,-18.29685 -7.3281,-6.51563 -20.6563,-6.51563 -4.5937,0 -9.3593,0.781255 -4.75,0.78125 -9.82815,2.343745 l 0,9.92188 q 4.39065,-2.39062 9.07815,-3.5625 4.6875,-1.17188 9.9062,-1.17188 8.4531,0 13.375,4.43748 4.9375,4.4375 4.9375,12.0625 0,7.6094 -4.9375,12.0469 -4.9219,4.4531 -13.375,4.4531 -3.9531,0 -7.8906,-0.875 -3.9219,-0.875 -8.0156,-2.7344 z" />
    </defs>
    <defs
       id="defs164">
      <path
         style="stroke-linecap:butt;stroke-linejoin:round"
         inkscape:connector-curvature="0"
         id="DejaVuSans-36"
         d="m 33.0156,40.375 q -6.6406,0 -10.5312,-4.5469 -3.875,-4.5312 -3.875,-12.4375 0,-7.8594 3.875,-12.4375 3.8906,-4.56248 10.5312,-4.56248 6.6406,0 10.5156,4.56248 3.875,4.5781 3.875,12.4375 0,7.9063 -3.875,12.4375 -3.875,4.5469 -10.5156,4.5469 m 19.5782,30.9219 0,-8.9844 q -3.7188,1.75 -7.5,2.6719 -3.7813,0.9375 -7.5,0.9375 -9.7657,0 -14.9219,-6.5938 -5.1407,-6.5937 -5.875,-19.9219 2.875,4.25 7.2187,6.5157 4.3594,2.2656 9.5782,2.2656 10.9843,0 17.3593,-6.6719 6.375,-6.6562 6.375,-18.125 0,-11.2344 -6.6406,-18.03122 -6.6406,-6.78126 -17.6719,-6.78126 -12.6562,0 -19.3437,9.6875 -6.68752,9.70318 -6.68752,28.10938 0,17.2812 8.20312,27.5625 8.2031,10.2813 22.0156,10.2813 3.7188,0 7.5,-0.7344 3.7813,-0.7344 7.8907,-2.1875" />
    </defs>
    <defs
       id="defs183">
      <path
         style="stroke-linecap:butt;stroke-linejoin:round"
         inkscape:connector-curvature="0"
         id="DejaVuSans-37"
         d="m 8.20312,72.9062 46.87498,0 0,-4.2031 L 28.6094,0 18.3125,0 l 24.9063,64.5938 -35.01568,0 z" />
    </defs>
    <defs
       id="defs202">
      <path
         style="stroke-linecap:butt;stroke-linejoin:round"
         inkscape:connector-curvature="0"
         id="DejaVuSans-38"
         d="m 31.7812,34.625 q -7.0312,0 -11.0624,-3.7656 -4.0157,-3.7656 -4.0157,-10.3438 0,-6.5937 4.0157,-10.3594 4.0312,-3.76558 11.0624,-3.76558 7.0313,0 11.0782,3.78128 4.0625,3.7969 4.0625,10.3437 0,6.5782 -4.0313,10.3438 -4.0156,3.7656 -11.1094,3.7656 m -9.8593,4.1875 Q 15.5781,40.375 12.0312,44.7188 8.5,49.0781 8.5,55.3281 q 0,8.7344 6.2188,13.8125 6.2343,5.0782 17.0624,5.0782 10.8907,0 17.0938,-5.0782 6.2031,-5.0781 6.2031,-13.8125 0,-6.25 -3.5469,-10.6093 Q 48,40.375 41.7031,38.8125 q 7.125,-1.6563 11.0938,-6.5 3.9843,-4.8281 3.9843,-11.7969 0,-10.60935 -6.4687,-16.28122 -6.4687,-5.65626 -18.5313,-5.65626 -12.0468,0 -18.5312,5.65626 -6.46875,5.67187 -6.46875,16.28122 0,6.9688 3.99995,11.7969 4.0157,4.8437 11.1407,6.5 m -3.6094,15.5781 q 0,-5.6562 3.5313,-8.8281 3.5468,-3.1719 9.9374,-3.1719 6.3594,0 9.9376,3.1719 3.5937,3.1719 3.5937,8.8281 0,5.6719 -3.5937,8.8438 -3.5782,3.1718 -9.9376,3.1718 -6.3906,0 -9.9374,-3.1718 -3.5313,-3.1719 -3.5313,-8.8438" />
    </defs>
  </defs>
  <path
     d="M 0,441 585,441 585,0 0,0 Z"
     style="fill:#ffffff;stroke-linecap:butt;stroke-linejoin:round"
     id="path10"
     inkscape:connector-curvature="0" />
  <path
     inkscape:connector-curvature="0"
     id="path14"
     style="fill:#ffffff;stroke-linecap:butt;stroke-linejoin:round"
     d="m 73.125,396.9 453.375,0 0,-352.8 -453.375,0 z" />
  <path
     inkscape:connector-curvature="0"
     id="path17"
     style="fill:none;stroke:#0000ff;stroke-width:2;stroke-linecap:square;stroke-linejoin:round"
     d="m 521.126,393.372 -66.461,-7.128 -32.843,-7.128 -22.918,-7.128 -18.077,-7.128 -15.201,-7.128 -13.292,-7.128 -11.932,-7.128 -10.915,-7.128 -10.123,-7.128 -9.492,-7.128 -8.974,-7.128 -8.544,-7.128 -8.18,-7.128 -7.868,-7.128 -7.598,-7.128 -7.361,-7.128 -7.152,-7.128 -6.967,-7.128 -6.801,-7.128 -6.651,-7.128 -6.517,-7.128 -6.393,-7.128 -6.282,-7.128 -6.179,-7.128 -6.084,-7.128 -5.997,-7.128 -5.917,-7.128 -5.841,-7.128 -5.771,-7.128 -5.706,-7.128 -5.646,-7.128 -5.588,-7.128 -5.534,-7.128 -5.484,-7.128 -5.436,-7.128 -5.391,-7.128 -5.349,-7.128 -5.308,-7.128 -5.271,-7.128 -5.233,-7.128 -5.199,-7.128 -5.167,-7.128 -5.134,-7.128 L 98.2437,79.74 93.1674,72.612 88.1186,65.484 83.0959,58.356 78.0984,51.228 73.125,44.1"
     clip-path="url(#p5873ec822d)" />
  <path
     inkscape:connector-curvature="0"
     id="path20"
     style="fill:none;stroke:#000000;stroke-linecap:square;stroke-linejoin:miter"
     d="m 526.5,396.9 0,-352.8" />
  <path
     inkscape:connector-curvature="0"
     id="path23"
     style="fill:none;stroke:#000000;stroke-linecap:square;stroke-linejoin:miter"
     d="m 73.125,396.9 0,-352.8" />
  <path
     inkscape:connector-curvature="0"
     id="path26"
     style="fill:none;stroke:#000000;stroke-linecap:square;stroke-linejoin:miter"
     d="m 73.125,44.1 453.375,0" />
  <path
     inkscape:connector-curvature="0"
     id="path29"
     style="fill:none;stroke:#000000;stroke-linecap:square;stroke-linejoin:miter"
     d="m 73.125,396.9 453.375,0" />
  <use
     style="stroke:#000000;stroke-width:0.5;stroke-linecap:butt;stroke-linejoin:round"
     x="73.125"
     xlink:href="#mc7db9fdffb"
     y="396.89999"
     id="use39"
     width="100%"
     height="100%" />
  <use
     style="stroke:#000000;stroke-width:0.5;stroke-linecap:butt;stroke-linejoin:round"
     x="73.125"
     xlink:href="#m5a7d422ac3"
     y="44.099998"
     id="use47"
     width="100%"
     height="100%" />
  <use
     xlink:href="#DejaVuSans-30"
     id="use55"
     style="stroke-linecap:butt;stroke-linejoin:round"
     x="0"
     y="0"
     width="100%"
     height="100%"
     transform="matrix(0.12,0,0,-0.12,70.101562,410.01812)" />
  <use
     style="stroke:#000000;stroke-width:0.5;stroke-linecap:butt;stroke-linejoin:round"
     x="129.79688"
     xlink:href="#mc7db9fdffb"
     y="396.89999"
     id="use61"
     width="100%"
     height="100%" />
  <use
     style="stroke:#000000;stroke-width:0.5;stroke-linecap:butt;stroke-linejoin:round"
     x="129.79688"
     xlink:href="#m5a7d422ac3"
     y="44.099998"
     id="use66"
     width="100%"
     height="100%" />
  <use
     xlink:href="#DejaVuSans-31"
     id="use74"
     style="stroke-linecap:butt;stroke-linejoin:round"
     x="0"
     y="0"
     width="100%"
     height="100%"
     transform="matrix(0.12,0,0,-0.12,127.1925,410.01812)" />
  <use
     style="stroke:#000000;stroke-width:0.5;stroke-linecap:butt;stroke-linejoin:round"
     x="186.46875"
     xlink:href="#mc7db9fdffb"
     y="396.89999"
     id="use80"
     width="100%"
     height="100%" />
  <use
     style="stroke:#000000;stroke-width:0.5;stroke-linecap:butt;stroke-linejoin:round"
     x="186.46875"
     xlink:href="#m5a7d422ac3"
     y="44.099998"
     id="use85"
     width="100%"
     height="100%" />
  <use
     xlink:href="#DejaVuSans-32"
     id="use93"
     style="stroke-linecap:butt;stroke-linejoin:round"
     x="0"
     y="0"
     width="100%"
     height="100%"
     transform="matrix(0.12,0,0,-0.12,183.69187,410.01812)" />
  <use
     style="stroke:#000000;stroke-width:0.5;stroke-linecap:butt;stroke-linejoin:round"
     x="243.14062"
     xlink:href="#mc7db9fdffb"
     y="396.89999"
     id="use99"
     width="100%"
     height="100%" />
  <use
     style="stroke:#000000;stroke-width:0.5;stroke-linecap:butt;stroke-linejoin:round"
     x="243.14062"
     xlink:href="#m5a7d422ac3"
     y="44.099998"
     id="use104"
     width="100%"
     height="100%" />
  <use
     xlink:href="#DejaVuSans-33"
     id="use112"
     style="stroke-linecap:butt;stroke-linejoin:round"
     x="0"
     y="0"
     width="100%"
     height="100%"
     transform="matrix(0.12,0,0,-0.12,240.26156,410.01812)" />
  <use
     style="stroke:#000000;stroke-width:0.5;stroke-linecap:butt;stroke-linejoin:round"
     x="299.8125"
     xlink:href="#mc7db9fdffb"
     y="396.89999"
     id="use118"
     width="100%"
     height="100%" />
  <use
     style="stroke:#000000;stroke-width:0.5;stroke-linecap:butt;stroke-linejoin:round"
     x="299.8125"
     xlink:href="#m5a7d422ac3"
     y="44.099998"
     id="use123"
     width="100%"
     height="100%" />
  <use
     xlink:href="#DejaVuSans-34"
     id="use131"
     style="stroke-linecap:butt;stroke-linejoin:round"
     x="0"
     y="0"
     width="100%"
     height="100%"
     transform="matrix(0.12,0,0,-0.12,296.625,410.01812)" />
  <use
     style="stroke:#000000;stroke-width:0.5;stroke-linecap:butt;stroke-linejoin:round"
     x="356.48438"
     xlink:href="#mc7db9fdffb"
     y="396.89999"
     id="use137"
     width="100%"
     height="100%" />
  <use
     style="stroke:#000000;stroke-width:0.5;stroke-linecap:butt;stroke-linejoin:round"
     x="356.48438"
     xlink:href="#m5a7d422ac3"
     y="44.099998"
     id="use142"
     width="100%"
     height="100%" />
  <use
     xlink:href="#DejaVuSans-35"
     id="use150"
     style="stroke-linecap:butt;stroke-linejoin:round"
     x="0"
     y="0"
     width="100%"
     height="100%"
     transform="matrix(0.12,0,0,-0.12,353.65406,410.01812)" />
  <use
     style="stroke:#000000;stroke-width:0.5;stroke-linecap:butt;stroke-linejoin:round"
     x="413.15625"
     xlink:href="#mc7db9fdffb"
     y="396.89999"
     id="use156"
     width="100%"
     height="100%" />
  <use
     style="stroke:#000000;stroke-width:0.5;stroke-linecap:butt;stroke-linejoin:round"
     x="413.15625"
     xlink:href="#m5a7d422ac3"
     y="44.099998"
     id="use161"
     width="100%"
     height="100%" />
  <use
     xlink:href="#DejaVuSans-36"
     id="use169"
     style="stroke-linecap:butt;stroke-linejoin:round"
     x="0"
     y="0"
     width="100%"
     height="100%"
     transform="matrix(0.12,0,0,-0.12,410.13562,410.01812)" />
  <use
     style="stroke:#000000;stroke-width:0.5;stroke-linecap:butt;stroke-linejoin:round"
     x="469.82812"
     xlink:href="#mc7db9fdffb"
     y="396.89999"
     id="use175"
     width="100%"
     height="100%" />
  <use
     style="stroke:#000000;stroke-width:0.5;stroke-linecap:butt;stroke-linejoin:round"
     x="469.82812"
     xlink:href="#m5a7d422ac3"
     y="44.099998"
     id="use180"
     width="100%"
     height="100%" />
  <use
     xlink:href="#DejaVuSans-37"
     id="use188"
     style="stroke-linecap:butt;stroke-linejoin:round"
     x="0"
     y="0"
     width="100%"
     height="100%"
     transform="matrix(0.12,0,0,-0.12,467.01562,410.01812)" />
  <use
     style="stroke:#000000;stroke-width:0.5;stroke-linecap:butt;stroke-linejoin:round"
     x="526.5"
     xlink:href="#mc7db9fdffb"
     y="396.89999"
     id="use194"
     width="100%"
     height="100%" />
  <use
     style="stroke:#000000;stroke-width:0.5;stroke-linecap:butt;stroke-linejoin:round"
     x="526.5"
     xlink:href="#m5a7d422ac3"
     y="44.099998"
     id="use199"
     width="100%"
     height="100%" />
  <use
     xlink:href="#DejaVuSans-38"
     id="use207"
     style="stroke-linecap:butt;stroke-linejoin:round"
     x="0"
     y="0"
     width="100%"
     height="100%"
     transform="matrix(0.12,0,0,-0.12,523.5,410.01812)" />
  <use
     style="stroke:#000000;stroke-width:0.5;stroke-linecap:butt;stroke-linejoin:round"
     x="73.125"
     xlink:href="#md7965d1ba0"
     y="396.89999"
     id="use217"
     width="100%"
     height="100%" />
  <use
     style="stroke:#000000;stroke-width:0.5;stroke-linecap:butt;stroke-linejoin:round"
     x="526.5"
     xlink:href="#md9a1c1a7cd"
     y="396.89999"
     id="use225"
     width="100%"
     height="100%" />
  <use
     xlink:href="#DejaVuSans-30"
     id="use233"
     style="stroke-linecap:butt;stroke-linejoin:round"
     x="0"
     y="0"
     width="100%"
     height="100%"
     transform="matrix(0.12,0,0,-0.12,51.629375,400.21125)" />
  <use
     x="63.623047"
     xlink:href="#DejaVuSans-2e"
     id="use235"
     style="stroke-linecap:butt;stroke-linejoin:round"
     y="0"
     width="100%"
     height="100%"
     transform="matrix(0.12,0,0,-0.12,51.629375,400.21125)" />
  <use
     x="95.410156"
     xlink:href="#DejaVuSans-30"
     id="use237"
     style="stroke-linecap:butt;stroke-linejoin:round"
     y="0"
     width="100%"
     height="100%"
     transform="matrix(0.12,0,0,-0.12,51.629375,400.21125)" />
  <use
     style="stroke:#000000;stroke-width:0.5;stroke-linecap:butt;stroke-linejoin:round"
     x="73.125"
     xlink:href="#md7965d1ba0"
     y="326.34"
     id="use243"
     width="100%"
     height="100%" />
  <use
     style="stroke:#000000;stroke-width:0.5;stroke-linecap:butt;stroke-linejoin:round"
     x="526.5"
     xlink:href="#md9a1c1a7cd"
     y="326.34"
     id="use248"
     width="100%"
     height="100%" />
  <use
     xlink:href="#DejaVuSans-30"
     id="use253"
     style="stroke-linecap:butt;stroke-linejoin:round"
     x="0"
     y="0"
     width="100%"
     height="100%"
     transform="matrix(0.12,0,0,-0.12,52.034375,329.65125)" />
  <use
     x="63.623047"
     xlink:href="#DejaVuSans-2e"
     id="use255"
     style="stroke-linecap:butt;stroke-linejoin:round"
     y="0"
     width="100%"
     height="100%"
     transform="matrix(0.12,0,0,-0.12,52.034375,329.65125)" />
  <use
     x="95.410156"
     xlink:href="#DejaVuSans-32"
     id="use257"
     style="stroke-linecap:butt;stroke-linejoin:round"
     y="0"
     width="100%"
     height="100%"
     transform="matrix(0.12,0,0,-0.12,52.034375,329.65125)" />
  <use
     style="stroke:#000000;stroke-width:0.5;stroke-linecap:butt;stroke-linejoin:round"
     x="73.125"
     xlink:href="#md7965d1ba0"
     y="255.78"
     id="use263"
     width="100%"
     height="100%" />
  <use
     style="stroke:#000000;stroke-width:0.5;stroke-linecap:butt;stroke-linejoin:round"
     x="526.5"
     xlink:href="#md9a1c1a7cd"
     y="255.78"
     id="use268"
     width="100%"
     height="100%" />
  <use
     xlink:href="#DejaVuSans-30"
     id="use273"
     style="stroke-linecap:butt;stroke-linejoin:round"
     x="0"
     y="0"
     width="100%"
     height="100%"
     transform="matrix(0.12,0,0,-0.12,51.505625,259.09125)" />
  <use
     x="63.623047"
     xlink:href="#DejaVuSans-2e"
     id="use275"
     style="stroke-linecap:butt;stroke-linejoin:round"
     y="0"
     width="100%"
     height="100%"
     transform="matrix(0.12,0,0,-0.12,51.505625,259.09125)" />
  <use
     x="95.410156"
     xlink:href="#DejaVuSans-34"
     id="use277"
     style="stroke-linecap:butt;stroke-linejoin:round"
     y="0"
     width="100%"
     height="100%"
     transform="matrix(0.12,0,0,-0.12,51.505625,259.09125)" />
  <use
     style="stroke:#000000;stroke-width:0.5;stroke-linecap:butt;stroke-linejoin:round"
     x="73.125"
     xlink:href="#md7965d1ba0"
     y="185.22"
     id="use283"
     width="100%"
     height="100%" />
  <use
     style="stroke:#000000;stroke-width:0.5;stroke-linecap:butt;stroke-linejoin:round"
     x="526.5"
     xlink:href="#md9a1c1a7cd"
     y="185.22"
     id="use288"
     width="100%"
     height="100%" />
  <use
     xlink:href="#DejaVuSans-30"
     id="use293"
     style="stroke-linecap:butt;stroke-linejoin:round"
     x="0"
     y="0"
     width="100%"
     height="100%"
     transform="matrix(0.12,0,0,-0.12,51.588125,188.53125)" />
  <use
     x="63.623047"
     xlink:href="#DejaVuSans-2e"
     id="use295"
     style="stroke-linecap:butt;stroke-linejoin:round"
     y="0"
     width="100%"
     height="100%"
     transform="matrix(0.12,0,0,-0.12,51.588125,188.53125)" />
  <use
     x="95.410156"
     xlink:href="#DejaVuSans-36"
     id="use297"
     style="stroke-linecap:butt;stroke-linejoin:round"
     y="0"
     width="100%"
     height="100%"
     transform="matrix(0.12,0,0,-0.12,51.588125,188.53125)" />
  <use
     style="stroke:#000000;stroke-width:0.5;stroke-linecap:butt;stroke-linejoin:round"
     x="73.125"
     xlink:href="#md7965d1ba0"
     y="114.66"
     id="use303"
     width="100%"
     height="100%" />
  <use
     style="stroke:#000000;stroke-width:0.5;stroke-linecap:butt;stroke-linejoin:round"
     x="526.5"
     xlink:href="#md9a1c1a7cd"
     y="114.66"
     id="use308"
     width="100%"
     height="100%" />
  <use
     xlink:href="#DejaVuSans-30"
     id="use313"
     style="stroke-linecap:butt;stroke-linejoin:round"
     x="0"
     y="0"
     width="100%"
     height="100%"
     transform="matrix(0.12,0,0,-0.12,51.65375,117.97125)" />
  <use
     x="63.623047"
     xlink:href="#DejaVuSans-2e"
     id="use315"
     style="stroke-linecap:butt;stroke-linejoin:round"
     y="0"
     width="100%"
     height="100%"
     transform="matrix(0.12,0,0,-0.12,51.65375,117.97125)" />
  <use
     x="95.410156"
     xlink:href="#DejaVuSans-38"
     id="use317"
     style="stroke-linecap:butt;stroke-linejoin:round"
     y="0"
     width="100%"
     height="100%"
     transform="matrix(0.12,0,0,-0.12,51.65375,117.97125)" />
  <use
     style="stroke:#000000;stroke-width:0.5;stroke-linecap:butt;stroke-linejoin:round"
     x="73.125"
     xlink:href="#md7965d1ba0"
     y="44.099998"
     id="use323"
     width="100%"
     height="100%" />
  <use
     style="stroke:#000000;stroke-width:0.5;stroke-linecap:butt;stroke-linejoin:round"
     x="526.5"
     xlink:href="#md9a1c1a7cd"
     y="44.099998"
     id="use328"
     width="100%"
     height="100%" />
  <use
     xlink:href="#DejaVuSans-31"
     id="use333"
     style="stroke-linecap:butt;stroke-linejoin:round"
     x="0"
     y="0"
     width="100%"
     height="100%"
     transform="matrix(0.12,0,0,-0.12,52.15625,47.41125)" />
  <use
     x="63.623047"
     xlink:href="#DejaVuSans-2e"
     id="use335"
     style="stroke-linecap:butt;stroke-linejoin:round"
     y="0"
     width="100%"
     height="100%"
     transform="matrix(0.12,0,0,-0.12,52.15625,47.41125)" />
  <use
     x="95.410156"
     xlink:href="#DejaVuSans-30"
     id="use337"
     style="stroke-linecap:butt;stroke-linejoin:round"
     y="0"
     width="100%"
     height="100%"
     transform="matrix(0.12,0,0,-0.12,52.15625,47.41125)" />
  <defs
     id="defs339">
    <clipPath
       id="p5873ec822d">
      <rect
         height="352.8"
         width="453.375"
         x="73.125"
         y="44.1"
         id="rect342" />
    </clipPath>
  </defs>
</svg>
